<?xml version="1.0" encoding="utf-8" standalone="no"?>
<!DOCTYPE svg PUBLIC "-//W3C//DTD SVG 1.1//EN"
  "http://www.w3.org/Graphics/SVG/1.1/DTD/svg11.dtd">
<!-- Created with matplotlib (http://matplotlib.org/) -->
<svg height="406pt" version="1.1" viewBox="0 0 460 406" width="460pt" xmlns="http://www.w3.org/2000/svg" xmlns:xlink="http://www.w3.org/1999/xlink">
 <defs>
  <style type="text/css">
*{stroke-linecap:butt;stroke-linejoin:round;}
  </style>
 </defs>
 <g id="figure_1">
  <g id="patch_1">
   <path d="
M0 406.059
L460.8 406.059
L460.8 0
L0 0
z
" style="fill:#ffffff;"/>
  </g>
  <g id="axes_1">
   <g id="patch_2">
    <path d="
M7.2 352.8
L453.6 352.8
L453.6 7.2
L7.2 7.2
z
" style="fill:#ffffff;"/>
   </g>
   <g id="line2d_1">
    <path clip-path="url(#p5bee155178)" d="
M-1 338.543
L0.961556 338.543
L0.961556 337.592
L31.1106 337.592
L31.1106 336.642
L71.0663 336.642
L71.0663 335.691
L95.6087 335.691
L95.6087 334.741
L102.192 334.741
L102.192 333.79
L117.195 333.79
L117.23 331.889
L118.925 331.889
L118.925 330.939
L119.136 330.939
L119.136 329.988
L120.378 329.988
L120.378 329.038
L120.652 329.038
L120.652 328.087
L123.003 328.087
L123.003 327.137
L127.718 327.137
L127.718 326.186
L131.146 326.186
L131.146 325.236
L140.812 325.236
L140.812 324.285
L141.878 324.285
L141.878 323.335
L146.853 323.335
L146.853 322.384
L150.801 322.384
L150.801 321.434
L155.64 321.434
L155.64 320.483
L156.166 320.483
L156.166 319.533
L157.894 319.533
L157.894 318.582
L161.939 318.582
L161.939 317.632
L163.044 317.632
L163.044 316.681
L164.865 316.681
L164.865 315.731
L165.299 315.731
L165.299 314.78
L167.666 314.78
L167.666 313.83
L169.994 313.83
L169.994 312.879
L171.841 312.879
L171.841 311.929
L173.688 311.929
L173.688 310.978
L174.882 310.978
L174.882 310.028
L175.542 310.028
L175.542 309.077
L176.894 309.077
L176.894 308.127
L183.202 308.127
L183.202 307.176
L185.51 307.176
L185.51 306.226
L186.252 306.226
L186.252 305.275
L188.15 305.275
L188.15 304.325
L191.995 304.325
L191.995 303.374
L192.465 303.374
L192.515 301.473
L192.907 301.473
L192.907 300.523
L193.276 300.523
L193.276 299.572
L194.075 299.572
L194.075 298.622
L196.384 298.622
L196.384 297.671
L197.918 297.671
L197.918 296.721
L198.371 296.721
L198.371 295.77
L198.879 295.77
L198.879 294.82
L199.626 294.82
L199.626 293.869
L200.663 293.869
L200.771 291.968
L201.267 291.968
L201.267 291.018
L201.553 291.018
L201.553 290.067
L202.788 290.067
L202.878 288.166
L203.038 288.166
L203.106 286.265
L203.7 286.265
L203.7 285.315
L204.205 285.315
L204.205 284.364
L204.961 284.364
L204.961 283.414
L206.269 283.414
L206.269 282.463
L206.731 282.463
L206.731 281.513
L207.169 281.513
L207.169 280.562
L207.728 280.562
L207.728 279.612
L207.974 279.612
L207.974 278.661
L208.176 278.661
L208.176 277.711
L209.288 277.711
L209.288 276.76
L209.839 276.76
L209.855 274.859
L210.092 274.859
L210.182 272.958
L210.282 272.958
L210.282 272.008
L210.576 272.008
L210.638 270.107
L210.842 270.107
L210.943 268.206
L210.956 268.206
L211.05 266.305
L211.345 266.305
L211.345 265.354
L211.58 265.354
L211.676 263.453
L211.791 263.453
L211.803 261.552
L211.921 261.552
L211.996 257.75
L212.117 257.75
L212.149 255.85
L212.377 255.85
L212.377 254.899
L212.502 254.899
L212.588 252.048
L212.64 252.048
L212.669 250.147
L212.77 250.147
L212.77 249.196
L213.002 249.196
L213.019 247.295
L213.238 247.295
L213.272 243.493
L213.361 243.493
L213.374 241.592
L213.634 241.592
L213.701 238.741
L213.828 238.741
L213.88 236.84
L214.03 236.84
L214.03 235.889
L214.421 235.889
L214.421 234.939
L214.737 234.939
L214.766 233.038
L215.027 233.038
L215.132 230.186
L215.214 230.186
L215.294 227.335
L215.423 227.335
L215.423 226.384
L215.546 226.384
L215.546 225.434
L215.796 225.434
L215.856 223.533
L216.084 223.533
L216.151 220.681
L216.275 220.681
L216.275 219.731
L216.486 219.731
L216.579 217.83
L216.613 217.83
L216.72 215.929
L216.893 215.929
L216.953 214.028
L217.142 214.028
L217.172 212.127
L217.461 212.127
L217.461 211.176
L217.719 211.176
L217.737 209.275
L217.871 209.275
L217.97 206.424
L218.232 206.424
L218.232 205.473
L218.399 205.473
L218.399 204.523
L218.56 204.523
L218.56 203.572
L219.382 203.572
L219.382 202.622
L219.676 202.622
L219.706 200.721
L219.99 200.721
L219.99 199.77
L220.255 199.77
L220.255 198.82
L220.392 198.82
L220.392 197.869
L220.678 197.869
L220.778 194.067
L220.871 194.067
L220.871 193.117
L221.03 193.117
L221.03 192.166
L221.177 192.166
L221.263 190.265
L221.329 190.265
L221.329 189.315
L221.965 189.315
L222.05 186.463
L222.265 186.463
L222.265 185.513
L222.405 185.513
L222.498 183.612
L222.533 183.612
L222.533 182.661
L222.958 182.661
L222.958 181.711
L223.126 181.711
L223.135 179.81
L223.268 179.81
L223.303 177.909
L223.643 177.909
L223.672 176.008
L223.768 176.008
L223.768 175.057
L224.983 175.057
L224.983 174.107
L225.2 174.107
L225.2 173.156
L225.379 173.156
L225.486 170.305
L225.528 170.305
L225.598 167.453
L226.051 167.453
L226.086 165.552
L226.478 165.552
L226.488 163.651
L226.593 163.651
L226.65 161.75
L227.118 161.75
L227.118 160.8
L227.249 160.8
L227.249 159.85
L227.371 159.85
L227.424 156.998
L227.862 156.998
L227.913 155.097
L228.196 155.097
L228.196 154.147
L228.481 154.147
L228.496 152.246
L228.748 152.246
L228.748 151.295
L228.899 151.295
L228.923 147.493
L229.112 147.493
L229.112 146.543
L229.389 146.543
L229.389 145.592
L229.665 145.592
L229.665 144.642
L229.984 144.642
L229.984 143.691
L230.703 143.691
L230.714 141.79
L230.922 141.79
L230.922 140.84
L231.19 140.84
L231.19 139.889
L231.305 139.889
L231.335 137.988
L231.577 137.988
L231.577 137.038
L232.029 137.038
L232.039 135.137
L232.287 135.137
L232.287 134.186
L232.426 134.186
L232.426 133.236
L232.579 133.236
L232.579 132.285
L232.902 132.285
L232.928 130.384
L233.081 130.384
L233.125 127.533
L233.218 127.533
L233.218 126.582
L233.897 126.582
L234.001 124.681
L234.214 124.681
L234.214 123.731
L234.351 123.731
L234.351 122.78
L234.497 122.78
L234.497 121.83
L234.676 121.83
L234.676 120.879
L234.822 120.879
L234.822 119.929
L235.06 119.929
L235.145 117.077
L235.406 117.077
L235.406 116.127
L235.609 116.127
L235.609 115.176
L235.757 115.176
L235.757 114.226
L236.157 114.226
L236.259 112.325
L236.64 112.325
L236.64 111.374
L237.007 111.374
L237.007 110.424
L237.16 110.424
L237.174 108.523
L237.302 108.523
L237.39 105.671
L237.437 105.671
L237.473 103.77
L237.574 103.77
L237.625 100.919
L237.72 100.919
L237.779 99.0178
L237.915 99.0178
L237.977 97.1168
L238.107 97.1168
L238.107 96.1663
L238.252 96.1663
L238.252 95.2158
L238.365 95.2158
L238.365 94.2653
L238.664 94.2653
L238.715 92.3644
L238.864 92.3644
L238.972 89.5129
L239.109 89.5129
L239.109 88.5624
L239.297 88.5624
L239.377 85.7109
L239.736 85.7109
L239.76 83.8099
L239.928 83.8099
L239.928 82.8594
L240.058 82.8594
L240.143 80.9584
L240.359 80.9584
L240.359 80.0079
L240.562 80.0079
L240.562 79.0574
L240.728 79.0574
L240.728 78.1069
L240.968 78.1069
L240.968 77.1564
L241.329 77.1564
L241.392 74.305
L242.14 74.305
L242.25 72.404
L242.253 72.404
L242.253 71.4535
L242.828 71.4535
L242.872 69.5525
L242.98 69.5525
L242.98 68.602
L243.252 68.602
L243.252 67.6515
L243.534 67.6515
L243.534 66.701
L243.713 66.701
L243.814 63.8495
L244.255 63.8495
L244.255 62.899
L244.623 62.899
L244.623 61.9485
L244.894 61.9485
L244.988 60.0475
L245.076 60.0475
L245.076 59.097
L245.362 59.097
L245.362 58.1465
L246.189 58.1465
L246.189 57.196
L246.624 57.196
L246.653 53.3941
L247.085 53.3941
L247.085 52.4436
L248.08 52.4436
L248.08 51.4931
L248.214 51.4931
L248.214 50.5426
L250.247 50.5426
L250.247 49.5921
L251.092 49.5921
L251.092 48.6416
L251.205 48.6416
L251.205 47.6911
L252.64 47.6911
L252.64 46.7406
L253.511 46.7406
L253.511 45.7901
L254.179 45.7901
L254.276 43.8891
L254.328 43.8891
L254.328 42.9386
L255.186 42.9386
L255.186 41.9881
L255.797 41.9881
L255.797 41.0376
L257.939 41.0376
L257.939 40.0871
L259.461 40.0871
L259.513 38.1861
L259.667 38.1861
L259.667 37.2356
L260.824 37.2356
L260.824 36.2851
L261.617 36.2851
L261.617 35.3347
L262.042 35.3347
L262.042 34.3842
L263.533 34.3842
L263.533 33.4337
L266.14 33.4337
L266.14 32.4832
L266.554 32.4832
L266.554 31.5327
L267.242 31.5327
L267.242 30.5822
L267.791 30.5822
L267.791 29.6317
L269.057 29.6317
L269.057 28.6812
L270.306 28.6812
L270.306 27.7307
L272.931 27.7307
L272.931 26.7802
L280.958 26.7802
L280.958 25.8297
L281.382 25.8297
L281.382 24.8792
L281.5 24.8792
L281.5 23.9287
L282.879 23.9287
L282.879 22.9782
L283.135 22.9782
L283.135 22.0277
L284.143 22.0277
L284.143 21.0772
L287.03 21.0772
L287.03 20.1267
L288.801 20.1267
L288.801 19.1762
L290.509 19.1762
L290.509 18.2257
L290.763 18.2257
L290.763 17.2752
L294.208 17.2752
L294.208 16.3248
L294.624 16.3248
L294.624 15.3743
L296.421 15.3743
L296.421 14.4238
L300.201 14.4238
L300.201 13.4733
L302.543 13.4733
L302.543 12.5228
L310.321 12.5228
L310.321 11.5723
L324.855 11.5723
L324.855 10.6218
L324.855 10.6218
L453.6 10.6218
L453.6 10.6218" style="fill:none;stroke:#ff0000;stroke-linecap:square;stroke-width:3.0;"/>
   </g>
   <g id="line2d_2">
    <path clip-path="url(#p5bee155178)" d="
M219.294 352.8
L219.294 351.85
L223.423 351.85
L223.445 349.949
L224.49 349.949
L224.49 348.998
L225.417 348.998
L225.454 347.097
L227.036 347.097
L227.037 345.196
L227.968 345.196
L227.968 344.246
L229.241 344.246
L229.241 343.295
L229.423 343.295
L229.423 342.345
L229.992 342.345
L230.006 340.444
L230.592 340.444
L230.592 339.493
L231.468 339.493
L231.57 337.592
L231.834 337.592
L231.919 335.691
L232.319 335.691
L232.341 333.79
L233.187 333.79
L233.187 332.84
L233.404 332.84
L233.404 331.889
L233.607 331.889
L233.607 330.939
L234.031 330.939
L234.115 329.038
L234.583 329.038
L234.583 328.087
L234.845 328.087
L234.845 327.137
L236.03 327.137
L236.03 326.186
L236.467 326.186
L236.467 325.236
L236.719 325.236
L236.719 324.285
L236.97 324.285
L237.071 322.384
L237.994 322.384
L238.006 320.483
L238.275 320.483
L238.275 319.533
L238.524 319.533
L238.524 318.582
L239.116 318.582
L239.116 317.632
L239.248 317.632
L239.248 316.681
L239.389 316.681
L239.389 315.731
L239.577 315.731
L239.577 314.78
L240.319 314.78
L240.412 312.879
L240.924 312.879
L241.019 308.127
L241.514 308.127
L241.514 307.176
L241.744 307.176
L241.744 306.226
L242.186 306.226
L242.186 305.275
L242.436 305.275
L242.548 303.374
L243.035 303.374
L243.035 302.424
L243.223 302.424
L243.223 301.473
L243.361 301.473
L243.361 300.523
L243.583 300.523
L243.606 297.671
L243.989 297.671
L243.989 296.721
L244.129 296.721
L244.129 295.77
L244.274 295.77
L244.281 293.869
L244.532 293.869
L244.603 291.968
L244.805 291.968
L244.88 290.067
L244.978 290.067
L245.04 287.216
L245.139 287.216
L245.139 286.265
L245.314 286.265
L245.365 284.364
L245.585 284.364
L245.585 283.414
L245.722 283.414
L245.78 280.562
L245.917 280.562
L245.943 278.661
L246.16 278.661
L246.16 277.711
L246.324 277.711
L246.324 276.76
L246.947 276.76
L247.046 274.859
L247.258 274.859
L247.258 273.909
L247.375 273.909
L247.375 272.958
L247.514 272.958
L247.514 272.008
L247.647 272.008
L247.647 271.057
L247.787 271.057
L247.787 270.107
L247.991 270.107
L248.081 268.206
L248.302 268.206
L248.352 266.305
L248.425 266.305
L248.486 264.404
L248.587 264.404
L248.587 263.453
L249.03 263.453
L249.03 262.503
L249.165 262.503
L249.274 259.651
L249.7 259.651
L249.7 258.701
L249.876 258.701
L249.876 257.75
L250.097 257.75
L250.201 255.85
L250.354 255.85
L250.398 253.949
L250.519 253.949
L250.55 251.097
L250.735 251.097
L250.735 250.147
L251.015 250.147
L251.015 249.196
L251.223 249.196
L251.315 245.394
L251.359 245.394
L251.403 241.592
L251.696 241.592
L251.696 240.642
L251.87 240.642
L251.952 238.741
L251.983 238.741
L251.983 237.79
L252.133 237.79
L252.238 235.889
L252.423 235.889
L252.438 233.988
L252.682 233.988
L252.784 231.137
L253.02 231.137
L253.02 230.186
L253.266 230.186
L253.347 228.285
L253.463 228.285
L253.463 227.335
L253.724 227.335
L253.752 225.434
L254.053 225.434
L254.11 223.533
L254.574 223.533
L254.574 222.582
L255.057 222.582
L255.057 221.632
L255.406 221.632
L255.419 219.731
L255.63 219.731
L255.694 216.879
L256.224 216.879
L256.281 214.028
L256.36 214.028
L256.36 213.077
L256.559 213.077
L256.635 210.226
L256.846 210.226
L256.846 209.275
L257.045 209.275
L257.089 207.374
L257.187 207.374
L257.187 206.424
L257.437 206.424
L257.437 205.473
L257.673 205.473
L257.673 204.523
L257.875 204.523
L257.986 201.671
L258.015 201.671
L258.017 199.77
L258.439 199.77
L258.461 197.869
L258.612 197.869
L258.677 195.968
L259.07 195.968
L259.07 195.018
L259.24 195.018
L259.24 194.067
L259.396 194.067
L259.461 192.166
L259.578 192.166
L259.578 191.216
L259.751 191.216
L259.751 190.265
L259.904 190.265
L259.904 189.315
L261.581 189.315
L261.636 187.414
L262.331 187.414
L262.331 186.463
L263.113 186.463
L263.113 185.513
L263.238 185.513
L263.342 183.612
L263.618 183.612
L263.626 181.711
L263.76 181.711
L263.76 180.76
L264.421 180.76
L264.421 179.81
L265.144 179.81
L265.144 178.859
L265.29 178.859
L265.29 177.909
L265.411 177.909
L265.492 176.008
L265.691 176.008
L265.753 174.107
L265.822 174.107
L265.889 171.255
L266.223 171.255
L266.293 169.354
L266.912 169.354
L266.912 168.404
L267.067 168.404
L267.067 167.453
L267.331 167.453
L267.331 166.503
L267.97 166.503
L267.97 165.552
L269.665 165.552
L269.687 163.651
L270.222 163.651
L270.222 162.701
L270.669 162.701
L270.696 160.8
L271.196 160.8
L271.273 158.899
L271.559 158.899
L271.559 157.949
L272.146 157.949
L272.146 156.998
L272.445 156.998
L272.445 156.048
L272.616 156.048
L272.616 155.097
L273.852 155.097
L273.896 153.196
L274.856 153.196
L274.856 152.246
L276.597 152.246
L276.597 151.295
L276.937 151.295
L276.937 150.345
L277.539 150.345
L277.539 149.394
L277.73 149.394
L277.787 147.493
L277.897 147.493
L277.897 146.543
L278.412 146.543
L278.412 145.592
L278.711 145.592
L278.711 144.642
L278.959 144.642
L278.959 143.691
L279.143 143.691
L279.143 142.741
L279.95 142.741
L279.95 141.79
L280.422 141.79
L280.471 139.889
L280.618 139.889
L280.641 137.988
L281.535 137.988
L281.535 137.038
L282.186 137.038
L282.186 136.087
L283.06 136.087
L283.097 134.186
L283.643 134.186
L283.643 133.236
L284.256 133.236
L284.256 132.285
L285.023 132.285
L285.023 131.335
L285.791 131.335
L285.876 129.434
L286.295 129.434
L286.397 126.582
L286.616 126.582
L286.616 125.632
L286.825 125.632
L286.825 124.681
L287.307 124.681
L287.307 123.731
L287.838 123.731
L287.838 122.78
L288.549 122.78
L288.549 121.83
L290.888 121.83
L290.888 120.879
L292.448 120.879
L292.448 119.929
L295.501 119.929
L295.501 118.978
L295.792 118.978
L295.792 118.028
L296.012 118.028
L296.012 117.077
L300.118 117.077
L300.118 116.127
L301.802 116.127
L301.802 115.176
L307.33 115.176
L307.33 114.226
L307.539 114.226
L307.599 112.325
L308.084 112.325
L308.084 111.374
L308.375 111.374
L308.375 110.424
L308.788 110.424
L308.788 109.473
L308.984 109.473
L308.984 108.523
L309.188 108.523
L309.188 107.572
L309.625 107.572
L309.625 106.622
L312.783 106.622
L312.797 104.721
L313.152 104.721
L313.152 103.77
L313.581 103.77
L313.581 102.82
L315.039 102.82
L315.039 101.869
L315.226 101.869
L315.303 99.9683
L315.685 99.9683
L315.685 99.0178
L316.239 99.0178
L316.239 98.0673
L316.818 98.0673
L316.818 97.1168
L317.684 97.1168
L317.684 96.1663
L317.822 96.1663
L317.911 93.3149
L317.945 93.3149
L318.04 91.4139
L318.706 91.4139
L318.706 90.4634
L320.11 90.4634
L320.11 89.5129
L320.683 89.5129
L320.683 88.5624
L322.157 88.5624
L322.157 87.6119
L322.918 87.6119
L322.918 86.6614
L323.388 86.6614
L323.388 85.7109
L323.834 85.7109
L323.834 84.7604
L324.26 84.7604
L324.26 83.8099
L324.425 83.8099
L324.425 82.8594
L324.616 82.8594
L324.616 81.9089
L326.064 81.9089
L326.064 80.9584
L326.383 80.9584
L326.383 80.0079
L326.576 80.0079
L326.576 79.0574
L327.212 79.0574
L327.212 78.1069
L327.589 78.1069
L327.589 77.1564
L329.737 77.1564
L329.737 76.2059
L331.63 76.2059
L331.63 75.2554
L333.224 75.2554
L333.224 74.305
L333.476 74.305
L333.476 73.3545
L333.915 73.3545
L333.915 72.404
L336.033 72.404
L336.091 70.503
L337.233 70.503
L337.233 69.5525
L338.008 69.5525
L338.008 68.602
L338.463 68.602
L338.463 67.6515
L338.595 67.6515
L338.646 65.7505
L338.787 65.7505
L338.787 64.8
L339.175 64.8
L339.175 63.8495
L341.957 63.8495
L341.957 62.899
L342.981 62.899
L342.981 61.9485
L345.935 61.9485
L345.935 60.998
L348.225 60.998
L348.225 60.0475
L348.641 60.0475
L348.641 59.097
L351.427 59.097
L351.427 58.1465
L351.806 58.1465
L351.806 57.196
L356.128 57.196
L356.128 56.2455
L356.483 56.2455
L356.483 55.295
L357.355 55.295
L357.355 54.3446
L358.148 54.3446
L358.148 53.3941
L358.972 53.3941
L358.972 52.4436
L360.406 52.4436
L360.406 51.4931
L360.908 51.4931
L360.908 50.5426
L362.148 50.5426
L362.148 49.5921
L366.781 49.5921
L366.781 48.6416
L367.141 48.6416
L367.141 47.6911
L368.529 47.6911
L368.529 46.7406
L368.753 46.7406
L368.753 45.7901
L368.978 45.7901
L368.978 44.8396
L369.407 44.8396
L369.407 43.8891
L370.578 43.8891
L370.638 41.9881
L372.179 41.9881
L372.179 41.0376
L374.918 41.0376
L374.918 40.0871
L375.631 40.0871
L375.631 39.1366
L376.281 39.1366
L376.281 38.1861
L377.192 38.1861
L377.192 37.2356
L378.295 37.2356
L378.295 36.2851
L382.73 36.2851
L382.73 35.3347
L383.969 35.3347
L383.969 34.3842
L384.838 34.3842
L384.838 33.4337
L386.241 33.4337
L386.247 31.5327
L386.988 31.5327
L386.988 30.5822
L387.571 30.5822
L387.571 29.6317
L390.661 29.6317
L390.661 28.6812
L393.541 28.6812
L393.541 27.7307
L394.285 27.7307
L394.357 23.9287
L395.453 23.9287
L395.453 22.9782
L397.42 22.9782
L397.42 22.0277
L399.141 22.0277
L399.141 21.0772
L399.304 21.0772
L399.304 20.1267
L399.713 20.1267
L399.713 19.1762
L402.364 19.1762
L402.364 18.2257
L404.454 18.2257
L404.454 17.2752
L404.585 17.2752
L404.585 16.3248
L407.011 16.3248
L407.011 15.3743
L411.578 15.3743
L411.578 14.4238
L411.813 14.4238
L411.813 13.4733
L427.429 13.4733
L427.429 12.5228
L436.677 12.5228
L436.677 11.5723
L440.82 11.5723
L440.82 10.6218
L440.82 10.6218
L453.6 10.6218
L453.6 10.6218" style="fill:none;stroke:#00bfbf;stroke-linecap:square;"/>
   </g>
   <g id="line2d_3">
    <path clip-path="url(#p5bee155178)" d="
M219.294 352.8
L219.294 351.85
L222.904 351.85
L222.904 350.899
L223.423 350.899
L223.423 349.949
L224.49 349.949
L224.49 348.998
L225.417 348.998
L225.454 347.097
L226.707 347.097
L226.707 346.147
L227.036 346.147
L227.037 344.246
L227.947 344.246
L227.968 342.345
L228.668 342.345
L228.67 340.444
L229.153 340.444
L229.201 338.543
L229.423 338.543
L229.436 336.642
L229.562 336.642
L229.618 334.741
L229.992 334.741
L229.992 333.79
L230.592 333.79
L230.592 332.84
L230.726 332.84
L230.726 331.889
L230.87 331.889
L230.87 330.939
L231.073 330.939
L231.073 329.988
L231.468 329.988
L231.52 328.087
L231.636 328.087
L231.667 326.186
L231.78 326.186
L231.78 325.236
L231.919 325.236
L231.919 324.285
L232.319 324.285
L232.341 322.384
L232.845 322.384
L232.845 321.434
L233.404 321.434
L233.404 320.483
L233.607 320.483
L233.607 319.533
L233.84 319.533
L233.84 318.582
L234.255 318.582
L234.255 317.632
L234.475 317.632
L234.583 314.78
L234.635 314.78
L234.699 312.879
L234.99 312.879
L234.99 311.929
L235.416 311.929
L235.416 310.978
L235.885 310.978
L235.885 310.028
L236.03 310.028
L236.03 309.077
L236.155 309.077
L236.155 308.127
L236.467 308.127
L236.467 307.176
L236.651 307.176
L236.719 302.424
L236.904 302.424
L236.904 301.473
L237.04 301.473
L237.04 300.523
L237.988 300.523
L238.072 298.622
L238.524 298.622
L238.524 297.671
L238.874 297.671
L238.874 296.721
L239.129 296.721
L239.208 294.82
L239.247 294.82
L239.26 291.968
L239.389 291.968
L239.443 290.067
L239.724 290.067
L239.724 289.117
L239.996 289.117
L239.996 288.166
L240.594 288.166
L240.594 287.216
L240.977 287.216
L241.02 283.414
L241.514 283.414
L241.514 282.463
L241.744 282.463
L241.852 279.612
L242.167 279.612
L242.167 278.661
L242.436 278.661
L242.436 277.711
L242.723 277.711
L242.728 275.81
L242.937 275.81
L243.035 273.909
L243.223 273.909
L243.223 272.958
L243.583 272.958
L243.583 272.008
L243.706 272.008
L243.706 271.057
L244.008 271.057
L244.093 269.156
L244.129 269.156
L244.229 267.255
L244.401 267.255
L244.401 266.305
L244.588 266.305
L244.62 264.404
L244.88 264.404
L244.983 261.552
L245.314 261.552
L245.314 260.602
L245.44 260.602
L245.441 258.701
L245.72 258.701
L245.78 255.85
L245.85 255.85
L245.85 254.899
L246.16 254.899
L246.222 252.998
L246.304 252.998
L246.304 252.048
L246.663 252.048
L246.663 251.097
L246.947 251.097
L246.947 250.147
L247.375 250.147
L247.434 246.345
L247.92 246.345
L247.991 243.493
L248.262 243.493
L248.352 240.642
L248.453 240.642
L248.453 239.691
L248.587 239.691
L248.587 238.741
L248.973 238.741
L249.03 236.84
L249.213 236.84
L249.213 235.889
L249.341 235.889
L249.341 234.939
L249.727 234.939
L249.727 233.988
L249.911 233.988
L250.02 230.186
L250.398 230.186
L250.398 229.236
L250.529 229.236
L250.538 227.335
L250.721 227.335
L250.735 225.434
L250.885 225.434
L250.885 224.483
L251.015 224.483
L251.119 221.632
L251.267 221.632
L251.362 217.83
L251.458 217.83
L251.538 215.929
L251.736 215.929
L251.736 214.978
L251.938 214.978
L251.938 214.028
L252.055 214.028
L252.158 210.226
L252.289 210.226
L252.289 209.275
L252.65 209.275
L252.65 208.325
L252.784 208.325
L252.863 206.424
L253.02 206.424
L253.02 205.473
L253.185 205.473
L253.185 204.523
L253.387 204.523
L253.406 202.622
L253.519 202.622
L253.562 200.721
L253.724 200.721
L253.724 199.77
L253.839 199.77
L253.93 197.869
L254.053 197.869
L254.053 196.919
L254.504 196.919
L254.504 195.968
L254.922 195.968
L254.922 195.018
L255.057 195.018
L255.065 193.117
L255.406 193.117
L255.495 189.315
L255.694 189.315
L255.694 188.364
L256.36 188.364
L256.36 187.414
L256.978 187.414
L257.089 185.513
L257.135 185.513
L257.135 184.562
L257.343 184.562
L257.343 183.612
L257.461 183.612
L257.461 182.661
L257.875 182.661
L257.897 179.81
L259.24 179.81
L259.347 177.909
L259.396 177.909
L259.396 176.958
L259.701 176.958
L259.701 176.008
L259.904 176.008
L259.904 175.057
L260.237 175.057
L260.237 174.107
L260.611 174.107
L260.611 173.156
L260.95 173.156
L260.95 172.206
L261.636 172.206
L261.636 171.255
L262.088 171.255
L262.088 170.305
L262.254 170.305
L262.254 169.354
L262.925 169.354
L263.021 167.453
L263.113 167.453
L263.113 166.503
L263.238 166.503
L263.342 164.602
L263.401 164.602
L263.401 163.651
L263.618 163.651
L263.618 162.701
L263.865 162.701
L263.865 161.75
L264.182 161.75
L264.182 160.8
L264.918 160.8
L264.918 159.85
L265.041 159.85
L265.041 158.899
L265.889 158.899
L265.889 157.949
L266.293 157.949
L266.293 156.998
L266.912 156.998
L266.912 156.048
L267.735 156.048
L267.735 155.097
L267.97 155.097
L267.97 154.147
L269.353 154.147
L269.372 152.246
L269.576 152.246
L269.576 151.295
L269.687 151.295
L269.687 150.345
L270.363 150.345
L270.363 149.394
L270.605 149.394
L270.669 147.493
L270.762 147.493
L270.762 146.543
L271.751 146.543
L271.751 145.592
L272.005 145.592
L272.005 144.642
L272.146 144.642
L272.146 143.691
L272.445 143.691
L272.445 142.741
L274.736 142.741
L274.736 141.79
L275.057 141.79
L275.057 140.84
L275.269 140.84
L275.269 139.889
L276.597 139.889
L276.597 138.939
L277.038 138.939
L277.11 137.038
L277.73 137.038
L277.839 135.137
L278.324 135.137
L278.412 132.285
L278.833 132.285
L278.833 131.335
L278.959 131.335
L278.959 130.384
L279.143 130.384
L279.143 129.434
L280.506 129.434
L280.506 128.483
L281.24 128.483
L281.24 127.533
L282.713 127.533
L282.713 126.582
L283.241 126.582
L283.344 124.681
L283.407 124.681
L283.444 122.78
L284.256 122.78
L284.256 121.83
L284.633 121.83
L284.633 120.879
L286.397 120.879
L286.397 119.929
L286.825 119.929
L286.825 118.978
L287.236 118.978
L287.236 118.028
L291.264 118.028
L291.264 117.077
L291.807 117.077
L291.807 116.127
L292.448 116.127
L292.448 115.176
L294.06 115.176
L294.06 114.226
L295.501 114.226
L295.501 113.275
L295.792 113.275
L295.792 112.325
L296.012 112.325
L296.012 111.374
L296.37 111.374
L296.37 110.424
L297.862 110.424
L297.862 109.473
L298.262 109.473
L298.262 108.523
L299.58 108.523
L299.58 107.572
L300.118 107.572
L300.118 106.622
L301.097 106.622
L301.097 105.671
L301.987 105.671
L301.987 104.721
L304.793 104.721
L304.793 103.77
L305.15 103.77
L305.15 102.82
L305.434 102.82
L305.434 101.869
L305.781 101.869
L305.781 100.919
L306.067 100.919
L306.067 99.9683
L306.295 99.9683
L306.295 99.0178
L307.599 99.0178
L307.599 98.0673
L308.084 98.0673
L308.084 97.1168
L309.353 97.1168
L309.353 96.1663
L309.625 96.1663
L309.625 95.2158
L312.553 95.2158
L312.553 94.2653
L312.896 94.2653
L312.896 93.3149
L313.152 93.3149
L313.196 91.4139
L313.581 91.4139
L313.581 90.4634
L314.044 90.4634
L314.044 89.5129
L314.173 89.5129
L314.173 88.5624
L315.685 88.5624
L315.685 87.6119
L316.203 87.6119
L316.203 86.6614
L316.942 86.6614
L316.942 85.7109
L318.04 85.7109
L318.04 84.7604
L318.655 84.7604
L318.655 83.8099
L319.678 83.8099
L319.678 82.8594
L320.11 82.8594
L320.11 81.9089
L320.683 81.9089
L320.683 80.9584
L322.157 80.9584
L322.157 80.0079
L322.489 80.0079
L322.489 79.0574
L323.735 79.0574
L323.735 78.1069
L324.338 78.1069
L324.425 75.2554
L324.972 75.2554
L324.972 74.305
L325.823 74.305
L325.823 73.3545
L326.064 73.3545
L326.064 72.404
L327.14 72.404
L327.14 71.4535
L328.424 71.4535
L328.424 70.503
L329.432 70.503
L329.432 69.5525
L330.278 69.5525
L330.278 68.602
L331.63 68.602
L331.63 67.6515
L331.835 67.6515
L331.835 66.701
L333.779 66.701
L333.779 65.7505
L336.033 65.7505
L336.033 64.8
L336.391 64.8
L336.391 63.8495
L338.392 63.8495
L338.392 62.899
L338.646 62.899
L338.646 61.9485
L338.787 61.9485
L338.787 60.998
L339.175 60.998
L339.175 60.0475
L341.049 60.0475
L341.049 59.097
L342.981 59.097
L342.981 58.1465
L343.472 58.1465
L343.472 57.196
L344.693 57.196
L344.693 56.2455
L346.471 56.2455
L346.471 55.295
L347.384 55.295
L347.398 53.3941
L348.225 53.3941
L348.225 52.4436
L351.396 52.4436
L351.427 50.5426
L354.743 50.5426
L354.743 49.5921
L355.526 49.5921
L355.526 48.6416
L355.72 48.6416
L355.72 47.6911
L356.483 47.6911
L356.574 45.7901
L357.643 45.7901
L357.643 44.8396
L358.148 44.8396
L358.148 43.8891
L360.406 43.8891
L360.406 42.9386
L360.749 42.9386
L360.749 41.9881
L360.982 41.9881
L360.982 41.0376
L362.148 41.0376
L362.148 40.0871
L363.368 40.0871
L363.368 39.1366
L364.073 39.1366
L364.073 38.1861
L364.842 38.1861
L364.842 37.2356
L365.469 37.2356
L365.469 36.2851
L365.957 36.2851
L365.957 35.3347
L366.181 35.3347
L366.181 34.3842
L371.918 34.3842
L371.918 33.4337
L373.196 33.4337
L373.196 32.4832
L377.004 32.4832
L377.004 31.5327
L378.102 31.5327
L378.102 30.5822
L380.845 30.5822
L380.845 29.6317
L381.512 29.6317
L381.512 28.6812
L382.571 28.6812
L382.571 27.7307
L383.969 27.7307
L383.969 26.7802
L385.595 26.7802
L385.618 24.8792
L386.361 24.8792
L386.361 23.9287
L388.767 23.9287
L388.767 22.9782
L390.034 22.9782
L390.034 22.0277
L392.178 22.0277
L392.178 21.0772
L392.878 21.0772
L392.878 20.1267
L393.189 20.1267
L393.189 19.1762
L395.453 19.1762
L395.453 18.2257
L400.403 18.2257
L400.403 17.2752
L402.364 17.2752
L402.364 16.3248
L404.128 16.3248
L404.128 15.3743
L404.454 15.3743
L404.454 14.4238
L407.011 14.4238
L407.011 13.4733
L409.573 13.4733
L409.573 12.5228
L410.449 12.5228
L410.449 11.5723
L411.578 11.5723
L411.578 10.6218
L411.578 10.6218
L453.6 10.6218
L453.6 10.6218" style="fill:none;stroke:#bf00bf;stroke-linecap:square;"/>
   </g>
   <g id="line2d_4">
    <path clip-path="url(#p5bee155178)" d="
M215.166 352.8
L215.166 351.85
L218.931 351.85
L218.931 350.899
L219.294 350.899
L219.294 349.949
L219.99 349.949
L219.99 348.998
L221.255 348.998
L221.255 348.048
L222.047 348.048
L222.047 347.097
L222.904 347.097
L222.917 345.196
L223.226 345.196
L223.226 344.246
L223.423 344.246
L223.498 342.345
L224.589 342.345
L224.589 341.394
L225.417 341.394
L225.454 338.543
L225.58 338.543
L225.58 337.592
L225.774 337.592
L225.842 335.691
L226.617 335.691
L226.707 333.79
L226.848 333.79
L226.887 331.889
L227.037 331.889
L227.048 329.988
L227.241 329.988
L227.241 329.038
L227.766 329.038
L227.766 328.087
L227.918 328.087
L227.968 326.186
L228.063 326.186
L228.108 324.285
L228.541 324.285
L228.541 323.335
L228.662 323.335
L228.67 320.483
L229.201 320.483
L229.311 318.582
L229.618 318.582
L229.618 317.632
L229.78 317.632
L229.78 316.681
L229.992 316.681
L229.992 315.731
L230.3 315.731
L230.329 313.83
L230.592 313.83
L230.592 312.879
L230.726 312.879
L230.726 311.929
L230.87 311.929
L230.87 310.978
L231.636 310.978
L231.636 310.028
L231.78 310.028
L231.78 309.077
L232.151 309.077
L232.151 308.127
L232.341 308.127
L232.341 307.176
L233.367 307.176
L233.41 304.325
L233.518 304.325
L233.518 303.374
L233.84 303.374
L233.873 301.473
L233.998 301.473
L233.998 300.523
L234.122 300.523
L234.122 299.572
L234.255 299.572
L234.255 298.622
L234.475 298.622
L234.475 297.671
L234.635 297.671
L234.699 295.77
L234.748 295.77
L234.748 294.82
L234.99 294.82
L234.99 293.869
L235.246 293.869
L235.246 292.919
L235.416 292.919
L235.466 291.018
L235.885 291.018
L235.885 290.067
L236.03 290.067
L236.14 287.216
L236.37 287.216
L236.467 285.315
L236.651 285.315
L236.679 282.463
L236.862 282.463
L236.897 280.562
L237.156 280.562
L237.156 279.612
L237.988 279.612
L237.988 278.661
L238.345 278.661
L238.431 276.76
L238.524 276.76
L238.524 275.81
L238.874 275.81
L238.874 274.859
L239.129 274.859
L239.208 272.958
L239.247 272.958
L239.26 270.107
L239.541 270.107
L239.623 268.206
L239.728 268.206
L239.728 267.255
L239.996 267.255
L240.065 265.354
L240.896 265.354
L240.896 264.404
L241.023 264.404
L241.051 262.503
L241.228 262.503
L241.228 261.552
L241.39 261.552
L241.39 260.602
L241.514 260.602
L241.514 259.651
L241.806 259.651
L241.895 257.75
L242.019 257.75
L242.026 255.85
L242.167 255.85
L242.167 254.899
L242.454 254.899
L242.454 253.949
L242.723 253.949
L242.816 252.048
L243.012 252.048
L243.039 250.147
L243.223 250.147
L243.319 248.246
L243.51 248.246
L243.51 247.295
L243.706 247.295
L243.706 246.345
L244.171 246.345
L244.249 244.444
L244.401 244.444
L244.401 243.493
L244.62 243.493
L244.62 242.543
L244.832 242.543
L244.835 240.642
L245.022 240.642
L245.022 239.691
L245.44 239.691
L245.44 238.741
L245.72 238.741
L245.72 237.79
L245.85 237.79
L245.85 236.84
L245.966 236.84
L245.966 235.889
L246.312 235.889
L246.312 234.939
L246.663 234.939
L246.663 233.988
L247.132 233.988
L247.189 231.137
L247.434 231.137
L247.434 230.186
L247.615 230.186
L247.684 228.285
L247.935 228.285
L247.935 227.335
L248.183 227.335
L248.262 225.434
L248.351 225.434
L248.351 224.483
L248.509 224.483
L248.587 222.582
L248.85 222.582
L248.85 221.632
L249.341 221.632
L249.341 220.681
L249.727 220.681
L249.727 219.731
L249.911 219.731
L250.02 217.83
L250.23 217.83
L250.33 215.929
L250.533 215.929
L250.538 214.028
L250.721 214.028
L250.8 210.226
L250.885 210.226
L250.885 209.275
L251.015 209.275
L251.015 208.325
L251.267 208.325
L251.315 206.424
L251.538 206.424
L251.572 204.523
L251.736 204.523
L251.736 203.572
L252.111 203.572
L252.133 201.671
L252.289 201.671
L252.362 199.77
L252.69 199.77
L252.69 198.82
L252.863 198.82
L252.88 196.919
L252.999 196.919
L253.02 195.018
L253.12 195.018
L253.152 193.117
L253.347 193.117
L253.415 191.216
L253.839 191.216
L253.886 189.315
L254.119 189.315
L254.119 188.364
L254.369 188.364
L254.369 187.414
L254.504 187.414
L254.558 185.513
L254.852 185.513
L254.855 183.612
L255.065 183.612
L255.065 182.661
L255.196 182.661
L255.196 181.711
L255.406 181.711
L255.495 179.81
L255.557 179.81
L255.648 177.909
L255.741 177.909
L255.783 176.008
L256.36 176.008
L256.36 175.057
L257.461 175.057
L257.461 174.107
L257.692 174.107
L257.692 173.156
L258.706 173.156
L258.706 172.206
L259.116 172.206
L259.206 170.305
L260.237 170.305
L260.341 167.453
L260.37 167.453
L260.462 165.552
L260.611 165.552
L260.611 164.602
L261.636 164.602
L261.636 163.651
L261.774 163.651
L261.774 162.701
L262.141 162.701
L262.141 161.75
L262.254 161.75
L262.254 160.8
L262.772 160.8
L262.772 159.85
L262.925 159.85
L263.021 157.949
L263.342 157.949
L263.401 156.048
L263.618 156.048
L263.618 155.097
L263.889 155.097
L263.889 154.147
L264.182 154.147
L264.255 152.246
L264.359 152.246
L264.359 151.295
L264.522 151.295
L264.522 150.345
L264.918 150.345
L264.918 149.394
L265.041 149.394
L265.041 148.444
L265.362 148.444
L265.362 147.493
L266.903 147.493
L266.903 146.543
L267.354 146.543
L267.354 145.592
L267.919 145.592
L267.919 144.642
L268.173 144.642
L268.173 143.691
L268.712 143.691
L268.712 142.741
L269.332 142.741
L269.332 141.79
L269.731 141.79
L269.731 140.84
L270.184 140.84
L270.184 139.889
L270.363 139.889
L270.363 138.939
L270.677 138.939
L270.762 137.038
L271.013 137.038
L271.063 134.186
L271.751 134.186
L271.751 133.236
L272.46 133.236
L272.46 132.285
L274.736 132.285
L274.736 131.335
L275.269 131.335
L275.269 130.384
L275.435 130.384
L275.531 128.483
L276.72 128.483
L276.72 127.533
L277.11 127.533
L277.11 126.582
L277.683 126.582
L277.788 124.681
L277.839 124.681
L277.839 123.731
L279.093 123.731
L279.093 122.78
L279.228 122.78
L279.228 121.83
L279.757 121.83
L279.757 120.879
L280.722 120.879
L280.722 119.929
L282.468 119.929
L282.468 118.978
L283.407 118.978
L283.444 117.077
L283.723 117.077
L283.723 116.127
L283.965 116.127
L283.965 115.176
L284.256 115.176
L284.256 114.226
L285.235 114.226
L285.235 113.275
L285.792 113.275
L285.792 112.325
L286.462 112.325
L286.462 111.374
L286.745 111.374
L286.745 110.424
L287.302 110.424
L287.302 109.473
L288.634 109.473
L288.634 108.523
L291.264 108.523
L291.264 107.572
L291.674 107.572
L291.674 106.622
L291.807 106.622
L291.807 105.671
L292.286 105.671
L292.286 104.721
L292.455 104.721
L292.455 103.77
L292.745 103.77
L292.745 102.82
L293.097 102.82
L293.097 101.869
L294.06 101.869
L294.06 100.919
L295.501 100.919
L295.501 99.9683
L296.012 99.9683
L296.012 99.0178
L296.37 99.0178
L296.37 98.0673
L297.862 98.0673
L297.862 97.1168
L298.262 97.1168
L298.262 96.1663
L298.786 96.1663
L298.786 95.2158
L299.046 95.2158
L299.046 94.2653
L299.862 94.2653
L299.862 93.3149
L300.118 93.3149
L300.118 92.3644
L300.292 92.3644
L300.292 91.4139
L301.162 91.4139
L301.162 90.4634
L302.014 90.4634
L302.014 89.5129
L304.247 89.5129
L304.247 88.5624
L305.15 88.5624
L305.15 87.6119
L305.288 87.6119
L305.288 86.6614
L305.434 86.6614
L305.434 85.7109
L306.01 85.7109
L306.01 84.7604
L306.295 84.7604
L306.295 83.8099
L306.802 83.8099
L306.802 82.8594
L306.979 82.8594
L306.979 81.9089
L307.825 81.9089
L307.825 80.9584
L309.509 80.9584
L309.509 80.0079
L310.254 80.0079
L310.254 79.0574
L311.73 79.0574
L311.73 78.1069
L312.875 78.1069
L312.875 77.1564
L313.087 77.1564
L313.087 76.2059
L313.581 76.2059
L313.581 75.2554
L314.044 75.2554
L314.044 74.305
L315.096 74.305
L315.096 73.3545
L315.511 73.3545
L315.511 72.404
L316.328 72.404
L316.328 71.4535
L316.8 71.4535
L316.8 70.503
L318.04 70.503
L318.04 69.5525
L318.333 69.5525
L318.333 68.602
L319.039 68.602
L319.039 67.6515
L320.683 67.6515
L320.683 66.701
L321.217 66.701
L321.217 65.7505
L322.64 65.7505
L322.706 63.8495
L323.453 63.8495
L323.453 62.899
L324.357 62.899
L324.357 61.9485
L327.14 61.9485
L327.14 60.998
L328.153 60.998
L328.153 60.0475
L331.008 60.0475
L331.051 58.1465
L331.835 58.1465
L331.835 57.196
L334.08 57.196
L334.08 56.2455
L339.175 56.2455
L339.175 55.295
L341.049 55.295
L341.049 54.3446
L342.178 54.3446
L342.178 53.3941
L343.472 53.3941
L343.472 52.4436
L344.693 52.4436
L344.693 51.4931
L346.204 51.4931
L346.204 50.5426
L346.984 50.5426
L346.984 49.5921
L347.384 49.5921
L347.398 47.6911
L349.472 47.6911
L349.472 46.7406
L350.537 46.7406
L350.537 45.7901
L350.962 45.7901
L350.962 44.8396
L351.396 44.8396
L351.427 42.9386
L352.077 42.9386
L352.077 41.9881
L353.385 41.9881
L353.385 41.0376
L354.36 41.0376
L354.36 40.0871
L354.743 40.0871
L354.743 39.1366
L355.083 39.1366
L355.083 38.1861
L360.046 38.1861
L360.091 36.2851
L360.585 36.2851
L360.585 35.3347
L363.739 35.3347
L363.739 34.3842
L364.842 34.3842
L364.842 33.4337
L369.133 33.4337
L369.133 32.4832
L370.297 32.4832
L370.297 31.5327
L371.315 31.5327
L371.315 30.5822
L371.918 30.5822
L371.918 29.6317
L373.196 29.6317
L373.196 28.6812
L374.086 28.6812
L374.086 27.7307
L377.004 27.7307
L377.004 26.7802
L378.102 26.7802
L378.102 25.8297
L378.632 25.8297
L378.632 24.8792
L380.845 24.8792
L380.845 23.9287
L383.514 23.9287
L383.514 22.9782
L383.911 22.9782
L383.911 22.0277
L385.758 22.0277
L385.839 20.1267
L388.767 20.1267
L388.767 19.1762
L389.57 19.1762
L389.57 18.2257
L390.012 18.2257
L390.012 17.2752
L390.292 17.2752
L390.292 16.3248
L396.992 16.3248
L396.992 15.3743
L399.206 15.3743
L399.281 13.4733
L400.403 13.4733
L400.403 12.5228
L404.128 12.5228
L404.128 11.5723
L406.721 11.5723
L406.721 10.6218
L406.721 10.6218
L453.6 10.6218
L453.6 10.6218" style="fill:none;stroke:#000000;stroke-linecap:square;"/>
   </g>
   <g id="line2d_5">
    <path clip-path="url(#p5bee155178)" d="
M-1 342.345
L186.98 342.345
L186.98 341.394
L190.757 341.394
L190.757 340.444
L191.887 340.444
L191.887 339.493
L193.755 339.493
L193.781 337.592
L195.282 337.592
L195.282 336.642
L195.561 336.642
L195.561 335.691
L196.184 335.691
L196.184 334.741
L198.586 334.741
L198.586 333.79
L198.725 333.79
L198.746 331.889
L201.788 331.889
L201.788 330.939
L202.278 330.939
L202.278 329.988
L202.595 329.988
L202.595 329.038
L203.681 329.038
L203.681 328.087
L206.059 328.087
L206.059 327.137
L207.529 327.137
L207.529 326.186
L207.934 326.186
L207.934 325.236
L211.128 325.236
L211.224 323.335
L211.34 323.335
L211.34 322.384
L211.637 322.384
L211.637 321.434
L211.951 321.434
L211.951 320.483
L212.571 320.483
L212.592 318.582
L213.389 318.582
L213.389 317.632
L213.546 317.632
L213.546 316.681
L213.808 316.681
L213.808 315.731
L214.803 315.731
L214.803 314.78
L215.611 314.78
L215.721 312.879
L215.83 312.879
L215.83 311.929
L216.247 311.929
L216.247 310.978
L216.441 310.978
L216.441 310.028
L216.698 310.028
L216.698 309.077
L216.907 309.077
L216.978 307.176
L217.092 307.176
L217.092 306.226
L218.113 306.226
L218.113 305.275
L218.232 305.275
L218.232 304.325
L218.442 304.325
L218.442 303.374
L218.704 303.374
L218.704 302.424
L218.853 302.424
L218.954 299.572
L218.974 299.572
L218.974 298.622
L219.3 298.622
L219.401 295.77
L219.498 295.77
L219.525 293.869
L219.632 293.869
L219.697 291.968
L219.99 291.968
L220.056 289.117
L220.25 289.117
L220.25 288.166
L220.368 288.166
L220.368 287.216
L220.612 287.216
L220.612 286.265
L220.998 286.265
L220.998 285.315
L221.245 285.315
L221.351 283.414
L221.558 283.414
L221.615 281.513
L222.034 281.513
L222.113 279.612
L222.577 279.612
L222.577 278.661
L222.917 278.661
L222.917 277.711
L223.093 277.711
L223.093 276.76
L223.215 276.76
L223.226 274.859
L223.418 274.859
L223.421 272.958
L223.589 272.958
L223.697 271.057
L223.805 271.057
L223.841 269.156
L224.094 269.156
L224.094 268.206
L224.231 268.206
L224.231 267.255
L224.576 267.255
L224.62 265.354
L224.746 265.354
L224.746 264.404
L225.507 264.404
L225.58 262.503
L225.889 262.503
L225.977 260.602
L226.01 260.602
L226.01 259.651
L226.614 259.651
L226.707 257.75
L226.934 257.75
L226.934 256.8
L227.522 256.8
L227.522 255.85
L227.862 255.85
L227.862 254.899
L228.193 254.899
L228.257 252.998
L228.351 252.998
L228.374 251.097
L228.627 251.097
L228.67 248.246
L228.878 248.246
L228.91 246.345
L229.155 246.345
L229.155 245.394
L229.435 245.394
L229.435 244.444
L229.674 244.444
L229.78 242.543
L229.962 242.543
L229.989 240.642
L231.084 240.642
L231.084 239.691
L231.196 239.691
L231.196 238.741
L231.829 238.741
L231.829 237.79
L232.054 237.79
L232.151 234.939
L232.176 234.939
L232.176 233.988
L232.512 233.988
L232.512 233.038
L233.367 233.038
L233.41 231.137
L233.908 231.137
L233.908 230.186
L234.99 230.186
L235.038 228.285
L235.139 228.285
L235.194 225.434
L235.357 225.434
L235.466 222.582
L235.658 222.582
L235.658 221.632
L236.549 221.632
L236.644 219.731
L236.818 219.731
L236.897 217.83
L236.989 217.83
L236.989 216.879
L237.156 216.879
L237.156 215.929
L237.54 215.929
L237.615 213.077
L238.025 213.077
L238.045 210.226
L238.306 210.226
L238.306 209.275
L239.059 209.275
L239.059 208.325
L239.463 208.325
L239.472 206.424
L239.728 206.424
L239.826 202.622
L240.148 202.622
L240.148 201.671
L240.578 201.671
L240.59 199.77
L240.751 199.77
L240.751 198.82
L240.896 198.82
L240.932 195.968
L241.258 195.968
L241.258 195.018
L241.43 195.018
L241.43 194.067
L241.643 194.067
L241.695 192.166
L242.062 192.166
L242.062 191.216
L242.458 191.216
L242.458 190.265
L242.675 190.265
L242.747 188.364
L242.892 188.364
L242.892 187.414
L243.039 187.414
L243.039 186.463
L243.264 186.463
L243.264 185.513
L243.389 185.513
L243.499 182.661
L243.818 182.661
L243.818 181.711
L243.996 181.711
L243.996 180.76
L244.249 180.76
L244.353 176.958
L244.615 176.958
L244.661 175.057
L244.784 175.057
L244.784 174.107
L244.956 174.107
L245.047 172.206
L245.149 172.206
L245.149 171.255
L245.44 171.255
L245.458 169.354
L245.716 169.354
L245.716 168.404
L246.043 168.404
L246.114 166.503
L246.201 166.503
L246.232 164.602
L246.535 164.602
L246.535 163.651
L246.7 163.651
L246.7 162.701
L246.861 162.701
L246.97 160.8
L247.121 160.8
L247.121 159.85
L247.453 159.85
L247.453 158.899
L247.605 158.899
L247.661 156.998
L247.86 156.998
L247.86 156.048
L248.535 156.048
L248.591 154.147
L248.671 154.147
L248.671 153.196
L248.791 153.196
L248.834 151.295
L249.156 151.295
L249.156 150.345
L249.706 150.345
L249.778 147.493
L249.864 147.493
L249.919 145.592
L250.242 145.592
L250.245 143.691
L250.364 143.691
L250.364 142.741
L250.533 142.741
L250.533 141.79
L250.732 141.79
L250.732 140.84
L250.907 140.84
L250.907 139.889
L251.069 139.889
L251.103 137.038
L251.188 137.038
L251.258 135.137
L251.444 135.137
L251.444 134.186
L251.561 134.186
L251.561 133.236
L251.692 133.236
L251.79 131.335
L251.92 131.335
L251.92 130.384
L252.166 130.384
L252.166 129.434
L252.973 129.434
L252.973 128.483
L253.197 128.483
L253.197 127.533
L253.699 127.533
L253.76 125.632
L253.839 125.632
L253.855 123.731
L253.977 123.731
L253.977 122.78
L254.139 122.78
L254.213 119.929
L254.497 119.929
L254.497 118.978
L254.721 118.978
L254.771 117.077
L255.299 117.077
L255.402 115.176
L255.589 115.176
L255.589 114.226
L255.763 114.226
L255.763 113.275
L256.444 113.275
L256.444 112.325
L257.333 112.325
L257.333 111.374
L257.764 111.374
L257.764 110.424
L258.249 110.424
L258.249 109.473
L259.351 109.473
L259.419 106.622
L259.658 106.622
L259.667 104.721
L259.857 104.721
L259.857 103.77
L259.976 103.77
L259.976 102.82
L260.839 102.82
L260.839 101.869
L261.135 101.869
L261.241 99.0178
L261.289 99.0178
L261.365 97.1168
L261.473 97.1168
L261.473 96.1663
L261.6 96.1663
L261.643 94.2653
L261.789 94.2653
L261.789 93.3149
L262.001 93.3149
L262.001 92.3644
L262.634 92.3644
L262.634 91.4139
L263.061 91.4139
L263.09 89.5129
L263.627 89.5129
L263.627 88.5624
L264.077 88.5624
L264.077 87.6119
L264.579 87.6119
L264.579 86.6614
L264.898 86.6614
L264.898 85.7109
L265.277 85.7109
L265.277 84.7604
L265.616 84.7604
L265.616 83.8099
L266.143 83.8099
L266.168 81.9089
L266.285 81.9089
L266.285 80.9584
L267.693 80.9584
L267.693 80.0079
L267.832 80.0079
L267.895 78.1069
L268.313 78.1069
L268.313 77.1564
L269.168 77.1564
L269.168 76.2059
L269.823 76.2059
L269.823 75.2554
L271.043 75.2554
L271.043 74.305
L271.707 74.305
L271.707 73.3545
L272.921 73.3545
L272.942 71.4535
L274.344 71.4535
L274.344 70.503
L274.527 70.503
L274.527 69.5525
L275.387 69.5525
L275.387 68.602
L275.498 68.602
L275.498 67.6515
L279.188 67.6515
L279.188 66.701
L279.357 66.701
L279.357 65.7505
L282.535 65.7505
L282.535 64.8
L286.462 64.8
L286.462 63.8495
L287.64 63.8495
L287.64 62.899
L292.455 62.899
L292.455 61.9485
L293.271 61.9485
L293.377 60.0475
L293.56 60.0475
L293.56 59.097
L296.149 59.097
L296.149 58.1465
L299.923 58.1465
L299.923 57.196
L300.905 57.196
L300.905 56.2455
L301.137 56.2455
L301.137 55.295
L303.667 55.295
L303.667 54.3446
L303.794 54.3446
L303.794 53.3941
L305.012 53.3941
L305.012 52.4436
L305.633 52.4436
L305.633 51.4931
L306.979 51.4931
L306.979 50.5426
L307.825 50.5426
L307.825 49.5921
L309.491 49.5921
L309.491 48.6416
L312.903 48.6416
L312.903 47.6911
L313.866 47.6911
L313.866 46.7406
L315.692 46.7406
L315.799 44.8396
L317.028 44.8396
L317.028 43.8891
L318.669 43.8891
L318.669 42.9386
L318.829 42.9386
L318.838 41.0376
L320.683 41.0376
L320.683 40.0871
L321.068 40.0871
L321.068 39.1366
L322.422 39.1366
L322.422 38.1861
L323.685 38.1861
L323.685 37.2356
L325.813 37.2356
L325.813 36.2851
L326.247 36.2851
L326.247 35.3347
L326.987 35.3347
L326.987 34.3842
L327.151 34.3842
L327.151 33.4337
L329.775 33.4337
L329.775 32.4832
L331.552 32.4832
L331.552 31.5327
L331.949 31.5327
L331.949 29.6317
L334.096 29.6317
L334.096 28.6812
L338.47 28.6812
L338.47 27.7307
L338.971 27.7307
L338.971 26.7802
L341.798 26.7802
L341.798 25.8297
L342.267 25.8297
L342.267 24.8792
L343.555 24.8792
L343.555 23.9287
L344.572 23.9287
L344.572 22.9782
L345.375 22.9782
L345.375 22.0277
L345.727 22.0277
L345.727 21.0772
L348.387 21.0772
L348.387 20.1267
L350.527 20.1267
L350.527 19.1762
L356.839 19.1762
L356.84 17.2752
L358.516 17.2752
L358.516 16.3248
L360.2 16.3248
L360.2 15.3743
L361.045 15.3743
L361.045 14.4238
L361.956 14.4238
L361.956 13.4733
L362.159 13.4733
L362.159 12.5228
L366.137 12.5228
L366.137 11.5723
L372.669 11.5723
L372.669 10.6218
L372.669 10.6218
L453.6 10.6218
L453.6 10.6218" style="fill:none;stroke:#00bfbf;stroke-linecap:square;"/>
   </g>
   <g id="line2d_6">
    <path clip-path="url(#p5bee155178)" d="
M-1 338.543
L24.232 338.543
L24.232 337.592
L31.1106 337.592
L31.1106 336.642
L71.0663 336.642
L71.0663 335.691
L95.6087 335.691
L95.6087 334.741
L102.192 334.741
L102.192 333.79
L117.195 333.79
L117.23 331.889
L118.925 331.889
L118.925 330.939
L119.136 330.939
L119.136 329.988
L120.378 329.988
L120.378 329.038
L120.652 329.038
L120.652 328.087
L123.003 328.087
L123.003 327.137
L127.718 327.137
L127.718 326.186
L131.146 326.186
L131.146 325.236
L140.812 325.236
L140.812 324.285
L141.878 324.285
L141.878 323.335
L146.853 323.335
L146.853 322.384
L150.801 322.384
L150.801 321.434
L155.64 321.434
L155.64 320.483
L156.166 320.483
L156.166 319.533
L157.894 319.533
L157.894 318.582
L161.939 318.582
L161.939 317.632
L163.044 317.632
L163.044 316.681
L164.865 316.681
L164.865 315.731
L165.299 315.731
L165.299 314.78
L167.666 314.78
L167.666 313.83
L169.994 313.83
L169.994 312.879
L171.841 312.879
L171.841 311.929
L173.688 311.929
L173.688 310.978
L174.882 310.978
L174.882 310.028
L175.542 310.028
L175.542 309.077
L176.894 309.077
L176.894 308.127
L183.202 308.127
L183.202 307.176
L185.51 307.176
L185.51 306.226
L186.252 306.226
L186.252 305.275
L188.15 305.275
L188.15 304.325
L191.995 304.325
L191.995 303.374
L192.465 303.374
L192.515 301.473
L192.907 301.473
L192.907 300.523
L193.276 300.523
L193.276 299.572
L194.075 299.572
L194.075 298.622
L196.384 298.622
L196.384 297.671
L197.918 297.671
L197.918 296.721
L198.371 296.721
L198.371 295.77
L198.879 295.77
L198.879 294.82
L199.626 294.82
L199.626 293.869
L200.663 293.869
L200.771 291.968
L201.267 291.968
L201.267 291.018
L201.553 291.018
L201.553 290.067
L202.788 290.067
L202.788 289.117
L203.038 289.117
L203.106 287.216
L203.7 287.216
L203.7 286.265
L204.205 286.265
L204.205 285.315
L204.961 285.315
L204.961 284.364
L206.269 284.364
L206.269 283.414
L206.731 283.414
L206.731 282.463
L207.169 282.463
L207.169 281.513
L207.728 281.513
L207.728 280.562
L207.974 280.562
L207.974 279.612
L208.176 279.612
L208.176 278.661
L208.739 278.661
L208.739 277.711
L209.288 277.711
L209.288 276.76
L209.839 276.76
L209.855 274.859
L210.092 274.859
L210.182 272.958
L210.282 272.958
L210.282 272.008
L210.576 272.008
L210.638 270.107
L210.842 270.107
L210.943 268.206
L210.956 268.206
L211.05 266.305
L211.58 266.305
L211.676 264.404
L211.734 264.404
L211.803 261.552
L211.921 261.552
L211.996 257.75
L212.117 257.75
L212.149 255.85
L212.377 255.85
L212.377 254.899
L212.502 254.899
L212.588 252.048
L212.64 252.048
L212.669 250.147
L212.77 250.147
L212.77 249.196
L213.002 249.196
L213.019 247.295
L213.238 247.295
L213.272 243.493
L213.361 243.493
L213.374 241.592
L213.634 241.592
L213.701 238.741
L213.828 238.741
L213.88 236.84
L214.03 236.84
L214.03 235.889
L214.421 235.889
L214.421 234.939
L214.737 234.939
L214.766 233.038
L215.027 233.038
L215.132 230.186
L215.214 230.186
L215.294 227.335
L215.423 227.335
L215.423 226.384
L215.546 226.384
L215.546 225.434
L215.796 225.434
L215.856 223.533
L216.084 223.533
L216.151 220.681
L216.275 220.681
L216.275 219.731
L216.486 219.731
L216.579 217.83
L216.613 217.83
L216.72 215.929
L216.893 215.929
L216.953 214.028
L217.142 214.028
L217.172 212.127
L217.461 212.127
L217.461 211.176
L217.719 211.176
L217.737 209.275
L217.871 209.275
L217.97 206.424
L218.232 206.424
L218.232 205.473
L218.399 205.473
L218.399 204.523
L218.56 204.523
L218.56 203.572
L219.382 203.572
L219.382 202.622
L219.676 202.622
L219.706 200.721
L219.99 200.721
L219.99 199.77
L220.255 199.77
L220.255 198.82
L220.392 198.82
L220.392 197.869
L220.678 197.869
L220.778 194.067
L220.871 194.067
L220.871 193.117
L221.03 193.117
L221.03 192.166
L221.177 192.166
L221.263 190.265
L221.329 190.265
L221.329 189.315
L221.965 189.315
L222.05 186.463
L222.265 186.463
L222.265 185.513
L222.405 185.513
L222.498 183.612
L222.533 183.612
L222.533 182.661
L222.958 182.661
L222.958 181.711
L223.126 181.711
L223.135 179.81
L223.268 179.81
L223.303 177.909
L223.643 177.909
L223.672 176.008
L223.768 176.008
L223.768 175.057
L224.983 175.057
L224.983 174.107
L225.2 174.107
L225.2 173.156
L225.379 173.156
L225.486 170.305
L225.58 170.305
L225.598 168.404
L226.051 168.404
L226.086 166.503
L226.478 166.503
L226.488 164.602
L226.593 164.602
L226.65 162.701
L227.118 162.701
L227.118 161.75
L227.249 161.75
L227.249 160.8
L227.371 160.8
L227.424 157.949
L227.862 157.949
L227.913 156.048
L228.196 156.048
L228.196 155.097
L228.481 155.097
L228.496 153.196
L228.748 153.196
L228.748 152.246
L228.899 152.246
L228.923 148.444
L229.112 148.444
L229.112 147.493
L229.389 147.493
L229.389 146.543
L229.665 146.543
L229.665 145.592
L229.984 145.592
L229.984 144.642
L230.703 144.642
L230.714 142.741
L230.922 142.741
L230.922 141.79
L231.19 141.79
L231.19 140.84
L231.305 140.84
L231.335 138.939
L231.577 138.939
L231.577 137.988
L232.029 137.988
L232.039 136.087
L232.287 136.087
L232.287 135.137
L232.426 135.137
L232.426 134.186
L232.579 134.186
L232.579 133.236
L232.902 133.236
L232.928 131.335
L233.081 131.335
L233.125 128.483
L233.218 128.483
L233.218 127.533
L233.897 127.533
L234.001 125.632
L234.214 125.632
L234.214 124.681
L234.351 124.681
L234.351 123.731
L234.497 123.731
L234.497 122.78
L234.676 122.78
L234.676 121.83
L234.822 121.83
L234.822 120.879
L235.06 120.879
L235.145 118.028
L235.406 118.028
L235.406 117.077
L235.609 117.077
L235.609 116.127
L235.757 116.127
L235.757 115.176
L236.157 115.176
L236.259 113.275
L236.64 113.275
L236.64 112.325
L237.007 112.325
L237.007 111.374
L237.174 111.374
L237.265 109.473
L237.302 109.473
L237.39 106.622
L237.437 106.622
L237.473 104.721
L237.574 104.721
L237.625 101.869
L237.72 101.869
L237.779 99.9683
L237.915 99.9683
L237.977 98.0673
L238.107 98.0673
L238.107 97.1168
L238.252 97.1168
L238.252 96.1663
L238.365 96.1663
L238.365 95.2158
L238.664 95.2158
L238.715 93.3149
L238.864 93.3149
L238.972 90.4634
L239.109 90.4634
L239.109 89.5129
L239.318 89.5129
L239.377 86.6614
L239.736 86.6614
L239.76 84.7604
L239.928 84.7604
L239.928 83.8099
L240.058 83.8099
L240.143 81.9089
L240.359 81.9089
L240.359 80.9584
L240.562 80.9584
L240.562 80.0079
L240.728 80.0079
L240.728 79.0574
L240.968 79.0574
L240.968 78.1069
L241.329 78.1069
L241.392 75.2554
L241.978 75.2554
L241.978 74.305
L242.14 74.305
L242.25 72.404
L242.253 72.404
L242.253 71.4535
L242.828 71.4535
L242.872 69.5525
L242.98 69.5525
L242.98 68.602
L243.252 68.602
L243.252 67.6515
L243.534 67.6515
L243.534 66.701
L243.713 66.701
L243.814 63.8495
L244.255 63.8495
L244.255 62.899
L244.623 62.899
L244.623 61.9485
L244.894 61.9485
L244.988 60.0475
L245.076 60.0475
L245.076 59.097
L245.362 59.097
L245.362 58.1465
L246.189 58.1465
L246.189 57.196
L246.624 57.196
L246.653 53.3941
L247.085 53.3941
L247.085 52.4436
L248.08 52.4436
L248.08 51.4931
L248.214 51.4931
L248.214 50.5426
L250.247 50.5426
L250.247 49.5921
L251.092 49.5921
L251.092 48.6416
L251.205 48.6416
L251.205 47.6911
L252.64 47.6911
L252.64 46.7406
L253.511 46.7406
L253.511 45.7901
L254.179 45.7901
L254.276 43.8891
L254.328 43.8891
L254.328 42.9386
L255.797 42.9386
L255.797 41.9881
L257.939 41.9881
L257.939 41.0376
L259.513 41.0376
L259.513 40.0871
L259.667 40.0871
L259.667 39.1366
L260.491 39.1366
L260.491 38.1861
L261.399 38.1861
L261.399 37.2356
L261.617 37.2356
L261.617 36.2851
L262.625 36.2851
L262.625 35.3347
L263.533 35.3347
L263.533 34.3842
L266.14 34.3842
L266.14 33.4337
L266.554 33.4337
L266.554 32.4832
L267.242 32.4832
L267.242 31.5327
L267.791 31.5327
L267.791 30.5822
L269.057 30.5822
L269.057 29.6317
L270.158 29.6317
L270.158 28.6812
L270.306 28.6812
L270.306 27.7307
L272.931 27.7307
L272.931 26.7802
L280.958 26.7802
L280.958 25.8297
L281.382 25.8297
L281.382 24.8792
L281.5 24.8792
L281.5 23.9287
L282.879 23.9287
L282.879 22.9782
L283.26 22.9782
L283.26 22.0277
L284.143 22.0277
L284.143 21.0772
L287.03 21.0772
L287.03 20.1267
L288.801 20.1267
L288.801 19.1762
L290.509 19.1762
L290.509 18.2257
L290.763 18.2257
L290.763 17.2752
L294.208 17.2752
L294.208 16.3248
L294.624 16.3248
L294.624 15.3743
L296.421 15.3743
L296.421 14.4238
L300.201 14.4238
L300.201 13.4733
L302.543 13.4733
L302.543 12.5228
L310.321 12.5228
L310.321 11.5723
L324.855 11.5723
L324.855 10.6218
L324.855 10.6218
L453.6 10.6218
L453.6 10.6218" style="fill:none;stroke:#bf00bf;stroke-linecap:square;"/>
   </g>
   <g id="matplotlib.axis_1">
    <g id="xtick_1"/>
    <g id="xtick_2">
     <g id="line2d_7">
      <path clip-path="url(#p5bee155178)" d="
M56.7047 352.8
L56.7047 7.2" style="fill:none;stroke:#000000;stroke-dasharray:1.000000,3.000000;stroke-dashoffset:0.0;stroke-width:0.5;"/>
     </g>
     <g id="line2d_8">
      <defs>
       <path d="
M0 0
L0 -4" id="m93b0483c22" style="stroke:#000000;stroke-width:0.5;"/>
      </defs>
      <g>
       <use style="stroke:#000000;stroke-width:0.5;" x="56.70471484" xlink:href="#m93b0483c22" y="352.8"/>
      </g>
     </g>
     <g id="line2d_9">
      <defs>
       <path d="
M0 0
L0 4" id="m741efc42ff" style="stroke:#000000;stroke-width:0.5;"/>
      </defs>
      <g>
       <use style="stroke:#000000;stroke-width:0.5;" x="56.70471484" xlink:href="#m741efc42ff" y="7.2"/>
      </g>
     </g>
     <g id="text_1">
      <!-- -6 -->
      <defs>
       <path d="
M3.17188 21.4844
L3.17188 30.3281
L30.1719 30.3281
L30.1719 21.4844
z
" id="ArialMT-2d"/>
       <path d="
M49.75 54.0469
L41.0156 53.375
Q39.8438 58.5469 37.7031 60.8906
Q34.125 64.6562 28.9062 64.6562
Q24.7031 64.6562 21.5312 62.3125
Q17.3906 59.2812 14.9844 53.4688
Q12.5938 47.6562 12.5 36.9219
Q15.6719 41.75 20.2656 44.0938
Q24.8594 46.4375 29.8906 46.4375
Q38.6719 46.4375 44.8438 39.9688
Q51.0312 33.5 51.0312 23.25
Q51.0312 16.5 48.125 10.7188
Q45.2188 4.9375 40.1406 1.85938
Q35.0625 -1.21875 28.6094 -1.21875
Q17.625 -1.21875 10.6875 6.85938
Q3.76562 14.9375 3.76562 33.5
Q3.76562 54.25 11.4219 63.6719
Q18.1094 71.875 29.4375 71.875
Q37.8906 71.875 43.2812 67.1406
Q48.6875 62.4062 49.75 54.0469
M13.875 23.1875
Q13.875 18.6562 15.7969 14.5
Q17.7188 10.3594 21.1875 8.17188
Q24.6562 6 28.4688 6
Q34.0312 6 38.0312 10.4844
Q42.0469 14.9844 42.0469 22.7031
Q42.0469 30.125 38.0781 34.3906
Q34.125 38.6719 28.125 38.6719
Q22.1719 38.6719 18.0156 34.3906
Q13.875 30.125 13.875 23.1875" id="ArialMT-36"/>
      </defs>
      <g transform="translate(48.58908984 371.115625)scale(0.2 -0.2)">
       <use xlink:href="#ArialMT-2d"/>
       <use x="33.30078125" xlink:href="#ArialMT-36"/>
      </g>
     </g>
    </g>
    <g id="xtick_3">
     <g id="line2d_10">
      <path clip-path="url(#p5bee155178)" d="
M106.317 352.8
L106.317 7.2" style="fill:none;stroke:#000000;stroke-dasharray:1.000000,3.000000;stroke-dashoffset:0.0;stroke-width:0.5;"/>
     </g>
     <g id="line2d_11">
      <g>
       <use style="stroke:#000000;stroke-width:0.5;" x="106.316625485" xlink:href="#m93b0483c22" y="352.8"/>
      </g>
     </g>
     <g id="line2d_12">
      <g>
       <use style="stroke:#000000;stroke-width:0.5;" x="106.316625485" xlink:href="#m741efc42ff" y="7.2"/>
      </g>
     </g>
     <g id="text_2">
      <!-- -4 -->
      <defs>
       <path d="
M32.3281 0
L32.3281 17.1406
L1.26562 17.1406
L1.26562 25.2031
L33.9375 71.5781
L41.1094 71.5781
L41.1094 25.2031
L50.7812 25.2031
L50.7812 17.1406
L41.1094 17.1406
L41.1094 0
z

M32.3281 25.2031
L32.3281 57.4688
L9.90625 25.2031
z
" id="ArialMT-34"/>
      </defs>
      <g transform="translate(98.226000485 371.115625)scale(0.2 -0.2)">
       <use xlink:href="#ArialMT-2d"/>
       <use x="33.30078125" xlink:href="#ArialMT-34"/>
      </g>
     </g>
    </g>
    <g id="xtick_4">
     <g id="line2d_13">
      <path clip-path="url(#p5bee155178)" d="
M155.929 352.8
L155.929 7.2" style="fill:none;stroke:#000000;stroke-dasharray:1.000000,3.000000;stroke-dashoffset:0.0;stroke-width:0.5;"/>
     </g>
     <g id="line2d_14">
      <g>
       <use style="stroke:#000000;stroke-width:0.5;" x="155.92853613" xlink:href="#m93b0483c22" y="352.8"/>
      </g>
     </g>
     <g id="line2d_15">
      <g>
       <use style="stroke:#000000;stroke-width:0.5;" x="155.92853613" xlink:href="#m741efc42ff" y="7.2"/>
      </g>
     </g>
     <g id="text_3">
      <!-- -2 -->
      <defs>
       <path d="
M50.3438 8.45312
L50.3438 0
L3.03125 0
Q2.9375 3.17188 4.04688 6.10938
Q5.85938 10.9375 9.82812 15.625
Q13.8125 20.3125 21.3438 26.4688
Q33.0156 36.0312 37.1094 41.625
Q41.2188 47.2188 41.2188 52.2031
Q41.2188 57.4219 37.4688 61
Q33.7344 64.5938 27.7344 64.5938
Q21.3906 64.5938 17.5781 60.7812
Q13.7656 56.9844 13.7188 50.25
L4.6875 51.1719
Q5.60938 61.2812 11.6562 66.5781
Q17.7188 71.875 27.9375 71.875
Q38.2344 71.875 44.2344 66.1562
Q50.25 60.4531 50.25 52
Q50.25 47.7031 48.4844 43.5469
Q46.7344 39.4062 42.6562 34.8125
Q38.5781 30.2188 29.1094 22.2188
Q21.1875 15.5781 18.9375 13.2031
Q16.7031 10.8438 15.2344 8.45312
z
" id="ArialMT-32"/>
      </defs>
      <g transform="translate(147.88166113 371.115625)scale(0.2 -0.2)">
       <use xlink:href="#ArialMT-2d"/>
       <use x="33.30078125" xlink:href="#ArialMT-32"/>
      </g>
     </g>
    </g>
    <g id="xtick_5">
     <g id="line2d_16">
      <path clip-path="url(#p5bee155178)" d="
M205.54 352.8
L205.54 7.2" style="fill:none;stroke:#000000;stroke-dasharray:1.000000,3.000000;stroke-dashoffset:0.0;stroke-width:0.5;"/>
     </g>
     <g id="line2d_17">
      <g>
       <use style="stroke:#000000;stroke-width:0.5;" x="205.540446775" xlink:href="#m93b0483c22" y="352.8"/>
      </g>
     </g>
     <g id="line2d_18">
      <g>
       <use style="stroke:#000000;stroke-width:0.5;" x="205.540446775" xlink:href="#m741efc42ff" y="7.2"/>
      </g>
     </g>
     <g id="text_4">
      <!-- 0 -->
      <defs>
       <path d="
M4.15625 35.2969
Q4.15625 48 6.76562 55.7344
Q9.375 63.4844 14.5156 67.6719
Q19.6719 71.875 27.4844 71.875
Q33.25 71.875 37.5938 69.5469
Q41.9375 67.2344 44.7656 62.8594
Q47.6094 58.5 49.2188 52.2188
Q50.8281 45.9531 50.8281 35.2969
Q50.8281 22.7031 48.2344 14.9688
Q45.6562 7.23438 40.5 3
Q35.3594 -1.21875 27.4844 -1.21875
Q17.1406 -1.21875 11.2344 6.20312
Q4.15625 15.1406 4.15625 35.2969
M13.1875 35.2969
Q13.1875 17.6719 17.3125 11.8281
Q21.4375 6 27.4844 6
Q33.5469 6 37.6719 11.8594
Q41.7969 17.7188 41.7969 35.2969
Q41.7969 52.9844 37.6719 58.7812
Q33.5469 64.5938 27.3906 64.5938
Q21.3438 64.5938 17.7188 59.4688
Q13.1875 52.9375 13.1875 35.2969" id="ArialMT-30"/>
      </defs>
      <g transform="translate(200.873259275 371.115625)scale(0.2 -0.2)">
       <use xlink:href="#ArialMT-30"/>
      </g>
     </g>
    </g>
    <g id="xtick_6">
     <g id="line2d_19">
      <path clip-path="url(#p5bee155178)" d="
M255.152 352.8
L255.152 7.2" style="fill:none;stroke:#000000;stroke-dasharray:1.000000,3.000000;stroke-dashoffset:0.0;stroke-width:0.5;"/>
     </g>
     <g id="line2d_20">
      <g>
       <use style="stroke:#000000;stroke-width:0.5;" x="255.15235742" xlink:href="#m93b0483c22" y="352.8"/>
      </g>
     </g>
     <g id="line2d_21">
      <g>
       <use style="stroke:#000000;stroke-width:0.5;" x="255.15235742" xlink:href="#m741efc42ff" y="7.2"/>
      </g>
     </g>
     <g id="text_5">
      <!-- 2 -->
      <g transform="translate(250.41173242 371.115625)scale(0.2 -0.2)">
       <use xlink:href="#ArialMT-32"/>
      </g>
     </g>
    </g>
    <g id="xtick_7">
     <g id="line2d_22">
      <path clip-path="url(#p5bee155178)" d="
M304.764 352.8
L304.764 7.2" style="fill:none;stroke:#000000;stroke-dasharray:1.000000,3.000000;stroke-dashoffset:0.0;stroke-width:0.5;"/>
     </g>
     <g id="line2d_23">
      <g>
       <use style="stroke:#000000;stroke-width:0.5;" x="304.764268065" xlink:href="#m93b0483c22" y="352.8"/>
      </g>
     </g>
     <g id="line2d_24">
      <g>
       <use style="stroke:#000000;stroke-width:0.5;" x="304.764268065" xlink:href="#m741efc42ff" y="7.2"/>
      </g>
     </g>
     <g id="text_6">
      <!-- 4 -->
      <g transform="translate(299.812705565 371.115625)scale(0.2 -0.2)">
       <use xlink:href="#ArialMT-34"/>
      </g>
     </g>
    </g>
    <g id="xtick_8">
     <g id="line2d_25">
      <path clip-path="url(#p5bee155178)" d="
M354.376 352.8
L354.376 7.2" style="fill:none;stroke:#000000;stroke-dasharray:1.000000,3.000000;stroke-dashoffset:0.0;stroke-width:0.5;"/>
     </g>
     <g id="line2d_26">
      <g>
       <use style="stroke:#000000;stroke-width:0.5;" x="354.37617871" xlink:href="#m93b0483c22" y="352.8"/>
      </g>
     </g>
     <g id="line2d_27">
      <g>
       <use style="stroke:#000000;stroke-width:0.5;" x="354.37617871" xlink:href="#m741efc42ff" y="7.2"/>
      </g>
     </g>
     <g id="text_7">
      <!-- 6 -->
      <g transform="translate(349.64961621 371.115625)scale(0.2 -0.2)">
       <use xlink:href="#ArialMT-36"/>
      </g>
     </g>
    </g>
    <g id="xtick_9">
     <g id="line2d_28">
      <path clip-path="url(#p5bee155178)" d="
M403.988 352.8
L403.988 7.2" style="fill:none;stroke:#000000;stroke-dasharray:1.000000,3.000000;stroke-dashoffset:0.0;stroke-width:0.5;"/>
     </g>
     <g id="line2d_29">
      <g>
       <use style="stroke:#000000;stroke-width:0.5;" x="403.988089355" xlink:href="#m93b0483c22" y="352.8"/>
      </g>
     </g>
     <g id="line2d_30">
      <g>
       <use style="stroke:#000000;stroke-width:0.5;" x="403.988089355" xlink:href="#m741efc42ff" y="7.2"/>
      </g>
     </g>
     <g id="text_8">
      <!-- 8 -->
      <defs>
       <path d="
M17.6719 38.8125
Q12.2031 40.8281 9.5625 44.5312
Q6.9375 48.25 6.9375 53.4219
Q6.9375 61.2344 12.5469 66.5469
Q18.1719 71.875 27.4844 71.875
Q36.8594 71.875 42.5781 66.4219
Q48.2969 60.9844 48.2969 53.1719
Q48.2969 48.1875 45.6719 44.5
Q43.0625 40.8281 37.75 38.8125
Q44.3438 36.6719 47.7812 31.875
Q51.2188 27.0938 51.2188 20.4531
Q51.2188 11.2812 44.7188 5.03125
Q38.2344 -1.21875 27.6406 -1.21875
Q17.0469 -1.21875 10.5469 5.04688
Q4.04688 11.3281 4.04688 20.7031
Q4.04688 27.6875 7.59375 32.3906
Q11.1406 37.1094 17.6719 38.8125
M15.9219 53.7188
Q15.9219 48.6406 19.1875 45.4062
Q22.4688 42.1875 27.6875 42.1875
Q32.7656 42.1875 36.0156 45.375
Q39.2656 48.5781 39.2656 53.2188
Q39.2656 58.0625 35.9062 61.3594
Q32.5625 64.6562 27.5938 64.6562
Q22.5625 64.6562 19.2344 61.4219
Q15.9219 58.2031 15.9219 53.7188
M13.0938 20.6562
Q13.0938 16.8906 14.875 13.375
Q16.6562 9.85938 20.1719 7.92188
Q23.6875 6 27.7344 6
Q34.0312 6 38.125 10.0469
Q42.2344 14.1094 42.2344 20.3594
Q42.2344 26.7031 38.0156 30.8594
Q33.7969 35.0156 27.4375 35.0156
Q21.2344 35.0156 17.1562 30.9062
Q13.0938 26.8125 13.0938 20.6562" id="ArialMT-38"/>
      </defs>
      <g transform="translate(399.270901855 371.115625)scale(0.2 -0.2)">
       <use xlink:href="#ArialMT-38"/>
      </g>
     </g>
    </g>
    <g id="xtick_10">
     <g id="line2d_31">
      <path clip-path="url(#p5bee155178)" d="
M453.6 352.8
L453.6 7.2" style="fill:none;stroke:#000000;stroke-dasharray:1.000000,3.000000;stroke-dashoffset:0.0;stroke-width:0.5;"/>
     </g>
     <g id="line2d_32">
      <g>
       <use style="stroke:#000000;stroke-width:0.5;" x="453.6" xlink:href="#m93b0483c22" y="352.8"/>
      </g>
     </g>
     <g id="line2d_33">
      <g>
       <use style="stroke:#000000;stroke-width:0.5;" x="453.6" xlink:href="#m741efc42ff" y="7.2"/>
      </g>
     </g>
    </g>
    <g id="xtick_11"/>
    <g id="xtick_12">
     <g id="line2d_34">
      <defs>
       <path d="
M0 0
L0 -2" id="m177f7580d0" style="stroke:#000000;stroke-width:0.5;"/>
      </defs>
      <g>
       <use style="stroke:#000000;stroke-width:0.5;" x="56.70471484" xlink:href="#m177f7580d0" y="352.8"/>
      </g>
     </g>
     <g id="line2d_35">
      <defs>
       <path d="
M0 0
L0 2" id="m5284c7e2a0" style="stroke:#000000;stroke-width:0.5;"/>
      </defs>
      <g>
       <use style="stroke:#000000;stroke-width:0.5;" x="56.70471484" xlink:href="#m5284c7e2a0" y="7.2"/>
      </g>
     </g>
    </g>
    <g id="xtick_13">
     <g id="line2d_36">
      <g>
       <use style="stroke:#000000;stroke-width:0.5;" x="106.316625485" xlink:href="#m177f7580d0" y="352.8"/>
      </g>
     </g>
     <g id="line2d_37">
      <g>
       <use style="stroke:#000000;stroke-width:0.5;" x="106.316625485" xlink:href="#m5284c7e2a0" y="7.2"/>
      </g>
     </g>
    </g>
    <g id="xtick_14">
     <g id="line2d_38">
      <g>
       <use style="stroke:#000000;stroke-width:0.5;" x="155.92853613" xlink:href="#m177f7580d0" y="352.8"/>
      </g>
     </g>
     <g id="line2d_39">
      <g>
       <use style="stroke:#000000;stroke-width:0.5;" x="155.92853613" xlink:href="#m5284c7e2a0" y="7.2"/>
      </g>
     </g>
    </g>
    <g id="xtick_15">
     <g id="line2d_40">
      <g>
       <use style="stroke:#000000;stroke-width:0.5;" x="205.540446775" xlink:href="#m177f7580d0" y="352.8"/>
      </g>
     </g>
     <g id="line2d_41">
      <g>
       <use style="stroke:#000000;stroke-width:0.5;" x="205.540446775" xlink:href="#m5284c7e2a0" y="7.2"/>
      </g>
     </g>
    </g>
    <g id="xtick_16">
     <g id="line2d_42">
      <g>
       <use style="stroke:#000000;stroke-width:0.5;" x="255.15235742" xlink:href="#m177f7580d0" y="352.8"/>
      </g>
     </g>
     <g id="line2d_43">
      <g>
       <use style="stroke:#000000;stroke-width:0.5;" x="255.15235742" xlink:href="#m5284c7e2a0" y="7.2"/>
      </g>
     </g>
    </g>
    <g id="xtick_17">
     <g id="line2d_44">
      <g>
       <use style="stroke:#000000;stroke-width:0.5;" x="304.764268065" xlink:href="#m177f7580d0" y="352.8"/>
      </g>
     </g>
     <g id="line2d_45">
      <g>
       <use style="stroke:#000000;stroke-width:0.5;" x="304.764268065" xlink:href="#m5284c7e2a0" y="7.2"/>
      </g>
     </g>
    </g>
    <g id="xtick_18">
     <g id="line2d_46">
      <g>
       <use style="stroke:#000000;stroke-width:0.5;" x="354.37617871" xlink:href="#m177f7580d0" y="352.8"/>
      </g>
     </g>
     <g id="line2d_47">
      <g>
       <use style="stroke:#000000;stroke-width:0.5;" x="354.37617871" xlink:href="#m5284c7e2a0" y="7.2"/>
      </g>
     </g>
    </g>
    <g id="xtick_19">
     <g id="line2d_48">
      <g>
       <use style="stroke:#000000;stroke-width:0.5;" x="403.988089355" xlink:href="#m177f7580d0" y="352.8"/>
      </g>
     </g>
     <g id="line2d_49">
      <g>
       <use style="stroke:#000000;stroke-width:0.5;" x="403.988089355" xlink:href="#m5284c7e2a0" y="7.2"/>
      </g>
     </g>
    </g>
    <g id="xtick_20">
     <g id="line2d_50">
      <g>
       <use style="stroke:#000000;stroke-width:0.5;" x="453.6" xlink:href="#m177f7580d0" y="352.8"/>
      </g>
     </g>
     <g id="line2d_51">
      <g>
       <use style="stroke:#000000;stroke-width:0.5;" x="453.6" xlink:href="#m5284c7e2a0" y="7.2"/>
      </g>
     </g>
    </g>
    <g id="text_9">
     <!-- log10 of Df -->
     <defs>
      <path d="
M4.98438 -4.29688
L13.5312 -5.5625
Q14.0625 -9.51562 16.5 -11.3281
Q19.7812 -13.7656 25.4375 -13.7656
Q31.5469 -13.7656 34.8594 -11.3281
Q38.1875 -8.89062 39.3594 -4.5
Q40.0469 -1.8125 39.9844 6.78125
Q34.2344 0 25.6406 0
Q14.9375 0 9.07812 7.71875
Q3.21875 15.4375 3.21875 26.2188
Q3.21875 33.6406 5.90625 39.9062
Q8.59375 46.1875 13.6875 49.6094
Q18.7969 53.0312 25.6875 53.0312
Q34.8594 53.0312 40.8281 45.6094
L40.8281 51.8594
L48.9219 51.8594
L48.9219 7.03125
Q48.9219 -5.07812 46.4531 -10.125
Q44 -15.1875 38.6406 -18.1094
Q33.2969 -21.0469 25.4844 -21.0469
Q16.2188 -21.0469 10.5 -16.875
Q4.78125 -12.7031 4.98438 -4.29688
M12.25 26.8594
Q12.25 16.6562 16.2969 11.9688
Q20.3594 7.28125 26.4688 7.28125
Q32.5156 7.28125 36.6094 11.9375
Q40.7188 16.6094 40.7188 26.5625
Q40.7188 36.0781 36.5 40.9062
Q32.2812 45.75 26.3125 45.75
Q20.4531 45.75 16.3438 40.9844
Q12.25 36.2344 12.25 26.8594" id="ArialMT-67"/>
      <path d="
M8.6875 0
L8.6875 45.0156
L0.921875 45.0156
L0.921875 51.8594
L8.6875 51.8594
L8.6875 57.375
Q8.6875 62.5938 9.625 65.1406
Q10.8906 68.5625 14.0781 70.6719
Q17.2812 72.7969 23.0469 72.7969
Q26.7656 72.7969 31.25 71.9219
L29.9375 64.2656
Q27.2031 64.75 24.75 64.75
Q20.75 64.75 19.0938 63.0312
Q17.4375 61.3281 17.4375 56.6406
L17.4375 51.8594
L27.5469 51.8594
L27.5469 45.0156
L17.4375 45.0156
L17.4375 0
z
" id="ArialMT-66"/>
      <path d="
M7.71875 0
L7.71875 71.5781
L32.375 71.5781
Q40.7188 71.5781 45.125 70.5625
Q51.2656 69.1406 55.6094 65.4375
Q61.2812 60.6406 64.0781 53.1875
Q66.8906 45.75 66.8906 36.1875
Q66.8906 28.0312 64.9844 21.7344
Q63.0938 15.4375 60.1094 11.2969
Q57.125 7.17188 53.5781 4.79688
Q50.0469 2.4375 45.0469 1.21875
Q40.0469 0 33.5469 0
z

M17.1875 8.45312
L32.4688 8.45312
Q39.5469 8.45312 43.5781 9.76562
Q47.6094 11.0781 50 13.4844
Q53.375 16.8438 55.25 22.5312
Q57.125 28.2188 57.125 36.3281
Q57.125 47.5625 53.4375 53.5938
Q49.75 59.625 44.4844 61.6719
Q40.6719 63.1406 32.2344 63.1406
L17.1875 63.1406
z
" id="ArialMT-44"/>
      <path d="
M6.39062 0
L6.39062 71.5781
L15.1875 71.5781
L15.1875 0
z
" id="ArialMT-6c"/>
      <path d="
M3.32812 25.9219
Q3.32812 40.3281 11.3281 47.2656
Q18.0156 53.0312 27.6406 53.0312
Q38.3281 53.0312 45.1094 46.0156
Q51.9062 39.0156 51.9062 26.6562
Q51.9062 16.6562 48.9062 10.9062
Q45.9062 5.17188 40.1562 2
Q34.4219 -1.17188 27.6406 -1.17188
Q16.75 -1.17188 10.0312 5.8125
Q3.32812 12.7969 3.32812 25.9219
M12.3594 25.9219
Q12.3594 15.9688 16.7031 11.0156
Q21.0469 6.0625 27.6406 6.0625
Q34.1875 6.0625 38.5312 11.0312
Q42.875 16.0156 42.875 26.2188
Q42.875 35.8438 38.5 40.7969
Q34.125 45.75 27.6406 45.75
Q21.0469 45.75 16.7031 40.8125
Q12.3594 35.8906 12.3594 25.9219" id="ArialMT-6f"/>
      <path d="
M37.25 0
L28.4688 0
L28.4688 56
Q25.2969 52.9844 20.1406 49.9531
Q14.9844 46.9219 10.8906 45.4062
L10.8906 53.9062
Q18.2656 57.375 23.7812 62.2969
Q29.2969 67.2344 31.5938 71.875
L37.25 71.875
z
" id="ArialMT-31"/>
      <path id="ArialMT-20"/>
     </defs>
     <g transform="translate(181.6921875 394.65)scale(0.2 -0.2)">
      <use xlink:href="#ArialMT-6c"/>
      <use x="22.216796875" xlink:href="#ArialMT-6f"/>
      <use x="77.83203125" xlink:href="#ArialMT-67"/>
      <use x="133.447265625" xlink:href="#ArialMT-31"/>
      <use x="189.0625" xlink:href="#ArialMT-30"/>
      <use x="244.677734375" xlink:href="#ArialMT-20"/>
      <use x="272.4609375" xlink:href="#ArialMT-6f"/>
      <use x="328.076171875" xlink:href="#ArialMT-66"/>
      <use x="355.859375" xlink:href="#ArialMT-20"/>
      <use x="383.642578125" xlink:href="#ArialMT-44"/>
      <use x="455.859375" xlink:href="#ArialMT-66"/>
     </g>
    </g>
   </g>
   <g id="matplotlib.axis_2">
    <g id="ytick_1">
     <g id="line2d_52">
      <path clip-path="url(#p5bee155178)" d="
M7.2 352.8
L453.6 352.8" style="fill:none;stroke:#000000;stroke-dasharray:1.000000,3.000000;stroke-dashoffset:0.0;stroke-width:0.5;"/>
     </g>
     <g id="line2d_53">
      <defs>
       <path d="
M0 0
L4 0" id="m728421d6d4" style="stroke:#000000;stroke-width:0.5;"/>
      </defs>
      <g>
       <use style="stroke:#000000;stroke-width:0.5;" x="7.2" xlink:href="#m728421d6d4" y="352.8"/>
      </g>
     </g>
     <g id="line2d_54">
      <defs>
       <path d="
M0 0
L-4 0" id="mcb0005524f" style="stroke:#000000;stroke-width:0.5;"/>
      </defs>
      <g>
       <use style="stroke:#000000;stroke-width:0.5;" x="453.6" xlink:href="#mcb0005524f" y="352.8"/>
      </g>
     </g>
    </g>
    <g id="ytick_2">
     <g id="line2d_55">
      <path clip-path="url(#p5bee155178)" d="
M7.2 284.364
L453.6 284.364" style="fill:none;stroke:#000000;stroke-dasharray:1.000000,3.000000;stroke-dashoffset:0.0;stroke-width:0.5;"/>
     </g>
     <g id="line2d_56">
      <g>
       <use style="stroke:#000000;stroke-width:0.5;" x="7.2" xlink:href="#m728421d6d4" y="284.364356436"/>
      </g>
     </g>
     <g id="line2d_57">
      <g>
       <use style="stroke:#000000;stroke-width:0.5;" x="453.6" xlink:href="#mcb0005524f" y="284.364356436"/>
      </g>
     </g>
    </g>
    <g id="ytick_3">
     <g id="line2d_58">
      <path clip-path="url(#p5bee155178)" d="
M7.2 215.929
L453.6 215.929" style="fill:none;stroke:#000000;stroke-dasharray:1.000000,3.000000;stroke-dashoffset:0.0;stroke-width:0.5;"/>
     </g>
     <g id="line2d_59">
      <g>
       <use style="stroke:#000000;stroke-width:0.5;" x="7.2" xlink:href="#m728421d6d4" y="215.928712871"/>
      </g>
     </g>
     <g id="line2d_60">
      <g>
       <use style="stroke:#000000;stroke-width:0.5;" x="453.6" xlink:href="#mcb0005524f" y="215.928712871"/>
      </g>
     </g>
    </g>
    <g id="ytick_4">
     <g id="line2d_61">
      <path clip-path="url(#p5bee155178)" d="
M7.2 147.493
L453.6 147.493" style="fill:none;stroke:#000000;stroke-dasharray:1.000000,3.000000;stroke-dashoffset:0.0;stroke-width:0.5;"/>
     </g>
     <g id="line2d_62">
      <g>
       <use style="stroke:#000000;stroke-width:0.5;" x="7.2" xlink:href="#m728421d6d4" y="147.493069307"/>
      </g>
     </g>
     <g id="line2d_63">
      <g>
       <use style="stroke:#000000;stroke-width:0.5;" x="453.6" xlink:href="#mcb0005524f" y="147.493069307"/>
      </g>
     </g>
    </g>
    <g id="ytick_5">
     <g id="line2d_64">
      <path clip-path="url(#p5bee155178)" d="
M7.2 79.0574
L453.6 79.0574" style="fill:none;stroke:#000000;stroke-dasharray:1.000000,3.000000;stroke-dashoffset:0.0;stroke-width:0.5;"/>
     </g>
     <g id="line2d_65">
      <g>
       <use style="stroke:#000000;stroke-width:0.5;" x="7.2" xlink:href="#m728421d6d4" y="79.0574257426"/>
      </g>
     </g>
     <g id="line2d_66">
      <g>
       <use style="stroke:#000000;stroke-width:0.5;" x="453.6" xlink:href="#mcb0005524f" y="79.0574257426"/>
      </g>
     </g>
    </g>
    <g id="ytick_6">
     <g id="line2d_67">
      <path clip-path="url(#p5bee155178)" d="
M7.2 10.6218
L453.6 10.6218" style="fill:none;stroke:#000000;stroke-dasharray:1.000000,3.000000;stroke-dashoffset:0.0;stroke-width:0.5;"/>
     </g>
     <g id="line2d_68">
      <g>
       <use style="stroke:#000000;stroke-width:0.5;" x="7.2" xlink:href="#m728421d6d4" y="10.6217821782"/>
      </g>
     </g>
     <g id="line2d_69">
      <g>
       <use style="stroke:#000000;stroke-width:0.5;" x="453.6" xlink:href="#mcb0005524f" y="10.6217821782"/>
      </g>
     </g>
    </g>
   </g>
   <g id="patch_3">
    <path d="
M7.2 7.2
L453.6 7.2" style="fill:none;stroke:#000000;"/>
   </g>
   <g id="patch_4">
    <path d="
M453.6 352.8
L453.6 7.2" style="fill:none;stroke:#000000;"/>
   </g>
   <g id="patch_5">
    <path d="
M7.2 352.8
L453.6 352.8" style="fill:none;stroke:#000000;"/>
   </g>
   <g id="patch_6">
    <path d="
M7.2 352.8
L7.2 7.2" style="fill:none;stroke:#000000;"/>
   </g>
   <g id="text_10">
    <!-- {f1-f24}, 5-D -->
    <defs>
     <path d="
M30.5625 29.8906
L30.5625 21.9219
Q26.8125 21.8281 24.4375 19.875
Q22.0781 17.9219 21.2969 14.5781
Q20.5156 11.2344 20.4531 3.07812
Q20.4062 -5.07812 20.1719 -7.67188
Q19.7344 -11.8125 18.5312 -14.2812
Q17.3281 -16.75 15.5625 -18.2344
Q13.8125 -19.7344 11.0781 -20.5156
Q9.23438 -21.0469 5.03125 -21.0469
L2.29688 -21.0469
L2.29688 -13.375
L3.8125 -13.375
Q8.89062 -13.375 10.5469 -11.5469
Q12.2031 -9.71875 12.2031 -3.32812
Q12.2031 8.89062 12.6406 12.1562
Q13.4219 17.5781 15.7656 20.8281
Q18.1094 24.0781 22.4062 25.875
Q16.7969 28.5625 14.5 32.9844
Q12.2031 37.4062 12.2031 47.9062
Q12.2031 57.4219 11.9688 59.2812
Q11.625 62.5469 10.0312 63.8438
Q8.45312 65.1406 3.8125 65.1406
L2.29688 65.1406
L2.29688 72.7969
L5.03125 72.7969
Q9.8125 72.7969 11.9688 72.0156
Q15.0938 70.9531 17.1406 68.4062
Q19.1875 65.875 19.7969 62.0156
Q20.4062 58.1562 20.4531 49.3594
Q20.5156 40.5781 21.2969 37.2344
Q22.0781 33.8906 24.4375 31.9375
Q26.8125 29.9844 30.5625 29.8906" id="ArialMT-7d"/>
     <path d="
M8.89062 0
L8.89062 10.0156
L18.8906 10.0156
L18.8906 0
Q18.8906 -5.51562 16.9375 -8.90625
Q14.9844 -12.3125 10.75 -14.1562
L8.29688 -10.4062
Q11.0781 -9.1875 12.3906 -6.8125
Q13.7188 -4.4375 13.875 0
z
" id="ArialMT-2c"/>
     <path d="
M4.15625 18.75
L13.375 19.5312
Q14.4062 12.7969 18.1406 9.39062
Q21.875 6 27.1562 6
Q33.5 6 37.8906 10.7812
Q42.2812 15.5781 42.2812 23.4844
Q42.2812 31 38.0625 35.3438
Q33.8438 39.7031 27 39.7031
Q22.75 39.7031 19.3281 37.7656
Q15.9219 35.8438 13.9688 32.7656
L5.71875 33.8438
L12.6406 70.6094
L48.25 70.6094
L48.25 62.2031
L19.6719 62.2031
L15.8281 42.9688
Q22.2656 47.4688 29.3438 47.4688
Q38.7188 47.4688 45.1562 40.9688
Q51.6094 34.4688 51.6094 24.2656
Q51.6094 14.5469 45.9531 7.46875
Q39.0625 -1.21875 27.1562 -1.21875
Q17.3906 -1.21875 11.2031 4.25
Q5.03125 9.71875 4.15625 18.75" id="ArialMT-35"/>
     <path d="
M2.78125 29.8906
Q6.54688 29.9844 8.90625 31.9062
Q11.2812 33.8438 12.0625 37.2031
Q12.8438 40.5781 12.8906 48.7344
Q12.9375 56.8906 13.1875 59.4688
Q13.625 63.5781 14.8125 66.0625
Q16.0156 68.5625 17.7656 70.0469
Q19.5312 71.5312 22.2656 72.3125
Q24.125 72.7969 28.3281 72.7969
L31.0625 72.7969
L31.0625 65.1406
L29.5469 65.1406
Q24.4688 65.1406 22.7969 63.2969
Q21.1406 61.4688 21.1406 55.125
Q21.1406 42.3281 20.6094 38.9688
Q19.7344 33.7344 17.6094 30.9062
Q15.4844 28.0781 10.9375 25.875
Q16.3125 23.6406 18.7188 19.0156
Q21.1406 14.4062 21.1406 3.90625
Q21.1406 -5.60938 21.3438 -7.42188
Q21.7344 -10.75 23.3125 -12.0625
Q24.9062 -13.375 29.5469 -13.375
L31.0625 -13.375
L31.0625 -21.0469
L28.3281 -21.0469
Q23.5312 -21.0469 21.3906 -20.2656
Q18.2656 -19.1406 16.2031 -16.625
Q14.1562 -14.1094 13.5469 -10.25
Q12.9375 -6.39062 12.8906 2.39062
Q12.8438 11.1875 12.0625 14.5469
Q11.2812 17.9219 8.90625 19.875
Q6.54688 21.8281 2.78125 21.9219
z
" id="ArialMT-7b"/>
    </defs>
    <g transform="translate(337.900125 345.888)scale(0.2 -0.2)">
     <use xlink:href="#ArialMT-7b"/>
     <use x="33.3984375" xlink:href="#ArialMT-66"/>
     <use x="61.181640625" xlink:href="#ArialMT-31"/>
     <use x="116.796875" xlink:href="#ArialMT-2d"/>
     <use x="150.09765625" xlink:href="#ArialMT-66"/>
     <use x="177.880859375" xlink:href="#ArialMT-32"/>
     <use x="233.49609375" xlink:href="#ArialMT-34"/>
     <use x="289.111328125" xlink:href="#ArialMT-7d"/>
     <use x="322.509765625" xlink:href="#ArialMT-2c"/>
     <use x="350.29296875" xlink:href="#ArialMT-20"/>
     <use x="378.076171875" xlink:href="#ArialMT-35"/>
     <use x="433.69140625" xlink:href="#ArialMT-2d"/>
     <use x="466.9921875" xlink:href="#ArialMT-44"/>
    </g>
   </g>
   <g id="text_11">
    <!-- v2.0.1 -->
    <defs>
     <path d="
M21 0
L1.26562 51.8594
L10.5469 51.8594
L21.6875 20.7969
Q23.4844 15.7656 25 10.3594
Q26.1719 14.4531 28.2656 20.2188
L39.7969 51.8594
L48.8281 51.8594
L29.2031 0
z
" id="ArialMT-76"/>
     <path d="
M9.07812 0
L9.07812 10.0156
L19.0938 10.0156
L19.0938 0
z
" id="ArialMT-2e"/>
    </defs>
    <g style="fill:#808080;" transform="translate(217.76171875 347.3565)scale(0.1 -0.1)">
     <use xlink:href="#ArialMT-76"/>
     <use x="50.0" xlink:href="#ArialMT-32"/>
     <use x="105.615234375" xlink:href="#ArialMT-2e"/>
     <use x="133.3984375" xlink:href="#ArialMT-30"/>
     <use x="189.013671875" xlink:href="#ArialMT-2e"/>
     <use x="216.796875" xlink:href="#ArialMT-31"/>
    </g>
   </g>
  </g>
 </g>
 <defs>
  <clipPath id="p5bee155178">
   <rect height="345.6" width="446.4" x="7.2" y="7.2"/>
  </clipPath>
 </defs>
</svg>
