<?xml version="1.0" encoding="utf-8" standalone="no"?>
<!DOCTYPE svg PUBLIC "-//W3C//DTD SVG 1.1//EN"
  "http://www.w3.org/Graphics/SVG/1.1/DTD/svg11.dtd">
<!-- Created with matplotlib (http://matplotlib.org/) -->
<svg height="411pt" version="1.1" viewBox="0 0 514 411" width="514pt" xmlns="http://www.w3.org/2000/svg" xmlns:xlink="http://www.w3.org/1999/xlink">
 <defs>
  <style type="text/css">
*{stroke-linecap:butt;stroke-linejoin:round;}
  </style>
 </defs>
 <g id="figure_1">
  <g id="patch_1">
   <path d="
M0 411.783
L514.425 411.783
L514.425 0
L0 0
z
" style="fill:#ffffff;"/>
  </g>
  <g id="axes_1">
   <g id="patch_2">
    <path d="
M60.825 358.524
L507.225 358.524
L507.225 12.9235
L60.825 12.9235
z
" style="fill:#ffffff;"/>
   </g>
   <g id="line2d_1">
    <path clip-path="url(#p0ab5e1e507)" d="
M167.25 358.524
L167.25 353.961
L301.676 353.961
L301.676 349.399
L371.651 349.399
L371.651 344.836
L373.519 344.836
L373.519 340.274
L373.723 340.274
L373.723 335.712
L374.534 335.712
L374.534 331.149
L374.935 331.149
L374.935 326.587
L376.125 326.587
L376.125 322.025
L376.125 322.025
L376.125 317.462
L376.906 317.462
L376.906 312.9
L377.1 312.9
L377.1 308.337
L377.486 308.337
L377.486 303.775
L379.94 303.775
L379.94 299.213
L382.304 299.213
L382.304 294.65
L383.718 294.65
L383.718 290.088
L383.718 290.088
L383.718 285.526
L383.892 285.526
L383.892 280.963
L384.585 280.963
L384.585 276.401
L384.585 276.401
L384.585 271.838
L384.757 271.838
L384.757 267.276
L385.1 267.276
L385.1 262.714
L386.118 262.714
L386.118 258.151
L386.622 258.151
L386.622 253.589
L387.451 253.589
L387.451 249.027
L387.78 249.027
L387.78 244.464
L394.328 244.464
L394.328 239.902
L398.213 239.902
L398.213 235.339
L404.463 235.339
L404.463 230.777
L408.277 230.777
L408.277 226.215
L410.161 226.215
L410.161 221.652
L411.653 221.652
L411.653 217.09
L412.105 217.09
L412.105 212.527
L415.398 212.527
L415.398 207.965
L418.43 207.965
L418.43 203.403
L427.647 203.403
L427.647 198.84
L428.264 198.84
L428.264 194.278
L429.135 194.278
L429.135 189.716
L431.68 189.716
L431.68 185.153
L436.951 185.153
L436.951 180.591
L437.027 180.591
L437.027 176.028
L438.466 176.028
L438.466 171.466
L439.211 171.466
L439.211 166.904
L445.554 166.904
L445.554 162.341
L448.954 162.341
L448.954 157.779
L450.589 157.779
L450.589 153.217
L451.207 153.217
L451.207 148.654
L451.391 148.654
L451.391 144.092
L456.97 144.092
L456.97 139.529
L465.2 139.529
L465.2 134.967
L469.558 134.967
L469.558 130.405
L470.248 130.405
L470.248 125.842
L472.056 125.842
L472.056 121.28
L473.204 121.28
L473.204 116.718
L474.632 116.718
L474.632 112.155
L480.52 112.155
L480.52 107.593
L482.559 107.593
L482.559 103.03
L485.556 103.03
L485.556 98.4681
L489.006 98.4681
L489.006 93.9057
L502.367 93.9057
L502.367 89.3433
L509.186 89.3433
L509.186 84.781
L512.032 84.781
L512.032 80.2186
L515.425 80.2186" style="fill:none;stroke:#f5deb3;stroke-linecap:square;"/>
   </g>
   <g id="line2d_2">
    <path clip-path="url(#p0ab5e1e507)" d="
M258.098 358.524
L258.098 353.961
L271.292 353.961
L271.292 349.399
L272.279 349.399
L272.279 344.836
L295.14 344.836
L295.14 340.274
L315.601 340.274
L315.601 335.712
L324.045 335.712
L324.045 331.149
L326.632 331.149
L326.632 326.587
L331.12 326.587
L331.12 322.025
L336.778 322.025
L336.778 317.462
L338.909 317.462
L338.909 312.9
L342.312 312.9
L342.312 308.337
L342.643 308.337
L342.643 303.775
L349.222 303.775
L349.222 299.213
L350.986 299.213
L350.986 294.65
L369.728 294.65
L369.728 290.088
L371.651 290.088
L371.651 285.526
L382.483 285.526
L382.483 280.963
L439.359 280.963
L439.359 276.401
L439.727 276.401
L439.727 271.838
L443.646 271.838
L443.646 267.276
L444.471 267.276
L444.471 262.714
L445.487 262.714
L445.487 258.151
L451.145 258.151
L451.145 253.589
L452.966 253.589
L453.026 244.464
L453.621 244.464
L453.621 239.902
L457.418 239.902
L457.418 235.339
L461.741 235.339
L461.741 230.777
L465.051 230.777
L465.051 226.215
L470.34 226.215
L470.34 221.652
L474.546 221.652
L474.546 217.09
L489.006 217.09
L489.006 212.527
L489.62 212.527
L489.62 207.965
L490.631 207.965
L490.631 203.403
L491.823 203.403
L491.823 198.84
L494.143 198.84
L494.143 194.278
L494.711 194.278
L494.711 189.716
L495.552 189.716
L495.552 185.153
L496.046 185.153
L496.108 176.028
L496.353 176.028
L496.353 171.466
L501.75 171.466
L501.75 166.904
L502.199 166.904
L502.199 162.341
L508.53 162.341
L508.53 157.779
L510.992 157.779
L510.992 153.217
L515.425 153.217
L515.425 153.217" style="fill:none;stroke:#f5deb3;stroke-linecap:square;"/>
   </g>
   <g id="line2d_3">
    <path clip-path="url(#p0ab5e1e507)" d="
M259.307 358.524
L259.307 353.961
L350.403 353.961
L350.403 349.399
L354.648 349.399
L354.648 344.836
L363.349 344.836
L363.349 340.274
L363.588 340.274
L363.588 335.712
L372.902 335.712
L372.902 331.149
L380.677 331.149
L380.677 326.587
L382.483 326.587
L382.483 322.025
L387.944 322.025
L387.944 317.462
L391.911 317.462
L391.911 303.775
L399.045 303.775
L399.045 299.213
L400.812 299.213
L400.812 294.65
L401.214 294.65
L401.214 290.088
L405.842 290.088
L405.842 285.526
L411.312 285.526
L411.312 280.963
L417.088 280.963
L417.088 276.401
L425.486 276.401
L425.486 271.838
L426.934 271.838
L426.934 267.276
L430.335 267.276
L430.335 262.714
L431.263 262.714
L431.263 258.151
L432.589 258.151
L432.589 253.589
L433.647 253.589
L433.647 249.027
L438.616 249.027
L438.616 244.464
L440.603 244.464
L440.603 239.902
L449.335 239.902
L449.335 235.339
L450.589 235.339
L450.651 226.215
L453.681 226.215
L453.681 221.652
L460.634 221.652
L460.634 217.09
L464.852 217.09
L464.852 212.527
L466.621 212.527
L466.621 207.965
L468.625 207.965
L468.625 203.403
L471.922 203.403
L471.922 198.84
L474.332 198.84
L474.332 194.278
L484.463 194.278
L484.463 189.716
L495.242 189.716
L495.242 185.153
L495.614 185.153
L495.614 180.591
L500.126 180.591
L500.126 176.028
L502.617 176.028
L502.617 171.466
L502.839 171.466
L502.839 166.904
L504.64 166.904
L504.64 162.341
L505.893 162.341
L505.893 157.779
L506.103 157.779
L506.103 148.654
L507.791 148.654
L507.791 144.092
L508.909 144.092
L508.909 139.529
L509.76 139.529
L509.76 134.967
L514.018 134.967
L514.018 130.405
L515.425 130.405
L515.425 130.405" style="fill:none;stroke:#f5deb3;stroke-linecap:square;"/>
   </g>
   <g id="line2d_4">
    <path clip-path="url(#p0ab5e1e507)" d="
M317.088 358.524
L317.088 353.961
L419.944 353.961
L419.944 349.399
L455.375 349.399
L455.375 344.836
L457.418 344.836
L457.418 340.274
L459.939 340.274
L459.939 335.712
L460.207 335.712
L460.207 331.149
L475.44 331.149
L475.44 326.587
L489.314 326.587
L489.314 322.025
L490.53 322.025
L490.53 317.462
L498.726 317.462
L498.726 312.9
L501.327 312.9
L501.327 308.337
L507.096 308.337
L507.096 303.775
L507.406 303.775
L507.406 299.213
L514.666 299.213
L514.666 294.65
L514.897 294.65
L514.897 290.088
L514.92 290.088
L514.92 285.526
L515.034 285.526
L515.034 280.963
L515.425 280.963" style="fill:none;stroke:#f5deb3;stroke-linecap:square;"/>
   </g>
   <g id="line2d_5">
    <path clip-path="url(#p0ab5e1e507)" d="
M314.08 358.524
L314.08 344.836
L322.262 344.836
L322.262 331.149
L326.208 331.149
L326.208 317.462
L332.678 317.462
L332.678 303.775
L337.138 303.775
L337.138 290.088
L342.312 290.088
L342.312 276.401
L343.949 276.401
L343.949 262.714
L344.911 262.714
L344.911 249.027
L361.157 249.027
L361.157 235.339
L400.678 235.339
L400.678 221.652
L404.209 221.652
L404.209 207.965
L407.677 207.965
L407.677 194.278
L419.844 194.278
L419.844 180.591
L434.767 180.591
L434.767 166.904
L441.752 166.904
L441.752 153.217
L465.348 153.217
L465.348 139.529
L465.348 139.529
L465.348 125.842
L465.348 125.842
L465.348 112.155
L465.348 112.155
L465.348 98.4681
L465.398 98.4681
L465.398 84.781
L477.151 84.781
L477.151 71.0938
L479.932 71.0938
L479.932 57.4067
L506.966 57.4067
L506.966 43.7196
L515.425 43.7196" style="fill:none;stroke:#f5deb3;stroke-linecap:square;"/>
   </g>
   <g id="line2d_6">
    <path clip-path="url(#p0ab5e1e507)" d="
M293.043 358.524
L293.043 353.961
L295.824 353.961
L295.824 349.399
L308.735 349.399
L308.735 344.836
L332.292 344.836
L332.292 340.274
L352.702 340.274
L352.702 335.712
L357.331 335.712
L357.331 331.149
L358.374 331.149
L358.374 326.587
L359.907 326.587
L359.907 322.025
L360.909 322.025
L360.909 317.462
L363.109 317.462
L363.109 312.9
L363.826 312.9
L363.826 308.337
L368.634 308.337
L368.634 303.775
L375.533 303.775
L375.533 299.213
L385.442 299.213
L385.442 294.65
L388.919 294.65
L388.919 290.088
L390.196 290.088
L390.196 285.526
L391.911 285.526
L391.911 280.963
L392.676 280.963
L392.676 276.401
L394.18 276.401
L394.18 271.838
L398.073 271.838
L398.073 267.276
L407.314 267.276
L407.314 262.714
L410.161 262.714
L410.161 258.151
L429.994 258.151
L429.994 253.589
L437.94 253.589
L437.94 249.027
L442.178 249.027
L442.178 244.464
L448.89 244.464
L448.89 239.902
L463.696 239.902
L463.696 235.339
L467.296 235.339
L467.296 230.777
L467.726 230.777
L467.726 226.215
L468.859 226.215
L468.859 221.652
L472.632 221.652
L472.632 217.09
L476.53 217.09
L476.53 212.527
L481.912 212.527
L481.912 207.965
L482.748 207.965
L482.748 203.403
L486.596 203.403
L486.596 198.84
L493.347 198.84
L493.347 194.278
L494.207 194.278
L494.207 189.716
L498.4 189.716
L498.4 185.153
L498.637 185.153
L498.637 180.591
L500.843 180.591
L500.843 176.028
L505.575 176.028
L505.575 171.466
L508.809 171.466
L508.809 166.904
L509.461 166.904
L509.461 162.341
L515.425 162.341
L515.425 162.341" style="fill:none;stroke:#f5deb3;stroke-linecap:square;"/>
   </g>
   <g id="line2d_7">
    <path clip-path="url(#p0ab5e1e507)" d="
M223.429 358.524
L223.429 353.961
L225.481 353.961
L225.481 349.399
L239.906 349.399
L239.906 344.836
L246.068 344.836
L246.068 340.274
L251.692 340.274
L251.692 335.712
L258.098 335.712
L258.098 331.149
L289.39 331.149
L289.39 326.587
L353.543 326.587
L353.543 322.025
L389.08 322.025
L389.08 317.462
L403.312 317.462
L403.312 308.337
L407.918 308.337
L407.918 303.775
L408.038 303.775
L408.038 299.213
L413.663 299.213
L413.663 294.65
L423.816 294.65
L423.816 290.088
L435.868 290.088
L435.868 285.526
L442.249 285.526
L442.249 280.963
L444.403 280.963
L444.403 276.401
L447.602 276.401
L447.602 271.838
L450.589 271.838
L450.589 267.276
L456.234 267.276
L456.234 262.714
L456.462 262.714
L456.462 258.151
L460.527 258.151
L460.527 253.589
L465.2 253.589
L465.2 249.027
L466.718 249.027
L466.718 244.464
L468.484 244.464
L468.484 239.902
L471.158 239.902
L471.158 235.339
L471.384 235.339
L471.384 230.777
L471.832 230.777
L471.832 226.215
L475.862 226.215
L475.862 221.652
L477.807 221.652
L477.807 217.09
L484.057 217.09
L484.057 212.527
L486.418 212.527
L486.418 207.965
L492.606 207.965
L492.606 203.403
L493.251 203.403
L493.251 198.84
L510.551 198.84
L510.551 194.278
L513.621 194.278
L513.621 189.716
L515.425 189.716
L515.425 189.716" style="fill:none;stroke:#f5deb3;stroke-linecap:square;"/>
   </g>
   <g id="line2d_8">
    <path clip-path="url(#p0ab5e1e507)" d="
M309.84 358.524
L309.84 353.961
L320.428 353.961
L320.428 349.399
L322.262 349.399
L322.262 344.836
L323.604 344.836
L323.604 340.274
L326.208 340.274
L326.208 335.712
L329.118 335.712
L329.118 331.149
L329.926 331.149
L329.926 326.587
L330.327 326.587
L330.327 322.025
L332.678 322.025
L332.678 317.462
L334.946 317.462
L334.946 308.337
L338.206 308.337
L338.206 303.775
L344.911 303.775
L344.911 299.213
L347.716 299.213
L347.716 294.65
L356.803 294.65
L356.803 290.088
L361.651 290.088
L361.651 285.526
L363.349 285.526
L363.349 280.963
L375.731 280.963
L375.731 276.401
L376.906 276.401
L376.906 271.838
L377.1 271.838
L377.1 267.276
L382.838 267.276
L382.838 262.714
L390.196 262.714
L390.196 258.151
L392.828 258.151
L392.828 253.589
L396.944 253.589
L396.944 249.027
L406.337 249.027
L406.337 244.464
L407.193 244.464
L407.193 239.902
L408.038 239.902
L408.038 235.339
L414.753 235.339
L414.753 230.777
L417.088 230.777
L417.088 226.215
L419.141 226.215
L419.141 221.652
L463.034 221.652
L463.034 217.09
L490.161 217.09
L490.161 212.527
L514.274 212.527
L514.274 207.965
L515.425 207.965
L515.425 207.965" style="fill:none;stroke:#f5deb3;stroke-linecap:square;"/>
   </g>
   <g id="line2d_9">
    <path clip-path="url(#p0ab5e1e507)" d="
M277.904 358.524
L277.904 353.961
L282.244 353.961
L282.244 349.399
L295.824 349.399
L295.824 344.836
L296.501 344.836
L296.501 340.274
L299.783 340.274
L299.783 335.712
L307.61 335.712
L307.61 331.149
L308.735 331.149
L308.735 326.587
L313.046 326.587
L313.046 322.025
L317.576 322.025
L317.576 317.462
L375.334 317.462
L375.334 312.9
L419.944 312.9
L419.944 308.337
L433.404 308.337
L433.404 303.775
L449.271 303.775
L449.271 299.213
L460.952 299.213
L460.952 294.65
L462.261 294.65
L462.261 290.088
L464.902 290.088
L464.902 285.526
L467.678 285.526
L467.678 280.963
L472.588 280.963
L472.588 276.401
L487.48 276.401
L487.48 271.838
L496.84 271.838
L496.84 267.276
L506.992 267.276
L506.992 262.714
L515.425 262.714
L515.425 262.714" style="fill:none;stroke:#f5deb3;stroke-linecap:square;"/>
   </g>
   <g id="line2d_10">
    <path clip-path="url(#p0ab5e1e507)" d="
M392.219 358.524
L392.219 353.961
L394.328 353.961
L394.328 349.399
L463.442 349.399
L463.442 344.836
L471.294 344.836
L471.294 340.274
L474.203 340.274
L474.203 335.712
L487.725 335.712
L487.725 331.149
L488.213 331.149
L488.213 326.587
L492.929 326.587
L492.929 322.025
L507.868 322.025
L507.868 317.462
L512.843 317.462
L512.843 312.9
L515.425 312.9
L515.425 312.9" style="fill:none;stroke:#f5deb3;stroke-linecap:square;"/>
   </g>
   <g id="line2d_11">
    <path clip-path="url(#p0ab5e1e507)" d="
M209.523 358.524
L209.523 353.961
L253.025 353.961
L253.025 349.399
L283.902 349.399
L283.902 344.836
L320.428 344.836
L320.428 340.274
L328.3 340.274
L328.3 335.712
L330.724 335.712
L330.724 331.149
L350.986 331.149
L350.986 326.587
L352.702 326.587
L352.702 322.025
L362.141 322.025
L362.141 317.462
L370.375 317.462
L370.375 312.9
L374.13 312.9
L374.13 308.337
L379.94 308.337
L379.94 303.775
L401.48 303.775
L401.48 299.213
L406.09 299.213
L406.09 294.65
L408.99 294.65
L408.99 290.088
L412.442 290.088
L412.442 285.526
L423.534 285.526
L423.534 280.963
L428.439 280.963
L428.439 276.401
L431.011 276.401
L431.011 271.838
L439.063 271.838
L439.063 267.276
L447.407 267.276
L447.407 262.714
L447.797 262.714
L447.797 258.151
L451.941 258.151
L451.941 253.589
L456.857 253.589
L456.857 249.027
L459.182 249.027
L459.182 244.464
L459.507 244.464
L459.507 235.339
L462.674 235.339
L462.674 230.777
L472.411 230.777
L472.411 226.215
L472.941 226.215
L472.941 221.652
L477.521 221.652
L477.521 217.09
L478.253 217.09
L478.253 212.527
L482.711 212.527
L482.711 207.965
L484.278 207.965
L484.278 203.403
L485.157 203.403
L485.157 198.84
L486.24 198.84
L486.24 194.278
L487.093 194.278
L487.093 189.716
L493.539 189.716
L493.539 185.153
L496.901 185.153
L496.901 180.591
L498.163 180.591
L498.163 176.028
L499.575 176.028
L499.575 166.904
L502.143 166.904
L502.143 162.341
L511.647 162.341
L511.647 157.779
L515.425 157.779
L515.425 157.779" style="fill:none;stroke:#f5deb3;stroke-linecap:square;"/>
   </g>
   <g id="line2d_12">
    <path clip-path="url(#p0ab5e1e507)" d="
M267.186 358.524
L267.186 353.961
L290.137 353.961
L290.137 349.399
L309.29 349.399
L309.29 344.836
L333.061 344.836
L333.061 340.274
L341.31 340.274
L341.31 335.712
L343.299 335.712
L343.299 331.149
L345.86 331.149
L345.86 326.587
L361.157 326.587
L361.157 322.025
L366.16 322.025
L366.16 317.462
L386.287 317.462
L386.287 312.9
L389.72 312.9
L389.72 308.337
L394.919 308.337
L394.919 303.775
L396.658 303.775
L396.658 299.213
L410.277 299.213
L410.277 294.65
L429.566 294.65
L429.566 290.088
L438.316 290.088
L438.316 285.526
L445.352 285.526
L445.352 280.963
L458.085 280.963
L458.085 276.401
L460.153 276.401
L460.153 271.838
L462.105 271.838
L462.105 267.276
L466.911 267.276
L466.911 262.714
L468.578 262.714
L468.578 258.151
L471.339 258.151
L471.339 253.589
L472.234 253.589
L472.234 249.027
L475.101 249.027
L475.101 244.464
L477.602 244.464
L477.602 239.902
L477.929 239.902
L477.929 235.339
L479.576 235.339
L479.576 230.777
L480.91 230.777
L480.949 221.652
L481.259 221.652
L481.259 217.09
L482.103 217.09
L482.103 212.527
L484.057 212.527
L484.057 207.965
L486.061 207.965
L486.096 198.84
L489.756 198.84
L489.756 194.278
L493.539 194.278
L493.539 189.716
L493.826 189.716
L493.826 185.153
L498.46 185.153
L498.46 180.591
L499.75 180.591
L499.75 176.028
L500.356 176.028
L500.356 171.466
L501.947 171.466
L501.947 166.904
L502.894 166.904
L502.894 162.341
L508.277 162.341
L508.277 157.779
L515.425 157.779
L515.425 157.779" style="fill:none;stroke:#f5deb3;stroke-linecap:square;"/>
   </g>
   <g id="line2d_13">
    <path clip-path="url(#p0ab5e1e507)" d="
M312.523 358.524
L312.523 353.961
L368.634 353.961
L368.634 349.399
L383.015 349.399
L383.015 344.836
L383.367 344.836
L383.367 340.274
L408.754 340.274
L408.754 335.712
L413.221 335.712
L413.221 331.149
L414.101 331.149
L414.101 326.587
L426.755 326.587
L426.755 322.025
L430.08 322.025
L430.08 317.462
L439.211 317.462
L439.211 312.9
L449.461 312.9
L449.461 308.337
L451.391 308.337
L451.391 303.775
L452.606 303.775
L452.606 299.213
L457.975 299.213
L457.975 294.65
L475.652 294.65
L475.652 290.088
L476.53 290.088
L476.53 285.526
L482.748 285.526
L482.748 280.963
L492.313 280.963
L492.313 276.401
L498.4 276.401
L498.4 271.838
L515.425 271.838
L515.425 271.838" style="fill:none;stroke:#f5deb3;stroke-linecap:square;"/>
   </g>
   <g id="line2d_14">
    <path clip-path="url(#p0ab5e1e507)" d="
M319.961 358.524
L319.961 353.961
L341.31 353.961
L341.31 349.399
L366.389 349.399
L366.389 344.836
L393.131 344.836
L393.131 340.274
L403.441 340.274
L403.441 335.712
L403.826 335.712
L403.826 331.149
L404.336 331.149
L404.336 326.587
L404.589 326.587
L404.589 317.462
L404.716 317.462
L404.716 312.9
L405.966 312.9
L405.966 308.337
L407.071 308.337
L407.071 303.775
L407.314 303.775
L407.314 299.213
L407.556 299.213
L407.556 294.65
L407.677 294.65
L407.677 290.088
L408.872 290.088
L408.872 285.526
L408.99 285.526
L408.99 280.963
L409.929 280.963
L409.929 276.401
L410.277 276.401
L410.277 271.838
L411.653 271.838
L411.653 267.276
L413.663 267.276
L413.663 262.714
L414.969 262.714
L414.969 258.151
L415.184 258.151
L415.184 253.589
L416.249 253.589
L416.249 249.027
L416.565 249.027
L416.565 244.464
L416.88 244.464
L416.88 239.902
L421.13 239.902
L421.13 235.339
L422.487 235.339
L422.487 230.777
L425.577 230.777
L425.577 226.215
L426.485 226.215
L426.485 221.652
L427.558 221.652
L427.558 217.09
L428.701 217.09
L428.701 212.527
L429.48 212.527
L429.48 207.965
L429.994 207.965
L429.994 203.403
L432.012 203.403
L432.012 198.84
L434.369 198.84
L434.369 194.278
L436.874 194.278
L436.874 189.716
L437.409 189.716
L437.409 185.153
L438.241 185.153
L438.241 180.591
L441.823 180.591
L441.823 176.028
L442.811 176.028
L442.811 171.466
L443.021 171.466
L443.021 166.904
L445.621 166.904
L445.621 162.341
L446.553 162.341
L446.553 157.779
L450.589 157.779
L450.589 153.217
L473.378 153.217
L473.378 148.654
L474.375 148.654
L474.375 144.092
L475.356 144.092
L475.356 139.529
L475.609 139.529
L475.694 130.405
L478.213 130.405
L478.213 125.842
L478.818 125.842
L478.818 121.28
L478.978 121.28
L479.058 112.155
L480.05 112.155
L480.05 107.593
L481.49 107.593
L481.49 103.03
L482.332 103.03
L482.332 98.4681
L488.039 98.4681
L488.039 93.9057
L488.282 93.9057
L488.282 89.3433
L495.738 89.3433
L495.738 84.781
L502.728 84.781
L502.728 80.2186
L504.774 80.2186
L504.774 75.6562
L505.813 75.6562
L505.813 71.0938
L510.108 71.0938
L510.108 66.5315
L514.528 66.5315
L514.528 61.9691
L515.425 61.9691
L515.425 61.9691" style="fill:none;stroke:#f5deb3;stroke-linecap:square;"/>
   </g>
   <g id="line2d_15">
    <path clip-path="url(#p0ab5e1e507)" d="
M391.911 358.524
L391.911 353.961
L397.652 353.961
L397.652 349.399
L415.612 349.399
L415.612 344.836
L415.612 344.836
L415.612 340.274
L415.931 340.274
L415.931 335.712
L415.931 335.712
L415.931 331.149
L415.931 331.149
L415.931 326.587
L424.934 326.587
L424.934 322.025
L434.289 322.025
L434.289 317.462
L434.529 317.462
L434.529 312.9
L439.947 312.9
L439.947 308.337
L443.508 308.337
L443.508 303.775
L443.508 303.775
L443.508 299.213
L453.384 299.213
L453.384 294.65
L453.503 294.65
L453.503 290.088
L457.864 290.088
L457.864 285.526
L460.687 285.526
L460.687 280.963
L464.802 280.963
L464.802 276.401
L466.378 276.401
L466.378 271.838
L468.106 271.838
L468.106 267.276
L468.106 267.276
L468.106 262.714
L471.653 262.714
L471.653 258.151
L472.1 258.151
L472.1 253.589
L473.857 253.589
L473.857 249.027
L474.203 249.027
L474.203 244.464
L474.203 244.464
L474.203 239.902
L480.56 239.902
L480.56 235.339
L480.56 235.339
L480.56 230.777
L481.798 230.777
L481.798 226.215
L482.103 226.215
L482.103 221.652
L488.039 221.652
L488.039 217.09
L500.184 217.09
L500.184 212.527
L500.184 212.527
L500.184 207.965
L501.722 207.965
L501.722 203.403
L503.664 203.403
L503.664 198.84
L503.664 198.84
L503.664 194.278
L503.664 194.278
L503.664 189.716
L503.855 189.716
L503.855 185.153
L508.098 185.153
L508.098 180.591
L510.894 180.591
L510.894 176.028
L515.425 176.028" style="fill:none;stroke:#f5deb3;stroke-linecap:square;"/>
   </g>
   <g id="line2d_16">
    <path clip-path="url(#p0ab5e1e507)" d="
M236.59 358.524
L236.59 353.961
L248.941 353.961
L248.941 349.399
L250.331 349.399
L250.331 344.836
L251.692 344.836
L251.692 340.274
L255.612 340.274
L255.612 331.149
L258.098 331.149
L258.098 326.587
L262.802 326.587
L262.802 322.025
L279.675 322.025
L279.675 317.462
L283.078 317.462
L283.078 312.9
L284.715 312.9
L284.715 308.337
L288.634 308.337
L288.634 303.775
L291.607 303.775
L291.607 299.213
L295.824 299.213
L295.824 294.65
L299.783 294.65
L299.783 290.088
L302.907 290.088
L302.907 285.526
L314.591 285.526
L314.591 280.963
L318.54 280.963
L318.54 276.401
L322.713 276.401
L322.713 271.838
L332.292 271.838
L332.292 267.276
L376.125 267.276
L376.125 262.714
L378.251 262.714
L378.251 258.151
L379.195 258.151
L379.195 253.589
L381.405 253.589
L381.405 249.027
L388.596 249.027
L388.596 244.464
L394.624 244.464
L394.624 239.902
L395.504 239.902
L395.504 235.339
L395.939 235.339
L395.939 230.777
L397.228 230.777
L397.228 226.215
L419.744 226.215
L419.744 221.652
L419.944 221.652
L419.944 217.09
L421.909 217.09
L421.909 212.527
L423.816 212.527
L423.816 207.965
L425.668 207.965
L425.668 203.403
L430.165 203.403
L430.165 198.84
L431.179 198.84
L431.179 194.278
L450.651 194.278
L450.651 189.716
L452.123 189.716
L452.123 185.153
L456.462 185.153
L456.462 180.591
L458.526 180.591
L458.526 176.028
L465.447 176.028
L465.447 171.466
L466.814 171.466
L466.814 166.904
L468.578 166.904
L468.578 162.341
L471.788 162.341
L471.788 157.779
L473.509 157.779
L473.509 153.217
L474.931 153.217
L474.931 148.654
L479.615 148.654
L479.615 144.092
L485.339 144.092
L485.339 139.529
L505.069 139.529
L505.123 130.405
L507.406 130.405
L507.406 125.842
L507.945 125.842
L507.945 121.28
L508.175 121.28
L508.175 116.718
L515.425 116.718
L515.425 116.718" style="fill:none;stroke:#f5deb3;stroke-linecap:square;"/>
   </g>
   <g id="line2d_17">
    <path clip-path="url(#p0ab5e1e507)" d="
M409.344 358.524
L409.344 356.854
L409.344 356.854
L409.344 356.854
L409.344 355.185
L409.344 355.185
L409.344 355.185
L409.344 353.516
L415.184 353.516
L415.184 348.509
L449.902 348.509
L449.902 343.501
L454.679 343.501
L454.679 338.494
L460.314 338.494
L460.314 333.486
L466.572 333.486
L466.572 328.479
L476.197 328.479
L476.197 323.471
L483.05 323.471
L483.05 320.133
L484.131 320.133
L484.131 315.125
L484.573 315.125
L484.573 310.118
L484.975 310.118
L484.975 306.78
L485.629 306.78
L485.629 301.772
L485.809 301.772
L485.809 296.765
L492.929 296.765
L492.929 291.757
L495.335 291.757
L495.335 286.75
L497.204 286.75
L497.204 283.411
L498.696 283.411
L498.696 278.404
L501.581 278.404
L501.581 273.396
L502.811 273.396
L502.811 268.389
L504.289 268.389
L504.289 263.381
L504.855 263.381
L504.855 258.374
L506.051 258.374
L506.051 253.366
L507.277 253.366
L507.277 248.359
L511.187 248.359
L511.187 243.351
L511.357 243.351
L511.357 238.344
L511.768 238.344
L511.768 233.336
L512.677 233.336
L512.677 228.329
L513.948 228.329
L513.948 223.321
L514.412 223.321
L514.412 219.983
L515.425 219.983
L515.425 219.983" style="fill:none;stroke:#f5deb3;stroke-linecap:square;"/>
   </g>
   <g id="line2d_18">
    <path clip-path="url(#p0ab5e1e507)" d="
M227.47 358.524
L227.47 353.961
L254.331 353.961
L254.331 349.399
L256.867 349.399
L256.867 344.836
L265.031 344.836
L265.031 340.274
L267.186 340.274
L267.186 335.712
L270.29 335.712
L270.29 331.149
L272.279 331.149
L272.279 326.587
L283.902 326.587
L283.902 322.025
L287.869 322.025
L287.869 317.462
L293.043 317.462
L293.043 312.9
L293.75 312.9
L293.75 308.337
L297.171 308.337
L297.171 303.775
L297.834 303.775
L297.834 299.213
L302.907 299.213
L302.907 294.65
L304.115 294.65
L304.115 290.088
L305.886 290.088
L305.886 285.526
L311.463 285.526
L311.463 280.963
L311.995 280.963
L311.995 271.838
L313.046 271.838
L313.046 267.276
L322.262 267.276
L322.262 262.714
L324.045 262.714
L324.045 258.151
L325.351 258.151
L325.351 253.589
L344.911 253.589
L344.911 249.027
L347.103 249.027
L347.103 244.464
L365.7 244.464
L365.7 239.902
L378.63 239.902
L378.63 235.339
L394.18 235.339
L394.18 230.777
L400.409 230.777
L400.409 226.215
L401.214 226.215
L401.214 221.652
L405.469 221.652
L405.469 217.09
L413.111 217.09
L413.111 212.527
L416.984 212.527
L416.984 207.965
L421.618 207.965
L421.618 203.403
L421.909 203.403
L421.909 198.84
L435.32 198.84
L435.32 194.278
L435.634 194.278
L435.634 189.716
L436.024 189.716
L436.024 185.153
L438.765 185.153
L438.765 180.591
L443.021 180.591
L443.021 176.028
L447.732 176.028
L447.732 171.466
L451.391 171.466
L451.391 166.904
L454.738 166.904
L454.738 162.341
L456.744 162.341
L456.744 157.779
L457.697 157.779
L457.697 153.217
L462.571 153.217
L462.623 144.092
L462.829 144.092
L462.829 139.529
L470.523 139.529
L470.523 134.967
L472.5 134.967
L472.5 130.405
L473.072 130.405
L473.072 125.842
L483.686 125.842
L483.686 121.28
L483.834 121.28
L483.834 116.718
L485.085 116.718
L485.085 112.155
L486.668 112.155
L486.668 107.593
L486.845 107.593
L486.845 103.03
L494.301 103.03
L494.301 98.4681
L498.667 98.4681
L498.696 89.3433
L500.901 89.3433
L500.901 84.781
L503.827 84.781
L503.827 80.2186
L509.336 80.2186
L509.336 75.6562
L515.425 75.6562
L515.425 75.6562" style="fill:none;stroke:#f5deb3;stroke-linecap:square;"/>
   </g>
   <g id="line2d_19">
    <path clip-path="url(#p0ab5e1e507)" d="
M436.72 358.524
L436.72 353.961
L439.727 353.961
L439.727 349.399
L462.001 349.399
L462.001 344.836
L467.63 344.836
L467.63 340.274
L475.398 340.274
L475.398 335.712
L486.88 335.712
L486.88 331.149
L501.975 331.149
L501.975 326.587
L515.425 326.587
L515.425 326.587" style="fill:none;stroke:#f5deb3;stroke-linecap:square;"/>
   </g>
   <g id="line2d_20">
    <path clip-path="url(#p0ab5e1e507)" d="
M314.591 358.524
L314.591 353.961
L333.061 353.961
L333.061 349.399
L380.494 349.399
L380.494 344.836
L382.304 344.836
L382.304 340.274
L386.118 340.274
L386.118 335.712
L389.24 335.712
L389.24 331.149
L389.879 331.149
L389.879 326.587
L392.219 326.587
L392.219 322.025
L394.18 322.025
L394.18 317.462
L396.515 317.462
L396.515 312.9
L400.003 312.9
L400.003 308.337
L402.271 308.337
L402.271 303.775
L402.663 303.775
L402.663 299.213
L408.158 299.213
L408.158 294.65
L408.397 294.65
L408.397 290.088
L416.984 290.088
L416.984 285.526
L417.297 285.526
L417.297 280.963
L431.929 280.963
L431.929 276.401
L441.18 276.401
L441.18 271.838
L446.421 271.838
L446.421 267.276
L447.014 267.276
L447.014 262.714
L448.698 262.714
L448.698 258.151
L453.681 258.151
L453.681 253.589
L462.313 253.589
L462.313 249.027
L466.863 249.027
L466.863 244.464
L469.511 244.464
L469.511 239.902
L473.683 239.902
L473.683 235.339
L476.447 235.339
L476.447 230.777
L478.213 230.777
L478.213 226.215
L480.403 226.215
L480.403 221.652
L482.559 221.652
L482.559 217.09
L484.094 217.09
L484.094 212.527
L485.701 212.527
L485.701 207.965
L488.731 207.965
L488.731 203.403
L490.497 203.403
L490.497 198.84
L497.805 198.84
L497.805 194.278
L500.443 194.278
L500.443 189.716
L502.783 189.716
L502.783 185.153
L505.229 185.153
L505.229 180.591
L507.199 180.591
L507.199 176.028
L507.663 176.028
L507.663 171.466
L515.425 171.466
L515.425 171.466" style="fill:none;stroke:#f5deb3;stroke-linecap:square;"/>
   </g>
   <g id="line2d_21">
    <path clip-path="url(#p0ab5e1e507)" d="
M267.186 358.524
L267.186 353.961
L287.869 353.961
L287.869 349.399
L290.137 349.399
L290.137 344.836
L305.886 344.836
L305.886 340.274
L325.351 340.274
L325.351 335.712
L328.3 335.712
L328.3 331.149
L335.317 331.149
L335.317 326.587
L340.972 326.587
L340.972 322.025
L355.194 322.025
L355.194 317.462
L378.63 317.462
L378.63 312.9
L394.031 312.9
L394.031 308.337
L409.226 308.337
L409.226 303.775
L416.984 303.775
L416.984 299.213
L430.927 299.213
L430.927 294.65
L431.763 294.65
L431.763 290.088
L459.993 290.088
L459.993 285.526
L462.726 285.526
L462.777 276.401
L469.233 276.401
L469.233 271.838
L482.937 271.838
L482.937 267.276
L491.987 267.276
L491.987 262.714
L494.522 262.714
L494.522 258.151
L500.901 258.151
L500.901 253.589
L503.909 253.589
L503.909 249.027
L507.714 249.027
L507.714 244.464
L508.124 244.464
L508.124 239.902
L514.157 239.902
L514.157 235.339
L515.425 235.339
L515.425 235.339" style="fill:none;stroke:#f5deb3;stroke-linecap:square;"/>
   </g>
   <g id="line2d_22">
    <path clip-path="url(#p0ab5e1e507)" d="
M352.419 358.524
L352.419 353.961
L422.774 353.961
L422.774 349.399
L432.095 349.399
L432.095 344.836
L448.12 344.836
L448.12 340.274
L477.643 340.274
L477.643 335.712
L484.756 335.712
L484.756 331.149
L490.43 331.149
L490.43 326.587
L513.878 326.587
L513.878 322.025
L515.425 322.025
L515.425 322.025" style="fill:none;stroke:#f5deb3;stroke-linecap:square;"/>
   </g>
   <g id="line2d_23">
    <path clip-path="url(#p0ab5e1e507)" d="
M405.718 358.524
L405.718 353.961
L426.845 353.961
L426.845 349.399
L453.265 349.399
L453.265 344.836
L461.531 344.836
L461.531 340.274
L472.941 340.274
L472.941 335.712
L499.225 335.712
L499.225 331.149
L500.643 331.149
L500.643 326.587
L501.835 326.587
L501.835 322.025
L502.534 322.025
L502.534 317.462
L506.497 317.462
L506.497 312.9
L509.386 312.9
L509.386 308.337
L515.425 308.337
L515.425 308.337" style="fill:none;stroke:#f5deb3;stroke-linecap:square;"/>
   </g>
   <g id="line2d_24">
    <path clip-path="url(#p0ab5e1e507)" d="
M308.735 358.524
L308.735 353.961
L380.677 353.961
L380.677 349.399
L383.543 349.399
L383.543 344.836
L406.09 344.836
L406.09 340.274
L436.489 340.274
L436.489 335.712
L441.894 335.712
L441.894 331.149
L443.369 331.149
L443.369 326.587
L444.539 326.587
L444.539 322.025
L485.845 322.025
L485.845 317.462
L494.992 317.462
L494.992 312.9
L514.92 312.9
L514.92 308.337
L515.425 308.337" style="fill:none;stroke:#f5deb3;stroke-linecap:square;"/>
   </g>
   <g id="line2d_25">
    <path clip-path="url(#p0ab5e1e507)" d="
M236.59 358.524
L236.59 353.961
L236.59 353.961
L236.59 353.961
L236.59 349.399
L236.59 349.399
L236.59 349.399
L236.59 344.836
L351.275 344.836
L351.275 340.274
L354.098 340.274
L354.098 335.712
L357.068 335.712
L357.068 331.149
L374.735 331.149
L374.735 326.587
L376.321 326.587
L376.321 322.025
L376.906 322.025
L376.906 317.462
L379.007 317.462
L379.007 312.9
L380.31 312.9
L380.31 308.337
L380.494 308.337
L380.494 303.775
L381.042 303.775
L381.042 294.65
L390.668 294.65
L390.668 290.088
L392.065 290.088
L392.065 285.526
L392.524 285.526
L392.524 280.963
L400.544 280.963
L400.544 276.401
L412.217 276.401
L412.217 271.838
L415.076 271.838
L415.076 267.276
L416.037 267.276
L416.037 262.714
L422.006 262.714
L422.006 258.151
L436.101 258.151
L436.101 253.589
L460.899 253.589
L460.899 249.027
L466.378 249.027
L466.378 244.464
L475.144 244.464
L475.144 239.902
L477.357 239.902
L477.357 235.339
L479.774 235.339
L479.774 230.777
L482.937 230.777
L482.937 226.215
L483.238 226.215
L483.238 221.652
L492.052 221.652
L492.052 217.09
L502.283 217.09
L502.283 212.527
L502.617 212.527
L502.617 207.965
L503.609 207.965
L503.609 203.403
L505.655 203.403
L505.655 198.84
L507.432 198.84
L507.483 189.716
L514.134 189.716
L514.134 185.153
L515.425 185.153
L515.425 185.153" style="fill:none;stroke:#f5deb3;stroke-linecap:square;"/>
   </g>
   <g id="line2d_26">
    <path clip-path="url(#p0ab5e1e507)" d="
M329.524 358.524
L329.524 353.961
L343.949 353.961
L343.949 349.399
L377.486 349.399
L377.486 344.836
L381.224 344.836
L381.224 340.274
L386.788 340.274
L386.788 335.712
L405.594 335.712
L405.594 331.149
L408.158 331.149
L408.158 326.587
L409.108 326.587
L409.108 322.025
L425.668 322.025
L425.668 317.462
L426.934 317.462
L426.934 312.9
L435.712 312.9
L435.712 308.337
L442.601 308.337
L442.601 303.775
L446.751 303.775
L446.751 299.213
L452.244 299.213
L452.244 294.65
L462.777 294.65
L462.777 290.088
L463.034 290.088
L463.034 285.526
L465.299 285.526
L465.299 280.963
L466.329 280.963
L466.329 276.401
L477.521 276.401
L477.521 271.838
L481.989 271.838
L481.989 267.276
L482.256 267.276
L482.256 262.714
L484.975 262.714
L484.975 258.151
L487.198 258.151
L487.198 253.589
L489.857 253.589
L489.857 249.027
L491.987 249.027
L491.987 244.464
L493.09 244.464
L493.09 239.902
L494.679 239.902
L494.679 235.339
L495.707 235.339
L495.707 230.777
L498.578 230.777
L498.578 226.215
L506.314 226.215
L506.314 221.652
L511.089 221.652
L511.089 217.09
L511.72 217.09
L511.72 212.527
L515.425 212.527" style="fill:none;stroke:#f5deb3;stroke-linecap:square;"/>
   </g>
   <g id="line2d_27">
    <path clip-path="url(#p0ab5e1e507)" d="
M306.466 358.524
L306.466 353.961
L337.496 353.961
L337.496 349.399
L341.98 349.399
L341.98 344.836
L346.173 344.836
L346.173 340.274
L352.702 340.274
L352.702 335.712
L353.821 335.712
L353.821 331.149
L360.159 331.149
L360.159 326.587
L360.41 326.587
L360.41 322.025
L365.469 322.025
L365.469 317.462
L366.844 317.462
L366.844 312.9
L368.634 312.9
L368.634 308.337
L370.16 308.337
L370.16 303.775
L370.59 303.775
L370.59 299.213
L375.135 299.213
L375.135 294.65
L384.929 294.65
L384.929 290.088
L385.611 290.088
L385.611 285.526
L388.919 285.526
L388.919 280.963
L389.72 280.963
L389.72 276.401
L396.515 276.401
L396.515 271.838
L397.652 271.838
L397.652 267.276
L399.594 267.276
L399.594 262.714
L404.842 262.714
L404.842 258.151
L416.249 258.151
L416.249 253.589
L423.534 253.589
L423.628 244.464
L433.485 244.464
L433.485 239.902
L438.691 239.902
L438.691 235.339
L440.094 235.339
L440.094 230.777
L442.036 230.777
L442.036 226.215
L448.12 226.215
L448.12 221.652
L454.211 221.652
L454.27 212.527
L458.91 212.527
L458.91 203.403
L459.182 203.403
L459.182 198.84
L459.885 198.84
L459.885 194.278
L460.846 194.278
L460.846 189.716
L467.63 189.716
L467.63 185.153
L469.186 185.153
L469.186 180.591
L477.439 180.591
L477.48 171.466
L488.972 171.466
L488.972 166.904
L491.823 166.904
L491.823 162.341
L498.222 162.341
L498.222 157.779
L508.96 157.779
L508.96 153.217
L515.425 153.217
L515.425 153.217" style="fill:none;stroke:#f5deb3;stroke-linecap:square;"/>
   </g>
   <g id="line2d_28">
    <path clip-path="url(#p0ab5e1e507)" d="
M326.632 358.524
L326.632 353.961
L330.327 353.961
L330.327 349.399
L354.374 349.399
L354.374 344.836
L368.634 344.836
L368.634 340.274
L406.213 340.274
L406.213 335.712
L420.737 335.712
L420.737 331.149
L425.026 331.149
L425.026 326.587
L426.845 326.587
L426.845 322.025
L442.39 322.025
L442.39 317.462
L446.553 317.462
L446.553 312.9
L447.667 312.9
L447.667 308.337
L454.094 308.337
L454.094 303.775
L480.871 303.775
L480.871 299.213
L482.027 299.213
L482.027 294.65
L484.902 294.65
L484.975 285.526
L486.561 285.526
L486.561 280.963
L497.264 280.963
L497.264 276.401
L501.863 276.401
L501.863 271.838
L503.445 271.838
L503.445 267.276
L513.056 267.276
L513.056 262.714
L513.691 262.714
L513.691 258.151
L515.425 258.151
L515.425 258.151" style="fill:none;stroke:#f5deb3;stroke-linecap:square;"/>
   </g>
   <g id="line2d_29">
    <path clip-path="url(#p0ab5e1e507)" d="
M263.926 358.524
L263.926 353.961
L263.926 353.961
L263.926 353.961
L263.926 349.399
L263.926 349.399
L263.926 349.399
L263.926 344.836
L291.607 344.836
L291.607 331.149
L293.043 331.149
L293.043 317.462
L295.14 317.462
L295.14 303.775
L304.115 303.775
L304.115 290.088
L305.886 290.088
L305.886 276.401
L363.109 276.401
L363.109 262.714
L367.969 262.714
L367.969 249.027
L376.906 249.027
L376.906 235.339
L377.1 235.339
L377.1 221.652
L378.441 221.652
L378.441 207.965
L389.401 207.965
L389.401 194.278
L397.652 194.278
L397.652 180.591
L442.39 180.591
L442.39 166.904
L448.954 166.904
L448.954 153.217
L454.854 153.217
L454.854 139.529
L455.375 139.529
L455.375 125.842
L474.375 125.842
L474.375 112.155
L486.418 112.155
L486.418 98.4681
L514.62 98.4681
L514.62 84.781
L515.425 84.781
L515.425 84.781" style="fill:none;stroke:#f5deb3;stroke-linecap:square;"/>
   </g>
   <g id="line2d_30">
    <path clip-path="url(#p0ab5e1e507)" d="
M1.43787 358.524
L1.43787 353.961
L1.43787 353.961
L1.43787 353.961
L1.43787 349.399
L1.43787 349.399
L1.43787 349.399
L1.43787 344.836
L1.43787 344.836
L1.43787 344.836
L1.43787 340.274
L1.43787 340.274
L1.43787 340.274
L1.43787 335.712
L1.43787 335.712
L1.43787 335.712
L1.43787 331.149
L1.43787 331.149
L1.43787 331.149
L1.43787 326.587
L1.43787 326.587
L1.43787 326.587
L1.43787 322.025
L1.43787 322.025
L1.43787 322.025
L1.43787 317.462
L1.43787 317.462
L1.43787 317.462
L1.43787 312.9
L46.2465 312.9
L46.2465 276.401
L72.4579 276.401
L72.4579 262.714
L91.0552 262.714
L91.0552 230.777
L105.48 230.777
L105.48 221.652
L117.267 221.652
L117.267 198.84
L127.232 198.84
L127.232 189.716
L135.864 189.716
L135.864 180.591
L143.478 180.591
L143.478 157.779
L150.289 157.779
L150.289 148.654
L156.45 148.654
L156.45 144.092
L167.25 144.092
L167.25 130.405
L172.04 130.405
L172.04 125.842
L176.5 125.842
L176.5 107.593
L184.592 107.593
L184.592 103.03
L188.287 103.03
L188.287 98.4681
L191.782 98.4681
L191.782 89.3433
L198.252 89.3433
L198.252 84.781
L204.133 84.781
L204.133 75.6562
L206.884 75.6562
L206.884 71.0938
L214.498 71.0938
L214.498 61.9691
L221.309 61.9691
L221.309 57.4067
L225.481 57.4067
L225.481 48.2819
L229.4 48.2819
L229.4 43.7196
L234.866 43.7196
L234.866 39.1572
L239.906 39.1572
L239.906 34.5948
L247.52 34.5948
L247.52 30.0324
L250.331 30.0324
L250.331 25.4701
L254.331 25.4701
L254.331 20.9077
L255.612 20.9077
L255.612 16.3453
L255.612 16.3453
L507.225 16.3453
L507.225 16.3453" style="fill:none;stroke:#000000;stroke-linecap:square;"/>
   </g>
   <g id="line2d_31"/>
   <g id="line2d_32">
    <path clip-path="url(#p0ab5e1e507)" d="
M1.43787 358.524
L1.43787 353.961
L1.43787 353.961
L1.43787 353.961
L1.43787 349.399
L46.2465 349.399
L46.2465 340.274
L72.4579 340.274
L72.4579 335.712
L91.0552 335.712
L91.0552 326.587
L105.48 326.587
L105.48 322.025
L117.267 322.025
L117.267 317.462
L127.232 317.462
L127.232 312.9
L135.864 312.9
L135.864 303.775
L143.478 303.775
L143.478 294.65
L150.289 294.65
L150.289 290.088
L156.45 290.088
L156.45 276.401
L172.04 276.401
L172.04 258.151
L191.782 258.151
L191.782 235.339
L195.098 235.339
L195.098 221.652
L198.252 221.652
L198.252 212.527
L206.884 212.527
L206.884 207.965
L209.523 207.965
L209.523 198.84
L214.498 198.84
L214.498 194.278
L216.849 194.278
L216.849 185.153
L221.309 185.153
L221.309 180.591
L223.429 180.591
L223.429 171.466
L225.481 171.466
L225.481 166.904
L229.4 166.904
L229.4 162.341
L233.095 162.341
L233.095 157.779
L234.866 157.779
L234.866 153.217
L236.59 153.217
L236.59 144.092
L239.906 144.092
L239.906 134.967
L241.503 134.967
L241.503 125.842
L244.581 125.842
L244.581 121.28
L250.331 121.28
L250.331 116.718
L253.025 116.718
L253.025 107.593
L254.331 107.593
L254.331 103.03
L255.612 103.03
L255.612 98.4681
L269.272 98.4681
L269.272 93.9057
L277.904 93.9057
L277.904 89.3433
L278.796 89.3433
L278.796 84.781
L279.675 84.781
L279.675 80.2186
L283.078 80.2186
L283.078 75.6562
L283.902 75.6562
L283.902 71.0938
L286.311 71.0938
L286.311 66.5315
L293.75 66.5315
L293.75 57.4067
L295.14 57.4067
L295.14 52.8443
L298.49 52.8443
L298.49 48.2819
L300.42 48.2819
L300.42 43.7196
L302.294 43.7196
L302.294 39.1572
L307.041 39.1572
L307.041 34.5948
L321.352 34.5948
L321.352 30.0324
L347.716 30.0324
L347.716 25.4701
L352.702 25.4701
L352.702 20.9077
L375.731 20.9077
L375.731 16.3453
L375.731 16.3453
L507.225 16.3453
L507.225 16.3453" style="fill:none;stroke:#00bfbf;stroke-linecap:square;"/>
   </g>
   <g id="line2d_33"/>
   <g id="line2d_34">
    <path clip-path="url(#p0ab5e1e507)" d="
M162.075 358.524
L162.075 353.961
L225.481 353.961
L225.481 349.399
L234.866 349.399
L234.866 344.836
L241.503 344.836
L241.503 340.274
L244.581 340.274
L244.581 335.712
L255.612 335.712
L255.612 331.149
L258.098 331.149
L258.098 326.587
L259.307 326.587
L259.307 322.025
L261.658 322.025
L261.658 317.462
L263.926 317.462
L263.926 312.9
L270.29 312.9
L270.29 308.337
L273.251 308.337
L273.251 303.775
L275.153 303.775
L275.153 299.213
L279.675 299.213
L279.675 294.65
L280.543 294.65
L280.543 290.088
L286.311 290.088
L286.311 285.526
L291.607 285.526
L291.607 280.963
L293.75 280.963
L293.75 276.401
L293.75 276.401
L293.75 271.838
L300.42 271.838
L300.42 267.276
L302.294 267.276
L302.294 262.714
L304.115 262.714
L304.115 258.151
L304.711 258.151
L304.711 253.589
L307.041 253.589
L307.041 249.027
L309.84 249.027
L309.84 244.464
L310.926 244.464
L310.926 239.902
L313.046 239.902
L313.046 235.339
L314.591 235.339
L314.591 230.777
L321.352 230.777
L321.352 226.215
L327.053 226.215
L327.053 221.652
L330.724 221.652
L330.724 217.09
L333.443 217.09
L333.443 212.527
L336.778 212.527
L336.778 207.965
L339.257 207.965
L339.257 203.403
L343.299 203.403
L343.299 198.84
L343.949 198.84
L343.949 194.278
L344.271 194.278
L344.271 189.716
L348.924 189.716
L348.924 185.153
L349.816 185.153
L349.816 180.591
L351.275 180.591
L351.275 176.028
L352.984 176.028
L352.984 171.466
L356.004 171.466
L356.004 166.904
L356.803 166.904
L356.803 162.341
L358.889 162.341
L358.889 157.779
L361.651 157.779
L361.651 153.217
L363.826 153.217
L363.826 148.654
L370.16 148.654
L370.16 144.092
L372.902 144.092
L372.902 139.529
L375.731 139.529
L375.731 134.967
L376.906 134.967
L376.906 130.405
L379.195 130.405
L379.195 125.842
L384.413 125.842
L384.413 121.28
L385.442 121.28
L385.442 116.718
L386.118 116.718
L386.118 112.155
L386.955 112.155
L386.955 107.593
L392.219 107.593
L392.219 103.03
L396.228 103.03
L396.228 98.4681
L399.045 98.4681
L399.045 93.9057
L401.214 93.9057
L401.214 89.3433
L401.214 89.3433
L401.214 89.3433
L507.225 89.3433" style="fill:none;stroke:#bf00bf;stroke-linecap:square;"/>
   </g>
   <g id="line2d_35"/>
   <g id="line2d_36">
    <path clip-path="url(#p0ab5e1e507)" d="
M304.115 358.524
L304.115 353.961
L321.808 353.961
L321.808 349.399
L322.262 349.399
L322.262 344.836
L359.145 344.836
L359.145 340.274
L373.314 340.274
L373.314 335.712
L373.314 335.712
L373.314 335.712
L507.225 335.712" style="fill:none;stroke:#ff0000;stroke-linecap:square;stroke-width:3.0;"/>
   </g>
   <g id="line2d_37"/>
   <g id="line2d_38">
    <path clip-path="url(#p0ab5e1e507)" d="
M403.698 358.524
L403.698 12.9235" style="fill:none;stroke:#000000;stroke-linecap:square;"/>
   </g>
   <g id="matplotlib.axis_1">
    <g id="xtick_1">
     <g id="line2d_39">
      <path clip-path="url(#p0ab5e1e507)" d="
M105.48 358.524
L105.48 12.9235" style="fill:none;stroke:#000000;stroke-dasharray:1.000000,3.000000;stroke-dashoffset:0.0;stroke-width:0.5;"/>
     </g>
     <g id="line2d_40">
      <defs>
       <path d="
M0 0
L0 -4" id="m93b0483c22" style="stroke:#000000;stroke-width:0.5;"/>
      </defs>
      <g>
       <use style="stroke:#000000;stroke-width:0.5;" x="105.480331599" xlink:href="#m93b0483c22" y="358.523530322"/>
      </g>
     </g>
     <g id="line2d_41">
      <defs>
       <path d="
M0 0
L0 4" id="m741efc42ff" style="stroke:#000000;stroke-width:0.5;"/>
      </defs>
      <g>
       <use style="stroke:#000000;stroke-width:0.5;" x="105.480331599" xlink:href="#m741efc42ff" y="12.9235303218"/>
      </g>
     </g>
     <g id="text_1">
      <!-- 0 -->
      <defs>
       <path d="
M4.15625 35.2969
Q4.15625 48 6.76562 55.7344
Q9.375 63.4844 14.5156 67.6719
Q19.6719 71.875 27.4844 71.875
Q33.25 71.875 37.5938 69.5469
Q41.9375 67.2344 44.7656 62.8594
Q47.6094 58.5 49.2188 52.2188
Q50.8281 45.9531 50.8281 35.2969
Q50.8281 22.7031 48.2344 14.9688
Q45.6562 7.23438 40.5 3
Q35.3594 -1.21875 27.4844 -1.21875
Q17.1406 -1.21875 11.2344 6.20312
Q4.15625 15.1406 4.15625 35.2969
M13.1875 35.2969
Q13.1875 17.6719 17.3125 11.8281
Q21.4375 6 27.4844 6
Q33.5469 6 37.6719 11.8594
Q41.7969 17.7188 41.7969 35.2969
Q41.7969 52.9844 37.6719 58.7812
Q33.5469 64.5938 27.3906 64.5938
Q21.3438 64.5938 17.7188 59.4688
Q13.1875 52.9375 13.1875 35.2969" id="ArialMT-30"/>
      </defs>
      <g transform="translate(100.813144099 376.839155322)scale(0.2 -0.2)">
       <use xlink:href="#ArialMT-30"/>
      </g>
     </g>
    </g>
    <g id="xtick_2">
     <g id="line2d_42">
      <path clip-path="url(#p0ab5e1e507)" d="
M254.331 358.524
L254.331 12.9235" style="fill:none;stroke:#000000;stroke-dasharray:1.000000,3.000000;stroke-dashoffset:0.0;stroke-width:0.5;"/>
     </g>
     <g id="line2d_43">
      <g>
       <use style="stroke:#000000;stroke-width:0.5;" x="254.33143693" xlink:href="#m93b0483c22" y="358.523530322"/>
      </g>
     </g>
     <g id="line2d_44">
      <g>
       <use style="stroke:#000000;stroke-width:0.5;" x="254.33143693" xlink:href="#m741efc42ff" y="12.9235303218"/>
      </g>
     </g>
     <g id="text_2">
      <!-- 1 -->
      <defs>
       <path d="
M37.25 0
L28.4688 0
L28.4688 56
Q25.2969 52.9844 20.1406 49.9531
Q14.9844 46.9219 10.8906 45.4062
L10.8906 53.9062
Q18.2656 57.375 23.7812 62.2969
Q29.2969 67.2344 31.5938 71.875
L37.25 71.875
z
" id="ArialMT-31"/>
      </defs>
      <g transform="translate(251.69549943 376.839155322)scale(0.2 -0.2)">
       <use xlink:href="#ArialMT-31"/>
      </g>
     </g>
    </g>
    <g id="xtick_3">
     <g id="line2d_45">
      <path clip-path="url(#p0ab5e1e507)" d="
M403.183 358.524
L403.183 12.9235" style="fill:none;stroke:#000000;stroke-dasharray:1.000000,3.000000;stroke-dashoffset:0.0;stroke-width:0.5;"/>
     </g>
     <g id="line2d_46">
      <g>
       <use style="stroke:#000000;stroke-width:0.5;" x="403.182542261" xlink:href="#m93b0483c22" y="358.523530322"/>
      </g>
     </g>
     <g id="line2d_47">
      <g>
       <use style="stroke:#000000;stroke-width:0.5;" x="403.182542261" xlink:href="#m741efc42ff" y="12.9235303218"/>
      </g>
     </g>
     <g id="text_3">
      <!-- 2 -->
      <defs>
       <path d="
M50.3438 8.45312
L50.3438 0
L3.03125 0
Q2.9375 3.17188 4.04688 6.10938
Q5.85938 10.9375 9.82812 15.625
Q13.8125 20.3125 21.3438 26.4688
Q33.0156 36.0312 37.1094 41.625
Q41.2188 47.2188 41.2188 52.2031
Q41.2188 57.4219 37.4688 61
Q33.7344 64.5938 27.7344 64.5938
Q21.3906 64.5938 17.5781 60.7812
Q13.7656 56.9844 13.7188 50.25
L4.6875 51.1719
Q5.60938 61.2812 11.6562 66.5781
Q17.7188 71.875 27.9375 71.875
Q38.2344 71.875 44.2344 66.1562
Q50.25 60.4531 50.25 52
Q50.25 47.7031 48.4844 43.5469
Q46.7344 39.4062 42.6562 34.8125
Q38.5781 30.2188 29.1094 22.2188
Q21.1875 15.5781 18.9375 13.2031
Q16.7031 10.8438 15.2344 8.45312
z
" id="ArialMT-32"/>
      </defs>
      <g transform="translate(398.441917261 376.839155322)scale(0.2 -0.2)">
       <use xlink:href="#ArialMT-32"/>
      </g>
     </g>
    </g>
    <g id="xtick_4"/>
    <g id="xtick_5">
     <g id="line2d_48">
      <defs>
       <path d="
M0 0
L0 -2" id="m177f7580d0" style="stroke:#000000;stroke-width:0.5;"/>
      </defs>
      <g>
       <use style="stroke:#000000;stroke-width:0.5;" x="72.4579000026" xlink:href="#m177f7580d0" y="358.523530322"/>
      </g>
     </g>
     <g id="line2d_49">
      <defs>
       <path d="
M0 0
L0 2" id="m5284c7e2a0" style="stroke:#000000;stroke-width:0.5;"/>
      </defs>
      <g>
       <use style="stroke:#000000;stroke-width:0.5;" x="72.4579000026" xlink:href="#m5284c7e2a0" y="12.9235303218"/>
      </g>
     </g>
    </g>
    <g id="xtick_6">
     <g id="line2d_50">
      <g>
       <use style="stroke:#000000;stroke-width:0.5;" x="82.4230036375" xlink:href="#m177f7580d0" y="358.523530322"/>
      </g>
     </g>
     <g id="line2d_51">
      <g>
       <use style="stroke:#000000;stroke-width:0.5;" x="82.4230036375" xlink:href="#m5284c7e2a0" y="12.9235303218"/>
      </g>
     </g>
    </g>
    <g id="xtick_7">
     <g id="line2d_52">
      <g>
       <use style="stroke:#000000;stroke-width:0.5;" x="91.0551690454" xlink:href="#m177f7580d0" y="358.523530322"/>
      </g>
     </g>
     <g id="line2d_53">
      <g>
       <use style="stroke:#000000;stroke-width:0.5;" x="91.0551690454" xlink:href="#m5284c7e2a0" y="12.9235303218"/>
      </g>
     </g>
    </g>
    <g id="xtick_8">
     <g id="line2d_54">
      <g>
       <use style="stroke:#000000;stroke-width:0.5;" x="98.6692785522" xlink:href="#m177f7580d0" y="358.523530322"/>
      </g>
     </g>
     <g id="line2d_55">
      <g>
       <use style="stroke:#000000;stroke-width:0.5;" x="98.6692785522" xlink:href="#m5284c7e2a0" y="12.9235303218"/>
      </g>
     </g>
    </g>
    <g id="xtick_9">
     <g id="line2d_56">
      <g>
       <use style="stroke:#000000;stroke-width:0.5;" x="150.288979192" xlink:href="#m177f7580d0" y="358.523530322"/>
      </g>
     </g>
     <g id="line2d_57">
      <g>
       <use style="stroke:#000000;stroke-width:0.5;" x="150.288979192" xlink:href="#m5284c7e2a0" y="12.9235303218"/>
      </g>
     </g>
    </g>
    <g id="xtick_10">
     <g id="line2d_58">
      <g>
       <use style="stroke:#000000;stroke-width:0.5;" x="176.500357741" xlink:href="#m177f7580d0" y="358.523530322"/>
      </g>
     </g>
     <g id="line2d_59">
      <g>
       <use style="stroke:#000000;stroke-width:0.5;" x="176.500357741" xlink:href="#m5284c7e2a0" y="12.9235303218"/>
      </g>
     </g>
    </g>
    <g id="xtick_11">
     <g id="line2d_60">
      <g>
       <use style="stroke:#000000;stroke-width:0.5;" x="195.097626784" xlink:href="#m177f7580d0" y="358.523530322"/>
      </g>
     </g>
     <g id="line2d_61">
      <g>
       <use style="stroke:#000000;stroke-width:0.5;" x="195.097626784" xlink:href="#m5284c7e2a0" y="12.9235303218"/>
      </g>
     </g>
    </g>
    <g id="xtick_12">
     <g id="line2d_62">
      <g>
       <use style="stroke:#000000;stroke-width:0.5;" x="209.522789338" xlink:href="#m177f7580d0" y="358.523530322"/>
      </g>
     </g>
     <g id="line2d_63">
      <g>
       <use style="stroke:#000000;stroke-width:0.5;" x="209.522789338" xlink:href="#m5284c7e2a0" y="12.9235303218"/>
      </g>
     </g>
    </g>
    <g id="xtick_13">
     <g id="line2d_64">
      <g>
       <use style="stroke:#000000;stroke-width:0.5;" x="221.309005334" xlink:href="#m177f7580d0" y="358.523530322"/>
      </g>
     </g>
     <g id="line2d_65">
      <g>
       <use style="stroke:#000000;stroke-width:0.5;" x="221.309005334" xlink:href="#m5284c7e2a0" y="12.9235303218"/>
      </g>
     </g>
    </g>
    <g id="xtick_14">
     <g id="line2d_66">
      <g>
       <use style="stroke:#000000;stroke-width:0.5;" x="231.274108969" xlink:href="#m177f7580d0" y="358.523530322"/>
      </g>
     </g>
     <g id="line2d_67">
      <g>
       <use style="stroke:#000000;stroke-width:0.5;" x="231.274108969" xlink:href="#m5284c7e2a0" y="12.9235303218"/>
      </g>
     </g>
    </g>
    <g id="xtick_15">
     <g id="line2d_68">
      <g>
       <use style="stroke:#000000;stroke-width:0.5;" x="239.906274376" xlink:href="#m177f7580d0" y="358.523530322"/>
      </g>
     </g>
     <g id="line2d_69">
      <g>
       <use style="stroke:#000000;stroke-width:0.5;" x="239.906274376" xlink:href="#m5284c7e2a0" y="12.9235303218"/>
      </g>
     </g>
    </g>
    <g id="xtick_16">
     <g id="line2d_70">
      <g>
       <use style="stroke:#000000;stroke-width:0.5;" x="247.520383883" xlink:href="#m177f7580d0" y="358.523530322"/>
      </g>
     </g>
     <g id="line2d_71">
      <g>
       <use style="stroke:#000000;stroke-width:0.5;" x="247.520383883" xlink:href="#m5284c7e2a0" y="12.9235303218"/>
      </g>
     </g>
    </g>
    <g id="xtick_17">
     <g id="line2d_72">
      <g>
       <use style="stroke:#000000;stroke-width:0.5;" x="299.140084523" xlink:href="#m177f7580d0" y="358.523530322"/>
      </g>
     </g>
     <g id="line2d_73">
      <g>
       <use style="stroke:#000000;stroke-width:0.5;" x="299.140084523" xlink:href="#m5284c7e2a0" y="12.9235303218"/>
      </g>
     </g>
    </g>
    <g id="xtick_18">
     <g id="line2d_74">
      <g>
       <use style="stroke:#000000;stroke-width:0.5;" x="325.351463072" xlink:href="#m177f7580d0" y="358.523530322"/>
      </g>
     </g>
     <g id="line2d_75">
      <g>
       <use style="stroke:#000000;stroke-width:0.5;" x="325.351463072" xlink:href="#m5284c7e2a0" y="12.9235303218"/>
      </g>
     </g>
    </g>
    <g id="xtick_19">
     <g id="line2d_76">
      <g>
       <use style="stroke:#000000;stroke-width:0.5;" x="343.948732115" xlink:href="#m177f7580d0" y="358.523530322"/>
      </g>
     </g>
     <g id="line2d_77">
      <g>
       <use style="stroke:#000000;stroke-width:0.5;" x="343.948732115" xlink:href="#m5284c7e2a0" y="12.9235303218"/>
      </g>
     </g>
    </g>
    <g id="xtick_20">
     <g id="line2d_78">
      <g>
       <use style="stroke:#000000;stroke-width:0.5;" x="358.373894669" xlink:href="#m177f7580d0" y="358.523530322"/>
      </g>
     </g>
     <g id="line2d_79">
      <g>
       <use style="stroke:#000000;stroke-width:0.5;" x="358.373894669" xlink:href="#m5284c7e2a0" y="12.9235303218"/>
      </g>
     </g>
    </g>
    <g id="xtick_21">
     <g id="line2d_80">
      <g>
       <use style="stroke:#000000;stroke-width:0.5;" x="370.160110665" xlink:href="#m177f7580d0" y="358.523530322"/>
      </g>
     </g>
     <g id="line2d_81">
      <g>
       <use style="stroke:#000000;stroke-width:0.5;" x="370.160110665" xlink:href="#m5284c7e2a0" y="12.9235303218"/>
      </g>
     </g>
    </g>
    <g id="xtick_22">
     <g id="line2d_82">
      <g>
       <use style="stroke:#000000;stroke-width:0.5;" x="380.1252143" xlink:href="#m177f7580d0" y="358.523530322"/>
      </g>
     </g>
     <g id="line2d_83">
      <g>
       <use style="stroke:#000000;stroke-width:0.5;" x="380.1252143" xlink:href="#m5284c7e2a0" y="12.9235303218"/>
      </g>
     </g>
    </g>
    <g id="xtick_23">
     <g id="line2d_84">
      <g>
       <use style="stroke:#000000;stroke-width:0.5;" x="388.757379707" xlink:href="#m177f7580d0" y="358.523530322"/>
      </g>
     </g>
     <g id="line2d_85">
      <g>
       <use style="stroke:#000000;stroke-width:0.5;" x="388.757379707" xlink:href="#m5284c7e2a0" y="12.9235303218"/>
      </g>
     </g>
    </g>
    <g id="xtick_24">
     <g id="line2d_86">
      <g>
       <use style="stroke:#000000;stroke-width:0.5;" x="396.371489214" xlink:href="#m177f7580d0" y="358.523530322"/>
      </g>
     </g>
     <g id="line2d_87">
      <g>
       <use style="stroke:#000000;stroke-width:0.5;" x="396.371489214" xlink:href="#m5284c7e2a0" y="12.9235303218"/>
      </g>
     </g>
    </g>
    <g id="xtick_25">
     <g id="line2d_88">
      <g>
       <use style="stroke:#000000;stroke-width:0.5;" x="447.991189854" xlink:href="#m177f7580d0" y="358.523530322"/>
      </g>
     </g>
     <g id="line2d_89">
      <g>
       <use style="stroke:#000000;stroke-width:0.5;" x="447.991189854" xlink:href="#m5284c7e2a0" y="12.9235303218"/>
      </g>
     </g>
    </g>
    <g id="xtick_26">
     <g id="line2d_90">
      <g>
       <use style="stroke:#000000;stroke-width:0.5;" x="474.202568403" xlink:href="#m177f7580d0" y="358.523530322"/>
      </g>
     </g>
     <g id="line2d_91">
      <g>
       <use style="stroke:#000000;stroke-width:0.5;" x="474.202568403" xlink:href="#m5284c7e2a0" y="12.9235303218"/>
      </g>
     </g>
    </g>
    <g id="xtick_27">
     <g id="line2d_92">
      <g>
       <use style="stroke:#000000;stroke-width:0.5;" x="492.799837446" xlink:href="#m177f7580d0" y="358.523530322"/>
      </g>
     </g>
     <g id="line2d_93">
      <g>
       <use style="stroke:#000000;stroke-width:0.5;" x="492.799837446" xlink:href="#m5284c7e2a0" y="12.9235303218"/>
      </g>
     </g>
    </g>
    <g id="xtick_28">
     <g id="line2d_94">
      <g>
       <use style="stroke:#000000;stroke-width:0.5;" x="507.225" xlink:href="#m177f7580d0" y="358.523530322"/>
      </g>
     </g>
     <g id="line2d_95">
      <g>
       <use style="stroke:#000000;stroke-width:0.5;" x="507.225" xlink:href="#m5284c7e2a0" y="12.9235303218"/>
      </g>
     </g>
    </g>
    <g id="text_4">
     <!-- log10 of FEvals / DIM -->
     <defs>
      <path d="
M9.32812 0
L9.32812 71.5781
L18.7969 71.5781
L18.7969 0
z
" id="ArialMT-49"/>
      <path d="
M40.4375 6.39062
Q35.5469 2.25 31.0312 0.53125
Q26.5156 -1.17188 21.3438 -1.17188
Q12.7969 -1.17188 8.20312 3
Q3.60938 7.17188 3.60938 13.6719
Q3.60938 17.4844 5.34375 20.625
Q7.07812 23.7812 9.89062 25.6875
Q12.7031 27.5938 16.2188 28.5625
Q18.7969 29.25 24.0312 29.8906
Q34.6719 31.1562 39.7031 32.9062
Q39.75 34.7188 39.75 35.2031
Q39.75 40.5781 37.25 42.7812
Q33.8906 45.75 27.25 45.75
Q21.0469 45.75 18.0938 43.5781
Q15.1406 41.4062 13.7188 35.8906
L5.125 37.0625
Q6.29688 42.5781 8.98438 45.9688
Q11.6719 49.3594 16.75 51.1875
Q21.8281 53.0312 28.5156 53.0312
Q35.1562 53.0312 39.2969 51.4688
Q43.4531 49.9062 45.4062 47.5312
Q47.3594 45.1719 48.1406 41.5469
Q48.5781 39.3125 48.5781 33.4531
L48.5781 21.7344
Q48.5781 9.46875 49.1406 6.21875
Q49.7031 2.98438 51.375 0
L42.1875 0
Q40.8281 2.73438 40.4375 6.39062
M39.7031 26.0312
Q34.9062 24.0781 25.3438 22.7031
Q19.9219 21.9219 17.6719 20.9375
Q15.4375 19.9688 14.2031 18.0938
Q12.9844 16.2188 12.9844 13.9219
Q12.9844 10.4062 15.6406 8.0625
Q18.3125 5.71875 23.4375 5.71875
Q28.5156 5.71875 32.4688 7.9375
Q36.4219 10.1562 38.2812 14.0156
Q39.7031 17 39.7031 22.7969
z
" id="ArialMT-61"/>
      <path d="
M4.98438 -4.29688
L13.5312 -5.5625
Q14.0625 -9.51562 16.5 -11.3281
Q19.7812 -13.7656 25.4375 -13.7656
Q31.5469 -13.7656 34.8594 -11.3281
Q38.1875 -8.89062 39.3594 -4.5
Q40.0469 -1.8125 39.9844 6.78125
Q34.2344 0 25.6406 0
Q14.9375 0 9.07812 7.71875
Q3.21875 15.4375 3.21875 26.2188
Q3.21875 33.6406 5.90625 39.9062
Q8.59375 46.1875 13.6875 49.6094
Q18.7969 53.0312 25.6875 53.0312
Q34.8594 53.0312 40.8281 45.6094
L40.8281 51.8594
L48.9219 51.8594
L48.9219 7.03125
Q48.9219 -5.07812 46.4531 -10.125
Q44 -15.1875 38.6406 -18.1094
Q33.2969 -21.0469 25.4844 -21.0469
Q16.2188 -21.0469 10.5 -16.875
Q4.78125 -12.7031 4.98438 -4.29688
M12.25 26.8594
Q12.25 16.6562 16.2969 11.9688
Q20.3594 7.28125 26.4688 7.28125
Q32.5156 7.28125 36.6094 11.9375
Q40.7188 16.6094 40.7188 26.5625
Q40.7188 36.0781 36.5 40.9062
Q32.2812 45.75 26.3125 45.75
Q20.4531 45.75 16.3438 40.9844
Q12.25 36.2344 12.25 26.8594" id="ArialMT-67"/>
      <path d="
M8.6875 0
L8.6875 45.0156
L0.921875 45.0156
L0.921875 51.8594
L8.6875 51.8594
L8.6875 57.375
Q8.6875 62.5938 9.625 65.1406
Q10.8906 68.5625 14.0781 70.6719
Q17.2812 72.7969 23.0469 72.7969
Q26.7656 72.7969 31.25 71.9219
L29.9375 64.2656
Q27.2031 64.75 24.75 64.75
Q20.75 64.75 19.0938 63.0312
Q17.4375 61.3281 17.4375 56.6406
L17.4375 51.8594
L27.5469 51.8594
L27.5469 45.0156
L17.4375 45.0156
L17.4375 0
z
" id="ArialMT-66"/>
      <path d="
M0 -1.21875
L20.75 72.7969
L27.7812 72.7969
L7.07812 -1.21875
z
" id="ArialMT-2f"/>
      <path d="
M21 0
L1.26562 51.8594
L10.5469 51.8594
L21.6875 20.7969
Q23.4844 15.7656 25 10.3594
Q26.1719 14.4531 28.2656 20.2188
L39.7969 51.8594
L48.8281 51.8594
L29.2031 0
z
" id="ArialMT-76"/>
      <path d="
M7.90625 0
L7.90625 71.5781
L59.6719 71.5781
L59.6719 63.1406
L17.3906 63.1406
L17.3906 41.2188
L56.9844 41.2188
L56.9844 32.8125
L17.3906 32.8125
L17.3906 8.45312
L61.3281 8.45312
L61.3281 0
z
" id="ArialMT-45"/>
      <path d="
M7.71875 0
L7.71875 71.5781
L32.375 71.5781
Q40.7188 71.5781 45.125 70.5625
Q51.2656 69.1406 55.6094 65.4375
Q61.2812 60.6406 64.0781 53.1875
Q66.8906 45.75 66.8906 36.1875
Q66.8906 28.0312 64.9844 21.7344
Q63.0938 15.4375 60.1094 11.2969
Q57.125 7.17188 53.5781 4.79688
Q50.0469 2.4375 45.0469 1.21875
Q40.0469 0 33.5469 0
z

M17.1875 8.45312
L32.4688 8.45312
Q39.5469 8.45312 43.5781 9.76562
Q47.6094 11.0781 50 13.4844
Q53.375 16.8438 55.25 22.5312
Q57.125 28.2188 57.125 36.3281
Q57.125 47.5625 53.4375 53.5938
Q49.75 59.625 44.4844 61.6719
Q40.6719 63.1406 32.2344 63.1406
L17.1875 63.1406
z
" id="ArialMT-44"/>
      <path d="
M8.20312 0
L8.20312 71.5781
L56.5 71.5781
L56.5 63.1406
L17.6719 63.1406
L17.6719 40.9688
L51.2656 40.9688
L51.2656 32.5156
L17.6719 32.5156
L17.6719 0
z
" id="ArialMT-46"/>
      <path d="
M6.39062 0
L6.39062 71.5781
L15.1875 71.5781
L15.1875 0
z
" id="ArialMT-6c"/>
      <path d="
M3.32812 25.9219
Q3.32812 40.3281 11.3281 47.2656
Q18.0156 53.0312 27.6406 53.0312
Q38.3281 53.0312 45.1094 46.0156
Q51.9062 39.0156 51.9062 26.6562
Q51.9062 16.6562 48.9062 10.9062
Q45.9062 5.17188 40.1562 2
Q34.4219 -1.17188 27.6406 -1.17188
Q16.75 -1.17188 10.0312 5.8125
Q3.32812 12.7969 3.32812 25.9219
M12.3594 25.9219
Q12.3594 15.9688 16.7031 11.0156
Q21.0469 6.0625 27.6406 6.0625
Q34.1875 6.0625 38.5312 11.0312
Q42.875 16.0156 42.875 26.2188
Q42.875 35.8438 38.5 40.7969
Q34.125 45.75 27.6406 45.75
Q21.0469 45.75 16.7031 40.8125
Q12.3594 35.8906 12.3594 25.9219" id="ArialMT-6f"/>
      <path d="
M3.07812 15.4844
L11.7656 16.8438
Q12.5 11.625 15.8438 8.84375
Q19.1875 6.0625 25.2031 6.0625
Q31.25 6.0625 34.1719 8.51562
Q37.1094 10.9844 37.1094 14.3125
Q37.1094 17.2812 34.5156 19
Q32.7188 20.1719 25.5312 21.9688
Q15.875 24.4219 12.1406 26.2031
Q8.40625 27.9844 6.46875 31.125
Q4.54688 34.2812 4.54688 38.0938
Q4.54688 41.5469 6.125 44.5
Q7.71875 47.4688 10.4531 49.4219
Q12.5 50.9219 16.0312 51.9688
Q19.5781 53.0312 23.6406 53.0312
Q29.7344 53.0312 34.3438 51.2656
Q38.9688 49.5156 41.1562 46.5
Q43.3594 43.5 44.1875 38.4844
L35.5938 37.3125
Q35.0156 41.3125 32.2031 43.5469
Q29.3906 45.7969 24.2656 45.7969
Q18.2188 45.7969 15.625 43.7969
Q13.0312 41.7969 13.0312 39.1094
Q13.0312 37.4062 14.1094 36.0312
Q15.1875 34.625 17.4844 33.6875
Q18.7969 33.2031 25.25 31.4531
Q34.5781 28.9531 38.25 27.3594
Q41.9375 25.7812 44.0312 22.75
Q46.1406 19.7344 46.1406 15.2344
Q46.1406 10.8438 43.5781 6.95312
Q41.0156 3.07812 36.1719 0.953125
Q31.3438 -1.17188 25.25 -1.17188
Q15.1406 -1.17188 9.84375 3.03125
Q4.54688 7.23438 3.07812 15.4844" id="ArialMT-73"/>
      <path d="
M7.42188 0
L7.42188 71.5781
L21.6875 71.5781
L38.625 20.9062
Q40.9688 13.8125 42.0469 10.2969
Q43.2656 14.2031 45.8438 21.7812
L62.9844 71.5781
L75.7344 71.5781
L75.7344 0
L66.6094 0
L66.6094 59.9062
L45.7969 0
L37.25 0
L16.5469 60.9375
L16.5469 0
z
" id="ArialMT-4d"/>
      <path id="ArialMT-20"/>
     </defs>
     <g transform="translate(189.1953125 400.373530322)scale(0.2 -0.2)">
      <use xlink:href="#ArialMT-6c"/>
      <use x="22.216796875" xlink:href="#ArialMT-6f"/>
      <use x="77.83203125" xlink:href="#ArialMT-67"/>
      <use x="133.447265625" xlink:href="#ArialMT-31"/>
      <use x="189.0625" xlink:href="#ArialMT-30"/>
      <use x="244.677734375" xlink:href="#ArialMT-20"/>
      <use x="272.4609375" xlink:href="#ArialMT-6f"/>
      <use x="328.076171875" xlink:href="#ArialMT-66"/>
      <use x="355.859375" xlink:href="#ArialMT-20"/>
      <use x="383.642578125" xlink:href="#ArialMT-46"/>
      <use x="444.7265625" xlink:href="#ArialMT-45"/>
      <use x="511.42578125" xlink:href="#ArialMT-76"/>
      <use x="561.42578125" xlink:href="#ArialMT-61"/>
      <use x="617.041015625" xlink:href="#ArialMT-6c"/>
      <use x="639.2578125" xlink:href="#ArialMT-73"/>
      <use x="689.2578125" xlink:href="#ArialMT-20"/>
      <use x="717.041015625" xlink:href="#ArialMT-2f"/>
      <use x="744.82421875" xlink:href="#ArialMT-20"/>
      <use x="772.607421875" xlink:href="#ArialMT-44"/>
      <use x="844.82421875" xlink:href="#ArialMT-49"/>
      <use x="872.607421875" xlink:href="#ArialMT-4d"/>
     </g>
    </g>
   </g>
   <g id="matplotlib.axis_2">
    <g id="ytick_1">
     <g id="line2d_96">
      <path clip-path="url(#p0ab5e1e507)" d="
M60.825 358.524
L507.225 358.524" style="fill:none;stroke:#000000;stroke-dasharray:1.000000,3.000000;stroke-dashoffset:0.0;stroke-width:0.5;"/>
     </g>
     <g id="line2d_97">
      <defs>
       <path d="
M0 0
L4 0" id="m728421d6d4" style="stroke:#000000;stroke-width:0.5;"/>
      </defs>
      <g>
       <use style="stroke:#000000;stroke-width:0.5;" x="60.825" xlink:href="#m728421d6d4" y="358.523530322"/>
      </g>
     </g>
     <g id="line2d_98">
      <defs>
       <path d="
M0 0
L-4 0" id="mcb0005524f" style="stroke:#000000;stroke-width:0.5;"/>
      </defs>
      <g>
       <use style="stroke:#000000;stroke-width:0.5;" x="507.225" xlink:href="#mcb0005524f" y="358.523530322"/>
      </g>
     </g>
     <g id="text_5">
      <!-- 0.0 -->
      <defs>
       <path d="
M9.07812 0
L9.07812 10.0156
L19.0938 10.0156
L19.0938 0
z
" id="ArialMT-2e"/>
      </defs>
      <g transform="translate(30.8125 363.693842822)scale(0.2 -0.2)">
       <use xlink:href="#ArialMT-30"/>
       <use x="55.615234375" xlink:href="#ArialMT-2e"/>
       <use x="83.3984375" xlink:href="#ArialMT-30"/>
      </g>
     </g>
    </g>
    <g id="ytick_2">
     <g id="line2d_99">
      <path clip-path="url(#p0ab5e1e507)" d="
M60.825 290.088
L507.225 290.088" style="fill:none;stroke:#000000;stroke-dasharray:1.000000,3.000000;stroke-dashoffset:0.0;stroke-width:0.5;"/>
     </g>
     <g id="line2d_100">
      <g>
       <use style="stroke:#000000;stroke-width:0.5;" x="60.825" xlink:href="#m728421d6d4" y="290.087886757"/>
      </g>
     </g>
     <g id="line2d_101">
      <g>
       <use style="stroke:#000000;stroke-width:0.5;" x="507.225" xlink:href="#mcb0005524f" y="290.087886757"/>
      </g>
     </g>
     <g id="text_6">
      <!-- 0.2 -->
      <g transform="translate(30.909375 295.258199257)scale(0.2 -0.2)">
       <use xlink:href="#ArialMT-30"/>
       <use x="55.615234375" xlink:href="#ArialMT-2e"/>
       <use x="83.3984375" xlink:href="#ArialMT-32"/>
      </g>
     </g>
    </g>
    <g id="ytick_3">
     <g id="line2d_102">
      <path clip-path="url(#p0ab5e1e507)" d="
M60.825 221.652
L507.225 221.652" style="fill:none;stroke:#000000;stroke-dasharray:1.000000,3.000000;stroke-dashoffset:0.0;stroke-width:0.5;"/>
     </g>
     <g id="line2d_103">
      <g>
       <use style="stroke:#000000;stroke-width:0.5;" x="60.825" xlink:href="#m728421d6d4" y="221.652243193"/>
      </g>
     </g>
     <g id="line2d_104">
      <g>
       <use style="stroke:#000000;stroke-width:0.5;" x="507.225" xlink:href="#mcb0005524f" y="221.652243193"/>
      </g>
     </g>
     <g id="text_7">
      <!-- 0.4 -->
      <defs>
       <path d="
M32.3281 0
L32.3281 17.1406
L1.26562 17.1406
L1.26562 25.2031
L33.9375 71.5781
L41.1094 71.5781
L41.1094 25.2031
L50.7812 25.2031
L50.7812 17.1406
L41.1094 17.1406
L41.1094 0
z

M32.3281 25.2031
L32.3281 57.4688
L9.90625 25.2031
z
" id="ArialMT-34"/>
      </defs>
      <g transform="translate(30.821875 226.822555693)scale(0.2 -0.2)">
       <use xlink:href="#ArialMT-30"/>
       <use x="55.615234375" xlink:href="#ArialMT-2e"/>
       <use x="83.3984375" xlink:href="#ArialMT-34"/>
      </g>
     </g>
    </g>
    <g id="ytick_4">
     <g id="line2d_105">
      <path clip-path="url(#p0ab5e1e507)" d="
M60.825 153.217
L507.225 153.217" style="fill:none;stroke:#000000;stroke-dasharray:1.000000,3.000000;stroke-dashoffset:0.0;stroke-width:0.5;"/>
     </g>
     <g id="line2d_106">
      <g>
       <use style="stroke:#000000;stroke-width:0.5;" x="60.825" xlink:href="#m728421d6d4" y="153.216599629"/>
      </g>
     </g>
     <g id="line2d_107">
      <g>
       <use style="stroke:#000000;stroke-width:0.5;" x="507.225" xlink:href="#mcb0005524f" y="153.216599629"/>
      </g>
     </g>
     <g id="text_8">
      <!-- 0.6 -->
      <defs>
       <path d="
M49.75 54.0469
L41.0156 53.375
Q39.8438 58.5469 37.7031 60.8906
Q34.125 64.6562 28.9062 64.6562
Q24.7031 64.6562 21.5312 62.3125
Q17.3906 59.2812 14.9844 53.4688
Q12.5938 47.6562 12.5 36.9219
Q15.6719 41.75 20.2656 44.0938
Q24.8594 46.4375 29.8906 46.4375
Q38.6719 46.4375 44.8438 39.9688
Q51.0312 33.5 51.0312 23.25
Q51.0312 16.5 48.125 10.7188
Q45.2188 4.9375 40.1406 1.85938
Q35.0625 -1.21875 28.6094 -1.21875
Q17.625 -1.21875 10.6875 6.85938
Q3.76562 14.9375 3.76562 33.5
Q3.76562 54.25 11.4219 63.6719
Q18.1094 71.875 29.4375 71.875
Q37.8906 71.875 43.2812 67.1406
Q48.6875 62.4062 49.75 54.0469
M13.875 23.1875
Q13.875 18.6562 15.7969 14.5
Q17.7188 10.3594 21.1875 8.17188
Q24.6562 6 28.4688 6
Q34.0312 6 38.0312 10.4844
Q42.0469 14.9844 42.0469 22.7031
Q42.0469 30.125 38.0781 34.3906
Q34.125 38.6719 28.125 38.6719
Q22.1719 38.6719 18.0156 34.3906
Q13.875 30.125 13.875 23.1875" id="ArialMT-36"/>
      </defs>
      <g transform="translate(30.771875 158.386912129)scale(0.2 -0.2)">
       <use xlink:href="#ArialMT-30"/>
       <use x="55.615234375" xlink:href="#ArialMT-2e"/>
       <use x="83.3984375" xlink:href="#ArialMT-36"/>
      </g>
     </g>
    </g>
    <g id="ytick_5">
     <g id="line2d_108">
      <path clip-path="url(#p0ab5e1e507)" d="
M60.825 84.781
L507.225 84.781" style="fill:none;stroke:#000000;stroke-dasharray:1.000000,3.000000;stroke-dashoffset:0.0;stroke-width:0.5;"/>
     </g>
     <g id="line2d_109">
      <g>
       <use style="stroke:#000000;stroke-width:0.5;" x="60.825" xlink:href="#m728421d6d4" y="84.7809560644"/>
      </g>
     </g>
     <g id="line2d_110">
      <g>
       <use style="stroke:#000000;stroke-width:0.5;" x="507.225" xlink:href="#mcb0005524f" y="84.7809560644"/>
      </g>
     </g>
     <g id="text_9">
      <!-- 0.8 -->
      <defs>
       <path d="
M17.6719 38.8125
Q12.2031 40.8281 9.5625 44.5312
Q6.9375 48.25 6.9375 53.4219
Q6.9375 61.2344 12.5469 66.5469
Q18.1719 71.875 27.4844 71.875
Q36.8594 71.875 42.5781 66.4219
Q48.2969 60.9844 48.2969 53.1719
Q48.2969 48.1875 45.6719 44.5
Q43.0625 40.8281 37.75 38.8125
Q44.3438 36.6719 47.7812 31.875
Q51.2188 27.0938 51.2188 20.4531
Q51.2188 11.2812 44.7188 5.03125
Q38.2344 -1.21875 27.6406 -1.21875
Q17.0469 -1.21875 10.5469 5.04688
Q4.04688 11.3281 4.04688 20.7031
Q4.04688 27.6875 7.59375 32.3906
Q11.1406 37.1094 17.6719 38.8125
M15.9219 53.7188
Q15.9219 48.6406 19.1875 45.4062
Q22.4688 42.1875 27.6875 42.1875
Q32.7656 42.1875 36.0156 45.375
Q39.2656 48.5781 39.2656 53.2188
Q39.2656 58.0625 35.9062 61.3594
Q32.5625 64.6562 27.5938 64.6562
Q22.5625 64.6562 19.2344 61.4219
Q15.9219 58.2031 15.9219 53.7188
M13.0938 20.6562
Q13.0938 16.8906 14.875 13.375
Q16.6562 9.85938 20.1719 7.92188
Q23.6875 6 27.7344 6
Q34.0312 6 38.125 10.0469
Q42.2344 14.1094 42.2344 20.3594
Q42.2344 26.7031 38.0156 30.8594
Q33.7969 35.0156 27.4375 35.0156
Q21.2344 35.0156 17.1562 30.9062
Q13.0938 26.8125 13.0938 20.6562" id="ArialMT-38"/>
      </defs>
      <g transform="translate(30.734375 89.9512685644)scale(0.2 -0.2)">
       <use xlink:href="#ArialMT-30"/>
       <use x="55.615234375" xlink:href="#ArialMT-2e"/>
       <use x="83.3984375" xlink:href="#ArialMT-38"/>
      </g>
     </g>
    </g>
    <g id="ytick_6">
     <g id="line2d_111">
      <path clip-path="url(#p0ab5e1e507)" d="
M60.825 16.3453
L507.225 16.3453" style="fill:none;stroke:#000000;stroke-dasharray:1.000000,3.000000;stroke-dashoffset:0.0;stroke-width:0.5;"/>
     </g>
     <g id="line2d_112">
      <g>
       <use style="stroke:#000000;stroke-width:0.5;" x="60.825" xlink:href="#m728421d6d4" y="16.3453125"/>
      </g>
     </g>
     <g id="line2d_113">
      <g>
       <use style="stroke:#000000;stroke-width:0.5;" x="507.225" xlink:href="#mcb0005524f" y="16.3453125"/>
      </g>
     </g>
     <g id="text_10">
      <!-- 1.0 -->
      <g transform="translate(32.159375 21.515625)scale(0.2 -0.2)">
       <use xlink:href="#ArialMT-31"/>
       <use x="55.615234375" xlink:href="#ArialMT-2e"/>
       <use x="83.3984375" xlink:href="#ArialMT-30"/>
      </g>
     </g>
    </g>
    <g id="text_11">
     <!-- proportion of trials -->
     <defs>
      <path d="
M25.7812 7.85938
L27.0469 0.09375
Q23.3438 -0.6875 20.4062 -0.6875
Q15.625 -0.6875 12.9844 0.828125
Q10.3594 2.34375 9.28125 4.8125
Q8.20312 7.28125 8.20312 15.1875
L8.20312 45.0156
L1.76562 45.0156
L1.76562 51.8594
L8.20312 51.8594
L8.20312 64.7031
L16.9375 69.9688
L16.9375 51.8594
L25.7812 51.8594
L25.7812 45.0156
L16.9375 45.0156
L16.9375 14.7031
Q16.9375 10.9375 17.4062 9.85938
Q17.875 8.79688 18.9219 8.15625
Q19.9688 7.51562 21.9219 7.51562
Q23.3906 7.51562 25.7812 7.85938" id="ArialMT-74"/>
      <path d="
M6.64062 61.4688
L6.64062 71.5781
L15.4375 71.5781
L15.4375 61.4688
z

M6.64062 0
L6.64062 51.8594
L15.4375 51.8594
L15.4375 0
z
" id="ArialMT-69"/>
      <path d="
M6.59375 -19.875
L6.59375 51.8594
L14.5938 51.8594
L14.5938 45.125
Q17.4375 49.0781 21 51.0469
Q24.5625 53.0312 29.6406 53.0312
Q36.2812 53.0312 41.3594 49.6094
Q46.4375 46.1875 49.0156 39.9531
Q51.6094 33.7344 51.6094 26.3125
Q51.6094 18.3594 48.75 11.9844
Q45.9062 5.60938 40.4531 2.21875
Q35.0156 -1.17188 29 -1.17188
Q24.6094 -1.17188 21.1094 0.6875
Q17.625 2.54688 15.375 5.375
L15.375 -19.875
z

M14.5469 25.6406
Q14.5469 15.625 18.5938 10.8438
Q22.6562 6.0625 28.4219 6.0625
Q34.2812 6.0625 38.4531 11.0156
Q42.625 15.9688 42.625 26.375
Q42.625 36.2812 38.5469 41.2031
Q34.4688 46.1406 28.8125 46.1406
Q23.1875 46.1406 18.8594 40.8906
Q14.5469 35.6406 14.5469 25.6406" id="ArialMT-70"/>
      <path d="
M6.59375 0
L6.59375 51.8594
L14.5 51.8594
L14.5 44.4844
Q20.2188 53.0312 31 53.0312
Q35.6875 53.0312 39.625 51.3438
Q43.5625 49.6562 45.5156 46.9219
Q47.4688 44.1875 48.25 40.4375
Q48.7344 37.9844 48.7344 31.8906
L48.7344 0
L39.9375 0
L39.9375 31.5469
Q39.9375 36.9219 38.9062 39.5781
Q37.8906 42.2344 35.2812 43.8125
Q32.6719 45.4062 29.1562 45.4062
Q23.5312 45.4062 19.4531 41.8438
Q15.375 38.2812 15.375 28.3281
L15.375 0
z
" id="ArialMT-6e"/>
      <path d="
M6.5 0
L6.5 51.8594
L14.4062 51.8594
L14.4062 44
Q17.4375 49.5156 20 51.2656
Q22.5625 53.0312 25.6406 53.0312
Q30.0781 53.0312 34.6719 50.2031
L31.6406 42.0469
Q28.4219 43.9531 25.2031 43.9531
Q22.3125 43.9531 20.0156 42.2188
Q17.7188 40.4844 16.75 37.4062
Q15.2812 32.7188 15.2812 27.1562
L15.2812 0
z
" id="ArialMT-72"/>
     </defs>
     <g transform="translate(21.759375 265.370405322)rotate(-90.0)scale(0.2 -0.2)">
      <use xlink:href="#ArialMT-70"/>
      <use x="55.615234375" xlink:href="#ArialMT-72"/>
      <use x="88.916015625" xlink:href="#ArialMT-6f"/>
      <use x="144.53125" xlink:href="#ArialMT-70"/>
      <use x="200.146484375" xlink:href="#ArialMT-6f"/>
      <use x="255.76171875" xlink:href="#ArialMT-72"/>
      <use x="289.0625" xlink:href="#ArialMT-74"/>
      <use x="316.845703125" xlink:href="#ArialMT-69"/>
      <use x="339.0625" xlink:href="#ArialMT-6f"/>
      <use x="394.677734375" xlink:href="#ArialMT-6e"/>
      <use x="450.29296875" xlink:href="#ArialMT-20"/>
      <use x="478.076171875" xlink:href="#ArialMT-6f"/>
      <use x="533.69140625" xlink:href="#ArialMT-66"/>
      <use x="561.474609375" xlink:href="#ArialMT-20"/>
      <use x="589.2578125" xlink:href="#ArialMT-74"/>
      <use x="617.041015625" xlink:href="#ArialMT-72"/>
      <use x="650.341796875" xlink:href="#ArialMT-69"/>
      <use x="672.55859375" xlink:href="#ArialMT-61"/>
      <use x="728.173828125" xlink:href="#ArialMT-6c"/>
      <use x="750.390625" xlink:href="#ArialMT-73"/>
     </g>
    </g>
   </g>
   <g id="patch_3">
    <path d="
M60.825 12.9235
L507.225 12.9235" style="fill:none;stroke:#000000;"/>
   </g>
   <g id="patch_4">
    <path d="
M507.225 358.524
L507.225 12.9235" style="fill:none;stroke:#000000;"/>
   </g>
   <g id="patch_5">
    <path d="
M60.825 358.524
L507.225 358.524" style="fill:none;stroke:#000000;"/>
   </g>
   <g id="patch_6">
    <path d="
M60.825 358.524
L60.825 12.9235" style="fill:none;stroke:#000000;"/>
   </g>
   <g id="text_12">
    <!-- {f20-f24}, 5-D -->
    <defs>
     <path d="
M30.5625 29.8906
L30.5625 21.9219
Q26.8125 21.8281 24.4375 19.875
Q22.0781 17.9219 21.2969 14.5781
Q20.5156 11.2344 20.4531 3.07812
Q20.4062 -5.07812 20.1719 -7.67188
Q19.7344 -11.8125 18.5312 -14.2812
Q17.3281 -16.75 15.5625 -18.2344
Q13.8125 -19.7344 11.0781 -20.5156
Q9.23438 -21.0469 5.03125 -21.0469
L2.29688 -21.0469
L2.29688 -13.375
L3.8125 -13.375
Q8.89062 -13.375 10.5469 -11.5469
Q12.2031 -9.71875 12.2031 -3.32812
Q12.2031 8.89062 12.6406 12.1562
Q13.4219 17.5781 15.7656 20.8281
Q18.1094 24.0781 22.4062 25.875
Q16.7969 28.5625 14.5 32.9844
Q12.2031 37.4062 12.2031 47.9062
Q12.2031 57.4219 11.9688 59.2812
Q11.625 62.5469 10.0312 63.8438
Q8.45312 65.1406 3.8125 65.1406
L2.29688 65.1406
L2.29688 72.7969
L5.03125 72.7969
Q9.8125 72.7969 11.9688 72.0156
Q15.0938 70.9531 17.1406 68.4062
Q19.1875 65.875 19.7969 62.0156
Q20.4062 58.1562 20.4531 49.3594
Q20.5156 40.5781 21.2969 37.2344
Q22.0781 33.8906 24.4375 31.9375
Q26.8125 29.9844 30.5625 29.8906" id="ArialMT-7d"/>
     <path d="
M3.17188 21.4844
L3.17188 30.3281
L30.1719 30.3281
L30.1719 21.4844
z
" id="ArialMT-2d"/>
     <path d="
M8.89062 0
L8.89062 10.0156
L18.8906 10.0156
L18.8906 0
Q18.8906 -5.51562 16.9375 -8.90625
Q14.9844 -12.3125 10.75 -14.1562
L8.29688 -10.4062
Q11.0781 -9.1875 12.3906 -6.8125
Q13.7188 -4.4375 13.875 0
z
" id="ArialMT-2c"/>
     <path d="
M4.15625 18.75
L13.375 19.5312
Q14.4062 12.7969 18.1406 9.39062
Q21.875 6 27.1562 6
Q33.5 6 37.8906 10.7812
Q42.2812 15.5781 42.2812 23.4844
Q42.2812 31 38.0625 35.3438
Q33.8438 39.7031 27 39.7031
Q22.75 39.7031 19.3281 37.7656
Q15.9219 35.8438 13.9688 32.7656
L5.71875 33.8438
L12.6406 70.6094
L48.25 70.6094
L48.25 62.2031
L19.6719 62.2031
L15.8281 42.9688
Q22.2656 47.4688 29.3438 47.4688
Q38.7188 47.4688 45.1562 40.9688
Q51.6094 34.4688 51.6094 24.2656
Q51.6094 14.5469 45.9531 7.46875
Q39.0625 -1.21875 27.1562 -1.21875
Q17.3906 -1.21875 11.2031 4.25
Q5.03125 9.71875 4.15625 18.75" id="ArialMT-35"/>
     <path d="
M2.78125 29.8906
Q6.54688 29.9844 8.90625 31.9062
Q11.2812 33.8438 12.0625 37.2031
Q12.8438 40.5781 12.8906 48.7344
Q12.9375 56.8906 13.1875 59.4688
Q13.625 63.5781 14.8125 66.0625
Q16.0156 68.5625 17.7656 70.0469
Q19.5312 71.5312 22.2656 72.3125
Q24.125 72.7969 28.3281 72.7969
L31.0625 72.7969
L31.0625 65.1406
L29.5469 65.1406
Q24.4688 65.1406 22.7969 63.2969
Q21.1406 61.4688 21.1406 55.125
Q21.1406 42.3281 20.6094 38.9688
Q19.7344 33.7344 17.6094 30.9062
Q15.4844 28.0781 10.9375 25.875
Q16.3125 23.6406 18.7188 19.0156
Q21.1406 14.4062 21.1406 3.90625
Q21.1406 -5.60938 21.3438 -7.42188
Q21.7344 -10.75 23.3125 -12.0625
Q24.9062 -13.375 29.5469 -13.375
L31.0625 -13.375
L31.0625 -21.0469
L28.3281 -21.0469
Q23.5312 -21.0469 21.3906 -20.2656
Q18.2656 -19.1406 16.2031 -16.625
Q14.1562 -14.1094 13.5469 -10.25
Q12.9375 -6.39062 12.8906 2.39062
Q12.8438 11.1875 12.0625 14.5469
Q11.2812 17.9219 8.90625 19.875
Q6.54688 21.8281 2.78125 21.9219
z
" id="ArialMT-7b"/>
    </defs>
    <g transform="translate(225.078125 34.3949053218)scale(0.2 -0.2)">
     <use xlink:href="#ArialMT-7b"/>
     <use x="33.3984375" xlink:href="#ArialMT-66"/>
     <use x="61.181640625" xlink:href="#ArialMT-32"/>
     <use x="116.796875" xlink:href="#ArialMT-30"/>
     <use x="172.412109375" xlink:href="#ArialMT-2d"/>
     <use x="205.712890625" xlink:href="#ArialMT-66"/>
     <use x="233.49609375" xlink:href="#ArialMT-32"/>
     <use x="289.111328125" xlink:href="#ArialMT-34"/>
     <use x="344.7265625" xlink:href="#ArialMT-7d"/>
     <use x="378.125" xlink:href="#ArialMT-2c"/>
     <use x="405.908203125" xlink:href="#ArialMT-20"/>
     <use x="433.69140625" xlink:href="#ArialMT-35"/>
     <use x="489.306640625" xlink:href="#ArialMT-2d"/>
     <use x="522.607421875" xlink:href="#ArialMT-44"/>
    </g>
   </g>
   <g id="text_13">
    <!-- reference budgets from refalgs/best2009-bbob.tar.gz -->
    <defs>
     <path d="
M40.4375 19
L49.0781 17.875
Q47.6562 8.9375 41.8125 3.875
Q35.9844 -1.17188 27.4844 -1.17188
Q16.8438 -1.17188 10.375 5.78125
Q3.90625 12.75 3.90625 25.7344
Q3.90625 34.125 6.6875 40.4219
Q9.46875 46.7344 15.1562 49.875
Q20.8438 53.0312 27.5469 53.0312
Q35.9844 53.0312 41.3594 48.75
Q46.7344 44.4844 48.25 36.625
L39.7031 35.2969
Q38.4844 40.5312 35.375 43.1562
Q32.2812 45.7969 27.875 45.7969
Q21.2344 45.7969 17.0781 41.0312
Q12.9375 36.2812 12.9375 25.9844
Q12.9375 15.5312 16.9375 10.7969
Q20.9531 6.0625 27.3906 6.0625
Q32.5625 6.0625 36.0312 9.23438
Q39.5 12.4062 40.4375 19" id="ArialMT-63"/>
     <path d="
M14.7031 0
L6.54688 0
L6.54688 71.5781
L15.3281 71.5781
L15.3281 46.0469
Q20.9062 53.0312 29.5469 53.0312
Q34.3281 53.0312 38.5938 51.0938
Q42.875 49.1719 45.625 45.6719
Q48.3906 42.1875 49.9531 37.25
Q51.5156 32.3281 51.5156 26.7031
Q51.5156 13.375 44.9219 6.09375
Q38.3281 -1.17188 29.1094 -1.17188
Q19.9219 -1.17188 14.7031 6.5
z

M14.5938 26.3125
Q14.5938 17 17.1406 12.8438
Q21.2969 6.0625 28.375 6.0625
Q34.125 6.0625 38.3281 11.0625
Q42.5312 16.0625 42.5312 25.9844
Q42.5312 36.1406 38.5 40.9688
Q34.4688 45.7969 28.7656 45.7969
Q23 45.7969 18.7969 40.7969
Q14.5938 35.7969 14.5938 26.3125" id="ArialMT-62"/>
     <path d="
M42.0938 16.7031
L51.1719 15.5781
Q49.0312 7.625 43.2188 3.21875
Q37.4062 -1.17188 28.375 -1.17188
Q17 -1.17188 10.3281 5.82812
Q3.65625 12.8438 3.65625 25.4844
Q3.65625 38.5781 10.3906 45.7969
Q17.1406 53.0312 27.875 53.0312
Q38.2812 53.0312 44.875 45.9531
Q51.4688 38.875 51.4688 26.0312
Q51.4688 25.25 51.4219 23.6875
L12.75 23.6875
Q13.2344 15.1406 17.5781 10.5938
Q21.9219 6.0625 28.4219 6.0625
Q33.25 6.0625 36.6719 8.59375
Q40.0938 11.1406 42.0938 16.7031
M13.2344 30.9062
L42.1875 30.9062
Q41.6094 37.4531 38.875 40.7188
Q34.6719 45.7969 27.9844 45.7969
Q21.9219 45.7969 17.7969 41.75
Q13.6719 37.7031 13.2344 30.9062" id="ArialMT-65"/>
     <path d="
M40.2344 0
L40.2344 6.54688
Q35.2969 -1.17188 25.7344 -1.17188
Q19.5312 -1.17188 14.3281 2.25
Q9.125 5.67188 6.26562 11.7969
Q3.42188 17.9219 3.42188 25.875
Q3.42188 33.6406 6 39.9688
Q8.59375 46.2969 13.7656 49.6562
Q18.9531 53.0312 25.3438 53.0312
Q30.0312 53.0312 33.6875 51.0469
Q37.3594 49.0781 39.6562 45.9062
L39.6562 71.5781
L48.3906 71.5781
L48.3906 0
z

M12.4531 25.875
Q12.4531 15.9219 16.6406 10.9844
Q20.8438 6.0625 26.5625 6.0625
Q32.3281 6.0625 36.3438 10.7656
Q40.375 15.4844 40.375 25.1406
Q40.375 35.7969 36.2656 40.7656
Q32.1719 45.75 26.1719 45.75
Q20.3125 45.75 16.375 40.9688
Q12.4531 36.1875 12.4531 25.875" id="ArialMT-64"/>
     <path d="
M40.5781 0
L40.5781 7.625
Q34.5156 -1.17188 24.125 -1.17188
Q19.5312 -1.17188 15.5469 0.578125
Q11.5781 2.34375 9.64062 5
Q7.71875 7.67188 6.9375 11.5312
Q6.39062 14.1094 6.39062 19.7344
L6.39062 51.8594
L15.1875 51.8594
L15.1875 23.0938
Q15.1875 16.2188 15.7188 13.8125
Q16.5469 10.3594 19.2344 8.375
Q21.9219 6.39062 25.875 6.39062
Q29.8281 6.39062 33.2969 8.42188
Q36.7656 10.4531 38.2031 13.9375
Q39.6562 17.4375 39.6562 24.0781
L39.6562 51.8594
L48.4375 51.8594
L48.4375 0
z
" id="ArialMT-75"/>
     <path d="
M5.46875 16.5469
L13.9219 17.3281
Q14.9844 11.375 18.0156 8.6875
Q21.0469 6 25.7812 6
Q29.8281 6 32.875 7.85938
Q35.9375 9.71875 37.8906 12.8125
Q39.8438 15.9219 41.1562 21.1875
Q42.4844 26.4688 42.4844 31.9375
Q42.4844 32.5156 42.4375 33.6875
Q39.7969 29.5 35.2344 26.875
Q30.6719 24.2656 25.3438 24.2656
Q16.4531 24.2656 10.2969 30.7031
Q4.15625 37.1562 4.15625 47.7031
Q4.15625 58.5938 10.5781 65.2344
Q17 71.875 26.6562 71.875
Q33.6406 71.875 39.4219 68.1094
Q45.2188 64.3594 48.2188 57.3906
Q51.2188 50.4375 51.2188 37.25
Q51.2188 23.5312 48.2344 15.4062
Q45.2656 7.28125 39.375 3.03125
Q33.5 -1.21875 25.5938 -1.21875
Q17.1875 -1.21875 11.8594 3.4375
Q6.54688 8.10938 5.46875 16.5469
M41.4531 48.1406
Q41.4531 55.7188 37.4219 60.1562
Q33.4062 64.5938 27.7344 64.5938
Q21.875 64.5938 17.5312 59.8125
Q13.1875 55.0312 13.1875 47.4062
Q13.1875 40.5781 17.3125 36.2969
Q21.4375 32.0312 27.4844 32.0312
Q33.5938 32.0312 37.5156 36.2969
Q41.4531 40.5781 41.4531 48.1406" id="ArialMT-39"/>
     <path d="
M6.59375 0
L6.59375 51.8594
L14.4531 51.8594
L14.4531 44.5781
Q16.8906 48.3906 20.9375 50.7031
Q25 53.0312 30.1719 53.0312
Q35.9375 53.0312 39.625 50.6406
Q43.3125 48.25 44.8281 43.9531
Q50.9844 53.0312 60.8438 53.0312
Q68.5625 53.0312 72.7031 48.75
Q76.8594 44.4844 76.8594 35.5938
L76.8594 0
L68.1094 0
L68.1094 32.6719
Q68.1094 37.9375 67.25 40.25
Q66.4062 42.5781 64.1562 43.9844
Q61.9219 45.4062 58.8906 45.4062
Q53.4219 45.4062 49.7969 41.7656
Q46.1875 38.1406 46.1875 30.125
L46.1875 0
L37.4062 0
L37.4062 33.6875
Q37.4062 39.5469 35.25 42.4688
Q33.1094 45.4062 28.2188 45.4062
Q24.5156 45.4062 21.3594 43.4531
Q18.2188 41.5 16.7969 37.7344
Q15.375 33.9844 15.375 26.9062
L15.375 0
z
" id="ArialMT-6d"/>
     <path d="
M1.95312 0
L1.95312 7.125
L34.9688 45.0156
Q29.3438 44.7344 25.0469 44.7344
L3.90625 44.7344
L3.90625 51.8594
L46.2969 51.8594
L46.2969 46.0469
L18.2188 13.1406
L12.7969 7.125
Q18.7031 7.5625 23.875 7.5625
L47.8594 7.5625
L47.8594 0
z
" id="ArialMT-7a"/>
    </defs>
    <g transform="translate(60.825 358.523530322)scale(0.14 -0.14)">
     <use xlink:href="#ArialMT-72"/>
     <use x="33.30078125" xlink:href="#ArialMT-65"/>
     <use x="88.916015625" xlink:href="#ArialMT-66"/>
     <use x="116.69921875" xlink:href="#ArialMT-65"/>
     <use x="172.314453125" xlink:href="#ArialMT-72"/>
     <use x="205.615234375" xlink:href="#ArialMT-65"/>
     <use x="261.23046875" xlink:href="#ArialMT-6e"/>
     <use x="316.845703125" xlink:href="#ArialMT-63"/>
     <use x="366.845703125" xlink:href="#ArialMT-65"/>
     <use x="422.4609375" xlink:href="#ArialMT-20"/>
     <use x="450.244140625" xlink:href="#ArialMT-62"/>
     <use x="505.859375" xlink:href="#ArialMT-75"/>
     <use x="561.474609375" xlink:href="#ArialMT-64"/>
     <use x="617.08984375" xlink:href="#ArialMT-67"/>
     <use x="672.705078125" xlink:href="#ArialMT-65"/>
     <use x="728.3203125" xlink:href="#ArialMT-74"/>
     <use x="756.103515625" xlink:href="#ArialMT-73"/>
     <use x="806.103515625" xlink:href="#ArialMT-20"/>
     <use x="833.88671875" xlink:href="#ArialMT-66"/>
     <use x="861.669921875" xlink:href="#ArialMT-72"/>
     <use x="894.970703125" xlink:href="#ArialMT-6f"/>
     <use x="950.5859375" xlink:href="#ArialMT-6d"/>
     <use x="1033.88671875" xlink:href="#ArialMT-20"/>
     <use x="1061.66992188" xlink:href="#ArialMT-72"/>
     <use x="1094.97070312" xlink:href="#ArialMT-65"/>
     <use x="1150.5859375" xlink:href="#ArialMT-66"/>
     <use x="1178.36914062" xlink:href="#ArialMT-61"/>
     <use x="1233.984375" xlink:href="#ArialMT-6c"/>
     <use x="1256.20117188" xlink:href="#ArialMT-67"/>
     <use x="1311.81640625" xlink:href="#ArialMT-73"/>
     <use x="1361.81640625" xlink:href="#ArialMT-2f"/>
     <use x="1389.59960938" xlink:href="#ArialMT-62"/>
     <use x="1445.21484375" xlink:href="#ArialMT-65"/>
     <use x="1500.83007812" xlink:href="#ArialMT-73"/>
     <use x="1550.83007812" xlink:href="#ArialMT-74"/>
     <use x="1578.61328125" xlink:href="#ArialMT-32"/>
     <use x="1634.22851562" xlink:href="#ArialMT-30"/>
     <use x="1689.84375" xlink:href="#ArialMT-30"/>
     <use x="1745.45898438" xlink:href="#ArialMT-39"/>
     <use x="1801.07421875" xlink:href="#ArialMT-2d"/>
     <use x="1834.375" xlink:href="#ArialMT-62"/>
     <use x="1889.99023438" xlink:href="#ArialMT-62"/>
     <use x="1945.60546875" xlink:href="#ArialMT-6f"/>
     <use x="2001.22070312" xlink:href="#ArialMT-62"/>
     <use x="2056.8359375" xlink:href="#ArialMT-2e"/>
     <use x="2084.61914062" xlink:href="#ArialMT-74"/>
     <use x="2112.40234375" xlink:href="#ArialMT-61"/>
     <use x="2168.01757812" xlink:href="#ArialMT-72"/>
     <use x="2195.81835938" xlink:href="#ArialMT-2e"/>
     <use x="2223.6015625" xlink:href="#ArialMT-67"/>
     <use x="2279.21679688" xlink:href="#ArialMT-7a"/>
    </g>
   </g>
   <g id="text_14">
    <!-- v2.0.1 -->
    <g style="fill:#808080;" transform="translate(271.38671875 353.080030322)scale(0.1 -0.1)">
     <use xlink:href="#ArialMT-76"/>
     <use x="50.0" xlink:href="#ArialMT-32"/>
     <use x="105.615234375" xlink:href="#ArialMT-2e"/>
     <use x="133.3984375" xlink:href="#ArialMT-30"/>
     <use x="189.013671875" xlink:href="#ArialMT-2e"/>
     <use x="216.796875" xlink:href="#ArialMT-31"/>
    </g>
   </g>
   <g id="legend_1">
    <g id="patch_7">
     <path d="
M70.825 142.086
L208.738 142.086
L208.738 22.9235
L70.825 22.9235
L70.825 142.086
z
" style="fill:#ffffff;opacity:0.2;stroke:#000000;"/>
    </g>
    <g id="line2d_114">
     <path d="
M84.825 38.2392
L112.825 38.2392" style="fill:none;stroke:#000000;stroke-linecap:square;"/>
    </g>
    <g id="line2d_115"/>
    <g id="text_15">
     <!-- 0.5: 5/5 -->
     <defs>
      <path d="
M9.03125 41.8438
L9.03125 51.8594
L19.0469 51.8594
L19.0469 41.8438
z

M9.03125 0
L9.03125 10.0156
L19.0469 10.0156
L19.0469 0
z
" id="ArialMT-3a"/>
     </defs>
     <g transform="translate(134.825 45.2391553218)scale(0.2 -0.2)">
      <use xlink:href="#ArialMT-30"/>
      <use x="55.615234375" xlink:href="#ArialMT-2e"/>
      <use x="83.3984375" xlink:href="#ArialMT-35"/>
      <use x="139.013671875" xlink:href="#ArialMT-3a"/>
      <use x="166.796875" xlink:href="#ArialMT-20"/>
      <use x="194.580078125" xlink:href="#ArialMT-35"/>
      <use x="250.1953125" xlink:href="#ArialMT-2f"/>
      <use x="277.978515625" xlink:href="#ArialMT-35"/>
     </g>
    </g>
    <g id="line2d_116">
     <path d="
M84.825 66.5298
L112.825 66.5298" style="fill:none;stroke:#00bfbf;stroke-linecap:square;"/>
    </g>
    <g id="line2d_117"/>
    <g id="text_16">
     <!-- 2: 5/5 -->
     <g transform="translate(134.825 73.5297803218)scale(0.2 -0.2)">
      <use xlink:href="#ArialMT-32"/>
      <use x="55.615234375" xlink:href="#ArialMT-3a"/>
      <use x="83.3984375" xlink:href="#ArialMT-20"/>
      <use x="111.181640625" xlink:href="#ArialMT-35"/>
      <use x="166.796875" xlink:href="#ArialMT-2f"/>
      <use x="194.580078125" xlink:href="#ArialMT-35"/>
     </g>
    </g>
    <g id="line2d_118">
     <path d="
M84.825 94.8204
L112.825 94.8204" style="fill:none;stroke:#bf00bf;stroke-linecap:square;"/>
    </g>
    <g id="line2d_119"/>
    <g id="text_17">
     <!-- 10: 5/5 -->
     <g transform="translate(134.825 101.820405322)scale(0.2 -0.2)">
      <use xlink:href="#ArialMT-31"/>
      <use x="55.615234375" xlink:href="#ArialMT-30"/>
      <use x="111.23046875" xlink:href="#ArialMT-3a"/>
      <use x="139.013671875" xlink:href="#ArialMT-20"/>
      <use x="166.796875" xlink:href="#ArialMT-35"/>
      <use x="222.412109375" xlink:href="#ArialMT-2f"/>
      <use x="250.1953125" xlink:href="#ArialMT-35"/>
     </g>
    </g>
    <g id="line2d_120">
     <path d="
M84.825 123.111
L112.825 123.111" style="fill:none;stroke:#ff0000;stroke-linecap:square;stroke-width:3.0;"/>
    </g>
    <g id="line2d_121"/>
    <g id="text_18">
     <!-- 50: 3/5 -->
     <defs>
      <path d="
M4.20312 18.8906
L12.9844 20.0625
Q14.5 12.5938 18.1406 9.29688
Q21.7812 6 27 6
Q33.2031 6 37.4688 10.2969
Q41.75 14.5938 41.75 20.9531
Q41.75 27 37.7969 30.9219
Q33.8438 34.8594 27.7344 34.8594
Q25.25 34.8594 21.5312 33.8906
L22.5156 41.6094
Q23.3906 41.5 23.9219 41.5
Q29.5469 41.5 34.0312 44.4219
Q38.5312 47.3594 38.5312 53.4688
Q38.5312 58.2969 35.25 61.4688
Q31.9844 64.6562 26.8125 64.6562
Q21.6875 64.6562 18.2656 61.4219
Q14.8438 58.2031 13.875 51.7656
L5.07812 53.3281
Q6.6875 62.1562 12.3906 67.0156
Q18.1094 71.875 26.6094 71.875
Q32.4688 71.875 37.3906 69.3594
Q42.3281 66.8438 44.9375 62.5
Q47.5625 58.1562 47.5625 53.2656
Q47.5625 48.6406 45.0625 44.8281
Q42.5781 41.0156 37.7031 38.7656
Q44.0469 37.3125 47.5625 32.6875
Q51.0781 28.0781 51.0781 21.1406
Q51.0781 11.7656 44.2344 5.25
Q37.4062 -1.26562 26.9531 -1.26562
Q17.5312 -1.26562 11.2969 4.34375
Q5.07812 9.96875 4.20312 18.8906" id="ArialMT-33"/>
     </defs>
     <g transform="translate(134.825 130.111030322)scale(0.2 -0.2)">
      <use xlink:href="#ArialMT-35"/>
      <use x="55.615234375" xlink:href="#ArialMT-30"/>
      <use x="111.23046875" xlink:href="#ArialMT-3a"/>
      <use x="139.013671875" xlink:href="#ArialMT-20"/>
      <use x="166.796875" xlink:href="#ArialMT-33"/>
      <use x="222.412109375" xlink:href="#ArialMT-2f"/>
      <use x="250.1953125" xlink:href="#ArialMT-35"/>
     </g>
    </g>
   </g>
  </g>
 </g>
 <defs>
  <clipPath id="p0ab5e1e507">
   <rect height="345.6" width="446.4" x="60.825" y="12.9235303218"/>
  </clipPath>
 </defs>
</svg>
