<?xml version="1.0" encoding="utf-8" standalone="no"?>
<!DOCTYPE svg PUBLIC "-//W3C//DTD SVG 1.1//EN"
  "http://www.w3.org/Graphics/SVG/1.1/DTD/svg11.dtd">
<!-- Created with matplotlib (http://matplotlib.org/) -->
<svg height="406pt" version="1.1" viewBox="0 0 460 406" width="460pt" xmlns="http://www.w3.org/2000/svg" xmlns:xlink="http://www.w3.org/1999/xlink">
 <defs>
  <style type="text/css">
*{stroke-linecap:butt;stroke-linejoin:round;}
  </style>
 </defs>
 <g id="figure_1">
  <g id="patch_1">
   <path d="
M0 406.059
L460.8 406.059
L460.8 0
L0 0
z
" style="fill:#ffffff;"/>
  </g>
  <g id="axes_1">
   <g id="patch_2">
    <path d="
M7.2 352.8
L453.6 352.8
L453.6 7.2
L7.2 7.2
z
" style="fill:#ffffff;"/>
   </g>
   <g id="line2d_1">
    <path clip-path="url(#p5bee155178)" d="
M-1 280.562
L-0.733125 280.562
L-0.733125 279.612
L-0.316112 279.612
L-0.316112 278.661
L0.644219 278.661
L0.644219 277.711
L1.32546 277.711
L1.33249 275.81
L1.65005 275.81
L1.65005 274.859
L2.0998 274.859
L2.0998 273.909
L3.66247 273.909
L3.66247 272.958
L4.2139 272.958
L4.2139 272.008
L4.35344 272.008
L4.37287 270.107
L4.64574 270.107
L4.64574 269.156
L6.02651 269.156
L6.10491 267.255
L6.7431 267.255
L6.79758 265.354
L7.11678 265.354
L7.11678 264.404
L8.18483 264.404
L8.18483 263.453
L8.4071 263.453
L8.4071 262.503
L8.69033 262.503
L8.69033 261.552
L9.45521 261.552
L9.45521 260.602
L11.3274 260.602
L11.3274 259.651
L12.4664 259.651
L12.4664 258.701
L13.4357 258.701
L13.4357 257.75
L17.7333 257.75
L17.7333 256.8
L18.0334 256.8
L18.0334 255.85
L25.1871 255.85
L25.1871 254.899
L32.8045 254.899
L32.8045 253.949
L41.6577 253.949
L41.6577 252.998
L44.2701 252.998
L44.2701 252.048
L73.95 252.048
L73.95 251.097
L76.43 251.097
L76.43 250.147
L78.7708 250.147
L78.7708 249.196
L93.5696 249.196
L93.5696 248.246
L94.1684 248.246
L94.1684 247.295
L101.247 247.295
L101.247 246.345
L106.831 246.345
L106.831 245.394
L114.737 245.394
L114.737 244.444
L116.717 244.444
L116.717 243.493
L121.272 243.493
L121.272 242.543
L123.339 242.543
L123.339 241.592
L126.359 241.592
L126.359 240.642
L130.014 240.642
L130.014 239.691
L132.097 239.691
L132.097 238.741
L133.861 238.741
L133.861 237.79
L134.061 237.79
L134.061 236.84
L135.617 236.84
L135.617 235.889
L135.889 235.889
L135.889 234.939
L137.153 234.939
L137.153 233.988
L139.912 233.988
L139.994 232.087
L140.509 232.087
L140.509 231.137
L146.277 231.137
L146.277 230.186
L147.56 230.186
L147.56 229.236
L151.506 229.236
L151.506 228.285
L154.323 228.285
L154.323 227.335
L155.782 227.335
L155.782 226.384
L158.544 226.384
L158.544 225.434
L158.658 225.434
L158.658 224.483
L161.827 224.483
L161.827 223.533
L162.006 223.533
L162.006 222.582
L164.215 222.582
L164.215 221.632
L167.326 221.632
L167.326 220.681
L167.822 220.681
L167.822 219.731
L169.938 219.731
L169.938 218.78
L170.92 218.78
L170.92 217.83
L171.988 217.83
L171.988 216.879
L176.908 216.879
L176.908 215.929
L182.342 215.929
L182.342 214.978
L193.893 214.978
L193.893 214.028
L195.395 214.028
L195.395 213.077
L196.229 213.077
L196.229 212.127
L196.803 212.127
L196.803 211.176
L198.176 211.176
L198.176 210.226
L198.873 210.226
L198.873 209.275
L199.11 209.275
L199.11 208.325
L199.632 208.325
L199.632 207.374
L200.661 207.374
L200.661 206.424
L201.181 206.424
L201.181 205.473
L201.363 205.473
L201.363 204.523
L202.917 204.523
L202.917 203.572
L203.114 203.572
L203.114 202.622
L204.558 202.622
L204.558 201.671
L204.694 201.671
L204.694 200.721
L205.639 200.721
L205.639 199.77
L205.906 199.77
L205.906 198.82
L206.41 198.82
L206.41 197.869
L207.888 197.869
L207.888 196.919
L208.241 196.919
L208.313 195.018
L208.463 195.018
L208.463 194.067
L208.685 194.067
L208.685 193.117
L208.967 193.117
L208.967 192.166
L209.26 192.166
L209.26 191.216
L210.089 191.216
L210.089 190.265
L210.292 190.265
L210.292 189.315
L210.502 189.315
L210.502 188.364
L211.165 188.364
L211.165 187.414
L211.5 187.414
L211.5 186.463
L211.911 186.463
L211.911 185.513
L212.398 185.513
L212.498 182.661
L212.637 182.661
L212.637 181.711
L212.785 181.711
L212.785 180.76
L212.913 180.76
L213.008 177.909
L213.859 177.909
L213.859 176.958
L214.004 176.958
L214.004 176.008
L214.166 176.008
L214.166 175.057
L214.681 175.057
L214.681 174.107
L215.172 174.107
L215.256 172.206
L215.487 172.206
L215.487 171.255
L216.721 171.255
L216.721 170.305
L216.939 170.305
L216.939 169.354
L217.153 169.354
L217.153 168.404
L217.448 168.404
L217.558 166.503
L217.708 166.503
L217.708 165.552
L218.455 165.552
L218.455 164.602
L218.898 164.602
L218.961 162.701
L219.047 162.701
L219.047 161.75
L219.639 161.75
L219.729 158.899
L219.823 158.899
L219.823 157.949
L220.583 157.949
L220.674 156.048
L220.829 156.048
L220.871 154.147
L221 154.147
L221 153.196
L221.672 153.196
L221.672 152.246
L221.886 152.246
L221.886 151.295
L222.114 151.295
L222.114 150.345
L222.26 150.345
L222.361 147.493
L222.665 147.493
L222.665 146.543
L222.834 146.543
L222.921 144.642
L223.283 144.642
L223.283 143.691
L223.934 143.691
L223.963 141.79
L224.228 141.79
L224.228 140.84
L224.347 140.84
L224.347 139.889
L224.641 139.889
L224.641 138.939
L224.756 138.939
L224.858 136.087
L224.96 136.087
L225.06 133.236
L225.114 133.236
L225.163 131.335
L225.364 131.335
L225.364 129.434
L226.49 129.434
L226.49 128.483
L226.643 128.483
L226.643 127.533
L226.775 127.533
L226.775 126.582
L227.025 126.582
L227.025 125.632
L227.334 125.632
L227.426 122.78
L228.061 122.78
L228.068 120.879
L228.709 120.879
L228.709 119.929
L228.865 119.929
L228.865 118.978
L229.21 118.978
L229.21 118.028
L229.639 118.028
L229.685 115.176
L229.952 115.176
L229.952 114.226
L230.24 114.226
L230.24 113.275
L230.37 113.275
L230.37 111.374
L230.687 111.374
L230.687 110.424
L231.236 110.424
L231.328 107.572
L231.66 107.572
L231.66 106.622
L232.587 106.622
L232.587 105.671
L232.825 105.671
L232.825 101.869
L232.966 101.869
L232.966 100.919
L233.184 100.919
L233.197 99.0178
L234.742 99.0178
L234.742 98.0673
L234.862 98.0673
L234.862 97.1168
L235.512 97.1168
L235.512 96.1663
L235.712 96.1663
L235.712 95.2158
L236.472 95.2158
L236.528 93.3149
L236.742 93.3149
L236.742 92.3644
L237.32 92.3644
L237.32 91.4139
L237.591 91.4139
L237.591 88.5624
L237.765 88.5624
L237.788 86.6614
L238.266 86.6614
L238.273 84.7604
L238.462 84.7604
L238.547 82.8594
L238.672 82.8594
L238.672 81.9089
L239.35 81.9089
L239.388 79.0574
L239.842 79.0574
L239.842 77.1564
L240.171 77.1564
L240.171 76.2059
L240.873 76.2059
L240.873 75.2554
L241.05 75.2554
L241.05 74.305
L242.118 74.305
L242.216 71.4535
L242.998 71.4535
L242.998 70.503
L243.418 70.503
L243.418 66.701
L244.506 66.701
L244.506 61.9485
L244.693 61.9485
L244.693 60.0475
L245.136 60.0475
L245.136 59.097
L245.254 59.097
L245.257 57.196
L246.036 57.196
L246.036 56.2455
L246.411 56.2455
L246.465 54.3446
L246.609 54.3446
L246.609 53.3941
L246.789 53.3941
L246.789 52.4436
L246.934 52.4436
L246.934 51.4931
L247.256 51.4931
L247.256 49.5921
L247.597 49.5921
L247.597 48.6416
L247.781 48.6416
L247.781 47.6911
L248.043 47.6911
L248.043 46.7406
L248.253 46.7406
L248.277 44.8396
L248.609 44.8396
L248.678 41.9881
L248.774 41.9881
L248.88 40.0871
L249.676 40.0871
L249.676 39.1366
L250.075 39.1366
L250.123 37.2356
L250.362 37.2356
L250.362 36.2851
L250.74 36.2851
L250.831 33.4337
L251.053 33.4337
L251.053 32.4832
L252.164 32.4832
L252.164 31.5327
L252.412 31.5327
L252.503 25.8297
L252.919 25.8297
L252.919 24.8792
L253.405 24.8792
L253.405 23.9287
L253.768 23.9287
L253.87 22.0277
L254.098 22.0277
L254.098 21.0772
L254.245 21.0772
L254.245 20.1267
L254.748 20.1267
L254.748 19.1762
L256.039 19.1762
L256.039 18.2257
L256.686 18.2257
L256.686 17.2752
L256.844 17.2752
L256.844 16.3248
L257.378 16.3248
L257.378 15.3743
L258.647 15.3743
L258.647 14.4238
L260.09 14.4238
L260.09 13.4733
L260.295 13.4733
L260.295 12.5228
L260.784 12.5228
L260.784 11.5723
L265.451 11.5723
L265.451 10.6218
L265.451 10.6218
L453.6 10.6218
L453.6 10.6218" style="fill:none;stroke:#ff0000;stroke-linecap:square;stroke-width:3.0;"/>
   </g>
   <g id="line2d_2">
    <path clip-path="url(#p5bee155178)" d="
M232.606 352.8
L232.606 351.85
L233.55 351.85
L233.55 350.899
L237.148 350.899
L237.148 349.949
L238.712 349.949
L238.712 348.998
L238.867 348.998
L238.867 348.048
L240.483 348.048
L240.483 347.097
L241.073 347.097
L241.073 346.147
L241.433 346.147
L241.433 345.196
L241.577 345.196
L241.577 344.246
L242.588 344.246
L242.588 343.295
L243.043 343.295
L243.043 342.345
L244.852 342.345
L244.852 341.394
L244.991 341.394
L244.991 340.444
L245.289 340.444
L245.289 339.493
L245.524 339.493
L245.635 337.592
L245.702 337.592
L245.702 336.642
L246.5 336.642
L246.5 335.691
L247.206 335.691
L247.206 334.741
L248.116 334.741
L248.116 333.79
L248.333 333.79
L248.444 330.939
L248.858 330.939
L248.858 329.988
L249.012 329.988
L249.022 328.087
L249.457 328.087
L249.457 327.137
L249.679 327.137
L249.694 325.236
L249.855 325.236
L249.917 323.335
L250.432 323.335
L250.432 322.384
L250.599 322.384
L250.61 320.483
L251.507 320.483
L251.61 318.582
L251.924 318.582
L251.924 317.632
L252.072 317.632
L252.072 316.681
L252.206 316.681
L252.206 315.731
L252.593 315.731
L252.615 313.83
L252.776 313.83
L252.776 312.879
L253.033 312.879
L253.033 311.929
L253.201 311.929
L253.201 310.978
L253.363 310.978
L253.473 309.077
L253.93 309.077
L253.93 308.127
L254.077 308.127
L254.077 307.176
L254.226 307.176
L254.226 306.226
L254.403 306.226
L254.499 304.325
L254.535 304.325
L254.535 303.374
L254.878 303.374
L254.878 302.424
L255.36 302.424
L255.36 301.473
L255.521 301.473
L255.521 300.523
L255.991 300.523
L255.991 299.572
L256.197 299.572
L256.28 296.721
L256.538 296.721
L256.538 295.77
L256.675 295.77
L256.697 293.869
L257.775 293.869
L257.775 292.919
L258.181 292.919
L258.181 291.968
L258.754 291.968
L258.754 291.018
L259.035 291.018
L259.108 289.117
L259.329 289.117
L259.329 288.166
L259.448 288.166
L259.509 286.265
L260.219 286.265
L260.219 285.315
L260.345 285.315
L260.372 283.414
L261.052 283.414
L261.052 282.463
L261.684 282.463
L261.684 281.513
L261.951 281.513
L262.022 279.612
L262.166 279.612
L262.166 278.661
L262.282 278.661
L262.282 277.711
L262.429 277.711
L262.429 276.76
L262.785 276.76
L262.89 274.859
L263.089 274.859
L263.089 273.909
L263.341 273.909
L263.395 272.008
L263.465 272.008
L263.555 270.107
L263.639 270.107
L263.639 269.156
L263.812 269.156
L263.853 266.305
L263.963 266.305
L263.963 265.354
L264.111 265.354
L264.218 263.453
L264.234 263.453
L264.322 261.552
L264.381 261.552
L264.452 259.651
L264.841 259.651
L264.841 258.701
L265.034 258.701
L265.109 256.8
L265.251 256.8
L265.341 252.048
L265.689 252.048
L265.789 250.147
L265.801 250.147
L265.839 247.295
L266.064 247.295
L266.111 244.444
L266.181 244.444
L266.187 242.543
L266.348 242.543
L266.348 241.592
L266.577 241.592
L266.637 238.741
L266.763 238.741
L266.846 236.84
L266.894 236.84
L266.934 234.939
L267.263 234.939
L267.351 232.087
L267.44 232.087
L267.492 230.186
L267.716 230.186
L267.716 229.236
L267.848 229.236
L267.939 227.335
L268.371 227.335
L268.404 225.434
L268.582 225.434
L268.644 223.533
L268.914 223.533
L268.914 222.582
L269.071 222.582
L269.071 221.632
L269.299 221.632
L269.299 220.681
L269.694 220.681
L269.783 217.83
L270.171 217.83
L270.229 215.929
L270.587 215.929
L270.587 214.978
L270.906 214.978
L270.906 214.028
L271.546 214.028
L271.63 212.127
L271.721 212.127
L271.829 209.275
L272.007 209.275
L272.007 208.325
L272.121 208.325
L272.121 207.374
L272.426 207.374
L272.459 205.473
L272.551 205.473
L272.551 204.523
L272.665 204.523
L272.665 203.572
L272.827 203.572
L272.924 200.721
L273.032 200.721
L273.032 199.77
L273.294 199.77
L273.294 198.82
L273.789 198.82
L273.834 196.919
L274.054 196.919
L274.142 195.018
L274.32 195.018
L274.32 194.067
L274.554 194.067
L274.554 193.117
L275.116 193.117
L275.116 192.166
L275.458 192.166
L275.458 190.265
L276.209 190.265
L276.209 189.315
L276.406 189.315
L276.406 188.364
L276.792 188.364
L276.792 187.414
L277.358 187.414
L277.358 186.463
L277.861 186.463
L277.861 185.513
L278.24 185.513
L278.24 184.562
L278.526 184.562
L278.526 183.612
L279.026 183.612
L279.026 182.661
L279.183 182.661
L279.247 180.76
L279.683 180.76
L279.683 179.81
L280.489 179.81
L280.489 178.859
L280.612 178.859
L280.699 176.008
L281.262 176.008
L281.262 175.057
L281.466 175.057
L281.466 174.107
L281.829 174.107
L281.911 170.305
L282.359 170.305
L282.394 168.404
L282.657 168.404
L282.657 167.453
L283.009 167.453
L283.009 166.503
L283.424 166.503
L283.424 165.552
L283.754 165.552
L283.754 164.602
L284.026 164.602
L284.026 163.651
L284.254 163.651
L284.317 161.75
L285.059 161.75
L285.059 160.8
L286.848 160.8
L286.848 159.85
L287.292 159.85
L287.292 158.899
L287.675 158.899
L287.675 157.949
L287.907 157.949
L287.96 156.048
L288.721 156.048
L288.721 155.097
L289.463 155.097
L289.463 154.147
L290.583 154.147
L290.664 152.246
L290.924 152.246
L290.924 151.295
L291.806 151.295
L291.806 150.345
L292.801 150.345
L292.846 148.444
L293.037 148.444
L293.071 146.543
L293.306 146.543
L293.306 145.592
L293.792 145.592
L293.814 143.691
L294.236 143.691
L294.236 142.741
L294.525 142.741
L294.525 141.79
L294.755 141.79
L294.755 140.84
L295.464 140.84
L295.464 139.889
L295.926 139.889
L296.02 137.988
L296.484 137.988
L296.484 137.038
L296.919 137.038
L296.919 136.087
L297.584 136.087
L297.584 135.137
L297.707 135.137
L297.707 134.186
L297.923 134.186
L297.923 133.236
L298.354 133.236
L298.354 132.285
L298.535 132.285
L298.535 131.335
L298.798 131.335
L298.798 130.384
L299.654 130.384
L299.654 129.434
L299.836 129.434
L299.836 128.483
L301.082 128.483
L301.082 127.533
L301.872 127.533
L301.872 126.582
L302.413 126.582
L302.413 125.632
L302.786 125.632
L302.786 124.681
L304.693 124.681
L304.693 123.731
L305.336 123.731
L305.336 122.78
L306.011 122.78
L306.102 120.879
L307.637 120.879
L307.637 119.929
L308.58 119.929
L308.58 118.978
L310.03 118.978
L310.03 118.028
L310.482 118.028
L310.482 117.077
L312.315 117.077
L312.315 116.127
L315.844 116.127
L315.844 115.176
L316.591 115.176
L316.591 114.226
L317.337 114.226
L317.337 113.275
L318.481 113.275
L318.481 112.325
L320.806 112.325
L320.806 111.374
L321.031 111.374
L321.031 110.424
L321.198 110.424
L321.198 109.473
L321.507 109.473
L321.507 108.523
L321.928 108.523
L321.928 107.572
L322.899 107.572
L322.931 105.671
L324.747 105.671
L324.747 104.721
L324.984 104.721
L324.984 103.77
L325.736 103.77
L325.736 102.82
L326.585 102.82
L326.607 100.919
L328.184 100.919
L328.184 99.9683
L328.774 99.9683
L328.774 99.0178
L329.612 99.0178
L329.612 98.0673
L331.291 98.0673
L331.291 97.1168
L331.766 97.1168
L331.766 96.1663
L333.006 96.1663
L333.006 95.2158
L333.12 95.2158
L333.12 94.2653
L333.609 94.2653
L333.609 93.3149
L334.704 93.3149
L334.704 92.3644
L335.259 92.3644
L335.259 91.4139
L335.871 91.4139
L335.871 90.4634
L336.103 90.4634
L336.103 89.5129
L336.275 89.5129
L336.275 88.5624
L336.435 88.5624
L336.435 87.6119
L336.596 87.6119
L336.596 86.6614
L338.197 86.6614
L338.197 85.7109
L338.917 85.7109
L338.917 84.7604
L339.872 84.7604
L339.872 83.8099
L340.453 83.8099
L340.453 82.8594
L340.943 82.8594
L340.943 81.9089
L342.514 81.9089
L342.514 80.9584
L343.693 80.9584
L343.693 80.0079
L345.195 80.0079
L345.195 79.0574
L346.213 79.0574
L346.213 78.1069
L346.777 78.1069
L346.777 77.1564
L349.039 77.1564
L349.039 76.2059
L349.674 76.2059
L349.674 75.2554
L350.432 75.2554
L350.432 74.305
L350.727 74.305
L350.727 73.3545
L351.312 73.3545
L351.312 72.404
L353.403 72.404
L353.403 71.4535
L354.044 71.4535
L354.151 69.5525
L355.683 69.5525
L355.778 67.6515
L355.939 67.6515
L355.939 66.701
L357.067 66.701
L357.067 65.7505
L360.564 65.7505
L360.564 64.8
L360.845 64.8
L360.845 63.8495
L361.943 63.8495
L362.041 61.9485
L363.154 61.9485
L363.154 60.998
L365.512 60.998
L365.512 60.0475
L366.157 60.0475
L366.157 59.097
L368.831 59.097
L368.94 57.196
L369.027 57.196
L369.027 56.2455
L369.585 56.2455
L369.585 55.295
L369.704 55.295
L369.704 54.3446
L370.264 54.3446
L370.264 53.3941
L375.816 53.3941
L375.816 52.4436
L377.929 52.4436
L377.929 51.4931
L383.729 51.4931
L383.816 49.5921
L383.916 49.5921
L383.916 48.6416
L386.122 48.6416
L386.122 47.6911
L388.16 47.6911
L388.16 46.7406
L388.89 46.7406
L388.89 45.7901
L390.276 45.7901
L390.276 44.8396
L393.287 44.8396
L393.287 43.8891
L395.577 43.8891
L395.577 42.9386
L396.541 42.9386
L396.541 41.9881
L398.597 41.9881
L398.597 41.0376
L399.335 41.0376
L399.335 40.0871
L399.488 40.0871
L399.488 39.1366
L399.748 39.1366
L399.748 38.1861
L399.99 38.1861
L399.99 37.2356
L400.647 37.2356
L400.647 36.2851
L401.458 36.2851
L401.458 35.3347
L402.553 35.3347
L402.592 33.4337
L404.168 33.4337
L404.168 32.4832
L406.251 32.4832
L406.282 30.5822
L408.899 30.5822
L408.899 29.6317
L410.784 29.6317
L410.784 28.6812
L411.656 28.6812
L411.656 27.7307
L412.816 27.7307
L412.816 26.7802
L412.992 26.7802
L412.992 25.8297
L414.019 25.8297
L414.019 24.8792
L415.028 24.8792
L415.028 23.9287
L415.514 23.9287
L415.514 22.9782
L416.004 22.9782
L416.004 22.0277
L418.569 22.0277
L418.569 21.0772
L419.175 21.0772
L419.175 20.1267
L419.773 20.1267
L419.773 19.1762
L420.073 19.1762
L420.073 18.2257
L420.507 18.2257
L420.507 17.2752
L421.243 17.2752
L421.243 16.3248
L423.352 16.3248
L423.352 15.3743
L424.197 15.3743
L424.197 14.4238
L424.508 14.4238
L424.508 13.4733
L430.896 13.4733
L430.896 12.5228
L438.124 12.5228
L438.124 11.5723
L439.787 11.5723
L439.787 10.6218
L439.787 10.6218
L453.6 10.6218
L453.6 10.6218" style="fill:none;stroke:#00bfbf;stroke-linecap:square;"/>
   </g>
   <g id="line2d_3">
    <path clip-path="url(#p5bee155178)" d="
M226.367 352.8
L226.367 351.85
L233.55 351.85
L233.55 350.899
L234.286 350.899
L234.286 349.949
L235.333 349.949
L235.333 348.998
L235.769 348.998
L235.769 348.048
L236.058 348.048
L236.058 347.097
L237.148 347.097
L237.148 346.147
L237.63 346.147
L237.63 345.196
L238.712 345.196
L238.712 344.246
L238.867 344.246
L238.867 343.295
L239.408 343.295
L239.408 342.345
L239.858 342.345
L239.858 341.394
L240.261 341.394
L240.261 340.444
L240.483 340.444
L240.483 339.493
L241.073 339.493
L241.073 338.543
L241.577 338.543
L241.577 337.592
L241.787 337.592
L241.787 336.642
L242.588 336.642
L242.588 335.691
L243.372 335.691
L243.372 334.741
L243.532 334.741
L243.532 333.79
L244.471 333.79
L244.471 332.84
L244.62 332.84
L244.62 331.889
L244.991 331.889
L244.991 330.939
L245.289 330.939
L245.289 329.988
L245.451 329.988
L245.524 328.087
L245.702 328.087
L245.702 327.137
L245.903 327.137
L245.903 326.186
L246.266 326.186
L246.369 324.285
L246.705 324.285
L246.776 322.384
L247.206 322.384
L247.206 321.434
L247.984 321.434
L248.042 319.533
L248.116 319.533
L248.116 318.582
L248.858 318.582
L248.936 316.681
L249.07 316.681
L249.07 315.731
L249.303 315.731
L249.303 314.78
L249.679 314.78
L249.679 313.83
L249.803 313.83
L249.855 311.929
L250.032 311.929
L250.055 310.028
L250.432 310.028
L250.432 309.077
L250.61 309.077
L250.662 307.176
L251.549 307.176
L251.549 306.226
L251.736 306.226
L251.748 304.325
L251.924 304.325
L251.924 303.374
L252.072 303.374
L252.072 302.424
L252.507 302.424
L252.615 300.523
L253.033 300.523
L253.033 299.572
L253.201 299.572
L253.201 298.622
L253.473 298.622
L253.473 297.671
L253.899 297.671
L253.93 295.77
L254.077 295.77
L254.077 294.82
L254.535 294.82
L254.535 293.869
L254.842 293.869
L254.878 291.968
L255.005 291.968
L255.07 290.067
L255.507 290.067
L255.507 289.117
L255.861 289.117
L255.972 285.315
L256.197 285.315
L256.28 282.463
L256.318 282.463
L256.415 279.612
L256.538 279.612
L256.538 278.661
L256.675 278.661
L256.675 277.711
L257.177 277.711
L257.177 276.76
L257.768 276.76
L257.768 275.81
L258.181 275.81
L258.181 274.859
L258.587 274.859
L258.603 272.958
L258.719 272.958
L258.798 270.107
L258.834 270.107
L258.834 269.156
L259.001 269.156
L259.035 267.255
L259.318 267.255
L259.318 266.305
L259.448 266.305
L259.448 265.354
L259.731 265.354
L259.837 262.503
L260.44 262.503
L260.44 261.552
L261.052 261.552
L261.106 259.651
L261.308 259.651
L261.308 258.701
L261.574 258.701
L261.662 254.899
L262.022 254.899
L262.022 253.949
L262.166 253.949
L262.166 252.998
L262.741 252.998
L262.785 250.147
L262.94 250.147
L262.94 249.196
L263.341 249.196
L263.439 247.295
L263.684 247.295
L263.684 246.345
L263.812 246.345
L263.853 244.444
L264.111 244.444
L264.162 242.543
L264.381 242.543
L264.452 240.642
L264.631 240.642
L264.631 239.691
L264.815 239.691
L264.815 238.741
L265.034 238.741
L265.121 236.84
L265.287 236.84
L265.312 234.939
L265.503 234.939
L265.603 232.087
L265.689 232.087
L265.775 227.335
L265.813 227.335
L265.885 224.483
L265.962 224.483
L265.962 223.533
L266.166 223.533
L266.166 222.582
L266.312 222.582
L266.359 219.731
L266.577 219.731
L266.637 215.929
L266.846 215.929
L266.894 214.028
L267.263 214.028
L267.263 213.077
L267.44 213.077
L267.453 211.176
L267.848 211.176
L267.848 210.226
L268.163 210.226
L268.163 209.275
L268.295 209.275
L268.295 208.325
L268.644 208.325
L268.664 206.424
L268.784 206.424
L268.784 205.473
L269.173 205.473
L269.173 204.523
L269.653 204.523
L269.694 201.671
L269.838 201.671
L269.889 199.77
L270.171 199.77
L270.229 197.869
L270.396 197.869
L270.396 196.919
L270.587 196.919
L270.587 195.968
L271.094 195.968
L271.094 195.018
L271.656 195.018
L271.721 193.117
L271.829 193.117
L271.869 191.216
L272.066 191.216
L272.066 190.265
L272.27 190.265
L272.27 189.315
L272.665 189.315
L272.665 188.364
L273.032 188.364
L273.032 187.414
L273.262 187.414
L273.262 186.463
L273.653 186.463
L273.653 185.513
L274.054 185.513
L274.142 183.612
L274.32 183.612
L274.32 182.661
L274.605 182.661
L274.709 180.76
L274.958 180.76
L275.015 178.859
L275.116 178.859
L275.116 177.909
L275.458 177.909
L275.458 176.958
L276.209 176.958
L276.209 176.008
L276.683 176.008
L276.683 175.057
L277.861 175.057
L277.861 174.107
L278.092 174.107
L278.092 173.156
L278.358 173.156
L278.358 172.206
L278.49 172.206
L278.493 170.305
L278.684 170.305
L278.741 168.404
L279.026 168.404
L279.073 166.503
L279.176 166.503
L279.207 163.651
L279.335 163.651
L279.335 162.701
L279.548 162.701
L279.548 161.75
L280.034 161.75
L280.034 160.8
L280.438 160.8
L280.489 158.899
L280.673 158.899
L280.699 156.998
L281.373 156.998
L281.373 156.048
L281.829 156.048
L281.887 154.147
L282.078 154.147
L282.078 153.196
L282.359 153.196
L282.414 150.345
L283.754 150.345
L283.754 149.394
L284.773 149.394
L284.773 148.444
L286.848 148.444
L286.848 147.493
L287.007 147.493
L287.007 146.543
L287.351 146.543
L287.351 145.592
L288.751 145.592
L288.751 144.642
L290.583 144.642
L290.583 143.691
L291.235 143.691
L291.308 141.79
L291.591 141.79
L291.591 140.84
L291.806 140.84
L291.806 139.889
L291.943 139.889
L291.943 138.939
L292.088 138.939
L292.088 137.988
L292.378 137.988
L292.378 137.038
L293.216 137.038
L293.216 136.087
L293.569 136.087
L293.569 135.137
L293.769 135.137
L293.769 134.186
L294.236 134.186
L294.236 133.236
L295.291 133.236
L295.291 132.285
L295.478 132.285
L295.478 131.335
L295.888 131.335
L295.947 128.483
L296.02 128.483
L296.02 127.533
L296.484 127.533
L296.542 125.632
L297.354 125.632
L297.354 124.681
L297.707 124.681
L297.707 123.731
L299.654 123.731
L299.654 122.78
L299.836 122.78
L299.836 121.83
L301.207 121.83
L301.207 120.879
L301.872 120.879
L301.912 118.978
L305.336 118.978
L305.336 118.028
L306.011 118.028
L306.102 116.127
L306.424 116.127
L306.424 115.176
L307.637 115.176
L307.637 114.226
L308.58 114.226
L308.58 113.275
L310.03 113.275
L310.03 112.325
L310.482 112.325
L310.482 111.374
L311.391 111.374
L311.391 110.424
L313.57 110.424
L313.57 109.473
L314.225 109.473
L314.225 108.523
L314.601 108.523
L314.601 107.572
L315.305 107.572
L315.305 106.622
L316.647 106.622
L316.647 105.671
L318.05 105.671
L318.05 104.721
L318.507 104.721
L318.507 103.77
L321.031 103.77
L321.13 101.869
L321.198 101.869
L321.198 100.919
L321.507 100.919
L321.507 99.9683
L321.928 99.9683
L321.928 99.0178
L322.401 99.0178
L322.401 98.0673
L323.248 98.0673
L323.248 97.1168
L324.747 97.1168
L324.802 94.2653
L324.984 94.2653
L324.984 93.3149
L325.736 93.3149
L325.736 92.3644
L326.073 92.3644
L326.073 91.4139
L326.307 91.4139
L326.307 90.4634
L327.35 90.4634
L327.35 89.5129
L328.474 89.5129
L328.474 88.5624
L329.612 88.5624
L329.612 87.6119
L330.202 87.6119
L330.202 86.6614
L331.044 86.6614
L331.044 85.7109
L331.287 85.7109
L331.311 83.8099
L331.537 83.8099
L331.645 81.9089
L333.609 81.9089
L333.609 80.9584
L335.259 80.9584
L335.259 80.0079
L336.275 80.0079
L336.275 79.0574
L337.842 79.0574
L337.842 78.1069
L339.91 78.1069
L339.91 77.1564
L340.368 77.1564
L340.453 75.2554
L342.514 75.2554
L342.514 74.305
L343.012 74.305
L343.012 73.3545
L343.294 73.3545
L343.294 72.404
L343.742 72.404
L343.742 71.4535
L345.587 71.4535
L345.587 70.503
L346.777 70.503
L346.777 69.5525
L348.996 69.5525
L348.996 68.602
L349.674 68.602
L349.674 67.6515
L350.432 67.6515
L350.432 66.701
L350.892 66.701
L350.892 65.7505
L351.312 65.7505
L351.312 64.8
L353.403 64.8
L353.403 63.8495
L353.782 63.8495
L353.782 62.899
L354.044 62.899
L354.044 61.9485
L355.778 61.9485
L355.778 60.998
L355.939 60.998
L355.939 60.0475
L360.845 60.0475
L360.845 59.097
L361.11 59.097
L361.11 58.1465
L361.352 58.1465
L361.352 57.196
L362.938 57.196
L362.938 56.2455
L363.154 56.2455
L363.154 55.295
L363.591 55.295
L363.591 54.3446
L364.35 54.3446
L364.35 53.3941
L365.512 53.3941
L365.512 52.4436
L365.996 52.4436
L365.996 51.4931
L366.151 51.4931
L366.151 50.5426
L366.667 50.5426
L366.667 49.5921
L368.665 49.5921
L368.665 48.6416
L368.94 48.6416
L368.94 47.6911
L369.704 47.6911
L369.704 46.7406
L370.264 46.7406
L370.264 45.7901
L373.762 45.7901
L373.762 44.8396
L374.133 44.8396
L374.133 43.8891
L375.432 43.8891
L375.432 42.9386
L376.971 42.9386
L376.971 41.9881
L377.929 41.9881
L377.929 41.0376
L379.729 41.0376
L379.729 40.0871
L381.593 40.0871
L381.593 39.1366
L381.997 39.1366
L381.997 38.1861
L382.78 38.1861
L382.804 36.2851
L383.513 36.2851
L383.513 35.3347
L383.916 35.3347
L383.916 34.3842
L387.521 34.3842
L387.521 33.4337
L389.324 33.4337
L389.324 32.4832
L389.93 32.4832
L389.93 31.5327
L394.442 31.5327
L394.442 30.5822
L395.155 30.5822
L395.155 29.6317
L397.693 29.6317
L397.693 28.6812
L400.647 28.6812
L400.647 27.7307
L400.759 27.7307
L400.759 26.7802
L401.818 26.7802
L401.818 25.8297
L408.087 25.8297
L408.087 24.8792
L410.784 24.8792
L410.784 23.9287
L411.656 23.9287
L411.656 22.9782
L412.092 22.9782
L412.092 22.0277
L414.019 22.0277
L414.019 21.0772
L415.028 21.0772
L415.028 20.1267
L415.54 20.1267
L415.54 19.1762
L416.004 19.1762
L416.004 18.2257
L417.345 18.2257
L417.345 17.2752
L418.475 17.2752
L418.475 16.3248
L419.175 16.3248
L419.175 15.3743
L420.399 15.3743
L420.399 14.4238
L423.836 14.4238
L423.836 13.4733
L424.508 13.4733
L424.508 12.5228
L430.262 12.5228
L430.262 11.5723
L436.051 11.5723
L436.051 10.6218
L436.051 10.6218
L453.6 10.6218
L453.6 10.6218" style="fill:none;stroke:#bf00bf;stroke-linecap:square;"/>
   </g>
   <g id="line2d_4">
    <path clip-path="url(#p5bee155178)" d="
M226.367 352.8
L226.367 351.85
L227.204 351.85
L227.204 350.899
L228.253 350.899
L228.253 349.949
L228.666 349.949
L228.666 348.998
L230.428 348.998
L230.428 348.048
L232.219 348.048
L232.219 347.097
L233.55 347.097
L233.55 346.147
L234.286 346.147
L234.286 345.196
L235.333 345.196
L235.333 344.246
L235.555 344.246
L235.555 343.295
L235.769 343.295
L235.827 341.394
L236.058 341.394
L236.058 340.444
L237.018 340.444
L237.018 339.493
L237.148 339.493
L237.148 338.543
L237.289 338.543
L237.346 336.642
L237.481 336.642
L237.481 335.691
L237.63 335.691
L237.63 334.741
L237.923 334.741
L237.923 333.79
L238.353 333.79
L238.353 332.84
L238.712 332.84
L238.712 331.889
L238.867 331.889
L238.867 330.939
L239.74 330.939
L239.815 329.038
L239.858 329.038
L239.858 328.087
L240.261 328.087
L240.261 327.137
L240.483 327.137
L240.483 326.186
L240.666 326.186
L240.711 324.285
L240.871 324.285
L240.871 323.335
L242.389 323.335
L242.497 321.434
L242.588 321.434
L242.588 320.483
L242.717 320.483
L242.778 318.582
L242.911 318.582
L242.911 317.632
L243.105 317.632
L243.206 312.879
L243.372 312.879
L243.372 311.929
L243.532 311.929
L243.532 310.978
L244.211 310.978
L244.211 310.028
L244.972 310.028
L244.972 309.077
L245.206 309.077
L245.207 307.176
L245.455 307.176
L245.547 305.275
L245.702 305.275
L245.702 304.325
L246.121 304.325
L246.121 303.374
L246.369 303.374
L246.457 301.473
L247.024 301.473
L247.024 300.523
L247.241 300.523
L247.241 299.572
L248.014 299.572
L248.122 295.77
L248.126 295.77
L248.232 293.869
L248.381 293.869
L248.381 292.919
L248.858 292.919
L248.936 291.018
L249.36 291.018
L249.36 290.067
L250.032 290.067
L250.058 287.216
L250.227 287.216
L250.279 285.315
L250.366 285.315
L250.471 283.414
L251.332 283.414
L251.332 282.463
L251.515 282.463
L251.515 281.513
L251.924 281.513
L251.924 280.562
L252.072 280.562
L252.072 279.612
L252.31 279.612
L252.31 278.661
L252.752 278.661
L252.752 277.711
L253.033 277.711
L253.033 276.76
L253.161 276.76
L253.262 274.859
L253.513 274.859
L253.513 273.909
L253.93 273.909
L254.023 272.008
L254.077 272.008
L254.077 271.057
L254.192 271.057
L254.192 270.107
L254.627 270.107
L254.627 269.156
L255.005 269.156
L255.07 267.255
L255.184 267.255
L255.256 265.354
L255.683 265.354
L255.683 264.404
L255.839 264.404
L255.939 261.552
L256.038 261.552
L256.038 260.602
L256.28 260.602
L256.28 259.651
L256.4 259.651
L256.4 258.701
L256.526 258.701
L256.538 256.8
L256.673 256.8
L256.673 255.85
L257.177 255.85
L257.177 254.899
L257.815 254.899
L257.815 253.949
L258.049 253.949
L258.16 252.048
L258.196 252.048
L258.196 251.097
L258.351 251.097
L258.351 250.147
L258.603 250.147
L258.655 247.295
L258.73 247.295
L258.754 245.394
L259.318 245.394
L259.378 243.493
L259.588 243.493
L259.588 242.543
L259.789 242.543
L259.824 240.642
L260.224 240.642
L260.224 239.691
L260.44 239.691
L260.44 238.741
L261.027 238.741
L261.052 236.84
L261.201 236.84
L261.201 235.889
L261.596 235.889
L261.596 234.939
L261.833 234.939
L261.833 233.988
L262.368 233.988
L262.368 233.038
L262.625 233.038
L262.625 232.087
L262.741 232.087
L262.741 231.137
L263.296 231.137
L263.296 230.186
L263.439 230.186
L263.439 229.236
L263.853 229.236
L263.915 226.384
L264.055 226.384
L264.162 224.483
L264.503 224.483
L264.503 223.533
L264.713 223.533
L264.815 221.632
L265.034 221.632
L265.121 219.731
L265.287 219.731
L265.336 216.879
L265.503 216.879
L265.607 212.127
L265.689 212.127
L265.761 209.275
L265.848 209.275
L265.894 206.424
L265.962 206.424
L265.962 205.473
L266.195 205.473
L266.242 203.572
L266.348 203.572
L266.348 202.622
L266.577 202.622
L266.637 198.82
L266.799 198.82
L266.799 197.869
L267.086 197.869
L267.159 195.968
L267.259 195.968
L267.369 194.067
L267.455 194.067
L267.455 193.117
L267.863 193.117
L267.912 191.216
L268.295 191.216
L268.339 189.315
L268.53 189.315
L268.619 187.414
L269.351 187.414
L269.413 185.513
L269.682 185.513
L269.682 184.562
L269.889 184.562
L269.889 183.612
L270.171 183.612
L270.171 182.661
L270.295 182.661
L270.295 181.711
L270.587 181.711
L270.587 180.76
L271.479 180.76
L271.479 179.81
L271.635 179.81
L271.721 176.958
L271.829 176.958
L271.829 176.008
L272.045 176.008
L272.118 174.107
L272.163 174.107
L272.233 172.206
L272.97 172.206
L272.97 171.255
L273.262 171.255
L273.262 170.305
L273.556 170.305
L273.556 169.354
L274.32 169.354
L274.32 168.404
L274.498 168.404
L274.605 166.503
L274.681 166.503
L274.681 165.552
L274.94 165.552
L275.015 162.701
L275.461 162.701
L275.461 161.75
L275.997 161.75
L275.997 160.8
L276.209 160.8
L276.209 159.85
L276.374 159.85
L276.374 158.899
L277.137 158.899
L277.23 156.998
L277.854 156.998
L277.854 156.048
L278.346 156.048
L278.358 154.147
L278.493 154.147
L278.493 153.196
L278.741 153.196
L278.783 151.295
L279.073 151.295
L279.073 150.345
L279.353 150.345
L279.353 149.394
L279.907 149.394
L279.907 148.444
L280.034 148.444
L280.034 147.493
L280.489 147.493
L280.489 146.543
L280.607 146.543
L280.607 145.592
L281.763 145.592
L281.829 143.691
L281.887 143.691
L281.937 141.79
L282.078 141.79
L282.078 140.84
L282.207 140.84
L282.207 139.889
L282.394 139.889
L282.435 137.988
L283.632 137.988
L283.632 137.038
L283.875 137.038
L283.875 136.087
L284.001 136.087
L284.001 135.137
L284.328 135.137
L284.328 134.186
L287.36 134.186
L287.36 133.236
L288.09 133.236
L288.09 132.285
L288.357 132.285
L288.357 131.335
L289.376 131.335
L289.376 130.384
L290.583 130.384
L290.583 129.434
L290.941 129.434
L290.957 127.533
L291.235 127.533
L291.308 125.632
L292.194 125.632
L292.209 123.731
L292.367 123.731
L292.367 122.78
L292.624 122.78
L292.624 121.83
L293.401 121.83
L293.45 119.929
L293.679 119.929
L293.769 118.028
L295.478 118.028
L295.478 117.077
L299.304 117.077
L299.304 116.127
L299.654 116.127
L299.654 115.176
L300.945 115.176
L300.945 114.226
L301.207 114.226
L301.207 113.275
L301.872 113.275
L301.872 112.325
L302.854 112.325
L302.854 111.374
L303.828 111.374
L303.828 110.424
L305.177 110.424
L305.177 109.473
L305.336 109.473
L305.336 108.523
L305.897 108.523
L305.897 107.572
L306.011 107.572
L306.011 106.622
L306.354 106.622
L306.424 104.721
L307.637 104.721
L307.637 103.77
L307.816 103.77
L307.816 102.82
L308.58 102.82
L308.58 101.869
L309.479 101.869
L309.479 100.919
L311.126 100.919
L311.126 99.9683
L311.596 99.9683
L311.596 99.0178
L314.225 99.0178
L314.225 98.0673
L314.601 98.0673
L314.601 97.1168
L315.572 97.1168
L315.572 96.1663
L317.126 96.1663
L317.126 95.2158
L317.396 95.2158
L317.396 94.2653
L317.946 94.2653
L317.946 93.3149
L318.344 93.3149
L318.344 92.3644
L318.507 92.3644
L318.507 91.4139
L319.44 91.4139
L319.44 90.4634
L319.874 90.4634
L319.874 89.5129
L320.869 89.5129
L320.869 88.5624
L321.928 88.5624
L321.928 87.6119
L323.261 87.6119
L323.261 86.6614
L324.262 86.6614
L324.262 85.7109
L324.764 85.7109
L324.764 84.7604
L325.736 84.7604
L325.736 83.8099
L326.307 83.8099
L326.307 82.8594
L328.474 82.8594
L328.474 81.9089
L329.612 81.9089
L329.612 80.9584
L331.044 80.9584
L331.044 80.0079
L331.537 80.0079
L331.645 78.1069
L333.039 78.1069
L333.039 77.1564
L333.486 77.1564
L333.486 76.2059
L333.609 76.2059
L333.609 75.2554
L334.533 75.2554
L334.533 74.305
L335.181 74.305
L335.181 73.3545
L336.275 73.3545
L336.275 72.404
L336.411 72.404
L336.411 71.4535
L337.546 71.4535
L337.546 70.503
L337.929 70.503
L337.929 69.5525
L339.114 69.5525
L339.114 68.602
L340.328 68.602
L340.328 67.6515
L343.233 67.6515
L343.233 66.701
L343.698 66.701
L343.698 65.7505
L345.587 65.7505
L345.587 64.8
L346.224 64.8
L346.224 63.8495
L348.171 63.8495
L348.171 62.899
L348.876 62.899
L348.876 61.9485
L349.08 61.9485
L349.08 60.998
L350.144 60.998
L350.144 60.0475
L350.432 60.0475
L350.432 59.097
L351.312 59.097
L351.312 58.1465
L354.044 58.1465
L354.044 57.196
L354.933 57.196
L354.933 56.2455
L355.075 56.2455
L355.075 55.295
L355.609 55.295
L355.609 54.3446
L359.689 54.3446
L359.689 53.3941
L361.11 53.3941
L361.11 52.4436
L361.352 52.4436
L361.352 51.4931
L362.234 51.4931
L362.234 50.5426
L362.938 50.5426
L362.938 49.5921
L363.154 49.5921
L363.154 48.6416
L363.591 48.6416
L363.591 47.6911
L364.928 47.6911
L364.928 46.7406
L365.512 46.7406
L365.512 45.7901
L365.996 45.7901
L365.996 44.8396
L366.151 44.8396
L366.151 43.8891
L366.667 43.8891
L366.667 42.9386
L368.665 42.9386
L368.665 41.9881
L368.94 41.9881
L368.94 41.0376
L369.704 41.0376
L369.704 40.0871
L370.264 40.0871
L370.264 39.1366
L371.062 39.1366
L371.062 38.1861
L373.459 38.1861
L373.459 37.2356
L374.133 37.2356
L374.133 36.2851
L375.972 36.2851
L375.972 35.3347
L377.545 35.3347
L377.569 33.4337
L377.929 33.4337
L377.929 32.4832
L379.016 32.4832
L379.016 31.5327
L381.439 31.5327
L381.439 30.5822
L387.521 30.5822
L387.521 29.6317
L388.815 29.6317
L388.815 28.6812
L389.625 28.6812
L389.625 27.7307
L390.006 27.7307
L390.006 26.7802
L393.883 26.7802
L393.883 25.8297
L394.17 25.8297
L394.17 24.8792
L396.64 24.8792
L396.64 23.9287
L400.647 23.9287
L400.647 22.9782
L400.759 22.9782
L400.759 22.0277
L401.567 22.0277
L401.567 21.0772
L405.765 21.0772
L405.765 20.1267
L405.877 20.1267
L405.877 19.1762
L406.645 19.1762
L406.645 18.2257
L408.087 18.2257
L408.087 17.2752
L411.301 17.2752
L411.301 16.3248
L412.092 16.3248
L412.092 15.3743
L413.867 15.3743
L413.867 14.4238
L415.028 14.4238
L415.028 13.4733
L415.54 13.4733
L415.54 12.5228
L418.781 12.5228
L418.781 11.5723
L430.262 11.5723
L430.262 10.6218
L430.262 10.6218
L453.6 10.6218
L453.6 10.6218" style="fill:none;stroke:#000000;stroke-linecap:square;"/>
   </g>
   <g id="line2d_5">
    <path clip-path="url(#p5bee155178)" d="
M-1 344.246
L182.192 344.246
L182.192 343.295
L190.433 343.295
L190.433 342.345
L196.604 342.345
L196.604 341.394
L197.966 341.394
L197.966 340.444
L201.481 340.444
L201.481 339.493
L202.686 339.493
L202.686 338.543
L202.873 338.543
L202.873 337.592
L203.645 337.592
L203.645 336.642
L203.838 336.642
L203.838 335.691
L204.67 335.691
L204.758 332.84
L205.377 332.84
L205.377 331.889
L206.472 331.889
L206.472 330.939
L208.286 330.939
L208.286 329.988
L209.593 329.988
L209.593 329.038
L210.057 329.038
L210.057 328.087
L211.165 328.087
L211.165 327.137
L212.702 327.137
L212.702 326.186
L214.355 326.186
L214.355 325.236
L215.356 325.236
L215.356 324.285
L216.517 324.285
L216.517 323.335
L216.714 323.335
L216.714 322.384
L216.84 322.384
L216.84 321.434
L217.025 321.434
L217.025 320.483
L218.222 320.483
L218.222 319.533
L218.575 319.533
L218.575 318.582
L218.825 318.582
L218.825 317.632
L219.165 317.632
L219.241 315.731
L219.579 315.731
L219.579 314.78
L219.981 314.78
L219.981 313.83
L220.385 313.83
L220.385 312.879
L220.55 312.879
L220.55 311.929
L221.14 311.929
L221.14 310.978
L222.442 310.978
L222.442 310.028
L224.5 310.028
L224.508 308.127
L224.99 308.127
L224.992 306.226
L225.447 306.226
L225.528 304.325
L225.632 304.325
L225.632 303.374
L226.098 303.374
L226.098 302.424
L226.643 302.424
L226.659 300.523
L227.102 300.523
L227.102 299.572
L227.675 299.572
L227.69 297.671
L227.907 297.671
L227.975 295.77
L228.099 295.77
L228.18 293.869
L228.242 293.869
L228.253 291.968
L228.666 291.968
L228.666 291.018
L228.866 291.018
L228.866 290.067
L229.083 290.067
L229.142 287.216
L229.343 287.216
L229.343 286.265
L229.757 286.265
L229.827 282.463
L230.053 282.463
L230.053 281.513
L230.181 281.513
L230.262 278.661
L230.582 278.661
L230.582 277.711
L231.054 277.711
L231.054 276.76
L231.373 276.76
L231.447 274.859
L231.499 274.859
L231.499 273.909
L232.167 273.909
L232.171 272.008
L232.47 272.008
L232.52 270.107
L232.645 270.107
L232.645 269.156
L232.971 269.156
L233.057 266.305
L233.217 266.305
L233.292 263.453
L233.487 263.453
L233.487 262.503
L233.645 262.503
L233.645 261.552
L233.854 261.552
L233.864 259.651
L234.108 259.651
L234.12 257.75
L234.256 257.75
L234.256 256.8
L234.385 256.8
L234.393 254.899
L234.826 254.899
L234.826 253.949
L234.964 253.949
L234.992 252.048
L235.082 252.048
L235.082 251.097
L235.243 251.097
L235.333 249.196
L235.639 249.196
L235.739 247.295
L235.81 247.295
L235.81 246.345
L236.058 246.345
L236.121 244.444
L236.304 244.444
L236.405 242.543
L236.556 242.543
L236.612 238.741
L236.779 238.741
L236.779 237.79
L236.978 237.79
L237.086 234.939
L237.346 234.939
L237.346 233.988
L237.871 233.988
L237.871 233.038
L238.165 233.038
L238.165 232.087
L238.406 232.087
L238.406 231.137
L238.639 231.137
L238.639 230.186
L239.059 230.186
L239.059 229.236
L239.926 229.236
L239.994 227.335
L240.238 227.335
L240.238 226.384
L241.463 226.384
L241.505 224.483
L241.599 224.483
L241.599 223.533
L241.852 223.533
L241.889 221.632
L242.033 221.632
L242.102 219.731
L242.205 219.731
L242.205 218.78
L243.105 218.78
L243.165 216.879
L243.372 216.879
L243.372 215.929
L243.532 215.929
L243.532 214.978
L243.816 214.978
L243.923 212.127
L244.024 212.127
L244.024 211.176
L244.537 211.176
L244.537 210.226
L244.717 210.226
L244.717 209.275
L245.084 209.275
L245.084 208.325
L246.008 208.325
L246.061 206.424
L246.306 206.424
L246.306 205.473
L246.502 205.473
L246.502 204.523
L246.718 204.523
L246.727 202.622
L247.037 202.622
L247.037 201.671
L247.2 201.671
L247.241 199.77
L247.364 199.77
L247.364 198.82
L248.22 198.82
L248.277 195.968
L248.502 195.968
L248.566 194.067
L249.128 194.067
L249.157 192.166
L249.329 192.166
L249.409 190.265
L249.879 190.265
L249.879 189.315
L250.227 189.315
L250.338 187.414
L250.395 187.414
L250.395 186.463
L251.348 186.463
L251.39 184.562
L251.514 184.562
L251.514 183.612
L251.801 183.612
L251.801 182.661
L252.59 182.661
L252.59 181.711
L252.704 181.711
L252.704 180.76
L253.07 180.76
L253.178 178.859
L253.207 178.859
L253.207 177.909
L253.513 177.909
L253.513 176.958
L253.677 176.958
L253.677 176.008
L254.079 176.008
L254.079 175.057
L254.211 175.057
L254.211 174.107
L254.477 174.107
L254.553 172.206
L254.627 172.206
L254.627 171.255
L254.994 171.255
L254.994 170.305
L255.455 170.305
L255.505 168.404
L255.637 168.404
L255.637 167.453
L255.957 167.453
L256.023 165.552
L256.166 165.552
L256.166 164.602
L256.293 164.602
L256.388 162.701
L256.815 162.701
L256.815 161.75
L257.261 161.75
L257.345 159.85
L257.408 159.85
L257.455 157.949
L257.545 157.949
L257.622 155.097
L257.743 155.097
L257.827 153.196
L257.878 153.196
L257.957 151.295
L258.374 151.295
L258.399 149.394
L258.857 149.394
L258.857 148.444
L259.292 148.444
L259.292 147.493
L259.509 147.493
L259.509 146.543
L259.623 146.543
L259.722 143.691
L259.927 143.691
L259.927 142.741
L260.452 142.741
L260.51 139.889
L260.754 139.889
L260.863 137.038
L261.583 137.038
L261.669 134.186
L261.795 134.186
L261.86 132.285
L262.089 132.285
L262.089 131.335
L262.233 131.335
L262.327 129.434
L262.412 129.434
L262.449 127.533
L263.234 127.533
L263.274 125.632
L263.358 125.632
L263.358 124.681
L263.614 124.681
L263.663 122.78
L263.815 122.78
L263.815 121.83
L264.1 121.83
L264.182 118.978
L264.38 118.978
L264.38 118.028
L264.695 118.028
L264.695 117.077
L265.026 117.077
L265.109 115.176
L265.402 115.176
L265.445 113.275
L265.718 113.275
L265.82 109.473
L266.051 109.473
L266.051 108.523
L267.041 108.523
L267.041 107.572
L267.354 107.572
L267.373 104.721
L267.797 104.721
L267.797 103.77
L268.042 103.77
L268.042 102.82
L268.317 102.82
L268.317 101.869
L268.464 101.869
L268.474 99.9683
L268.853 99.9683
L268.853 99.0178
L269.354 99.0178
L269.422 97.1168
L269.597 97.1168
L269.673 95.2158
L269.924 95.2158
L269.924 94.2653
L270.283 94.2653
L270.283 93.3149
L270.424 93.3149
L270.424 92.3644
L270.866 92.3644
L270.866 91.4139
L271.044 91.4139
L271.044 90.4634
L271.903 90.4634
L271.981 88.5624
L272.164 88.5624
L272.197 86.6614
L272.82 86.6614
L272.82 85.7109
L273.098 85.7109
L273.098 84.7604
L273.429 84.7604
L273.437 82.8594
L273.619 82.8594
L273.619 81.9089
L273.889 81.9089
L273.953 80.0079
L274.124 80.0079
L274.124 79.0574
L274.458 79.0574
L274.458 78.1069
L275.391 78.1069
L275.391 77.1564
L276.062 77.1564
L276.062 76.2059
L276.545 76.2059
L276.545 75.2554
L276.769 75.2554
L276.769 74.305
L277.885 74.305
L277.885 73.3545
L278.542 73.3545
L278.542 72.404
L278.729 72.404
L278.729 71.4535
L279.243 71.4535
L279.243 70.503
L279.704 70.503
L279.704 69.5525
L279.832 69.5525
L279.832 68.602
L279.958 68.602
L279.958 67.6515
L280.389 67.6515
L280.389 66.701
L280.616 66.701
L280.616 65.7505
L280.808 65.7505
L280.808 64.8
L280.975 64.8
L280.975 63.8495
L281.23 63.8495
L281.23 62.899
L281.692 62.899
L281.692 61.9485
L282.77 61.9485
L282.77 60.998
L284.203 60.998
L284.203 60.0475
L288.324 60.0475
L288.324 59.097
L289.682 59.097
L289.682 58.1465
L292.314 58.1465
L292.314 57.196
L294.517 57.196
L294.517 56.2455
L294.745 56.2455
L294.745 55.295
L296.427 55.295
L296.427 54.3446
L305.472 54.3446
L305.472 53.3941
L305.97 53.3941
L305.97 52.4436
L308.099 52.4436
L308.099 51.4931
L309.797 51.4931
L309.797 50.5426
L313.61 50.5426
L313.61 49.5921
L313.745 49.5921
L313.745 48.6416
L315.237 48.6416
L315.237 47.6911
L316.519 47.6911
L316.519 46.7406
L316.844 46.7406
L316.844 45.7901
L318.414 45.7901
L318.414 44.8396
L318.811 44.8396
L318.811 43.8891
L319.293 43.8891
L319.293 42.9386
L319.436 42.9386
L319.436 41.9881
L321.164 41.9881
L321.164 41.0376
L321.413 41.0376
L321.413 40.0871
L322.03 40.0871
L322.122 38.1861
L323.261 38.1861
L323.261 37.2356
L324.048 37.2356
L324.048 36.2851
L327.397 36.2851
L327.397 35.3347
L328.907 35.3347
L328.907 34.3842
L329.12 34.3842
L329.12 33.4337
L331.644 33.4337
L331.644 32.4832
L331.999 32.4832
L331.999 31.5327
L333.102 31.5327
L333.102 30.5822
L333.326 30.5822
L333.326 29.6317
L333.971 29.6317
L333.971 28.6812
L335.29 28.6812
L335.29 27.7307
L335.972 27.7307
L335.972 26.7802
L341.942 26.7802
L341.942 25.8297
L342.295 25.8297
L342.295 24.8792
L342.871 24.8792
L342.871 23.9287
L343.295 23.9287
L343.295 22.9782
L355.609 22.9782
L355.609 22.0277
L368.111 22.0277
L368.111 21.0772
L371.118 21.0772
L371.118 20.1267
L376.192 20.1267
L376.192 19.1762
L377.958 19.1762
L377.958 18.2257
L382.214 18.2257
L382.214 17.2752
L383.637 17.2752
L383.637 16.3248
L384.529 16.3248
L384.529 15.3743
L385.958 15.3743
L385.958 14.4238
L390.971 14.4238
L390.971 13.4733
L397.012 13.4733
L397.012 12.5228
L398.69 12.5228
L398.69 11.5723
L400.051 11.5723
L400.051 10.6218
L400.051 10.6218
L453.6 10.6218
L453.6 10.6218" style="fill:none;stroke:#00bfbf;stroke-linecap:square;"/>
   </g>
   <g id="line2d_6">
    <path clip-path="url(#p5bee155178)" d="
M-1 280.562
L-0.733125 280.562
L-0.733125 279.612
L-0.316112 279.612
L-0.316112 278.661
L0.644219 278.661
L0.644219 277.711
L1.32546 277.711
L1.33249 275.81
L1.65005 275.81
L1.65005 274.859
L2.0998 274.859
L2.0998 273.909
L3.66247 273.909
L3.66247 272.958
L4.2139 272.958
L4.2139 272.008
L4.35344 272.008
L4.37287 270.107
L4.64574 270.107
L4.64574 269.156
L6.02651 269.156
L6.10491 267.255
L6.7431 267.255
L6.79758 265.354
L7.11678 265.354
L7.11678 264.404
L8.18483 264.404
L8.18483 263.453
L8.4071 263.453
L8.4071 262.503
L8.69033 262.503
L8.69033 261.552
L9.45521 261.552
L9.45521 260.602
L11.3274 260.602
L11.3274 259.651
L12.4664 259.651
L12.4664 258.701
L13.4357 258.701
L13.4357 257.75
L17.7333 257.75
L17.7333 256.8
L18.0334 256.8
L18.0334 255.85
L25.1871 255.85
L25.1871 254.899
L32.8045 254.899
L32.8045 253.949
L41.6577 253.949
L41.6577 252.998
L44.2701 252.998
L44.2701 252.048
L73.95 252.048
L73.95 251.097
L76.43 251.097
L76.43 250.147
L78.7708 250.147
L78.7708 249.196
L93.5696 249.196
L93.5696 248.246
L94.1684 248.246
L94.1684 247.295
L101.247 247.295
L101.247 246.345
L106.831 246.345
L106.831 245.394
L114.737 245.394
L114.737 244.444
L116.717 244.444
L116.717 243.493
L121.272 243.493
L121.272 242.543
L123.339 242.543
L123.339 241.592
L126.359 241.592
L126.359 240.642
L130.014 240.642
L130.014 239.691
L132.097 239.691
L132.097 238.741
L133.861 238.741
L133.861 237.79
L134.061 237.79
L134.061 236.84
L135.617 236.84
L135.617 235.889
L135.889 235.889
L135.889 234.939
L137.153 234.939
L137.153 233.988
L139.912 233.988
L139.994 232.087
L140.509 232.087
L140.509 231.137
L146.277 231.137
L146.277 230.186
L147.56 230.186
L147.56 229.236
L151.506 229.236
L151.506 228.285
L154.323 228.285
L154.323 227.335
L155.782 227.335
L155.782 226.384
L158.544 226.384
L158.544 225.434
L158.658 225.434
L158.658 224.483
L161.827 224.483
L161.827 223.533
L162.006 223.533
L162.006 222.582
L164.215 222.582
L164.215 221.632
L167.326 221.632
L167.326 220.681
L167.822 220.681
L167.822 219.731
L169.938 219.731
L169.938 218.78
L170.92 218.78
L170.92 217.83
L171.988 217.83
L171.988 216.879
L176.908 216.879
L176.908 215.929
L182.342 215.929
L182.342 214.978
L193.893 214.978
L193.893 214.028
L195.395 214.028
L195.395 213.077
L196.229 213.077
L196.229 212.127
L196.803 212.127
L196.803 211.176
L198.176 211.176
L198.176 210.226
L198.873 210.226
L198.873 209.275
L199.11 209.275
L199.11 208.325
L199.632 208.325
L199.632 207.374
L200.661 207.374
L200.661 206.424
L201.181 206.424
L201.181 205.473
L201.363 205.473
L201.363 204.523
L202.917 204.523
L202.917 203.572
L203.114 203.572
L203.114 202.622
L204.558 202.622
L204.558 201.671
L204.694 201.671
L204.694 200.721
L205.639 200.721
L205.639 199.77
L205.906 199.77
L205.906 198.82
L206.41 198.82
L206.41 197.869
L207.888 197.869
L207.888 196.919
L208.241 196.919
L208.313 195.018
L208.463 195.018
L208.463 194.067
L208.685 194.067
L208.685 193.117
L208.967 193.117
L208.967 192.166
L209.26 192.166
L209.26 191.216
L210.089 191.216
L210.089 190.265
L210.292 190.265
L210.292 189.315
L210.502 189.315
L210.502 188.364
L211.165 188.364
L211.165 187.414
L211.5 187.414
L211.5 186.463
L211.911 186.463
L211.911 185.513
L212.398 185.513
L212.498 182.661
L212.637 182.661
L212.637 181.711
L212.785 181.711
L212.785 180.76
L212.913 180.76
L213.008 177.909
L213.859 177.909
L213.859 176.958
L214.004 176.958
L214.004 176.008
L214.166 176.008
L214.166 175.057
L214.681 175.057
L214.681 174.107
L215.172 174.107
L215.256 172.206
L215.487 172.206
L215.487 171.255
L216.721 171.255
L216.721 170.305
L216.939 170.305
L216.939 169.354
L217.153 169.354
L217.153 168.404
L217.448 168.404
L217.558 166.503
L217.708 166.503
L217.708 165.552
L218.455 165.552
L218.455 164.602
L218.898 164.602
L218.961 162.701
L219.047 162.701
L219.047 161.75
L219.639 161.75
L219.729 158.899
L219.823 158.899
L219.823 157.949
L220.583 157.949
L220.674 156.048
L220.829 156.048
L220.871 154.147
L221 154.147
L221 153.196
L221.672 153.196
L221.672 152.246
L221.886 152.246
L221.886 151.295
L222.114 151.295
L222.114 150.345
L222.26 150.345
L222.361 147.493
L222.665 147.493
L222.665 146.543
L222.834 146.543
L222.921 144.642
L223.283 144.642
L223.283 143.691
L223.934 143.691
L223.963 141.79
L224.228 141.79
L224.228 140.84
L224.347 140.84
L224.347 139.889
L224.641 139.889
L224.641 138.939
L224.756 138.939
L224.858 136.087
L224.96 136.087
L225.06 133.236
L225.114 133.236
L225.163 131.335
L225.364 131.335
L225.364 129.434
L226.49 129.434
L226.49 128.483
L226.643 128.483
L226.643 127.533
L226.775 127.533
L226.775 126.582
L227.025 126.582
L227.025 125.632
L227.334 125.632
L227.426 122.78
L228.061 122.78
L228.068 120.879
L228.709 120.879
L228.709 119.929
L228.865 119.929
L228.865 118.978
L229.21 118.978
L229.21 118.028
L229.639 118.028
L229.685 115.176
L229.952 115.176
L229.952 114.226
L230.24 114.226
L230.24 113.275
L230.37 113.275
L230.37 111.374
L230.687 111.374
L230.687 110.424
L231.236 110.424
L231.328 107.572
L231.66 107.572
L231.66 106.622
L232.587 106.622
L232.587 105.671
L232.825 105.671
L232.825 101.869
L232.966 101.869
L232.966 100.919
L233.184 100.919
L233.197 99.0178
L234.742 99.0178
L234.742 98.0673
L234.862 98.0673
L234.862 97.1168
L235.512 97.1168
L235.512 96.1663
L235.712 96.1663
L235.712 95.2158
L236.472 95.2158
L236.528 93.3149
L236.742 93.3149
L236.742 92.3644
L237.32 92.3644
L237.32 91.4139
L237.591 91.4139
L237.591 88.5624
L237.765 88.5624
L237.788 86.6614
L238.266 86.6614
L238.273 84.7604
L238.462 84.7604
L238.547 82.8594
L238.672 82.8594
L238.672 81.9089
L239.35 81.9089
L239.388 79.0574
L239.842 79.0574
L239.842 77.1564
L240.171 77.1564
L240.171 76.2059
L240.873 76.2059
L240.873 75.2554
L241.05 75.2554
L241.05 74.305
L242.118 74.305
L242.216 71.4535
L242.998 71.4535
L242.998 70.503
L243.418 70.503
L243.418 66.701
L244.506 66.701
L244.506 61.9485
L244.693 61.9485
L244.693 60.0475
L245.136 60.0475
L245.136 59.097
L245.254 59.097
L245.257 57.196
L246.036 57.196
L246.036 56.2455
L246.411 56.2455
L246.465 54.3446
L246.609 54.3446
L246.609 53.3941
L246.789 53.3941
L246.789 52.4436
L246.934 52.4436
L246.934 51.4931
L247.256 51.4931
L247.256 49.5921
L247.597 49.5921
L247.597 48.6416
L247.781 48.6416
L247.781 47.6911
L248.043 47.6911
L248.043 46.7406
L248.253 46.7406
L248.277 44.8396
L248.609 44.8396
L248.678 41.9881
L248.774 41.9881
L248.88 40.0871
L249.676 40.0871
L249.676 39.1366
L250.075 39.1366
L250.123 37.2356
L250.362 37.2356
L250.362 36.2851
L250.74 36.2851
L250.831 33.4337
L251.053 33.4337
L251.053 32.4832
L252.164 32.4832
L252.164 31.5327
L252.412 31.5327
L252.503 25.8297
L252.919 25.8297
L252.919 24.8792
L253.405 24.8792
L253.405 23.9287
L253.768 23.9287
L253.87 22.0277
L254.098 22.0277
L254.098 21.0772
L254.245 21.0772
L254.245 20.1267
L254.748 20.1267
L254.748 19.1762
L256.039 19.1762
L256.039 18.2257
L256.686 18.2257
L256.686 17.2752
L256.844 17.2752
L256.844 16.3248
L257.378 16.3248
L257.378 15.3743
L258.647 15.3743
L258.647 14.4238
L260.09 14.4238
L260.09 13.4733
L260.295 13.4733
L260.295 12.5228
L260.784 12.5228
L260.784 11.5723
L265.451 11.5723
L265.451 10.6218
L265.451 10.6218
L453.6 10.6218
L453.6 10.6218" style="fill:none;stroke:#bf00bf;stroke-linecap:square;"/>
   </g>
   <g id="matplotlib.axis_1">
    <g id="xtick_1"/>
    <g id="xtick_2">
     <g id="line2d_7">
      <path clip-path="url(#p5bee155178)" d="
M59.6175 352.8
L59.6175 7.2" style="fill:none;stroke:#000000;stroke-dasharray:1.000000,3.000000;stroke-dashoffset:0.0;stroke-width:0.5;"/>
     </g>
     <g id="line2d_8">
      <defs>
       <path d="
M0 0
L0 -4" id="m93b0483c22" style="stroke:#000000;stroke-width:0.5;"/>
      </defs>
      <g>
       <use style="stroke:#000000;stroke-width:0.5;" x="59.6174973142" xlink:href="#m93b0483c22" y="352.8"/>
      </g>
     </g>
     <g id="line2d_9">
      <defs>
       <path d="
M0 0
L0 4" id="m741efc42ff" style="stroke:#000000;stroke-width:0.5;"/>
      </defs>
      <g>
       <use style="stroke:#000000;stroke-width:0.5;" x="59.6174973142" xlink:href="#m741efc42ff" y="7.2"/>
      </g>
     </g>
     <g id="text_1">
      <!-- -6 -->
      <defs>
       <path d="
M3.17188 21.4844
L3.17188 30.3281
L30.1719 30.3281
L30.1719 21.4844
z
" id="ArialMT-2d"/>
       <path d="
M49.75 54.0469
L41.0156 53.375
Q39.8438 58.5469 37.7031 60.8906
Q34.125 64.6562 28.9062 64.6562
Q24.7031 64.6562 21.5312 62.3125
Q17.3906 59.2812 14.9844 53.4688
Q12.5938 47.6562 12.5 36.9219
Q15.6719 41.75 20.2656 44.0938
Q24.8594 46.4375 29.8906 46.4375
Q38.6719 46.4375 44.8438 39.9688
Q51.0312 33.5 51.0312 23.25
Q51.0312 16.5 48.125 10.7188
Q45.2188 4.9375 40.1406 1.85938
Q35.0625 -1.21875 28.6094 -1.21875
Q17.625 -1.21875 10.6875 6.85938
Q3.76562 14.9375 3.76562 33.5
Q3.76562 54.25 11.4219 63.6719
Q18.1094 71.875 29.4375 71.875
Q37.8906 71.875 43.2812 67.1406
Q48.6875 62.4062 49.75 54.0469
M13.875 23.1875
Q13.875 18.6562 15.7969 14.5
Q17.7188 10.3594 21.1875 8.17188
Q24.6562 6 28.4688 6
Q34.0312 6 38.0312 10.4844
Q42.0469 14.9844 42.0469 22.7031
Q42.0469 30.125 38.0781 34.3906
Q34.125 38.6719 28.125 38.6719
Q22.1719 38.6719 18.0156 34.3906
Q13.875 30.125 13.875 23.1875" id="ArialMT-36"/>
      </defs>
      <g transform="translate(51.5018723142 371.115625)scale(0.2 -0.2)">
       <use xlink:href="#ArialMT-2d"/>
       <use x="33.30078125" xlink:href="#ArialMT-36"/>
      </g>
     </g>
    </g>
    <g id="xtick_3">
     <g id="line2d_10">
      <path clip-path="url(#p5bee155178)" d="
M112.148 352.8
L112.148 7.2" style="fill:none;stroke:#000000;stroke-dasharray:1.000000,3.000000;stroke-dashoffset:0.0;stroke-width:0.5;"/>
     </g>
     <g id="line2d_11">
      <g>
       <use style="stroke:#000000;stroke-width:0.5;" x="112.148497672" xlink:href="#m93b0483c22" y="352.8"/>
      </g>
     </g>
     <g id="line2d_12">
      <g>
       <use style="stroke:#000000;stroke-width:0.5;" x="112.148497672" xlink:href="#m741efc42ff" y="7.2"/>
      </g>
     </g>
     <g id="text_2">
      <!-- -4 -->
      <defs>
       <path d="
M32.3281 0
L32.3281 17.1406
L1.26562 17.1406
L1.26562 25.2031
L33.9375 71.5781
L41.1094 71.5781
L41.1094 25.2031
L50.7812 25.2031
L50.7812 17.1406
L41.1094 17.1406
L41.1094 0
z

M32.3281 25.2031
L32.3281 57.4688
L9.90625 25.2031
z
" id="ArialMT-34"/>
      </defs>
      <g transform="translate(104.057872672 371.115625)scale(0.2 -0.2)">
       <use xlink:href="#ArialMT-2d"/>
       <use x="33.30078125" xlink:href="#ArialMT-34"/>
      </g>
     </g>
    </g>
    <g id="xtick_4">
     <g id="line2d_13">
      <path clip-path="url(#p5bee155178)" d="
M164.679 352.8
L164.679 7.2" style="fill:none;stroke:#000000;stroke-dasharray:1.000000,3.000000;stroke-dashoffset:0.0;stroke-width:0.5;"/>
     </g>
     <g id="line2d_14">
      <g>
       <use style="stroke:#000000;stroke-width:0.5;" x="164.67949803" xlink:href="#m93b0483c22" y="352.8"/>
      </g>
     </g>
     <g id="line2d_15">
      <g>
       <use style="stroke:#000000;stroke-width:0.5;" x="164.67949803" xlink:href="#m741efc42ff" y="7.2"/>
      </g>
     </g>
     <g id="text_3">
      <!-- -2 -->
      <defs>
       <path d="
M50.3438 8.45312
L50.3438 0
L3.03125 0
Q2.9375 3.17188 4.04688 6.10938
Q5.85938 10.9375 9.82812 15.625
Q13.8125 20.3125 21.3438 26.4688
Q33.0156 36.0312 37.1094 41.625
Q41.2188 47.2188 41.2188 52.2031
Q41.2188 57.4219 37.4688 61
Q33.7344 64.5938 27.7344 64.5938
Q21.3906 64.5938 17.5781 60.7812
Q13.7656 56.9844 13.7188 50.25
L4.6875 51.1719
Q5.60938 61.2812 11.6562 66.5781
Q17.7188 71.875 27.9375 71.875
Q38.2344 71.875 44.2344 66.1562
Q50.25 60.4531 50.25 52
Q50.25 47.7031 48.4844 43.5469
Q46.7344 39.4062 42.6562 34.8125
Q38.5781 30.2188 29.1094 22.2188
Q21.1875 15.5781 18.9375 13.2031
Q16.7031 10.8438 15.2344 8.45312
z
" id="ArialMT-32"/>
      </defs>
      <g transform="translate(156.63262303 371.115625)scale(0.2 -0.2)">
       <use xlink:href="#ArialMT-2d"/>
       <use x="33.30078125" xlink:href="#ArialMT-32"/>
      </g>
     </g>
    </g>
    <g id="xtick_5">
     <g id="line2d_16">
      <path clip-path="url(#p5bee155178)" d="
M217.21 352.8
L217.21 7.2" style="fill:none;stroke:#000000;stroke-dasharray:1.000000,3.000000;stroke-dashoffset:0.0;stroke-width:0.5;"/>
     </g>
     <g id="line2d_17">
      <g>
       <use style="stroke:#000000;stroke-width:0.5;" x="217.210498389" xlink:href="#m93b0483c22" y="352.8"/>
      </g>
     </g>
     <g id="line2d_18">
      <g>
       <use style="stroke:#000000;stroke-width:0.5;" x="217.210498389" xlink:href="#m741efc42ff" y="7.2"/>
      </g>
     </g>
     <g id="text_4">
      <!-- 0 -->
      <defs>
       <path d="
M4.15625 35.2969
Q4.15625 48 6.76562 55.7344
Q9.375 63.4844 14.5156 67.6719
Q19.6719 71.875 27.4844 71.875
Q33.25 71.875 37.5938 69.5469
Q41.9375 67.2344 44.7656 62.8594
Q47.6094 58.5 49.2188 52.2188
Q50.8281 45.9531 50.8281 35.2969
Q50.8281 22.7031 48.2344 14.9688
Q45.6562 7.23438 40.5 3
Q35.3594 -1.21875 27.4844 -1.21875
Q17.1406 -1.21875 11.2344 6.20312
Q4.15625 15.1406 4.15625 35.2969
M13.1875 35.2969
Q13.1875 17.6719 17.3125 11.8281
Q21.4375 6 27.4844 6
Q33.5469 6 37.6719 11.8594
Q41.7969 17.7188 41.7969 35.2969
Q41.7969 52.9844 37.6719 58.7812
Q33.5469 64.5938 27.3906 64.5938
Q21.3438 64.5938 17.7188 59.4688
Q13.1875 52.9375 13.1875 35.2969" id="ArialMT-30"/>
      </defs>
      <g transform="translate(212.543310889 371.115625)scale(0.2 -0.2)">
       <use xlink:href="#ArialMT-30"/>
      </g>
     </g>
    </g>
    <g id="xtick_6">
     <g id="line2d_19">
      <path clip-path="url(#p5bee155178)" d="
M269.741 352.8
L269.741 7.2" style="fill:none;stroke:#000000;stroke-dasharray:1.000000,3.000000;stroke-dashoffset:0.0;stroke-width:0.5;"/>
     </g>
     <g id="line2d_20">
      <g>
       <use style="stroke:#000000;stroke-width:0.5;" x="269.741498747" xlink:href="#m93b0483c22" y="352.8"/>
      </g>
     </g>
     <g id="line2d_21">
      <g>
       <use style="stroke:#000000;stroke-width:0.5;" x="269.741498747" xlink:href="#m741efc42ff" y="7.2"/>
      </g>
     </g>
     <g id="text_5">
      <!-- 2 -->
      <g transform="translate(265.000873747 371.115625)scale(0.2 -0.2)">
       <use xlink:href="#ArialMT-32"/>
      </g>
     </g>
    </g>
    <g id="xtick_7">
     <g id="line2d_22">
      <path clip-path="url(#p5bee155178)" d="
M322.272 352.8
L322.272 7.2" style="fill:none;stroke:#000000;stroke-dasharray:1.000000,3.000000;stroke-dashoffset:0.0;stroke-width:0.5;"/>
     </g>
     <g id="line2d_23">
      <g>
       <use style="stroke:#000000;stroke-width:0.5;" x="322.272499105" xlink:href="#m93b0483c22" y="352.8"/>
      </g>
     </g>
     <g id="line2d_24">
      <g>
       <use style="stroke:#000000;stroke-width:0.5;" x="322.272499105" xlink:href="#m741efc42ff" y="7.2"/>
      </g>
     </g>
     <g id="text_6">
      <!-- 4 -->
      <g transform="translate(317.320936605 371.115625)scale(0.2 -0.2)">
       <use xlink:href="#ArialMT-34"/>
      </g>
     </g>
    </g>
    <g id="xtick_8">
     <g id="line2d_25">
      <path clip-path="url(#p5bee155178)" d="
M374.803 352.8
L374.803 7.2" style="fill:none;stroke:#000000;stroke-dasharray:1.000000,3.000000;stroke-dashoffset:0.0;stroke-width:0.5;"/>
     </g>
     <g id="line2d_26">
      <g>
       <use style="stroke:#000000;stroke-width:0.5;" x="374.803499463" xlink:href="#m93b0483c22" y="352.8"/>
      </g>
     </g>
     <g id="line2d_27">
      <g>
       <use style="stroke:#000000;stroke-width:0.5;" x="374.803499463" xlink:href="#m741efc42ff" y="7.2"/>
      </g>
     </g>
     <g id="text_7">
      <!-- 6 -->
      <g transform="translate(370.076936963 371.115625)scale(0.2 -0.2)">
       <use xlink:href="#ArialMT-36"/>
      </g>
     </g>
    </g>
    <g id="xtick_9">
     <g id="line2d_28">
      <path clip-path="url(#p5bee155178)" d="
M427.334 352.8
L427.334 7.2" style="fill:none;stroke:#000000;stroke-dasharray:1.000000,3.000000;stroke-dashoffset:0.0;stroke-width:0.5;"/>
     </g>
     <g id="line2d_29">
      <g>
       <use style="stroke:#000000;stroke-width:0.5;" x="427.334499821" xlink:href="#m93b0483c22" y="352.8"/>
      </g>
     </g>
     <g id="line2d_30">
      <g>
       <use style="stroke:#000000;stroke-width:0.5;" x="427.334499821" xlink:href="#m741efc42ff" y="7.2"/>
      </g>
     </g>
     <g id="text_8">
      <!-- 8 -->
      <defs>
       <path d="
M17.6719 38.8125
Q12.2031 40.8281 9.5625 44.5312
Q6.9375 48.25 6.9375 53.4219
Q6.9375 61.2344 12.5469 66.5469
Q18.1719 71.875 27.4844 71.875
Q36.8594 71.875 42.5781 66.4219
Q48.2969 60.9844 48.2969 53.1719
Q48.2969 48.1875 45.6719 44.5
Q43.0625 40.8281 37.75 38.8125
Q44.3438 36.6719 47.7812 31.875
Q51.2188 27.0938 51.2188 20.4531
Q51.2188 11.2812 44.7188 5.03125
Q38.2344 -1.21875 27.6406 -1.21875
Q17.0469 -1.21875 10.5469 5.04688
Q4.04688 11.3281 4.04688 20.7031
Q4.04688 27.6875 7.59375 32.3906
Q11.1406 37.1094 17.6719 38.8125
M15.9219 53.7188
Q15.9219 48.6406 19.1875 45.4062
Q22.4688 42.1875 27.6875 42.1875
Q32.7656 42.1875 36.0156 45.375
Q39.2656 48.5781 39.2656 53.2188
Q39.2656 58.0625 35.9062 61.3594
Q32.5625 64.6562 27.5938 64.6562
Q22.5625 64.6562 19.2344 61.4219
Q15.9219 58.2031 15.9219 53.7188
M13.0938 20.6562
Q13.0938 16.8906 14.875 13.375
Q16.6562 9.85938 20.1719 7.92188
Q23.6875 6 27.7344 6
Q34.0312 6 38.125 10.0469
Q42.2344 14.1094 42.2344 20.3594
Q42.2344 26.7031 38.0156 30.8594
Q33.7969 35.0156 27.4375 35.0156
Q21.2344 35.0156 17.1562 30.9062
Q13.0938 26.8125 13.0938 20.6562" id="ArialMT-38"/>
      </defs>
      <g transform="translate(422.617312321 371.115625)scale(0.2 -0.2)">
       <use xlink:href="#ArialMT-38"/>
      </g>
     </g>
    </g>
    <g id="xtick_10"/>
    <g id="xtick_11">
     <g id="line2d_31">
      <defs>
       <path d="
M0 0
L0 -2" id="m177f7580d0" style="stroke:#000000;stroke-width:0.5;"/>
      </defs>
      <g>
       <use style="stroke:#000000;stroke-width:0.5;" x="59.6174973142" xlink:href="#m177f7580d0" y="352.8"/>
      </g>
     </g>
     <g id="line2d_32">
      <defs>
       <path d="
M0 0
L0 2" id="m5284c7e2a0" style="stroke:#000000;stroke-width:0.5;"/>
      </defs>
      <g>
       <use style="stroke:#000000;stroke-width:0.5;" x="59.6174973142" xlink:href="#m5284c7e2a0" y="7.2"/>
      </g>
     </g>
    </g>
    <g id="xtick_12">
     <g id="line2d_33">
      <g>
       <use style="stroke:#000000;stroke-width:0.5;" x="112.148497672" xlink:href="#m177f7580d0" y="352.8"/>
      </g>
     </g>
     <g id="line2d_34">
      <g>
       <use style="stroke:#000000;stroke-width:0.5;" x="112.148497672" xlink:href="#m5284c7e2a0" y="7.2"/>
      </g>
     </g>
    </g>
    <g id="xtick_13">
     <g id="line2d_35">
      <g>
       <use style="stroke:#000000;stroke-width:0.5;" x="164.67949803" xlink:href="#m177f7580d0" y="352.8"/>
      </g>
     </g>
     <g id="line2d_36">
      <g>
       <use style="stroke:#000000;stroke-width:0.5;" x="164.67949803" xlink:href="#m5284c7e2a0" y="7.2"/>
      </g>
     </g>
    </g>
    <g id="xtick_14">
     <g id="line2d_37">
      <g>
       <use style="stroke:#000000;stroke-width:0.5;" x="217.210498389" xlink:href="#m177f7580d0" y="352.8"/>
      </g>
     </g>
     <g id="line2d_38">
      <g>
       <use style="stroke:#000000;stroke-width:0.5;" x="217.210498389" xlink:href="#m5284c7e2a0" y="7.2"/>
      </g>
     </g>
    </g>
    <g id="xtick_15">
     <g id="line2d_39">
      <g>
       <use style="stroke:#000000;stroke-width:0.5;" x="269.741498747" xlink:href="#m177f7580d0" y="352.8"/>
      </g>
     </g>
     <g id="line2d_40">
      <g>
       <use style="stroke:#000000;stroke-width:0.5;" x="269.741498747" xlink:href="#m5284c7e2a0" y="7.2"/>
      </g>
     </g>
    </g>
    <g id="xtick_16">
     <g id="line2d_41">
      <g>
       <use style="stroke:#000000;stroke-width:0.5;" x="322.272499105" xlink:href="#m177f7580d0" y="352.8"/>
      </g>
     </g>
     <g id="line2d_42">
      <g>
       <use style="stroke:#000000;stroke-width:0.5;" x="322.272499105" xlink:href="#m5284c7e2a0" y="7.2"/>
      </g>
     </g>
    </g>
    <g id="xtick_17">
     <g id="line2d_43">
      <g>
       <use style="stroke:#000000;stroke-width:0.5;" x="374.803499463" xlink:href="#m177f7580d0" y="352.8"/>
      </g>
     </g>
     <g id="line2d_44">
      <g>
       <use style="stroke:#000000;stroke-width:0.5;" x="374.803499463" xlink:href="#m5284c7e2a0" y="7.2"/>
      </g>
     </g>
    </g>
    <g id="xtick_18">
     <g id="line2d_45">
      <g>
       <use style="stroke:#000000;stroke-width:0.5;" x="427.334499821" xlink:href="#m177f7580d0" y="352.8"/>
      </g>
     </g>
     <g id="line2d_46">
      <g>
       <use style="stroke:#000000;stroke-width:0.5;" x="427.334499821" xlink:href="#m5284c7e2a0" y="7.2"/>
      </g>
     </g>
    </g>
    <g id="text_9">
     <!-- log10 of Df -->
     <defs>
      <path d="
M4.98438 -4.29688
L13.5312 -5.5625
Q14.0625 -9.51562 16.5 -11.3281
Q19.7812 -13.7656 25.4375 -13.7656
Q31.5469 -13.7656 34.8594 -11.3281
Q38.1875 -8.89062 39.3594 -4.5
Q40.0469 -1.8125 39.9844 6.78125
Q34.2344 0 25.6406 0
Q14.9375 0 9.07812 7.71875
Q3.21875 15.4375 3.21875 26.2188
Q3.21875 33.6406 5.90625 39.9062
Q8.59375 46.1875 13.6875 49.6094
Q18.7969 53.0312 25.6875 53.0312
Q34.8594 53.0312 40.8281 45.6094
L40.8281 51.8594
L48.9219 51.8594
L48.9219 7.03125
Q48.9219 -5.07812 46.4531 -10.125
Q44 -15.1875 38.6406 -18.1094
Q33.2969 -21.0469 25.4844 -21.0469
Q16.2188 -21.0469 10.5 -16.875
Q4.78125 -12.7031 4.98438 -4.29688
M12.25 26.8594
Q12.25 16.6562 16.2969 11.9688
Q20.3594 7.28125 26.4688 7.28125
Q32.5156 7.28125 36.6094 11.9375
Q40.7188 16.6094 40.7188 26.5625
Q40.7188 36.0781 36.5 40.9062
Q32.2812 45.75 26.3125 45.75
Q20.4531 45.75 16.3438 40.9844
Q12.25 36.2344 12.25 26.8594" id="ArialMT-67"/>
      <path d="
M8.6875 0
L8.6875 45.0156
L0.921875 45.0156
L0.921875 51.8594
L8.6875 51.8594
L8.6875 57.375
Q8.6875 62.5938 9.625 65.1406
Q10.8906 68.5625 14.0781 70.6719
Q17.2812 72.7969 23.0469 72.7969
Q26.7656 72.7969 31.25 71.9219
L29.9375 64.2656
Q27.2031 64.75 24.75 64.75
Q20.75 64.75 19.0938 63.0312
Q17.4375 61.3281 17.4375 56.6406
L17.4375 51.8594
L27.5469 51.8594
L27.5469 45.0156
L17.4375 45.0156
L17.4375 0
z
" id="ArialMT-66"/>
      <path d="
M7.71875 0
L7.71875 71.5781
L32.375 71.5781
Q40.7188 71.5781 45.125 70.5625
Q51.2656 69.1406 55.6094 65.4375
Q61.2812 60.6406 64.0781 53.1875
Q66.8906 45.75 66.8906 36.1875
Q66.8906 28.0312 64.9844 21.7344
Q63.0938 15.4375 60.1094 11.2969
Q57.125 7.17188 53.5781 4.79688
Q50.0469 2.4375 45.0469 1.21875
Q40.0469 0 33.5469 0
z

M17.1875 8.45312
L32.4688 8.45312
Q39.5469 8.45312 43.5781 9.76562
Q47.6094 11.0781 50 13.4844
Q53.375 16.8438 55.25 22.5312
Q57.125 28.2188 57.125 36.3281
Q57.125 47.5625 53.4375 53.5938
Q49.75 59.625 44.4844 61.6719
Q40.6719 63.1406 32.2344 63.1406
L17.1875 63.1406
z
" id="ArialMT-44"/>
      <path d="
M6.39062 0
L6.39062 71.5781
L15.1875 71.5781
L15.1875 0
z
" id="ArialMT-6c"/>
      <path d="
M3.32812 25.9219
Q3.32812 40.3281 11.3281 47.2656
Q18.0156 53.0312 27.6406 53.0312
Q38.3281 53.0312 45.1094 46.0156
Q51.9062 39.0156 51.9062 26.6562
Q51.9062 16.6562 48.9062 10.9062
Q45.9062 5.17188 40.1562 2
Q34.4219 -1.17188 27.6406 -1.17188
Q16.75 -1.17188 10.0312 5.8125
Q3.32812 12.7969 3.32812 25.9219
M12.3594 25.9219
Q12.3594 15.9688 16.7031 11.0156
Q21.0469 6.0625 27.6406 6.0625
Q34.1875 6.0625 38.5312 11.0312
Q42.875 16.0156 42.875 26.2188
Q42.875 35.8438 38.5 40.7969
Q34.125 45.75 27.6406 45.75
Q21.0469 45.75 16.7031 40.8125
Q12.3594 35.8906 12.3594 25.9219" id="ArialMT-6f"/>
      <path d="
M37.25 0
L28.4688 0
L28.4688 56
Q25.2969 52.9844 20.1406 49.9531
Q14.9844 46.9219 10.8906 45.4062
L10.8906 53.9062
Q18.2656 57.375 23.7812 62.2969
Q29.2969 67.2344 31.5938 71.875
L37.25 71.875
z
" id="ArialMT-31"/>
      <path id="ArialMT-20"/>
     </defs>
     <g transform="translate(181.6921875 394.65)scale(0.2 -0.2)">
      <use xlink:href="#ArialMT-6c"/>
      <use x="22.216796875" xlink:href="#ArialMT-6f"/>
      <use x="77.83203125" xlink:href="#ArialMT-67"/>
      <use x="133.447265625" xlink:href="#ArialMT-31"/>
      <use x="189.0625" xlink:href="#ArialMT-30"/>
      <use x="244.677734375" xlink:href="#ArialMT-20"/>
      <use x="272.4609375" xlink:href="#ArialMT-6f"/>
      <use x="328.076171875" xlink:href="#ArialMT-66"/>
      <use x="355.859375" xlink:href="#ArialMT-20"/>
      <use x="383.642578125" xlink:href="#ArialMT-44"/>
      <use x="455.859375" xlink:href="#ArialMT-66"/>
     </g>
    </g>
   </g>
   <g id="matplotlib.axis_2">
    <g id="ytick_1">
     <g id="line2d_47">
      <path clip-path="url(#p5bee155178)" d="
M7.2 352.8
L453.6 352.8" style="fill:none;stroke:#000000;stroke-dasharray:1.000000,3.000000;stroke-dashoffset:0.0;stroke-width:0.5;"/>
     </g>
     <g id="line2d_48">
      <defs>
       <path d="
M0 0
L4 0" id="m728421d6d4" style="stroke:#000000;stroke-width:0.5;"/>
      </defs>
      <g>
       <use style="stroke:#000000;stroke-width:0.5;" x="7.2" xlink:href="#m728421d6d4" y="352.8"/>
      </g>
     </g>
     <g id="line2d_49">
      <defs>
       <path d="
M0 0
L-4 0" id="mcb0005524f" style="stroke:#000000;stroke-width:0.5;"/>
      </defs>
      <g>
       <use style="stroke:#000000;stroke-width:0.5;" x="453.6" xlink:href="#mcb0005524f" y="352.8"/>
      </g>
     </g>
    </g>
    <g id="ytick_2">
     <g id="line2d_50">
      <path clip-path="url(#p5bee155178)" d="
M7.2 284.364
L453.6 284.364" style="fill:none;stroke:#000000;stroke-dasharray:1.000000,3.000000;stroke-dashoffset:0.0;stroke-width:0.5;"/>
     </g>
     <g id="line2d_51">
      <g>
       <use style="stroke:#000000;stroke-width:0.5;" x="7.2" xlink:href="#m728421d6d4" y="284.364356436"/>
      </g>
     </g>
     <g id="line2d_52">
      <g>
       <use style="stroke:#000000;stroke-width:0.5;" x="453.6" xlink:href="#mcb0005524f" y="284.364356436"/>
      </g>
     </g>
    </g>
    <g id="ytick_3">
     <g id="line2d_53">
      <path clip-path="url(#p5bee155178)" d="
M7.2 215.929
L453.6 215.929" style="fill:none;stroke:#000000;stroke-dasharray:1.000000,3.000000;stroke-dashoffset:0.0;stroke-width:0.5;"/>
     </g>
     <g id="line2d_54">
      <g>
       <use style="stroke:#000000;stroke-width:0.5;" x="7.2" xlink:href="#m728421d6d4" y="215.928712871"/>
      </g>
     </g>
     <g id="line2d_55">
      <g>
       <use style="stroke:#000000;stroke-width:0.5;" x="453.6" xlink:href="#mcb0005524f" y="215.928712871"/>
      </g>
     </g>
    </g>
    <g id="ytick_4">
     <g id="line2d_56">
      <path clip-path="url(#p5bee155178)" d="
M7.2 147.493
L453.6 147.493" style="fill:none;stroke:#000000;stroke-dasharray:1.000000,3.000000;stroke-dashoffset:0.0;stroke-width:0.5;"/>
     </g>
     <g id="line2d_57">
      <g>
       <use style="stroke:#000000;stroke-width:0.5;" x="7.2" xlink:href="#m728421d6d4" y="147.493069307"/>
      </g>
     </g>
     <g id="line2d_58">
      <g>
       <use style="stroke:#000000;stroke-width:0.5;" x="453.6" xlink:href="#mcb0005524f" y="147.493069307"/>
      </g>
     </g>
    </g>
    <g id="ytick_5">
     <g id="line2d_59">
      <path clip-path="url(#p5bee155178)" d="
M7.2 79.0574
L453.6 79.0574" style="fill:none;stroke:#000000;stroke-dasharray:1.000000,3.000000;stroke-dashoffset:0.0;stroke-width:0.5;"/>
     </g>
     <g id="line2d_60">
      <g>
       <use style="stroke:#000000;stroke-width:0.5;" x="7.2" xlink:href="#m728421d6d4" y="79.0574257426"/>
      </g>
     </g>
     <g id="line2d_61">
      <g>
       <use style="stroke:#000000;stroke-width:0.5;" x="453.6" xlink:href="#mcb0005524f" y="79.0574257426"/>
      </g>
     </g>
    </g>
    <g id="ytick_6">
     <g id="line2d_62">
      <path clip-path="url(#p5bee155178)" d="
M7.2 10.6218
L453.6 10.6218" style="fill:none;stroke:#000000;stroke-dasharray:1.000000,3.000000;stroke-dashoffset:0.0;stroke-width:0.5;"/>
     </g>
     <g id="line2d_63">
      <g>
       <use style="stroke:#000000;stroke-width:0.5;" x="7.2" xlink:href="#m728421d6d4" y="10.6217821782"/>
      </g>
     </g>
     <g id="line2d_64">
      <g>
       <use style="stroke:#000000;stroke-width:0.5;" x="453.6" xlink:href="#mcb0005524f" y="10.6217821782"/>
      </g>
     </g>
    </g>
   </g>
   <g id="patch_3">
    <path d="
M7.2 7.2
L453.6 7.2" style="fill:none;stroke:#000000;"/>
   </g>
   <g id="patch_4">
    <path d="
M453.6 352.8
L453.6 7.2" style="fill:none;stroke:#000000;"/>
   </g>
   <g id="patch_5">
    <path d="
M7.2 352.8
L453.6 352.8" style="fill:none;stroke:#000000;"/>
   </g>
   <g id="patch_6">
    <path d="
M7.2 352.8
L7.2 7.2" style="fill:none;stroke:#000000;"/>
   </g>
   <g id="text_10">
    <!-- {f1-f24}, 5-D -->
    <defs>
     <path d="
M30.5625 29.8906
L30.5625 21.9219
Q26.8125 21.8281 24.4375 19.875
Q22.0781 17.9219 21.2969 14.5781
Q20.5156 11.2344 20.4531 3.07812
Q20.4062 -5.07812 20.1719 -7.67188
Q19.7344 -11.8125 18.5312 -14.2812
Q17.3281 -16.75 15.5625 -18.2344
Q13.8125 -19.7344 11.0781 -20.5156
Q9.23438 -21.0469 5.03125 -21.0469
L2.29688 -21.0469
L2.29688 -13.375
L3.8125 -13.375
Q8.89062 -13.375 10.5469 -11.5469
Q12.2031 -9.71875 12.2031 -3.32812
Q12.2031 8.89062 12.6406 12.1562
Q13.4219 17.5781 15.7656 20.8281
Q18.1094 24.0781 22.4062 25.875
Q16.7969 28.5625 14.5 32.9844
Q12.2031 37.4062 12.2031 47.9062
Q12.2031 57.4219 11.9688 59.2812
Q11.625 62.5469 10.0312 63.8438
Q8.45312 65.1406 3.8125 65.1406
L2.29688 65.1406
L2.29688 72.7969
L5.03125 72.7969
Q9.8125 72.7969 11.9688 72.0156
Q15.0938 70.9531 17.1406 68.4062
Q19.1875 65.875 19.7969 62.0156
Q20.4062 58.1562 20.4531 49.3594
Q20.5156 40.5781 21.2969 37.2344
Q22.0781 33.8906 24.4375 31.9375
Q26.8125 29.9844 30.5625 29.8906" id="ArialMT-7d"/>
     <path d="
M8.89062 0
L8.89062 10.0156
L18.8906 10.0156
L18.8906 0
Q18.8906 -5.51562 16.9375 -8.90625
Q14.9844 -12.3125 10.75 -14.1562
L8.29688 -10.4062
Q11.0781 -9.1875 12.3906 -6.8125
Q13.7188 -4.4375 13.875 0
z
" id="ArialMT-2c"/>
     <path d="
M4.15625 18.75
L13.375 19.5312
Q14.4062 12.7969 18.1406 9.39062
Q21.875 6 27.1562 6
Q33.5 6 37.8906 10.7812
Q42.2812 15.5781 42.2812 23.4844
Q42.2812 31 38.0625 35.3438
Q33.8438 39.7031 27 39.7031
Q22.75 39.7031 19.3281 37.7656
Q15.9219 35.8438 13.9688 32.7656
L5.71875 33.8438
L12.6406 70.6094
L48.25 70.6094
L48.25 62.2031
L19.6719 62.2031
L15.8281 42.9688
Q22.2656 47.4688 29.3438 47.4688
Q38.7188 47.4688 45.1562 40.9688
Q51.6094 34.4688 51.6094 24.2656
Q51.6094 14.5469 45.9531 7.46875
Q39.0625 -1.21875 27.1562 -1.21875
Q17.3906 -1.21875 11.2031 4.25
Q5.03125 9.71875 4.15625 18.75" id="ArialMT-35"/>
     <path d="
M2.78125 29.8906
Q6.54688 29.9844 8.90625 31.9062
Q11.2812 33.8438 12.0625 37.2031
Q12.8438 40.5781 12.8906 48.7344
Q12.9375 56.8906 13.1875 59.4688
Q13.625 63.5781 14.8125 66.0625
Q16.0156 68.5625 17.7656 70.0469
Q19.5312 71.5312 22.2656 72.3125
Q24.125 72.7969 28.3281 72.7969
L31.0625 72.7969
L31.0625 65.1406
L29.5469 65.1406
Q24.4688 65.1406 22.7969 63.2969
Q21.1406 61.4688 21.1406 55.125
Q21.1406 42.3281 20.6094 38.9688
Q19.7344 33.7344 17.6094 30.9062
Q15.4844 28.0781 10.9375 25.875
Q16.3125 23.6406 18.7188 19.0156
Q21.1406 14.4062 21.1406 3.90625
Q21.1406 -5.60938 21.3438 -7.42188
Q21.7344 -10.75 23.3125 -12.0625
Q24.9062 -13.375 29.5469 -13.375
L31.0625 -13.375
L31.0625 -21.0469
L28.3281 -21.0469
Q23.5312 -21.0469 21.3906 -20.2656
Q18.2656 -19.1406 16.2031 -16.625
Q14.1562 -14.1094 13.5469 -10.25
Q12.9375 -6.39062 12.8906 2.39062
Q12.8438 11.1875 12.0625 14.5469
Q11.2812 17.9219 8.90625 19.875
Q6.54688 21.8281 2.78125 21.9219
z
" id="ArialMT-7b"/>
    </defs>
    <g transform="translate(337.900125 345.888)scale(0.2 -0.2)">
     <use xlink:href="#ArialMT-7b"/>
     <use x="33.3984375" xlink:href="#ArialMT-66"/>
     <use x="61.181640625" xlink:href="#ArialMT-31"/>
     <use x="116.796875" xlink:href="#ArialMT-2d"/>
     <use x="150.09765625" xlink:href="#ArialMT-66"/>
     <use x="177.880859375" xlink:href="#ArialMT-32"/>
     <use x="233.49609375" xlink:href="#ArialMT-34"/>
     <use x="289.111328125" xlink:href="#ArialMT-7d"/>
     <use x="322.509765625" xlink:href="#ArialMT-2c"/>
     <use x="350.29296875" xlink:href="#ArialMT-20"/>
     <use x="378.076171875" xlink:href="#ArialMT-35"/>
     <use x="433.69140625" xlink:href="#ArialMT-2d"/>
     <use x="466.9921875" xlink:href="#ArialMT-44"/>
    </g>
   </g>
   <g id="text_11">
    <!-- v2.0.1 -->
    <defs>
     <path d="
M21 0
L1.26562 51.8594
L10.5469 51.8594
L21.6875 20.7969
Q23.4844 15.7656 25 10.3594
Q26.1719 14.4531 28.2656 20.2188
L39.7969 51.8594
L48.8281 51.8594
L29.2031 0
z
" id="ArialMT-76"/>
     <path d="
M9.07812 0
L9.07812 10.0156
L19.0938 10.0156
L19.0938 0
z
" id="ArialMT-2e"/>
    </defs>
    <g style="fill:#808080;" transform="translate(217.76171875 347.3565)scale(0.1 -0.1)">
     <use xlink:href="#ArialMT-76"/>
     <use x="50.0" xlink:href="#ArialMT-32"/>
     <use x="105.615234375" xlink:href="#ArialMT-2e"/>
     <use x="133.3984375" xlink:href="#ArialMT-30"/>
     <use x="189.013671875" xlink:href="#ArialMT-2e"/>
     <use x="216.796875" xlink:href="#ArialMT-31"/>
    </g>
   </g>
  </g>
 </g>
 <defs>
  <clipPath id="p5bee155178">
   <rect height="345.6" width="446.4" x="7.2" y="7.2"/>
  </clipPath>
 </defs>
</svg>
