<?xml version="1.0" encoding="utf-8" standalone="no"?>
<!DOCTYPE svg PUBLIC "-//W3C//DTD SVG 1.1//EN"
  "http://www.w3.org/Graphics/SVG/1.1/DTD/svg11.dtd">
<!-- Created with matplotlib (http://matplotlib.org/) -->
<svg height="406pt" version="1.1" viewBox="0 0 460 406" width="460pt" xmlns="http://www.w3.org/2000/svg" xmlns:xlink="http://www.w3.org/1999/xlink">
 <defs>
  <style type="text/css">
*{stroke-linecap:butt;stroke-linejoin:round;}
  </style>
 </defs>
 <g id="figure_1">
  <g id="patch_1">
   <path d="
M0 406.059
L460.8 406.059
L460.8 0
L0 0
z
" style="fill:#ffffff;"/>
  </g>
  <g id="axes_1">
   <g id="patch_2">
    <path d="
M7.2 352.8
L453.6 352.8
L453.6 7.2
L7.2 7.2
z
" style="fill:#ffffff;"/>
   </g>
   <g id="line2d_1">
    <path clip-path="url(#p5bee155178)" d="
M-1 323.335
L-0.218885 323.335
L-0.218885 322.384
L4.22281 322.384
L4.22281 321.434
L116.866 321.434
L116.866 320.483
L122.628 320.483
L122.706 317.632
L123.653 317.632
L123.653 316.681
L124.363 316.681
L124.422 314.78
L125.002 314.78
L125.002 313.83
L125.126 313.83
L125.126 312.879
L125.651 312.879
L125.651 311.929
L125.819 311.929
L125.819 310.978
L127.511 310.978
L127.511 310.028
L128.037 310.028
L128.037 309.077
L128.208 309.077
L128.208 308.127
L130.757 308.127
L130.757 307.176
L168.626 307.176
L168.626 306.226
L171.998 306.226
L171.998 305.275
L172.114 305.275
L172.114 304.325
L179.901 304.325
L179.901 303.374
L183.061 303.374
L183.061 302.424
L183.535 302.424
L183.535 301.473
L185.516 301.473
L185.516 300.523
L186.151 300.523
L186.151 299.572
L187.348 299.572
L187.348 298.622
L187.701 298.622
L187.701 297.671
L188.581 297.671
L188.581 296.721
L189.102 296.721
L189.102 295.77
L190.195 295.77
L190.195 294.82
L190.771 294.82
L190.771 293.869
L191.342 293.869
L191.342 292.919
L192.853 292.919
L192.853 291.968
L193.37 291.968
L193.37 291.018
L194.888 291.018
L194.993 289.117
L195.097 289.117
L195.097 288.166
L195.247 288.166
L195.247 287.216
L197.396 287.216
L197.396 286.265
L197.847 286.265
L197.908 284.364
L198.733 284.364
L198.733 283.414
L198.989 283.414
L198.989 282.463
L199.567 282.463
L199.567 281.513
L200.58 281.513
L200.58 280.562
L201.572 280.562
L201.617 273.909
L201.968 273.909
L202.034 272.008
L202.241 272.008
L202.241 271.057
L202.68 271.057
L202.68 270.107
L203.363 270.107
L203.363 269.156
L203.554 269.156
L203.554 268.206
L204.201 268.206
L204.201 267.255
L204.969 267.255
L204.996 265.354
L205.686 265.354
L205.686 264.404
L206.061 264.404
L206.061 263.453
L206.216 263.453
L206.293 261.552
L206.388 261.552
L206.388 260.602
L206.538 260.602
L206.538 259.651
L206.779 259.651
L206.779 258.701
L207.038 258.701
L207.137 256.8
L208.538 256.8
L208.538 255.85
L209.16 255.85
L209.16 254.899
L210.141 254.899
L210.141 253.949
L210.663 253.949
L210.663 252.998
L210.937 252.998
L210.937 252.048
L211.155 252.048
L211.192 250.147
L211.901 250.147
L211.901 249.196
L212.149 249.196
L212.241 247.295
L212.337 247.295
L212.383 244.444
L212.478 244.444
L212.562 241.592
L212.763 241.592
L212.763 240.642
L213.188 240.642
L213.24 237.79
L213.358 237.79
L213.462 234.939
L213.664 234.939
L213.664 233.988
L213.805 233.988
L213.805 233.038
L214.04 233.038
L214.088 231.137
L214.304 231.137
L214.373 229.236
L214.421 229.236
L214.434 227.335
L214.597 227.335
L214.597 226.384
L214.787 226.384
L214.85 224.483
L215.187 224.483
L215.187 223.533
L215.443 223.533
L215.476 221.632
L215.795 221.632
L215.899 217.83
L216.082 217.83
L216.082 216.879
L216.363 216.879
L216.363 215.929
L216.701 215.929
L216.701 214.978
L216.814 214.978
L216.814 214.028
L217.319 214.028
L217.319 213.077
L217.842 213.077
L217.842 212.127
L217.969 212.127
L217.969 211.176
L218.25 211.176
L218.25 210.226
L218.428 210.226
L218.428 209.275
L218.654 209.275
L218.654 208.325
L218.833 208.325
L218.833 207.374
L219.152 207.374
L219.189 205.473
L219.453 205.473
L219.453 204.523
L219.818 204.523
L219.818 203.572
L220.287 203.572
L220.287 202.622
L221.187 202.622
L221.187 201.671
L221.532 201.671
L221.532 200.721
L222.313 200.721
L222.313 199.77
L222.715 199.77
L222.715 198.82
L223.03 198.82
L223.03 197.869
L223.915 197.869
L223.965 195.968
L224.047 195.968
L224.047 195.018
L224.269 195.018
L224.269 194.067
L225.223 194.067
L225.258 192.166
L225.529 192.166
L225.529 191.216
L225.965 191.216
L225.985 189.315
L227.241 189.315
L227.241 188.364
L227.381 188.364
L227.381 187.414
L227.748 187.414
L227.817 185.513
L228.246 185.513
L228.246 184.562
L228.48 184.562
L228.48 183.612
L228.758 183.612
L228.758 182.661
L228.899 182.661
L228.899 179.81
L229.325 179.81
L229.325 178.859
L229.773 178.859
L229.773 177.909
L231.319 177.909
L231.427 175.057
L231.66 175.057
L231.66 174.107
L231.784 174.107
L231.784 173.156
L232.193 173.156
L232.2 171.255
L232.483 171.255
L232.483 170.305
L232.75 170.305
L232.75 169.354
L233.052 169.354
L233.091 166.503
L233.188 166.503
L233.256 162.701
L233.317 162.701
L233.405 159.85
L233.443 159.85
L233.443 158.899
L233.559 158.899
L233.559 157.949
L233.782 157.949
L233.782 156.998
L234.119 156.998
L234.119 156.048
L234.254 156.048
L234.254 155.097
L234.508 155.097
L234.512 153.196
L234.765 153.196
L234.807 150.345
L234.969 150.345
L235.003 147.493
L235.129 147.493
L235.129 146.543
L235.27 146.543
L235.331 143.691
L235.702 143.691
L235.725 141.79
L235.878 141.79
L235.878 140.84
L236.008 140.84
L236.008 139.889
L236.121 139.889
L236.121 138.939
L236.244 138.939
L236.324 137.038
L236.85 137.038
L236.85 136.087
L237.505 136.087
L237.505 135.137
L237.656 135.137
L237.656 134.186
L237.906 134.186
L238.001 132.285
L238.434 132.285
L238.434 131.335
L239.265 131.335
L239.265 130.384
L239.652 130.384
L239.659 128.483
L240.992 128.483
L240.992 127.533
L241.524 127.533
L241.524 126.582
L241.762 126.582
L241.762 125.632
L242.127 125.632
L242.211 120.879
L242.41 120.879
L242.41 119.929
L242.681 119.929
L242.681 118.978
L242.932 118.978
L242.932 118.028
L243.154 118.028
L243.154 115.176
L243.788 115.176
L243.788 114.226
L244.092 114.226
L244.092 113.275
L244.413 113.275
L244.413 112.325
L244.632 112.325
L244.632 111.374
L244.809 111.374
L244.809 110.424
L244.954 110.424
L244.954 109.473
L245.215 109.473
L245.25 105.671
L245.399 105.671
L245.399 104.721
L245.752 104.721
L245.862 102.82
L246.006 102.82
L246.037 99.9683
L246.417 99.9683
L246.417 99.0178
L246.612 99.0178
L246.708 97.1168
L246.732 97.1168
L246.78 94.2653
L246.884 94.2653
L246.884 93.3149
L247.152 93.3149
L247.176 89.5129
L247.413 89.5129
L247.413 88.5624
L247.994 88.5624
L248.053 86.6614
L248.258 86.6614
L248.258 85.7109
L248.657 85.7109
L248.657 84.7604
L249.064 84.7604
L249.064 83.8099
L249.204 83.8099
L249.204 82.8594
L249.331 82.8594
L249.414 80.0079
L249.446 80.0079
L249.446 79.0574
L249.767 79.0574
L249.823 76.2059
L249.881 76.2059
L249.935 73.3545
L250.247 73.3545
L250.339 70.503
L250.373 70.503
L250.373 69.5525
L250.599 69.5525
L250.599 68.602
L250.758 68.602
L250.784 65.7505
L251.1 65.7505
L251.1 64.8
L251.521 64.8
L251.521 63.8495
L251.734 63.8495
L251.734 62.899
L252.828 62.899
L252.829 60.0475
L252.961 60.0475
L252.961 59.097
L253.347 59.097
L253.351 57.196
L253.473 57.196
L253.473 56.2455
L253.729 56.2455
L253.729 55.295
L254.431 55.295
L254.431 54.3446
L254.545 54.3446
L254.545 52.4436
L254.96 52.4436
L254.96 51.4931
L255.827 51.4931
L255.925 49.5921
L257.042 49.5921
L257.042 48.6416
L257.206 48.6416
L257.206 47.6911
L257.841 47.6911
L257.841 46.7406
L258.09 46.7406
L258.09 45.7901
L258.951 45.7901
L259.012 43.8891
L259.545 43.8891
L259.545 42.9386
L260.348 42.9386
L260.348 41.9881
L260.94 41.9881
L260.94 41.0376
L262.237 41.0376
L262.237 40.0871
L262.721 40.0871
L262.721 39.1366
L273.546 39.1366
L273.546 38.1861
L274.459 38.1861
L274.459 37.2356
L274.749 37.2356
L274.749 36.2851
L275.295 36.2851
L275.295 35.3347
L275.849 35.3347
L275.849 34.3842
L276.798 34.3842
L276.798 33.4337
L279.199 33.4337
L279.199 32.4832
L280.188 32.4832
L280.188 31.5327
L280.318 31.5327
L280.318 30.5822
L280.684 30.5822
L280.684 29.6317
L281.542 29.6317
L281.542 28.6812
L282.263 28.6812
L282.263 27.7307
L283.317 27.7307
L283.317 26.7802
L283.487 26.7802
L283.487 25.8297
L283.61 25.8297
L283.61 24.8792
L284.241 24.8792
L284.241 23.9287
L284.509 23.9287
L284.509 22.9782
L284.692 22.9782
L284.692 22.0277
L284.96 22.0277
L285.018 20.1267
L285.284 20.1267
L285.284 19.1762
L285.827 19.1762
L285.827 18.2257
L287.231 18.2257
L287.231 17.2752
L287.643 17.2752
L287.643 16.3248
L287.981 16.3248
L287.981 15.3743
L288.69 15.3743
L288.69 14.4238
L291.321 14.4238
L291.335 12.5228
L291.75 12.5228
L291.75 11.5723
L292.112 11.5723
L292.112 10.6218
L292.112 10.6218
L453.6 10.6218
L453.6 10.6218" style="fill:none;stroke:#ff0000;stroke-linecap:square;stroke-width:3.0;"/>
   </g>
   <g id="line2d_2">
    <path clip-path="url(#p5bee155178)" d="
M223.737 352.8
L223.737 351.85
L224.779 351.85
L224.779 350.899
L226.25 350.899
L226.25 349.949
L226.589 349.949
L226.589 348.998
L227.106 348.998
L227.106 348.048
L227.52 348.048
L227.52 347.097
L228.001 347.097
L228.001 346.147
L228.828 346.147
L228.866 344.246
L229.791 344.246
L229.791 343.295
L230.476 343.295
L230.476 342.345
L230.73 342.345
L230.73 341.394
L231.557 341.394
L231.557 340.444
L232.6 340.444
L232.627 338.543
L234.991 338.543
L234.991 337.592
L235.92 337.592
L235.92 336.642
L236.071 336.642
L236.071 335.691
L236.35 335.691
L236.35 334.741
L236.973 334.741
L236.973 333.79
L237.629 333.79
L237.629 332.84
L238.81 332.84
L238.81 331.889
L239.254 331.889
L239.254 330.939
L239.538 330.939
L239.538 329.988
L240.059 329.988
L240.143 328.087
L240.343 328.087
L240.343 327.137
L240.635 327.137
L240.635 326.186
L240.935 326.186
L240.949 324.285
L241.217 324.285
L241.325 322.384
L241.349 322.384
L241.37 320.483
L241.504 320.483
L241.606 318.582
L242.867 318.582
L242.89 316.681
L244.076 316.681
L244.076 315.731
L244.468 315.731
L244.479 313.83
L244.889 313.83
L244.925 310.978
L245.073 310.978
L245.073 310.028
L245.318 310.028
L245.411 308.127
L245.587 308.127
L245.587 307.176
L245.788 307.176
L245.788 306.226
L245.954 306.226
L245.954 305.275
L246.82 305.275
L246.874 302.424
L247.201 302.424
L247.201 301.473
L247.333 301.473
L247.333 300.523
L247.59 300.523
L247.59 299.572
L248.042 299.572
L248.042 298.622
L248.158 298.622
L248.158 297.671
L248.282 297.671
L248.282 296.721
L248.666 296.721
L248.763 294.82
L248.868 294.82
L248.868 293.869
L249.433 293.869
L249.433 292.919
L249.767 292.919
L249.849 291.018
L249.985 291.018
L249.985 290.067
L250.211 290.067
L250.211 289.117
L251.159 289.117
L251.159 288.166
L251.549 288.166
L251.549 287.216
L251.927 287.216
L251.961 285.315
L252.102 285.315
L252.102 284.364
L252.269 284.364
L252.269 283.414
L252.651 283.414
L252.741 280.562
L252.821 280.562
L252.86 277.711
L252.945 277.711
L253.047 272.958
L253.095 272.958
L253.203 268.206
L253.21 268.206
L253.302 261.552
L253.353 261.552
L253.406 257.75
L253.47 257.75
L253.577 253.949
L254.468 253.949
L254.487 252.048
L254.881 252.048
L254.881 251.097
L255.129 251.097
L255.129 250.147
L255.437 250.147
L255.493 248.246
L255.563 248.246
L255.563 247.295
L255.866 247.295
L255.866 246.345
L256.098 246.345
L256.098 245.394
L257.13 245.394
L257.13 244.444
L257.298 244.444
L257.298 243.493
L258.072 243.493
L258.072 242.543
L258.702 242.543
L258.702 241.592
L259.714 241.592
L259.714 240.642
L260.284 240.642
L260.284 239.691
L260.485 239.691
L260.485 238.741
L260.674 238.741
L260.674 237.79
L260.83 237.79
L260.869 235.889
L261.035 235.889
L261.035 234.939
L261.491 234.939
L261.491 233.988
L261.771 233.988
L261.877 231.137
L262.268 231.137
L262.268 230.186
L263.461 230.186
L263.461 229.236
L263.64 229.236
L263.64 228.285
L263.768 228.285
L263.768 227.335
L264.281 227.335
L264.331 224.483
L264.487 224.483
L264.487 223.533
L265.461 223.533
L265.461 222.582
L265.612 222.582
L265.612 221.632
L266.011 221.632
L266.011 220.681
L266.197 220.681
L266.197 219.731
L266.502 219.731
L266.502 218.78
L267.035 218.78
L267.035 217.83
L267.504 217.83
L267.504 216.879
L267.921 216.879
L267.921 215.929
L268.197 215.929
L268.197 214.978
L268.346 214.978
L268.346 214.028
L268.656 214.028
L268.656 213.077
L268.823 213.077
L268.823 212.127
L269.306 212.127
L269.306 211.176
L269.886 211.176
L269.886 210.226
L270.469 210.226
L270.469 209.275
L272.368 209.275
L272.368 208.325
L272.853 208.325
L272.933 206.424
L273.167 206.424
L273.272 204.523
L273.408 204.523
L273.408 202.622
L273.537 202.622
L273.537 201.671
L273.835 201.671
L273.835 200.721
L274.405 200.721
L274.405 199.77
L274.533 199.77
L274.533 198.82
L274.695 198.82
L274.695 197.869
L274.851 197.869
L274.851 196.919
L275.542 196.919
L275.542 195.968
L275.706 195.968
L275.73 194.067
L276.228 194.067
L276.228 193.117
L276.544 193.117
L276.544 192.166
L276.698 192.166
L276.698 191.216
L277.413 191.216
L277.413 190.265
L277.893 190.265
L277.984 187.414
L278.203 187.414
L278.203 186.463
L278.434 186.463
L278.434 185.513
L278.583 185.513
L278.583 184.562
L278.811 184.562
L278.899 181.711
L278.928 181.711
L279.01 178.859
L279.401 178.859
L279.401 177.909
L279.77 177.909
L279.77 176.958
L280.031 176.958
L280.031 176.008
L280.314 176.008
L280.314 175.057
L280.728 175.057
L280.728 174.107
L280.982 174.107
L280.982 173.156
L281.778 173.156
L281.78 171.255
L282.052 171.255
L282.065 169.354
L282.169 169.354
L282.169 168.404
L282.375 168.404
L282.409 166.503
L282.499 166.503
L282.499 165.552
L282.641 165.552
L282.689 163.651
L282.763 163.651
L282.845 161.75
L283.43 161.75
L283.531 159.85
L283.608 159.85
L283.608 158.899
L284.33 158.899
L284.375 156.998
L284.485 156.998
L284.485 156.048
L284.682 156.048
L284.682 155.097
L285.4 155.097
L285.456 152.246
L285.628 152.246
L285.628 151.295
L285.851 151.295
L285.945 147.493
L286.341 147.493
L286.341 146.543
L286.703 146.543
L286.703 145.592
L287.574 145.592
L287.574 144.642
L288.642 144.642
L288.642 143.691
L288.854 143.691
L288.854 142.741
L289.169 142.741
L289.27 140.84
L289.336 140.84
L289.336 139.889
L289.536 139.889
L289.569 137.988
L289.657 137.988
L289.657 137.038
L290.249 137.038
L290.249 136.087
L290.562 136.087
L290.631 134.186
L290.689 134.186
L290.689 133.236
L291 133.236
L291.074 130.384
L291.13 130.384
L291.216 127.533
L291.918 127.533
L291.918 126.582
L292.778 126.582
L292.778 125.632
L293.846 125.632
L293.846 124.681
L296.673 124.681
L296.673 123.731
L299.154 123.731
L299.154 122.78
L311.522 122.78
L311.522 121.83
L313.448 121.83
L313.448 120.879
L316.104 120.879
L316.104 119.929
L321.034 119.929
L321.034 118.978
L323.215 118.978
L323.215 118.028
L323.784 118.028
L323.784 117.077
L324.139 117.077
L324.139 116.127
L324.465 116.127
L324.465 115.176
L325.656 115.176
L325.758 113.275
L326.035 113.275
L326.035 112.325
L326.631 112.325
L326.631 111.374
L327.919 111.374
L327.919 110.424
L329.229 110.424
L329.229 109.473
L329.444 109.473
L329.499 107.572
L329.886 107.572
L329.982 105.671
L330.169 105.671
L330.169 104.721
L330.574 104.721
L330.574 103.77
L331.183 103.77
L331.219 101.869
L332.051 101.869
L332.051 100.919
L332.54 100.919
L332.54 99.9683
L332.758 99.9683
L332.807 98.0673
L333.015 98.0673
L333.015 97.1168
L334.046 97.1168
L334.046 96.1663
L334.523 96.1663
L334.523 94.2653
L334.97 94.2653
L334.97 93.3149
L335.156 93.3149
L335.156 92.3644
L335.806 92.3644
L335.806 91.4139
L336.613 91.4139
L336.613 90.4634
L337.346 90.4634
L337.346 89.5129
L337.464 89.5129
L337.464 88.5624
L338.237 88.5624
L338.237 87.6119
L338.52 87.6119
L338.52 86.6614
L338.683 86.6614
L338.683 85.7109
L338.865 85.7109
L338.865 84.7604
L339.514 84.7604
L339.514 83.8099
L339.736 83.8099
L339.736 82.8594
L340.608 82.8594
L340.608 81.9089
L340.943 81.9089
L340.943 80.9584
L341.826 80.9584
L341.826 80.0079
L341.952 80.0079
L341.952 79.0574
L343.774 79.0574
L343.774 78.1069
L344.957 78.1069
L344.957 77.1564
L345.755 77.1564
L345.755 76.2059
L346.052 76.2059
L346.152 74.305
L346.705 74.305
L346.705 73.3545
L346.852 73.3545
L346.852 72.404
L347.276 72.404
L347.276 71.4535
L348.065 71.4535
L348.065 70.503
L349.393 70.503
L349.393 69.5525
L349.59 69.5525
L349.59 68.602
L350.229 68.602
L350.229 67.6515
L350.607 67.6515
L350.607 66.701
L350.724 66.701
L350.724 65.7505
L350.922 65.7505
L350.922 64.8
L351.244 64.8
L351.244 63.8495
L354.843 63.8495
L354.843 62.899
L355.036 62.899
L355.036 61.9485
L355.151 61.9485
L355.151 60.998
L355.346 60.998
L355.362 59.097
L355.578 59.097
L355.578 58.1465
L355.76 58.1465
L355.76 57.196
L356.274 57.196
L356.274 56.2455
L357.591 56.2455
L357.591 55.295
L360.504 55.295
L360.504 54.3446
L361.011 54.3446
L361.011 53.3941
L361.21 53.3941
L361.21 52.4436
L363.221 52.4436
L363.221 51.4931
L366.12 51.4931
L366.12 50.5426
L370.255 50.5426
L370.255 49.5921
L370.861 49.5921
L370.861 48.6416
L372.475 48.6416
L372.475 47.6911
L373.462 47.6911
L373.548 45.7901
L374.018 45.7901
L374.018 44.8396
L374.245 44.8396
L374.245 43.8891
L375.575 43.8891
L375.575 42.9386
L375.855 42.9386
L375.855 41.9881
L376.106 41.9881
L376.106 41.0376
L376.72 41.0376
L376.72 40.0871
L376.906 40.0871
L376.906 39.1366
L377.923 39.1366
L377.923 38.1861
L378.836 38.1861
L378.836 37.2356
L380.094 37.2356
L380.094 36.2851
L381.227 36.2851
L381.227 35.3347
L381.85 35.3347
L381.85 34.3842
L383.374 34.3842
L383.374 33.4337
L384.209 33.4337
L384.209 32.4832
L384.363 32.4832
L384.363 31.5327
L386.179 31.5327
L386.179 30.5822
L386.425 30.5822
L386.425 29.6317
L389.218 29.6317
L389.226 27.7307
L389.88 27.7307
L389.88 26.7802
L391.306 26.7802
L391.306 25.8297
L391.647 25.8297
L391.647 24.8792
L411.43 24.8792
L411.43 23.9287
L412.634 23.9287
L412.634 22.9782
L413.717 22.9782
L413.717 22.0277
L417.348 22.0277
L417.443 20.1267
L418.054 20.1267
L418.054 19.1762
L422.753 19.1762
L422.753 18.2257
L422.885 18.2257
L422.885 17.2752
L423.426 17.2752
L423.426 16.3248
L423.736 16.3248
L423.736 15.3743
L424.88 15.3743
L424.88 14.4238
L427.983 14.4238
L427.983 13.4733
L431.785 13.4733
L431.785 12.5228
L441.34 12.5228
L441.34 11.5723
L444.686 11.5723
L444.686 10.6218
L444.686 10.6218
L453.6 10.6218
L453.6 10.6218" style="fill:none;stroke:#00bfbf;stroke-linecap:square;"/>
   </g>
   <g id="line2d_3">
    <path clip-path="url(#p5bee155178)" d="
M219.752 352.8
L219.752 351.85
L222.798 351.85
L222.798 350.899
L223.219 350.899
L223.219 349.949
L223.737 349.949
L223.737 348.998
L224.779 348.998
L224.812 347.097
L226.089 347.097
L226.13 345.196
L226.629 345.196
L226.703 343.295
L226.912 343.295
L226.912 342.345
L228.142 342.345
L228.227 340.444
L228.535 340.444
L228.535 339.493
L228.866 339.493
L228.866 338.543
L233.384 338.543
L233.384 337.592
L234.991 337.592
L234.991 336.642
L235.705 336.642
L235.735 334.741
L235.92 334.741
L235.92 333.79
L236.283 333.79
L236.283 332.84
L236.973 332.84
L236.973 331.889
L237.266 331.889
L237.266 330.939
L237.629 330.939
L237.629 329.988
L237.95 329.988
L237.95 329.038
L238.62 329.038
L238.62 328.087
L239.254 328.087
L239.254 327.137
L239.722 327.137
L239.722 326.186
L239.903 326.186
L239.903 325.236
L240.059 325.236
L240.143 323.335
L240.271 323.335
L240.343 321.434
L240.536 321.434
L240.635 319.533
L240.935 319.533
L240.996 316.681
L241.325 316.681
L241.349 314.78
L241.447 314.78
L241.504 312.879
L241.606 312.879
L241.606 311.929
L242.346 311.929
L242.346 310.978
L242.783 310.978
L242.783 310.028
L244.076 310.028
L244.076 309.077
L244.261 309.077
L244.261 308.127
L244.468 308.127
L244.479 306.226
L244.856 306.226
L244.889 304.325
L245.318 304.325
L245.411 302.424
L245.788 302.424
L245.788 301.473
L246.614 301.473
L246.667 298.622
L246.799 298.622
L246.874 294.82
L247.333 294.82
L247.4 292.919
L247.59 292.919
L247.59 291.968
L247.841 291.968
L247.873 290.067
L248.129 290.067
L248.129 289.117
L248.915 289.117
L248.915 288.166
L249.197 288.166
L249.197 287.216
L249.824 287.216
L249.849 285.315
L250.821 285.315
L250.821 284.364
L250.945 284.364
L250.945 283.414
L251.927 283.414
L251.961 281.513
L252.102 281.513
L252.102 280.562
L252.269 280.562
L252.269 279.612
L252.438 279.612
L252.486 277.711
L252.651 277.711
L252.741 274.859
L252.782 274.859
L252.86 270.107
L252.898 270.107
L252.997 264.404
L253.047 264.404
L253.117 259.651
L253.191 259.651
L253.299 253.949
L253.302 253.949
L253.387 250.147
L253.47 250.147
L253.577 247.295
L254.396 247.295
L254.396 246.345
L254.748 246.345
L254.748 245.394
L255.437 245.394
L255.437 244.444
L256.098 244.444
L256.098 243.493
L256.662 243.493
L256.662 242.543
L256.97 242.543
L256.97 241.592
L257.493 241.592
L257.493 240.642
L258.072 240.642
L258.072 239.691
L258.511 239.691
L258.511 238.741
L258.899 238.741
L258.899 237.79
L259.114 237.79
L259.114 236.84
L259.631 236.84
L259.631 235.889
L260.224 235.889
L260.284 233.988
L260.674 233.988
L260.696 232.087
L261.035 232.087
L261.035 231.137
L261.771 231.137
L261.866 229.236
L262.268 229.236
L262.268 228.285
L263.277 228.285
L263.277 227.335
L263.461 227.335
L263.461 226.384
L263.64 226.384
L263.64 225.434
L263.768 225.434
L263.768 224.483
L264.281 224.483
L264.309 222.582
L264.487 222.582
L264.487 221.632
L264.678 221.632
L264.716 219.731
L266.011 219.731
L266.011 218.78
L266.351 218.78
L266.351 217.83
L266.502 217.83
L266.556 215.929
L266.747 215.929
L266.747 214.978
L266.87 214.978
L266.87 214.028
L267 214.028
L267.035 212.127
L268.197 212.127
L268.197 211.176
L268.581 211.176
L268.581 210.226
L269.886 210.226
L269.886 209.275
L271.44 209.275
L271.44 208.325
L272.005 208.325
L272.005 207.374
L272.368 207.374
L272.368 206.424
L272.853 206.424
L272.933 204.523
L272.994 204.523
L273.101 202.622
L273.139 202.622
L273.167 200.721
L273.269 200.721
L273.269 199.77
L273.408 199.77
L273.408 197.869
L274.005 197.869
L274.057 195.968
L274.533 195.968
L274.642 194.067
L274.695 194.067
L274.695 193.117
L275.542 193.117
L275.542 192.166
L275.706 192.166
L275.73 190.265
L276.228 190.265
L276.228 189.315
L276.544 189.315
L276.544 188.364
L276.698 188.364
L276.698 187.414
L277.413 187.414
L277.489 185.513
L277.893 185.513
L277.984 183.612
L278.065 183.612
L278.065 182.661
L278.203 182.661
L278.203 181.711
L278.434 181.711
L278.522 179.81
L278.583 179.81
L278.583 178.859
L278.811 178.859
L278.899 176.008
L278.928 176.008
L279.01 173.156
L279.401 173.156
L279.401 172.206
L280.031 172.206
L280.074 169.354
L280.314 169.354
L280.364 167.453
L280.611 167.453
L280.611 166.503
L280.728 166.503
L280.728 165.552
L281.122 165.552
L281.122 164.602
L281.381 164.602
L281.442 160.8
L281.749 160.8
L281.749 159.85
L281.908 159.85
L281.908 158.899
L282.052 158.899
L282.065 156.998
L282.394 156.998
L282.409 155.097
L282.546 155.097
L282.546 154.147
L282.715 154.147
L282.763 152.246
L283.014 152.246
L283.014 151.295
L283.527 151.295
L283.617 148.444
L283.71 148.444
L283.71 147.493
L284.046 147.493
L284.121 143.691
L285.026 143.691
L285.026 142.741
L285.422 142.741
L285.422 141.79
L285.992 141.79
L286.065 139.889
L286.341 139.889
L286.341 138.939
L286.703 138.939
L286.703 137.988
L288.069 137.988
L288.069 137.038
L288.4 137.038
L288.505 134.186
L288.551 134.186
L288.551 133.236
L289.297 133.236
L289.297 132.285
L289.504 132.285
L289.569 130.384
L289.795 130.384
L289.799 128.483
L289.989 128.483
L290.052 126.582
L290.249 126.582
L290.249 125.632
L290.631 125.632
L290.631 124.681
L291 124.681
L291 123.731
L291.216 123.731
L291.216 122.78
L291.918 122.78
L291.918 121.83
L292.906 121.83
L292.906 120.879
L296.175 120.879
L296.175 119.929
L311.522 119.929
L311.522 118.978
L313.448 118.978
L313.448 118.028
L319.449 118.028
L319.449 117.077
L320.99 117.077
L321.034 115.176
L323.215 115.176
L323.215 114.226
L323.784 114.226
L323.784 113.275
L324.139 113.275
L324.139 112.325
L324.465 112.325
L324.465 111.374
L325.656 111.374
L325.758 109.473
L326.035 109.473
L326.035 108.523
L326.631 108.523
L326.631 107.572
L327.402 107.572
L327.402 106.622
L327.68 106.622
L327.68 105.671
L327.919 105.671
L327.919 104.721
L329.136 104.721
L329.229 102.82
L329.444 102.82
L329.444 101.869
L329.982 101.869
L329.982 100.919
L330.169 100.919
L330.169 99.9683
L330.574 99.9683
L330.574 99.0178
L331.183 99.0178
L331.219 97.1168
L331.395 97.1168
L331.395 96.1663
L331.617 96.1663
L331.691 94.2653
L331.864 94.2653
L331.864 93.3149
L332.051 93.3149
L332.051 92.3644
L332.54 92.3644
L332.54 91.4139
L332.758 91.4139
L332.807 89.5129
L333.015 89.5129
L333.015 88.5624
L333.237 88.5624
L333.237 87.6119
L334.046 87.6119
L334.046 86.6614
L334.523 86.6614
L334.523 84.7604
L335.679 84.7604
L335.679 83.8099
L335.806 83.8099
L335.806 82.8594
L337.802 82.8594
L337.802 81.9089
L338.237 81.9089
L338.237 80.9584
L338.683 80.9584
L338.767 79.0574
L340.477 79.0574
L340.477 78.1069
L340.608 78.1069
L340.608 77.1564
L340.802 77.1564
L340.802 76.2059
L341.498 76.2059
L341.498 75.2554
L341.871 75.2554
L341.952 73.3545
L342.043 73.3545
L342.043 72.404
L342.184 72.404
L342.184 71.4535
L343.435 71.4535
L343.435 70.503
L344.73 70.503
L344.73 69.5525
L345.834 69.5525
L345.834 68.602
L346.052 68.602
L346.067 66.701
L348.065 66.701
L348.065 65.7505
L348.855 65.7505
L348.855 64.8
L349.59 64.8
L349.59 62.899
L351.998 62.899
L351.998 61.9485
L352.733 61.9485
L352.733 60.998
L354.073 60.998
L354.073 60.0475
L354.843 60.0475
L354.89 58.1465
L355.036 58.1465
L355.036 57.196
L355.195 57.196
L355.195 56.2455
L355.346 56.2455
L355.346 55.295
L357.591 55.295
L357.591 54.3446
L360.504 54.3446
L360.504 53.3941
L361.011 53.3941
L361.011 52.4436
L362.558 52.4436
L362.558 51.4931
L363.221 51.4931
L363.221 50.5426
L366.12 50.5426
L366.12 49.5921
L368.887 49.5921
L368.887 48.6416
L369.083 48.6416
L369.083 47.6911
L369.867 47.6911
L369.867 46.7406
L370.169 46.7406
L370.169 45.7901
L371.351 45.7901
L371.351 44.8396
L373.548 44.8396
L373.548 43.8891
L374.018 43.8891
L374.018 42.9386
L374.245 42.9386
L374.245 41.9881
L374.673 41.9881
L374.673 41.0376
L374.967 41.0376
L374.967 40.0871
L375.575 40.0871
L375.575 39.1366
L375.855 39.1366
L375.855 38.1861
L376.72 38.1861
L376.72 37.2356
L378.67 37.2356
L378.67 36.2851
L378.836 36.2851
L378.836 35.3347
L380.159 35.3347
L380.159 34.3842
L380.551 34.3842
L380.551 33.4337
L381.152 33.4337
L381.173 31.5327
L383.156 31.5327
L383.156 30.5822
L384.363 30.5822
L384.363 29.6317
L385.501 29.6317
L385.501 28.6812
L386.179 28.6812
L386.179 27.7307
L388.149 27.7307
L388.149 26.7802
L389.226 26.7802
L389.226 25.8297
L389.88 25.8297
L389.88 24.8792
L410.832 24.8792
L410.832 23.9287
L411.43 23.9287
L411.43 22.9782
L412.47 22.9782
L412.47 22.0277
L412.634 22.0277
L412.634 21.0772
L415.855 21.0772
L415.855 20.1267
L416.179 20.1267
L416.179 19.1762
L417.348 19.1762
L417.348 18.2257
L418.406 18.2257
L418.406 17.2752
L422.753 17.2752
L422.753 16.3248
L423.426 16.3248
L423.426 15.3743
L423.736 15.3743
L423.736 14.4238
L427.379 14.4238
L427.379 13.4733
L427.983 13.4733
L427.983 12.5228
L431.292 12.5228
L431.292 11.5723
L434.21 11.5723
L434.21 10.6218
L434.21 10.6218
L453.6 10.6218
L453.6 10.6218" style="fill:none;stroke:#bf00bf;stroke-linecap:square;"/>
   </g>
   <g id="line2d_4">
    <path clip-path="url(#p5bee155178)" d="
M219.271 352.8
L219.271 351.85
L219.752 351.85
L219.752 350.899
L219.911 350.899
L219.911 349.949
L220.89 349.949
L220.89 348.998
L222.105 348.998
L222.105 348.048
L222.798 348.048
L222.798 347.097
L223.357 347.097
L223.357 346.147
L223.737 346.147
L223.737 345.196
L224.812 345.196
L224.812 344.246
L225.089 344.246
L225.089 343.295
L225.634 343.295
L225.634 342.345
L225.763 342.345
L225.763 341.394
L225.921 341.394
L225.921 340.444
L226.089 340.444
L226.089 339.493
L226.629 339.493
L226.629 338.543
L229.164 338.543
L229.164 337.592
L231.695 337.592
L231.695 336.642
L232.252 336.642
L232.252 335.691
L232.91 335.691
L232.91 334.741
L233.199 334.741
L233.199 333.79
L233.444 333.79
L233.444 332.84
L233.855 332.84
L233.855 331.889
L234.757 331.889
L234.757 330.939
L235.705 330.939
L235.735 329.038
L235.876 329.038
L235.876 328.087
L236.377 328.087
L236.377 327.137
L236.837 327.137
L236.837 326.186
L236.958 326.186
L236.958 325.236
L237.245 325.236
L237.245 324.285
L237.409 324.285
L237.409 323.335
L237.6 323.335
L237.653 321.434
L237.764 321.434
L237.764 320.483
L238.28 320.483
L238.29 318.582
L238.903 318.582
L238.903 317.632
L239.254 317.632
L239.271 315.731
L239.382 315.731
L239.382 314.78
L239.939 314.78
L239.96 312.879
L240.271 312.879
L240.308 310.978
L240.593 310.978
L240.593 310.028
L240.935 310.028
L240.935 309.077
L241.622 309.077
L241.622 308.127
L242.068 308.127
L242.068 307.176
L242.346 307.176
L242.398 305.275
L242.549 305.275
L242.563 303.374
L242.791 303.374
L242.805 301.473
L242.963 301.473
L243.037 298.622
L243.553 298.622
L243.553 297.671
L243.874 297.671
L243.878 295.77
L244.087 295.77
L244.087 294.82
L244.261 294.82
L244.261 293.869
L244.374 293.869
L244.374 292.919
L244.843 292.919
L244.889 291.018
L245.411 291.018
L245.411 290.067
L245.609 290.067
L245.609 289.117
L245.736 289.117
L245.785 287.216
L245.904 287.216
L245.904 286.265
L246.09 286.265
L246.09 285.315
L246.363 285.315
L246.363 284.364
L246.614 284.364
L246.614 283.414
L246.82 283.414
L246.82 282.463
L247.532 282.463
L247.532 281.513
L247.766 281.513
L247.766 280.562
L248.584 280.562
L248.645 278.661
L248.811 278.661
L248.811 277.711
L249.654 277.711
L249.723 275.81
L249.788 275.81
L249.849 273.909
L250.534 273.909
L250.534 272.958
L250.734 272.958
L250.734 272.008
L250.943 272.008
L250.943 271.057
L251.11 271.057
L251.11 270.107
L251.374 270.107
L251.471 268.206
L251.758 268.206
L251.854 266.305
L251.904 266.305
L251.94 264.404
L252.102 264.404
L252.203 259.651
L252.269 259.651
L252.341 256.8
L252.39 256.8
L252.486 254.899
L252.504 254.899
L252.57 252.048
L252.624 252.048
L252.659 250.147
L252.747 250.147
L252.857 248.246
L252.874 248.246
L252.972 244.444
L252.992 244.444
L252.992 243.493
L253.211 243.493
L253.299 240.642
L253.655 240.642
L253.655 239.691
L253.824 239.691
L253.824 238.741
L254.3 238.741
L254.334 236.84
L255.593 236.84
L255.593 235.889
L256.027 235.889
L256.027 234.939
L256.394 234.939
L256.394 233.988
L256.855 233.988
L256.855 233.038
L257.987 233.038
L258 231.137
L258.511 231.137
L258.608 229.236
L259.419 229.236
L259.419 228.285
L260.124 228.285
L260.124 227.335
L260.25 227.335
L260.25 226.384
L260.383 226.384
L260.383 225.434
L260.669 225.434
L260.709 223.533
L260.953 223.533
L260.953 222.582
L262.348 222.582
L262.348 221.632
L262.722 221.632
L262.815 219.731
L263.229 219.731
L263.279 217.83
L263.885 217.83
L263.885 216.879
L264.136 216.879
L264.165 214.978
L264.309 214.978
L264.309 214.028
L264.675 214.028
L264.745 212.127
L266.145 212.127
L266.145 211.176
L267.407 211.176
L267.407 210.226
L267.521 210.226
L267.521 209.275
L268.61 209.275
L268.61 208.325
L268.812 208.325
L268.812 207.374
L270.36 207.374
L270.36 206.424
L270.716 206.424
L270.716 205.473
L271.113 205.473
L271.176 202.622
L271.44 202.622
L271.44 201.671
L271.844 201.671
L271.849 199.77
L272.005 199.77
L272.078 196.919
L272.157 196.919
L272.157 195.968
L272.396 195.968
L272.396 195.018
L272.66 195.018
L272.675 193.117
L272.994 193.117
L272.994 192.166
L273.139 192.166
L273.203 189.315
L273.433 189.315
L273.433 188.364
L273.76 188.364
L273.802 186.463
L273.874 186.463
L273.874 185.513
L274.007 185.513
L274.067 183.612
L274.642 183.612
L274.731 181.711
L274.875 181.711
L274.96 179.81
L275.242 179.81
L275.242 178.859
L275.378 178.859
L275.475 176.958
L275.542 176.958
L275.542 176.008
L275.759 176.008
L275.759 175.057
L275.883 175.057
L275.883 174.107
L276.157 174.107
L276.157 173.156
L276.278 173.156
L276.286 171.255
L276.513 171.255
L276.566 168.404
L276.76 168.404
L276.76 167.453
L276.884 167.453
L276.884 166.503
L277.01 166.503
L277.01 165.552
L277.232 165.552
L277.31 161.75
L277.429 161.75
L277.442 159.85
L277.585 159.85
L277.592 157.949
L277.772 157.949
L277.772 156.998
L277.919 156.998
L278.004 154.147
L278.128 154.147
L278.234 152.246
L278.338 152.246
L278.338 151.295
L278.624 151.295
L278.655 149.394
L278.928 149.394
L279.032 146.543
L279.483 146.543
L279.483 145.592
L279.726 145.592
L279.806 143.691
L280.097 143.691
L280.097 142.741
L280.422 142.741
L280.497 139.889
L280.543 139.889
L280.543 138.939
L281.122 138.939
L281.122 137.988
L282.662 137.988
L282.662 137.038
L283.021 137.038
L283.021 136.087
L284.61 136.087
L284.61 135.137
L284.883 135.137
L284.883 134.186
L285.219 134.186
L285.219 133.236
L285.425 133.236
L285.425 132.285
L285.833 132.285
L285.833 131.335
L285.958 131.335
L285.958 130.384
L286.453 130.384
L286.453 129.434
L287.021 129.434
L287.028 127.533
L287.244 127.533
L287.297 125.632
L288.038 125.632
L288.038 124.681
L288.336 124.681
L288.336 123.731
L288.493 123.731
L288.576 121.83
L288.66 121.83
L288.66 120.879
L288.974 120.879
L288.974 119.929
L289.286 119.929
L289.297 118.028
L289.896 118.028
L289.896 117.077
L290.507 117.077
L290.507 116.127
L302.753 116.127
L302.753 115.176
L307.23 115.176
L307.23 114.226
L310.453 114.226
L310.453 113.275
L314.4 113.275
L314.4 112.325
L317.325 112.325
L317.325 111.374
L317.769 111.374
L317.769 110.424
L318.675 110.424
L318.675 109.473
L319.234 109.473
L319.234 108.523
L319.494 108.523
L319.494 107.572
L321.034 107.572
L321.034 106.622
L321.607 106.622
L321.607 105.671
L322.073 105.671
L322.073 104.721
L322.191 104.721
L322.193 102.82
L322.598 102.82
L322.598 101.869
L322.92 101.869
L322.92 100.919
L323.396 100.919
L323.396 99.9683
L323.566 99.9683
L323.566 99.0178
L323.784 99.0178
L323.784 98.0673
L324.465 98.0673
L324.465 97.1168
L324.908 97.1168
L324.908 96.1663
L325.053 96.1663
L325.053 95.2158
L325.46 95.2158
L325.46 94.2653
L325.719 94.2653
L325.719 93.3149
L326.21 93.3149
L326.21 92.3644
L327.116 92.3644
L327.216 90.4634
L327.445 90.4634
L327.445 89.5129
L327.68 89.5129
L327.68 88.5624
L328.172 88.5624
L328.172 87.6119
L328.392 87.6119
L328.392 86.6614
L328.633 86.6614
L328.633 85.7109
L329.229 85.7109
L329.337 83.8099
L330.165 83.8099
L330.205 80.9584
L330.574 80.9584
L330.574 80.0079
L331.183 80.0079
L331.183 79.0574
L331.502 79.0574
L331.502 78.1069
L331.617 78.1069
L331.617 77.1564
L332.122 77.1564
L332.122 76.2059
L332.54 76.2059
L332.54 75.2554
L332.769 75.2554
L332.827 73.3545
L333.602 73.3545
L333.602 72.404
L334.976 72.404
L334.976 71.4535
L336.077 71.4535
L336.077 70.503
L336.894 70.503
L336.894 69.5525
L337.261 69.5525
L337.261 68.602
L337.818 68.602
L337.818 67.6515
L338.072 67.6515
L338.137 65.7505
L338.197 65.7505
L338.197 64.8
L338.8 64.8
L338.8 63.8495
L340.238 63.8495
L340.245 61.9485
L342.296 61.9485
L342.296 60.998
L342.543 60.998
L342.543 60.0475
L343.28 60.0475
L343.28 59.097
L346.789 59.097
L346.789 58.1465
L348.397 58.1465
L348.403 56.2455
L348.579 56.2455
L348.579 55.295
L349.029 55.295
L349.029 54.3446
L349.318 54.3446
L349.318 53.3941
L351.42 53.3941
L351.42 52.4436
L355.036 52.4436
L355.036 51.4931
L358.46 51.4931
L358.46 50.5426
L359.03 50.5426
L359.128 47.6911
L359.95 47.6911
L359.95 46.7406
L360.504 46.7406
L360.512 44.8396
L361.297 44.8396
L361.297 43.8891
L361.667 43.8891
L361.667 42.9386
L362.558 42.9386
L362.558 41.9881
L363.221 41.9881
L363.221 41.0376
L364.137 41.0376
L364.137 40.0871
L364.351 40.0871
L364.456 38.1861
L365.836 38.1861
L365.836 37.2356
L366.829 37.2356
L366.829 36.2851
L367.51 36.2851
L367.51 35.3347
L368.436 35.3347
L368.533 33.4337
L369.073 33.4337
L369.139 31.5327
L370.355 31.5327
L370.355 30.5822
L370.954 30.5822
L370.954 29.6317
L372.316 29.6317
L372.316 28.6812
L373.012 28.6812
L373.012 27.7307
L373.548 27.7307
L373.548 26.7802
L379.486 26.7802
L379.486 25.8297
L380.947 25.8297
L380.947 24.8792
L405.879 24.8792
L405.879 23.9287
L406.278 23.9287
L406.302 22.0277
L408.051 22.0277
L408.051 21.0772
L408.728 21.0772
L408.728 20.1267
L410.524 20.1267
L410.524 19.1762
L410.963 19.1762
L410.963 18.2257
L411.947 18.2257
L411.947 17.2752
L414.34 17.2752
L414.34 16.3248
L414.988 16.3248
L414.988 15.3743
L415.722 15.3743
L415.722 14.4238
L416.383 14.4238
L416.383 13.4733
L419.058 13.4733
L419.058 12.5228
L422.291 12.5228
L422.291 11.5723
L424.754 11.5723
L424.754 10.6218
L424.754 10.6218
L453.6 10.6218
L453.6 10.6218" style="fill:none;stroke:#000000;stroke-linecap:square;"/>
   </g>
   <g id="line2d_5">
    <path clip-path="url(#p5bee155178)" d="
M-1 351.85
L193.817 351.85
L193.817 350.899
L202.689 350.899
L202.689 349.949
L210.378 349.949
L210.378 348.998
L210.663 348.998
L210.663 348.048
L212.758 348.048
L212.758 347.097
L213.076 347.097
L213.076 346.147
L216.776 346.147
L216.776 345.196
L217.252 345.196
L217.313 343.295
L217.632 343.295
L217.632 342.345
L218.898 342.345
L218.898 341.394
L219.271 341.394
L219.271 340.444
L219.451 340.444
L219.451 339.493
L219.752 339.493
L219.752 338.543
L219.904 338.543
L219.911 336.642
L220.4 336.642
L220.4 335.691
L220.66 335.691
L220.688 332.84
L220.831 332.84
L220.89 330.939
L221.046 330.939
L221.145 329.038
L221.264 329.038
L221.28 327.137
L221.649 327.137
L221.758 324.285
L222.1 324.285
L222.208 320.483
L222.36 320.483
L222.462 318.582
L222.576 318.582
L222.598 316.681
L222.798 316.681
L222.816 314.78
L223.048 314.78
L223.142 310.028
L223.737 310.028
L223.737 309.077
L223.977 309.077
L224.076 307.176
L224.233 307.176
L224.233 306.226
L224.379 306.226
L224.484 303.374
L224.644 303.374
L224.738 299.572
L224.89 299.572
L224.89 298.622
L225.089 298.622
L225.089 297.671
L225.276 297.671
L225.276 296.721
L225.402 296.721
L225.402 295.77
L225.653 295.77
L225.761 292.919
L225.872 292.919
L225.956 291.018
L226.18 291.018
L226.27 286.265
L226.31 286.265
L226.31 285.315
L226.51 285.315
L226.51 284.364
L226.737 284.364
L226.737 283.414
L227.017 283.414
L227.017 282.463
L227.261 282.463
L227.261 281.513
L227.426 281.513
L227.519 279.612
L227.681 279.612
L227.744 277.711
L227.875 277.711
L227.986 274.859
L228.011 274.859
L228.109 272.008
L228.179 272.008
L228.18 270.107
L228.4 270.107
L228.467 267.255
L228.641 267.255
L228.741 264.404
L228.809 264.404
L228.863 262.503
L229.8 262.503
L229.8 261.552
L230.008 261.552
L230.008 260.602
L230.935 260.602
L230.935 259.651
L231.213 259.651
L231.284 257.75
L231.466 257.75
L231.466 256.8
L231.609 256.8
L231.609 255.85
L231.94 255.85
L231.94 254.899
L232.069 254.899
L232.069 253.949
L232.72 253.949
L232.72 252.998
L232.917 252.998
L232.917 252.048
L233.328 252.048
L233.328 251.097
L233.979 251.097
L233.979 250.147
L234.44 250.147
L234.44 249.196
L234.934 249.196
L234.934 248.246
L235.976 248.246
L235.976 247.295
L236.582 247.295
L236.582 246.345
L236.74 246.345
L236.74 245.394
L237.004 245.394
L237.004 244.444
L237.256 244.444
L237.256 243.493
L237.452 243.493
L237.487 240.642
L237.602 240.642
L237.602 239.691
L237.966 239.691
L238.065 237.79
L238.335 237.79
L238.335 236.84
L238.466 236.84
L238.543 234.939
L238.991 234.939
L238.991 233.988
L239.471 233.988
L239.471 233.038
L240.022 233.038
L240.025 231.137
L240.271 231.137
L240.308 229.236
L240.983 229.236
L240.983 228.285
L241.311 228.285
L241.372 226.384
L241.776 226.384
L241.776 225.434
L242.216 225.434
L242.216 224.483
L242.499 224.483
L242.549 222.582
L242.692 222.582
L242.692 221.632
L242.805 221.632
L242.856 218.78
L243.147 218.78
L243.147 217.83
L243.473 217.83
L243.567 214.978
L243.827 214.978
L243.878 213.077
L244.028 213.077
L244.105 209.275
L244.374 209.275
L244.374 208.325
L244.825 208.325
L244.825 207.374
L245.798 207.374
L245.798 206.424
L246.32 206.424
L246.32 205.473
L247.267 205.473
L247.267 204.523
L248.03 204.523
L248.03 203.572
L248.755 203.572
L248.755 202.622
L248.976 202.622
L248.976 201.671
L250.111 201.671
L250.111 200.721
L250.969 200.721
L250.969 199.77
L252.388 199.77
L252.414 197.869
L252.776 197.869
L252.776 196.919
L252.99 196.919
L252.99 195.968
L254.232 195.968
L254.232 195.018
L254.546 195.018
L254.546 194.067
L254.883 194.067
L254.883 193.117
L255.823 193.117
L255.823 192.166
L257.128 192.166
L257.128 191.216
L257.249 191.216
L257.355 189.315
L257.635 189.315
L257.635 188.364
L257.771 188.364
L257.843 186.463
L259.19 186.463
L259.19 185.513
L260.46 185.513
L260.46 184.562
L260.874 184.562
L260.874 183.612
L260.997 183.612
L260.997 182.661
L261.269 182.661
L261.269 181.711
L261.525 181.711
L261.525 180.76
L261.676 180.76
L261.676 179.81
L261.945 179.81
L262.031 176.958
L262.178 176.958
L262.225 175.057
L262.466 175.057
L262.466 174.107
L262.586 174.107
L262.669 169.354
L262.713 169.354
L262.817 165.552
L262.845 165.552
L262.895 163.651
L263.055 163.651
L263.159 159.85
L263.176 159.85
L263.176 158.899
L263.331 158.899
L263.437 152.246
L263.536 152.246
L263.629 148.444
L263.76 148.444
L263.87 145.592
L263.911 145.592
L263.923 143.691
L264.054 143.691
L264.139 141.79
L264.228 141.79
L264.328 138.939
L264.392 138.939
L264.489 137.038
L264.822 137.038
L264.883 135.137
L265.059 135.137
L265.059 134.186
L265.19 134.186
L265.26 132.285
L265.473 132.285
L265.473 131.335
L265.757 131.335
L265.785 129.434
L266.021 129.434
L266.064 127.533
L266.774 127.533
L266.774 126.582
L266.947 126.582
L266.947 125.632
L267.374 125.632
L267.407 123.731
L267.537 123.731
L267.637 121.83
L268.16 121.83
L268.16 120.879
L268.61 120.879
L268.61 119.929
L268.845 119.929
L268.922 118.028
L269.116 118.028
L269.208 115.176
L269.844 115.176
L269.844 114.226
L270.216 114.226
L270.216 113.275
L270.736 113.275
L270.809 111.374
L271.241 111.374
L271.248 109.473
L272.053 109.473
L272.053 108.523
L272.19 108.523
L272.19 107.572
L272.362 107.572
L272.362 106.622
L272.506 106.622
L272.608 103.77
L272.727 103.77
L272.727 102.82
L272.924 102.82
L272.924 101.869
L273.339 101.869
L273.339 100.919
L273.942 100.919
L274.039 98.0673
L274.106 98.0673
L274.106 97.1168
L274.383 97.1168
L274.442 93.3149
L274.724 93.3149
L274.827 90.4634
L275.027 90.4634
L275.113 88.5624
L275.258 88.5624
L275.258 87.6119
L276.2 87.6119
L276.2 86.6614
L276.416 86.6614
L276.416 85.7109
L276.593 85.7109
L276.593 84.7604
L277.214 84.7604
L277.214 83.8099
L277.996 83.8099
L277.996 82.8594
L278.488 82.8594
L278.488 81.9089
L278.844 81.9089
L278.899 80.0079
L279.128 80.0079
L279.128 79.0574
L279.684 79.0574
L279.684 78.1069
L280.117 78.1069
L280.117 77.1564
L280.228 77.1564
L280.228 76.2059
L280.389 76.2059
L280.462 74.305
L280.791 74.305
L280.791 73.3545
L280.943 73.3545
L280.943 72.404
L281.491 72.404
L281.491 71.4535
L281.679 71.4535
L281.679 70.503
L282.059 70.503
L282.059 69.5525
L282.977 69.5525
L282.977 68.602
L283.374 68.602
L283.374 67.6515
L283.785 67.6515
L283.785 66.701
L284.685 66.701
L284.685 65.7505
L284.891 65.7505
L284.925 63.8495
L285.071 63.8495
L285.071 62.899
L286.984 62.899
L287.06 60.998
L287.199 60.998
L287.199 60.0475
L287.774 60.0475
L287.774 59.097
L288.556 59.097
L288.556 58.1465
L289.146 58.1465
L289.146 57.196
L289.699 57.196
L289.699 56.2455
L289.917 56.2455
L289.917 55.295
L295.415 55.295
L295.415 54.3446
L295.849 54.3446
L295.849 53.3941
L329.633 53.3941
L329.633 52.4436
L333.755 52.4436
L333.785 50.5426
L336.51 50.5426
L336.51 49.5921
L337.773 49.5921
L337.773 48.6416
L338.277 48.6416
L338.277 47.6911
L339.341 47.6911
L339.341 46.7406
L339.928 46.7406
L339.928 45.7901
L340.338 45.7901
L340.338 44.8396
L340.849 44.8396
L340.951 42.9386
L341.965 42.9386
L341.965 41.9881
L342.944 41.9881
L342.944 41.0376
L343.614 41.0376
L343.614 40.0871
L344.02 40.0871
L344.02 39.1366
L344.221 39.1366
L344.301 37.2356
L344.518 37.2356
L344.518 36.2851
L344.927 36.2851
L344.927 35.3347
L345.261 35.3347
L345.263 33.4337
L346.078 33.4337
L346.078 32.4832
L346.382 32.4832
L346.382 31.5327
L348.147 31.5327
L348.147 30.5822
L349.985 30.5822
L349.985 29.6317
L350.539 29.6317
L350.604 27.7307
L351.856 27.7307
L351.856 26.7802
L352.883 26.7802
L352.883 25.8297
L359.125 25.8297
L359.125 24.8792
L375.809 24.8792
L375.809 23.9287
L382.209 23.9287
L382.209 22.9782
L387.707 22.9782
L387.707 22.0277
L392.175 22.0277
L392.211 20.1267
L393.542 20.1267
L393.542 19.1762
L393.674 19.1762
L393.674 18.2257
L394.242 18.2257
L394.242 17.2752
L394.783 17.2752
L394.783 16.3248
L399.103 16.3248
L399.19 14.4238
L401.406 14.4238
L401.406 13.4733
L403.971 13.4733
L403.971 12.5228
L404.574 12.5228
L404.574 11.5723
L411.584 11.5723
L411.584 10.6218
L411.584 10.6218
L453.6 10.6218
L453.6 10.6218" style="fill:none;stroke:#00bfbf;stroke-linecap:square;"/>
   </g>
   <g id="line2d_6">
    <path clip-path="url(#p5bee155178)" d="
M-1 323.335
L-0.218885 323.335
L-0.218885 322.384
L4.22281 322.384
L4.22281 321.434
L116.866 321.434
L116.866 320.483
L122.628 320.483
L122.706 317.632
L123.653 317.632
L123.653 316.681
L124.363 316.681
L124.422 314.78
L125.002 314.78
L125.002 313.83
L125.126 313.83
L125.126 312.879
L125.651 312.879
L125.651 311.929
L125.819 311.929
L125.819 310.978
L127.511 310.978
L127.511 310.028
L128.037 310.028
L128.037 309.077
L128.208 309.077
L128.208 308.127
L130.757 308.127
L130.757 307.176
L168.626 307.176
L168.626 306.226
L171.998 306.226
L171.998 305.275
L172.114 305.275
L172.114 304.325
L179.901 304.325
L179.901 303.374
L183.061 303.374
L183.061 302.424
L183.535 302.424
L183.535 301.473
L185.516 301.473
L185.516 300.523
L186.151 300.523
L186.151 299.572
L187.348 299.572
L187.348 298.622
L187.701 298.622
L187.701 297.671
L188.581 297.671
L188.581 296.721
L189.102 296.721
L189.102 295.77
L190.195 295.77
L190.195 294.82
L190.771 294.82
L190.771 293.869
L191.342 293.869
L191.342 292.919
L192.853 292.919
L192.853 291.968
L193.37 291.968
L193.37 291.018
L194.888 291.018
L194.993 289.117
L195.097 289.117
L195.097 288.166
L195.247 288.166
L195.247 287.216
L197.396 287.216
L197.396 286.265
L197.847 286.265
L197.908 284.364
L198.733 284.364
L198.733 283.414
L198.989 283.414
L198.989 282.463
L199.567 282.463
L199.567 281.513
L200.58 281.513
L200.58 280.562
L201.572 280.562
L201.617 273.909
L201.968 273.909
L202.034 272.008
L202.241 272.008
L202.241 271.057
L202.68 271.057
L202.68 270.107
L203.363 270.107
L203.363 269.156
L203.554 269.156
L203.554 268.206
L204.201 268.206
L204.201 267.255
L204.969 267.255
L204.996 265.354
L205.686 265.354
L205.686 264.404
L206.061 264.404
L206.061 263.453
L206.216 263.453
L206.293 261.552
L206.388 261.552
L206.388 260.602
L206.538 260.602
L206.538 259.651
L206.779 259.651
L206.779 258.701
L207.038 258.701
L207.137 256.8
L208.538 256.8
L208.538 255.85
L209.16 255.85
L209.16 254.899
L210.141 254.899
L210.141 253.949
L210.663 253.949
L210.663 252.998
L210.937 252.998
L210.937 252.048
L211.155 252.048
L211.192 250.147
L211.901 250.147
L211.901 249.196
L212.149 249.196
L212.241 247.295
L212.337 247.295
L212.383 244.444
L212.478 244.444
L212.562 241.592
L212.763 241.592
L212.763 240.642
L213.188 240.642
L213.24 237.79
L213.358 237.79
L213.462 234.939
L213.664 234.939
L213.664 233.988
L213.805 233.988
L213.805 233.038
L214.04 233.038
L214.088 231.137
L214.304 231.137
L214.373 229.236
L214.421 229.236
L214.434 227.335
L214.597 227.335
L214.597 226.384
L214.787 226.384
L214.85 224.483
L215.187 224.483
L215.187 223.533
L215.443 223.533
L215.476 221.632
L215.795 221.632
L215.899 217.83
L216.082 217.83
L216.082 216.879
L216.363 216.879
L216.363 215.929
L216.701 215.929
L216.701 214.978
L216.814 214.978
L216.814 214.028
L217.319 214.028
L217.319 213.077
L217.842 213.077
L217.842 212.127
L217.969 212.127
L217.969 211.176
L218.25 211.176
L218.25 210.226
L218.428 210.226
L218.428 209.275
L218.654 209.275
L218.654 208.325
L218.833 208.325
L218.833 207.374
L219.152 207.374
L219.189 205.473
L219.453 205.473
L219.453 204.523
L219.818 204.523
L219.818 203.572
L220.287 203.572
L220.287 202.622
L221.187 202.622
L221.187 201.671
L221.532 201.671
L221.532 200.721
L222.313 200.721
L222.313 199.77
L222.715 199.77
L222.715 198.82
L223.03 198.82
L223.03 197.869
L223.915 197.869
L223.965 195.968
L224.047 195.968
L224.047 195.018
L224.269 195.018
L224.269 194.067
L225.223 194.067
L225.258 192.166
L225.529 192.166
L225.529 191.216
L225.965 191.216
L225.985 189.315
L227.241 189.315
L227.241 188.364
L227.381 188.364
L227.381 187.414
L227.748 187.414
L227.817 185.513
L228.246 185.513
L228.246 184.562
L228.48 184.562
L228.48 183.612
L228.758 183.612
L228.758 182.661
L228.899 182.661
L228.899 179.81
L229.325 179.81
L229.325 178.859
L229.773 178.859
L229.773 177.909
L231.319 177.909
L231.427 175.057
L231.66 175.057
L231.66 174.107
L231.784 174.107
L231.784 173.156
L232.193 173.156
L232.2 171.255
L232.483 171.255
L232.483 170.305
L232.75 170.305
L232.75 169.354
L233.052 169.354
L233.091 166.503
L233.188 166.503
L233.256 162.701
L233.317 162.701
L233.405 159.85
L233.443 159.85
L233.443 158.899
L233.559 158.899
L233.559 157.949
L233.782 157.949
L233.782 156.998
L234.119 156.998
L234.119 156.048
L234.254 156.048
L234.254 155.097
L234.508 155.097
L234.512 153.196
L234.765 153.196
L234.807 150.345
L234.969 150.345
L235.003 147.493
L235.129 147.493
L235.129 146.543
L235.27 146.543
L235.331 143.691
L235.702 143.691
L235.725 141.79
L235.878 141.79
L235.878 140.84
L236.008 140.84
L236.008 139.889
L236.121 139.889
L236.121 138.939
L236.244 138.939
L236.324 137.038
L236.85 137.038
L236.85 136.087
L237.505 136.087
L237.505 135.137
L237.656 135.137
L237.656 134.186
L237.906 134.186
L238.001 132.285
L238.434 132.285
L238.434 131.335
L239.265 131.335
L239.265 130.384
L239.652 130.384
L239.659 128.483
L240.992 128.483
L240.992 127.533
L241.524 127.533
L241.524 126.582
L241.762 126.582
L241.762 125.632
L242.127 125.632
L242.211 120.879
L242.41 120.879
L242.41 119.929
L242.681 119.929
L242.681 118.978
L242.932 118.978
L242.932 118.028
L243.154 118.028
L243.154 115.176
L243.788 115.176
L243.788 114.226
L244.092 114.226
L244.092 113.275
L244.413 113.275
L244.413 112.325
L244.632 112.325
L244.632 111.374
L244.809 111.374
L244.809 110.424
L244.954 110.424
L244.954 109.473
L245.215 109.473
L245.25 105.671
L245.399 105.671
L245.399 104.721
L245.752 104.721
L245.862 102.82
L246.006 102.82
L246.037 99.9683
L246.417 99.9683
L246.417 99.0178
L246.612 99.0178
L246.708 97.1168
L246.732 97.1168
L246.78 94.2653
L246.884 94.2653
L246.884 93.3149
L247.152 93.3149
L247.176 89.5129
L247.413 89.5129
L247.413 88.5624
L247.994 88.5624
L248.053 86.6614
L248.258 86.6614
L248.258 85.7109
L248.657 85.7109
L248.657 84.7604
L249.064 84.7604
L249.064 83.8099
L249.204 83.8099
L249.204 82.8594
L249.331 82.8594
L249.414 80.0079
L249.446 80.0079
L249.446 79.0574
L249.767 79.0574
L249.823 76.2059
L249.881 76.2059
L249.935 73.3545
L250.247 73.3545
L250.339 70.503
L250.373 70.503
L250.373 69.5525
L250.599 69.5525
L250.599 68.602
L250.758 68.602
L250.784 65.7505
L251.1 65.7505
L251.1 64.8
L251.521 64.8
L251.521 63.8495
L251.734 63.8495
L251.734 62.899
L252.828 62.899
L252.829 60.0475
L252.961 60.0475
L252.961 59.097
L253.347 59.097
L253.351 57.196
L253.473 57.196
L253.473 56.2455
L253.729 56.2455
L253.729 55.295
L254.431 55.295
L254.431 54.3446
L254.545 54.3446
L254.545 52.4436
L254.96 52.4436
L254.96 51.4931
L255.827 51.4931
L255.925 49.5921
L257.042 49.5921
L257.042 48.6416
L257.206 48.6416
L257.206 47.6911
L257.841 47.6911
L257.841 46.7406
L258.09 46.7406
L258.09 45.7901
L258.951 45.7901
L259.012 43.8891
L259.545 43.8891
L259.545 42.9386
L260.348 42.9386
L260.348 41.9881
L260.94 41.9881
L260.94 41.0376
L262.237 41.0376
L262.237 40.0871
L262.721 40.0871
L262.721 39.1366
L273.546 39.1366
L273.546 38.1861
L274.459 38.1861
L274.459 37.2356
L274.749 37.2356
L274.749 36.2851
L275.295 36.2851
L275.295 35.3347
L275.849 35.3347
L275.849 34.3842
L276.798 34.3842
L276.798 33.4337
L279.199 33.4337
L279.199 32.4832
L280.188 32.4832
L280.188 31.5327
L280.318 31.5327
L280.318 30.5822
L280.684 30.5822
L280.684 29.6317
L281.542 29.6317
L281.542 28.6812
L282.263 28.6812
L282.263 27.7307
L283.317 27.7307
L283.317 26.7802
L283.487 26.7802
L283.487 25.8297
L283.61 25.8297
L283.61 24.8792
L284.241 24.8792
L284.241 23.9287
L284.509 23.9287
L284.509 22.9782
L284.692 22.9782
L284.692 22.0277
L284.96 22.0277
L285.018 20.1267
L285.284 20.1267
L285.284 19.1762
L285.827 19.1762
L285.827 18.2257
L287.231 18.2257
L287.231 17.2752
L287.643 17.2752
L287.643 16.3248
L287.981 16.3248
L287.981 15.3743
L288.69 15.3743
L288.69 14.4238
L291.321 14.4238
L291.335 12.5228
L291.75 12.5228
L291.75 11.5723
L292.112 11.5723
L292.112 10.6218
L292.112 10.6218
L453.6 10.6218
L453.6 10.6218" style="fill:none;stroke:#bf00bf;stroke-linecap:square;"/>
   </g>
   <g id="matplotlib.axis_1">
    <g id="xtick_1"/>
    <g id="xtick_2">
     <g id="line2d_7">
      <path clip-path="url(#p5bee155178)" d="
M56.7047 352.8
L56.7047 7.2" style="fill:none;stroke:#000000;stroke-dasharray:1.000000,3.000000;stroke-dashoffset:0.0;stroke-width:0.5;"/>
     </g>
     <g id="line2d_8">
      <defs>
       <path d="
M0 0
L0 -4" id="m93b0483c22" style="stroke:#000000;stroke-width:0.5;"/>
      </defs>
      <g>
       <use style="stroke:#000000;stroke-width:0.5;" x="56.70471484" xlink:href="#m93b0483c22" y="352.8"/>
      </g>
     </g>
     <g id="line2d_9">
      <defs>
       <path d="
M0 0
L0 4" id="m741efc42ff" style="stroke:#000000;stroke-width:0.5;"/>
      </defs>
      <g>
       <use style="stroke:#000000;stroke-width:0.5;" x="56.70471484" xlink:href="#m741efc42ff" y="7.2"/>
      </g>
     </g>
     <g id="text_1">
      <!-- -6 -->
      <defs>
       <path d="
M3.17188 21.4844
L3.17188 30.3281
L30.1719 30.3281
L30.1719 21.4844
z
" id="ArialMT-2d"/>
       <path d="
M49.75 54.0469
L41.0156 53.375
Q39.8438 58.5469 37.7031 60.8906
Q34.125 64.6562 28.9062 64.6562
Q24.7031 64.6562 21.5312 62.3125
Q17.3906 59.2812 14.9844 53.4688
Q12.5938 47.6562 12.5 36.9219
Q15.6719 41.75 20.2656 44.0938
Q24.8594 46.4375 29.8906 46.4375
Q38.6719 46.4375 44.8438 39.9688
Q51.0312 33.5 51.0312 23.25
Q51.0312 16.5 48.125 10.7188
Q45.2188 4.9375 40.1406 1.85938
Q35.0625 -1.21875 28.6094 -1.21875
Q17.625 -1.21875 10.6875 6.85938
Q3.76562 14.9375 3.76562 33.5
Q3.76562 54.25 11.4219 63.6719
Q18.1094 71.875 29.4375 71.875
Q37.8906 71.875 43.2812 67.1406
Q48.6875 62.4062 49.75 54.0469
M13.875 23.1875
Q13.875 18.6562 15.7969 14.5
Q17.7188 10.3594 21.1875 8.17188
Q24.6562 6 28.4688 6
Q34.0312 6 38.0312 10.4844
Q42.0469 14.9844 42.0469 22.7031
Q42.0469 30.125 38.0781 34.3906
Q34.125 38.6719 28.125 38.6719
Q22.1719 38.6719 18.0156 34.3906
Q13.875 30.125 13.875 23.1875" id="ArialMT-36"/>
      </defs>
      <g transform="translate(48.58908984 371.115625)scale(0.2 -0.2)">
       <use xlink:href="#ArialMT-2d"/>
       <use x="33.30078125" xlink:href="#ArialMT-36"/>
      </g>
     </g>
    </g>
    <g id="xtick_3">
     <g id="line2d_10">
      <path clip-path="url(#p5bee155178)" d="
M106.317 352.8
L106.317 7.2" style="fill:none;stroke:#000000;stroke-dasharray:1.000000,3.000000;stroke-dashoffset:0.0;stroke-width:0.5;"/>
     </g>
     <g id="line2d_11">
      <g>
       <use style="stroke:#000000;stroke-width:0.5;" x="106.316625485" xlink:href="#m93b0483c22" y="352.8"/>
      </g>
     </g>
     <g id="line2d_12">
      <g>
       <use style="stroke:#000000;stroke-width:0.5;" x="106.316625485" xlink:href="#m741efc42ff" y="7.2"/>
      </g>
     </g>
     <g id="text_2">
      <!-- -4 -->
      <defs>
       <path d="
M32.3281 0
L32.3281 17.1406
L1.26562 17.1406
L1.26562 25.2031
L33.9375 71.5781
L41.1094 71.5781
L41.1094 25.2031
L50.7812 25.2031
L50.7812 17.1406
L41.1094 17.1406
L41.1094 0
z

M32.3281 25.2031
L32.3281 57.4688
L9.90625 25.2031
z
" id="ArialMT-34"/>
      </defs>
      <g transform="translate(98.226000485 371.115625)scale(0.2 -0.2)">
       <use xlink:href="#ArialMT-2d"/>
       <use x="33.30078125" xlink:href="#ArialMT-34"/>
      </g>
     </g>
    </g>
    <g id="xtick_4">
     <g id="line2d_13">
      <path clip-path="url(#p5bee155178)" d="
M155.929 352.8
L155.929 7.2" style="fill:none;stroke:#000000;stroke-dasharray:1.000000,3.000000;stroke-dashoffset:0.0;stroke-width:0.5;"/>
     </g>
     <g id="line2d_14">
      <g>
       <use style="stroke:#000000;stroke-width:0.5;" x="155.92853613" xlink:href="#m93b0483c22" y="352.8"/>
      </g>
     </g>
     <g id="line2d_15">
      <g>
       <use style="stroke:#000000;stroke-width:0.5;" x="155.92853613" xlink:href="#m741efc42ff" y="7.2"/>
      </g>
     </g>
     <g id="text_3">
      <!-- -2 -->
      <defs>
       <path d="
M50.3438 8.45312
L50.3438 0
L3.03125 0
Q2.9375 3.17188 4.04688 6.10938
Q5.85938 10.9375 9.82812 15.625
Q13.8125 20.3125 21.3438 26.4688
Q33.0156 36.0312 37.1094 41.625
Q41.2188 47.2188 41.2188 52.2031
Q41.2188 57.4219 37.4688 61
Q33.7344 64.5938 27.7344 64.5938
Q21.3906 64.5938 17.5781 60.7812
Q13.7656 56.9844 13.7188 50.25
L4.6875 51.1719
Q5.60938 61.2812 11.6562 66.5781
Q17.7188 71.875 27.9375 71.875
Q38.2344 71.875 44.2344 66.1562
Q50.25 60.4531 50.25 52
Q50.25 47.7031 48.4844 43.5469
Q46.7344 39.4062 42.6562 34.8125
Q38.5781 30.2188 29.1094 22.2188
Q21.1875 15.5781 18.9375 13.2031
Q16.7031 10.8438 15.2344 8.45312
z
" id="ArialMT-32"/>
      </defs>
      <g transform="translate(147.88166113 371.115625)scale(0.2 -0.2)">
       <use xlink:href="#ArialMT-2d"/>
       <use x="33.30078125" xlink:href="#ArialMT-32"/>
      </g>
     </g>
    </g>
    <g id="xtick_5">
     <g id="line2d_16">
      <path clip-path="url(#p5bee155178)" d="
M205.54 352.8
L205.54 7.2" style="fill:none;stroke:#000000;stroke-dasharray:1.000000,3.000000;stroke-dashoffset:0.0;stroke-width:0.5;"/>
     </g>
     <g id="line2d_17">
      <g>
       <use style="stroke:#000000;stroke-width:0.5;" x="205.540446775" xlink:href="#m93b0483c22" y="352.8"/>
      </g>
     </g>
     <g id="line2d_18">
      <g>
       <use style="stroke:#000000;stroke-width:0.5;" x="205.540446775" xlink:href="#m741efc42ff" y="7.2"/>
      </g>
     </g>
     <g id="text_4">
      <!-- 0 -->
      <defs>
       <path d="
M4.15625 35.2969
Q4.15625 48 6.76562 55.7344
Q9.375 63.4844 14.5156 67.6719
Q19.6719 71.875 27.4844 71.875
Q33.25 71.875 37.5938 69.5469
Q41.9375 67.2344 44.7656 62.8594
Q47.6094 58.5 49.2188 52.2188
Q50.8281 45.9531 50.8281 35.2969
Q50.8281 22.7031 48.2344 14.9688
Q45.6562 7.23438 40.5 3
Q35.3594 -1.21875 27.4844 -1.21875
Q17.1406 -1.21875 11.2344 6.20312
Q4.15625 15.1406 4.15625 35.2969
M13.1875 35.2969
Q13.1875 17.6719 17.3125 11.8281
Q21.4375 6 27.4844 6
Q33.5469 6 37.6719 11.8594
Q41.7969 17.7188 41.7969 35.2969
Q41.7969 52.9844 37.6719 58.7812
Q33.5469 64.5938 27.3906 64.5938
Q21.3438 64.5938 17.7188 59.4688
Q13.1875 52.9375 13.1875 35.2969" id="ArialMT-30"/>
      </defs>
      <g transform="translate(200.873259275 371.115625)scale(0.2 -0.2)">
       <use xlink:href="#ArialMT-30"/>
      </g>
     </g>
    </g>
    <g id="xtick_6">
     <g id="line2d_19">
      <path clip-path="url(#p5bee155178)" d="
M255.152 352.8
L255.152 7.2" style="fill:none;stroke:#000000;stroke-dasharray:1.000000,3.000000;stroke-dashoffset:0.0;stroke-width:0.5;"/>
     </g>
     <g id="line2d_20">
      <g>
       <use style="stroke:#000000;stroke-width:0.5;" x="255.15235742" xlink:href="#m93b0483c22" y="352.8"/>
      </g>
     </g>
     <g id="line2d_21">
      <g>
       <use style="stroke:#000000;stroke-width:0.5;" x="255.15235742" xlink:href="#m741efc42ff" y="7.2"/>
      </g>
     </g>
     <g id="text_5">
      <!-- 2 -->
      <g transform="translate(250.41173242 371.115625)scale(0.2 -0.2)">
       <use xlink:href="#ArialMT-32"/>
      </g>
     </g>
    </g>
    <g id="xtick_7">
     <g id="line2d_22">
      <path clip-path="url(#p5bee155178)" d="
M304.764 352.8
L304.764 7.2" style="fill:none;stroke:#000000;stroke-dasharray:1.000000,3.000000;stroke-dashoffset:0.0;stroke-width:0.5;"/>
     </g>
     <g id="line2d_23">
      <g>
       <use style="stroke:#000000;stroke-width:0.5;" x="304.764268065" xlink:href="#m93b0483c22" y="352.8"/>
      </g>
     </g>
     <g id="line2d_24">
      <g>
       <use style="stroke:#000000;stroke-width:0.5;" x="304.764268065" xlink:href="#m741efc42ff" y="7.2"/>
      </g>
     </g>
     <g id="text_6">
      <!-- 4 -->
      <g transform="translate(299.812705565 371.115625)scale(0.2 -0.2)">
       <use xlink:href="#ArialMT-34"/>
      </g>
     </g>
    </g>
    <g id="xtick_8">
     <g id="line2d_25">
      <path clip-path="url(#p5bee155178)" d="
M354.376 352.8
L354.376 7.2" style="fill:none;stroke:#000000;stroke-dasharray:1.000000,3.000000;stroke-dashoffset:0.0;stroke-width:0.5;"/>
     </g>
     <g id="line2d_26">
      <g>
       <use style="stroke:#000000;stroke-width:0.5;" x="354.37617871" xlink:href="#m93b0483c22" y="352.8"/>
      </g>
     </g>
     <g id="line2d_27">
      <g>
       <use style="stroke:#000000;stroke-width:0.5;" x="354.37617871" xlink:href="#m741efc42ff" y="7.2"/>
      </g>
     </g>
     <g id="text_7">
      <!-- 6 -->
      <g transform="translate(349.64961621 371.115625)scale(0.2 -0.2)">
       <use xlink:href="#ArialMT-36"/>
      </g>
     </g>
    </g>
    <g id="xtick_9">
     <g id="line2d_28">
      <path clip-path="url(#p5bee155178)" d="
M403.988 352.8
L403.988 7.2" style="fill:none;stroke:#000000;stroke-dasharray:1.000000,3.000000;stroke-dashoffset:0.0;stroke-width:0.5;"/>
     </g>
     <g id="line2d_29">
      <g>
       <use style="stroke:#000000;stroke-width:0.5;" x="403.988089355" xlink:href="#m93b0483c22" y="352.8"/>
      </g>
     </g>
     <g id="line2d_30">
      <g>
       <use style="stroke:#000000;stroke-width:0.5;" x="403.988089355" xlink:href="#m741efc42ff" y="7.2"/>
      </g>
     </g>
     <g id="text_8">
      <!-- 8 -->
      <defs>
       <path d="
M17.6719 38.8125
Q12.2031 40.8281 9.5625 44.5312
Q6.9375 48.25 6.9375 53.4219
Q6.9375 61.2344 12.5469 66.5469
Q18.1719 71.875 27.4844 71.875
Q36.8594 71.875 42.5781 66.4219
Q48.2969 60.9844 48.2969 53.1719
Q48.2969 48.1875 45.6719 44.5
Q43.0625 40.8281 37.75 38.8125
Q44.3438 36.6719 47.7812 31.875
Q51.2188 27.0938 51.2188 20.4531
Q51.2188 11.2812 44.7188 5.03125
Q38.2344 -1.21875 27.6406 -1.21875
Q17.0469 -1.21875 10.5469 5.04688
Q4.04688 11.3281 4.04688 20.7031
Q4.04688 27.6875 7.59375 32.3906
Q11.1406 37.1094 17.6719 38.8125
M15.9219 53.7188
Q15.9219 48.6406 19.1875 45.4062
Q22.4688 42.1875 27.6875 42.1875
Q32.7656 42.1875 36.0156 45.375
Q39.2656 48.5781 39.2656 53.2188
Q39.2656 58.0625 35.9062 61.3594
Q32.5625 64.6562 27.5938 64.6562
Q22.5625 64.6562 19.2344 61.4219
Q15.9219 58.2031 15.9219 53.7188
M13.0938 20.6562
Q13.0938 16.8906 14.875 13.375
Q16.6562 9.85938 20.1719 7.92188
Q23.6875 6 27.7344 6
Q34.0312 6 38.125 10.0469
Q42.2344 14.1094 42.2344 20.3594
Q42.2344 26.7031 38.0156 30.8594
Q33.7969 35.0156 27.4375 35.0156
Q21.2344 35.0156 17.1562 30.9062
Q13.0938 26.8125 13.0938 20.6562" id="ArialMT-38"/>
      </defs>
      <g transform="translate(399.270901855 371.115625)scale(0.2 -0.2)">
       <use xlink:href="#ArialMT-38"/>
      </g>
     </g>
    </g>
    <g id="xtick_10">
     <g id="line2d_31">
      <path clip-path="url(#p5bee155178)" d="
M453.6 352.8
L453.6 7.2" style="fill:none;stroke:#000000;stroke-dasharray:1.000000,3.000000;stroke-dashoffset:0.0;stroke-width:0.5;"/>
     </g>
     <g id="line2d_32">
      <g>
       <use style="stroke:#000000;stroke-width:0.5;" x="453.6" xlink:href="#m93b0483c22" y="352.8"/>
      </g>
     </g>
     <g id="line2d_33">
      <g>
       <use style="stroke:#000000;stroke-width:0.5;" x="453.6" xlink:href="#m741efc42ff" y="7.2"/>
      </g>
     </g>
    </g>
    <g id="xtick_11"/>
    <g id="xtick_12">
     <g id="line2d_34">
      <defs>
       <path d="
M0 0
L0 -2" id="m177f7580d0" style="stroke:#000000;stroke-width:0.5;"/>
      </defs>
      <g>
       <use style="stroke:#000000;stroke-width:0.5;" x="56.70471484" xlink:href="#m177f7580d0" y="352.8"/>
      </g>
     </g>
     <g id="line2d_35">
      <defs>
       <path d="
M0 0
L0 2" id="m5284c7e2a0" style="stroke:#000000;stroke-width:0.5;"/>
      </defs>
      <g>
       <use style="stroke:#000000;stroke-width:0.5;" x="56.70471484" xlink:href="#m5284c7e2a0" y="7.2"/>
      </g>
     </g>
    </g>
    <g id="xtick_13">
     <g id="line2d_36">
      <g>
       <use style="stroke:#000000;stroke-width:0.5;" x="106.316625485" xlink:href="#m177f7580d0" y="352.8"/>
      </g>
     </g>
     <g id="line2d_37">
      <g>
       <use style="stroke:#000000;stroke-width:0.5;" x="106.316625485" xlink:href="#m5284c7e2a0" y="7.2"/>
      </g>
     </g>
    </g>
    <g id="xtick_14">
     <g id="line2d_38">
      <g>
       <use style="stroke:#000000;stroke-width:0.5;" x="155.92853613" xlink:href="#m177f7580d0" y="352.8"/>
      </g>
     </g>
     <g id="line2d_39">
      <g>
       <use style="stroke:#000000;stroke-width:0.5;" x="155.92853613" xlink:href="#m5284c7e2a0" y="7.2"/>
      </g>
     </g>
    </g>
    <g id="xtick_15">
     <g id="line2d_40">
      <g>
       <use style="stroke:#000000;stroke-width:0.5;" x="205.540446775" xlink:href="#m177f7580d0" y="352.8"/>
      </g>
     </g>
     <g id="line2d_41">
      <g>
       <use style="stroke:#000000;stroke-width:0.5;" x="205.540446775" xlink:href="#m5284c7e2a0" y="7.2"/>
      </g>
     </g>
    </g>
    <g id="xtick_16">
     <g id="line2d_42">
      <g>
       <use style="stroke:#000000;stroke-width:0.5;" x="255.15235742" xlink:href="#m177f7580d0" y="352.8"/>
      </g>
     </g>
     <g id="line2d_43">
      <g>
       <use style="stroke:#000000;stroke-width:0.5;" x="255.15235742" xlink:href="#m5284c7e2a0" y="7.2"/>
      </g>
     </g>
    </g>
    <g id="xtick_17">
     <g id="line2d_44">
      <g>
       <use style="stroke:#000000;stroke-width:0.5;" x="304.764268065" xlink:href="#m177f7580d0" y="352.8"/>
      </g>
     </g>
     <g id="line2d_45">
      <g>
       <use style="stroke:#000000;stroke-width:0.5;" x="304.764268065" xlink:href="#m5284c7e2a0" y="7.2"/>
      </g>
     </g>
    </g>
    <g id="xtick_18">
     <g id="line2d_46">
      <g>
       <use style="stroke:#000000;stroke-width:0.5;" x="354.37617871" xlink:href="#m177f7580d0" y="352.8"/>
      </g>
     </g>
     <g id="line2d_47">
      <g>
       <use style="stroke:#000000;stroke-width:0.5;" x="354.37617871" xlink:href="#m5284c7e2a0" y="7.2"/>
      </g>
     </g>
    </g>
    <g id="xtick_19">
     <g id="line2d_48">
      <g>
       <use style="stroke:#000000;stroke-width:0.5;" x="403.988089355" xlink:href="#m177f7580d0" y="352.8"/>
      </g>
     </g>
     <g id="line2d_49">
      <g>
       <use style="stroke:#000000;stroke-width:0.5;" x="403.988089355" xlink:href="#m5284c7e2a0" y="7.2"/>
      </g>
     </g>
    </g>
    <g id="xtick_20">
     <g id="line2d_50">
      <g>
       <use style="stroke:#000000;stroke-width:0.5;" x="453.6" xlink:href="#m177f7580d0" y="352.8"/>
      </g>
     </g>
     <g id="line2d_51">
      <g>
       <use style="stroke:#000000;stroke-width:0.5;" x="453.6" xlink:href="#m5284c7e2a0" y="7.2"/>
      </g>
     </g>
    </g>
    <g id="text_9">
     <!-- log10 of Df -->
     <defs>
      <path d="
M4.98438 -4.29688
L13.5312 -5.5625
Q14.0625 -9.51562 16.5 -11.3281
Q19.7812 -13.7656 25.4375 -13.7656
Q31.5469 -13.7656 34.8594 -11.3281
Q38.1875 -8.89062 39.3594 -4.5
Q40.0469 -1.8125 39.9844 6.78125
Q34.2344 0 25.6406 0
Q14.9375 0 9.07812 7.71875
Q3.21875 15.4375 3.21875 26.2188
Q3.21875 33.6406 5.90625 39.9062
Q8.59375 46.1875 13.6875 49.6094
Q18.7969 53.0312 25.6875 53.0312
Q34.8594 53.0312 40.8281 45.6094
L40.8281 51.8594
L48.9219 51.8594
L48.9219 7.03125
Q48.9219 -5.07812 46.4531 -10.125
Q44 -15.1875 38.6406 -18.1094
Q33.2969 -21.0469 25.4844 -21.0469
Q16.2188 -21.0469 10.5 -16.875
Q4.78125 -12.7031 4.98438 -4.29688
M12.25 26.8594
Q12.25 16.6562 16.2969 11.9688
Q20.3594 7.28125 26.4688 7.28125
Q32.5156 7.28125 36.6094 11.9375
Q40.7188 16.6094 40.7188 26.5625
Q40.7188 36.0781 36.5 40.9062
Q32.2812 45.75 26.3125 45.75
Q20.4531 45.75 16.3438 40.9844
Q12.25 36.2344 12.25 26.8594" id="ArialMT-67"/>
      <path d="
M8.6875 0
L8.6875 45.0156
L0.921875 45.0156
L0.921875 51.8594
L8.6875 51.8594
L8.6875 57.375
Q8.6875 62.5938 9.625 65.1406
Q10.8906 68.5625 14.0781 70.6719
Q17.2812 72.7969 23.0469 72.7969
Q26.7656 72.7969 31.25 71.9219
L29.9375 64.2656
Q27.2031 64.75 24.75 64.75
Q20.75 64.75 19.0938 63.0312
Q17.4375 61.3281 17.4375 56.6406
L17.4375 51.8594
L27.5469 51.8594
L27.5469 45.0156
L17.4375 45.0156
L17.4375 0
z
" id="ArialMT-66"/>
      <path d="
M7.71875 0
L7.71875 71.5781
L32.375 71.5781
Q40.7188 71.5781 45.125 70.5625
Q51.2656 69.1406 55.6094 65.4375
Q61.2812 60.6406 64.0781 53.1875
Q66.8906 45.75 66.8906 36.1875
Q66.8906 28.0312 64.9844 21.7344
Q63.0938 15.4375 60.1094 11.2969
Q57.125 7.17188 53.5781 4.79688
Q50.0469 2.4375 45.0469 1.21875
Q40.0469 0 33.5469 0
z

M17.1875 8.45312
L32.4688 8.45312
Q39.5469 8.45312 43.5781 9.76562
Q47.6094 11.0781 50 13.4844
Q53.375 16.8438 55.25 22.5312
Q57.125 28.2188 57.125 36.3281
Q57.125 47.5625 53.4375 53.5938
Q49.75 59.625 44.4844 61.6719
Q40.6719 63.1406 32.2344 63.1406
L17.1875 63.1406
z
" id="ArialMT-44"/>
      <path d="
M6.39062 0
L6.39062 71.5781
L15.1875 71.5781
L15.1875 0
z
" id="ArialMT-6c"/>
      <path d="
M3.32812 25.9219
Q3.32812 40.3281 11.3281 47.2656
Q18.0156 53.0312 27.6406 53.0312
Q38.3281 53.0312 45.1094 46.0156
Q51.9062 39.0156 51.9062 26.6562
Q51.9062 16.6562 48.9062 10.9062
Q45.9062 5.17188 40.1562 2
Q34.4219 -1.17188 27.6406 -1.17188
Q16.75 -1.17188 10.0312 5.8125
Q3.32812 12.7969 3.32812 25.9219
M12.3594 25.9219
Q12.3594 15.9688 16.7031 11.0156
Q21.0469 6.0625 27.6406 6.0625
Q34.1875 6.0625 38.5312 11.0312
Q42.875 16.0156 42.875 26.2188
Q42.875 35.8438 38.5 40.7969
Q34.125 45.75 27.6406 45.75
Q21.0469 45.75 16.7031 40.8125
Q12.3594 35.8906 12.3594 25.9219" id="ArialMT-6f"/>
      <path d="
M37.25 0
L28.4688 0
L28.4688 56
Q25.2969 52.9844 20.1406 49.9531
Q14.9844 46.9219 10.8906 45.4062
L10.8906 53.9062
Q18.2656 57.375 23.7812 62.2969
Q29.2969 67.2344 31.5938 71.875
L37.25 71.875
z
" id="ArialMT-31"/>
      <path id="ArialMT-20"/>
     </defs>
     <g transform="translate(181.6921875 394.65)scale(0.2 -0.2)">
      <use xlink:href="#ArialMT-6c"/>
      <use x="22.216796875" xlink:href="#ArialMT-6f"/>
      <use x="77.83203125" xlink:href="#ArialMT-67"/>
      <use x="133.447265625" xlink:href="#ArialMT-31"/>
      <use x="189.0625" xlink:href="#ArialMT-30"/>
      <use x="244.677734375" xlink:href="#ArialMT-20"/>
      <use x="272.4609375" xlink:href="#ArialMT-6f"/>
      <use x="328.076171875" xlink:href="#ArialMT-66"/>
      <use x="355.859375" xlink:href="#ArialMT-20"/>
      <use x="383.642578125" xlink:href="#ArialMT-44"/>
      <use x="455.859375" xlink:href="#ArialMT-66"/>
     </g>
    </g>
   </g>
   <g id="matplotlib.axis_2">
    <g id="ytick_1">
     <g id="line2d_52">
      <path clip-path="url(#p5bee155178)" d="
M7.2 352.8
L453.6 352.8" style="fill:none;stroke:#000000;stroke-dasharray:1.000000,3.000000;stroke-dashoffset:0.0;stroke-width:0.5;"/>
     </g>
     <g id="line2d_53">
      <defs>
       <path d="
M0 0
L4 0" id="m728421d6d4" style="stroke:#000000;stroke-width:0.5;"/>
      </defs>
      <g>
       <use style="stroke:#000000;stroke-width:0.5;" x="7.2" xlink:href="#m728421d6d4" y="352.8"/>
      </g>
     </g>
     <g id="line2d_54">
      <defs>
       <path d="
M0 0
L-4 0" id="mcb0005524f" style="stroke:#000000;stroke-width:0.5;"/>
      </defs>
      <g>
       <use style="stroke:#000000;stroke-width:0.5;" x="453.6" xlink:href="#mcb0005524f" y="352.8"/>
      </g>
     </g>
    </g>
    <g id="ytick_2">
     <g id="line2d_55">
      <path clip-path="url(#p5bee155178)" d="
M7.2 284.364
L453.6 284.364" style="fill:none;stroke:#000000;stroke-dasharray:1.000000,3.000000;stroke-dashoffset:0.0;stroke-width:0.5;"/>
     </g>
     <g id="line2d_56">
      <g>
       <use style="stroke:#000000;stroke-width:0.5;" x="7.2" xlink:href="#m728421d6d4" y="284.364356436"/>
      </g>
     </g>
     <g id="line2d_57">
      <g>
       <use style="stroke:#000000;stroke-width:0.5;" x="453.6" xlink:href="#mcb0005524f" y="284.364356436"/>
      </g>
     </g>
    </g>
    <g id="ytick_3">
     <g id="line2d_58">
      <path clip-path="url(#p5bee155178)" d="
M7.2 215.929
L453.6 215.929" style="fill:none;stroke:#000000;stroke-dasharray:1.000000,3.000000;stroke-dashoffset:0.0;stroke-width:0.5;"/>
     </g>
     <g id="line2d_59">
      <g>
       <use style="stroke:#000000;stroke-width:0.5;" x="7.2" xlink:href="#m728421d6d4" y="215.928712871"/>
      </g>
     </g>
     <g id="line2d_60">
      <g>
       <use style="stroke:#000000;stroke-width:0.5;" x="453.6" xlink:href="#mcb0005524f" y="215.928712871"/>
      </g>
     </g>
    </g>
    <g id="ytick_4">
     <g id="line2d_61">
      <path clip-path="url(#p5bee155178)" d="
M7.2 147.493
L453.6 147.493" style="fill:none;stroke:#000000;stroke-dasharray:1.000000,3.000000;stroke-dashoffset:0.0;stroke-width:0.5;"/>
     </g>
     <g id="line2d_62">
      <g>
       <use style="stroke:#000000;stroke-width:0.5;" x="7.2" xlink:href="#m728421d6d4" y="147.493069307"/>
      </g>
     </g>
     <g id="line2d_63">
      <g>
       <use style="stroke:#000000;stroke-width:0.5;" x="453.6" xlink:href="#mcb0005524f" y="147.493069307"/>
      </g>
     </g>
    </g>
    <g id="ytick_5">
     <g id="line2d_64">
      <path clip-path="url(#p5bee155178)" d="
M7.2 79.0574
L453.6 79.0574" style="fill:none;stroke:#000000;stroke-dasharray:1.000000,3.000000;stroke-dashoffset:0.0;stroke-width:0.5;"/>
     </g>
     <g id="line2d_65">
      <g>
       <use style="stroke:#000000;stroke-width:0.5;" x="7.2" xlink:href="#m728421d6d4" y="79.0574257426"/>
      </g>
     </g>
     <g id="line2d_66">
      <g>
       <use style="stroke:#000000;stroke-width:0.5;" x="453.6" xlink:href="#mcb0005524f" y="79.0574257426"/>
      </g>
     </g>
    </g>
    <g id="ytick_6">
     <g id="line2d_67">
      <path clip-path="url(#p5bee155178)" d="
M7.2 10.6218
L453.6 10.6218" style="fill:none;stroke:#000000;stroke-dasharray:1.000000,3.000000;stroke-dashoffset:0.0;stroke-width:0.5;"/>
     </g>
     <g id="line2d_68">
      <g>
       <use style="stroke:#000000;stroke-width:0.5;" x="7.2" xlink:href="#m728421d6d4" y="10.6217821782"/>
      </g>
     </g>
     <g id="line2d_69">
      <g>
       <use style="stroke:#000000;stroke-width:0.5;" x="453.6" xlink:href="#mcb0005524f" y="10.6217821782"/>
      </g>
     </g>
    </g>
   </g>
   <g id="patch_3">
    <path d="
M7.2 7.2
L453.6 7.2" style="fill:none;stroke:#000000;"/>
   </g>
   <g id="patch_4">
    <path d="
M453.6 352.8
L453.6 7.2" style="fill:none;stroke:#000000;"/>
   </g>
   <g id="patch_5">
    <path d="
M7.2 352.8
L453.6 352.8" style="fill:none;stroke:#000000;"/>
   </g>
   <g id="patch_6">
    <path d="
M7.2 352.8
L7.2 7.2" style="fill:none;stroke:#000000;"/>
   </g>
   <g id="text_10">
    <!-- {f1-f24}, 20-D -->
    <defs>
     <path d="
M30.5625 29.8906
L30.5625 21.9219
Q26.8125 21.8281 24.4375 19.875
Q22.0781 17.9219 21.2969 14.5781
Q20.5156 11.2344 20.4531 3.07812
Q20.4062 -5.07812 20.1719 -7.67188
Q19.7344 -11.8125 18.5312 -14.2812
Q17.3281 -16.75 15.5625 -18.2344
Q13.8125 -19.7344 11.0781 -20.5156
Q9.23438 -21.0469 5.03125 -21.0469
L2.29688 -21.0469
L2.29688 -13.375
L3.8125 -13.375
Q8.89062 -13.375 10.5469 -11.5469
Q12.2031 -9.71875 12.2031 -3.32812
Q12.2031 8.89062 12.6406 12.1562
Q13.4219 17.5781 15.7656 20.8281
Q18.1094 24.0781 22.4062 25.875
Q16.7969 28.5625 14.5 32.9844
Q12.2031 37.4062 12.2031 47.9062
Q12.2031 57.4219 11.9688 59.2812
Q11.625 62.5469 10.0312 63.8438
Q8.45312 65.1406 3.8125 65.1406
L2.29688 65.1406
L2.29688 72.7969
L5.03125 72.7969
Q9.8125 72.7969 11.9688 72.0156
Q15.0938 70.9531 17.1406 68.4062
Q19.1875 65.875 19.7969 62.0156
Q20.4062 58.1562 20.4531 49.3594
Q20.5156 40.5781 21.2969 37.2344
Q22.0781 33.8906 24.4375 31.9375
Q26.8125 29.9844 30.5625 29.8906" id="ArialMT-7d"/>
     <path d="
M8.89062 0
L8.89062 10.0156
L18.8906 10.0156
L18.8906 0
Q18.8906 -5.51562 16.9375 -8.90625
Q14.9844 -12.3125 10.75 -14.1562
L8.29688 -10.4062
Q11.0781 -9.1875 12.3906 -6.8125
Q13.7188 -4.4375 13.875 0
z
" id="ArialMT-2c"/>
     <path d="
M2.78125 29.8906
Q6.54688 29.9844 8.90625 31.9062
Q11.2812 33.8438 12.0625 37.2031
Q12.8438 40.5781 12.8906 48.7344
Q12.9375 56.8906 13.1875 59.4688
Q13.625 63.5781 14.8125 66.0625
Q16.0156 68.5625 17.7656 70.0469
Q19.5312 71.5312 22.2656 72.3125
Q24.125 72.7969 28.3281 72.7969
L31.0625 72.7969
L31.0625 65.1406
L29.5469 65.1406
Q24.4688 65.1406 22.7969 63.2969
Q21.1406 61.4688 21.1406 55.125
Q21.1406 42.3281 20.6094 38.9688
Q19.7344 33.7344 17.6094 30.9062
Q15.4844 28.0781 10.9375 25.875
Q16.3125 23.6406 18.7188 19.0156
Q21.1406 14.4062 21.1406 3.90625
Q21.1406 -5.60938 21.3438 -7.42188
Q21.7344 -10.75 23.3125 -12.0625
Q24.9062 -13.375 29.5469 -13.375
L31.0625 -13.375
L31.0625 -21.0469
L28.3281 -21.0469
Q23.5312 -21.0469 21.3906 -20.2656
Q18.2656 -19.1406 16.2031 -16.625
Q14.1562 -14.1094 13.5469 -10.25
Q12.9375 -6.39062 12.8906 2.39062
Q12.8438 11.1875 12.0625 14.5469
Q11.2812 17.9219 8.90625 19.875
Q6.54688 21.8281 2.78125 21.9219
z
" id="ArialMT-7b"/>
    </defs>
    <g transform="translate(326.77825 345.888)scale(0.2 -0.2)">
     <use xlink:href="#ArialMT-7b"/>
     <use x="33.3984375" xlink:href="#ArialMT-66"/>
     <use x="61.181640625" xlink:href="#ArialMT-31"/>
     <use x="116.796875" xlink:href="#ArialMT-2d"/>
     <use x="150.09765625" xlink:href="#ArialMT-66"/>
     <use x="177.880859375" xlink:href="#ArialMT-32"/>
     <use x="233.49609375" xlink:href="#ArialMT-34"/>
     <use x="289.111328125" xlink:href="#ArialMT-7d"/>
     <use x="322.509765625" xlink:href="#ArialMT-2c"/>
     <use x="350.29296875" xlink:href="#ArialMT-20"/>
     <use x="378.076171875" xlink:href="#ArialMT-32"/>
     <use x="433.69140625" xlink:href="#ArialMT-30"/>
     <use x="489.306640625" xlink:href="#ArialMT-2d"/>
     <use x="522.607421875" xlink:href="#ArialMT-44"/>
    </g>
   </g>
   <g id="text_11">
    <!-- v2.0.1 -->
    <defs>
     <path d="
M21 0
L1.26562 51.8594
L10.5469 51.8594
L21.6875 20.7969
Q23.4844 15.7656 25 10.3594
Q26.1719 14.4531 28.2656 20.2188
L39.7969 51.8594
L48.8281 51.8594
L29.2031 0
z
" id="ArialMT-76"/>
     <path d="
M9.07812 0
L9.07812 10.0156
L19.0938 10.0156
L19.0938 0
z
" id="ArialMT-2e"/>
    </defs>
    <g style="fill:#808080;" transform="translate(217.76171875 347.3565)scale(0.1 -0.1)">
     <use xlink:href="#ArialMT-76"/>
     <use x="50.0" xlink:href="#ArialMT-32"/>
     <use x="105.615234375" xlink:href="#ArialMT-2e"/>
     <use x="133.3984375" xlink:href="#ArialMT-30"/>
     <use x="189.013671875" xlink:href="#ArialMT-2e"/>
     <use x="216.796875" xlink:href="#ArialMT-31"/>
    </g>
   </g>
  </g>
 </g>
 <defs>
  <clipPath id="p5bee155178">
   <rect height="345.6" width="446.4" x="7.2" y="7.2"/>
  </clipPath>
 </defs>
</svg>
