<?xml version="1.0" encoding="utf-8" standalone="no"?>
<!DOCTYPE svg PUBLIC "-//W3C//DTD SVG 1.1//EN"
  "http://www.w3.org/Graphics/SVG/1.1/DTD/svg11.dtd">
<!-- Created with matplotlib (http://matplotlib.org/) -->
<svg height="406pt" version="1.1" viewBox="0 0 460 406" width="460pt" xmlns="http://www.w3.org/2000/svg" xmlns:xlink="http://www.w3.org/1999/xlink">
 <defs>
  <style type="text/css">
*{stroke-linecap:butt;stroke-linejoin:round;}
  </style>
 </defs>
 <g id="figure_1">
  <g id="patch_1">
   <path d="
M0 406.059
L460.8 406.059
L460.8 0
L0 0
z
" style="fill:#ffffff;"/>
  </g>
  <g id="axes_1">
   <g id="patch_2">
    <path d="
M7.2 352.8
L453.6 352.8
L453.6 7.2
L7.2 7.2
z
" style="fill:#ffffff;"/>
   </g>
   <g id="line2d_1">
    <path clip-path="url(#p5bee155178)" d="
M116.866 352.8
L116.866 348.238
L122.628 348.238
L122.706 334.55
L123.653 334.55
L123.653 329.988
L124.363 329.988
L124.422 320.863
L125.002 320.863
L125.002 316.301
L125.126 316.301
L125.126 311.739
L125.651 311.739
L125.651 307.176
L125.819 307.176
L125.819 302.614
L127.511 302.614
L127.511 298.051
L128.037 298.051
L128.037 293.489
L128.208 293.489
L128.208 288.927
L130.757 288.927
L130.757 284.364
L171.998 284.364
L171.998 279.802
L172.114 279.802
L172.114 275.24
L183.061 275.24
L183.061 270.677
L185.516 270.677
L185.516 266.115
L187.701 266.115
L187.701 261.552
L190.771 261.552
L190.771 256.99
L191.342 256.99
L191.342 252.428
L200.58 252.428
L200.58 247.865
L204.969 247.865
L204.969 243.303
L206.061 243.303
L206.061 238.741
L210.141 238.741
L210.141 234.178
L212.562 234.178
L212.562 229.616
L213.386 229.616
L213.462 220.491
L214.434 220.491
L214.434 215.929
L215.476 215.929
L215.476 211.366
L218.654 211.366
L218.654 206.804
L218.833 206.804
L218.833 202.242
L221.187 202.242
L221.187 197.679
L222.715 197.679
L222.715 193.117
L223.965 193.117
L223.965 188.554
L224.269 188.554
L224.269 183.992
L225.258 183.992
L225.258 179.43
L225.529 179.43
L225.529 174.867
L227.241 174.867
L227.241 170.305
L231.66 170.305
L231.66 165.743
L235.702 165.743
L235.725 156.618
L236.324 156.618
L236.324 152.055
L242.41 152.055
L242.41 147.493
L247.994 147.493
L247.994 142.931
L249.331 142.931
L249.331 138.368
L249.767 138.368
L249.767 133.806
L250.599 133.806
L250.599 129.244
L250.758 129.244
L250.758 124.681
L251.734 124.681
L251.734 120.119
L253.729 120.119
L253.729 115.556
L254.96 115.556
L254.96 110.994
L255.925 110.994
L255.925 106.432
L257.042 106.432
L257.042 101.869
L257.206 101.869
L257.206 97.3069
L259.012 97.3069
L259.012 92.7446
L259.545 92.7446
L259.545 88.1822
L260.348 88.1822
L260.348 83.6198
L262.721 83.6198
L262.721 79.0574
L274.749 79.0574
L274.749 74.495
L276.798 74.495
L276.798 69.9327
L279.199 69.9327
L279.199 65.3703
L280.318 65.3703
L280.318 60.8079
L281.542 60.8079
L281.542 56.2455
L282.263 56.2455
L282.263 51.6832
L284.241 51.6832
L284.241 47.1208
L284.509 47.1208
L284.509 42.5584
L284.692 42.5584
L284.692 37.996
L284.96 37.996
L285.018 28.8713
L285.284 28.8713
L285.284 24.3089
L285.827 24.3089
L285.827 19.7465
L287.981 19.7465
L287.981 15.1842
L288.69 15.1842
L288.69 10.6218
L288.69 10.6218
L453.6 10.6218
L453.6 10.6218" style="fill:none;stroke:#ff0000;stroke-linecap:square;stroke-width:3.0;"/>
   </g>
   <g id="line2d_2">
    <path clip-path="url(#p5bee155178)" d="
M240.935 352.8
L240.935 348.238
L247.59 348.238
L247.59 343.675
L248.666 343.675
L248.763 334.55
L249.433 334.55
L249.433 329.988
L249.849 329.988
L249.849 325.426
L249.985 325.426
L249.985 320.863
L251.549 320.863
L251.549 316.301
L251.927 316.301
L251.927 311.739
L252.821 311.739
L252.821 307.176
L253.577 307.176
L253.577 302.614
L255.129 302.614
L255.129 298.051
L255.563 298.051
L255.563 293.489
L260.485 293.489
L260.485 288.927
L264.309 288.927
L264.331 279.802
L286.703 279.802
L286.703 275.24
L288.642 275.24
L288.642 270.677
L289.169 270.677
L289.169 266.115
L289.336 266.115
L289.336 261.552
L289.569 261.552
L289.657 252.428
L290.249 252.428
L290.249 247.865
L290.631 247.865
L290.689 238.741
L291 238.741
L291.074 225.053
L291.13 225.053
L291.216 211.366
L293.846 211.366
L293.846 206.804
L311.522 206.804
L311.522 202.242
L313.448 202.242
L313.448 197.679
L316.104 197.679
L316.104 193.117
L327.919 193.117
L327.919 188.554
L335.156 188.554
L335.156 183.992
L339.514 183.992
L339.514 179.43
L347.276 179.43
L347.276 174.867
L350.922 174.867
L350.922 170.305
L351.244 170.305
L351.244 165.743
L355.036 165.743
L355.036 161.18
L357.591 161.18
L357.591 156.618
L360.504 156.618
L360.504 152.055
L361.011 152.055
L361.011 147.493
L361.21 147.493
L361.21 142.931
L366.12 142.931
L366.12 138.368
L370.255 138.368
L370.255 133.806
L370.861 133.806
L370.861 129.244
L374.245 129.244
L374.245 124.681
L375.575 124.681
L375.575 120.119
L376.106 120.119
L376.106 115.556
L376.72 115.556
L376.72 110.994
L377.923 110.994
L377.923 106.432
L381.85 106.432
L381.85 101.869
L389.218 101.869
L389.226 92.7446
L389.88 92.7446
L389.88 88.1822
L391.306 88.1822
L391.306 83.6198
L391.647 83.6198
L391.647 79.0574
L411.43 79.0574
L411.43 74.495
L412.634 74.495
L412.634 69.9327
L413.717 69.9327
L413.717 65.3703
L417.348 65.3703
L417.443 56.2455
L418.054 56.2455
L418.054 51.6832
L422.753 51.6832
L422.753 47.1208
L422.885 47.1208
L422.885 42.5584
L423.426 42.5584
L423.426 37.996
L423.736 37.996
L423.736 33.4337
L424.88 33.4337
L424.88 28.8713
L427.983 28.8713
L427.983 24.3089
L431.785 24.3089
L431.785 19.7465
L441.34 19.7465
L441.34 15.1842
L444.686 15.1842
L444.686 10.6218
L444.686 10.6218
L453.6 10.6218
L453.6 10.6218" style="fill:none;stroke:#00bfbf;stroke-linecap:square;"/>
   </g>
   <g id="line2d_3">
    <path clip-path="url(#p5bee155178)" d="
M235.705 352.8
L235.705 348.238
L240.935 348.238
L240.935 343.675
L242.346 343.675
L242.346 339.113
L247.4 339.113
L247.4 334.55
L247.59 334.55
L247.59 329.988
L248.129 329.988
L248.129 325.426
L248.915 325.426
L248.915 320.863
L249.197 320.863
L249.197 316.301
L249.849 316.301
L249.849 311.739
L250.945 311.739
L250.945 307.176
L251.927 307.176
L251.927 302.614
L252.821 302.614
L252.821 298.051
L252.976 298.051
L252.976 293.489
L253.577 293.489
L253.577 288.927
L259.114 288.927
L259.114 284.364
L264.309 284.364
L264.309 279.802
L271.44 279.802
L271.44 275.24
L272.005 275.24
L272.005 270.677
L286.703 270.677
L286.703 266.115
L288.069 266.115
L288.069 261.552
L288.4 261.552
L288.505 252.428
L288.551 252.428
L288.551 247.865
L289.297 247.865
L289.297 243.303
L289.504 243.303
L289.569 234.178
L289.795 234.178
L289.799 225.053
L289.989 225.053
L290.052 215.929
L290.249 215.929
L290.249 211.366
L290.631 211.366
L290.631 206.804
L291 206.804
L291 202.242
L291.216 202.242
L291.216 197.679
L292.906 197.679
L292.906 193.117
L311.522 193.117
L311.522 188.554
L313.448 188.554
L313.448 183.992
L319.449 183.992
L319.449 179.43
L320.99 179.43
L320.99 174.867
L327.919 174.867
L327.919 170.305
L337.802 170.305
L337.802 165.743
L342.043 165.743
L342.043 161.18
L355.036 161.18
L355.036 156.618
L357.591 156.618
L357.591 152.055
L360.504 152.055
L360.504 147.493
L361.011 147.493
L361.011 142.931
L362.558 142.931
L362.558 138.368
L366.12 138.368
L366.12 133.806
L370.169 133.806
L370.169 129.244
L371.351 129.244
L371.351 124.681
L374.245 124.681
L374.245 120.119
L374.673 120.119
L374.673 115.556
L374.967 115.556
L374.967 110.994
L375.575 110.994
L375.575 106.432
L376.72 106.432
L376.72 101.869
L383.156 101.869
L383.156 97.3069
L385.501 97.3069
L385.501 92.7446
L388.149 92.7446
L388.149 88.1822
L389.226 88.1822
L389.226 83.6198
L389.88 83.6198
L389.88 79.0574
L410.832 79.0574
L410.832 74.495
L411.43 74.495
L411.43 69.9327
L412.47 69.9327
L412.47 65.3703
L412.634 65.3703
L412.634 60.8079
L415.855 60.8079
L415.855 56.2455
L416.179 56.2455
L416.179 51.6832
L417.348 51.6832
L417.348 47.1208
L418.406 47.1208
L418.406 42.5584
L422.753 42.5584
L422.753 37.996
L423.426 37.996
L423.426 33.4337
L423.736 33.4337
L423.736 28.8713
L427.379 28.8713
L427.379 24.3089
L427.983 24.3089
L427.983 19.7465
L431.292 19.7465
L431.292 15.1842
L434.21 15.1842
L434.21 10.6218
L434.21 10.6218
L453.6 10.6218
L453.6 10.6218" style="fill:none;stroke:#bf00bf;stroke-linecap:square;"/>
   </g>
   <g id="line2d_4">
    <path clip-path="url(#p5bee155178)" d="
M235.705 352.8
L235.705 348.238
L240.935 348.238
L240.935 343.675
L241.622 343.675
L241.622 339.113
L242.346 339.113
L242.346 334.55
L242.563 334.55
L242.563 329.988
L242.963 329.988
L242.963 325.426
L244.843 325.426
L244.843 320.863
L245.609 320.863
L245.609 316.301
L245.736 316.301
L245.785 307.176
L246.09 307.176
L246.09 302.614
L248.645 302.614
L248.645 298.051
L249.849 298.051
L249.849 293.489
L250.943 293.489
L250.943 288.927
L256.027 288.927
L256.027 284.364
L264.309 284.364
L264.309 279.802
L267.407 279.802
L267.407 275.24
L268.61 275.24
L268.61 270.677
L271.44 270.677
L271.44 266.115
L272.005 266.115
L272.005 261.552
L277.232 261.552
L277.232 256.99
L285.219 256.99
L285.219 252.428
L285.833 252.428
L285.833 247.865
L285.958 247.865
L285.958 243.303
L286.453 243.303
L286.453 238.741
L287.021 238.741
L287.028 229.616
L287.244 229.616
L287.297 220.491
L288.038 220.491
L288.038 215.929
L288.336 215.929
L288.336 211.366
L288.493 211.366
L288.576 202.242
L288.66 202.242
L288.66 197.679
L288.974 197.679
L288.974 193.117
L289.286 193.117
L289.297 183.992
L289.896 183.992
L289.896 179.43
L290.507 179.43
L290.507 174.867
L302.753 174.867
L302.753 170.305
L307.23 170.305
L307.23 165.743
L310.453 165.743
L310.453 161.18
L317.325 161.18
L317.325 156.618
L322.073 156.618
L322.073 152.055
L325.053 152.055
L325.053 147.493
L355.036 147.493
L355.036 142.931
L359.03 142.931
L359.128 133.806
L359.95 133.806
L359.95 129.244
L360.504 129.244
L360.512 120.119
L362.558 120.119
L362.558 115.556
L364.456 115.556
L364.456 110.994
L365.836 110.994
L365.836 106.432
L368.436 106.432
L368.436 101.869
L369.073 101.869
L369.139 92.7446
L370.355 92.7446
L370.355 88.1822
L379.486 88.1822
L379.486 83.6198
L380.947 83.6198
L380.947 79.0574
L405.879 79.0574
L405.879 74.495
L406.278 74.495
L406.302 65.3703
L408.051 65.3703
L408.051 60.8079
L408.728 60.8079
L408.728 56.2455
L410.524 56.2455
L410.524 51.6832
L410.963 51.6832
L410.963 47.1208
L411.947 47.1208
L411.947 42.5584
L414.34 42.5584
L414.34 37.996
L414.988 37.996
L414.988 33.4337
L415.722 33.4337
L415.722 28.8713
L416.383 28.8713
L416.383 24.3089
L419.058 24.3089
L419.058 19.7465
L422.291 19.7465
L422.291 15.1842
L424.754 15.1842
L424.754 10.6218
L424.754 10.6218
L453.6 10.6218
L453.6 10.6218" style="fill:none;stroke:#000000;stroke-linecap:square;"/>
   </g>
   <g id="line2d_5">
    <path clip-path="url(#p5bee155178)" d="
M219.904 352.8
L219.904 348.238
L220.4 348.238
L220.4 343.675
L220.66 343.675
L220.66 339.113
L222.462 339.113
L222.462 334.55
L224.379 334.55
L224.379 329.988
L225.872 329.988
L225.872 325.426
L226.268 325.426
L226.268 320.863
L226.737 320.863
L226.737 316.301
L227.426 316.301
L227.426 311.739
L227.986 311.739
L227.986 307.176
L228.179 307.176
L228.179 302.614
L228.741 302.614
L228.741 298.051
L231.284 298.051
L231.284 293.489
L231.466 293.489
L231.466 288.927
L231.609 288.927
L231.609 284.364
L261.525 284.364
L261.525 279.802
L263.622 279.802
L263.622 275.24
L264.309 275.24
L264.309 270.677
L264.822 270.677
L264.822 266.115
L265.26 266.115
L265.26 261.552
L265.757 261.552
L265.757 256.99
L266.064 256.99
L266.064 252.428
L266.774 252.428
L266.774 247.865
L267.374 247.865
L267.407 238.741
L268.61 238.741
L268.61 234.178
L268.845 234.178
L268.845 229.616
L271.248 229.616
L271.248 225.053
L272.19 225.053
L272.19 220.491
L272.506 220.491
L272.506 215.929
L272.924 215.929
L272.924 211.366
L273.942 211.366
L273.942 206.804
L274.106 206.804
L274.106 202.242
L274.383 202.242
L274.442 193.117
L274.724 193.117
L274.827 179.43
L275.027 179.43
L275.113 170.305
L275.258 170.305
L275.258 165.743
L277.996 165.743
L277.996 161.18
L278.488 161.18
L278.488 156.618
L280.462 156.618
L280.462 152.055
L284.891 152.055
L284.891 147.493
L333.755 147.493
L333.785 138.368
L336.51 138.368
L336.51 133.806
L337.773 133.806
L337.773 129.244
L338.277 129.244
L338.277 124.681
L339.341 124.681
L339.341 120.119
L339.928 120.119
L339.928 115.556
L341.965 115.556
L341.965 110.994
L343.614 110.994
L343.614 106.432
L344.02 106.432
L344.02 101.869
L344.518 101.869
L344.518 97.3069
L345.263 97.3069
L345.263 92.7446
L346.078 92.7446
L346.078 88.1822
L349.985 88.1822
L349.985 83.6198
L359.125 83.6198
L359.125 79.0574
L375.809 79.0574
L375.809 74.495
L382.209 74.495
L382.209 69.9327
L387.707 69.9327
L387.707 65.3703
L392.175 65.3703
L392.211 56.2455
L393.542 56.2455
L393.542 51.6832
L393.674 51.6832
L393.674 47.1208
L394.242 47.1208
L394.242 42.5584
L394.783 42.5584
L394.783 37.996
L399.103 37.996
L399.19 28.8713
L401.406 28.8713
L401.406 24.3089
L403.971 24.3089
L403.971 19.7465
L404.574 19.7465
L404.574 15.1842
L411.584 15.1842
L411.584 10.6218
L411.584 10.6218
L453.6 10.6218
L453.6 10.6218" style="fill:none;stroke:#00bfbf;stroke-linecap:square;"/>
   </g>
   <g id="line2d_6">
    <path clip-path="url(#p5bee155178)" d="
M116.866 352.8
L116.866 348.238
L122.628 348.238
L122.706 334.55
L123.653 334.55
L123.653 329.988
L124.363 329.988
L124.422 320.863
L125.002 320.863
L125.002 316.301
L125.126 316.301
L125.126 311.739
L125.651 311.739
L125.651 307.176
L125.819 307.176
L125.819 302.614
L127.511 302.614
L127.511 298.051
L128.037 298.051
L128.037 293.489
L128.208 293.489
L128.208 288.927
L130.757 288.927
L130.757 284.364
L171.998 284.364
L171.998 279.802
L172.114 279.802
L172.114 275.24
L183.061 275.24
L183.061 270.677
L185.516 270.677
L185.516 266.115
L187.701 266.115
L187.701 261.552
L190.771 261.552
L190.771 256.99
L191.342 256.99
L191.342 252.428
L200.58 252.428
L200.58 247.865
L204.969 247.865
L204.969 243.303
L206.061 243.303
L206.061 238.741
L210.141 238.741
L210.141 234.178
L212.562 234.178
L212.562 229.616
L213.386 229.616
L213.462 220.491
L214.434 220.491
L214.434 215.929
L215.476 215.929
L215.476 211.366
L218.654 211.366
L218.654 206.804
L218.833 206.804
L218.833 202.242
L221.187 202.242
L221.187 197.679
L222.715 197.679
L222.715 193.117
L223.965 193.117
L223.965 188.554
L224.269 188.554
L224.269 183.992
L225.258 183.992
L225.258 179.43
L225.529 179.43
L225.529 174.867
L227.241 174.867
L227.241 170.305
L231.66 170.305
L231.66 165.743
L235.702 165.743
L235.725 156.618
L236.324 156.618
L236.324 152.055
L242.41 152.055
L242.41 147.493
L247.994 147.493
L247.994 142.931
L249.331 142.931
L249.331 138.368
L249.767 138.368
L249.767 133.806
L250.599 133.806
L250.599 129.244
L250.758 129.244
L250.758 124.681
L251.734 124.681
L251.734 120.119
L253.729 120.119
L253.729 115.556
L254.96 115.556
L254.96 110.994
L255.925 110.994
L255.925 106.432
L257.042 106.432
L257.042 101.869
L257.206 101.869
L257.206 97.3069
L259.012 97.3069
L259.012 92.7446
L259.545 92.7446
L259.545 88.1822
L260.348 88.1822
L260.348 83.6198
L262.721 83.6198
L262.721 79.0574
L274.749 79.0574
L274.749 74.495
L276.798 74.495
L276.798 69.9327
L279.199 69.9327
L279.199 65.3703
L280.318 65.3703
L280.318 60.8079
L281.542 60.8079
L281.542 56.2455
L282.263 56.2455
L282.263 51.6832
L284.241 51.6832
L284.241 47.1208
L284.509 47.1208
L284.509 42.5584
L284.692 42.5584
L284.692 37.996
L284.96 37.996
L285.018 28.8713
L285.284 28.8713
L285.284 24.3089
L285.827 24.3089
L285.827 19.7465
L287.981 19.7465
L287.981 15.1842
L288.69 15.1842
L288.69 10.6218
L288.69 10.6218
L453.6 10.6218
L453.6 10.6218" style="fill:none;stroke:#bf00bf;stroke-linecap:square;"/>
   </g>
   <g id="matplotlib.axis_1">
    <g id="xtick_1"/>
    <g id="xtick_2">
     <g id="line2d_7">
      <path clip-path="url(#p5bee155178)" d="
M56.7047 352.8
L56.7047 7.2" style="fill:none;stroke:#000000;stroke-dasharray:1.000000,3.000000;stroke-dashoffset:0.0;stroke-width:0.5;"/>
     </g>
     <g id="line2d_8">
      <defs>
       <path d="
M0 0
L0 -4" id="m93b0483c22" style="stroke:#000000;stroke-width:0.5;"/>
      </defs>
      <g>
       <use style="stroke:#000000;stroke-width:0.5;" x="56.70471484" xlink:href="#m93b0483c22" y="352.8"/>
      </g>
     </g>
     <g id="line2d_9">
      <defs>
       <path d="
M0 0
L0 4" id="m741efc42ff" style="stroke:#000000;stroke-width:0.5;"/>
      </defs>
      <g>
       <use style="stroke:#000000;stroke-width:0.5;" x="56.70471484" xlink:href="#m741efc42ff" y="7.2"/>
      </g>
     </g>
     <g id="text_1">
      <!-- -6 -->
      <defs>
       <path d="
M3.17188 21.4844
L3.17188 30.3281
L30.1719 30.3281
L30.1719 21.4844
z
" id="ArialMT-2d"/>
       <path d="
M49.75 54.0469
L41.0156 53.375
Q39.8438 58.5469 37.7031 60.8906
Q34.125 64.6562 28.9062 64.6562
Q24.7031 64.6562 21.5312 62.3125
Q17.3906 59.2812 14.9844 53.4688
Q12.5938 47.6562 12.5 36.9219
Q15.6719 41.75 20.2656 44.0938
Q24.8594 46.4375 29.8906 46.4375
Q38.6719 46.4375 44.8438 39.9688
Q51.0312 33.5 51.0312 23.25
Q51.0312 16.5 48.125 10.7188
Q45.2188 4.9375 40.1406 1.85938
Q35.0625 -1.21875 28.6094 -1.21875
Q17.625 -1.21875 10.6875 6.85938
Q3.76562 14.9375 3.76562 33.5
Q3.76562 54.25 11.4219 63.6719
Q18.1094 71.875 29.4375 71.875
Q37.8906 71.875 43.2812 67.1406
Q48.6875 62.4062 49.75 54.0469
M13.875 23.1875
Q13.875 18.6562 15.7969 14.5
Q17.7188 10.3594 21.1875 8.17188
Q24.6562 6 28.4688 6
Q34.0312 6 38.0312 10.4844
Q42.0469 14.9844 42.0469 22.7031
Q42.0469 30.125 38.0781 34.3906
Q34.125 38.6719 28.125 38.6719
Q22.1719 38.6719 18.0156 34.3906
Q13.875 30.125 13.875 23.1875" id="ArialMT-36"/>
      </defs>
      <g transform="translate(48.58908984 371.115625)scale(0.2 -0.2)">
       <use xlink:href="#ArialMT-2d"/>
       <use x="33.30078125" xlink:href="#ArialMT-36"/>
      </g>
     </g>
    </g>
    <g id="xtick_3">
     <g id="line2d_10">
      <path clip-path="url(#p5bee155178)" d="
M106.317 352.8
L106.317 7.2" style="fill:none;stroke:#000000;stroke-dasharray:1.000000,3.000000;stroke-dashoffset:0.0;stroke-width:0.5;"/>
     </g>
     <g id="line2d_11">
      <g>
       <use style="stroke:#000000;stroke-width:0.5;" x="106.316625485" xlink:href="#m93b0483c22" y="352.8"/>
      </g>
     </g>
     <g id="line2d_12">
      <g>
       <use style="stroke:#000000;stroke-width:0.5;" x="106.316625485" xlink:href="#m741efc42ff" y="7.2"/>
      </g>
     </g>
     <g id="text_2">
      <!-- -4 -->
      <defs>
       <path d="
M32.3281 0
L32.3281 17.1406
L1.26562 17.1406
L1.26562 25.2031
L33.9375 71.5781
L41.1094 71.5781
L41.1094 25.2031
L50.7812 25.2031
L50.7812 17.1406
L41.1094 17.1406
L41.1094 0
z

M32.3281 25.2031
L32.3281 57.4688
L9.90625 25.2031
z
" id="ArialMT-34"/>
      </defs>
      <g transform="translate(98.226000485 371.115625)scale(0.2 -0.2)">
       <use xlink:href="#ArialMT-2d"/>
       <use x="33.30078125" xlink:href="#ArialMT-34"/>
      </g>
     </g>
    </g>
    <g id="xtick_4">
     <g id="line2d_13">
      <path clip-path="url(#p5bee155178)" d="
M155.929 352.8
L155.929 7.2" style="fill:none;stroke:#000000;stroke-dasharray:1.000000,3.000000;stroke-dashoffset:0.0;stroke-width:0.5;"/>
     </g>
     <g id="line2d_14">
      <g>
       <use style="stroke:#000000;stroke-width:0.5;" x="155.92853613" xlink:href="#m93b0483c22" y="352.8"/>
      </g>
     </g>
     <g id="line2d_15">
      <g>
       <use style="stroke:#000000;stroke-width:0.5;" x="155.92853613" xlink:href="#m741efc42ff" y="7.2"/>
      </g>
     </g>
     <g id="text_3">
      <!-- -2 -->
      <defs>
       <path d="
M50.3438 8.45312
L50.3438 0
L3.03125 0
Q2.9375 3.17188 4.04688 6.10938
Q5.85938 10.9375 9.82812 15.625
Q13.8125 20.3125 21.3438 26.4688
Q33.0156 36.0312 37.1094 41.625
Q41.2188 47.2188 41.2188 52.2031
Q41.2188 57.4219 37.4688 61
Q33.7344 64.5938 27.7344 64.5938
Q21.3906 64.5938 17.5781 60.7812
Q13.7656 56.9844 13.7188 50.25
L4.6875 51.1719
Q5.60938 61.2812 11.6562 66.5781
Q17.7188 71.875 27.9375 71.875
Q38.2344 71.875 44.2344 66.1562
Q50.25 60.4531 50.25 52
Q50.25 47.7031 48.4844 43.5469
Q46.7344 39.4062 42.6562 34.8125
Q38.5781 30.2188 29.1094 22.2188
Q21.1875 15.5781 18.9375 13.2031
Q16.7031 10.8438 15.2344 8.45312
z
" id="ArialMT-32"/>
      </defs>
      <g transform="translate(147.88166113 371.115625)scale(0.2 -0.2)">
       <use xlink:href="#ArialMT-2d"/>
       <use x="33.30078125" xlink:href="#ArialMT-32"/>
      </g>
     </g>
    </g>
    <g id="xtick_5">
     <g id="line2d_16">
      <path clip-path="url(#p5bee155178)" d="
M205.54 352.8
L205.54 7.2" style="fill:none;stroke:#000000;stroke-dasharray:1.000000,3.000000;stroke-dashoffset:0.0;stroke-width:0.5;"/>
     </g>
     <g id="line2d_17">
      <g>
       <use style="stroke:#000000;stroke-width:0.5;" x="205.540446775" xlink:href="#m93b0483c22" y="352.8"/>
      </g>
     </g>
     <g id="line2d_18">
      <g>
       <use style="stroke:#000000;stroke-width:0.5;" x="205.540446775" xlink:href="#m741efc42ff" y="7.2"/>
      </g>
     </g>
     <g id="text_4">
      <!-- 0 -->
      <defs>
       <path d="
M4.15625 35.2969
Q4.15625 48 6.76562 55.7344
Q9.375 63.4844 14.5156 67.6719
Q19.6719 71.875 27.4844 71.875
Q33.25 71.875 37.5938 69.5469
Q41.9375 67.2344 44.7656 62.8594
Q47.6094 58.5 49.2188 52.2188
Q50.8281 45.9531 50.8281 35.2969
Q50.8281 22.7031 48.2344 14.9688
Q45.6562 7.23438 40.5 3
Q35.3594 -1.21875 27.4844 -1.21875
Q17.1406 -1.21875 11.2344 6.20312
Q4.15625 15.1406 4.15625 35.2969
M13.1875 35.2969
Q13.1875 17.6719 17.3125 11.8281
Q21.4375 6 27.4844 6
Q33.5469 6 37.6719 11.8594
Q41.7969 17.7188 41.7969 35.2969
Q41.7969 52.9844 37.6719 58.7812
Q33.5469 64.5938 27.3906 64.5938
Q21.3438 64.5938 17.7188 59.4688
Q13.1875 52.9375 13.1875 35.2969" id="ArialMT-30"/>
      </defs>
      <g transform="translate(200.873259275 371.115625)scale(0.2 -0.2)">
       <use xlink:href="#ArialMT-30"/>
      </g>
     </g>
    </g>
    <g id="xtick_6">
     <g id="line2d_19">
      <path clip-path="url(#p5bee155178)" d="
M255.152 352.8
L255.152 7.2" style="fill:none;stroke:#000000;stroke-dasharray:1.000000,3.000000;stroke-dashoffset:0.0;stroke-width:0.5;"/>
     </g>
     <g id="line2d_20">
      <g>
       <use style="stroke:#000000;stroke-width:0.5;" x="255.15235742" xlink:href="#m93b0483c22" y="352.8"/>
      </g>
     </g>
     <g id="line2d_21">
      <g>
       <use style="stroke:#000000;stroke-width:0.5;" x="255.15235742" xlink:href="#m741efc42ff" y="7.2"/>
      </g>
     </g>
     <g id="text_5">
      <!-- 2 -->
      <g transform="translate(250.41173242 371.115625)scale(0.2 -0.2)">
       <use xlink:href="#ArialMT-32"/>
      </g>
     </g>
    </g>
    <g id="xtick_7">
     <g id="line2d_22">
      <path clip-path="url(#p5bee155178)" d="
M304.764 352.8
L304.764 7.2" style="fill:none;stroke:#000000;stroke-dasharray:1.000000,3.000000;stroke-dashoffset:0.0;stroke-width:0.5;"/>
     </g>
     <g id="line2d_23">
      <g>
       <use style="stroke:#000000;stroke-width:0.5;" x="304.764268065" xlink:href="#m93b0483c22" y="352.8"/>
      </g>
     </g>
     <g id="line2d_24">
      <g>
       <use style="stroke:#000000;stroke-width:0.5;" x="304.764268065" xlink:href="#m741efc42ff" y="7.2"/>
      </g>
     </g>
     <g id="text_6">
      <!-- 4 -->
      <g transform="translate(299.812705565 371.115625)scale(0.2 -0.2)">
       <use xlink:href="#ArialMT-34"/>
      </g>
     </g>
    </g>
    <g id="xtick_8">
     <g id="line2d_25">
      <path clip-path="url(#p5bee155178)" d="
M354.376 352.8
L354.376 7.2" style="fill:none;stroke:#000000;stroke-dasharray:1.000000,3.000000;stroke-dashoffset:0.0;stroke-width:0.5;"/>
     </g>
     <g id="line2d_26">
      <g>
       <use style="stroke:#000000;stroke-width:0.5;" x="354.37617871" xlink:href="#m93b0483c22" y="352.8"/>
      </g>
     </g>
     <g id="line2d_27">
      <g>
       <use style="stroke:#000000;stroke-width:0.5;" x="354.37617871" xlink:href="#m741efc42ff" y="7.2"/>
      </g>
     </g>
     <g id="text_7">
      <!-- 6 -->
      <g transform="translate(349.64961621 371.115625)scale(0.2 -0.2)">
       <use xlink:href="#ArialMT-36"/>
      </g>
     </g>
    </g>
    <g id="xtick_9">
     <g id="line2d_28">
      <path clip-path="url(#p5bee155178)" d="
M403.988 352.8
L403.988 7.2" style="fill:none;stroke:#000000;stroke-dasharray:1.000000,3.000000;stroke-dashoffset:0.0;stroke-width:0.5;"/>
     </g>
     <g id="line2d_29">
      <g>
       <use style="stroke:#000000;stroke-width:0.5;" x="403.988089355" xlink:href="#m93b0483c22" y="352.8"/>
      </g>
     </g>
     <g id="line2d_30">
      <g>
       <use style="stroke:#000000;stroke-width:0.5;" x="403.988089355" xlink:href="#m741efc42ff" y="7.2"/>
      </g>
     </g>
     <g id="text_8">
      <!-- 8 -->
      <defs>
       <path d="
M17.6719 38.8125
Q12.2031 40.8281 9.5625 44.5312
Q6.9375 48.25 6.9375 53.4219
Q6.9375 61.2344 12.5469 66.5469
Q18.1719 71.875 27.4844 71.875
Q36.8594 71.875 42.5781 66.4219
Q48.2969 60.9844 48.2969 53.1719
Q48.2969 48.1875 45.6719 44.5
Q43.0625 40.8281 37.75 38.8125
Q44.3438 36.6719 47.7812 31.875
Q51.2188 27.0938 51.2188 20.4531
Q51.2188 11.2812 44.7188 5.03125
Q38.2344 -1.21875 27.6406 -1.21875
Q17.0469 -1.21875 10.5469 5.04688
Q4.04688 11.3281 4.04688 20.7031
Q4.04688 27.6875 7.59375 32.3906
Q11.1406 37.1094 17.6719 38.8125
M15.9219 53.7188
Q15.9219 48.6406 19.1875 45.4062
Q22.4688 42.1875 27.6875 42.1875
Q32.7656 42.1875 36.0156 45.375
Q39.2656 48.5781 39.2656 53.2188
Q39.2656 58.0625 35.9062 61.3594
Q32.5625 64.6562 27.5938 64.6562
Q22.5625 64.6562 19.2344 61.4219
Q15.9219 58.2031 15.9219 53.7188
M13.0938 20.6562
Q13.0938 16.8906 14.875 13.375
Q16.6562 9.85938 20.1719 7.92188
Q23.6875 6 27.7344 6
Q34.0312 6 38.125 10.0469
Q42.2344 14.1094 42.2344 20.3594
Q42.2344 26.7031 38.0156 30.8594
Q33.7969 35.0156 27.4375 35.0156
Q21.2344 35.0156 17.1562 30.9062
Q13.0938 26.8125 13.0938 20.6562" id="ArialMT-38"/>
      </defs>
      <g transform="translate(399.270901855 371.115625)scale(0.2 -0.2)">
       <use xlink:href="#ArialMT-38"/>
      </g>
     </g>
    </g>
    <g id="xtick_10">
     <g id="line2d_31">
      <path clip-path="url(#p5bee155178)" d="
M453.6 352.8
L453.6 7.2" style="fill:none;stroke:#000000;stroke-dasharray:1.000000,3.000000;stroke-dashoffset:0.0;stroke-width:0.5;"/>
     </g>
     <g id="line2d_32">
      <g>
       <use style="stroke:#000000;stroke-width:0.5;" x="453.6" xlink:href="#m93b0483c22" y="352.8"/>
      </g>
     </g>
     <g id="line2d_33">
      <g>
       <use style="stroke:#000000;stroke-width:0.5;" x="453.6" xlink:href="#m741efc42ff" y="7.2"/>
      </g>
     </g>
    </g>
    <g id="xtick_11"/>
    <g id="xtick_12">
     <g id="line2d_34">
      <defs>
       <path d="
M0 0
L0 -2" id="m177f7580d0" style="stroke:#000000;stroke-width:0.5;"/>
      </defs>
      <g>
       <use style="stroke:#000000;stroke-width:0.5;" x="56.70471484" xlink:href="#m177f7580d0" y="352.8"/>
      </g>
     </g>
     <g id="line2d_35">
      <defs>
       <path d="
M0 0
L0 2" id="m5284c7e2a0" style="stroke:#000000;stroke-width:0.5;"/>
      </defs>
      <g>
       <use style="stroke:#000000;stroke-width:0.5;" x="56.70471484" xlink:href="#m5284c7e2a0" y="7.2"/>
      </g>
     </g>
    </g>
    <g id="xtick_13">
     <g id="line2d_36">
      <g>
       <use style="stroke:#000000;stroke-width:0.5;" x="106.316625485" xlink:href="#m177f7580d0" y="352.8"/>
      </g>
     </g>
     <g id="line2d_37">
      <g>
       <use style="stroke:#000000;stroke-width:0.5;" x="106.316625485" xlink:href="#m5284c7e2a0" y="7.2"/>
      </g>
     </g>
    </g>
    <g id="xtick_14">
     <g id="line2d_38">
      <g>
       <use style="stroke:#000000;stroke-width:0.5;" x="155.92853613" xlink:href="#m177f7580d0" y="352.8"/>
      </g>
     </g>
     <g id="line2d_39">
      <g>
       <use style="stroke:#000000;stroke-width:0.5;" x="155.92853613" xlink:href="#m5284c7e2a0" y="7.2"/>
      </g>
     </g>
    </g>
    <g id="xtick_15">
     <g id="line2d_40">
      <g>
       <use style="stroke:#000000;stroke-width:0.5;" x="205.540446775" xlink:href="#m177f7580d0" y="352.8"/>
      </g>
     </g>
     <g id="line2d_41">
      <g>
       <use style="stroke:#000000;stroke-width:0.5;" x="205.540446775" xlink:href="#m5284c7e2a0" y="7.2"/>
      </g>
     </g>
    </g>
    <g id="xtick_16">
     <g id="line2d_42">
      <g>
       <use style="stroke:#000000;stroke-width:0.5;" x="255.15235742" xlink:href="#m177f7580d0" y="352.8"/>
      </g>
     </g>
     <g id="line2d_43">
      <g>
       <use style="stroke:#000000;stroke-width:0.5;" x="255.15235742" xlink:href="#m5284c7e2a0" y="7.2"/>
      </g>
     </g>
    </g>
    <g id="xtick_17">
     <g id="line2d_44">
      <g>
       <use style="stroke:#000000;stroke-width:0.5;" x="304.764268065" xlink:href="#m177f7580d0" y="352.8"/>
      </g>
     </g>
     <g id="line2d_45">
      <g>
       <use style="stroke:#000000;stroke-width:0.5;" x="304.764268065" xlink:href="#m5284c7e2a0" y="7.2"/>
      </g>
     </g>
    </g>
    <g id="xtick_18">
     <g id="line2d_46">
      <g>
       <use style="stroke:#000000;stroke-width:0.5;" x="354.37617871" xlink:href="#m177f7580d0" y="352.8"/>
      </g>
     </g>
     <g id="line2d_47">
      <g>
       <use style="stroke:#000000;stroke-width:0.5;" x="354.37617871" xlink:href="#m5284c7e2a0" y="7.2"/>
      </g>
     </g>
    </g>
    <g id="xtick_19">
     <g id="line2d_48">
      <g>
       <use style="stroke:#000000;stroke-width:0.5;" x="403.988089355" xlink:href="#m177f7580d0" y="352.8"/>
      </g>
     </g>
     <g id="line2d_49">
      <g>
       <use style="stroke:#000000;stroke-width:0.5;" x="403.988089355" xlink:href="#m5284c7e2a0" y="7.2"/>
      </g>
     </g>
    </g>
    <g id="xtick_20">
     <g id="line2d_50">
      <g>
       <use style="stroke:#000000;stroke-width:0.5;" x="453.6" xlink:href="#m177f7580d0" y="352.8"/>
      </g>
     </g>
     <g id="line2d_51">
      <g>
       <use style="stroke:#000000;stroke-width:0.5;" x="453.6" xlink:href="#m5284c7e2a0" y="7.2"/>
      </g>
     </g>
    </g>
    <g id="text_9">
     <!-- log10 of Df -->
     <defs>
      <path d="
M4.98438 -4.29688
L13.5312 -5.5625
Q14.0625 -9.51562 16.5 -11.3281
Q19.7812 -13.7656 25.4375 -13.7656
Q31.5469 -13.7656 34.8594 -11.3281
Q38.1875 -8.89062 39.3594 -4.5
Q40.0469 -1.8125 39.9844 6.78125
Q34.2344 0 25.6406 0
Q14.9375 0 9.07812 7.71875
Q3.21875 15.4375 3.21875 26.2188
Q3.21875 33.6406 5.90625 39.9062
Q8.59375 46.1875 13.6875 49.6094
Q18.7969 53.0312 25.6875 53.0312
Q34.8594 53.0312 40.8281 45.6094
L40.8281 51.8594
L48.9219 51.8594
L48.9219 7.03125
Q48.9219 -5.07812 46.4531 -10.125
Q44 -15.1875 38.6406 -18.1094
Q33.2969 -21.0469 25.4844 -21.0469
Q16.2188 -21.0469 10.5 -16.875
Q4.78125 -12.7031 4.98438 -4.29688
M12.25 26.8594
Q12.25 16.6562 16.2969 11.9688
Q20.3594 7.28125 26.4688 7.28125
Q32.5156 7.28125 36.6094 11.9375
Q40.7188 16.6094 40.7188 26.5625
Q40.7188 36.0781 36.5 40.9062
Q32.2812 45.75 26.3125 45.75
Q20.4531 45.75 16.3438 40.9844
Q12.25 36.2344 12.25 26.8594" id="ArialMT-67"/>
      <path d="
M8.6875 0
L8.6875 45.0156
L0.921875 45.0156
L0.921875 51.8594
L8.6875 51.8594
L8.6875 57.375
Q8.6875 62.5938 9.625 65.1406
Q10.8906 68.5625 14.0781 70.6719
Q17.2812 72.7969 23.0469 72.7969
Q26.7656 72.7969 31.25 71.9219
L29.9375 64.2656
Q27.2031 64.75 24.75 64.75
Q20.75 64.75 19.0938 63.0312
Q17.4375 61.3281 17.4375 56.6406
L17.4375 51.8594
L27.5469 51.8594
L27.5469 45.0156
L17.4375 45.0156
L17.4375 0
z
" id="ArialMT-66"/>
      <path d="
M7.71875 0
L7.71875 71.5781
L32.375 71.5781
Q40.7188 71.5781 45.125 70.5625
Q51.2656 69.1406 55.6094 65.4375
Q61.2812 60.6406 64.0781 53.1875
Q66.8906 45.75 66.8906 36.1875
Q66.8906 28.0312 64.9844 21.7344
Q63.0938 15.4375 60.1094 11.2969
Q57.125 7.17188 53.5781 4.79688
Q50.0469 2.4375 45.0469 1.21875
Q40.0469 0 33.5469 0
z

M17.1875 8.45312
L32.4688 8.45312
Q39.5469 8.45312 43.5781 9.76562
Q47.6094 11.0781 50 13.4844
Q53.375 16.8438 55.25 22.5312
Q57.125 28.2188 57.125 36.3281
Q57.125 47.5625 53.4375 53.5938
Q49.75 59.625 44.4844 61.6719
Q40.6719 63.1406 32.2344 63.1406
L17.1875 63.1406
z
" id="ArialMT-44"/>
      <path d="
M6.39062 0
L6.39062 71.5781
L15.1875 71.5781
L15.1875 0
z
" id="ArialMT-6c"/>
      <path d="
M3.32812 25.9219
Q3.32812 40.3281 11.3281 47.2656
Q18.0156 53.0312 27.6406 53.0312
Q38.3281 53.0312 45.1094 46.0156
Q51.9062 39.0156 51.9062 26.6562
Q51.9062 16.6562 48.9062 10.9062
Q45.9062 5.17188 40.1562 2
Q34.4219 -1.17188 27.6406 -1.17188
Q16.75 -1.17188 10.0312 5.8125
Q3.32812 12.7969 3.32812 25.9219
M12.3594 25.9219
Q12.3594 15.9688 16.7031 11.0156
Q21.0469 6.0625 27.6406 6.0625
Q34.1875 6.0625 38.5312 11.0312
Q42.875 16.0156 42.875 26.2188
Q42.875 35.8438 38.5 40.7969
Q34.125 45.75 27.6406 45.75
Q21.0469 45.75 16.7031 40.8125
Q12.3594 35.8906 12.3594 25.9219" id="ArialMT-6f"/>
      <path d="
M37.25 0
L28.4688 0
L28.4688 56
Q25.2969 52.9844 20.1406 49.9531
Q14.9844 46.9219 10.8906 45.4062
L10.8906 53.9062
Q18.2656 57.375 23.7812 62.2969
Q29.2969 67.2344 31.5938 71.875
L37.25 71.875
z
" id="ArialMT-31"/>
      <path id="ArialMT-20"/>
     </defs>
     <g transform="translate(181.6921875 394.65)scale(0.2 -0.2)">
      <use xlink:href="#ArialMT-6c"/>
      <use x="22.216796875" xlink:href="#ArialMT-6f"/>
      <use x="77.83203125" xlink:href="#ArialMT-67"/>
      <use x="133.447265625" xlink:href="#ArialMT-31"/>
      <use x="189.0625" xlink:href="#ArialMT-30"/>
      <use x="244.677734375" xlink:href="#ArialMT-20"/>
      <use x="272.4609375" xlink:href="#ArialMT-6f"/>
      <use x="328.076171875" xlink:href="#ArialMT-66"/>
      <use x="355.859375" xlink:href="#ArialMT-20"/>
      <use x="383.642578125" xlink:href="#ArialMT-44"/>
      <use x="455.859375" xlink:href="#ArialMT-66"/>
     </g>
    </g>
   </g>
   <g id="matplotlib.axis_2">
    <g id="ytick_1">
     <g id="line2d_52">
      <path clip-path="url(#p5bee155178)" d="
M7.2 352.8
L453.6 352.8" style="fill:none;stroke:#000000;stroke-dasharray:1.000000,3.000000;stroke-dashoffset:0.0;stroke-width:0.5;"/>
     </g>
     <g id="line2d_53">
      <defs>
       <path d="
M0 0
L4 0" id="m728421d6d4" style="stroke:#000000;stroke-width:0.5;"/>
      </defs>
      <g>
       <use style="stroke:#000000;stroke-width:0.5;" x="7.2" xlink:href="#m728421d6d4" y="352.8"/>
      </g>
     </g>
     <g id="line2d_54">
      <defs>
       <path d="
M0 0
L-4 0" id="mcb0005524f" style="stroke:#000000;stroke-width:0.5;"/>
      </defs>
      <g>
       <use style="stroke:#000000;stroke-width:0.5;" x="453.6" xlink:href="#mcb0005524f" y="352.8"/>
      </g>
     </g>
    </g>
    <g id="ytick_2">
     <g id="line2d_55">
      <path clip-path="url(#p5bee155178)" d="
M7.2 284.364
L453.6 284.364" style="fill:none;stroke:#000000;stroke-dasharray:1.000000,3.000000;stroke-dashoffset:0.0;stroke-width:0.5;"/>
     </g>
     <g id="line2d_56">
      <g>
       <use style="stroke:#000000;stroke-width:0.5;" x="7.2" xlink:href="#m728421d6d4" y="284.364356436"/>
      </g>
     </g>
     <g id="line2d_57">
      <g>
       <use style="stroke:#000000;stroke-width:0.5;" x="453.6" xlink:href="#mcb0005524f" y="284.364356436"/>
      </g>
     </g>
    </g>
    <g id="ytick_3">
     <g id="line2d_58">
      <path clip-path="url(#p5bee155178)" d="
M7.2 215.929
L453.6 215.929" style="fill:none;stroke:#000000;stroke-dasharray:1.000000,3.000000;stroke-dashoffset:0.0;stroke-width:0.5;"/>
     </g>
     <g id="line2d_59">
      <g>
       <use style="stroke:#000000;stroke-width:0.5;" x="7.2" xlink:href="#m728421d6d4" y="215.928712871"/>
      </g>
     </g>
     <g id="line2d_60">
      <g>
       <use style="stroke:#000000;stroke-width:0.5;" x="453.6" xlink:href="#mcb0005524f" y="215.928712871"/>
      </g>
     </g>
    </g>
    <g id="ytick_4">
     <g id="line2d_61">
      <path clip-path="url(#p5bee155178)" d="
M7.2 147.493
L453.6 147.493" style="fill:none;stroke:#000000;stroke-dasharray:1.000000,3.000000;stroke-dashoffset:0.0;stroke-width:0.5;"/>
     </g>
     <g id="line2d_62">
      <g>
       <use style="stroke:#000000;stroke-width:0.5;" x="7.2" xlink:href="#m728421d6d4" y="147.493069307"/>
      </g>
     </g>
     <g id="line2d_63">
      <g>
       <use style="stroke:#000000;stroke-width:0.5;" x="453.6" xlink:href="#mcb0005524f" y="147.493069307"/>
      </g>
     </g>
    </g>
    <g id="ytick_5">
     <g id="line2d_64">
      <path clip-path="url(#p5bee155178)" d="
M7.2 79.0574
L453.6 79.0574" style="fill:none;stroke:#000000;stroke-dasharray:1.000000,3.000000;stroke-dashoffset:0.0;stroke-width:0.5;"/>
     </g>
     <g id="line2d_65">
      <g>
       <use style="stroke:#000000;stroke-width:0.5;" x="7.2" xlink:href="#m728421d6d4" y="79.0574257426"/>
      </g>
     </g>
     <g id="line2d_66">
      <g>
       <use style="stroke:#000000;stroke-width:0.5;" x="453.6" xlink:href="#mcb0005524f" y="79.0574257426"/>
      </g>
     </g>
    </g>
    <g id="ytick_6">
     <g id="line2d_67">
      <path clip-path="url(#p5bee155178)" d="
M7.2 10.6218
L453.6 10.6218" style="fill:none;stroke:#000000;stroke-dasharray:1.000000,3.000000;stroke-dashoffset:0.0;stroke-width:0.5;"/>
     </g>
     <g id="line2d_68">
      <g>
       <use style="stroke:#000000;stroke-width:0.5;" x="7.2" xlink:href="#m728421d6d4" y="10.6217821782"/>
      </g>
     </g>
     <g id="line2d_69">
      <g>
       <use style="stroke:#000000;stroke-width:0.5;" x="453.6" xlink:href="#mcb0005524f" y="10.6217821782"/>
      </g>
     </g>
    </g>
   </g>
   <g id="patch_3">
    <path d="
M7.2 7.2
L453.6 7.2" style="fill:none;stroke:#000000;"/>
   </g>
   <g id="patch_4">
    <path d="
M453.6 352.8
L453.6 7.2" style="fill:none;stroke:#000000;"/>
   </g>
   <g id="patch_5">
    <path d="
M7.2 352.8
L453.6 352.8" style="fill:none;stroke:#000000;"/>
   </g>
   <g id="patch_6">
    <path d="
M7.2 352.8
L7.2 7.2" style="fill:none;stroke:#000000;"/>
   </g>
   <g id="text_10">
    <!-- {f10-f14}, 20-D -->
    <defs>
     <path d="
M30.5625 29.8906
L30.5625 21.9219
Q26.8125 21.8281 24.4375 19.875
Q22.0781 17.9219 21.2969 14.5781
Q20.5156 11.2344 20.4531 3.07812
Q20.4062 -5.07812 20.1719 -7.67188
Q19.7344 -11.8125 18.5312 -14.2812
Q17.3281 -16.75 15.5625 -18.2344
Q13.8125 -19.7344 11.0781 -20.5156
Q9.23438 -21.0469 5.03125 -21.0469
L2.29688 -21.0469
L2.29688 -13.375
L3.8125 -13.375
Q8.89062 -13.375 10.5469 -11.5469
Q12.2031 -9.71875 12.2031 -3.32812
Q12.2031 8.89062 12.6406 12.1562
Q13.4219 17.5781 15.7656 20.8281
Q18.1094 24.0781 22.4062 25.875
Q16.7969 28.5625 14.5 32.9844
Q12.2031 37.4062 12.2031 47.9062
Q12.2031 57.4219 11.9688 59.2812
Q11.625 62.5469 10.0312 63.8438
Q8.45312 65.1406 3.8125 65.1406
L2.29688 65.1406
L2.29688 72.7969
L5.03125 72.7969
Q9.8125 72.7969 11.9688 72.0156
Q15.0938 70.9531 17.1406 68.4062
Q19.1875 65.875 19.7969 62.0156
Q20.4062 58.1562 20.4531 49.3594
Q20.5156 40.5781 21.2969 37.2344
Q22.0781 33.8906 24.4375 31.9375
Q26.8125 29.9844 30.5625 29.8906" id="ArialMT-7d"/>
     <path d="
M8.89062 0
L8.89062 10.0156
L18.8906 10.0156
L18.8906 0
Q18.8906 -5.51562 16.9375 -8.90625
Q14.9844 -12.3125 10.75 -14.1562
L8.29688 -10.4062
Q11.0781 -9.1875 12.3906 -6.8125
Q13.7188 -4.4375 13.875 0
z
" id="ArialMT-2c"/>
     <path d="
M2.78125 29.8906
Q6.54688 29.9844 8.90625 31.9062
Q11.2812 33.8438 12.0625 37.2031
Q12.8438 40.5781 12.8906 48.7344
Q12.9375 56.8906 13.1875 59.4688
Q13.625 63.5781 14.8125 66.0625
Q16.0156 68.5625 17.7656 70.0469
Q19.5312 71.5312 22.2656 72.3125
Q24.125 72.7969 28.3281 72.7969
L31.0625 72.7969
L31.0625 65.1406
L29.5469 65.1406
Q24.4688 65.1406 22.7969 63.2969
Q21.1406 61.4688 21.1406 55.125
Q21.1406 42.3281 20.6094 38.9688
Q19.7344 33.7344 17.6094 30.9062
Q15.4844 28.0781 10.9375 25.875
Q16.3125 23.6406 18.7188 19.0156
Q21.1406 14.4062 21.1406 3.90625
Q21.1406 -5.60938 21.3438 -7.42188
Q21.7344 -10.75 23.3125 -12.0625
Q24.9062 -13.375 29.5469 -13.375
L31.0625 -13.375
L31.0625 -21.0469
L28.3281 -21.0469
Q23.5312 -21.0469 21.3906 -20.2656
Q18.2656 -19.1406 16.2031 -16.625
Q14.1562 -14.1094 13.5469 -10.25
Q12.9375 -6.39062 12.8906 2.39062
Q12.8438 11.1875 12.0625 14.5469
Q11.2812 17.9219 8.90625 19.875
Q6.54688 21.8281 2.78125 21.9219
z
" id="ArialMT-7b"/>
    </defs>
    <g transform="translate(315.656375 345.888)scale(0.2 -0.2)">
     <use xlink:href="#ArialMT-7b"/>
     <use x="33.3984375" xlink:href="#ArialMT-66"/>
     <use x="61.181640625" xlink:href="#ArialMT-31"/>
     <use x="116.796875" xlink:href="#ArialMT-30"/>
     <use x="172.412109375" xlink:href="#ArialMT-2d"/>
     <use x="205.712890625" xlink:href="#ArialMT-66"/>
     <use x="233.49609375" xlink:href="#ArialMT-31"/>
     <use x="289.111328125" xlink:href="#ArialMT-34"/>
     <use x="344.7265625" xlink:href="#ArialMT-7d"/>
     <use x="378.125" xlink:href="#ArialMT-2c"/>
     <use x="405.908203125" xlink:href="#ArialMT-20"/>
     <use x="433.69140625" xlink:href="#ArialMT-32"/>
     <use x="489.306640625" xlink:href="#ArialMT-30"/>
     <use x="544.921875" xlink:href="#ArialMT-2d"/>
     <use x="578.22265625" xlink:href="#ArialMT-44"/>
    </g>
   </g>
   <g id="text_11">
    <!-- v2.0.1 -->
    <defs>
     <path d="
M21 0
L1.26562 51.8594
L10.5469 51.8594
L21.6875 20.7969
Q23.4844 15.7656 25 10.3594
Q26.1719 14.4531 28.2656 20.2188
L39.7969 51.8594
L48.8281 51.8594
L29.2031 0
z
" id="ArialMT-76"/>
     <path d="
M9.07812 0
L9.07812 10.0156
L19.0938 10.0156
L19.0938 0
z
" id="ArialMT-2e"/>
    </defs>
    <g style="fill:#808080;" transform="translate(217.76171875 347.3565)scale(0.1 -0.1)">
     <use xlink:href="#ArialMT-76"/>
     <use x="50.0" xlink:href="#ArialMT-32"/>
     <use x="105.615234375" xlink:href="#ArialMT-2e"/>
     <use x="133.3984375" xlink:href="#ArialMT-30"/>
     <use x="189.013671875" xlink:href="#ArialMT-2e"/>
     <use x="216.796875" xlink:href="#ArialMT-31"/>
    </g>
   </g>
  </g>
 </g>
 <defs>
  <clipPath id="p5bee155178">
   <rect height="345.6" width="446.4" x="7.2" y="7.2"/>
  </clipPath>
 </defs>
</svg>
