<?xml version="1.0" encoding="utf-8" standalone="no"?>
<!DOCTYPE svg PUBLIC "-//W3C//DTD SVG 1.1//EN"
  "http://www.w3.org/Graphics/SVG/1.1/DTD/svg11.dtd">
<!-- Created with matplotlib (http://matplotlib.org/) -->
<svg height="414pt" version="1.1" viewBox="0 0 580 414" width="580pt" xmlns="http://www.w3.org/2000/svg" xmlns:xlink="http://www.w3.org/1999/xlink">
 <defs>
  <style type="text/css">
*{stroke-linecap:butt;stroke-linejoin:round;}
  </style>
 </defs>
 <g id="figure_1">
  <g id="patch_1">
   <path d="
M0 414.924
L580.8 414.924
L580.8 0
L0 0
z
" style="fill:#ffffff;"/>
  </g>
  <g id="axes_1">
   <g id="patch_2">
    <path d="
M127.2 358.524
L573.6 358.524
L573.6 12.9235
L127.2 12.9235
z
" style="fill:#ffffff;"/>
   </g>
   <g id="line2d_1">
    <defs>
     <path d="
M0 1.5
C0.397805 1.5 0.77937 1.34195 1.06066 1.06066
C1.34195 0.77937 1.5 0.397805 1.5 0
C1.5 -0.397805 1.34195 -0.77937 1.06066 -1.06066
C0.77937 -1.34195 0.397805 -1.5 0 -1.5
C-0.397805 -1.5 -0.77937 -1.34195 -1.06066 -1.06066
C-1.34195 -0.77937 -1.5 -0.397805 -1.5 0
C-1.5 0.397805 -1.34195 0.77937 -1.06066 1.06066
C-0.77937 1.34195 -0.397805 1.5 0 1.5
z
" id="m977c291b42" style="stroke:#00bfbf;stroke-width:0.5;"/>
    </defs>
    <g>
     <use style="fill:#00bfbf;stroke:#00bfbf;stroke-width:0.5;" x="570.241108337" xlink:href="#m977c291b42" y="74.2045384226"/>
     <use style="fill:#00bfbf;stroke:#00bfbf;stroke-width:0.5;" x="570.241108337" xlink:href="#m977c291b42" y="74.2045384226"/>
    </g>
   </g>
   <g id="line2d_2">
    <path d="
M91.0764 344.214
L127.2 344.214
L127.2 337.371
L148.331 337.371
L148.331 336.126
L163.324 336.126
L163.324 329.283
L174.953 329.283
L174.953 328.661
L184.455 328.661
L184.455 328.039
L192.488 328.039
L192.488 324.928
L205.586 324.928
L205.586 322.439
L211.076 322.439
L211.076 320.573
L216.044 320.573
L216.044 317.462
L228.612 317.462
L228.612 300.664
L232.207 300.664
L232.207 296.309
L238.73 296.309
L238.73 293.821
L241.709 293.821
L241.709 286.977
L244.527 286.977
L244.527 283.244
L247.2 283.244
L247.2 279.511
L249.743 279.511
L249.743 278.889
L252.167 278.889
L252.167 274.534
L254.484 274.534
L254.484 270.801
L256.702 270.801
L256.702 263.958
L258.829 263.958
L258.829 263.336
L260.873 263.336
L260.873 260.847
L262.84 260.847
L262.84 258.359
L264.735 258.359
L264.735 257.114
L266.564 257.114
L266.564 255.87
L268.331 255.87
L268.331 252.759
L270.04 252.759
L270.04 249.649
L271.694 249.649
L271.694 248.404
L273.298 248.404
L273.298 244.049
L276.365 244.049
L276.365 242.805
L280.65 242.805
L280.65 239.072
L283.324 239.072
L283.324 237.828
L284.61 237.828
L284.61 234.717
L287.093 234.717
L287.093 233.473
L288.291 233.473
L288.291 232.229
L289.462 232.229
L289.462 228.496
L292.825 228.496
L292.825 226.007
L294.953 226.007
L294.953 225.385
L295.985 225.385
L295.985 224.763
L297.99 224.763
L297.99 223.519
L299.92 223.519
L299.92 221.652
L301.781 221.652
L301.781 220.408
L302.688 220.408
L302.688 216.675
L305.316 216.675
L305.316 215.431
L306.997 215.431
L306.997 214.187
L308.626 214.187
L308.626 212.32
L310.205 212.32
L310.205 211.076
L311.738 211.076
L311.738 209.832
L314.675 209.832
L314.675 207.343
L315.384 207.343
L315.384 206.099
L318.128 206.099
L318.128 205.477
L318.792 205.477
L318.792 203.61
L320.095 203.61
L320.095 202.366
L320.734 202.366
L320.734 200.499
L321.366 200.499
L321.366 199.877
L321.99 199.877
L321.99 199.255
L322.607 199.255
L322.607 198.633
L323.819 198.633
L323.819 198.011
L324.414 198.011
L324.414 197.389
L325.003 197.389
L325.003 195.522
L330.024 195.522
L330.024 194.9
L330.553 194.9
L330.553 193.656
L332.108 193.656
L332.108 192.412
L334.602 192.412
L334.602 191.789
L336.983 191.789
L336.983 191.167
L337.446 191.167
L337.446 190.545
L338.36 190.545
L338.36 189.923
L341.865 189.923
L341.865 189.301
L342.287 189.301
L342.287 188.679
L343.121 188.679
L343.121 186.812
L343.942 186.812
L343.942 183.702
L346.716 183.702
L346.716 183.079
L347.101 183.079
L347.101 181.835
L347.483 181.835
L347.483 181.213
L347.862 181.213
L347.862 180.591
L348.612 180.591
L348.612 179.969
L350.08 179.969
L350.08 177.48
L350.441 177.48
L350.441 176.236
L354.251 176.236
L354.251 174.369
L354.584 174.369
L354.584 173.125
L356.858 173.125
L356.858 172.503
L358.114 172.503
L358.114 170.637
L359.036 170.637
L359.036 170.014
L361.127 170.014
L361.127 169.392
L361.419 169.392
L361.419 168.77
L361.998 168.77
L361.998 168.148
L362.855 168.148
L362.855 166.904
L365.613 166.904
L365.613 166.282
L366.939 166.282
L366.939 165.659
L367.46 165.659
L367.46 163.793
L367.719 163.793
L367.719 163.171
L367.976 163.171
L367.976 161.927
L372.167 161.927
L372.167 161.304
L372.639 161.304
L372.639 160.682
L373.106 160.682
L373.106 159.438
L374.029 159.438
L374.029 158.194
L374.257 158.194
L374.257 157.572
L375.382 157.572
L375.382 156.949
L376.484 156.949
L376.484 156.327
L377.134 156.327
L377.134 155.705
L378.62 155.705
L378.62 155.083
L379.244 155.083
L379.244 154.461
L380.268 154.461
L380.268 153.839
L380.471 153.839
L380.471 153.217
L380.672 153.217
L380.672 152.594
L382.062 152.594
L382.062 151.972
L382.258 151.972
L382.258 151.35
L382.647 151.35
L382.647 150.728
L383.796 150.728
L383.796 150.106
L384.735 150.106
L384.735 149.484
L386.203 149.484
L386.203 148.862
L386.564 148.862
L386.564 148.239
L392.342 148.239
L392.342 146.995
L392.822 146.995
L392.822 146.373
L394.082 146.373
L394.082 145.751
L394.546 145.751
L394.546 143.884
L395.463 143.884
L395.463 143.262
L395.916 143.262
L395.916 142.64
L397.397 142.64
L397.397 142.018
L398.552 142.018
L398.552 141.396
L400.65 141.396
L400.65 140.774
L401.06 140.774
L401.06 140.152
L406.971 140.152
L406.971 139.529
L407.214 139.529
L407.214 138.907
L407.334 138.907
L407.334 138.285
L407.455 138.285
L407.455 137.041
L409.346 137.041
L409.346 136.419
L410.607 136.419
L410.607 135.797
L416.594 135.797
L416.594 135.174
L417.792 135.174
L417.792 133.93
L418.088 133.93
L418.088 133.308
L418.867 133.308
L418.964 131.442
L421.781 131.442
L421.873 128.953
L422.957 128.953
L422.957 128.331
L427.245 128.331
L427.245 127.709
L428.546 127.709
L428.546 127.087
L431.814 127.087
L431.814 126.464
L433.739 126.464
L433.739 125.842
L435.243 125.842
L435.243 125.22
L437.523 125.22
L437.523 123.976
L441.429 123.976
L441.429 123.354
L444.768 123.354
L444.768 122.732
L447.294 122.732
L447.294 122.109
L447.741 122.109
L447.741 121.487
L447.907 121.487
L447.907 120.243
L449.65 120.243
L449.65 119.621
L450.342 119.621
L450.447 117.754
L453.42 117.754
L453.42 117.132
L454.162 117.132
L454.162 116.51
L456.936 116.51
L456.936 115.888
L457.538 115.888
L457.538 115.266
L457.859 115.266
L457.859 114.644
L459.392 114.644
L459.392 114.022
L460.01 114.022
L460.01 113.399
L463.286 113.399
L463.286 112.777
L464.509 112.777
L464.589 111.533
L467.673 111.533
L467.748 110.289
L468.126 110.289
L468.126 109.667
L473.409 109.667
L473.409 109.045
L475.113 109.045
L475.113 108.422
L475.375 108.422
L475.375 107.8
L479.702 107.8
L479.702 106.556
L481.039 106.556
L481.039 105.934
L481.39 105.934
L481.477 104.067
L486.624 104.067
L486.624 103.445
L487.2 103.445
L487.2 103.445" style="fill:none;stroke:#00bfbf;stroke-linecap:square;stroke-width:1.5;"/>
   </g>
   <g id="line2d_3">
    <defs>
     <path d="
M-6 0
L6 0
M0 6
L0 -6" id="m3e4de746de" style="stroke:#00bfbf;stroke-width:1.5;"/>
    </defs>
    <g>
     <use style="fill:none;stroke:#00bfbf;stroke-width:1.5;" x="192.488165322" xlink:href="#m3e4de746de" y="324.927850754"/>
     <use style="fill:none;stroke:#00bfbf;stroke-width:1.5;" x="256.701749526" xlink:href="#m3e4de746de" y="270.801478117"/>
     <use style="fill:none;stroke:#00bfbf;stroke-width:1.5;" x="311.738291409" xlink:href="#m3e4de746de" y="209.831541123"/>
     <use style="fill:none;stroke:#00bfbf;stroke-width:1.5;" x="378.620322172" xlink:href="#m3e4de746de" y="155.083026271"/>
     <use style="fill:none;stroke:#00bfbf;stroke-width:1.5;" x="463.286049394" xlink:href="#m3e4de746de" y="113.399497919"/>
     <use style="fill:none;stroke:#00bfbf;stroke-width:1.5;" x="487.2" xlink:href="#m3e4de746de" y="103.445222491"/>
    </g>
   </g>
   <g id="line2d_4"/>
   <g id="line2d_5">
    <path clip-path="url(#p505825120b)" d="
M367.46 163.793" style="fill:none;stroke:#00bfbf;stroke-linecap:square;"/>
    <defs>
     <path d="
M-12 12
L12 -12
M-12 -12
L12 12" id="m09e435d1d9" style="stroke:#00bfbf;stroke-width:3;"/>
    </defs>
    <g clip-path="url(#p505825120b)">
     <use style="fill:#00bfbf;stroke:#00bfbf;stroke-width:3;" x="367.459927411" xlink:href="#m09e435d1d9" y="163.79301727"/>
    </g>
   </g>
   <g id="line2d_6">
    <defs>
     <path d="
M0 1.5
C0.397805 1.5 0.77937 1.34195 1.06066 1.06066
C1.34195 0.77937 1.5 0.397805 1.5 0
C1.5 -0.397805 1.34195 -0.77937 1.06066 -1.06066
C0.77937 -1.34195 0.397805 -1.5 0 -1.5
C-0.397805 -1.5 -0.77937 -1.34195 -1.06066 -1.06066
C-1.34195 -0.77937 -1.5 -0.397805 -1.5 0
C-1.5 0.397805 -1.34195 0.77937 -1.06066 1.06066
C-0.77937 1.34195 -0.397805 1.5 0 1.5
z
" id="mb0b177905e" style="stroke:#008000;stroke-width:0.5;"/>
    </defs>
    <g>
     <use style="fill:#008000;stroke:#008000;stroke-width:0.5;" x="556.751168976" xlink:href="#mb0b177905e" y="57.6426836164"/>
     <use style="fill:#008000;stroke:#008000;stroke-width:0.5;" x="556.751168976" xlink:href="#mb0b177905e" y="57.6426836164"/>
    </g>
   </g>
   <g id="line2d_7">
    <path d="
M106.069 328.435
L127.2 328.435
L127.2 321.946
L142.193 321.946
L142.193 311.327
L163.324 311.327
L163.324 307.787
L178.316 307.787
L178.316 304.837
L184.455 304.837
L184.455 302.477
L194.913 302.477
L194.913 298.937
L199.447 298.937
L199.447 297.167
L203.619 297.167
L203.619 295.988
L211.076 295.988
L211.076 295.398
L214.44 295.398
L214.44 291.268
L217.599 291.268
L217.599 277.699
L220.578 277.699
L220.578 270.619
L223.396 270.619
L223.396 266.489
L226.069 266.489
L226.069 253.51
L228.612 253.51
L228.612 248.201
L231.036 248.201
L231.036 244.071
L233.353 244.071
L233.353 241.711
L235.571 241.711
L235.571 239.941
L237.698 239.941
L237.698 239.351
L241.709 239.351
L241.709 236.991
L243.604 236.991
L243.604 235.811
L245.433 235.811
L245.433 234.041
L248.909 234.041
L248.909 232.862
L250.563 232.862
L250.563 231.092
L252.167 231.092
L252.167 228.732
L253.723 228.732
L253.723 225.782
L255.234 225.782
L255.234 224.602
L256.702 224.602
L256.702 222.832
L258.13 222.832
L258.13 221.652
L259.519 221.652
L259.519 218.702
L260.873 218.702
L260.873 215.753
L262.193 215.753
L262.193 213.393
L263.48 213.393
L263.48 212.213
L264.735 212.213
L264.735 205.723
L265.962 205.723
L265.962 205.133
L267.16 205.133
L267.16 203.953
L268.331 203.953
L268.331 199.824
L269.476 199.824
L269.476 196.284
L270.597 196.284
L270.597 195.104
L271.694 195.104
L271.694 194.514
L272.769 194.514
L272.769 193.924
L273.822 193.924
L273.822 191.564
L274.854 191.564
L274.854 187.434
L276.859 187.434
L276.859 186.254
L278.789 186.254
L278.789 185.075
L281.557 185.075
L281.557 183.895
L282.448 183.895
L282.448 182.125
L283.324 182.125
L283.324 181.535
L284.185 181.535
L284.185 180.355
L286.687 180.355
L286.687 174.455
L287.495 174.455
L287.495 173.865
L288.291 173.865
L288.291 173.275
L289.847 173.275
L289.847 172.685
L290.607 172.685
L290.607 170.326
L291.357 170.326
L291.357 169.736
L292.096 169.736
L292.096 167.376
L292.825 167.376
L292.825 165.016
L293.544 165.016
L293.544 163.836
L295.643 163.836
L295.643 162.066
L298.316 162.066
L298.316 160.296
L299.603 160.296
L299.603 159.706
L300.859 159.706
L300.859 158.526
L303.283 158.526
L303.283 157.936
L304.455 157.936
L304.455 156.166
L306.163 156.166
L306.163 155.576
L307.272 155.576
L307.272 154.397
L310.464 154.397
L310.464 150.857
L310.977 150.857
L310.977 150.267
L311.486 150.267
L311.486 149.677
L312.488 149.677
L312.488 147.907
L312.982 147.907
L312.982 147.317
L315.384 147.317
L315.384 146.727
L316.774 146.727
L316.774 146.137
L319.447 146.137
L319.447 145.547
L320.734 145.547
L320.734 144.367
L323.216 144.367
L323.216 143.187
L326.731 143.187
L326.731 142.007
L327.852 142.007
L327.852 139.647
L333.12 139.647
L333.12 139.058
L334.765 139.058
L334.765 138.468
L335.408 138.468
L335.408 137.288
L336.983 137.288
L336.983 136.108
L337.292 136.108
L337.292 135.518
L338.811 135.518
L338.811 134.928
L339.996 134.928
L339.996 133.748
L341.154 133.748
L341.154 133.158
L341.44 133.158
L341.44 132.568
L342.287 132.568
L342.287 131.978
L342.844 131.978
L342.844 131.388
L343.942 131.388
L343.942 130.798
L345.016 130.798
L345.016 130.208
L346.588 130.208
L346.588 129.618
L351.742 129.618
L351.742 127.848
L354.474 127.848
L354.474 127.258
L355.135 127.258
L355.135 126.668
L357.698 126.668
L357.698 125.488
L358.934 125.488
L358.934 124.898
L359.34 124.898
L359.34 124.308
L361.127 124.308
L361.127 123.718
L366.851 123.718
L366.851 123.129
L373.723 123.129
L373.723 122.539
L374.332 122.539
L374.332 121.949
L377.705 121.949
L377.705 120.769
L378.69 120.769
L378.69 120.179
L379.656 120.179
L379.656 119.589
L381.007 119.589
L381.007 118.999
L381.669 118.999
L381.669 118.409
L382.193 118.409
L382.193 117.819
L382.453 117.819
L382.453 117.229
L382.969 117.229
L382.969 116.639
L383.733 116.639
L383.733 116.049
L384.111 116.049
L384.111 115.459
L385.962 115.459
L385.962 112.509
L387.16 112.509
L387.16 111.919
L389.135 111.919
L389.135 111.329
L390.597 111.329
L390.597 110.739
L392.127 110.739
L392.127 110.149
L393.508 110.149
L393.508 109.559
L397.25 109.559
L397.25 108.969
L400.65 108.969
L400.65 108.379
L403.237 108.379
L403.237 107.789
L408.919 107.789
L408.919 106.02
L410.909 106.02
L410.909 104.84
L411.949 104.84
L411.949 104.25
L412.97 104.25
L412.97 103.66
L413.616 103.66
L413.616 102.48
L414.324 102.48
L414.324 101.89
L414.534 101.89
L414.534 101.3
L415.506 101.3
L415.506 100.71
L417.924 100.71
L417.924 100.12
L418.186 100.12
L418.186 99.53
L419.857 99.53
L419.92 97.7601
L421.964 97.7601
L421.964 97.1702
L422.508 97.1702
L422.508 96.5802
L426.499 96.5802
L426.499 95.9902
L429.474 95.9902
L429.527 94.8103
L430.67 94.8103
L430.67 94.2204
L431.587 94.2204
L431.587 93.6304
L432.19 93.6304
L432.19 92.4505
L433.52 92.4505
L433.52 90.6806
L434.532 90.6806
L434.532 90.0906
L436.499 90.0906
L436.545 88.9107
L436.637 88.9107
L436.637 88.3207
L439.534 88.3207
L439.534 87.7308
L442.402 87.7308
L442.402 87.1408
L442.688 87.1408
L442.688 86.5508
L443.297 86.5508
L443.297 85.9609
L443.978 85.9609
L443.978 85.3709
L444.925 85.3709
L444.925 84.781
L445.392 84.781
L445.431 83.601
L447.481 83.601
L447.481 83.0111
L448.768 83.0111
L448.768 82.4211
L451.146 82.4211
L451.25 80.6512
L454.211 80.6512
L454.244 78.8813
L455.854 78.8813
L455.854 77.7014
L457.323 77.7014
L457.323 77.1114
L457.63 77.1114
L457.63 76.5215
L458.691 76.5215
L458.751 74.7516
L459.288 74.7516
L459.288 74.1616
L459.437 74.1616
L459.437 72.9817
L463.231 72.9817
L463.231 72.3917
L467.024 72.3917
L467.024 71.8018
L467.534 71.8018
L467.534 71.2118
L467.685 71.2118
L467.685 70.6219
L470.321 70.6219
L470.321 70.0319
L471.695 70.0319
L471.742 68.852
L472.161 68.852
L472.161 68.262
L474.805 68.262
L474.805 67.672
L475.679 67.672
L475.766 66.4921
L484.141 66.4921
L484.141 65.9022
L484.307 65.9022
L484.307 65.3122
L484.6 65.3122
L484.6 64.7222
L486.588 64.7222
L486.588 64.1323
L487.2 64.1323
L487.2 64.1323" style="fill:none;stroke:#008000;stroke-linecap:square;stroke-width:1.5;"/>
   </g>
   <g id="line2d_8">
    <defs>
     <path d="
M-7.34788e-16 6
L6 -6
L-6 -6
z
" id="m397e16cd68" style="stroke:#008000;stroke-linejoin:miter;stroke-width:1.5;"/>
    </defs>
    <g>
     <use style="fill:none;stroke:#008000;stroke-linejoin:miter;stroke-width:1.5;" x="106.069048913" xlink:href="#m397e16cd68" y="328.435445651"/>
     <use style="fill:none;stroke:#008000;stroke-linejoin:miter;stroke-width:1.5;" x="223.395881548" xlink:href="#m397e16cd68" y="266.489388977"/>
     <use style="fill:none;stroke:#008000;stroke-linejoin:miter;stroke-width:1.5;" x="286.687046312" xlink:href="#m397e16cd68" y="180.354872077"/>
     <use style="fill:none;stroke:#008000;stroke-linejoin:miter;stroke-width:1.5;" x="381.006660321" xlink:href="#m397e16cd68" y="118.998777847"/>
     <use style="fill:none;stroke:#008000;stroke-linejoin:miter;stroke-width:1.5;" x="447.480813715" xlink:href="#m397e16cd68" y="83.6010311753"/>
     <use style="fill:none;stroke:#008000;stroke-linejoin:miter;stroke-width:1.5;" x="487.2" xlink:href="#m397e16cd68" y="64.1322705061"/>
    </g>
   </g>
   <g id="line2d_9"/>
   <g id="line2d_10">
    <path clip-path="url(#p505825120b)" d="
M367.373 123.129" style="fill:none;stroke:#008000;stroke-linecap:square;"/>
    <defs>
     <path d="
M-12 12
L12 -12
M-12 -12
L12 12" id="m8c089fa6cd" style="stroke:#008000;stroke-width:3;"/>
    </defs>
    <g clip-path="url(#p505825120b)">
     <use style="fill:#008000;stroke:#008000;stroke-width:3;" x="367.373428905" xlink:href="#m8c089fa6cd" y="123.128514958"/>
    </g>
   </g>
   <g id="line2d_11">
    <defs>
     <path d="
M0 1.5
C0.397805 1.5 0.77937 1.34195 1.06066 1.06066
C1.34195 0.77937 1.5 0.397805 1.5 0
C1.5 -0.397805 1.34195 -0.77937 1.06066 -1.06066
C0.77937 -1.34195 0.397805 -1.5 0 -1.5
C-0.397805 -1.5 -0.77937 -1.34195 -1.06066 -1.06066
C-1.34195 -0.77937 -1.5 -0.397805 -1.5 0
C-1.5 0.397805 -1.34195 0.77937 -1.06066 1.06066
C-0.77937 1.34195 -0.397805 1.5 0 1.5
z
" id="m76a7ce5b4a" style="stroke:#0000ff;stroke-width:0.5;"/>
    </defs>
    <g>
     <use style="fill:#0000ff;stroke:#0000ff;stroke-width:0.5;" x="567.92044554" xlink:href="#m76a7ce5b4a" y="59.1175897277"/>
     <use style="fill:#0000ff;stroke:#0000ff;stroke-width:0.5;" x="567.92044554" xlink:href="#m76a7ce5b4a" y="59.1175897277"/>
    </g>
   </g>
   <g id="line2d_12">
    <path d="
M115.571 342.026
L127.2 342.026
L127.2 340.804
L136.702 340.804
L136.702 334.693
L157.833 334.693
L157.833 329.805
L163.324 329.805
L163.324 327.972
L168.291 327.972
L168.291 324.917
L172.825 324.917
L172.825 324.306
L180.859 324.306
L180.859 321.862
L184.455 321.862
L184.455 320.64
L187.818 320.64
L187.818 317.584
L190.977 317.584
L190.977 316.973
L196.774 316.973
L196.774 310.863
L199.447 310.863
L199.447 304.753
L201.99 304.753
L201.99 302.309
L204.414 302.309
L204.414 292.532
L206.731 292.532
L206.731 285.811
L208.949 285.811
L208.949 284.589
L211.076 284.589
L211.076 277.867
L213.12 277.867
L213.12 276.034
L215.087 276.034
L215.087 264.425
L216.983 264.425
L216.983 260.758
L218.811 260.758
L218.811 258.925
L220.578 258.925
L220.578 258.314
L222.287 258.314
L222.287 256.481
L223.942 256.481
L223.942 246.705
L225.545 246.705
L225.545 243.649
L227.101 243.649
L227.101 243.038
L228.612 243.038
L228.612 242.427
L230.08 242.427
L230.08 240.594
L231.508 240.594
L231.508 239.372
L234.251 239.372
L234.251 237.539
L235.571 237.539
L235.571 236.317
L238.114 236.317
L238.114 235.706
L240.538 235.706
L240.538 232.651
L241.709 232.651
L241.709 232.04
L243.975 232.04
L243.975 230.818
L245.073 230.818
L245.073 230.207
L247.2 230.207
L247.2 228.985
L249.244 228.985
L249.244 228.374
L250.237 228.374
L250.237 227.763
L252.167 227.763
L252.167 227.152
L253.106 227.152
L253.106 226.541
L254.935 226.541
L254.935 225.929
L255.826 225.929
L255.826 224.096
L258.411 224.096
L258.411 221.041
L260.065 221.041
L260.065 220.43
L262.453 220.43
L262.453 219.819
L263.225 219.819
L263.225 219.208
L264.735 219.208
L264.735 216.764
L265.475 216.764
L265.475 213.709
L266.922 213.709
L266.922 207.598
L268.331 207.598
L268.331 205.765
L269.021 205.765
L269.021 204.543
L269.702 204.543
L269.702 203.932
L270.375 203.932
L270.375 202.099
L271.039 202.099
L271.039 200.877
L272.342 200.877
L272.342 200.266
L272.981 200.266
L272.981 199.044
L273.613 199.044
L273.613 198.433
L275.463 198.433
L275.463 197.822
L276.066 197.822
L276.066 197.211
L276.662 197.211
L276.662 196.6
L277.25 196.6
L277.25 195.378
L277.833 195.378
L277.833 194.156
L278.978 194.156
L278.978 191.712
L281.196 191.712
L281.196 190.49
L281.736 190.49
L281.736 189.879
L282.271 189.879
L282.271 189.268
L283.324 189.268
L283.324 188.045
L284.864 188.045
L284.864 187.434
L287.815 187.434
L287.815 184.99
L288.291 184.99
L288.291 184.379
L288.762 184.379
L288.762 183.768
L289.693 183.768
L289.693 183.157
L290.152 183.157
L290.152 180.713
L290.607 180.713
L290.607 179.491
L291.506 179.491
L291.506 178.88
L291.949 178.88
L291.949 177.658
L292.825 177.658
L292.825 176.436
L294.112 176.436
L294.112 175.825
L294.953 175.825
L294.953 174.603
L295.368 174.603
L295.368 173.381
L296.997 173.381
L296.997 172.159
L298.186 172.159
L298.186 171.548
L298.964 171.548
L298.964 170.326
L301.964 170.326
L301.964 169.714
L302.327 169.714
L302.327 168.492
L302.688 168.492
L302.688 166.659
L303.046 166.659
L303.046 165.437
L304.106 165.437
L304.106 164.826
L304.455 164.826
L304.455 164.215
L304.801 164.215
L304.801 163.604
L305.487 163.604
L305.487 162.382
L305.826 162.382
L305.826 161.771
L307.491 161.771
L307.491 161.16
L310.05 161.16
L310.05 159.327
L311.283 159.327
L311.283 158.105
L311.587 158.105
L311.587 157.494
L315.384 157.494
L315.384 156.272
L316.223 156.272
L316.223 153.828
L316.499 153.828
L316.499 152.606
L316.774 152.606
L316.774 151.384
L318.128 151.384
L318.128 149.55
L319.447 149.55
L319.447 147.106
L319.966 147.106
L319.966 146.495
L321.491 146.495
L321.491 145.884
L323.216 145.884
L323.216 145.273
L323.699 145.273
L323.699 144.051
L323.938 144.051
L323.938 143.44
L324.414 143.44
L324.414 142.218
L324.651 142.218
L324.651 141.607
L325.12 141.607
L325.12 140.996
L325.353 140.996
L325.353 139.774
L325.817 139.774
L325.817 137.33
L326.957 137.33
L326.957 136.719
L327.406 136.719
L327.406 136.108
L328.293 136.108
L328.293 135.497
L330.024 135.497
L330.024 134.886
L334.113 134.886
L334.113 134.275
L335.854 134.275
L335.854 133.664
L336.233 133.664
L336.233 133.053
L336.421 133.053
L336.421 132.441
L338.451 132.441
L338.451 130.608
L339.702 130.608
L339.702 129.386
L340.752 129.386
L340.752 128.775
L341.95 128.775
L341.95 126.331
L342.622 126.331
L342.622 125.72
L346.484 125.72
L346.484 123.887
L348.463 123.887
L348.463 123.276
L349.498 123.276
L349.498 122.665
L351.367 122.665
L351.367 122.054
L351.648 122.054
L351.648 120.832
L351.789 120.832
L351.789 120.221
L352.207 120.221
L352.207 118.999
L356.985 118.999
L356.985 117.777
L358.484 117.777
L358.484 117.166
L358.975 117.166
L358.975 115.944
L360.062 115.944
L360.062 114.722
L361.01 114.722
L361.01 114.111
L361.825 114.111
L361.825 113.499
L363.53 113.499
L363.53 112.277
L365.505 112.277
L365.505 111.055
L366.359 111.055
L366.359 110.444
L370.531 110.444
L370.531 109.833
L372.733 109.833
L372.733 109.222
L374.665 109.222
L374.665 108.611
L376.09 108.611
L376.09 108
L377.563 108
L377.563 107.389
L377.989 107.389
L377.989 106.778
L378.495 106.778
L378.495 105.556
L378.996 105.556
L378.996 104.334
L382.297 104.334
L382.375 103.112
L382.685 103.112
L382.685 102.501
L383.148 102.501
L383.148 101.89
L383.985 101.89
L383.985 101.279
L384.437 101.279
L384.437 100.668
L386.059 100.668
L386.059 100.057
L386.276 100.057
L386.348 97.0016
L390.174 97.0016
L390.241 95.7795
L391.954 95.7795
L391.954 93.9464
L394.976 93.9464
L394.976 93.3354
L396.424 93.3354
L396.424 92.1133
L396.78 92.1133
L396.78 90.8913
L397.542 90.8913
L397.542 90.2802
L399.429 90.2802
L399.429 89.6692
L400.043 89.6692
L400.043 89.0582
L402.536 89.0582
L402.536 88.4472
L409.554 88.4472
L409.554 87.2251
L410.517 87.2251
L410.517 86.6141
L414.492 86.6141
L414.492 86.003
L415.285 86.003
L415.285 85.392
L416.876 85.392
L416.876 84.781
L417.197 84.781
L417.197 84.1699
L419.425 84.1699
L419.425 83.5589
L419.996 83.5589
L419.996 82.9479
L420.222 82.9479
L420.222 82.3368
L423.966 82.3368
L423.966 81.7258
L427.851 81.7258
L427.851 81.1148
L430.081 81.1148
L430.081 80.5037
L430.205 80.5037
L430.205 79.8927
L431.131 79.8927
L431.131 79.2817
L434.13 79.2817
L434.13 78.6706
L436.278 78.6706
L436.389 77.4486
L439.107 77.4486
L439.134 75.6155
L444.248 75.6155
L444.248 75.0044
L448.622 75.0044
L448.622 74.3934
L453.06 74.3934
L453.06 73.7824
L457.113 73.7824
L457.113 73.1713
L458.577 73.1713
L458.577 72.5603
L460.404 72.5603
L460.404 71.9493
L463.582 71.9493
L463.582 71.3382
L464.396 71.3382
L464.396 70.7272
L465.228 70.7272
L465.228 70.1162
L466.204 70.1162
L466.204 69.5051
L466.901 69.5051
L466.901 68.8941
L471.211 68.8941
L471.211 68.2831
L474.091 68.2831
L474.091 67.672
L474.862 67.672
L474.862 67.061
L480.431 67.061
L480.431 66.45
L487.2 66.45
L487.2 66.45" style="fill:none;stroke:#0000ff;stroke-linecap:square;stroke-width:1.5;"/>
   </g>
   <g id="line2d_13">
    <defs>
     <path d="
M3.67394e-16 -6
L-1.34708 -1.8541
L-5.70634 -1.8541
L-2.17963 0.708204
L-3.52671 4.8541
L-4.20996e-16 2.2918
L3.52671 4.8541
L2.17963 0.708204
L5.70634 -1.8541
L1.34708 -1.8541
z
" id="m0933169453" style="stroke:#0000ff;stroke-linejoin:bevel;stroke-width:1.5;"/>
    </defs>
    <g>
     <use style="fill:none;stroke:#0000ff;stroke-linejoin:bevel;stroke-width:1.5;" x="172.825349005" xlink:href="#m0933169453" y="324.30570854"/>
     <use style="fill:none;stroke:#0000ff;stroke-linejoin:bevel;stroke-width:1.5;" x="223.941596878" xlink:href="#m0933169453" y="256.481097507"/>
     <use style="fill:none;stroke:#0000ff;stroke-linejoin:bevel;stroke-width:1.5;" x="304.105951689" xlink:href="#m0933169453" y="165.437250265"/>
     <use style="fill:none;stroke:#0000ff;stroke-linejoin:bevel;stroke-width:1.5;" x="374.664697058" xlink:href="#m0933169453" y="108.611224806"/>
     <use style="fill:none;stroke:#0000ff;stroke-linejoin:bevel;stroke-width:1.5;" x="480.431211932" xlink:href="#m0933169453" y="66.4499801096"/>
     <use style="fill:none;stroke:#0000ff;stroke-linejoin:bevel;stroke-width:1.5;" x="487.2" xlink:href="#m0933169453" y="66.4499801096"/>
    </g>
   </g>
   <g id="line2d_14"/>
   <g id="line2d_15">
    <path clip-path="url(#p505825120b)" d="
M367.304 110.444" style="fill:none;stroke:#0000ff;stroke-linecap:square;"/>
    <defs>
     <path d="
M-12 12
L12 -12
M-12 -12
L12 12" id="ma4a355cd2c" style="stroke:#0000ff;stroke-width:3;"/>
    </defs>
    <g clip-path="url(#p505825120b)">
     <use style="fill:#0000ff;stroke:#0000ff;stroke-width:3;" x="367.304126584" xlink:href="#ma4a355cd2c" y="110.444322401"/>
    </g>
   </g>
   <g id="line2d_16">
    <defs>
     <path d="
M0 1.5
C0.397805 1.5 0.77937 1.34195 1.06066 1.06066
C1.34195 0.77937 1.5 0.397805 1.5 0
C1.5 -0.397805 1.34195 -0.77937 1.06066 -1.06066
C0.77937 -1.34195 0.397805 -1.5 0 -1.5
C-0.397805 -1.5 -0.77937 -1.34195 -1.06066 -1.06066
C-1.34195 -0.77937 -1.5 -0.397805 -1.5 0
C-1.5 0.397805 -1.34195 0.77937 -1.06066 1.06066
C-0.77937 1.34195 -0.397805 1.5 0 1.5
z
" id="m66763a63fb" style="stroke:#000000;stroke-width:0.5;"/>
    </defs>
    <g>
     <use style="stroke:#000000;stroke-width:0.5;" x="558.271872782" xlink:href="#m66763a63fb" y="84.1100183824"/>
     <use style="stroke:#000000;stroke-width:0.5;" x="558.271872782" xlink:href="#m66763a63fb" y="84.1100183824"/>
    </g>
   </g>
   <g id="line2d_17">
    <path d="
M100.578 354.498
L144.735 354.498
L144.735 353.827
L157.833 353.827
L157.833 352.485
L163.324 352.485
L163.324 351.814
L165.866 351.814
L165.866 350.472
L170.607 350.472
L170.607 349.801
L172.825 349.801
L172.825 347.789
L176.997 347.789
L176.997 346.447
L178.964 346.447
L178.964 343.763
L180.859 343.763
L180.859 343.092
L184.455 343.092
L184.455 341.75
L186.163 341.75
L186.163 341.079
L187.818 341.079
L187.818 340.408
L190.977 340.408
L190.977 339.066
L195.384 339.066
L195.384 338.395
L198.128 338.395
L198.128 336.383
L201.99 336.383
L201.99 334.37
L203.216 334.37
L203.216 332.357
L204.414 332.357
L204.414 328.331
L206.731 328.331
L206.731 326.989
L207.852 326.989
L207.852 324.977
L210.024 324.977
L210.024 322.293
L211.076 322.293
L211.076 320.951
L213.12 320.951
L213.12 320.28
L214.113 320.28
L214.113 315.584
L215.087 315.584
L215.087 314.913
L216.044 314.913
L216.044 310.887
L216.983 310.887
L216.983 306.861
L217.905 306.861
L217.905 304.178
L219.702 304.178
L219.702 300.823
L221.44 300.823
L221.44 300.152
L222.287 300.152
L222.287 299.481
L223.121 299.481
L223.121 296.126
L224.75 296.126
L224.75 294.114
L225.545 294.114
L225.545 292.772
L227.101 292.772
L227.101 289.417
L227.862 289.417
L227.862 287.404
L228.612 287.404
L228.612 286.062
L230.08 286.062
L230.08 283.379
L230.799 283.379
L230.799 282.708
L231.508 282.708
L231.508 282.037
L232.207 282.037
L232.207 278.682
L232.898 278.682
L232.898 278.011
L233.579 278.011
L233.579 277.34
L234.251 277.34
L234.251 276.669
L235.571 276.669
L235.571 275.998
L236.218 275.998
L236.218 275.327
L237.489 275.327
L237.489 273.985
L238.114 273.985
L238.114 268.618
L238.73 268.618
L238.73 267.276
L239.34 267.276
L239.34 265.934
L239.942 265.934
L239.942 263.921
L241.127 263.921
L241.127 259.896
L241.709 259.896
L241.709 259.225
L242.855 259.225
L242.855 258.554
L243.975 258.554
L243.975 257.883
L244.527 257.883
L244.527 257.212
L245.073 257.212
L245.073 255.87
L246.676 255.87
L246.676 253.857
L247.2 253.857
L247.2 253.186
L247.719 253.186
L247.719 252.515
L248.232 252.515
L248.232 249.832
L249.244 249.832
L249.244 249.161
L250.726 249.161
L250.726 246.477
L251.691 246.477
L251.691 245.806
L252.639 245.806
L252.639 245.135
L253.569 245.135
L253.569 244.464
L254.029 244.464
L254.029 243.122
L254.484 243.122
L254.484 241.78
L255.382 241.78
L255.382 240.438
L256.702 240.438
L256.702 239.768
L257.134 239.768
L257.134 237.084
L257.989 237.084
L257.989 236.413
L260.065 236.413
L260.065 235.742
L260.471 235.742
L260.471 234.4
L261.669 234.4
L261.669 233.058
L263.225 233.058
L263.225 232.387
L263.985 232.387
L263.985 231.045
L264.362 231.045
L264.362 230.374
L264.735 230.374
L264.735 229.703
L265.106 229.703
L265.106 229.033
L265.475 229.033
L265.475 227.02
L265.84 227.02
L265.84 225.678
L266.203 225.678
L266.203 224.336
L266.922 224.336
L266.922 222.994
L267.278 222.994
L267.278 221.652
L268.331 221.652
L268.331 220.31
L271.368 220.31
L271.368 219.639
L271.694 219.639
L271.694 216.956
L273.613 216.956
L273.613 216.285
L274.546 216.285
L274.546 214.943
L276.066 214.943
L276.066 214.272
L276.662 214.272
L276.662 213.601
L277.833 213.601
L277.833 212.93
L280.099 212.93
L280.099 212.259
L280.924 212.259
L280.924 208.904
L281.467 208.904
L281.467 208.233
L282.271 208.233
L282.271 207.563
L283.062 207.563
L283.062 206.221
L283.324 206.221
L283.324 204.879
L286.114 204.879
L286.114 204.208
L286.36 204.208
L286.36 202.195
L287.093 202.195
L287.093 200.182
L287.575 200.182
L287.575 198.84
L288.291 198.84
L288.291 196.828
L289.923 196.828
L289.923 194.144
L290.152 194.144
L290.152 193.473
L291.059 193.473
L291.059 192.131
L291.506 192.131
L291.506 191.46
L291.728 191.46
L291.728 190.118
L292.17 190.118
L292.17 188.776
L292.389 188.776
L292.389 187.434
L293.9 187.434
L293.9 186.093
L295.78 186.093
L295.78 184.751
L298.77 184.751
L298.77 183.409
L299.348 183.409
L299.348 182.738
L299.54 182.738
L299.54 181.396
L299.73 181.396
L299.73 180.054
L301.781 180.054
L301.781 179.383
L302.688 179.383
L302.688 178.041
L303.046 178.041
L303.046 177.37
L305.487 177.37
L305.487 176.699
L305.995 176.699
L305.995 176.028
L307.655 176.028
L307.655 175.358
L307.981 175.358
L307.981 174.687
L309.105 174.687
L309.105 174.016
L311.738 174.016
L311.738 172.674
L312.488 172.674
L312.488 172.003
L312.785 172.003
L312.785 171.332
L313.374 171.332
L313.374 169.99
L313.956 169.99
L313.956 169.319
L316.637 169.319
L316.637 168.648
L320.223 168.648
L320.223 167.977
L321.741 167.977
L321.741 166.635
L322.114 166.635
L322.114 165.964
L323.699 165.964
L323.699 165.293
L323.938 165.293
L323.938 163.281
L324.058 163.281
L324.058 162.61
L324.768 162.61
L324.768 161.939
L325.47 161.939
L325.47 161.268
L326.957 161.268
L326.957 160.597
L328.622 160.597
L328.622 159.926
L331.076 159.926
L331.076 159.255
L333.02 159.255
L333.02 158.584
L333.718 158.584
L333.718 157.242
L333.916 157.242
L333.916 156.571
L334.309 156.571
L334.309 155.229
L335.087 155.229
L335.087 154.558
L336.609 154.558
L336.609 153.888
L340.491 153.888
L340.491 153.217
L343.204 153.217
L343.204 152.546
L345.545 152.546
L345.545 151.875
L346.794 151.875
L346.794 151.204
L347.711 151.204
L347.711 150.533
L348.537 150.533
L348.537 149.862
L348.835 149.862
L348.835 149.191
L352.277 149.191
L352.277 148.52
L353.579 148.52
L353.579 147.849
L355.766 147.849
L355.766 147.178
L356.667 147.178
L356.667 146.507
L360.951 146.507
L360.951 145.836
L364.362 145.836
L364.362 145.165
L366.412 145.165
L366.412 144.494
L372.072 144.494
L372.072 143.823
L373.616 143.823
L373.616 143.153
L375.516 143.153
L375.516 142.482
L376.397 142.482
L376.397 141.811
L377.091 141.811
L377.091 141.14
L377.263 141.14
L377.263 140.469
L377.691 140.469
L377.691 139.798
L377.989 139.798
L377.989 139.127
L378.158 139.127
L378.158 138.456
L379.368 138.456
L379.368 137.785
L380.268 137.785
L380.268 137.114
L380.753 137.114
L380.753 136.443
L382.297 136.443
L382.297 135.772
L384.023 135.772
L384.023 134.43
L384.549 134.43
L384.549 133.759
L384.847 133.759
L384.847 133.088
L385.18 133.088
L385.18 132.418
L386.131 132.418
L386.131 131.747
L386.815 131.747
L386.815 131.076
L389.499 131.076
L389.499 129.734
L389.702 129.734
L389.702 129.063
L390.308 129.063
L390.308 128.392
L390.708 128.392
L390.708 127.05
L394.02 127.05
L394.02 126.379
L394.175 126.379
L394.175 125.708
L395.099 125.708
L395.099 124.366
L397.016 124.366
L397.016 123.695
L398.38 123.695
L398.38 123.024
L400.486 123.024
L400.486 122.353
L402.773 122.353
L402.773 120.341
L403.298 120.341
L403.298 118.328
L403.92 118.328
L403.92 117.657
L409.043 117.657
L409.043 116.986
L409.253 116.986
L409.276 115.644
L409.554 115.644
L409.554 114.973
L410.901 114.973
L410.901 114.302
L411.461 114.302
L411.461 113.631
L412.63 113.631
L412.63 112.96
L413.15 112.96
L413.15 112.289
L413.665 112.289
L413.665 111.618
L414.112 111.618
L414.112 110.948
L414.492 110.948
L414.492 110.277
L415.616 110.277
L415.616 109.606
L416.189 109.606
L416.189 108.935
L417.713 108.935
L417.713 108.264
L418.809 108.264
L418.809 107.593
L419.329 107.593
L419.329 106.922
L422.526 106.922
L422.616 105.58
L423.419 105.58
L423.419 104.909
L423.596 104.909
L423.596 104.238
L428.706 104.238
L428.706 103.567
L430.221 103.567
L430.221 102.896
L431.42 102.896
L431.42 102.225
L431.602 102.225
L431.632 100.883
L431.829 100.883
L431.829 100.213
L432.025 100.213
L432.025 99.5416
L432.145 99.5416
L432.145 98.8706
L436.801 98.8706
L436.801 97.5288
L438.699 97.5288
L438.699 96.8578
L444.839 96.8578
L444.839 96.1869
L445.678 96.1869
L445.678 95.516
L447.16 95.516
L447.16 94.845
L447.618 94.845
L447.618 94.1741
L448.71 94.1741
L448.71 93.5031
L448.992 93.5031
L448.992 92.8322
L454.884 92.8322
L454.884 92.1613
L467.162 92.1613
L467.162 91.4903
L470.448 91.4903
L470.448 90.8194
L481.663 90.8194
L481.663 90.1485
L485.343 90.1485
L485.343 89.4775
L487.2 89.4775
L487.2 89.4775" style="fill:none;stroke:#000000;stroke-linecap:square;stroke-width:1.5;"/>
   </g>
   <g id="line2d_18">
    <defs>
     <path d="
M0 6
C1.59122 6 3.11748 5.3678 4.24264 4.24264
C5.3678 3.11748 6 1.59122 6 0
C6 -1.59122 5.3678 -3.11748 4.24264 -4.24264
C3.11748 -5.3678 1.59122 -6 0 -6
C-1.59122 -6 -3.11748 -5.3678 -4.24264 -4.24264
C-5.3678 -3.11748 -6 -1.59122 -6 0
C-6 1.59122 -5.3678 3.11748 -4.24264 4.24264
C-3.11748 5.3678 -1.59122 6 0 6
z
" id="ma42492ef9b" style="stroke:#000000;stroke-width:1.5;"/>
    </defs>
    <g>
     <use style="fill:none;stroke:#000000;stroke-width:1.5;" x="187.817997398" xlink:href="#ma42492ef9b" y="340.408212908"/>
     <use style="fill:none;stroke:#000000;stroke-width:1.5;" x="239.942310314" xlink:href="#ma42492ef9b" y="263.921317159"/>
     <use style="fill:none;stroke:#000000;stroke-width:1.5;" x="295.780045994" xlink:href="#ma42492ef9b" y="186.092546047"/>
     <use style="fill:none;stroke:#000000;stroke-width:1.5;" x="380.26837532" xlink:href="#ma42492ef9b" y="137.785032943"/>
     <use style="fill:none;stroke:#000000;stroke-width:1.5;" x="467.162345649" xlink:href="#ma42492ef9b" y="92.1612705664"/>
     <use style="fill:none;stroke:#000000;stroke-width:1.5;" x="487.2" xlink:href="#ma42492ef9b" y="89.4775198384"/>
    </g>
   </g>
   <g id="line2d_19"/>
   <g id="line2d_20">
    <path clip-path="url(#p505825120b)" d="
M367.304 144.494" style="fill:none;stroke:#000000;stroke-linecap:square;"/>
    <defs>
     <path d="
M-12 12
L12 -12
M-12 -12
L12 12" id="m47417b404f" style="stroke:#000000;stroke-width:3;"/>
    </defs>
    <g clip-path="url(#p505825120b)">
     <use style="stroke:#000000;stroke-width:3;" x="367.304126584" xlink:href="#m47417b404f" y="144.494409763"/>
    </g>
   </g>
   <g id="line2d_21">
    <path d="
M487.2 103.445
L526.8 351.68" style="fill:none;stroke:#00bfbf;stroke-linecap:square;stroke-width:1.5;"/>
    <g>
     <use style="fill:none;stroke:#00bfbf;stroke-width:1.5;" x="487.2" xlink:href="#m3e4de746de" y="103.445222491"/>
     <use style="fill:none;stroke:#00bfbf;stroke-width:1.5;" x="526.8" xlink:href="#m3e4de746de" y="351.679965965"/>
    </g>
   </g>
   <g id="line2d_22">
    <path d="
M487.2 89.4775
L526.8 242.183" style="fill:none;stroke:#000000;stroke-linecap:square;stroke-width:1.5;"/>
    <g>
     <use style="fill:none;stroke:#000000;stroke-width:1.5;" x="487.2" xlink:href="#ma42492ef9b" y="89.4775198384"/>
     <use style="fill:none;stroke:#000000;stroke-width:1.5;" x="526.8" xlink:href="#ma42492ef9b" y="242.182936262"/>
    </g>
   </g>
   <g id="line2d_23">
    <path d="
M487.2 66.45
L526.8 132.686" style="fill:none;stroke:#0000ff;stroke-linecap:square;stroke-width:1.5;"/>
    <g>
     <use style="fill:none;stroke:#0000ff;stroke-linejoin:bevel;stroke-width:1.5;" x="487.2" xlink:href="#m0933169453" y="66.4499801096"/>
     <use style="fill:none;stroke:#0000ff;stroke-linejoin:bevel;stroke-width:1.5;" x="526.8" xlink:href="#m0933169453" y="132.685906559"/>
    </g>
   </g>
   <g id="line2d_24">
    <path d="
M487.2 64.1323
L526.8 23.1889" style="fill:none;stroke:#008000;stroke-linecap:square;stroke-width:1.5;"/>
    <g>
     <use style="fill:none;stroke:#008000;stroke-linejoin:miter;stroke-width:1.5;" x="487.2" xlink:href="#m397e16cd68" y="64.1322705061"/>
     <use style="fill:none;stroke:#008000;stroke-linejoin:miter;stroke-width:1.5;" x="526.8" xlink:href="#m397e16cd68" y="23.1888768564"/>
    </g>
   </g>
   <g id="line2d_25">
    <path d="
M487.2 358.524
L487.2 16.3453" style="fill:none;stroke:#000000;stroke-linecap:square;"/>
   </g>
   <g id="matplotlib.axis_1">
    <g id="xtick_1">
     <g id="line2d_26">
      <path clip-path="url(#p505825120b)" d="
M127.2 358.524
L127.2 12.9235" style="fill:none;stroke:#000000;stroke-dasharray:1.000000,3.000000;stroke-dashoffset:0.0;stroke-width:0.5;"/>
     </g>
     <g id="line2d_27">
      <defs>
       <path d="
M0 0
L0 -4" id="m93b0483c22" style="stroke:#000000;stroke-width:0.5;"/>
      </defs>
      <g>
       <use style="stroke:#000000;stroke-width:0.5;" x="127.2" xlink:href="#m93b0483c22" y="358.523530322"/>
      </g>
     </g>
     <g id="line2d_28">
      <defs>
       <path d="
M0 0
L0 4" id="m741efc42ff" style="stroke:#000000;stroke-width:0.5;"/>
      </defs>
      <g>
       <use style="stroke:#000000;stroke-width:0.5;" x="127.2" xlink:href="#m741efc42ff" y="12.9235303218"/>
      </g>
     </g>
     <g id="text_1">
      <!-- 0 -->
      <defs>
       <path d="
M4.15625 35.2969
Q4.15625 48 6.76562 55.7344
Q9.375 63.4844 14.5156 67.6719
Q19.6719 71.875 27.4844 71.875
Q33.25 71.875 37.5938 69.5469
Q41.9375 67.2344 44.7656 62.8594
Q47.6094 58.5 49.2188 52.2188
Q50.8281 45.9531 50.8281 35.2969
Q50.8281 22.7031 48.2344 14.9688
Q45.6562 7.23438 40.5 3
Q35.3594 -1.21875 27.4844 -1.21875
Q17.1406 -1.21875 11.2344 6.20312
Q4.15625 15.1406 4.15625 35.2969
M13.1875 35.2969
Q13.1875 17.6719 17.3125 11.8281
Q21.4375 6 27.4844 6
Q33.5469 6 37.6719 11.8594
Q41.7969 17.7188 41.7969 35.2969
Q41.7969 52.9844 37.6719 58.7812
Q33.5469 64.5938 27.3906 64.5938
Q21.3438 64.5938 17.7188 59.4688
Q13.1875 52.9375 13.1875 35.2969" id="ArialMT-30"/>
      </defs>
      <g transform="translate(122.5328125 376.839155322)scale(0.2 -0.2)">
       <use xlink:href="#ArialMT-30"/>
      </g>
     </g>
    </g>
    <g id="xtick_2">
     <g id="line2d_29">
      <path clip-path="url(#p505825120b)" d="
M247.2 358.524
L247.2 12.9235" style="fill:none;stroke:#000000;stroke-dasharray:1.000000,3.000000;stroke-dashoffset:0.0;stroke-width:0.5;"/>
     </g>
     <g id="line2d_30">
      <g>
       <use style="stroke:#000000;stroke-width:0.5;" x="247.2" xlink:href="#m93b0483c22" y="358.523530322"/>
      </g>
     </g>
     <g id="line2d_31">
      <g>
       <use style="stroke:#000000;stroke-width:0.5;" x="247.2" xlink:href="#m741efc42ff" y="12.9235303218"/>
      </g>
     </g>
     <g id="text_2">
      <!-- 1 -->
      <defs>
       <path d="
M37.25 0
L28.4688 0
L28.4688 56
Q25.2969 52.9844 20.1406 49.9531
Q14.9844 46.9219 10.8906 45.4062
L10.8906 53.9062
Q18.2656 57.375 23.7812 62.2969
Q29.2969 67.2344 31.5938 71.875
L37.25 71.875
z
" id="ArialMT-31"/>
      </defs>
      <g transform="translate(244.5640625 376.839155322)scale(0.2 -0.2)">
       <use xlink:href="#ArialMT-31"/>
      </g>
     </g>
    </g>
    <g id="xtick_3">
     <g id="line2d_32">
      <path clip-path="url(#p505825120b)" d="
M367.2 358.524
L367.2 12.9235" style="fill:none;stroke:#000000;stroke-dasharray:1.000000,3.000000;stroke-dashoffset:0.0;stroke-width:0.5;"/>
     </g>
     <g id="line2d_33">
      <g>
       <use style="stroke:#000000;stroke-width:0.5;" x="367.2" xlink:href="#m93b0483c22" y="358.523530322"/>
      </g>
     </g>
     <g id="line2d_34">
      <g>
       <use style="stroke:#000000;stroke-width:0.5;" x="367.2" xlink:href="#m741efc42ff" y="12.9235303218"/>
      </g>
     </g>
     <g id="text_3">
      <!-- 2 -->
      <defs>
       <path d="
M50.3438 8.45312
L50.3438 0
L3.03125 0
Q2.9375 3.17188 4.04688 6.10938
Q5.85938 10.9375 9.82812 15.625
Q13.8125 20.3125 21.3438 26.4688
Q33.0156 36.0312 37.1094 41.625
Q41.2188 47.2188 41.2188 52.2031
Q41.2188 57.4219 37.4688 61
Q33.7344 64.5938 27.7344 64.5938
Q21.3906 64.5938 17.5781 60.7812
Q13.7656 56.9844 13.7188 50.25
L4.6875 51.1719
Q5.60938 61.2812 11.6562 66.5781
Q17.7188 71.875 27.9375 71.875
Q38.2344 71.875 44.2344 66.1562
Q50.25 60.4531 50.25 52
Q50.25 47.7031 48.4844 43.5469
Q46.7344 39.4062 42.6562 34.8125
Q38.5781 30.2188 29.1094 22.2188
Q21.1875 15.5781 18.9375 13.2031
Q16.7031 10.8438 15.2344 8.45312
z
" id="ArialMT-32"/>
      </defs>
      <g transform="translate(362.459375 376.839155322)scale(0.2 -0.2)">
       <use xlink:href="#ArialMT-32"/>
      </g>
     </g>
    </g>
    <g id="xtick_4">
     <g id="line2d_35">
      <path clip-path="url(#p505825120b)" d="
M487.2 358.524
L487.2 12.9235" style="fill:none;stroke:#000000;stroke-dasharray:1.000000,3.000000;stroke-dashoffset:0.0;stroke-width:0.5;"/>
     </g>
     <g id="line2d_36">
      <g>
       <use style="stroke:#000000;stroke-width:0.5;" x="487.2" xlink:href="#m93b0483c22" y="358.523530322"/>
      </g>
     </g>
     <g id="line2d_37">
      <g>
       <use style="stroke:#000000;stroke-width:0.5;" x="487.2" xlink:href="#m741efc42ff" y="12.9235303218"/>
      </g>
     </g>
     <g id="text_4">
      <!-- 3 -->
      <defs>
       <path d="
M4.20312 18.8906
L12.9844 20.0625
Q14.5 12.5938 18.1406 9.29688
Q21.7812 6 27 6
Q33.2031 6 37.4688 10.2969
Q41.75 14.5938 41.75 20.9531
Q41.75 27 37.7969 30.9219
Q33.8438 34.8594 27.7344 34.8594
Q25.25 34.8594 21.5312 33.8906
L22.5156 41.6094
Q23.3906 41.5 23.9219 41.5
Q29.5469 41.5 34.0312 44.4219
Q38.5312 47.3594 38.5312 53.4688
Q38.5312 58.2969 35.25 61.4688
Q31.9844 64.6562 26.8125 64.6562
Q21.6875 64.6562 18.2656 61.4219
Q14.8438 58.2031 13.875 51.7656
L5.07812 53.3281
Q6.6875 62.1562 12.3906 67.0156
Q18.1094 71.875 26.6094 71.875
Q32.4688 71.875 37.3906 69.3594
Q42.3281 66.8438 44.9375 62.5
Q47.5625 58.1562 47.5625 53.2656
Q47.5625 48.6406 45.0625 44.8281
Q42.5781 41.0156 37.7031 38.7656
Q44.0469 37.3125 47.5625 32.6875
Q51.0781 28.0781 51.0781 21.1406
Q51.0781 11.7656 44.2344 5.25
Q37.4062 -1.26562 26.9531 -1.26562
Q17.5312 -1.26562 11.2969 4.34375
Q5.07812 9.96875 4.20312 18.8906" id="ArialMT-33"/>
      </defs>
      <g transform="translate(482.5125 376.839155322)scale(0.2 -0.2)">
       <use xlink:href="#ArialMT-33"/>
      </g>
     </g>
    </g>
    <g id="xtick_5">
     <g id="line2d_38">
      <defs>
       <path d="
M0 0
L0 -2" id="m177f7580d0" style="stroke:#000000;stroke-width:0.5;"/>
      </defs>
      <g>
       <use style="stroke:#000000;stroke-width:0.5;" x="163.32359948" xlink:href="#m177f7580d0" y="358.523530322"/>
      </g>
     </g>
     <g id="line2d_39">
      <defs>
       <path d="
M0 0
L0 2" id="m5284c7e2a0" style="stroke:#000000;stroke-width:0.5;"/>
      </defs>
      <g>
       <use style="stroke:#000000;stroke-width:0.5;" x="163.32359948" xlink:href="#m5284c7e2a0" y="12.9235303218"/>
      </g>
     </g>
    </g>
    <g id="xtick_6">
     <g id="line2d_40">
      <g>
       <use style="stroke:#000000;stroke-width:0.5;" x="184.454550566" xlink:href="#m177f7580d0" y="358.523530322"/>
      </g>
     </g>
     <g id="line2d_41">
      <g>
       <use style="stroke:#000000;stroke-width:0.5;" x="184.454550566" xlink:href="#m5284c7e2a0" y="12.9235303218"/>
      </g>
     </g>
    </g>
    <g id="xtick_7">
     <g id="line2d_42">
      <g>
       <use style="stroke:#000000;stroke-width:0.5;" x="199.447198959" xlink:href="#m177f7580d0" y="358.523530322"/>
      </g>
     </g>
     <g id="line2d_43">
      <g>
       <use style="stroke:#000000;stroke-width:0.5;" x="199.447198959" xlink:href="#m5284c7e2a0" y="12.9235303218"/>
      </g>
     </g>
    </g>
    <g id="xtick_8">
     <g id="line2d_44">
      <g>
       <use style="stroke:#000000;stroke-width:0.5;" x="211.07640052" xlink:href="#m177f7580d0" y="358.523530322"/>
      </g>
     </g>
     <g id="line2d_45">
      <g>
       <use style="stroke:#000000;stroke-width:0.5;" x="211.07640052" xlink:href="#m5284c7e2a0" y="12.9235303218"/>
      </g>
     </g>
    </g>
    <g id="xtick_9">
     <g id="line2d_46">
      <g>
       <use style="stroke:#000000;stroke-width:0.5;" x="220.578150046" xlink:href="#m177f7580d0" y="358.523530322"/>
      </g>
     </g>
     <g id="line2d_47">
      <g>
       <use style="stroke:#000000;stroke-width:0.5;" x="220.578150046" xlink:href="#m5284c7e2a0" y="12.9235303218"/>
      </g>
     </g>
    </g>
    <g id="xtick_10">
     <g id="line2d_48">
      <g>
       <use style="stroke:#000000;stroke-width:0.5;" x="228.611764802" xlink:href="#m177f7580d0" y="358.523530322"/>
      </g>
     </g>
     <g id="line2d_49">
      <g>
       <use style="stroke:#000000;stroke-width:0.5;" x="228.611764802" xlink:href="#m5284c7e2a0" y="12.9235303218"/>
      </g>
     </g>
    </g>
    <g id="xtick_11">
     <g id="line2d_50">
      <g>
       <use style="stroke:#000000;stroke-width:0.5;" x="235.570798439" xlink:href="#m177f7580d0" y="358.523530322"/>
      </g>
     </g>
     <g id="line2d_51">
      <g>
       <use style="stroke:#000000;stroke-width:0.5;" x="235.570798439" xlink:href="#m5284c7e2a0" y="12.9235303218"/>
      </g>
     </g>
    </g>
    <g id="xtick_12">
     <g id="line2d_52">
      <g>
       <use style="stroke:#000000;stroke-width:0.5;" x="241.709101133" xlink:href="#m177f7580d0" y="358.523530322"/>
      </g>
     </g>
     <g id="line2d_53">
      <g>
       <use style="stroke:#000000;stroke-width:0.5;" x="241.709101133" xlink:href="#m5284c7e2a0" y="12.9235303218"/>
      </g>
     </g>
    </g>
    <g id="xtick_13">
     <g id="line2d_54">
      <g>
       <use style="stroke:#000000;stroke-width:0.5;" x="283.32359948" xlink:href="#m177f7580d0" y="358.523530322"/>
      </g>
     </g>
     <g id="line2d_55">
      <g>
       <use style="stroke:#000000;stroke-width:0.5;" x="283.32359948" xlink:href="#m5284c7e2a0" y="12.9235303218"/>
      </g>
     </g>
    </g>
    <g id="xtick_14">
     <g id="line2d_56">
      <g>
       <use style="stroke:#000000;stroke-width:0.5;" x="304.454550566" xlink:href="#m177f7580d0" y="358.523530322"/>
      </g>
     </g>
     <g id="line2d_57">
      <g>
       <use style="stroke:#000000;stroke-width:0.5;" x="304.454550566" xlink:href="#m5284c7e2a0" y="12.9235303218"/>
      </g>
     </g>
    </g>
    <g id="xtick_15">
     <g id="line2d_58">
      <g>
       <use style="stroke:#000000;stroke-width:0.5;" x="319.447198959" xlink:href="#m177f7580d0" y="358.523530322"/>
      </g>
     </g>
     <g id="line2d_59">
      <g>
       <use style="stroke:#000000;stroke-width:0.5;" x="319.447198959" xlink:href="#m5284c7e2a0" y="12.9235303218"/>
      </g>
     </g>
    </g>
    <g id="xtick_16">
     <g id="line2d_60">
      <g>
       <use style="stroke:#000000;stroke-width:0.5;" x="331.07640052" xlink:href="#m177f7580d0" y="358.523530322"/>
      </g>
     </g>
     <g id="line2d_61">
      <g>
       <use style="stroke:#000000;stroke-width:0.5;" x="331.07640052" xlink:href="#m5284c7e2a0" y="12.9235303218"/>
      </g>
     </g>
    </g>
    <g id="xtick_17">
     <g id="line2d_62">
      <g>
       <use style="stroke:#000000;stroke-width:0.5;" x="340.578150046" xlink:href="#m177f7580d0" y="358.523530322"/>
      </g>
     </g>
     <g id="line2d_63">
      <g>
       <use style="stroke:#000000;stroke-width:0.5;" x="340.578150046" xlink:href="#m5284c7e2a0" y="12.9235303218"/>
      </g>
     </g>
    </g>
    <g id="xtick_18">
     <g id="line2d_64">
      <g>
       <use style="stroke:#000000;stroke-width:0.5;" x="348.611764802" xlink:href="#m177f7580d0" y="358.523530322"/>
      </g>
     </g>
     <g id="line2d_65">
      <g>
       <use style="stroke:#000000;stroke-width:0.5;" x="348.611764802" xlink:href="#m5284c7e2a0" y="12.9235303218"/>
      </g>
     </g>
    </g>
    <g id="xtick_19">
     <g id="line2d_66">
      <g>
       <use style="stroke:#000000;stroke-width:0.5;" x="355.570798439" xlink:href="#m177f7580d0" y="358.523530322"/>
      </g>
     </g>
     <g id="line2d_67">
      <g>
       <use style="stroke:#000000;stroke-width:0.5;" x="355.570798439" xlink:href="#m5284c7e2a0" y="12.9235303218"/>
      </g>
     </g>
    </g>
    <g id="xtick_20">
     <g id="line2d_68">
      <g>
       <use style="stroke:#000000;stroke-width:0.5;" x="361.709101133" xlink:href="#m177f7580d0" y="358.523530322"/>
      </g>
     </g>
     <g id="line2d_69">
      <g>
       <use style="stroke:#000000;stroke-width:0.5;" x="361.709101133" xlink:href="#m5284c7e2a0" y="12.9235303218"/>
      </g>
     </g>
    </g>
    <g id="xtick_21">
     <g id="line2d_70">
      <g>
       <use style="stroke:#000000;stroke-width:0.5;" x="403.32359948" xlink:href="#m177f7580d0" y="358.523530322"/>
      </g>
     </g>
     <g id="line2d_71">
      <g>
       <use style="stroke:#000000;stroke-width:0.5;" x="403.32359948" xlink:href="#m5284c7e2a0" y="12.9235303218"/>
      </g>
     </g>
    </g>
    <g id="xtick_22">
     <g id="line2d_72">
      <g>
       <use style="stroke:#000000;stroke-width:0.5;" x="424.454550566" xlink:href="#m177f7580d0" y="358.523530322"/>
      </g>
     </g>
     <g id="line2d_73">
      <g>
       <use style="stroke:#000000;stroke-width:0.5;" x="424.454550566" xlink:href="#m5284c7e2a0" y="12.9235303218"/>
      </g>
     </g>
    </g>
    <g id="xtick_23">
     <g id="line2d_74">
      <g>
       <use style="stroke:#000000;stroke-width:0.5;" x="439.447198959" xlink:href="#m177f7580d0" y="358.523530322"/>
      </g>
     </g>
     <g id="line2d_75">
      <g>
       <use style="stroke:#000000;stroke-width:0.5;" x="439.447198959" xlink:href="#m5284c7e2a0" y="12.9235303218"/>
      </g>
     </g>
    </g>
    <g id="xtick_24">
     <g id="line2d_76">
      <g>
       <use style="stroke:#000000;stroke-width:0.5;" x="451.07640052" xlink:href="#m177f7580d0" y="358.523530322"/>
      </g>
     </g>
     <g id="line2d_77">
      <g>
       <use style="stroke:#000000;stroke-width:0.5;" x="451.07640052" xlink:href="#m5284c7e2a0" y="12.9235303218"/>
      </g>
     </g>
    </g>
    <g id="xtick_25">
     <g id="line2d_78">
      <g>
       <use style="stroke:#000000;stroke-width:0.5;" x="460.578150046" xlink:href="#m177f7580d0" y="358.523530322"/>
      </g>
     </g>
     <g id="line2d_79">
      <g>
       <use style="stroke:#000000;stroke-width:0.5;" x="460.578150046" xlink:href="#m5284c7e2a0" y="12.9235303218"/>
      </g>
     </g>
    </g>
    <g id="xtick_26">
     <g id="line2d_80">
      <g>
       <use style="stroke:#000000;stroke-width:0.5;" x="468.611764802" xlink:href="#m177f7580d0" y="358.523530322"/>
      </g>
     </g>
     <g id="line2d_81">
      <g>
       <use style="stroke:#000000;stroke-width:0.5;" x="468.611764802" xlink:href="#m5284c7e2a0" y="12.9235303218"/>
      </g>
     </g>
    </g>
    <g id="xtick_27">
     <g id="line2d_82">
      <g>
       <use style="stroke:#000000;stroke-width:0.5;" x="475.570798439" xlink:href="#m177f7580d0" y="358.523530322"/>
      </g>
     </g>
     <g id="line2d_83">
      <g>
       <use style="stroke:#000000;stroke-width:0.5;" x="475.570798439" xlink:href="#m5284c7e2a0" y="12.9235303218"/>
      </g>
     </g>
    </g>
    <g id="xtick_28">
     <g id="line2d_84">
      <g>
       <use style="stroke:#000000;stroke-width:0.5;" x="481.709101133" xlink:href="#m177f7580d0" y="358.523530322"/>
      </g>
     </g>
     <g id="line2d_85">
      <g>
       <use style="stroke:#000000;stroke-width:0.5;" x="481.709101133" xlink:href="#m5284c7e2a0" y="12.9235303218"/>
      </g>
     </g>
    </g>
    <g id="xtick_29">
     <g id="line2d_86">
      <g>
       <use style="stroke:#000000;stroke-width:0.5;" x="523.32359948" xlink:href="#m177f7580d0" y="358.523530322"/>
      </g>
     </g>
     <g id="line2d_87">
      <g>
       <use style="stroke:#000000;stroke-width:0.5;" x="523.32359948" xlink:href="#m5284c7e2a0" y="12.9235303218"/>
      </g>
     </g>
    </g>
    <g id="xtick_30">
     <g id="line2d_88">
      <g>
       <use style="stroke:#000000;stroke-width:0.5;" x="544.454550566" xlink:href="#m177f7580d0" y="358.523530322"/>
      </g>
     </g>
     <g id="line2d_89">
      <g>
       <use style="stroke:#000000;stroke-width:0.5;" x="544.454550566" xlink:href="#m5284c7e2a0" y="12.9235303218"/>
      </g>
     </g>
    </g>
    <g id="xtick_31">
     <g id="line2d_90">
      <g>
       <use style="stroke:#000000;stroke-width:0.5;" x="559.447198959" xlink:href="#m177f7580d0" y="358.523530322"/>
      </g>
     </g>
     <g id="line2d_91">
      <g>
       <use style="stroke:#000000;stroke-width:0.5;" x="559.447198959" xlink:href="#m5284c7e2a0" y="12.9235303218"/>
      </g>
     </g>
    </g>
    <g id="xtick_32">
     <g id="line2d_92">
      <g>
       <use style="stroke:#000000;stroke-width:0.5;" x="571.07640052" xlink:href="#m177f7580d0" y="358.523530322"/>
      </g>
     </g>
     <g id="line2d_93">
      <g>
       <use style="stroke:#000000;stroke-width:0.5;" x="571.07640052" xlink:href="#m5284c7e2a0" y="12.9235303218"/>
      </g>
     </g>
    </g>
    <g id="text_5">
     <!-- log10 of (# f-evals / dimension) -->
     <defs>
      <path d="
M12.3594 -21.0469
L6.0625 -21.0469
Q20.6562 2.39062 20.6562 25.875
Q20.6562 35.0625 18.5625 44.0938
Q16.8906 51.4219 13.9219 58.1562
Q12.0156 62.5469 6.0625 72.7969
L12.3594 72.7969
Q21.5312 60.5469 25.9219 48.1875
Q29.6875 37.5469 29.6875 25.9219
Q29.6875 12.75 24.625 0.4375
Q19.5781 -11.8594 12.3594 -21.0469" id="ArialMT-29"/>
      <path d="
M40.4375 6.39062
Q35.5469 2.25 31.0312 0.53125
Q26.5156 -1.17188 21.3438 -1.17188
Q12.7969 -1.17188 8.20312 3
Q3.60938 7.17188 3.60938 13.6719
Q3.60938 17.4844 5.34375 20.625
Q7.07812 23.7812 9.89062 25.6875
Q12.7031 27.5938 16.2188 28.5625
Q18.7969 29.25 24.0312 29.8906
Q34.6719 31.1562 39.7031 32.9062
Q39.75 34.7188 39.75 35.2031
Q39.75 40.5781 37.25 42.7812
Q33.8906 45.75 27.25 45.75
Q21.0469 45.75 18.0938 43.5781
Q15.1406 41.4062 13.7188 35.8906
L5.125 37.0625
Q6.29688 42.5781 8.98438 45.9688
Q11.6719 49.3594 16.75 51.1875
Q21.8281 53.0312 28.5156 53.0312
Q35.1562 53.0312 39.2969 51.4688
Q43.4531 49.9062 45.4062 47.5312
Q47.3594 45.1719 48.1406 41.5469
Q48.5781 39.3125 48.5781 33.4531
L48.5781 21.7344
Q48.5781 9.46875 49.1406 6.21875
Q49.7031 2.98438 51.375 0
L42.1875 0
Q40.8281 2.73438 40.4375 6.39062
M39.7031 26.0312
Q34.9062 24.0781 25.3438 22.7031
Q19.9219 21.9219 17.6719 20.9375
Q15.4375 19.9688 14.2031 18.0938
Q12.9844 16.2188 12.9844 13.9219
Q12.9844 10.4062 15.6406 8.0625
Q18.3125 5.71875 23.4375 5.71875
Q28.5156 5.71875 32.4688 7.9375
Q36.4219 10.1562 38.2812 14.0156
Q39.7031 17 39.7031 22.7969
z
" id="ArialMT-61"/>
      <path d="
M4.98438 -4.29688
L13.5312 -5.5625
Q14.0625 -9.51562 16.5 -11.3281
Q19.7812 -13.7656 25.4375 -13.7656
Q31.5469 -13.7656 34.8594 -11.3281
Q38.1875 -8.89062 39.3594 -4.5
Q40.0469 -1.8125 39.9844 6.78125
Q34.2344 0 25.6406 0
Q14.9375 0 9.07812 7.71875
Q3.21875 15.4375 3.21875 26.2188
Q3.21875 33.6406 5.90625 39.9062
Q8.59375 46.1875 13.6875 49.6094
Q18.7969 53.0312 25.6875 53.0312
Q34.8594 53.0312 40.8281 45.6094
L40.8281 51.8594
L48.9219 51.8594
L48.9219 7.03125
Q48.9219 -5.07812 46.4531 -10.125
Q44 -15.1875 38.6406 -18.1094
Q33.2969 -21.0469 25.4844 -21.0469
Q16.2188 -21.0469 10.5 -16.875
Q4.78125 -12.7031 4.98438 -4.29688
M12.25 26.8594
Q12.25 16.6562 16.2969 11.9688
Q20.3594 7.28125 26.4688 7.28125
Q32.5156 7.28125 36.6094 11.9375
Q40.7188 16.6094 40.7188 26.5625
Q40.7188 36.0781 36.5 40.9062
Q32.2812 45.75 26.3125 45.75
Q20.4531 45.75 16.3438 40.9844
Q12.25 36.2344 12.25 26.8594" id="ArialMT-67"/>
      <path d="
M8.6875 0
L8.6875 45.0156
L0.921875 45.0156
L0.921875 51.8594
L8.6875 51.8594
L8.6875 57.375
Q8.6875 62.5938 9.625 65.1406
Q10.8906 68.5625 14.0781 70.6719
Q17.2812 72.7969 23.0469 72.7969
Q26.7656 72.7969 31.25 71.9219
L29.9375 64.2656
Q27.2031 64.75 24.75 64.75
Q20.75 64.75 19.0938 63.0312
Q17.4375 61.3281 17.4375 56.6406
L17.4375 51.8594
L27.5469 51.8594
L27.5469 45.0156
L17.4375 45.0156
L17.4375 0
z
" id="ArialMT-66"/>
      <path d="
M42.0938 16.7031
L51.1719 15.5781
Q49.0312 7.625 43.2188 3.21875
Q37.4062 -1.17188 28.375 -1.17188
Q17 -1.17188 10.3281 5.82812
Q3.65625 12.8438 3.65625 25.4844
Q3.65625 38.5781 10.3906 45.7969
Q17.1406 53.0312 27.875 53.0312
Q38.2812 53.0312 44.875 45.9531
Q51.4688 38.875 51.4688 26.0312
Q51.4688 25.25 51.4219 23.6875
L12.75 23.6875
Q13.2344 15.1406 17.5781 10.5938
Q21.9219 6.0625 28.4219 6.0625
Q33.25 6.0625 36.6719 8.59375
Q40.0938 11.1406 42.0938 16.7031
M13.2344 30.9062
L42.1875 30.9062
Q41.6094 37.4531 38.875 40.7188
Q34.6719 45.7969 27.9844 45.7969
Q21.9219 45.7969 17.7969 41.75
Q13.6719 37.7031 13.2344 30.9062" id="ArialMT-65"/>
      <path d="
M40.2344 0
L40.2344 6.54688
Q35.2969 -1.17188 25.7344 -1.17188
Q19.5312 -1.17188 14.3281 2.25
Q9.125 5.67188 6.26562 11.7969
Q3.42188 17.9219 3.42188 25.875
Q3.42188 33.6406 6 39.9688
Q8.59375 46.2969 13.7656 49.6562
Q18.9531 53.0312 25.3438 53.0312
Q30.0312 53.0312 33.6875 51.0469
Q37.3594 49.0781 39.6562 45.9062
L39.6562 71.5781
L48.3906 71.5781
L48.3906 0
z

M12.4531 25.875
Q12.4531 15.9219 16.6406 10.9844
Q20.8438 6.0625 26.5625 6.0625
Q32.3281 6.0625 36.3438 10.7656
Q40.375 15.4844 40.375 25.1406
Q40.375 35.7969 36.2656 40.7656
Q32.1719 45.75 26.1719 45.75
Q20.3125 45.75 16.375 40.9688
Q12.4531 36.1875 12.4531 25.875" id="ArialMT-64"/>
      <path d="
M0 -1.21875
L20.75 72.7969
L27.7812 72.7969
L7.07812 -1.21875
z
" id="ArialMT-2f"/>
      <path d="
M21 0
L1.26562 51.8594
L10.5469 51.8594
L21.6875 20.7969
Q23.4844 15.7656 25 10.3594
Q26.1719 14.4531 28.2656 20.2188
L39.7969 51.8594
L48.8281 51.8594
L29.2031 0
z
" id="ArialMT-76"/>
      <path d="
M3.17188 21.4844
L3.17188 30.3281
L30.1719 30.3281
L30.1719 21.4844
z
" id="ArialMT-2d"/>
      <path d="
M6.59375 0
L6.59375 51.8594
L14.4531 51.8594
L14.4531 44.5781
Q16.8906 48.3906 20.9375 50.7031
Q25 53.0312 30.1719 53.0312
Q35.9375 53.0312 39.625 50.6406
Q43.3125 48.25 44.8281 43.9531
Q50.9844 53.0312 60.8438 53.0312
Q68.5625 53.0312 72.7031 48.75
Q76.8594 44.4844 76.8594 35.5938
L76.8594 0
L68.1094 0
L68.1094 32.6719
Q68.1094 37.9375 67.25 40.25
Q66.4062 42.5781 64.1562 43.9844
Q61.9219 45.4062 58.8906 45.4062
Q53.4219 45.4062 49.7969 41.7656
Q46.1875 38.1406 46.1875 30.125
L46.1875 0
L37.4062 0
L37.4062 33.6875
Q37.4062 39.5469 35.25 42.4688
Q33.1094 45.4062 28.2188 45.4062
Q24.5156 45.4062 21.3594 43.4531
Q18.2188 41.5 16.7969 37.7344
Q15.375 33.9844 15.375 26.9062
L15.375 0
z
" id="ArialMT-6d"/>
      <path d="
M3.07812 15.4844
L11.7656 16.8438
Q12.5 11.625 15.8438 8.84375
Q19.1875 6.0625 25.2031 6.0625
Q31.25 6.0625 34.1719 8.51562
Q37.1094 10.9844 37.1094 14.3125
Q37.1094 17.2812 34.5156 19
Q32.7188 20.1719 25.5312 21.9688
Q15.875 24.4219 12.1406 26.2031
Q8.40625 27.9844 6.46875 31.125
Q4.54688 34.2812 4.54688 38.0938
Q4.54688 41.5469 6.125 44.5
Q7.71875 47.4688 10.4531 49.4219
Q12.5 50.9219 16.0312 51.9688
Q19.5781 53.0312 23.6406 53.0312
Q29.7344 53.0312 34.3438 51.2656
Q38.9688 49.5156 41.1562 46.5
Q43.3594 43.5 44.1875 38.4844
L35.5938 37.3125
Q35.0156 41.3125 32.2031 43.5469
Q29.3906 45.7969 24.2656 45.7969
Q18.2188 45.7969 15.625 43.7969
Q13.0312 41.7969 13.0312 39.1094
Q13.0312 37.4062 14.1094 36.0312
Q15.1875 34.625 17.4844 33.6875
Q18.7969 33.2031 25.25 31.4531
Q34.5781 28.9531 38.25 27.3594
Q41.9375 25.7812 44.0312 22.75
Q46.1406 19.7344 46.1406 15.2344
Q46.1406 10.8438 43.5781 6.95312
Q41.0156 3.07812 36.1719 0.953125
Q31.3438 -1.17188 25.25 -1.17188
Q15.1406 -1.17188 9.84375 3.03125
Q4.54688 7.23438 3.07812 15.4844" id="ArialMT-73"/>
      <path d="
M6.39062 0
L6.39062 71.5781
L15.1875 71.5781
L15.1875 0
z
" id="ArialMT-6c"/>
      <path d="
M3.32812 25.9219
Q3.32812 40.3281 11.3281 47.2656
Q18.0156 53.0312 27.6406 53.0312
Q38.3281 53.0312 45.1094 46.0156
Q51.9062 39.0156 51.9062 26.6562
Q51.9062 16.6562 48.9062 10.9062
Q45.9062 5.17188 40.1562 2
Q34.4219 -1.17188 27.6406 -1.17188
Q16.75 -1.17188 10.0312 5.8125
Q3.32812 12.7969 3.32812 25.9219
M12.3594 25.9219
Q12.3594 15.9688 16.7031 11.0156
Q21.0469 6.0625 27.6406 6.0625
Q34.1875 6.0625 38.5312 11.0312
Q42.875 16.0156 42.875 26.2188
Q42.875 35.8438 38.5 40.7969
Q34.125 45.75 27.6406 45.75
Q21.0469 45.75 16.7031 40.8125
Q12.3594 35.8906 12.3594 25.9219" id="ArialMT-6f"/>
      <path d="
M6.59375 0
L6.59375 51.8594
L14.5 51.8594
L14.5 44.4844
Q20.2188 53.0312 31 53.0312
Q35.6875 53.0312 39.625 51.3438
Q43.5625 49.6562 45.5156 46.9219
Q47.4688 44.1875 48.25 40.4375
Q48.7344 37.9844 48.7344 31.8906
L48.7344 0
L39.9375 0
L39.9375 31.5469
Q39.9375 36.9219 38.9062 39.5781
Q37.8906 42.2344 35.2812 43.8125
Q32.6719 45.4062 29.1562 45.4062
Q23.5312 45.4062 19.4531 41.8438
Q15.375 38.2812 15.375 28.3281
L15.375 0
z
" id="ArialMT-6e"/>
      <path d="
M23.3906 -21.0469
Q16.1094 -11.8594 11.0781 0.4375
Q6.0625 12.75 6.0625 25.9219
Q6.0625 37.5469 9.8125 48.1875
Q14.2031 60.5469 23.3906 72.7969
L29.6875 72.7969
Q23.7812 62.6406 21.875 58.2969
Q18.8906 51.5625 17.1875 44.2344
Q15.0938 35.1094 15.0938 25.875
Q15.0938 2.39062 29.6875 -21.0469
z
" id="ArialMT-28"/>
      <path d="
M5.03125 -1.21875
L9.28125 19.5781
L1.03125 19.5781
L1.03125 26.8594
L10.75 26.8594
L14.3594 44.5781
L1.03125 44.5781
L1.03125 51.8594
L15.8281 51.8594
L20.0625 72.7969
L27.3906 72.7969
L23.1406 51.8594
L38.5312 51.8594
L42.7812 72.7969
L50.1406 72.7969
L45.9062 51.8594
L54.3438 51.8594
L54.3438 44.5781
L44.4375 44.5781
L40.7656 26.8594
L54.3438 26.8594
L54.3438 19.5781
L39.3125 19.5781
L35.0625 -1.21875
L27.7344 -1.21875
L31.9375 19.5781
L16.6094 19.5781
L12.3594 -1.21875
z

M18.0625 26.8594
L33.4062 26.8594
L37.0625 44.5781
L21.6875 44.5781
z
" id="ArialMT-23"/>
      <path d="
M6.64062 61.4688
L6.64062 71.5781
L15.4375 71.5781
L15.4375 61.4688
z

M6.64062 0
L6.64062 51.8594
L15.4375 51.8594
L15.4375 0
z
" id="ArialMT-69"/>
      <path id="ArialMT-20"/>
     </defs>
     <g transform="translate(227.67375 398.917592822)scale(0.18 -0.18)">
      <use xlink:href="#ArialMT-6c"/>
      <use x="22.216796875" xlink:href="#ArialMT-6f"/>
      <use x="77.83203125" xlink:href="#ArialMT-67"/>
      <use x="133.447265625" xlink:href="#ArialMT-31"/>
      <use x="189.0625" xlink:href="#ArialMT-30"/>
      <use x="244.677734375" xlink:href="#ArialMT-20"/>
      <use x="272.4609375" xlink:href="#ArialMT-6f"/>
      <use x="328.076171875" xlink:href="#ArialMT-66"/>
      <use x="355.859375" xlink:href="#ArialMT-20"/>
      <use x="383.642578125" xlink:href="#ArialMT-28"/>
      <use x="416.943359375" xlink:href="#ArialMT-23"/>
      <use x="472.55859375" xlink:href="#ArialMT-20"/>
      <use x="500.341796875" xlink:href="#ArialMT-66"/>
      <use x="528.125" xlink:href="#ArialMT-2d"/>
      <use x="561.42578125" xlink:href="#ArialMT-65"/>
      <use x="617.041015625" xlink:href="#ArialMT-76"/>
      <use x="667.041015625" xlink:href="#ArialMT-61"/>
      <use x="722.65625" xlink:href="#ArialMT-6c"/>
      <use x="744.873046875" xlink:href="#ArialMT-73"/>
      <use x="794.873046875" xlink:href="#ArialMT-20"/>
      <use x="822.65625" xlink:href="#ArialMT-2f"/>
      <use x="850.439453125" xlink:href="#ArialMT-20"/>
      <use x="878.22265625" xlink:href="#ArialMT-64"/>
      <use x="933.837890625" xlink:href="#ArialMT-69"/>
      <use x="956.0546875" xlink:href="#ArialMT-6d"/>
      <use x="1039.35546875" xlink:href="#ArialMT-65"/>
      <use x="1094.97070312" xlink:href="#ArialMT-6e"/>
      <use x="1150.5859375" xlink:href="#ArialMT-73"/>
      <use x="1200.5859375" xlink:href="#ArialMT-69"/>
      <use x="1222.80273438" xlink:href="#ArialMT-6f"/>
      <use x="1278.41796875" xlink:href="#ArialMT-6e"/>
      <use x="1334.03320312" xlink:href="#ArialMT-29"/>
     </g>
    </g>
   </g>
   <g id="matplotlib.axis_2">
    <g id="ytick_1">
     <g id="line2d_94">
      <path clip-path="url(#p505825120b)" d="
M127.2 358.524
L573.6 358.524" style="fill:none;stroke:#000000;stroke-dasharray:1.000000,3.000000;stroke-dashoffset:0.0;stroke-width:0.5;"/>
     </g>
     <g id="line2d_95">
      <defs>
       <path d="
M0 0
L4 0" id="m728421d6d4" style="stroke:#000000;stroke-width:0.5;"/>
      </defs>
      <g>
       <use style="stroke:#000000;stroke-width:0.5;" x="127.2" xlink:href="#m728421d6d4" y="358.523530322"/>
      </g>
     </g>
     <g id="line2d_96">
      <defs>
       <path d="
M0 0
L-4 0" id="mcb0005524f" style="stroke:#000000;stroke-width:0.5;"/>
      </defs>
      <g>
       <use style="stroke:#000000;stroke-width:0.5;" x="573.6" xlink:href="#mcb0005524f" y="358.523530322"/>
      </g>
     </g>
     <g id="text_6">
      <!-- 0.0 -->
      <defs>
       <path d="
M9.07812 0
L9.07812 10.0156
L19.0938 10.0156
L19.0938 0
z
" id="ArialMT-2e"/>
      </defs>
      <g transform="translate(97.1875 363.693842822)scale(0.2 -0.2)">
       <use xlink:href="#ArialMT-30"/>
       <use x="55.615234375" xlink:href="#ArialMT-2e"/>
       <use x="83.3984375" xlink:href="#ArialMT-30"/>
      </g>
     </g>
    </g>
    <g id="ytick_2">
     <g id="line2d_97">
      <path clip-path="url(#p505825120b)" d="
M127.2 290.088
L573.6 290.088" style="fill:none;stroke:#000000;stroke-dasharray:1.000000,3.000000;stroke-dashoffset:0.0;stroke-width:0.5;"/>
     </g>
     <g id="line2d_98">
      <g>
       <use style="stroke:#000000;stroke-width:0.5;" x="127.2" xlink:href="#m728421d6d4" y="290.087886757"/>
      </g>
     </g>
     <g id="line2d_99">
      <g>
       <use style="stroke:#000000;stroke-width:0.5;" x="573.6" xlink:href="#mcb0005524f" y="290.087886757"/>
      </g>
     </g>
     <g id="text_7">
      <!-- 0.2 -->
      <g transform="translate(97.284375 295.258199257)scale(0.2 -0.2)">
       <use xlink:href="#ArialMT-30"/>
       <use x="55.615234375" xlink:href="#ArialMT-2e"/>
       <use x="83.3984375" xlink:href="#ArialMT-32"/>
      </g>
     </g>
    </g>
    <g id="ytick_3">
     <g id="line2d_100">
      <path clip-path="url(#p505825120b)" d="
M127.2 221.652
L573.6 221.652" style="fill:none;stroke:#000000;stroke-dasharray:1.000000,3.000000;stroke-dashoffset:0.0;stroke-width:0.5;"/>
     </g>
     <g id="line2d_101">
      <g>
       <use style="stroke:#000000;stroke-width:0.5;" x="127.2" xlink:href="#m728421d6d4" y="221.652243193"/>
      </g>
     </g>
     <g id="line2d_102">
      <g>
       <use style="stroke:#000000;stroke-width:0.5;" x="573.6" xlink:href="#mcb0005524f" y="221.652243193"/>
      </g>
     </g>
     <g id="text_8">
      <!-- 0.4 -->
      <defs>
       <path d="
M32.3281 0
L32.3281 17.1406
L1.26562 17.1406
L1.26562 25.2031
L33.9375 71.5781
L41.1094 71.5781
L41.1094 25.2031
L50.7812 25.2031
L50.7812 17.1406
L41.1094 17.1406
L41.1094 0
z

M32.3281 25.2031
L32.3281 57.4688
L9.90625 25.2031
z
" id="ArialMT-34"/>
      </defs>
      <g transform="translate(97.196875 226.822555693)scale(0.2 -0.2)">
       <use xlink:href="#ArialMT-30"/>
       <use x="55.615234375" xlink:href="#ArialMT-2e"/>
       <use x="83.3984375" xlink:href="#ArialMT-34"/>
      </g>
     </g>
    </g>
    <g id="ytick_4">
     <g id="line2d_103">
      <path clip-path="url(#p505825120b)" d="
M127.2 153.217
L573.6 153.217" style="fill:none;stroke:#000000;stroke-dasharray:1.000000,3.000000;stroke-dashoffset:0.0;stroke-width:0.5;"/>
     </g>
     <g id="line2d_104">
      <g>
       <use style="stroke:#000000;stroke-width:0.5;" x="127.2" xlink:href="#m728421d6d4" y="153.216599629"/>
      </g>
     </g>
     <g id="line2d_105">
      <g>
       <use style="stroke:#000000;stroke-width:0.5;" x="573.6" xlink:href="#mcb0005524f" y="153.216599629"/>
      </g>
     </g>
     <g id="text_9">
      <!-- 0.6 -->
      <defs>
       <path d="
M49.75 54.0469
L41.0156 53.375
Q39.8438 58.5469 37.7031 60.8906
Q34.125 64.6562 28.9062 64.6562
Q24.7031 64.6562 21.5312 62.3125
Q17.3906 59.2812 14.9844 53.4688
Q12.5938 47.6562 12.5 36.9219
Q15.6719 41.75 20.2656 44.0938
Q24.8594 46.4375 29.8906 46.4375
Q38.6719 46.4375 44.8438 39.9688
Q51.0312 33.5 51.0312 23.25
Q51.0312 16.5 48.125 10.7188
Q45.2188 4.9375 40.1406 1.85938
Q35.0625 -1.21875 28.6094 -1.21875
Q17.625 -1.21875 10.6875 6.85938
Q3.76562 14.9375 3.76562 33.5
Q3.76562 54.25 11.4219 63.6719
Q18.1094 71.875 29.4375 71.875
Q37.8906 71.875 43.2812 67.1406
Q48.6875 62.4062 49.75 54.0469
M13.875 23.1875
Q13.875 18.6562 15.7969 14.5
Q17.7188 10.3594 21.1875 8.17188
Q24.6562 6 28.4688 6
Q34.0312 6 38.0312 10.4844
Q42.0469 14.9844 42.0469 22.7031
Q42.0469 30.125 38.0781 34.3906
Q34.125 38.6719 28.125 38.6719
Q22.1719 38.6719 18.0156 34.3906
Q13.875 30.125 13.875 23.1875" id="ArialMT-36"/>
      </defs>
      <g transform="translate(97.146875 158.386912129)scale(0.2 -0.2)">
       <use xlink:href="#ArialMT-30"/>
       <use x="55.615234375" xlink:href="#ArialMT-2e"/>
       <use x="83.3984375" xlink:href="#ArialMT-36"/>
      </g>
     </g>
    </g>
    <g id="ytick_5">
     <g id="line2d_106">
      <path clip-path="url(#p505825120b)" d="
M127.2 84.781
L573.6 84.781" style="fill:none;stroke:#000000;stroke-dasharray:1.000000,3.000000;stroke-dashoffset:0.0;stroke-width:0.5;"/>
     </g>
     <g id="line2d_107">
      <g>
       <use style="stroke:#000000;stroke-width:0.5;" x="127.2" xlink:href="#m728421d6d4" y="84.7809560644"/>
      </g>
     </g>
     <g id="line2d_108">
      <g>
       <use style="stroke:#000000;stroke-width:0.5;" x="573.6" xlink:href="#mcb0005524f" y="84.7809560644"/>
      </g>
     </g>
     <g id="text_10">
      <!-- 0.8 -->
      <defs>
       <path d="
M17.6719 38.8125
Q12.2031 40.8281 9.5625 44.5312
Q6.9375 48.25 6.9375 53.4219
Q6.9375 61.2344 12.5469 66.5469
Q18.1719 71.875 27.4844 71.875
Q36.8594 71.875 42.5781 66.4219
Q48.2969 60.9844 48.2969 53.1719
Q48.2969 48.1875 45.6719 44.5
Q43.0625 40.8281 37.75 38.8125
Q44.3438 36.6719 47.7812 31.875
Q51.2188 27.0938 51.2188 20.4531
Q51.2188 11.2812 44.7188 5.03125
Q38.2344 -1.21875 27.6406 -1.21875
Q17.0469 -1.21875 10.5469 5.04688
Q4.04688 11.3281 4.04688 20.7031
Q4.04688 27.6875 7.59375 32.3906
Q11.1406 37.1094 17.6719 38.8125
M15.9219 53.7188
Q15.9219 48.6406 19.1875 45.4062
Q22.4688 42.1875 27.6875 42.1875
Q32.7656 42.1875 36.0156 45.375
Q39.2656 48.5781 39.2656 53.2188
Q39.2656 58.0625 35.9062 61.3594
Q32.5625 64.6562 27.5938 64.6562
Q22.5625 64.6562 19.2344 61.4219
Q15.9219 58.2031 15.9219 53.7188
M13.0938 20.6562
Q13.0938 16.8906 14.875 13.375
Q16.6562 9.85938 20.1719 7.92188
Q23.6875 6 27.7344 6
Q34.0312 6 38.125 10.0469
Q42.2344 14.1094 42.2344 20.3594
Q42.2344 26.7031 38.0156 30.8594
Q33.7969 35.0156 27.4375 35.0156
Q21.2344 35.0156 17.1562 30.9062
Q13.0938 26.8125 13.0938 20.6562" id="ArialMT-38"/>
      </defs>
      <g transform="translate(97.109375 89.9512685644)scale(0.2 -0.2)">
       <use xlink:href="#ArialMT-30"/>
       <use x="55.615234375" xlink:href="#ArialMT-2e"/>
       <use x="83.3984375" xlink:href="#ArialMT-38"/>
      </g>
     </g>
    </g>
    <g id="ytick_6">
     <g id="line2d_109">
      <path clip-path="url(#p505825120b)" d="
M127.2 16.3453
L573.6 16.3453" style="fill:none;stroke:#000000;stroke-dasharray:1.000000,3.000000;stroke-dashoffset:0.0;stroke-width:0.5;"/>
     </g>
     <g id="line2d_110">
      <g>
       <use style="stroke:#000000;stroke-width:0.5;" x="127.2" xlink:href="#m728421d6d4" y="16.3453125"/>
      </g>
     </g>
     <g id="line2d_111">
      <g>
       <use style="stroke:#000000;stroke-width:0.5;" x="573.6" xlink:href="#mcb0005524f" y="16.3453125"/>
      </g>
     </g>
     <g id="text_11">
      <!-- 1.0 -->
      <g transform="translate(98.534375 21.515625)scale(0.2 -0.2)">
       <use xlink:href="#ArialMT-31"/>
       <use x="55.615234375" xlink:href="#ArialMT-2e"/>
       <use x="83.3984375" xlink:href="#ArialMT-30"/>
      </g>
     </g>
    </g>
    <g id="text_12">
     <!-- Proportion of function+target pairs -->
     <defs>
      <path d="
M40.4375 19
L49.0781 17.875
Q47.6562 8.9375 41.8125 3.875
Q35.9844 -1.17188 27.4844 -1.17188
Q16.8438 -1.17188 10.375 5.78125
Q3.90625 12.75 3.90625 25.7344
Q3.90625 34.125 6.6875 40.4219
Q9.46875 46.7344 15.1562 49.875
Q20.8438 53.0312 27.5469 53.0312
Q35.9844 53.0312 41.3594 48.75
Q46.7344 44.4844 48.25 36.625
L39.7031 35.2969
Q38.4844 40.5312 35.375 43.1562
Q32.2812 45.7969 27.875 45.7969
Q21.2344 45.7969 17.0781 41.0312
Q12.9375 36.2812 12.9375 25.9844
Q12.9375 15.5312 16.9375 10.7969
Q20.9531 6.0625 27.3906 6.0625
Q32.5625 6.0625 36.0312 9.23438
Q39.5 12.4062 40.4375 19" id="ArialMT-63"/>
      <path d="
M25.7812 7.85938
L27.0469 0.09375
Q23.3438 -0.6875 20.4062 -0.6875
Q15.625 -0.6875 12.9844 0.828125
Q10.3594 2.34375 9.28125 4.8125
Q8.20312 7.28125 8.20312 15.1875
L8.20312 45.0156
L1.76562 45.0156
L1.76562 51.8594
L8.20312 51.8594
L8.20312 64.7031
L16.9375 69.9688
L16.9375 51.8594
L25.7812 51.8594
L25.7812 45.0156
L16.9375 45.0156
L16.9375 14.7031
Q16.9375 10.9375 17.4062 9.85938
Q17.875 8.79688 18.9219 8.15625
Q19.9688 7.51562 21.9219 7.51562
Q23.3906 7.51562 25.7812 7.85938" id="ArialMT-74"/>
      <path d="
M40.5781 0
L40.5781 7.625
Q34.5156 -1.17188 24.125 -1.17188
Q19.5312 -1.17188 15.5469 0.578125
Q11.5781 2.34375 9.64062 5
Q7.71875 7.67188 6.9375 11.5312
Q6.39062 14.1094 6.39062 19.7344
L6.39062 51.8594
L15.1875 51.8594
L15.1875 23.0938
Q15.1875 16.2188 15.7188 13.8125
Q16.5469 10.3594 19.2344 8.375
Q21.9219 6.39062 25.875 6.39062
Q29.8281 6.39062 33.2969 8.42188
Q36.7656 10.4531 38.2031 13.9375
Q39.6562 17.4375 39.6562 24.0781
L39.6562 51.8594
L48.4375 51.8594
L48.4375 0
z
" id="ArialMT-75"/>
      <path d="
M7.71875 0
L7.71875 71.5781
L34.7188 71.5781
Q41.8438 71.5781 45.6094 70.9062
Q50.875 70.0156 54.4375 67.5469
Q58.0156 65.0938 60.1875 60.6406
Q62.3594 56.2031 62.3594 50.875
Q62.3594 41.75 56.5469 35.4219
Q50.7344 29.1094 35.5469 29.1094
L17.1875 29.1094
L17.1875 0
z

M17.1875 37.5469
L35.6875 37.5469
Q44.875 37.5469 48.7344 40.9688
Q52.5938 44.3906 52.5938 50.5938
Q52.5938 55.0781 50.3125 58.2656
Q48.0469 61.4688 44.3438 62.5
Q41.9375 63.1406 35.5 63.1406
L17.1875 63.1406
z
" id="ArialMT-50"/>
      <path d="
M6.59375 -19.875
L6.59375 51.8594
L14.5938 51.8594
L14.5938 45.125
Q17.4375 49.0781 21 51.0469
Q24.5625 53.0312 29.6406 53.0312
Q36.2812 53.0312 41.3594 49.6094
Q46.4375 46.1875 49.0156 39.9531
Q51.6094 33.7344 51.6094 26.3125
Q51.6094 18.3594 48.75 11.9844
Q45.9062 5.60938 40.4531 2.21875
Q35.0156 -1.17188 29 -1.17188
Q24.6094 -1.17188 21.1094 0.6875
Q17.625 2.54688 15.375 5.375
L15.375 -19.875
z

M14.5469 25.6406
Q14.5469 15.625 18.5938 10.8438
Q22.6562 6.0625 28.4219 6.0625
Q34.2812 6.0625 38.4531 11.0156
Q42.625 15.9688 42.625 26.375
Q42.625 36.2812 38.5469 41.2031
Q34.4688 46.1406 28.8125 46.1406
Q23.1875 46.1406 18.8594 40.8906
Q14.5469 35.6406 14.5469 25.6406" id="ArialMT-70"/>
      <path d="
M25.0469 11.5781
L25.0469 31.2031
L5.5625 31.2031
L5.5625 39.4062
L25.0469 39.4062
L25.0469 58.8906
L33.3438 58.8906
L33.3438 39.4062
L52.8281 39.4062
L52.8281 31.2031
L33.3438 31.2031
L33.3438 11.5781
z
" id="ArialMT-2b"/>
      <path d="
M6.5 0
L6.5 51.8594
L14.4062 51.8594
L14.4062 44
Q17.4375 49.5156 20 51.2656
Q22.5625 53.0312 25.6406 53.0312
Q30.0781 53.0312 34.6719 50.2031
L31.6406 42.0469
Q28.4219 43.9531 25.2031 43.9531
Q22.3125 43.9531 20.0156 42.2188
Q17.7188 40.4844 16.75 37.4062
Q15.2812 32.7188 15.2812 27.1562
L15.2812 0
z
" id="ArialMT-72"/>
     </defs>
     <g transform="translate(88.3209375 321.197436572)rotate(-90.0)scale(0.18 -0.18)">
      <use xlink:href="#ArialMT-50"/>
      <use x="66.69921875" xlink:href="#ArialMT-72"/>
      <use x="100.0" xlink:href="#ArialMT-6f"/>
      <use x="155.615234375" xlink:href="#ArialMT-70"/>
      <use x="211.23046875" xlink:href="#ArialMT-6f"/>
      <use x="266.845703125" xlink:href="#ArialMT-72"/>
      <use x="300.146484375" xlink:href="#ArialMT-74"/>
      <use x="327.9296875" xlink:href="#ArialMT-69"/>
      <use x="350.146484375" xlink:href="#ArialMT-6f"/>
      <use x="405.76171875" xlink:href="#ArialMT-6e"/>
      <use x="461.376953125" xlink:href="#ArialMT-20"/>
      <use x="489.16015625" xlink:href="#ArialMT-6f"/>
      <use x="544.775390625" xlink:href="#ArialMT-66"/>
      <use x="572.55859375" xlink:href="#ArialMT-20"/>
      <use x="600.341796875" xlink:href="#ArialMT-66"/>
      <use x="628.125" xlink:href="#ArialMT-75"/>
      <use x="683.740234375" xlink:href="#ArialMT-6e"/>
      <use x="739.35546875" xlink:href="#ArialMT-63"/>
      <use x="789.35546875" xlink:href="#ArialMT-74"/>
      <use x="817.138671875" xlink:href="#ArialMT-69"/>
      <use x="839.35546875" xlink:href="#ArialMT-6f"/>
      <use x="894.970703125" xlink:href="#ArialMT-6e"/>
      <use x="950.5859375" xlink:href="#ArialMT-2b"/>
      <use x="1008.984375" xlink:href="#ArialMT-74"/>
      <use x="1036.76757812" xlink:href="#ArialMT-61"/>
      <use x="1092.3828125" xlink:href="#ArialMT-72"/>
      <use x="1125.68359375" xlink:href="#ArialMT-67"/>
      <use x="1181.29882812" xlink:href="#ArialMT-65"/>
      <use x="1236.9140625" xlink:href="#ArialMT-74"/>
      <use x="1264.69726562" xlink:href="#ArialMT-20"/>
      <use x="1292.48046875" xlink:href="#ArialMT-70"/>
      <use x="1348.09570312" xlink:href="#ArialMT-61"/>
      <use x="1403.7109375" xlink:href="#ArialMT-69"/>
      <use x="1425.92773438" xlink:href="#ArialMT-72"/>
      <use x="1459.22851562" xlink:href="#ArialMT-73"/>
     </g>
    </g>
   </g>
   <g id="patch_3">
    <path d="
M127.2 12.9235
L573.6 12.9235" style="fill:none;stroke:#000000;"/>
   </g>
   <g id="patch_4">
    <path d="
M573.6 358.524
L573.6 12.9235" style="fill:none;stroke:#000000;"/>
   </g>
   <g id="patch_5">
    <path d="
M127.2 358.524
L573.6 358.524" style="fill:none;stroke:#000000;"/>
   </g>
   <g id="patch_6">
    <path d="
M127.2 358.524
L127.2 12.9235" style="fill:none;stroke:#000000;"/>
   </g>
   <g id="text_13">
    <!-- 2-D -->
    <defs>
     <path d="
M7.71875 0
L7.71875 71.5781
L32.375 71.5781
Q40.7188 71.5781 45.125 70.5625
Q51.2656 69.1406 55.6094 65.4375
Q61.2812 60.6406 64.0781 53.1875
Q66.8906 45.75 66.8906 36.1875
Q66.8906 28.0312 64.9844 21.7344
Q63.0938 15.4375 60.1094 11.2969
Q57.125 7.17188 53.5781 4.79688
Q50.0469 2.4375 45.0469 1.21875
Q40.0469 0 33.5469 0
z

M17.1875 8.45312
L32.4688 8.45312
Q39.5469 8.45312 43.5781 9.76562
Q47.6094 11.0781 50 13.4844
Q53.375 16.8438 55.25 22.5312
Q57.125 28.2188 57.125 36.3281
Q57.125 47.5625 53.4375 53.5938
Q49.75 59.625 44.4844 61.6719
Q40.6719 63.1406 32.2344 63.1406
L17.1875 63.1406
z
" id="ArialMT-44"/>
    </defs>
    <g transform="translate(534.0 355.55770034)scale(0.15 -0.15)">
     <use xlink:href="#ArialMT-32"/>
     <use x="55.615234375" xlink:href="#ArialMT-2d"/>
     <use x="88.916015625" xlink:href="#ArialMT-44"/>
    </g>
   </g>
   <g id="text_14">
    <!-- 10-D -->
    <g transform="translate(534.0 246.060670637)scale(0.15 -0.15)">
     <use xlink:href="#ArialMT-31"/>
     <use x="55.615234375" xlink:href="#ArialMT-30"/>
     <use x="111.23046875" xlink:href="#ArialMT-2d"/>
     <use x="144.53125" xlink:href="#ArialMT-44"/>
    </g>
   </g>
   <g id="text_15">
    <!-- 5-D -->
    <defs>
     <path d="
M4.15625 18.75
L13.375 19.5312
Q14.4062 12.7969 18.1406 9.39062
Q21.875 6 27.1562 6
Q33.5 6 37.8906 10.7812
Q42.2812 15.5781 42.2812 23.4844
Q42.2812 31 38.0625 35.3438
Q33.8438 39.7031 27 39.7031
Q22.75 39.7031 19.3281 37.7656
Q15.9219 35.8438 13.9688 32.7656
L5.71875 33.8438
L12.6406 70.6094
L48.25 70.6094
L48.25 62.2031
L19.6719 62.2031
L15.8281 42.9688
Q22.2656 47.4688 29.3438 47.4688
Q38.7188 47.4688 45.1562 40.9688
Q51.6094 34.4688 51.6094 24.2656
Q51.6094 14.5469 45.9531 7.46875
Q39.0625 -1.21875 27.1562 -1.21875
Q17.3906 -1.21875 11.2031 4.25
Q5.03125 9.71875 4.15625 18.75" id="ArialMT-35"/>
    </defs>
    <g transform="translate(534.0 136.563640934)scale(0.15 -0.15)">
     <use xlink:href="#ArialMT-35"/>
     <use x="55.615234375" xlink:href="#ArialMT-2d"/>
     <use x="88.916015625" xlink:href="#ArialMT-44"/>
    </g>
   </g>
   <g id="text_16">
    <!-- 3-D -->
    <g transform="translate(534.0 27.0666112314)scale(0.15 -0.15)">
     <use xlink:href="#ArialMT-33"/>
     <use x="55.615234375" xlink:href="#ArialMT-2d"/>
     <use x="88.916015625" xlink:href="#ArialMT-44"/>
    </g>
   </g>
   <g id="text_17">
    <!-- bbob - f6-f9 -->
    <defs>
     <path d="
M14.7031 0
L6.54688 0
L6.54688 71.5781
L15.3281 71.5781
L15.3281 46.0469
Q20.9062 53.0312 29.5469 53.0312
Q34.3281 53.0312 38.5938 51.0938
Q42.875 49.1719 45.625 45.6719
Q48.3906 42.1875 49.9531 37.25
Q51.5156 32.3281 51.5156 26.7031
Q51.5156 13.375 44.9219 6.09375
Q38.3281 -1.17188 29.1094 -1.17188
Q19.9219 -1.17188 14.7031 6.5
z

M14.5938 26.3125
Q14.5938 17 17.1406 12.8438
Q21.2969 6.0625 28.375 6.0625
Q34.125 6.0625 38.3281 11.0625
Q42.5312 16.0625 42.5312 25.9844
Q42.5312 36.1406 38.5 40.9688
Q34.4688 45.7969 28.7656 45.7969
Q23 45.7969 18.7969 40.7969
Q14.5938 35.7969 14.5938 26.3125" id="ArialMT-62"/>
     <path d="
M5.46875 16.5469
L13.9219 17.3281
Q14.9844 11.375 18.0156 8.6875
Q21.0469 6 25.7812 6
Q29.8281 6 32.875 7.85938
Q35.9375 9.71875 37.8906 12.8125
Q39.8438 15.9219 41.1562 21.1875
Q42.4844 26.4688 42.4844 31.9375
Q42.4844 32.5156 42.4375 33.6875
Q39.7969 29.5 35.2344 26.875
Q30.6719 24.2656 25.3438 24.2656
Q16.4531 24.2656 10.2969 30.7031
Q4.15625 37.1562 4.15625 47.7031
Q4.15625 58.5938 10.5781 65.2344
Q17 71.875 26.6562 71.875
Q33.6406 71.875 39.4219 68.1094
Q45.2188 64.3594 48.2188 57.3906
Q51.2188 50.4375 51.2188 37.25
Q51.2188 23.5312 48.2344 15.4062
Q45.2656 7.28125 39.375 3.03125
Q33.5 -1.21875 25.5938 -1.21875
Q17.1875 -1.21875 11.8594 3.4375
Q6.54688 8.10938 5.46875 16.5469
M41.4531 48.1406
Q41.4531 55.7188 37.4219 60.1562
Q33.4062 64.5938 27.7344 64.5938
Q21.875 64.5938 17.5312 59.8125
Q13.1875 55.0312 13.1875 47.4062
Q13.1875 40.5781 17.3125 36.2969
Q21.4375 32.0312 27.4844 32.0312
Q33.5938 32.0312 37.5156 36.2969
Q41.4531 40.5781 41.4531 48.1406" id="ArialMT-39"/>
    </defs>
    <g transform="translate(131.664 31.7604459468)scale(0.1666 -0.1666)">
     <use xlink:href="#ArialMT-62"/>
     <use x="55.615234375" xlink:href="#ArialMT-62"/>
     <use x="111.23046875" xlink:href="#ArialMT-6f"/>
     <use x="166.845703125" xlink:href="#ArialMT-62"/>
     <use x="222.4609375" xlink:href="#ArialMT-20"/>
     <use x="250.244140625" xlink:href="#ArialMT-2d"/>
     <use x="283.544921875" xlink:href="#ArialMT-20"/>
     <use x="311.328125" xlink:href="#ArialMT-66"/>
     <use x="339.111328125" xlink:href="#ArialMT-36"/>
     <use x="394.7265625" xlink:href="#ArialMT-2d"/>
     <use x="428.02734375" xlink:href="#ArialMT-66"/>
     <use x="455.810546875" xlink:href="#ArialMT-39"/>
    </g>
    <!-- 31 target RLs/dim: 0.5..50 -->
    <defs>
     <path d="
M7.85938 0
L7.85938 71.5781
L39.5938 71.5781
Q49.1719 71.5781 54.1406 69.6406
Q59.125 67.7188 62.1094 62.8281
Q65.0938 57.9531 65.0938 52.0469
Q65.0938 44.4375 60.1562 39.2031
Q55.2188 33.9844 44.9219 32.5625
Q48.6875 30.7656 50.6406 29
Q54.7812 25.2031 58.5 19.4844
L70.9531 0
L59.0312 0
L49.5625 14.8906
Q45.4062 21.3438 42.7188 24.75
Q40.0469 28.1719 37.9219 29.5312
Q35.7969 30.9062 33.5938 31.4531
Q31.9844 31.7812 28.3281 31.7812
L17.3281 31.7812
L17.3281 0
z

M17.3281 39.9844
L37.7031 39.9844
Q44.1875 39.9844 47.8438 41.3281
Q51.5156 42.6719 53.4219 45.625
Q55.3281 48.5781 55.3281 52.0469
Q55.3281 57.125 51.6406 60.3906
Q47.9531 63.6719 39.9844 63.6719
L17.3281 63.6719
z
" id="ArialMT-52"/>
     <path d="
M9.03125 41.8438
L9.03125 51.8594
L19.0469 51.8594
L19.0469 41.8438
z

M9.03125 0
L9.03125 10.0156
L19.0469 10.0156
L19.0469 0
z
" id="ArialMT-3a"/>
     <path d="
M7.32812 0
L7.32812 71.5781
L16.7969 71.5781
L16.7969 8.45312
L52.0469 8.45312
L52.0469 0
z
" id="ArialMT-4c"/>
    </defs>
    <g transform="translate(131.664 49.6251721968)scale(0.1666 -0.1666)">
     <use xlink:href="#ArialMT-33"/>
     <use x="55.615234375" xlink:href="#ArialMT-31"/>
     <use x="111.23046875" xlink:href="#ArialMT-20"/>
     <use x="139.013671875" xlink:href="#ArialMT-74"/>
     <use x="166.796875" xlink:href="#ArialMT-61"/>
     <use x="222.412109375" xlink:href="#ArialMT-72"/>
     <use x="255.712890625" xlink:href="#ArialMT-67"/>
     <use x="311.328125" xlink:href="#ArialMT-65"/>
     <use x="366.943359375" xlink:href="#ArialMT-74"/>
     <use x="394.7265625" xlink:href="#ArialMT-20"/>
     <use x="422.509765625" xlink:href="#ArialMT-52"/>
     <use x="494.7265625" xlink:href="#ArialMT-4c"/>
     <use x="550.341796875" xlink:href="#ArialMT-73"/>
     <use x="600.341796875" xlink:href="#ArialMT-2f"/>
     <use x="628.125" xlink:href="#ArialMT-64"/>
     <use x="683.740234375" xlink:href="#ArialMT-69"/>
     <use x="705.95703125" xlink:href="#ArialMT-6d"/>
     <use x="789.2578125" xlink:href="#ArialMT-3a"/>
     <use x="817.041015625" xlink:href="#ArialMT-20"/>
     <use x="844.82421875" xlink:href="#ArialMT-30"/>
     <use x="900.439453125" xlink:href="#ArialMT-2e"/>
     <use x="928.22265625" xlink:href="#ArialMT-35"/>
     <use x="983.837890625" xlink:href="#ArialMT-2e"/>
     <use x="1011.62109375" xlink:href="#ArialMT-2e"/>
     <use x="1039.40429688" xlink:href="#ArialMT-35"/>
     <use x="1095.01953125" xlink:href="#ArialMT-30"/>
    </g>
    <!--    from refalgs/best2009-bbob.tar.gz -->
    <defs>
     <path d="
M1.95312 0
L1.95312 7.125
L34.9688 45.0156
Q29.3438 44.7344 25.0469 44.7344
L3.90625 44.7344
L3.90625 51.8594
L46.2969 51.8594
L46.2969 46.0469
L18.2188 13.1406
L12.7969 7.125
Q18.7031 7.5625 23.875 7.5625
L47.8594 7.5625
L47.8594 0
z
" id="ArialMT-7a"/>
    </defs>
    <g transform="translate(131.664 67.6851328218)scale(0.1666 -0.1666)">
     <use xlink:href="#ArialMT-20"/>
     <use x="27.783203125" xlink:href="#ArialMT-20"/>
     <use x="55.56640625" xlink:href="#ArialMT-20"/>
     <use x="83.349609375" xlink:href="#ArialMT-66"/>
     <use x="111.1328125" xlink:href="#ArialMT-72"/>
     <use x="144.43359375" xlink:href="#ArialMT-6f"/>
     <use x="200.048828125" xlink:href="#ArialMT-6d"/>
     <use x="283.349609375" xlink:href="#ArialMT-20"/>
     <use x="311.1328125" xlink:href="#ArialMT-72"/>
     <use x="344.43359375" xlink:href="#ArialMT-65"/>
     <use x="400.048828125" xlink:href="#ArialMT-66"/>
     <use x="427.83203125" xlink:href="#ArialMT-61"/>
     <use x="483.447265625" xlink:href="#ArialMT-6c"/>
     <use x="505.6640625" xlink:href="#ArialMT-67"/>
     <use x="561.279296875" xlink:href="#ArialMT-73"/>
     <use x="611.279296875" xlink:href="#ArialMT-2f"/>
     <use x="639.0625" xlink:href="#ArialMT-62"/>
     <use x="694.677734375" xlink:href="#ArialMT-65"/>
     <use x="750.29296875" xlink:href="#ArialMT-73"/>
     <use x="800.29296875" xlink:href="#ArialMT-74"/>
     <use x="828.076171875" xlink:href="#ArialMT-32"/>
     <use x="883.69140625" xlink:href="#ArialMT-30"/>
     <use x="939.306640625" xlink:href="#ArialMT-30"/>
     <use x="994.921875" xlink:href="#ArialMT-39"/>
     <use x="1050.53710938" xlink:href="#ArialMT-2d"/>
     <use x="1083.83789062" xlink:href="#ArialMT-62"/>
     <use x="1139.453125" xlink:href="#ArialMT-62"/>
     <use x="1195.06835938" xlink:href="#ArialMT-6f"/>
     <use x="1250.68359375" xlink:href="#ArialMT-62"/>
     <use x="1306.29882812" xlink:href="#ArialMT-2e"/>
     <use x="1334.08203125" xlink:href="#ArialMT-74"/>
     <use x="1361.86523438" xlink:href="#ArialMT-61"/>
     <use x="1417.48046875" xlink:href="#ArialMT-72"/>
     <use x="1445.28125" xlink:href="#ArialMT-2e"/>
     <use x="1473.06445312" xlink:href="#ArialMT-67"/>
     <use x="1528.6796875" xlink:href="#ArialMT-7a"/>
    </g>
    <!-- 15 instances -->
    <g transform="translate(131.664 85.5014409468)scale(0.1666 -0.1666)">
     <use xlink:href="#ArialMT-31"/>
     <use x="55.615234375" xlink:href="#ArialMT-35"/>
     <use x="111.23046875" xlink:href="#ArialMT-20"/>
     <use x="139.013671875" xlink:href="#ArialMT-69"/>
     <use x="161.23046875" xlink:href="#ArialMT-6e"/>
     <use x="216.845703125" xlink:href="#ArialMT-73"/>
     <use x="266.845703125" xlink:href="#ArialMT-74"/>
     <use x="294.62890625" xlink:href="#ArialMT-61"/>
     <use x="350.244140625" xlink:href="#ArialMT-6e"/>
     <use x="405.859375" xlink:href="#ArialMT-63"/>
     <use x="455.859375" xlink:href="#ArialMT-65"/>
     <use x="511.474609375" xlink:href="#ArialMT-73"/>
    </g>
   </g>
   <g id="text_18">
    <!-- v2.0.1 -->
    <g style="fill:#808080;" transform="translate(337.76171875 353.080030322)scale(0.1 -0.1)">
     <use xlink:href="#ArialMT-76"/>
     <use x="50.0" xlink:href="#ArialMT-32"/>
     <use x="105.615234375" xlink:href="#ArialMT-2e"/>
     <use x="133.3984375" xlink:href="#ArialMT-30"/>
     <use x="189.013671875" xlink:href="#ArialMT-2e"/>
     <use x="216.796875" xlink:href="#ArialMT-31"/>
    </g>
   </g>
  </g>
 </g>
 <defs>
  <clipPath id="p505825120b">
   <rect height="345.6" width="446.4" x="127.2" y="12.9235303218"/>
  </clipPath>
 </defs>
</svg>
