<?xml version="1.0" encoding="utf-8" standalone="no"?>
<!DOCTYPE svg PUBLIC "-//W3C//DTD SVG 1.1//EN"
  "http://www.w3.org/Graphics/SVG/1.1/DTD/svg11.dtd">
<!-- Created with matplotlib (http://matplotlib.org/) -->
<svg height="406pt" version="1.1" viewBox="0 0 460 406" width="460pt" xmlns="http://www.w3.org/2000/svg" xmlns:xlink="http://www.w3.org/1999/xlink">
 <defs>
  <style type="text/css">
*{stroke-linecap:butt;stroke-linejoin:round;}
  </style>
 </defs>
 <g id="figure_1">
  <g id="patch_1">
   <path d="
M0 406.059
L460.8 406.059
L460.8 0
L0 0
z
" style="fill:#ffffff;"/>
  </g>
  <g id="axes_1">
   <g id="patch_2">
    <path d="
M7.2 352.8
L453.6 352.8
L453.6 7.2
L7.2 7.2
z
" style="fill:#ffffff;"/>
   </g>
   <g id="line2d_1">
    <path clip-path="url(#p5bee155178)" d="
M-1 338.543
L9.44271 338.543
L9.44271 337.592
L69.7195 337.592
L69.7195 336.642
L75.4009 336.642
L75.4009 335.691
L76.8147 335.691
L76.8147 334.741
L81.51 334.741
L81.51 333.79
L99.9151 333.79
L99.9151 332.84
L109.472 332.84
L109.472 331.889
L121.018 331.889
L121.018 330.939
L122.357 330.939
L122.357 329.988
L131.074 329.988
L131.074 329.038
L131.838 329.038
L131.838 328.087
L140.185 328.087
L140.185 327.137
L141.287 327.137
L141.368 325.236
L143.592 325.236
L143.592 324.285
L148.495 324.285
L148.495 323.335
L148.826 323.335
L148.826 322.384
L150.051 322.384
L150.051 321.434
L152.424 321.434
L152.424 320.483
L157.386 320.483
L157.386 319.533
L160.634 319.533
L160.634 318.582
L162.321 318.582
L162.321 317.632
L162.848 317.632
L162.848 316.681
L164.027 316.681
L164.027 315.731
L166.315 315.731
L166.315 314.78
L175.496 314.78
L175.496 313.83
L178.165 313.83
L178.165 312.879
L178.372 312.879
L178.372 311.929
L179.552 311.929
L179.552 310.978
L180.226 310.978
L180.295 309.077
L180.811 309.077
L180.811 308.127
L183.48 308.127
L183.48 307.176
L184.69 307.176
L184.69 306.226
L185.255 306.226
L185.255 305.275
L188.585 305.275
L188.585 304.325
L189.005 304.325
L189.005 303.374
L189.196 303.374
L189.196 302.424
L190.807 302.424
L190.807 301.473
L191 301.473
L191 300.523
L191.31 300.523
L191.31 299.572
L192.552 299.572
L192.552 298.622
L192.849 298.622
L192.849 297.671
L194.058 297.671
L194.058 296.721
L194.329 296.721
L194.329 295.77
L194.755 295.77
L194.755 294.82
L195.366 294.82
L195.366 293.869
L195.939 293.869
L195.939 292.919
L196.55 292.919
L196.55 291.968
L198.852 291.968
L198.852 291.018
L199.251 291.018
L199.251 290.067
L200.915 290.067
L200.915 289.117
L201.589 289.117
L201.615 286.265
L201.959 286.265
L201.959 285.315
L202.451 285.315
L202.451 284.364
L204.017 284.364
L204.07 282.463
L204.223 282.463
L204.3 280.562
L204.602 280.562
L204.702 278.661
L205.633 278.661
L205.633 277.711
L205.818 277.711
L205.818 276.76
L205.934 276.76
L206.04 274.859
L206.265 274.859
L206.33 272.958
L206.528 272.958
L206.528 272.008
L206.805 272.008
L206.805 271.057
L207.011 271.057
L207.011 270.107
L207.823 270.107
L207.823 269.156
L207.984 269.156
L207.984 268.206
L208.545 268.206
L208.545 267.255
L208.694 267.255
L208.705 265.354
L208.969 265.354
L208.974 263.453
L209.262 263.453
L209.262 262.503
L210.082 262.503
L210.082 261.552
L210.327 261.552
L210.41 258.701
L210.557 258.701
L210.636 256.8
L210.743 256.8
L210.743 255.85
L211.189 255.85
L211.189 254.899
L211.421 254.899
L211.421 253.949
L211.697 253.949
L211.804 252.048
L211.941 252.048
L212.038 250.147
L212.068 250.147
L212.068 249.196
L212.183 249.196
L212.183 248.246
L212.301 248.246
L212.408 243.493
L212.744 243.493
L212.744 242.543
L212.907 242.543
L213.011 239.691
L213.241 239.691
L213.241 238.741
L213.358 238.741
L213.386 234.939
L213.671 234.939
L213.744 233.038
L213.801 233.038
L213.801 232.087
L213.936 232.087
L213.936 231.137
L214.074 231.137
L214.173 227.335
L214.299 227.335
L214.299 226.384
L214.459 226.384
L214.526 224.483
L214.701 224.483
L214.764 220.681
L214.838 220.681
L214.897 218.78
L215.044 218.78
L215.044 217.83
L215.254 217.83
L215.351 214.028
L215.366 214.028
L215.366 213.077
L215.547 213.077
L215.636 211.176
L216.06 211.176
L216.128 207.374
L216.26 207.374
L216.304 203.572
L216.379 203.572
L216.386 201.671
L216.705 201.671
L216.705 200.721
L217.34 200.721
L217.414 198.82
L217.606 198.82
L217.647 196.919
L217.752 196.919
L217.752 195.968
L218.398 195.968
L218.398 195.018
L218.536 195.018
L218.536 194.067
L219.069 194.067
L219.165 192.166
L219.625 192.166
L219.701 190.265
L219.818 190.265
L219.827 188.364
L220.084 188.364
L220.084 187.414
L220.399 187.414
L220.435 185.513
L220.536 185.513
L220.568 182.661
L220.807 182.661
L220.807 181.711
L220.93 181.711
L220.93 180.76
L221.093 180.76
L221.093 179.81
L221.36 179.81
L221.36 178.859
L221.581 178.859
L221.61 176.958
L221.823 176.958
L221.823 176.008
L222.2 176.008
L222.2 175.057
L222.454 175.057
L222.454 174.107
L223.014 174.107
L223.014 173.156
L223.277 173.156
L223.361 171.255
L223.425 171.255
L223.425 170.305
L223.894 170.305
L223.894 169.354
L224.372 169.354
L224.372 168.404
L224.515 168.404
L224.589 165.552
L224.782 165.552
L224.82 163.651
L224.914 163.651
L224.914 162.701
L225.084 162.701
L225.084 161.75
L225.299 161.75
L225.299 160.8
L225.605 160.8
L225.605 159.85
L225.969 159.85
L225.969 158.899
L226.109 158.899
L226.169 155.097
L226.375 155.097
L226.432 153.196
L226.623 153.196
L226.623 152.246
L227.54 152.246
L227.54 151.295
L227.747 151.295
L227.747 150.345
L228.36 150.345
L228.36 149.394
L228.477 149.394
L228.51 147.493
L228.84 147.493
L228.915 144.642
L229.16 144.642
L229.219 142.741
L229.371 142.741
L229.371 141.79
L229.549 141.79
L229.549 140.84
L229.904 140.84
L229.904 139.889
L230.039 139.889
L230.072 137.988
L230.299 137.988
L230.299 137.038
L230.5 137.038
L230.5 136.087
L230.614 136.087
L230.614 135.137
L230.741 135.137
L230.741 134.186
L230.876 134.186
L230.876 133.236
L231.071 133.236
L231.071 132.285
L231.186 132.285
L231.227 130.384
L231.597 130.384
L231.597 129.434
L231.965 129.434
L232.057 127.533
L232.175 127.533
L232.176 125.632
L232.303 125.632
L232.4 123.731
L232.787 123.731
L232.893 119.929
L233.257 119.929
L233.257 118.978
L233.49 118.978
L233.49 118.028
L234.264 118.028
L234.264 117.077
L234.395 117.077
L234.395 116.127
L234.656 116.127
L234.745 112.325
L234.788 112.325
L234.788 111.374
L234.9 111.374
L234.9 110.424
L235.214 110.424
L235.313 108.523
L235.441 108.523
L235.543 106.622
L235.706 106.622
L235.814 104.721
L236.134 104.721
L236.134 103.77
L236.325 103.77
L236.325 102.82
L236.625 102.82
L236.641 100.919
L236.854 100.919
L236.951 98.0673
L236.987 98.0673
L237.048 96.1663
L237.213 96.1663
L237.213 95.2158
L237.484 95.2158
L237.536 92.3644
L237.689 92.3644
L237.785 90.4634
L238.016 90.4634
L238.035 88.5624
L238.289 88.5624
L238.289 87.6119
L238.41 87.6119
L238.41 86.6614
L238.732 86.6614
L238.83 84.7604
L238.856 84.7604
L238.933 82.8594
L238.997 82.8594
L239.075 80.9584
L239.515 80.9584
L239.515 80.0079
L240.136 80.0079
L240.234 78.1069
L240.826 78.1069
L240.827 76.2059
L241.043 76.2059
L241.043 75.2554
L241.199 75.2554
L241.242 73.3545
L241.324 73.3545
L241.43 71.4535
L241.537 71.4535
L241.537 70.503
L241.673 70.503
L241.745 68.602
L242.211 68.602
L242.28 66.701
L242.33 66.701
L242.358 64.8
L242.694 64.8
L242.789 62.899
L242.881 62.899
L242.881 61.9485
L243.947 61.9485
L243.979 60.0475
L244.066 60.0475
L244.075 58.1465
L244.31 58.1465
L244.319 56.2455
L244.954 56.2455
L244.954 55.295
L245.585 55.295
L245.585 54.3446
L245.787 54.3446
L245.787 53.3941
L245.907 53.3941
L245.93 51.4931
L246.432 51.4931
L246.432 50.5426
L246.695 50.5426
L246.695 49.5921
L246.976 49.5921
L246.976 48.6416
L247.38 48.6416
L247.38 47.6911
L247.503 47.6911
L247.503 46.7406
L247.938 46.7406
L247.938 45.7901
L248.366 45.7901
L248.366 44.8396
L248.521 44.8396
L248.521 43.8891
L249.13 43.8891
L249.13 42.9386
L249.838 42.9386
L249.838 41.9881
L250.175 41.9881
L250.175 41.0376
L250.882 41.0376
L250.882 40.0871
L251.595 40.0871
L251.595 39.1366
L252.322 39.1366
L252.412 36.2851
L252.801 36.2851
L252.801 35.3347
L254.031 35.3347
L254.031 34.3842
L254.288 34.3842
L254.288 33.4337
L255.581 33.4337
L255.581 32.4832
L256.804 32.4832
L256.804 31.5327
L259.854 31.5327
L259.854 30.5822
L260.23 30.5822
L260.23 29.6317
L262.602 29.6317
L262.602 28.6812
L264.799 28.6812
L264.799 27.7307
L266.652 27.7307
L266.652 26.7802
L267.152 26.7802
L267.152 25.8297
L271.262 25.8297
L271.262 24.8792
L271.927 24.8792
L271.927 23.9287
L272.352 23.9287
L272.352 22.9782
L278.861 22.9782
L278.861 22.0277
L279.824 22.0277
L279.824 21.0772
L280.516 21.0772
L280.516 20.1267
L283.288 20.1267
L283.288 19.1762
L284.483 19.1762
L284.483 18.2257
L284.912 18.2257
L284.912 17.2752
L286.782 17.2752
L286.782 16.3248
L288.232 16.3248
L288.303 14.4238
L291.618 14.4238
L291.618 13.4733
L303.123 13.4733
L303.123 12.5228
L305.533 12.5228
L305.533 11.5723
L309.526 11.5723
L309.526 10.6218
L309.526 10.6218
L453.6 10.6218
L453.6 10.6218" style="fill:none;stroke:#ff0000;stroke-linecap:square;stroke-width:3.0;"/>
   </g>
   <g id="line2d_2">
    <path clip-path="url(#p5bee155178)" d="
M221.597 352.8
L221.597 351.85
L222.404 351.85
L222.404 350.899
L225.738 350.899
L225.804 348.998
L227.036 348.998
L227.036 348.048
L229.241 348.048
L229.241 347.097
L229.423 347.097
L229.439 345.196
L229.94 345.196
L229.951 343.295
L230.452 343.295
L230.452 342.345
L230.568 342.345
L230.568 341.394
L231.304 341.394
L231.304 340.444
L231.568 340.444
L231.568 339.493
L232.226 339.493
L232.226 338.543
L232.775 338.543
L232.775 337.592
L234.301 337.592
L234.301 336.642
L234.718 336.642
L234.743 333.79
L235.015 333.79
L235.082 331.889
L235.3 331.889
L235.3 330.939
L235.497 330.939
L235.522 329.038
L235.796 329.038
L235.898 326.186
L236.09 326.186
L236.09 325.236
L236.234 325.236
L236.297 323.335
L236.686 323.335
L236.686 322.384
L237.492 322.384
L237.554 320.483
L237.845 320.483
L237.845 319.533
L237.987 319.533
L237.987 318.582
L238.597 318.582
L238.63 316.681
L239.004 316.681
L239.004 315.731
L239.4 315.731
L239.499 313.83
L239.597 313.83
L239.63 310.978
L239.89 310.978
L239.994 309.077
L240.472 309.077
L240.472 308.127
L241.035 308.127
L241.035 307.176
L241.288 307.176
L241.34 304.325
L241.701 304.325
L241.701 303.374
L241.813 303.374
L241.813 302.424
L242.414 302.424
L242.414 301.473
L242.606 301.473
L242.606 300.523
L242.859 300.523
L242.918 298.622
L243.085 298.622
L243.085 297.671
L243.324 297.671
L243.378 294.82
L243.569 294.82
L243.569 293.869
L243.925 293.869
L244.023 291.968
L244.316 291.968
L244.402 289.117
L244.575 289.117
L244.58 287.216
L244.797 287.216
L244.869 285.315
L244.916 285.315
L244.967 283.414
L245.229 283.414
L245.314 281.513
L245.365 281.513
L245.365 280.562
L245.722 280.562
L245.722 279.612
L246.089 279.612
L246.133 277.711
L246.324 277.711
L246.324 276.76
L247.177 276.76
L247.21 273.909
L247.334 273.909
L247.334 272.958
L248.144 272.958
L248.184 271.057
L248.409 271.057
L248.418 269.156
L248.827 269.156
L248.871 267.255
L249.226 267.255
L249.226 266.305
L249.604 266.305
L249.616 264.404
L249.797 264.404
L249.899 261.552
L249.936 261.552
L249.986 259.651
L250.086 259.651
L250.189 257.75
L250.213 257.75
L250.274 254.899
L250.418 254.899
L250.506 252.998
L250.54 252.998
L250.54 252.048
L250.672 252.048
L250.672 251.097
L251.022 251.097
L251.061 249.196
L251.253 249.196
L251.357 246.345
L251.424 246.345
L251.424 245.394
L251.572 245.394
L251.594 243.493
L251.798 243.493
L251.872 241.592
L252.117 241.592
L252.134 239.691
L252.238 239.691
L252.26 237.79
L252.388 237.79
L252.388 236.84
L252.644 236.84
L252.674 234.939
L252.948 234.939
L253.053 232.087
L253.109 232.087
L253.127 230.186
L253.374 230.186
L253.374 229.236
L253.584 229.236
L253.611 227.335
L253.73 227.335
L253.83 225.434
L254.012 225.434
L254.053 223.533
L254.242 223.533
L254.267 221.632
L254.41 221.632
L254.41 220.681
L254.611 220.681
L254.659 217.83
L254.81 217.83
L254.848 214.978
L254.985 214.978
L255.053 213.077
L255.289 213.077
L255.289 212.127
L255.544 212.127
L255.544 211.176
L255.847 211.176
L255.847 210.226
L255.978 210.226
L256.028 208.325
L256.258 208.325
L256.305 206.424
L257.011 206.424
L257.08 203.572
L257.204 203.572
L257.249 200.721
L257.342 200.721
L257.418 197.869
L257.829 197.869
L257.895 195.968
L258.02 195.968
L258.084 194.067
L258.276 194.067
L258.309 192.166
L258.391 192.166
L258.391 191.216
L258.533 191.216
L258.533 190.265
L258.711 190.265
L258.787 188.364
L259.28 188.364
L259.28 187.414
L259.435 187.414
L259.543 185.513
L259.776 185.513
L259.776 184.562
L259.952 184.562
L260.055 181.711
L261.042 181.711
L261.042 180.76
L261.566 180.76
L261.566 179.81
L261.685 179.81
L261.685 178.859
L262.017 178.859
L262.089 176.958
L262.709 176.958
L262.709 176.008
L262.826 176.008
L262.826 175.057
L263.682 175.057
L263.682 174.107
L264.939 174.107
L264.941 172.206
L265.872 172.206
L265.872 171.255
L266.36 171.255
L266.36 170.305
L266.991 170.305
L267.067 167.453
L267.377 167.453
L267.377 166.503
L268.122 166.503
L268.122 165.552
L268.278 165.552
L268.278 164.602
L268.531 164.602
L268.531 163.651
L269.129 163.651
L269.129 162.701
L269.271 162.701
L269.271 161.75
L269.544 161.75
L269.544 160.8
L269.795 160.8
L269.795 159.85
L270.669 159.85
L270.669 158.899
L270.98 158.899
L271.035 156.998
L271.261 156.998
L271.261 156.048
L271.833 156.048
L271.833 155.097
L271.955 155.097
L271.955 154.147
L272.171 154.147
L272.177 152.246
L272.308 152.246
L272.308 151.295
L272.986 151.295
L272.986 150.345
L274.33 150.345
L274.33 149.394
L274.841 149.394
L274.841 148.444
L275.227 148.444
L275.227 147.493
L275.699 147.493
L275.699 146.543
L277.527 146.543
L277.527 145.592
L277.73 145.592
L277.73 144.642
L277.98 144.642
L277.98 143.691
L278.502 143.691
L278.502 142.741
L279.402 142.741
L279.402 141.79
L279.748 141.79
L279.748 140.84
L280.395 140.84
L280.469 137.988
L280.6 137.988
L280.6 137.038
L281.903 137.038
L281.941 135.137
L282.473 135.137
L282.574 133.236
L282.642 133.236
L282.642 132.285
L282.972 132.285
L282.972 131.335
L283.097 131.335
L283.097 130.384
L283.577 130.384
L283.577 129.434
L283.869 129.434
L283.869 128.483
L283.988 128.483
L283.988 127.533
L284.137 127.533
L284.137 126.582
L285.023 126.582
L285.023 125.632
L285.329 125.632
L285.397 123.731
L285.876 123.731
L285.876 122.78
L286.361 122.78
L286.361 121.83
L287.099 121.83
L287.099 120.879
L288.382 120.879
L288.382 119.929
L288.589 119.929
L288.589 118.978
L289.519 118.978
L289.519 118.028
L293.679 118.028
L293.679 117.077
L294.756 117.077
L294.756 116.127
L295.514 116.127
L295.514 115.176
L296.539 115.176
L296.539 114.226
L300.485 114.226
L300.583 112.325
L301.059 112.325
L301.059 111.374
L301.691 111.374
L301.802 109.473
L303.332 109.473
L303.332 108.523
L304.331 108.523
L304.331 107.572
L305.247 107.572
L305.247 106.622
L306.271 106.622
L306.271 105.671
L307.162 105.671
L307.162 104.721
L310.664 104.721
L310.664 103.77
L311.69 103.77
L311.69 102.82
L312.308 102.82
L312.308 101.869
L314.821 101.869
L314.821 100.919
L315.226 100.919
L315.23 99.0178
L316.687 99.0178
L316.687 98.0673
L317.235 98.0673
L317.235 97.1168
L317.462 97.1168
L317.52 95.2158
L317.869 95.2158
L317.869 94.2653
L318.04 94.2653
L318.04 93.3149
L319.397 93.3149
L319.397 92.3644
L319.861 92.3644
L319.861 91.4139
L320.082 91.4139
L320.082 90.4634
L321.447 90.4634
L321.447 89.5129
L323.571 89.5129
L323.571 88.5624
L324.616 88.5624
L324.616 87.6119
L325.312 87.6119
L325.312 86.6614
L325.444 86.6614
L325.536 84.7604
L325.589 84.7604
L325.589 83.8099
L326.012 83.8099
L326.012 82.8594
L326.576 82.8594
L326.576 81.9089
L327.302 81.9089
L327.343 80.0079
L327.453 80.0079
L327.453 79.0574
L328.187 79.0574
L328.187 78.1069
L330.864 78.1069
L330.934 76.2059
L331.07 76.2059
L331.07 75.2554
L331.342 75.2554
L331.342 74.305
L332.323 74.305
L332.323 73.3545
L332.438 73.3545
L332.438 72.404
L332.71 72.404
L332.71 71.4535
L333.476 71.4535
L333.476 70.503
L334.495 70.503
L334.524 68.602
L334.932 68.602
L334.932 67.6515
L335.225 67.6515
L335.225 66.701
L336.746 66.701
L336.746 65.7505
L338.409 65.7505
L338.409 64.8
L338.722 64.8
L338.722 63.8495
L341.385 63.8495
L341.49 61.9485
L345.585 61.9485
L345.585 60.998
L345.878 60.998
L345.878 60.0475
L348.449 60.0475
L348.449 59.097
L350.892 59.097
L350.892 58.1465
L358.019 58.1465
L358.019 57.196
L360.406 57.196
L360.406 56.2455
L361.423 56.2455
L361.423 55.295
L362.237 55.295
L362.237 54.3446
L363.052 54.3446
L363.052 53.3941
L366.575 53.3941
L366.575 52.4436
L367.427 52.4436
L367.427 51.4931
L368.003 51.4931
L368.017 49.5921
L369.201 49.5921
L369.201 48.6416
L369.407 48.6416
L369.407 47.6911
L372.249 47.6911
L372.249 46.7406
L373.679 46.7406
L373.679 45.7901
L374.783 45.7901
L374.783 44.8396
L375.429 44.8396
L375.429 43.8891
L375.631 43.8891
L375.631 42.9386
L375.952 42.9386
L375.952 41.9881
L378.623 41.9881
L378.623 41.0376
L379.171 41.0376
L379.255 38.1861
L379.295 38.1861
L379.295 37.2356
L379.673 37.2356
L379.673 36.2851
L379.923 36.2851
L379.923 35.3347
L381.296 35.3347
L381.296 34.3842
L382.324 34.3842
L382.324 33.4337
L383.193 33.4337
L383.193 32.4832
L383.614 32.4832
L383.614 31.5327
L384.373 31.5327
L384.373 30.5822
L387.433 30.5822
L387.433 29.6317
L387.565 29.6317
L387.565 28.6812
L387.94 28.6812
L387.94 27.7307
L388.411 27.7307
L388.411 26.7802
L389.328 26.7802
L389.328 25.8297
L390.071 25.8297
L390.071 24.8792
L390.375 24.8792
L390.375 23.9287
L392.28 23.9287
L392.28 22.9782
L393.804 22.9782
L393.804 22.0277
L394.984 22.0277
L394.984 21.0772
L395.407 21.0772
L395.407 20.1267
L396.882 20.1267
L396.882 19.1762
L397.42 19.1762
L397.497 17.2752
L398.233 17.2752
L398.233 16.3248
L398.604 16.3248
L398.604 15.3743
L401.085 15.3743
L401.085 14.4238
L402.423 14.4238
L402.423 13.4733
L404.585 13.4733
L404.585 12.5228
L423.769 12.5228
L423.769 11.5723
L439.128 11.5723
L439.128 10.6218
L439.128 10.6218
L453.6 10.6218
L453.6 10.6218" style="fill:none;stroke:#00bfbf;stroke-linecap:square;"/>
   </g>
   <g id="line2d_3">
    <path clip-path="url(#p5bee155178)" d="
M218.578 352.8
L218.578 351.85
L221.597 351.85
L221.597 350.899
L222.075 350.899
L222.075 349.949
L222.404 349.949
L222.404 348.998
L224.805 348.998
L224.837 347.097
L225.738 347.097
L225.804 345.196
L225.917 345.196
L225.917 344.246
L226.15 344.246
L226.15 343.295
L226.717 343.295
L226.76 341.394
L227.036 341.394
L227.036 340.444
L228.237 340.444
L228.246 338.543
L228.358 338.543
L228.405 336.642
L228.668 336.642
L228.668 335.691
L229.174 335.691
L229.174 334.741
L229.423 334.741
L229.439 332.84
L229.951 332.84
L229.951 331.889
L230.366 331.889
L230.366 330.939
L230.568 330.939
L230.568 329.988
L230.928 329.988
L230.928 329.038
L231.304 329.038
L231.304 328.087
L231.568 328.087
L231.662 325.236
L231.806 325.236
L231.806 324.285
L232.124 324.285
L232.226 322.384
L232.406 322.384
L232.406 321.434
L232.744 321.434
L232.744 320.483
L233.044 320.483
L233.119 318.582
L233.84 318.582
L233.84 317.632
L234.096 317.632
L234.096 316.681
L234.531 316.681
L234.531 315.731
L234.68 315.731
L234.718 313.83
L235.355 313.83
L235.355 312.879
L235.522 312.879
L235.522 311.929
L235.733 311.929
L235.733 310.978
L236.234 310.978
L236.297 308.127
L236.377 308.127
L236.377 307.176
L236.667 307.176
L236.667 306.226
L236.986 306.226
L236.986 305.275
L237.554 305.275
L237.554 304.325
L237.853 304.325
L237.853 303.374
L238.028 303.374
L238.13 300.523
L238.597 300.523
L238.597 299.572
L238.769 299.572
L238.769 298.622
L239.004 298.622
L239.096 296.721
L239.129 296.721
L239.163 294.82
L239.614 294.82
L239.63 292.919
L239.867 292.919
L239.867 291.968
L239.994 291.968
L239.994 291.018
L240.131 291.018
L240.131 290.067
L240.297 290.067
L240.297 289.117
L240.451 289.117
L240.516 286.265
L240.865 286.265
L240.865 285.315
L241.077 285.315
L241.077 284.364
L241.288 284.364
L241.328 282.463
L241.701 282.463
L241.701 281.513
L241.813 281.513
L241.852 279.612
L242.038 279.612
L242.038 278.661
L242.327 278.661
L242.414 276.76
L242.606 276.76
L242.606 275.81
L242.918 275.81
L242.918 274.859
L243.085 274.859
L243.085 273.909
L243.324 273.909
L243.378 272.008
L243.655 272.008
L243.655 271.057
L244.023 271.057
L244.023 270.107
L244.227 270.107
L244.316 268.206
L244.383 268.206
L244.43 266.305
L244.561 266.305
L244.58 264.404
L244.797 264.404
L244.797 263.453
L244.916 263.453
L244.983 261.552
L245.129 261.552
L245.229 259.651
L245.314 259.651
L245.349 257.75
L245.919 257.75
L245.919 256.8
L246.05 256.8
L246.155 254.899
L246.19 254.899
L246.19 253.949
L247.173 253.949
L247.21 250.147
L247.679 250.147
L247.679 249.196
L248.094 249.196
L248.144 246.345
L248.359 246.345
L248.409 243.493
L248.827 243.493
L248.871 240.642
L249.226 240.642
L249.226 239.691
L249.421 239.691
L249.485 237.79
L249.616 237.79
L249.686 234.939
L249.797 234.939
L249.868 233.038
L250.165 233.038
L250.165 232.087
L250.355 232.087
L250.39 230.186
L250.648 230.186
L250.755 226.384
L250.854 226.384
L250.854 225.434
L251.015 225.434
L251.027 223.533
L251.19 223.533
L251.19 222.582
L251.313 222.582
L251.423 218.78
L251.424 218.78
L251.424 217.83
L251.872 217.83
L251.872 216.879
L252.193 216.879
L252.193 215.929
L252.339 215.929
L252.415 214.028
L252.51 214.028
L252.609 212.127
L252.652 212.127
L252.751 209.275
L252.949 209.275
L252.949 208.325
L253.08 208.325
L253.159 203.572
L253.451 203.572
L253.451 202.622
L253.73 202.622
L253.73 201.671
L253.971 201.671
L254.053 198.82
L254.205 198.82
L254.267 195.968
L254.4 195.968
L254.4 195.018
L254.611 195.018
L254.659 193.117
L254.848 193.117
L254.912 191.216
L255.176 191.216
L255.284 189.315
L255.459 189.315
L255.544 187.414
L255.634 187.414
L255.634 186.463
L255.978 186.463
L255.978 185.513
L256.105 185.513
L256.105 184.562
L256.258 184.562
L256.305 181.711
L256.501 181.711
L256.501 180.76
L256.912 180.76
L256.912 179.81
L257.08 179.81
L257.08 178.859
L257.418 178.859
L257.418 177.909
L258.02 177.909
L258.02 176.958
L258.309 176.958
L258.391 174.107
L258.517 174.107
L258.517 173.156
L258.702 173.156
L258.702 172.206
L259.567 172.206
L259.567 171.255
L259.864 171.255
L259.952 169.354
L260.055 169.354
L260.055 168.404
L260.4 168.404
L260.4 167.453
L261.042 167.453
L261.042 166.503
L261.566 166.503
L261.566 165.552
L261.685 165.552
L261.685 164.602
L261.815 164.602
L261.815 163.651
L261.932 163.651
L262.017 161.75
L262.826 161.75
L262.826 160.8
L263.083 160.8
L263.083 159.85
L263.753 159.85
L263.753 158.899
L264.032 158.899
L264.032 157.949
L264.798 157.949
L264.798 156.998
L265.428 156.998
L265.428 156.048
L265.927 156.048
L265.927 155.097
L266.222 155.097
L266.222 154.147
L266.36 154.147
L266.36 153.196
L266.544 153.196
L266.544 152.246
L266.853 152.246
L266.853 151.295
L267.052 151.295
L267.052 150.345
L267.872 150.345
L267.872 149.394
L268.122 149.394
L268.122 148.444
L268.531 148.444
L268.624 146.543
L269.353 146.543
L269.353 145.592
L270.089 145.592
L270.089 144.642
L270.515 144.642
L270.515 143.691
L270.669 143.691
L270.669 142.741
L270.98 142.741
L270.98 141.79
L271.109 141.79
L271.109 140.84
L271.261 140.84
L271.261 139.889
L271.631 139.889
L271.738 137.038
L271.853 137.038
L271.955 135.137
L272.023 135.137
L272.023 134.186
L276.19 134.186
L276.19 133.236
L276.616 133.236
L276.616 132.285
L277.527 132.285
L277.527 131.335
L277.655 131.335
L277.73 129.434
L277.98 129.434
L277.98 128.483
L278.209 128.483
L278.209 127.533
L278.833 127.533
L278.833 126.582
L279.426 126.582
L279.426 125.632
L279.748 125.632
L279.748 124.681
L280.439 124.681
L280.469 122.78
L281.148 122.78
L281.148 121.83
L281.525 121.83
L281.525 120.879
L282.201 120.879
L282.201 119.929
L283.052 119.929
L283.052 118.978
L283.241 118.978
L283.241 118.028
L283.444 118.028
L283.444 117.077
L283.577 117.077
L283.577 116.127
L284.633 116.127
L284.633 115.176
L287.099 115.176
L287.099 114.226
L288.045 114.226
L288.045 113.275
L288.589 113.275
L288.589 112.325
L289.519 112.325
L289.519 111.374
L290.386 111.374
L290.386 110.424
L292.438 110.424
L292.438 109.473
L294.756 109.473
L294.756 108.523
L295.499 108.523
L295.514 106.622
L296.263 106.622
L296.263 105.671
L297.862 105.671
L297.862 104.721
L298.782 104.721
L298.782 103.77
L299.497 103.77
L299.497 102.82
L300.934 102.82
L300.934 101.869
L303.002 101.869
L303.002 100.919
L303.332 100.919
L303.332 99.9683
L304.331 99.9683
L304.331 99.0178
L304.673 99.0178
L304.673 98.0673
L304.793 98.0673
L304.793 97.1168
L305.15 97.1168
L305.247 95.2158
L305.81 95.2158
L305.81 94.2653
L309.643 94.2653
L309.643 93.3149
L310.209 93.3149
L310.209 92.3644
L311.69 92.3644
L311.69 91.4139
L312.308 91.4139
L312.308 90.4634
L312.526 90.4634
L312.526 89.5129
L314.153 89.5129
L314.153 88.5624
L314.821 88.5624
L314.821 87.6119
L315.844 87.6119
L315.844 86.6614
L316.877 86.6614
L316.877 85.7109
L317.132 85.7109
L317.132 84.7604
L317.52 84.7604
L317.52 83.8099
L317.849 83.8099
L317.869 81.9089
L318.04 81.9089
L318.04 80.9584
L318.557 80.9584
L318.557 80.0079
L319.861 80.0079
L319.892 78.1069
L321.447 78.1069
L321.447 77.1564
L322.489 77.1564
L322.489 76.2059
L322.878 76.2059
L322.878 75.2554
L323.533 75.2554
L323.533 74.305
L323.918 74.305
L323.918 73.3545
L324.559 73.3545
L324.559 72.404
L325.589 72.404
L325.589 71.4535
L325.823 71.4535
L325.823 70.503
L327.302 70.503
L327.302 69.5525
L327.453 69.5525
L327.453 68.602
L328.187 68.602
L328.187 67.6515
L329.677 67.6515
L329.677 66.701
L330.896 66.701
L330.896 65.7505
L331.07 65.7505
L331.07 64.8
L332.438 64.8
L332.438 63.8495
L332.71 63.8495
L332.71 62.899
L333.358 62.899
L333.358 61.9485
L334.932 61.9485
L334.932 60.998
L336.746 60.998
L336.746 60.0475
L338.666 60.0475
L338.722 58.1465
L339.982 58.1465
L339.982 57.196
L341.385 57.196
L341.385 56.2455
L342.791 56.2455
L342.791 55.295
L346.684 55.295
L346.684 54.3446
L347.432 54.3446
L347.432 53.3941
L348.296 53.3941
L348.296 52.4436
L350.44 52.4436
L350.44 51.4931
L351.629 51.4931
L351.725 48.6416
L353.375 48.6416
L353.375 47.6911
L355.014 47.6911
L355.014 46.7406
L355.533 46.7406
L355.533 45.7901
L360.406 45.7901
L360.406 44.8396
L360.982 44.8396
L360.982 43.8891
L361.589 43.8891
L361.589 42.9386
L361.781 42.9386
L361.781 41.9881
L362.404 41.9881
L362.404 41.0376
L365.745 41.0376
L365.745 40.0871
L366.575 40.0871
L366.575 39.1366
L367.258 39.1366
L367.258 38.1861
L367.427 38.1861
L367.427 37.2356
L367.809 37.2356
L367.809 36.2851
L368.564 36.2851
L368.564 35.3347
L369.308 35.3347
L369.308 34.3842
L370.245 34.3842
L370.245 33.4337
L370.634 33.4337
L370.634 32.4832
L371.31 32.4832
L371.31 31.5327
L373.196 31.5327
L373.196 30.5822
L373.953 30.5822
L373.953 29.6317
L375.535 29.6317
L375.535 28.6812
L375.969 28.6812
L375.969 27.7307
L379.231 27.7307
L379.231 26.7802
L380.051 26.7802
L380.051 25.8297
L380.845 25.8297
L380.845 24.8792
L383.614 24.8792
L383.614 23.9287
L384.373 23.9287
L384.373 22.9782
L386.361 22.9782
L386.361 22.0277
L387.565 22.0277
L387.57 20.1267
L390.45 20.1267
L390.45 19.1762
L391.95 19.1762
L391.95 18.2257
L392.28 18.2257
L392.28 17.2752
L394.582 17.2752
L394.582 16.3248
L395.407 16.3248
L395.407 15.3743
L395.55 15.3743
L395.55 14.4238
L396.049 14.4238
L396.049 13.4733
L396.169 13.4733
L396.169 12.5228
L396.359 12.5228
L396.359 11.5723
L439.128 11.5723
L439.128 10.6218
L439.128 10.6218
L453.6 10.6218
L453.6 10.6218" style="fill:none;stroke:#bf00bf;stroke-linecap:square;"/>
   </g>
   <g id="line2d_4">
    <path clip-path="url(#p5bee155178)" d="
M217.606 352.8
L217.606 351.85
L218.578 351.85
L218.578 350.899
L219.946 350.899
L219.946 349.949
L221.255 349.949
L221.255 348.998
L221.597 348.998
L221.597 348.048
L222.047 348.048
L222.075 346.147
L222.198 346.147
L222.198 345.196
L222.404 345.196
L222.475 343.295
L223.318 343.295
L223.318 342.345
L223.574 342.345
L223.574 341.394
L223.697 341.394
L223.697 340.444
L223.932 340.444
L223.932 339.493
L224.118 339.493
L224.118 338.543
L224.805 338.543
L224.805 337.592
L225.738 337.592
L225.804 335.691
L225.917 335.691
L225.917 334.741
L226.15 334.741
L226.259 332.84
L226.597 332.84
L226.617 330.939
L226.717 330.939
L226.76 329.038
L226.865 329.038
L226.865 328.087
L228.005 328.087
L228.063 326.186
L228.237 326.186
L228.246 324.285
L228.358 324.285
L228.358 323.335
L228.668 323.335
L228.668 322.384
L229.091 322.384
L229.174 320.483
L229.439 320.483
L229.439 319.533
L230.039 319.533
L230.039 318.582
L230.366 318.582
L230.366 317.632
L230.568 317.632
L230.568 316.681
L230.928 316.681
L230.928 315.731
L231.304 315.731
L231.304 314.78
L231.609 314.78
L231.662 311.929
L231.806 311.929
L231.806 310.978
L231.989 310.978
L231.989 310.028
L232.124 310.028
L232.124 309.077
L232.744 309.077
L232.744 308.127
L233.119 308.127
L233.119 307.176
L233.84 307.176
L233.84 306.226
L233.984 306.226
L233.984 305.275
L234.425 305.275
L234.425 304.325
L234.68 304.325
L234.738 301.473
L235.301 301.473
L235.301 300.523
L235.619 300.523
L235.619 299.572
L235.733 299.572
L235.733 298.622
L236.234 298.622
L236.297 295.77
L236.667 295.77
L236.667 294.82
L236.981 294.82
L236.986 291.968
L237.113 291.968
L237.113 291.018
L237.514 291.018
L237.554 289.117
L237.853 289.117
L237.853 288.166
L238.217 288.166
L238.217 287.216
L238.577 287.216
L238.597 285.315
L238.769 285.315
L238.769 284.364
L239.004 284.364
L239.096 282.463
L239.129 282.463
L239.163 280.562
L239.259 280.562
L239.259 279.612
L239.614 279.612
L239.723 276.76
L239.77 276.76
L239.867 274.859
L239.913 274.859
L239.96 272.008
L240.131 272.008
L240.131 271.057
L240.261 271.057
L240.279 269.156
L240.451 269.156
L240.472 267.255
L240.727 267.255
L240.727 266.305
L240.865 266.305
L240.865 265.354
L241.029 265.354
L241.077 263.453
L241.207 263.453
L241.207 262.503
L241.574 262.503
L241.574 261.552
L241.806 261.552
L241.806 260.602
L242.327 260.602
L242.403 258.701
L242.606 258.701
L242.606 257.75
L242.816 257.75
L242.918 255.85
L243.039 255.85
L243.039 254.899
L243.378 254.899
L243.378 253.949
L243.652 253.949
L243.655 252.048
L244.029 252.048
L244.138 248.246
L244.178 248.246
L244.233 246.345
L244.394 246.345
L244.43 244.444
L244.561 244.444
L244.665 241.592
L244.69 241.592
L244.797 238.741
L245.279 238.741
L245.349 235.889
L245.717 235.889
L245.816 232.087
L245.892 232.087
L245.892 231.137
L246.05 231.137
L246.05 230.186
L247.03 230.186
L247.03 229.236
L247.162 229.236
L247.21 226.384
L247.842 226.384
L247.842 225.434
L248.359 225.434
L248.409 222.582
L248.646 222.582
L248.717 219.731
L248.76 219.731
L248.85 217.83
L249.01 217.83
L249.01 216.879
L249.397 216.879
L249.421 214.028
L249.726 214.028
L249.797 212.127
L250.053 212.127
L250.053 211.176
L250.295 211.176
L250.398 208.325
L250.558 208.325
L250.667 204.523
L250.755 204.523
L250.764 202.622
L250.967 202.622
L250.967 201.671
L251.107 201.671
L251.107 200.721
L251.357 200.721
L251.423 197.869
L251.872 197.869
L251.872 196.919
L252.102 196.919
L252.148 194.067
L252.339 194.067
L252.339 193.117
L252.51 193.117
L252.609 191.216
L252.658 191.216
L252.751 187.414
L253.109 187.414
L253.199 184.562
L253.323 184.562
L253.323 183.612
L253.469 183.612
L253.469 182.661
L253.73 182.661
L253.775 180.76
L253.93 180.76
L253.971 178.859
L254.313 178.859
L254.4 176.958
L254.659 176.958
L254.689 175.057
L255.176 175.057
L255.284 173.156
L255.459 173.156
L255.459 172.206
L255.57 172.206
L255.634 170.305
L256.043 170.305
L256.101 168.404
L256.586 168.404
L256.586 167.453
L256.912 167.453
L256.912 166.503
L257.778 166.503
L257.778 165.552
L258.142 165.552
L258.229 163.651
L258.372 163.651
L258.478 160.8
L258.519 160.8
L258.539 158.899
L259.298 158.899
L259.319 156.998
L259.864 156.998
L259.952 155.097
L260.055 155.097
L260.055 154.147
L260.4 154.147
L260.4 153.196
L260.584 153.196
L260.584 152.246
L261.29 152.246
L261.29 151.295
L261.92 151.295
L261.932 149.394
L262.056 149.394
L262.056 148.444
L262.266 148.444
L262.266 147.493
L262.826 147.493
L262.826 146.543
L263.083 146.543
L263.083 145.592
L263.286 145.592
L263.286 144.642
L263.697 144.642
L263.697 143.691
L264.522 143.691
L264.522 142.741
L264.798 142.741
L264.798 141.79
L265.428 141.79
L265.536 139.889
L265.927 139.889
L265.927 138.939
L266.043 138.939
L266.043 137.988
L266.36 137.988
L266.36 137.038
L267.052 137.038
L267.052 136.087
L267.445 136.087
L267.445 135.137
L267.732 135.137
L267.732 134.186
L267.913 134.186
L267.919 132.285
L268.122 132.285
L268.122 131.335
L268.624 131.335
L268.624 130.384
L269.511 130.384
L269.511 129.434
L270.515 129.434
L270.515 128.483
L271.092 128.483
L271.092 127.533
L271.261 127.533
L271.261 126.582
L271.631 126.582
L271.738 124.681
L272.023 124.681
L272.023 123.731
L272.836 123.731
L272.836 122.78
L276.177 122.78
L276.177 121.83
L276.72 121.83
L276.72 120.879
L277.788 120.879
L277.788 119.929
L277.98 119.929
L277.98 118.978
L278.376 118.978
L278.376 118.028
L279.041 118.028
L279.041 117.077
L281.082 117.077
L281.148 115.176
L281.431 115.176
L281.431 114.226
L282.165 114.226
L282.201 112.325
L282.468 112.325
L282.468 111.374
L283.444 111.374
L283.444 110.424
L283.723 110.424
L283.723 109.473
L283.943 109.473
L283.943 108.523
L284.352 108.523
L284.352 107.572
L285.286 107.572
L285.286 106.622
L286.234 106.622
L286.234 105.671
L288.589 105.671
L288.645 103.77
L289.004 103.77
L289.004 102.82
L289.319 102.82
L289.319 101.869
L290.386 101.869
L290.386 100.919
L292.745 100.919
L292.745 99.9683
L294.756 99.9683
L294.756 99.0178
L295.025 99.0178
L295.025 98.0673
L295.499 98.0673
L295.514 96.1663
L296.263 96.1663
L296.263 95.2158
L297.862 95.2158
L297.862 94.2653
L298.782 94.2653
L298.782 93.3149
L298.894 93.3149
L298.894 92.3644
L299.497 92.3644
L299.497 91.4139
L300.934 91.4139
L300.934 90.4634
L301.889 90.4634
L301.889 89.5129
L303.002 89.5129
L303.002 88.5624
L303.332 88.5624
L303.332 87.6119
L304.194 87.6119
L304.194 86.6614
L304.581 86.6614
L304.581 85.7109
L305.15 85.7109
L305.15 84.7604
L305.8 84.7604
L305.8 83.8099
L306.635 83.8099
L306.635 82.8594
L308.191 82.8594
L308.191 80.9584
L308.545 80.9584
L308.545 80.0079
L308.867 80.0079
L308.867 79.0574
L309.321 79.0574
L309.321 78.1069
L309.669 78.1069
L309.669 77.1564
L310.209 77.1564
L310.209 76.2059
L310.484 76.2059
L310.484 75.2554
L311.73 75.2554
L311.83 73.3545
L312.526 73.3545
L312.526 72.404
L314.821 72.404
L314.821 71.4535
L315.482 71.4535
L315.482 70.503
L315.649 70.503
L315.649 69.5525
L317.483 69.5525
L317.483 68.602
L318.04 68.602
L318.04 67.6515
L318.557 67.6515
L318.628 65.7505
L319.183 65.7505
L319.183 64.8
L319.892 64.8
L319.892 63.8495
L320.56 63.8495
L320.56 62.899
L320.725 62.899
L320.725 61.9485
L321.553 61.9485
L321.553 60.998
L323.677 60.998
L323.677 60.0475
L324.357 60.0475
L324.357 59.097
L324.559 59.097
L324.559 58.1465
L327.672 58.1465
L327.672 57.196
L331.154 57.196
L331.154 56.2455
L332.438 56.2455
L332.438 55.295
L332.883 55.295
L332.883 54.3446
L333.277 54.3446
L333.362 52.4436
L333.432 52.4436
L333.432 51.4931
L334.864 51.4931
L334.932 49.5921
L338.004 49.5921
L338.004 48.6416
L340.991 48.6416
L340.991 47.6911
L341.701 47.6911
L341.701 46.7406
L344.115 46.7406
L344.208 44.8396
L344.682 44.8396
L344.682 43.8891
L346.204 43.8891
L346.204 42.9386
L347.832 42.9386
L347.832 41.9881
L350.44 41.9881
L350.44 41.0376
L351.691 41.0376
L351.691 40.0871
L352.017 40.0871
L352.017 39.1366
L352.201 39.1366
L352.201 38.1861
L353.375 38.1861
L353.375 37.2356
L355.533 37.2356
L355.533 36.2851
L357.048 36.2851
L357.048 35.3347
L359.068 35.3347
L359.068 34.3842
L360.091 34.3842
L360.091 33.4337
L360.585 33.4337
L360.585 32.4832
L361.43 32.4832
L361.43 31.5327
L362.404 31.5327
L362.404 30.5822
L364.339 30.5822
L364.339 29.6317
L365.364 29.6317
L365.364 28.6812
L367.427 28.6812
L367.427 27.7307
L370.552 27.7307
L370.634 25.8297
L372.84 25.8297
L372.84 24.8792
L373.196 24.8792
L373.196 23.9287
L374.078 23.9287
L374.078 22.9782
L375.969 22.9782
L375.969 22.0277
L377.305 22.0277
L377.305 21.0772
L379.231 21.0772
L379.231 20.1267
L380.845 20.1267
L380.845 19.1762
L381.663 19.1762
L381.663 18.2257
L383.118 18.2257
L383.118 17.2752
L388.928 17.2752
L388.928 16.3248
L390.45 16.3248
L390.45 15.3743
L391.95 15.3743
L391.95 14.4238
L393.058 14.4238
L393.058 13.4733
L394.585 13.4733
L394.585 12.5228
L394.7 12.5228
L394.7 11.5723
L410.668 11.5723
L410.668 10.6218
L410.668 10.6218
L453.6 10.6218
L453.6 10.6218" style="fill:none;stroke:#000000;stroke-linecap:square;"/>
   </g>
   <g id="line2d_5">
    <path clip-path="url(#p5bee155178)" d="
M-1 340.444
L189.114 340.444
L189.114 339.493
L190.968 339.493
L190.968 338.543
L191.572 338.543
L191.572 337.592
L199.686 337.592
L199.686 336.642
L204.066 336.642
L204.066 335.691
L204.215 335.691
L204.215 334.741
L205.958 334.741
L205.958 333.79
L207.003 333.79
L207.003 332.84
L207.27 332.84
L207.27 331.889
L207.856 331.889
L207.856 330.939
L210.181 330.939
L210.181 329.988
L210.594 329.988
L210.673 327.137
L211.542 327.137
L211.542 326.186
L212.209 326.186
L212.209 325.236
L212.582 325.236
L212.582 324.285
L213.331 324.285
L213.331 323.335
L213.81 323.335
L213.81 322.384
L213.936 322.384
L213.936 321.434
L214.125 321.434
L214.125 320.483
L214.24 320.483
L214.24 319.533
L214.356 319.533
L214.356 318.582
L214.548 318.582
L214.548 317.632
L214.701 317.632
L214.701 316.681
L214.838 316.681
L214.875 314.78
L216.029 314.78
L216.029 313.83
L216.232 313.83
L216.278 311.929
L216.758 311.929
L216.758 310.978
L216.939 310.978
L216.939 310.028
L217.052 310.028
L217.052 309.077
L217.271 309.077
L217.271 308.127
L217.559 308.127
L217.657 306.226
L218.032 306.226
L218.032 305.275
L218.321 305.275
L218.412 303.374
L218.444 303.374
L218.444 302.424
L218.606 302.424
L218.606 301.473
L218.891 301.473
L218.891 300.523
L219.021 300.523
L219.021 299.572
L219.166 299.572
L219.166 298.622
L219.324 298.622
L219.324 297.671
L219.747 297.671
L219.761 295.77
L219.946 295.77
L220.023 293.869
L220.093 293.869
L220.093 292.919
L220.275 292.919
L220.381 290.067
L220.436 290.067
L220.448 288.166
L220.579 288.166
L220.66 286.265
L220.899 286.265
L220.899 285.315
L221.06 285.315
L221.114 283.414
L221.597 283.414
L221.597 282.463
L222.075 282.463
L222.078 280.562
L222.235 280.562
L222.235 279.612
L222.475 279.612
L222.487 277.711
L222.84 277.711
L222.84 276.76
L223.094 276.76
L223.094 275.81
L223.574 275.81
L223.621 272.958
L224.078 272.958
L224.118 271.057
L224.207 271.057
L224.27 269.156
L224.528 269.156
L224.616 266.305
L224.978 266.305
L224.978 265.354
L225.126 265.354
L225.137 263.453
L225.822 263.453
L225.847 261.552
L226.09 261.552
L226.169 259.651
L226.259 259.651
L226.259 258.701
L226.717 258.701
L226.717 257.75
L227.218 257.75
L227.218 256.8
L227.452 256.8
L227.535 254.899
L227.899 254.899
L227.899 253.949
L228.086 253.949
L228.086 252.998
L228.237 252.998
L228.237 252.048
L228.826 252.048
L228.826 251.097
L228.999 251.097
L228.999 250.147
L229.373 250.147
L229.437 247.295
L230.039 247.295
L230.041 245.394
L230.16 245.394
L230.16 244.444
L230.285 244.444
L230.346 242.543
L230.513 242.543
L230.513 241.592
L230.756 241.592
L230.756 240.642
L231.961 240.642
L231.961 239.691
L232.341 239.691
L232.341 238.741
L232.648 238.741
L232.648 237.79
L233.059 237.79
L233.059 236.84
L233.589 236.84
L233.674 234.939
L234.014 234.939
L234.014 233.988
L234.173 233.988
L234.232 232.087
L234.355 232.087
L234.355 231.137
L234.718 231.137
L234.718 230.186
L235.249 230.186
L235.249 229.236
L235.383 229.236
L235.452 227.335
L235.495 227.335
L235.495 226.384
L235.61 226.384
L235.61 225.434
L235.876 225.434
L235.876 224.483
L236.037 224.483
L236.037 223.533
L236.207 223.533
L236.264 220.681
L236.973 220.681
L236.973 219.731
L237.385 219.731
L237.385 218.78
L237.535 218.78
L237.535 217.83
L237.829 217.83
L237.853 215.929
L238.217 215.929
L238.27 214.028
L238.415 214.028
L238.433 212.127
L238.597 212.127
L238.609 210.226
L238.746 210.226
L238.746 209.275
L239.413 209.275
L239.515 207.374
L239.525 207.374
L239.623 203.572
L239.723 203.572
L239.833 201.671
L239.842 201.671
L239.867 199.77
L239.962 199.77
L239.962 198.82
L240.181 198.82
L240.181 197.869
L240.451 197.869
L240.451 196.919
L240.584 196.919
L240.584 195.968
L240.727 195.968
L240.727 195.018
L240.869 195.018
L240.869 194.067
L241.115 194.067
L241.189 192.166
L241.299 192.166
L241.32 190.265
L241.66 190.265
L241.66 189.315
L241.778 189.315
L241.829 187.414
L241.917 187.414
L241.917 186.463
L242.502 186.463
L242.606 182.661
L242.733 182.661
L242.835 180.76
L243.039 180.76
L243.1 178.859
L243.373 178.859
L243.458 176.008
L243.716 176.008
L243.716 175.057
L243.95 175.057
L243.95 174.107
L244.341 174.107
L244.394 172.206
L244.545 172.206
L244.579 169.354
L245.013 169.354
L245.013 168.404
L245.156 168.404
L245.156 167.453
L245.509 167.453
L245.583 163.651
L245.631 163.651
L245.74 160.8
L245.816 160.8
L245.851 158.899
L245.961 158.899
L245.997 156.998
L246.187 156.998
L246.276 154.147
L246.329 154.147
L246.329 153.196
L246.488 153.196
L246.488 152.246
L246.656 152.246
L246.718 150.345
L246.818 150.345
L246.818 149.394
L246.962 149.394
L246.962 148.444
L247.162 148.444
L247.177 146.543
L247.289 146.543
L247.289 145.592
L247.612 145.592
L247.612 144.642
L247.749 144.642
L247.856 140.84
L247.908 140.84
L247.908 139.889
L248.117 139.889
L248.225 137.988
L248.242 137.988
L248.288 135.137
L248.599 135.137
L248.599 134.186
L250.081 134.186
L250.186 132.285
L250.431 132.285
L250.431 131.335
L250.791 131.335
L250.791 130.384
L251.349 130.384
L251.423 128.483
L251.554 128.483
L251.554 127.533
L251.749 127.533
L251.829 125.632
L252.208 125.632
L252.292 122.78
L252.335 122.78
L252.335 121.83
L252.578 121.83
L252.578 120.879
L252.751 120.879
L252.854 118.028
L252.908 118.028
L252.908 117.077
L253.26 117.077
L253.263 115.176
L253.39 115.176
L253.39 114.226
L253.955 114.226
L253.971 112.325
L254.08 112.325
L254.08 111.374
L254.291 111.374
L254.291 110.424
L254.583 110.424
L254.583 109.473
L255.011 109.473
L255.011 108.523
L255.652 108.523
L255.652 107.572
L256.4 107.572
L256.4 106.622
L257.063 106.622
L257.08 104.721
L257.258 104.721
L257.258 103.77
L257.413 103.77
L257.413 102.82
L257.594 102.82
L257.594 101.869
L257.713 101.869
L257.713 100.919
L257.886 100.919
L257.886 99.9683
L258.117 99.9683
L258.117 99.0178
L258.905 99.0178
L258.961 97.1168
L259.429 97.1168
L259.429 96.1663
L259.643 96.1663
L259.643 95.2158
L260.041 95.2158
L260.041 94.2653
L260.543 94.2653
L260.543 93.3149
L260.668 93.3149
L260.706 91.4139
L261.021 91.4139
L261.021 90.4634
L261.368 90.4634
L261.368 89.5129
L261.615 89.5129
L261.615 88.5624
L261.897 88.5624
L261.92 86.6614
L262.242 86.6614
L262.242 85.7109
L263.083 85.7109
L263.083 84.7604
L263.652 84.7604
L263.652 83.8099
L265.396 83.8099
L265.428 81.9089
L266.846 81.9089
L266.897 79.0574
L267.354 79.0574
L267.354 78.1069
L267.557 78.1069
L267.557 77.1564
L267.847 77.1564
L267.847 76.2059
L268.214 76.2059
L268.214 75.2554
L268.502 75.2554
L268.502 74.305
L268.853 74.305
L268.853 73.3545
L269.469 73.3545
L269.469 72.404
L271.457 72.404
L271.457 71.4535
L273.909 71.4535
L273.91 69.5525
L274.359 69.5525
L274.359 68.602
L274.619 68.602
L274.619 67.6515
L275.289 67.6515
L275.289 66.701
L275.498 66.701
L275.498 65.7505
L275.994 65.7505
L275.994 64.8
L277.98 64.8
L277.98 63.8495
L279.077 63.8495
L279.077 62.899
L279.284 62.899
L279.284 61.9485
L282.593 61.9485
L282.593 60.998
L282.895 60.998
L282.895 60.0475
L284.453 60.0475
L284.453 59.097
L284.725 59.097
L284.725 58.1465
L287.093 58.1465
L287.093 57.196
L289.221 57.196
L289.221 56.2455
L290.464 56.2455
L290.464 55.295
L294.756 55.295
L294.756 54.3446
L295.844 54.3446
L295.844 53.3941
L297.438 53.3941
L297.438 52.4436
L299.187 52.4436
L299.187 51.4931
L302.97 51.4931
L302.97 50.5426
L303.792 50.5426
L303.792 49.5921
L312.526 49.5921
L312.526 48.6416
L314.821 48.6416
L314.821 47.6911
L315.048 47.6911
L315.048 46.7406
L316.447 46.7406
L316.447 45.7901
L317.384 45.7901
L317.384 44.8396
L318.272 44.8396
L318.272 43.8891
L318.453 43.8891
L318.453 42.9386
L323.212 42.9386
L323.212 41.9881
L324.114 41.9881
L324.114 41.0376
L325.33 41.0376
L325.33 40.0871
L325.485 40.0871
L325.485 39.1366
L325.867 39.1366
L325.867 38.1861
L326.433 38.1861
L326.433 37.2356
L326.668 37.2356
L326.668 36.2851
L331.09 36.2851
L331.142 34.3842
L331.868 34.3842
L331.868 33.4337
L332.255 33.4337
L332.255 32.4832
L333.432 32.4832
L333.432 31.5327
L334.432 31.5327
L334.432 30.5822
L336.639 30.5822
L336.639 29.6317
L337.448 29.6317
L337.448 28.6812
L337.806 28.6812
L337.806 27.7307
L338.898 27.7307
L338.898 26.7802
L339.386 26.7802
L339.386 25.8297
L343.77 25.8297
L343.77 24.8792
L348.105 24.8792
L348.105 23.9287
L350.906 23.9287
L350.906 22.9782
L351.37 22.9782
L351.37 22.0277
L352.296 22.0277
L352.296 21.0772
L353.962 21.0772
L353.962 20.1267
L354.259 20.1267
L354.259 19.1762
L354.525 19.1762
L354.525 18.2257
L358.598 18.2257
L358.598 17.2752
L358.96 17.2752
L358.96 16.3248
L366.508 16.3248
L366.508 15.3743
L370.78 15.3743
L370.82 13.4733
L372.286 13.4733
L372.286 12.5228
L372.898 12.5228
L372.898 11.5723
L374.181 11.5723
L374.181 10.6218
L374.181 10.6218
L453.6 10.6218
L453.6 10.6218" style="fill:none;stroke:#00bfbf;stroke-linecap:square;"/>
   </g>
   <g id="line2d_6">
    <path clip-path="url(#p5bee155178)" d="
M-1 338.543
L9.44271 338.543
L9.44271 337.592
L69.7195 337.592
L69.7195 336.642
L75.4009 336.642
L75.4009 335.691
L76.8147 335.691
L76.8147 334.741
L81.51 334.741
L81.51 333.79
L99.9151 333.79
L99.9151 332.84
L109.472 332.84
L109.472 331.889
L121.018 331.889
L121.018 330.939
L122.375 330.939
L122.375 329.988
L131.074 329.988
L131.074 329.038
L131.838 329.038
L131.838 328.087
L140.185 328.087
L140.185 327.137
L141.287 327.137
L141.368 325.236
L143.592 325.236
L143.592 324.285
L148.701 324.285
L148.701 323.335
L148.826 323.335
L148.826 322.384
L150.051 322.384
L150.051 321.434
L152.424 321.434
L152.424 320.483
L157.386 320.483
L157.386 319.533
L160.634 319.533
L160.634 318.582
L162.321 318.582
L162.321 317.632
L162.861 317.632
L162.861 316.681
L164.027 316.681
L164.027 315.731
L166.315 315.731
L166.315 314.78
L175.496 314.78
L175.496 313.83
L178.165 313.83
L178.165 312.879
L178.372 312.879
L178.372 311.929
L179.552 311.929
L179.552 310.978
L180.226 310.978
L180.226 310.028
L180.356 310.028
L180.356 309.077
L180.811 309.077
L180.811 308.127
L183.48 308.127
L183.48 307.176
L184.69 307.176
L184.69 306.226
L185.255 306.226
L185.255 305.275
L189.092 305.275
L189.196 303.374
L190.807 303.374
L190.807 302.424
L191 302.424
L191 301.473
L191.31 301.473
L191.31 300.523
L192.144 300.523
L192.144 299.572
L192.849 299.572
L192.849 298.622
L192.986 298.622
L192.986 297.671
L194.058 297.671
L194.058 296.721
L194.329 296.721
L194.329 295.77
L194.755 295.77
L194.755 294.82
L195.366 294.82
L195.366 293.869
L195.939 293.869
L195.939 292.919
L196.55 292.919
L196.55 291.968
L198.852 291.968
L198.852 291.018
L199.251 291.018
L199.251 290.067
L200.915 290.067
L200.915 289.117
L201.589 289.117
L201.615 286.265
L201.959 286.265
L201.959 285.315
L202.451 285.315
L202.451 284.364
L204.017 284.364
L204.07 282.463
L204.223 282.463
L204.3 280.562
L204.602 280.562
L204.702 278.661
L205.633 278.661
L205.633 277.711
L205.818 277.711
L205.818 276.76
L205.934 276.76
L206.04 274.859
L206.265 274.859
L206.33 272.958
L206.528 272.958
L206.528 272.008
L206.805 272.008
L206.805 271.057
L207.011 271.057
L207.011 270.107
L207.823 270.107
L207.823 269.156
L207.984 269.156
L207.984 268.206
L208.545 268.206
L208.545 267.255
L208.694 267.255
L208.705 265.354
L208.969 265.354
L208.974 263.453
L209.262 263.453
L209.262 262.503
L210.082 262.503
L210.082 261.552
L210.327 261.552
L210.362 259.651
L210.557 259.651
L210.636 257.75
L210.743 257.75
L210.743 256.8
L211.189 256.8
L211.189 255.85
L211.421 255.85
L211.421 254.899
L211.697 254.899
L211.804 252.998
L211.941 252.998
L212.038 250.147
L212.068 250.147
L212.068 249.196
L212.183 249.196
L212.183 248.246
L212.301 248.246
L212.408 243.493
L212.744 243.493
L212.744 242.543
L212.907 242.543
L213.011 239.691
L213.241 239.691
L213.241 238.741
L213.358 238.741
L213.386 234.939
L213.671 234.939
L213.744 233.038
L213.801 233.038
L213.801 232.087
L213.936 232.087
L213.936 231.137
L214.074 231.137
L214.173 227.335
L214.299 227.335
L214.299 226.384
L214.459 226.384
L214.526 224.483
L214.701 224.483
L214.764 220.681
L214.838 220.681
L214.897 218.78
L215.044 218.78
L215.044 217.83
L215.254 217.83
L215.351 214.028
L215.366 214.028
L215.366 213.077
L215.547 213.077
L215.636 211.176
L216.06 211.176
L216.128 207.374
L216.276 207.374
L216.379 202.622
L216.388 202.622
L216.388 201.671
L216.705 201.671
L216.705 200.721
L217.34 200.721
L217.414 198.82
L217.606 198.82
L217.647 196.919
L217.752 196.919
L217.752 195.968
L218.398 195.968
L218.398 195.018
L218.536 195.018
L218.536 194.067
L219.069 194.067
L219.165 192.166
L219.625 192.166
L219.701 190.265
L219.818 190.265
L219.827 188.364
L220.084 188.364
L220.084 187.414
L220.399 187.414
L220.435 185.513
L220.536 185.513
L220.568 182.661
L220.807 182.661
L220.807 181.711
L220.93 181.711
L220.93 180.76
L221.093 180.76
L221.093 179.81
L221.36 179.81
L221.36 178.859
L221.581 178.859
L221.61 176.958
L221.823 176.958
L221.823 176.008
L222.2 176.008
L222.2 175.057
L222.454 175.057
L222.454 174.107
L223.014 174.107
L223.014 173.156
L223.277 173.156
L223.361 171.255
L223.425 171.255
L223.425 170.305
L223.894 170.305
L223.894 169.354
L224.372 169.354
L224.372 168.404
L224.515 168.404
L224.589 165.552
L224.782 165.552
L224.82 163.651
L224.914 163.651
L224.914 162.701
L225.084 162.701
L225.084 161.75
L225.299 161.75
L225.299 160.8
L225.605 160.8
L225.605 159.85
L225.969 159.85
L225.969 158.899
L226.109 158.899
L226.169 155.097
L226.375 155.097
L226.432 153.196
L226.623 153.196
L226.623 152.246
L227.54 152.246
L227.54 151.295
L227.747 151.295
L227.747 150.345
L228.36 150.345
L228.36 149.394
L228.477 149.394
L228.477 148.444
L228.82 148.444
L228.915 144.642
L229.16 144.642
L229.219 142.741
L229.371 142.741
L229.371 141.79
L229.549 141.79
L229.549 140.84
L229.904 140.84
L229.904 139.889
L230.039 139.889
L230.072 137.988
L230.299 137.988
L230.299 137.038
L230.5 137.038
L230.5 136.087
L230.614 136.087
L230.614 135.137
L230.741 135.137
L230.741 134.186
L230.876 134.186
L230.876 133.236
L231.071 133.236
L231.071 132.285
L231.186 132.285
L231.227 130.384
L231.597 130.384
L231.597 129.434
L231.965 129.434
L232.057 127.533
L232.175 127.533
L232.176 125.632
L232.303 125.632
L232.4 123.731
L232.787 123.731
L232.893 119.929
L233.257 119.929
L233.257 118.978
L233.49 118.978
L233.49 118.028
L234.264 118.028
L234.264 117.077
L234.395 117.077
L234.395 116.127
L234.656 116.127
L234.745 112.325
L234.788 112.325
L234.788 111.374
L234.9 111.374
L234.9 110.424
L235.214 110.424
L235.313 108.523
L235.441 108.523
L235.543 106.622
L235.706 106.622
L235.814 104.721
L236.134 104.721
L236.134 103.77
L236.325 103.77
L236.325 102.82
L236.625 102.82
L236.641 100.919
L236.854 100.919
L236.854 99.0178
L236.987 99.0178
L237.048 97.1168
L237.213 97.1168
L237.213 96.1663
L237.372 96.1663
L237.372 95.2158
L237.484 95.2158
L237.536 92.3644
L237.689 92.3644
L237.785 90.4634
L238.016 90.4634
L238.035 88.5624
L238.289 88.5624
L238.289 87.6119
L238.41 87.6119
L238.41 86.6614
L238.732 86.6614
L238.83 84.7604
L238.856 84.7604
L238.933 82.8594
L238.997 82.8594
L239.075 80.9584
L239.515 80.9584
L239.515 80.0079
L240.136 80.0079
L240.234 78.1069
L240.826 78.1069
L240.827 76.2059
L241.043 76.2059
L241.043 75.2554
L241.199 75.2554
L241.242 73.3545
L241.324 73.3545
L241.43 71.4535
L241.537 71.4535
L241.537 70.503
L241.673 70.503
L241.745 68.602
L242.211 68.602
L242.28 66.701
L242.33 66.701
L242.358 64.8
L242.694 64.8
L242.789 62.899
L242.881 62.899
L242.881 61.9485
L243.947 61.9485
L243.979 60.0475
L244.066 60.0475
L244.075 58.1465
L244.31 58.1465
L244.319 56.2455
L244.954 56.2455
L244.954 55.295
L245.585 55.295
L245.585 54.3446
L245.787 54.3446
L245.787 53.3941
L245.907 53.3941
L245.93 51.4931
L246.432 51.4931
L246.432 50.5426
L246.695 50.5426
L246.695 49.5921
L246.976 49.5921
L246.976 48.6416
L247.38 48.6416
L247.38 47.6911
L247.503 47.6911
L247.503 46.7406
L247.938 46.7406
L247.938 45.7901
L248.366 45.7901
L248.366 44.8396
L248.521 44.8396
L248.521 43.8891
L249.13 43.8891
L249.13 42.9386
L249.838 42.9386
L249.838 41.9881
L250.882 41.9881
L250.882 41.0376
L251.595 41.0376
L251.595 40.0871
L252.199 40.0871
L252.199 39.1366
L252.322 39.1366
L252.412 36.2851
L252.801 36.2851
L252.801 35.3347
L254.031 35.3347
L254.031 34.3842
L254.288 34.3842
L254.288 33.4337
L255.581 33.4337
L255.581 32.4832
L256.804 32.4832
L256.804 31.5327
L259.854 31.5327
L259.854 30.5822
L260.23 30.5822
L260.23 29.6317
L262.602 29.6317
L262.602 28.6812
L264.799 28.6812
L264.799 27.7307
L266.652 27.7307
L266.652 26.7802
L267.152 26.7802
L267.152 25.8297
L271.262 25.8297
L271.262 24.8792
L271.927 24.8792
L271.927 23.9287
L272.352 23.9287
L272.352 22.9782
L278.861 22.9782
L278.861 22.0277
L279.824 22.0277
L279.824 21.0772
L280.516 21.0772
L280.516 20.1267
L283.288 20.1267
L283.288 19.1762
L284.483 19.1762
L284.483 18.2257
L284.912 18.2257
L284.912 17.2752
L286.782 17.2752
L286.782 16.3248
L288.232 16.3248
L288.303 14.4238
L291.618 14.4238
L291.618 13.4733
L303.123 13.4733
L303.123 12.5228
L305.533 12.5228
L305.533 11.5723
L309.526 11.5723
L309.526 10.6218
L309.526 10.6218
L453.6 10.6218
L453.6 10.6218" style="fill:none;stroke:#bf00bf;stroke-linecap:square;"/>
   </g>
   <g id="matplotlib.axis_1">
    <g id="xtick_1"/>
    <g id="xtick_2">
     <g id="line2d_7">
      <path clip-path="url(#p5bee155178)" d="
M56.7047 352.8
L56.7047 7.2" style="fill:none;stroke:#000000;stroke-dasharray:1.000000,3.000000;stroke-dashoffset:0.0;stroke-width:0.5;"/>
     </g>
     <g id="line2d_8">
      <defs>
       <path d="
M0 0
L0 -4" id="m93b0483c22" style="stroke:#000000;stroke-width:0.5;"/>
      </defs>
      <g>
       <use style="stroke:#000000;stroke-width:0.5;" x="56.70471484" xlink:href="#m93b0483c22" y="352.8"/>
      </g>
     </g>
     <g id="line2d_9">
      <defs>
       <path d="
M0 0
L0 4" id="m741efc42ff" style="stroke:#000000;stroke-width:0.5;"/>
      </defs>
      <g>
       <use style="stroke:#000000;stroke-width:0.5;" x="56.70471484" xlink:href="#m741efc42ff" y="7.2"/>
      </g>
     </g>
     <g id="text_1">
      <!-- -6 -->
      <defs>
       <path d="
M3.17188 21.4844
L3.17188 30.3281
L30.1719 30.3281
L30.1719 21.4844
z
" id="ArialMT-2d"/>
       <path d="
M49.75 54.0469
L41.0156 53.375
Q39.8438 58.5469 37.7031 60.8906
Q34.125 64.6562 28.9062 64.6562
Q24.7031 64.6562 21.5312 62.3125
Q17.3906 59.2812 14.9844 53.4688
Q12.5938 47.6562 12.5 36.9219
Q15.6719 41.75 20.2656 44.0938
Q24.8594 46.4375 29.8906 46.4375
Q38.6719 46.4375 44.8438 39.9688
Q51.0312 33.5 51.0312 23.25
Q51.0312 16.5 48.125 10.7188
Q45.2188 4.9375 40.1406 1.85938
Q35.0625 -1.21875 28.6094 -1.21875
Q17.625 -1.21875 10.6875 6.85938
Q3.76562 14.9375 3.76562 33.5
Q3.76562 54.25 11.4219 63.6719
Q18.1094 71.875 29.4375 71.875
Q37.8906 71.875 43.2812 67.1406
Q48.6875 62.4062 49.75 54.0469
M13.875 23.1875
Q13.875 18.6562 15.7969 14.5
Q17.7188 10.3594 21.1875 8.17188
Q24.6562 6 28.4688 6
Q34.0312 6 38.0312 10.4844
Q42.0469 14.9844 42.0469 22.7031
Q42.0469 30.125 38.0781 34.3906
Q34.125 38.6719 28.125 38.6719
Q22.1719 38.6719 18.0156 34.3906
Q13.875 30.125 13.875 23.1875" id="ArialMT-36"/>
      </defs>
      <g transform="translate(48.58908984 371.115625)scale(0.2 -0.2)">
       <use xlink:href="#ArialMT-2d"/>
       <use x="33.30078125" xlink:href="#ArialMT-36"/>
      </g>
     </g>
    </g>
    <g id="xtick_3">
     <g id="line2d_10">
      <path clip-path="url(#p5bee155178)" d="
M106.317 352.8
L106.317 7.2" style="fill:none;stroke:#000000;stroke-dasharray:1.000000,3.000000;stroke-dashoffset:0.0;stroke-width:0.5;"/>
     </g>
     <g id="line2d_11">
      <g>
       <use style="stroke:#000000;stroke-width:0.5;" x="106.316625485" xlink:href="#m93b0483c22" y="352.8"/>
      </g>
     </g>
     <g id="line2d_12">
      <g>
       <use style="stroke:#000000;stroke-width:0.5;" x="106.316625485" xlink:href="#m741efc42ff" y="7.2"/>
      </g>
     </g>
     <g id="text_2">
      <!-- -4 -->
      <defs>
       <path d="
M32.3281 0
L32.3281 17.1406
L1.26562 17.1406
L1.26562 25.2031
L33.9375 71.5781
L41.1094 71.5781
L41.1094 25.2031
L50.7812 25.2031
L50.7812 17.1406
L41.1094 17.1406
L41.1094 0
z

M32.3281 25.2031
L32.3281 57.4688
L9.90625 25.2031
z
" id="ArialMT-34"/>
      </defs>
      <g transform="translate(98.226000485 371.115625)scale(0.2 -0.2)">
       <use xlink:href="#ArialMT-2d"/>
       <use x="33.30078125" xlink:href="#ArialMT-34"/>
      </g>
     </g>
    </g>
    <g id="xtick_4">
     <g id="line2d_13">
      <path clip-path="url(#p5bee155178)" d="
M155.929 352.8
L155.929 7.2" style="fill:none;stroke:#000000;stroke-dasharray:1.000000,3.000000;stroke-dashoffset:0.0;stroke-width:0.5;"/>
     </g>
     <g id="line2d_14">
      <g>
       <use style="stroke:#000000;stroke-width:0.5;" x="155.92853613" xlink:href="#m93b0483c22" y="352.8"/>
      </g>
     </g>
     <g id="line2d_15">
      <g>
       <use style="stroke:#000000;stroke-width:0.5;" x="155.92853613" xlink:href="#m741efc42ff" y="7.2"/>
      </g>
     </g>
     <g id="text_3">
      <!-- -2 -->
      <defs>
       <path d="
M50.3438 8.45312
L50.3438 0
L3.03125 0
Q2.9375 3.17188 4.04688 6.10938
Q5.85938 10.9375 9.82812 15.625
Q13.8125 20.3125 21.3438 26.4688
Q33.0156 36.0312 37.1094 41.625
Q41.2188 47.2188 41.2188 52.2031
Q41.2188 57.4219 37.4688 61
Q33.7344 64.5938 27.7344 64.5938
Q21.3906 64.5938 17.5781 60.7812
Q13.7656 56.9844 13.7188 50.25
L4.6875 51.1719
Q5.60938 61.2812 11.6562 66.5781
Q17.7188 71.875 27.9375 71.875
Q38.2344 71.875 44.2344 66.1562
Q50.25 60.4531 50.25 52
Q50.25 47.7031 48.4844 43.5469
Q46.7344 39.4062 42.6562 34.8125
Q38.5781 30.2188 29.1094 22.2188
Q21.1875 15.5781 18.9375 13.2031
Q16.7031 10.8438 15.2344 8.45312
z
" id="ArialMT-32"/>
      </defs>
      <g transform="translate(147.88166113 371.115625)scale(0.2 -0.2)">
       <use xlink:href="#ArialMT-2d"/>
       <use x="33.30078125" xlink:href="#ArialMT-32"/>
      </g>
     </g>
    </g>
    <g id="xtick_5">
     <g id="line2d_16">
      <path clip-path="url(#p5bee155178)" d="
M205.54 352.8
L205.54 7.2" style="fill:none;stroke:#000000;stroke-dasharray:1.000000,3.000000;stroke-dashoffset:0.0;stroke-width:0.5;"/>
     </g>
     <g id="line2d_17">
      <g>
       <use style="stroke:#000000;stroke-width:0.5;" x="205.540446775" xlink:href="#m93b0483c22" y="352.8"/>
      </g>
     </g>
     <g id="line2d_18">
      <g>
       <use style="stroke:#000000;stroke-width:0.5;" x="205.540446775" xlink:href="#m741efc42ff" y="7.2"/>
      </g>
     </g>
     <g id="text_4">
      <!-- 0 -->
      <defs>
       <path d="
M4.15625 35.2969
Q4.15625 48 6.76562 55.7344
Q9.375 63.4844 14.5156 67.6719
Q19.6719 71.875 27.4844 71.875
Q33.25 71.875 37.5938 69.5469
Q41.9375 67.2344 44.7656 62.8594
Q47.6094 58.5 49.2188 52.2188
Q50.8281 45.9531 50.8281 35.2969
Q50.8281 22.7031 48.2344 14.9688
Q45.6562 7.23438 40.5 3
Q35.3594 -1.21875 27.4844 -1.21875
Q17.1406 -1.21875 11.2344 6.20312
Q4.15625 15.1406 4.15625 35.2969
M13.1875 35.2969
Q13.1875 17.6719 17.3125 11.8281
Q21.4375 6 27.4844 6
Q33.5469 6 37.6719 11.8594
Q41.7969 17.7188 41.7969 35.2969
Q41.7969 52.9844 37.6719 58.7812
Q33.5469 64.5938 27.3906 64.5938
Q21.3438 64.5938 17.7188 59.4688
Q13.1875 52.9375 13.1875 35.2969" id="ArialMT-30"/>
      </defs>
      <g transform="translate(200.873259275 371.115625)scale(0.2 -0.2)">
       <use xlink:href="#ArialMT-30"/>
      </g>
     </g>
    </g>
    <g id="xtick_6">
     <g id="line2d_19">
      <path clip-path="url(#p5bee155178)" d="
M255.152 352.8
L255.152 7.2" style="fill:none;stroke:#000000;stroke-dasharray:1.000000,3.000000;stroke-dashoffset:0.0;stroke-width:0.5;"/>
     </g>
     <g id="line2d_20">
      <g>
       <use style="stroke:#000000;stroke-width:0.5;" x="255.15235742" xlink:href="#m93b0483c22" y="352.8"/>
      </g>
     </g>
     <g id="line2d_21">
      <g>
       <use style="stroke:#000000;stroke-width:0.5;" x="255.15235742" xlink:href="#m741efc42ff" y="7.2"/>
      </g>
     </g>
     <g id="text_5">
      <!-- 2 -->
      <g transform="translate(250.41173242 371.115625)scale(0.2 -0.2)">
       <use xlink:href="#ArialMT-32"/>
      </g>
     </g>
    </g>
    <g id="xtick_7">
     <g id="line2d_22">
      <path clip-path="url(#p5bee155178)" d="
M304.764 352.8
L304.764 7.2" style="fill:none;stroke:#000000;stroke-dasharray:1.000000,3.000000;stroke-dashoffset:0.0;stroke-width:0.5;"/>
     </g>
     <g id="line2d_23">
      <g>
       <use style="stroke:#000000;stroke-width:0.5;" x="304.764268065" xlink:href="#m93b0483c22" y="352.8"/>
      </g>
     </g>
     <g id="line2d_24">
      <g>
       <use style="stroke:#000000;stroke-width:0.5;" x="304.764268065" xlink:href="#m741efc42ff" y="7.2"/>
      </g>
     </g>
     <g id="text_6">
      <!-- 4 -->
      <g transform="translate(299.812705565 371.115625)scale(0.2 -0.2)">
       <use xlink:href="#ArialMT-34"/>
      </g>
     </g>
    </g>
    <g id="xtick_8">
     <g id="line2d_25">
      <path clip-path="url(#p5bee155178)" d="
M354.376 352.8
L354.376 7.2" style="fill:none;stroke:#000000;stroke-dasharray:1.000000,3.000000;stroke-dashoffset:0.0;stroke-width:0.5;"/>
     </g>
     <g id="line2d_26">
      <g>
       <use style="stroke:#000000;stroke-width:0.5;" x="354.37617871" xlink:href="#m93b0483c22" y="352.8"/>
      </g>
     </g>
     <g id="line2d_27">
      <g>
       <use style="stroke:#000000;stroke-width:0.5;" x="354.37617871" xlink:href="#m741efc42ff" y="7.2"/>
      </g>
     </g>
     <g id="text_7">
      <!-- 6 -->
      <g transform="translate(349.64961621 371.115625)scale(0.2 -0.2)">
       <use xlink:href="#ArialMT-36"/>
      </g>
     </g>
    </g>
    <g id="xtick_9">
     <g id="line2d_28">
      <path clip-path="url(#p5bee155178)" d="
M403.988 352.8
L403.988 7.2" style="fill:none;stroke:#000000;stroke-dasharray:1.000000,3.000000;stroke-dashoffset:0.0;stroke-width:0.5;"/>
     </g>
     <g id="line2d_29">
      <g>
       <use style="stroke:#000000;stroke-width:0.5;" x="403.988089355" xlink:href="#m93b0483c22" y="352.8"/>
      </g>
     </g>
     <g id="line2d_30">
      <g>
       <use style="stroke:#000000;stroke-width:0.5;" x="403.988089355" xlink:href="#m741efc42ff" y="7.2"/>
      </g>
     </g>
     <g id="text_8">
      <!-- 8 -->
      <defs>
       <path d="
M17.6719 38.8125
Q12.2031 40.8281 9.5625 44.5312
Q6.9375 48.25 6.9375 53.4219
Q6.9375 61.2344 12.5469 66.5469
Q18.1719 71.875 27.4844 71.875
Q36.8594 71.875 42.5781 66.4219
Q48.2969 60.9844 48.2969 53.1719
Q48.2969 48.1875 45.6719 44.5
Q43.0625 40.8281 37.75 38.8125
Q44.3438 36.6719 47.7812 31.875
Q51.2188 27.0938 51.2188 20.4531
Q51.2188 11.2812 44.7188 5.03125
Q38.2344 -1.21875 27.6406 -1.21875
Q17.0469 -1.21875 10.5469 5.04688
Q4.04688 11.3281 4.04688 20.7031
Q4.04688 27.6875 7.59375 32.3906
Q11.1406 37.1094 17.6719 38.8125
M15.9219 53.7188
Q15.9219 48.6406 19.1875 45.4062
Q22.4688 42.1875 27.6875 42.1875
Q32.7656 42.1875 36.0156 45.375
Q39.2656 48.5781 39.2656 53.2188
Q39.2656 58.0625 35.9062 61.3594
Q32.5625 64.6562 27.5938 64.6562
Q22.5625 64.6562 19.2344 61.4219
Q15.9219 58.2031 15.9219 53.7188
M13.0938 20.6562
Q13.0938 16.8906 14.875 13.375
Q16.6562 9.85938 20.1719 7.92188
Q23.6875 6 27.7344 6
Q34.0312 6 38.125 10.0469
Q42.2344 14.1094 42.2344 20.3594
Q42.2344 26.7031 38.0156 30.8594
Q33.7969 35.0156 27.4375 35.0156
Q21.2344 35.0156 17.1562 30.9062
Q13.0938 26.8125 13.0938 20.6562" id="ArialMT-38"/>
      </defs>
      <g transform="translate(399.270901855 371.115625)scale(0.2 -0.2)">
       <use xlink:href="#ArialMT-38"/>
      </g>
     </g>
    </g>
    <g id="xtick_10">
     <g id="line2d_31">
      <path clip-path="url(#p5bee155178)" d="
M453.6 352.8
L453.6 7.2" style="fill:none;stroke:#000000;stroke-dasharray:1.000000,3.000000;stroke-dashoffset:0.0;stroke-width:0.5;"/>
     </g>
     <g id="line2d_32">
      <g>
       <use style="stroke:#000000;stroke-width:0.5;" x="453.6" xlink:href="#m93b0483c22" y="352.8"/>
      </g>
     </g>
     <g id="line2d_33">
      <g>
       <use style="stroke:#000000;stroke-width:0.5;" x="453.6" xlink:href="#m741efc42ff" y="7.2"/>
      </g>
     </g>
    </g>
    <g id="xtick_11"/>
    <g id="xtick_12">
     <g id="line2d_34">
      <defs>
       <path d="
M0 0
L0 -2" id="m177f7580d0" style="stroke:#000000;stroke-width:0.5;"/>
      </defs>
      <g>
       <use style="stroke:#000000;stroke-width:0.5;" x="56.70471484" xlink:href="#m177f7580d0" y="352.8"/>
      </g>
     </g>
     <g id="line2d_35">
      <defs>
       <path d="
M0 0
L0 2" id="m5284c7e2a0" style="stroke:#000000;stroke-width:0.5;"/>
      </defs>
      <g>
       <use style="stroke:#000000;stroke-width:0.5;" x="56.70471484" xlink:href="#m5284c7e2a0" y="7.2"/>
      </g>
     </g>
    </g>
    <g id="xtick_13">
     <g id="line2d_36">
      <g>
       <use style="stroke:#000000;stroke-width:0.5;" x="106.316625485" xlink:href="#m177f7580d0" y="352.8"/>
      </g>
     </g>
     <g id="line2d_37">
      <g>
       <use style="stroke:#000000;stroke-width:0.5;" x="106.316625485" xlink:href="#m5284c7e2a0" y="7.2"/>
      </g>
     </g>
    </g>
    <g id="xtick_14">
     <g id="line2d_38">
      <g>
       <use style="stroke:#000000;stroke-width:0.5;" x="155.92853613" xlink:href="#m177f7580d0" y="352.8"/>
      </g>
     </g>
     <g id="line2d_39">
      <g>
       <use style="stroke:#000000;stroke-width:0.5;" x="155.92853613" xlink:href="#m5284c7e2a0" y="7.2"/>
      </g>
     </g>
    </g>
    <g id="xtick_15">
     <g id="line2d_40">
      <g>
       <use style="stroke:#000000;stroke-width:0.5;" x="205.540446775" xlink:href="#m177f7580d0" y="352.8"/>
      </g>
     </g>
     <g id="line2d_41">
      <g>
       <use style="stroke:#000000;stroke-width:0.5;" x="205.540446775" xlink:href="#m5284c7e2a0" y="7.2"/>
      </g>
     </g>
    </g>
    <g id="xtick_16">
     <g id="line2d_42">
      <g>
       <use style="stroke:#000000;stroke-width:0.5;" x="255.15235742" xlink:href="#m177f7580d0" y="352.8"/>
      </g>
     </g>
     <g id="line2d_43">
      <g>
       <use style="stroke:#000000;stroke-width:0.5;" x="255.15235742" xlink:href="#m5284c7e2a0" y="7.2"/>
      </g>
     </g>
    </g>
    <g id="xtick_17">
     <g id="line2d_44">
      <g>
       <use style="stroke:#000000;stroke-width:0.5;" x="304.764268065" xlink:href="#m177f7580d0" y="352.8"/>
      </g>
     </g>
     <g id="line2d_45">
      <g>
       <use style="stroke:#000000;stroke-width:0.5;" x="304.764268065" xlink:href="#m5284c7e2a0" y="7.2"/>
      </g>
     </g>
    </g>
    <g id="xtick_18">
     <g id="line2d_46">
      <g>
       <use style="stroke:#000000;stroke-width:0.5;" x="354.37617871" xlink:href="#m177f7580d0" y="352.8"/>
      </g>
     </g>
     <g id="line2d_47">
      <g>
       <use style="stroke:#000000;stroke-width:0.5;" x="354.37617871" xlink:href="#m5284c7e2a0" y="7.2"/>
      </g>
     </g>
    </g>
    <g id="xtick_19">
     <g id="line2d_48">
      <g>
       <use style="stroke:#000000;stroke-width:0.5;" x="403.988089355" xlink:href="#m177f7580d0" y="352.8"/>
      </g>
     </g>
     <g id="line2d_49">
      <g>
       <use style="stroke:#000000;stroke-width:0.5;" x="403.988089355" xlink:href="#m5284c7e2a0" y="7.2"/>
      </g>
     </g>
    </g>
    <g id="xtick_20">
     <g id="line2d_50">
      <g>
       <use style="stroke:#000000;stroke-width:0.5;" x="453.6" xlink:href="#m177f7580d0" y="352.8"/>
      </g>
     </g>
     <g id="line2d_51">
      <g>
       <use style="stroke:#000000;stroke-width:0.5;" x="453.6" xlink:href="#m5284c7e2a0" y="7.2"/>
      </g>
     </g>
    </g>
    <g id="text_9">
     <!-- log10 of Df -->
     <defs>
      <path d="
M4.98438 -4.29688
L13.5312 -5.5625
Q14.0625 -9.51562 16.5 -11.3281
Q19.7812 -13.7656 25.4375 -13.7656
Q31.5469 -13.7656 34.8594 -11.3281
Q38.1875 -8.89062 39.3594 -4.5
Q40.0469 -1.8125 39.9844 6.78125
Q34.2344 0 25.6406 0
Q14.9375 0 9.07812 7.71875
Q3.21875 15.4375 3.21875 26.2188
Q3.21875 33.6406 5.90625 39.9062
Q8.59375 46.1875 13.6875 49.6094
Q18.7969 53.0312 25.6875 53.0312
Q34.8594 53.0312 40.8281 45.6094
L40.8281 51.8594
L48.9219 51.8594
L48.9219 7.03125
Q48.9219 -5.07812 46.4531 -10.125
Q44 -15.1875 38.6406 -18.1094
Q33.2969 -21.0469 25.4844 -21.0469
Q16.2188 -21.0469 10.5 -16.875
Q4.78125 -12.7031 4.98438 -4.29688
M12.25 26.8594
Q12.25 16.6562 16.2969 11.9688
Q20.3594 7.28125 26.4688 7.28125
Q32.5156 7.28125 36.6094 11.9375
Q40.7188 16.6094 40.7188 26.5625
Q40.7188 36.0781 36.5 40.9062
Q32.2812 45.75 26.3125 45.75
Q20.4531 45.75 16.3438 40.9844
Q12.25 36.2344 12.25 26.8594" id="ArialMT-67"/>
      <path d="
M8.6875 0
L8.6875 45.0156
L0.921875 45.0156
L0.921875 51.8594
L8.6875 51.8594
L8.6875 57.375
Q8.6875 62.5938 9.625 65.1406
Q10.8906 68.5625 14.0781 70.6719
Q17.2812 72.7969 23.0469 72.7969
Q26.7656 72.7969 31.25 71.9219
L29.9375 64.2656
Q27.2031 64.75 24.75 64.75
Q20.75 64.75 19.0938 63.0312
Q17.4375 61.3281 17.4375 56.6406
L17.4375 51.8594
L27.5469 51.8594
L27.5469 45.0156
L17.4375 45.0156
L17.4375 0
z
" id="ArialMT-66"/>
      <path d="
M7.71875 0
L7.71875 71.5781
L32.375 71.5781
Q40.7188 71.5781 45.125 70.5625
Q51.2656 69.1406 55.6094 65.4375
Q61.2812 60.6406 64.0781 53.1875
Q66.8906 45.75 66.8906 36.1875
Q66.8906 28.0312 64.9844 21.7344
Q63.0938 15.4375 60.1094 11.2969
Q57.125 7.17188 53.5781 4.79688
Q50.0469 2.4375 45.0469 1.21875
Q40.0469 0 33.5469 0
z

M17.1875 8.45312
L32.4688 8.45312
Q39.5469 8.45312 43.5781 9.76562
Q47.6094 11.0781 50 13.4844
Q53.375 16.8438 55.25 22.5312
Q57.125 28.2188 57.125 36.3281
Q57.125 47.5625 53.4375 53.5938
Q49.75 59.625 44.4844 61.6719
Q40.6719 63.1406 32.2344 63.1406
L17.1875 63.1406
z
" id="ArialMT-44"/>
      <path d="
M6.39062 0
L6.39062 71.5781
L15.1875 71.5781
L15.1875 0
z
" id="ArialMT-6c"/>
      <path d="
M3.32812 25.9219
Q3.32812 40.3281 11.3281 47.2656
Q18.0156 53.0312 27.6406 53.0312
Q38.3281 53.0312 45.1094 46.0156
Q51.9062 39.0156 51.9062 26.6562
Q51.9062 16.6562 48.9062 10.9062
Q45.9062 5.17188 40.1562 2
Q34.4219 -1.17188 27.6406 -1.17188
Q16.75 -1.17188 10.0312 5.8125
Q3.32812 12.7969 3.32812 25.9219
M12.3594 25.9219
Q12.3594 15.9688 16.7031 11.0156
Q21.0469 6.0625 27.6406 6.0625
Q34.1875 6.0625 38.5312 11.0312
Q42.875 16.0156 42.875 26.2188
Q42.875 35.8438 38.5 40.7969
Q34.125 45.75 27.6406 45.75
Q21.0469 45.75 16.7031 40.8125
Q12.3594 35.8906 12.3594 25.9219" id="ArialMT-6f"/>
      <path d="
M37.25 0
L28.4688 0
L28.4688 56
Q25.2969 52.9844 20.1406 49.9531
Q14.9844 46.9219 10.8906 45.4062
L10.8906 53.9062
Q18.2656 57.375 23.7812 62.2969
Q29.2969 67.2344 31.5938 71.875
L37.25 71.875
z
" id="ArialMT-31"/>
      <path id="ArialMT-20"/>
     </defs>
     <g transform="translate(181.6921875 394.65)scale(0.2 -0.2)">
      <use xlink:href="#ArialMT-6c"/>
      <use x="22.216796875" xlink:href="#ArialMT-6f"/>
      <use x="77.83203125" xlink:href="#ArialMT-67"/>
      <use x="133.447265625" xlink:href="#ArialMT-31"/>
      <use x="189.0625" xlink:href="#ArialMT-30"/>
      <use x="244.677734375" xlink:href="#ArialMT-20"/>
      <use x="272.4609375" xlink:href="#ArialMT-6f"/>
      <use x="328.076171875" xlink:href="#ArialMT-66"/>
      <use x="355.859375" xlink:href="#ArialMT-20"/>
      <use x="383.642578125" xlink:href="#ArialMT-44"/>
      <use x="455.859375" xlink:href="#ArialMT-66"/>
     </g>
    </g>
   </g>
   <g id="matplotlib.axis_2">
    <g id="ytick_1">
     <g id="line2d_52">
      <path clip-path="url(#p5bee155178)" d="
M7.2 352.8
L453.6 352.8" style="fill:none;stroke:#000000;stroke-dasharray:1.000000,3.000000;stroke-dashoffset:0.0;stroke-width:0.5;"/>
     </g>
     <g id="line2d_53">
      <defs>
       <path d="
M0 0
L4 0" id="m728421d6d4" style="stroke:#000000;stroke-width:0.5;"/>
      </defs>
      <g>
       <use style="stroke:#000000;stroke-width:0.5;" x="7.2" xlink:href="#m728421d6d4" y="352.8"/>
      </g>
     </g>
     <g id="line2d_54">
      <defs>
       <path d="
M0 0
L-4 0" id="mcb0005524f" style="stroke:#000000;stroke-width:0.5;"/>
      </defs>
      <g>
       <use style="stroke:#000000;stroke-width:0.5;" x="453.6" xlink:href="#mcb0005524f" y="352.8"/>
      </g>
     </g>
    </g>
    <g id="ytick_2">
     <g id="line2d_55">
      <path clip-path="url(#p5bee155178)" d="
M7.2 284.364
L453.6 284.364" style="fill:none;stroke:#000000;stroke-dasharray:1.000000,3.000000;stroke-dashoffset:0.0;stroke-width:0.5;"/>
     </g>
     <g id="line2d_56">
      <g>
       <use style="stroke:#000000;stroke-width:0.5;" x="7.2" xlink:href="#m728421d6d4" y="284.364356436"/>
      </g>
     </g>
     <g id="line2d_57">
      <g>
       <use style="stroke:#000000;stroke-width:0.5;" x="453.6" xlink:href="#mcb0005524f" y="284.364356436"/>
      </g>
     </g>
    </g>
    <g id="ytick_3">
     <g id="line2d_58">
      <path clip-path="url(#p5bee155178)" d="
M7.2 215.929
L453.6 215.929" style="fill:none;stroke:#000000;stroke-dasharray:1.000000,3.000000;stroke-dashoffset:0.0;stroke-width:0.5;"/>
     </g>
     <g id="line2d_59">
      <g>
       <use style="stroke:#000000;stroke-width:0.5;" x="7.2" xlink:href="#m728421d6d4" y="215.928712871"/>
      </g>
     </g>
     <g id="line2d_60">
      <g>
       <use style="stroke:#000000;stroke-width:0.5;" x="453.6" xlink:href="#mcb0005524f" y="215.928712871"/>
      </g>
     </g>
    </g>
    <g id="ytick_4">
     <g id="line2d_61">
      <path clip-path="url(#p5bee155178)" d="
M7.2 147.493
L453.6 147.493" style="fill:none;stroke:#000000;stroke-dasharray:1.000000,3.000000;stroke-dashoffset:0.0;stroke-width:0.5;"/>
     </g>
     <g id="line2d_62">
      <g>
       <use style="stroke:#000000;stroke-width:0.5;" x="7.2" xlink:href="#m728421d6d4" y="147.493069307"/>
      </g>
     </g>
     <g id="line2d_63">
      <g>
       <use style="stroke:#000000;stroke-width:0.5;" x="453.6" xlink:href="#mcb0005524f" y="147.493069307"/>
      </g>
     </g>
    </g>
    <g id="ytick_5">
     <g id="line2d_64">
      <path clip-path="url(#p5bee155178)" d="
M7.2 79.0574
L453.6 79.0574" style="fill:none;stroke:#000000;stroke-dasharray:1.000000,3.000000;stroke-dashoffset:0.0;stroke-width:0.5;"/>
     </g>
     <g id="line2d_65">
      <g>
       <use style="stroke:#000000;stroke-width:0.5;" x="7.2" xlink:href="#m728421d6d4" y="79.0574257426"/>
      </g>
     </g>
     <g id="line2d_66">
      <g>
       <use style="stroke:#000000;stroke-width:0.5;" x="453.6" xlink:href="#mcb0005524f" y="79.0574257426"/>
      </g>
     </g>
    </g>
    <g id="ytick_6">
     <g id="line2d_67">
      <path clip-path="url(#p5bee155178)" d="
M7.2 10.6218
L453.6 10.6218" style="fill:none;stroke:#000000;stroke-dasharray:1.000000,3.000000;stroke-dashoffset:0.0;stroke-width:0.5;"/>
     </g>
     <g id="line2d_68">
      <g>
       <use style="stroke:#000000;stroke-width:0.5;" x="7.2" xlink:href="#m728421d6d4" y="10.6217821782"/>
      </g>
     </g>
     <g id="line2d_69">
      <g>
       <use style="stroke:#000000;stroke-width:0.5;" x="453.6" xlink:href="#mcb0005524f" y="10.6217821782"/>
      </g>
     </g>
    </g>
   </g>
   <g id="patch_3">
    <path d="
M7.2 7.2
L453.6 7.2" style="fill:none;stroke:#000000;"/>
   </g>
   <g id="patch_4">
    <path d="
M453.6 352.8
L453.6 7.2" style="fill:none;stroke:#000000;"/>
   </g>
   <g id="patch_5">
    <path d="
M7.2 352.8
L453.6 352.8" style="fill:none;stroke:#000000;"/>
   </g>
   <g id="patch_6">
    <path d="
M7.2 352.8
L7.2 7.2" style="fill:none;stroke:#000000;"/>
   </g>
   <g id="text_10">
    <!-- {f1-f24}, 5-D -->
    <defs>
     <path d="
M30.5625 29.8906
L30.5625 21.9219
Q26.8125 21.8281 24.4375 19.875
Q22.0781 17.9219 21.2969 14.5781
Q20.5156 11.2344 20.4531 3.07812
Q20.4062 -5.07812 20.1719 -7.67188
Q19.7344 -11.8125 18.5312 -14.2812
Q17.3281 -16.75 15.5625 -18.2344
Q13.8125 -19.7344 11.0781 -20.5156
Q9.23438 -21.0469 5.03125 -21.0469
L2.29688 -21.0469
L2.29688 -13.375
L3.8125 -13.375
Q8.89062 -13.375 10.5469 -11.5469
Q12.2031 -9.71875 12.2031 -3.32812
Q12.2031 8.89062 12.6406 12.1562
Q13.4219 17.5781 15.7656 20.8281
Q18.1094 24.0781 22.4062 25.875
Q16.7969 28.5625 14.5 32.9844
Q12.2031 37.4062 12.2031 47.9062
Q12.2031 57.4219 11.9688 59.2812
Q11.625 62.5469 10.0312 63.8438
Q8.45312 65.1406 3.8125 65.1406
L2.29688 65.1406
L2.29688 72.7969
L5.03125 72.7969
Q9.8125 72.7969 11.9688 72.0156
Q15.0938 70.9531 17.1406 68.4062
Q19.1875 65.875 19.7969 62.0156
Q20.4062 58.1562 20.4531 49.3594
Q20.5156 40.5781 21.2969 37.2344
Q22.0781 33.8906 24.4375 31.9375
Q26.8125 29.9844 30.5625 29.8906" id="ArialMT-7d"/>
     <path d="
M8.89062 0
L8.89062 10.0156
L18.8906 10.0156
L18.8906 0
Q18.8906 -5.51562 16.9375 -8.90625
Q14.9844 -12.3125 10.75 -14.1562
L8.29688 -10.4062
Q11.0781 -9.1875 12.3906 -6.8125
Q13.7188 -4.4375 13.875 0
z
" id="ArialMT-2c"/>
     <path d="
M4.15625 18.75
L13.375 19.5312
Q14.4062 12.7969 18.1406 9.39062
Q21.875 6 27.1562 6
Q33.5 6 37.8906 10.7812
Q42.2812 15.5781 42.2812 23.4844
Q42.2812 31 38.0625 35.3438
Q33.8438 39.7031 27 39.7031
Q22.75 39.7031 19.3281 37.7656
Q15.9219 35.8438 13.9688 32.7656
L5.71875 33.8438
L12.6406 70.6094
L48.25 70.6094
L48.25 62.2031
L19.6719 62.2031
L15.8281 42.9688
Q22.2656 47.4688 29.3438 47.4688
Q38.7188 47.4688 45.1562 40.9688
Q51.6094 34.4688 51.6094 24.2656
Q51.6094 14.5469 45.9531 7.46875
Q39.0625 -1.21875 27.1562 -1.21875
Q17.3906 -1.21875 11.2031 4.25
Q5.03125 9.71875 4.15625 18.75" id="ArialMT-35"/>
     <path d="
M2.78125 29.8906
Q6.54688 29.9844 8.90625 31.9062
Q11.2812 33.8438 12.0625 37.2031
Q12.8438 40.5781 12.8906 48.7344
Q12.9375 56.8906 13.1875 59.4688
Q13.625 63.5781 14.8125 66.0625
Q16.0156 68.5625 17.7656 70.0469
Q19.5312 71.5312 22.2656 72.3125
Q24.125 72.7969 28.3281 72.7969
L31.0625 72.7969
L31.0625 65.1406
L29.5469 65.1406
Q24.4688 65.1406 22.7969 63.2969
Q21.1406 61.4688 21.1406 55.125
Q21.1406 42.3281 20.6094 38.9688
Q19.7344 33.7344 17.6094 30.9062
Q15.4844 28.0781 10.9375 25.875
Q16.3125 23.6406 18.7188 19.0156
Q21.1406 14.4062 21.1406 3.90625
Q21.1406 -5.60938 21.3438 -7.42188
Q21.7344 -10.75 23.3125 -12.0625
Q24.9062 -13.375 29.5469 -13.375
L31.0625 -13.375
L31.0625 -21.0469
L28.3281 -21.0469
Q23.5312 -21.0469 21.3906 -20.2656
Q18.2656 -19.1406 16.2031 -16.625
Q14.1562 -14.1094 13.5469 -10.25
Q12.9375 -6.39062 12.8906 2.39062
Q12.8438 11.1875 12.0625 14.5469
Q11.2812 17.9219 8.90625 19.875
Q6.54688 21.8281 2.78125 21.9219
z
" id="ArialMT-7b"/>
    </defs>
    <g transform="translate(337.900125 345.888)scale(0.2 -0.2)">
     <use xlink:href="#ArialMT-7b"/>
     <use x="33.3984375" xlink:href="#ArialMT-66"/>
     <use x="61.181640625" xlink:href="#ArialMT-31"/>
     <use x="116.796875" xlink:href="#ArialMT-2d"/>
     <use x="150.09765625" xlink:href="#ArialMT-66"/>
     <use x="177.880859375" xlink:href="#ArialMT-32"/>
     <use x="233.49609375" xlink:href="#ArialMT-34"/>
     <use x="289.111328125" xlink:href="#ArialMT-7d"/>
     <use x="322.509765625" xlink:href="#ArialMT-2c"/>
     <use x="350.29296875" xlink:href="#ArialMT-20"/>
     <use x="378.076171875" xlink:href="#ArialMT-35"/>
     <use x="433.69140625" xlink:href="#ArialMT-2d"/>
     <use x="466.9921875" xlink:href="#ArialMT-44"/>
    </g>
   </g>
   <g id="text_11">
    <!-- v2.0.1 -->
    <defs>
     <path d="
M21 0
L1.26562 51.8594
L10.5469 51.8594
L21.6875 20.7969
Q23.4844 15.7656 25 10.3594
Q26.1719 14.4531 28.2656 20.2188
L39.7969 51.8594
L48.8281 51.8594
L29.2031 0
z
" id="ArialMT-76"/>
     <path d="
M9.07812 0
L9.07812 10.0156
L19.0938 10.0156
L19.0938 0
z
" id="ArialMT-2e"/>
    </defs>
    <g style="fill:#808080;" transform="translate(217.76171875 347.3565)scale(0.1 -0.1)">
     <use xlink:href="#ArialMT-76"/>
     <use x="50.0" xlink:href="#ArialMT-32"/>
     <use x="105.615234375" xlink:href="#ArialMT-2e"/>
     <use x="133.3984375" xlink:href="#ArialMT-30"/>
     <use x="189.013671875" xlink:href="#ArialMT-2e"/>
     <use x="216.796875" xlink:href="#ArialMT-31"/>
    </g>
   </g>
  </g>
 </g>
 <defs>
  <clipPath id="p5bee155178">
   <rect height="345.6" width="446.4" x="7.2" y="7.2"/>
  </clipPath>
 </defs>
</svg>
