<?xml version="1.0" encoding="utf-8" standalone="no"?>
<!DOCTYPE svg PUBLIC "-//W3C//DTD SVG 1.1//EN"
  "http://www.w3.org/Graphics/SVG/1.1/DTD/svg11.dtd">
<!-- Created with matplotlib (http://matplotlib.org/) -->
<svg height="406pt" version="1.1" viewBox="0 0 460 406" width="460pt" xmlns="http://www.w3.org/2000/svg" xmlns:xlink="http://www.w3.org/1999/xlink">
 <defs>
  <style type="text/css">
*{stroke-linecap:butt;stroke-linejoin:round;}
  </style>
 </defs>
 <g id="figure_1">
  <g id="patch_1">
   <path d="
M0 406.059
L460.8 406.059
L460.8 0
L0 0
z
" style="fill:#ffffff;"/>
  </g>
  <g id="axes_1">
   <g id="patch_2">
    <path d="
M7.2 352.8
L453.6 352.8
L453.6 7.2
L7.2 7.2
z
" style="fill:#ffffff;"/>
   </g>
   <g id="line2d_1">
    <path clip-path="url(#p5bee155178)" d="
M76.8147 352.8
L76.8147 348.238
L175.496 348.238
L175.496 343.675
L180.226 343.675
L180.226 339.113
L183.48 339.113
L183.48 334.55
L189.196 334.55
L189.196 329.988
L195.366 329.988
L195.366 325.426
L200.915 325.426
L200.915 320.863
L201.615 320.863
L201.615 316.301
L204.223 316.301
L204.223 311.739
L208.705 311.739
L208.705 307.176
L210.557 307.176
L210.557 302.614
L210.743 302.614
L210.743 298.051
L212.376 298.051
L212.386 288.927
L212.907 288.927
L213.011 275.24
L213.241 275.24
L213.241 270.677
L213.358 270.677
L213.372 256.99
L213.671 256.99
L213.744 247.865
L213.801 247.865
L213.801 243.303
L213.936 243.303
L213.936 238.741
L214.074 238.741
L214.173 220.491
L214.459 220.491
L214.526 211.366
L214.701 211.366
L214.737 197.679
L214.897 197.679
L214.897 193.117
L215.254 193.117
L215.351 179.43
L215.547 179.43
L215.547 174.867
L216.06 174.867
L216.128 165.743
L216.379 165.743
L216.379 161.18
L217.414 161.18
L217.414 156.618
L217.647 156.618
L217.752 147.493
L219.625 147.493
L219.625 142.931
L220.93 142.931
L220.93 138.368
L221.093 138.368
L221.093 133.806
L223.014 133.806
L223.014 129.244
L224.372 129.244
L224.372 124.681
L225.969 124.681
L225.969 120.119
L226.623 120.119
L226.623 115.556
L227.54 115.556
L227.54 110.994
L228.84 110.994
L228.915 101.869
L229.549 101.869
L229.549 97.3069
L232.303 97.3069
L232.303 92.7446
L232.893 92.7446
L232.893 88.1822
L234.264 88.1822
L234.264 83.6198
L234.788 83.6198
L234.788 79.0574
L235.441 79.0574
L235.441 74.495
L236.134 74.495
L236.134 69.9327
L236.325 69.9327
L236.325 65.3703
L236.854 65.3703
L236.854 56.2455
L237.213 56.2455
L237.213 51.6832
L238.41 51.6832
L238.41 47.1208
L238.933 47.1208
L238.933 42.5584
L240.827 42.5584
L240.827 37.996
L241.324 37.996
L241.43 28.8713
L241.537 28.8713
L241.537 24.3089
L241.673 24.3089
L241.673 19.7465
L242.211 19.7465
L242.211 15.1842
L242.358 15.1842
L242.358 10.6218
L242.358 10.6218
L453.6 10.6218
L453.6 10.6218" style="fill:none;stroke:#ff0000;stroke-linecap:square;stroke-width:3.0;"/>
   </g>
   <g id="line2d_2">
    <path clip-path="url(#p5bee155178)" d="
M221.597 352.8
L221.597 348.238
L222.404 348.238
L222.404 343.675
L225.738 343.675
L225.804 334.55
L229.94 334.55
L229.951 325.426
L232.775 325.426
L232.775 320.863
L234.301 320.863
L234.301 316.301
L235.015 316.301
L235.015 311.739
L235.3 311.739
L235.3 307.176
L235.497 307.176
L235.497 302.614
L235.796 302.614
L235.796 298.051
L236.234 298.051
L236.234 293.489
L236.686 293.489
L236.686 288.927
L238.597 288.927
L238.597 284.364
L239.614 284.364
L239.614 279.802
L239.89 279.802
L239.89 275.24
L240.472 275.24
L240.472 270.677
L241.34 270.677
L241.34 266.115
L243.085 266.115
L243.085 261.552
L244.023 261.552
L244.023 256.99
L244.316 256.99
L244.316 252.428
L244.797 252.428
L244.797 247.865
L246.089 247.865
L246.089 243.303
L247.187 243.303
L247.21 234.178
L248.144 234.178
L248.144 229.616
L248.409 229.616
L248.409 225.053
L248.827 225.053
L248.827 220.491
L249.604 220.491
L249.604 215.929
L250.086 215.929
L250.086 211.366
L250.418 211.366
L250.418 206.804
L251.022 206.804
L251.061 197.679
L251.253 197.679
L251.357 183.992
L251.424 183.992
L251.424 179.43
L251.594 179.43
L251.594 174.867
L251.798 174.867
L251.872 165.743
L252.134 165.743
L252.238 156.618
L252.26 156.618
L252.26 152.055
L252.948 152.055
L252.948 147.493
L253.374 147.493
L253.374 142.931
L253.73 142.931
L253.83 133.806
L254.242 133.806
L254.242 129.244
L254.848 129.244
L254.848 124.681
L255.053 124.681
L255.053 120.119
L255.544 120.119
L255.544 115.556
L256.258 115.556
L256.305 106.432
L257.204 106.432
L257.215 97.3069
L257.396 97.3069
L257.396 92.7446
L258.02 92.7446
L258.084 83.6198
L259.543 83.6198
L259.543 79.0574
L259.776 79.0574
L259.776 74.495
L287.099 74.495
L287.099 69.9327
L288.589 69.9327
L288.589 65.3703
L295.514 65.3703
L295.514 60.8079
L303.332 60.8079
L303.332 56.2455
L307.162 56.2455
L307.162 51.6832
L315.226 51.6832
L315.226 47.1208
L317.869 47.1208
L317.869 42.5584
L319.397 42.5584
L319.397 37.996
L323.571 37.996
L323.571 33.4337
L324.616 33.4337
L324.616 28.8713
L327.343 28.8713
L327.343 24.3089
L331.342 24.3089
L331.342 19.7465
L332.323 19.7465
L332.323 15.1842
L334.524 15.1842
L334.524 10.6218
L334.524 10.6218
L453.6 10.6218
L453.6 10.6218" style="fill:none;stroke:#00bfbf;stroke-linecap:square;"/>
   </g>
   <g id="line2d_3">
    <path clip-path="url(#p5bee155178)" d="
M218.578 352.8
L218.578 348.238
L221.597 348.238
L221.597 343.675
L222.075 343.675
L222.075 339.113
L222.404 339.113
L222.404 334.55
L224.805 334.55
L224.837 325.426
L225.738 325.426
L225.804 316.301
L228.358 316.301
L228.405 307.176
L229.951 307.176
L229.951 302.614
L230.928 302.614
L230.928 298.051
L232.406 298.051
L232.406 293.489
L232.744 293.489
L232.744 288.927
L233.044 288.927
L233.044 284.364
L236.234 284.364
L236.234 279.802
L238.597 279.802
L238.597 275.24
L239.614 275.24
L239.614 270.677
L239.867 270.677
L239.867 266.115
L240.131 266.115
L240.131 261.552
L240.472 261.552
L240.472 256.99
L242.327 256.99
L242.327 252.428
L243.085 252.428
L243.085 247.865
L244.023 247.865
L244.023 243.303
L244.316 243.303
L244.316 238.741
L244.43 238.741
L244.43 234.178
L244.797 234.178
L244.797 229.616
L246.05 229.616
L246.05 225.053
L247.187 225.053
L247.21 215.929
L248.144 215.929
L248.144 211.366
L248.359 211.366
L248.409 202.242
L248.827 202.242
L248.827 197.679
L249.421 197.679
L249.421 193.117
L249.686 193.117
L249.686 188.554
L249.868 188.554
L249.868 183.992
L250.355 183.992
L250.355 179.43
L250.648 179.43
L250.71 170.305
L250.854 170.305
L250.854 165.743
L251.027 165.743
L251.027 161.18
L251.19 161.18
L251.19 156.618
L251.313 156.618
L251.357 142.931
L251.424 142.931
L251.424 138.368
L252.415 138.368
L252.415 133.806
L252.658 133.806
L252.658 129.244
L252.949 129.244
L252.949 124.681
L253.73 124.681
L253.73 120.119
L254.242 120.119
L254.242 115.556
L254.848 115.556
L254.848 110.994
L255.459 110.994
L255.544 101.869
L256.105 101.869
L256.105 97.3069
L256.258 97.3069
L256.305 83.6198
L256.501 83.6198
L256.501 79.0574
L258.02 79.0574
L258.02 74.495
L287.099 74.495
L287.099 69.9327
L288.589 69.9327
L288.589 65.3703
L295.514 65.3703
L295.514 60.8079
L298.782 60.8079
L298.782 56.2455
L299.497 56.2455
L299.497 51.6832
L303.002 51.6832
L303.002 47.1208
L303.332 47.1208
L303.332 42.5584
L304.793 42.5584
L304.793 37.996
L305.15 37.996
L305.15 33.4337
L310.209 33.4337
L310.209 28.8713
L314.153 28.8713
L314.153 24.3089
L317.869 24.3089
L317.869 19.7465
L322.878 19.7465
L322.878 15.1842
L330.896 15.1842
L330.896 10.6218
L330.896 10.6218
L453.6 10.6218
L453.6 10.6218" style="fill:none;stroke:#bf00bf;stroke-linecap:square;"/>
   </g>
   <g id="line2d_4">
    <path clip-path="url(#p5bee155178)" d="
M218.578 352.8
L218.578 348.238
L221.597 348.238
L221.597 343.675
L222.075 343.675
L222.075 339.113
L222.198 339.113
L222.198 334.55
L222.404 334.55
L222.475 325.426
L223.574 325.426
L223.574 320.863
L224.118 320.863
L224.118 316.301
L224.805 316.301
L224.805 311.739
L225.738 311.739
L225.804 302.614
L226.597 302.614
L226.597 298.051
L226.865 298.051
L226.865 293.489
L228.358 293.489
L228.358 288.927
L230.928 288.927
L230.928 284.364
L232.744 284.364
L232.744 279.802
L236.234 279.802
L236.234 275.24
L237.514 275.24
L237.514 270.677
L238.217 270.677
L238.217 266.115
L238.597 266.115
L238.597 261.552
L239.614 261.552
L239.614 256.99
L239.867 256.99
L239.867 252.428
L240.131 252.428
L240.131 247.865
L240.261 247.865
L240.261 243.303
L240.472 243.303
L240.472 238.741
L241.574 238.741
L241.574 234.178
L242.327 234.178
L242.327 229.616
L243.039 229.616
L243.039 225.053
L243.652 225.053
L243.652 220.491
L244.118 220.491
L244.118 215.929
L244.394 215.929
L244.43 206.804
L244.797 206.804
L244.797 202.242
L245.332 202.242
L245.332 197.679
L245.717 197.679
L245.816 188.554
L245.892 188.554
L245.892 183.992
L246.05 183.992
L246.05 179.43
L247.21 179.43
L247.21 174.867
L248.359 174.867
L248.409 165.743
L248.646 165.743
L248.717 156.618
L248.76 156.618
L248.76 152.055
L249.397 152.055
L249.421 138.368
L250.295 138.368
L250.295 133.806
L250.558 133.806
L250.667 115.556
L251.107 115.556
L251.107 110.994
L251.357 110.994
L251.357 106.432
L252.102 106.432
L252.148 97.3069
L252.658 97.3069
L252.658 92.7446
L253.323 92.7446
L253.323 88.1822
L253.469 88.1822
L253.469 83.6198
L253.73 83.6198
L253.73 79.0574
L254.689 79.0574
L254.689 74.495
L255.459 74.495
L255.459 69.9327
L288.589 69.9327
L288.589 65.3703
L292.745 65.3703
L292.745 60.8079
L295.025 60.8079
L295.025 56.2455
L295.514 56.2455
L295.514 51.6832
L298.782 51.6832
L298.782 47.1208
L299.497 47.1208
L299.497 42.5584
L303.002 42.5584
L303.002 37.996
L303.332 37.996
L303.332 33.4337
L305.15 33.4337
L305.15 28.8713
L308.191 28.8713
L308.191 24.3089
L310.209 24.3089
L310.209 19.7465
L315.649 19.7465
L315.649 15.1842
L321.553 15.1842
L321.553 10.6218
L321.553 10.6218
L453.6 10.6218
L453.6 10.6218" style="fill:none;stroke:#000000;stroke-linecap:square;"/>
   </g>
   <g id="line2d_5">
    <path clip-path="url(#p5bee155178)" d="
M213.81 352.8
L213.81 348.238
L213.936 348.238
L213.936 343.675
L214.701 343.675
L214.701 339.113
L216.278 339.113
L216.278 334.55
L217.052 334.55
L217.052 329.988
L217.559 329.988
L217.657 320.863
L218.321 320.863
L218.412 311.739
L218.444 311.739
L218.444 307.176
L219.761 307.176
L219.761 302.614
L220.381 302.614
L220.381 298.051
L220.579 298.051
L220.66 288.927
L221.06 288.927
L221.114 279.802
L221.597 279.802
L221.597 275.24
L222.075 275.24
L222.075 270.677
L222.475 270.677
L222.475 266.115
L222.84 266.115
L222.84 261.552
L223.574 261.552
L223.586 252.428
L224.078 252.428
L224.118 243.303
L224.207 243.303
L224.207 238.741
L224.616 238.741
L224.616 234.178
L225.126 234.178
L225.126 229.616
L227.535 229.616
L227.535 225.053
L228.826 225.053
L228.826 220.491
L228.999 220.491
L228.999 215.929
L229.373 215.929
L229.437 206.804
L230.285 206.804
L230.285 202.242
L231.961 202.242
L231.961 197.679
L233.059 197.679
L233.059 193.117
L233.674 193.117
L233.674 188.554
L234.014 188.554
L234.014 183.992
L235.249 183.992
L235.249 179.43
L235.452 179.43
L235.452 174.867
L235.61 174.867
L235.61 170.305
L236.037 170.305
L236.037 165.743
L236.264 165.743
L236.264 161.18
L236.973 161.18
L236.973 156.618
L237.829 156.618
L237.829 152.055
L238.217 152.055
L238.217 147.493
L238.597 147.493
L238.597 142.931
L238.746 142.931
L238.746 138.368
L239.867 138.368
L239.867 133.806
L241.66 133.806
L241.66 129.244
L242.502 129.244
L242.595 120.119
L242.733 120.119
L242.733 115.556
L243.039 115.556
L243.1 106.432
L243.95 106.432
L243.95 101.869
L244.394 101.869
L244.394 97.3069
L244.545 97.3069
L244.579 88.1822
L245.678 88.1822
L245.74 79.0574
L245.816 79.0574
L245.816 74.495
L246.276 74.495
L246.276 69.9327
L246.962 69.9327
L246.962 65.3703
L247.612 65.3703
L247.612 60.8079
L247.836 60.8079
L247.908 42.5584
L248.273 42.5584
L248.273 37.996
L248.599 37.996
L248.599 33.4337
L250.081 33.4337
L250.081 28.8713
L252.213 28.8713
L252.213 24.3089
L253.39 24.3089
L253.39 19.7465
L266.897 19.7465
L266.897 15.1842
L284.453 15.1842
L284.453 10.6218
L284.453 10.6218
L453.6 10.6218
L453.6 10.6218" style="fill:none;stroke:#00bfbf;stroke-linecap:square;"/>
   </g>
   <g id="line2d_6">
    <path clip-path="url(#p5bee155178)" d="
M76.8147 352.8
L76.8147 348.238
L175.496 348.238
L175.496 343.675
L180.226 343.675
L180.226 339.113
L183.48 339.113
L183.48 334.55
L189.196 334.55
L189.196 329.988
L195.366 329.988
L195.366 325.426
L200.915 325.426
L200.915 320.863
L201.615 320.863
L201.615 316.301
L204.223 316.301
L204.223 311.739
L208.705 311.739
L208.705 307.176
L210.557 307.176
L210.557 302.614
L210.743 302.614
L210.743 298.051
L212.376 298.051
L212.386 288.927
L212.907 288.927
L213.011 275.24
L213.241 275.24
L213.241 270.677
L213.358 270.677
L213.372 256.99
L213.671 256.99
L213.744 247.865
L213.801 247.865
L213.801 243.303
L213.936 243.303
L213.936 238.741
L214.074 238.741
L214.173 220.491
L214.459 220.491
L214.526 211.366
L214.701 211.366
L214.737 197.679
L214.897 197.679
L214.897 193.117
L215.254 193.117
L215.351 179.43
L215.547 179.43
L215.547 174.867
L216.06 174.867
L216.128 165.743
L216.379 165.743
L216.379 161.18
L217.414 161.18
L217.414 156.618
L217.647 156.618
L217.752 147.493
L219.625 147.493
L219.625 142.931
L220.93 142.931
L220.93 138.368
L221.093 138.368
L221.093 133.806
L223.014 133.806
L223.014 129.244
L224.372 129.244
L224.372 124.681
L225.969 124.681
L225.969 120.119
L226.623 120.119
L226.623 115.556
L227.54 115.556
L227.54 110.994
L228.84 110.994
L228.915 101.869
L229.549 101.869
L229.549 97.3069
L232.303 97.3069
L232.303 92.7446
L232.893 92.7446
L232.893 88.1822
L234.264 88.1822
L234.264 83.6198
L234.788 83.6198
L234.788 79.0574
L235.441 79.0574
L235.441 74.495
L236.134 74.495
L236.134 69.9327
L236.325 69.9327
L236.325 65.3703
L236.854 65.3703
L236.854 56.2455
L237.213 56.2455
L237.213 51.6832
L238.41 51.6832
L238.41 47.1208
L238.933 47.1208
L238.933 42.5584
L240.827 42.5584
L240.827 37.996
L241.324 37.996
L241.43 28.8713
L241.537 28.8713
L241.537 24.3089
L241.673 24.3089
L241.673 19.7465
L242.211 19.7465
L242.211 15.1842
L242.358 15.1842
L242.358 10.6218
L242.358 10.6218
L453.6 10.6218
L453.6 10.6218" style="fill:none;stroke:#bf00bf;stroke-linecap:square;"/>
   </g>
   <g id="matplotlib.axis_1">
    <g id="xtick_1"/>
    <g id="xtick_2">
     <g id="line2d_7">
      <path clip-path="url(#p5bee155178)" d="
M56.7047 352.8
L56.7047 7.2" style="fill:none;stroke:#000000;stroke-dasharray:1.000000,3.000000;stroke-dashoffset:0.0;stroke-width:0.5;"/>
     </g>
     <g id="line2d_8">
      <defs>
       <path d="
M0 0
L0 -4" id="m93b0483c22" style="stroke:#000000;stroke-width:0.5;"/>
      </defs>
      <g>
       <use style="stroke:#000000;stroke-width:0.5;" x="56.70471484" xlink:href="#m93b0483c22" y="352.8"/>
      </g>
     </g>
     <g id="line2d_9">
      <defs>
       <path d="
M0 0
L0 4" id="m741efc42ff" style="stroke:#000000;stroke-width:0.5;"/>
      </defs>
      <g>
       <use style="stroke:#000000;stroke-width:0.5;" x="56.70471484" xlink:href="#m741efc42ff" y="7.2"/>
      </g>
     </g>
     <g id="text_1">
      <!-- -6 -->
      <defs>
       <path d="
M3.17188 21.4844
L3.17188 30.3281
L30.1719 30.3281
L30.1719 21.4844
z
" id="ArialMT-2d"/>
       <path d="
M49.75 54.0469
L41.0156 53.375
Q39.8438 58.5469 37.7031 60.8906
Q34.125 64.6562 28.9062 64.6562
Q24.7031 64.6562 21.5312 62.3125
Q17.3906 59.2812 14.9844 53.4688
Q12.5938 47.6562 12.5 36.9219
Q15.6719 41.75 20.2656 44.0938
Q24.8594 46.4375 29.8906 46.4375
Q38.6719 46.4375 44.8438 39.9688
Q51.0312 33.5 51.0312 23.25
Q51.0312 16.5 48.125 10.7188
Q45.2188 4.9375 40.1406 1.85938
Q35.0625 -1.21875 28.6094 -1.21875
Q17.625 -1.21875 10.6875 6.85938
Q3.76562 14.9375 3.76562 33.5
Q3.76562 54.25 11.4219 63.6719
Q18.1094 71.875 29.4375 71.875
Q37.8906 71.875 43.2812 67.1406
Q48.6875 62.4062 49.75 54.0469
M13.875 23.1875
Q13.875 18.6562 15.7969 14.5
Q17.7188 10.3594 21.1875 8.17188
Q24.6562 6 28.4688 6
Q34.0312 6 38.0312 10.4844
Q42.0469 14.9844 42.0469 22.7031
Q42.0469 30.125 38.0781 34.3906
Q34.125 38.6719 28.125 38.6719
Q22.1719 38.6719 18.0156 34.3906
Q13.875 30.125 13.875 23.1875" id="ArialMT-36"/>
      </defs>
      <g transform="translate(48.58908984 371.115625)scale(0.2 -0.2)">
       <use xlink:href="#ArialMT-2d"/>
       <use x="33.30078125" xlink:href="#ArialMT-36"/>
      </g>
     </g>
    </g>
    <g id="xtick_3">
     <g id="line2d_10">
      <path clip-path="url(#p5bee155178)" d="
M106.317 352.8
L106.317 7.2" style="fill:none;stroke:#000000;stroke-dasharray:1.000000,3.000000;stroke-dashoffset:0.0;stroke-width:0.5;"/>
     </g>
     <g id="line2d_11">
      <g>
       <use style="stroke:#000000;stroke-width:0.5;" x="106.316625485" xlink:href="#m93b0483c22" y="352.8"/>
      </g>
     </g>
     <g id="line2d_12">
      <g>
       <use style="stroke:#000000;stroke-width:0.5;" x="106.316625485" xlink:href="#m741efc42ff" y="7.2"/>
      </g>
     </g>
     <g id="text_2">
      <!-- -4 -->
      <defs>
       <path d="
M32.3281 0
L32.3281 17.1406
L1.26562 17.1406
L1.26562 25.2031
L33.9375 71.5781
L41.1094 71.5781
L41.1094 25.2031
L50.7812 25.2031
L50.7812 17.1406
L41.1094 17.1406
L41.1094 0
z

M32.3281 25.2031
L32.3281 57.4688
L9.90625 25.2031
z
" id="ArialMT-34"/>
      </defs>
      <g transform="translate(98.226000485 371.115625)scale(0.2 -0.2)">
       <use xlink:href="#ArialMT-2d"/>
       <use x="33.30078125" xlink:href="#ArialMT-34"/>
      </g>
     </g>
    </g>
    <g id="xtick_4">
     <g id="line2d_13">
      <path clip-path="url(#p5bee155178)" d="
M155.929 352.8
L155.929 7.2" style="fill:none;stroke:#000000;stroke-dasharray:1.000000,3.000000;stroke-dashoffset:0.0;stroke-width:0.5;"/>
     </g>
     <g id="line2d_14">
      <g>
       <use style="stroke:#000000;stroke-width:0.5;" x="155.92853613" xlink:href="#m93b0483c22" y="352.8"/>
      </g>
     </g>
     <g id="line2d_15">
      <g>
       <use style="stroke:#000000;stroke-width:0.5;" x="155.92853613" xlink:href="#m741efc42ff" y="7.2"/>
      </g>
     </g>
     <g id="text_3">
      <!-- -2 -->
      <defs>
       <path d="
M50.3438 8.45312
L50.3438 0
L3.03125 0
Q2.9375 3.17188 4.04688 6.10938
Q5.85938 10.9375 9.82812 15.625
Q13.8125 20.3125 21.3438 26.4688
Q33.0156 36.0312 37.1094 41.625
Q41.2188 47.2188 41.2188 52.2031
Q41.2188 57.4219 37.4688 61
Q33.7344 64.5938 27.7344 64.5938
Q21.3906 64.5938 17.5781 60.7812
Q13.7656 56.9844 13.7188 50.25
L4.6875 51.1719
Q5.60938 61.2812 11.6562 66.5781
Q17.7188 71.875 27.9375 71.875
Q38.2344 71.875 44.2344 66.1562
Q50.25 60.4531 50.25 52
Q50.25 47.7031 48.4844 43.5469
Q46.7344 39.4062 42.6562 34.8125
Q38.5781 30.2188 29.1094 22.2188
Q21.1875 15.5781 18.9375 13.2031
Q16.7031 10.8438 15.2344 8.45312
z
" id="ArialMT-32"/>
      </defs>
      <g transform="translate(147.88166113 371.115625)scale(0.2 -0.2)">
       <use xlink:href="#ArialMT-2d"/>
       <use x="33.30078125" xlink:href="#ArialMT-32"/>
      </g>
     </g>
    </g>
    <g id="xtick_5">
     <g id="line2d_16">
      <path clip-path="url(#p5bee155178)" d="
M205.54 352.8
L205.54 7.2" style="fill:none;stroke:#000000;stroke-dasharray:1.000000,3.000000;stroke-dashoffset:0.0;stroke-width:0.5;"/>
     </g>
     <g id="line2d_17">
      <g>
       <use style="stroke:#000000;stroke-width:0.5;" x="205.540446775" xlink:href="#m93b0483c22" y="352.8"/>
      </g>
     </g>
     <g id="line2d_18">
      <g>
       <use style="stroke:#000000;stroke-width:0.5;" x="205.540446775" xlink:href="#m741efc42ff" y="7.2"/>
      </g>
     </g>
     <g id="text_4">
      <!-- 0 -->
      <defs>
       <path d="
M4.15625 35.2969
Q4.15625 48 6.76562 55.7344
Q9.375 63.4844 14.5156 67.6719
Q19.6719 71.875 27.4844 71.875
Q33.25 71.875 37.5938 69.5469
Q41.9375 67.2344 44.7656 62.8594
Q47.6094 58.5 49.2188 52.2188
Q50.8281 45.9531 50.8281 35.2969
Q50.8281 22.7031 48.2344 14.9688
Q45.6562 7.23438 40.5 3
Q35.3594 -1.21875 27.4844 -1.21875
Q17.1406 -1.21875 11.2344 6.20312
Q4.15625 15.1406 4.15625 35.2969
M13.1875 35.2969
Q13.1875 17.6719 17.3125 11.8281
Q21.4375 6 27.4844 6
Q33.5469 6 37.6719 11.8594
Q41.7969 17.7188 41.7969 35.2969
Q41.7969 52.9844 37.6719 58.7812
Q33.5469 64.5938 27.3906 64.5938
Q21.3438 64.5938 17.7188 59.4688
Q13.1875 52.9375 13.1875 35.2969" id="ArialMT-30"/>
      </defs>
      <g transform="translate(200.873259275 371.115625)scale(0.2 -0.2)">
       <use xlink:href="#ArialMT-30"/>
      </g>
     </g>
    </g>
    <g id="xtick_6">
     <g id="line2d_19">
      <path clip-path="url(#p5bee155178)" d="
M255.152 352.8
L255.152 7.2" style="fill:none;stroke:#000000;stroke-dasharray:1.000000,3.000000;stroke-dashoffset:0.0;stroke-width:0.5;"/>
     </g>
     <g id="line2d_20">
      <g>
       <use style="stroke:#000000;stroke-width:0.5;" x="255.15235742" xlink:href="#m93b0483c22" y="352.8"/>
      </g>
     </g>
     <g id="line2d_21">
      <g>
       <use style="stroke:#000000;stroke-width:0.5;" x="255.15235742" xlink:href="#m741efc42ff" y="7.2"/>
      </g>
     </g>
     <g id="text_5">
      <!-- 2 -->
      <g transform="translate(250.41173242 371.115625)scale(0.2 -0.2)">
       <use xlink:href="#ArialMT-32"/>
      </g>
     </g>
    </g>
    <g id="xtick_7">
     <g id="line2d_22">
      <path clip-path="url(#p5bee155178)" d="
M304.764 352.8
L304.764 7.2" style="fill:none;stroke:#000000;stroke-dasharray:1.000000,3.000000;stroke-dashoffset:0.0;stroke-width:0.5;"/>
     </g>
     <g id="line2d_23">
      <g>
       <use style="stroke:#000000;stroke-width:0.5;" x="304.764268065" xlink:href="#m93b0483c22" y="352.8"/>
      </g>
     </g>
     <g id="line2d_24">
      <g>
       <use style="stroke:#000000;stroke-width:0.5;" x="304.764268065" xlink:href="#m741efc42ff" y="7.2"/>
      </g>
     </g>
     <g id="text_6">
      <!-- 4 -->
      <g transform="translate(299.812705565 371.115625)scale(0.2 -0.2)">
       <use xlink:href="#ArialMT-34"/>
      </g>
     </g>
    </g>
    <g id="xtick_8">
     <g id="line2d_25">
      <path clip-path="url(#p5bee155178)" d="
M354.376 352.8
L354.376 7.2" style="fill:none;stroke:#000000;stroke-dasharray:1.000000,3.000000;stroke-dashoffset:0.0;stroke-width:0.5;"/>
     </g>
     <g id="line2d_26">
      <g>
       <use style="stroke:#000000;stroke-width:0.5;" x="354.37617871" xlink:href="#m93b0483c22" y="352.8"/>
      </g>
     </g>
     <g id="line2d_27">
      <g>
       <use style="stroke:#000000;stroke-width:0.5;" x="354.37617871" xlink:href="#m741efc42ff" y="7.2"/>
      </g>
     </g>
     <g id="text_7">
      <!-- 6 -->
      <g transform="translate(349.64961621 371.115625)scale(0.2 -0.2)">
       <use xlink:href="#ArialMT-36"/>
      </g>
     </g>
    </g>
    <g id="xtick_9">
     <g id="line2d_28">
      <path clip-path="url(#p5bee155178)" d="
M403.988 352.8
L403.988 7.2" style="fill:none;stroke:#000000;stroke-dasharray:1.000000,3.000000;stroke-dashoffset:0.0;stroke-width:0.5;"/>
     </g>
     <g id="line2d_29">
      <g>
       <use style="stroke:#000000;stroke-width:0.5;" x="403.988089355" xlink:href="#m93b0483c22" y="352.8"/>
      </g>
     </g>
     <g id="line2d_30">
      <g>
       <use style="stroke:#000000;stroke-width:0.5;" x="403.988089355" xlink:href="#m741efc42ff" y="7.2"/>
      </g>
     </g>
     <g id="text_8">
      <!-- 8 -->
      <defs>
       <path d="
M17.6719 38.8125
Q12.2031 40.8281 9.5625 44.5312
Q6.9375 48.25 6.9375 53.4219
Q6.9375 61.2344 12.5469 66.5469
Q18.1719 71.875 27.4844 71.875
Q36.8594 71.875 42.5781 66.4219
Q48.2969 60.9844 48.2969 53.1719
Q48.2969 48.1875 45.6719 44.5
Q43.0625 40.8281 37.75 38.8125
Q44.3438 36.6719 47.7812 31.875
Q51.2188 27.0938 51.2188 20.4531
Q51.2188 11.2812 44.7188 5.03125
Q38.2344 -1.21875 27.6406 -1.21875
Q17.0469 -1.21875 10.5469 5.04688
Q4.04688 11.3281 4.04688 20.7031
Q4.04688 27.6875 7.59375 32.3906
Q11.1406 37.1094 17.6719 38.8125
M15.9219 53.7188
Q15.9219 48.6406 19.1875 45.4062
Q22.4688 42.1875 27.6875 42.1875
Q32.7656 42.1875 36.0156 45.375
Q39.2656 48.5781 39.2656 53.2188
Q39.2656 58.0625 35.9062 61.3594
Q32.5625 64.6562 27.5938 64.6562
Q22.5625 64.6562 19.2344 61.4219
Q15.9219 58.2031 15.9219 53.7188
M13.0938 20.6562
Q13.0938 16.8906 14.875 13.375
Q16.6562 9.85938 20.1719 7.92188
Q23.6875 6 27.7344 6
Q34.0312 6 38.125 10.0469
Q42.2344 14.1094 42.2344 20.3594
Q42.2344 26.7031 38.0156 30.8594
Q33.7969 35.0156 27.4375 35.0156
Q21.2344 35.0156 17.1562 30.9062
Q13.0938 26.8125 13.0938 20.6562" id="ArialMT-38"/>
      </defs>
      <g transform="translate(399.270901855 371.115625)scale(0.2 -0.2)">
       <use xlink:href="#ArialMT-38"/>
      </g>
     </g>
    </g>
    <g id="xtick_10">
     <g id="line2d_31">
      <path clip-path="url(#p5bee155178)" d="
M453.6 352.8
L453.6 7.2" style="fill:none;stroke:#000000;stroke-dasharray:1.000000,3.000000;stroke-dashoffset:0.0;stroke-width:0.5;"/>
     </g>
     <g id="line2d_32">
      <g>
       <use style="stroke:#000000;stroke-width:0.5;" x="453.6" xlink:href="#m93b0483c22" y="352.8"/>
      </g>
     </g>
     <g id="line2d_33">
      <g>
       <use style="stroke:#000000;stroke-width:0.5;" x="453.6" xlink:href="#m741efc42ff" y="7.2"/>
      </g>
     </g>
    </g>
    <g id="xtick_11"/>
    <g id="xtick_12">
     <g id="line2d_34">
      <defs>
       <path d="
M0 0
L0 -2" id="m177f7580d0" style="stroke:#000000;stroke-width:0.5;"/>
      </defs>
      <g>
       <use style="stroke:#000000;stroke-width:0.5;" x="56.70471484" xlink:href="#m177f7580d0" y="352.8"/>
      </g>
     </g>
     <g id="line2d_35">
      <defs>
       <path d="
M0 0
L0 2" id="m5284c7e2a0" style="stroke:#000000;stroke-width:0.5;"/>
      </defs>
      <g>
       <use style="stroke:#000000;stroke-width:0.5;" x="56.70471484" xlink:href="#m5284c7e2a0" y="7.2"/>
      </g>
     </g>
    </g>
    <g id="xtick_13">
     <g id="line2d_36">
      <g>
       <use style="stroke:#000000;stroke-width:0.5;" x="106.316625485" xlink:href="#m177f7580d0" y="352.8"/>
      </g>
     </g>
     <g id="line2d_37">
      <g>
       <use style="stroke:#000000;stroke-width:0.5;" x="106.316625485" xlink:href="#m5284c7e2a0" y="7.2"/>
      </g>
     </g>
    </g>
    <g id="xtick_14">
     <g id="line2d_38">
      <g>
       <use style="stroke:#000000;stroke-width:0.5;" x="155.92853613" xlink:href="#m177f7580d0" y="352.8"/>
      </g>
     </g>
     <g id="line2d_39">
      <g>
       <use style="stroke:#000000;stroke-width:0.5;" x="155.92853613" xlink:href="#m5284c7e2a0" y="7.2"/>
      </g>
     </g>
    </g>
    <g id="xtick_15">
     <g id="line2d_40">
      <g>
       <use style="stroke:#000000;stroke-width:0.5;" x="205.540446775" xlink:href="#m177f7580d0" y="352.8"/>
      </g>
     </g>
     <g id="line2d_41">
      <g>
       <use style="stroke:#000000;stroke-width:0.5;" x="205.540446775" xlink:href="#m5284c7e2a0" y="7.2"/>
      </g>
     </g>
    </g>
    <g id="xtick_16">
     <g id="line2d_42">
      <g>
       <use style="stroke:#000000;stroke-width:0.5;" x="255.15235742" xlink:href="#m177f7580d0" y="352.8"/>
      </g>
     </g>
     <g id="line2d_43">
      <g>
       <use style="stroke:#000000;stroke-width:0.5;" x="255.15235742" xlink:href="#m5284c7e2a0" y="7.2"/>
      </g>
     </g>
    </g>
    <g id="xtick_17">
     <g id="line2d_44">
      <g>
       <use style="stroke:#000000;stroke-width:0.5;" x="304.764268065" xlink:href="#m177f7580d0" y="352.8"/>
      </g>
     </g>
     <g id="line2d_45">
      <g>
       <use style="stroke:#000000;stroke-width:0.5;" x="304.764268065" xlink:href="#m5284c7e2a0" y="7.2"/>
      </g>
     </g>
    </g>
    <g id="xtick_18">
     <g id="line2d_46">
      <g>
       <use style="stroke:#000000;stroke-width:0.5;" x="354.37617871" xlink:href="#m177f7580d0" y="352.8"/>
      </g>
     </g>
     <g id="line2d_47">
      <g>
       <use style="stroke:#000000;stroke-width:0.5;" x="354.37617871" xlink:href="#m5284c7e2a0" y="7.2"/>
      </g>
     </g>
    </g>
    <g id="xtick_19">
     <g id="line2d_48">
      <g>
       <use style="stroke:#000000;stroke-width:0.5;" x="403.988089355" xlink:href="#m177f7580d0" y="352.8"/>
      </g>
     </g>
     <g id="line2d_49">
      <g>
       <use style="stroke:#000000;stroke-width:0.5;" x="403.988089355" xlink:href="#m5284c7e2a0" y="7.2"/>
      </g>
     </g>
    </g>
    <g id="xtick_20">
     <g id="line2d_50">
      <g>
       <use style="stroke:#000000;stroke-width:0.5;" x="453.6" xlink:href="#m177f7580d0" y="352.8"/>
      </g>
     </g>
     <g id="line2d_51">
      <g>
       <use style="stroke:#000000;stroke-width:0.5;" x="453.6" xlink:href="#m5284c7e2a0" y="7.2"/>
      </g>
     </g>
    </g>
    <g id="text_9">
     <!-- log10 of Df -->
     <defs>
      <path d="
M4.98438 -4.29688
L13.5312 -5.5625
Q14.0625 -9.51562 16.5 -11.3281
Q19.7812 -13.7656 25.4375 -13.7656
Q31.5469 -13.7656 34.8594 -11.3281
Q38.1875 -8.89062 39.3594 -4.5
Q40.0469 -1.8125 39.9844 6.78125
Q34.2344 0 25.6406 0
Q14.9375 0 9.07812 7.71875
Q3.21875 15.4375 3.21875 26.2188
Q3.21875 33.6406 5.90625 39.9062
Q8.59375 46.1875 13.6875 49.6094
Q18.7969 53.0312 25.6875 53.0312
Q34.8594 53.0312 40.8281 45.6094
L40.8281 51.8594
L48.9219 51.8594
L48.9219 7.03125
Q48.9219 -5.07812 46.4531 -10.125
Q44 -15.1875 38.6406 -18.1094
Q33.2969 -21.0469 25.4844 -21.0469
Q16.2188 -21.0469 10.5 -16.875
Q4.78125 -12.7031 4.98438 -4.29688
M12.25 26.8594
Q12.25 16.6562 16.2969 11.9688
Q20.3594 7.28125 26.4688 7.28125
Q32.5156 7.28125 36.6094 11.9375
Q40.7188 16.6094 40.7188 26.5625
Q40.7188 36.0781 36.5 40.9062
Q32.2812 45.75 26.3125 45.75
Q20.4531 45.75 16.3438 40.9844
Q12.25 36.2344 12.25 26.8594" id="ArialMT-67"/>
      <path d="
M8.6875 0
L8.6875 45.0156
L0.921875 45.0156
L0.921875 51.8594
L8.6875 51.8594
L8.6875 57.375
Q8.6875 62.5938 9.625 65.1406
Q10.8906 68.5625 14.0781 70.6719
Q17.2812 72.7969 23.0469 72.7969
Q26.7656 72.7969 31.25 71.9219
L29.9375 64.2656
Q27.2031 64.75 24.75 64.75
Q20.75 64.75 19.0938 63.0312
Q17.4375 61.3281 17.4375 56.6406
L17.4375 51.8594
L27.5469 51.8594
L27.5469 45.0156
L17.4375 45.0156
L17.4375 0
z
" id="ArialMT-66"/>
      <path d="
M7.71875 0
L7.71875 71.5781
L32.375 71.5781
Q40.7188 71.5781 45.125 70.5625
Q51.2656 69.1406 55.6094 65.4375
Q61.2812 60.6406 64.0781 53.1875
Q66.8906 45.75 66.8906 36.1875
Q66.8906 28.0312 64.9844 21.7344
Q63.0938 15.4375 60.1094 11.2969
Q57.125 7.17188 53.5781 4.79688
Q50.0469 2.4375 45.0469 1.21875
Q40.0469 0 33.5469 0
z

M17.1875 8.45312
L32.4688 8.45312
Q39.5469 8.45312 43.5781 9.76562
Q47.6094 11.0781 50 13.4844
Q53.375 16.8438 55.25 22.5312
Q57.125 28.2188 57.125 36.3281
Q57.125 47.5625 53.4375 53.5938
Q49.75 59.625 44.4844 61.6719
Q40.6719 63.1406 32.2344 63.1406
L17.1875 63.1406
z
" id="ArialMT-44"/>
      <path d="
M6.39062 0
L6.39062 71.5781
L15.1875 71.5781
L15.1875 0
z
" id="ArialMT-6c"/>
      <path d="
M3.32812 25.9219
Q3.32812 40.3281 11.3281 47.2656
Q18.0156 53.0312 27.6406 53.0312
Q38.3281 53.0312 45.1094 46.0156
Q51.9062 39.0156 51.9062 26.6562
Q51.9062 16.6562 48.9062 10.9062
Q45.9062 5.17188 40.1562 2
Q34.4219 -1.17188 27.6406 -1.17188
Q16.75 -1.17188 10.0312 5.8125
Q3.32812 12.7969 3.32812 25.9219
M12.3594 25.9219
Q12.3594 15.9688 16.7031 11.0156
Q21.0469 6.0625 27.6406 6.0625
Q34.1875 6.0625 38.5312 11.0312
Q42.875 16.0156 42.875 26.2188
Q42.875 35.8438 38.5 40.7969
Q34.125 45.75 27.6406 45.75
Q21.0469 45.75 16.7031 40.8125
Q12.3594 35.8906 12.3594 25.9219" id="ArialMT-6f"/>
      <path d="
M37.25 0
L28.4688 0
L28.4688 56
Q25.2969 52.9844 20.1406 49.9531
Q14.9844 46.9219 10.8906 45.4062
L10.8906 53.9062
Q18.2656 57.375 23.7812 62.2969
Q29.2969 67.2344 31.5938 71.875
L37.25 71.875
z
" id="ArialMT-31"/>
      <path id="ArialMT-20"/>
     </defs>
     <g transform="translate(181.6921875 394.65)scale(0.2 -0.2)">
      <use xlink:href="#ArialMT-6c"/>
      <use x="22.216796875" xlink:href="#ArialMT-6f"/>
      <use x="77.83203125" xlink:href="#ArialMT-67"/>
      <use x="133.447265625" xlink:href="#ArialMT-31"/>
      <use x="189.0625" xlink:href="#ArialMT-30"/>
      <use x="244.677734375" xlink:href="#ArialMT-20"/>
      <use x="272.4609375" xlink:href="#ArialMT-6f"/>
      <use x="328.076171875" xlink:href="#ArialMT-66"/>
      <use x="355.859375" xlink:href="#ArialMT-20"/>
      <use x="383.642578125" xlink:href="#ArialMT-44"/>
      <use x="455.859375" xlink:href="#ArialMT-66"/>
     </g>
    </g>
   </g>
   <g id="matplotlib.axis_2">
    <g id="ytick_1">
     <g id="line2d_52">
      <path clip-path="url(#p5bee155178)" d="
M7.2 352.8
L453.6 352.8" style="fill:none;stroke:#000000;stroke-dasharray:1.000000,3.000000;stroke-dashoffset:0.0;stroke-width:0.5;"/>
     </g>
     <g id="line2d_53">
      <defs>
       <path d="
M0 0
L4 0" id="m728421d6d4" style="stroke:#000000;stroke-width:0.5;"/>
      </defs>
      <g>
       <use style="stroke:#000000;stroke-width:0.5;" x="7.2" xlink:href="#m728421d6d4" y="352.8"/>
      </g>
     </g>
     <g id="line2d_54">
      <defs>
       <path d="
M0 0
L-4 0" id="mcb0005524f" style="stroke:#000000;stroke-width:0.5;"/>
      </defs>
      <g>
       <use style="stroke:#000000;stroke-width:0.5;" x="453.6" xlink:href="#mcb0005524f" y="352.8"/>
      </g>
     </g>
    </g>
    <g id="ytick_2">
     <g id="line2d_55">
      <path clip-path="url(#p5bee155178)" d="
M7.2 284.364
L453.6 284.364" style="fill:none;stroke:#000000;stroke-dasharray:1.000000,3.000000;stroke-dashoffset:0.0;stroke-width:0.5;"/>
     </g>
     <g id="line2d_56">
      <g>
       <use style="stroke:#000000;stroke-width:0.5;" x="7.2" xlink:href="#m728421d6d4" y="284.364356436"/>
      </g>
     </g>
     <g id="line2d_57">
      <g>
       <use style="stroke:#000000;stroke-width:0.5;" x="453.6" xlink:href="#mcb0005524f" y="284.364356436"/>
      </g>
     </g>
    </g>
    <g id="ytick_3">
     <g id="line2d_58">
      <path clip-path="url(#p5bee155178)" d="
M7.2 215.929
L453.6 215.929" style="fill:none;stroke:#000000;stroke-dasharray:1.000000,3.000000;stroke-dashoffset:0.0;stroke-width:0.5;"/>
     </g>
     <g id="line2d_59">
      <g>
       <use style="stroke:#000000;stroke-width:0.5;" x="7.2" xlink:href="#m728421d6d4" y="215.928712871"/>
      </g>
     </g>
     <g id="line2d_60">
      <g>
       <use style="stroke:#000000;stroke-width:0.5;" x="453.6" xlink:href="#mcb0005524f" y="215.928712871"/>
      </g>
     </g>
    </g>
    <g id="ytick_4">
     <g id="line2d_61">
      <path clip-path="url(#p5bee155178)" d="
M7.2 147.493
L453.6 147.493" style="fill:none;stroke:#000000;stroke-dasharray:1.000000,3.000000;stroke-dashoffset:0.0;stroke-width:0.5;"/>
     </g>
     <g id="line2d_62">
      <g>
       <use style="stroke:#000000;stroke-width:0.5;" x="7.2" xlink:href="#m728421d6d4" y="147.493069307"/>
      </g>
     </g>
     <g id="line2d_63">
      <g>
       <use style="stroke:#000000;stroke-width:0.5;" x="453.6" xlink:href="#mcb0005524f" y="147.493069307"/>
      </g>
     </g>
    </g>
    <g id="ytick_5">
     <g id="line2d_64">
      <path clip-path="url(#p5bee155178)" d="
M7.2 79.0574
L453.6 79.0574" style="fill:none;stroke:#000000;stroke-dasharray:1.000000,3.000000;stroke-dashoffset:0.0;stroke-width:0.5;"/>
     </g>
     <g id="line2d_65">
      <g>
       <use style="stroke:#000000;stroke-width:0.5;" x="7.2" xlink:href="#m728421d6d4" y="79.0574257426"/>
      </g>
     </g>
     <g id="line2d_66">
      <g>
       <use style="stroke:#000000;stroke-width:0.5;" x="453.6" xlink:href="#mcb0005524f" y="79.0574257426"/>
      </g>
     </g>
    </g>
    <g id="ytick_6">
     <g id="line2d_67">
      <path clip-path="url(#p5bee155178)" d="
M7.2 10.6218
L453.6 10.6218" style="fill:none;stroke:#000000;stroke-dasharray:1.000000,3.000000;stroke-dashoffset:0.0;stroke-width:0.5;"/>
     </g>
     <g id="line2d_68">
      <g>
       <use style="stroke:#000000;stroke-width:0.5;" x="7.2" xlink:href="#m728421d6d4" y="10.6217821782"/>
      </g>
     </g>
     <g id="line2d_69">
      <g>
       <use style="stroke:#000000;stroke-width:0.5;" x="453.6" xlink:href="#mcb0005524f" y="10.6217821782"/>
      </g>
     </g>
    </g>
   </g>
   <g id="patch_3">
    <path d="
M7.2 7.2
L453.6 7.2" style="fill:none;stroke:#000000;"/>
   </g>
   <g id="patch_4">
    <path d="
M453.6 352.8
L453.6 7.2" style="fill:none;stroke:#000000;"/>
   </g>
   <g id="patch_5">
    <path d="
M7.2 352.8
L453.6 352.8" style="fill:none;stroke:#000000;"/>
   </g>
   <g id="patch_6">
    <path d="
M7.2 352.8
L7.2 7.2" style="fill:none;stroke:#000000;"/>
   </g>
   <g id="text_10">
    <!-- {f20-f24}, 5-D -->
    <defs>
     <path d="
M30.5625 29.8906
L30.5625 21.9219
Q26.8125 21.8281 24.4375 19.875
Q22.0781 17.9219 21.2969 14.5781
Q20.5156 11.2344 20.4531 3.07812
Q20.4062 -5.07812 20.1719 -7.67188
Q19.7344 -11.8125 18.5312 -14.2812
Q17.3281 -16.75 15.5625 -18.2344
Q13.8125 -19.7344 11.0781 -20.5156
Q9.23438 -21.0469 5.03125 -21.0469
L2.29688 -21.0469
L2.29688 -13.375
L3.8125 -13.375
Q8.89062 -13.375 10.5469 -11.5469
Q12.2031 -9.71875 12.2031 -3.32812
Q12.2031 8.89062 12.6406 12.1562
Q13.4219 17.5781 15.7656 20.8281
Q18.1094 24.0781 22.4062 25.875
Q16.7969 28.5625 14.5 32.9844
Q12.2031 37.4062 12.2031 47.9062
Q12.2031 57.4219 11.9688 59.2812
Q11.625 62.5469 10.0312 63.8438
Q8.45312 65.1406 3.8125 65.1406
L2.29688 65.1406
L2.29688 72.7969
L5.03125 72.7969
Q9.8125 72.7969 11.9688 72.0156
Q15.0938 70.9531 17.1406 68.4062
Q19.1875 65.875 19.7969 62.0156
Q20.4062 58.1562 20.4531 49.3594
Q20.5156 40.5781 21.2969 37.2344
Q22.0781 33.8906 24.4375 31.9375
Q26.8125 29.9844 30.5625 29.8906" id="ArialMT-7d"/>
     <path d="
M8.89062 0
L8.89062 10.0156
L18.8906 10.0156
L18.8906 0
Q18.8906 -5.51562 16.9375 -8.90625
Q14.9844 -12.3125 10.75 -14.1562
L8.29688 -10.4062
Q11.0781 -9.1875 12.3906 -6.8125
Q13.7188 -4.4375 13.875 0
z
" id="ArialMT-2c"/>
     <path d="
M4.15625 18.75
L13.375 19.5312
Q14.4062 12.7969 18.1406 9.39062
Q21.875 6 27.1562 6
Q33.5 6 37.8906 10.7812
Q42.2812 15.5781 42.2812 23.4844
Q42.2812 31 38.0625 35.3438
Q33.8438 39.7031 27 39.7031
Q22.75 39.7031 19.3281 37.7656
Q15.9219 35.8438 13.9688 32.7656
L5.71875 33.8438
L12.6406 70.6094
L48.25 70.6094
L48.25 62.2031
L19.6719 62.2031
L15.8281 42.9688
Q22.2656 47.4688 29.3438 47.4688
Q38.7188 47.4688 45.1562 40.9688
Q51.6094 34.4688 51.6094 24.2656
Q51.6094 14.5469 45.9531 7.46875
Q39.0625 -1.21875 27.1562 -1.21875
Q17.3906 -1.21875 11.2031 4.25
Q5.03125 9.71875 4.15625 18.75" id="ArialMT-35"/>
     <path d="
M2.78125 29.8906
Q6.54688 29.9844 8.90625 31.9062
Q11.2812 33.8438 12.0625 37.2031
Q12.8438 40.5781 12.8906 48.7344
Q12.9375 56.8906 13.1875 59.4688
Q13.625 63.5781 14.8125 66.0625
Q16.0156 68.5625 17.7656 70.0469
Q19.5312 71.5312 22.2656 72.3125
Q24.125 72.7969 28.3281 72.7969
L31.0625 72.7969
L31.0625 65.1406
L29.5469 65.1406
Q24.4688 65.1406 22.7969 63.2969
Q21.1406 61.4688 21.1406 55.125
Q21.1406 42.3281 20.6094 38.9688
Q19.7344 33.7344 17.6094 30.9062
Q15.4844 28.0781 10.9375 25.875
Q16.3125 23.6406 18.7188 19.0156
Q21.1406 14.4062 21.1406 3.90625
Q21.1406 -5.60938 21.3438 -7.42188
Q21.7344 -10.75 23.3125 -12.0625
Q24.9062 -13.375 29.5469 -13.375
L31.0625 -13.375
L31.0625 -21.0469
L28.3281 -21.0469
Q23.5312 -21.0469 21.3906 -20.2656
Q18.2656 -19.1406 16.2031 -16.625
Q14.1562 -14.1094 13.5469 -10.25
Q12.9375 -6.39062 12.8906 2.39062
Q12.8438 11.1875 12.0625 14.5469
Q11.2812 17.9219 8.90625 19.875
Q6.54688 21.8281 2.78125 21.9219
z
" id="ArialMT-7b"/>
    </defs>
    <g transform="translate(326.77825 345.888)scale(0.2 -0.2)">
     <use xlink:href="#ArialMT-7b"/>
     <use x="33.3984375" xlink:href="#ArialMT-66"/>
     <use x="61.181640625" xlink:href="#ArialMT-32"/>
     <use x="116.796875" xlink:href="#ArialMT-30"/>
     <use x="172.412109375" xlink:href="#ArialMT-2d"/>
     <use x="205.712890625" xlink:href="#ArialMT-66"/>
     <use x="233.49609375" xlink:href="#ArialMT-32"/>
     <use x="289.111328125" xlink:href="#ArialMT-34"/>
     <use x="344.7265625" xlink:href="#ArialMT-7d"/>
     <use x="378.125" xlink:href="#ArialMT-2c"/>
     <use x="405.908203125" xlink:href="#ArialMT-20"/>
     <use x="433.69140625" xlink:href="#ArialMT-35"/>
     <use x="489.306640625" xlink:href="#ArialMT-2d"/>
     <use x="522.607421875" xlink:href="#ArialMT-44"/>
    </g>
   </g>
   <g id="text_11">
    <!-- v2.0.1 -->
    <defs>
     <path d="
M21 0
L1.26562 51.8594
L10.5469 51.8594
L21.6875 20.7969
Q23.4844 15.7656 25 10.3594
Q26.1719 14.4531 28.2656 20.2188
L39.7969 51.8594
L48.8281 51.8594
L29.2031 0
z
" id="ArialMT-76"/>
     <path d="
M9.07812 0
L9.07812 10.0156
L19.0938 10.0156
L19.0938 0
z
" id="ArialMT-2e"/>
    </defs>
    <g style="fill:#808080;" transform="translate(217.76171875 347.3565)scale(0.1 -0.1)">
     <use xlink:href="#ArialMT-76"/>
     <use x="50.0" xlink:href="#ArialMT-32"/>
     <use x="105.615234375" xlink:href="#ArialMT-2e"/>
     <use x="133.3984375" xlink:href="#ArialMT-30"/>
     <use x="189.013671875" xlink:href="#ArialMT-2e"/>
     <use x="216.796875" xlink:href="#ArialMT-31"/>
    </g>
   </g>
  </g>
 </g>
 <defs>
  <clipPath id="p5bee155178">
   <rect height="345.6" width="446.4" x="7.2" y="7.2"/>
  </clipPath>
 </defs>
</svg>
