<?xml version="1.0" encoding="utf-8" standalone="no"?>
<!DOCTYPE svg PUBLIC "-//W3C//DTD SVG 1.1//EN"
  "http://www.w3.org/Graphics/SVG/1.1/DTD/svg11.dtd">
<!-- Created with matplotlib (http://matplotlib.org/) -->
<svg height="406pt" version="1.1" viewBox="0 0 460 406" width="460pt" xmlns="http://www.w3.org/2000/svg" xmlns:xlink="http://www.w3.org/1999/xlink">
 <defs>
  <style type="text/css">
*{stroke-linecap:butt;stroke-linejoin:round;}
  </style>
 </defs>
 <g id="figure_1">
  <g id="patch_1">
   <path d="
M0 406.059
L460.8 406.059
L460.8 0
L0 0
z
" style="fill:#ffffff;"/>
  </g>
  <g id="axes_1">
   <g id="patch_2">
    <path d="
M7.2 352.8
L453.6 352.8
L453.6 7.2
L7.2 7.2
z
" style="fill:#ffffff;"/>
   </g>
   <g id="line2d_1">
    <path clip-path="url(#p5bee155178)" d="
M131.074 352.8
L131.074 348.238
L148.826 348.238
L148.826 343.675
L150.051 343.675
L150.051 339.113
L152.424 339.113
L152.424 334.55
L157.386 334.55
L157.386 329.988
L160.634 329.988
L160.634 325.426
L162.321 325.426
L162.321 320.863
L162.848 320.863
L162.848 316.301
L166.315 316.301
L166.315 311.739
L178.165 311.739
L178.165 307.176
L178.372 307.176
L178.372 302.614
L179.552 302.614
L179.552 298.051
L185.255 298.051
L185.255 293.489
L189.005 293.489
L189.005 288.927
L190.807 288.927
L190.807 284.364
L191 284.364
L191 279.802
L192.552 279.802
L192.552 275.24
L204.702 275.24
L204.702 270.677
L211.421 270.677
L211.421 266.115
L212.408 266.115
L212.408 261.552
L216.26 261.552
L216.276 252.428
L216.386 252.428
L216.386 247.865
L220.084 247.865
L220.084 243.303
L223.425 243.303
L223.425 238.741
L224.515 238.741
L224.515 234.178
L224.782 234.178
L224.782 229.616
L228.51 229.616
L228.51 225.053
L230.299 225.053
L230.299 220.491
L231.186 220.491
L231.227 211.366
L231.597 211.366
L231.597 206.804
L232.4 206.804
L232.4 202.242
L234.656 202.242
L234.718 188.554
L235.706 188.554
L235.706 183.992
L236.951 183.992
L236.951 179.43
L237.531 179.43
L237.536 170.305
L237.689 170.305
L237.689 165.743
L238.856 165.743
L238.856 161.18
L241.043 161.18
L241.043 156.618
L241.199 156.618
L241.242 147.493
L242.33 147.493
L242.33 142.931
L242.694 142.931
L242.694 138.368
L246.695 138.368
L246.695 133.806
L247.38 133.806
L247.38 129.244
L247.503 129.244
L247.503 124.681
L247.938 124.681
L247.938 120.119
L248.366 120.119
L248.366 115.556
L248.521 115.556
L248.521 110.994
L249.838 110.994
L249.838 106.432
L250.175 106.432
L250.175 101.869
L250.882 101.869
L250.882 97.3069
L252.322 97.3069
L252.357 88.1822
L252.801 88.1822
L252.801 83.6198
L254.031 83.6198
L254.031 79.0574
L254.288 79.0574
L254.288 74.495
L255.581 74.495
L255.581 69.9327
L256.804 69.9327
L256.804 65.3703
L260.23 65.3703
L260.23 60.8079
L262.602 60.8079
L262.602 56.2455
L264.799 56.2455
L264.799 51.6832
L266.652 51.6832
L266.652 47.1208
L267.152 47.1208
L267.152 42.5584
L271.927 42.5584
L271.927 37.996
L279.824 37.996
L279.824 33.4337
L280.516 33.4337
L280.516 28.8713
L283.288 28.8713
L283.288 24.3089
L284.483 24.3089
L284.483 19.7465
L288.232 19.7465
L288.232 15.1842
L309.526 15.1842
L309.526 10.6218
L309.526 10.6218
L453.6 10.6218
L453.6 10.6218" style="fill:none;stroke:#ff0000;stroke-linecap:square;stroke-width:3.0;"/>
   </g>
   <g id="line2d_2">
    <path clip-path="url(#p5bee155178)" d="
M227.036 352.8
L227.036 348.238
L229.423 348.238
L229.439 339.113
L230.452 339.113
L230.452 334.55
L234.718 334.55
L234.742 325.426
L237.845 325.426
L237.845 320.863
L239.499 320.863
L239.499 316.301
L242.606 316.301
L242.606 311.739
L242.859 311.739
L242.859 307.176
L243.361 307.176
L243.361 302.614
L244.402 302.614
L244.402 298.051
L244.575 298.051
L244.575 293.489
L250.274 293.489
L250.274 288.927
L252.117 288.927
L252.117 284.364
L267.067 284.364
L267.067 279.802
L271.261 279.802
L271.261 275.24
L271.833 275.24
L271.833 270.677
L277.73 270.677
L277.73 266.115
L279.402 266.115
L279.402 261.552
L279.748 261.552
L279.748 256.99
L280.469 256.99
L280.469 252.428
L280.6 252.428
L280.6 247.865
L281.941 247.865
L281.941 243.303
L282.642 243.303
L282.642 238.741
L282.972 238.741
L282.972 234.178
L283.097 234.178
L283.097 229.616
L283.577 229.616
L283.577 225.053
L283.869 225.053
L283.869 220.491
L285.023 220.491
L285.023 215.929
L285.876 215.929
L285.876 211.366
L286.361 211.366
L286.361 206.804
L314.821 206.804
L314.821 202.242
L318.04 202.242
L318.04 197.679
L350.892 197.679
L350.892 193.117
L361.423 193.117
L361.423 188.554
L362.237 188.554
L362.237 183.992
L363.052 183.992
L363.052 179.43
L367.427 179.43
L367.427 174.867
L368.003 174.867
L368.003 170.305
L369.201 170.305
L369.201 165.743
L373.679 165.743
L373.679 161.18
L375.429 161.18
L375.429 156.618
L375.631 156.618
L375.631 152.055
L379.171 152.055
L379.255 138.368
L379.295 138.368
L379.295 133.806
L379.673 133.806
L379.673 129.244
L379.923 129.244
L379.923 124.681
L381.296 124.681
L381.296 120.119
L382.324 120.119
L382.324 115.556
L383.193 115.556
L383.193 110.994
L383.614 110.994
L383.614 106.432
L384.373 106.432
L384.373 101.869
L387.433 101.869
L387.433 97.3069
L387.565 97.3069
L387.565 92.7446
L387.94 92.7446
L387.94 88.1822
L389.328 88.1822
L389.328 83.6198
L390.071 83.6198
L390.071 79.0574
L390.375 79.0574
L390.375 74.495
L392.28 74.495
L392.28 69.9327
L393.804 69.9327
L393.804 65.3703
L394.984 65.3703
L394.984 60.8079
L395.407 60.8079
L395.407 56.2455
L396.882 56.2455
L396.882 51.6832
L397.42 51.6832
L397.497 42.5584
L398.233 42.5584
L398.233 37.996
L398.604 37.996
L398.604 33.4337
L401.085 33.4337
L401.085 28.8713
L402.423 28.8713
L402.423 24.3089
L404.585 24.3089
L404.585 19.7465
L423.769 19.7465
L423.769 15.1842
L439.128 15.1842
L439.128 10.6218
L439.128 10.6218
L453.6 10.6218
L453.6 10.6218" style="fill:none;stroke:#00bfbf;stroke-linecap:square;"/>
   </g>
   <g id="line2d_3">
    <path clip-path="url(#p5bee155178)" d="
M225.917 352.8
L225.917 348.238
L227.036 348.238
L227.036 343.675
L228.246 343.675
L228.246 339.113
L229.423 339.113
L229.439 329.988
L233.119 329.988
L233.119 325.426
L234.096 325.426
L234.096 320.863
L234.718 320.863
L234.718 316.301
L236.377 316.301
L236.377 311.739
L238.028 311.739
L238.072 302.614
L238.769 302.614
L238.769 298.051
L239.129 298.051
L239.129 293.489
L240.297 293.489
L240.297 288.927
L242.606 288.927
L242.606 284.364
L248.864 284.364
L248.864 279.802
L252.339 279.802
L252.339 275.24
L265.428 275.24
L265.428 270.677
L265.927 270.677
L265.927 266.115
L271.261 266.115
L271.261 261.552
L271.631 261.552
L271.738 252.428
L272.023 252.428
L272.023 247.865
L276.616 247.865
L276.616 243.303
L277.73 243.303
L277.73 238.741
L278.833 238.741
L278.833 234.178
L279.748 234.178
L279.748 229.616
L280.469 229.616
L280.469 225.053
L281.525 225.053
L281.525 220.491
L283.052 220.491
L283.052 215.929
L283.241 215.929
L283.241 211.366
L283.444 211.366
L283.444 206.804
L283.577 206.804
L283.577 202.242
L284.633 202.242
L284.633 197.679
L314.821 197.679
L314.821 193.117
L318.04 193.117
L318.04 188.554
L319.892 188.554
L319.892 183.992
L324.559 183.992
L324.559 179.43
L342.791 179.43
L342.791 174.867
L346.684 174.867
L346.684 170.305
L347.432 170.305
L347.432 165.743
L351.691 165.743
L351.691 161.18
L353.375 161.18
L353.375 156.618
L355.014 156.618
L355.014 152.055
L355.533 152.055
L355.533 147.493
L361.589 147.493
L361.589 142.931
L361.781 142.931
L361.781 138.368
L362.404 138.368
L362.404 133.806
L365.745 133.806
L365.745 129.244
L367.258 129.244
L367.258 124.681
L367.427 124.681
L367.427 120.119
L368.564 120.119
L368.564 115.556
L369.308 115.556
L369.308 110.994
L370.245 110.994
L370.245 106.432
L370.634 106.432
L370.634 101.869
L373.196 101.869
L373.196 97.3069
L373.953 97.3069
L373.953 92.7446
L375.969 92.7446
L375.969 88.1822
L379.231 88.1822
L379.231 83.6198
L380.845 83.6198
L380.845 79.0574
L383.614 79.0574
L383.614 74.495
L384.373 74.495
L384.373 69.9327
L386.361 69.9327
L386.361 65.3703
L387.565 65.3703
L387.57 56.2455
L390.45 56.2455
L390.45 51.6832
L391.95 51.6832
L391.95 47.1208
L392.28 47.1208
L392.28 42.5584
L394.582 42.5584
L394.582 37.996
L395.407 37.996
L395.407 33.4337
L395.55 33.4337
L395.55 28.8713
L396.049 28.8713
L396.049 24.3089
L396.169 24.3089
L396.169 19.7465
L396.359 19.7465
L396.359 15.1842
L439.128 15.1842
L439.128 10.6218
L439.128 10.6218
L453.6 10.6218
L453.6 10.6218" style="fill:none;stroke:#bf00bf;stroke-linecap:square;"/>
   </g>
   <g id="line2d_4">
    <path clip-path="url(#p5bee155178)" d="
M217.606 352.8
L217.606 348.238
L221.255 348.238
L221.255 343.675
L222.047 343.675
L222.047 339.113
L223.318 339.113
L223.318 334.55
L223.697 334.55
L223.697 329.988
L225.917 329.988
L225.917 325.426
L228.005 325.426
L228.063 316.301
L228.246 316.301
L228.246 311.739
L229.439 311.739
L229.439 307.176
L233.119 307.176
L233.119 302.614
L234.718 302.614
L234.718 298.051
L238.769 298.051
L238.769 293.489
L239.129 293.489
L239.129 288.927
L242.606 288.927
L242.606 284.364
L244.029 284.364
L244.029 279.802
L252.339 279.802
L252.339 275.24
L261.92 275.24
L261.92 270.677
L265.428 270.677
L265.428 266.115
L265.927 266.115
L265.927 261.552
L267.732 261.552
L267.732 256.99
L271.261 256.99
L271.261 252.428
L271.631 252.428
L271.738 243.303
L272.023 243.303
L272.023 238.741
L272.836 238.741
L272.836 234.178
L276.72 234.178
L276.72 229.616
L277.788 229.616
L277.788 225.053
L278.376 225.053
L278.376 220.491
L281.082 220.491
L281.082 215.929
L281.431 215.929
L281.431 211.366
L282.165 211.366
L282.165 206.804
L282.468 206.804
L282.468 202.242
L283.444 202.242
L283.444 197.679
L283.723 197.679
L283.723 193.117
L308.545 193.117
L308.545 188.554
L308.867 188.554
L308.867 183.992
L314.821 183.992
L314.821 179.43
L317.483 179.43
L317.483 174.867
L318.04 174.867
L318.04 170.305
L319.892 170.305
L319.892 165.743
L324.559 165.743
L324.559 161.18
L333.362 161.18
L333.362 156.618
L334.864 156.618
L334.864 152.055
L344.115 152.055
L344.115 147.493
L347.832 147.493
L347.832 142.931
L351.691 142.931
L351.691 138.368
L353.375 138.368
L353.375 133.806
L355.533 133.806
L355.533 129.244
L357.048 129.244
L357.048 124.681
L359.068 124.681
L359.068 120.119
L360.585 120.119
L360.585 115.556
L361.43 115.556
L361.43 110.994
L362.404 110.994
L362.404 106.432
L364.339 106.432
L364.339 101.869
L365.364 101.869
L365.364 97.3069
L367.427 97.3069
L367.427 92.7446
L370.552 92.7446
L370.634 83.6198
L372.84 83.6198
L372.84 79.0574
L373.196 79.0574
L373.196 74.495
L374.078 74.495
L374.078 69.9327
L375.969 69.9327
L375.969 65.3703
L377.305 65.3703
L377.305 60.8079
L379.231 60.8079
L379.231 56.2455
L380.845 56.2455
L380.845 51.6832
L381.663 51.6832
L381.663 47.1208
L383.118 47.1208
L383.118 42.5584
L388.928 42.5584
L388.928 37.996
L390.45 37.996
L390.45 33.4337
L391.95 33.4337
L391.95 28.8713
L393.058 28.8713
L393.058 24.3089
L394.585 24.3089
L394.585 19.7465
L394.7 19.7465
L394.7 15.1842
L410.668 15.1842
L410.668 10.6218
L410.668 10.6218
L453.6 10.6218
L453.6 10.6218" style="fill:none;stroke:#000000;stroke-linecap:square;"/>
   </g>
   <g id="line2d_5">
    <path clip-path="url(#p5bee155178)" d="
M191.572 352.8
L191.572 348.238
L204.215 348.238
L204.215 343.675
L205.958 343.675
L205.958 339.113
L210.181 339.113
L210.181 334.55
L210.594 334.55
L210.594 329.988
L212.582 329.988
L212.582 325.426
L214.24 325.426
L214.24 320.863
L214.356 320.863
L214.356 316.301
L214.875 316.301
L214.875 311.739
L216.029 311.739
L216.029 307.176
L219.021 307.176
L219.021 302.614
L219.747 302.614
L219.747 298.051
L220.436 298.051
L220.436 293.489
L222.235 293.489
L222.235 288.927
L225.822 288.927
L225.822 284.364
L234.718 284.364
L234.718 279.802
L242.606 279.802
L242.606 275.24
L251.829 275.24
L251.829 270.677
L257.063 270.677
L257.063 266.115
L257.594 266.115
L257.594 261.552
L257.886 261.552
L257.886 256.99
L258.117 256.99
L258.117 252.428
L258.905 252.428
L258.961 243.303
L260.041 243.303
L260.041 238.741
L261.021 238.741
L261.021 234.178
L261.368 234.178
L261.368 229.616
L261.897 229.616
L261.92 220.491
L262.242 220.491
L262.242 215.929
L265.396 215.929
L265.428 206.804
L266.846 206.804
L266.846 202.242
L268.502 202.242
L268.502 197.679
L268.853 197.679
L268.853 193.117
L269.469 193.117
L269.469 188.554
L271.457 188.554
L271.457 183.992
L274.619 183.992
L274.619 179.43
L275.994 179.43
L275.994 174.867
L282.895 174.867
L282.895 170.305
L287.093 170.305
L287.093 165.743
L289.221 165.743
L289.221 161.18
L290.464 161.18
L290.464 156.618
L295.844 156.618
L295.844 152.055
L297.438 152.055
L297.438 147.493
L299.187 147.493
L299.187 142.931
L302.97 142.931
L302.97 138.368
L303.792 138.368
L303.792 133.806
L314.821 133.806
L314.821 129.244
L317.384 129.244
L317.384 124.681
L323.212 124.681
L323.212 120.119
L325.33 120.119
L325.33 115.556
L325.867 115.556
L325.867 110.994
L326.433 110.994
L326.433 106.432
L326.668 106.432
L326.668 101.869
L331.142 101.869
L331.142 97.3069
L337.806 97.3069
L337.806 92.7446
L338.898 92.7446
L338.898 88.1822
L339.386 88.1822
L339.386 83.6198
L343.77 83.6198
L343.77 79.0574
L348.105 79.0574
L348.105 74.495
L350.906 74.495
L350.906 69.9327
L351.37 69.9327
L351.37 65.3703
L352.296 65.3703
L352.296 60.8079
L353.962 60.8079
L353.962 56.2455
L354.259 56.2455
L354.259 51.6832
L354.525 51.6832
L354.525 47.1208
L358.598 47.1208
L358.598 42.5584
L358.96 42.5584
L358.96 37.996
L366.508 37.996
L366.508 33.4337
L370.78 33.4337
L370.82 24.3089
L372.286 24.3089
L372.286 19.7465
L372.898 19.7465
L372.898 15.1842
L374.181 15.1842
L374.181 10.6218
L374.181 10.6218
L453.6 10.6218
L453.6 10.6218" style="fill:none;stroke:#00bfbf;stroke-linecap:square;"/>
   </g>
   <g id="line2d_6">
    <path clip-path="url(#p5bee155178)" d="
M131.074 352.8
L131.074 348.238
L148.826 348.238
L148.826 343.675
L150.051 343.675
L150.051 339.113
L152.424 339.113
L152.424 334.55
L157.386 334.55
L157.386 329.988
L160.634 329.988
L160.634 325.426
L162.321 325.426
L162.321 320.863
L162.861 320.863
L162.861 316.301
L166.315 316.301
L166.315 311.739
L178.165 311.739
L178.165 307.176
L178.372 307.176
L178.372 302.614
L179.552 302.614
L179.552 298.051
L185.255 298.051
L185.255 293.489
L189.092 293.489
L189.092 288.927
L190.807 288.927
L190.807 284.364
L191 284.364
L191 279.802
L192.986 279.802
L192.986 275.24
L204.702 275.24
L204.702 270.677
L211.421 270.677
L211.421 266.115
L212.408 266.115
L212.408 261.552
L216.276 261.552
L216.327 252.428
L216.388 252.428
L216.388 247.865
L220.084 247.865
L220.084 243.303
L223.425 243.303
L223.425 238.741
L224.515 238.741
L224.515 234.178
L224.782 234.178
L224.782 229.616
L228.82 229.616
L228.82 225.053
L230.299 225.053
L230.299 220.491
L231.186 220.491
L231.227 211.366
L231.597 211.366
L231.597 206.804
L232.4 206.804
L232.4 202.242
L234.656 202.242
L234.718 188.554
L235.706 188.554
L235.706 183.992
L237.372 183.992
L237.372 179.43
L237.531 179.43
L237.536 170.305
L237.689 170.305
L237.689 165.743
L238.856 165.743
L238.856 161.18
L241.043 161.18
L241.043 156.618
L241.199 156.618
L241.242 147.493
L242.33 147.493
L242.33 142.931
L242.694 142.931
L242.694 138.368
L246.695 138.368
L246.695 133.806
L247.38 133.806
L247.38 129.244
L247.503 129.244
L247.503 124.681
L247.938 124.681
L247.938 120.119
L248.366 120.119
L248.366 115.556
L248.521 115.556
L248.521 110.994
L249.838 110.994
L249.838 106.432
L250.882 106.432
L250.882 101.869
L252.199 101.869
L252.199 97.3069
L252.322 97.3069
L252.357 88.1822
L252.801 88.1822
L252.801 83.6198
L254.031 83.6198
L254.031 79.0574
L254.288 79.0574
L254.288 74.495
L255.581 74.495
L255.581 69.9327
L256.804 69.9327
L256.804 65.3703
L260.23 65.3703
L260.23 60.8079
L262.602 60.8079
L262.602 56.2455
L264.799 56.2455
L264.799 51.6832
L266.652 51.6832
L266.652 47.1208
L267.152 47.1208
L267.152 42.5584
L271.927 42.5584
L271.927 37.996
L279.824 37.996
L279.824 33.4337
L280.516 33.4337
L280.516 28.8713
L283.288 28.8713
L283.288 24.3089
L284.483 24.3089
L284.483 19.7465
L288.232 19.7465
L288.232 15.1842
L309.526 15.1842
L309.526 10.6218
L309.526 10.6218
L453.6 10.6218
L453.6 10.6218" style="fill:none;stroke:#bf00bf;stroke-linecap:square;"/>
   </g>
   <g id="matplotlib.axis_1">
    <g id="xtick_1"/>
    <g id="xtick_2">
     <g id="line2d_7">
      <path clip-path="url(#p5bee155178)" d="
M56.7047 352.8
L56.7047 7.2" style="fill:none;stroke:#000000;stroke-dasharray:1.000000,3.000000;stroke-dashoffset:0.0;stroke-width:0.5;"/>
     </g>
     <g id="line2d_8">
      <defs>
       <path d="
M0 0
L0 -4" id="m93b0483c22" style="stroke:#000000;stroke-width:0.5;"/>
      </defs>
      <g>
       <use style="stroke:#000000;stroke-width:0.5;" x="56.70471484" xlink:href="#m93b0483c22" y="352.8"/>
      </g>
     </g>
     <g id="line2d_9">
      <defs>
       <path d="
M0 0
L0 4" id="m741efc42ff" style="stroke:#000000;stroke-width:0.5;"/>
      </defs>
      <g>
       <use style="stroke:#000000;stroke-width:0.5;" x="56.70471484" xlink:href="#m741efc42ff" y="7.2"/>
      </g>
     </g>
     <g id="text_1">
      <!-- -6 -->
      <defs>
       <path d="
M3.17188 21.4844
L3.17188 30.3281
L30.1719 30.3281
L30.1719 21.4844
z
" id="ArialMT-2d"/>
       <path d="
M49.75 54.0469
L41.0156 53.375
Q39.8438 58.5469 37.7031 60.8906
Q34.125 64.6562 28.9062 64.6562
Q24.7031 64.6562 21.5312 62.3125
Q17.3906 59.2812 14.9844 53.4688
Q12.5938 47.6562 12.5 36.9219
Q15.6719 41.75 20.2656 44.0938
Q24.8594 46.4375 29.8906 46.4375
Q38.6719 46.4375 44.8438 39.9688
Q51.0312 33.5 51.0312 23.25
Q51.0312 16.5 48.125 10.7188
Q45.2188 4.9375 40.1406 1.85938
Q35.0625 -1.21875 28.6094 -1.21875
Q17.625 -1.21875 10.6875 6.85938
Q3.76562 14.9375 3.76562 33.5
Q3.76562 54.25 11.4219 63.6719
Q18.1094 71.875 29.4375 71.875
Q37.8906 71.875 43.2812 67.1406
Q48.6875 62.4062 49.75 54.0469
M13.875 23.1875
Q13.875 18.6562 15.7969 14.5
Q17.7188 10.3594 21.1875 8.17188
Q24.6562 6 28.4688 6
Q34.0312 6 38.0312 10.4844
Q42.0469 14.9844 42.0469 22.7031
Q42.0469 30.125 38.0781 34.3906
Q34.125 38.6719 28.125 38.6719
Q22.1719 38.6719 18.0156 34.3906
Q13.875 30.125 13.875 23.1875" id="ArialMT-36"/>
      </defs>
      <g transform="translate(48.58908984 371.115625)scale(0.2 -0.2)">
       <use xlink:href="#ArialMT-2d"/>
       <use x="33.30078125" xlink:href="#ArialMT-36"/>
      </g>
     </g>
    </g>
    <g id="xtick_3">
     <g id="line2d_10">
      <path clip-path="url(#p5bee155178)" d="
M106.317 352.8
L106.317 7.2" style="fill:none;stroke:#000000;stroke-dasharray:1.000000,3.000000;stroke-dashoffset:0.0;stroke-width:0.5;"/>
     </g>
     <g id="line2d_11">
      <g>
       <use style="stroke:#000000;stroke-width:0.5;" x="106.316625485" xlink:href="#m93b0483c22" y="352.8"/>
      </g>
     </g>
     <g id="line2d_12">
      <g>
       <use style="stroke:#000000;stroke-width:0.5;" x="106.316625485" xlink:href="#m741efc42ff" y="7.2"/>
      </g>
     </g>
     <g id="text_2">
      <!-- -4 -->
      <defs>
       <path d="
M32.3281 0
L32.3281 17.1406
L1.26562 17.1406
L1.26562 25.2031
L33.9375 71.5781
L41.1094 71.5781
L41.1094 25.2031
L50.7812 25.2031
L50.7812 17.1406
L41.1094 17.1406
L41.1094 0
z

M32.3281 25.2031
L32.3281 57.4688
L9.90625 25.2031
z
" id="ArialMT-34"/>
      </defs>
      <g transform="translate(98.226000485 371.115625)scale(0.2 -0.2)">
       <use xlink:href="#ArialMT-2d"/>
       <use x="33.30078125" xlink:href="#ArialMT-34"/>
      </g>
     </g>
    </g>
    <g id="xtick_4">
     <g id="line2d_13">
      <path clip-path="url(#p5bee155178)" d="
M155.929 352.8
L155.929 7.2" style="fill:none;stroke:#000000;stroke-dasharray:1.000000,3.000000;stroke-dashoffset:0.0;stroke-width:0.5;"/>
     </g>
     <g id="line2d_14">
      <g>
       <use style="stroke:#000000;stroke-width:0.5;" x="155.92853613" xlink:href="#m93b0483c22" y="352.8"/>
      </g>
     </g>
     <g id="line2d_15">
      <g>
       <use style="stroke:#000000;stroke-width:0.5;" x="155.92853613" xlink:href="#m741efc42ff" y="7.2"/>
      </g>
     </g>
     <g id="text_3">
      <!-- -2 -->
      <defs>
       <path d="
M50.3438 8.45312
L50.3438 0
L3.03125 0
Q2.9375 3.17188 4.04688 6.10938
Q5.85938 10.9375 9.82812 15.625
Q13.8125 20.3125 21.3438 26.4688
Q33.0156 36.0312 37.1094 41.625
Q41.2188 47.2188 41.2188 52.2031
Q41.2188 57.4219 37.4688 61
Q33.7344 64.5938 27.7344 64.5938
Q21.3906 64.5938 17.5781 60.7812
Q13.7656 56.9844 13.7188 50.25
L4.6875 51.1719
Q5.60938 61.2812 11.6562 66.5781
Q17.7188 71.875 27.9375 71.875
Q38.2344 71.875 44.2344 66.1562
Q50.25 60.4531 50.25 52
Q50.25 47.7031 48.4844 43.5469
Q46.7344 39.4062 42.6562 34.8125
Q38.5781 30.2188 29.1094 22.2188
Q21.1875 15.5781 18.9375 13.2031
Q16.7031 10.8438 15.2344 8.45312
z
" id="ArialMT-32"/>
      </defs>
      <g transform="translate(147.88166113 371.115625)scale(0.2 -0.2)">
       <use xlink:href="#ArialMT-2d"/>
       <use x="33.30078125" xlink:href="#ArialMT-32"/>
      </g>
     </g>
    </g>
    <g id="xtick_5">
     <g id="line2d_16">
      <path clip-path="url(#p5bee155178)" d="
M205.54 352.8
L205.54 7.2" style="fill:none;stroke:#000000;stroke-dasharray:1.000000,3.000000;stroke-dashoffset:0.0;stroke-width:0.5;"/>
     </g>
     <g id="line2d_17">
      <g>
       <use style="stroke:#000000;stroke-width:0.5;" x="205.540446775" xlink:href="#m93b0483c22" y="352.8"/>
      </g>
     </g>
     <g id="line2d_18">
      <g>
       <use style="stroke:#000000;stroke-width:0.5;" x="205.540446775" xlink:href="#m741efc42ff" y="7.2"/>
      </g>
     </g>
     <g id="text_4">
      <!-- 0 -->
      <defs>
       <path d="
M4.15625 35.2969
Q4.15625 48 6.76562 55.7344
Q9.375 63.4844 14.5156 67.6719
Q19.6719 71.875 27.4844 71.875
Q33.25 71.875 37.5938 69.5469
Q41.9375 67.2344 44.7656 62.8594
Q47.6094 58.5 49.2188 52.2188
Q50.8281 45.9531 50.8281 35.2969
Q50.8281 22.7031 48.2344 14.9688
Q45.6562 7.23438 40.5 3
Q35.3594 -1.21875 27.4844 -1.21875
Q17.1406 -1.21875 11.2344 6.20312
Q4.15625 15.1406 4.15625 35.2969
M13.1875 35.2969
Q13.1875 17.6719 17.3125 11.8281
Q21.4375 6 27.4844 6
Q33.5469 6 37.6719 11.8594
Q41.7969 17.7188 41.7969 35.2969
Q41.7969 52.9844 37.6719 58.7812
Q33.5469 64.5938 27.3906 64.5938
Q21.3438 64.5938 17.7188 59.4688
Q13.1875 52.9375 13.1875 35.2969" id="ArialMT-30"/>
      </defs>
      <g transform="translate(200.873259275 371.115625)scale(0.2 -0.2)">
       <use xlink:href="#ArialMT-30"/>
      </g>
     </g>
    </g>
    <g id="xtick_6">
     <g id="line2d_19">
      <path clip-path="url(#p5bee155178)" d="
M255.152 352.8
L255.152 7.2" style="fill:none;stroke:#000000;stroke-dasharray:1.000000,3.000000;stroke-dashoffset:0.0;stroke-width:0.5;"/>
     </g>
     <g id="line2d_20">
      <g>
       <use style="stroke:#000000;stroke-width:0.5;" x="255.15235742" xlink:href="#m93b0483c22" y="352.8"/>
      </g>
     </g>
     <g id="line2d_21">
      <g>
       <use style="stroke:#000000;stroke-width:0.5;" x="255.15235742" xlink:href="#m741efc42ff" y="7.2"/>
      </g>
     </g>
     <g id="text_5">
      <!-- 2 -->
      <g transform="translate(250.41173242 371.115625)scale(0.2 -0.2)">
       <use xlink:href="#ArialMT-32"/>
      </g>
     </g>
    </g>
    <g id="xtick_7">
     <g id="line2d_22">
      <path clip-path="url(#p5bee155178)" d="
M304.764 352.8
L304.764 7.2" style="fill:none;stroke:#000000;stroke-dasharray:1.000000,3.000000;stroke-dashoffset:0.0;stroke-width:0.5;"/>
     </g>
     <g id="line2d_23">
      <g>
       <use style="stroke:#000000;stroke-width:0.5;" x="304.764268065" xlink:href="#m93b0483c22" y="352.8"/>
      </g>
     </g>
     <g id="line2d_24">
      <g>
       <use style="stroke:#000000;stroke-width:0.5;" x="304.764268065" xlink:href="#m741efc42ff" y="7.2"/>
      </g>
     </g>
     <g id="text_6">
      <!-- 4 -->
      <g transform="translate(299.812705565 371.115625)scale(0.2 -0.2)">
       <use xlink:href="#ArialMT-34"/>
      </g>
     </g>
    </g>
    <g id="xtick_8">
     <g id="line2d_25">
      <path clip-path="url(#p5bee155178)" d="
M354.376 352.8
L354.376 7.2" style="fill:none;stroke:#000000;stroke-dasharray:1.000000,3.000000;stroke-dashoffset:0.0;stroke-width:0.5;"/>
     </g>
     <g id="line2d_26">
      <g>
       <use style="stroke:#000000;stroke-width:0.5;" x="354.37617871" xlink:href="#m93b0483c22" y="352.8"/>
      </g>
     </g>
     <g id="line2d_27">
      <g>
       <use style="stroke:#000000;stroke-width:0.5;" x="354.37617871" xlink:href="#m741efc42ff" y="7.2"/>
      </g>
     </g>
     <g id="text_7">
      <!-- 6 -->
      <g transform="translate(349.64961621 371.115625)scale(0.2 -0.2)">
       <use xlink:href="#ArialMT-36"/>
      </g>
     </g>
    </g>
    <g id="xtick_9">
     <g id="line2d_28">
      <path clip-path="url(#p5bee155178)" d="
M403.988 352.8
L403.988 7.2" style="fill:none;stroke:#000000;stroke-dasharray:1.000000,3.000000;stroke-dashoffset:0.0;stroke-width:0.5;"/>
     </g>
     <g id="line2d_29">
      <g>
       <use style="stroke:#000000;stroke-width:0.5;" x="403.988089355" xlink:href="#m93b0483c22" y="352.8"/>
      </g>
     </g>
     <g id="line2d_30">
      <g>
       <use style="stroke:#000000;stroke-width:0.5;" x="403.988089355" xlink:href="#m741efc42ff" y="7.2"/>
      </g>
     </g>
     <g id="text_8">
      <!-- 8 -->
      <defs>
       <path d="
M17.6719 38.8125
Q12.2031 40.8281 9.5625 44.5312
Q6.9375 48.25 6.9375 53.4219
Q6.9375 61.2344 12.5469 66.5469
Q18.1719 71.875 27.4844 71.875
Q36.8594 71.875 42.5781 66.4219
Q48.2969 60.9844 48.2969 53.1719
Q48.2969 48.1875 45.6719 44.5
Q43.0625 40.8281 37.75 38.8125
Q44.3438 36.6719 47.7812 31.875
Q51.2188 27.0938 51.2188 20.4531
Q51.2188 11.2812 44.7188 5.03125
Q38.2344 -1.21875 27.6406 -1.21875
Q17.0469 -1.21875 10.5469 5.04688
Q4.04688 11.3281 4.04688 20.7031
Q4.04688 27.6875 7.59375 32.3906
Q11.1406 37.1094 17.6719 38.8125
M15.9219 53.7188
Q15.9219 48.6406 19.1875 45.4062
Q22.4688 42.1875 27.6875 42.1875
Q32.7656 42.1875 36.0156 45.375
Q39.2656 48.5781 39.2656 53.2188
Q39.2656 58.0625 35.9062 61.3594
Q32.5625 64.6562 27.5938 64.6562
Q22.5625 64.6562 19.2344 61.4219
Q15.9219 58.2031 15.9219 53.7188
M13.0938 20.6562
Q13.0938 16.8906 14.875 13.375
Q16.6562 9.85938 20.1719 7.92188
Q23.6875 6 27.7344 6
Q34.0312 6 38.125 10.0469
Q42.2344 14.1094 42.2344 20.3594
Q42.2344 26.7031 38.0156 30.8594
Q33.7969 35.0156 27.4375 35.0156
Q21.2344 35.0156 17.1562 30.9062
Q13.0938 26.8125 13.0938 20.6562" id="ArialMT-38"/>
      </defs>
      <g transform="translate(399.270901855 371.115625)scale(0.2 -0.2)">
       <use xlink:href="#ArialMT-38"/>
      </g>
     </g>
    </g>
    <g id="xtick_10">
     <g id="line2d_31">
      <path clip-path="url(#p5bee155178)" d="
M453.6 352.8
L453.6 7.2" style="fill:none;stroke:#000000;stroke-dasharray:1.000000,3.000000;stroke-dashoffset:0.0;stroke-width:0.5;"/>
     </g>
     <g id="line2d_32">
      <g>
       <use style="stroke:#000000;stroke-width:0.5;" x="453.6" xlink:href="#m93b0483c22" y="352.8"/>
      </g>
     </g>
     <g id="line2d_33">
      <g>
       <use style="stroke:#000000;stroke-width:0.5;" x="453.6" xlink:href="#m741efc42ff" y="7.2"/>
      </g>
     </g>
    </g>
    <g id="xtick_11"/>
    <g id="xtick_12">
     <g id="line2d_34">
      <defs>
       <path d="
M0 0
L0 -2" id="m177f7580d0" style="stroke:#000000;stroke-width:0.5;"/>
      </defs>
      <g>
       <use style="stroke:#000000;stroke-width:0.5;" x="56.70471484" xlink:href="#m177f7580d0" y="352.8"/>
      </g>
     </g>
     <g id="line2d_35">
      <defs>
       <path d="
M0 0
L0 2" id="m5284c7e2a0" style="stroke:#000000;stroke-width:0.5;"/>
      </defs>
      <g>
       <use style="stroke:#000000;stroke-width:0.5;" x="56.70471484" xlink:href="#m5284c7e2a0" y="7.2"/>
      </g>
     </g>
    </g>
    <g id="xtick_13">
     <g id="line2d_36">
      <g>
       <use style="stroke:#000000;stroke-width:0.5;" x="106.316625485" xlink:href="#m177f7580d0" y="352.8"/>
      </g>
     </g>
     <g id="line2d_37">
      <g>
       <use style="stroke:#000000;stroke-width:0.5;" x="106.316625485" xlink:href="#m5284c7e2a0" y="7.2"/>
      </g>
     </g>
    </g>
    <g id="xtick_14">
     <g id="line2d_38">
      <g>
       <use style="stroke:#000000;stroke-width:0.5;" x="155.92853613" xlink:href="#m177f7580d0" y="352.8"/>
      </g>
     </g>
     <g id="line2d_39">
      <g>
       <use style="stroke:#000000;stroke-width:0.5;" x="155.92853613" xlink:href="#m5284c7e2a0" y="7.2"/>
      </g>
     </g>
    </g>
    <g id="xtick_15">
     <g id="line2d_40">
      <g>
       <use style="stroke:#000000;stroke-width:0.5;" x="205.540446775" xlink:href="#m177f7580d0" y="352.8"/>
      </g>
     </g>
     <g id="line2d_41">
      <g>
       <use style="stroke:#000000;stroke-width:0.5;" x="205.540446775" xlink:href="#m5284c7e2a0" y="7.2"/>
      </g>
     </g>
    </g>
    <g id="xtick_16">
     <g id="line2d_42">
      <g>
       <use style="stroke:#000000;stroke-width:0.5;" x="255.15235742" xlink:href="#m177f7580d0" y="352.8"/>
      </g>
     </g>
     <g id="line2d_43">
      <g>
       <use style="stroke:#000000;stroke-width:0.5;" x="255.15235742" xlink:href="#m5284c7e2a0" y="7.2"/>
      </g>
     </g>
    </g>
    <g id="xtick_17">
     <g id="line2d_44">
      <g>
       <use style="stroke:#000000;stroke-width:0.5;" x="304.764268065" xlink:href="#m177f7580d0" y="352.8"/>
      </g>
     </g>
     <g id="line2d_45">
      <g>
       <use style="stroke:#000000;stroke-width:0.5;" x="304.764268065" xlink:href="#m5284c7e2a0" y="7.2"/>
      </g>
     </g>
    </g>
    <g id="xtick_18">
     <g id="line2d_46">
      <g>
       <use style="stroke:#000000;stroke-width:0.5;" x="354.37617871" xlink:href="#m177f7580d0" y="352.8"/>
      </g>
     </g>
     <g id="line2d_47">
      <g>
       <use style="stroke:#000000;stroke-width:0.5;" x="354.37617871" xlink:href="#m5284c7e2a0" y="7.2"/>
      </g>
     </g>
    </g>
    <g id="xtick_19">
     <g id="line2d_48">
      <g>
       <use style="stroke:#000000;stroke-width:0.5;" x="403.988089355" xlink:href="#m177f7580d0" y="352.8"/>
      </g>
     </g>
     <g id="line2d_49">
      <g>
       <use style="stroke:#000000;stroke-width:0.5;" x="403.988089355" xlink:href="#m5284c7e2a0" y="7.2"/>
      </g>
     </g>
    </g>
    <g id="xtick_20">
     <g id="line2d_50">
      <g>
       <use style="stroke:#000000;stroke-width:0.5;" x="453.6" xlink:href="#m177f7580d0" y="352.8"/>
      </g>
     </g>
     <g id="line2d_51">
      <g>
       <use style="stroke:#000000;stroke-width:0.5;" x="453.6" xlink:href="#m5284c7e2a0" y="7.2"/>
      </g>
     </g>
    </g>
    <g id="text_9">
     <!-- log10 of Df -->
     <defs>
      <path d="
M4.98438 -4.29688
L13.5312 -5.5625
Q14.0625 -9.51562 16.5 -11.3281
Q19.7812 -13.7656 25.4375 -13.7656
Q31.5469 -13.7656 34.8594 -11.3281
Q38.1875 -8.89062 39.3594 -4.5
Q40.0469 -1.8125 39.9844 6.78125
Q34.2344 0 25.6406 0
Q14.9375 0 9.07812 7.71875
Q3.21875 15.4375 3.21875 26.2188
Q3.21875 33.6406 5.90625 39.9062
Q8.59375 46.1875 13.6875 49.6094
Q18.7969 53.0312 25.6875 53.0312
Q34.8594 53.0312 40.8281 45.6094
L40.8281 51.8594
L48.9219 51.8594
L48.9219 7.03125
Q48.9219 -5.07812 46.4531 -10.125
Q44 -15.1875 38.6406 -18.1094
Q33.2969 -21.0469 25.4844 -21.0469
Q16.2188 -21.0469 10.5 -16.875
Q4.78125 -12.7031 4.98438 -4.29688
M12.25 26.8594
Q12.25 16.6562 16.2969 11.9688
Q20.3594 7.28125 26.4688 7.28125
Q32.5156 7.28125 36.6094 11.9375
Q40.7188 16.6094 40.7188 26.5625
Q40.7188 36.0781 36.5 40.9062
Q32.2812 45.75 26.3125 45.75
Q20.4531 45.75 16.3438 40.9844
Q12.25 36.2344 12.25 26.8594" id="ArialMT-67"/>
      <path d="
M8.6875 0
L8.6875 45.0156
L0.921875 45.0156
L0.921875 51.8594
L8.6875 51.8594
L8.6875 57.375
Q8.6875 62.5938 9.625 65.1406
Q10.8906 68.5625 14.0781 70.6719
Q17.2812 72.7969 23.0469 72.7969
Q26.7656 72.7969 31.25 71.9219
L29.9375 64.2656
Q27.2031 64.75 24.75 64.75
Q20.75 64.75 19.0938 63.0312
Q17.4375 61.3281 17.4375 56.6406
L17.4375 51.8594
L27.5469 51.8594
L27.5469 45.0156
L17.4375 45.0156
L17.4375 0
z
" id="ArialMT-66"/>
      <path d="
M7.71875 0
L7.71875 71.5781
L32.375 71.5781
Q40.7188 71.5781 45.125 70.5625
Q51.2656 69.1406 55.6094 65.4375
Q61.2812 60.6406 64.0781 53.1875
Q66.8906 45.75 66.8906 36.1875
Q66.8906 28.0312 64.9844 21.7344
Q63.0938 15.4375 60.1094 11.2969
Q57.125 7.17188 53.5781 4.79688
Q50.0469 2.4375 45.0469 1.21875
Q40.0469 0 33.5469 0
z

M17.1875 8.45312
L32.4688 8.45312
Q39.5469 8.45312 43.5781 9.76562
Q47.6094 11.0781 50 13.4844
Q53.375 16.8438 55.25 22.5312
Q57.125 28.2188 57.125 36.3281
Q57.125 47.5625 53.4375 53.5938
Q49.75 59.625 44.4844 61.6719
Q40.6719 63.1406 32.2344 63.1406
L17.1875 63.1406
z
" id="ArialMT-44"/>
      <path d="
M6.39062 0
L6.39062 71.5781
L15.1875 71.5781
L15.1875 0
z
" id="ArialMT-6c"/>
      <path d="
M3.32812 25.9219
Q3.32812 40.3281 11.3281 47.2656
Q18.0156 53.0312 27.6406 53.0312
Q38.3281 53.0312 45.1094 46.0156
Q51.9062 39.0156 51.9062 26.6562
Q51.9062 16.6562 48.9062 10.9062
Q45.9062 5.17188 40.1562 2
Q34.4219 -1.17188 27.6406 -1.17188
Q16.75 -1.17188 10.0312 5.8125
Q3.32812 12.7969 3.32812 25.9219
M12.3594 25.9219
Q12.3594 15.9688 16.7031 11.0156
Q21.0469 6.0625 27.6406 6.0625
Q34.1875 6.0625 38.5312 11.0312
Q42.875 16.0156 42.875 26.2188
Q42.875 35.8438 38.5 40.7969
Q34.125 45.75 27.6406 45.75
Q21.0469 45.75 16.7031 40.8125
Q12.3594 35.8906 12.3594 25.9219" id="ArialMT-6f"/>
      <path d="
M37.25 0
L28.4688 0
L28.4688 56
Q25.2969 52.9844 20.1406 49.9531
Q14.9844 46.9219 10.8906 45.4062
L10.8906 53.9062
Q18.2656 57.375 23.7812 62.2969
Q29.2969 67.2344 31.5938 71.875
L37.25 71.875
z
" id="ArialMT-31"/>
      <path id="ArialMT-20"/>
     </defs>
     <g transform="translate(181.6921875 394.65)scale(0.2 -0.2)">
      <use xlink:href="#ArialMT-6c"/>
      <use x="22.216796875" xlink:href="#ArialMT-6f"/>
      <use x="77.83203125" xlink:href="#ArialMT-67"/>
      <use x="133.447265625" xlink:href="#ArialMT-31"/>
      <use x="189.0625" xlink:href="#ArialMT-30"/>
      <use x="244.677734375" xlink:href="#ArialMT-20"/>
      <use x="272.4609375" xlink:href="#ArialMT-6f"/>
      <use x="328.076171875" xlink:href="#ArialMT-66"/>
      <use x="355.859375" xlink:href="#ArialMT-20"/>
      <use x="383.642578125" xlink:href="#ArialMT-44"/>
      <use x="455.859375" xlink:href="#ArialMT-66"/>
     </g>
    </g>
   </g>
   <g id="matplotlib.axis_2">
    <g id="ytick_1">
     <g id="line2d_52">
      <path clip-path="url(#p5bee155178)" d="
M7.2 352.8
L453.6 352.8" style="fill:none;stroke:#000000;stroke-dasharray:1.000000,3.000000;stroke-dashoffset:0.0;stroke-width:0.5;"/>
     </g>
     <g id="line2d_53">
      <defs>
       <path d="
M0 0
L4 0" id="m728421d6d4" style="stroke:#000000;stroke-width:0.5;"/>
      </defs>
      <g>
       <use style="stroke:#000000;stroke-width:0.5;" x="7.2" xlink:href="#m728421d6d4" y="352.8"/>
      </g>
     </g>
     <g id="line2d_54">
      <defs>
       <path d="
M0 0
L-4 0" id="mcb0005524f" style="stroke:#000000;stroke-width:0.5;"/>
      </defs>
      <g>
       <use style="stroke:#000000;stroke-width:0.5;" x="453.6" xlink:href="#mcb0005524f" y="352.8"/>
      </g>
     </g>
    </g>
    <g id="ytick_2">
     <g id="line2d_55">
      <path clip-path="url(#p5bee155178)" d="
M7.2 284.364
L453.6 284.364" style="fill:none;stroke:#000000;stroke-dasharray:1.000000,3.000000;stroke-dashoffset:0.0;stroke-width:0.5;"/>
     </g>
     <g id="line2d_56">
      <g>
       <use style="stroke:#000000;stroke-width:0.5;" x="7.2" xlink:href="#m728421d6d4" y="284.364356436"/>
      </g>
     </g>
     <g id="line2d_57">
      <g>
       <use style="stroke:#000000;stroke-width:0.5;" x="453.6" xlink:href="#mcb0005524f" y="284.364356436"/>
      </g>
     </g>
    </g>
    <g id="ytick_3">
     <g id="line2d_58">
      <path clip-path="url(#p5bee155178)" d="
M7.2 215.929
L453.6 215.929" style="fill:none;stroke:#000000;stroke-dasharray:1.000000,3.000000;stroke-dashoffset:0.0;stroke-width:0.5;"/>
     </g>
     <g id="line2d_59">
      <g>
       <use style="stroke:#000000;stroke-width:0.5;" x="7.2" xlink:href="#m728421d6d4" y="215.928712871"/>
      </g>
     </g>
     <g id="line2d_60">
      <g>
       <use style="stroke:#000000;stroke-width:0.5;" x="453.6" xlink:href="#mcb0005524f" y="215.928712871"/>
      </g>
     </g>
    </g>
    <g id="ytick_4">
     <g id="line2d_61">
      <path clip-path="url(#p5bee155178)" d="
M7.2 147.493
L453.6 147.493" style="fill:none;stroke:#000000;stroke-dasharray:1.000000,3.000000;stroke-dashoffset:0.0;stroke-width:0.5;"/>
     </g>
     <g id="line2d_62">
      <g>
       <use style="stroke:#000000;stroke-width:0.5;" x="7.2" xlink:href="#m728421d6d4" y="147.493069307"/>
      </g>
     </g>
     <g id="line2d_63">
      <g>
       <use style="stroke:#000000;stroke-width:0.5;" x="453.6" xlink:href="#mcb0005524f" y="147.493069307"/>
      </g>
     </g>
    </g>
    <g id="ytick_5">
     <g id="line2d_64">
      <path clip-path="url(#p5bee155178)" d="
M7.2 79.0574
L453.6 79.0574" style="fill:none;stroke:#000000;stroke-dasharray:1.000000,3.000000;stroke-dashoffset:0.0;stroke-width:0.5;"/>
     </g>
     <g id="line2d_65">
      <g>
       <use style="stroke:#000000;stroke-width:0.5;" x="7.2" xlink:href="#m728421d6d4" y="79.0574257426"/>
      </g>
     </g>
     <g id="line2d_66">
      <g>
       <use style="stroke:#000000;stroke-width:0.5;" x="453.6" xlink:href="#mcb0005524f" y="79.0574257426"/>
      </g>
     </g>
    </g>
    <g id="ytick_6">
     <g id="line2d_67">
      <path clip-path="url(#p5bee155178)" d="
M7.2 10.6218
L453.6 10.6218" style="fill:none;stroke:#000000;stroke-dasharray:1.000000,3.000000;stroke-dashoffset:0.0;stroke-width:0.5;"/>
     </g>
     <g id="line2d_68">
      <g>
       <use style="stroke:#000000;stroke-width:0.5;" x="7.2" xlink:href="#m728421d6d4" y="10.6217821782"/>
      </g>
     </g>
     <g id="line2d_69">
      <g>
       <use style="stroke:#000000;stroke-width:0.5;" x="453.6" xlink:href="#mcb0005524f" y="10.6217821782"/>
      </g>
     </g>
    </g>
   </g>
   <g id="patch_3">
    <path d="
M7.2 7.2
L453.6 7.2" style="fill:none;stroke:#000000;"/>
   </g>
   <g id="patch_4">
    <path d="
M453.6 352.8
L453.6 7.2" style="fill:none;stroke:#000000;"/>
   </g>
   <g id="patch_5">
    <path d="
M7.2 352.8
L453.6 352.8" style="fill:none;stroke:#000000;"/>
   </g>
   <g id="patch_6">
    <path d="
M7.2 352.8
L7.2 7.2" style="fill:none;stroke:#000000;"/>
   </g>
   <g id="text_10">
    <!-- {f10-f14}, 5-D -->
    <defs>
     <path d="
M30.5625 29.8906
L30.5625 21.9219
Q26.8125 21.8281 24.4375 19.875
Q22.0781 17.9219 21.2969 14.5781
Q20.5156 11.2344 20.4531 3.07812
Q20.4062 -5.07812 20.1719 -7.67188
Q19.7344 -11.8125 18.5312 -14.2812
Q17.3281 -16.75 15.5625 -18.2344
Q13.8125 -19.7344 11.0781 -20.5156
Q9.23438 -21.0469 5.03125 -21.0469
L2.29688 -21.0469
L2.29688 -13.375
L3.8125 -13.375
Q8.89062 -13.375 10.5469 -11.5469
Q12.2031 -9.71875 12.2031 -3.32812
Q12.2031 8.89062 12.6406 12.1562
Q13.4219 17.5781 15.7656 20.8281
Q18.1094 24.0781 22.4062 25.875
Q16.7969 28.5625 14.5 32.9844
Q12.2031 37.4062 12.2031 47.9062
Q12.2031 57.4219 11.9688 59.2812
Q11.625 62.5469 10.0312 63.8438
Q8.45312 65.1406 3.8125 65.1406
L2.29688 65.1406
L2.29688 72.7969
L5.03125 72.7969
Q9.8125 72.7969 11.9688 72.0156
Q15.0938 70.9531 17.1406 68.4062
Q19.1875 65.875 19.7969 62.0156
Q20.4062 58.1562 20.4531 49.3594
Q20.5156 40.5781 21.2969 37.2344
Q22.0781 33.8906 24.4375 31.9375
Q26.8125 29.9844 30.5625 29.8906" id="ArialMT-7d"/>
     <path d="
M8.89062 0
L8.89062 10.0156
L18.8906 10.0156
L18.8906 0
Q18.8906 -5.51562 16.9375 -8.90625
Q14.9844 -12.3125 10.75 -14.1562
L8.29688 -10.4062
Q11.0781 -9.1875 12.3906 -6.8125
Q13.7188 -4.4375 13.875 0
z
" id="ArialMT-2c"/>
     <path d="
M4.15625 18.75
L13.375 19.5312
Q14.4062 12.7969 18.1406 9.39062
Q21.875 6 27.1562 6
Q33.5 6 37.8906 10.7812
Q42.2812 15.5781 42.2812 23.4844
Q42.2812 31 38.0625 35.3438
Q33.8438 39.7031 27 39.7031
Q22.75 39.7031 19.3281 37.7656
Q15.9219 35.8438 13.9688 32.7656
L5.71875 33.8438
L12.6406 70.6094
L48.25 70.6094
L48.25 62.2031
L19.6719 62.2031
L15.8281 42.9688
Q22.2656 47.4688 29.3438 47.4688
Q38.7188 47.4688 45.1562 40.9688
Q51.6094 34.4688 51.6094 24.2656
Q51.6094 14.5469 45.9531 7.46875
Q39.0625 -1.21875 27.1562 -1.21875
Q17.3906 -1.21875 11.2031 4.25
Q5.03125 9.71875 4.15625 18.75" id="ArialMT-35"/>
     <path d="
M2.78125 29.8906
Q6.54688 29.9844 8.90625 31.9062
Q11.2812 33.8438 12.0625 37.2031
Q12.8438 40.5781 12.8906 48.7344
Q12.9375 56.8906 13.1875 59.4688
Q13.625 63.5781 14.8125 66.0625
Q16.0156 68.5625 17.7656 70.0469
Q19.5312 71.5312 22.2656 72.3125
Q24.125 72.7969 28.3281 72.7969
L31.0625 72.7969
L31.0625 65.1406
L29.5469 65.1406
Q24.4688 65.1406 22.7969 63.2969
Q21.1406 61.4688 21.1406 55.125
Q21.1406 42.3281 20.6094 38.9688
Q19.7344 33.7344 17.6094 30.9062
Q15.4844 28.0781 10.9375 25.875
Q16.3125 23.6406 18.7188 19.0156
Q21.1406 14.4062 21.1406 3.90625
Q21.1406 -5.60938 21.3438 -7.42188
Q21.7344 -10.75 23.3125 -12.0625
Q24.9062 -13.375 29.5469 -13.375
L31.0625 -13.375
L31.0625 -21.0469
L28.3281 -21.0469
Q23.5312 -21.0469 21.3906 -20.2656
Q18.2656 -19.1406 16.2031 -16.625
Q14.1562 -14.1094 13.5469 -10.25
Q12.9375 -6.39062 12.8906 2.39062
Q12.8438 11.1875 12.0625 14.5469
Q11.2812 17.9219 8.90625 19.875
Q6.54688 21.8281 2.78125 21.9219
z
" id="ArialMT-7b"/>
    </defs>
    <g transform="translate(326.77825 345.888)scale(0.2 -0.2)">
     <use xlink:href="#ArialMT-7b"/>
     <use x="33.3984375" xlink:href="#ArialMT-66"/>
     <use x="61.181640625" xlink:href="#ArialMT-31"/>
     <use x="116.796875" xlink:href="#ArialMT-30"/>
     <use x="172.412109375" xlink:href="#ArialMT-2d"/>
     <use x="205.712890625" xlink:href="#ArialMT-66"/>
     <use x="233.49609375" xlink:href="#ArialMT-31"/>
     <use x="289.111328125" xlink:href="#ArialMT-34"/>
     <use x="344.7265625" xlink:href="#ArialMT-7d"/>
     <use x="378.125" xlink:href="#ArialMT-2c"/>
     <use x="405.908203125" xlink:href="#ArialMT-20"/>
     <use x="433.69140625" xlink:href="#ArialMT-35"/>
     <use x="489.306640625" xlink:href="#ArialMT-2d"/>
     <use x="522.607421875" xlink:href="#ArialMT-44"/>
    </g>
   </g>
   <g id="text_11">
    <!-- v2.0.1 -->
    <defs>
     <path d="
M21 0
L1.26562 51.8594
L10.5469 51.8594
L21.6875 20.7969
Q23.4844 15.7656 25 10.3594
Q26.1719 14.4531 28.2656 20.2188
L39.7969 51.8594
L48.8281 51.8594
L29.2031 0
z
" id="ArialMT-76"/>
     <path d="
M9.07812 0
L9.07812 10.0156
L19.0938 10.0156
L19.0938 0
z
" id="ArialMT-2e"/>
    </defs>
    <g style="fill:#808080;" transform="translate(217.76171875 347.3565)scale(0.1 -0.1)">
     <use xlink:href="#ArialMT-76"/>
     <use x="50.0" xlink:href="#ArialMT-32"/>
     <use x="105.615234375" xlink:href="#ArialMT-2e"/>
     <use x="133.3984375" xlink:href="#ArialMT-30"/>
     <use x="189.013671875" xlink:href="#ArialMT-2e"/>
     <use x="216.796875" xlink:href="#ArialMT-31"/>
    </g>
   </g>
  </g>
 </g>
 <defs>
  <clipPath id="p5bee155178">
   <rect height="345.6" width="446.4" x="7.2" y="7.2"/>
  </clipPath>
 </defs>
</svg>
