<?xml version="1.0" encoding="utf-8" standalone="no"?>
<!DOCTYPE svg PUBLIC "-//W3C//DTD SVG 1.1//EN"
  "http://www.w3.org/Graphics/SVG/1.1/DTD/svg11.dtd">
<!-- Created with matplotlib (http://matplotlib.org/) -->
<svg height="414pt" version="1.1" viewBox="0 0 618 414" width="618pt" xmlns="http://www.w3.org/2000/svg" xmlns:xlink="http://www.w3.org/1999/xlink">
 <defs>
  <style type="text/css">
*{stroke-linecap:butt;stroke-linejoin:round;}
  </style>
 </defs>
 <g id="figure_1">
  <g id="patch_1">
   <path d="
M0 414.924
L618.028 414.924
L618.028 0
L0 0
z
" style="fill:#ffffff;"/>
  </g>
  <g id="axes_1">
   <g id="patch_2">
    <path d="
M163.324 358.524
L609.724 358.524
L609.724 12.9235
L163.324 12.9235
z
" style="fill:#ffffff;"/>
   </g>
   <g id="line2d_1">
    <defs>
     <path d="
M0 1.5
C0.397805 1.5 0.77937 1.34195 1.06066 1.06066
C1.34195 0.77937 1.5 0.397805 1.5 0
C1.5 -0.397805 1.34195 -0.77937 1.06066 -1.06066
C0.77937 -1.34195 0.397805 -1.5 0 -1.5
C-0.397805 -1.5 -0.77937 -1.34195 -1.06066 -1.06066
C-1.34195 -0.77937 -1.5 -0.397805 -1.5 0
C-1.5 0.397805 -1.34195 0.77937 -1.06066 1.06066
C-0.77937 1.34195 -0.397805 1.5 0 1.5
z
" id="m977c291b42" style="stroke:#00bfbf;stroke-width:0.5;"/>
    </defs>
    <g>
     <use style="fill:#00bfbf;stroke:#00bfbf;stroke-width:0.5;" x="604.625484056" xlink:href="#m977c291b42" y="23.7839694092"/>
     <use style="fill:#00bfbf;stroke:#00bfbf;stroke-width:0.5;" x="604.625484056" xlink:href="#m977c291b42" y="23.7839694092"/>
    </g>
   </g>
   <g id="line2d_2">
    <path d="
M127.2 328.769
L163.324 328.769
L163.324 308.685
L184.455 308.685
L184.455 293.063
L199.447 293.063
L199.447 287.856
L211.076 287.856
L211.076 286.369
L220.578 286.369
L220.578 275.211
L228.612 275.211
L228.612 272.235
L235.571 272.235
L235.571 268.516
L241.709 268.516
L241.709 267.772
L247.2 267.772
L247.2 266.284
L252.167 266.284
L252.167 261.821
L256.702 261.821
L256.702 259.589
L260.873 259.589
L260.873 258.846
L264.735 258.846
L264.735 255.126
L268.331 255.126
L268.331 249.919
L271.694 249.919
L271.694 248.431
L280.65 248.431
L280.65 247.688
L283.324 247.688
L283.324 245.456
L285.866 245.456
L285.866 241.737
L288.291 241.737
L288.291 240.249
L290.607 240.249
L290.607 239.505
L294.953 239.505
L294.953 238.761
L296.997 238.761
L296.997 226.859
L298.964 226.859
L298.964 224.628
L300.859 224.628
L300.859 219.421
L306.163 219.421
L306.163 215.701
L307.818 215.701
L307.818 213.47
L309.422 213.47
L309.422 203.056
L310.977 203.056
L310.977 202.312
L312.488 202.312
L312.488 201.568
L316.774 201.568
L316.774 200.824
L321.99 200.824
L321.99 200.08
L324.414 200.08
L324.414 198.592
L325.586 198.592
L325.586 197.105
L331.076 197.105
L331.076 195.617
L332.108 195.617
L332.108 194.129
L333.12 194.129
L333.12 193.385
L335.087 193.385
L335.087 191.898
L337.905 191.898
L337.905 191.154
L338.811 191.154
L338.811 188.178
L341.44 188.178
L341.44 187.434
L343.121 187.434
L343.121 186.691
L344.75 186.691
L344.75 185.947
L346.329 185.947
L346.329 183.715
L347.862 183.715
L347.862 182.971
L348.612 182.971
L348.612 182.227
L350.799 182.227
L350.799 180.74
L354.251 180.74
L354.251 178.508
L355.571 178.508
L355.571 177.764
L358.73 177.764
L358.73 177.02
L359.34 177.02
L359.34 172.557
L361.127 172.557
L361.127 171.069
L362.855 171.069
L362.855 169.582
L364.527 169.582
L364.527 168.838
L366.147 168.838
L366.147 165.862
L366.676 165.862
L366.676 165.118
L367.2 165.118
L367.2 163.631
L368.74 163.631
L368.74 162.887
L369.743 162.887
L369.743 161.399
L370.726 161.399
L370.726 160.655
L371.691 160.655
L371.691 158.424
L372.167 158.424
L372.167 156.936
L372.639 156.936
L372.639 156.192
L373.569 156.192
L373.569 154.704
L375.826 154.704
L375.826 153.96
L376.266 153.96
L376.266 151.729
L376.702 151.729
L376.702 148.753
L377.563 148.753
L377.563 142.802
L379.244 142.802
L379.244 142.059
L379.656 142.059
L379.656 141.315
L380.065 141.315
L380.065 140.571
L380.471 140.571
L380.471 138.339
L382.062 138.339
L382.062 137.595
L382.453 137.595
L382.453 136.852
L383.985 136.852
L383.985 136.108
L385.106 136.108
L385.106 133.876
L386.564 133.876
L386.564 132.388
L386.922 132.388
L386.922 131.644
L387.278 131.644
L387.278 130.901
L387.631 130.901
L387.631 130.157
L387.982 130.157
L387.982 128.669
L389.021 128.669
L389.021 127.925
L390.04 127.925
L390.04 126.437
L392.019 126.437
L392.019 124.206
L392.981 124.206
L392.981 123.462
L393.613 123.462
L393.613 122.718
L394.546 122.718
L394.546 118.999
L394.854 118.999
L394.854 118.255
L396.066 118.255
L396.066 116.767
L397.542 116.767
L397.542 116.023
L397.833 116.023
L397.833 115.279
L400.65 115.279
L400.65 112.304
L402.536 112.304
L402.536 111.56
L402.8 111.56
L402.8 109.329
L403.062 109.329
L403.062 108.585
L406.114 108.585
L406.114 107.841
L407.093 107.841
L407.093 105.609
L411.283 105.609
L411.283 104.121
L411.506 104.121
L411.506 102.634
L419.54 102.634
L419.54 101.89
L419.92 101.89
L419.92 101.146
L424.106 101.146
L424.106 100.402
L427.491 100.402
L427.491 97.4267
L427.818 97.4267
L427.818 96.6828
L428.143 96.6828
L428.143 93.7073
L429.893 93.7073
L429.893 92.9635
L430.05 92.9635
L430.05 92.2196
L431.131 92.2196
L431.131 91.4757
L431.738 91.4757
L431.738 89.988
L432.04 89.988
L432.04 89.2442
L432.785 89.2442
L432.785 88.5003
L433.08 88.5003
L433.08 87.7564
L434.532 87.7564
L434.532 84.781
L435.102 84.781
L435.102 84.0371
L435.243 84.0371
L435.243 82.5494
L435.945 82.5494
L435.945 81.0616
L437.048 81.0616
L437.048 80.3178
L438.128 80.3178
L438.128 79.5739
L439.186 79.5739
L439.186 78.83
L440.223 78.83
L440.223 78.0862
L440.861 78.0862
L440.861 77.3423
L441.366 77.3423
L441.366 75.8546
L447.07 75.8546
L447.07 75.1107
L450.868 75.1107
L450.868 74.3668
L452.92 74.3668
L452.92 72.1352
L453.32 72.1352
L453.32 69.9036
L454.505 69.9036
L454.505 69.1598
L455.568 69.1598
L455.663 65.4404
L456.233 65.4404
L456.233 64.6966
L456.703 64.6966
L456.703 63.9527
L457.353 63.9527
L457.353 63.2089
L457.63 63.2089
L457.63 62.465
L458.721 62.465
L458.811 60.9773
L460.404 60.9773
L460.404 60.2334
L461.097 60.2334
L461.097 59.4895
L461.525 59.4895
L461.525 58.7457
L461.865 58.7457
L461.865 58.0018
L468.463 58.0018
L468.463 57.2579
L468.612 57.2579
L468.612 56.5141
L470.224 56.5141
L470.224 55.7702
L472.554 55.7702
L472.554 55.0263
L473.849 55.0263
L473.849 53.5386
L474.251 53.5386
L474.251 52.7947
L474.385 52.7947
L474.385 52.0509
L474.915 52.0509
L474.915 51.307
L475.44 51.307
L475.44 47.5877
L476.539 47.5877
L476.539 46.8438
L478.975 46.8438
L478.975 45.3561
L479.279 45.3561
L479.279 44.6122
L479.521 44.6122
L479.521 43.8683
L480.656 43.8683
L480.656 43.1245
L482.741 43.1245
L482.741 42.3806
L482.855 42.3806
L482.855 41.6367
L483.362 41.6367
L483.362 40.149
L483.642 40.149
L483.642 39.4051
L484.252 39.4051
L484.252 37.9174
L487.096 37.9174
L487.096 36.4297
L495.782 36.4297
L495.782 35.6858
L500.793 35.6858
L500.793 34.942
L503.948 34.942
L503.948 34.1981
L504.061 34.1981
L504.061 33.4542
L509.939 33.4542
L509.939 32.7104
L514.793 32.7104
L514.793 31.9665
L521.87 31.9665
L521.87 31.2226
L522.773 31.2226
L522.773 30.4788
L523.271 30.4788
L523.271 29.7349
L523.324 29.7349" style="fill:none;stroke:#00bfbf;stroke-linecap:square;stroke-width:1.5;"/>
   </g>
   <g id="line2d_3">
    <defs>
     <path d="
M-6 0
L6 0
M0 6
L0 -6" id="m3e4de746de" style="stroke:#00bfbf;stroke-width:1.5;"/>
    </defs>
    <g>
     <use style="fill:none;stroke:#00bfbf;stroke-width:1.5;" x="163.32359948" xlink:href="#m3e4de746de" y="328.768902685"/>
     <use style="fill:none;stroke:#00bfbf;stroke-width:1.5;" x="264.735364281" xlink:href="#m3e4de746de" y="258.845527739"/>
     <use style="fill:none;stroke:#00bfbf;stroke-width:1.5;" x="338.811359228" xlink:href="#m3e4de746de" y="191.153749865"/>
     <use style="fill:none;stroke:#00bfbf;stroke-width:1.5;" x="394.546404554" xlink:href="#m3e4de746de" y="122.718106301"/>
     <use style="fill:none;stroke:#00bfbf;stroke-width:1.5;" x="473.848915282" xlink:href="#m3e4de746de" y="53.5385970458"/>
     <use style="fill:none;stroke:#00bfbf;stroke-width:1.5;" x="523.32359948" xlink:href="#m3e4de746de" y="29.7348949365"/>
    </g>
   </g>
   <g id="line2d_4"/>
   <g id="line2d_5">
    <path clip-path="url(#pebde201112)" d="
M403.324 108.585" style="fill:none;stroke:#00bfbf;stroke-linecap:square;"/>
    <defs>
     <path d="
M-12 12
L12 -12
M-12 -12
L12 12" id="m09e435d1d9" style="stroke:#00bfbf;stroke-width:3;"/>
    </defs>
    <g clip-path="url(#pebde201112)">
     <use style="fill:#00bfbf;stroke:#00bfbf;stroke-width:3;" x="403.32359948" xlink:href="#m09e435d1d9" y="108.584658174"/>
    </g>
   </g>
   <g id="line2d_6">
    <defs>
     <path d="
M0 1.5
C0.397805 1.5 0.77937 1.34195 1.06066 1.06066
C1.34195 0.77937 1.5 0.397805 1.5 0
C1.5 -0.397805 1.34195 -0.77937 1.06066 -1.06066
C0.77937 -1.34195 0.397805 -1.5 0 -1.5
C-0.397805 -1.5 -0.77937 -1.34195 -1.06066 -1.06066
C-1.34195 -0.77937 -1.5 -0.397805 -1.5 0
C-1.5 0.397805 -1.34195 0.77937 -1.06066 1.06066
C-0.77937 1.34195 -0.397805 1.5 0 1.5
z
" id="mb0b177905e" style="stroke:#008000;stroke-width:0.5;"/>
    </defs>
    <g>
     <use style="fill:#008000;stroke:#008000;stroke-width:0.5;" x="602.846985787" xlink:href="#mb0b177905e" y="49.7285532631"/>
     <use style="fill:#008000;stroke:#008000;stroke-width:0.5;" x="602.846985787" xlink:href="#mb0b177905e" y="49.7285532631"/>
    </g>
   </g>
   <g id="line2d_7">
    <path d="
M142.193 332.652
L163.324 332.652
L163.324 322.637
L178.316 322.637
L178.316 318.464
L189.945 318.464
L189.945 315.125
L199.447 315.125
L199.447 301.772
L207.481 301.772
L207.481 296.765
L214.44 296.765
L214.44 295.93
L220.578 295.93
L220.578 292.592
L226.069 292.592
L226.069 289.253
L231.036 289.253
L231.036 286.75
L235.571 286.75
L235.571 281.742
L239.742 281.742
L239.742 280.907
L243.604 280.907
L243.604 280.073
L247.2 280.073
L247.2 279.238
L250.563 279.238
L250.563 276.735
L253.723 276.735
L253.723 275.9
L259.519 275.9
L259.519 275.065
L262.193 275.065
L262.193 274.231
L264.735 274.231
L264.735 271.727
L267.16 271.727
L267.16 268.389
L269.476 268.389
L269.476 265.885
L273.822 265.885
L273.822 264.216
L275.866 264.216
L275.866 261.712
L277.833 261.712
L277.833 260.878
L286.687 260.878
L286.687 258.374
L288.291 258.374
L288.291 255.035
L291.357 255.035
L291.357 252.532
L294.253 252.532
L294.253 250.028
L295.643 250.028
L295.643 247.524
L296.997 247.524
L296.997 245.021
L299.603 245.021
L299.603 244.186
L300.859 244.186
L300.859 240.848
L306.721 240.848
L306.721 238.344
L307.818 238.344
L307.818 237.509
L309.945 237.509
L309.945 235.84
L312.982 235.84
L312.982 235.006
L313.956 235.006
L313.956 234.171
L314.913 234.171
L314.913 230.833
L316.774 230.833
L316.774 229.998
L319.447 229.998
L319.447 226.66
L320.309 226.66
L320.309 225.825
L321.99 225.825
L321.99 224.991
L322.811 224.991
L322.811 221.652
L324.414 221.652
L324.414 220.818
L332.448 220.818
L332.448 219.983
L333.12 219.983
L333.12 214.976
L335.087 214.976
L335.087 212.472
L339.996 212.472
L339.996 209.968
L340.578 209.968
L340.578 208.299
L341.154 208.299
L341.154 207.464
L342.844 207.464
L342.844 205.795
L344.482 205.795
L344.482 204.961
L345.545 204.961
L345.545 204.126
L347.101 204.126
L347.101 203.291
L348.113 203.291
L348.113 201.622
L349.106 201.622
L349.106 199.119
L350.56 199.119
L350.56 198.284
L351.975 198.284
L351.975 196.615
L354.251 196.615
L354.251 195.78
L356.432 195.78
L356.432 194.111
L360.142 194.111
L360.142 190.773
L360.538 190.773
L360.538 189.104
L361.709 189.104
L361.709 187.434
L362.855 187.434
L362.855 184.931
L363.231 184.931
L363.231 184.096
L363.604 184.096
L363.604 183.262
L363.975 183.262
L363.975 182.427
L366.5 182.427
L366.5 180.758
L366.851 180.758
L366.851 179.089
L367.2 179.089
L367.2 177.419
L371.532 177.419
L371.532 174.916
L372.167 174.916
L372.167 169.908
L375.531 169.908
L375.531 168.239
L376.702 168.239
L376.702 166.57
L377.563 166.57
L377.563 165.735
L379.244 165.735
L379.244 163.232
L380.605 163.232
L380.605 161.562
L380.873 161.562
L380.873 160.728
L381.405 160.728
L381.405 159.059
L383.48 159.059
L383.48 157.39
L383.733 157.39
L383.733 155.72
L384.487 155.72
L384.487 152.382
L384.735 152.382
L384.735 151.547
L384.983 151.547
L384.983 150.713
L385.962 150.713
L385.962 149.878
L386.203 149.878
L386.203 144.036
L386.684 144.036
L386.684 143.202
L387.16 143.202
L387.16 141.532
L389.249 141.532
L389.249 140.698
L390.152 140.698
L390.152 139.863
L390.597 139.863
L390.597 139.029
L394.03 139.029
L394.03 138.194
L394.444 138.194
L394.444 136.525
L396.859 136.525
L396.859 135.69
L397.055 135.69
L397.055 134.856
L398.217 134.856
L398.217 133.187
L398.978 133.187
L398.978 131.517
L400.65 131.517
L400.65 130.683
L400.833 130.683
L400.833 129.014
L401.015 129.014
L401.015 128.179
L402.448 128.179
L402.448 126.51
L402.975 126.51
L402.975 124.841
L403.324 124.841
L403.324 123.172
L408.606 123.172
L408.606 122.337
L412.97 122.337
L412.97 121.503
L415.368 121.503
L415.368 120.668
L423.989 120.668
L423.989 119.833
L425.939 119.833
L425.939 118.164
L427.052 118.164
L427.052 117.33
L427.818 117.33
L427.818 116.495
L428.786 116.495
L428.786 114.826
L429.422 114.826
L429.422 113.157
L429.632 113.157
L429.632 112.322
L430.977 112.322
L430.977 110.653
L431.587 110.653
L431.587 108.984
L431.989 108.984
L431.989 108.149
L432.785 108.149
L432.785 107.315
L433.472 107.315
L433.472 106.48
L434.341 106.48
L434.341 105.645
L435.007 105.645
L435.007 104.811
L435.196 104.811
L435.196 103.976
L436.13 103.976
L436.13 101.473
L439.273 101.473
L439.273 99.8034
L442.237 99.8034
L442.237 98.9688
L450.447 98.9688
L450.447 98.1343
L451.972 98.1343
L451.972 97.2997
L454.113 97.2997
L454.113 96.4651
L455.087 96.4651
L455.087 95.6305
L455.727 95.6305
L455.727 94.7959
L457.415 94.7959
L457.415 93.9613
L458.39 93.9613
L458.39 93.1268
L459.761 93.1268
L459.761 92.2922
L460.462 92.2922
L460.462 91.4576
L460.578 91.4576
L460.578 90.623
L468.113 90.623
L468.163 88.9539
L470.799 88.9539
L470.799 87.2847
L473.08 87.2847
L473.08 86.4501
L473.398 86.4501
L473.398 84.781
L475.003 84.781
L475.003 83.9464
L475.353 83.9464
L475.353 83.1118
L483.418 83.1118
L483.418 82.2772
L484.673 82.2772
L484.673 81.4426
L485.217 81.4426
L485.217 80.6081
L485.898 80.6081
L485.898 79.7735
L487.096 79.7735
L487.2 76.4351
L491.882 76.4351
L491.882 75.6006
L496.644 75.6006
L496.702 73.9314
L502.062 73.9314
L502.062 71.4277
L504.462 71.4277
L504.462 70.5931
L504.686 70.5931
L504.686 68.0893
L510.619 68.0893
L510.619 67.2548
L511.586 67.2548
L511.586 66.4202
L517.114 66.4202
L517.114 65.5856
L520.486 65.5856
L520.486 64.751
L523.237 64.751
L523.289 62.2473
L523.324 62.2473" style="fill:none;stroke:#008000;stroke-linecap:square;stroke-width:1.5;"/>
   </g>
   <g id="line2d_8">
    <defs>
     <path d="
M-7.34788e-16 6
L6 -6
L-6 -6
z
" id="m397e16cd68" style="stroke:#008000;stroke-linejoin:miter;stroke-width:1.5;"/>
    </defs>
    <g>
     <use style="fill:none;stroke:#008000;stroke-linejoin:miter;stroke-width:1.5;" x="142.192648393" xlink:href="#m397e16cd68" y="332.65151873"/>
     <use style="fill:none;stroke:#008000;stroke-linejoin:miter;stroke-width:1.5;" x="262.192648393" xlink:href="#m397e16cd68" y="275.065428414"/>
     <use style="fill:none;stroke:#008000;stroke-linejoin:miter;stroke-width:1.5;" x="322.810645791" xlink:href="#m397e16cd68" y="221.652243193"/>
     <use style="fill:none;stroke:#008000;stroke-linejoin:miter;stroke-width:1.5;" x="403.32359948" xlink:href="#m397e16cd68" y="124.84084498"/>
     <use style="fill:none;stroke:#008000;stroke-linejoin:miter;stroke-width:1.5;" x="496.701749526" xlink:href="#m397e16cd68" y="73.9314028163"/>
     <use style="fill:none;stroke:#008000;stroke-linejoin:miter;stroke-width:1.5;" x="523.32359948" xlink:href="#m397e16cd68" y="62.2472685493"/>
    </g>
   </g>
   <g id="line2d_9"/>
   <g id="line2d_10">
    <path clip-path="url(#pebde201112)" d="
M403.324 123.172" style="fill:none;stroke:#008000;stroke-linecap:square;"/>
    <defs>
     <path d="
M-12 12
L12 -12
M-12 -12
L12 12" id="m8c089fa6cd" style="stroke:#008000;stroke-width:3;"/>
    </defs>
    <g clip-path="url(#pebde201112)">
     <use style="fill:#008000;stroke:#008000;stroke-width:3;" x="403.32359948" xlink:href="#m8c089fa6cd" y="123.171682942"/>
    </g>
   </g>
   <g id="line2d_11">
    <defs>
     <path d="
M0 1.5
C0.397805 1.5 0.77937 1.34195 1.06066 1.06066
C1.34195 0.77937 1.5 0.397805 1.5 0
C1.5 -0.397805 1.34195 -0.77937 1.06066 -1.06066
C0.77937 -1.34195 0.397805 -1.5 0 -1.5
C-0.397805 -1.5 -0.77937 -1.34195 -1.06066 -1.06066
C-1.34195 -0.77937 -1.5 -0.397805 -1.5 0
C-1.5 0.397805 -1.34195 0.77937 -1.06066 1.06066
C-0.77937 1.34195 -0.397805 1.5 0 1.5
z
" id="m76a7ce5b4a" style="stroke:#0000ff;stroke-width:0.5;"/>
    </defs>
    <g>
     <use style="fill:#0000ff;stroke:#0000ff;stroke-width:0.5;" x="607.827840818" xlink:href="#m76a7ce5b4a" y="61.6011413087"/>
     <use style="fill:#0000ff;stroke:#0000ff;stroke-width:0.5;" x="607.827840818" xlink:href="#m76a7ce5b4a" y="61.6011413087"/>
    </g>
   </g>
   <g id="line2d_12">
    <path d="
M151.694 343.07
L163.324 343.07
L163.324 336.448
L172.825 336.448
L172.825 335.344
L180.859 335.344
L180.859 330.929
L187.818 330.929
L187.818 327.617
L193.956 327.617
L193.956 325.41
L199.447 325.41
L199.447 323.202
L204.414 323.202
L204.414 320.994
L208.949 320.994
L208.949 317.683
L216.983 317.683
L216.983 314.372
L227.101 314.372
L227.101 313.268
L230.08 313.268
L230.08 311.06
L232.898 311.06
L232.898 309.956
L235.571 309.956
L235.571 308.852
L240.538 308.852
L240.538 307.749
L242.855 307.749
L242.855 305.541
L249.244 305.541
L249.244 302.23
L254.935 302.23
L254.935 301.126
L263.225 301.126
L263.225 298.918
L264.735 298.918
L264.735 297.814
L266.203 297.814
L266.203 296.711
L269.021 296.711
L269.021 293.399
L270.375 293.399
L270.375 292.295
L271.694 292.295
L271.694 290.088
L272.981 290.088
L272.981 287.88
L274.237 287.88
L274.237 286.776
L276.662 286.776
L276.662 281.257
L277.833 281.257
L277.833 277.946
L278.978 277.946
L278.978 275.738
L280.099 275.738
L280.099 273.531
L284.356 273.531
L284.356 271.323
L289.23 271.323
L289.23 270.219
L290.152 270.219
L290.152 268.012
L293.687 268.012
L293.687 266.908
L296.189 266.908
L296.189 264.7
L296.997 264.7
L296.997 262.493
L297.792 262.493
L297.792 260.285
L303.755 260.285
L303.755 258.078
L304.455 258.078
L304.455 256.974
L307.818 256.974
L307.818 255.87
L313.956 255.87
L313.956 253.662
L314.532 253.662
L314.532 252.559
L315.102 252.559
L315.102 251.455
L315.665 251.455
L315.665 250.351
L316.223 250.351
L316.223 249.247
L317.86 249.247
L317.86 248.143
L318.394 248.143
L318.394 245.936
L323.458 245.936
L323.458 244.832
L326.276 244.832
L326.276 243.728
L326.731 243.728
L326.731 242.624
L329.381 242.624
L329.381 240.417
L331.076 240.417
L331.076 239.313
L331.492 239.313
L331.492 238.209
L331.904 238.209
L331.904 237.105
L333.916 237.105
L333.916 234.898
L338.451 234.898
L338.451 232.69
L338.811 232.69
L338.811 231.586
L339.525 231.586
L339.525 230.483
L340.578 230.483
L340.578 227.171
L343.942 227.171
L343.942 223.86
L346.484 223.86
L346.484 222.756
L348.909 222.756
L348.909 221.652
L350.656 221.652
L350.656 220.548
L351.225 220.548
L351.225 219.445
L356.089 219.445
L356.089 217.237
L358.608 217.237
L358.608 216.133
L361.477 216.133
L361.477 215.029
L362.855 215.029
L362.855 211.718
L363.753 211.718
L363.753 208.407
L365.72 208.407
L365.72 207.303
L366.147 207.303
L366.147 205.095
L368.027 205.095
L368.027 202.888
L369.244 202.888
L369.244 200.68
L370.237 200.68
L370.237 199.576
L370.823 199.576
L370.823 197.369
L371.211 197.369
L371.211 196.265
L371.787 196.265
L371.787 194.057
L372.545 194.057
L372.545 192.953
L373.662 192.953
L373.662 191.85
L375.293 191.85
L375.293 189.642
L377.22 189.642
L377.22 186.331
L377.392 186.331
L377.392 185.227
L378.073 185.227
L378.073 183.019
L379.079 183.019
L379.079 181.915
L382.297 181.915
L382.297 179.708
L385.328 179.708
L385.328 178.604
L386.636 178.604
L386.636 176.396
L387.207 176.396
L387.207 174.189
L387.349 174.189
L387.349 173.085
L387.49 173.085
L387.49 170.877
L387.631 170.877
L387.631 167.566
L391.039 167.566
L391.039 166.462
L391.302 166.462
L391.302 165.358
L392.213 165.358
L392.213 163.151
L394.361 163.151
L394.361 160.943
L395.099 160.943
L395.099 159.839
L395.584 159.839
L395.584 157.632
L396.066 157.632
L396.066 155.424
L397.133 155.424
L397.133 153.217
L397.717 153.217
L397.717 152.113
L398.409 152.113
L398.409 151.009
L398.637 151.009
L398.637 148.801
L398.978 148.801
L398.978 146.594
L400.21 146.594
L400.21 145.49
L400.65 145.49
L400.65 144.386
L401.196 144.386
L401.196 142.179
L402.377 142.179
L402.377 141.075
L402.8 141.075
L402.8 138.867
L403.115 138.867
L403.115 137.763
L421.598 137.763
L421.598 136.66
L423.966 136.66
L423.966 135.556
L425.213 135.556
L425.213 134.452
L428.013 134.452
L428.013 131.141
L430.361 131.141
L430.361 130.037
L431.889 130.037
L431.889 127.829
L432.07 127.829
L432.07 126.725
L437.265 126.725
L437.32 124.518
L438.128 124.518
L438.128 123.414
L439.186 123.414
L439.291 120.103
L439.343 120.103
L439.343 117.895
L441.841 117.895
L441.841 116.791
L451.533 116.791
L451.533 115.687
L453.241 115.687
L453.241 114.584
L453.837 114.584
L453.837 113.48
L454.7 113.48
L454.7 112.376
L456.796 112.376
L456.796 111.272
L456.945 111.272
L456.945 110.168
L460.474 110.168
L460.474 109.065
L462.186 109.065
L462.186 107.961
L472.76 107.961
L472.76 105.753
L473.47 105.753
L473.47 104.649
L474.915 104.649
L474.915 103.546
L484.964 103.546
L484.964 102.442
L487.137 102.442
L487.137 101.338
L493.162 101.338
L493.162 99.1304
L495.311 99.1304
L495.311 98.0266
L496.266 98.0266
L496.266 96.9228
L497.512 96.9228
L497.512 95.819
L503.148 95.819
L503.148 93.6114
L504.362 93.6114
L504.362 92.5076
L510.308 92.5076
L510.308 91.4038
L512.303 91.4038
L512.303 90.3
L515.5 90.3
L515.5 89.1962
L521.607 89.1962
L521.607 88.0924
L522.218 88.0924
L522.218 85.8848
L523.324 85.8848
L523.324 85.8848" style="fill:none;stroke:#0000ff;stroke-linecap:square;stroke-width:1.5;"/>
   </g>
   <g id="line2d_13">
    <defs>
     <path d="
M3.67394e-16 -6
L-1.34708 -1.8541
L-5.70634 -1.8541
L-2.17963 0.708204
L-3.52671 4.8541
L-4.20996e-16 2.2918
L3.52671 4.8541
L2.17963 0.708204
L5.70634 -1.8541
L1.34708 -1.8541
z
" id="m0933169453" style="stroke:#0000ff;stroke-linejoin:bevel;stroke-width:1.5;"/>
    </defs>
    <g>
     <use style="fill:none;stroke:#0000ff;stroke-linejoin:bevel;stroke-width:1.5;" x="230.079899572" xlink:href="#m0933169453" y="313.267701513"/>
     <use style="fill:none;stroke:#0000ff;stroke-linejoin:bevel;stroke-width:1.5;" x="296.996801756" xlink:href="#m0933169453" y="262.492869191"/>
     <use style="fill:none;stroke:#0000ff;stroke-linejoin:bevel;stroke-width:1.5;" x="373.661571222" xlink:href="#m0933169453" y="192.953424924"/>
     <use style="fill:none;stroke:#0000ff;stroke-linejoin:bevel;stroke-width:1.5;" x="438.127752843" xlink:href="#m0933169453" y="124.51778136"/>
     <use style="fill:none;stroke:#0000ff;stroke-linejoin:bevel;stroke-width:1.5;" x="522.217522496" xlink:href="#m0933169453" y="85.884756767"/>
     <use style="fill:none;stroke:#0000ff;stroke-linejoin:bevel;stroke-width:1.5;" x="523.32359948" xlink:href="#m0933169453" y="85.884756767"/>
    </g>
   </g>
   <g id="line2d_14"/>
   <g id="line2d_15">
    <path clip-path="url(#pebde201112)" d="
M403.324 137.763" style="fill:none;stroke:#0000ff;stroke-linecap:square;"/>
    <defs>
     <path d="
M-12 12
L12 -12
M-12 -12
L12 12" id="ma4a355cd2c" style="stroke:#0000ff;stroke-width:3;"/>
    </defs>
    <g clip-path="url(#pebde201112)">
     <use style="fill:#0000ff;stroke:#0000ff;stroke-width:3;" x="403.32359948" xlink:href="#ma4a355cd2c" y="137.763389792"/>
    </g>
   </g>
   <g id="line2d_16">
    <defs>
     <path d="
M0 1.5
C0.397805 1.5 0.77937 1.34195 1.06066 1.06066
C1.34195 0.77937 1.5 0.397805 1.5 0
C1.5 -0.397805 1.34195 -0.77937 1.06066 -1.06066
C0.77937 -1.34195 0.397805 -1.5 0 -1.5
C-0.397805 -1.5 -0.77937 -1.34195 -1.06066 -1.06066
C-1.34195 -0.77937 -1.5 -0.397805 -1.5 0
C-1.5 0.397805 -1.34195 0.77937 -1.06066 1.06066
C-0.77937 1.34195 -0.397805 1.5 0 1.5
z
" id="m66763a63fb" style="stroke:#000000;stroke-width:0.5;"/>
    </defs>
    <g>
     <use style="stroke:#000000;stroke-width:0.5;" x="598.097380893" xlink:href="#m66763a63fb" y="96.6255866813"/>
     <use style="stroke:#000000;stroke-width:0.5;" x="598.097380893" xlink:href="#m66763a63fb" y="96.6255866813"/>
    </g>
   </g>
   <g id="line2d_17">
    <path d="
M136.702 354.575
L163.324 354.575
L163.324 353.259
L168.291 353.259
L168.291 350.627
L172.825 350.627
L172.825 349.311
L187.818 349.311
L187.818 347.995
L201.99 347.995
L201.99 345.363
L204.414 345.363
L204.414 344.047
L208.949 344.047
L208.949 342.731
L213.12 342.731
L213.12 340.099
L218.811 340.099
L218.811 338.782
L230.08 338.782
L230.08 337.466
L234.251 337.466
L234.251 336.15
L239.34 336.15
L239.34 334.834
L251.211 334.834
L251.211 332.202
L253.106 332.202
L253.106 330.886
L259.244 330.886
L259.244 328.254
L260.873 328.254
L260.873 325.622
L266.203 325.622
L266.203 321.674
L266.922 321.674
L266.922 320.357
L270.375 320.357
L270.375 317.725
L274.237 317.725
L274.237 313.777
L275.463 313.777
L275.463 312.461
L282.8 312.461
L282.8 307.197
L284.864 307.197
L284.864 305.881
L285.368 305.881
L285.368 304.565
L289.693 304.565
L289.693 303.249
L292.825 303.249
L292.825 301.933
L295.78 301.933
L295.78 300.616
L297.792 300.616
L297.792 299.3
L301.598 299.3
L301.598 297.984
L305.145 297.984
L305.145 291.404
L305.826 291.404
L305.826 288.772
L307.162 288.772
L307.162 287.456
L308.143 287.456
L308.143 286.14
L315.384 286.14
L315.384 284.824
L316.499 284.824
L316.499 283.508
L318.923 283.508
L318.923 282.191
L321.741 282.191
L321.741 280.875
L321.99 280.875
L321.99 279.559
L322.973 279.559
L322.973 278.243
L323.699 278.243
L323.699 275.611
L328.513 275.611
L328.513 274.295
L329.596 274.295
L329.596 272.979
L330.447 272.979
L330.447 271.663
L332.718 271.663
L332.718 270.347
L335.854 270.347
L335.854 267.715
L336.421 267.715
L336.421 265.083
L338.269 265.083
L338.269 263.766
L338.631 263.766
L338.631 262.45
L342.287 262.45
L342.287 258.502
L343.942 258.502
L343.942 257.186
L345.703 257.186
L345.703 255.87
L347.711 255.87
L347.711 254.554
L348.013 254.554
L348.013 253.238
L348.463 253.238
L348.463 251.922
L349.935 251.922
L349.935 250.606
L351.648 250.606
L351.648 247.974
L352.76 247.974
L352.76 246.658
L352.898 246.658
L352.898 245.342
L353.849 245.342
L353.849 242.709
L355.178 242.709
L355.178 241.393
L356.73 241.393
L356.73 240.077
L357.111 240.077
L357.111 238.761
L357.865 238.761
L357.865 237.445
L361.94 237.445
L361.94 236.129
L362.514 236.129
L362.514 234.813
L362.855 234.813
L362.855 233.497
L366.886 233.497
L366.886 232.181
L367.2 232.181
L367.2 230.865
L367.408 230.865
L367.408 229.549
L368.13 229.549
L368.13 226.917
L369.144 226.917
L369.144 225.6
L369.743 225.6
L369.743 224.284
L373.662 224.284
L373.662 222.968
L373.845 222.968
L373.845 221.652
L374.484 221.652
L374.484 215.072
L374.755 215.072
L374.755 212.44
L375.114 212.44
L375.114 211.124
L376.528 211.124
L376.528 209.808
L378.578 209.808
L378.578 207.175
L379.244 207.175
L379.244 203.227
L379.41 203.227
L379.41 201.911
L379.902 201.911
L379.902 199.279
L380.228 199.279
L380.228 197.963
L381.113 197.963
L381.113 196.647
L381.273 196.647
L381.273 194.015
L381.669 194.015
L381.669 192.699
L382.53 192.699
L382.53 188.75
L383.071 188.75
L383.071 187.434
L385.548 187.434
L385.548 184.802
L386.059 184.802
L386.059 183.486
L386.994 183.486
L386.994 182.17
L390.642 182.17
L390.642 179.538
L391.039 179.538
L391.039 176.906
L391.76 176.906
L391.76 175.59
L392.406 175.59
L392.406 172.958
L392.534 172.958
L392.534 170.326
L394.299 170.326
L394.299 169.009
L395.403 169.009
L395.403 167.693
L395.645 167.693
L395.645 166.377
L395.946 166.377
L395.946 165.061
L396.662 165.061
L396.662 162.429
L398.751 162.429
L398.751 161.113
L400.76 161.113
L400.76 159.797
L401.142 159.797
L401.142 158.481
L401.467 158.481
L401.467 157.165
L402.852 157.165
L402.852 155.849
L403.167 155.849
L403.271 151.901
L424.939 151.901
L424.939 150.584
L430.299 150.584
L430.299 147.952
L434.331 147.952
L434.331 146.636
L435.749 146.636
L435.749 145.32
L437.211 145.32
L437.211 144.004
L437.644 144.004
L437.644 142.688
L438.368 142.688
L438.368 141.372
L439.107 141.372
L439.212 138.74
L439.421 138.74
L439.421 137.424
L447.719 137.424
L447.719 136.108
L454.309 136.108
L454.309 134.792
L454.894 134.792
L454.894 133.476
L455.949 133.476
L455.949 132.159
L459.098 132.159
L459.098 130.843
L459.914 130.843
L459.967 128.211
L460.561 128.211
L460.561 126.895
L472.138 126.895
L472.138 125.579
L475.034 125.579
L475.034 124.263
L475.401 124.263
L475.401 121.631
L475.532 121.631
L475.558 118.999
L479.87 118.999
L479.87 117.683
L486.834 117.683
L486.834 116.367
L491.987 116.367
L491.987 113.734
L493.827 113.734
L493.937 111.102
L499.607 111.102
L499.607 109.786
L511.675 109.786
L511.675 108.47
L517.595 108.47
L517.595 107.154
L523.256 107.154
L523.256 105.838
L523.324 105.838" style="fill:none;stroke:#000000;stroke-linecap:square;stroke-width:1.5;"/>
   </g>
   <g id="line2d_18">
    <defs>
     <path d="
M0 6
C1.59122 6 3.11748 5.3678 4.24264 4.24264
C5.3678 3.11748 6 1.59122 6 0
C6 -1.59122 5.3678 -3.11748 4.24264 -4.24264
C3.11748 -5.3678 1.59122 -6 0 -6
C-1.59122 -6 -3.11748 -5.3678 -4.24264 -4.24264
C-5.3678 -3.11748 -6 -1.59122 -6 0
C-6 1.59122 -5.3678 3.11748 -4.24264 4.24264
C-3.11748 5.3678 -1.59122 6 0 6
z
" id="ma42492ef9b" style="stroke:#000000;stroke-width:1.5;"/>
    </defs>
    <g>
     <use style="fill:none;stroke:#000000;stroke-width:1.5;" x="201.989914848" xlink:href="#ma42492ef9b" y="347.994969773"/>
     <use style="fill:none;stroke:#000000;stroke-width:1.5;" x="301.598200806" xlink:href="#ma42492ef9b" y="297.984307169"/>
     <use style="fill:none;stroke:#000000;stroke-width:1.5;" x="375.114357638" xlink:href="#ma42492ef9b" y="211.123682645"/>
     <use style="fill:none;stroke:#000000;stroke-width:1.5;" x="403.167018477" xlink:href="#ma42492ef9b" y="155.848739766"/>
     <use style="fill:none;stroke:#000000;stroke-width:1.5;" x="511.674851002" xlink:href="#ma42492ef9b" y="109.786287367"/>
     <use style="fill:none;stroke:#000000;stroke-width:1.5;" x="523.32359948" xlink:href="#ma42492ef9b" y="105.838077161"/>
    </g>
   </g>
   <g id="line2d_19"/>
   <g id="line2d_20">
    <path clip-path="url(#pebde201112)" d="
M403.324 151.901" style="fill:none;stroke:#000000;stroke-linecap:square;"/>
    <defs>
     <path d="
M-12 12
L12 -12
M-12 -12
L12 12" id="m47417b404f" style="stroke:#000000;stroke-width:3;"/>
    </defs>
    <g clip-path="url(#pebde201112)">
     <use style="stroke:#000000;stroke-width:3;" x="403.32359948" xlink:href="#m47417b404f" y="151.90052956"/>
    </g>
   </g>
   <g id="line2d_21">
    <defs>
     <path d="
M0 1.5
C0.397805 1.5 0.77937 1.34195 1.06066 1.06066
C1.34195 0.77937 1.5 0.397805 1.5 0
C1.5 -0.397805 1.34195 -0.77937 1.06066 -1.06066
C0.77937 -1.34195 0.397805 -1.5 0 -1.5
C-0.397805 -1.5 -0.77937 -1.34195 -1.06066 -1.06066
C-1.34195 -0.77937 -1.5 -0.397805 -1.5 0
C-1.5 0.397805 -1.34195 0.77937 -1.06066 1.06066
C-0.77937 1.34195 -0.397805 1.5 0 1.5
z
" id="ma07bdd5909" style="stroke:#ff0000;stroke-width:0.5;"/>
    </defs>
    <g>
     <use style="fill:#ff0000;stroke:#ff0000;stroke-width:0.5;" x="566.64136043" xlink:href="#ma07bdd5909" y="77.3422991552"/>
     <use style="fill:#ff0000;stroke:#ff0000;stroke-width:0.5;" x="566.64136043" xlink:href="#ma07bdd5909" y="77.3422991552"/>
    </g>
   </g>
   <g id="line2d_22">
    <path d="
M160.65 346.622
L168.291 346.622
L168.291 342.158
L205.586 342.158
L205.586 339.183
L224.75 339.183
L224.75 337.695
L230.799 337.695
L230.799 336.208
L233.579 336.208
L233.579 334.72
L235.571 334.72
L235.571 333.232
L237.489 333.232
L237.489 330.257
L238.73 330.257
L238.73 328.769
L242.285 328.769
L242.285 324.306
L242.855 324.306
L242.855 322.818
L255.826 322.818
L255.826 321.33
L261.273 321.33
L261.273 319.843
L264.362 319.843
L264.362 318.355
L265.106 318.355
L265.106 315.379
L265.84 315.379
L265.84 313.892
L274.854 313.892
L274.854 312.404
L282.271 312.404
L282.271 310.916
L283.584 310.916
L283.584 309.428
L287.334 309.428
L287.334 307.941
L288.997 307.941
L288.997 306.453
L292.17 306.453
L292.17 304.965
L293.9 304.965
L293.9 303.477
L297.595 303.477
L297.595 301.99
L299.92 301.99
L299.92 300.502
L303.931 300.502
L303.931 297.527
L307.327 297.527
L307.327 296.039
L307.981 296.039
L307.981 294.551
L308.786 294.551
L308.786 293.063
L310.67 293.063
L310.67 291.576
L311.131 291.576
L311.131 290.088
L315.243 290.088
L315.243 288.6
L315.945 288.6
L315.945 287.112
L317.048 287.112
L317.048 284.137
L317.455 284.137
L317.455 282.649
L317.59 282.649
L317.59 281.161
L317.725 281.161
L317.725 279.674
L318.923 279.674
L318.923 278.186
L329.166 278.186
L329.166 275.211
L333.02 275.211
L333.02 273.723
L337.261 273.723
L337.261 272.235
L338.721 272.235
L338.721 270.747
L339.525 270.747
L339.525 269.26
L339.879 269.26
L339.879 267.772
L341.44 267.772
L341.44 266.284
L342.955 266.284
L342.955 264.796
L343.121 264.796
L343.121 263.309
L343.286 263.309
L343.286 258.846
L344.669 258.846
L344.669 257.358
L344.91 257.358
L344.91 255.87
L345.624 255.87
L345.624 254.382
L345.939 254.382
L345.939 252.895
L346.948 252.895
L346.948 251.407
L348.163 251.407
L348.163 249.919
L348.388 249.919
L348.388 248.431
L348.983 248.431
L348.983 246.944
L351.648 246.944
L351.648 245.456
L352.346 245.456
L352.346 242.48
L352.898 242.48
L352.898 240.993
L354.651 240.993
L354.651 238.017
L355.571 238.017
L355.571 236.53
L357.927 236.53
L357.927 235.042
L358.299 235.042
L358.299 233.554
L359.461 233.554
L359.461 230.579
L361.767 230.579
L361.767 227.603
L362.684 227.603
L362.684 226.115
L364.362 226.115
L364.362 224.628
L365.235 224.628
L365.235 223.14
L365.987 223.14
L366.041 220.165
L366.465 220.165
L366.465 217.189
L366.676 217.189
L366.676 215.701
L367.2 215.701
L367.2 212.726
L369.144 212.726
L369.144 209.75
L372.167 209.75
L372.167 206.775
L373.153 206.775
L373.153 205.287
L373.662 205.287
L373.662 202.312
L374.574 202.312
L374.574 200.824
L374.935 200.824
L374.935 199.336
L376.046 199.336
L376.046 197.849
L376.441 197.849
L376.528 194.873
L379.41 194.873
L379.41 193.385
L379.984 193.385
L379.984 191.898
L380.672 191.898
L380.672 190.41
L380.793 190.41
L380.793 188.922
L382.219 188.922
L382.219 187.434
L383.948 187.434
L383.948 185.947
L384.212 185.947
L384.212 182.971
L385.18 182.971
L385.18 181.483
L386.167 181.483
L386.167 178.508
L387.029 178.508
L387.029 177.02
L389.397 177.02
L389.397 174.045
L390.342 174.045
L390.408 168.094
L391.269 168.094
L391.269 166.606
L391.531 166.606
L391.531 163.631
L392.277 163.631
L392.277 162.143
L392.918 162.143
L392.918 159.168
L393.644 159.168
L393.676 154.704
L394.113 154.704
L394.113 151.729
L394.454 151.729
L394.454 150.241
L394.854 150.241
L394.854 147.266
L395.796 147.266
L395.796 145.778
L396.305 145.778
L396.305 144.29
L398.552 144.29
L398.552 142.802
L398.921 142.802
L398.921 141.315
L399.737 141.315
L399.737 139.827
L400.787 139.827
L400.787 138.339
L401.223 138.339
L401.223 135.364
L401.924 135.364
L401.924 133.876
L402.271 133.876
L402.271 130.901
L422.616 130.901
L422.616 129.413
L431.237 129.413
L431.237 127.925
L433.051 127.925
L433.051 126.437
L434 126.437
L434 124.95
L434.504 124.95
L434.504 123.462
L437.293 123.462
L437.293 121.974
L438.408 121.974
L438.408 118.999
L438.554 118.999
L438.554 117.511
L439.408 117.511
L439.408 116.023
L447.785 116.023
L447.785 114.536
L454.358 114.536
L454.358 113.048
L456.336 113.048
L456.336 110.072
L457.685 110.072
L457.685 107.097
L459.152 107.097
L459.152 105.609
L468.298 105.609
L468.298 104.121
L475.31 104.121
L475.31 102.634
L475.551 102.634
L475.551 101.146
L485.278 101.146
L485.278 99.6583
L486.923 99.6583
L486.923 98.1705
L487.184 98.1705
L487.184 96.6828
L494.656 96.6828
L494.656 95.1951
L496.358 95.1951
L496.358 93.7073
L499.632 93.7073
L499.632 92.2196
L502.96 92.2196
L502.96 89.2442
L510.385 89.2442
L510.385 87.7564
L516.457 87.7564
L516.457 86.2687
L523.324 86.2687
L523.324 86.2687" style="fill:none;stroke:#ff0000;stroke-linecap:square;stroke-width:1.5;"/>
   </g>
   <g id="line2d_23">
    <defs>
     <path d="
M-6 6
L6 6
L6 -6
L-6 -6
z
" id="m9d489a7eec" style="stroke:#ff0000;stroke-linejoin:miter;stroke-width:1.5;"/>
    </defs>
    <g>
     <use style="fill:none;stroke:#ff0000;stroke-linejoin:miter;stroke-width:1.5;" x="168.290721699" xlink:href="#m9d489a7eec" y="346.621679267"/>
     <use style="fill:none;stroke:#ff0000;stroke-linejoin:miter;stroke-width:1.5;" x="265.840324496" xlink:href="#m9d489a7eec" y="313.891588867"/>
     <use style="fill:none;stroke:#ff0000;stroke-linejoin:miter;stroke-width:1.5;" x="348.387933372" xlink:href="#m9d489a7eec" y="249.919139448"/>
     <use style="fill:none;stroke:#ff0000;stroke-linejoin:miter;stroke-width:1.5;" x="386.167295272" xlink:href="#m9d489a7eec" y="178.50803312"/>
     <use style="fill:none;stroke:#ff0000;stroke-linejoin:miter;stroke-width:1.5;" x="437.292596448" xlink:href="#m9d489a7eec" y="121.97424061"/>
     <use style="fill:none;stroke:#ff0000;stroke-linejoin:miter;stroke-width:1.5;" x="516.456802769" xlink:href="#m9d489a7eec" y="86.2686874462"/>
     <use style="fill:none;stroke:#ff0000;stroke-linejoin:miter;stroke-width:1.5;" x="523.32359948" xlink:href="#m9d489a7eec" y="86.2686874462"/>
    </g>
   </g>
   <g id="line2d_24"/>
   <g id="line2d_25">
    <path clip-path="url(#pebde201112)" d="
M403.324 130.901" style="fill:none;stroke:#ff0000;stroke-linecap:square;"/>
    <defs>
     <path d="
M-12 12
L12 -12
M-12 -12
L12 12" id="m4e2b024d89" style="stroke:#ff0000;stroke-width:3;"/>
    </defs>
    <g clip-path="url(#pebde201112)">
     <use style="fill:#ff0000;stroke:#ff0000;stroke-width:3;" x="403.32359948" xlink:href="#m4e2b024d89" y="130.900628901"/>
    </g>
   </g>
   <g id="line2d_26">
    <path d="
M523.324 105.838
L562.924 351.68" style="fill:none;stroke:#000000;stroke-linecap:square;stroke-width:1.5;"/>
    <g>
     <use style="fill:none;stroke:#000000;stroke-width:1.5;" x="523.32359948" xlink:href="#ma42492ef9b" y="105.838077161"/>
     <use style="fill:none;stroke:#000000;stroke-width:1.5;" x="562.92359948" xlink:href="#ma42492ef9b" y="351.679965965"/>
    </g>
   </g>
   <g id="line2d_27">
    <path d="
M523.324 86.2687
L562.924 269.557" style="fill:none;stroke:#ff0000;stroke-linecap:square;stroke-width:1.5;"/>
    <g>
     <use style="fill:none;stroke:#ff0000;stroke-linejoin:miter;stroke-width:1.5;" x="523.32359948" xlink:href="#m9d489a7eec" y="86.2686874462"/>
     <use style="fill:none;stroke:#ff0000;stroke-linejoin:miter;stroke-width:1.5;" x="562.92359948" xlink:href="#m9d489a7eec" y="269.557193688"/>
    </g>
   </g>
   <g id="line2d_28">
    <path d="
M523.324 85.8848
L562.924 187.434" style="fill:none;stroke:#0000ff;stroke-linecap:square;stroke-width:1.5;"/>
    <g>
     <use style="fill:none;stroke:#0000ff;stroke-linejoin:bevel;stroke-width:1.5;" x="523.32359948" xlink:href="#m0933169453" y="85.884756767"/>
     <use style="fill:none;stroke:#0000ff;stroke-linejoin:bevel;stroke-width:1.5;" x="562.92359948" xlink:href="#m0933169453" y="187.434421411"/>
    </g>
   </g>
   <g id="line2d_29">
    <path d="
M523.324 62.2473
L562.924 105.312" style="fill:none;stroke:#008000;stroke-linecap:square;stroke-width:1.5;"/>
    <g>
     <use style="fill:none;stroke:#008000;stroke-linejoin:miter;stroke-width:1.5;" x="523.32359948" xlink:href="#m397e16cd68" y="62.2472685493"/>
     <use style="fill:none;stroke:#008000;stroke-linejoin:miter;stroke-width:1.5;" x="562.92359948" xlink:href="#m397e16cd68" y="105.311649134"/>
    </g>
   </g>
   <g id="line2d_30">
    <path d="
M523.324 29.7349
L562.924 23.1889" style="fill:none;stroke:#00bfbf;stroke-linecap:square;stroke-width:1.5;"/>
    <g>
     <use style="fill:none;stroke:#00bfbf;stroke-width:1.5;" x="523.32359948" xlink:href="#m3e4de746de" y="29.7348949365"/>
     <use style="fill:none;stroke:#00bfbf;stroke-width:1.5;" x="562.92359948" xlink:href="#m3e4de746de" y="23.1888768564"/>
    </g>
   </g>
   <g id="line2d_31">
    <path d="
M523.324 358.524
L523.324 16.3453" style="fill:none;stroke:#000000;stroke-linecap:square;"/>
   </g>
   <g id="matplotlib.axis_1">
    <g id="xtick_1">
     <g id="line2d_32">
      <path clip-path="url(#pebde201112)" d="
M163.324 358.524
L163.324 12.9235" style="fill:none;stroke:#000000;stroke-dasharray:1.000000,3.000000;stroke-dashoffset:0.0;stroke-width:0.5;"/>
     </g>
     <g id="line2d_33">
      <defs>
       <path d="
M0 0
L0 -4" id="m93b0483c22" style="stroke:#000000;stroke-width:0.5;"/>
      </defs>
      <g>
       <use style="stroke:#000000;stroke-width:0.5;" x="163.32359948" xlink:href="#m93b0483c22" y="358.523530322"/>
      </g>
     </g>
     <g id="line2d_34">
      <defs>
       <path d="
M0 0
L0 4" id="m741efc42ff" style="stroke:#000000;stroke-width:0.5;"/>
      </defs>
      <g>
       <use style="stroke:#000000;stroke-width:0.5;" x="163.32359948" xlink:href="#m741efc42ff" y="12.9235303218"/>
      </g>
     </g>
     <g id="text_1">
      <!-- 0 -->
      <defs>
       <path d="
M4.15625 35.2969
Q4.15625 48 6.76562 55.7344
Q9.375 63.4844 14.5156 67.6719
Q19.6719 71.875 27.4844 71.875
Q33.25 71.875 37.5938 69.5469
Q41.9375 67.2344 44.7656 62.8594
Q47.6094 58.5 49.2188 52.2188
Q50.8281 45.9531 50.8281 35.2969
Q50.8281 22.7031 48.2344 14.9688
Q45.6562 7.23438 40.5 3
Q35.3594 -1.21875 27.4844 -1.21875
Q17.1406 -1.21875 11.2344 6.20312
Q4.15625 15.1406 4.15625 35.2969
M13.1875 35.2969
Q13.1875 17.6719 17.3125 11.8281
Q21.4375 6 27.4844 6
Q33.5469 6 37.6719 11.8594
Q41.7969 17.7188 41.7969 35.2969
Q41.7969 52.9844 37.6719 58.7812
Q33.5469 64.5938 27.3906 64.5938
Q21.3438 64.5938 17.7188 59.4688
Q13.1875 52.9375 13.1875 35.2969" id="ArialMT-30"/>
      </defs>
      <g transform="translate(158.65641198 376.839155322)scale(0.2 -0.2)">
       <use xlink:href="#ArialMT-30"/>
      </g>
     </g>
    </g>
    <g id="xtick_2">
     <g id="line2d_35">
      <path clip-path="url(#pebde201112)" d="
M283.324 358.524
L283.324 12.9235" style="fill:none;stroke:#000000;stroke-dasharray:1.000000,3.000000;stroke-dashoffset:0.0;stroke-width:0.5;"/>
     </g>
     <g id="line2d_36">
      <g>
       <use style="stroke:#000000;stroke-width:0.5;" x="283.32359948" xlink:href="#m93b0483c22" y="358.523530322"/>
      </g>
     </g>
     <g id="line2d_37">
      <g>
       <use style="stroke:#000000;stroke-width:0.5;" x="283.32359948" xlink:href="#m741efc42ff" y="12.9235303218"/>
      </g>
     </g>
     <g id="text_2">
      <!-- 1 -->
      <defs>
       <path d="
M37.25 0
L28.4688 0
L28.4688 56
Q25.2969 52.9844 20.1406 49.9531
Q14.9844 46.9219 10.8906 45.4062
L10.8906 53.9062
Q18.2656 57.375 23.7812 62.2969
Q29.2969 67.2344 31.5938 71.875
L37.25 71.875
z
" id="ArialMT-31"/>
      </defs>
      <g transform="translate(280.68766198 376.839155322)scale(0.2 -0.2)">
       <use xlink:href="#ArialMT-31"/>
      </g>
     </g>
    </g>
    <g id="xtick_3">
     <g id="line2d_38">
      <path clip-path="url(#pebde201112)" d="
M403.324 358.524
L403.324 12.9235" style="fill:none;stroke:#000000;stroke-dasharray:1.000000,3.000000;stroke-dashoffset:0.0;stroke-width:0.5;"/>
     </g>
     <g id="line2d_39">
      <g>
       <use style="stroke:#000000;stroke-width:0.5;" x="403.32359948" xlink:href="#m93b0483c22" y="358.523530322"/>
      </g>
     </g>
     <g id="line2d_40">
      <g>
       <use style="stroke:#000000;stroke-width:0.5;" x="403.32359948" xlink:href="#m741efc42ff" y="12.9235303218"/>
      </g>
     </g>
     <g id="text_3">
      <!-- 2 -->
      <defs>
       <path d="
M50.3438 8.45312
L50.3438 0
L3.03125 0
Q2.9375 3.17188 4.04688 6.10938
Q5.85938 10.9375 9.82812 15.625
Q13.8125 20.3125 21.3438 26.4688
Q33.0156 36.0312 37.1094 41.625
Q41.2188 47.2188 41.2188 52.2031
Q41.2188 57.4219 37.4688 61
Q33.7344 64.5938 27.7344 64.5938
Q21.3906 64.5938 17.5781 60.7812
Q13.7656 56.9844 13.7188 50.25
L4.6875 51.1719
Q5.60938 61.2812 11.6562 66.5781
Q17.7188 71.875 27.9375 71.875
Q38.2344 71.875 44.2344 66.1562
Q50.25 60.4531 50.25 52
Q50.25 47.7031 48.4844 43.5469
Q46.7344 39.4062 42.6562 34.8125
Q38.5781 30.2188 29.1094 22.2188
Q21.1875 15.5781 18.9375 13.2031
Q16.7031 10.8438 15.2344 8.45312
z
" id="ArialMT-32"/>
      </defs>
      <g transform="translate(398.58297448 376.839155322)scale(0.2 -0.2)">
       <use xlink:href="#ArialMT-32"/>
      </g>
     </g>
    </g>
    <g id="xtick_4">
     <g id="line2d_41">
      <path clip-path="url(#pebde201112)" d="
M523.324 358.524
L523.324 12.9235" style="fill:none;stroke:#000000;stroke-dasharray:1.000000,3.000000;stroke-dashoffset:0.0;stroke-width:0.5;"/>
     </g>
     <g id="line2d_42">
      <g>
       <use style="stroke:#000000;stroke-width:0.5;" x="523.32359948" xlink:href="#m93b0483c22" y="358.523530322"/>
      </g>
     </g>
     <g id="line2d_43">
      <g>
       <use style="stroke:#000000;stroke-width:0.5;" x="523.32359948" xlink:href="#m741efc42ff" y="12.9235303218"/>
      </g>
     </g>
     <g id="text_4">
      <!-- 3 -->
      <defs>
       <path d="
M4.20312 18.8906
L12.9844 20.0625
Q14.5 12.5938 18.1406 9.29688
Q21.7812 6 27 6
Q33.2031 6 37.4688 10.2969
Q41.75 14.5938 41.75 20.9531
Q41.75 27 37.7969 30.9219
Q33.8438 34.8594 27.7344 34.8594
Q25.25 34.8594 21.5312 33.8906
L22.5156 41.6094
Q23.3906 41.5 23.9219 41.5
Q29.5469 41.5 34.0312 44.4219
Q38.5312 47.3594 38.5312 53.4688
Q38.5312 58.2969 35.25 61.4688
Q31.9844 64.6562 26.8125 64.6562
Q21.6875 64.6562 18.2656 61.4219
Q14.8438 58.2031 13.875 51.7656
L5.07812 53.3281
Q6.6875 62.1562 12.3906 67.0156
Q18.1094 71.875 26.6094 71.875
Q32.4688 71.875 37.3906 69.3594
Q42.3281 66.8438 44.9375 62.5
Q47.5625 58.1562 47.5625 53.2656
Q47.5625 48.6406 45.0625 44.8281
Q42.5781 41.0156 37.7031 38.7656
Q44.0469 37.3125 47.5625 32.6875
Q51.0781 28.0781 51.0781 21.1406
Q51.0781 11.7656 44.2344 5.25
Q37.4062 -1.26562 26.9531 -1.26562
Q17.5312 -1.26562 11.2969 4.34375
Q5.07812 9.96875 4.20312 18.8906" id="ArialMT-33"/>
      </defs>
      <g transform="translate(518.63609948 376.839155322)scale(0.2 -0.2)">
       <use xlink:href="#ArialMT-33"/>
      </g>
     </g>
    </g>
    <g id="xtick_5">
     <g id="line2d_44">
      <defs>
       <path d="
M0 0
L0 -2" id="m177f7580d0" style="stroke:#000000;stroke-width:0.5;"/>
      </defs>
      <g>
       <use style="stroke:#000000;stroke-width:0.5;" x="199.447198959" xlink:href="#m177f7580d0" y="358.523530322"/>
      </g>
     </g>
     <g id="line2d_45">
      <defs>
       <path d="
M0 0
L0 2" id="m5284c7e2a0" style="stroke:#000000;stroke-width:0.5;"/>
      </defs>
      <g>
       <use style="stroke:#000000;stroke-width:0.5;" x="199.447198959" xlink:href="#m5284c7e2a0" y="12.9235303218"/>
      </g>
     </g>
    </g>
    <g id="xtick_6">
     <g id="line2d_46">
      <g>
       <use style="stroke:#000000;stroke-width:0.5;" x="220.578150046" xlink:href="#m177f7580d0" y="358.523530322"/>
      </g>
     </g>
     <g id="line2d_47">
      <g>
       <use style="stroke:#000000;stroke-width:0.5;" x="220.578150046" xlink:href="#m5284c7e2a0" y="12.9235303218"/>
      </g>
     </g>
    </g>
    <g id="xtick_7">
     <g id="line2d_48">
      <g>
       <use style="stroke:#000000;stroke-width:0.5;" x="235.570798439" xlink:href="#m177f7580d0" y="358.523530322"/>
      </g>
     </g>
     <g id="line2d_49">
      <g>
       <use style="stroke:#000000;stroke-width:0.5;" x="235.570798439" xlink:href="#m5284c7e2a0" y="12.9235303218"/>
      </g>
     </g>
    </g>
    <g id="xtick_8">
     <g id="line2d_50">
      <g>
       <use style="stroke:#000000;stroke-width:0.5;" x="247.2" xlink:href="#m177f7580d0" y="358.523530322"/>
      </g>
     </g>
     <g id="line2d_51">
      <g>
       <use style="stroke:#000000;stroke-width:0.5;" x="247.2" xlink:href="#m5284c7e2a0" y="12.9235303218"/>
      </g>
     </g>
    </g>
    <g id="xtick_9">
     <g id="line2d_52">
      <g>
       <use style="stroke:#000000;stroke-width:0.5;" x="256.701749526" xlink:href="#m177f7580d0" y="358.523530322"/>
      </g>
     </g>
     <g id="line2d_53">
      <g>
       <use style="stroke:#000000;stroke-width:0.5;" x="256.701749526" xlink:href="#m5284c7e2a0" y="12.9235303218"/>
      </g>
     </g>
    </g>
    <g id="xtick_10">
     <g id="line2d_54">
      <g>
       <use style="stroke:#000000;stroke-width:0.5;" x="264.735364281" xlink:href="#m177f7580d0" y="358.523530322"/>
      </g>
     </g>
     <g id="line2d_55">
      <g>
       <use style="stroke:#000000;stroke-width:0.5;" x="264.735364281" xlink:href="#m5284c7e2a0" y="12.9235303218"/>
      </g>
     </g>
    </g>
    <g id="xtick_11">
     <g id="line2d_56">
      <g>
       <use style="stroke:#000000;stroke-width:0.5;" x="271.694397919" xlink:href="#m177f7580d0" y="358.523530322"/>
      </g>
     </g>
     <g id="line2d_57">
      <g>
       <use style="stroke:#000000;stroke-width:0.5;" x="271.694397919" xlink:href="#m5284c7e2a0" y="12.9235303218"/>
      </g>
     </g>
    </g>
    <g id="xtick_12">
     <g id="line2d_58">
      <g>
       <use style="stroke:#000000;stroke-width:0.5;" x="277.832700612" xlink:href="#m177f7580d0" y="358.523530322"/>
      </g>
     </g>
     <g id="line2d_59">
      <g>
       <use style="stroke:#000000;stroke-width:0.5;" x="277.832700612" xlink:href="#m5284c7e2a0" y="12.9235303218"/>
      </g>
     </g>
    </g>
    <g id="xtick_13">
     <g id="line2d_60">
      <g>
       <use style="stroke:#000000;stroke-width:0.5;" x="319.447198959" xlink:href="#m177f7580d0" y="358.523530322"/>
      </g>
     </g>
     <g id="line2d_61">
      <g>
       <use style="stroke:#000000;stroke-width:0.5;" x="319.447198959" xlink:href="#m5284c7e2a0" y="12.9235303218"/>
      </g>
     </g>
    </g>
    <g id="xtick_14">
     <g id="line2d_62">
      <g>
       <use style="stroke:#000000;stroke-width:0.5;" x="340.578150046" xlink:href="#m177f7580d0" y="358.523530322"/>
      </g>
     </g>
     <g id="line2d_63">
      <g>
       <use style="stroke:#000000;stroke-width:0.5;" x="340.578150046" xlink:href="#m5284c7e2a0" y="12.9235303218"/>
      </g>
     </g>
    </g>
    <g id="xtick_15">
     <g id="line2d_64">
      <g>
       <use style="stroke:#000000;stroke-width:0.5;" x="355.570798439" xlink:href="#m177f7580d0" y="358.523530322"/>
      </g>
     </g>
     <g id="line2d_65">
      <g>
       <use style="stroke:#000000;stroke-width:0.5;" x="355.570798439" xlink:href="#m5284c7e2a0" y="12.9235303218"/>
      </g>
     </g>
    </g>
    <g id="xtick_16">
     <g id="line2d_66">
      <g>
       <use style="stroke:#000000;stroke-width:0.5;" x="367.2" xlink:href="#m177f7580d0" y="358.523530322"/>
      </g>
     </g>
     <g id="line2d_67">
      <g>
       <use style="stroke:#000000;stroke-width:0.5;" x="367.2" xlink:href="#m5284c7e2a0" y="12.9235303218"/>
      </g>
     </g>
    </g>
    <g id="xtick_17">
     <g id="line2d_68">
      <g>
       <use style="stroke:#000000;stroke-width:0.5;" x="376.701749526" xlink:href="#m177f7580d0" y="358.523530322"/>
      </g>
     </g>
     <g id="line2d_69">
      <g>
       <use style="stroke:#000000;stroke-width:0.5;" x="376.701749526" xlink:href="#m5284c7e2a0" y="12.9235303218"/>
      </g>
     </g>
    </g>
    <g id="xtick_18">
     <g id="line2d_70">
      <g>
       <use style="stroke:#000000;stroke-width:0.5;" x="384.735364281" xlink:href="#m177f7580d0" y="358.523530322"/>
      </g>
     </g>
     <g id="line2d_71">
      <g>
       <use style="stroke:#000000;stroke-width:0.5;" x="384.735364281" xlink:href="#m5284c7e2a0" y="12.9235303218"/>
      </g>
     </g>
    </g>
    <g id="xtick_19">
     <g id="line2d_72">
      <g>
       <use style="stroke:#000000;stroke-width:0.5;" x="391.694397919" xlink:href="#m177f7580d0" y="358.523530322"/>
      </g>
     </g>
     <g id="line2d_73">
      <g>
       <use style="stroke:#000000;stroke-width:0.5;" x="391.694397919" xlink:href="#m5284c7e2a0" y="12.9235303218"/>
      </g>
     </g>
    </g>
    <g id="xtick_20">
     <g id="line2d_74">
      <g>
       <use style="stroke:#000000;stroke-width:0.5;" x="397.832700612" xlink:href="#m177f7580d0" y="358.523530322"/>
      </g>
     </g>
     <g id="line2d_75">
      <g>
       <use style="stroke:#000000;stroke-width:0.5;" x="397.832700612" xlink:href="#m5284c7e2a0" y="12.9235303218"/>
      </g>
     </g>
    </g>
    <g id="xtick_21">
     <g id="line2d_76">
      <g>
       <use style="stroke:#000000;stroke-width:0.5;" x="439.447198959" xlink:href="#m177f7580d0" y="358.523530322"/>
      </g>
     </g>
     <g id="line2d_77">
      <g>
       <use style="stroke:#000000;stroke-width:0.5;" x="439.447198959" xlink:href="#m5284c7e2a0" y="12.9235303218"/>
      </g>
     </g>
    </g>
    <g id="xtick_22">
     <g id="line2d_78">
      <g>
       <use style="stroke:#000000;stroke-width:0.5;" x="460.578150046" xlink:href="#m177f7580d0" y="358.523530322"/>
      </g>
     </g>
     <g id="line2d_79">
      <g>
       <use style="stroke:#000000;stroke-width:0.5;" x="460.578150046" xlink:href="#m5284c7e2a0" y="12.9235303218"/>
      </g>
     </g>
    </g>
    <g id="xtick_23">
     <g id="line2d_80">
      <g>
       <use style="stroke:#000000;stroke-width:0.5;" x="475.570798439" xlink:href="#m177f7580d0" y="358.523530322"/>
      </g>
     </g>
     <g id="line2d_81">
      <g>
       <use style="stroke:#000000;stroke-width:0.5;" x="475.570798439" xlink:href="#m5284c7e2a0" y="12.9235303218"/>
      </g>
     </g>
    </g>
    <g id="xtick_24">
     <g id="line2d_82">
      <g>
       <use style="stroke:#000000;stroke-width:0.5;" x="487.2" xlink:href="#m177f7580d0" y="358.523530322"/>
      </g>
     </g>
     <g id="line2d_83">
      <g>
       <use style="stroke:#000000;stroke-width:0.5;" x="487.2" xlink:href="#m5284c7e2a0" y="12.9235303218"/>
      </g>
     </g>
    </g>
    <g id="xtick_25">
     <g id="line2d_84">
      <g>
       <use style="stroke:#000000;stroke-width:0.5;" x="496.701749526" xlink:href="#m177f7580d0" y="358.523530322"/>
      </g>
     </g>
     <g id="line2d_85">
      <g>
       <use style="stroke:#000000;stroke-width:0.5;" x="496.701749526" xlink:href="#m5284c7e2a0" y="12.9235303218"/>
      </g>
     </g>
    </g>
    <g id="xtick_26">
     <g id="line2d_86">
      <g>
       <use style="stroke:#000000;stroke-width:0.5;" x="504.735364281" xlink:href="#m177f7580d0" y="358.523530322"/>
      </g>
     </g>
     <g id="line2d_87">
      <g>
       <use style="stroke:#000000;stroke-width:0.5;" x="504.735364281" xlink:href="#m5284c7e2a0" y="12.9235303218"/>
      </g>
     </g>
    </g>
    <g id="xtick_27">
     <g id="line2d_88">
      <g>
       <use style="stroke:#000000;stroke-width:0.5;" x="511.694397919" xlink:href="#m177f7580d0" y="358.523530322"/>
      </g>
     </g>
     <g id="line2d_89">
      <g>
       <use style="stroke:#000000;stroke-width:0.5;" x="511.694397919" xlink:href="#m5284c7e2a0" y="12.9235303218"/>
      </g>
     </g>
    </g>
    <g id="xtick_28">
     <g id="line2d_90">
      <g>
       <use style="stroke:#000000;stroke-width:0.5;" x="517.832700612" xlink:href="#m177f7580d0" y="358.523530322"/>
      </g>
     </g>
     <g id="line2d_91">
      <g>
       <use style="stroke:#000000;stroke-width:0.5;" x="517.832700612" xlink:href="#m5284c7e2a0" y="12.9235303218"/>
      </g>
     </g>
    </g>
    <g id="xtick_29">
     <g id="line2d_92">
      <g>
       <use style="stroke:#000000;stroke-width:0.5;" x="559.447198959" xlink:href="#m177f7580d0" y="358.523530322"/>
      </g>
     </g>
     <g id="line2d_93">
      <g>
       <use style="stroke:#000000;stroke-width:0.5;" x="559.447198959" xlink:href="#m5284c7e2a0" y="12.9235303218"/>
      </g>
     </g>
    </g>
    <g id="xtick_30">
     <g id="line2d_94">
      <g>
       <use style="stroke:#000000;stroke-width:0.5;" x="580.578150046" xlink:href="#m177f7580d0" y="358.523530322"/>
      </g>
     </g>
     <g id="line2d_95">
      <g>
       <use style="stroke:#000000;stroke-width:0.5;" x="580.578150046" xlink:href="#m5284c7e2a0" y="12.9235303218"/>
      </g>
     </g>
    </g>
    <g id="xtick_31">
     <g id="line2d_96">
      <g>
       <use style="stroke:#000000;stroke-width:0.5;" x="595.570798439" xlink:href="#m177f7580d0" y="358.523530322"/>
      </g>
     </g>
     <g id="line2d_97">
      <g>
       <use style="stroke:#000000;stroke-width:0.5;" x="595.570798439" xlink:href="#m5284c7e2a0" y="12.9235303218"/>
      </g>
     </g>
    </g>
    <g id="xtick_32">
     <g id="line2d_98">
      <g>
       <use style="stroke:#000000;stroke-width:0.5;" x="607.2" xlink:href="#m177f7580d0" y="358.523530322"/>
      </g>
     </g>
     <g id="line2d_99">
      <g>
       <use style="stroke:#000000;stroke-width:0.5;" x="607.2" xlink:href="#m5284c7e2a0" y="12.9235303218"/>
      </g>
     </g>
    </g>
    <g id="text_5">
     <!-- log10 of (# f-evals / dimension) -->
     <defs>
      <path d="
M12.3594 -21.0469
L6.0625 -21.0469
Q20.6562 2.39062 20.6562 25.875
Q20.6562 35.0625 18.5625 44.0938
Q16.8906 51.4219 13.9219 58.1562
Q12.0156 62.5469 6.0625 72.7969
L12.3594 72.7969
Q21.5312 60.5469 25.9219 48.1875
Q29.6875 37.5469 29.6875 25.9219
Q29.6875 12.75 24.625 0.4375
Q19.5781 -11.8594 12.3594 -21.0469" id="ArialMT-29"/>
      <path d="
M40.4375 6.39062
Q35.5469 2.25 31.0312 0.53125
Q26.5156 -1.17188 21.3438 -1.17188
Q12.7969 -1.17188 8.20312 3
Q3.60938 7.17188 3.60938 13.6719
Q3.60938 17.4844 5.34375 20.625
Q7.07812 23.7812 9.89062 25.6875
Q12.7031 27.5938 16.2188 28.5625
Q18.7969 29.25 24.0312 29.8906
Q34.6719 31.1562 39.7031 32.9062
Q39.75 34.7188 39.75 35.2031
Q39.75 40.5781 37.25 42.7812
Q33.8906 45.75 27.25 45.75
Q21.0469 45.75 18.0938 43.5781
Q15.1406 41.4062 13.7188 35.8906
L5.125 37.0625
Q6.29688 42.5781 8.98438 45.9688
Q11.6719 49.3594 16.75 51.1875
Q21.8281 53.0312 28.5156 53.0312
Q35.1562 53.0312 39.2969 51.4688
Q43.4531 49.9062 45.4062 47.5312
Q47.3594 45.1719 48.1406 41.5469
Q48.5781 39.3125 48.5781 33.4531
L48.5781 21.7344
Q48.5781 9.46875 49.1406 6.21875
Q49.7031 2.98438 51.375 0
L42.1875 0
Q40.8281 2.73438 40.4375 6.39062
M39.7031 26.0312
Q34.9062 24.0781 25.3438 22.7031
Q19.9219 21.9219 17.6719 20.9375
Q15.4375 19.9688 14.2031 18.0938
Q12.9844 16.2188 12.9844 13.9219
Q12.9844 10.4062 15.6406 8.0625
Q18.3125 5.71875 23.4375 5.71875
Q28.5156 5.71875 32.4688 7.9375
Q36.4219 10.1562 38.2812 14.0156
Q39.7031 17 39.7031 22.7969
z
" id="ArialMT-61"/>
      <path d="
M4.98438 -4.29688
L13.5312 -5.5625
Q14.0625 -9.51562 16.5 -11.3281
Q19.7812 -13.7656 25.4375 -13.7656
Q31.5469 -13.7656 34.8594 -11.3281
Q38.1875 -8.89062 39.3594 -4.5
Q40.0469 -1.8125 39.9844 6.78125
Q34.2344 0 25.6406 0
Q14.9375 0 9.07812 7.71875
Q3.21875 15.4375 3.21875 26.2188
Q3.21875 33.6406 5.90625 39.9062
Q8.59375 46.1875 13.6875 49.6094
Q18.7969 53.0312 25.6875 53.0312
Q34.8594 53.0312 40.8281 45.6094
L40.8281 51.8594
L48.9219 51.8594
L48.9219 7.03125
Q48.9219 -5.07812 46.4531 -10.125
Q44 -15.1875 38.6406 -18.1094
Q33.2969 -21.0469 25.4844 -21.0469
Q16.2188 -21.0469 10.5 -16.875
Q4.78125 -12.7031 4.98438 -4.29688
M12.25 26.8594
Q12.25 16.6562 16.2969 11.9688
Q20.3594 7.28125 26.4688 7.28125
Q32.5156 7.28125 36.6094 11.9375
Q40.7188 16.6094 40.7188 26.5625
Q40.7188 36.0781 36.5 40.9062
Q32.2812 45.75 26.3125 45.75
Q20.4531 45.75 16.3438 40.9844
Q12.25 36.2344 12.25 26.8594" id="ArialMT-67"/>
      <path d="
M8.6875 0
L8.6875 45.0156
L0.921875 45.0156
L0.921875 51.8594
L8.6875 51.8594
L8.6875 57.375
Q8.6875 62.5938 9.625 65.1406
Q10.8906 68.5625 14.0781 70.6719
Q17.2812 72.7969 23.0469 72.7969
Q26.7656 72.7969 31.25 71.9219
L29.9375 64.2656
Q27.2031 64.75 24.75 64.75
Q20.75 64.75 19.0938 63.0312
Q17.4375 61.3281 17.4375 56.6406
L17.4375 51.8594
L27.5469 51.8594
L27.5469 45.0156
L17.4375 45.0156
L17.4375 0
z
" id="ArialMT-66"/>
      <path d="
M42.0938 16.7031
L51.1719 15.5781
Q49.0312 7.625 43.2188 3.21875
Q37.4062 -1.17188 28.375 -1.17188
Q17 -1.17188 10.3281 5.82812
Q3.65625 12.8438 3.65625 25.4844
Q3.65625 38.5781 10.3906 45.7969
Q17.1406 53.0312 27.875 53.0312
Q38.2812 53.0312 44.875 45.9531
Q51.4688 38.875 51.4688 26.0312
Q51.4688 25.25 51.4219 23.6875
L12.75 23.6875
Q13.2344 15.1406 17.5781 10.5938
Q21.9219 6.0625 28.4219 6.0625
Q33.25 6.0625 36.6719 8.59375
Q40.0938 11.1406 42.0938 16.7031
M13.2344 30.9062
L42.1875 30.9062
Q41.6094 37.4531 38.875 40.7188
Q34.6719 45.7969 27.9844 45.7969
Q21.9219 45.7969 17.7969 41.75
Q13.6719 37.7031 13.2344 30.9062" id="ArialMT-65"/>
      <path d="
M40.2344 0
L40.2344 6.54688
Q35.2969 -1.17188 25.7344 -1.17188
Q19.5312 -1.17188 14.3281 2.25
Q9.125 5.67188 6.26562 11.7969
Q3.42188 17.9219 3.42188 25.875
Q3.42188 33.6406 6 39.9688
Q8.59375 46.2969 13.7656 49.6562
Q18.9531 53.0312 25.3438 53.0312
Q30.0312 53.0312 33.6875 51.0469
Q37.3594 49.0781 39.6562 45.9062
L39.6562 71.5781
L48.3906 71.5781
L48.3906 0
z

M12.4531 25.875
Q12.4531 15.9219 16.6406 10.9844
Q20.8438 6.0625 26.5625 6.0625
Q32.3281 6.0625 36.3438 10.7656
Q40.375 15.4844 40.375 25.1406
Q40.375 35.7969 36.2656 40.7656
Q32.1719 45.75 26.1719 45.75
Q20.3125 45.75 16.375 40.9688
Q12.4531 36.1875 12.4531 25.875" id="ArialMT-64"/>
      <path d="
M0 -1.21875
L20.75 72.7969
L27.7812 72.7969
L7.07812 -1.21875
z
" id="ArialMT-2f"/>
      <path d="
M21 0
L1.26562 51.8594
L10.5469 51.8594
L21.6875 20.7969
Q23.4844 15.7656 25 10.3594
Q26.1719 14.4531 28.2656 20.2188
L39.7969 51.8594
L48.8281 51.8594
L29.2031 0
z
" id="ArialMT-76"/>
      <path d="
M3.17188 21.4844
L3.17188 30.3281
L30.1719 30.3281
L30.1719 21.4844
z
" id="ArialMT-2d"/>
      <path d="
M6.59375 0
L6.59375 51.8594
L14.4531 51.8594
L14.4531 44.5781
Q16.8906 48.3906 20.9375 50.7031
Q25 53.0312 30.1719 53.0312
Q35.9375 53.0312 39.625 50.6406
Q43.3125 48.25 44.8281 43.9531
Q50.9844 53.0312 60.8438 53.0312
Q68.5625 53.0312 72.7031 48.75
Q76.8594 44.4844 76.8594 35.5938
L76.8594 0
L68.1094 0
L68.1094 32.6719
Q68.1094 37.9375 67.25 40.25
Q66.4062 42.5781 64.1562 43.9844
Q61.9219 45.4062 58.8906 45.4062
Q53.4219 45.4062 49.7969 41.7656
Q46.1875 38.1406 46.1875 30.125
L46.1875 0
L37.4062 0
L37.4062 33.6875
Q37.4062 39.5469 35.25 42.4688
Q33.1094 45.4062 28.2188 45.4062
Q24.5156 45.4062 21.3594 43.4531
Q18.2188 41.5 16.7969 37.7344
Q15.375 33.9844 15.375 26.9062
L15.375 0
z
" id="ArialMT-6d"/>
      <path d="
M3.07812 15.4844
L11.7656 16.8438
Q12.5 11.625 15.8438 8.84375
Q19.1875 6.0625 25.2031 6.0625
Q31.25 6.0625 34.1719 8.51562
Q37.1094 10.9844 37.1094 14.3125
Q37.1094 17.2812 34.5156 19
Q32.7188 20.1719 25.5312 21.9688
Q15.875 24.4219 12.1406 26.2031
Q8.40625 27.9844 6.46875 31.125
Q4.54688 34.2812 4.54688 38.0938
Q4.54688 41.5469 6.125 44.5
Q7.71875 47.4688 10.4531 49.4219
Q12.5 50.9219 16.0312 51.9688
Q19.5781 53.0312 23.6406 53.0312
Q29.7344 53.0312 34.3438 51.2656
Q38.9688 49.5156 41.1562 46.5
Q43.3594 43.5 44.1875 38.4844
L35.5938 37.3125
Q35.0156 41.3125 32.2031 43.5469
Q29.3906 45.7969 24.2656 45.7969
Q18.2188 45.7969 15.625 43.7969
Q13.0312 41.7969 13.0312 39.1094
Q13.0312 37.4062 14.1094 36.0312
Q15.1875 34.625 17.4844 33.6875
Q18.7969 33.2031 25.25 31.4531
Q34.5781 28.9531 38.25 27.3594
Q41.9375 25.7812 44.0312 22.75
Q46.1406 19.7344 46.1406 15.2344
Q46.1406 10.8438 43.5781 6.95312
Q41.0156 3.07812 36.1719 0.953125
Q31.3438 -1.17188 25.25 -1.17188
Q15.1406 -1.17188 9.84375 3.03125
Q4.54688 7.23438 3.07812 15.4844" id="ArialMT-73"/>
      <path d="
M6.39062 0
L6.39062 71.5781
L15.1875 71.5781
L15.1875 0
z
" id="ArialMT-6c"/>
      <path d="
M3.32812 25.9219
Q3.32812 40.3281 11.3281 47.2656
Q18.0156 53.0312 27.6406 53.0312
Q38.3281 53.0312 45.1094 46.0156
Q51.9062 39.0156 51.9062 26.6562
Q51.9062 16.6562 48.9062 10.9062
Q45.9062 5.17188 40.1562 2
Q34.4219 -1.17188 27.6406 -1.17188
Q16.75 -1.17188 10.0312 5.8125
Q3.32812 12.7969 3.32812 25.9219
M12.3594 25.9219
Q12.3594 15.9688 16.7031 11.0156
Q21.0469 6.0625 27.6406 6.0625
Q34.1875 6.0625 38.5312 11.0312
Q42.875 16.0156 42.875 26.2188
Q42.875 35.8438 38.5 40.7969
Q34.125 45.75 27.6406 45.75
Q21.0469 45.75 16.7031 40.8125
Q12.3594 35.8906 12.3594 25.9219" id="ArialMT-6f"/>
      <path d="
M6.59375 0
L6.59375 51.8594
L14.5 51.8594
L14.5 44.4844
Q20.2188 53.0312 31 53.0312
Q35.6875 53.0312 39.625 51.3438
Q43.5625 49.6562 45.5156 46.9219
Q47.4688 44.1875 48.25 40.4375
Q48.7344 37.9844 48.7344 31.8906
L48.7344 0
L39.9375 0
L39.9375 31.5469
Q39.9375 36.9219 38.9062 39.5781
Q37.8906 42.2344 35.2812 43.8125
Q32.6719 45.4062 29.1562 45.4062
Q23.5312 45.4062 19.4531 41.8438
Q15.375 38.2812 15.375 28.3281
L15.375 0
z
" id="ArialMT-6e"/>
      <path d="
M23.3906 -21.0469
Q16.1094 -11.8594 11.0781 0.4375
Q6.0625 12.75 6.0625 25.9219
Q6.0625 37.5469 9.8125 48.1875
Q14.2031 60.5469 23.3906 72.7969
L29.6875 72.7969
Q23.7812 62.6406 21.875 58.2969
Q18.8906 51.5625 17.1875 44.2344
Q15.0938 35.1094 15.0938 25.875
Q15.0938 2.39062 29.6875 -21.0469
z
" id="ArialMT-28"/>
      <path d="
M5.03125 -1.21875
L9.28125 19.5781
L1.03125 19.5781
L1.03125 26.8594
L10.75 26.8594
L14.3594 44.5781
L1.03125 44.5781
L1.03125 51.8594
L15.8281 51.8594
L20.0625 72.7969
L27.3906 72.7969
L23.1406 51.8594
L38.5312 51.8594
L42.7812 72.7969
L50.1406 72.7969
L45.9062 51.8594
L54.3438 51.8594
L54.3438 44.5781
L44.4375 44.5781
L40.7656 26.8594
L54.3438 26.8594
L54.3438 19.5781
L39.3125 19.5781
L35.0625 -1.21875
L27.7344 -1.21875
L31.9375 19.5781
L16.6094 19.5781
L12.3594 -1.21875
z

M18.0625 26.8594
L33.4062 26.8594
L37.0625 44.5781
L21.6875 44.5781
z
" id="ArialMT-23"/>
      <path d="
M6.64062 61.4688
L6.64062 71.5781
L15.4375 71.5781
L15.4375 61.4688
z

M6.64062 0
L6.64062 51.8594
L15.4375 51.8594
L15.4375 0
z
" id="ArialMT-69"/>
      <path id="ArialMT-20"/>
     </defs>
     <g transform="translate(263.79734948 398.917592822)scale(0.18 -0.18)">
      <use xlink:href="#ArialMT-6c"/>
      <use x="22.216796875" xlink:href="#ArialMT-6f"/>
      <use x="77.83203125" xlink:href="#ArialMT-67"/>
      <use x="133.447265625" xlink:href="#ArialMT-31"/>
      <use x="189.0625" xlink:href="#ArialMT-30"/>
      <use x="244.677734375" xlink:href="#ArialMT-20"/>
      <use x="272.4609375" xlink:href="#ArialMT-6f"/>
      <use x="328.076171875" xlink:href="#ArialMT-66"/>
      <use x="355.859375" xlink:href="#ArialMT-20"/>
      <use x="383.642578125" xlink:href="#ArialMT-28"/>
      <use x="416.943359375" xlink:href="#ArialMT-23"/>
      <use x="472.55859375" xlink:href="#ArialMT-20"/>
      <use x="500.341796875" xlink:href="#ArialMT-66"/>
      <use x="528.125" xlink:href="#ArialMT-2d"/>
      <use x="561.42578125" xlink:href="#ArialMT-65"/>
      <use x="617.041015625" xlink:href="#ArialMT-76"/>
      <use x="667.041015625" xlink:href="#ArialMT-61"/>
      <use x="722.65625" xlink:href="#ArialMT-6c"/>
      <use x="744.873046875" xlink:href="#ArialMT-73"/>
      <use x="794.873046875" xlink:href="#ArialMT-20"/>
      <use x="822.65625" xlink:href="#ArialMT-2f"/>
      <use x="850.439453125" xlink:href="#ArialMT-20"/>
      <use x="878.22265625" xlink:href="#ArialMT-64"/>
      <use x="933.837890625" xlink:href="#ArialMT-69"/>
      <use x="956.0546875" xlink:href="#ArialMT-6d"/>
      <use x="1039.35546875" xlink:href="#ArialMT-65"/>
      <use x="1094.97070312" xlink:href="#ArialMT-6e"/>
      <use x="1150.5859375" xlink:href="#ArialMT-73"/>
      <use x="1200.5859375" xlink:href="#ArialMT-69"/>
      <use x="1222.80273438" xlink:href="#ArialMT-6f"/>
      <use x="1278.41796875" xlink:href="#ArialMT-6e"/>
      <use x="1334.03320312" xlink:href="#ArialMT-29"/>
     </g>
    </g>
   </g>
   <g id="matplotlib.axis_2">
    <g id="ytick_1">
     <g id="line2d_100">
      <path clip-path="url(#pebde201112)" d="
M163.324 358.524
L609.724 358.524" style="fill:none;stroke:#000000;stroke-dasharray:1.000000,3.000000;stroke-dashoffset:0.0;stroke-width:0.5;"/>
     </g>
     <g id="line2d_101">
      <defs>
       <path d="
M0 0
L4 0" id="m728421d6d4" style="stroke:#000000;stroke-width:0.5;"/>
      </defs>
      <g>
       <use style="stroke:#000000;stroke-width:0.5;" x="163.32359948" xlink:href="#m728421d6d4" y="358.523530322"/>
      </g>
     </g>
     <g id="line2d_102">
      <defs>
       <path d="
M0 0
L-4 0" id="mcb0005524f" style="stroke:#000000;stroke-width:0.5;"/>
      </defs>
      <g>
       <use style="stroke:#000000;stroke-width:0.5;" x="609.72359948" xlink:href="#mcb0005524f" y="358.523530322"/>
      </g>
     </g>
     <g id="text_6">
      <!-- 0.0 -->
      <defs>
       <path d="
M9.07812 0
L9.07812 10.0156
L19.0938 10.0156
L19.0938 0
z
" id="ArialMT-2e"/>
      </defs>
      <g transform="translate(133.31109948 363.693842822)scale(0.2 -0.2)">
       <use xlink:href="#ArialMT-30"/>
       <use x="55.615234375" xlink:href="#ArialMT-2e"/>
       <use x="83.3984375" xlink:href="#ArialMT-30"/>
      </g>
     </g>
    </g>
    <g id="ytick_2">
     <g id="line2d_103">
      <path clip-path="url(#pebde201112)" d="
M163.324 290.088
L609.724 290.088" style="fill:none;stroke:#000000;stroke-dasharray:1.000000,3.000000;stroke-dashoffset:0.0;stroke-width:0.5;"/>
     </g>
     <g id="line2d_104">
      <g>
       <use style="stroke:#000000;stroke-width:0.5;" x="163.32359948" xlink:href="#m728421d6d4" y="290.087886757"/>
      </g>
     </g>
     <g id="line2d_105">
      <g>
       <use style="stroke:#000000;stroke-width:0.5;" x="609.72359948" xlink:href="#mcb0005524f" y="290.087886757"/>
      </g>
     </g>
     <g id="text_7">
      <!-- 0.2 -->
      <g transform="translate(133.40797448 295.258199257)scale(0.2 -0.2)">
       <use xlink:href="#ArialMT-30"/>
       <use x="55.615234375" xlink:href="#ArialMT-2e"/>
       <use x="83.3984375" xlink:href="#ArialMT-32"/>
      </g>
     </g>
    </g>
    <g id="ytick_3">
     <g id="line2d_106">
      <path clip-path="url(#pebde201112)" d="
M163.324 221.652
L609.724 221.652" style="fill:none;stroke:#000000;stroke-dasharray:1.000000,3.000000;stroke-dashoffset:0.0;stroke-width:0.5;"/>
     </g>
     <g id="line2d_107">
      <g>
       <use style="stroke:#000000;stroke-width:0.5;" x="163.32359948" xlink:href="#m728421d6d4" y="221.652243193"/>
      </g>
     </g>
     <g id="line2d_108">
      <g>
       <use style="stroke:#000000;stroke-width:0.5;" x="609.72359948" xlink:href="#mcb0005524f" y="221.652243193"/>
      </g>
     </g>
     <g id="text_8">
      <!-- 0.4 -->
      <defs>
       <path d="
M32.3281 0
L32.3281 17.1406
L1.26562 17.1406
L1.26562 25.2031
L33.9375 71.5781
L41.1094 71.5781
L41.1094 25.2031
L50.7812 25.2031
L50.7812 17.1406
L41.1094 17.1406
L41.1094 0
z

M32.3281 25.2031
L32.3281 57.4688
L9.90625 25.2031
z
" id="ArialMT-34"/>
      </defs>
      <g transform="translate(133.32047448 226.822555693)scale(0.2 -0.2)">
       <use xlink:href="#ArialMT-30"/>
       <use x="55.615234375" xlink:href="#ArialMT-2e"/>
       <use x="83.3984375" xlink:href="#ArialMT-34"/>
      </g>
     </g>
    </g>
    <g id="ytick_4">
     <g id="line2d_109">
      <path clip-path="url(#pebde201112)" d="
M163.324 153.217
L609.724 153.217" style="fill:none;stroke:#000000;stroke-dasharray:1.000000,3.000000;stroke-dashoffset:0.0;stroke-width:0.5;"/>
     </g>
     <g id="line2d_110">
      <g>
       <use style="stroke:#000000;stroke-width:0.5;" x="163.32359948" xlink:href="#m728421d6d4" y="153.216599629"/>
      </g>
     </g>
     <g id="line2d_111">
      <g>
       <use style="stroke:#000000;stroke-width:0.5;" x="609.72359948" xlink:href="#mcb0005524f" y="153.216599629"/>
      </g>
     </g>
     <g id="text_9">
      <!-- 0.6 -->
      <defs>
       <path d="
M49.75 54.0469
L41.0156 53.375
Q39.8438 58.5469 37.7031 60.8906
Q34.125 64.6562 28.9062 64.6562
Q24.7031 64.6562 21.5312 62.3125
Q17.3906 59.2812 14.9844 53.4688
Q12.5938 47.6562 12.5 36.9219
Q15.6719 41.75 20.2656 44.0938
Q24.8594 46.4375 29.8906 46.4375
Q38.6719 46.4375 44.8438 39.9688
Q51.0312 33.5 51.0312 23.25
Q51.0312 16.5 48.125 10.7188
Q45.2188 4.9375 40.1406 1.85938
Q35.0625 -1.21875 28.6094 -1.21875
Q17.625 -1.21875 10.6875 6.85938
Q3.76562 14.9375 3.76562 33.5
Q3.76562 54.25 11.4219 63.6719
Q18.1094 71.875 29.4375 71.875
Q37.8906 71.875 43.2812 67.1406
Q48.6875 62.4062 49.75 54.0469
M13.875 23.1875
Q13.875 18.6562 15.7969 14.5
Q17.7188 10.3594 21.1875 8.17188
Q24.6562 6 28.4688 6
Q34.0312 6 38.0312 10.4844
Q42.0469 14.9844 42.0469 22.7031
Q42.0469 30.125 38.0781 34.3906
Q34.125 38.6719 28.125 38.6719
Q22.1719 38.6719 18.0156 34.3906
Q13.875 30.125 13.875 23.1875" id="ArialMT-36"/>
      </defs>
      <g transform="translate(133.27047448 158.386912129)scale(0.2 -0.2)">
       <use xlink:href="#ArialMT-30"/>
       <use x="55.615234375" xlink:href="#ArialMT-2e"/>
       <use x="83.3984375" xlink:href="#ArialMT-36"/>
      </g>
     </g>
    </g>
    <g id="ytick_5">
     <g id="line2d_112">
      <path clip-path="url(#pebde201112)" d="
M163.324 84.781
L609.724 84.781" style="fill:none;stroke:#000000;stroke-dasharray:1.000000,3.000000;stroke-dashoffset:0.0;stroke-width:0.5;"/>
     </g>
     <g id="line2d_113">
      <g>
       <use style="stroke:#000000;stroke-width:0.5;" x="163.32359948" xlink:href="#m728421d6d4" y="84.7809560644"/>
      </g>
     </g>
     <g id="line2d_114">
      <g>
       <use style="stroke:#000000;stroke-width:0.5;" x="609.72359948" xlink:href="#mcb0005524f" y="84.7809560644"/>
      </g>
     </g>
     <g id="text_10">
      <!-- 0.8 -->
      <defs>
       <path d="
M17.6719 38.8125
Q12.2031 40.8281 9.5625 44.5312
Q6.9375 48.25 6.9375 53.4219
Q6.9375 61.2344 12.5469 66.5469
Q18.1719 71.875 27.4844 71.875
Q36.8594 71.875 42.5781 66.4219
Q48.2969 60.9844 48.2969 53.1719
Q48.2969 48.1875 45.6719 44.5
Q43.0625 40.8281 37.75 38.8125
Q44.3438 36.6719 47.7812 31.875
Q51.2188 27.0938 51.2188 20.4531
Q51.2188 11.2812 44.7188 5.03125
Q38.2344 -1.21875 27.6406 -1.21875
Q17.0469 -1.21875 10.5469 5.04688
Q4.04688 11.3281 4.04688 20.7031
Q4.04688 27.6875 7.59375 32.3906
Q11.1406 37.1094 17.6719 38.8125
M15.9219 53.7188
Q15.9219 48.6406 19.1875 45.4062
Q22.4688 42.1875 27.6875 42.1875
Q32.7656 42.1875 36.0156 45.375
Q39.2656 48.5781 39.2656 53.2188
Q39.2656 58.0625 35.9062 61.3594
Q32.5625 64.6562 27.5938 64.6562
Q22.5625 64.6562 19.2344 61.4219
Q15.9219 58.2031 15.9219 53.7188
M13.0938 20.6562
Q13.0938 16.8906 14.875 13.375
Q16.6562 9.85938 20.1719 7.92188
Q23.6875 6 27.7344 6
Q34.0312 6 38.125 10.0469
Q42.2344 14.1094 42.2344 20.3594
Q42.2344 26.7031 38.0156 30.8594
Q33.7969 35.0156 27.4375 35.0156
Q21.2344 35.0156 17.1562 30.9062
Q13.0938 26.8125 13.0938 20.6562" id="ArialMT-38"/>
      </defs>
      <g transform="translate(133.23297448 89.9512685644)scale(0.2 -0.2)">
       <use xlink:href="#ArialMT-30"/>
       <use x="55.615234375" xlink:href="#ArialMT-2e"/>
       <use x="83.3984375" xlink:href="#ArialMT-38"/>
      </g>
     </g>
    </g>
    <g id="ytick_6">
     <g id="line2d_115">
      <path clip-path="url(#pebde201112)" d="
M163.324 16.3453
L609.724 16.3453" style="fill:none;stroke:#000000;stroke-dasharray:1.000000,3.000000;stroke-dashoffset:0.0;stroke-width:0.5;"/>
     </g>
     <g id="line2d_116">
      <g>
       <use style="stroke:#000000;stroke-width:0.5;" x="163.32359948" xlink:href="#m728421d6d4" y="16.3453125"/>
      </g>
     </g>
     <g id="line2d_117">
      <g>
       <use style="stroke:#000000;stroke-width:0.5;" x="609.72359948" xlink:href="#mcb0005524f" y="16.3453125"/>
      </g>
     </g>
     <g id="text_11">
      <!-- 1.0 -->
      <g transform="translate(134.65797448 21.515625)scale(0.2 -0.2)">
       <use xlink:href="#ArialMT-31"/>
       <use x="55.615234375" xlink:href="#ArialMT-2e"/>
       <use x="83.3984375" xlink:href="#ArialMT-30"/>
      </g>
     </g>
    </g>
    <g id="text_12">
     <!-- Proportion of function+target pairs -->
     <defs>
      <path d="
M40.4375 19
L49.0781 17.875
Q47.6562 8.9375 41.8125 3.875
Q35.9844 -1.17188 27.4844 -1.17188
Q16.8438 -1.17188 10.375 5.78125
Q3.90625 12.75 3.90625 25.7344
Q3.90625 34.125 6.6875 40.4219
Q9.46875 46.7344 15.1562 49.875
Q20.8438 53.0312 27.5469 53.0312
Q35.9844 53.0312 41.3594 48.75
Q46.7344 44.4844 48.25 36.625
L39.7031 35.2969
Q38.4844 40.5312 35.375 43.1562
Q32.2812 45.7969 27.875 45.7969
Q21.2344 45.7969 17.0781 41.0312
Q12.9375 36.2812 12.9375 25.9844
Q12.9375 15.5312 16.9375 10.7969
Q20.9531 6.0625 27.3906 6.0625
Q32.5625 6.0625 36.0312 9.23438
Q39.5 12.4062 40.4375 19" id="ArialMT-63"/>
      <path d="
M25.7812 7.85938
L27.0469 0.09375
Q23.3438 -0.6875 20.4062 -0.6875
Q15.625 -0.6875 12.9844 0.828125
Q10.3594 2.34375 9.28125 4.8125
Q8.20312 7.28125 8.20312 15.1875
L8.20312 45.0156
L1.76562 45.0156
L1.76562 51.8594
L8.20312 51.8594
L8.20312 64.7031
L16.9375 69.9688
L16.9375 51.8594
L25.7812 51.8594
L25.7812 45.0156
L16.9375 45.0156
L16.9375 14.7031
Q16.9375 10.9375 17.4062 9.85938
Q17.875 8.79688 18.9219 8.15625
Q19.9688 7.51562 21.9219 7.51562
Q23.3906 7.51562 25.7812 7.85938" id="ArialMT-74"/>
      <path d="
M40.5781 0
L40.5781 7.625
Q34.5156 -1.17188 24.125 -1.17188
Q19.5312 -1.17188 15.5469 0.578125
Q11.5781 2.34375 9.64062 5
Q7.71875 7.67188 6.9375 11.5312
Q6.39062 14.1094 6.39062 19.7344
L6.39062 51.8594
L15.1875 51.8594
L15.1875 23.0938
Q15.1875 16.2188 15.7188 13.8125
Q16.5469 10.3594 19.2344 8.375
Q21.9219 6.39062 25.875 6.39062
Q29.8281 6.39062 33.2969 8.42188
Q36.7656 10.4531 38.2031 13.9375
Q39.6562 17.4375 39.6562 24.0781
L39.6562 51.8594
L48.4375 51.8594
L48.4375 0
z
" id="ArialMT-75"/>
      <path d="
M7.71875 0
L7.71875 71.5781
L34.7188 71.5781
Q41.8438 71.5781 45.6094 70.9062
Q50.875 70.0156 54.4375 67.5469
Q58.0156 65.0938 60.1875 60.6406
Q62.3594 56.2031 62.3594 50.875
Q62.3594 41.75 56.5469 35.4219
Q50.7344 29.1094 35.5469 29.1094
L17.1875 29.1094
L17.1875 0
z

M17.1875 37.5469
L35.6875 37.5469
Q44.875 37.5469 48.7344 40.9688
Q52.5938 44.3906 52.5938 50.5938
Q52.5938 55.0781 50.3125 58.2656
Q48.0469 61.4688 44.3438 62.5
Q41.9375 63.1406 35.5 63.1406
L17.1875 63.1406
z
" id="ArialMT-50"/>
      <path d="
M6.59375 -19.875
L6.59375 51.8594
L14.5938 51.8594
L14.5938 45.125
Q17.4375 49.0781 21 51.0469
Q24.5625 53.0312 29.6406 53.0312
Q36.2812 53.0312 41.3594 49.6094
Q46.4375 46.1875 49.0156 39.9531
Q51.6094 33.7344 51.6094 26.3125
Q51.6094 18.3594 48.75 11.9844
Q45.9062 5.60938 40.4531 2.21875
Q35.0156 -1.17188 29 -1.17188
Q24.6094 -1.17188 21.1094 0.6875
Q17.625 2.54688 15.375 5.375
L15.375 -19.875
z

M14.5469 25.6406
Q14.5469 15.625 18.5938 10.8438
Q22.6562 6.0625 28.4219 6.0625
Q34.2812 6.0625 38.4531 11.0156
Q42.625 15.9688 42.625 26.375
Q42.625 36.2812 38.5469 41.2031
Q34.4688 46.1406 28.8125 46.1406
Q23.1875 46.1406 18.8594 40.8906
Q14.5469 35.6406 14.5469 25.6406" id="ArialMT-70"/>
      <path d="
M25.0469 11.5781
L25.0469 31.2031
L5.5625 31.2031
L5.5625 39.4062
L25.0469 39.4062
L25.0469 58.8906
L33.3438 58.8906
L33.3438 39.4062
L52.8281 39.4062
L52.8281 31.2031
L33.3438 31.2031
L33.3438 11.5781
z
" id="ArialMT-2b"/>
      <path d="
M6.5 0
L6.5 51.8594
L14.4062 51.8594
L14.4062 44
Q17.4375 49.5156 20 51.2656
Q22.5625 53.0312 25.6406 53.0312
Q30.0781 53.0312 34.6719 50.2031
L31.6406 42.0469
Q28.4219 43.9531 25.2031 43.9531
Q22.3125 43.9531 20.0156 42.2188
Q17.7188 40.4844 16.75 37.4062
Q15.2812 32.7188 15.2812 27.1562
L15.2812 0
z
" id="ArialMT-72"/>
     </defs>
     <g transform="translate(124.44453698 321.197436572)rotate(-90.0)scale(0.18 -0.18)">
      <use xlink:href="#ArialMT-50"/>
      <use x="66.69921875" xlink:href="#ArialMT-72"/>
      <use x="100.0" xlink:href="#ArialMT-6f"/>
      <use x="155.615234375" xlink:href="#ArialMT-70"/>
      <use x="211.23046875" xlink:href="#ArialMT-6f"/>
      <use x="266.845703125" xlink:href="#ArialMT-72"/>
      <use x="300.146484375" xlink:href="#ArialMT-74"/>
      <use x="327.9296875" xlink:href="#ArialMT-69"/>
      <use x="350.146484375" xlink:href="#ArialMT-6f"/>
      <use x="405.76171875" xlink:href="#ArialMT-6e"/>
      <use x="461.376953125" xlink:href="#ArialMT-20"/>
      <use x="489.16015625" xlink:href="#ArialMT-6f"/>
      <use x="544.775390625" xlink:href="#ArialMT-66"/>
      <use x="572.55859375" xlink:href="#ArialMT-20"/>
      <use x="600.341796875" xlink:href="#ArialMT-66"/>
      <use x="628.125" xlink:href="#ArialMT-75"/>
      <use x="683.740234375" xlink:href="#ArialMT-6e"/>
      <use x="739.35546875" xlink:href="#ArialMT-63"/>
      <use x="789.35546875" xlink:href="#ArialMT-74"/>
      <use x="817.138671875" xlink:href="#ArialMT-69"/>
      <use x="839.35546875" xlink:href="#ArialMT-6f"/>
      <use x="894.970703125" xlink:href="#ArialMT-6e"/>
      <use x="950.5859375" xlink:href="#ArialMT-2b"/>
      <use x="1008.984375" xlink:href="#ArialMT-74"/>
      <use x="1036.76757812" xlink:href="#ArialMT-61"/>
      <use x="1092.3828125" xlink:href="#ArialMT-72"/>
      <use x="1125.68359375" xlink:href="#ArialMT-67"/>
      <use x="1181.29882812" xlink:href="#ArialMT-65"/>
      <use x="1236.9140625" xlink:href="#ArialMT-74"/>
      <use x="1264.69726562" xlink:href="#ArialMT-20"/>
      <use x="1292.48046875" xlink:href="#ArialMT-70"/>
      <use x="1348.09570312" xlink:href="#ArialMT-61"/>
      <use x="1403.7109375" xlink:href="#ArialMT-69"/>
      <use x="1425.92773438" xlink:href="#ArialMT-72"/>
      <use x="1459.22851562" xlink:href="#ArialMT-73"/>
     </g>
    </g>
   </g>
   <g id="patch_3">
    <path d="
M163.324 12.9235
L609.724 12.9235" style="fill:none;stroke:#000000;"/>
   </g>
   <g id="patch_4">
    <path d="
M609.724 358.524
L609.724 12.9235" style="fill:none;stroke:#000000;"/>
   </g>
   <g id="patch_5">
    <path d="
M163.324 358.524
L609.724 358.524" style="fill:none;stroke:#000000;"/>
   </g>
   <g id="patch_6">
    <path d="
M163.324 358.524
L163.324 12.9235" style="fill:none;stroke:#000000;"/>
   </g>
   <g id="text_13">
    <!-- 10-D -->
    <defs>
     <path d="
M7.71875 0
L7.71875 71.5781
L32.375 71.5781
Q40.7188 71.5781 45.125 70.5625
Q51.2656 69.1406 55.6094 65.4375
Q61.2812 60.6406 64.0781 53.1875
Q66.8906 45.75 66.8906 36.1875
Q66.8906 28.0312 64.9844 21.7344
Q63.0938 15.4375 60.1094 11.2969
Q57.125 7.17188 53.5781 4.79688
Q50.0469 2.4375 45.0469 1.21875
Q40.0469 0 33.5469 0
z

M17.1875 8.45312
L32.4688 8.45312
Q39.5469 8.45312 43.5781 9.76562
Q47.6094 11.0781 50 13.4844
Q53.375 16.8438 55.25 22.5312
Q57.125 28.2188 57.125 36.3281
Q57.125 47.5625 53.4375 53.5938
Q49.75 59.625 44.4844 61.6719
Q40.6719 63.1406 32.2344 63.1406
L17.1875 63.1406
z
" id="ArialMT-44"/>
    </defs>
    <g transform="translate(570.12359948 355.55770034)scale(0.15 -0.15)">
     <use xlink:href="#ArialMT-31"/>
     <use x="55.615234375" xlink:href="#ArialMT-30"/>
     <use x="111.23046875" xlink:href="#ArialMT-2d"/>
     <use x="144.53125" xlink:href="#ArialMT-44"/>
    </g>
   </g>
   <g id="text_14">
    <!-- 20-D -->
    <g transform="translate(570.12359948 273.434928063)scale(0.15 -0.15)">
     <use xlink:href="#ArialMT-32"/>
     <use x="55.615234375" xlink:href="#ArialMT-30"/>
     <use x="111.23046875" xlink:href="#ArialMT-2d"/>
     <use x="144.53125" xlink:href="#ArialMT-44"/>
    </g>
   </g>
   <g id="text_15">
    <!-- 5-D -->
    <defs>
     <path d="
M4.15625 18.75
L13.375 19.5312
Q14.4062 12.7969 18.1406 9.39062
Q21.875 6 27.1562 6
Q33.5 6 37.8906 10.7812
Q42.2812 15.5781 42.2812 23.4844
Q42.2812 31 38.0625 35.3438
Q33.8438 39.7031 27 39.7031
Q22.75 39.7031 19.3281 37.7656
Q15.9219 35.8438 13.9688 32.7656
L5.71875 33.8438
L12.6406 70.6094
L48.25 70.6094
L48.25 62.2031
L19.6719 62.2031
L15.8281 42.9688
Q22.2656 47.4688 29.3438 47.4688
Q38.7188 47.4688 45.1562 40.9688
Q51.6094 34.4688 51.6094 24.2656
Q51.6094 14.5469 45.9531 7.46875
Q39.0625 -1.21875 27.1562 -1.21875
Q17.3906 -1.21875 11.2031 4.25
Q5.03125 9.71875 4.15625 18.75" id="ArialMT-35"/>
    </defs>
    <g transform="translate(570.12359948 191.312155786)scale(0.15 -0.15)">
     <use xlink:href="#ArialMT-35"/>
     <use x="55.615234375" xlink:href="#ArialMT-2d"/>
     <use x="88.916015625" xlink:href="#ArialMT-44"/>
    </g>
   </g>
   <g id="text_16">
    <!-- 3-D -->
    <g transform="translate(570.12359948 109.189383509)scale(0.15 -0.15)">
     <use xlink:href="#ArialMT-33"/>
     <use x="55.615234375" xlink:href="#ArialMT-2d"/>
     <use x="88.916015625" xlink:href="#ArialMT-44"/>
    </g>
   </g>
   <g id="text_17">
    <!-- 2-D -->
    <g transform="translate(570.12359948 27.0666112314)scale(0.15 -0.15)">
     <use xlink:href="#ArialMT-32"/>
     <use x="55.615234375" xlink:href="#ArialMT-2d"/>
     <use x="88.916015625" xlink:href="#ArialMT-44"/>
    </g>
   </g>
   <g id="text_18">
    <!-- bbob - f15-f19 -->
    <defs>
     <path d="
M14.7031 0
L6.54688 0
L6.54688 71.5781
L15.3281 71.5781
L15.3281 46.0469
Q20.9062 53.0312 29.5469 53.0312
Q34.3281 53.0312 38.5938 51.0938
Q42.875 49.1719 45.625 45.6719
Q48.3906 42.1875 49.9531 37.25
Q51.5156 32.3281 51.5156 26.7031
Q51.5156 13.375 44.9219 6.09375
Q38.3281 -1.17188 29.1094 -1.17188
Q19.9219 -1.17188 14.7031 6.5
z

M14.5938 26.3125
Q14.5938 17 17.1406 12.8438
Q21.2969 6.0625 28.375 6.0625
Q34.125 6.0625 38.3281 11.0625
Q42.5312 16.0625 42.5312 25.9844
Q42.5312 36.1406 38.5 40.9688
Q34.4688 45.7969 28.7656 45.7969
Q23 45.7969 18.7969 40.7969
Q14.5938 35.7969 14.5938 26.3125" id="ArialMT-62"/>
     <path d="
M5.46875 16.5469
L13.9219 17.3281
Q14.9844 11.375 18.0156 8.6875
Q21.0469 6 25.7812 6
Q29.8281 6 32.875 7.85938
Q35.9375 9.71875 37.8906 12.8125
Q39.8438 15.9219 41.1562 21.1875
Q42.4844 26.4688 42.4844 31.9375
Q42.4844 32.5156 42.4375 33.6875
Q39.7969 29.5 35.2344 26.875
Q30.6719 24.2656 25.3438 24.2656
Q16.4531 24.2656 10.2969 30.7031
Q4.15625 37.1562 4.15625 47.7031
Q4.15625 58.5938 10.5781 65.2344
Q17 71.875 26.6562 71.875
Q33.6406 71.875 39.4219 68.1094
Q45.2188 64.3594 48.2188 57.3906
Q51.2188 50.4375 51.2188 37.25
Q51.2188 23.5312 48.2344 15.4062
Q45.2656 7.28125 39.375 3.03125
Q33.5 -1.21875 25.5938 -1.21875
Q17.1875 -1.21875 11.8594 3.4375
Q6.54688 8.10938 5.46875 16.5469
M41.4531 48.1406
Q41.4531 55.7188 37.4219 60.1562
Q33.4062 64.5938 27.7344 64.5938
Q21.875 64.5938 17.5312 59.8125
Q13.1875 55.0312 13.1875 47.4062
Q13.1875 40.5781 17.3125 36.2969
Q21.4375 32.0312 27.4844 32.0312
Q33.5938 32.0312 37.5156 36.2969
Q41.4531 40.5781 41.4531 48.1406" id="ArialMT-39"/>
    </defs>
    <g transform="translate(167.78759948 31.7604459468)scale(0.1666 -0.1666)">
     <use xlink:href="#ArialMT-62"/>
     <use x="55.615234375" xlink:href="#ArialMT-62"/>
     <use x="111.23046875" xlink:href="#ArialMT-6f"/>
     <use x="166.845703125" xlink:href="#ArialMT-62"/>
     <use x="222.4609375" xlink:href="#ArialMT-20"/>
     <use x="250.244140625" xlink:href="#ArialMT-2d"/>
     <use x="283.544921875" xlink:href="#ArialMT-20"/>
     <use x="311.328125" xlink:href="#ArialMT-66"/>
     <use x="339.111328125" xlink:href="#ArialMT-31"/>
     <use x="394.7265625" xlink:href="#ArialMT-35"/>
     <use x="450.341796875" xlink:href="#ArialMT-2d"/>
     <use x="483.642578125" xlink:href="#ArialMT-66"/>
     <use x="511.42578125" xlink:href="#ArialMT-31"/>
     <use x="567.041015625" xlink:href="#ArialMT-39"/>
    </g>
    <!-- 31 target RLs/dim: 0.5..50 -->
    <defs>
     <path d="
M7.85938 0
L7.85938 71.5781
L39.5938 71.5781
Q49.1719 71.5781 54.1406 69.6406
Q59.125 67.7188 62.1094 62.8281
Q65.0938 57.9531 65.0938 52.0469
Q65.0938 44.4375 60.1562 39.2031
Q55.2188 33.9844 44.9219 32.5625
Q48.6875 30.7656 50.6406 29
Q54.7812 25.2031 58.5 19.4844
L70.9531 0
L59.0312 0
L49.5625 14.8906
Q45.4062 21.3438 42.7188 24.75
Q40.0469 28.1719 37.9219 29.5312
Q35.7969 30.9062 33.5938 31.4531
Q31.9844 31.7812 28.3281 31.7812
L17.3281 31.7812
L17.3281 0
z

M17.3281 39.9844
L37.7031 39.9844
Q44.1875 39.9844 47.8438 41.3281
Q51.5156 42.6719 53.4219 45.625
Q55.3281 48.5781 55.3281 52.0469
Q55.3281 57.125 51.6406 60.3906
Q47.9531 63.6719 39.9844 63.6719
L17.3281 63.6719
z
" id="ArialMT-52"/>
     <path d="
M9.03125 41.8438
L9.03125 51.8594
L19.0469 51.8594
L19.0469 41.8438
z

M9.03125 0
L9.03125 10.0156
L19.0469 10.0156
L19.0469 0
z
" id="ArialMT-3a"/>
     <path d="
M7.32812 0
L7.32812 71.5781
L16.7969 71.5781
L16.7969 8.45312
L52.0469 8.45312
L52.0469 0
z
" id="ArialMT-4c"/>
    </defs>
    <g transform="translate(167.78759948 49.6251721968)scale(0.1666 -0.1666)">
     <use xlink:href="#ArialMT-33"/>
     <use x="55.615234375" xlink:href="#ArialMT-31"/>
     <use x="111.23046875" xlink:href="#ArialMT-20"/>
     <use x="139.013671875" xlink:href="#ArialMT-74"/>
     <use x="166.796875" xlink:href="#ArialMT-61"/>
     <use x="222.412109375" xlink:href="#ArialMT-72"/>
     <use x="255.712890625" xlink:href="#ArialMT-67"/>
     <use x="311.328125" xlink:href="#ArialMT-65"/>
     <use x="366.943359375" xlink:href="#ArialMT-74"/>
     <use x="394.7265625" xlink:href="#ArialMT-20"/>
     <use x="422.509765625" xlink:href="#ArialMT-52"/>
     <use x="494.7265625" xlink:href="#ArialMT-4c"/>
     <use x="550.341796875" xlink:href="#ArialMT-73"/>
     <use x="600.341796875" xlink:href="#ArialMT-2f"/>
     <use x="628.125" xlink:href="#ArialMT-64"/>
     <use x="683.740234375" xlink:href="#ArialMT-69"/>
     <use x="705.95703125" xlink:href="#ArialMT-6d"/>
     <use x="789.2578125" xlink:href="#ArialMT-3a"/>
     <use x="817.041015625" xlink:href="#ArialMT-20"/>
     <use x="844.82421875" xlink:href="#ArialMT-30"/>
     <use x="900.439453125" xlink:href="#ArialMT-2e"/>
     <use x="928.22265625" xlink:href="#ArialMT-35"/>
     <use x="983.837890625" xlink:href="#ArialMT-2e"/>
     <use x="1011.62109375" xlink:href="#ArialMT-2e"/>
     <use x="1039.40429688" xlink:href="#ArialMT-35"/>
     <use x="1095.01953125" xlink:href="#ArialMT-30"/>
    </g>
    <!--    from refalgs/best2009-bbob.tar.gz -->
    <defs>
     <path d="
M1.95312 0
L1.95312 7.125
L34.9688 45.0156
Q29.3438 44.7344 25.0469 44.7344
L3.90625 44.7344
L3.90625 51.8594
L46.2969 51.8594
L46.2969 46.0469
L18.2188 13.1406
L12.7969 7.125
Q18.7031 7.5625 23.875 7.5625
L47.8594 7.5625
L47.8594 0
z
" id="ArialMT-7a"/>
    </defs>
    <g transform="translate(167.78759948 67.6851328218)scale(0.1666 -0.1666)">
     <use xlink:href="#ArialMT-20"/>
     <use x="27.783203125" xlink:href="#ArialMT-20"/>
     <use x="55.56640625" xlink:href="#ArialMT-20"/>
     <use x="83.349609375" xlink:href="#ArialMT-66"/>
     <use x="111.1328125" xlink:href="#ArialMT-72"/>
     <use x="144.43359375" xlink:href="#ArialMT-6f"/>
     <use x="200.048828125" xlink:href="#ArialMT-6d"/>
     <use x="283.349609375" xlink:href="#ArialMT-20"/>
     <use x="311.1328125" xlink:href="#ArialMT-72"/>
     <use x="344.43359375" xlink:href="#ArialMT-65"/>
     <use x="400.048828125" xlink:href="#ArialMT-66"/>
     <use x="427.83203125" xlink:href="#ArialMT-61"/>
     <use x="483.447265625" xlink:href="#ArialMT-6c"/>
     <use x="505.6640625" xlink:href="#ArialMT-67"/>
     <use x="561.279296875" xlink:href="#ArialMT-73"/>
     <use x="611.279296875" xlink:href="#ArialMT-2f"/>
     <use x="639.0625" xlink:href="#ArialMT-62"/>
     <use x="694.677734375" xlink:href="#ArialMT-65"/>
     <use x="750.29296875" xlink:href="#ArialMT-73"/>
     <use x="800.29296875" xlink:href="#ArialMT-74"/>
     <use x="828.076171875" xlink:href="#ArialMT-32"/>
     <use x="883.69140625" xlink:href="#ArialMT-30"/>
     <use x="939.306640625" xlink:href="#ArialMT-30"/>
     <use x="994.921875" xlink:href="#ArialMT-39"/>
     <use x="1050.53710938" xlink:href="#ArialMT-2d"/>
     <use x="1083.83789062" xlink:href="#ArialMT-62"/>
     <use x="1139.453125" xlink:href="#ArialMT-62"/>
     <use x="1195.06835938" xlink:href="#ArialMT-6f"/>
     <use x="1250.68359375" xlink:href="#ArialMT-62"/>
     <use x="1306.29882812" xlink:href="#ArialMT-2e"/>
     <use x="1334.08203125" xlink:href="#ArialMT-74"/>
     <use x="1361.86523438" xlink:href="#ArialMT-61"/>
     <use x="1417.48046875" xlink:href="#ArialMT-72"/>
     <use x="1445.28125" xlink:href="#ArialMT-2e"/>
     <use x="1473.06445312" xlink:href="#ArialMT-67"/>
     <use x="1528.6796875" xlink:href="#ArialMT-7a"/>
    </g>
    <!-- 15 instances -->
    <g transform="translate(167.78759948 85.5014409468)scale(0.1666 -0.1666)">
     <use xlink:href="#ArialMT-31"/>
     <use x="55.615234375" xlink:href="#ArialMT-35"/>
     <use x="111.23046875" xlink:href="#ArialMT-20"/>
     <use x="139.013671875" xlink:href="#ArialMT-69"/>
     <use x="161.23046875" xlink:href="#ArialMT-6e"/>
     <use x="216.845703125" xlink:href="#ArialMT-73"/>
     <use x="266.845703125" xlink:href="#ArialMT-74"/>
     <use x="294.62890625" xlink:href="#ArialMT-61"/>
     <use x="350.244140625" xlink:href="#ArialMT-6e"/>
     <use x="405.859375" xlink:href="#ArialMT-63"/>
     <use x="455.859375" xlink:href="#ArialMT-65"/>
     <use x="511.474609375" xlink:href="#ArialMT-73"/>
    </g>
   </g>
   <g id="text_19">
    <!-- v2.0.1 -->
    <g style="fill:#808080;" transform="translate(373.88531823 353.080030322)scale(0.1 -0.1)">
     <use xlink:href="#ArialMT-76"/>
     <use x="50.0" xlink:href="#ArialMT-32"/>
     <use x="105.615234375" xlink:href="#ArialMT-2e"/>
     <use x="133.3984375" xlink:href="#ArialMT-30"/>
     <use x="189.013671875" xlink:href="#ArialMT-2e"/>
     <use x="216.796875" xlink:href="#ArialMT-31"/>
    </g>
   </g>
  </g>
 </g>
 <defs>
  <clipPath id="pebde201112">
   <rect height="345.6" width="446.4" x="163.32359948" y="12.9235303218"/>
  </clipPath>
 </defs>
</svg>
