<?xml version="1.0" encoding="utf-8" standalone="no"?>
<!DOCTYPE svg PUBLIC "-//W3C//DTD SVG 1.1//EN"
  "http://www.w3.org/Graphics/SVG/1.1/DTD/svg11.dtd">
<!-- Created with matplotlib (http://matplotlib.org/) -->
<svg height="414pt" version="1.1" viewBox="0 0 616 414" width="616pt" xmlns="http://www.w3.org/2000/svg" xmlns:xlink="http://www.w3.org/1999/xlink">
 <defs>
  <style type="text/css">
*{stroke-linecap:butt;stroke-linejoin:round;}
  </style>
 </defs>
 <g id="figure_1">
  <g id="patch_1">
   <path d="
M0 414.924
L616.924 414.924
L616.924 0
L0 0
z
" style="fill:#ffffff;"/>
  </g>
  <g id="axes_1">
   <g id="patch_2">
    <path d="
M163.324 358.524
L609.724 358.524
L609.724 12.9235
L163.324 12.9235
z
" style="fill:#ffffff;"/>
   </g>
   <g id="line2d_1">
    <defs>
     <path d="
M0 1.5
C0.397805 1.5 0.77937 1.34195 1.06066 1.06066
C1.34195 0.77937 1.5 0.397805 1.5 0
C1.5 -0.397805 1.34195 -0.77937 1.06066 -1.06066
C0.77937 -1.34195 0.397805 -1.5 0 -1.5
C-0.397805 -1.5 -0.77937 -1.34195 -1.06066 -1.06066
C-1.34195 -0.77937 -1.5 -0.397805 -1.5 0
C-1.5 0.397805 -1.34195 0.77937 -1.06066 1.06066
C-0.77937 1.34195 -0.397805 1.5 0 1.5
z
" id="m977c291b42" style="stroke:#00bfbf;stroke-width:0.5;"/>
    </defs>
    <g>
     <use style="fill:#00bfbf;stroke:#00bfbf;stroke-width:0.5;" x="601.500221744" xlink:href="#m977c291b42" y="103.445222491"/>
     <use style="fill:#00bfbf;stroke:#00bfbf;stroke-width:0.5;" x="601.500221744" xlink:href="#m977c291b42" y="103.445222491"/>
    </g>
   </g>
   <g id="line2d_2">
    <path d="
M127.2 343.592
L163.324 343.592
L163.324 337.993
L199.447 337.993
L199.447 334.882
L211.076 334.882
L211.076 325.55
L220.578 325.55
L220.578 318.706
L228.612 318.706
L228.612 313.107
L235.571 313.107
L235.571 309.996
L241.709 309.996
L241.709 306.264
L247.2 306.264
L247.2 301.909
L252.167 301.909
L252.167 301.286
L256.702 301.286
L256.702 299.42
L260.873 299.42
L260.873 298.176
L264.735 298.176
L264.735 296.309
L268.331 296.309
L268.331 295.687
L271.694 295.687
L271.694 294.443
L274.854 294.443
L274.854 290.088
L280.65 290.088
L280.65 287.599
L283.324 287.599
L283.324 285.733
L285.866 285.733
L285.866 285.111
L288.291 285.111
L288.291 284.489
L292.825 284.489
L292.825 278.889
L294.953 278.889
L294.953 277.023
L298.964 277.023
L298.964 276.401
L302.688 276.401
L302.688 273.912
L304.455 273.912
L304.455 272.668
L307.818 272.668
L307.818 272.046
L309.422 272.046
L309.422 268.935
L310.977 268.935
L310.977 268.313
L313.956 268.313
L313.956 267.069
L315.384 267.069
L315.384 263.958
L316.774 263.958
L316.774 261.469
L319.447 261.469
L319.447 260.225
L321.99 260.225
L321.99 258.981
L324.414 258.981
L324.414 257.114
L325.586 257.114
L325.586 252.759
L326.731 252.759
L326.731 251.515
L332.108 251.515
L332.108 250.271
L333.12 250.271
L333.12 247.782
L334.113 247.782
L334.113 247.16
L335.087 247.16
L335.087 245.916
L336.044 245.916
L336.044 245.294
L336.983 245.294
L336.983 244.672
L337.905 244.672
L337.905 242.183
L340.578 242.183
L340.578 241.561
L343.942 241.561
L343.942 240.939
L344.75 240.939
L344.75 240.317
L346.329 240.317
L346.329 239.072
L347.101 239.072
L347.101 237.828
L350.08 237.828
L350.08 237.206
L350.799 237.206
L350.799 236.584
L353.579 236.584
L353.579 233.473
L354.915 233.473
L354.915 232.851
L355.571 232.851
L355.571 231.607
L357.489 231.607
L357.489 229.118
L358.114 229.118
L358.114 228.496
L358.73 228.496
L358.73 227.874
L361.127 227.874
L361.127 226.007
L361.709 226.007
L361.709 225.385
L362.285 225.385
L362.285 221.652
L363.418 221.652
L363.418 221.03
L363.975 221.03
L363.975 219.786
L364.527 219.786
L364.527 218.542
L365.073 218.542
L365.073 217.919
L366.147 217.919
L366.147 216.675
L368.232 216.675
L368.232 215.431
L369.743 215.431
L369.743 214.809
L370.237 214.809
L370.237 214.187
L371.691 214.187
L371.691 211.076
L372.167 211.076
L372.167 210.454
L374.935 210.454
L374.935 209.209
L378.411 209.209
L378.411 207.965
L378.829 207.965
L378.829 207.343
L380.065 207.343
L380.065 204.232
L380.873 204.232
L380.873 203.61
L385.84 203.61
L385.84 201.744
L386.564 201.744
L386.564 199.255
L387.278 199.255
L387.278 198.011
L387.631 198.011
L387.631 196.144
L389.021 196.144
L389.021 193.034
L389.363 193.034
L389.363 192.412
L392.342 192.412
L392.342 189.923
L392.663 189.923
L392.663 188.679
L392.981 188.679
L392.981 183.702
L395.766 183.702
L395.766 181.213
L400.099 181.213
L400.099 179.969
L400.65 179.969
L400.65 179.347
L402.271 179.347
L402.271 178.724
L402.8 178.724
L402.8 176.858
L403.062 176.858
L403.062 176.236
L418.576 176.236
L418.576 175.614
L420.298 175.614
L420.298 174.992
L422.867 174.992
L422.867 173.747
L423.046 173.747
L423.046 173.125
L423.224 173.125
L423.224 172.503
L423.579 172.503
L423.579 171.881
L424.801 171.881
L424.801 168.77
L425.995 168.77
L425.995 167.526
L426.665 167.526
L426.665 166.904
L428.626 166.904
L428.626 166.282
L429.105 166.282
L429.105 165.659
L431.435 165.659
L431.435 164.415
L431.738 164.415
L431.738 163.793
L432.04 163.793
L432.04 163.171
L434.245 163.171
L434.245 162.549
L434.532 162.549
L434.532 159.438
L435.805 159.438
L435.805 158.816
L437.86 158.816
L437.86 156.327
L438.128 156.327
L438.128 155.083
L438.394 155.083
L438.394 154.461
L439.186 154.461
L439.186 153.217
L440.734 153.217
L440.734 152.594
L450.13 152.594
L450.13 151.972
L451.284 151.972
L451.284 151.35
L452.414 151.35
L452.414 150.728
L453.221 150.728
L453.221 150.106
L453.916 150.106
L453.916 149.484
L455.758 149.484
L455.758 148.239
L457.168 148.239
L457.168 147.617
L457.353 147.617
L457.353 146.995
L457.905 146.995
L457.905 146.373
L459.525 146.373
L459.525 145.129
L460.404 145.129
L460.491 143.262
L463.368 143.262
L463.368 142.018
L467.937 142.018
L468.013 140.152
L469.644 140.152
L469.644 139.529
L473.035 139.529
L473.035 138.907
L473.171 138.907
L473.171 138.285
L474.783 138.285
L474.783 136.419
L474.915 136.419
L474.915 135.797
L475.44 135.797
L475.44 135.174
L481.825 135.174
L481.825 134.552
L482.228 134.552
L482.228 133.93
L482.514 133.93
L482.514 133.308
L482.911 133.308
L482.911 132.686
L484.582 132.686
L484.582 132.064
L485.181 132.064
L485.181 131.442
L486.571 131.442
L486.571 130.197
L487.096 130.197
L487.096 129.575
L488.232 129.575
L488.232 128.953
L491.739 128.953
L491.739 128.331
L492.826 128.331
L492.826 127.709
L495.025 127.709
L495.025 127.087
L495.382 127.087
L495.382 125.842
L495.649 125.842
L495.649 125.22
L496.178 125.22
L496.178 123.976
L496.615 123.976
L496.615 123.354
L503.378 123.354
L503.378 122.732
L504.287 122.732
L504.287 121.487
L504.437 121.487
L504.437 120.865
L511.466 120.865
L511.466 119.621
L514.915 119.621
L514.915 118.999
L516.78 118.999
L516.78 117.132
L516.957 117.132
L516.957 116.51
L517.601 116.51
L517.601 115.888
L517.775 115.888
L517.775 115.266
L521.223 115.266
L521.223 114.644
L522.377 114.644
L522.377 114.022
L523.324 114.022
L523.324 114.022" style="fill:none;stroke:#00bfbf;stroke-linecap:square;stroke-width:1.5;"/>
   </g>
   <g id="line2d_3">
    <defs>
     <path d="
M-6 0
L6 0
M0 6
L0 -6" id="m3e4de746de" style="stroke:#00bfbf;stroke-width:1.5;"/>
    </defs>
    <g>
     <use style="fill:none;stroke:#00bfbf;stroke-width:1.5;" x="220.578150046" xlink:href="#m3e4de746de" y="318.706428612"/>
     <use style="fill:none;stroke:#00bfbf;stroke-width:1.5;" x="315.384206888" xlink:href="#m3e4de746de" y="263.95791376"/>
     <use style="fill:none;stroke:#00bfbf;stroke-width:1.5;" x="374.934958707" xlink:href="#m3e4de746de" y="210.453683337"/>
     <use style="fill:none;stroke:#00bfbf;stroke-width:1.5;" x="439.185968649" xlink:href="#m3e4de746de" y="153.216599629"/>
     <use style="fill:none;stroke:#00bfbf;stroke-width:1.5;" x="522.376978014" xlink:href="#m3e4de746de" y="114.021640133"/>
     <use style="fill:none;stroke:#00bfbf;stroke-width:1.5;" x="523.32359948" xlink:href="#m3e4de746de" y="114.021640133"/>
    </g>
   </g>
   <g id="line2d_4"/>
   <g id="line2d_5">
    <path clip-path="url(#pebde201112)" d="
M403.324 176.236" style="fill:none;stroke:#00bfbf;stroke-linecap:square;"/>
    <defs>
     <path d="
M-12 12
L12 -12
M-12 -12
L12 12" id="m09e435d1d9" style="stroke:#00bfbf;stroke-width:3;"/>
    </defs>
    <g clip-path="url(#pebde201112)">
     <use style="fill:#00bfbf;stroke:#00bfbf;stroke-width:3;" x="403.32359948" xlink:href="#m09e435d1d9" y="176.235861555"/>
    </g>
   </g>
   <g id="line2d_6">
    <defs>
     <path d="
M0 1.5
C0.397805 1.5 0.77937 1.34195 1.06066 1.06066
C1.34195 0.77937 1.5 0.397805 1.5 0
C1.5 -0.397805 1.34195 -0.77937 1.06066 -1.06066
C0.77937 -1.34195 0.397805 -1.5 0 -1.5
C-0.397805 -1.5 -0.77937 -1.34195 -1.06066 -1.06066
C-1.34195 -0.77937 -1.5 -0.397805 -1.5 0
C-1.5 0.397805 -1.34195 0.77937 -1.06066 1.06066
C-0.77937 1.34195 -0.397805 1.5 0 1.5
z
" id="mb0b177905e" style="stroke:#008000;stroke-width:0.5;"/>
    </defs>
    <g>
     <use style="fill:#008000;stroke:#008000;stroke-width:0.5;" x="605.068928718" xlink:href="#mb0b177905e" y="106.019604067"/>
     <use style="fill:#008000;stroke:#008000;stroke-width:0.5;" x="605.068928718" xlink:href="#mb0b177905e" y="106.019604067"/>
    </g>
   </g>
   <g id="line2d_7">
    <path d="
M142.193 325.486
L163.324 325.486
L163.324 314.866
L178.316 314.866
L178.316 308.377
L189.945 308.377
L189.945 304.837
L199.447 304.837
L199.447 303.657
L207.481 303.657
L207.481 302.477
L214.44 302.477
L214.44 301.887
L226.069 301.887
L226.069 298.937
L231.036 298.937
L231.036 291.268
L235.571 291.268
L235.571 290.088
L253.723 290.088
L253.723 289.498
L256.702 289.498
L256.702 288.908
L262.193 288.908
L262.193 287.728
L264.735 287.728
L264.735 286.548
L269.476 286.548
L269.476 283.598
L271.694 283.598
L271.694 281.238
L273.822 281.238
L273.822 280.648
L277.833 280.648
L277.833 277.699
L281.557 277.699
L281.557 275.929
L285.032 275.929
L285.032 275.339
L286.687 275.339
L286.687 271.209
L288.291 271.209
L288.291 266.489
L294.253 266.489
L294.253 265.309
L296.997 265.309
L296.997 261.77
L298.316 261.77
L298.316 250.56
L299.603 250.56
L299.603 249.38
L302.085 249.38
L302.085 248.201
L303.283 248.201
L303.283 245.251
L308.893 245.251
L308.893 244.071
L309.945 244.071
L309.945 243.481
L312.982 243.481
L312.982 242.891
L317.68 242.891
L317.68 239.941
L319.447 239.941
L319.447 239.351
L321.99 239.351
L321.99 237.581
L322.811 237.581
L322.811 236.991
L328.949 236.991
L328.949 236.401
L329.668 236.401
L329.668 233.451
L330.377 233.451
L330.377 231.682
L331.076 231.682
L331.076 228.732
L331.767 228.732
L331.767 228.142
L334.44 228.142
L334.44 226.372
L335.087 226.372
L335.087 225.782
L335.727 225.782
L335.727 224.602
L337.599 224.602
L337.599 224.012
L340.578 224.012
L340.578 223.422
L341.724 223.422
L341.724 221.652
L342.287 221.652
L342.287 221.062
L345.016 221.062
L345.016 219.292
L348.612 219.292
L348.612 218.702
L349.106 218.702
L349.106 218.112
L352.438 218.112
L352.438 216.343
L352.898 216.343
L352.898 215.753
L354.251 215.753
L354.251 215.163
L356.432 215.163
L356.432 213.983
L357.698 213.983
L357.698 213.393
L359.34 213.393
L359.34 212.803
L360.142 212.803
L360.142 212.213
L360.538 212.213
L360.538 211.623
L361.322 211.623
L361.322 210.443
L364.344 210.443
L364.344 209.263
L365.073 209.263
L365.073 208.673
L365.433 208.673
L365.433 205.723
L366.851 205.723
L366.851 205.133
L367.2 205.133
L367.2 204.543
L367.89 204.543
L367.89 203.953
L369.244 203.953
L369.244 201.594
L369.577 201.594
L369.577 201.004
L369.908 201.004
L369.908 199.234
L370.237 199.234
L370.237 198.644
L371.211 198.644
L371.211 197.464
L371.85 197.464
L371.85 196.284
L374.332 196.284
L374.332 195.694
L374.635 195.694
L374.635 194.514
L376.119 194.514
L376.119 192.154
L378.13 192.154
L378.13 191.564
L378.411 191.564
L378.411 190.974
L380.873 190.974
L380.873 189.204
L381.931 189.204
L381.931 188.614
L382.453 188.614
L382.453 188.024
L382.711 188.024
L382.711 187.434
L383.225 187.434
L383.225 186.254
L383.48 186.254
L383.48 185.665
L384.237 185.665
L384.237 182.715
L384.487 182.715
L384.487 182.125
L384.735 182.125
L384.735 181.535
L385.229 181.535
L385.229 179.175
L385.475 179.175
L385.475 177.405
L386.444 177.405
L386.444 176.815
L386.922 176.815
L386.922 175.635
L388.562 175.635
L388.562 174.455
L389.249 174.455
L389.249 173.865
L389.702 173.865
L389.702 172.095
L389.928 172.095
L389.928 170.915
L390.597 170.915
L390.597 169.146
L390.818 169.146
L390.818 168.556
L391.039 168.556
L391.039 167.376
L392.127 167.376
L392.127 166.196
L393.193 166.196
L393.193 165.606
L393.403 165.606
L393.403 165.016
L394.03 165.016
L394.03 163.246
L394.444 163.246
L394.444 162.656
L394.854 162.656
L394.854 159.116
L395.058 159.116
L395.058 157.936
L396.066 157.936
L396.066 156.756
L396.464 156.756
L396.464 156.166
L398.025 156.166
L398.025 155.576
L398.217 155.576
L398.217 154.986
L399.354 154.986
L399.354 153.807
L399.728 153.807
L399.728 152.037
L399.914 152.037
L399.914 151.447
L401.015 151.447
L401.015 150.857
L402.093 150.857
L402.093 150.267
L402.624 150.267
L402.624 149.677
L410 149.677
L410 149.087
L413.401 149.087
L413.401 147.907
L425.145 147.907
L425.145 147.317
L425.373 147.317
L425.373 146.727
L425.826 146.727
L425.826 146.137
L426.051 146.137
L426.051 145.547
L426.942 145.547
L426.942 144.367
L428.358 144.367
L428.358 143.777
L430.361 143.777
L430.361 143.187
L430.773 143.187
L430.773 138.468
L431.08 138.468
L431.08 137.878
L432.884 137.878
L432.884 137.288
L433.569 137.288
L433.569 136.698
L435.384 136.698
L435.384 136.108
L435.945 136.108
L435.945 135.518
L436.865 135.518
L436.865 134.338
L437.68 134.338
L437.68 133.748
L439.36 133.748
L439.36 131.978
L442.155 131.978
L442.155 129.618
L442.892 129.618
L442.892 129.028
L452.04 129.028
L452.04 128.438
L454.7 128.438
L454.7 127.848
L455.087 127.848
L455.087 127.258
L457.905 127.258
L457.905 126.668
L458.269 126.668
L458.269 126.078
L460.52 126.078
L460.52 125.488
L462.399 125.488
L462.399 124.898
L471.414 124.898
L471.414 121.949
L473.849 121.949
L473.849 121.359
L475.527 121.359
L475.527 120.769
L482.247 120.769
L482.247 120.179
L483.901 120.179
L483.901 118.999
L485.898 118.999
L485.898 118.409
L493.968 118.409
L493.968 117.819
L495.619 117.819
L495.619 117.229
L496.324 117.229
L496.324 116.049
L496.673 116.049
L496.673 115.459
L502.401 115.459
L502.401 114.869
L511.673 114.869
L511.673 114.279
L517.114 114.279
L517.114 113.689
L521.7 113.689
L521.7 113.099
L523.324 113.099
L523.324 113.099" style="fill:none;stroke:#008000;stroke-linecap:square;stroke-width:1.5;"/>
   </g>
   <g id="line2d_8">
    <defs>
     <path d="
M-7.34788e-16 6
L6 -6
L-6 -6
z
" id="m397e16cd68" style="stroke:#008000;stroke-linejoin:miter;stroke-width:1.5;"/>
    </defs>
    <g>
     <use style="fill:none;stroke:#008000;stroke-linejoin:miter;stroke-width:1.5;" x="142.192648393" xlink:href="#m397e16cd68" y="334.925032541"/>
     <use style="fill:none;stroke:#008000;stroke-linejoin:miter;stroke-width:1.5;" x="231.036171132" xlink:href="#m397e16cd68" y="298.937323425"/>
     <use style="fill:none;stroke:#008000;stroke-linejoin:miter;stroke-width:1.5;" x="319.447198959" xlink:href="#m397e16cd68" y="239.941078973"/>
     <use style="fill:none;stroke:#008000;stroke-linejoin:miter;stroke-width:1.5;" x="394.443511454" xlink:href="#m397e16cd68" y="162.655998741"/>
     <use style="fill:none;stroke:#008000;stroke-linejoin:miter;stroke-width:1.5;" x="458.269427088" xlink:href="#m397e16cd68" y="126.078327181"/>
     <use style="fill:none;stroke:#008000;stroke-linejoin:miter;stroke-width:1.5;" x="523.32359948" xlink:href="#m397e16cd68" y="113.099153401"/>
    </g>
   </g>
   <g id="line2d_9"/>
   <g id="line2d_10">
    <path clip-path="url(#pebde201112)" d="
M403.324 149.677" style="fill:none;stroke:#008000;stroke-linecap:square;"/>
    <defs>
     <path d="
M-12 12
L12 -12
M-12 -12
L12 12" id="m8c089fa6cd" style="stroke:#008000;stroke-width:3;"/>
    </defs>
    <g clip-path="url(#pebde201112)">
     <use style="fill:#008000;stroke:#008000;stroke-width:3;" x="403.32359948" xlink:href="#m8c089fa6cd" y="149.676824962"/>
    </g>
   </g>
   <g id="line2d_11">
    <defs>
     <path d="
M0 1.5
C0.397805 1.5 0.77937 1.34195 1.06066 1.06066
C1.34195 0.77937 1.5 0.397805 1.5 0
C1.5 -0.397805 1.34195 -0.77937 1.06066 -1.06066
C0.77937 -1.34195 0.397805 -1.5 0 -1.5
C-0.397805 -1.5 -0.77937 -1.34195 -1.06066 -1.06066
C-1.34195 -0.77937 -1.5 -0.397805 -1.5 0
C-1.5 0.397805 -1.34195 0.77937 -1.06066 1.06066
C-0.77937 1.34195 -0.397805 1.5 0 1.5
z
" id="m76a7ce5b4a" style="stroke:#0000ff;stroke-width:0.5;"/>
    </defs>
    <g>
     <use style="fill:#0000ff;stroke:#0000ff;stroke-width:0.5;" x="599.199033961" xlink:href="#m76a7ce5b4a" y="89.669216319"/>
     <use style="fill:#0000ff;stroke:#0000ff;stroke-width:0.5;" x="599.199033961" xlink:href="#m76a7ce5b4a" y="89.669216319"/>
    </g>
   </g>
   <g id="line2d_12">
    <path d="
M151.694 337.137
L163.324 337.137
L163.324 335.304
L172.825 335.304
L172.825 333.471
L180.859 333.471
L180.859 331.638
L187.818 331.638
L187.818 331.027
L193.956 331.027
L193.956 324.306
L199.447 324.306
L199.447 322.473
L208.949 322.473
L208.949 321.862
L213.12 321.862
L213.12 320.64
L216.983 320.64
L216.983 318.806
L223.942 318.806
L223.942 316.362
L227.101 316.362
L227.101 313.307
L230.08 313.307
L230.08 311.474
L238.114 311.474
L238.114 310.863
L240.538 310.863
L240.538 310.252
L245.073 310.252
L245.073 309.641
L249.244 309.641
L249.244 305.975
L253.106 305.975
L253.106 305.364
L254.935 305.364
L254.935 304.142
L258.411 304.142
L258.411 302.309
L261.669 302.309
L261.669 301.086
L264.735 301.086
L264.735 298.642
L267.631 298.642
L267.631 296.198
L269.021 296.198
L269.021 295.587
L270.375 295.587
L270.375 289.477
L275.463 289.477
L275.463 288.866
L277.833 288.866
L277.833 288.255
L280.099 288.255
L280.099 287.644
L281.196 287.644
L281.196 286.422
L286.36 286.422
L286.36 285.2
L287.334 285.2
L287.334 284.589
L289.23 284.589
L289.23 283.367
L291.059 283.367
L291.059 279.7
L291.949 279.7
L291.949 279.089
L295.368 279.089
L295.368 277.867
L296.997 277.867
L296.997 277.256
L300.859 277.256
L300.859 276.645
L301.598 276.645
L301.598 272.979
L303.755 272.979
L303.755 268.091
L304.455 268.091
L304.455 267.48
L307.818 267.48
L307.818 262.591
L309.737 262.591
L309.737 261.98
L310.977 261.98
L310.977 260.758
L311.587 260.758
L311.587 260.147
L313.374 260.147
L313.374 258.314
L316.223 258.314
L316.223 257.092
L317.32 257.092
L317.32 255.87
L321.99 255.87
L321.99 254.037
L322.484 254.037
L322.484 251.593
L328.073 251.593
L328.073 250.982
L331.076 250.982
L331.076 249.149
L331.492 249.149
L331.492 247.927
L333.52 247.927
L333.52 246.094
L335.472 246.094
L335.472 242.427
L335.854 242.427
L335.854 241.816
L338.451 241.816
L338.451 239.983
L338.811 239.983
L338.811 239.372
L339.17 239.372
L339.17 238.15
L342.287 238.15
L342.287 237.539
L346.173 237.539
L346.173 236.928
L346.794 236.928
L346.794 236.317
L349.79 236.317
L349.79 235.706
L352.346 235.706
L352.346 235.095
L353.714 235.095
L353.714 234.484
L354.783 234.484
L354.783 233.262
L355.571 233.262
L355.571 232.651
L359.822 232.651
L359.822 231.429
L360.3 231.429
L360.3 230.818
L361.709 230.818
L361.709 230.207
L362.17 230.207
L362.17 229.596
L362.855 229.596
L362.855 227.152
L363.306 227.152
L363.306 225.929
L363.753 225.929
L363.753 225.318
L365.289 225.318
L365.289 224.707
L366.359 224.707
L366.359 224.096
L367.408 224.096
L367.408 223.485
L368.232 223.485
L368.232 221.041
L369.444 221.041
L369.444 218.597
L369.842 218.597
L369.842 217.986
L371.017 217.986
L371.017 216.764
L373.477 216.764
L373.477 214.931
L374.029 214.931
L374.029 214.32
L374.393 214.32
L374.393 213.098
L375.293 213.098
L375.293 210.043
L375.649 210.043
L375.649 208.21
L376.353 208.21
L376.353 206.987
L376.875 206.987
L376.875 205.765
L378.411 205.765
L378.411 205.154
L379.574 205.154
L379.574 203.932
L380.228 203.932
L380.228 202.71
L380.873 202.71
L380.873 201.488
L381.033 201.488
L381.033 199.044
L381.669 199.044
L381.669 198.433
L381.984 198.433
L381.984 195.989
L383.071 195.989
L383.071 194.767
L383.985 194.767
L383.985 193.545
L384.735 193.545
L384.735 192.934
L385.18 192.934
L385.18 190.49
L385.328 190.49
L385.328 189.268
L385.475 189.268
L385.475 188.656
L386.922 188.656
L386.922 188.045
L388.608 188.045
L388.608 185.601
L389.702 185.601
L389.702 184.99
L389.973 184.99
L389.973 183.157
L390.241 183.157
L390.241 181.935
L390.508 181.935
L390.508 180.713
L390.642 180.713
L390.642 179.491
L390.907 179.491
L390.907 178.269
L391.954 178.269
L391.954 177.658
L392.084 177.658
L392.084 176.436
L392.599 176.436
L392.599 175.825
L393.487 175.825
L393.487 175.214
L394.854 175.214
L394.854 174.603
L394.976 174.603
L394.976 173.992
L395.099 173.992
L395.099 173.381
L395.463 173.381
L395.463 170.326
L396.898 170.326
L396.898 169.103
L397.016 169.103
L397.016 167.27
L397.25 167.27
L397.25 165.437
L397.601 165.437
L397.601 163.604
L398.523 163.604
L398.523 162.993
L398.637 162.993
L398.637 162.382
L398.751 162.382
L398.751 161.771
L398.978 161.771
L398.978 159.938
L399.429 159.938
L399.429 159.327
L399.765 159.327
L399.765 158.105
L399.988 158.105
L400.099 156.883
L400.32 156.883
L400.32 156.272
L400.869 156.272
L400.869 155.661
L401.196 155.661
L401.305 153.828
L401.736 153.828
L401.736 153.217
L402.483 153.217
L402.483 152.606
L402.694 152.606
L402.694 151.995
L402.905 151.995
L402.905 150.772
L403.115 150.772
L403.115 148.328
L403.324 148.328
L403.324 147.717
L427.948 147.717
L427.948 147.106
L428.465 147.106
L428.465 146.495
L429.485 146.495
L429.485 145.273
L429.737 145.273
L429.737 144.662
L430.299 144.662
L430.299 143.44
L430.67 143.44
L430.67 142.829
L431.1 142.829
L431.1 142.218
L432.19 142.218
L432.19 141.607
L432.369 141.607
L432.369 140.996
L432.607 140.996
L432.607 140.385
L433.315 140.385
L433.315 139.774
L433.491 139.774
L433.491 139.163
L434.761 139.163
L434.761 138.552
L436.333 138.552
L436.389 137.33
L436.499 137.33
L436.499 136.108
L436.664 136.108
L436.664 134.275
L437.482 134.275
L437.482 133.664
L437.806 133.664
L437.806 133.053
L438.021 133.053
L438.021 132.441
L438.394 132.441
L438.447 130.608
L438.66 130.608
L438.712 127.553
L439.029 127.553
L439.029 126.942
L455.164 126.942
L455.164 126.331
L457.905 126.331
L457.905 125.72
L458.342 125.72
L458.342 125.109
L458.523 125.109
L458.631 122.054
L460.089 122.054
L460.089 121.443
L460.265 121.443
L460.265 120.832
L460.578 120.832
L460.578 120.221
L471.508 120.221
L471.508 119.61
L474.037 119.61
L474.118 115.944
L474.225 115.944
L474.225 115.333
L475.205 115.333
L475.205 114.722
L475.362 114.722
L475.362 114.111
L485.977 114.111
L485.977 112.277
L486.105 112.277
L486.105 111.666
L495.737 111.666
L495.737 111.055
L503.865 111.055
L503.91 108
L504.512 108
L504.512 107.389
L510.933 107.389
L510.973 104.334
L517.601 104.334
L517.601 103.723
L523.115 103.723
L523.115 103.112
L523.24 103.112
L523.24 102.501
L523.324 102.501" style="fill:none;stroke:#0000ff;stroke-linecap:square;stroke-width:1.5;"/>
   </g>
   <g id="line2d_13">
    <defs>
     <path d="
M3.67394e-16 -6
L-1.34708 -1.8541
L-5.70634 -1.8541
L-2.17963 0.708204
L-3.52671 4.8541
L-4.20996e-16 2.2918
L3.52671 4.8541
L2.17963 0.708204
L5.70634 -1.8541
L1.34708 -1.8541
z
" id="m0933169453" style="stroke:#0000ff;stroke-linejoin:bevel;stroke-width:1.5;"/>
    </defs>
    <g>
     <use style="fill:none;stroke:#0000ff;stroke-linejoin:bevel;stroke-width:1.5;" x="151.694397919" xlink:href="#m0933169453" y="337.137391708"/>
     <use style="fill:none;stroke:#0000ff;stroke-linejoin:bevel;stroke-width:1.5;" x="240.537920658" xlink:href="#m0933169453" y="310.862992839"/>
     <use style="fill:none;stroke:#0000ff;stroke-linejoin:bevel;stroke-width:1.5;" x="333.519754438" xlink:href="#m0933169453" y="246.093544466"/>
     <use style="fill:none;stroke:#0000ff;stroke-linejoin:bevel;stroke-width:1.5;" x="390.241151118" xlink:href="#m0933169453" y="183.157193688"/>
     <use style="fill:none;stroke:#0000ff;stroke-linejoin:bevel;stroke-width:1.5;" x="460.578150046" xlink:href="#m0933169453" y="120.831875442"/>
     <use style="fill:none;stroke:#0000ff;stroke-linejoin:bevel;stroke-width:1.5;" x="523.32359948" xlink:href="#m0933169453" y="102.500899487"/>
    </g>
   </g>
   <g id="line2d_14"/>
   <g id="line2d_15">
    <path clip-path="url(#pebde201112)" d="
M403.324 147.717" style="fill:none;stroke:#0000ff;stroke-linecap:square;"/>
    <defs>
     <path d="
M-12 12
L12 -12
M-12 -12
L12 12" id="ma4a355cd2c" style="stroke:#0000ff;stroke-width:3;"/>
    </defs>
    <g clip-path="url(#pebde201112)">
     <use style="fill:#0000ff;stroke:#0000ff;stroke-width:3;" x="403.32359948" xlink:href="#ma4a355cd2c" y="147.717306842"/>
    </g>
   </g>
   <g id="line2d_16">
    <defs>
     <path d="
M0 1.5
C0.397805 1.5 0.77937 1.34195 1.06066 1.06066
C1.34195 0.77937 1.5 0.397805 1.5 0
C1.5 -0.397805 1.34195 -0.77937 1.06066 -1.06066
C0.77937 -1.34195 0.397805 -1.5 0 -1.5
C-0.397805 -1.5 -0.77937 -1.34195 -1.06066 -1.06066
C-1.34195 -0.77937 -1.5 -0.397805 -1.5 0
C-1.5 0.397805 -1.34195 0.77937 -1.06066 1.06066
C-0.77937 1.34195 -0.397805 1.5 0 1.5
z
" id="m66763a63fb" style="stroke:#000000;stroke-width:0.5;"/>
    </defs>
    <g>
     <use style="stroke:#000000;stroke-width:0.5;" x="585.364925774" xlink:href="#m66763a63fb" y="90.1484575204"/>
     <use style="stroke:#000000;stroke-width:0.5;" x="585.364925774" xlink:href="#m66763a63fb" y="90.1484575204"/>
    </g>
   </g>
   <g id="line2d_17">
    <path d="
M151.694 347.789
L172.825 347.789
L172.825 347.118
L176.997 347.118
L176.997 345.105
L180.859 345.105
L180.859 344.434
L196.774 344.434
L196.774 341.75
L208.949 341.75
L208.949 334.37
L211.076 334.37
L211.076 331.686
L213.12 331.686
L213.12 330.344
L216.983 330.344
L216.983 325.648
L218.811 325.648
L218.811 323.635
L223.942 323.635
L223.942 322.293
L225.545 322.293
L225.545 319.609
L232.898 319.609
L232.898 318.938
L234.251 318.938
L234.251 313.571
L240.538 313.571
L240.538 311.558
L241.709 311.558
L241.709 306.861
L243.975 306.861
L243.975 304.178
L247.2 304.178
L247.2 303.507
L248.232 303.507
L248.232 302.165
L250.237 302.165
L250.237 301.494
L254.029 301.494
L254.029 299.481
L256.702 299.481
L256.702 298.81
L260.873 298.81
L260.873 297.468
L261.669 297.468
L261.669 296.797
L263.985 296.797
L263.985 295.455
L264.735 295.455
L264.735 294.784
L265.475 294.784
L265.475 292.772
L270.375 292.772
L270.375 290.088
L271.039 290.088
L271.039 288.075
L275.463 288.075
L275.463 286.062
L278.409 286.062
L278.409 285.391
L278.978 285.391
L278.978 284.72
L281.196 284.72
L281.196 284.049
L281.736 284.049
L281.736 282.708
L282.8 282.708
L282.8 282.037
L283.324 282.037
L283.324 280.695
L285.866 280.695
L285.866 276.669
L286.36 276.669
L286.36 275.998
L287.334 275.998
L287.334 275.327
L292.825 275.327
L292.825 274.656
L296.594 274.656
L296.594 273.985
L298.186 273.985
L298.186 272.644
L300.859 272.644
L300.859 271.973
L306.832 271.973
L306.832 271.302
L307.162 271.302
L307.162 270.631
L308.786 270.631
L308.786 269.96
L309.737 269.96
L309.737 269.289
L310.977 269.289
L310.977 267.947
L313.374 267.947
L313.374 267.276
L315.665 267.276
L315.665 265.934
L318.128 265.934
L318.128 265.263
L318.923 265.263
L318.923 263.921
L322.484 263.921
L322.484 263.25
L324.651 263.25
L324.651 262.579
L325.12 262.579
L325.12 261.238
L325.353 261.238
L325.353 259.896
L328.293 259.896
L328.293 259.225
L328.949 259.225
L328.949 257.883
L330.236 257.883
L330.236 257.212
L333.52 257.212
L333.52 255.87
L335.087 255.87
L335.087 255.199
L337.168 255.199
L337.168 254.528
L337.353 254.528
L337.353 253.857
L337.722 253.857
L337.722 253.186
L337.905 253.186
L337.905 252.515
L338.631 252.515
L338.631 251.174
L338.991 251.174
L338.991 250.503
L339.17 250.503
L339.17 249.161
L343.615 249.161
L343.615 247.148
L344.589 247.148
L344.589 246.477
L345.545 246.477
L345.545 245.806
L345.86 245.806
L345.86 245.135
L347.862 245.135
L347.862 244.464
L349.057 244.464
L349.057 243.122
L352.068 243.122
L352.068 242.451
L354.518 242.451
L354.518 241.109
L356.089 241.109
L356.089 239.768
L356.985 239.768
L356.985 239.097
L357.238 239.097
L357.238 237.755
L357.615 237.755
L357.615 237.084
L357.865 237.084
L357.865 235.071
L358.484 235.071
L358.484 234.4
L358.73 234.4
L358.73 232.387
L359.34 232.387
L359.34 231.716
L359.582 231.716
L359.582 231.045
L359.942 231.045
L359.942 227.02
L360.062 227.02
L360.062 226.349
L360.181 226.349
L360.181 225.678
L360.419 225.678
L360.419 225.007
L360.774 225.007
L360.774 223.665
L362.055 223.665
L362.055 222.994
L362.17 222.994
L362.17 222.323
L362.399 222.323
L362.399 221.652
L363.081 221.652
L363.081 220.31
L363.753 220.31
L363.753 219.639
L363.975 219.639
L363.975 218.298
L366.465 218.298
L366.465 217.627
L367.925 217.627
L367.925 216.956
L368.436 216.956
L368.436 216.285
L368.639 216.285
L368.639 215.614
L368.842 215.614
L368.842 214.272
L369.544 214.272
L369.544 212.93
L370.138 212.93
L370.237 211.588
L371.017 211.588
L371.017 210.246
L371.211 210.246
L371.211 207.563
L371.404 207.563
L371.404 206.892
L371.595 206.892
L371.691 204.879
L372.072 204.879
L372.072 203.537
L373.292 203.537
L373.292 202.866
L373.845 202.866
L373.845 201.524
L374.393 201.524
L374.393 200.853
L374.665 200.853
L374.665 200.182
L375.204 200.182
L375.204 199.511
L375.649 199.511
L375.649 198.84
L375.826 198.84
L375.914 197.498
L376.002 197.498
L376.002 196.157
L376.962 196.157
L376.962 194.144
L377.306 194.144
L377.306 193.473
L377.649 193.473
L377.649 192.802
L377.989 192.802
L377.989 192.131
L378.242 192.131
L378.242 191.46
L378.411 191.46
L378.411 190.789
L378.578 190.789
L378.578 190.118
L378.829 190.118
L378.829 189.447
L379.41 189.447
L379.41 188.105
L379.574 188.105
L379.574 186.093
L379.902 186.093
L379.902 185.422
L380.147 185.422
L380.147 182.738
L380.39 182.738
L380.39 182.067
L381.193 182.067
L381.193 180.725
L381.59 180.725
L381.59 178.041
L382.062 178.041
L382.062 177.37
L382.375 177.37
L382.375 176.699
L382.53 176.699
L382.608 174.016
L383.301 174.016
L383.301 172.674
L383.53 172.674
L383.53 170.661
L383.682 170.661
L383.682 169.99
L384.136 169.99
L384.136 169.319
L384.287 169.319
L384.287 168.648
L384.958 168.648
L385.032 165.964
L385.913 165.964
L385.913 164.623
L386.348 164.623
L386.348 163.281
L387.278 163.281
L387.278 162.61
L387.49 162.61
L387.49 161.268
L387.772 161.268
L387.772 160.597
L388.052 160.597
L388.122 158.584
L388.192 158.584
L388.192 157.242
L388.4 157.242
L388.4 156.571
L388.539 156.571
L388.539 155.9
L390.708 155.9
L390.708 154.558
L391.629 154.558
L391.629 153.217
L392.084 153.217
L392.084 151.875
L392.534 151.875
L392.534 151.204
L392.726 151.204
L392.726 149.191
L393.801 149.191
L393.801 148.52
L393.926 148.52
L393.926 147.849
L394.67 147.849
L394.67 147.178
L395.22 147.178
L395.22 145.836
L395.645 145.836
L395.645 143.153
L396.066 143.153
L396.066 142.482
L396.186 142.482
L396.186 139.127
L396.424 139.127
L396.424 138.456
L397.133 138.456
L397.133 137.114
L397.25 137.114
L397.25 136.443
L397.775 136.443
L397.775 135.772
L398.064 135.772
L398.064 135.101
L398.236 135.101
L398.236 134.43
L398.751 134.43
L398.751 131.076
L398.865 131.076
L398.865 130.405
L399.035 130.405
L399.035 129.063
L400.375 129.063
L400.375 128.392
L400.76 128.392
L400.815 125.708
L401.087 125.708
L401.087 124.366
L401.629 124.366
L401.629 123.695
L401.79 123.695
L401.79 122.353
L421.745 122.353
L421.745 121.683
L431.069 121.683
L431.069 121.012
L432.369 121.012
L432.369 119.67
L436 119.67
L436 118.999
L436.306 118.999
L436.389 117.657
L436.966 117.657
L436.966 116.315
L437.211 116.315
L437.211 114.973
L437.914 114.973
L437.914 114.302
L438.607 114.302
L438.607 112.289
L439.264 112.289
L439.317 110.277
L455.968 110.277
L455.968 109.606
L459.098 109.606
L459.098 108.935
L460.019 108.935
L460.019 108.264
L472.98 108.264
L472.98 107.593
L473.983 107.593
L473.983 106.922
L474.465 106.922
L474.465 106.251
L475.06 106.251
L475.06 105.58
L475.506 105.58
L475.506 104.909
L484.483 104.909
L484.483 104.238
L486.317 104.238
L486.317 103.567
L486.865 103.567
L486.865 102.896
L494.447 102.896
L494.447 102.225
L503.88 102.225
L503.88 101.554
L504.407 101.554
L504.407 100.883
L510.854 100.883
L510.946 99.5416
L511.144 99.5416
L511.144 98.8706
L511.44 98.8706
L511.44 98.1997
L517.168 98.1997
L517.168 97.5288
L517.804 97.5288
L517.804 96.8578
L522.726 96.8578
L522.726 96.1869
L522.884 96.1869
L522.884 95.516
L523.324 95.516
L523.324 95.516" style="fill:none;stroke:#000000;stroke-linecap:square;stroke-width:1.5;"/>
   </g>
   <g id="line2d_18">
    <defs>
     <path d="
M0 6
C1.59122 6 3.11748 5.3678 4.24264 4.24264
C5.3678 3.11748 6 1.59122 6 0
C6 -1.59122 5.3678 -3.11748 4.24264 -4.24264
C3.11748 -5.3678 1.59122 -6 0 -6
C-1.59122 -6 -3.11748 -5.3678 -4.24264 -4.24264
C-5.3678 -3.11748 -6 -1.59122 -6 0
C-6 1.59122 -5.3678 3.11748 -4.24264 4.24264
C-3.11748 5.3678 -1.59122 6 0 6
z
" id="ma42492ef9b" style="stroke:#000000;stroke-width:1.5;"/>
    </defs>
    <g>
     <use style="fill:none;stroke:#000000;stroke-width:1.5;" x="247.2" xlink:href="#ma42492ef9b" y="303.506640397"/>
     <use style="fill:none;stroke:#000000;stroke-width:1.5;" x="325.120183045" xlink:href="#ma42492ef9b" y="261.237566431"/>
     <use style="fill:none;stroke:#000000;stroke-width:1.5;" x="379.902080926" xlink:href="#ma42492ef9b" y="185.421608365"/>
     <use style="fill:none;stroke:#000000;stroke-width:1.5;" x="439.316747482" xlink:href="#ma42492ef9b" y="111.618463344"/>
     <use style="fill:none;stroke:#000000;stroke-width:1.5;" x="522.883981651" xlink:href="#ma42492ef9b" y="95.5159589764"/>
     <use style="fill:none;stroke:#000000;stroke-width:1.5;" x="523.32359948" xlink:href="#ma42492ef9b" y="95.5159589764"/>
    </g>
   </g>
   <g id="line2d_19"/>
   <g id="line2d_20">
    <path clip-path="url(#pebde201112)" d="
M403.324 122.353" style="fill:none;stroke:#000000;stroke-linecap:square;"/>
    <defs>
     <path d="
M-12 12
L12 -12
M-12 -12
L12 12" id="m47417b404f" style="stroke:#000000;stroke-width:3;"/>
    </defs>
    <g clip-path="url(#pebde201112)">
     <use style="stroke:#000000;stroke-width:3;" x="403.32359948" xlink:href="#m47417b404f" y="122.353466257"/>
    </g>
   </g>
   <g id="line2d_21">
    <defs>
     <path d="
M0 1.5
C0.397805 1.5 0.77937 1.34195 1.06066 1.06066
C1.34195 0.77937 1.5 0.397805 1.5 0
C1.5 -0.397805 1.34195 -0.77937 1.06066 -1.06066
C0.77937 -1.34195 0.397805 -1.5 0 -1.5
C-0.397805 -1.5 -0.77937 -1.34195 -1.06066 -1.06066
C-1.34195 -0.77937 -1.5 -0.397805 -1.5 0
C-1.5 0.397805 -1.34195 0.77937 -1.06066 1.06066
C-0.77937 1.34195 -0.397805 1.5 0 1.5
z
" id="ma07bdd5909" style="stroke:#ff0000;stroke-width:0.5;"/>
    </defs>
    <g>
     <use style="fill:#ff0000;stroke:#ff0000;stroke-width:0.5;" x="605.067661923" xlink:href="#ma07bdd5909" y="97.5287720224"/>
     <use style="fill:#ff0000;stroke:#ff0000;stroke-width:0.5;" x="605.067661923" xlink:href="#ma07bdd5909" y="97.5287720224"/>
    </g>
   </g>
   <g id="line2d_22">
    <path d="
M140.873 351.143
L218.811 351.143
L218.811 349.801
L219.702 349.801
L219.702 349.13
L221.44 349.13
L221.44 347.789
L223.121 347.789
L223.121 347.118
L223.942 347.118
L223.942 346.447
L225.545 346.447
L225.545 345.776
L226.329 345.776
L226.329 345.105
L237.489 345.105
L237.489 344.434
L242.285 344.434
L242.285 343.763
L246.676 343.763
L246.676 341.75
L251.211 341.75
L251.211 340.408
L253.106 340.408
L253.106 338.395
L254.935 338.395
L254.935 337.054
L257.134 337.054
L257.134 336.383
L258.411 336.383
L258.411 335.041
L259.656 335.041
L259.656 334.37
L261.273 334.37
L261.273 333.699
L264.362 333.699
L264.362 332.357
L266.203 332.357
L266.203 331.686
L266.922 331.686
L266.922 331.015
L271.039 331.015
L271.039 330.344
L274.854 330.344
L274.854 327.66
L278.694 327.66
L278.694 325.648
L280.099 325.648
L280.099 323.635
L280.65 323.635
L280.65 322.293
L284.61 322.293
L284.61 320.951
L286.85 320.951
L286.85 320.28
L287.575 320.28
L287.575 319.609
L293.473 319.609
L293.473 318.938
L297.99 318.938
L297.99 318.267
L299.54 318.267
L299.54 316.925
L299.92 316.925
L299.92 315.584
L301.414 315.584
L301.414 314.913
L301.598 314.913
L301.598 313.571
L304.628 313.571
L304.628 312.9
L306.331 312.9
L306.331 312.229
L309.105 312.229
L309.105 311.558
L309.579 311.558
L309.579 310.887
L311.738 310.887
L311.738 309.545
L312.785 309.545
L312.785 308.874
L313.811 308.874
L313.811 308.203
L316.223 308.203
L316.223 306.861
L319.707 306.861
L319.707 305.519
L321.366 305.519
L321.366 304.849
L322.114 304.849
L322.114 302.836
L322.484 302.836
L322.484 302.165
L327.182 302.165
L327.182 301.494
L327.63 301.494
L327.63 300.823
L327.852 300.823
L327.852 299.481
L328.949 299.481
L328.949 298.81
L337.63 298.81
L337.63 298.139
L337.813 298.139
L337.813 296.126
L338.088 296.126
L338.088 295.455
L338.991 295.455
L338.991 294.114
L339.437 294.114
L339.437 293.443
L339.79 293.443
L339.79 292.772
L339.967 292.772
L339.967 291.43
L340.142 291.43
L340.142 290.088
L340.317 290.088
L340.317 289.417
L342.119 289.417
L342.119 288.746
L342.455 288.746
L342.455 286.733
L342.872 286.733
L342.955 284.72
L343.697 284.72
L343.697 283.379
L345.228 283.379
L345.228 282.708
L345.703 282.708
L345.703 281.366
L345.86 281.366
L345.86 280.695
L346.251 280.695
L346.251 279.353
L346.871 279.353
L346.871 277.34
L347.101 277.34
L347.101 275.998
L347.786 275.998
L347.862 273.314
L349.13 273.314
L349.13 271.973
L349.862 271.973
L349.862 271.302
L350.224 271.302
L350.224 270.631
L350.799 270.631
L350.799 269.96
L351.154 269.96
L351.154 268.618
L351.296 268.618
L351.296 267.276
L353.983 267.276
L353.983 266.605
L355.571 266.605
L355.571 265.934
L355.896 265.934
L355.896 265.263
L356.73 265.263
L356.73 264.592
L357.238 264.592
L357.238 263.921
L357.865 263.921
L357.865 262.579
L358.237 262.579
L358.237 261.909
L358.361 261.909
L358.361 261.238
L358.484 261.238
L358.484 259.896
L359.097 259.896
L359.097 258.554
L359.942 258.554
L359.942 257.883
L360.892 257.883
L360.951 253.186
L361.185 253.186
L361.185 252.515
L362.456 252.515
L362.456 251.174
L363.024 251.174
L363.024 250.503
L363.642 250.503
L363.642 249.832
L364.362 249.832
L364.472 247.819
L365.343 247.819
L365.343 247.148
L365.827 247.148
L365.827 246.477
L366.412 246.477
L366.518 244.464
L366.939 244.464
L366.939 243.793
L367.46 243.793
L367.46 242.451
L367.667 242.451
L367.77 241.109
L367.976 241.109
L367.976 240.438
L368.69 240.438
L368.69 239.768
L369.043 239.768
L369.144 235.742
L369.244 235.742
L369.244 235.071
L369.594 235.071
L369.594 234.4
L369.941 234.4
L369.99 233.058
L370.188 233.058
L370.188 232.387
L370.433 232.387
L370.433 231.045
L370.677 231.045
L370.677 230.374
L370.872 230.374
L370.872 229.703
L371.307 229.703
L371.307 229.033
L372.826 229.033
L372.873 226.349
L373.06 226.349
L373.153 225.007
L373.246 225.007
L373.246 222.994
L373.983 222.994
L373.983 222.323
L374.257 222.323
L374.257 220.981
L375.114 220.981
L375.114 219.639
L375.56 219.639
L375.56 218.968
L376.745 218.968
L376.745 216.956
L376.918 216.956
L376.918 214.272
L378.116 214.272
L378.2 212.259
L378.578 212.259
L378.578 211.588
L378.913 211.588
L378.913 210.246
L379.037 210.246
L379.037 209.575
L379.984 209.575
L379.984 208.904
L380.228 208.904
L380.228 208.233
L380.39 208.233
L380.39 207.563
L380.713 207.563
L380.753 206.221
L380.953 206.221
L381.033 204.879
L381.273 204.879
L381.273 204.208
L382.023 204.208
L382.062 202.866
L382.336 202.866
L382.336 202.195
L382.608 202.195
L382.647 200.853
L383.033 200.853
L383.033 200.182
L383.948 200.182
L383.948 199.511
L384.136 199.511
L384.136 198.84
L384.287 198.84
L384.287 197.498
L384.995 197.498
L384.995 196.828
L385.328 196.828
L385.328 196.157
L386.095 196.157
L386.095 194.815
L386.564 194.815
L386.564 194.144
L386.922 194.144
L386.922 193.473
L387.737 193.473
L387.772 190.789
L388.052 190.789
L388.087 188.776
L388.643 188.776
L388.746 186.763
L389.533 186.763
L389.533 185.422
L389.736 185.422
L389.838 183.409
L390.342 183.409
L390.408 181.396
L390.642 181.396
L390.642 180.725
L390.973 180.725
L391.039 179.383
L391.433 179.383
L391.466 177.37
L391.564 177.37
L391.564 176.699
L391.792 176.699
L391.889 174.687
L391.922 174.687
L391.922 173.345
L392.502 173.345
L392.502 172.674
L392.663 172.674
L392.758 171.332
L392.886 171.332
L392.886 169.319
L393.266 169.319
L393.266 165.964
L393.832 165.964
L393.926 164.623
L394.885 164.623
L394.976 162.61
L395.007 162.61
L395.007 161.268
L396.424 161.268
L396.424 160.597
L396.898 160.597
L396.898 159.255
L397.338 159.255
L397.338 158.584
L397.659 158.584
L397.659 157.913
L397.833 157.913
L397.833 156.571
L398.035 156.571
L398.121 153.888
L398.437 153.888
L398.437 153.217
L398.921 153.217
L399.006 151.204
L399.035 151.204
L399.035 149.862
L399.485 149.862
L399.485 149.191
L400.127 149.191
L400.127 147.849
L400.76 147.849
L400.76 147.178
L401.359 147.178
L401.359 145.836
L401.844 145.836
L401.844 144.494
L402.004 144.494
L402.058 143.153
L402.164 143.153
L402.164 141.811
L402.509 141.811
L402.509 141.14
L403.036 141.14
L403.036 140.469
L432.726 140.469
L432.726 139.798
L433.491 139.798
L433.491 139.127
L434 139.127
L434 138.456
L434.489 138.456
L434.489 137.114
L434.661 137.114
L434.661 136.443
L434.775 136.443
L434.775 135.772
L436.333 135.772
L436.333 135.101
L437.333 135.101
L437.333 134.43
L438.923 134.43
L438.923 133.759
L452.343 133.759
L452.343 133.088
L457.326 133.088
L457.326 131.747
L457.932 131.747
L457.932 131.076
L458.378 131.076
L458.378 130.405
L458.757 130.405
L458.757 129.063
L459.018 129.063
L459.018 128.392
L459.152 128.392
L459.178 127.05
L459.419 127.05
L459.419 126.379
L460.352 126.379
L460.352 125.708
L460.5 125.708
L460.5 125.037
L474.265 125.037
L474.265 124.366
L474.79 124.366
L474.79 123.695
L475.047 123.695
L475.047 123.024
L475.401 123.024
L475.499 121.683
L484.406 121.683
L484.406 121.012
L486.349 121.012
L486.349 120.341
L486.507 120.341
L486.507 119.67
L486.781 119.67
L486.813 118.328
L487.143 118.328
L487.143 117.657
L495.396 117.657
L495.396 116.986
L495.87 116.986
L495.87 116.315
L496.182 116.315
L496.182 115.644
L496.353 115.644
L496.379 114.302
L496.663 114.302
L496.663 112.96
L504.29 112.96
L504.29 112.289
L504.459 112.289
L504.459 111.618
L504.694 111.618
L504.735 110.277
L510.385 110.277
L510.385 109.606
L510.88 109.606
L510.88 108.935
L511.305 108.935
L511.305 108.264
L511.433 108.264
L511.433 107.593
L516.771 107.593
L516.771 106.922
L516.966 106.922
L516.966 106.251
L517.601 106.251
L517.601 105.58
L517.807 105.58
L517.807 104.909
L523.3 104.909
L523.3 104.238
L523.324 104.238" style="fill:none;stroke:#ff0000;stroke-linecap:square;stroke-width:1.5;"/>
   </g>
   <g id="line2d_23">
    <defs>
     <path d="
M-6 6
L6 6
L6 -6
L-6 -6
z
" id="m9d489a7eec" style="stroke:#ff0000;stroke-linejoin:miter;stroke-width:1.5;"/>
    </defs>
    <g>
     <use style="fill:none;stroke:#ff0000;stroke-linejoin:miter;stroke-width:1.5;" x="140.873202277" xlink:href="#m9d489a7eec" y="351.814153502"/>
     <use style="fill:none;stroke:#ff0000;stroke-linejoin:miter;stroke-width:1.5;" x="278.694130768" xlink:href="#m9d489a7eec" y="327.66039695"/>
     <use style="fill:none;stroke:#ff0000;stroke-linejoin:miter;stroke-width:1.5;" x="358.23745098" xlink:href="#m9d489a7eec" y="262.579441795"/>
     <use style="fill:none;stroke:#ff0000;stroke-linejoin:miter;stroke-width:1.5;" x="386.922342694" xlink:href="#m9d489a7eec" y="193.472860549"/>
     <use style="fill:none;stroke:#ff0000;stroke-linejoin:miter;stroke-width:1.5;" x="434.660863604" xlink:href="#m9d489a7eec" y="136.443157579"/>
     <use style="fill:none;stroke:#ff0000;stroke-linejoin:miter;stroke-width:1.5;" x="523.300142299" xlink:href="#m9d489a7eec" y="104.238148842"/>
     <use style="fill:none;stroke:#ff0000;stroke-linejoin:miter;stroke-width:1.5;" x="523.32359948" xlink:href="#m9d489a7eec" y="104.238148842"/>
    </g>
   </g>
   <g id="line2d_24"/>
   <g id="line2d_25">
    <path clip-path="url(#pebde201112)" d="
M403.324 140.469" style="fill:none;stroke:#ff0000;stroke-linecap:square;"/>
    <defs>
     <path d="
M-12 12
L12 -12
M-12 -12
L12 12" id="m4e2b024d89" style="stroke:#ff0000;stroke-width:3;"/>
    </defs>
    <g clip-path="url(#pebde201112)">
     <use style="fill:#ff0000;stroke:#ff0000;stroke-width:3;" x="403.32359948" xlink:href="#m4e2b024d89" y="140.468783671"/>
    </g>
   </g>
   <g id="line2d_26">
    <path d="
M523.324 114.022
L562.924 351.68" style="fill:none;stroke:#00bfbf;stroke-linecap:square;stroke-width:1.5;"/>
    <g>
     <use style="fill:none;stroke:#00bfbf;stroke-width:1.5;" x="523.32359948" xlink:href="#m3e4de746de" y="114.021640133"/>
     <use style="fill:none;stroke:#00bfbf;stroke-width:1.5;" x="562.92359948" xlink:href="#m3e4de746de" y="351.679965965"/>
    </g>
   </g>
   <g id="line2d_27">
    <path d="
M523.324 113.099
L562.924 269.557" style="fill:none;stroke:#008000;stroke-linecap:square;stroke-width:1.5;"/>
    <g>
     <use style="fill:none;stroke:#008000;stroke-linejoin:miter;stroke-width:1.5;" x="523.32359948" xlink:href="#m397e16cd68" y="113.099153401"/>
     <use style="fill:none;stroke:#008000;stroke-linejoin:miter;stroke-width:1.5;" x="562.92359948" xlink:href="#m397e16cd68" y="269.557193688"/>
    </g>
   </g>
   <g id="line2d_28">
    <path d="
M523.324 104.238
L562.924 187.434" style="fill:none;stroke:#ff0000;stroke-linecap:square;stroke-width:1.5;"/>
    <g>
     <use style="fill:none;stroke:#ff0000;stroke-linejoin:miter;stroke-width:1.5;" x="523.32359948" xlink:href="#m9d489a7eec" y="104.238148842"/>
     <use style="fill:none;stroke:#ff0000;stroke-linejoin:miter;stroke-width:1.5;" x="562.92359948" xlink:href="#m9d489a7eec" y="187.434421411"/>
    </g>
   </g>
   <g id="line2d_29">
    <path d="
M523.324 102.501
L562.924 105.312" style="fill:none;stroke:#0000ff;stroke-linecap:square;stroke-width:1.5;"/>
    <g>
     <use style="fill:none;stroke:#0000ff;stroke-linejoin:bevel;stroke-width:1.5;" x="523.32359948" xlink:href="#m0933169453" y="102.500899487"/>
     <use style="fill:none;stroke:#0000ff;stroke-linejoin:bevel;stroke-width:1.5;" x="562.92359948" xlink:href="#m0933169453" y="105.311649134"/>
    </g>
   </g>
   <g id="line2d_30">
    <path d="
M523.324 95.516
L562.924 23.1889" style="fill:none;stroke:#000000;stroke-linecap:square;stroke-width:1.5;"/>
    <g>
     <use style="fill:none;stroke:#000000;stroke-width:1.5;" x="523.32359948" xlink:href="#ma42492ef9b" y="95.5159589764"/>
     <use style="fill:none;stroke:#000000;stroke-width:1.5;" x="562.92359948" xlink:href="#ma42492ef9b" y="23.1888768564"/>
    </g>
   </g>
   <g id="line2d_31">
    <path d="
M523.324 358.524
L523.324 16.3453" style="fill:none;stroke:#000000;stroke-linecap:square;"/>
   </g>
   <g id="matplotlib.axis_1">
    <g id="xtick_1">
     <g id="line2d_32">
      <path clip-path="url(#pebde201112)" d="
M163.324 358.524
L163.324 12.9235" style="fill:none;stroke:#000000;stroke-dasharray:1.000000,3.000000;stroke-dashoffset:0.0;stroke-width:0.5;"/>
     </g>
     <g id="line2d_33">
      <defs>
       <path d="
M0 0
L0 -4" id="m93b0483c22" style="stroke:#000000;stroke-width:0.5;"/>
      </defs>
      <g>
       <use style="stroke:#000000;stroke-width:0.5;" x="163.32359948" xlink:href="#m93b0483c22" y="358.523530322"/>
      </g>
     </g>
     <g id="line2d_34">
      <defs>
       <path d="
M0 0
L0 4" id="m741efc42ff" style="stroke:#000000;stroke-width:0.5;"/>
      </defs>
      <g>
       <use style="stroke:#000000;stroke-width:0.5;" x="163.32359948" xlink:href="#m741efc42ff" y="12.9235303218"/>
      </g>
     </g>
     <g id="text_1">
      <!-- 0 -->
      <defs>
       <path d="
M4.15625 35.2969
Q4.15625 48 6.76562 55.7344
Q9.375 63.4844 14.5156 67.6719
Q19.6719 71.875 27.4844 71.875
Q33.25 71.875 37.5938 69.5469
Q41.9375 67.2344 44.7656 62.8594
Q47.6094 58.5 49.2188 52.2188
Q50.8281 45.9531 50.8281 35.2969
Q50.8281 22.7031 48.2344 14.9688
Q45.6562 7.23438 40.5 3
Q35.3594 -1.21875 27.4844 -1.21875
Q17.1406 -1.21875 11.2344 6.20312
Q4.15625 15.1406 4.15625 35.2969
M13.1875 35.2969
Q13.1875 17.6719 17.3125 11.8281
Q21.4375 6 27.4844 6
Q33.5469 6 37.6719 11.8594
Q41.7969 17.7188 41.7969 35.2969
Q41.7969 52.9844 37.6719 58.7812
Q33.5469 64.5938 27.3906 64.5938
Q21.3438 64.5938 17.7188 59.4688
Q13.1875 52.9375 13.1875 35.2969" id="ArialMT-30"/>
      </defs>
      <g transform="translate(158.65641198 376.839155322)scale(0.2 -0.2)">
       <use xlink:href="#ArialMT-30"/>
      </g>
     </g>
    </g>
    <g id="xtick_2">
     <g id="line2d_35">
      <path clip-path="url(#pebde201112)" d="
M283.324 358.524
L283.324 12.9235" style="fill:none;stroke:#000000;stroke-dasharray:1.000000,3.000000;stroke-dashoffset:0.0;stroke-width:0.5;"/>
     </g>
     <g id="line2d_36">
      <g>
       <use style="stroke:#000000;stroke-width:0.5;" x="283.32359948" xlink:href="#m93b0483c22" y="358.523530322"/>
      </g>
     </g>
     <g id="line2d_37">
      <g>
       <use style="stroke:#000000;stroke-width:0.5;" x="283.32359948" xlink:href="#m741efc42ff" y="12.9235303218"/>
      </g>
     </g>
     <g id="text_2">
      <!-- 1 -->
      <defs>
       <path d="
M37.25 0
L28.4688 0
L28.4688 56
Q25.2969 52.9844 20.1406 49.9531
Q14.9844 46.9219 10.8906 45.4062
L10.8906 53.9062
Q18.2656 57.375 23.7812 62.2969
Q29.2969 67.2344 31.5938 71.875
L37.25 71.875
z
" id="ArialMT-31"/>
      </defs>
      <g transform="translate(280.68766198 376.839155322)scale(0.2 -0.2)">
       <use xlink:href="#ArialMT-31"/>
      </g>
     </g>
    </g>
    <g id="xtick_3">
     <g id="line2d_38">
      <path clip-path="url(#pebde201112)" d="
M403.324 358.524
L403.324 12.9235" style="fill:none;stroke:#000000;stroke-dasharray:1.000000,3.000000;stroke-dashoffset:0.0;stroke-width:0.5;"/>
     </g>
     <g id="line2d_39">
      <g>
       <use style="stroke:#000000;stroke-width:0.5;" x="403.32359948" xlink:href="#m93b0483c22" y="358.523530322"/>
      </g>
     </g>
     <g id="line2d_40">
      <g>
       <use style="stroke:#000000;stroke-width:0.5;" x="403.32359948" xlink:href="#m741efc42ff" y="12.9235303218"/>
      </g>
     </g>
     <g id="text_3">
      <!-- 2 -->
      <defs>
       <path d="
M50.3438 8.45312
L50.3438 0
L3.03125 0
Q2.9375 3.17188 4.04688 6.10938
Q5.85938 10.9375 9.82812 15.625
Q13.8125 20.3125 21.3438 26.4688
Q33.0156 36.0312 37.1094 41.625
Q41.2188 47.2188 41.2188 52.2031
Q41.2188 57.4219 37.4688 61
Q33.7344 64.5938 27.7344 64.5938
Q21.3906 64.5938 17.5781 60.7812
Q13.7656 56.9844 13.7188 50.25
L4.6875 51.1719
Q5.60938 61.2812 11.6562 66.5781
Q17.7188 71.875 27.9375 71.875
Q38.2344 71.875 44.2344 66.1562
Q50.25 60.4531 50.25 52
Q50.25 47.7031 48.4844 43.5469
Q46.7344 39.4062 42.6562 34.8125
Q38.5781 30.2188 29.1094 22.2188
Q21.1875 15.5781 18.9375 13.2031
Q16.7031 10.8438 15.2344 8.45312
z
" id="ArialMT-32"/>
      </defs>
      <g transform="translate(398.58297448 376.839155322)scale(0.2 -0.2)">
       <use xlink:href="#ArialMT-32"/>
      </g>
     </g>
    </g>
    <g id="xtick_4">
     <g id="line2d_41">
      <path clip-path="url(#pebde201112)" d="
M523.324 358.524
L523.324 12.9235" style="fill:none;stroke:#000000;stroke-dasharray:1.000000,3.000000;stroke-dashoffset:0.0;stroke-width:0.5;"/>
     </g>
     <g id="line2d_42">
      <g>
       <use style="stroke:#000000;stroke-width:0.5;" x="523.32359948" xlink:href="#m93b0483c22" y="358.523530322"/>
      </g>
     </g>
     <g id="line2d_43">
      <g>
       <use style="stroke:#000000;stroke-width:0.5;" x="523.32359948" xlink:href="#m741efc42ff" y="12.9235303218"/>
      </g>
     </g>
     <g id="text_4">
      <!-- 3 -->
      <defs>
       <path d="
M4.20312 18.8906
L12.9844 20.0625
Q14.5 12.5938 18.1406 9.29688
Q21.7812 6 27 6
Q33.2031 6 37.4688 10.2969
Q41.75 14.5938 41.75 20.9531
Q41.75 27 37.7969 30.9219
Q33.8438 34.8594 27.7344 34.8594
Q25.25 34.8594 21.5312 33.8906
L22.5156 41.6094
Q23.3906 41.5 23.9219 41.5
Q29.5469 41.5 34.0312 44.4219
Q38.5312 47.3594 38.5312 53.4688
Q38.5312 58.2969 35.25 61.4688
Q31.9844 64.6562 26.8125 64.6562
Q21.6875 64.6562 18.2656 61.4219
Q14.8438 58.2031 13.875 51.7656
L5.07812 53.3281
Q6.6875 62.1562 12.3906 67.0156
Q18.1094 71.875 26.6094 71.875
Q32.4688 71.875 37.3906 69.3594
Q42.3281 66.8438 44.9375 62.5
Q47.5625 58.1562 47.5625 53.2656
Q47.5625 48.6406 45.0625 44.8281
Q42.5781 41.0156 37.7031 38.7656
Q44.0469 37.3125 47.5625 32.6875
Q51.0781 28.0781 51.0781 21.1406
Q51.0781 11.7656 44.2344 5.25
Q37.4062 -1.26562 26.9531 -1.26562
Q17.5312 -1.26562 11.2969 4.34375
Q5.07812 9.96875 4.20312 18.8906" id="ArialMT-33"/>
      </defs>
      <g transform="translate(518.63609948 376.839155322)scale(0.2 -0.2)">
       <use xlink:href="#ArialMT-33"/>
      </g>
     </g>
    </g>
    <g id="xtick_5">
     <g id="line2d_44">
      <defs>
       <path d="
M0 0
L0 -2" id="m177f7580d0" style="stroke:#000000;stroke-width:0.5;"/>
      </defs>
      <g>
       <use style="stroke:#000000;stroke-width:0.5;" x="199.447198959" xlink:href="#m177f7580d0" y="358.523530322"/>
      </g>
     </g>
     <g id="line2d_45">
      <defs>
       <path d="
M0 0
L0 2" id="m5284c7e2a0" style="stroke:#000000;stroke-width:0.5;"/>
      </defs>
      <g>
       <use style="stroke:#000000;stroke-width:0.5;" x="199.447198959" xlink:href="#m5284c7e2a0" y="12.9235303218"/>
      </g>
     </g>
    </g>
    <g id="xtick_6">
     <g id="line2d_46">
      <g>
       <use style="stroke:#000000;stroke-width:0.5;" x="220.578150046" xlink:href="#m177f7580d0" y="358.523530322"/>
      </g>
     </g>
     <g id="line2d_47">
      <g>
       <use style="stroke:#000000;stroke-width:0.5;" x="220.578150046" xlink:href="#m5284c7e2a0" y="12.9235303218"/>
      </g>
     </g>
    </g>
    <g id="xtick_7">
     <g id="line2d_48">
      <g>
       <use style="stroke:#000000;stroke-width:0.5;" x="235.570798439" xlink:href="#m177f7580d0" y="358.523530322"/>
      </g>
     </g>
     <g id="line2d_49">
      <g>
       <use style="stroke:#000000;stroke-width:0.5;" x="235.570798439" xlink:href="#m5284c7e2a0" y="12.9235303218"/>
      </g>
     </g>
    </g>
    <g id="xtick_8">
     <g id="line2d_50">
      <g>
       <use style="stroke:#000000;stroke-width:0.5;" x="247.2" xlink:href="#m177f7580d0" y="358.523530322"/>
      </g>
     </g>
     <g id="line2d_51">
      <g>
       <use style="stroke:#000000;stroke-width:0.5;" x="247.2" xlink:href="#m5284c7e2a0" y="12.9235303218"/>
      </g>
     </g>
    </g>
    <g id="xtick_9">
     <g id="line2d_52">
      <g>
       <use style="stroke:#000000;stroke-width:0.5;" x="256.701749526" xlink:href="#m177f7580d0" y="358.523530322"/>
      </g>
     </g>
     <g id="line2d_53">
      <g>
       <use style="stroke:#000000;stroke-width:0.5;" x="256.701749526" xlink:href="#m5284c7e2a0" y="12.9235303218"/>
      </g>
     </g>
    </g>
    <g id="xtick_10">
     <g id="line2d_54">
      <g>
       <use style="stroke:#000000;stroke-width:0.5;" x="264.735364281" xlink:href="#m177f7580d0" y="358.523530322"/>
      </g>
     </g>
     <g id="line2d_55">
      <g>
       <use style="stroke:#000000;stroke-width:0.5;" x="264.735364281" xlink:href="#m5284c7e2a0" y="12.9235303218"/>
      </g>
     </g>
    </g>
    <g id="xtick_11">
     <g id="line2d_56">
      <g>
       <use style="stroke:#000000;stroke-width:0.5;" x="271.694397919" xlink:href="#m177f7580d0" y="358.523530322"/>
      </g>
     </g>
     <g id="line2d_57">
      <g>
       <use style="stroke:#000000;stroke-width:0.5;" x="271.694397919" xlink:href="#m5284c7e2a0" y="12.9235303218"/>
      </g>
     </g>
    </g>
    <g id="xtick_12">
     <g id="line2d_58">
      <g>
       <use style="stroke:#000000;stroke-width:0.5;" x="277.832700612" xlink:href="#m177f7580d0" y="358.523530322"/>
      </g>
     </g>
     <g id="line2d_59">
      <g>
       <use style="stroke:#000000;stroke-width:0.5;" x="277.832700612" xlink:href="#m5284c7e2a0" y="12.9235303218"/>
      </g>
     </g>
    </g>
    <g id="xtick_13">
     <g id="line2d_60">
      <g>
       <use style="stroke:#000000;stroke-width:0.5;" x="319.447198959" xlink:href="#m177f7580d0" y="358.523530322"/>
      </g>
     </g>
     <g id="line2d_61">
      <g>
       <use style="stroke:#000000;stroke-width:0.5;" x="319.447198959" xlink:href="#m5284c7e2a0" y="12.9235303218"/>
      </g>
     </g>
    </g>
    <g id="xtick_14">
     <g id="line2d_62">
      <g>
       <use style="stroke:#000000;stroke-width:0.5;" x="340.578150046" xlink:href="#m177f7580d0" y="358.523530322"/>
      </g>
     </g>
     <g id="line2d_63">
      <g>
       <use style="stroke:#000000;stroke-width:0.5;" x="340.578150046" xlink:href="#m5284c7e2a0" y="12.9235303218"/>
      </g>
     </g>
    </g>
    <g id="xtick_15">
     <g id="line2d_64">
      <g>
       <use style="stroke:#000000;stroke-width:0.5;" x="355.570798439" xlink:href="#m177f7580d0" y="358.523530322"/>
      </g>
     </g>
     <g id="line2d_65">
      <g>
       <use style="stroke:#000000;stroke-width:0.5;" x="355.570798439" xlink:href="#m5284c7e2a0" y="12.9235303218"/>
      </g>
     </g>
    </g>
    <g id="xtick_16">
     <g id="line2d_66">
      <g>
       <use style="stroke:#000000;stroke-width:0.5;" x="367.2" xlink:href="#m177f7580d0" y="358.523530322"/>
      </g>
     </g>
     <g id="line2d_67">
      <g>
       <use style="stroke:#000000;stroke-width:0.5;" x="367.2" xlink:href="#m5284c7e2a0" y="12.9235303218"/>
      </g>
     </g>
    </g>
    <g id="xtick_17">
     <g id="line2d_68">
      <g>
       <use style="stroke:#000000;stroke-width:0.5;" x="376.701749526" xlink:href="#m177f7580d0" y="358.523530322"/>
      </g>
     </g>
     <g id="line2d_69">
      <g>
       <use style="stroke:#000000;stroke-width:0.5;" x="376.701749526" xlink:href="#m5284c7e2a0" y="12.9235303218"/>
      </g>
     </g>
    </g>
    <g id="xtick_18">
     <g id="line2d_70">
      <g>
       <use style="stroke:#000000;stroke-width:0.5;" x="384.735364281" xlink:href="#m177f7580d0" y="358.523530322"/>
      </g>
     </g>
     <g id="line2d_71">
      <g>
       <use style="stroke:#000000;stroke-width:0.5;" x="384.735364281" xlink:href="#m5284c7e2a0" y="12.9235303218"/>
      </g>
     </g>
    </g>
    <g id="xtick_19">
     <g id="line2d_72">
      <g>
       <use style="stroke:#000000;stroke-width:0.5;" x="391.694397919" xlink:href="#m177f7580d0" y="358.523530322"/>
      </g>
     </g>
     <g id="line2d_73">
      <g>
       <use style="stroke:#000000;stroke-width:0.5;" x="391.694397919" xlink:href="#m5284c7e2a0" y="12.9235303218"/>
      </g>
     </g>
    </g>
    <g id="xtick_20">
     <g id="line2d_74">
      <g>
       <use style="stroke:#000000;stroke-width:0.5;" x="397.832700612" xlink:href="#m177f7580d0" y="358.523530322"/>
      </g>
     </g>
     <g id="line2d_75">
      <g>
       <use style="stroke:#000000;stroke-width:0.5;" x="397.832700612" xlink:href="#m5284c7e2a0" y="12.9235303218"/>
      </g>
     </g>
    </g>
    <g id="xtick_21">
     <g id="line2d_76">
      <g>
       <use style="stroke:#000000;stroke-width:0.5;" x="439.447198959" xlink:href="#m177f7580d0" y="358.523530322"/>
      </g>
     </g>
     <g id="line2d_77">
      <g>
       <use style="stroke:#000000;stroke-width:0.5;" x="439.447198959" xlink:href="#m5284c7e2a0" y="12.9235303218"/>
      </g>
     </g>
    </g>
    <g id="xtick_22">
     <g id="line2d_78">
      <g>
       <use style="stroke:#000000;stroke-width:0.5;" x="460.578150046" xlink:href="#m177f7580d0" y="358.523530322"/>
      </g>
     </g>
     <g id="line2d_79">
      <g>
       <use style="stroke:#000000;stroke-width:0.5;" x="460.578150046" xlink:href="#m5284c7e2a0" y="12.9235303218"/>
      </g>
     </g>
    </g>
    <g id="xtick_23">
     <g id="line2d_80">
      <g>
       <use style="stroke:#000000;stroke-width:0.5;" x="475.570798439" xlink:href="#m177f7580d0" y="358.523530322"/>
      </g>
     </g>
     <g id="line2d_81">
      <g>
       <use style="stroke:#000000;stroke-width:0.5;" x="475.570798439" xlink:href="#m5284c7e2a0" y="12.9235303218"/>
      </g>
     </g>
    </g>
    <g id="xtick_24">
     <g id="line2d_82">
      <g>
       <use style="stroke:#000000;stroke-width:0.5;" x="487.2" xlink:href="#m177f7580d0" y="358.523530322"/>
      </g>
     </g>
     <g id="line2d_83">
      <g>
       <use style="stroke:#000000;stroke-width:0.5;" x="487.2" xlink:href="#m5284c7e2a0" y="12.9235303218"/>
      </g>
     </g>
    </g>
    <g id="xtick_25">
     <g id="line2d_84">
      <g>
       <use style="stroke:#000000;stroke-width:0.5;" x="496.701749526" xlink:href="#m177f7580d0" y="358.523530322"/>
      </g>
     </g>
     <g id="line2d_85">
      <g>
       <use style="stroke:#000000;stroke-width:0.5;" x="496.701749526" xlink:href="#m5284c7e2a0" y="12.9235303218"/>
      </g>
     </g>
    </g>
    <g id="xtick_26">
     <g id="line2d_86">
      <g>
       <use style="stroke:#000000;stroke-width:0.5;" x="504.735364281" xlink:href="#m177f7580d0" y="358.523530322"/>
      </g>
     </g>
     <g id="line2d_87">
      <g>
       <use style="stroke:#000000;stroke-width:0.5;" x="504.735364281" xlink:href="#m5284c7e2a0" y="12.9235303218"/>
      </g>
     </g>
    </g>
    <g id="xtick_27">
     <g id="line2d_88">
      <g>
       <use style="stroke:#000000;stroke-width:0.5;" x="511.694397919" xlink:href="#m177f7580d0" y="358.523530322"/>
      </g>
     </g>
     <g id="line2d_89">
      <g>
       <use style="stroke:#000000;stroke-width:0.5;" x="511.694397919" xlink:href="#m5284c7e2a0" y="12.9235303218"/>
      </g>
     </g>
    </g>
    <g id="xtick_28">
     <g id="line2d_90">
      <g>
       <use style="stroke:#000000;stroke-width:0.5;" x="517.832700612" xlink:href="#m177f7580d0" y="358.523530322"/>
      </g>
     </g>
     <g id="line2d_91">
      <g>
       <use style="stroke:#000000;stroke-width:0.5;" x="517.832700612" xlink:href="#m5284c7e2a0" y="12.9235303218"/>
      </g>
     </g>
    </g>
    <g id="xtick_29">
     <g id="line2d_92">
      <g>
       <use style="stroke:#000000;stroke-width:0.5;" x="559.447198959" xlink:href="#m177f7580d0" y="358.523530322"/>
      </g>
     </g>
     <g id="line2d_93">
      <g>
       <use style="stroke:#000000;stroke-width:0.5;" x="559.447198959" xlink:href="#m5284c7e2a0" y="12.9235303218"/>
      </g>
     </g>
    </g>
    <g id="xtick_30">
     <g id="line2d_94">
      <g>
       <use style="stroke:#000000;stroke-width:0.5;" x="580.578150046" xlink:href="#m177f7580d0" y="358.523530322"/>
      </g>
     </g>
     <g id="line2d_95">
      <g>
       <use style="stroke:#000000;stroke-width:0.5;" x="580.578150046" xlink:href="#m5284c7e2a0" y="12.9235303218"/>
      </g>
     </g>
    </g>
    <g id="xtick_31">
     <g id="line2d_96">
      <g>
       <use style="stroke:#000000;stroke-width:0.5;" x="595.570798439" xlink:href="#m177f7580d0" y="358.523530322"/>
      </g>
     </g>
     <g id="line2d_97">
      <g>
       <use style="stroke:#000000;stroke-width:0.5;" x="595.570798439" xlink:href="#m5284c7e2a0" y="12.9235303218"/>
      </g>
     </g>
    </g>
    <g id="xtick_32">
     <g id="line2d_98">
      <g>
       <use style="stroke:#000000;stroke-width:0.5;" x="607.2" xlink:href="#m177f7580d0" y="358.523530322"/>
      </g>
     </g>
     <g id="line2d_99">
      <g>
       <use style="stroke:#000000;stroke-width:0.5;" x="607.2" xlink:href="#m5284c7e2a0" y="12.9235303218"/>
      </g>
     </g>
    </g>
    <g id="text_5">
     <!-- log10 of (# f-evals / dimension) -->
     <defs>
      <path d="
M12.3594 -21.0469
L6.0625 -21.0469
Q20.6562 2.39062 20.6562 25.875
Q20.6562 35.0625 18.5625 44.0938
Q16.8906 51.4219 13.9219 58.1562
Q12.0156 62.5469 6.0625 72.7969
L12.3594 72.7969
Q21.5312 60.5469 25.9219 48.1875
Q29.6875 37.5469 29.6875 25.9219
Q29.6875 12.75 24.625 0.4375
Q19.5781 -11.8594 12.3594 -21.0469" id="ArialMT-29"/>
      <path d="
M40.4375 6.39062
Q35.5469 2.25 31.0312 0.53125
Q26.5156 -1.17188 21.3438 -1.17188
Q12.7969 -1.17188 8.20312 3
Q3.60938 7.17188 3.60938 13.6719
Q3.60938 17.4844 5.34375 20.625
Q7.07812 23.7812 9.89062 25.6875
Q12.7031 27.5938 16.2188 28.5625
Q18.7969 29.25 24.0312 29.8906
Q34.6719 31.1562 39.7031 32.9062
Q39.75 34.7188 39.75 35.2031
Q39.75 40.5781 37.25 42.7812
Q33.8906 45.75 27.25 45.75
Q21.0469 45.75 18.0938 43.5781
Q15.1406 41.4062 13.7188 35.8906
L5.125 37.0625
Q6.29688 42.5781 8.98438 45.9688
Q11.6719 49.3594 16.75 51.1875
Q21.8281 53.0312 28.5156 53.0312
Q35.1562 53.0312 39.2969 51.4688
Q43.4531 49.9062 45.4062 47.5312
Q47.3594 45.1719 48.1406 41.5469
Q48.5781 39.3125 48.5781 33.4531
L48.5781 21.7344
Q48.5781 9.46875 49.1406 6.21875
Q49.7031 2.98438 51.375 0
L42.1875 0
Q40.8281 2.73438 40.4375 6.39062
M39.7031 26.0312
Q34.9062 24.0781 25.3438 22.7031
Q19.9219 21.9219 17.6719 20.9375
Q15.4375 19.9688 14.2031 18.0938
Q12.9844 16.2188 12.9844 13.9219
Q12.9844 10.4062 15.6406 8.0625
Q18.3125 5.71875 23.4375 5.71875
Q28.5156 5.71875 32.4688 7.9375
Q36.4219 10.1562 38.2812 14.0156
Q39.7031 17 39.7031 22.7969
z
" id="ArialMT-61"/>
      <path d="
M4.98438 -4.29688
L13.5312 -5.5625
Q14.0625 -9.51562 16.5 -11.3281
Q19.7812 -13.7656 25.4375 -13.7656
Q31.5469 -13.7656 34.8594 -11.3281
Q38.1875 -8.89062 39.3594 -4.5
Q40.0469 -1.8125 39.9844 6.78125
Q34.2344 0 25.6406 0
Q14.9375 0 9.07812 7.71875
Q3.21875 15.4375 3.21875 26.2188
Q3.21875 33.6406 5.90625 39.9062
Q8.59375 46.1875 13.6875 49.6094
Q18.7969 53.0312 25.6875 53.0312
Q34.8594 53.0312 40.8281 45.6094
L40.8281 51.8594
L48.9219 51.8594
L48.9219 7.03125
Q48.9219 -5.07812 46.4531 -10.125
Q44 -15.1875 38.6406 -18.1094
Q33.2969 -21.0469 25.4844 -21.0469
Q16.2188 -21.0469 10.5 -16.875
Q4.78125 -12.7031 4.98438 -4.29688
M12.25 26.8594
Q12.25 16.6562 16.2969 11.9688
Q20.3594 7.28125 26.4688 7.28125
Q32.5156 7.28125 36.6094 11.9375
Q40.7188 16.6094 40.7188 26.5625
Q40.7188 36.0781 36.5 40.9062
Q32.2812 45.75 26.3125 45.75
Q20.4531 45.75 16.3438 40.9844
Q12.25 36.2344 12.25 26.8594" id="ArialMT-67"/>
      <path d="
M8.6875 0
L8.6875 45.0156
L0.921875 45.0156
L0.921875 51.8594
L8.6875 51.8594
L8.6875 57.375
Q8.6875 62.5938 9.625 65.1406
Q10.8906 68.5625 14.0781 70.6719
Q17.2812 72.7969 23.0469 72.7969
Q26.7656 72.7969 31.25 71.9219
L29.9375 64.2656
Q27.2031 64.75 24.75 64.75
Q20.75 64.75 19.0938 63.0312
Q17.4375 61.3281 17.4375 56.6406
L17.4375 51.8594
L27.5469 51.8594
L27.5469 45.0156
L17.4375 45.0156
L17.4375 0
z
" id="ArialMT-66"/>
      <path d="
M42.0938 16.7031
L51.1719 15.5781
Q49.0312 7.625 43.2188 3.21875
Q37.4062 -1.17188 28.375 -1.17188
Q17 -1.17188 10.3281 5.82812
Q3.65625 12.8438 3.65625 25.4844
Q3.65625 38.5781 10.3906 45.7969
Q17.1406 53.0312 27.875 53.0312
Q38.2812 53.0312 44.875 45.9531
Q51.4688 38.875 51.4688 26.0312
Q51.4688 25.25 51.4219 23.6875
L12.75 23.6875
Q13.2344 15.1406 17.5781 10.5938
Q21.9219 6.0625 28.4219 6.0625
Q33.25 6.0625 36.6719 8.59375
Q40.0938 11.1406 42.0938 16.7031
M13.2344 30.9062
L42.1875 30.9062
Q41.6094 37.4531 38.875 40.7188
Q34.6719 45.7969 27.9844 45.7969
Q21.9219 45.7969 17.7969 41.75
Q13.6719 37.7031 13.2344 30.9062" id="ArialMT-65"/>
      <path d="
M40.2344 0
L40.2344 6.54688
Q35.2969 -1.17188 25.7344 -1.17188
Q19.5312 -1.17188 14.3281 2.25
Q9.125 5.67188 6.26562 11.7969
Q3.42188 17.9219 3.42188 25.875
Q3.42188 33.6406 6 39.9688
Q8.59375 46.2969 13.7656 49.6562
Q18.9531 53.0312 25.3438 53.0312
Q30.0312 53.0312 33.6875 51.0469
Q37.3594 49.0781 39.6562 45.9062
L39.6562 71.5781
L48.3906 71.5781
L48.3906 0
z

M12.4531 25.875
Q12.4531 15.9219 16.6406 10.9844
Q20.8438 6.0625 26.5625 6.0625
Q32.3281 6.0625 36.3438 10.7656
Q40.375 15.4844 40.375 25.1406
Q40.375 35.7969 36.2656 40.7656
Q32.1719 45.75 26.1719 45.75
Q20.3125 45.75 16.375 40.9688
Q12.4531 36.1875 12.4531 25.875" id="ArialMT-64"/>
      <path d="
M0 -1.21875
L20.75 72.7969
L27.7812 72.7969
L7.07812 -1.21875
z
" id="ArialMT-2f"/>
      <path d="
M21 0
L1.26562 51.8594
L10.5469 51.8594
L21.6875 20.7969
Q23.4844 15.7656 25 10.3594
Q26.1719 14.4531 28.2656 20.2188
L39.7969 51.8594
L48.8281 51.8594
L29.2031 0
z
" id="ArialMT-76"/>
      <path d="
M3.17188 21.4844
L3.17188 30.3281
L30.1719 30.3281
L30.1719 21.4844
z
" id="ArialMT-2d"/>
      <path d="
M6.59375 0
L6.59375 51.8594
L14.4531 51.8594
L14.4531 44.5781
Q16.8906 48.3906 20.9375 50.7031
Q25 53.0312 30.1719 53.0312
Q35.9375 53.0312 39.625 50.6406
Q43.3125 48.25 44.8281 43.9531
Q50.9844 53.0312 60.8438 53.0312
Q68.5625 53.0312 72.7031 48.75
Q76.8594 44.4844 76.8594 35.5938
L76.8594 0
L68.1094 0
L68.1094 32.6719
Q68.1094 37.9375 67.25 40.25
Q66.4062 42.5781 64.1562 43.9844
Q61.9219 45.4062 58.8906 45.4062
Q53.4219 45.4062 49.7969 41.7656
Q46.1875 38.1406 46.1875 30.125
L46.1875 0
L37.4062 0
L37.4062 33.6875
Q37.4062 39.5469 35.25 42.4688
Q33.1094 45.4062 28.2188 45.4062
Q24.5156 45.4062 21.3594 43.4531
Q18.2188 41.5 16.7969 37.7344
Q15.375 33.9844 15.375 26.9062
L15.375 0
z
" id="ArialMT-6d"/>
      <path d="
M3.07812 15.4844
L11.7656 16.8438
Q12.5 11.625 15.8438 8.84375
Q19.1875 6.0625 25.2031 6.0625
Q31.25 6.0625 34.1719 8.51562
Q37.1094 10.9844 37.1094 14.3125
Q37.1094 17.2812 34.5156 19
Q32.7188 20.1719 25.5312 21.9688
Q15.875 24.4219 12.1406 26.2031
Q8.40625 27.9844 6.46875 31.125
Q4.54688 34.2812 4.54688 38.0938
Q4.54688 41.5469 6.125 44.5
Q7.71875 47.4688 10.4531 49.4219
Q12.5 50.9219 16.0312 51.9688
Q19.5781 53.0312 23.6406 53.0312
Q29.7344 53.0312 34.3438 51.2656
Q38.9688 49.5156 41.1562 46.5
Q43.3594 43.5 44.1875 38.4844
L35.5938 37.3125
Q35.0156 41.3125 32.2031 43.5469
Q29.3906 45.7969 24.2656 45.7969
Q18.2188 45.7969 15.625 43.7969
Q13.0312 41.7969 13.0312 39.1094
Q13.0312 37.4062 14.1094 36.0312
Q15.1875 34.625 17.4844 33.6875
Q18.7969 33.2031 25.25 31.4531
Q34.5781 28.9531 38.25 27.3594
Q41.9375 25.7812 44.0312 22.75
Q46.1406 19.7344 46.1406 15.2344
Q46.1406 10.8438 43.5781 6.95312
Q41.0156 3.07812 36.1719 0.953125
Q31.3438 -1.17188 25.25 -1.17188
Q15.1406 -1.17188 9.84375 3.03125
Q4.54688 7.23438 3.07812 15.4844" id="ArialMT-73"/>
      <path d="
M6.39062 0
L6.39062 71.5781
L15.1875 71.5781
L15.1875 0
z
" id="ArialMT-6c"/>
      <path d="
M3.32812 25.9219
Q3.32812 40.3281 11.3281 47.2656
Q18.0156 53.0312 27.6406 53.0312
Q38.3281 53.0312 45.1094 46.0156
Q51.9062 39.0156 51.9062 26.6562
Q51.9062 16.6562 48.9062 10.9062
Q45.9062 5.17188 40.1562 2
Q34.4219 -1.17188 27.6406 -1.17188
Q16.75 -1.17188 10.0312 5.8125
Q3.32812 12.7969 3.32812 25.9219
M12.3594 25.9219
Q12.3594 15.9688 16.7031 11.0156
Q21.0469 6.0625 27.6406 6.0625
Q34.1875 6.0625 38.5312 11.0312
Q42.875 16.0156 42.875 26.2188
Q42.875 35.8438 38.5 40.7969
Q34.125 45.75 27.6406 45.75
Q21.0469 45.75 16.7031 40.8125
Q12.3594 35.8906 12.3594 25.9219" id="ArialMT-6f"/>
      <path d="
M6.59375 0
L6.59375 51.8594
L14.5 51.8594
L14.5 44.4844
Q20.2188 53.0312 31 53.0312
Q35.6875 53.0312 39.625 51.3438
Q43.5625 49.6562 45.5156 46.9219
Q47.4688 44.1875 48.25 40.4375
Q48.7344 37.9844 48.7344 31.8906
L48.7344 0
L39.9375 0
L39.9375 31.5469
Q39.9375 36.9219 38.9062 39.5781
Q37.8906 42.2344 35.2812 43.8125
Q32.6719 45.4062 29.1562 45.4062
Q23.5312 45.4062 19.4531 41.8438
Q15.375 38.2812 15.375 28.3281
L15.375 0
z
" id="ArialMT-6e"/>
      <path d="
M23.3906 -21.0469
Q16.1094 -11.8594 11.0781 0.4375
Q6.0625 12.75 6.0625 25.9219
Q6.0625 37.5469 9.8125 48.1875
Q14.2031 60.5469 23.3906 72.7969
L29.6875 72.7969
Q23.7812 62.6406 21.875 58.2969
Q18.8906 51.5625 17.1875 44.2344
Q15.0938 35.1094 15.0938 25.875
Q15.0938 2.39062 29.6875 -21.0469
z
" id="ArialMT-28"/>
      <path d="
M5.03125 -1.21875
L9.28125 19.5781
L1.03125 19.5781
L1.03125 26.8594
L10.75 26.8594
L14.3594 44.5781
L1.03125 44.5781
L1.03125 51.8594
L15.8281 51.8594
L20.0625 72.7969
L27.3906 72.7969
L23.1406 51.8594
L38.5312 51.8594
L42.7812 72.7969
L50.1406 72.7969
L45.9062 51.8594
L54.3438 51.8594
L54.3438 44.5781
L44.4375 44.5781
L40.7656 26.8594
L54.3438 26.8594
L54.3438 19.5781
L39.3125 19.5781
L35.0625 -1.21875
L27.7344 -1.21875
L31.9375 19.5781
L16.6094 19.5781
L12.3594 -1.21875
z

M18.0625 26.8594
L33.4062 26.8594
L37.0625 44.5781
L21.6875 44.5781
z
" id="ArialMT-23"/>
      <path d="
M6.64062 61.4688
L6.64062 71.5781
L15.4375 71.5781
L15.4375 61.4688
z

M6.64062 0
L6.64062 51.8594
L15.4375 51.8594
L15.4375 0
z
" id="ArialMT-69"/>
      <path id="ArialMT-20"/>
     </defs>
     <g transform="translate(263.79734948 398.917592822)scale(0.18 -0.18)">
      <use xlink:href="#ArialMT-6c"/>
      <use x="22.216796875" xlink:href="#ArialMT-6f"/>
      <use x="77.83203125" xlink:href="#ArialMT-67"/>
      <use x="133.447265625" xlink:href="#ArialMT-31"/>
      <use x="189.0625" xlink:href="#ArialMT-30"/>
      <use x="244.677734375" xlink:href="#ArialMT-20"/>
      <use x="272.4609375" xlink:href="#ArialMT-6f"/>
      <use x="328.076171875" xlink:href="#ArialMT-66"/>
      <use x="355.859375" xlink:href="#ArialMT-20"/>
      <use x="383.642578125" xlink:href="#ArialMT-28"/>
      <use x="416.943359375" xlink:href="#ArialMT-23"/>
      <use x="472.55859375" xlink:href="#ArialMT-20"/>
      <use x="500.341796875" xlink:href="#ArialMT-66"/>
      <use x="528.125" xlink:href="#ArialMT-2d"/>
      <use x="561.42578125" xlink:href="#ArialMT-65"/>
      <use x="617.041015625" xlink:href="#ArialMT-76"/>
      <use x="667.041015625" xlink:href="#ArialMT-61"/>
      <use x="722.65625" xlink:href="#ArialMT-6c"/>
      <use x="744.873046875" xlink:href="#ArialMT-73"/>
      <use x="794.873046875" xlink:href="#ArialMT-20"/>
      <use x="822.65625" xlink:href="#ArialMT-2f"/>
      <use x="850.439453125" xlink:href="#ArialMT-20"/>
      <use x="878.22265625" xlink:href="#ArialMT-64"/>
      <use x="933.837890625" xlink:href="#ArialMT-69"/>
      <use x="956.0546875" xlink:href="#ArialMT-6d"/>
      <use x="1039.35546875" xlink:href="#ArialMT-65"/>
      <use x="1094.97070312" xlink:href="#ArialMT-6e"/>
      <use x="1150.5859375" xlink:href="#ArialMT-73"/>
      <use x="1200.5859375" xlink:href="#ArialMT-69"/>
      <use x="1222.80273438" xlink:href="#ArialMT-6f"/>
      <use x="1278.41796875" xlink:href="#ArialMT-6e"/>
      <use x="1334.03320312" xlink:href="#ArialMT-29"/>
     </g>
    </g>
   </g>
   <g id="matplotlib.axis_2">
    <g id="ytick_1">
     <g id="line2d_100">
      <path clip-path="url(#pebde201112)" d="
M163.324 358.524
L609.724 358.524" style="fill:none;stroke:#000000;stroke-dasharray:1.000000,3.000000;stroke-dashoffset:0.0;stroke-width:0.5;"/>
     </g>
     <g id="line2d_101">
      <defs>
       <path d="
M0 0
L4 0" id="m728421d6d4" style="stroke:#000000;stroke-width:0.5;"/>
      </defs>
      <g>
       <use style="stroke:#000000;stroke-width:0.5;" x="163.32359948" xlink:href="#m728421d6d4" y="358.523530322"/>
      </g>
     </g>
     <g id="line2d_102">
      <defs>
       <path d="
M0 0
L-4 0" id="mcb0005524f" style="stroke:#000000;stroke-width:0.5;"/>
      </defs>
      <g>
       <use style="stroke:#000000;stroke-width:0.5;" x="609.72359948" xlink:href="#mcb0005524f" y="358.523530322"/>
      </g>
     </g>
     <g id="text_6">
      <!-- 0.0 -->
      <defs>
       <path d="
M9.07812 0
L9.07812 10.0156
L19.0938 10.0156
L19.0938 0
z
" id="ArialMT-2e"/>
      </defs>
      <g transform="translate(133.31109948 363.693842822)scale(0.2 -0.2)">
       <use xlink:href="#ArialMT-30"/>
       <use x="55.615234375" xlink:href="#ArialMT-2e"/>
       <use x="83.3984375" xlink:href="#ArialMT-30"/>
      </g>
     </g>
    </g>
    <g id="ytick_2">
     <g id="line2d_103">
      <path clip-path="url(#pebde201112)" d="
M163.324 290.088
L609.724 290.088" style="fill:none;stroke:#000000;stroke-dasharray:1.000000,3.000000;stroke-dashoffset:0.0;stroke-width:0.5;"/>
     </g>
     <g id="line2d_104">
      <g>
       <use style="stroke:#000000;stroke-width:0.5;" x="163.32359948" xlink:href="#m728421d6d4" y="290.087886757"/>
      </g>
     </g>
     <g id="line2d_105">
      <g>
       <use style="stroke:#000000;stroke-width:0.5;" x="609.72359948" xlink:href="#mcb0005524f" y="290.087886757"/>
      </g>
     </g>
     <g id="text_7">
      <!-- 0.2 -->
      <g transform="translate(133.40797448 295.258199257)scale(0.2 -0.2)">
       <use xlink:href="#ArialMT-30"/>
       <use x="55.615234375" xlink:href="#ArialMT-2e"/>
       <use x="83.3984375" xlink:href="#ArialMT-32"/>
      </g>
     </g>
    </g>
    <g id="ytick_3">
     <g id="line2d_106">
      <path clip-path="url(#pebde201112)" d="
M163.324 221.652
L609.724 221.652" style="fill:none;stroke:#000000;stroke-dasharray:1.000000,3.000000;stroke-dashoffset:0.0;stroke-width:0.5;"/>
     </g>
     <g id="line2d_107">
      <g>
       <use style="stroke:#000000;stroke-width:0.5;" x="163.32359948" xlink:href="#m728421d6d4" y="221.652243193"/>
      </g>
     </g>
     <g id="line2d_108">
      <g>
       <use style="stroke:#000000;stroke-width:0.5;" x="609.72359948" xlink:href="#mcb0005524f" y="221.652243193"/>
      </g>
     </g>
     <g id="text_8">
      <!-- 0.4 -->
      <defs>
       <path d="
M32.3281 0
L32.3281 17.1406
L1.26562 17.1406
L1.26562 25.2031
L33.9375 71.5781
L41.1094 71.5781
L41.1094 25.2031
L50.7812 25.2031
L50.7812 17.1406
L41.1094 17.1406
L41.1094 0
z

M32.3281 25.2031
L32.3281 57.4688
L9.90625 25.2031
z
" id="ArialMT-34"/>
      </defs>
      <g transform="translate(133.32047448 226.822555693)scale(0.2 -0.2)">
       <use xlink:href="#ArialMT-30"/>
       <use x="55.615234375" xlink:href="#ArialMT-2e"/>
       <use x="83.3984375" xlink:href="#ArialMT-34"/>
      </g>
     </g>
    </g>
    <g id="ytick_4">
     <g id="line2d_109">
      <path clip-path="url(#pebde201112)" d="
M163.324 153.217
L609.724 153.217" style="fill:none;stroke:#000000;stroke-dasharray:1.000000,3.000000;stroke-dashoffset:0.0;stroke-width:0.5;"/>
     </g>
     <g id="line2d_110">
      <g>
       <use style="stroke:#000000;stroke-width:0.5;" x="163.32359948" xlink:href="#m728421d6d4" y="153.216599629"/>
      </g>
     </g>
     <g id="line2d_111">
      <g>
       <use style="stroke:#000000;stroke-width:0.5;" x="609.72359948" xlink:href="#mcb0005524f" y="153.216599629"/>
      </g>
     </g>
     <g id="text_9">
      <!-- 0.6 -->
      <defs>
       <path d="
M49.75 54.0469
L41.0156 53.375
Q39.8438 58.5469 37.7031 60.8906
Q34.125 64.6562 28.9062 64.6562
Q24.7031 64.6562 21.5312 62.3125
Q17.3906 59.2812 14.9844 53.4688
Q12.5938 47.6562 12.5 36.9219
Q15.6719 41.75 20.2656 44.0938
Q24.8594 46.4375 29.8906 46.4375
Q38.6719 46.4375 44.8438 39.9688
Q51.0312 33.5 51.0312 23.25
Q51.0312 16.5 48.125 10.7188
Q45.2188 4.9375 40.1406 1.85938
Q35.0625 -1.21875 28.6094 -1.21875
Q17.625 -1.21875 10.6875 6.85938
Q3.76562 14.9375 3.76562 33.5
Q3.76562 54.25 11.4219 63.6719
Q18.1094 71.875 29.4375 71.875
Q37.8906 71.875 43.2812 67.1406
Q48.6875 62.4062 49.75 54.0469
M13.875 23.1875
Q13.875 18.6562 15.7969 14.5
Q17.7188 10.3594 21.1875 8.17188
Q24.6562 6 28.4688 6
Q34.0312 6 38.0312 10.4844
Q42.0469 14.9844 42.0469 22.7031
Q42.0469 30.125 38.0781 34.3906
Q34.125 38.6719 28.125 38.6719
Q22.1719 38.6719 18.0156 34.3906
Q13.875 30.125 13.875 23.1875" id="ArialMT-36"/>
      </defs>
      <g transform="translate(133.27047448 158.386912129)scale(0.2 -0.2)">
       <use xlink:href="#ArialMT-30"/>
       <use x="55.615234375" xlink:href="#ArialMT-2e"/>
       <use x="83.3984375" xlink:href="#ArialMT-36"/>
      </g>
     </g>
    </g>
    <g id="ytick_5">
     <g id="line2d_112">
      <path clip-path="url(#pebde201112)" d="
M163.324 84.781
L609.724 84.781" style="fill:none;stroke:#000000;stroke-dasharray:1.000000,3.000000;stroke-dashoffset:0.0;stroke-width:0.5;"/>
     </g>
     <g id="line2d_113">
      <g>
       <use style="stroke:#000000;stroke-width:0.5;" x="163.32359948" xlink:href="#m728421d6d4" y="84.7809560644"/>
      </g>
     </g>
     <g id="line2d_114">
      <g>
       <use style="stroke:#000000;stroke-width:0.5;" x="609.72359948" xlink:href="#mcb0005524f" y="84.7809560644"/>
      </g>
     </g>
     <g id="text_10">
      <!-- 0.8 -->
      <defs>
       <path d="
M17.6719 38.8125
Q12.2031 40.8281 9.5625 44.5312
Q6.9375 48.25 6.9375 53.4219
Q6.9375 61.2344 12.5469 66.5469
Q18.1719 71.875 27.4844 71.875
Q36.8594 71.875 42.5781 66.4219
Q48.2969 60.9844 48.2969 53.1719
Q48.2969 48.1875 45.6719 44.5
Q43.0625 40.8281 37.75 38.8125
Q44.3438 36.6719 47.7812 31.875
Q51.2188 27.0938 51.2188 20.4531
Q51.2188 11.2812 44.7188 5.03125
Q38.2344 -1.21875 27.6406 -1.21875
Q17.0469 -1.21875 10.5469 5.04688
Q4.04688 11.3281 4.04688 20.7031
Q4.04688 27.6875 7.59375 32.3906
Q11.1406 37.1094 17.6719 38.8125
M15.9219 53.7188
Q15.9219 48.6406 19.1875 45.4062
Q22.4688 42.1875 27.6875 42.1875
Q32.7656 42.1875 36.0156 45.375
Q39.2656 48.5781 39.2656 53.2188
Q39.2656 58.0625 35.9062 61.3594
Q32.5625 64.6562 27.5938 64.6562
Q22.5625 64.6562 19.2344 61.4219
Q15.9219 58.2031 15.9219 53.7188
M13.0938 20.6562
Q13.0938 16.8906 14.875 13.375
Q16.6562 9.85938 20.1719 7.92188
Q23.6875 6 27.7344 6
Q34.0312 6 38.125 10.0469
Q42.2344 14.1094 42.2344 20.3594
Q42.2344 26.7031 38.0156 30.8594
Q33.7969 35.0156 27.4375 35.0156
Q21.2344 35.0156 17.1562 30.9062
Q13.0938 26.8125 13.0938 20.6562" id="ArialMT-38"/>
      </defs>
      <g transform="translate(133.23297448 89.9512685644)scale(0.2 -0.2)">
       <use xlink:href="#ArialMT-30"/>
       <use x="55.615234375" xlink:href="#ArialMT-2e"/>
       <use x="83.3984375" xlink:href="#ArialMT-38"/>
      </g>
     </g>
    </g>
    <g id="ytick_6">
     <g id="line2d_115">
      <path clip-path="url(#pebde201112)" d="
M163.324 16.3453
L609.724 16.3453" style="fill:none;stroke:#000000;stroke-dasharray:1.000000,3.000000;stroke-dashoffset:0.0;stroke-width:0.5;"/>
     </g>
     <g id="line2d_116">
      <g>
       <use style="stroke:#000000;stroke-width:0.5;" x="163.32359948" xlink:href="#m728421d6d4" y="16.3453125"/>
      </g>
     </g>
     <g id="line2d_117">
      <g>
       <use style="stroke:#000000;stroke-width:0.5;" x="609.72359948" xlink:href="#mcb0005524f" y="16.3453125"/>
      </g>
     </g>
     <g id="text_11">
      <!-- 1.0 -->
      <g transform="translate(134.65797448 21.515625)scale(0.2 -0.2)">
       <use xlink:href="#ArialMT-31"/>
       <use x="55.615234375" xlink:href="#ArialMT-2e"/>
       <use x="83.3984375" xlink:href="#ArialMT-30"/>
      </g>
     </g>
    </g>
    <g id="text_12">
     <!-- Proportion of function+target pairs -->
     <defs>
      <path d="
M40.4375 19
L49.0781 17.875
Q47.6562 8.9375 41.8125 3.875
Q35.9844 -1.17188 27.4844 -1.17188
Q16.8438 -1.17188 10.375 5.78125
Q3.90625 12.75 3.90625 25.7344
Q3.90625 34.125 6.6875 40.4219
Q9.46875 46.7344 15.1562 49.875
Q20.8438 53.0312 27.5469 53.0312
Q35.9844 53.0312 41.3594 48.75
Q46.7344 44.4844 48.25 36.625
L39.7031 35.2969
Q38.4844 40.5312 35.375 43.1562
Q32.2812 45.7969 27.875 45.7969
Q21.2344 45.7969 17.0781 41.0312
Q12.9375 36.2812 12.9375 25.9844
Q12.9375 15.5312 16.9375 10.7969
Q20.9531 6.0625 27.3906 6.0625
Q32.5625 6.0625 36.0312 9.23438
Q39.5 12.4062 40.4375 19" id="ArialMT-63"/>
      <path d="
M25.7812 7.85938
L27.0469 0.09375
Q23.3438 -0.6875 20.4062 -0.6875
Q15.625 -0.6875 12.9844 0.828125
Q10.3594 2.34375 9.28125 4.8125
Q8.20312 7.28125 8.20312 15.1875
L8.20312 45.0156
L1.76562 45.0156
L1.76562 51.8594
L8.20312 51.8594
L8.20312 64.7031
L16.9375 69.9688
L16.9375 51.8594
L25.7812 51.8594
L25.7812 45.0156
L16.9375 45.0156
L16.9375 14.7031
Q16.9375 10.9375 17.4062 9.85938
Q17.875 8.79688 18.9219 8.15625
Q19.9688 7.51562 21.9219 7.51562
Q23.3906 7.51562 25.7812 7.85938" id="ArialMT-74"/>
      <path d="
M40.5781 0
L40.5781 7.625
Q34.5156 -1.17188 24.125 -1.17188
Q19.5312 -1.17188 15.5469 0.578125
Q11.5781 2.34375 9.64062 5
Q7.71875 7.67188 6.9375 11.5312
Q6.39062 14.1094 6.39062 19.7344
L6.39062 51.8594
L15.1875 51.8594
L15.1875 23.0938
Q15.1875 16.2188 15.7188 13.8125
Q16.5469 10.3594 19.2344 8.375
Q21.9219 6.39062 25.875 6.39062
Q29.8281 6.39062 33.2969 8.42188
Q36.7656 10.4531 38.2031 13.9375
Q39.6562 17.4375 39.6562 24.0781
L39.6562 51.8594
L48.4375 51.8594
L48.4375 0
z
" id="ArialMT-75"/>
      <path d="
M7.71875 0
L7.71875 71.5781
L34.7188 71.5781
Q41.8438 71.5781 45.6094 70.9062
Q50.875 70.0156 54.4375 67.5469
Q58.0156 65.0938 60.1875 60.6406
Q62.3594 56.2031 62.3594 50.875
Q62.3594 41.75 56.5469 35.4219
Q50.7344 29.1094 35.5469 29.1094
L17.1875 29.1094
L17.1875 0
z

M17.1875 37.5469
L35.6875 37.5469
Q44.875 37.5469 48.7344 40.9688
Q52.5938 44.3906 52.5938 50.5938
Q52.5938 55.0781 50.3125 58.2656
Q48.0469 61.4688 44.3438 62.5
Q41.9375 63.1406 35.5 63.1406
L17.1875 63.1406
z
" id="ArialMT-50"/>
      <path d="
M6.59375 -19.875
L6.59375 51.8594
L14.5938 51.8594
L14.5938 45.125
Q17.4375 49.0781 21 51.0469
Q24.5625 53.0312 29.6406 53.0312
Q36.2812 53.0312 41.3594 49.6094
Q46.4375 46.1875 49.0156 39.9531
Q51.6094 33.7344 51.6094 26.3125
Q51.6094 18.3594 48.75 11.9844
Q45.9062 5.60938 40.4531 2.21875
Q35.0156 -1.17188 29 -1.17188
Q24.6094 -1.17188 21.1094 0.6875
Q17.625 2.54688 15.375 5.375
L15.375 -19.875
z

M14.5469 25.6406
Q14.5469 15.625 18.5938 10.8438
Q22.6562 6.0625 28.4219 6.0625
Q34.2812 6.0625 38.4531 11.0156
Q42.625 15.9688 42.625 26.375
Q42.625 36.2812 38.5469 41.2031
Q34.4688 46.1406 28.8125 46.1406
Q23.1875 46.1406 18.8594 40.8906
Q14.5469 35.6406 14.5469 25.6406" id="ArialMT-70"/>
      <path d="
M25.0469 11.5781
L25.0469 31.2031
L5.5625 31.2031
L5.5625 39.4062
L25.0469 39.4062
L25.0469 58.8906
L33.3438 58.8906
L33.3438 39.4062
L52.8281 39.4062
L52.8281 31.2031
L33.3438 31.2031
L33.3438 11.5781
z
" id="ArialMT-2b"/>
      <path d="
M6.5 0
L6.5 51.8594
L14.4062 51.8594
L14.4062 44
Q17.4375 49.5156 20 51.2656
Q22.5625 53.0312 25.6406 53.0312
Q30.0781 53.0312 34.6719 50.2031
L31.6406 42.0469
Q28.4219 43.9531 25.2031 43.9531
Q22.3125 43.9531 20.0156 42.2188
Q17.7188 40.4844 16.75 37.4062
Q15.2812 32.7188 15.2812 27.1562
L15.2812 0
z
" id="ArialMT-72"/>
     </defs>
     <g transform="translate(124.44453698 321.197436572)rotate(-90.0)scale(0.18 -0.18)">
      <use xlink:href="#ArialMT-50"/>
      <use x="66.69921875" xlink:href="#ArialMT-72"/>
      <use x="100.0" xlink:href="#ArialMT-6f"/>
      <use x="155.615234375" xlink:href="#ArialMT-70"/>
      <use x="211.23046875" xlink:href="#ArialMT-6f"/>
      <use x="266.845703125" xlink:href="#ArialMT-72"/>
      <use x="300.146484375" xlink:href="#ArialMT-74"/>
      <use x="327.9296875" xlink:href="#ArialMT-69"/>
      <use x="350.146484375" xlink:href="#ArialMT-6f"/>
      <use x="405.76171875" xlink:href="#ArialMT-6e"/>
      <use x="461.376953125" xlink:href="#ArialMT-20"/>
      <use x="489.16015625" xlink:href="#ArialMT-6f"/>
      <use x="544.775390625" xlink:href="#ArialMT-66"/>
      <use x="572.55859375" xlink:href="#ArialMT-20"/>
      <use x="600.341796875" xlink:href="#ArialMT-66"/>
      <use x="628.125" xlink:href="#ArialMT-75"/>
      <use x="683.740234375" xlink:href="#ArialMT-6e"/>
      <use x="739.35546875" xlink:href="#ArialMT-63"/>
      <use x="789.35546875" xlink:href="#ArialMT-74"/>
      <use x="817.138671875" xlink:href="#ArialMT-69"/>
      <use x="839.35546875" xlink:href="#ArialMT-6f"/>
      <use x="894.970703125" xlink:href="#ArialMT-6e"/>
      <use x="950.5859375" xlink:href="#ArialMT-2b"/>
      <use x="1008.984375" xlink:href="#ArialMT-74"/>
      <use x="1036.76757812" xlink:href="#ArialMT-61"/>
      <use x="1092.3828125" xlink:href="#ArialMT-72"/>
      <use x="1125.68359375" xlink:href="#ArialMT-67"/>
      <use x="1181.29882812" xlink:href="#ArialMT-65"/>
      <use x="1236.9140625" xlink:href="#ArialMT-74"/>
      <use x="1264.69726562" xlink:href="#ArialMT-20"/>
      <use x="1292.48046875" xlink:href="#ArialMT-70"/>
      <use x="1348.09570312" xlink:href="#ArialMT-61"/>
      <use x="1403.7109375" xlink:href="#ArialMT-69"/>
      <use x="1425.92773438" xlink:href="#ArialMT-72"/>
      <use x="1459.22851562" xlink:href="#ArialMT-73"/>
     </g>
    </g>
   </g>
   <g id="patch_3">
    <path d="
M163.324 12.9235
L609.724 12.9235" style="fill:none;stroke:#000000;"/>
   </g>
   <g id="patch_4">
    <path d="
M609.724 358.524
L609.724 12.9235" style="fill:none;stroke:#000000;"/>
   </g>
   <g id="patch_5">
    <path d="
M163.324 358.524
L609.724 358.524" style="fill:none;stroke:#000000;"/>
   </g>
   <g id="patch_6">
    <path d="
M163.324 358.524
L163.324 12.9235" style="fill:none;stroke:#000000;"/>
   </g>
   <g id="text_13">
    <!-- 2-D -->
    <defs>
     <path d="
M7.71875 0
L7.71875 71.5781
L32.375 71.5781
Q40.7188 71.5781 45.125 70.5625
Q51.2656 69.1406 55.6094 65.4375
Q61.2812 60.6406 64.0781 53.1875
Q66.8906 45.75 66.8906 36.1875
Q66.8906 28.0312 64.9844 21.7344
Q63.0938 15.4375 60.1094 11.2969
Q57.125 7.17188 53.5781 4.79688
Q50.0469 2.4375 45.0469 1.21875
Q40.0469 0 33.5469 0
z

M17.1875 8.45312
L32.4688 8.45312
Q39.5469 8.45312 43.5781 9.76562
Q47.6094 11.0781 50 13.4844
Q53.375 16.8438 55.25 22.5312
Q57.125 28.2188 57.125 36.3281
Q57.125 47.5625 53.4375 53.5938
Q49.75 59.625 44.4844 61.6719
Q40.6719 63.1406 32.2344 63.1406
L17.1875 63.1406
z
" id="ArialMT-44"/>
    </defs>
    <g transform="translate(570.12359948 355.55770034)scale(0.15 -0.15)">
     <use xlink:href="#ArialMT-32"/>
     <use x="55.615234375" xlink:href="#ArialMT-2d"/>
     <use x="88.916015625" xlink:href="#ArialMT-44"/>
    </g>
   </g>
   <g id="text_14">
    <!-- 3-D -->
    <g transform="translate(570.12359948 273.434928063)scale(0.15 -0.15)">
     <use xlink:href="#ArialMT-33"/>
     <use x="55.615234375" xlink:href="#ArialMT-2d"/>
     <use x="88.916015625" xlink:href="#ArialMT-44"/>
    </g>
   </g>
   <g id="text_15">
    <!-- 20-D -->
    <g transform="translate(570.12359948 191.312155786)scale(0.15 -0.15)">
     <use xlink:href="#ArialMT-32"/>
     <use x="55.615234375" xlink:href="#ArialMT-30"/>
     <use x="111.23046875" xlink:href="#ArialMT-2d"/>
     <use x="144.53125" xlink:href="#ArialMT-44"/>
    </g>
   </g>
   <g id="text_16">
    <!-- 5-D -->
    <defs>
     <path d="
M4.15625 18.75
L13.375 19.5312
Q14.4062 12.7969 18.1406 9.39062
Q21.875 6 27.1562 6
Q33.5 6 37.8906 10.7812
Q42.2812 15.5781 42.2812 23.4844
Q42.2812 31 38.0625 35.3438
Q33.8438 39.7031 27 39.7031
Q22.75 39.7031 19.3281 37.7656
Q15.9219 35.8438 13.9688 32.7656
L5.71875 33.8438
L12.6406 70.6094
L48.25 70.6094
L48.25 62.2031
L19.6719 62.2031
L15.8281 42.9688
Q22.2656 47.4688 29.3438 47.4688
Q38.7188 47.4688 45.1562 40.9688
Q51.6094 34.4688 51.6094 24.2656
Q51.6094 14.5469 45.9531 7.46875
Q39.0625 -1.21875 27.1562 -1.21875
Q17.3906 -1.21875 11.2031 4.25
Q5.03125 9.71875 4.15625 18.75" id="ArialMT-35"/>
    </defs>
    <g transform="translate(570.12359948 109.189383509)scale(0.15 -0.15)">
     <use xlink:href="#ArialMT-35"/>
     <use x="55.615234375" xlink:href="#ArialMT-2d"/>
     <use x="88.916015625" xlink:href="#ArialMT-44"/>
    </g>
   </g>
   <g id="text_17">
    <!-- 10-D -->
    <g transform="translate(570.12359948 27.0666112314)scale(0.15 -0.15)">
     <use xlink:href="#ArialMT-31"/>
     <use x="55.615234375" xlink:href="#ArialMT-30"/>
     <use x="111.23046875" xlink:href="#ArialMT-2d"/>
     <use x="144.53125" xlink:href="#ArialMT-44"/>
    </g>
   </g>
   <g id="text_18">
    <!-- bbob - f6-f9 -->
    <defs>
     <path d="
M14.7031 0
L6.54688 0
L6.54688 71.5781
L15.3281 71.5781
L15.3281 46.0469
Q20.9062 53.0312 29.5469 53.0312
Q34.3281 53.0312 38.5938 51.0938
Q42.875 49.1719 45.625 45.6719
Q48.3906 42.1875 49.9531 37.25
Q51.5156 32.3281 51.5156 26.7031
Q51.5156 13.375 44.9219 6.09375
Q38.3281 -1.17188 29.1094 -1.17188
Q19.9219 -1.17188 14.7031 6.5
z

M14.5938 26.3125
Q14.5938 17 17.1406 12.8438
Q21.2969 6.0625 28.375 6.0625
Q34.125 6.0625 38.3281 11.0625
Q42.5312 16.0625 42.5312 25.9844
Q42.5312 36.1406 38.5 40.9688
Q34.4688 45.7969 28.7656 45.7969
Q23 45.7969 18.7969 40.7969
Q14.5938 35.7969 14.5938 26.3125" id="ArialMT-62"/>
     <path d="
M5.46875 16.5469
L13.9219 17.3281
Q14.9844 11.375 18.0156 8.6875
Q21.0469 6 25.7812 6
Q29.8281 6 32.875 7.85938
Q35.9375 9.71875 37.8906 12.8125
Q39.8438 15.9219 41.1562 21.1875
Q42.4844 26.4688 42.4844 31.9375
Q42.4844 32.5156 42.4375 33.6875
Q39.7969 29.5 35.2344 26.875
Q30.6719 24.2656 25.3438 24.2656
Q16.4531 24.2656 10.2969 30.7031
Q4.15625 37.1562 4.15625 47.7031
Q4.15625 58.5938 10.5781 65.2344
Q17 71.875 26.6562 71.875
Q33.6406 71.875 39.4219 68.1094
Q45.2188 64.3594 48.2188 57.3906
Q51.2188 50.4375 51.2188 37.25
Q51.2188 23.5312 48.2344 15.4062
Q45.2656 7.28125 39.375 3.03125
Q33.5 -1.21875 25.5938 -1.21875
Q17.1875 -1.21875 11.8594 3.4375
Q6.54688 8.10938 5.46875 16.5469
M41.4531 48.1406
Q41.4531 55.7188 37.4219 60.1562
Q33.4062 64.5938 27.7344 64.5938
Q21.875 64.5938 17.5312 59.8125
Q13.1875 55.0312 13.1875 47.4062
Q13.1875 40.5781 17.3125 36.2969
Q21.4375 32.0312 27.4844 32.0312
Q33.5938 32.0312 37.5156 36.2969
Q41.4531 40.5781 41.4531 48.1406" id="ArialMT-39"/>
    </defs>
    <g transform="translate(167.78759948 31.7604459468)scale(0.1666 -0.1666)">
     <use xlink:href="#ArialMT-62"/>
     <use x="55.615234375" xlink:href="#ArialMT-62"/>
     <use x="111.23046875" xlink:href="#ArialMT-6f"/>
     <use x="166.845703125" xlink:href="#ArialMT-62"/>
     <use x="222.4609375" xlink:href="#ArialMT-20"/>
     <use x="250.244140625" xlink:href="#ArialMT-2d"/>
     <use x="283.544921875" xlink:href="#ArialMT-20"/>
     <use x="311.328125" xlink:href="#ArialMT-66"/>
     <use x="339.111328125" xlink:href="#ArialMT-36"/>
     <use x="394.7265625" xlink:href="#ArialMT-2d"/>
     <use x="428.02734375" xlink:href="#ArialMT-66"/>
     <use x="455.810546875" xlink:href="#ArialMT-39"/>
    </g>
    <!-- 31 target RLs/dim: 0.5..50 -->
    <defs>
     <path d="
M7.85938 0
L7.85938 71.5781
L39.5938 71.5781
Q49.1719 71.5781 54.1406 69.6406
Q59.125 67.7188 62.1094 62.8281
Q65.0938 57.9531 65.0938 52.0469
Q65.0938 44.4375 60.1562 39.2031
Q55.2188 33.9844 44.9219 32.5625
Q48.6875 30.7656 50.6406 29
Q54.7812 25.2031 58.5 19.4844
L70.9531 0
L59.0312 0
L49.5625 14.8906
Q45.4062 21.3438 42.7188 24.75
Q40.0469 28.1719 37.9219 29.5312
Q35.7969 30.9062 33.5938 31.4531
Q31.9844 31.7812 28.3281 31.7812
L17.3281 31.7812
L17.3281 0
z

M17.3281 39.9844
L37.7031 39.9844
Q44.1875 39.9844 47.8438 41.3281
Q51.5156 42.6719 53.4219 45.625
Q55.3281 48.5781 55.3281 52.0469
Q55.3281 57.125 51.6406 60.3906
Q47.9531 63.6719 39.9844 63.6719
L17.3281 63.6719
z
" id="ArialMT-52"/>
     <path d="
M9.03125 41.8438
L9.03125 51.8594
L19.0469 51.8594
L19.0469 41.8438
z

M9.03125 0
L9.03125 10.0156
L19.0469 10.0156
L19.0469 0
z
" id="ArialMT-3a"/>
     <path d="
M7.32812 0
L7.32812 71.5781
L16.7969 71.5781
L16.7969 8.45312
L52.0469 8.45312
L52.0469 0
z
" id="ArialMT-4c"/>
    </defs>
    <g transform="translate(167.78759948 49.6251721968)scale(0.1666 -0.1666)">
     <use xlink:href="#ArialMT-33"/>
     <use x="55.615234375" xlink:href="#ArialMT-31"/>
     <use x="111.23046875" xlink:href="#ArialMT-20"/>
     <use x="139.013671875" xlink:href="#ArialMT-74"/>
     <use x="166.796875" xlink:href="#ArialMT-61"/>
     <use x="222.412109375" xlink:href="#ArialMT-72"/>
     <use x="255.712890625" xlink:href="#ArialMT-67"/>
     <use x="311.328125" xlink:href="#ArialMT-65"/>
     <use x="366.943359375" xlink:href="#ArialMT-74"/>
     <use x="394.7265625" xlink:href="#ArialMT-20"/>
     <use x="422.509765625" xlink:href="#ArialMT-52"/>
     <use x="494.7265625" xlink:href="#ArialMT-4c"/>
     <use x="550.341796875" xlink:href="#ArialMT-73"/>
     <use x="600.341796875" xlink:href="#ArialMT-2f"/>
     <use x="628.125" xlink:href="#ArialMT-64"/>
     <use x="683.740234375" xlink:href="#ArialMT-69"/>
     <use x="705.95703125" xlink:href="#ArialMT-6d"/>
     <use x="789.2578125" xlink:href="#ArialMT-3a"/>
     <use x="817.041015625" xlink:href="#ArialMT-20"/>
     <use x="844.82421875" xlink:href="#ArialMT-30"/>
     <use x="900.439453125" xlink:href="#ArialMT-2e"/>
     <use x="928.22265625" xlink:href="#ArialMT-35"/>
     <use x="983.837890625" xlink:href="#ArialMT-2e"/>
     <use x="1011.62109375" xlink:href="#ArialMT-2e"/>
     <use x="1039.40429688" xlink:href="#ArialMT-35"/>
     <use x="1095.01953125" xlink:href="#ArialMT-30"/>
    </g>
    <!--    from refalgs/best2009-bbob.tar.gz -->
    <defs>
     <path d="
M1.95312 0
L1.95312 7.125
L34.9688 45.0156
Q29.3438 44.7344 25.0469 44.7344
L3.90625 44.7344
L3.90625 51.8594
L46.2969 51.8594
L46.2969 46.0469
L18.2188 13.1406
L12.7969 7.125
Q18.7031 7.5625 23.875 7.5625
L47.8594 7.5625
L47.8594 0
z
" id="ArialMT-7a"/>
    </defs>
    <g transform="translate(167.78759948 67.6851328218)scale(0.1666 -0.1666)">
     <use xlink:href="#ArialMT-20"/>
     <use x="27.783203125" xlink:href="#ArialMT-20"/>
     <use x="55.56640625" xlink:href="#ArialMT-20"/>
     <use x="83.349609375" xlink:href="#ArialMT-66"/>
     <use x="111.1328125" xlink:href="#ArialMT-72"/>
     <use x="144.43359375" xlink:href="#ArialMT-6f"/>
     <use x="200.048828125" xlink:href="#ArialMT-6d"/>
     <use x="283.349609375" xlink:href="#ArialMT-20"/>
     <use x="311.1328125" xlink:href="#ArialMT-72"/>
     <use x="344.43359375" xlink:href="#ArialMT-65"/>
     <use x="400.048828125" xlink:href="#ArialMT-66"/>
     <use x="427.83203125" xlink:href="#ArialMT-61"/>
     <use x="483.447265625" xlink:href="#ArialMT-6c"/>
     <use x="505.6640625" xlink:href="#ArialMT-67"/>
     <use x="561.279296875" xlink:href="#ArialMT-73"/>
     <use x="611.279296875" xlink:href="#ArialMT-2f"/>
     <use x="639.0625" xlink:href="#ArialMT-62"/>
     <use x="694.677734375" xlink:href="#ArialMT-65"/>
     <use x="750.29296875" xlink:href="#ArialMT-73"/>
     <use x="800.29296875" xlink:href="#ArialMT-74"/>
     <use x="828.076171875" xlink:href="#ArialMT-32"/>
     <use x="883.69140625" xlink:href="#ArialMT-30"/>
     <use x="939.306640625" xlink:href="#ArialMT-30"/>
     <use x="994.921875" xlink:href="#ArialMT-39"/>
     <use x="1050.53710938" xlink:href="#ArialMT-2d"/>
     <use x="1083.83789062" xlink:href="#ArialMT-62"/>
     <use x="1139.453125" xlink:href="#ArialMT-62"/>
     <use x="1195.06835938" xlink:href="#ArialMT-6f"/>
     <use x="1250.68359375" xlink:href="#ArialMT-62"/>
     <use x="1306.29882812" xlink:href="#ArialMT-2e"/>
     <use x="1334.08203125" xlink:href="#ArialMT-74"/>
     <use x="1361.86523438" xlink:href="#ArialMT-61"/>
     <use x="1417.48046875" xlink:href="#ArialMT-72"/>
     <use x="1445.28125" xlink:href="#ArialMT-2e"/>
     <use x="1473.06445312" xlink:href="#ArialMT-67"/>
     <use x="1528.6796875" xlink:href="#ArialMT-7a"/>
    </g>
    <!-- 15 instances -->
    <g transform="translate(167.78759948 85.5014409468)scale(0.1666 -0.1666)">
     <use xlink:href="#ArialMT-31"/>
     <use x="55.615234375" xlink:href="#ArialMT-35"/>
     <use x="111.23046875" xlink:href="#ArialMT-20"/>
     <use x="139.013671875" xlink:href="#ArialMT-69"/>
     <use x="161.23046875" xlink:href="#ArialMT-6e"/>
     <use x="216.845703125" xlink:href="#ArialMT-73"/>
     <use x="266.845703125" xlink:href="#ArialMT-74"/>
     <use x="294.62890625" xlink:href="#ArialMT-61"/>
     <use x="350.244140625" xlink:href="#ArialMT-6e"/>
     <use x="405.859375" xlink:href="#ArialMT-63"/>
     <use x="455.859375" xlink:href="#ArialMT-65"/>
     <use x="511.474609375" xlink:href="#ArialMT-73"/>
    </g>
   </g>
   <g id="text_19">
    <!-- v2.0.1 -->
    <g style="fill:#808080;" transform="translate(373.88531823 353.080030322)scale(0.1 -0.1)">
     <use xlink:href="#ArialMT-76"/>
     <use x="50.0" xlink:href="#ArialMT-32"/>
     <use x="105.615234375" xlink:href="#ArialMT-2e"/>
     <use x="133.3984375" xlink:href="#ArialMT-30"/>
     <use x="189.013671875" xlink:href="#ArialMT-2e"/>
     <use x="216.796875" xlink:href="#ArialMT-31"/>
    </g>
   </g>
  </g>
 </g>
 <defs>
  <clipPath id="pebde201112">
   <rect height="345.6" width="446.4" x="163.32359948" y="12.9235303218"/>
  </clipPath>
 </defs>
</svg>
