<?xml version="1.0" encoding="utf-8" standalone="no"?>
<!DOCTYPE svg PUBLIC "-//W3C//DTD SVG 1.1//EN"
  "http://www.w3.org/Graphics/SVG/1.1/DTD/svg11.dtd">
<!-- Created with matplotlib (http://matplotlib.org/) -->
<svg height="406pt" version="1.1" viewBox="0 0 460 406" width="460pt" xmlns="http://www.w3.org/2000/svg" xmlns:xlink="http://www.w3.org/1999/xlink">
 <defs>
  <style type="text/css">
*{stroke-linecap:butt;stroke-linejoin:round;}
  </style>
 </defs>
 <g id="figure_1">
  <g id="patch_1">
   <path d="
M0 406.059
L460.8 406.059
L460.8 0
L0 0
z
" style="fill:#ffffff;"/>
  </g>
  <g id="axes_1">
   <g id="patch_2">
    <path d="
M7.2 352.8
L453.6 352.8
L453.6 7.2
L7.2 7.2
z
" style="fill:#ffffff;"/>
   </g>
   <g id="line2d_1">
    <path clip-path="url(#p5bee155178)" d="
M-1 338.543
L-0.29819 338.543
L-0.29819 337.592
L3.75385 337.592
L3.75385 336.642
L4.32443 336.642
L4.32443 335.691
L12.4592 335.691
L12.4592 334.741
L29.0021 334.741
L29.0021 333.79
L29.4871 333.79
L29.4871 332.84
L32.1479 332.84
L32.1479 331.889
L39.2042 331.889
L39.2042 330.939
L49.6245 330.939
L49.6245 329.988
L59.0098 329.988
L59.0098 329.038
L64.2803 329.038
L64.2803 328.087
L73.3589 328.087
L73.3589 327.137
L105.386 327.137
L105.386 326.186
L118.085 326.186
L118.085 325.236
L120.814 325.236
L120.814 324.285
L128.746 324.285
L128.746 323.335
L131.134 323.335
L131.134 322.384
L144.332 322.384
L144.332 321.434
L146.588 321.434
L146.588 320.483
L154.102 320.483
L154.102 319.533
L156.504 319.533
L156.504 318.582
L160.428 318.582
L160.428 317.632
L160.979 317.632
L160.979 316.681
L161.44 316.681
L161.44 315.731
L164.68 315.731
L164.68 314.78
L166.22 314.78
L166.22 313.83
L166.978 313.83
L166.978 312.879
L169.325 312.879
L169.325 311.929
L171.586 311.929
L171.586 310.978
L171.847 310.978
L171.847 310.028
L172.595 310.028
L172.595 309.077
L175.128 309.077
L175.128 308.127
L177.831 308.127
L177.831 307.176
L179.974 307.176
L179.974 306.226
L180.919 306.226
L180.919 305.275
L181.265 305.275
L181.265 304.325
L182.595 304.325
L182.595 303.374
L184.317 303.374
L184.35 301.473
L185.11 301.473
L185.11 300.523
L185.778 300.523
L185.778 299.572
L186.322 299.572
L186.322 298.622
L188.831 298.622
L188.831 297.671
L188.972 297.671
L188.972 296.721
L190.774 296.721
L190.774 295.77
L192.26 295.77
L192.26 294.82
L192.535 294.82
L192.535 293.869
L200.469 293.869
L200.469 292.919
L200.822 292.919
L200.822 291.968
L201.767 291.968
L201.767 291.018
L202.544 291.018
L202.544 290.067
L202.756 290.067
L202.841 288.166
L204.299 288.166
L204.299 287.216
L204.997 287.216
L204.997 286.265
L205.533 286.265
L205.533 285.315
L206.216 285.315
L206.216 284.364
L206.478 284.364
L206.478 283.414
L206.905 283.414
L206.905 282.463
L207.599 282.463
L207.599 281.513
L208.852 281.513
L208.852 280.562
L209.452 280.562
L209.511 278.661
L210.754 278.661
L210.754 277.711
L211.413 277.711
L211.447 275.81
L213.137 275.81
L213.137 274.859
L213.607 274.859
L213.607 273.909
L214.206 273.909
L214.206 272.958
L214.667 272.958
L214.667 272.008
L215.021 272.008
L215.021 271.057
L215.683 271.057
L215.683 270.107
L216.041 270.107
L216.041 269.156
L217.1 269.156
L217.1 268.206
L217.231 268.206
L217.231 267.255
L217.456 267.255
L217.456 266.305
L217.664 266.305
L217.664 265.354
L217.927 265.354
L217.927 264.404
L218.299 264.404
L218.306 262.503
L219.36 262.503
L219.36 261.552
L219.667 261.552
L219.667 260.602
L220.324 260.602
L220.324 259.651
L221.107 259.651
L221.107 258.701
L221.409 258.701
L221.409 257.75
L221.666 257.75
L221.666 256.8
L221.822 256.8
L221.921 252.998
L222.382 252.998
L222.382 252.048
L222.525 252.048
L222.631 247.295
L222.914 247.295
L222.914 246.345
L223.103 246.345
L223.103 245.394
L223.262 245.394
L223.262 244.444
L223.496 244.444
L223.597 241.592
L223.799 241.592
L223.825 239.691
L223.985 239.691
L224.084 237.79
L224.245 237.79
L224.283 235.889
L224.368 235.889
L224.368 234.939
L224.512 234.939
L224.512 233.988
L224.67 233.988
L224.67 233.038
L224.813 233.038
L224.859 229.236
L224.938 229.236
L224.938 228.285
L225.122 228.285
L225.122 227.335
L225.332 227.335
L225.364 225.434
L225.458 225.434
L225.458 224.483
L225.604 224.483
L225.654 220.681
L225.895 220.681
L225.895 219.731
L226.145 219.731
L226.145 218.78
L226.334 218.78
L226.43 215.929
L226.536 215.929
L226.608 211.176
L226.928 211.176
L226.965 209.275
L227.039 209.275
L227.039 208.325
L227.212 208.325
L227.31 205.473
L227.673 205.473
L227.709 203.572
L227.877 203.572
L227.931 201.671
L228.068 201.671
L228.068 200.721
L228.461 200.721
L228.535 198.82
L228.661 198.82
L228.703 196.919
L229.349 196.919
L229.411 195.018
L229.606 195.018
L229.696 193.117
L229.759 193.117
L229.759 192.166
L230.011 192.166
L230.011 191.216
L230.485 191.216
L230.485 190.265
L230.764 190.265
L230.858 188.364
L230.941 188.364
L231.018 186.463
L231.352 186.463
L231.432 184.562
L231.68 184.562
L231.68 183.612
L232.059 183.612
L232.158 181.711
L232.223 181.711
L232.223 180.76
L232.507 180.76
L232.507 179.81
L232.83 179.81
L232.83 178.859
L232.957 178.859
L232.957 177.909
L233.146 177.909
L233.202 175.057
L233.684 175.057
L233.754 173.156
L233.799 173.156
L233.799 172.206
L234.069 172.206
L234.069 171.255
L234.214 171.255
L234.214 170.305
L234.589 170.305
L234.648 166.503
L235.225 166.503
L235.225 165.552
L235.738 165.552
L235.738 164.602
L235.911 164.602
L235.952 162.701
L236.053 162.701
L236.095 159.85
L236.326 159.85
L236.326 158.899
L236.532 158.899
L236.532 157.949
L237.207 157.949
L237.207 156.998
L237.501 156.998
L237.501 156.048
L237.623 156.048
L237.623 155.097
L237.947 155.097
L238 153.196
L238.19 153.196
L238.205 151.295
L238.339 151.295
L238.339 150.345
L239.174 150.345
L239.282 148.444
L239.315 148.444
L239.426 146.543
L240.046 146.543
L240.046 145.592
L240.352 145.592
L240.356 143.691
L240.706 143.691
L240.706 142.741
L240.96 142.741
L241.023 140.84
L241.139 140.84
L241.161 138.939
L241.378 138.939
L241.378 137.988
L241.584 137.988
L241.659 136.087
L241.882 136.087
L241.957 133.236
L242.023 133.236
L242.023 132.285
L242.417 132.285
L242.417 131.335
L242.658 131.335
L242.69 129.434
L242.962 129.434
L242.962 128.483
L243.274 128.483
L243.339 126.582
L243.407 126.582
L243.41 124.681
L243.914 124.681
L243.914 123.731
L244.025 123.731
L244.025 122.78
L244.693 122.78
L244.693 121.83
L245.195 121.83
L245.252 119.929
L245.646 119.929
L245.646 118.978
L245.785 118.978
L245.785 118.028
L246.093 118.028
L246.093 117.077
L246.377 117.077
L246.419 115.176
L246.507 115.176
L246.566 112.325
L247.278 112.325
L247.278 111.374
L247.83 111.374
L247.873 109.473
L247.991 109.473
L247.991 108.523
L248.23 108.523
L248.23 107.572
L248.874 107.572
L248.971 105.671
L249.146 105.671
L249.256 103.77
L249.441 103.77
L249.477 101.869
L249.609 101.869
L249.609 100.919
L250.064 100.919
L250.064 99.9683
L250.227 99.9683
L250.305 98.0673
L250.394 98.0673
L250.444 95.2158
L250.577 95.2158
L250.633 93.3149
L250.94 93.3149
L250.94 92.3644
L251.153 92.3644
L251.217 90.4634
L251.695 90.4634
L251.801 88.5624
L251.908 88.5624
L251.908 87.6119
L252.04 87.6119
L252.04 86.6614
L252.195 86.6614
L252.256 84.7604
L252.318 84.7604
L252.406 80.9584
L252.508 80.9584
L252.508 80.0079
L252.718 80.0079
L252.828 76.2059
L252.845 76.2059
L252.922 74.305
L253.031 74.305
L253.031 73.3545
L253.353 73.3545
L253.353 72.404
L253.687 72.404
L253.687 71.4535
L254.037 71.4535
L254.087 69.5525
L254.222 69.5525
L254.317 66.701
L254.492 66.701
L254.492 65.7505
L254.665 65.7505
L254.665 64.8
L254.817 64.8
L254.817 63.8495
L255.004 63.8495
L255.004 62.899
L255.996 62.899
L255.996 61.9485
L256.471 61.9485
L256.471 60.998
L256.681 60.998
L256.681 60.0475
L257.413 60.0475
L257.413 59.097
L257.531 59.097
L257.531 58.1465
L257.698 58.1465
L257.703 56.2455
L257.888 56.2455
L257.888 55.295
L258.095 55.295
L258.191 52.4436
L258.388 52.4436
L258.474 50.5426
L258.834 50.5426
L258.834 49.5921
L258.965 49.5921
L258.965 48.6416
L259.128 48.6416
L259.128 47.6911
L259.679 47.6911
L259.7 45.7901
L260.382 45.7901
L260.382 44.8396
L260.878 44.8396
L260.878 43.8891
L261.404 43.8891
L261.421 41.9881
L262.546 41.9881
L262.546 41.0376
L262.694 41.0376
L262.694 40.0871
L263.668 40.0871
L263.669 38.1861
L264.342 38.1861
L264.342 37.2356
L264.659 37.2356
L264.675 35.3347
L266.483 35.3347
L266.483 34.3842
L267.453 34.3842
L267.453 33.4337
L269.667 33.4337
L269.667 32.4832
L270.443 32.4832
L270.443 31.5327
L270.629 31.5327
L270.629 30.5822
L274.359 30.5822
L274.359 29.6317
L275.628 29.6317
L275.628 28.6812
L276.115 28.6812
L276.115 27.7307
L276.929 27.7307
L276.929 26.7802
L278.645 26.7802
L278.645 25.8297
L287.102 25.8297
L287.102 24.8792
L291.413 24.8792
L291.413 23.9287
L292.925 23.9287
L292.925 22.9782
L293.897 22.9782
L293.897 22.0277
L296.982 22.0277
L296.982 21.0772
L297.117 21.0772
L297.117 20.1267
L297.238 20.1267
L297.238 19.1762
L299.84 19.1762
L299.84 18.2257
L307.523 18.2257
L307.523 17.2752
L310.261 17.2752
L310.261 16.3248
L311.736 16.3248
L311.736 15.3743
L312.311 15.3743
L312.311 14.4238
L314.106 14.4238
L314.106 13.4733
L316.053 13.4733
L316.053 12.5228
L321.682 12.5228
L321.682 11.5723
L324.77 11.5723
L324.77 10.6218
L324.77 10.6218
L453.6 10.6218
L453.6 10.6218" style="fill:none;stroke:#ff0000;stroke-linecap:square;stroke-width:3.0;"/>
   </g>
   <g id="line2d_2">
    <path clip-path="url(#p5bee155178)" d="
M228.801 352.8
L228.801 351.85
L239.475 351.85
L239.475 350.899
L240.453 350.899
L240.453 349.949
L241.122 349.949
L241.122 348.998
L242.511 348.998
L242.511 348.048
L242.805 348.048
L242.805 347.097
L243.144 347.097
L243.144 346.147
L243.499 346.147
L243.499 345.196
L243.824 345.196
L243.907 343.295
L244.158 343.295
L244.158 342.345
L244.695 342.345
L244.695 341.394
L244.871 341.394
L244.871 340.444
L245.499 340.444
L245.499 339.493
L245.681 339.493
L245.681 338.543
L245.919 338.543
L245.919 337.592
L246.222 337.592
L246.222 336.642
L246.478 336.642
L246.478 335.691
L246.652 335.691
L246.747 333.79
L247.795 333.79
L247.795 332.84
L248.347 332.84
L248.347 331.889
L248.502 331.889
L248.604 329.038
L248.727 329.038
L248.727 328.087
L248.909 328.087
L249.004 326.186
L249.089 326.186
L249.089 325.236
L249.713 325.236
L249.742 322.384
L250.401 322.384
L250.486 320.483
L250.57 320.483
L250.57 319.533
L250.741 319.533
L250.741 318.582
L252.563 318.582
L252.563 317.632
L252.878 317.632
L252.881 315.731
L253.134 315.731
L253.134 314.78
L253.691 314.78
L253.691 313.83
L254.31 313.83
L254.404 310.978
L254.467 310.978
L254.467 310.028
L254.71 310.028
L254.71 309.077
L255.046 309.077
L255.135 305.275
L255.262 305.275
L255.359 303.374
L255.863 303.374
L255.863 302.424
L256.009 302.424
L256.009 301.473
L256.217 301.473
L256.217 300.523
L256.977 300.523
L256.977 299.572
L257.093 299.572
L257.093 298.622
L257.507 298.622
L257.586 296.721
L258.437 296.721
L258.437 295.77
L259.087 295.77
L259.099 293.869
L259.378 293.869
L259.412 291.968
L259.512 291.968
L259.57 290.067
L259.758 290.067
L259.758 289.117
L259.979 289.117
L259.979 288.166
L260.394 288.166
L260.394 287.216
L260.522 287.216
L260.523 285.315
L260.804 285.315
L260.804 284.364
L260.918 284.364
L260.918 283.414
L261.23 283.414
L261.23 282.463
L261.445 282.463
L261.551 280.562
L261.942 280.562
L261.942 279.612
L262.075 279.612
L262.075 278.661
L262.321 278.661
L262.321 277.711
L262.624 277.711
L262.672 275.81
L262.896 275.81
L262.9 272.958
L263.061 272.958
L263.061 272.008
L263.368 272.008
L263.43 270.107
L263.617 270.107
L263.686 267.255
L263.78 267.255
L263.78 266.305
L264.071 266.305
L264.108 264.404
L264.486 264.404
L264.486 263.453
L264.648 263.453
L264.658 261.552
L264.995 261.552
L265.068 258.701
L265.129 258.701
L265.129 257.75
L265.322 257.75
L265.322 256.8
L265.66 256.8
L265.728 254.899
L265.838 254.899
L265.87 252.998
L266.071 252.998
L266.071 252.048
L266.266 252.048
L266.266 251.097
L266.428 251.097
L266.47 249.196
L266.644 249.196
L266.708 244.444
L266.785 244.444
L266.785 243.493
L266.899 243.493
L266.915 240.642
L267.022 240.642
L267.022 239.691
L267.201 239.691
L267.201 238.741
L267.438 238.741
L267.473 236.84
L267.74 236.84
L267.74 234.939
L267.863 234.939
L267.863 233.988
L267.997 233.988
L268.039 232.087
L268.214 232.087
L268.214 231.137
L268.378 231.137
L268.467 228.285
L268.578 228.285
L268.669 224.483
L268.994 224.483
L268.997 222.582
L269.235 222.582
L269.235 221.632
L269.499 221.632
L269.532 219.731
L269.867 219.731
L269.916 217.83
L269.983 217.83
L270.052 214.978
L270.185 214.978
L270.266 212.127
L270.582 212.127
L270.597 210.226
L271.109 210.226
L271.109 209.275
L271.253 209.275
L271.275 206.424
L271.636 206.424
L271.747 203.572
L272.386 203.572
L272.434 201.671
L272.733 201.671
L272.778 199.77
L273.799 199.77
L273.799 198.82
L273.998 198.82
L274.099 196.919
L274.278 196.919
L274.278 195.968
L275.219 195.968
L275.219 195.018
L276.301 195.018
L276.301 194.067
L276.448 194.067
L276.448 193.117
L276.681 193.117
L276.681 192.166
L277.297 192.166
L277.366 189.315
L277.492 189.315
L277.492 188.364
L277.824 188.364
L277.824 187.414
L279.143 187.414
L279.143 186.463
L279.308 186.463
L279.308 185.513
L279.992 185.513
L279.992 184.562
L280.731 184.562
L280.805 182.661
L280.99 182.661
L280.99 181.711
L281.261 181.711
L281.261 180.76
L281.451 180.76
L281.451 179.81
L281.844 179.81
L281.844 178.859
L282.143 178.859
L282.143 177.909
L282.357 177.909
L282.357 176.958
L282.484 176.958
L282.578 174.107
L283.113 174.107
L283.113 173.156
L283.378 173.156
L283.378 172.206
L283.642 172.206
L283.693 169.354
L284.218 169.354
L284.218 168.404
L284.556 168.404
L284.573 166.503
L284.807 166.503
L284.807 165.552
L284.98 165.552
L285.088 163.651
L285.128 163.651
L285.128 162.701
L285.677 162.701
L285.677 161.75
L285.903 161.75
L285.903 160.8
L286.439 160.8
L286.439 159.85
L286.924 159.85
L286.924 158.899
L287.868 158.899
L287.868 157.949
L288.188 157.949
L288.188 156.998
L288.625 156.998
L288.698 155.097
L288.858 155.097
L288.858 154.147
L289.541 154.147
L289.541 153.196
L289.728 153.196
L289.728 152.246
L290.534 152.246
L290.634 150.345
L290.685 150.345
L290.685 149.394
L291.854 149.394
L291.854 148.444
L292.652 148.444
L292.652 147.493
L293.061 147.493
L293.061 146.543
L293.375 146.543
L293.375 145.592
L293.955 145.592
L294.001 143.691
L294.094 143.691
L294.12 141.79
L294.465 141.79
L294.465 140.84
L294.986 140.84
L294.986 139.889
L295.287 139.889
L295.287 138.939
L296.271 138.939
L296.271 137.988
L296.548 137.988
L296.548 137.038
L297.72 137.038
L297.72 136.087
L298.792 136.087
L298.874 134.186
L299.395 134.186
L299.395 133.236
L299.676 133.236
L299.676 132.285
L300.859 132.285
L300.859 131.335
L301.089 131.335
L301.089 130.384
L301.299 130.384
L301.299 129.434
L301.525 129.434
L301.525 128.483
L301.866 128.483
L301.866 127.533
L302.127 127.533
L302.127 126.582
L302.371 126.582
L302.371 125.632
L302.493 125.632
L302.493 124.681
L302.645 124.681
L302.645 123.731
L303.256 123.731
L303.256 122.78
L306.543 122.78
L306.543 121.83
L306.994 121.83
L306.994 120.879
L308.294 120.879
L308.338 118.978
L309.427 118.978
L309.427 118.028
L310.155 118.028
L310.155 117.077
L310.942 117.077
L310.942 116.127
L313.403 116.127
L313.403 115.176
L314.734 115.176
L314.734 114.226
L318.349 114.226
L318.349 113.275
L319.136 113.275
L319.136 112.325
L320.413 112.325
L320.413 111.374
L321.298 111.374
L321.298 110.424
L322.195 110.424
L322.195 109.473
L324.079 109.473
L324.079 108.523
L324.445 108.523
L324.445 107.572
L324.989 107.572
L324.989 106.622
L325.911 106.622
L325.911 105.671
L326.509 105.671
L326.509 104.721
L326.793 104.721
L326.804 102.82
L329.622 102.82
L329.622 101.869
L330.778 101.869
L330.883 99.9683
L330.967 99.9683
L330.967 99.0178
L332.154 99.0178
L332.154 98.0673
L332.383 98.0673
L332.383 97.1168
L333.35 97.1168
L333.35 96.1663
L334.581 96.1663
L334.581 95.2158
L338.855 95.2158
L338.855 94.2653
L339.415 94.2653
L339.415 93.3149
L340.307 93.3149
L340.307 92.3644
L342.164 92.3644
L342.262 90.4634
L342.736 90.4634
L342.736 89.5129
L343.084 89.5129
L343.084 88.5624
L346.296 88.5624
L346.296 87.6119
L347.081 87.6119
L347.081 86.6614
L348.223 86.6614
L348.223 85.7109
L348.733 85.7109
L348.733 84.7604
L349.195 84.7604
L349.195 83.8099
L350.061 83.8099
L350.061 82.8594
L350.747 82.8594
L350.747 81.9089
L350.969 81.9089
L350.969 80.9584
L351.757 80.9584
L351.757 80.0079
L352.024 80.0079
L352.024 79.0574
L352.406 79.0574
L352.462 77.1564
L352.673 77.1564
L352.673 76.2059
L353.105 76.2059
L353.176 74.305
L353.641 74.305
L353.641 73.3545
L355.866 73.3545
L355.866 72.404
L356.58 72.404
L356.58 71.4535
L357.673 71.4535
L357.673 70.503
L359.822 70.503
L359.822 69.5525
L360.328 69.5525
L360.328 68.602
L361.74 68.602
L361.74 67.6515
L365.465 67.6515
L365.465 66.701
L365.74 66.701
L365.74 65.7505
L369.137 65.7505
L369.137 64.8
L371.438 64.8
L371.438 63.8495
L372.126 63.8495
L372.126 62.899
L372.733 62.899
L372.733 61.9485
L374.044 61.9485
L374.044 60.998
L376.238 60.998
L376.238 60.0475
L378.732 60.0475
L378.732 59.097
L380.008 59.097
L380.008 58.1465
L380.12 58.1465
L380.12 57.196
L383.6 57.196
L383.6 56.2455
L385.602 56.2455
L385.602 55.295
L387.181 55.295
L387.181 54.3446
L387.554 54.3446
L387.554 53.3941
L390.026 53.3941
L390.026 52.4436
L390.214 52.4436
L390.244 50.5426
L390.5 50.5426
L390.5 49.5921
L390.718 49.5921
L390.718 48.6416
L391.654 48.6416
L391.654 47.6911
L392.248 47.6911
L392.248 46.7406
L393.046 46.7406
L393.046 45.7901
L393.366 45.7901
L393.366 44.8396
L393.728 44.8396
L393.728 43.8891
L395.328 43.8891
L395.328 42.9386
L395.688 42.9386
L395.688 41.9881
L397.095 41.9881
L397.095 41.0376
L397.711 41.0376
L397.711 40.0871
L398.837 40.0871
L398.837 39.1366
L402.095 39.1366
L402.095 38.1861
L403.308 38.1861
L403.308 37.2356
L405.625 37.2356
L405.625 36.2851
L407.954 36.2851
L407.954 35.3347
L408.478 35.3347
L408.55 33.4337
L408.968 33.4337
L408.968 32.4832
L409.651 32.4832
L409.651 31.5327
L410.018 31.5327
L410.018 30.5822
L410.563 30.5822
L410.563 29.6317
L411.811 29.6317
L411.881 27.7307
L411.966 27.7307
L411.966 26.7802
L412.265 26.7802
L412.265 25.8297
L412.606 25.8297
L412.606 24.8792
L413.947 24.8792
L413.947 23.9287
L415.118 23.9287
L415.118 22.9782
L415.358 22.9782
L415.358 22.0277
L415.828 22.0277
L415.828 21.0772
L416.066 21.0772
L416.066 20.1267
L416.451 20.1267
L416.552 18.2257
L417.716 18.2257
L417.716 17.2752
L420.522 17.2752
L420.522 16.3248
L421.7 16.3248
L421.7 15.3743
L425.731 15.3743
L425.731 14.4238
L432.508 14.4238
L432.508 13.4733
L440.33 13.4733
L440.33 12.5228
L440.627 12.5228
L440.627 11.5723
L440.766 11.5723
L440.766 10.6218
L440.766 10.6218
L453.6 10.6218
L453.6 10.6218" style="fill:none;stroke:#00bfbf;stroke-linecap:square;"/>
   </g>
   <g id="line2d_3">
    <path clip-path="url(#p5bee155178)" d="
M228.801 352.8
L228.801 351.85
L236.815 351.85
L236.815 350.899
L238.074 350.899
L238.074 349.949
L238.205 349.949
L238.205 348.998
L238.366 348.998
L238.366 348.048
L238.582 348.048
L238.582 347.097
L239.475 347.097
L239.538 345.196
L240.201 345.196
L240.201 344.246
L240.353 344.246
L240.453 342.345
L240.561 342.345
L240.561 341.394
L240.733 341.394
L240.733 340.444
L241.122 340.444
L241.122 339.493
L242.081 339.493
L242.081 338.543
L242.511 338.543
L242.511 337.592
L242.805 337.592
L242.805 336.642
L243.138 336.642
L243.138 335.691
L243.465 335.691
L243.465 334.741
L243.824 334.741
L243.928 332.84
L244.158 332.84
L244.209 330.939
L244.276 330.939
L244.276 329.988
L245.102 329.988
L245.102 329.038
L245.499 329.038
L245.531 327.137
L245.681 327.137
L245.681 326.186
L246.222 326.186
L246.222 325.236
L246.486 325.236
L246.576 323.335
L246.747 323.335
L246.792 321.434
L247.105 321.434
L247.175 319.533
L248.158 319.533
L248.158 318.582
L248.347 318.582
L248.347 317.632
L248.502 317.632
L248.604 315.731
L248.727 315.731
L248.727 314.78
L249.089 314.78
L249.162 312.879
L249.812 312.879
L249.812 311.929
L249.971 311.929
L249.971 310.978
L250.083 310.978
L250.083 310.028
L250.57 310.028
L250.57 309.077
L250.741 309.077
L250.741 308.127
L251.304 308.127
L251.304 307.176
L251.442 307.176
L251.443 305.275
L251.779 305.275
L251.779 304.325
L251.949 304.325
L251.968 302.424
L252.266 302.424
L252.266 301.473
L252.563 301.473
L252.563 300.523
L252.776 300.523
L252.859 298.622
L252.983 298.622
L252.983 297.671
L253.473 297.671
L253.473 296.721
L253.691 296.721
L253.691 295.77
L254.467 295.77
L254.467 294.82
L254.626 294.82
L254.71 292.919
L255.262 292.919
L255.359 289.117
L255.659 289.117
L255.659 288.166
L255.862 288.166
L255.863 286.265
L256.977 286.265
L257.052 283.414
L257.093 283.414
L257.111 281.513
L257.242 281.513
L257.242 280.562
L257.586 280.562
L257.611 278.661
L257.912 278.661
L258.01 276.76
L258.239 276.76
L258.239 275.81
L258.421 275.81
L258.421 274.859
L258.535 274.859
L258.535 273.909
L258.9 273.909
L258.9 272.958
L259.027 272.958
L259.111 269.156
L259.318 269.156
L259.412 267.255
L259.965 267.255
L259.979 265.354
L260.111 265.354
L260.111 264.404
L260.226 264.404
L260.226 263.453
L260.365 263.453
L260.365 262.503
L260.522 262.503
L260.531 259.651
L260.822 259.651
L260.822 258.701
L261.23 258.701
L261.297 256.8
L261.39 256.8
L261.445 254.899
L261.519 254.899
L261.627 252.048
L261.686 252.048
L261.686 251.097
L261.89 251.097
L261.993 249.196
L262.321 249.196
L262.321 248.246
L262.897 248.246
L262.906 245.394
L263.061 245.394
L263.061 244.444
L263.331 244.444
L263.395 242.543
L263.768 242.543
L263.836 240.642
L264.062 240.642
L264.076 237.79
L264.242 237.79
L264.341 235.889
L264.444 235.889
L264.54 233.988
L264.658 233.988
L264.716 232.087
L265.129 232.087
L265.129 231.137
L265.325 231.137
L265.334 229.236
L265.471 229.236
L265.581 227.335
L265.669 227.335
L265.704 225.434
L265.838 225.434
L265.944 222.582
L266.071 222.582
L266.111 220.681
L266.282 220.681
L266.387 217.83
L266.559 217.83
L266.644 215.929
L266.689 215.929
L266.689 214.978
L266.822 214.978
L266.915 213.077
L267.086 213.077
L267.086 212.127
L267.242 212.127
L267.337 210.226
L267.438 210.226
L267.507 207.374
L267.735 207.374
L267.735 206.424
L268.083 206.424
L268.083 205.473
L268.214 205.473
L268.214 204.523
L268.341 204.523
L268.378 202.622
L268.578 202.622
L268.578 201.671
L268.994 201.671
L268.994 200.721
L269.235 200.721
L269.235 199.77
L269.387 199.77
L269.467 197.869
L269.525 197.869
L269.525 196.919
L269.867 196.919
L269.929 195.018
L270.266 195.018
L270.266 194.067
L271.233 194.067
L271.275 190.265
L271.439 190.265
L271.439 189.315
L271.727 189.315
L271.727 188.364
L271.95 188.364
L271.95 187.414
L272.778 187.414
L272.778 186.463
L272.905 186.463
L272.905 185.513
L273.071 185.513
L273.071 184.562
L273.959 184.562
L273.959 183.612
L274.708 183.612
L274.708 182.661
L275.21 182.661
L275.21 181.711
L275.553 181.711
L275.553 180.76
L275.937 180.76
L275.971 178.859
L276.448 178.859
L276.448 177.909
L276.696 177.909
L276.806 175.057
L276.83 175.057
L276.932 173.156
L277.271 173.156
L277.366 171.255
L277.492 171.255
L277.492 170.305
L277.62 170.305
L277.62 169.354
L277.793 169.354
L277.793 168.404
L278.073 168.404
L278.073 167.453
L278.532 167.453
L278.532 166.503
L278.94 166.503
L278.94 165.552
L280.25 165.552
L280.25 164.602
L280.731 164.602
L280.731 163.651
L280.973 163.651
L280.973 162.701
L281.202 162.701
L281.261 159.85
L281.464 159.85
L281.464 158.899
L281.803 158.899
L281.803 157.949
L282.026 157.949
L282.045 156.048
L282.143 156.048
L282.143 155.097
L282.443 155.097
L282.519 153.196
L282.742 153.196
L282.742 152.246
L283.693 152.246
L283.693 151.295
L283.866 151.295
L283.866 150.345
L285.088 150.345
L285.128 148.444
L285.404 148.444
L285.404 147.493
L285.926 147.493
L285.926 146.543
L286.309 146.543
L286.309 145.592
L288.229 145.592
L288.229 144.642
L288.772 144.642
L288.772 143.691
L289.728 143.691
L289.728 142.741
L290.139 142.741
L290.139 141.79
L291.042 141.79
L291.042 140.84
L291.854 140.84
L291.854 139.889
L292.017 139.889
L292.017 138.939
L293.1 138.939
L293.1 137.988
L293.375 137.988
L293.375 137.038
L293.763 137.038
L293.853 135.137
L293.955 135.137
L293.955 134.186
L295.1 134.186
L295.1 133.236
L296.271 133.236
L296.271 132.285
L296.526 132.285
L296.548 130.384
L297.568 130.384
L297.568 129.434
L298.465 129.434
L298.465 128.483
L298.874 128.483
L298.874 127.533
L299.146 127.533
L299.146 126.582
L299.395 126.582
L299.415 124.681
L300.859 124.681
L300.861 122.78
L301.089 122.78
L301.113 120.879
L301.299 120.879
L301.299 119.929
L301.866 119.929
L301.866 118.978
L302.552 118.978
L302.645 117.077
L303.668 117.077
L303.668 116.127
L305.925 116.127
L305.925 115.176
L306.994 115.176
L306.994 114.226
L308.294 114.226
L308.338 112.325
L309.221 112.325
L309.221 111.374
L310.155 111.374
L310.155 110.424
L310.942 110.424
L310.942 109.473
L312.793 109.473
L312.793 108.523
L313.403 108.523
L313.403 107.572
L314.352 107.572
L314.352 106.622
L314.734 106.622
L314.734 105.671
L314.964 105.671
L314.964 104.721
L318.358 104.721
L318.358 103.77
L320.423 103.77
L320.423 102.82
L320.746 102.82
L320.746 101.869
L321.947 101.869
L321.947 100.919
L322.195 100.919
L322.195 99.9683
L322.681 99.9683
L322.681 99.0178
L322.981 99.0178
L322.981 98.0673
L323.366 98.0673
L323.366 97.1168
L324.079 97.1168
L324.079 96.1663
L324.379 96.1663
L324.379 95.2158
L325.599 95.2158
L325.599 94.2653
L325.911 94.2653
L325.911 93.3149
L326.574 93.3149
L326.574 92.3644
L327.265 92.3644
L327.265 91.4139
L329.094 91.4139
L329.094 90.4634
L329.622 90.4634
L329.622 89.5129
L330.277 89.5129
L330.277 88.5624
L330.967 88.5624
L330.967 87.6119
L331.586 87.6119
L331.586 86.6614
L332.154 86.6614
L332.154 85.7109
L332.383 85.7109
L332.383 84.7604
L333.5 84.7604
L333.5 83.8099
L334.912 83.8099
L334.912 82.8594
L335.252 82.8594
L335.252 81.9089
L337.763 81.9089
L337.763 80.9584
L338.337 80.9584
L338.337 80.0079
L338.76 80.0079
L338.76 79.0574
L339.126 79.0574
L339.126 78.1069
L339.415 78.1069
L339.415 77.1564
L340.284 77.1564
L340.284 76.2059
L341.041 76.2059
L341.041 75.2554
L341.739 75.2554
L341.739 74.305
L341.856 74.305
L341.856 73.3545
L342.262 73.3545
L342.262 72.404
L343.084 72.404
L343.084 71.4535
L346.296 71.4535
L346.296 70.503
L348.733 70.503
L348.733 69.5525
L349.195 69.5525
L349.195 68.602
L351.384 68.602
L351.384 67.6515
L352.462 67.6515
L352.462 66.701
L352.856 66.701
L352.856 65.7505
L352.994 65.7505
L353.105 63.8495
L353.176 63.8495
L353.176 62.899
L355.452 62.899
L355.452 61.9485
L357.673 61.9485
L357.694 60.0475
L358.08 60.0475
L358.08 59.097
L358.893 59.097
L358.893 58.1465
L361.74 58.1465
L361.74 57.196
L361.879 57.196
L361.879 56.2455
L364.242 56.2455
L364.242 55.295
L367.029 55.295
L367.106 53.3941
L367.464 53.3941
L367.464 52.4436
L367.812 52.4436
L367.812 51.4931
L368.99 51.4931
L368.99 50.5426
L372.126 50.5426
L372.126 49.5921
L373.743 49.5921
L373.743 48.6416
L375.437 48.6416
L375.479 46.7406
L376.224 46.7406
L376.224 45.7901
L378.636 45.7901
L378.636 44.8396
L381.798 44.8396
L381.798 43.8891
L382.379 43.8891
L382.379 42.9386
L386.841 42.9386
L386.841 41.9881
L386.996 41.9881
L387.066 40.0871
L387.181 40.0871
L387.181 39.1366
L387.554 39.1366
L387.554 38.1861
L389.308 38.1861
L389.308 37.2356
L390.214 37.2356
L390.214 36.2851
L391.654 36.2851
L391.67 34.3842
L392.734 34.3842
L392.734 33.4337
L393.636 33.4337
L393.636 32.4832
L395.532 32.4832
L395.532 31.5327
L397.457 31.5327
L397.457 30.5822
L398.356 30.5822
L398.356 29.6317
L402.095 29.6317
L402.095 28.6812
L402.269 28.6812
L402.269 27.7307
L403.462 27.7307
L403.462 26.7802
L405.44 26.7802
L405.44 25.8297
L407.954 25.8297
L407.954 24.8792
L408.968 24.8792
L408.968 23.9287
L410.413 23.9287
L410.413 22.9782
L411.413 22.9782
L411.413 22.0277
L412.265 22.0277
L412.265 21.0772
L412.606 21.0772
L412.606 20.1267
L414.588 20.1267
L414.588 19.1762
L415.118 19.1762
L415.118 18.2257
L415.298 18.2257
L415.298 17.2752
L415.425 17.2752
L415.425 16.3248
L416.066 16.3248
L416.066 15.3743
L416.76 15.3743
L416.76 14.4238
L421.7 14.4238
L421.7 13.4733
L425.731 13.4733
L425.731 12.5228
L427.101 12.5228
L427.101 11.5723
L440.766 11.5723
L440.766 10.6218
L440.766 10.6218
L453.6 10.6218
L453.6 10.6218" style="fill:none;stroke:#bf00bf;stroke-linecap:square;"/>
   </g>
   <g id="line2d_4">
    <path clip-path="url(#p5bee155178)" d="
M228.801 352.8
L228.801 351.85
L230.605 351.85
L230.605 350.899
L233.147 350.899
L233.147 349.949
L233.353 349.949
L233.353 348.998
L235.31 348.998
L235.31 348.048
L236.685 348.048
L236.685 347.097
L236.815 347.097
L236.815 346.147
L236.981 346.147
L236.981 345.196
L238.074 345.196
L238.136 343.295
L238.205 343.295
L238.205 342.345
L238.366 342.345
L238.366 341.394
L238.582 341.394
L238.582 340.444
L239.475 340.444
L239.542 338.543
L239.883 338.543
L239.883 337.592
L240.064 337.592
L240.082 335.691
L240.201 335.691
L240.201 334.741
L240.561 334.741
L240.561 333.79
L240.733 333.79
L240.821 331.889
L241.122 331.889
L241.122 330.939
L241.644 330.939
L241.644 329.988
L241.925 329.988
L242.021 328.087
L242.081 328.087
L242.081 327.137
L242.287 327.137
L242.287 326.186
L242.511 326.186
L242.511 325.236
L242.805 325.236
L242.805 324.285
L242.927 324.285
L242.955 322.384
L243.41 322.384
L243.465 320.483
L243.824 320.483
L243.928 318.582
L244.158 318.582
L244.209 316.681
L244.404 316.681
L244.404 315.731
L244.65 315.731
L244.735 312.879
L244.773 312.879
L244.773 311.929
L245.235 311.929
L245.235 310.978
L245.681 310.978
L245.681 310.028
L245.848 310.028
L245.848 309.077
L246.222 309.077
L246.222 308.127
L246.486 308.127
L246.576 305.275
L246.747 305.275
L246.747 304.325
L247.175 304.325
L247.175 303.374
L247.708 303.374
L247.708 302.424
L248.604 302.424
L248.625 300.523
L248.897 300.523
L248.897 299.572
L249.162 299.572
L249.162 298.622
L249.485 298.622
L249.513 296.721
L249.665 296.721
L249.665 295.77
L249.94 295.77
L250.011 293.869
L250.623 293.869
L250.677 291.968
L251.186 291.968
L251.186 291.018
L251.322 291.018
L251.408 289.117
L251.442 289.117
L251.443 287.216
L251.559 287.216
L251.559 286.265
L251.779 286.265
L251.779 285.315
L251.968 285.315
L251.968 284.364
L252.241 284.364
L252.241 283.414
L252.477 283.414
L252.563 281.513
L252.609 281.513
L252.609 280.562
L252.776 280.562
L252.859 278.661
L252.983 278.661
L252.983 277.711
L253.133 277.711
L253.133 276.76
L253.446 276.76
L253.446 275.81
L253.598 275.81
L253.598 274.859
L253.828 274.859
L253.828 273.909
L253.994 273.909
L253.994 272.958
L254.547 272.958
L254.642 271.057
L254.706 271.057
L254.712 269.156
L255.037 269.156
L255.037 268.206
L255.327 268.206
L255.359 264.404
L255.61 264.404
L255.61 263.453
L255.725 263.453
L255.725 262.503
L256.435 262.503
L256.529 259.651
L256.844 259.651
L256.874 257.75
L257.049 257.75
L257.111 255.85
L257.242 255.85
L257.242 254.899
L257.912 254.899
L258.01 252.998
L258.058 252.998
L258.058 252.048
L258.231 252.048
L258.231 251.097
L258.37 251.097
L258.459 248.246
L259.027 248.246
L259.111 245.394
L259.412 245.394
L259.412 244.444
L259.691 244.444
L259.691 243.493
L259.954 243.493
L259.979 241.592
L260.126 241.592
L260.126 240.642
L260.522 240.642
L260.593 238.741
L260.822 238.741
L260.901 236.84
L261.445 236.84
L261.445 235.889
L261.627 235.889
L261.665 233.988
L261.89 233.988
L261.993 230.186
L262.123 230.186
L262.123 229.236
L262.725 229.236
L262.725 228.285
L262.9 228.285
L262.9 227.335
L263.061 227.335
L263.069 225.434
L263.511 225.434
L263.511 224.483
L263.836 224.483
L263.836 223.533
L264.071 223.533
L264.076 221.632
L264.341 221.632
L264.341 220.681
L264.527 220.681
L264.54 218.78
L264.658 218.78
L264.716 216.879
L264.82 216.879
L264.84 214.978
L265.212 214.978
L265.212 214.028
L265.334 214.028
L265.349 212.127
L265.581 212.127
L265.684 210.226
L265.801 210.226
L265.84 207.374
L265.984 207.374
L266.071 205.473
L266.103 205.473
L266.199 202.622
L266.282 202.622
L266.392 198.82
L266.87 198.82
L266.915 196.919
L267.099 196.919
L267.192 195.018
L267.242 195.018
L267.242 194.067
L267.835 194.067
L267.835 193.117
L268.087 193.117
L268.087 192.166
L268.214 192.166
L268.214 191.216
L268.341 191.216
L268.341 190.265
L268.453 190.265
L268.46 187.414
L268.62 187.414
L268.693 185.513
L269.182 185.513
L269.25 181.711
L269.467 181.711
L269.467 180.76
L271.3 180.76
L271.3 179.81
L271.727 179.81
L271.727 178.859
L271.88 178.859
L271.88 177.909
L272.268 177.909
L272.287 176.008
L272.446 176.008
L272.446 175.057
L272.878 175.057
L272.905 173.156
L273.071 173.156
L273.071 172.206
L273.306 172.206
L273.306 171.255
L273.566 171.255
L273.566 170.305
L273.922 170.305
L273.922 169.354
L274.131 169.354
L274.131 168.404
L274.984 168.404
L274.984 167.453
L275.202 167.453
L275.21 165.552
L275.553 165.552
L275.553 164.602
L275.971 164.602
L275.971 163.651
L276.499 163.651
L276.511 161.75
L276.696 161.75
L276.806 157.949
L276.83 157.949
L276.83 156.998
L277.015 156.998
L277.015 156.048
L277.492 156.048
L277.531 153.196
L277.793 153.196
L277.793 152.246
L278.073 152.246
L278.13 150.345
L278.197 150.345
L278.197 149.394
L278.44 149.394
L278.528 147.493
L279.03 147.493
L279.03 146.543
L279.275 146.543
L279.275 145.592
L280.069 145.592
L280.069 144.642
L280.25 144.642
L280.25 143.691
L280.897 143.691
L280.897 142.741
L281.114 142.741
L281.202 139.889
L281.239 139.889
L281.326 137.988
L281.759 137.988
L281.759 137.038
L282.742 137.038
L282.742 136.087
L283.061 136.087
L283.061 135.137
L283.393 135.137
L283.393 134.186
L283.759 134.186
L283.759 133.236
L284.28 133.236
L284.28 132.285
L284.742 132.285
L284.742 131.335
L285.081 131.335
L285.081 130.384
L285.197 130.384
L285.197 129.434
L288.284 129.434
L288.284 128.483
L288.772 128.483
L288.772 127.533
L290.665 127.533
L290.665 126.582
L291.042 126.582
L291.042 125.632
L291.218 125.632
L291.218 124.681
L291.528 124.681
L291.528 123.731
L292.871 123.731
L292.871 122.78
L293.695 122.78
L293.763 120.879
L293.853 120.879
L293.955 118.978
L295.035 118.978
L295.1 117.077
L295.445 117.077
L295.445 116.127
L295.865 116.127
L295.865 115.176
L297.223 115.176
L297.223 114.226
L297.852 114.226
L297.852 113.275
L298.874 113.275
L298.874 112.325
L300.184 112.325
L300.276 110.424
L300.861 110.424
L300.861 109.473
L302.552 109.473
L302.552 108.523
L303.668 108.523
L303.668 107.572
L306.994 107.572
L306.994 106.622
L308.294 106.622
L308.338 104.721
L309.249 104.721
L309.249 103.77
L310.155 103.77
L310.155 102.82
L310.942 102.82
L310.942 101.869
L311.48 101.869
L311.48 100.919
L312.745 100.919
L312.793 99.0178
L313.508 99.0178
L313.508 98.0673
L313.886 98.0673
L313.886 97.1168
L314.352 97.1168
L314.352 96.1663
L314.964 96.1663
L314.964 95.2158
L316.767 95.2158
L316.767 94.2653
L316.904 94.2653
L316.904 93.3149
L317.02 93.3149
L317.02 92.3644
L318.305 92.3644
L318.358 90.4634
L320.423 90.4634
L320.423 89.5129
L320.746 89.5129
L320.746 88.5624
L321.808 88.5624
L321.808 87.6119
L322.681 87.6119
L322.793 85.7109
L322.981 85.7109
L322.981 84.7604
L323.366 84.7604
L323.366 83.8099
L323.573 83.8099
L323.573 82.8594
L326.574 82.8594
L326.574 81.9089
L328.108 81.9089
L328.108 80.9584
L328.234 80.9584
L328.234 80.0079
L329.094 80.0079
L329.094 79.0574
L329.648 79.0574
L329.648 78.1069
L330.225 78.1069
L330.277 76.2059
L331.586 76.2059
L331.586 75.2554
L333.631 75.2554
L333.631 74.305
L333.94 74.305
L333.94 73.3545
L335.252 73.3545
L335.252 72.404
L337.763 72.404
L337.763 71.4535
L338.337 71.4535
L338.337 70.503
L339.26 70.503
L339.26 69.5525
L340.284 69.5525
L340.284 68.602
L341.739 68.602
L341.739 67.6515
L341.856 67.6515
L341.856 66.701
L342.298 66.701
L342.298 65.7505
L342.634 65.7505
L342.634 64.8
L343.37 64.8
L343.37 63.8495
L343.612 63.8495
L343.612 62.899
L345.479 62.899
L345.479 61.9485
L347.57 61.9485
L347.57 60.998
L349.195 60.998
L349.195 60.0475
L351.384 60.0475
L351.384 59.097
L352.462 59.097
L352.462 58.1465
L352.856 58.1465
L352.856 57.196
L353.176 57.196
L353.176 56.2455
L354.143 56.2455
L354.143 55.295
L356.209 55.295
L356.29 52.4436
L356.559 52.4436
L356.559 51.4931
L358.08 51.4931
L358.08 50.5426
L358.893 50.5426
L358.893 49.5921
L359.366 49.5921
L359.366 48.6416
L360.264 48.6416
L360.264 47.6911
L361.879 47.6911
L361.879 46.7406
L365.617 46.7406
L365.617 45.7901
L366.384 45.7901
L366.384 44.8396
L367.464 44.8396
L367.464 43.8891
L367.812 43.8891
L367.875 41.9881
L369.205 41.9881
L369.205 41.0376
L371.222 41.0376
L371.222 40.0871
L372.071 40.0871
L372.126 38.1861
L372.5 38.1861
L372.5 37.2356
L372.696 37.2356
L372.696 36.2851
L373.743 36.2851
L373.743 35.3347
L374.444 35.3347
L374.444 34.3842
L378.636 34.3842
L378.636 33.4337
L380.854 33.4337
L380.854 32.4832
L381.261 32.4832
L381.261 31.5327
L383.381 31.5327
L383.381 30.5822
L383.785 30.5822
L383.785 29.6317
L384.717 29.6317
L384.717 28.6812
L385.353 28.6812
L385.353 27.7307
L389.864 27.7307
L389.864 26.7802
L390.387 26.7802
L390.387 25.8297
L391.306 25.8297
L391.306 24.8792
L398.425 24.8792
L398.425 23.9287
L403.462 23.9287
L403.502 22.0277
L404.911 22.0277
L404.911 21.0772
L405.687 21.0772
L405.687 20.1267
L407.88 20.1267
L407.88 19.1762
L410.293 19.1762
L410.293 18.2257
L414.271 18.2257
L414.271 17.2752
L414.588 17.2752
L414.588 16.3248
L415.118 16.3248
L415.118 15.3743
L415.425 15.3743
L415.425 14.4238
L416.76 14.4238
L416.76 13.4733
L416.973 13.4733
L416.973 12.5228
L425.369 12.5228
L425.369 11.5723
L428.843 11.5723
L428.843 10.6218
L428.843 10.6218
L453.6 10.6218
L453.6 10.6218" style="fill:none;stroke:#000000;stroke-linecap:square;"/>
   </g>
   <g id="line2d_5">
    <path clip-path="url(#p5bee155178)" d="
M-1 343.295
L182.423 343.295
L182.423 342.345
L203.285 342.345
L203.285 341.394
L205.241 341.394
L205.241 340.444
L206.211 340.444
L206.211 339.493
L211.162 339.493
L211.162 338.543
L212.475 338.543
L212.475 337.592
L213.841 337.592
L213.857 335.691
L214.452 335.691
L214.452 334.741
L215.075 334.741
L215.094 332.84
L217.088 332.84
L217.088 331.889
L217.231 331.889
L217.231 330.939
L217.664 330.939
L217.664 329.988
L218.659 329.988
L218.659 329.038
L218.882 329.038
L218.882 328.087
L220.443 328.087
L220.443 327.137
L220.904 327.137
L220.904 326.186
L222.126 326.186
L222.126 325.236
L222.382 325.236
L222.419 323.335
L222.642 323.335
L222.642 322.384
L223.002 322.384
L223.002 321.434
L223.206 321.434
L223.206 320.483
L223.825 320.483
L223.85 318.582
L225.122 318.582
L225.122 317.632
L225.286 317.632
L225.286 316.681
L225.711 316.681
L225.711 315.731
L226.062 315.731
L226.062 314.78
L226.187 314.78
L226.187 313.83
L226.679 313.83
L226.679 312.879
L227.572 312.879
L227.572 311.929
L228.664 311.929
L228.664 310.978
L228.845 310.978
L228.845 310.028
L229.205 310.028
L229.289 308.127
L229.465 308.127
L229.515 306.226
L229.73 306.226
L229.796 303.374
L230.605 303.374
L230.605 302.424
L230.861 302.424
L230.861 301.473
L230.999 301.473
L230.999 300.523
L231.651 300.523
L231.651 299.572
L231.956 299.572
L231.956 298.622
L232.081 298.622
L232.169 296.721
L232.441 296.721
L232.453 294.82
L232.567 294.82
L232.567 293.869
L232.95 293.869
L232.95 292.919
L233.147 292.919
L233.147 291.968
L233.544 291.968
L233.638 290.067
L233.657 290.067
L233.657 289.117
L233.817 289.117
L233.817 288.166
L234.086 288.166
L234.086 287.216
L234.379 287.216
L234.391 285.315
L234.557 285.315
L234.557 284.364
L234.723 284.364
L234.723 283.414
L235.07 283.414
L235.176 281.513
L235.303 281.513
L235.303 280.562
L235.426 280.562
L235.426 279.612
L236.064 279.612
L236.064 278.661
L236.396 278.661
L236.493 276.76
L236.534 276.76
L236.612 273.909
L236.939 273.909
L236.981 272.008
L237.082 272.008
L237.168 270.107
L237.494 270.107
L237.494 269.156
L237.644 269.156
L237.718 267.255
L238.205 267.255
L238.205 266.305
L238.32 266.305
L238.413 264.404
L238.436 264.404
L238.436 263.453
L239.058 263.453
L239.083 260.602
L239.217 260.602
L239.247 257.75
L239.475 257.75
L239.475 256.8
L239.634 256.8
L239.634 255.85
L239.824 255.85
L239.854 253.949
L240.142 253.949
L240.201 252.048
L240.329 252.048
L240.329 251.097
L240.675 251.097
L240.675 250.147
L241.055 250.147
L241.055 249.196
L241.616 249.196
L241.616 248.246
L242.021 248.246
L242.127 245.394
L242.684 245.394
L242.684 244.444
L243.953 244.444
L244.058 242.543
L244.549 242.543
L244.549 241.592
L245.044 241.592
L245.044 240.642
L245.582 240.642
L245.582 239.691
L245.855 239.691
L245.855 238.741
L246 238.741
L246 237.79
L246.122 237.79
L246.122 236.84
L246.274 236.84
L246.274 235.889
L246.761 235.889
L246.761 234.939
L247.843 234.939
L247.843 233.988
L248.104 233.988
L248.104 233.038
L248.445 233.038
L248.552 231.137
L248.763 231.137
L248.763 230.186
L248.919 230.186
L248.919 229.236
L249.137 229.236
L249.137 228.285
L249.413 228.285
L249.486 224.483
L249.664 224.483
L249.664 223.533
L249.814 223.533
L249.873 220.681
L250.261 220.681
L250.344 218.78
L250.701 218.78
L250.701 217.83
L250.987 217.83
L250.987 216.879
L251.142 216.879
L251.142 215.929
L251.255 215.929
L251.339 214.028
L251.408 214.028
L251.408 213.077
L251.613 213.077
L251.613 212.127
L251.87 212.127
L251.968 209.275
L252.23 209.275
L252.329 207.374
L252.404 207.374
L252.404 206.424
L252.562 206.424
L252.563 204.523
L252.781 204.523
L252.781 203.572
L252.925 203.572
L252.975 201.671
L253.457 201.671
L253.526 199.77
L253.585 199.77
L253.599 197.869
L254.144 197.869
L254.144 196.919
L254.467 196.919
L254.499 195.018
L255.033 195.018
L255.139 193.117
L255.549 193.117
L255.549 192.166
L255.725 192.166
L255.725 191.216
L255.909 191.216
L256 189.315
L256.171 189.315
L256.171 188.364
L256.556 188.364
L256.556 187.414
L256.674 187.414
L256.764 185.513
L256.966 185.513
L257.052 183.612
L257.34 183.612
L257.34 182.661
L257.562 182.661
L257.562 181.711
L257.686 181.711
L257.686 180.76
L258.01 180.76
L258.048 178.859
L258.183 178.859
L258.183 177.909
L258.321 177.909
L258.321 176.958
L258.678 176.958
L258.678 176.008
L258.958 176.008
L259.017 172.206
L259.276 172.206
L259.384 170.305
L259.39 170.305
L259.39 169.354
L259.699 169.354
L259.7 167.453
L259.867 167.453
L259.936 164.602
L260.34 164.602
L260.364 162.701
L260.651 162.701
L260.749 160.8
L260.762 160.8
L260.842 157.949
L261.137 157.949
L261.137 156.998
L261.265 156.998
L261.265 156.048
L261.416 156.048
L261.445 154.147
L261.822 154.147
L261.859 152.246
L261.985 152.246
L261.985 151.295
L262.134 151.295
L262.134 150.345
L262.315 150.345
L262.41 146.543
L262.469 146.543
L262.469 145.592
L262.717 145.592
L262.717 144.642
L262.964 144.642
L262.964 143.691
L263.111 143.691
L263.111 142.741
L263.44 142.741
L263.44 141.79
L263.561 141.79
L263.586 139.889
L263.752 139.889
L263.846 136.087
L264.535 136.087
L264.535 135.137
L264.994 135.137
L265.069 133.236
L265.185 133.236
L265.185 132.285
L265.334 132.285
L265.334 131.335
L265.614 131.335
L265.614 130.384
L265.743 130.384
L265.758 128.483
L265.867 128.483
L265.871 126.582
L266.006 126.582
L266.053 124.681
L266.182 124.681
L266.199 122.78
L266.554 122.78
L266.554 121.83
L266.827 121.83
L266.911 119.929
L267.609 119.929
L267.609 118.978
L267.751 118.978
L267.766 117.077
L268.056 117.077
L268.056 116.127
L268.389 116.127
L268.389 115.176
L268.586 115.176
L268.646 113.275
L268.726 113.275
L268.726 112.325
L269.528 112.325
L269.528 111.374
L269.854 111.374
L269.854 110.424
L270.782 110.424
L270.892 108.523
L271.034 108.523
L271.034 107.572
L271.267 107.572
L271.267 106.622
L271.407 106.622
L271.407 105.671
L271.922 105.671
L272.018 103.77
L272.427 103.77
L272.434 101.869
L272.739 101.869
L272.739 100.919
L274.096 100.919
L274.096 99.9683
L274.496 99.9683
L274.496 99.0178
L274.99 99.0178
L274.99 98.0673
L275.142 98.0673
L275.22 95.2158
L275.273 95.2158
L275.273 94.2653
L275.712 94.2653
L275.712 93.3149
L276.033 93.3149
L276.097 91.4139
L276.661 91.4139
L276.661 90.4634
L277.328 90.4634
L277.328 89.5129
L277.563 89.5129
L277.563 88.5624
L277.702 88.5624
L277.702 87.6119
L278.377 87.6119
L278.377 86.6614
L278.584 86.6614
L278.594 84.7604
L278.935 84.7604
L278.935 83.8099
L279.352 83.8099
L279.352 82.8594
L279.772 82.8594
L279.807 80.9584
L280.195 80.9584
L280.195 80.0079
L280.407 80.0079
L280.407 79.0574
L280.961 79.0574
L280.961 78.1069
L281.207 78.1069
L281.207 77.1564
L281.327 77.1564
L281.327 76.2059
L281.759 76.2059
L281.759 75.2554
L282.022 75.2554
L282.022 74.305
L282.55 74.305
L282.55 73.3545
L284.542 73.3545
L284.542 72.404
L287.527 72.404
L287.527 71.4535
L288.482 71.4535
L288.482 70.503
L288.731 70.503
L288.731 69.5525
L291.218 69.5525
L291.218 68.602
L292.858 68.602
L292.858 67.6515
L294.685 67.6515
L294.685 66.701
L296.94 66.701
L296.94 65.7505
L299.549 65.7505
L299.549 64.8
L302.801 64.8
L302.801 63.8495
L304.457 63.8495
L304.457 62.899
L306.638 62.899
L306.638 61.9485
L307.401 61.9485
L307.401 60.998
L311.49 60.998
L311.49 60.0475
L313.242 60.0475
L313.242 59.097
L318.303 59.097
L318.303 58.1465
L318.48 58.1465
L318.48 57.196
L320.423 57.196
L320.423 56.2455
L321.143 56.2455
L321.143 55.295
L323.952 55.295
L324.021 53.3941
L324.534 53.3941
L324.534 52.4436
L326.515 52.4436
L326.515 51.4931
L327.037 51.4931
L327.037 50.5426
L327.855 50.5426
L327.855 49.5921
L328.286 49.5921
L328.286 48.6416
L328.724 48.6416
L328.724 47.6911
L331.587 47.6911
L331.587 46.7406
L333.129 46.7406
L333.223 44.8396
L333.788 44.8396
L333.788 43.8891
L333.96 43.8891
L333.96 42.9386
L337.763 42.9386
L337.829 41.0376
L339.501 41.0376
L339.501 40.0871
L342.748 40.0871
L342.748 39.1366
L343.934 39.1366
L343.934 38.1861
L344.133 38.1861
L344.235 36.2851
L344.773 36.2851
L344.773 35.3347
L345.853 35.3347
L345.853 34.3842
L347.57 34.3842
L347.57 33.4337
L348.725 33.4337
L348.725 32.4832
L348.949 32.4832
L348.949 31.5327
L349.079 31.5327
L349.079 30.5822
L350.421 30.5822
L350.421 29.6317
L354.156 29.6317
L354.156 28.6812
L354.538 28.6812
L354.538 27.7307
L359.34 27.7307
L359.34 26.7802
L359.719 26.7802
L359.719 25.8297
L363.275 25.8297
L363.275 24.8792
L364.603 24.8792
L364.603 23.9287
L366.272 23.9287
L366.272 22.9782
L369.852 22.9782
L369.852 22.0277
L374.885 22.0277
L374.885 21.0772
L376.33 21.0772
L376.33 20.1267
L376.645 20.1267
L376.645 19.1762
L379.721 19.1762
L379.721 18.2257
L380.632 18.2257
L380.632 17.2752
L382.631 17.2752
L382.698 15.3743
L384.032 15.3743
L384.032 14.4238
L385.777 14.4238
L385.777 13.4733
L387.181 13.4733
L387.181 12.5228
L389.076 12.5228
L389.076 11.5723
L394.622 11.5723
L394.622 10.6218
L394.622 10.6218
L453.6 10.6218
L453.6 10.6218" style="fill:none;stroke:#00bfbf;stroke-linecap:square;"/>
   </g>
   <g id="line2d_6">
    <path clip-path="url(#p5bee155178)" d="
M-1 338.543
L-0.29819 338.543
L-0.29819 337.592
L3.75385 337.592
L3.75385 336.642
L4.32443 336.642
L4.32443 335.691
L13.4426 335.691
L13.4426 334.741
L29.0021 334.741
L29.0021 333.79
L29.4871 333.79
L29.4871 332.84
L32.1479 332.84
L32.1479 331.889
L39.2152 331.889
L39.2152 330.939
L49.6245 330.939
L49.6245 329.988
L59.0098 329.988
L59.0098 329.038
L64.388 329.038
L64.388 328.087
L73.4802 328.087
L73.4802 327.137
L105.386 327.137
L105.386 326.186
L118.085 326.186
L118.085 325.236
L120.814 325.236
L120.814 324.285
L128.746 324.285
L128.746 323.335
L131.152 323.335
L131.152 322.384
L144.332 322.384
L144.332 321.434
L146.588 321.434
L146.588 320.483
L154.653 320.483
L154.653 319.533
L156.504 319.533
L156.504 318.582
L160.428 318.582
L160.428 317.632
L160.979 317.632
L160.979 316.681
L161.44 316.681
L161.44 315.731
L164.68 315.731
L164.68 314.78
L166.22 314.78
L166.22 313.83
L166.978 313.83
L166.978 312.879
L169.325 312.879
L169.325 311.929
L171.586 311.929
L171.586 310.978
L171.847 310.978
L171.847 310.028
L172.595 310.028
L172.595 309.077
L175.128 309.077
L175.128 308.127
L177.831 308.127
L177.831 307.176
L179.974 307.176
L179.974 306.226
L180.919 306.226
L180.919 305.275
L181.265 305.275
L181.265 304.325
L182.595 304.325
L182.595 303.374
L184.317 303.374
L184.35 301.473
L185.11 301.473
L185.11 300.523
L185.778 300.523
L185.778 299.572
L186.322 299.572
L186.322 298.622
L188.831 298.622
L188.831 297.671
L188.972 297.671
L188.972 296.721
L190.774 296.721
L190.774 295.77
L192.26 295.77
L192.26 294.82
L192.535 294.82
L192.535 293.869
L200.822 293.869
L200.822 292.919
L201.767 292.919
L201.767 291.968
L202.544 291.968
L202.544 291.018
L202.827 291.018
L202.841 289.117
L204.299 289.117
L204.299 288.166
L204.997 288.166
L204.997 287.216
L205.533 287.216
L205.533 286.265
L206.216 286.265
L206.216 285.315
L206.478 285.315
L206.478 284.364
L206.905 284.364
L206.905 283.414
L207.599 283.414
L207.599 282.463
L208.852 282.463
L208.852 281.513
L209.452 281.513
L209.511 279.612
L210.754 279.612
L210.754 278.661
L211.413 278.661
L211.447 276.76
L213.137 276.76
L213.137 275.81
L213.607 275.81
L213.607 274.859
L214.206 274.859
L214.206 273.909
L214.667 273.909
L214.667 272.958
L215.021 272.958
L215.021 272.008
L215.386 272.008
L215.386 271.057
L215.683 271.057
L215.683 270.107
L216.041 270.107
L216.041 269.156
L217.1 269.156
L217.1 268.206
L217.231 268.206
L217.231 267.255
L217.456 267.255
L217.456 266.305
L217.664 266.305
L217.664 265.354
L217.927 265.354
L217.927 264.404
L218.299 264.404
L218.306 262.503
L219.36 262.503
L219.36 261.552
L219.667 261.552
L219.667 260.602
L220.324 260.602
L220.324 259.651
L221.107 259.651
L221.107 258.701
L221.409 258.701
L221.409 257.75
L221.666 257.75
L221.666 256.8
L221.822 256.8
L221.921 252.998
L222.382 252.998
L222.382 252.048
L222.525 252.048
L222.631 247.295
L222.914 247.295
L222.914 246.345
L223.116 246.345
L223.116 245.394
L223.262 245.394
L223.262 244.444
L223.496 244.444
L223.597 241.592
L223.799 241.592
L223.825 239.691
L223.985 239.691
L224.084 237.79
L224.245 237.79
L224.32 235.889
L224.368 235.889
L224.368 234.939
L224.512 234.939
L224.512 233.988
L224.67 233.988
L224.67 233.038
L224.813 233.038
L224.859 229.236
L224.938 229.236
L224.938 228.285
L225.122 228.285
L225.122 227.335
L225.332 227.335
L225.364 225.434
L225.458 225.434
L225.458 224.483
L225.604 224.483
L225.654 220.681
L225.895 220.681
L225.895 219.731
L226.145 219.731
L226.145 218.78
L226.334 218.78
L226.43 215.929
L226.536 215.929
L226.608 211.176
L226.928 211.176
L226.965 209.275
L227.039 209.275
L227.039 208.325
L227.212 208.325
L227.31 205.473
L227.673 205.473
L227.709 203.572
L227.877 203.572
L227.931 201.671
L228.068 201.671
L228.068 200.721
L228.461 200.721
L228.535 198.82
L228.661 198.82
L228.703 196.919
L229.349 196.919
L229.411 195.018
L229.606 195.018
L229.696 193.117
L229.759 193.117
L229.759 192.166
L230.011 192.166
L230.011 191.216
L230.485 191.216
L230.485 190.265
L230.764 190.265
L230.858 188.364
L230.941 188.364
L231.018 186.463
L231.352 186.463
L231.432 184.562
L231.68 184.562
L231.68 183.612
L232.059 183.612
L232.165 181.711
L232.223 181.711
L232.223 180.76
L232.507 180.76
L232.507 179.81
L232.83 179.81
L232.83 178.859
L232.957 178.859
L232.957 177.909
L233.146 177.909
L233.202 175.057
L233.684 175.057
L233.754 173.156
L233.799 173.156
L233.799 172.206
L234.081 172.206
L234.081 171.255
L234.214 171.255
L234.214 170.305
L234.589 170.305
L234.648 166.503
L235.225 166.503
L235.225 165.552
L235.738 165.552
L235.738 164.602
L235.911 164.602
L235.952 162.701
L236.053 162.701
L236.095 159.85
L236.326 159.85
L236.326 158.899
L236.532 158.899
L236.532 157.949
L237.207 157.949
L237.207 156.998
L237.501 156.998
L237.501 156.048
L237.623 156.048
L237.623 155.097
L237.947 155.097
L238 153.196
L238.19 153.196
L238.205 151.295
L238.339 151.295
L238.339 150.345
L239.174 150.345
L239.282 148.444
L239.315 148.444
L239.426 146.543
L240.046 146.543
L240.046 145.592
L240.352 145.592
L240.356 143.691
L240.706 143.691
L240.706 142.741
L240.96 142.741
L241.023 140.84
L241.139 140.84
L241.161 138.939
L241.378 138.939
L241.378 137.988
L241.584 137.988
L241.659 136.087
L241.882 136.087
L241.957 133.236
L242.023 133.236
L242.023 132.285
L242.417 132.285
L242.417 131.335
L242.658 131.335
L242.69 129.434
L242.962 129.434
L242.962 128.483
L243.274 128.483
L243.339 126.582
L243.407 126.582
L243.41 124.681
L243.914 124.681
L243.914 123.731
L244.025 123.731
L244.025 122.78
L244.693 122.78
L244.693 121.83
L245.195 121.83
L245.252 119.929
L245.646 119.929
L245.646 118.978
L245.785 118.978
L245.785 118.028
L246.093 118.028
L246.093 117.077
L246.377 117.077
L246.419 115.176
L246.507 115.176
L246.566 112.325
L247.278 112.325
L247.278 111.374
L247.83 111.374
L247.873 109.473
L247.991 109.473
L247.991 108.523
L248.23 108.523
L248.23 107.572
L248.874 107.572
L248.971 105.671
L249.146 105.671
L249.256 103.77
L249.441 103.77
L249.477 101.869
L249.609 101.869
L249.609 100.919
L250.064 100.919
L250.064 99.9683
L250.227 99.9683
L250.305 98.0673
L250.394 98.0673
L250.444 95.2158
L250.577 95.2158
L250.633 93.3149
L250.94 93.3149
L250.94 92.3644
L251.153 92.3644
L251.217 90.4634
L251.695 90.4634
L251.801 88.5624
L251.908 88.5624
L251.908 87.6119
L252.04 87.6119
L252.04 86.6614
L252.195 86.6614
L252.256 84.7604
L252.318 84.7604
L252.406 80.9584
L252.508 80.9584
L252.508 80.0079
L252.718 80.0079
L252.828 76.2059
L252.845 76.2059
L252.922 74.305
L253.031 74.305
L253.031 73.3545
L253.353 73.3545
L253.353 72.404
L253.687 72.404
L253.687 71.4535
L254.037 71.4535
L254.087 69.5525
L254.222 69.5525
L254.317 66.701
L254.492 66.701
L254.492 65.7505
L254.665 65.7505
L254.665 64.8
L254.817 64.8
L254.817 63.8495
L255.004 63.8495
L255.004 62.899
L255.996 62.899
L255.996 61.9485
L256.481 61.9485
L256.481 60.998
L256.681 60.998
L256.681 60.0475
L257.413 60.0475
L257.413 59.097
L257.531 59.097
L257.531 58.1465
L257.698 58.1465
L257.703 56.2455
L257.888 56.2455
L257.888 55.295
L258.095 55.295
L258.191 52.4436
L258.388 52.4436
L258.474 50.5426
L258.871 50.5426
L258.965 48.6416
L259.128 48.6416
L259.128 47.6911
L259.679 47.6911
L259.7 45.7901
L260.382 45.7901
L260.382 44.8396
L260.878 44.8396
L260.878 43.8891
L261.404 43.8891
L261.421 41.9881
L262.546 41.9881
L262.546 41.0376
L262.694 41.0376
L262.694 40.0871
L263.668 40.0871
L263.669 38.1861
L264.342 38.1861
L264.342 37.2356
L264.659 37.2356
L264.675 35.3347
L266.483 35.3347
L266.483 34.3842
L267.453 34.3842
L267.453 33.4337
L269.667 33.4337
L269.667 32.4832
L270.443 32.4832
L270.443 31.5327
L270.629 31.5327
L270.629 30.5822
L274.359 30.5822
L274.359 29.6317
L275.628 29.6317
L275.628 28.6812
L276.115 28.6812
L276.115 27.7307
L276.929 27.7307
L276.929 26.7802
L278.645 26.7802
L278.645 25.8297
L287.102 25.8297
L287.102 24.8792
L291.413 24.8792
L291.413 23.9287
L292.925 23.9287
L292.925 22.9782
L293.897 22.9782
L293.897 22.0277
L296.982 22.0277
L296.982 21.0772
L297.133 21.0772
L297.238 19.1762
L300.361 19.1762
L300.361 18.2257
L307.523 18.2257
L307.523 17.2752
L311.682 17.2752
L311.736 15.3743
L312.311 15.3743
L312.311 14.4238
L314.106 14.4238
L314.106 13.4733
L316.053 13.4733
L316.053 12.5228
L321.682 12.5228
L321.682 11.5723
L324.77 11.5723
L324.77 10.6218
L324.77 10.6218
L453.6 10.6218
L453.6 10.6218" style="fill:none;stroke:#bf00bf;stroke-linecap:square;"/>
   </g>
   <g id="matplotlib.axis_1">
    <g id="xtick_1"/>
    <g id="xtick_2">
     <g id="line2d_7">
      <path clip-path="url(#p5bee155178)" d="
M59.6175 352.8
L59.6175 7.2" style="fill:none;stroke:#000000;stroke-dasharray:1.000000,3.000000;stroke-dashoffset:0.0;stroke-width:0.5;"/>
     </g>
     <g id="line2d_8">
      <defs>
       <path d="
M0 0
L0 -4" id="m93b0483c22" style="stroke:#000000;stroke-width:0.5;"/>
      </defs>
      <g>
       <use style="stroke:#000000;stroke-width:0.5;" x="59.6174973142" xlink:href="#m93b0483c22" y="352.8"/>
      </g>
     </g>
     <g id="line2d_9">
      <defs>
       <path d="
M0 0
L0 4" id="m741efc42ff" style="stroke:#000000;stroke-width:0.5;"/>
      </defs>
      <g>
       <use style="stroke:#000000;stroke-width:0.5;" x="59.6174973142" xlink:href="#m741efc42ff" y="7.2"/>
      </g>
     </g>
     <g id="text_1">
      <!-- -6 -->
      <defs>
       <path d="
M3.17188 21.4844
L3.17188 30.3281
L30.1719 30.3281
L30.1719 21.4844
z
" id="ArialMT-2d"/>
       <path d="
M49.75 54.0469
L41.0156 53.375
Q39.8438 58.5469 37.7031 60.8906
Q34.125 64.6562 28.9062 64.6562
Q24.7031 64.6562 21.5312 62.3125
Q17.3906 59.2812 14.9844 53.4688
Q12.5938 47.6562 12.5 36.9219
Q15.6719 41.75 20.2656 44.0938
Q24.8594 46.4375 29.8906 46.4375
Q38.6719 46.4375 44.8438 39.9688
Q51.0312 33.5 51.0312 23.25
Q51.0312 16.5 48.125 10.7188
Q45.2188 4.9375 40.1406 1.85938
Q35.0625 -1.21875 28.6094 -1.21875
Q17.625 -1.21875 10.6875 6.85938
Q3.76562 14.9375 3.76562 33.5
Q3.76562 54.25 11.4219 63.6719
Q18.1094 71.875 29.4375 71.875
Q37.8906 71.875 43.2812 67.1406
Q48.6875 62.4062 49.75 54.0469
M13.875 23.1875
Q13.875 18.6562 15.7969 14.5
Q17.7188 10.3594 21.1875 8.17188
Q24.6562 6 28.4688 6
Q34.0312 6 38.0312 10.4844
Q42.0469 14.9844 42.0469 22.7031
Q42.0469 30.125 38.0781 34.3906
Q34.125 38.6719 28.125 38.6719
Q22.1719 38.6719 18.0156 34.3906
Q13.875 30.125 13.875 23.1875" id="ArialMT-36"/>
      </defs>
      <g transform="translate(51.5018723142 371.115625)scale(0.2 -0.2)">
       <use xlink:href="#ArialMT-2d"/>
       <use x="33.30078125" xlink:href="#ArialMT-36"/>
      </g>
     </g>
    </g>
    <g id="xtick_3">
     <g id="line2d_10">
      <path clip-path="url(#p5bee155178)" d="
M112.148 352.8
L112.148 7.2" style="fill:none;stroke:#000000;stroke-dasharray:1.000000,3.000000;stroke-dashoffset:0.0;stroke-width:0.5;"/>
     </g>
     <g id="line2d_11">
      <g>
       <use style="stroke:#000000;stroke-width:0.5;" x="112.148497672" xlink:href="#m93b0483c22" y="352.8"/>
      </g>
     </g>
     <g id="line2d_12">
      <g>
       <use style="stroke:#000000;stroke-width:0.5;" x="112.148497672" xlink:href="#m741efc42ff" y="7.2"/>
      </g>
     </g>
     <g id="text_2">
      <!-- -4 -->
      <defs>
       <path d="
M32.3281 0
L32.3281 17.1406
L1.26562 17.1406
L1.26562 25.2031
L33.9375 71.5781
L41.1094 71.5781
L41.1094 25.2031
L50.7812 25.2031
L50.7812 17.1406
L41.1094 17.1406
L41.1094 0
z

M32.3281 25.2031
L32.3281 57.4688
L9.90625 25.2031
z
" id="ArialMT-34"/>
      </defs>
      <g transform="translate(104.057872672 371.115625)scale(0.2 -0.2)">
       <use xlink:href="#ArialMT-2d"/>
       <use x="33.30078125" xlink:href="#ArialMT-34"/>
      </g>
     </g>
    </g>
    <g id="xtick_4">
     <g id="line2d_13">
      <path clip-path="url(#p5bee155178)" d="
M164.679 352.8
L164.679 7.2" style="fill:none;stroke:#000000;stroke-dasharray:1.000000,3.000000;stroke-dashoffset:0.0;stroke-width:0.5;"/>
     </g>
     <g id="line2d_14">
      <g>
       <use style="stroke:#000000;stroke-width:0.5;" x="164.67949803" xlink:href="#m93b0483c22" y="352.8"/>
      </g>
     </g>
     <g id="line2d_15">
      <g>
       <use style="stroke:#000000;stroke-width:0.5;" x="164.67949803" xlink:href="#m741efc42ff" y="7.2"/>
      </g>
     </g>
     <g id="text_3">
      <!-- -2 -->
      <defs>
       <path d="
M50.3438 8.45312
L50.3438 0
L3.03125 0
Q2.9375 3.17188 4.04688 6.10938
Q5.85938 10.9375 9.82812 15.625
Q13.8125 20.3125 21.3438 26.4688
Q33.0156 36.0312 37.1094 41.625
Q41.2188 47.2188 41.2188 52.2031
Q41.2188 57.4219 37.4688 61
Q33.7344 64.5938 27.7344 64.5938
Q21.3906 64.5938 17.5781 60.7812
Q13.7656 56.9844 13.7188 50.25
L4.6875 51.1719
Q5.60938 61.2812 11.6562 66.5781
Q17.7188 71.875 27.9375 71.875
Q38.2344 71.875 44.2344 66.1562
Q50.25 60.4531 50.25 52
Q50.25 47.7031 48.4844 43.5469
Q46.7344 39.4062 42.6562 34.8125
Q38.5781 30.2188 29.1094 22.2188
Q21.1875 15.5781 18.9375 13.2031
Q16.7031 10.8438 15.2344 8.45312
z
" id="ArialMT-32"/>
      </defs>
      <g transform="translate(156.63262303 371.115625)scale(0.2 -0.2)">
       <use xlink:href="#ArialMT-2d"/>
       <use x="33.30078125" xlink:href="#ArialMT-32"/>
      </g>
     </g>
    </g>
    <g id="xtick_5">
     <g id="line2d_16">
      <path clip-path="url(#p5bee155178)" d="
M217.21 352.8
L217.21 7.2" style="fill:none;stroke:#000000;stroke-dasharray:1.000000,3.000000;stroke-dashoffset:0.0;stroke-width:0.5;"/>
     </g>
     <g id="line2d_17">
      <g>
       <use style="stroke:#000000;stroke-width:0.5;" x="217.210498389" xlink:href="#m93b0483c22" y="352.8"/>
      </g>
     </g>
     <g id="line2d_18">
      <g>
       <use style="stroke:#000000;stroke-width:0.5;" x="217.210498389" xlink:href="#m741efc42ff" y="7.2"/>
      </g>
     </g>
     <g id="text_4">
      <!-- 0 -->
      <defs>
       <path d="
M4.15625 35.2969
Q4.15625 48 6.76562 55.7344
Q9.375 63.4844 14.5156 67.6719
Q19.6719 71.875 27.4844 71.875
Q33.25 71.875 37.5938 69.5469
Q41.9375 67.2344 44.7656 62.8594
Q47.6094 58.5 49.2188 52.2188
Q50.8281 45.9531 50.8281 35.2969
Q50.8281 22.7031 48.2344 14.9688
Q45.6562 7.23438 40.5 3
Q35.3594 -1.21875 27.4844 -1.21875
Q17.1406 -1.21875 11.2344 6.20312
Q4.15625 15.1406 4.15625 35.2969
M13.1875 35.2969
Q13.1875 17.6719 17.3125 11.8281
Q21.4375 6 27.4844 6
Q33.5469 6 37.6719 11.8594
Q41.7969 17.7188 41.7969 35.2969
Q41.7969 52.9844 37.6719 58.7812
Q33.5469 64.5938 27.3906 64.5938
Q21.3438 64.5938 17.7188 59.4688
Q13.1875 52.9375 13.1875 35.2969" id="ArialMT-30"/>
      </defs>
      <g transform="translate(212.543310889 371.115625)scale(0.2 -0.2)">
       <use xlink:href="#ArialMT-30"/>
      </g>
     </g>
    </g>
    <g id="xtick_6">
     <g id="line2d_19">
      <path clip-path="url(#p5bee155178)" d="
M269.741 352.8
L269.741 7.2" style="fill:none;stroke:#000000;stroke-dasharray:1.000000,3.000000;stroke-dashoffset:0.0;stroke-width:0.5;"/>
     </g>
     <g id="line2d_20">
      <g>
       <use style="stroke:#000000;stroke-width:0.5;" x="269.741498747" xlink:href="#m93b0483c22" y="352.8"/>
      </g>
     </g>
     <g id="line2d_21">
      <g>
       <use style="stroke:#000000;stroke-width:0.5;" x="269.741498747" xlink:href="#m741efc42ff" y="7.2"/>
      </g>
     </g>
     <g id="text_5">
      <!-- 2 -->
      <g transform="translate(265.000873747 371.115625)scale(0.2 -0.2)">
       <use xlink:href="#ArialMT-32"/>
      </g>
     </g>
    </g>
    <g id="xtick_7">
     <g id="line2d_22">
      <path clip-path="url(#p5bee155178)" d="
M322.272 352.8
L322.272 7.2" style="fill:none;stroke:#000000;stroke-dasharray:1.000000,3.000000;stroke-dashoffset:0.0;stroke-width:0.5;"/>
     </g>
     <g id="line2d_23">
      <g>
       <use style="stroke:#000000;stroke-width:0.5;" x="322.272499105" xlink:href="#m93b0483c22" y="352.8"/>
      </g>
     </g>
     <g id="line2d_24">
      <g>
       <use style="stroke:#000000;stroke-width:0.5;" x="322.272499105" xlink:href="#m741efc42ff" y="7.2"/>
      </g>
     </g>
     <g id="text_6">
      <!-- 4 -->
      <g transform="translate(317.320936605 371.115625)scale(0.2 -0.2)">
       <use xlink:href="#ArialMT-34"/>
      </g>
     </g>
    </g>
    <g id="xtick_8">
     <g id="line2d_25">
      <path clip-path="url(#p5bee155178)" d="
M374.803 352.8
L374.803 7.2" style="fill:none;stroke:#000000;stroke-dasharray:1.000000,3.000000;stroke-dashoffset:0.0;stroke-width:0.5;"/>
     </g>
     <g id="line2d_26">
      <g>
       <use style="stroke:#000000;stroke-width:0.5;" x="374.803499463" xlink:href="#m93b0483c22" y="352.8"/>
      </g>
     </g>
     <g id="line2d_27">
      <g>
       <use style="stroke:#000000;stroke-width:0.5;" x="374.803499463" xlink:href="#m741efc42ff" y="7.2"/>
      </g>
     </g>
     <g id="text_7">
      <!-- 6 -->
      <g transform="translate(370.076936963 371.115625)scale(0.2 -0.2)">
       <use xlink:href="#ArialMT-36"/>
      </g>
     </g>
    </g>
    <g id="xtick_9">
     <g id="line2d_28">
      <path clip-path="url(#p5bee155178)" d="
M427.334 352.8
L427.334 7.2" style="fill:none;stroke:#000000;stroke-dasharray:1.000000,3.000000;stroke-dashoffset:0.0;stroke-width:0.5;"/>
     </g>
     <g id="line2d_29">
      <g>
       <use style="stroke:#000000;stroke-width:0.5;" x="427.334499821" xlink:href="#m93b0483c22" y="352.8"/>
      </g>
     </g>
     <g id="line2d_30">
      <g>
       <use style="stroke:#000000;stroke-width:0.5;" x="427.334499821" xlink:href="#m741efc42ff" y="7.2"/>
      </g>
     </g>
     <g id="text_8">
      <!-- 8 -->
      <defs>
       <path d="
M17.6719 38.8125
Q12.2031 40.8281 9.5625 44.5312
Q6.9375 48.25 6.9375 53.4219
Q6.9375 61.2344 12.5469 66.5469
Q18.1719 71.875 27.4844 71.875
Q36.8594 71.875 42.5781 66.4219
Q48.2969 60.9844 48.2969 53.1719
Q48.2969 48.1875 45.6719 44.5
Q43.0625 40.8281 37.75 38.8125
Q44.3438 36.6719 47.7812 31.875
Q51.2188 27.0938 51.2188 20.4531
Q51.2188 11.2812 44.7188 5.03125
Q38.2344 -1.21875 27.6406 -1.21875
Q17.0469 -1.21875 10.5469 5.04688
Q4.04688 11.3281 4.04688 20.7031
Q4.04688 27.6875 7.59375 32.3906
Q11.1406 37.1094 17.6719 38.8125
M15.9219 53.7188
Q15.9219 48.6406 19.1875 45.4062
Q22.4688 42.1875 27.6875 42.1875
Q32.7656 42.1875 36.0156 45.375
Q39.2656 48.5781 39.2656 53.2188
Q39.2656 58.0625 35.9062 61.3594
Q32.5625 64.6562 27.5938 64.6562
Q22.5625 64.6562 19.2344 61.4219
Q15.9219 58.2031 15.9219 53.7188
M13.0938 20.6562
Q13.0938 16.8906 14.875 13.375
Q16.6562 9.85938 20.1719 7.92188
Q23.6875 6 27.7344 6
Q34.0312 6 38.125 10.0469
Q42.2344 14.1094 42.2344 20.3594
Q42.2344 26.7031 38.0156 30.8594
Q33.7969 35.0156 27.4375 35.0156
Q21.2344 35.0156 17.1562 30.9062
Q13.0938 26.8125 13.0938 20.6562" id="ArialMT-38"/>
      </defs>
      <g transform="translate(422.617312321 371.115625)scale(0.2 -0.2)">
       <use xlink:href="#ArialMT-38"/>
      </g>
     </g>
    </g>
    <g id="xtick_10"/>
    <g id="xtick_11">
     <g id="line2d_31">
      <defs>
       <path d="
M0 0
L0 -2" id="m177f7580d0" style="stroke:#000000;stroke-width:0.5;"/>
      </defs>
      <g>
       <use style="stroke:#000000;stroke-width:0.5;" x="59.6174973142" xlink:href="#m177f7580d0" y="352.8"/>
      </g>
     </g>
     <g id="line2d_32">
      <defs>
       <path d="
M0 0
L0 2" id="m5284c7e2a0" style="stroke:#000000;stroke-width:0.5;"/>
      </defs>
      <g>
       <use style="stroke:#000000;stroke-width:0.5;" x="59.6174973142" xlink:href="#m5284c7e2a0" y="7.2"/>
      </g>
     </g>
    </g>
    <g id="xtick_12">
     <g id="line2d_33">
      <g>
       <use style="stroke:#000000;stroke-width:0.5;" x="112.148497672" xlink:href="#m177f7580d0" y="352.8"/>
      </g>
     </g>
     <g id="line2d_34">
      <g>
       <use style="stroke:#000000;stroke-width:0.5;" x="112.148497672" xlink:href="#m5284c7e2a0" y="7.2"/>
      </g>
     </g>
    </g>
    <g id="xtick_13">
     <g id="line2d_35">
      <g>
       <use style="stroke:#000000;stroke-width:0.5;" x="164.67949803" xlink:href="#m177f7580d0" y="352.8"/>
      </g>
     </g>
     <g id="line2d_36">
      <g>
       <use style="stroke:#000000;stroke-width:0.5;" x="164.67949803" xlink:href="#m5284c7e2a0" y="7.2"/>
      </g>
     </g>
    </g>
    <g id="xtick_14">
     <g id="line2d_37">
      <g>
       <use style="stroke:#000000;stroke-width:0.5;" x="217.210498389" xlink:href="#m177f7580d0" y="352.8"/>
      </g>
     </g>
     <g id="line2d_38">
      <g>
       <use style="stroke:#000000;stroke-width:0.5;" x="217.210498389" xlink:href="#m5284c7e2a0" y="7.2"/>
      </g>
     </g>
    </g>
    <g id="xtick_15">
     <g id="line2d_39">
      <g>
       <use style="stroke:#000000;stroke-width:0.5;" x="269.741498747" xlink:href="#m177f7580d0" y="352.8"/>
      </g>
     </g>
     <g id="line2d_40">
      <g>
       <use style="stroke:#000000;stroke-width:0.5;" x="269.741498747" xlink:href="#m5284c7e2a0" y="7.2"/>
      </g>
     </g>
    </g>
    <g id="xtick_16">
     <g id="line2d_41">
      <g>
       <use style="stroke:#000000;stroke-width:0.5;" x="322.272499105" xlink:href="#m177f7580d0" y="352.8"/>
      </g>
     </g>
     <g id="line2d_42">
      <g>
       <use style="stroke:#000000;stroke-width:0.5;" x="322.272499105" xlink:href="#m5284c7e2a0" y="7.2"/>
      </g>
     </g>
    </g>
    <g id="xtick_17">
     <g id="line2d_43">
      <g>
       <use style="stroke:#000000;stroke-width:0.5;" x="374.803499463" xlink:href="#m177f7580d0" y="352.8"/>
      </g>
     </g>
     <g id="line2d_44">
      <g>
       <use style="stroke:#000000;stroke-width:0.5;" x="374.803499463" xlink:href="#m5284c7e2a0" y="7.2"/>
      </g>
     </g>
    </g>
    <g id="xtick_18">
     <g id="line2d_45">
      <g>
       <use style="stroke:#000000;stroke-width:0.5;" x="427.334499821" xlink:href="#m177f7580d0" y="352.8"/>
      </g>
     </g>
     <g id="line2d_46">
      <g>
       <use style="stroke:#000000;stroke-width:0.5;" x="427.334499821" xlink:href="#m5284c7e2a0" y="7.2"/>
      </g>
     </g>
    </g>
    <g id="text_9">
     <!-- log10 of Df -->
     <defs>
      <path d="
M4.98438 -4.29688
L13.5312 -5.5625
Q14.0625 -9.51562 16.5 -11.3281
Q19.7812 -13.7656 25.4375 -13.7656
Q31.5469 -13.7656 34.8594 -11.3281
Q38.1875 -8.89062 39.3594 -4.5
Q40.0469 -1.8125 39.9844 6.78125
Q34.2344 0 25.6406 0
Q14.9375 0 9.07812 7.71875
Q3.21875 15.4375 3.21875 26.2188
Q3.21875 33.6406 5.90625 39.9062
Q8.59375 46.1875 13.6875 49.6094
Q18.7969 53.0312 25.6875 53.0312
Q34.8594 53.0312 40.8281 45.6094
L40.8281 51.8594
L48.9219 51.8594
L48.9219 7.03125
Q48.9219 -5.07812 46.4531 -10.125
Q44 -15.1875 38.6406 -18.1094
Q33.2969 -21.0469 25.4844 -21.0469
Q16.2188 -21.0469 10.5 -16.875
Q4.78125 -12.7031 4.98438 -4.29688
M12.25 26.8594
Q12.25 16.6562 16.2969 11.9688
Q20.3594 7.28125 26.4688 7.28125
Q32.5156 7.28125 36.6094 11.9375
Q40.7188 16.6094 40.7188 26.5625
Q40.7188 36.0781 36.5 40.9062
Q32.2812 45.75 26.3125 45.75
Q20.4531 45.75 16.3438 40.9844
Q12.25 36.2344 12.25 26.8594" id="ArialMT-67"/>
      <path d="
M8.6875 0
L8.6875 45.0156
L0.921875 45.0156
L0.921875 51.8594
L8.6875 51.8594
L8.6875 57.375
Q8.6875 62.5938 9.625 65.1406
Q10.8906 68.5625 14.0781 70.6719
Q17.2812 72.7969 23.0469 72.7969
Q26.7656 72.7969 31.25 71.9219
L29.9375 64.2656
Q27.2031 64.75 24.75 64.75
Q20.75 64.75 19.0938 63.0312
Q17.4375 61.3281 17.4375 56.6406
L17.4375 51.8594
L27.5469 51.8594
L27.5469 45.0156
L17.4375 45.0156
L17.4375 0
z
" id="ArialMT-66"/>
      <path d="
M7.71875 0
L7.71875 71.5781
L32.375 71.5781
Q40.7188 71.5781 45.125 70.5625
Q51.2656 69.1406 55.6094 65.4375
Q61.2812 60.6406 64.0781 53.1875
Q66.8906 45.75 66.8906 36.1875
Q66.8906 28.0312 64.9844 21.7344
Q63.0938 15.4375 60.1094 11.2969
Q57.125 7.17188 53.5781 4.79688
Q50.0469 2.4375 45.0469 1.21875
Q40.0469 0 33.5469 0
z

M17.1875 8.45312
L32.4688 8.45312
Q39.5469 8.45312 43.5781 9.76562
Q47.6094 11.0781 50 13.4844
Q53.375 16.8438 55.25 22.5312
Q57.125 28.2188 57.125 36.3281
Q57.125 47.5625 53.4375 53.5938
Q49.75 59.625 44.4844 61.6719
Q40.6719 63.1406 32.2344 63.1406
L17.1875 63.1406
z
" id="ArialMT-44"/>
      <path d="
M6.39062 0
L6.39062 71.5781
L15.1875 71.5781
L15.1875 0
z
" id="ArialMT-6c"/>
      <path d="
M3.32812 25.9219
Q3.32812 40.3281 11.3281 47.2656
Q18.0156 53.0312 27.6406 53.0312
Q38.3281 53.0312 45.1094 46.0156
Q51.9062 39.0156 51.9062 26.6562
Q51.9062 16.6562 48.9062 10.9062
Q45.9062 5.17188 40.1562 2
Q34.4219 -1.17188 27.6406 -1.17188
Q16.75 -1.17188 10.0312 5.8125
Q3.32812 12.7969 3.32812 25.9219
M12.3594 25.9219
Q12.3594 15.9688 16.7031 11.0156
Q21.0469 6.0625 27.6406 6.0625
Q34.1875 6.0625 38.5312 11.0312
Q42.875 16.0156 42.875 26.2188
Q42.875 35.8438 38.5 40.7969
Q34.125 45.75 27.6406 45.75
Q21.0469 45.75 16.7031 40.8125
Q12.3594 35.8906 12.3594 25.9219" id="ArialMT-6f"/>
      <path d="
M37.25 0
L28.4688 0
L28.4688 56
Q25.2969 52.9844 20.1406 49.9531
Q14.9844 46.9219 10.8906 45.4062
L10.8906 53.9062
Q18.2656 57.375 23.7812 62.2969
Q29.2969 67.2344 31.5938 71.875
L37.25 71.875
z
" id="ArialMT-31"/>
      <path id="ArialMT-20"/>
     </defs>
     <g transform="translate(181.6921875 394.65)scale(0.2 -0.2)">
      <use xlink:href="#ArialMT-6c"/>
      <use x="22.216796875" xlink:href="#ArialMT-6f"/>
      <use x="77.83203125" xlink:href="#ArialMT-67"/>
      <use x="133.447265625" xlink:href="#ArialMT-31"/>
      <use x="189.0625" xlink:href="#ArialMT-30"/>
      <use x="244.677734375" xlink:href="#ArialMT-20"/>
      <use x="272.4609375" xlink:href="#ArialMT-6f"/>
      <use x="328.076171875" xlink:href="#ArialMT-66"/>
      <use x="355.859375" xlink:href="#ArialMT-20"/>
      <use x="383.642578125" xlink:href="#ArialMT-44"/>
      <use x="455.859375" xlink:href="#ArialMT-66"/>
     </g>
    </g>
   </g>
   <g id="matplotlib.axis_2">
    <g id="ytick_1">
     <g id="line2d_47">
      <path clip-path="url(#p5bee155178)" d="
M7.2 352.8
L453.6 352.8" style="fill:none;stroke:#000000;stroke-dasharray:1.000000,3.000000;stroke-dashoffset:0.0;stroke-width:0.5;"/>
     </g>
     <g id="line2d_48">
      <defs>
       <path d="
M0 0
L4 0" id="m728421d6d4" style="stroke:#000000;stroke-width:0.5;"/>
      </defs>
      <g>
       <use style="stroke:#000000;stroke-width:0.5;" x="7.2" xlink:href="#m728421d6d4" y="352.8"/>
      </g>
     </g>
     <g id="line2d_49">
      <defs>
       <path d="
M0 0
L-4 0" id="mcb0005524f" style="stroke:#000000;stroke-width:0.5;"/>
      </defs>
      <g>
       <use style="stroke:#000000;stroke-width:0.5;" x="453.6" xlink:href="#mcb0005524f" y="352.8"/>
      </g>
     </g>
    </g>
    <g id="ytick_2">
     <g id="line2d_50">
      <path clip-path="url(#p5bee155178)" d="
M7.2 284.364
L453.6 284.364" style="fill:none;stroke:#000000;stroke-dasharray:1.000000,3.000000;stroke-dashoffset:0.0;stroke-width:0.5;"/>
     </g>
     <g id="line2d_51">
      <g>
       <use style="stroke:#000000;stroke-width:0.5;" x="7.2" xlink:href="#m728421d6d4" y="284.364356436"/>
      </g>
     </g>
     <g id="line2d_52">
      <g>
       <use style="stroke:#000000;stroke-width:0.5;" x="453.6" xlink:href="#mcb0005524f" y="284.364356436"/>
      </g>
     </g>
    </g>
    <g id="ytick_3">
     <g id="line2d_53">
      <path clip-path="url(#p5bee155178)" d="
M7.2 215.929
L453.6 215.929" style="fill:none;stroke:#000000;stroke-dasharray:1.000000,3.000000;stroke-dashoffset:0.0;stroke-width:0.5;"/>
     </g>
     <g id="line2d_54">
      <g>
       <use style="stroke:#000000;stroke-width:0.5;" x="7.2" xlink:href="#m728421d6d4" y="215.928712871"/>
      </g>
     </g>
     <g id="line2d_55">
      <g>
       <use style="stroke:#000000;stroke-width:0.5;" x="453.6" xlink:href="#mcb0005524f" y="215.928712871"/>
      </g>
     </g>
    </g>
    <g id="ytick_4">
     <g id="line2d_56">
      <path clip-path="url(#p5bee155178)" d="
M7.2 147.493
L453.6 147.493" style="fill:none;stroke:#000000;stroke-dasharray:1.000000,3.000000;stroke-dashoffset:0.0;stroke-width:0.5;"/>
     </g>
     <g id="line2d_57">
      <g>
       <use style="stroke:#000000;stroke-width:0.5;" x="7.2" xlink:href="#m728421d6d4" y="147.493069307"/>
      </g>
     </g>
     <g id="line2d_58">
      <g>
       <use style="stroke:#000000;stroke-width:0.5;" x="453.6" xlink:href="#mcb0005524f" y="147.493069307"/>
      </g>
     </g>
    </g>
    <g id="ytick_5">
     <g id="line2d_59">
      <path clip-path="url(#p5bee155178)" d="
M7.2 79.0574
L453.6 79.0574" style="fill:none;stroke:#000000;stroke-dasharray:1.000000,3.000000;stroke-dashoffset:0.0;stroke-width:0.5;"/>
     </g>
     <g id="line2d_60">
      <g>
       <use style="stroke:#000000;stroke-width:0.5;" x="7.2" xlink:href="#m728421d6d4" y="79.0574257426"/>
      </g>
     </g>
     <g id="line2d_61">
      <g>
       <use style="stroke:#000000;stroke-width:0.5;" x="453.6" xlink:href="#mcb0005524f" y="79.0574257426"/>
      </g>
     </g>
    </g>
    <g id="ytick_6">
     <g id="line2d_62">
      <path clip-path="url(#p5bee155178)" d="
M7.2 10.6218
L453.6 10.6218" style="fill:none;stroke:#000000;stroke-dasharray:1.000000,3.000000;stroke-dashoffset:0.0;stroke-width:0.5;"/>
     </g>
     <g id="line2d_63">
      <g>
       <use style="stroke:#000000;stroke-width:0.5;" x="7.2" xlink:href="#m728421d6d4" y="10.6217821782"/>
      </g>
     </g>
     <g id="line2d_64">
      <g>
       <use style="stroke:#000000;stroke-width:0.5;" x="453.6" xlink:href="#mcb0005524f" y="10.6217821782"/>
      </g>
     </g>
    </g>
   </g>
   <g id="patch_3">
    <path d="
M7.2 7.2
L453.6 7.2" style="fill:none;stroke:#000000;"/>
   </g>
   <g id="patch_4">
    <path d="
M453.6 352.8
L453.6 7.2" style="fill:none;stroke:#000000;"/>
   </g>
   <g id="patch_5">
    <path d="
M7.2 352.8
L453.6 352.8" style="fill:none;stroke:#000000;"/>
   </g>
   <g id="patch_6">
    <path d="
M7.2 352.8
L7.2 7.2" style="fill:none;stroke:#000000;"/>
   </g>
   <g id="text_10">
    <!-- {f1-f24}, 5-D -->
    <defs>
     <path d="
M30.5625 29.8906
L30.5625 21.9219
Q26.8125 21.8281 24.4375 19.875
Q22.0781 17.9219 21.2969 14.5781
Q20.5156 11.2344 20.4531 3.07812
Q20.4062 -5.07812 20.1719 -7.67188
Q19.7344 -11.8125 18.5312 -14.2812
Q17.3281 -16.75 15.5625 -18.2344
Q13.8125 -19.7344 11.0781 -20.5156
Q9.23438 -21.0469 5.03125 -21.0469
L2.29688 -21.0469
L2.29688 -13.375
L3.8125 -13.375
Q8.89062 -13.375 10.5469 -11.5469
Q12.2031 -9.71875 12.2031 -3.32812
Q12.2031 8.89062 12.6406 12.1562
Q13.4219 17.5781 15.7656 20.8281
Q18.1094 24.0781 22.4062 25.875
Q16.7969 28.5625 14.5 32.9844
Q12.2031 37.4062 12.2031 47.9062
Q12.2031 57.4219 11.9688 59.2812
Q11.625 62.5469 10.0312 63.8438
Q8.45312 65.1406 3.8125 65.1406
L2.29688 65.1406
L2.29688 72.7969
L5.03125 72.7969
Q9.8125 72.7969 11.9688 72.0156
Q15.0938 70.9531 17.1406 68.4062
Q19.1875 65.875 19.7969 62.0156
Q20.4062 58.1562 20.4531 49.3594
Q20.5156 40.5781 21.2969 37.2344
Q22.0781 33.8906 24.4375 31.9375
Q26.8125 29.9844 30.5625 29.8906" id="ArialMT-7d"/>
     <path d="
M8.89062 0
L8.89062 10.0156
L18.8906 10.0156
L18.8906 0
Q18.8906 -5.51562 16.9375 -8.90625
Q14.9844 -12.3125 10.75 -14.1562
L8.29688 -10.4062
Q11.0781 -9.1875 12.3906 -6.8125
Q13.7188 -4.4375 13.875 0
z
" id="ArialMT-2c"/>
     <path d="
M4.15625 18.75
L13.375 19.5312
Q14.4062 12.7969 18.1406 9.39062
Q21.875 6 27.1562 6
Q33.5 6 37.8906 10.7812
Q42.2812 15.5781 42.2812 23.4844
Q42.2812 31 38.0625 35.3438
Q33.8438 39.7031 27 39.7031
Q22.75 39.7031 19.3281 37.7656
Q15.9219 35.8438 13.9688 32.7656
L5.71875 33.8438
L12.6406 70.6094
L48.25 70.6094
L48.25 62.2031
L19.6719 62.2031
L15.8281 42.9688
Q22.2656 47.4688 29.3438 47.4688
Q38.7188 47.4688 45.1562 40.9688
Q51.6094 34.4688 51.6094 24.2656
Q51.6094 14.5469 45.9531 7.46875
Q39.0625 -1.21875 27.1562 -1.21875
Q17.3906 -1.21875 11.2031 4.25
Q5.03125 9.71875 4.15625 18.75" id="ArialMT-35"/>
     <path d="
M2.78125 29.8906
Q6.54688 29.9844 8.90625 31.9062
Q11.2812 33.8438 12.0625 37.2031
Q12.8438 40.5781 12.8906 48.7344
Q12.9375 56.8906 13.1875 59.4688
Q13.625 63.5781 14.8125 66.0625
Q16.0156 68.5625 17.7656 70.0469
Q19.5312 71.5312 22.2656 72.3125
Q24.125 72.7969 28.3281 72.7969
L31.0625 72.7969
L31.0625 65.1406
L29.5469 65.1406
Q24.4688 65.1406 22.7969 63.2969
Q21.1406 61.4688 21.1406 55.125
Q21.1406 42.3281 20.6094 38.9688
Q19.7344 33.7344 17.6094 30.9062
Q15.4844 28.0781 10.9375 25.875
Q16.3125 23.6406 18.7188 19.0156
Q21.1406 14.4062 21.1406 3.90625
Q21.1406 -5.60938 21.3438 -7.42188
Q21.7344 -10.75 23.3125 -12.0625
Q24.9062 -13.375 29.5469 -13.375
L31.0625 -13.375
L31.0625 -21.0469
L28.3281 -21.0469
Q23.5312 -21.0469 21.3906 -20.2656
Q18.2656 -19.1406 16.2031 -16.625
Q14.1562 -14.1094 13.5469 -10.25
Q12.9375 -6.39062 12.8906 2.39062
Q12.8438 11.1875 12.0625 14.5469
Q11.2812 17.9219 8.90625 19.875
Q6.54688 21.8281 2.78125 21.9219
z
" id="ArialMT-7b"/>
    </defs>
    <g transform="translate(337.900125 345.888)scale(0.2 -0.2)">
     <use xlink:href="#ArialMT-7b"/>
     <use x="33.3984375" xlink:href="#ArialMT-66"/>
     <use x="61.181640625" xlink:href="#ArialMT-31"/>
     <use x="116.796875" xlink:href="#ArialMT-2d"/>
     <use x="150.09765625" xlink:href="#ArialMT-66"/>
     <use x="177.880859375" xlink:href="#ArialMT-32"/>
     <use x="233.49609375" xlink:href="#ArialMT-34"/>
     <use x="289.111328125" xlink:href="#ArialMT-7d"/>
     <use x="322.509765625" xlink:href="#ArialMT-2c"/>
     <use x="350.29296875" xlink:href="#ArialMT-20"/>
     <use x="378.076171875" xlink:href="#ArialMT-35"/>
     <use x="433.69140625" xlink:href="#ArialMT-2d"/>
     <use x="466.9921875" xlink:href="#ArialMT-44"/>
    </g>
   </g>
   <g id="text_11">
    <!-- v2.0.1 -->
    <defs>
     <path d="
M21 0
L1.26562 51.8594
L10.5469 51.8594
L21.6875 20.7969
Q23.4844 15.7656 25 10.3594
Q26.1719 14.4531 28.2656 20.2188
L39.7969 51.8594
L48.8281 51.8594
L29.2031 0
z
" id="ArialMT-76"/>
     <path d="
M9.07812 0
L9.07812 10.0156
L19.0938 10.0156
L19.0938 0
z
" id="ArialMT-2e"/>
    </defs>
    <g style="fill:#808080;" transform="translate(217.76171875 347.3565)scale(0.1 -0.1)">
     <use xlink:href="#ArialMT-76"/>
     <use x="50.0" xlink:href="#ArialMT-32"/>
     <use x="105.615234375" xlink:href="#ArialMT-2e"/>
     <use x="133.3984375" xlink:href="#ArialMT-30"/>
     <use x="189.013671875" xlink:href="#ArialMT-2e"/>
     <use x="216.796875" xlink:href="#ArialMT-31"/>
    </g>
   </g>
  </g>
 </g>
 <defs>
  <clipPath id="p5bee155178">
   <rect height="345.6" width="446.4" x="7.2" y="7.2"/>
  </clipPath>
 </defs>
</svg>
