<?xml version="1.0" encoding="utf-8" standalone="no"?>
<!DOCTYPE svg PUBLIC "-//W3C//DTD SVG 1.1//EN"
  "http://www.w3.org/Graphics/SVG/1.1/DTD/svg11.dtd">
<!-- Created with matplotlib (http://matplotlib.org/) -->
<svg height="406pt" version="1.1" viewBox="0 0 460 406" width="460pt" xmlns="http://www.w3.org/2000/svg" xmlns:xlink="http://www.w3.org/1999/xlink">
 <defs>
  <style type="text/css">
*{stroke-linecap:butt;stroke-linejoin:round;}
  </style>
 </defs>
 <g id="figure_1">
  <g id="patch_1">
   <path d="
M0 406.059
L460.8 406.059
L460.8 0
L0 0
z
" style="fill:#ffffff;"/>
  </g>
  <g id="axes_1">
   <g id="patch_2">
    <path d="
M7.2 352.8
L453.6 352.8
L453.6 7.2
L7.2 7.2
z
" style="fill:#ffffff;"/>
   </g>
   <g id="line2d_1">
    <path clip-path="url(#p5bee155178)" d="
M-1 284.364
L3.75385 284.364
L3.75385 279.802
L12.4592 279.802
L12.4592 275.24
L29.0021 275.24
L29.0021 270.677
L29.4871 270.677
L29.4871 266.115
L32.1479 266.115
L32.1479 261.552
L39.2042 261.552
L39.2042 256.99
L59.0098 256.99
L59.0098 252.428
L64.2803 252.428
L64.2803 247.865
L73.3589 247.865
L73.3589 243.303
L105.386 243.303
L105.386 238.741
L118.085 238.741
L118.085 234.178
L120.814 234.178
L120.814 229.616
L146.588 229.616
L146.588 225.053
L166.978 225.053
L166.978 220.491
L184.317 220.491
L184.317 215.929
L237.947 215.929
L237.947 211.366
L242.417 211.366
L242.417 206.804
L243.274 206.804
L243.274 202.242
L243.41 202.242
L243.41 197.679
L243.914 197.679
L243.914 193.117
L245.646 193.117
L245.646 188.554
L246.093 188.554
L246.093 183.992
L246.507 183.992
L246.566 174.867
L248.971 174.867
L248.971 170.305
L249.256 170.305
L249.256 165.743
L249.441 165.743
L249.477 156.618
L250.305 156.618
L250.305 152.055
L250.94 152.055
L250.94 147.493
L251.801 147.493
L251.801 142.931
L252.04 142.931
L252.04 138.368
L252.256 138.368
L252.366 129.244
L252.508 129.244
L252.508 124.681
L252.742 124.681
L252.828 115.556
L253.687 115.556
L253.687 110.994
L254.037 110.994
L254.087 101.869
L254.222 101.869
L254.222 97.3069
L255.004 97.3069
L255.004 92.7446
L255.996 92.7446
L255.996 88.1822
L256.681 88.1822
L256.681 83.6198
L257.698 83.6198
L257.703 74.495
L258.095 74.495
L258.191 65.3703
L258.474 65.3703
L258.474 60.8079
L258.965 60.8079
L258.965 56.2455
L261.404 56.2455
L261.404 51.6832
L262.694 51.6832
L262.694 47.1208
L264.675 47.1208
L264.675 42.5584
L275.628 42.5584
L275.628 37.996
L287.102 37.996
L287.102 33.4337
L291.413 33.4337
L291.413 28.8713
L297.117 28.8713
L297.117 24.3089
L297.238 24.3089
L297.238 19.7465
L314.106 19.7465
L314.106 15.1842
L316.053 15.1842
L316.053 10.6218
L316.053 10.6218
L453.6 10.6218
L453.6 10.6218" style="fill:none;stroke:#ff0000;stroke-linecap:square;stroke-width:3.0;"/>
   </g>
   <g id="line2d_2">
    <path clip-path="url(#p5bee155178)" d="
M241.122 352.8
L241.122 348.238
L250.741 348.238
L250.741 343.675
L253.691 343.675
L253.691 339.113
L258.437 339.113
L258.437 334.55
L259.378 334.55
L259.378 329.988
L259.57 329.988
L259.57 325.426
L261.445 325.426
L261.445 320.863
L261.942 320.863
L261.942 316.301
L262.624 316.301
L262.672 307.176
L263.686 307.176
L263.686 302.614
L264.486 302.614
L264.486 298.051
L264.658 298.051
L264.658 293.489
L264.995 293.489
L264.995 288.927
L265.838 288.927
L265.838 284.364
L266.428 284.364
L266.428 279.802
L266.689 279.802
L266.689 275.24
L266.915 275.24
L266.915 270.677
L267.201 270.677
L267.201 266.115
L267.863 266.115
L267.863 261.552
L268.443 261.552
L268.443 256.99
L268.994 256.99
L268.997 247.865
L269.499 247.865
L269.499 243.303
L269.916 243.303
L269.916 238.741
L270.052 238.741
L270.052 234.178
L270.185 234.178
L270.185 229.616
L270.582 229.616
L270.597 220.491
L271.109 220.491
L271.109 215.929
L271.275 215.929
L271.275 211.366
L271.636 211.366
L271.747 202.242
L272.386 202.242
L272.386 197.679
L274.278 197.679
L274.278 193.117
L276.448 193.117
L276.448 188.554
L277.492 188.554
L277.492 183.992
L279.308 183.992
L279.308 179.43
L280.731 179.43
L280.805 170.305
L281.844 170.305
L281.844 165.743
L283.378 165.743
L283.378 161.18
L283.656 161.18
L283.656 156.618
L284.218 156.618
L284.218 152.055
L284.573 152.055
L284.573 147.493
L284.807 147.493
L284.807 142.931
L285.088 142.931
L285.088 138.368
L285.677 138.368
L285.677 133.806
L286.439 133.806
L286.439 129.244
L286.924 129.244
L286.924 124.681
L288.625 124.681
L288.698 115.556
L289.728 115.556
L289.728 110.994
L290.634 110.994
L290.634 106.432
L291.854 106.432
L291.854 101.869
L293.375 101.869
L293.375 97.3069
L294.001 97.3069
L294.001 92.7446
L294.465 92.7446
L294.465 88.1822
L297.72 88.1822
L297.72 83.6198
L309.427 83.6198
L309.427 79.0574
L349.195 79.0574
L349.195 74.495
L352.462 74.495
L352.462 69.9327
L387.554 69.9327
L387.554 65.3703
L390.214 65.3703
L390.214 60.8079
L390.718 60.8079
L390.718 56.2455
L393.728 56.2455
L393.728 51.6832
L395.328 51.6832
L395.328 47.1208
L397.711 47.1208
L397.711 42.5584
L398.837 42.5584
L398.837 37.996
L405.625 37.996
L405.625 33.4337
L408.478 33.4337
L408.478 28.8713
L408.968 28.8713
L408.968 24.3089
L409.651 24.3089
L409.651 19.7465
L410.018 19.7465
L410.018 15.1842
L411.966 15.1842
L411.966 10.6218
L411.966 10.6218
L453.6 10.6218
L453.6 10.6218" style="fill:none;stroke:#00bfbf;stroke-linecap:square;"/>
   </g>
   <g id="line2d_3">
    <path clip-path="url(#p5bee155178)" d="
M241.122 352.8
L241.122 348.238
L250.083 348.238
L250.083 343.675
L250.741 343.675
L250.741 339.113
L253.691 339.113
L253.691 334.55
L255.345 334.55
L255.345 329.988
L255.659 329.988
L255.659 325.426
L255.862 325.426
L255.862 320.863
L258.239 320.863
L258.239 316.301
L258.535 316.301
L258.535 311.739
L258.9 311.739
L258.9 307.176
L259.111 307.176
L259.111 302.614
L259.318 302.614
L259.318 298.051
L259.965 298.051
L259.965 293.489
L260.226 293.489
L260.226 288.927
L261.297 288.927
L261.297 284.364
L261.445 284.364
L261.445 279.802
L263.836 279.802
L263.836 275.24
L264.54 275.24
L264.54 270.677
L264.658 270.677
L264.716 261.552
L265.704 261.552
L265.704 256.99
L265.838 256.99
L265.838 252.428
L266.304 252.428
L266.387 243.303
L266.559 243.303
L266.559 238.741
L266.689 238.741
L266.689 234.178
L266.915 234.178
L266.915 229.616
L267.337 229.616
L267.337 225.053
L267.506 225.053
L267.506 220.491
L268.341 220.491
L268.341 215.929
L268.994 215.929
L268.994 211.366
L269.387 211.366
L269.387 206.804
L271.233 206.804
L271.275 197.679
L271.727 197.679
L271.727 193.117
L271.95 193.117
L271.95 188.554
L273.071 188.554
L273.071 183.992
L275.21 183.992
L275.21 179.43
L275.553 179.43
L275.553 174.867
L275.937 174.867
L275.971 165.743
L276.448 165.743
L276.448 161.18
L276.727 161.18
L276.727 156.618
L277.492 156.618
L277.492 152.055
L277.793 152.055
L277.793 147.493
L278.94 147.493
L278.94 142.931
L280.25 142.931
L280.25 138.368
L280.731 138.368
L280.731 133.806
L281.239 133.806
L281.239 129.244
L282.026 129.244
L282.026 124.681
L282.519 124.681
L282.519 120.119
L285.088 120.119
L285.088 115.556
L285.404 115.556
L285.404 110.994
L285.926 110.994
L285.926 106.432
L286.309 106.432
L286.309 101.869
L289.728 101.869
L289.728 97.3069
L291.854 97.3069
L291.854 92.7446
L292.017 92.7446
L292.017 88.1822
L293.375 88.1822
L293.375 83.6198
L298.465 83.6198
L298.465 79.0574
L337.763 79.0574
L337.763 74.495
L349.195 74.495
L349.195 69.9327
L352.462 69.9327
L352.462 65.3703
L358.08 65.3703
L358.08 60.8079
L367.812 60.8079
L367.812 56.2455
L378.636 56.2455
L378.636 51.6832
L381.798 51.6832
L381.798 47.1208
L386.996 47.1208
L386.996 42.5584
L387.554 42.5584
L387.554 37.996
L390.214 37.996
L390.214 33.4337
L392.734 33.4337
L392.734 28.8713
L393.636 28.8713
L393.636 24.3089
L402.269 24.3089
L402.269 19.7465
L405.44 19.7465
L405.44 15.1842
L408.968 15.1842
L408.968 10.6218
L408.968 10.6218
L453.6 10.6218
L453.6 10.6218" style="fill:none;stroke:#bf00bf;stroke-linecap:square;"/>
   </g>
   <g id="line2d_4">
    <path clip-path="url(#p5bee155178)" d="
M233.353 352.8
L233.353 348.238
L236.685 348.238
L236.685 343.675
L241.122 343.675
L241.122 339.113
L244.65 339.113
L244.65 334.55
L246.494 334.55
L246.494 329.988
L250.677 329.988
L250.677 325.426
L252.241 325.426
L252.241 320.863
L253.133 320.863
L253.133 316.301
L253.994 316.301
L253.994 311.739
L254.642 311.739
L254.712 302.614
L255.345 302.614
L255.345 298.051
L255.61 298.051
L255.61 293.489
L256.529 293.489
L256.529 288.927
L258.37 288.927
L258.37 284.364
L259.111 284.364
L259.111 279.802
L259.691 279.802
L259.691 275.24
L261.445 275.24
L261.445 270.677
L262.725 270.677
L262.725 266.115
L263.836 266.115
L263.836 261.552
L264.527 261.552
L264.54 252.428
L264.658 252.428
L264.716 243.303
L265.349 243.303
L265.349 238.741
L265.684 238.741
L265.684 234.178
L265.838 234.178
L265.838 229.616
L266.103 229.616
L266.199 220.491
L266.326 220.491
L266.392 211.366
L266.915 211.366
L266.915 206.804
L268.087 206.804
L268.087 202.242
L268.341 202.242
L268.341 197.679
L268.693 197.679
L268.693 193.117
L269.182 193.117
L269.242 183.992
L271.3 183.992
L271.3 179.43
L271.727 179.43
L271.727 174.867
L272.446 174.867
L272.446 170.305
L273.071 170.305
L273.071 165.743
L273.306 165.743
L273.306 161.18
L273.566 161.18
L273.566 156.618
L273.922 156.618
L273.922 152.055
L274.984 152.055
L274.984 147.493
L275.21 147.493
L275.21 142.931
L275.553 142.931
L275.553 138.368
L275.971 138.368
L275.971 133.806
L276.727 133.806
L276.727 129.244
L277.015 129.244
L277.015 124.681
L277.492 124.681
L277.492 120.119
L277.793 120.119
L277.793 115.556
L278.13 115.556
L278.197 106.432
L280.25 106.432
L280.25 101.869
L281.239 101.869
L281.326 92.7446
L284.28 92.7446
L284.28 88.1822
L284.742 88.1822
L284.742 83.6198
L290.665 83.6198
L290.665 79.0574
L337.763 79.0574
L337.763 74.495
L349.195 74.495
L349.195 69.9327
L352.462 69.9327
L352.462 65.3703
L356.212 65.3703
L356.212 60.8079
L358.08 60.8079
L358.08 56.2455
L360.264 56.2455
L360.264 51.6832
L365.617 51.6832
L365.617 47.1208
L367.812 47.1208
L367.812 42.5584
L372.071 42.5584
L372.071 37.996
L372.5 37.996
L372.5 33.4337
L374.444 33.4337
L374.444 28.8713
L378.636 28.8713
L378.636 24.3089
L380.854 24.3089
L380.854 19.7465
L383.381 19.7465
L383.381 15.1842
L398.425 15.1842
L398.425 10.6218
L398.425 10.6218
L453.6 10.6218
L453.6 10.6218" style="fill:none;stroke:#000000;stroke-linecap:square;"/>
   </g>
   <g id="line2d_5">
    <path clip-path="url(#p5bee155178)" d="
M-1 307.176
L182.423 307.176
L182.423 302.614
L203.285 302.614
L203.285 298.051
L205.241 298.051
L205.241 293.489
L211.162 293.489
L211.162 288.927
L213.841 288.927
L213.841 284.364
L214.452 284.364
L214.452 279.802
L215.075 279.802
L215.094 270.677
L218.659 270.677
L218.659 266.115
L218.882 266.115
L218.882 261.552
L220.904 261.552
L220.904 256.99
L222.126 256.99
L222.126 252.428
L222.642 252.428
L222.642 247.865
L223.85 247.865
L223.85 243.303
L225.286 243.303
L225.286 238.741
L226.679 238.741
L226.679 234.178
L227.572 234.178
L227.572 229.616
L229.762 229.616
L229.762 225.053
L235.176 225.053
L235.176 220.491
L239.634 220.491
L239.634 215.929
L252.23 215.929
L252.23 211.366
L258.958 211.366
L259.017 202.242
L259.936 202.242
L259.936 197.679
L260.34 197.679
L260.364 188.554
L260.825 188.554
L260.825 183.992
L261.445 183.992
L261.445 179.43
L261.822 179.43
L261.822 174.867
L262.134 174.867
L262.134 170.305
L262.41 170.305
L262.41 165.743
L263.561 165.743
L263.561 161.18
L263.836 161.18
L263.836 156.618
L264.535 156.618
L264.535 152.055
L265.185 152.055
L265.185 147.493
L265.743 147.493
L265.743 142.931
L266.053 142.931
L266.053 138.368
L266.199 138.368
L266.199 133.806
L266.827 133.806
L266.911 124.681
L267.751 124.681
L267.751 120.119
L268.056 120.119
L268.056 115.556
L268.646 115.556
L268.646 110.994
L269.528 110.994
L269.528 106.432
L270.892 106.432
L270.892 101.869
L271.034 101.869
L271.034 97.3069
L271.267 97.3069
L271.267 92.7446
L272.018 92.7446
L272.018 88.1822
L275.712 88.1822
L275.712 83.6198
L277.702 83.6198
L277.702 79.0574
L324.021 79.0574
L324.021 74.495
L327.037 74.495
L327.037 69.9327
L328.286 69.9327
L328.286 65.3703
L328.724 65.3703
L328.724 60.8079
L333.129 60.8079
L333.129 56.2455
L333.96 56.2455
L333.96 51.6832
L337.763 51.6832
L337.829 42.5584
L339.501 42.5584
L339.501 37.996
L342.748 37.996
L342.748 33.4337
L344.235 33.4337
L344.235 28.8713
L348.725 28.8713
L348.725 24.3089
L348.949 24.3089
L348.949 19.7465
L354.156 19.7465
L354.156 15.1842
L354.538 15.1842
L354.538 10.6218
L354.538 10.6218
L453.6 10.6218
L453.6 10.6218" style="fill:none;stroke:#00bfbf;stroke-linecap:square;"/>
   </g>
   <g id="line2d_6">
    <path clip-path="url(#p5bee155178)" d="
M-1 284.364
L3.75385 284.364
L3.75385 279.802
L13.4426 279.802
L13.4426 275.24
L29.0021 275.24
L29.0021 270.677
L29.4871 270.677
L29.4871 266.115
L32.1479 266.115
L32.1479 261.552
L39.2152 261.552
L39.2152 256.99
L59.0098 256.99
L59.0098 252.428
L64.388 252.428
L64.388 247.865
L73.4802 247.865
L73.4802 243.303
L105.386 243.303
L105.386 238.741
L118.085 238.741
L118.085 234.178
L120.814 234.178
L120.814 229.616
L146.588 229.616
L146.588 225.053
L166.978 225.053
L166.978 220.491
L184.317 220.491
L184.317 215.929
L237.947 215.929
L237.947 211.366
L242.417 211.366
L242.417 206.804
L243.274 206.804
L243.274 202.242
L243.41 202.242
L243.41 197.679
L243.914 197.679
L243.914 193.117
L245.646 193.117
L245.646 188.554
L246.093 188.554
L246.093 183.992
L246.507 183.992
L246.566 174.867
L248.971 174.867
L248.971 170.305
L249.256 170.305
L249.256 165.743
L249.441 165.743
L249.477 156.618
L250.305 156.618
L250.305 152.055
L250.94 152.055
L250.94 147.493
L251.801 147.493
L251.801 142.931
L252.04 142.931
L252.04 138.368
L252.256 138.368
L252.366 129.244
L252.508 129.244
L252.508 124.681
L252.742 124.681
L252.828 115.556
L253.687 115.556
L253.687 110.994
L254.037 110.994
L254.087 101.869
L254.222 101.869
L254.222 97.3069
L255.004 97.3069
L255.004 92.7446
L255.996 92.7446
L255.996 88.1822
L256.681 88.1822
L256.681 83.6198
L257.698 83.6198
L257.703 74.495
L258.095 74.495
L258.191 65.3703
L258.474 65.3703
L258.474 60.8079
L258.965 60.8079
L258.965 56.2455
L261.404 56.2455
L261.404 51.6832
L262.694 51.6832
L262.694 47.1208
L264.675 47.1208
L264.675 42.5584
L275.628 42.5584
L275.628 37.996
L287.102 37.996
L287.102 33.4337
L291.413 33.4337
L291.413 28.8713
L297.133 28.8713
L297.238 19.7465
L314.106 19.7465
L314.106 15.1842
L316.053 15.1842
L316.053 10.6218
L316.053 10.6218
L453.6 10.6218
L453.6 10.6218" style="fill:none;stroke:#bf00bf;stroke-linecap:square;"/>
   </g>
   <g id="matplotlib.axis_1">
    <g id="xtick_1"/>
    <g id="xtick_2">
     <g id="line2d_7">
      <path clip-path="url(#p5bee155178)" d="
M59.6175 352.8
L59.6175 7.2" style="fill:none;stroke:#000000;stroke-dasharray:1.000000,3.000000;stroke-dashoffset:0.0;stroke-width:0.5;"/>
     </g>
     <g id="line2d_8">
      <defs>
       <path d="
M0 0
L0 -4" id="m93b0483c22" style="stroke:#000000;stroke-width:0.5;"/>
      </defs>
      <g>
       <use style="stroke:#000000;stroke-width:0.5;" x="59.6174973142" xlink:href="#m93b0483c22" y="352.8"/>
      </g>
     </g>
     <g id="line2d_9">
      <defs>
       <path d="
M0 0
L0 4" id="m741efc42ff" style="stroke:#000000;stroke-width:0.5;"/>
      </defs>
      <g>
       <use style="stroke:#000000;stroke-width:0.5;" x="59.6174973142" xlink:href="#m741efc42ff" y="7.2"/>
      </g>
     </g>
     <g id="text_1">
      <!-- -6 -->
      <defs>
       <path d="
M3.17188 21.4844
L3.17188 30.3281
L30.1719 30.3281
L30.1719 21.4844
z
" id="ArialMT-2d"/>
       <path d="
M49.75 54.0469
L41.0156 53.375
Q39.8438 58.5469 37.7031 60.8906
Q34.125 64.6562 28.9062 64.6562
Q24.7031 64.6562 21.5312 62.3125
Q17.3906 59.2812 14.9844 53.4688
Q12.5938 47.6562 12.5 36.9219
Q15.6719 41.75 20.2656 44.0938
Q24.8594 46.4375 29.8906 46.4375
Q38.6719 46.4375 44.8438 39.9688
Q51.0312 33.5 51.0312 23.25
Q51.0312 16.5 48.125 10.7188
Q45.2188 4.9375 40.1406 1.85938
Q35.0625 -1.21875 28.6094 -1.21875
Q17.625 -1.21875 10.6875 6.85938
Q3.76562 14.9375 3.76562 33.5
Q3.76562 54.25 11.4219 63.6719
Q18.1094 71.875 29.4375 71.875
Q37.8906 71.875 43.2812 67.1406
Q48.6875 62.4062 49.75 54.0469
M13.875 23.1875
Q13.875 18.6562 15.7969 14.5
Q17.7188 10.3594 21.1875 8.17188
Q24.6562 6 28.4688 6
Q34.0312 6 38.0312 10.4844
Q42.0469 14.9844 42.0469 22.7031
Q42.0469 30.125 38.0781 34.3906
Q34.125 38.6719 28.125 38.6719
Q22.1719 38.6719 18.0156 34.3906
Q13.875 30.125 13.875 23.1875" id="ArialMT-36"/>
      </defs>
      <g transform="translate(51.5018723142 371.115625)scale(0.2 -0.2)">
       <use xlink:href="#ArialMT-2d"/>
       <use x="33.30078125" xlink:href="#ArialMT-36"/>
      </g>
     </g>
    </g>
    <g id="xtick_3">
     <g id="line2d_10">
      <path clip-path="url(#p5bee155178)" d="
M112.148 352.8
L112.148 7.2" style="fill:none;stroke:#000000;stroke-dasharray:1.000000,3.000000;stroke-dashoffset:0.0;stroke-width:0.5;"/>
     </g>
     <g id="line2d_11">
      <g>
       <use style="stroke:#000000;stroke-width:0.5;" x="112.148497672" xlink:href="#m93b0483c22" y="352.8"/>
      </g>
     </g>
     <g id="line2d_12">
      <g>
       <use style="stroke:#000000;stroke-width:0.5;" x="112.148497672" xlink:href="#m741efc42ff" y="7.2"/>
      </g>
     </g>
     <g id="text_2">
      <!-- -4 -->
      <defs>
       <path d="
M32.3281 0
L32.3281 17.1406
L1.26562 17.1406
L1.26562 25.2031
L33.9375 71.5781
L41.1094 71.5781
L41.1094 25.2031
L50.7812 25.2031
L50.7812 17.1406
L41.1094 17.1406
L41.1094 0
z

M32.3281 25.2031
L32.3281 57.4688
L9.90625 25.2031
z
" id="ArialMT-34"/>
      </defs>
      <g transform="translate(104.057872672 371.115625)scale(0.2 -0.2)">
       <use xlink:href="#ArialMT-2d"/>
       <use x="33.30078125" xlink:href="#ArialMT-34"/>
      </g>
     </g>
    </g>
    <g id="xtick_4">
     <g id="line2d_13">
      <path clip-path="url(#p5bee155178)" d="
M164.679 352.8
L164.679 7.2" style="fill:none;stroke:#000000;stroke-dasharray:1.000000,3.000000;stroke-dashoffset:0.0;stroke-width:0.5;"/>
     </g>
     <g id="line2d_14">
      <g>
       <use style="stroke:#000000;stroke-width:0.5;" x="164.67949803" xlink:href="#m93b0483c22" y="352.8"/>
      </g>
     </g>
     <g id="line2d_15">
      <g>
       <use style="stroke:#000000;stroke-width:0.5;" x="164.67949803" xlink:href="#m741efc42ff" y="7.2"/>
      </g>
     </g>
     <g id="text_3">
      <!-- -2 -->
      <defs>
       <path d="
M50.3438 8.45312
L50.3438 0
L3.03125 0
Q2.9375 3.17188 4.04688 6.10938
Q5.85938 10.9375 9.82812 15.625
Q13.8125 20.3125 21.3438 26.4688
Q33.0156 36.0312 37.1094 41.625
Q41.2188 47.2188 41.2188 52.2031
Q41.2188 57.4219 37.4688 61
Q33.7344 64.5938 27.7344 64.5938
Q21.3906 64.5938 17.5781 60.7812
Q13.7656 56.9844 13.7188 50.25
L4.6875 51.1719
Q5.60938 61.2812 11.6562 66.5781
Q17.7188 71.875 27.9375 71.875
Q38.2344 71.875 44.2344 66.1562
Q50.25 60.4531 50.25 52
Q50.25 47.7031 48.4844 43.5469
Q46.7344 39.4062 42.6562 34.8125
Q38.5781 30.2188 29.1094 22.2188
Q21.1875 15.5781 18.9375 13.2031
Q16.7031 10.8438 15.2344 8.45312
z
" id="ArialMT-32"/>
      </defs>
      <g transform="translate(156.63262303 371.115625)scale(0.2 -0.2)">
       <use xlink:href="#ArialMT-2d"/>
       <use x="33.30078125" xlink:href="#ArialMT-32"/>
      </g>
     </g>
    </g>
    <g id="xtick_5">
     <g id="line2d_16">
      <path clip-path="url(#p5bee155178)" d="
M217.21 352.8
L217.21 7.2" style="fill:none;stroke:#000000;stroke-dasharray:1.000000,3.000000;stroke-dashoffset:0.0;stroke-width:0.5;"/>
     </g>
     <g id="line2d_17">
      <g>
       <use style="stroke:#000000;stroke-width:0.5;" x="217.210498389" xlink:href="#m93b0483c22" y="352.8"/>
      </g>
     </g>
     <g id="line2d_18">
      <g>
       <use style="stroke:#000000;stroke-width:0.5;" x="217.210498389" xlink:href="#m741efc42ff" y="7.2"/>
      </g>
     </g>
     <g id="text_4">
      <!-- 0 -->
      <defs>
       <path d="
M4.15625 35.2969
Q4.15625 48 6.76562 55.7344
Q9.375 63.4844 14.5156 67.6719
Q19.6719 71.875 27.4844 71.875
Q33.25 71.875 37.5938 69.5469
Q41.9375 67.2344 44.7656 62.8594
Q47.6094 58.5 49.2188 52.2188
Q50.8281 45.9531 50.8281 35.2969
Q50.8281 22.7031 48.2344 14.9688
Q45.6562 7.23438 40.5 3
Q35.3594 -1.21875 27.4844 -1.21875
Q17.1406 -1.21875 11.2344 6.20312
Q4.15625 15.1406 4.15625 35.2969
M13.1875 35.2969
Q13.1875 17.6719 17.3125 11.8281
Q21.4375 6 27.4844 6
Q33.5469 6 37.6719 11.8594
Q41.7969 17.7188 41.7969 35.2969
Q41.7969 52.9844 37.6719 58.7812
Q33.5469 64.5938 27.3906 64.5938
Q21.3438 64.5938 17.7188 59.4688
Q13.1875 52.9375 13.1875 35.2969" id="ArialMT-30"/>
      </defs>
      <g transform="translate(212.543310889 371.115625)scale(0.2 -0.2)">
       <use xlink:href="#ArialMT-30"/>
      </g>
     </g>
    </g>
    <g id="xtick_6">
     <g id="line2d_19">
      <path clip-path="url(#p5bee155178)" d="
M269.741 352.8
L269.741 7.2" style="fill:none;stroke:#000000;stroke-dasharray:1.000000,3.000000;stroke-dashoffset:0.0;stroke-width:0.5;"/>
     </g>
     <g id="line2d_20">
      <g>
       <use style="stroke:#000000;stroke-width:0.5;" x="269.741498747" xlink:href="#m93b0483c22" y="352.8"/>
      </g>
     </g>
     <g id="line2d_21">
      <g>
       <use style="stroke:#000000;stroke-width:0.5;" x="269.741498747" xlink:href="#m741efc42ff" y="7.2"/>
      </g>
     </g>
     <g id="text_5">
      <!-- 2 -->
      <g transform="translate(265.000873747 371.115625)scale(0.2 -0.2)">
       <use xlink:href="#ArialMT-32"/>
      </g>
     </g>
    </g>
    <g id="xtick_7">
     <g id="line2d_22">
      <path clip-path="url(#p5bee155178)" d="
M322.272 352.8
L322.272 7.2" style="fill:none;stroke:#000000;stroke-dasharray:1.000000,3.000000;stroke-dashoffset:0.0;stroke-width:0.5;"/>
     </g>
     <g id="line2d_23">
      <g>
       <use style="stroke:#000000;stroke-width:0.5;" x="322.272499105" xlink:href="#m93b0483c22" y="352.8"/>
      </g>
     </g>
     <g id="line2d_24">
      <g>
       <use style="stroke:#000000;stroke-width:0.5;" x="322.272499105" xlink:href="#m741efc42ff" y="7.2"/>
      </g>
     </g>
     <g id="text_6">
      <!-- 4 -->
      <g transform="translate(317.320936605 371.115625)scale(0.2 -0.2)">
       <use xlink:href="#ArialMT-34"/>
      </g>
     </g>
    </g>
    <g id="xtick_8">
     <g id="line2d_25">
      <path clip-path="url(#p5bee155178)" d="
M374.803 352.8
L374.803 7.2" style="fill:none;stroke:#000000;stroke-dasharray:1.000000,3.000000;stroke-dashoffset:0.0;stroke-width:0.5;"/>
     </g>
     <g id="line2d_26">
      <g>
       <use style="stroke:#000000;stroke-width:0.5;" x="374.803499463" xlink:href="#m93b0483c22" y="352.8"/>
      </g>
     </g>
     <g id="line2d_27">
      <g>
       <use style="stroke:#000000;stroke-width:0.5;" x="374.803499463" xlink:href="#m741efc42ff" y="7.2"/>
      </g>
     </g>
     <g id="text_7">
      <!-- 6 -->
      <g transform="translate(370.076936963 371.115625)scale(0.2 -0.2)">
       <use xlink:href="#ArialMT-36"/>
      </g>
     </g>
    </g>
    <g id="xtick_9">
     <g id="line2d_28">
      <path clip-path="url(#p5bee155178)" d="
M427.334 352.8
L427.334 7.2" style="fill:none;stroke:#000000;stroke-dasharray:1.000000,3.000000;stroke-dashoffset:0.0;stroke-width:0.5;"/>
     </g>
     <g id="line2d_29">
      <g>
       <use style="stroke:#000000;stroke-width:0.5;" x="427.334499821" xlink:href="#m93b0483c22" y="352.8"/>
      </g>
     </g>
     <g id="line2d_30">
      <g>
       <use style="stroke:#000000;stroke-width:0.5;" x="427.334499821" xlink:href="#m741efc42ff" y="7.2"/>
      </g>
     </g>
     <g id="text_8">
      <!-- 8 -->
      <defs>
       <path d="
M17.6719 38.8125
Q12.2031 40.8281 9.5625 44.5312
Q6.9375 48.25 6.9375 53.4219
Q6.9375 61.2344 12.5469 66.5469
Q18.1719 71.875 27.4844 71.875
Q36.8594 71.875 42.5781 66.4219
Q48.2969 60.9844 48.2969 53.1719
Q48.2969 48.1875 45.6719 44.5
Q43.0625 40.8281 37.75 38.8125
Q44.3438 36.6719 47.7812 31.875
Q51.2188 27.0938 51.2188 20.4531
Q51.2188 11.2812 44.7188 5.03125
Q38.2344 -1.21875 27.6406 -1.21875
Q17.0469 -1.21875 10.5469 5.04688
Q4.04688 11.3281 4.04688 20.7031
Q4.04688 27.6875 7.59375 32.3906
Q11.1406 37.1094 17.6719 38.8125
M15.9219 53.7188
Q15.9219 48.6406 19.1875 45.4062
Q22.4688 42.1875 27.6875 42.1875
Q32.7656 42.1875 36.0156 45.375
Q39.2656 48.5781 39.2656 53.2188
Q39.2656 58.0625 35.9062 61.3594
Q32.5625 64.6562 27.5938 64.6562
Q22.5625 64.6562 19.2344 61.4219
Q15.9219 58.2031 15.9219 53.7188
M13.0938 20.6562
Q13.0938 16.8906 14.875 13.375
Q16.6562 9.85938 20.1719 7.92188
Q23.6875 6 27.7344 6
Q34.0312 6 38.125 10.0469
Q42.2344 14.1094 42.2344 20.3594
Q42.2344 26.7031 38.0156 30.8594
Q33.7969 35.0156 27.4375 35.0156
Q21.2344 35.0156 17.1562 30.9062
Q13.0938 26.8125 13.0938 20.6562" id="ArialMT-38"/>
      </defs>
      <g transform="translate(422.617312321 371.115625)scale(0.2 -0.2)">
       <use xlink:href="#ArialMT-38"/>
      </g>
     </g>
    </g>
    <g id="xtick_10"/>
    <g id="xtick_11">
     <g id="line2d_31">
      <defs>
       <path d="
M0 0
L0 -2" id="m177f7580d0" style="stroke:#000000;stroke-width:0.5;"/>
      </defs>
      <g>
       <use style="stroke:#000000;stroke-width:0.5;" x="59.6174973142" xlink:href="#m177f7580d0" y="352.8"/>
      </g>
     </g>
     <g id="line2d_32">
      <defs>
       <path d="
M0 0
L0 2" id="m5284c7e2a0" style="stroke:#000000;stroke-width:0.5;"/>
      </defs>
      <g>
       <use style="stroke:#000000;stroke-width:0.5;" x="59.6174973142" xlink:href="#m5284c7e2a0" y="7.2"/>
      </g>
     </g>
    </g>
    <g id="xtick_12">
     <g id="line2d_33">
      <g>
       <use style="stroke:#000000;stroke-width:0.5;" x="112.148497672" xlink:href="#m177f7580d0" y="352.8"/>
      </g>
     </g>
     <g id="line2d_34">
      <g>
       <use style="stroke:#000000;stroke-width:0.5;" x="112.148497672" xlink:href="#m5284c7e2a0" y="7.2"/>
      </g>
     </g>
    </g>
    <g id="xtick_13">
     <g id="line2d_35">
      <g>
       <use style="stroke:#000000;stroke-width:0.5;" x="164.67949803" xlink:href="#m177f7580d0" y="352.8"/>
      </g>
     </g>
     <g id="line2d_36">
      <g>
       <use style="stroke:#000000;stroke-width:0.5;" x="164.67949803" xlink:href="#m5284c7e2a0" y="7.2"/>
      </g>
     </g>
    </g>
    <g id="xtick_14">
     <g id="line2d_37">
      <g>
       <use style="stroke:#000000;stroke-width:0.5;" x="217.210498389" xlink:href="#m177f7580d0" y="352.8"/>
      </g>
     </g>
     <g id="line2d_38">
      <g>
       <use style="stroke:#000000;stroke-width:0.5;" x="217.210498389" xlink:href="#m5284c7e2a0" y="7.2"/>
      </g>
     </g>
    </g>
    <g id="xtick_15">
     <g id="line2d_39">
      <g>
       <use style="stroke:#000000;stroke-width:0.5;" x="269.741498747" xlink:href="#m177f7580d0" y="352.8"/>
      </g>
     </g>
     <g id="line2d_40">
      <g>
       <use style="stroke:#000000;stroke-width:0.5;" x="269.741498747" xlink:href="#m5284c7e2a0" y="7.2"/>
      </g>
     </g>
    </g>
    <g id="xtick_16">
     <g id="line2d_41">
      <g>
       <use style="stroke:#000000;stroke-width:0.5;" x="322.272499105" xlink:href="#m177f7580d0" y="352.8"/>
      </g>
     </g>
     <g id="line2d_42">
      <g>
       <use style="stroke:#000000;stroke-width:0.5;" x="322.272499105" xlink:href="#m5284c7e2a0" y="7.2"/>
      </g>
     </g>
    </g>
    <g id="xtick_17">
     <g id="line2d_43">
      <g>
       <use style="stroke:#000000;stroke-width:0.5;" x="374.803499463" xlink:href="#m177f7580d0" y="352.8"/>
      </g>
     </g>
     <g id="line2d_44">
      <g>
       <use style="stroke:#000000;stroke-width:0.5;" x="374.803499463" xlink:href="#m5284c7e2a0" y="7.2"/>
      </g>
     </g>
    </g>
    <g id="xtick_18">
     <g id="line2d_45">
      <g>
       <use style="stroke:#000000;stroke-width:0.5;" x="427.334499821" xlink:href="#m177f7580d0" y="352.8"/>
      </g>
     </g>
     <g id="line2d_46">
      <g>
       <use style="stroke:#000000;stroke-width:0.5;" x="427.334499821" xlink:href="#m5284c7e2a0" y="7.2"/>
      </g>
     </g>
    </g>
    <g id="text_9">
     <!-- log10 of Df -->
     <defs>
      <path d="
M4.98438 -4.29688
L13.5312 -5.5625
Q14.0625 -9.51562 16.5 -11.3281
Q19.7812 -13.7656 25.4375 -13.7656
Q31.5469 -13.7656 34.8594 -11.3281
Q38.1875 -8.89062 39.3594 -4.5
Q40.0469 -1.8125 39.9844 6.78125
Q34.2344 0 25.6406 0
Q14.9375 0 9.07812 7.71875
Q3.21875 15.4375 3.21875 26.2188
Q3.21875 33.6406 5.90625 39.9062
Q8.59375 46.1875 13.6875 49.6094
Q18.7969 53.0312 25.6875 53.0312
Q34.8594 53.0312 40.8281 45.6094
L40.8281 51.8594
L48.9219 51.8594
L48.9219 7.03125
Q48.9219 -5.07812 46.4531 -10.125
Q44 -15.1875 38.6406 -18.1094
Q33.2969 -21.0469 25.4844 -21.0469
Q16.2188 -21.0469 10.5 -16.875
Q4.78125 -12.7031 4.98438 -4.29688
M12.25 26.8594
Q12.25 16.6562 16.2969 11.9688
Q20.3594 7.28125 26.4688 7.28125
Q32.5156 7.28125 36.6094 11.9375
Q40.7188 16.6094 40.7188 26.5625
Q40.7188 36.0781 36.5 40.9062
Q32.2812 45.75 26.3125 45.75
Q20.4531 45.75 16.3438 40.9844
Q12.25 36.2344 12.25 26.8594" id="ArialMT-67"/>
      <path d="
M8.6875 0
L8.6875 45.0156
L0.921875 45.0156
L0.921875 51.8594
L8.6875 51.8594
L8.6875 57.375
Q8.6875 62.5938 9.625 65.1406
Q10.8906 68.5625 14.0781 70.6719
Q17.2812 72.7969 23.0469 72.7969
Q26.7656 72.7969 31.25 71.9219
L29.9375 64.2656
Q27.2031 64.75 24.75 64.75
Q20.75 64.75 19.0938 63.0312
Q17.4375 61.3281 17.4375 56.6406
L17.4375 51.8594
L27.5469 51.8594
L27.5469 45.0156
L17.4375 45.0156
L17.4375 0
z
" id="ArialMT-66"/>
      <path d="
M7.71875 0
L7.71875 71.5781
L32.375 71.5781
Q40.7188 71.5781 45.125 70.5625
Q51.2656 69.1406 55.6094 65.4375
Q61.2812 60.6406 64.0781 53.1875
Q66.8906 45.75 66.8906 36.1875
Q66.8906 28.0312 64.9844 21.7344
Q63.0938 15.4375 60.1094 11.2969
Q57.125 7.17188 53.5781 4.79688
Q50.0469 2.4375 45.0469 1.21875
Q40.0469 0 33.5469 0
z

M17.1875 8.45312
L32.4688 8.45312
Q39.5469 8.45312 43.5781 9.76562
Q47.6094 11.0781 50 13.4844
Q53.375 16.8438 55.25 22.5312
Q57.125 28.2188 57.125 36.3281
Q57.125 47.5625 53.4375 53.5938
Q49.75 59.625 44.4844 61.6719
Q40.6719 63.1406 32.2344 63.1406
L17.1875 63.1406
z
" id="ArialMT-44"/>
      <path d="
M6.39062 0
L6.39062 71.5781
L15.1875 71.5781
L15.1875 0
z
" id="ArialMT-6c"/>
      <path d="
M3.32812 25.9219
Q3.32812 40.3281 11.3281 47.2656
Q18.0156 53.0312 27.6406 53.0312
Q38.3281 53.0312 45.1094 46.0156
Q51.9062 39.0156 51.9062 26.6562
Q51.9062 16.6562 48.9062 10.9062
Q45.9062 5.17188 40.1562 2
Q34.4219 -1.17188 27.6406 -1.17188
Q16.75 -1.17188 10.0312 5.8125
Q3.32812 12.7969 3.32812 25.9219
M12.3594 25.9219
Q12.3594 15.9688 16.7031 11.0156
Q21.0469 6.0625 27.6406 6.0625
Q34.1875 6.0625 38.5312 11.0312
Q42.875 16.0156 42.875 26.2188
Q42.875 35.8438 38.5 40.7969
Q34.125 45.75 27.6406 45.75
Q21.0469 45.75 16.7031 40.8125
Q12.3594 35.8906 12.3594 25.9219" id="ArialMT-6f"/>
      <path d="
M37.25 0
L28.4688 0
L28.4688 56
Q25.2969 52.9844 20.1406 49.9531
Q14.9844 46.9219 10.8906 45.4062
L10.8906 53.9062
Q18.2656 57.375 23.7812 62.2969
Q29.2969 67.2344 31.5938 71.875
L37.25 71.875
z
" id="ArialMT-31"/>
      <path id="ArialMT-20"/>
     </defs>
     <g transform="translate(181.6921875 394.65)scale(0.2 -0.2)">
      <use xlink:href="#ArialMT-6c"/>
      <use x="22.216796875" xlink:href="#ArialMT-6f"/>
      <use x="77.83203125" xlink:href="#ArialMT-67"/>
      <use x="133.447265625" xlink:href="#ArialMT-31"/>
      <use x="189.0625" xlink:href="#ArialMT-30"/>
      <use x="244.677734375" xlink:href="#ArialMT-20"/>
      <use x="272.4609375" xlink:href="#ArialMT-6f"/>
      <use x="328.076171875" xlink:href="#ArialMT-66"/>
      <use x="355.859375" xlink:href="#ArialMT-20"/>
      <use x="383.642578125" xlink:href="#ArialMT-44"/>
      <use x="455.859375" xlink:href="#ArialMT-66"/>
     </g>
    </g>
   </g>
   <g id="matplotlib.axis_2">
    <g id="ytick_1">
     <g id="line2d_47">
      <path clip-path="url(#p5bee155178)" d="
M7.2 352.8
L453.6 352.8" style="fill:none;stroke:#000000;stroke-dasharray:1.000000,3.000000;stroke-dashoffset:0.0;stroke-width:0.5;"/>
     </g>
     <g id="line2d_48">
      <defs>
       <path d="
M0 0
L4 0" id="m728421d6d4" style="stroke:#000000;stroke-width:0.5;"/>
      </defs>
      <g>
       <use style="stroke:#000000;stroke-width:0.5;" x="7.2" xlink:href="#m728421d6d4" y="352.8"/>
      </g>
     </g>
     <g id="line2d_49">
      <defs>
       <path d="
M0 0
L-4 0" id="mcb0005524f" style="stroke:#000000;stroke-width:0.5;"/>
      </defs>
      <g>
       <use style="stroke:#000000;stroke-width:0.5;" x="453.6" xlink:href="#mcb0005524f" y="352.8"/>
      </g>
     </g>
    </g>
    <g id="ytick_2">
     <g id="line2d_50">
      <path clip-path="url(#p5bee155178)" d="
M7.2 284.364
L453.6 284.364" style="fill:none;stroke:#000000;stroke-dasharray:1.000000,3.000000;stroke-dashoffset:0.0;stroke-width:0.5;"/>
     </g>
     <g id="line2d_51">
      <g>
       <use style="stroke:#000000;stroke-width:0.5;" x="7.2" xlink:href="#m728421d6d4" y="284.364356436"/>
      </g>
     </g>
     <g id="line2d_52">
      <g>
       <use style="stroke:#000000;stroke-width:0.5;" x="453.6" xlink:href="#mcb0005524f" y="284.364356436"/>
      </g>
     </g>
    </g>
    <g id="ytick_3">
     <g id="line2d_53">
      <path clip-path="url(#p5bee155178)" d="
M7.2 215.929
L453.6 215.929" style="fill:none;stroke:#000000;stroke-dasharray:1.000000,3.000000;stroke-dashoffset:0.0;stroke-width:0.5;"/>
     </g>
     <g id="line2d_54">
      <g>
       <use style="stroke:#000000;stroke-width:0.5;" x="7.2" xlink:href="#m728421d6d4" y="215.928712871"/>
      </g>
     </g>
     <g id="line2d_55">
      <g>
       <use style="stroke:#000000;stroke-width:0.5;" x="453.6" xlink:href="#mcb0005524f" y="215.928712871"/>
      </g>
     </g>
    </g>
    <g id="ytick_4">
     <g id="line2d_56">
      <path clip-path="url(#p5bee155178)" d="
M7.2 147.493
L453.6 147.493" style="fill:none;stroke:#000000;stroke-dasharray:1.000000,3.000000;stroke-dashoffset:0.0;stroke-width:0.5;"/>
     </g>
     <g id="line2d_57">
      <g>
       <use style="stroke:#000000;stroke-width:0.5;" x="7.2" xlink:href="#m728421d6d4" y="147.493069307"/>
      </g>
     </g>
     <g id="line2d_58">
      <g>
       <use style="stroke:#000000;stroke-width:0.5;" x="453.6" xlink:href="#mcb0005524f" y="147.493069307"/>
      </g>
     </g>
    </g>
    <g id="ytick_5">
     <g id="line2d_59">
      <path clip-path="url(#p5bee155178)" d="
M7.2 79.0574
L453.6 79.0574" style="fill:none;stroke:#000000;stroke-dasharray:1.000000,3.000000;stroke-dashoffset:0.0;stroke-width:0.5;"/>
     </g>
     <g id="line2d_60">
      <g>
       <use style="stroke:#000000;stroke-width:0.5;" x="7.2" xlink:href="#m728421d6d4" y="79.0574257426"/>
      </g>
     </g>
     <g id="line2d_61">
      <g>
       <use style="stroke:#000000;stroke-width:0.5;" x="453.6" xlink:href="#mcb0005524f" y="79.0574257426"/>
      </g>
     </g>
    </g>
    <g id="ytick_6">
     <g id="line2d_62">
      <path clip-path="url(#p5bee155178)" d="
M7.2 10.6218
L453.6 10.6218" style="fill:none;stroke:#000000;stroke-dasharray:1.000000,3.000000;stroke-dashoffset:0.0;stroke-width:0.5;"/>
     </g>
     <g id="line2d_63">
      <g>
       <use style="stroke:#000000;stroke-width:0.5;" x="7.2" xlink:href="#m728421d6d4" y="10.6217821782"/>
      </g>
     </g>
     <g id="line2d_64">
      <g>
       <use style="stroke:#000000;stroke-width:0.5;" x="453.6" xlink:href="#mcb0005524f" y="10.6217821782"/>
      </g>
     </g>
    </g>
   </g>
   <g id="patch_3">
    <path d="
M7.2 7.2
L453.6 7.2" style="fill:none;stroke:#000000;"/>
   </g>
   <g id="patch_4">
    <path d="
M453.6 352.8
L453.6 7.2" style="fill:none;stroke:#000000;"/>
   </g>
   <g id="patch_5">
    <path d="
M7.2 352.8
L453.6 352.8" style="fill:none;stroke:#000000;"/>
   </g>
   <g id="patch_6">
    <path d="
M7.2 352.8
L7.2 7.2" style="fill:none;stroke:#000000;"/>
   </g>
   <g id="text_10">
    <!-- {f1-f5}, 5-D -->
    <defs>
     <path d="
M30.5625 29.8906
L30.5625 21.9219
Q26.8125 21.8281 24.4375 19.875
Q22.0781 17.9219 21.2969 14.5781
Q20.5156 11.2344 20.4531 3.07812
Q20.4062 -5.07812 20.1719 -7.67188
Q19.7344 -11.8125 18.5312 -14.2812
Q17.3281 -16.75 15.5625 -18.2344
Q13.8125 -19.7344 11.0781 -20.5156
Q9.23438 -21.0469 5.03125 -21.0469
L2.29688 -21.0469
L2.29688 -13.375
L3.8125 -13.375
Q8.89062 -13.375 10.5469 -11.5469
Q12.2031 -9.71875 12.2031 -3.32812
Q12.2031 8.89062 12.6406 12.1562
Q13.4219 17.5781 15.7656 20.8281
Q18.1094 24.0781 22.4062 25.875
Q16.7969 28.5625 14.5 32.9844
Q12.2031 37.4062 12.2031 47.9062
Q12.2031 57.4219 11.9688 59.2812
Q11.625 62.5469 10.0312 63.8438
Q8.45312 65.1406 3.8125 65.1406
L2.29688 65.1406
L2.29688 72.7969
L5.03125 72.7969
Q9.8125 72.7969 11.9688 72.0156
Q15.0938 70.9531 17.1406 68.4062
Q19.1875 65.875 19.7969 62.0156
Q20.4062 58.1562 20.4531 49.3594
Q20.5156 40.5781 21.2969 37.2344
Q22.0781 33.8906 24.4375 31.9375
Q26.8125 29.9844 30.5625 29.8906" id="ArialMT-7d"/>
     <path d="
M8.89062 0
L8.89062 10.0156
L18.8906 10.0156
L18.8906 0
Q18.8906 -5.51562 16.9375 -8.90625
Q14.9844 -12.3125 10.75 -14.1562
L8.29688 -10.4062
Q11.0781 -9.1875 12.3906 -6.8125
Q13.7188 -4.4375 13.875 0
z
" id="ArialMT-2c"/>
     <path d="
M4.15625 18.75
L13.375 19.5312
Q14.4062 12.7969 18.1406 9.39062
Q21.875 6 27.1562 6
Q33.5 6 37.8906 10.7812
Q42.2812 15.5781 42.2812 23.4844
Q42.2812 31 38.0625 35.3438
Q33.8438 39.7031 27 39.7031
Q22.75 39.7031 19.3281 37.7656
Q15.9219 35.8438 13.9688 32.7656
L5.71875 33.8438
L12.6406 70.6094
L48.25 70.6094
L48.25 62.2031
L19.6719 62.2031
L15.8281 42.9688
Q22.2656 47.4688 29.3438 47.4688
Q38.7188 47.4688 45.1562 40.9688
Q51.6094 34.4688 51.6094 24.2656
Q51.6094 14.5469 45.9531 7.46875
Q39.0625 -1.21875 27.1562 -1.21875
Q17.3906 -1.21875 11.2031 4.25
Q5.03125 9.71875 4.15625 18.75" id="ArialMT-35"/>
     <path d="
M2.78125 29.8906
Q6.54688 29.9844 8.90625 31.9062
Q11.2812 33.8438 12.0625 37.2031
Q12.8438 40.5781 12.8906 48.7344
Q12.9375 56.8906 13.1875 59.4688
Q13.625 63.5781 14.8125 66.0625
Q16.0156 68.5625 17.7656 70.0469
Q19.5312 71.5312 22.2656 72.3125
Q24.125 72.7969 28.3281 72.7969
L31.0625 72.7969
L31.0625 65.1406
L29.5469 65.1406
Q24.4688 65.1406 22.7969 63.2969
Q21.1406 61.4688 21.1406 55.125
Q21.1406 42.3281 20.6094 38.9688
Q19.7344 33.7344 17.6094 30.9062
Q15.4844 28.0781 10.9375 25.875
Q16.3125 23.6406 18.7188 19.0156
Q21.1406 14.4062 21.1406 3.90625
Q21.1406 -5.60938 21.3438 -7.42188
Q21.7344 -10.75 23.3125 -12.0625
Q24.9062 -13.375 29.5469 -13.375
L31.0625 -13.375
L31.0625 -21.0469
L28.3281 -21.0469
Q23.5312 -21.0469 21.3906 -20.2656
Q18.2656 -19.1406 16.2031 -16.625
Q14.1562 -14.1094 13.5469 -10.25
Q12.9375 -6.39062 12.8906 2.39062
Q12.8438 11.1875 12.0625 14.5469
Q11.2812 17.9219 8.90625 19.875
Q6.54688 21.8281 2.78125 21.9219
z
" id="ArialMT-7b"/>
    </defs>
    <g transform="translate(349.022 345.888)scale(0.2 -0.2)">
     <use xlink:href="#ArialMT-7b"/>
     <use x="33.3984375" xlink:href="#ArialMT-66"/>
     <use x="61.181640625" xlink:href="#ArialMT-31"/>
     <use x="116.796875" xlink:href="#ArialMT-2d"/>
     <use x="150.09765625" xlink:href="#ArialMT-66"/>
     <use x="177.880859375" xlink:href="#ArialMT-35"/>
     <use x="233.49609375" xlink:href="#ArialMT-7d"/>
     <use x="266.89453125" xlink:href="#ArialMT-2c"/>
     <use x="294.677734375" xlink:href="#ArialMT-20"/>
     <use x="322.4609375" xlink:href="#ArialMT-35"/>
     <use x="378.076171875" xlink:href="#ArialMT-2d"/>
     <use x="411.376953125" xlink:href="#ArialMT-44"/>
    </g>
   </g>
   <g id="text_11">
    <!-- v2.0.1 -->
    <defs>
     <path d="
M21 0
L1.26562 51.8594
L10.5469 51.8594
L21.6875 20.7969
Q23.4844 15.7656 25 10.3594
Q26.1719 14.4531 28.2656 20.2188
L39.7969 51.8594
L48.8281 51.8594
L29.2031 0
z
" id="ArialMT-76"/>
     <path d="
M9.07812 0
L9.07812 10.0156
L19.0938 10.0156
L19.0938 0
z
" id="ArialMT-2e"/>
    </defs>
    <g style="fill:#808080;" transform="translate(217.76171875 347.3565)scale(0.1 -0.1)">
     <use xlink:href="#ArialMT-76"/>
     <use x="50.0" xlink:href="#ArialMT-32"/>
     <use x="105.615234375" xlink:href="#ArialMT-2e"/>
     <use x="133.3984375" xlink:href="#ArialMT-30"/>
     <use x="189.013671875" xlink:href="#ArialMT-2e"/>
     <use x="216.796875" xlink:href="#ArialMT-31"/>
    </g>
   </g>
  </g>
 </g>
 <defs>
  <clipPath id="p5bee155178">
   <rect height="345.6" width="446.4" x="7.2" y="7.2"/>
  </clipPath>
 </defs>
</svg>
