<?xml version="1.0" encoding="utf-8" standalone="no"?>
<!DOCTYPE svg PUBLIC "-//W3C//DTD SVG 1.1//EN"
  "http://www.w3.org/Graphics/SVG/1.1/DTD/svg11.dtd">
<!-- Created with matplotlib (http://matplotlib.org/) -->
<svg height="406pt" version="1.1" viewBox="0 0 460 406" width="460pt" xmlns="http://www.w3.org/2000/svg" xmlns:xlink="http://www.w3.org/1999/xlink">
 <defs>
  <style type="text/css">
*{stroke-linecap:butt;stroke-linejoin:round;}
  </style>
 </defs>
 <g id="figure_1">
  <g id="patch_1">
   <path d="
M0 406.059
L460.8 406.059
L460.8 0
L0 0
z
" style="fill:#ffffff;"/>
  </g>
  <g id="axes_1">
   <g id="patch_2">
    <path d="
M7.2 352.8
L453.6 352.8
L453.6 7.2
L7.2 7.2
z
" style="fill:#ffffff;"/>
   </g>
   <g id="line2d_1">
    <path clip-path="url(#p5bee155178)" d="
M4.32443 352.8
L4.32443 348.238
L49.6245 348.238
L49.6245 343.675
L177.831 343.675
L177.831 339.113
L179.974 339.113
L179.974 334.55
L186.322 334.55
L186.322 329.988
L205.533 329.988
L205.533 325.426
L211.413 325.426
L211.413 320.863
L213.137 320.863
L213.137 316.301
L217.664 316.301
L217.664 311.739
L221.107 311.739
L221.107 307.176
L221.409 307.176
L221.409 302.614
L221.822 302.614
L221.822 298.051
L222.559 298.051
L222.559 293.489
L223.262 293.489
L223.262 288.927
L223.799 288.927
L223.825 279.802
L223.985 279.802
L223.985 275.24
L224.245 275.24
L224.283 266.115
L224.368 266.115
L224.368 261.552
L224.67 261.552
L224.67 256.99
L224.813 256.99
L224.859 243.303
L224.938 243.303
L224.938 238.741
L225.122 238.741
L225.122 234.178
L225.332 234.178
L225.364 225.053
L225.458 225.053
L225.458 220.491
L225.604 220.491
L225.641 211.366
L226.145 211.366
L226.145 206.804
L226.536 206.804
L226.576 188.554
L226.928 188.554
L226.928 183.992
L227.039 183.992
L227.039 179.43
L227.212 179.43
L227.31 170.305
L227.931 170.305
L227.931 165.743
L228.068 165.743
L228.068 161.18
L228.461 161.18
L228.461 156.618
L228.703 156.618
L228.703 152.055
L229.759 152.055
L229.759 147.493
L230.485 147.493
L230.485 142.931
L231.018 142.931
L231.018 138.368
L232.059 138.368
L232.059 133.806
L235.911 133.806
L235.911 129.244
L236.532 129.244
L236.532 124.681
L239.282 124.681
L239.282 120.119
L239.426 120.119
L239.426 115.556
L240.96 115.556
L241.023 106.432
L241.659 106.432
L241.659 101.869
L241.889 101.869
L241.957 92.7446
L244.693 92.7446
L244.693 88.1822
L247.873 88.1822
L247.873 83.6198
L249.146 83.6198
L249.146 79.0574
L250.227 79.0574
L250.227 74.495
L250.577 74.495
L250.633 65.3703
L251.695 65.3703
L251.695 60.8079
L252.318 60.8079
L252.406 47.1208
L252.82 47.1208
L252.922 37.996
L253.031 37.996
L253.031 33.4337
L254.317 33.4337
L254.317 28.8713
L254.492 28.8713
L254.492 24.3089
L254.665 24.3089
L254.665 19.7465
L254.817 19.7465
L254.817 15.1842
L258.1 15.1842
L258.1 10.6218
L258.1 10.6218
L453.6 10.6218
L453.6 10.6218" style="fill:none;stroke:#ff0000;stroke-linecap:square;stroke-width:3.0;"/>
   </g>
   <g id="line2d_2">
    <path clip-path="url(#p5bee155178)" d="
M239.475 352.8
L239.475 348.238
L242.511 348.238
L242.511 343.675
L242.805 343.675
L242.805 339.113
L243.144 339.113
L243.144 334.55
L243.499 334.55
L243.499 329.988
L243.907 329.988
L243.907 325.426
L246.478 325.426
L246.478 320.863
L246.652 320.863
L246.652 316.301
L248.502 316.301
L248.571 307.176
L250.401 307.176
L250.486 298.051
L252.563 298.051
L252.563 293.489
L253.134 293.489
L253.134 288.927
L254.31 288.927
L254.404 279.802
L255.053 279.802
L255.135 270.677
L255.262 270.677
L255.262 266.115
L256.009 266.115
L256.009 261.552
L257.586 261.552
L257.586 256.99
L259.099 256.99
L259.099 252.428
L260.522 252.428
L260.523 243.303
L260.918 243.303
L260.918 238.741
L261.23 238.741
L261.23 234.178
L262.321 234.178
L262.321 229.616
L262.9 229.616
L262.9 225.053
L263.061 225.053
L263.061 220.491
L263.368 220.491
L263.43 211.366
L263.617 211.366
L263.617 206.804
L264.071 206.804
L264.071 202.242
L264.648 202.242
L264.648 197.679
L265.068 197.679
L265.068 193.117
L265.322 193.117
L265.322 188.554
L265.66 188.554
L265.66 183.992
L266.071 183.992
L266.071 179.43
L266.47 179.43
L266.47 174.867
L266.644 174.867
L266.708 156.618
L266.785 156.618
L266.785 152.055
L266.899 152.055
L266.899 147.493
L267.438 147.493
L267.473 138.368
L267.74 138.368
L267.74 133.806
L267.997 133.806
L267.997 129.244
L269.983 129.244
L269.983 124.681
L270.266 124.681
L270.266 120.119
L271.275 120.119
L271.275 115.556
L271.695 115.556
L271.695 110.994
L272.434 110.994
L272.434 106.432
L272.778 106.432
L272.778 101.869
L273.799 101.869
L273.799 97.3069
L274.099 97.3069
L274.099 92.7446
L276.301 92.7446
L276.301 88.1822
L276.681 88.1822
L276.681 83.6198
L277.346 83.6198
L277.346 79.0574
L296.271 79.0574
L296.271 74.495
L306.994 74.495
L306.994 69.9327
L314.734 69.9327
L314.734 65.3703
L320.413 65.3703
L320.413 60.8079
L322.195 60.8079
L322.195 56.2455
L326.509 56.2455
L326.509 51.6832
L330.883 51.6832
L330.883 47.1208
L332.154 47.1208
L332.154 42.5584
L333.35 42.5584
L333.35 37.996
L338.855 37.996
L338.855 33.4337
L339.415 33.4337
L339.415 28.8713
L342.164 28.8713
L342.164 24.3089
L342.736 24.3089
L342.736 19.7465
L348.733 19.7465
L348.733 15.1842
L353.641 15.1842
L353.641 10.6218
L353.641 10.6218
L453.6 10.6218
L453.6 10.6218" style="fill:none;stroke:#00bfbf;stroke-linecap:square;"/>
   </g>
   <g id="line2d_3">
    <path clip-path="url(#p5bee155178)" d="
M236.815 352.8
L236.815 348.238
L238.366 348.238
L238.366 343.675
L238.582 343.675
L238.582 339.113
L239.475 339.113
L239.475 334.55
L240.201 334.55
L240.201 329.988
L240.353 329.988
L240.353 325.426
L240.561 325.426
L240.561 320.863
L242.511 320.863
L242.511 316.301
L242.805 316.301
L242.805 311.739
L243.138 311.739
L243.138 307.176
L244.276 307.176
L244.276 302.614
L245.102 302.614
L245.102 298.051
L245.531 298.051
L245.531 293.489
L247.105 293.489
L247.105 288.927
L248.502 288.927
L248.502 284.364
L249.812 284.364
L249.812 279.802
L249.971 279.802
L249.971 275.24
L251.779 275.24
L251.779 270.677
L251.949 270.677
L251.968 261.552
L252.563 261.552
L252.563 256.99
L255.262 256.99
L255.262 252.428
L257.586 252.428
L257.586 247.865
L258.01 247.865
L258.01 243.303
L258.421 243.303
L258.421 238.741
L259.099 238.741
L259.099 234.178
L260.522 234.178
L260.523 225.053
L260.822 225.053
L260.822 220.491
L261.23 220.491
L261.23 215.929
L261.39 215.929
L261.39 211.366
L261.6 211.366
L261.6 206.804
L261.993 206.804
L261.993 202.242
L262.321 202.242
L262.321 197.679
L262.9 197.679
L262.9 193.117
L263.061 193.117
L263.061 188.554
L263.331 188.554
L263.331 183.992
L263.768 183.992
L263.768 179.43
L264.071 179.43
L264.071 174.867
L264.242 174.867
L264.341 165.743
L264.444 165.743
L264.444 161.18
L265.325 161.18
L265.334 152.055
L265.581 152.055
L265.581 147.493
L265.864 147.493
L265.864 142.931
L266.071 142.931
L266.111 133.806
L266.282 133.806
L266.282 129.244
L266.644 129.244
L266.644 124.681
L266.822 124.681
L266.822 120.119
L267.086 120.119
L267.086 115.556
L267.242 115.556
L267.242 110.994
L267.438 110.994
L267.438 106.432
L269.525 106.432
L269.525 101.869
L269.929 101.869
L269.929 97.3069
L270.266 97.3069
L270.266 92.7446
L271.275 92.7446
L271.275 88.1822
L271.439 88.1822
L271.439 83.6198
L272.778 83.6198
L272.778 79.0574
L274.708 79.0574
L274.708 74.495
L296.271 74.495
L296.271 69.9327
L306.994 69.9327
L306.994 65.3703
L314.734 65.3703
L314.734 60.8079
L318.358 60.8079
L318.358 56.2455
L320.746 56.2455
L320.746 51.6832
L322.195 51.6832
L322.195 47.1208
L322.681 47.1208
L322.681 42.5584
L323.366 42.5584
L323.366 37.996
L325.599 37.996
L325.599 33.4337
L329.094 33.4337
L329.094 28.8713
L331.586 28.8713
L331.586 24.3089
L332.154 24.3089
L332.154 19.7465
L339.415 19.7465
L339.415 15.1842
L348.733 15.1842
L348.733 10.6218
L348.733 10.6218
L453.6 10.6218
L453.6 10.6218" style="fill:none;stroke:#bf00bf;stroke-linecap:square;"/>
   </g>
   <g id="line2d_4">
    <path clip-path="url(#p5bee155178)" d="
M233.147 352.8
L233.147 348.238
L236.815 348.238
L236.815 343.675
L236.981 343.675
L236.981 339.113
L238.366 339.113
L238.366 334.55
L238.582 334.55
L238.582 329.988
L239.475 329.988
L239.542 320.863
L239.883 320.863
L239.883 316.301
L240.201 316.301
L240.201 311.739
L240.561 311.739
L240.561 307.176
L240.821 307.176
L240.821 302.614
L242.021 302.614
L242.021 298.051
L242.511 298.051
L242.511 293.489
L242.805 293.489
L242.805 288.927
L242.955 288.927
L242.955 284.364
L243.41 284.364
L243.41 279.802
L244.404 279.802
L244.404 275.24
L244.735 275.24
L244.735 270.677
L249.485 270.677
L249.485 266.115
L251.408 266.115
L251.408 261.552
L251.779 261.552
L251.779 256.99
L251.968 256.99
L251.968 252.428
L252.563 252.428
L252.563 247.865
L253.446 247.865
L253.446 243.303
L254.547 243.303
L254.547 238.741
L255.346 238.741
L255.346 234.178
L255.725 234.178
L255.725 229.616
L256.468 229.616
L256.468 225.053
L258.01 225.053
L258.058 215.929
L258.421 215.929
L258.459 206.804
L260.126 206.804
L260.126 202.242
L260.522 202.242
L260.593 193.117
L260.822 193.117
L260.901 183.992
L261.665 183.992
L261.665 179.43
L261.993 179.43
L261.993 174.867
L262.9 174.867
L262.9 170.305
L263.061 170.305
L263.061 165.743
L263.511 165.743
L263.511 161.18
L264.071 161.18
L264.071 156.618
L264.341 156.618
L264.341 152.055
L264.82 152.055
L264.84 142.931
L265.334 142.931
L265.334 138.368
L265.581 138.368
L265.581 133.806
L265.801 133.806
L265.84 124.681
L265.984 124.681
L266.071 115.556
L266.282 115.556
L266.317 106.432
L266.87 106.432
L266.87 101.869
L267.192 101.869
L267.242 92.7446
L268.453 92.7446
L268.453 88.1822
L268.62 88.1822
L268.62 83.6198
L269.25 83.6198
L269.25 79.0574
L272.268 79.0574
L272.287 69.9327
L281.759 69.9327
L281.759 65.3703
L306.994 65.3703
L306.994 60.8079
L309.249 60.8079
L309.249 56.2455
L311.48 56.2455
L311.48 51.6832
L312.745 51.6832
L312.745 47.1208
L313.886 47.1208
L313.886 42.5584
L318.305 42.5584
L318.358 33.4337
L320.746 33.4337
L320.746 28.8713
L322.681 28.8713
L322.681 24.3089
L323.366 24.3089
L323.366 19.7465
L329.094 19.7465
L329.094 15.1842
L331.586 15.1842
L331.586 10.6218
L331.586 10.6218
L453.6 10.6218
L453.6 10.6218" style="fill:none;stroke:#000000;stroke-linecap:square;"/>
   </g>
   <g id="line2d_5">
    <path clip-path="url(#p5bee155178)" d="
M217.664 352.8
L217.664 348.238
L223.825 348.238
L223.825 343.675
L225.122 343.675
L225.122 339.113
L228.845 339.113
L228.845 334.55
L229.205 334.55
L229.205 329.988
L229.465 329.988
L229.515 320.863
L229.73 320.863
L229.796 311.739
L231.956 311.739
L231.956 307.176
L232.169 307.176
L232.169 302.614
L232.441 302.614
L232.453 293.489
L232.567 293.489
L232.567 288.927
L232.95 288.927
L232.95 284.364
L233.147 284.364
L233.147 279.802
L233.638 279.802
L233.638 275.24
L233.817 275.24
L233.817 270.677
L234.391 270.677
L234.391 266.115
L235.426 266.115
L235.426 261.552
L236.534 261.552
L236.537 252.428
L236.981 252.428
L236.981 247.865
L238.436 247.865
L238.436 243.303
L239.071 243.303
L239.083 234.178
L239.217 234.178
L239.247 225.053
L239.475 225.053
L239.475 220.491
L240.142 220.491
L240.201 211.366
L242.021 211.366
L242.021 206.804
L243.953 206.804
L244.058 197.679
L245.044 197.679
L245.044 193.117
L248.104 193.117
L248.104 188.554
L249.137 188.554
L249.137 183.992
L249.485 183.992
L249.485 179.43
L250.701 179.43
L250.701 174.867
L250.987 174.867
L250.987 170.305
L251.339 170.305
L251.408 161.18
L251.968 161.18
L251.968 156.618
L252.563 156.618
L252.563 152.055
L253.585 152.055
L253.585 147.493
L254.144 147.493
L254.144 142.931
L254.499 142.931
L254.499 138.368
L255.139 138.368
L255.139 133.806
L255.725 133.806
L255.725 129.244
L256 129.244
L256 124.681
L256.171 124.681
L256.171 120.119
L256.556 120.119
L256.556 115.556
L257.686 115.556
L257.686 110.994
L258.01 110.994
L258.01 106.432
L258.183 106.432
L258.183 101.869
L258.321 101.869
L258.321 97.3069
L258.978 97.3069
L258.994 88.1822
L259.384 88.1822
L259.39 79.0574
L259.867 79.0574
L259.883 69.9327
L260.651 69.9327
L260.651 65.3703
L261.985 65.3703
L261.985 60.8079
L262.319 60.8079
L262.319 56.2455
L262.469 56.2455
L262.469 51.6832
L263.44 51.6832
L263.44 47.1208
L263.586 47.1208
L263.586 42.5584
L263.846 42.5584
L263.846 37.996
L264.994 37.996
L265.069 28.8713
L265.334 28.8713
L265.334 24.3089
L265.758 24.3089
L265.758 19.7465
L271.922 19.7465
L271.922 15.1842
L281.759 15.1842
L281.759 10.6218
L281.759 10.6218
L453.6 10.6218
L453.6 10.6218" style="fill:none;stroke:#00bfbf;stroke-linecap:square;"/>
   </g>
   <g id="line2d_6">
    <path clip-path="url(#p5bee155178)" d="
M4.32443 352.8
L4.32443 348.238
L49.6245 348.238
L49.6245 343.675
L177.831 343.675
L177.831 339.113
L179.974 339.113
L179.974 334.55
L186.322 334.55
L186.322 329.988
L205.533 329.988
L205.533 325.426
L211.413 325.426
L211.413 320.863
L213.137 320.863
L213.137 316.301
L217.664 316.301
L217.664 311.739
L221.107 311.739
L221.107 307.176
L221.409 307.176
L221.409 302.614
L221.822 302.614
L221.822 298.051
L222.559 298.051
L222.559 293.489
L223.262 293.489
L223.262 288.927
L223.799 288.927
L223.825 279.802
L223.985 279.802
L223.985 275.24
L224.245 275.24
L224.32 266.115
L224.368 266.115
L224.368 261.552
L224.67 261.552
L224.67 256.99
L224.813 256.99
L224.859 243.303
L224.938 243.303
L224.938 238.741
L225.122 238.741
L225.122 234.178
L225.332 234.178
L225.364 225.053
L225.458 225.053
L225.458 220.491
L225.604 220.491
L225.641 211.366
L226.145 211.366
L226.145 206.804
L226.536 206.804
L226.576 188.554
L226.928 188.554
L226.928 183.992
L227.039 183.992
L227.039 179.43
L227.212 179.43
L227.31 170.305
L227.931 170.305
L227.931 165.743
L228.068 165.743
L228.068 161.18
L228.461 161.18
L228.461 156.618
L228.703 156.618
L228.703 152.055
L229.759 152.055
L229.759 147.493
L230.485 147.493
L230.485 142.931
L231.018 142.931
L231.018 138.368
L232.059 138.368
L232.059 133.806
L235.911 133.806
L235.911 129.244
L236.532 129.244
L236.532 124.681
L239.282 124.681
L239.282 120.119
L239.426 120.119
L239.426 115.556
L240.96 115.556
L241.023 106.432
L241.659 106.432
L241.659 101.869
L241.889 101.869
L241.957 92.7446
L244.693 92.7446
L244.693 88.1822
L247.873 88.1822
L247.873 83.6198
L249.146 83.6198
L249.146 79.0574
L250.227 79.0574
L250.227 74.495
L250.577 74.495
L250.633 65.3703
L251.695 65.3703
L251.695 60.8079
L252.318 60.8079
L252.406 47.1208
L252.82 47.1208
L252.922 37.996
L253.031 37.996
L253.031 33.4337
L254.317 33.4337
L254.317 28.8713
L254.492 28.8713
L254.492 24.3089
L254.665 24.3089
L254.665 19.7465
L254.817 19.7465
L254.817 15.1842
L258.1 15.1842
L258.1 10.6218
L258.1 10.6218
L453.6 10.6218
L453.6 10.6218" style="fill:none;stroke:#bf00bf;stroke-linecap:square;"/>
   </g>
   <g id="matplotlib.axis_1">
    <g id="xtick_1"/>
    <g id="xtick_2">
     <g id="line2d_7">
      <path clip-path="url(#p5bee155178)" d="
M59.6175 352.8
L59.6175 7.2" style="fill:none;stroke:#000000;stroke-dasharray:1.000000,3.000000;stroke-dashoffset:0.0;stroke-width:0.5;"/>
     </g>
     <g id="line2d_8">
      <defs>
       <path d="
M0 0
L0 -4" id="m93b0483c22" style="stroke:#000000;stroke-width:0.5;"/>
      </defs>
      <g>
       <use style="stroke:#000000;stroke-width:0.5;" x="59.6174973142" xlink:href="#m93b0483c22" y="352.8"/>
      </g>
     </g>
     <g id="line2d_9">
      <defs>
       <path d="
M0 0
L0 4" id="m741efc42ff" style="stroke:#000000;stroke-width:0.5;"/>
      </defs>
      <g>
       <use style="stroke:#000000;stroke-width:0.5;" x="59.6174973142" xlink:href="#m741efc42ff" y="7.2"/>
      </g>
     </g>
     <g id="text_1">
      <!-- -6 -->
      <defs>
       <path d="
M3.17188 21.4844
L3.17188 30.3281
L30.1719 30.3281
L30.1719 21.4844
z
" id="ArialMT-2d"/>
       <path d="
M49.75 54.0469
L41.0156 53.375
Q39.8438 58.5469 37.7031 60.8906
Q34.125 64.6562 28.9062 64.6562
Q24.7031 64.6562 21.5312 62.3125
Q17.3906 59.2812 14.9844 53.4688
Q12.5938 47.6562 12.5 36.9219
Q15.6719 41.75 20.2656 44.0938
Q24.8594 46.4375 29.8906 46.4375
Q38.6719 46.4375 44.8438 39.9688
Q51.0312 33.5 51.0312 23.25
Q51.0312 16.5 48.125 10.7188
Q45.2188 4.9375 40.1406 1.85938
Q35.0625 -1.21875 28.6094 -1.21875
Q17.625 -1.21875 10.6875 6.85938
Q3.76562 14.9375 3.76562 33.5
Q3.76562 54.25 11.4219 63.6719
Q18.1094 71.875 29.4375 71.875
Q37.8906 71.875 43.2812 67.1406
Q48.6875 62.4062 49.75 54.0469
M13.875 23.1875
Q13.875 18.6562 15.7969 14.5
Q17.7188 10.3594 21.1875 8.17188
Q24.6562 6 28.4688 6
Q34.0312 6 38.0312 10.4844
Q42.0469 14.9844 42.0469 22.7031
Q42.0469 30.125 38.0781 34.3906
Q34.125 38.6719 28.125 38.6719
Q22.1719 38.6719 18.0156 34.3906
Q13.875 30.125 13.875 23.1875" id="ArialMT-36"/>
      </defs>
      <g transform="translate(51.5018723142 371.115625)scale(0.2 -0.2)">
       <use xlink:href="#ArialMT-2d"/>
       <use x="33.30078125" xlink:href="#ArialMT-36"/>
      </g>
     </g>
    </g>
    <g id="xtick_3">
     <g id="line2d_10">
      <path clip-path="url(#p5bee155178)" d="
M112.148 352.8
L112.148 7.2" style="fill:none;stroke:#000000;stroke-dasharray:1.000000,3.000000;stroke-dashoffset:0.0;stroke-width:0.5;"/>
     </g>
     <g id="line2d_11">
      <g>
       <use style="stroke:#000000;stroke-width:0.5;" x="112.148497672" xlink:href="#m93b0483c22" y="352.8"/>
      </g>
     </g>
     <g id="line2d_12">
      <g>
       <use style="stroke:#000000;stroke-width:0.5;" x="112.148497672" xlink:href="#m741efc42ff" y="7.2"/>
      </g>
     </g>
     <g id="text_2">
      <!-- -4 -->
      <defs>
       <path d="
M32.3281 0
L32.3281 17.1406
L1.26562 17.1406
L1.26562 25.2031
L33.9375 71.5781
L41.1094 71.5781
L41.1094 25.2031
L50.7812 25.2031
L50.7812 17.1406
L41.1094 17.1406
L41.1094 0
z

M32.3281 25.2031
L32.3281 57.4688
L9.90625 25.2031
z
" id="ArialMT-34"/>
      </defs>
      <g transform="translate(104.057872672 371.115625)scale(0.2 -0.2)">
       <use xlink:href="#ArialMT-2d"/>
       <use x="33.30078125" xlink:href="#ArialMT-34"/>
      </g>
     </g>
    </g>
    <g id="xtick_4">
     <g id="line2d_13">
      <path clip-path="url(#p5bee155178)" d="
M164.679 352.8
L164.679 7.2" style="fill:none;stroke:#000000;stroke-dasharray:1.000000,3.000000;stroke-dashoffset:0.0;stroke-width:0.5;"/>
     </g>
     <g id="line2d_14">
      <g>
       <use style="stroke:#000000;stroke-width:0.5;" x="164.67949803" xlink:href="#m93b0483c22" y="352.8"/>
      </g>
     </g>
     <g id="line2d_15">
      <g>
       <use style="stroke:#000000;stroke-width:0.5;" x="164.67949803" xlink:href="#m741efc42ff" y="7.2"/>
      </g>
     </g>
     <g id="text_3">
      <!-- -2 -->
      <defs>
       <path d="
M50.3438 8.45312
L50.3438 0
L3.03125 0
Q2.9375 3.17188 4.04688 6.10938
Q5.85938 10.9375 9.82812 15.625
Q13.8125 20.3125 21.3438 26.4688
Q33.0156 36.0312 37.1094 41.625
Q41.2188 47.2188 41.2188 52.2031
Q41.2188 57.4219 37.4688 61
Q33.7344 64.5938 27.7344 64.5938
Q21.3906 64.5938 17.5781 60.7812
Q13.7656 56.9844 13.7188 50.25
L4.6875 51.1719
Q5.60938 61.2812 11.6562 66.5781
Q17.7188 71.875 27.9375 71.875
Q38.2344 71.875 44.2344 66.1562
Q50.25 60.4531 50.25 52
Q50.25 47.7031 48.4844 43.5469
Q46.7344 39.4062 42.6562 34.8125
Q38.5781 30.2188 29.1094 22.2188
Q21.1875 15.5781 18.9375 13.2031
Q16.7031 10.8438 15.2344 8.45312
z
" id="ArialMT-32"/>
      </defs>
      <g transform="translate(156.63262303 371.115625)scale(0.2 -0.2)">
       <use xlink:href="#ArialMT-2d"/>
       <use x="33.30078125" xlink:href="#ArialMT-32"/>
      </g>
     </g>
    </g>
    <g id="xtick_5">
     <g id="line2d_16">
      <path clip-path="url(#p5bee155178)" d="
M217.21 352.8
L217.21 7.2" style="fill:none;stroke:#000000;stroke-dasharray:1.000000,3.000000;stroke-dashoffset:0.0;stroke-width:0.5;"/>
     </g>
     <g id="line2d_17">
      <g>
       <use style="stroke:#000000;stroke-width:0.5;" x="217.210498389" xlink:href="#m93b0483c22" y="352.8"/>
      </g>
     </g>
     <g id="line2d_18">
      <g>
       <use style="stroke:#000000;stroke-width:0.5;" x="217.210498389" xlink:href="#m741efc42ff" y="7.2"/>
      </g>
     </g>
     <g id="text_4">
      <!-- 0 -->
      <defs>
       <path d="
M4.15625 35.2969
Q4.15625 48 6.76562 55.7344
Q9.375 63.4844 14.5156 67.6719
Q19.6719 71.875 27.4844 71.875
Q33.25 71.875 37.5938 69.5469
Q41.9375 67.2344 44.7656 62.8594
Q47.6094 58.5 49.2188 52.2188
Q50.8281 45.9531 50.8281 35.2969
Q50.8281 22.7031 48.2344 14.9688
Q45.6562 7.23438 40.5 3
Q35.3594 -1.21875 27.4844 -1.21875
Q17.1406 -1.21875 11.2344 6.20312
Q4.15625 15.1406 4.15625 35.2969
M13.1875 35.2969
Q13.1875 17.6719 17.3125 11.8281
Q21.4375 6 27.4844 6
Q33.5469 6 37.6719 11.8594
Q41.7969 17.7188 41.7969 35.2969
Q41.7969 52.9844 37.6719 58.7812
Q33.5469 64.5938 27.3906 64.5938
Q21.3438 64.5938 17.7188 59.4688
Q13.1875 52.9375 13.1875 35.2969" id="ArialMT-30"/>
      </defs>
      <g transform="translate(212.543310889 371.115625)scale(0.2 -0.2)">
       <use xlink:href="#ArialMT-30"/>
      </g>
     </g>
    </g>
    <g id="xtick_6">
     <g id="line2d_19">
      <path clip-path="url(#p5bee155178)" d="
M269.741 352.8
L269.741 7.2" style="fill:none;stroke:#000000;stroke-dasharray:1.000000,3.000000;stroke-dashoffset:0.0;stroke-width:0.5;"/>
     </g>
     <g id="line2d_20">
      <g>
       <use style="stroke:#000000;stroke-width:0.5;" x="269.741498747" xlink:href="#m93b0483c22" y="352.8"/>
      </g>
     </g>
     <g id="line2d_21">
      <g>
       <use style="stroke:#000000;stroke-width:0.5;" x="269.741498747" xlink:href="#m741efc42ff" y="7.2"/>
      </g>
     </g>
     <g id="text_5">
      <!-- 2 -->
      <g transform="translate(265.000873747 371.115625)scale(0.2 -0.2)">
       <use xlink:href="#ArialMT-32"/>
      </g>
     </g>
    </g>
    <g id="xtick_7">
     <g id="line2d_22">
      <path clip-path="url(#p5bee155178)" d="
M322.272 352.8
L322.272 7.2" style="fill:none;stroke:#000000;stroke-dasharray:1.000000,3.000000;stroke-dashoffset:0.0;stroke-width:0.5;"/>
     </g>
     <g id="line2d_23">
      <g>
       <use style="stroke:#000000;stroke-width:0.5;" x="322.272499105" xlink:href="#m93b0483c22" y="352.8"/>
      </g>
     </g>
     <g id="line2d_24">
      <g>
       <use style="stroke:#000000;stroke-width:0.5;" x="322.272499105" xlink:href="#m741efc42ff" y="7.2"/>
      </g>
     </g>
     <g id="text_6">
      <!-- 4 -->
      <g transform="translate(317.320936605 371.115625)scale(0.2 -0.2)">
       <use xlink:href="#ArialMT-34"/>
      </g>
     </g>
    </g>
    <g id="xtick_8">
     <g id="line2d_25">
      <path clip-path="url(#p5bee155178)" d="
M374.803 352.8
L374.803 7.2" style="fill:none;stroke:#000000;stroke-dasharray:1.000000,3.000000;stroke-dashoffset:0.0;stroke-width:0.5;"/>
     </g>
     <g id="line2d_26">
      <g>
       <use style="stroke:#000000;stroke-width:0.5;" x="374.803499463" xlink:href="#m93b0483c22" y="352.8"/>
      </g>
     </g>
     <g id="line2d_27">
      <g>
       <use style="stroke:#000000;stroke-width:0.5;" x="374.803499463" xlink:href="#m741efc42ff" y="7.2"/>
      </g>
     </g>
     <g id="text_7">
      <!-- 6 -->
      <g transform="translate(370.076936963 371.115625)scale(0.2 -0.2)">
       <use xlink:href="#ArialMT-36"/>
      </g>
     </g>
    </g>
    <g id="xtick_9">
     <g id="line2d_28">
      <path clip-path="url(#p5bee155178)" d="
M427.334 352.8
L427.334 7.2" style="fill:none;stroke:#000000;stroke-dasharray:1.000000,3.000000;stroke-dashoffset:0.0;stroke-width:0.5;"/>
     </g>
     <g id="line2d_29">
      <g>
       <use style="stroke:#000000;stroke-width:0.5;" x="427.334499821" xlink:href="#m93b0483c22" y="352.8"/>
      </g>
     </g>
     <g id="line2d_30">
      <g>
       <use style="stroke:#000000;stroke-width:0.5;" x="427.334499821" xlink:href="#m741efc42ff" y="7.2"/>
      </g>
     </g>
     <g id="text_8">
      <!-- 8 -->
      <defs>
       <path d="
M17.6719 38.8125
Q12.2031 40.8281 9.5625 44.5312
Q6.9375 48.25 6.9375 53.4219
Q6.9375 61.2344 12.5469 66.5469
Q18.1719 71.875 27.4844 71.875
Q36.8594 71.875 42.5781 66.4219
Q48.2969 60.9844 48.2969 53.1719
Q48.2969 48.1875 45.6719 44.5
Q43.0625 40.8281 37.75 38.8125
Q44.3438 36.6719 47.7812 31.875
Q51.2188 27.0938 51.2188 20.4531
Q51.2188 11.2812 44.7188 5.03125
Q38.2344 -1.21875 27.6406 -1.21875
Q17.0469 -1.21875 10.5469 5.04688
Q4.04688 11.3281 4.04688 20.7031
Q4.04688 27.6875 7.59375 32.3906
Q11.1406 37.1094 17.6719 38.8125
M15.9219 53.7188
Q15.9219 48.6406 19.1875 45.4062
Q22.4688 42.1875 27.6875 42.1875
Q32.7656 42.1875 36.0156 45.375
Q39.2656 48.5781 39.2656 53.2188
Q39.2656 58.0625 35.9062 61.3594
Q32.5625 64.6562 27.5938 64.6562
Q22.5625 64.6562 19.2344 61.4219
Q15.9219 58.2031 15.9219 53.7188
M13.0938 20.6562
Q13.0938 16.8906 14.875 13.375
Q16.6562 9.85938 20.1719 7.92188
Q23.6875 6 27.7344 6
Q34.0312 6 38.125 10.0469
Q42.2344 14.1094 42.2344 20.3594
Q42.2344 26.7031 38.0156 30.8594
Q33.7969 35.0156 27.4375 35.0156
Q21.2344 35.0156 17.1562 30.9062
Q13.0938 26.8125 13.0938 20.6562" id="ArialMT-38"/>
      </defs>
      <g transform="translate(422.617312321 371.115625)scale(0.2 -0.2)">
       <use xlink:href="#ArialMT-38"/>
      </g>
     </g>
    </g>
    <g id="xtick_10"/>
    <g id="xtick_11">
     <g id="line2d_31">
      <defs>
       <path d="
M0 0
L0 -2" id="m177f7580d0" style="stroke:#000000;stroke-width:0.5;"/>
      </defs>
      <g>
       <use style="stroke:#000000;stroke-width:0.5;" x="59.6174973142" xlink:href="#m177f7580d0" y="352.8"/>
      </g>
     </g>
     <g id="line2d_32">
      <defs>
       <path d="
M0 0
L0 2" id="m5284c7e2a0" style="stroke:#000000;stroke-width:0.5;"/>
      </defs>
      <g>
       <use style="stroke:#000000;stroke-width:0.5;" x="59.6174973142" xlink:href="#m5284c7e2a0" y="7.2"/>
      </g>
     </g>
    </g>
    <g id="xtick_12">
     <g id="line2d_33">
      <g>
       <use style="stroke:#000000;stroke-width:0.5;" x="112.148497672" xlink:href="#m177f7580d0" y="352.8"/>
      </g>
     </g>
     <g id="line2d_34">
      <g>
       <use style="stroke:#000000;stroke-width:0.5;" x="112.148497672" xlink:href="#m5284c7e2a0" y="7.2"/>
      </g>
     </g>
    </g>
    <g id="xtick_13">
     <g id="line2d_35">
      <g>
       <use style="stroke:#000000;stroke-width:0.5;" x="164.67949803" xlink:href="#m177f7580d0" y="352.8"/>
      </g>
     </g>
     <g id="line2d_36">
      <g>
       <use style="stroke:#000000;stroke-width:0.5;" x="164.67949803" xlink:href="#m5284c7e2a0" y="7.2"/>
      </g>
     </g>
    </g>
    <g id="xtick_14">
     <g id="line2d_37">
      <g>
       <use style="stroke:#000000;stroke-width:0.5;" x="217.210498389" xlink:href="#m177f7580d0" y="352.8"/>
      </g>
     </g>
     <g id="line2d_38">
      <g>
       <use style="stroke:#000000;stroke-width:0.5;" x="217.210498389" xlink:href="#m5284c7e2a0" y="7.2"/>
      </g>
     </g>
    </g>
    <g id="xtick_15">
     <g id="line2d_39">
      <g>
       <use style="stroke:#000000;stroke-width:0.5;" x="269.741498747" xlink:href="#m177f7580d0" y="352.8"/>
      </g>
     </g>
     <g id="line2d_40">
      <g>
       <use style="stroke:#000000;stroke-width:0.5;" x="269.741498747" xlink:href="#m5284c7e2a0" y="7.2"/>
      </g>
     </g>
    </g>
    <g id="xtick_16">
     <g id="line2d_41">
      <g>
       <use style="stroke:#000000;stroke-width:0.5;" x="322.272499105" xlink:href="#m177f7580d0" y="352.8"/>
      </g>
     </g>
     <g id="line2d_42">
      <g>
       <use style="stroke:#000000;stroke-width:0.5;" x="322.272499105" xlink:href="#m5284c7e2a0" y="7.2"/>
      </g>
     </g>
    </g>
    <g id="xtick_17">
     <g id="line2d_43">
      <g>
       <use style="stroke:#000000;stroke-width:0.5;" x="374.803499463" xlink:href="#m177f7580d0" y="352.8"/>
      </g>
     </g>
     <g id="line2d_44">
      <g>
       <use style="stroke:#000000;stroke-width:0.5;" x="374.803499463" xlink:href="#m5284c7e2a0" y="7.2"/>
      </g>
     </g>
    </g>
    <g id="xtick_18">
     <g id="line2d_45">
      <g>
       <use style="stroke:#000000;stroke-width:0.5;" x="427.334499821" xlink:href="#m177f7580d0" y="352.8"/>
      </g>
     </g>
     <g id="line2d_46">
      <g>
       <use style="stroke:#000000;stroke-width:0.5;" x="427.334499821" xlink:href="#m5284c7e2a0" y="7.2"/>
      </g>
     </g>
    </g>
    <g id="text_9">
     <!-- log10 of Df -->
     <defs>
      <path d="
M4.98438 -4.29688
L13.5312 -5.5625
Q14.0625 -9.51562 16.5 -11.3281
Q19.7812 -13.7656 25.4375 -13.7656
Q31.5469 -13.7656 34.8594 -11.3281
Q38.1875 -8.89062 39.3594 -4.5
Q40.0469 -1.8125 39.9844 6.78125
Q34.2344 0 25.6406 0
Q14.9375 0 9.07812 7.71875
Q3.21875 15.4375 3.21875 26.2188
Q3.21875 33.6406 5.90625 39.9062
Q8.59375 46.1875 13.6875 49.6094
Q18.7969 53.0312 25.6875 53.0312
Q34.8594 53.0312 40.8281 45.6094
L40.8281 51.8594
L48.9219 51.8594
L48.9219 7.03125
Q48.9219 -5.07812 46.4531 -10.125
Q44 -15.1875 38.6406 -18.1094
Q33.2969 -21.0469 25.4844 -21.0469
Q16.2188 -21.0469 10.5 -16.875
Q4.78125 -12.7031 4.98438 -4.29688
M12.25 26.8594
Q12.25 16.6562 16.2969 11.9688
Q20.3594 7.28125 26.4688 7.28125
Q32.5156 7.28125 36.6094 11.9375
Q40.7188 16.6094 40.7188 26.5625
Q40.7188 36.0781 36.5 40.9062
Q32.2812 45.75 26.3125 45.75
Q20.4531 45.75 16.3438 40.9844
Q12.25 36.2344 12.25 26.8594" id="ArialMT-67"/>
      <path d="
M8.6875 0
L8.6875 45.0156
L0.921875 45.0156
L0.921875 51.8594
L8.6875 51.8594
L8.6875 57.375
Q8.6875 62.5938 9.625 65.1406
Q10.8906 68.5625 14.0781 70.6719
Q17.2812 72.7969 23.0469 72.7969
Q26.7656 72.7969 31.25 71.9219
L29.9375 64.2656
Q27.2031 64.75 24.75 64.75
Q20.75 64.75 19.0938 63.0312
Q17.4375 61.3281 17.4375 56.6406
L17.4375 51.8594
L27.5469 51.8594
L27.5469 45.0156
L17.4375 45.0156
L17.4375 0
z
" id="ArialMT-66"/>
      <path d="
M7.71875 0
L7.71875 71.5781
L32.375 71.5781
Q40.7188 71.5781 45.125 70.5625
Q51.2656 69.1406 55.6094 65.4375
Q61.2812 60.6406 64.0781 53.1875
Q66.8906 45.75 66.8906 36.1875
Q66.8906 28.0312 64.9844 21.7344
Q63.0938 15.4375 60.1094 11.2969
Q57.125 7.17188 53.5781 4.79688
Q50.0469 2.4375 45.0469 1.21875
Q40.0469 0 33.5469 0
z

M17.1875 8.45312
L32.4688 8.45312
Q39.5469 8.45312 43.5781 9.76562
Q47.6094 11.0781 50 13.4844
Q53.375 16.8438 55.25 22.5312
Q57.125 28.2188 57.125 36.3281
Q57.125 47.5625 53.4375 53.5938
Q49.75 59.625 44.4844 61.6719
Q40.6719 63.1406 32.2344 63.1406
L17.1875 63.1406
z
" id="ArialMT-44"/>
      <path d="
M6.39062 0
L6.39062 71.5781
L15.1875 71.5781
L15.1875 0
z
" id="ArialMT-6c"/>
      <path d="
M3.32812 25.9219
Q3.32812 40.3281 11.3281 47.2656
Q18.0156 53.0312 27.6406 53.0312
Q38.3281 53.0312 45.1094 46.0156
Q51.9062 39.0156 51.9062 26.6562
Q51.9062 16.6562 48.9062 10.9062
Q45.9062 5.17188 40.1562 2
Q34.4219 -1.17188 27.6406 -1.17188
Q16.75 -1.17188 10.0312 5.8125
Q3.32812 12.7969 3.32812 25.9219
M12.3594 25.9219
Q12.3594 15.9688 16.7031 11.0156
Q21.0469 6.0625 27.6406 6.0625
Q34.1875 6.0625 38.5312 11.0312
Q42.875 16.0156 42.875 26.2188
Q42.875 35.8438 38.5 40.7969
Q34.125 45.75 27.6406 45.75
Q21.0469 45.75 16.7031 40.8125
Q12.3594 35.8906 12.3594 25.9219" id="ArialMT-6f"/>
      <path d="
M37.25 0
L28.4688 0
L28.4688 56
Q25.2969 52.9844 20.1406 49.9531
Q14.9844 46.9219 10.8906 45.4062
L10.8906 53.9062
Q18.2656 57.375 23.7812 62.2969
Q29.2969 67.2344 31.5938 71.875
L37.25 71.875
z
" id="ArialMT-31"/>
      <path id="ArialMT-20"/>
     </defs>
     <g transform="translate(181.6921875 394.65)scale(0.2 -0.2)">
      <use xlink:href="#ArialMT-6c"/>
      <use x="22.216796875" xlink:href="#ArialMT-6f"/>
      <use x="77.83203125" xlink:href="#ArialMT-67"/>
      <use x="133.447265625" xlink:href="#ArialMT-31"/>
      <use x="189.0625" xlink:href="#ArialMT-30"/>
      <use x="244.677734375" xlink:href="#ArialMT-20"/>
      <use x="272.4609375" xlink:href="#ArialMT-6f"/>
      <use x="328.076171875" xlink:href="#ArialMT-66"/>
      <use x="355.859375" xlink:href="#ArialMT-20"/>
      <use x="383.642578125" xlink:href="#ArialMT-44"/>
      <use x="455.859375" xlink:href="#ArialMT-66"/>
     </g>
    </g>
   </g>
   <g id="matplotlib.axis_2">
    <g id="ytick_1">
     <g id="line2d_47">
      <path clip-path="url(#p5bee155178)" d="
M7.2 352.8
L453.6 352.8" style="fill:none;stroke:#000000;stroke-dasharray:1.000000,3.000000;stroke-dashoffset:0.0;stroke-width:0.5;"/>
     </g>
     <g id="line2d_48">
      <defs>
       <path d="
M0 0
L4 0" id="m728421d6d4" style="stroke:#000000;stroke-width:0.5;"/>
      </defs>
      <g>
       <use style="stroke:#000000;stroke-width:0.5;" x="7.2" xlink:href="#m728421d6d4" y="352.8"/>
      </g>
     </g>
     <g id="line2d_49">
      <defs>
       <path d="
M0 0
L-4 0" id="mcb0005524f" style="stroke:#000000;stroke-width:0.5;"/>
      </defs>
      <g>
       <use style="stroke:#000000;stroke-width:0.5;" x="453.6" xlink:href="#mcb0005524f" y="352.8"/>
      </g>
     </g>
    </g>
    <g id="ytick_2">
     <g id="line2d_50">
      <path clip-path="url(#p5bee155178)" d="
M7.2 284.364
L453.6 284.364" style="fill:none;stroke:#000000;stroke-dasharray:1.000000,3.000000;stroke-dashoffset:0.0;stroke-width:0.5;"/>
     </g>
     <g id="line2d_51">
      <g>
       <use style="stroke:#000000;stroke-width:0.5;" x="7.2" xlink:href="#m728421d6d4" y="284.364356436"/>
      </g>
     </g>
     <g id="line2d_52">
      <g>
       <use style="stroke:#000000;stroke-width:0.5;" x="453.6" xlink:href="#mcb0005524f" y="284.364356436"/>
      </g>
     </g>
    </g>
    <g id="ytick_3">
     <g id="line2d_53">
      <path clip-path="url(#p5bee155178)" d="
M7.2 215.929
L453.6 215.929" style="fill:none;stroke:#000000;stroke-dasharray:1.000000,3.000000;stroke-dashoffset:0.0;stroke-width:0.5;"/>
     </g>
     <g id="line2d_54">
      <g>
       <use style="stroke:#000000;stroke-width:0.5;" x="7.2" xlink:href="#m728421d6d4" y="215.928712871"/>
      </g>
     </g>
     <g id="line2d_55">
      <g>
       <use style="stroke:#000000;stroke-width:0.5;" x="453.6" xlink:href="#mcb0005524f" y="215.928712871"/>
      </g>
     </g>
    </g>
    <g id="ytick_4">
     <g id="line2d_56">
      <path clip-path="url(#p5bee155178)" d="
M7.2 147.493
L453.6 147.493" style="fill:none;stroke:#000000;stroke-dasharray:1.000000,3.000000;stroke-dashoffset:0.0;stroke-width:0.5;"/>
     </g>
     <g id="line2d_57">
      <g>
       <use style="stroke:#000000;stroke-width:0.5;" x="7.2" xlink:href="#m728421d6d4" y="147.493069307"/>
      </g>
     </g>
     <g id="line2d_58">
      <g>
       <use style="stroke:#000000;stroke-width:0.5;" x="453.6" xlink:href="#mcb0005524f" y="147.493069307"/>
      </g>
     </g>
    </g>
    <g id="ytick_5">
     <g id="line2d_59">
      <path clip-path="url(#p5bee155178)" d="
M7.2 79.0574
L453.6 79.0574" style="fill:none;stroke:#000000;stroke-dasharray:1.000000,3.000000;stroke-dashoffset:0.0;stroke-width:0.5;"/>
     </g>
     <g id="line2d_60">
      <g>
       <use style="stroke:#000000;stroke-width:0.5;" x="7.2" xlink:href="#m728421d6d4" y="79.0574257426"/>
      </g>
     </g>
     <g id="line2d_61">
      <g>
       <use style="stroke:#000000;stroke-width:0.5;" x="453.6" xlink:href="#mcb0005524f" y="79.0574257426"/>
      </g>
     </g>
    </g>
    <g id="ytick_6">
     <g id="line2d_62">
      <path clip-path="url(#p5bee155178)" d="
M7.2 10.6218
L453.6 10.6218" style="fill:none;stroke:#000000;stroke-dasharray:1.000000,3.000000;stroke-dashoffset:0.0;stroke-width:0.5;"/>
     </g>
     <g id="line2d_63">
      <g>
       <use style="stroke:#000000;stroke-width:0.5;" x="7.2" xlink:href="#m728421d6d4" y="10.6217821782"/>
      </g>
     </g>
     <g id="line2d_64">
      <g>
       <use style="stroke:#000000;stroke-width:0.5;" x="453.6" xlink:href="#mcb0005524f" y="10.6217821782"/>
      </g>
     </g>
    </g>
   </g>
   <g id="patch_3">
    <path d="
M7.2 7.2
L453.6 7.2" style="fill:none;stroke:#000000;"/>
   </g>
   <g id="patch_4">
    <path d="
M453.6 352.8
L453.6 7.2" style="fill:none;stroke:#000000;"/>
   </g>
   <g id="patch_5">
    <path d="
M7.2 352.8
L453.6 352.8" style="fill:none;stroke:#000000;"/>
   </g>
   <g id="patch_6">
    <path d="
M7.2 352.8
L7.2 7.2" style="fill:none;stroke:#000000;"/>
   </g>
   <g id="text_10">
    <!-- {f20-f24}, 5-D -->
    <defs>
     <path d="
M30.5625 29.8906
L30.5625 21.9219
Q26.8125 21.8281 24.4375 19.875
Q22.0781 17.9219 21.2969 14.5781
Q20.5156 11.2344 20.4531 3.07812
Q20.4062 -5.07812 20.1719 -7.67188
Q19.7344 -11.8125 18.5312 -14.2812
Q17.3281 -16.75 15.5625 -18.2344
Q13.8125 -19.7344 11.0781 -20.5156
Q9.23438 -21.0469 5.03125 -21.0469
L2.29688 -21.0469
L2.29688 -13.375
L3.8125 -13.375
Q8.89062 -13.375 10.5469 -11.5469
Q12.2031 -9.71875 12.2031 -3.32812
Q12.2031 8.89062 12.6406 12.1562
Q13.4219 17.5781 15.7656 20.8281
Q18.1094 24.0781 22.4062 25.875
Q16.7969 28.5625 14.5 32.9844
Q12.2031 37.4062 12.2031 47.9062
Q12.2031 57.4219 11.9688 59.2812
Q11.625 62.5469 10.0312 63.8438
Q8.45312 65.1406 3.8125 65.1406
L2.29688 65.1406
L2.29688 72.7969
L5.03125 72.7969
Q9.8125 72.7969 11.9688 72.0156
Q15.0938 70.9531 17.1406 68.4062
Q19.1875 65.875 19.7969 62.0156
Q20.4062 58.1562 20.4531 49.3594
Q20.5156 40.5781 21.2969 37.2344
Q22.0781 33.8906 24.4375 31.9375
Q26.8125 29.9844 30.5625 29.8906" id="ArialMT-7d"/>
     <path d="
M8.89062 0
L8.89062 10.0156
L18.8906 10.0156
L18.8906 0
Q18.8906 -5.51562 16.9375 -8.90625
Q14.9844 -12.3125 10.75 -14.1562
L8.29688 -10.4062
Q11.0781 -9.1875 12.3906 -6.8125
Q13.7188 -4.4375 13.875 0
z
" id="ArialMT-2c"/>
     <path d="
M4.15625 18.75
L13.375 19.5312
Q14.4062 12.7969 18.1406 9.39062
Q21.875 6 27.1562 6
Q33.5 6 37.8906 10.7812
Q42.2812 15.5781 42.2812 23.4844
Q42.2812 31 38.0625 35.3438
Q33.8438 39.7031 27 39.7031
Q22.75 39.7031 19.3281 37.7656
Q15.9219 35.8438 13.9688 32.7656
L5.71875 33.8438
L12.6406 70.6094
L48.25 70.6094
L48.25 62.2031
L19.6719 62.2031
L15.8281 42.9688
Q22.2656 47.4688 29.3438 47.4688
Q38.7188 47.4688 45.1562 40.9688
Q51.6094 34.4688 51.6094 24.2656
Q51.6094 14.5469 45.9531 7.46875
Q39.0625 -1.21875 27.1562 -1.21875
Q17.3906 -1.21875 11.2031 4.25
Q5.03125 9.71875 4.15625 18.75" id="ArialMT-35"/>
     <path d="
M2.78125 29.8906
Q6.54688 29.9844 8.90625 31.9062
Q11.2812 33.8438 12.0625 37.2031
Q12.8438 40.5781 12.8906 48.7344
Q12.9375 56.8906 13.1875 59.4688
Q13.625 63.5781 14.8125 66.0625
Q16.0156 68.5625 17.7656 70.0469
Q19.5312 71.5312 22.2656 72.3125
Q24.125 72.7969 28.3281 72.7969
L31.0625 72.7969
L31.0625 65.1406
L29.5469 65.1406
Q24.4688 65.1406 22.7969 63.2969
Q21.1406 61.4688 21.1406 55.125
Q21.1406 42.3281 20.6094 38.9688
Q19.7344 33.7344 17.6094 30.9062
Q15.4844 28.0781 10.9375 25.875
Q16.3125 23.6406 18.7188 19.0156
Q21.1406 14.4062 21.1406 3.90625
Q21.1406 -5.60938 21.3438 -7.42188
Q21.7344 -10.75 23.3125 -12.0625
Q24.9062 -13.375 29.5469 -13.375
L31.0625 -13.375
L31.0625 -21.0469
L28.3281 -21.0469
Q23.5312 -21.0469 21.3906 -20.2656
Q18.2656 -19.1406 16.2031 -16.625
Q14.1562 -14.1094 13.5469 -10.25
Q12.9375 -6.39062 12.8906 2.39062
Q12.8438 11.1875 12.0625 14.5469
Q11.2812 17.9219 8.90625 19.875
Q6.54688 21.8281 2.78125 21.9219
z
" id="ArialMT-7b"/>
    </defs>
    <g transform="translate(326.77825 345.888)scale(0.2 -0.2)">
     <use xlink:href="#ArialMT-7b"/>
     <use x="33.3984375" xlink:href="#ArialMT-66"/>
     <use x="61.181640625" xlink:href="#ArialMT-32"/>
     <use x="116.796875" xlink:href="#ArialMT-30"/>
     <use x="172.412109375" xlink:href="#ArialMT-2d"/>
     <use x="205.712890625" xlink:href="#ArialMT-66"/>
     <use x="233.49609375" xlink:href="#ArialMT-32"/>
     <use x="289.111328125" xlink:href="#ArialMT-34"/>
     <use x="344.7265625" xlink:href="#ArialMT-7d"/>
     <use x="378.125" xlink:href="#ArialMT-2c"/>
     <use x="405.908203125" xlink:href="#ArialMT-20"/>
     <use x="433.69140625" xlink:href="#ArialMT-35"/>
     <use x="489.306640625" xlink:href="#ArialMT-2d"/>
     <use x="522.607421875" xlink:href="#ArialMT-44"/>
    </g>
   </g>
   <g id="text_11">
    <!-- v2.0.1 -->
    <defs>
     <path d="
M21 0
L1.26562 51.8594
L10.5469 51.8594
L21.6875 20.7969
Q23.4844 15.7656 25 10.3594
Q26.1719 14.4531 28.2656 20.2188
L39.7969 51.8594
L48.8281 51.8594
L29.2031 0
z
" id="ArialMT-76"/>
     <path d="
M9.07812 0
L9.07812 10.0156
L19.0938 10.0156
L19.0938 0
z
" id="ArialMT-2e"/>
    </defs>
    <g style="fill:#808080;" transform="translate(217.76171875 347.3565)scale(0.1 -0.1)">
     <use xlink:href="#ArialMT-76"/>
     <use x="50.0" xlink:href="#ArialMT-32"/>
     <use x="105.615234375" xlink:href="#ArialMT-2e"/>
     <use x="133.3984375" xlink:href="#ArialMT-30"/>
     <use x="189.013671875" xlink:href="#ArialMT-2e"/>
     <use x="216.796875" xlink:href="#ArialMT-31"/>
    </g>
   </g>
  </g>
 </g>
 <defs>
  <clipPath id="p5bee155178">
   <rect height="345.6" width="446.4" x="7.2" y="7.2"/>
  </clipPath>
 </defs>
</svg>
