<?xml version="1.0" encoding="utf-8" standalone="no"?>
<!DOCTYPE svg PUBLIC "-//W3C//DTD SVG 1.1//EN"
  "http://www.w3.org/Graphics/SVG/1.1/DTD/svg11.dtd">
<!-- Created with matplotlib (http://matplotlib.org/) -->
<svg height="406pt" version="1.1" viewBox="0 0 460 406" width="460pt" xmlns="http://www.w3.org/2000/svg" xmlns:xlink="http://www.w3.org/1999/xlink">
 <defs>
  <style type="text/css">
*{stroke-linecap:butt;stroke-linejoin:round;}
  </style>
 </defs>
 <g id="figure_1">
  <g id="patch_1">
   <path d="
M0 406.059
L460.8 406.059
L460.8 0
L0 0
z
" style="fill:#ffffff;"/>
  </g>
  <g id="axes_1">
   <g id="patch_2">
    <path d="
M7.2 352.8
L453.6 352.8
L453.6 7.2
L7.2 7.2
z
" style="fill:#ffffff;"/>
   </g>
   <g id="line2d_1">
    <path clip-path="url(#p5bee155178)" d="
M182.595 352.8
L182.595 348.238
L185.778 348.238
L185.778 343.675
L188.831 343.675
L188.831 339.113
L190.774 339.113
L190.774 334.55
L192.535 334.55
L192.535 329.988
L202.841 329.988
L202.841 325.426
L204.299 325.426
L204.299 320.863
L206.216 320.863
L206.216 316.301
L206.478 316.301
L206.478 311.739
L206.905 311.739
L206.905 307.176
L208.852 307.176
L208.852 302.614
L209.511 302.614
L209.511 298.051
L210.754 298.051
L210.754 293.489
L213.607 293.489
L213.607 288.927
L214.667 288.927
L214.667 284.364
L215.021 284.364
L215.021 279.802
L215.683 279.802
L215.683 275.24
L216.041 275.24
L216.041 270.677
L217.231 270.677
L217.231 266.115
L217.456 266.115
L217.456 261.552
L218.299 261.552
L218.299 256.99
L219.667 256.99
L219.667 252.428
L221.666 252.428
L221.666 247.865
L221.876 247.865
L221.921 234.178
L222.382 234.178
L222.382 229.616
L222.631 229.616
L222.631 225.053
L223.496 225.053
L223.555 215.929
L224.084 215.929
L224.084 211.366
L224.512 211.366
L224.512 206.804
L225.654 206.804
L225.654 202.242
L225.895 202.242
L225.895 197.679
L226.43 197.679
L226.43 193.117
L226.608 193.117
L226.608 188.554
L228.661 188.554
L228.661 183.992
L229.696 183.992
L229.696 179.43
L230.764 179.43
L230.858 170.305
L231.432 170.305
L231.432 165.743
L232.507 165.743
L232.507 161.18
L232.83 161.18
L232.83 156.618
L233.185 156.618
L233.185 152.055
L234.214 152.055
L234.214 147.493
L235.952 147.493
L236.06 138.368
L236.095 138.368
L236.095 133.806
L237.207 133.806
L237.207 129.244
L237.623 129.244
L237.623 124.681
L238.205 124.681
L238.205 120.119
L239.174 120.119
L239.174 115.556
L240.046 115.556
L240.046 110.994
L240.706 110.994
L240.706 106.432
L241.139 106.432
L241.139 101.869
L241.378 101.869
L241.378 97.3069
L241.584 97.3069
L241.584 92.7446
L241.882 92.7446
L241.882 88.1822
L243.407 88.1822
L243.407 83.6198
L244.025 83.6198
L244.025 79.0574
L245.195 79.0574
L245.252 69.9327
L245.785 69.9327
L245.785 65.3703
L246.377 65.3703
L246.419 56.2455
L246.524 56.2455
L246.524 51.6832
L247.83 51.6832
L247.83 47.1208
L247.991 47.1208
L247.991 42.5584
L249.609 42.5584
L249.609 37.996
L250.064 37.996
L250.064 33.4337
L251.217 33.4337
L251.217 28.8713
L252.195 28.8713
L252.195 24.3089
L252.845 24.3089
L252.845 19.7465
L253.353 19.7465
L253.353 15.1842
L254.266 15.1842
L254.266 10.6218
L254.266 10.6218
L453.6 10.6218
L453.6 10.6218" style="fill:none;stroke:#ff0000;stroke-linecap:square;stroke-width:3.0;"/>
   </g>
   <g id="line2d_2">
    <path clip-path="url(#p5bee155178)" d="
M240.453 352.8
L240.453 348.238
L244.871 348.238
L244.871 343.675
L245.499 343.675
L245.499 339.113
L245.919 339.113
L245.919 334.55
L246.222 334.55
L246.222 329.988
L246.747 329.988
L246.747 325.426
L247.795 325.426
L247.795 320.863
L248.347 320.863
L248.347 316.301
L248.604 316.301
L248.604 311.739
L248.909 311.739
L249.004 302.614
L249.713 302.614
L249.742 288.927
L250.57 288.927
L250.57 284.364
L252.878 284.364
L252.881 275.24
L254.351 275.24
L254.351 270.677
L254.467 270.677
L254.467 266.115
L255.046 266.115
L255.118 256.99
L255.359 256.99
L255.359 252.428
L255.863 252.428
L255.863 247.865
L256.977 247.865
L256.977 243.303
L257.093 243.303
L257.093 238.741
L257.507 238.741
L257.507 234.178
L259.087 234.178
L259.087 229.616
L259.412 229.616
L259.412 225.053
L259.758 225.053
L259.758 220.491
L259.979 220.491
L259.979 215.929
L260.394 215.929
L260.394 211.366
L260.804 211.366
L260.804 206.804
L261.551 206.804
L261.551 202.242
L262.075 202.242
L262.075 197.679
L262.896 197.679
L262.897 188.554
L263.622 188.554
L263.622 183.992
L263.78 183.992
L263.78 179.43
L264.108 179.43
L264.108 174.867
L265.129 174.867
L265.129 170.305
L265.728 170.305
L265.728 165.743
L265.87 165.743
L265.87 161.18
L266.266 161.18
L266.266 156.618
L266.907 156.618
L266.907 152.055
L267.022 152.055
L267.022 147.493
L267.74 147.493
L267.74 142.931
L268.039 142.931
L268.039 138.368
L268.214 138.368
L268.214 133.806
L268.378 133.806
L268.467 124.681
L268.578 124.681
L268.669 106.432
L269.235 106.432
L269.235 101.869
L269.532 101.869
L269.532 97.3069
L269.867 97.3069
L269.867 92.7446
L270.002 92.7446
L270.002 88.1822
L270.192 88.1822
L270.192 83.6198
L271.253 83.6198
L271.253 79.0574
L272.733 79.0574
L272.733 74.495
L273.998 74.495
L273.998 69.9327
L277.824 69.9327
L277.824 65.3703
L279.992 65.3703
L279.992 60.8079
L282.143 60.8079
L282.143 56.2455
L282.54 56.2455
L282.54 51.6832
L283.113 51.6832
L283.113 47.1208
L283.693 47.1208
L283.693 42.5584
L284.556 42.5584
L284.556 37.996
L285.903 37.996
L285.903 33.4337
L287.868 33.4337
L287.868 28.8713
L288.858 28.8713
L288.858 24.3089
L289.541 24.3089
L289.541 19.7465
L290.685 19.7465
L290.685 15.1842
L298.792 15.1842
L298.792 10.6218
L298.792 10.6218
L453.6 10.6218
L453.6 10.6218" style="fill:none;stroke:#00bfbf;stroke-linecap:square;"/>
   </g>
   <g id="line2d_3">
    <path clip-path="url(#p5bee155178)" d="
M238.074 352.8
L238.074 348.238
L238.205 348.238
L238.205 343.675
L239.538 343.675
L239.538 339.113
L240.453 339.113
L240.453 334.55
L240.733 334.55
L240.733 329.988
L242.081 329.988
L242.081 325.426
L243.928 325.426
L243.928 320.863
L244.209 320.863
L244.209 316.301
L245.499 316.301
L245.499 311.739
L246.222 311.739
L246.222 307.176
L246.576 307.176
L246.576 302.614
L246.747 302.614
L246.792 293.489
L247.175 293.489
L247.175 288.927
L248.158 288.927
L248.158 284.364
L248.347 284.364
L248.347 279.802
L248.604 279.802
L248.604 275.24
L249.162 275.24
L249.162 270.677
L250.57 270.677
L250.57 266.115
L251.304 266.115
L251.304 261.552
L251.443 261.552
L251.443 256.99
L252.266 256.99
L252.266 252.428
L252.859 252.428
L252.859 247.865
L253.473 247.865
L253.473 243.303
L254.467 243.303
L254.467 238.741
L255.327 238.741
L255.359 229.616
L255.863 229.616
L255.863 225.053
L256.977 225.053
L257.052 211.366
L257.093 211.366
L257.111 202.242
L257.242 202.242
L257.242 197.679
L257.611 197.679
L257.611 193.117
L257.912 193.117
L257.912 188.554
L259.087 188.554
L259.087 183.992
L259.412 183.992
L259.412 179.43
L259.979 179.43
L259.979 174.867
L260.111 174.867
L260.111 170.305
L260.365 170.305
L260.365 165.743
L260.531 165.743
L260.531 161.18
L261.627 161.18
L261.686 152.055
L261.89 152.055
L261.89 147.493
L262.897 147.493
L262.897 142.931
L263.395 142.931
L263.395 138.368
L264.062 138.368
L264.076 129.244
L265.129 129.244
L265.129 124.681
L265.471 124.681
L265.471 120.119
L265.669 120.119
L265.669 115.556
L265.944 115.556
L265.944 110.994
L267.507 110.994
L267.507 106.432
L267.735 106.432
L267.735 101.869
L268.083 101.869
L268.083 97.3069
L268.214 97.3069
L268.214 92.7446
L268.378 92.7446
L268.378 88.1822
L268.578 88.1822
L268.578 83.6198
L269.235 83.6198
L269.235 79.0574
L269.867 79.0574
L269.867 74.495
L271.253 74.495
L271.253 69.9327
L273.959 69.9327
L273.959 65.3703
L276.932 65.3703
L276.932 60.8079
L277.271 60.8079
L277.271 56.2455
L277.62 56.2455
L277.62 51.6832
L278.073 51.6832
L278.073 47.1208
L278.532 47.1208
L278.532 42.5584
L280.973 42.5584
L280.973 37.996
L281.464 37.996
L281.464 33.4337
L282.143 33.4337
L282.143 28.8713
L282.443 28.8713
L282.443 24.3089
L282.742 24.3089
L282.742 19.7465
L283.693 19.7465
L283.693 15.1842
L293.853 15.1842
L293.853 10.6218
L293.853 10.6218
L453.6 10.6218
L453.6 10.6218" style="fill:none;stroke:#bf00bf;stroke-linecap:square;"/>
   </g>
   <g id="line2d_4">
    <path clip-path="url(#p5bee155178)" d="
M230.605 352.8
L230.605 348.238
L235.31 348.238
L235.31 343.675
L238.074 343.675
L238.136 334.55
L238.205 334.55
L238.205 329.988
L240.082 329.988
L240.082 325.426
L240.733 325.426
L240.733 320.863
L241.644 320.863
L241.644 316.301
L241.925 316.301
L241.925 311.739
L242.081 311.739
L242.081 307.176
L243.928 307.176
L243.928 302.614
L244.209 302.614
L244.209 298.051
L244.655 298.051
L244.655 293.489
L244.773 293.489
L244.773 288.927
L245.235 288.927
L245.235 284.364
L245.848 284.364
L245.848 279.802
L246.222 279.802
L246.222 275.24
L246.576 275.24
L246.576 270.677
L246.747 270.677
L246.747 266.115
L247.175 266.115
L247.175 261.552
L247.708 261.552
L247.708 256.99
L248.604 256.99
L248.625 247.865
L248.897 247.865
L248.897 243.303
L249.162 243.303
L249.162 238.741
L249.513 238.741
L249.513 234.178
L249.94 234.178
L250.011 225.053
L250.623 225.053
L250.623 220.491
L251.186 220.491
L251.186 215.929
L251.443 215.929
L251.443 211.366
L251.559 211.366
L251.559 206.804
L252.477 206.804
L252.477 202.242
L252.609 202.242
L252.609 197.679
L252.859 197.679
L252.859 193.117
L253.598 193.117
L253.598 188.554
L253.828 188.554
L253.828 183.992
L254.706 183.992
L254.706 179.43
L255.327 179.43
L255.359 170.305
L256.435 170.305
L256.435 165.743
L256.844 165.743
L256.874 156.618
L257.049 156.618
L257.111 147.493
L257.242 147.493
L257.242 142.931
L257.912 142.931
L257.912 138.368
L258.231 138.368
L258.231 133.806
L259.087 133.806
L259.087 129.244
L259.412 129.244
L259.412 124.681
L259.954 124.681
L259.979 115.556
L261.627 115.556
L261.627 110.994
L261.89 110.994
L261.9 101.869
L262.123 101.869
L262.123 97.3069
L263.069 97.3069
L263.069 92.7446
L264.076 92.7446
L264.076 88.1822
L266.182 88.1822
L266.182 83.6198
L267.835 83.6198
L267.835 79.0574
L268.214 79.0574
L268.214 74.495
L268.455 74.495
L268.46 65.3703
L269.235 65.3703
L269.235 60.8079
L271.88 60.8079
L271.88 56.2455
L275.202 56.2455
L275.202 51.6832
L276.511 51.6832
L276.511 47.1208
L276.78 47.1208
L276.78 42.5584
L277.527 42.5584
L277.527 37.996
L278.073 37.996
L278.073 33.4337
L278.528 33.4337
L278.528 28.8713
L279.275 28.8713
L279.275 24.3089
L280.897 24.3089
L280.897 19.7465
L282.742 19.7465
L282.742 15.1842
L293.853 15.1842
L293.853 10.6218
L293.853 10.6218
L453.6 10.6218
L453.6 10.6218" style="fill:none;stroke:#000000;stroke-linecap:square;"/>
   </g>
   <g id="line2d_5">
    <path clip-path="url(#p5bee155178)" d="
M217.231 352.8
L217.231 348.238
L222.382 348.238
L222.382 343.675
L223.002 343.675
L223.002 339.113
L230.605 339.113
L230.605 334.55
L230.861 334.55
L230.861 329.988
L230.999 329.988
L230.999 325.426
L231.651 325.426
L231.651 320.863
L234.086 320.863
L234.086 316.301
L234.379 316.301
L234.379 311.739
L234.557 311.739
L234.557 307.176
L234.723 307.176
L234.723 302.614
L235.07 302.614
L235.07 298.051
L235.303 298.051
L235.303 293.489
L236.064 293.489
L236.064 288.927
L236.396 288.927
L236.493 279.802
L236.939 279.802
L236.939 275.24
L237.082 275.24
L237.168 266.115
L238.205 266.115
L238.205 261.552
L238.32 261.552
L238.413 252.428
L239.058 252.428
L239.058 247.865
L239.22 247.865
L239.22 243.303
L239.824 243.303
L239.824 238.741
L240.329 238.741
L240.329 234.178
L240.675 234.178
L240.675 229.616
L241.055 229.616
L241.055 225.053
L241.616 225.053
L241.616 220.491
L242.082 220.491
L242.127 211.366
L242.684 211.366
L242.684 206.804
L244.549 206.804
L244.549 202.242
L245.855 202.242
L245.855 197.679
L246.122 197.679
L246.122 193.117
L246.274 193.117
L246.274 188.554
L246.761 188.554
L246.761 183.992
L248.445 183.992
L248.552 174.867
L248.763 174.867
L248.763 170.305
L248.919 170.305
L248.919 165.743
L249.414 165.743
L249.414 161.18
L249.814 161.18
L249.841 152.055
L250.344 152.055
L250.344 147.493
L251.142 147.493
L251.142 142.931
L251.255 142.931
L251.255 138.368
L251.613 138.368
L251.613 133.806
L251.87 133.806
L251.871 124.681
L252.329 124.681
L252.404 115.556
L252.925 115.556
L252.975 106.432
L253.457 106.432
L253.457 101.869
L253.599 101.869
L253.599 97.3069
L254.467 97.3069
L254.467 92.7446
L255.909 92.7446
L255.909 88.1822
L256.674 88.1822
L256.764 79.0574
L257.052 79.0574
L257.052 74.495
L257.562 74.495
L257.562 69.9327
L258.048 69.9327
L258.048 65.3703
L259.699 65.3703
L259.699 60.8079
L260.749 60.8079
L260.842 47.1208
L261.265 47.1208
L261.265 42.5584
L261.416 42.5584
L261.416 37.996
L263.111 37.996
L263.111 33.4337
L263.752 33.4337
L263.79 24.3089
L265.614 24.3089
L265.614 19.7465
L266.182 19.7465
L266.182 15.1842
L268.586 15.1842
L268.586 10.6218
L268.586 10.6218
L453.6 10.6218
L453.6 10.6218" style="fill:none;stroke:#00bfbf;stroke-linecap:square;"/>
   </g>
   <g id="line2d_6">
    <path clip-path="url(#p5bee155178)" d="
M182.595 352.8
L182.595 348.238
L185.778 348.238
L185.778 343.675
L188.831 343.675
L188.831 339.113
L190.774 339.113
L190.774 334.55
L192.535 334.55
L192.535 329.988
L202.841 329.988
L202.841 325.426
L204.299 325.426
L204.299 320.863
L206.216 320.863
L206.216 316.301
L206.478 316.301
L206.478 311.739
L206.905 311.739
L206.905 307.176
L208.852 307.176
L208.852 302.614
L209.511 302.614
L209.511 298.051
L210.754 298.051
L210.754 293.489
L213.607 293.489
L213.607 288.927
L214.667 288.927
L214.667 284.364
L215.021 284.364
L215.021 279.802
L215.683 279.802
L215.683 275.24
L216.041 275.24
L216.041 270.677
L217.231 270.677
L217.231 266.115
L217.456 266.115
L217.456 261.552
L218.299 261.552
L218.299 256.99
L219.667 256.99
L219.667 252.428
L221.666 252.428
L221.666 247.865
L221.876 247.865
L221.921 234.178
L222.382 234.178
L222.382 229.616
L222.631 229.616
L222.631 225.053
L223.496 225.053
L223.555 215.929
L224.084 215.929
L224.084 211.366
L224.512 211.366
L224.512 206.804
L225.654 206.804
L225.654 202.242
L225.895 202.242
L225.895 197.679
L226.43 197.679
L226.43 193.117
L226.608 193.117
L226.608 188.554
L228.661 188.554
L228.661 183.992
L229.696 183.992
L229.696 179.43
L230.764 179.43
L230.858 170.305
L231.432 170.305
L231.432 165.743
L232.507 165.743
L232.507 161.18
L232.83 161.18
L232.83 156.618
L233.185 156.618
L233.185 152.055
L234.214 152.055
L234.214 147.493
L235.952 147.493
L236.06 138.368
L236.095 138.368
L236.095 133.806
L237.207 133.806
L237.207 129.244
L237.623 129.244
L237.623 124.681
L238.205 124.681
L238.205 120.119
L239.174 120.119
L239.174 115.556
L240.046 115.556
L240.046 110.994
L240.706 110.994
L240.706 106.432
L241.139 106.432
L241.139 101.869
L241.378 101.869
L241.378 97.3069
L241.584 97.3069
L241.584 92.7446
L241.882 92.7446
L241.882 88.1822
L243.407 88.1822
L243.407 83.6198
L244.025 83.6198
L244.025 79.0574
L245.195 79.0574
L245.252 69.9327
L245.785 69.9327
L245.785 65.3703
L246.377 65.3703
L246.419 56.2455
L246.524 56.2455
L246.524 51.6832
L247.83 51.6832
L247.83 47.1208
L247.991 47.1208
L247.991 42.5584
L249.609 42.5584
L249.609 37.996
L250.064 37.996
L250.064 33.4337
L251.217 33.4337
L251.217 28.8713
L252.195 28.8713
L252.195 24.3089
L252.845 24.3089
L252.845 19.7465
L253.353 19.7465
L253.353 15.1842
L254.266 15.1842
L254.266 10.6218
L254.266 10.6218
L453.6 10.6218
L453.6 10.6218" style="fill:none;stroke:#bf00bf;stroke-linecap:square;"/>
   </g>
   <g id="matplotlib.axis_1">
    <g id="xtick_1"/>
    <g id="xtick_2">
     <g id="line2d_7">
      <path clip-path="url(#p5bee155178)" d="
M59.6175 352.8
L59.6175 7.2" style="fill:none;stroke:#000000;stroke-dasharray:1.000000,3.000000;stroke-dashoffset:0.0;stroke-width:0.5;"/>
     </g>
     <g id="line2d_8">
      <defs>
       <path d="
M0 0
L0 -4" id="m93b0483c22" style="stroke:#000000;stroke-width:0.5;"/>
      </defs>
      <g>
       <use style="stroke:#000000;stroke-width:0.5;" x="59.6174973142" xlink:href="#m93b0483c22" y="352.8"/>
      </g>
     </g>
     <g id="line2d_9">
      <defs>
       <path d="
M0 0
L0 4" id="m741efc42ff" style="stroke:#000000;stroke-width:0.5;"/>
      </defs>
      <g>
       <use style="stroke:#000000;stroke-width:0.5;" x="59.6174973142" xlink:href="#m741efc42ff" y="7.2"/>
      </g>
     </g>
     <g id="text_1">
      <!-- -6 -->
      <defs>
       <path d="
M3.17188 21.4844
L3.17188 30.3281
L30.1719 30.3281
L30.1719 21.4844
z
" id="ArialMT-2d"/>
       <path d="
M49.75 54.0469
L41.0156 53.375
Q39.8438 58.5469 37.7031 60.8906
Q34.125 64.6562 28.9062 64.6562
Q24.7031 64.6562 21.5312 62.3125
Q17.3906 59.2812 14.9844 53.4688
Q12.5938 47.6562 12.5 36.9219
Q15.6719 41.75 20.2656 44.0938
Q24.8594 46.4375 29.8906 46.4375
Q38.6719 46.4375 44.8438 39.9688
Q51.0312 33.5 51.0312 23.25
Q51.0312 16.5 48.125 10.7188
Q45.2188 4.9375 40.1406 1.85938
Q35.0625 -1.21875 28.6094 -1.21875
Q17.625 -1.21875 10.6875 6.85938
Q3.76562 14.9375 3.76562 33.5
Q3.76562 54.25 11.4219 63.6719
Q18.1094 71.875 29.4375 71.875
Q37.8906 71.875 43.2812 67.1406
Q48.6875 62.4062 49.75 54.0469
M13.875 23.1875
Q13.875 18.6562 15.7969 14.5
Q17.7188 10.3594 21.1875 8.17188
Q24.6562 6 28.4688 6
Q34.0312 6 38.0312 10.4844
Q42.0469 14.9844 42.0469 22.7031
Q42.0469 30.125 38.0781 34.3906
Q34.125 38.6719 28.125 38.6719
Q22.1719 38.6719 18.0156 34.3906
Q13.875 30.125 13.875 23.1875" id="ArialMT-36"/>
      </defs>
      <g transform="translate(51.5018723142 371.115625)scale(0.2 -0.2)">
       <use xlink:href="#ArialMT-2d"/>
       <use x="33.30078125" xlink:href="#ArialMT-36"/>
      </g>
     </g>
    </g>
    <g id="xtick_3">
     <g id="line2d_10">
      <path clip-path="url(#p5bee155178)" d="
M112.148 352.8
L112.148 7.2" style="fill:none;stroke:#000000;stroke-dasharray:1.000000,3.000000;stroke-dashoffset:0.0;stroke-width:0.5;"/>
     </g>
     <g id="line2d_11">
      <g>
       <use style="stroke:#000000;stroke-width:0.5;" x="112.148497672" xlink:href="#m93b0483c22" y="352.8"/>
      </g>
     </g>
     <g id="line2d_12">
      <g>
       <use style="stroke:#000000;stroke-width:0.5;" x="112.148497672" xlink:href="#m741efc42ff" y="7.2"/>
      </g>
     </g>
     <g id="text_2">
      <!-- -4 -->
      <defs>
       <path d="
M32.3281 0
L32.3281 17.1406
L1.26562 17.1406
L1.26562 25.2031
L33.9375 71.5781
L41.1094 71.5781
L41.1094 25.2031
L50.7812 25.2031
L50.7812 17.1406
L41.1094 17.1406
L41.1094 0
z

M32.3281 25.2031
L32.3281 57.4688
L9.90625 25.2031
z
" id="ArialMT-34"/>
      </defs>
      <g transform="translate(104.057872672 371.115625)scale(0.2 -0.2)">
       <use xlink:href="#ArialMT-2d"/>
       <use x="33.30078125" xlink:href="#ArialMT-34"/>
      </g>
     </g>
    </g>
    <g id="xtick_4">
     <g id="line2d_13">
      <path clip-path="url(#p5bee155178)" d="
M164.679 352.8
L164.679 7.2" style="fill:none;stroke:#000000;stroke-dasharray:1.000000,3.000000;stroke-dashoffset:0.0;stroke-width:0.5;"/>
     </g>
     <g id="line2d_14">
      <g>
       <use style="stroke:#000000;stroke-width:0.5;" x="164.67949803" xlink:href="#m93b0483c22" y="352.8"/>
      </g>
     </g>
     <g id="line2d_15">
      <g>
       <use style="stroke:#000000;stroke-width:0.5;" x="164.67949803" xlink:href="#m741efc42ff" y="7.2"/>
      </g>
     </g>
     <g id="text_3">
      <!-- -2 -->
      <defs>
       <path d="
M50.3438 8.45312
L50.3438 0
L3.03125 0
Q2.9375 3.17188 4.04688 6.10938
Q5.85938 10.9375 9.82812 15.625
Q13.8125 20.3125 21.3438 26.4688
Q33.0156 36.0312 37.1094 41.625
Q41.2188 47.2188 41.2188 52.2031
Q41.2188 57.4219 37.4688 61
Q33.7344 64.5938 27.7344 64.5938
Q21.3906 64.5938 17.5781 60.7812
Q13.7656 56.9844 13.7188 50.25
L4.6875 51.1719
Q5.60938 61.2812 11.6562 66.5781
Q17.7188 71.875 27.9375 71.875
Q38.2344 71.875 44.2344 66.1562
Q50.25 60.4531 50.25 52
Q50.25 47.7031 48.4844 43.5469
Q46.7344 39.4062 42.6562 34.8125
Q38.5781 30.2188 29.1094 22.2188
Q21.1875 15.5781 18.9375 13.2031
Q16.7031 10.8438 15.2344 8.45312
z
" id="ArialMT-32"/>
      </defs>
      <g transform="translate(156.63262303 371.115625)scale(0.2 -0.2)">
       <use xlink:href="#ArialMT-2d"/>
       <use x="33.30078125" xlink:href="#ArialMT-32"/>
      </g>
     </g>
    </g>
    <g id="xtick_5">
     <g id="line2d_16">
      <path clip-path="url(#p5bee155178)" d="
M217.21 352.8
L217.21 7.2" style="fill:none;stroke:#000000;stroke-dasharray:1.000000,3.000000;stroke-dashoffset:0.0;stroke-width:0.5;"/>
     </g>
     <g id="line2d_17">
      <g>
       <use style="stroke:#000000;stroke-width:0.5;" x="217.210498389" xlink:href="#m93b0483c22" y="352.8"/>
      </g>
     </g>
     <g id="line2d_18">
      <g>
       <use style="stroke:#000000;stroke-width:0.5;" x="217.210498389" xlink:href="#m741efc42ff" y="7.2"/>
      </g>
     </g>
     <g id="text_4">
      <!-- 0 -->
      <defs>
       <path d="
M4.15625 35.2969
Q4.15625 48 6.76562 55.7344
Q9.375 63.4844 14.5156 67.6719
Q19.6719 71.875 27.4844 71.875
Q33.25 71.875 37.5938 69.5469
Q41.9375 67.2344 44.7656 62.8594
Q47.6094 58.5 49.2188 52.2188
Q50.8281 45.9531 50.8281 35.2969
Q50.8281 22.7031 48.2344 14.9688
Q45.6562 7.23438 40.5 3
Q35.3594 -1.21875 27.4844 -1.21875
Q17.1406 -1.21875 11.2344 6.20312
Q4.15625 15.1406 4.15625 35.2969
M13.1875 35.2969
Q13.1875 17.6719 17.3125 11.8281
Q21.4375 6 27.4844 6
Q33.5469 6 37.6719 11.8594
Q41.7969 17.7188 41.7969 35.2969
Q41.7969 52.9844 37.6719 58.7812
Q33.5469 64.5938 27.3906 64.5938
Q21.3438 64.5938 17.7188 59.4688
Q13.1875 52.9375 13.1875 35.2969" id="ArialMT-30"/>
      </defs>
      <g transform="translate(212.543310889 371.115625)scale(0.2 -0.2)">
       <use xlink:href="#ArialMT-30"/>
      </g>
     </g>
    </g>
    <g id="xtick_6">
     <g id="line2d_19">
      <path clip-path="url(#p5bee155178)" d="
M269.741 352.8
L269.741 7.2" style="fill:none;stroke:#000000;stroke-dasharray:1.000000,3.000000;stroke-dashoffset:0.0;stroke-width:0.5;"/>
     </g>
     <g id="line2d_20">
      <g>
       <use style="stroke:#000000;stroke-width:0.5;" x="269.741498747" xlink:href="#m93b0483c22" y="352.8"/>
      </g>
     </g>
     <g id="line2d_21">
      <g>
       <use style="stroke:#000000;stroke-width:0.5;" x="269.741498747" xlink:href="#m741efc42ff" y="7.2"/>
      </g>
     </g>
     <g id="text_5">
      <!-- 2 -->
      <g transform="translate(265.000873747 371.115625)scale(0.2 -0.2)">
       <use xlink:href="#ArialMT-32"/>
      </g>
     </g>
    </g>
    <g id="xtick_7">
     <g id="line2d_22">
      <path clip-path="url(#p5bee155178)" d="
M322.272 352.8
L322.272 7.2" style="fill:none;stroke:#000000;stroke-dasharray:1.000000,3.000000;stroke-dashoffset:0.0;stroke-width:0.5;"/>
     </g>
     <g id="line2d_23">
      <g>
       <use style="stroke:#000000;stroke-width:0.5;" x="322.272499105" xlink:href="#m93b0483c22" y="352.8"/>
      </g>
     </g>
     <g id="line2d_24">
      <g>
       <use style="stroke:#000000;stroke-width:0.5;" x="322.272499105" xlink:href="#m741efc42ff" y="7.2"/>
      </g>
     </g>
     <g id="text_6">
      <!-- 4 -->
      <g transform="translate(317.320936605 371.115625)scale(0.2 -0.2)">
       <use xlink:href="#ArialMT-34"/>
      </g>
     </g>
    </g>
    <g id="xtick_8">
     <g id="line2d_25">
      <path clip-path="url(#p5bee155178)" d="
M374.803 352.8
L374.803 7.2" style="fill:none;stroke:#000000;stroke-dasharray:1.000000,3.000000;stroke-dashoffset:0.0;stroke-width:0.5;"/>
     </g>
     <g id="line2d_26">
      <g>
       <use style="stroke:#000000;stroke-width:0.5;" x="374.803499463" xlink:href="#m93b0483c22" y="352.8"/>
      </g>
     </g>
     <g id="line2d_27">
      <g>
       <use style="stroke:#000000;stroke-width:0.5;" x="374.803499463" xlink:href="#m741efc42ff" y="7.2"/>
      </g>
     </g>
     <g id="text_7">
      <!-- 6 -->
      <g transform="translate(370.076936963 371.115625)scale(0.2 -0.2)">
       <use xlink:href="#ArialMT-36"/>
      </g>
     </g>
    </g>
    <g id="xtick_9">
     <g id="line2d_28">
      <path clip-path="url(#p5bee155178)" d="
M427.334 352.8
L427.334 7.2" style="fill:none;stroke:#000000;stroke-dasharray:1.000000,3.000000;stroke-dashoffset:0.0;stroke-width:0.5;"/>
     </g>
     <g id="line2d_29">
      <g>
       <use style="stroke:#000000;stroke-width:0.5;" x="427.334499821" xlink:href="#m93b0483c22" y="352.8"/>
      </g>
     </g>
     <g id="line2d_30">
      <g>
       <use style="stroke:#000000;stroke-width:0.5;" x="427.334499821" xlink:href="#m741efc42ff" y="7.2"/>
      </g>
     </g>
     <g id="text_8">
      <!-- 8 -->
      <defs>
       <path d="
M17.6719 38.8125
Q12.2031 40.8281 9.5625 44.5312
Q6.9375 48.25 6.9375 53.4219
Q6.9375 61.2344 12.5469 66.5469
Q18.1719 71.875 27.4844 71.875
Q36.8594 71.875 42.5781 66.4219
Q48.2969 60.9844 48.2969 53.1719
Q48.2969 48.1875 45.6719 44.5
Q43.0625 40.8281 37.75 38.8125
Q44.3438 36.6719 47.7812 31.875
Q51.2188 27.0938 51.2188 20.4531
Q51.2188 11.2812 44.7188 5.03125
Q38.2344 -1.21875 27.6406 -1.21875
Q17.0469 -1.21875 10.5469 5.04688
Q4.04688 11.3281 4.04688 20.7031
Q4.04688 27.6875 7.59375 32.3906
Q11.1406 37.1094 17.6719 38.8125
M15.9219 53.7188
Q15.9219 48.6406 19.1875 45.4062
Q22.4688 42.1875 27.6875 42.1875
Q32.7656 42.1875 36.0156 45.375
Q39.2656 48.5781 39.2656 53.2188
Q39.2656 58.0625 35.9062 61.3594
Q32.5625 64.6562 27.5938 64.6562
Q22.5625 64.6562 19.2344 61.4219
Q15.9219 58.2031 15.9219 53.7188
M13.0938 20.6562
Q13.0938 16.8906 14.875 13.375
Q16.6562 9.85938 20.1719 7.92188
Q23.6875 6 27.7344 6
Q34.0312 6 38.125 10.0469
Q42.2344 14.1094 42.2344 20.3594
Q42.2344 26.7031 38.0156 30.8594
Q33.7969 35.0156 27.4375 35.0156
Q21.2344 35.0156 17.1562 30.9062
Q13.0938 26.8125 13.0938 20.6562" id="ArialMT-38"/>
      </defs>
      <g transform="translate(422.617312321 371.115625)scale(0.2 -0.2)">
       <use xlink:href="#ArialMT-38"/>
      </g>
     </g>
    </g>
    <g id="xtick_10"/>
    <g id="xtick_11">
     <g id="line2d_31">
      <defs>
       <path d="
M0 0
L0 -2" id="m177f7580d0" style="stroke:#000000;stroke-width:0.5;"/>
      </defs>
      <g>
       <use style="stroke:#000000;stroke-width:0.5;" x="59.6174973142" xlink:href="#m177f7580d0" y="352.8"/>
      </g>
     </g>
     <g id="line2d_32">
      <defs>
       <path d="
M0 0
L0 2" id="m5284c7e2a0" style="stroke:#000000;stroke-width:0.5;"/>
      </defs>
      <g>
       <use style="stroke:#000000;stroke-width:0.5;" x="59.6174973142" xlink:href="#m5284c7e2a0" y="7.2"/>
      </g>
     </g>
    </g>
    <g id="xtick_12">
     <g id="line2d_33">
      <g>
       <use style="stroke:#000000;stroke-width:0.5;" x="112.148497672" xlink:href="#m177f7580d0" y="352.8"/>
      </g>
     </g>
     <g id="line2d_34">
      <g>
       <use style="stroke:#000000;stroke-width:0.5;" x="112.148497672" xlink:href="#m5284c7e2a0" y="7.2"/>
      </g>
     </g>
    </g>
    <g id="xtick_13">
     <g id="line2d_35">
      <g>
       <use style="stroke:#000000;stroke-width:0.5;" x="164.67949803" xlink:href="#m177f7580d0" y="352.8"/>
      </g>
     </g>
     <g id="line2d_36">
      <g>
       <use style="stroke:#000000;stroke-width:0.5;" x="164.67949803" xlink:href="#m5284c7e2a0" y="7.2"/>
      </g>
     </g>
    </g>
    <g id="xtick_14">
     <g id="line2d_37">
      <g>
       <use style="stroke:#000000;stroke-width:0.5;" x="217.210498389" xlink:href="#m177f7580d0" y="352.8"/>
      </g>
     </g>
     <g id="line2d_38">
      <g>
       <use style="stroke:#000000;stroke-width:0.5;" x="217.210498389" xlink:href="#m5284c7e2a0" y="7.2"/>
      </g>
     </g>
    </g>
    <g id="xtick_15">
     <g id="line2d_39">
      <g>
       <use style="stroke:#000000;stroke-width:0.5;" x="269.741498747" xlink:href="#m177f7580d0" y="352.8"/>
      </g>
     </g>
     <g id="line2d_40">
      <g>
       <use style="stroke:#000000;stroke-width:0.5;" x="269.741498747" xlink:href="#m5284c7e2a0" y="7.2"/>
      </g>
     </g>
    </g>
    <g id="xtick_16">
     <g id="line2d_41">
      <g>
       <use style="stroke:#000000;stroke-width:0.5;" x="322.272499105" xlink:href="#m177f7580d0" y="352.8"/>
      </g>
     </g>
     <g id="line2d_42">
      <g>
       <use style="stroke:#000000;stroke-width:0.5;" x="322.272499105" xlink:href="#m5284c7e2a0" y="7.2"/>
      </g>
     </g>
    </g>
    <g id="xtick_17">
     <g id="line2d_43">
      <g>
       <use style="stroke:#000000;stroke-width:0.5;" x="374.803499463" xlink:href="#m177f7580d0" y="352.8"/>
      </g>
     </g>
     <g id="line2d_44">
      <g>
       <use style="stroke:#000000;stroke-width:0.5;" x="374.803499463" xlink:href="#m5284c7e2a0" y="7.2"/>
      </g>
     </g>
    </g>
    <g id="xtick_18">
     <g id="line2d_45">
      <g>
       <use style="stroke:#000000;stroke-width:0.5;" x="427.334499821" xlink:href="#m177f7580d0" y="352.8"/>
      </g>
     </g>
     <g id="line2d_46">
      <g>
       <use style="stroke:#000000;stroke-width:0.5;" x="427.334499821" xlink:href="#m5284c7e2a0" y="7.2"/>
      </g>
     </g>
    </g>
    <g id="text_9">
     <!-- log10 of Df -->
     <defs>
      <path d="
M4.98438 -4.29688
L13.5312 -5.5625
Q14.0625 -9.51562 16.5 -11.3281
Q19.7812 -13.7656 25.4375 -13.7656
Q31.5469 -13.7656 34.8594 -11.3281
Q38.1875 -8.89062 39.3594 -4.5
Q40.0469 -1.8125 39.9844 6.78125
Q34.2344 0 25.6406 0
Q14.9375 0 9.07812 7.71875
Q3.21875 15.4375 3.21875 26.2188
Q3.21875 33.6406 5.90625 39.9062
Q8.59375 46.1875 13.6875 49.6094
Q18.7969 53.0312 25.6875 53.0312
Q34.8594 53.0312 40.8281 45.6094
L40.8281 51.8594
L48.9219 51.8594
L48.9219 7.03125
Q48.9219 -5.07812 46.4531 -10.125
Q44 -15.1875 38.6406 -18.1094
Q33.2969 -21.0469 25.4844 -21.0469
Q16.2188 -21.0469 10.5 -16.875
Q4.78125 -12.7031 4.98438 -4.29688
M12.25 26.8594
Q12.25 16.6562 16.2969 11.9688
Q20.3594 7.28125 26.4688 7.28125
Q32.5156 7.28125 36.6094 11.9375
Q40.7188 16.6094 40.7188 26.5625
Q40.7188 36.0781 36.5 40.9062
Q32.2812 45.75 26.3125 45.75
Q20.4531 45.75 16.3438 40.9844
Q12.25 36.2344 12.25 26.8594" id="ArialMT-67"/>
      <path d="
M8.6875 0
L8.6875 45.0156
L0.921875 45.0156
L0.921875 51.8594
L8.6875 51.8594
L8.6875 57.375
Q8.6875 62.5938 9.625 65.1406
Q10.8906 68.5625 14.0781 70.6719
Q17.2812 72.7969 23.0469 72.7969
Q26.7656 72.7969 31.25 71.9219
L29.9375 64.2656
Q27.2031 64.75 24.75 64.75
Q20.75 64.75 19.0938 63.0312
Q17.4375 61.3281 17.4375 56.6406
L17.4375 51.8594
L27.5469 51.8594
L27.5469 45.0156
L17.4375 45.0156
L17.4375 0
z
" id="ArialMT-66"/>
      <path d="
M7.71875 0
L7.71875 71.5781
L32.375 71.5781
Q40.7188 71.5781 45.125 70.5625
Q51.2656 69.1406 55.6094 65.4375
Q61.2812 60.6406 64.0781 53.1875
Q66.8906 45.75 66.8906 36.1875
Q66.8906 28.0312 64.9844 21.7344
Q63.0938 15.4375 60.1094 11.2969
Q57.125 7.17188 53.5781 4.79688
Q50.0469 2.4375 45.0469 1.21875
Q40.0469 0 33.5469 0
z

M17.1875 8.45312
L32.4688 8.45312
Q39.5469 8.45312 43.5781 9.76562
Q47.6094 11.0781 50 13.4844
Q53.375 16.8438 55.25 22.5312
Q57.125 28.2188 57.125 36.3281
Q57.125 47.5625 53.4375 53.5938
Q49.75 59.625 44.4844 61.6719
Q40.6719 63.1406 32.2344 63.1406
L17.1875 63.1406
z
" id="ArialMT-44"/>
      <path d="
M6.39062 0
L6.39062 71.5781
L15.1875 71.5781
L15.1875 0
z
" id="ArialMT-6c"/>
      <path d="
M3.32812 25.9219
Q3.32812 40.3281 11.3281 47.2656
Q18.0156 53.0312 27.6406 53.0312
Q38.3281 53.0312 45.1094 46.0156
Q51.9062 39.0156 51.9062 26.6562
Q51.9062 16.6562 48.9062 10.9062
Q45.9062 5.17188 40.1562 2
Q34.4219 -1.17188 27.6406 -1.17188
Q16.75 -1.17188 10.0312 5.8125
Q3.32812 12.7969 3.32812 25.9219
M12.3594 25.9219
Q12.3594 15.9688 16.7031 11.0156
Q21.0469 6.0625 27.6406 6.0625
Q34.1875 6.0625 38.5312 11.0312
Q42.875 16.0156 42.875 26.2188
Q42.875 35.8438 38.5 40.7969
Q34.125 45.75 27.6406 45.75
Q21.0469 45.75 16.7031 40.8125
Q12.3594 35.8906 12.3594 25.9219" id="ArialMT-6f"/>
      <path d="
M37.25 0
L28.4688 0
L28.4688 56
Q25.2969 52.9844 20.1406 49.9531
Q14.9844 46.9219 10.8906 45.4062
L10.8906 53.9062
Q18.2656 57.375 23.7812 62.2969
Q29.2969 67.2344 31.5938 71.875
L37.25 71.875
z
" id="ArialMT-31"/>
      <path id="ArialMT-20"/>
     </defs>
     <g transform="translate(181.6921875 394.65)scale(0.2 -0.2)">
      <use xlink:href="#ArialMT-6c"/>
      <use x="22.216796875" xlink:href="#ArialMT-6f"/>
      <use x="77.83203125" xlink:href="#ArialMT-67"/>
      <use x="133.447265625" xlink:href="#ArialMT-31"/>
      <use x="189.0625" xlink:href="#ArialMT-30"/>
      <use x="244.677734375" xlink:href="#ArialMT-20"/>
      <use x="272.4609375" xlink:href="#ArialMT-6f"/>
      <use x="328.076171875" xlink:href="#ArialMT-66"/>
      <use x="355.859375" xlink:href="#ArialMT-20"/>
      <use x="383.642578125" xlink:href="#ArialMT-44"/>
      <use x="455.859375" xlink:href="#ArialMT-66"/>
     </g>
    </g>
   </g>
   <g id="matplotlib.axis_2">
    <g id="ytick_1">
     <g id="line2d_47">
      <path clip-path="url(#p5bee155178)" d="
M7.2 352.8
L453.6 352.8" style="fill:none;stroke:#000000;stroke-dasharray:1.000000,3.000000;stroke-dashoffset:0.0;stroke-width:0.5;"/>
     </g>
     <g id="line2d_48">
      <defs>
       <path d="
M0 0
L4 0" id="m728421d6d4" style="stroke:#000000;stroke-width:0.5;"/>
      </defs>
      <g>
       <use style="stroke:#000000;stroke-width:0.5;" x="7.2" xlink:href="#m728421d6d4" y="352.8"/>
      </g>
     </g>
     <g id="line2d_49">
      <defs>
       <path d="
M0 0
L-4 0" id="mcb0005524f" style="stroke:#000000;stroke-width:0.5;"/>
      </defs>
      <g>
       <use style="stroke:#000000;stroke-width:0.5;" x="453.6" xlink:href="#mcb0005524f" y="352.8"/>
      </g>
     </g>
    </g>
    <g id="ytick_2">
     <g id="line2d_50">
      <path clip-path="url(#p5bee155178)" d="
M7.2 284.364
L453.6 284.364" style="fill:none;stroke:#000000;stroke-dasharray:1.000000,3.000000;stroke-dashoffset:0.0;stroke-width:0.5;"/>
     </g>
     <g id="line2d_51">
      <g>
       <use style="stroke:#000000;stroke-width:0.5;" x="7.2" xlink:href="#m728421d6d4" y="284.364356436"/>
      </g>
     </g>
     <g id="line2d_52">
      <g>
       <use style="stroke:#000000;stroke-width:0.5;" x="453.6" xlink:href="#mcb0005524f" y="284.364356436"/>
      </g>
     </g>
    </g>
    <g id="ytick_3">
     <g id="line2d_53">
      <path clip-path="url(#p5bee155178)" d="
M7.2 215.929
L453.6 215.929" style="fill:none;stroke:#000000;stroke-dasharray:1.000000,3.000000;stroke-dashoffset:0.0;stroke-width:0.5;"/>
     </g>
     <g id="line2d_54">
      <g>
       <use style="stroke:#000000;stroke-width:0.5;" x="7.2" xlink:href="#m728421d6d4" y="215.928712871"/>
      </g>
     </g>
     <g id="line2d_55">
      <g>
       <use style="stroke:#000000;stroke-width:0.5;" x="453.6" xlink:href="#mcb0005524f" y="215.928712871"/>
      </g>
     </g>
    </g>
    <g id="ytick_4">
     <g id="line2d_56">
      <path clip-path="url(#p5bee155178)" d="
M7.2 147.493
L453.6 147.493" style="fill:none;stroke:#000000;stroke-dasharray:1.000000,3.000000;stroke-dashoffset:0.0;stroke-width:0.5;"/>
     </g>
     <g id="line2d_57">
      <g>
       <use style="stroke:#000000;stroke-width:0.5;" x="7.2" xlink:href="#m728421d6d4" y="147.493069307"/>
      </g>
     </g>
     <g id="line2d_58">
      <g>
       <use style="stroke:#000000;stroke-width:0.5;" x="453.6" xlink:href="#mcb0005524f" y="147.493069307"/>
      </g>
     </g>
    </g>
    <g id="ytick_5">
     <g id="line2d_59">
      <path clip-path="url(#p5bee155178)" d="
M7.2 79.0574
L453.6 79.0574" style="fill:none;stroke:#000000;stroke-dasharray:1.000000,3.000000;stroke-dashoffset:0.0;stroke-width:0.5;"/>
     </g>
     <g id="line2d_60">
      <g>
       <use style="stroke:#000000;stroke-width:0.5;" x="7.2" xlink:href="#m728421d6d4" y="79.0574257426"/>
      </g>
     </g>
     <g id="line2d_61">
      <g>
       <use style="stroke:#000000;stroke-width:0.5;" x="453.6" xlink:href="#mcb0005524f" y="79.0574257426"/>
      </g>
     </g>
    </g>
    <g id="ytick_6">
     <g id="line2d_62">
      <path clip-path="url(#p5bee155178)" d="
M7.2 10.6218
L453.6 10.6218" style="fill:none;stroke:#000000;stroke-dasharray:1.000000,3.000000;stroke-dashoffset:0.0;stroke-width:0.5;"/>
     </g>
     <g id="line2d_63">
      <g>
       <use style="stroke:#000000;stroke-width:0.5;" x="7.2" xlink:href="#m728421d6d4" y="10.6217821782"/>
      </g>
     </g>
     <g id="line2d_64">
      <g>
       <use style="stroke:#000000;stroke-width:0.5;" x="453.6" xlink:href="#mcb0005524f" y="10.6217821782"/>
      </g>
     </g>
    </g>
   </g>
   <g id="patch_3">
    <path d="
M7.2 7.2
L453.6 7.2" style="fill:none;stroke:#000000;"/>
   </g>
   <g id="patch_4">
    <path d="
M453.6 352.8
L453.6 7.2" style="fill:none;stroke:#000000;"/>
   </g>
   <g id="patch_5">
    <path d="
M7.2 352.8
L453.6 352.8" style="fill:none;stroke:#000000;"/>
   </g>
   <g id="patch_6">
    <path d="
M7.2 352.8
L7.2 7.2" style="fill:none;stroke:#000000;"/>
   </g>
   <g id="text_10">
    <!-- {f15-f19}, 5-D -->
    <defs>
     <path d="
M30.5625 29.8906
L30.5625 21.9219
Q26.8125 21.8281 24.4375 19.875
Q22.0781 17.9219 21.2969 14.5781
Q20.5156 11.2344 20.4531 3.07812
Q20.4062 -5.07812 20.1719 -7.67188
Q19.7344 -11.8125 18.5312 -14.2812
Q17.3281 -16.75 15.5625 -18.2344
Q13.8125 -19.7344 11.0781 -20.5156
Q9.23438 -21.0469 5.03125 -21.0469
L2.29688 -21.0469
L2.29688 -13.375
L3.8125 -13.375
Q8.89062 -13.375 10.5469 -11.5469
Q12.2031 -9.71875 12.2031 -3.32812
Q12.2031 8.89062 12.6406 12.1562
Q13.4219 17.5781 15.7656 20.8281
Q18.1094 24.0781 22.4062 25.875
Q16.7969 28.5625 14.5 32.9844
Q12.2031 37.4062 12.2031 47.9062
Q12.2031 57.4219 11.9688 59.2812
Q11.625 62.5469 10.0312 63.8438
Q8.45312 65.1406 3.8125 65.1406
L2.29688 65.1406
L2.29688 72.7969
L5.03125 72.7969
Q9.8125 72.7969 11.9688 72.0156
Q15.0938 70.9531 17.1406 68.4062
Q19.1875 65.875 19.7969 62.0156
Q20.4062 58.1562 20.4531 49.3594
Q20.5156 40.5781 21.2969 37.2344
Q22.0781 33.8906 24.4375 31.9375
Q26.8125 29.9844 30.5625 29.8906" id="ArialMT-7d"/>
     <path d="
M5.46875 16.5469
L13.9219 17.3281
Q14.9844 11.375 18.0156 8.6875
Q21.0469 6 25.7812 6
Q29.8281 6 32.875 7.85938
Q35.9375 9.71875 37.8906 12.8125
Q39.8438 15.9219 41.1562 21.1875
Q42.4844 26.4688 42.4844 31.9375
Q42.4844 32.5156 42.4375 33.6875
Q39.7969 29.5 35.2344 26.875
Q30.6719 24.2656 25.3438 24.2656
Q16.4531 24.2656 10.2969 30.7031
Q4.15625 37.1562 4.15625 47.7031
Q4.15625 58.5938 10.5781 65.2344
Q17 71.875 26.6562 71.875
Q33.6406 71.875 39.4219 68.1094
Q45.2188 64.3594 48.2188 57.3906
Q51.2188 50.4375 51.2188 37.25
Q51.2188 23.5312 48.2344 15.4062
Q45.2656 7.28125 39.375 3.03125
Q33.5 -1.21875 25.5938 -1.21875
Q17.1875 -1.21875 11.8594 3.4375
Q6.54688 8.10938 5.46875 16.5469
M41.4531 48.1406
Q41.4531 55.7188 37.4219 60.1562
Q33.4062 64.5938 27.7344 64.5938
Q21.875 64.5938 17.5312 59.8125
Q13.1875 55.0312 13.1875 47.4062
Q13.1875 40.5781 17.3125 36.2969
Q21.4375 32.0312 27.4844 32.0312
Q33.5938 32.0312 37.5156 36.2969
Q41.4531 40.5781 41.4531 48.1406" id="ArialMT-39"/>
     <path d="
M8.89062 0
L8.89062 10.0156
L18.8906 10.0156
L18.8906 0
Q18.8906 -5.51562 16.9375 -8.90625
Q14.9844 -12.3125 10.75 -14.1562
L8.29688 -10.4062
Q11.0781 -9.1875 12.3906 -6.8125
Q13.7188 -4.4375 13.875 0
z
" id="ArialMT-2c"/>
     <path d="
M4.15625 18.75
L13.375 19.5312
Q14.4062 12.7969 18.1406 9.39062
Q21.875 6 27.1562 6
Q33.5 6 37.8906 10.7812
Q42.2812 15.5781 42.2812 23.4844
Q42.2812 31 38.0625 35.3438
Q33.8438 39.7031 27 39.7031
Q22.75 39.7031 19.3281 37.7656
Q15.9219 35.8438 13.9688 32.7656
L5.71875 33.8438
L12.6406 70.6094
L48.25 70.6094
L48.25 62.2031
L19.6719 62.2031
L15.8281 42.9688
Q22.2656 47.4688 29.3438 47.4688
Q38.7188 47.4688 45.1562 40.9688
Q51.6094 34.4688 51.6094 24.2656
Q51.6094 14.5469 45.9531 7.46875
Q39.0625 -1.21875 27.1562 -1.21875
Q17.3906 -1.21875 11.2031 4.25
Q5.03125 9.71875 4.15625 18.75" id="ArialMT-35"/>
     <path d="
M2.78125 29.8906
Q6.54688 29.9844 8.90625 31.9062
Q11.2812 33.8438 12.0625 37.2031
Q12.8438 40.5781 12.8906 48.7344
Q12.9375 56.8906 13.1875 59.4688
Q13.625 63.5781 14.8125 66.0625
Q16.0156 68.5625 17.7656 70.0469
Q19.5312 71.5312 22.2656 72.3125
Q24.125 72.7969 28.3281 72.7969
L31.0625 72.7969
L31.0625 65.1406
L29.5469 65.1406
Q24.4688 65.1406 22.7969 63.2969
Q21.1406 61.4688 21.1406 55.125
Q21.1406 42.3281 20.6094 38.9688
Q19.7344 33.7344 17.6094 30.9062
Q15.4844 28.0781 10.9375 25.875
Q16.3125 23.6406 18.7188 19.0156
Q21.1406 14.4062 21.1406 3.90625
Q21.1406 -5.60938 21.3438 -7.42188
Q21.7344 -10.75 23.3125 -12.0625
Q24.9062 -13.375 29.5469 -13.375
L31.0625 -13.375
L31.0625 -21.0469
L28.3281 -21.0469
Q23.5312 -21.0469 21.3906 -20.2656
Q18.2656 -19.1406 16.2031 -16.625
Q14.1562 -14.1094 13.5469 -10.25
Q12.9375 -6.39062 12.8906 2.39062
Q12.8438 11.1875 12.0625 14.5469
Q11.2812 17.9219 8.90625 19.875
Q6.54688 21.8281 2.78125 21.9219
z
" id="ArialMT-7b"/>
    </defs>
    <g transform="translate(326.77825 345.888)scale(0.2 -0.2)">
     <use xlink:href="#ArialMT-7b"/>
     <use x="33.3984375" xlink:href="#ArialMT-66"/>
     <use x="61.181640625" xlink:href="#ArialMT-31"/>
     <use x="116.796875" xlink:href="#ArialMT-35"/>
     <use x="172.412109375" xlink:href="#ArialMT-2d"/>
     <use x="205.712890625" xlink:href="#ArialMT-66"/>
     <use x="233.49609375" xlink:href="#ArialMT-31"/>
     <use x="289.111328125" xlink:href="#ArialMT-39"/>
     <use x="344.7265625" xlink:href="#ArialMT-7d"/>
     <use x="378.125" xlink:href="#ArialMT-2c"/>
     <use x="405.908203125" xlink:href="#ArialMT-20"/>
     <use x="433.69140625" xlink:href="#ArialMT-35"/>
     <use x="489.306640625" xlink:href="#ArialMT-2d"/>
     <use x="522.607421875" xlink:href="#ArialMT-44"/>
    </g>
   </g>
   <g id="text_11">
    <!-- v2.0.1 -->
    <defs>
     <path d="
M21 0
L1.26562 51.8594
L10.5469 51.8594
L21.6875 20.7969
Q23.4844 15.7656 25 10.3594
Q26.1719 14.4531 28.2656 20.2188
L39.7969 51.8594
L48.8281 51.8594
L29.2031 0
z
" id="ArialMT-76"/>
     <path d="
M9.07812 0
L9.07812 10.0156
L19.0938 10.0156
L19.0938 0
z
" id="ArialMT-2e"/>
    </defs>
    <g style="fill:#808080;" transform="translate(217.76171875 347.3565)scale(0.1 -0.1)">
     <use xlink:href="#ArialMT-76"/>
     <use x="50.0" xlink:href="#ArialMT-32"/>
     <use x="105.615234375" xlink:href="#ArialMT-2e"/>
     <use x="133.3984375" xlink:href="#ArialMT-30"/>
     <use x="189.013671875" xlink:href="#ArialMT-2e"/>
     <use x="216.796875" xlink:href="#ArialMT-31"/>
    </g>
   </g>
  </g>
 </g>
 <defs>
  <clipPath id="p5bee155178">
   <rect height="345.6" width="446.4" x="7.2" y="7.2"/>
  </clipPath>
 </defs>
</svg>
