<?xml version="1.0" encoding="utf-8" standalone="no"?>
<!DOCTYPE svg PUBLIC "-//W3C//DTD SVG 1.1//EN"
  "http://www.w3.org/Graphics/SVG/1.1/DTD/svg11.dtd">
<!-- Created with matplotlib (http://matplotlib.org/) -->
<svg height="414pt" version="1.1" viewBox="0 0 582 414" width="582pt" xmlns="http://www.w3.org/2000/svg" xmlns:xlink="http://www.w3.org/1999/xlink">
 <defs>
  <style type="text/css">
*{stroke-linecap:butt;stroke-linejoin:round;}
  </style>
 </defs>
 <g id="figure_1">
  <g id="patch_1">
   <path d="
M0 414.924
L582.1 414.924
L582.1 0
L0 0
z
" style="fill:#ffffff;"/>
  </g>
  <g id="axes_1">
   <g id="patch_2">
    <path d="
M127.2 358.524
L573.6 358.524
L573.6 12.9235
L127.2 12.9235
z
" style="fill:#ffffff;"/>
   </g>
   <g id="line2d_1">
    <defs>
     <path d="
M0 1.5
C0.397805 1.5 0.77937 1.34195 1.06066 1.06066
C1.34195 0.77937 1.5 0.397805 1.5 0
C1.5 -0.397805 1.34195 -0.77937 1.06066 -1.06066
C0.77937 -1.34195 0.397805 -1.5 0 -1.5
C-0.397805 -1.5 -0.77937 -1.34195 -1.06066 -1.06066
C-1.34195 -0.77937 -1.5 -0.397805 -1.5 0
C-1.5 0.397805 -1.34195 0.77937 -1.06066 1.06066
C-0.77937 1.34195 -0.397805 1.5 0 1.5
z
" id="m977c291b42" style="stroke:#00bfbf;stroke-width:0.5;"/>
    </defs>
    <g>
     <use style="fill:#00bfbf;stroke:#00bfbf;stroke-width:0.5;" x="563.276778695" xlink:href="#m977c291b42" y="53.6738453533"/>
     <use style="fill:#00bfbf;stroke:#00bfbf;stroke-width:0.5;" x="563.276778695" xlink:href="#m977c291b42" y="53.6738453533"/>
    </g>
   </g>
   <g id="line2d_2">
    <path d="
M91.0764 350.436
L127.2 350.436
L127.2 344.836
L148.331 344.836
L148.331 342.97
L163.324 342.97
L163.324 335.504
L174.953 335.504
L174.953 329.283
L184.455 329.283
L184.455 325.55
L192.488 325.55
L192.488 322.439
L199.447 322.439
L199.447 321.817
L205.586 321.817
L205.586 320.573
L211.076 320.573
L211.076 316.84
L216.044 316.84
L216.044 313.729
L220.578 313.729
L220.578 309.996
L224.75 309.996
L224.75 306.264
L228.612 306.264
L228.612 301.286
L232.207 301.286
L232.207 296.309
L235.571 296.309
L235.571 292.576
L238.73 292.576
L238.73 288.221
L241.709 288.221
L241.709 286.355
L244.527 286.355
L244.527 282
L247.2 282
L247.2 277.023
L249.743 277.023
L249.743 272.668
L252.167 272.668
L252.167 271.424
L254.484 271.424
L254.484 268.313
L256.702 268.313
L256.702 267.069
L258.829 267.069
L258.829 265.824
L260.873 265.824
L260.873 263.958
L262.84 263.958
L262.84 263.336
L264.735 263.336
L264.735 261.469
L266.564 261.469
L266.564 257.114
L268.331 257.114
L268.331 256.492
L273.298 256.492
L273.298 254.626
L274.854 254.626
L274.854 251.515
L276.365 251.515
L276.365 247.782
L277.833 247.782
L277.833 242.805
L279.261 242.805
L279.261 241.561
L280.65 241.561
L280.65 238.45
L282.004 238.45
L282.004 237.828
L283.324 237.828
L283.324 236.584
L284.61 236.584
L284.61 232.229
L285.866 232.229
L285.866 230.362
L288.291 230.362
L288.291 228.496
L289.462 228.496
L289.462 227.252
L290.607 227.252
L290.607 226.007
L291.728 226.007
L291.728 225.385
L292.825 225.385
L292.825 224.763
L293.9 224.763
L293.9 224.141
L294.953 224.141
L294.953 223.519
L295.985 223.519
L295.985 222.897
L296.997 222.897
L296.997 222.274
L297.99 222.274
L297.99 220.408
L299.92 220.408
L299.92 218.542
L303.579 218.542
L303.579 216.053
L304.455 216.053
L304.455 214.809
L306.163 214.809
L306.163 214.187
L306.997 214.187
L306.997 213.564
L307.818 213.564
L307.818 212.942
L308.626 212.942
L308.626 211.076
L309.422 211.076
L309.422 209.832
L310.205 209.832
L310.205 209.209
L313.227 209.209
L313.227 207.343
L313.956 207.343
L313.956 206.721
L316.084 206.721
L316.084 205.477
L316.774 205.477
L316.774 204.232
L319.447 204.232
L319.447 203.61
L320.095 203.61
L320.095 202.988
L321.366 202.988
L321.366 202.366
L323.216 202.366
L323.216 200.499
L324.414 200.499
L324.414 199.255
L325.586 199.255
L325.586 198.633
L326.161 198.633
L326.161 196.767
L327.852 196.767
L327.852 196.144
L328.403 196.144
L328.403 195.522
L329.489 195.522
L329.489 194.278
L330.024 194.278
L330.024 191.789
L330.553 191.789
L330.553 189.301
L331.595 189.301
L331.595 188.679
L332.108 188.679
L332.108 188.057
L332.617 188.057
L332.617 187.434
L333.12 187.434
L333.12 186.812
L333.619 186.812
L333.619 184.324
L334.113 184.324
L334.113 181.213
L335.087 181.213
L335.087 180.591
L336.044 180.591
L336.044 179.969
L336.515 179.969
L336.515 178.724
L337.446 178.724
L337.446 178.102
L338.811 178.102
L338.811 176.858
L340.142 176.858
L340.142 175.614
L341.44 175.614
L341.44 174.992
L343.121 174.992
L343.121 174.369
L344.75 174.369
L344.75 173.747
L345.545 173.747
L345.545 172.503
L345.939 172.503
L345.939 171.881
L346.716 171.881
L346.716 171.259
L347.101 171.259
L347.101 169.392
L347.862 169.392
L347.862 167.526
L350.799 167.526
L350.799 166.904
L351.859 166.904
L351.859 166.282
L352.207 166.282
L352.207 165.659
L353.239 165.659
L353.239 163.793
L353.579 163.793
L353.579 162.549
L354.915 162.549
L354.915 160.06
L355.896 160.06
L355.896 158.816
L356.218 158.816
L356.218 158.194
L359.642 158.194
L359.642 156.327
L359.942 156.327
L359.942 155.705
L363.418 155.705
L363.418 154.461
L363.697 154.461
L363.697 153.839
L365.613 153.839
L365.613 152.594
L370.726 152.594
L370.726 151.972
L370.969 151.972
L370.969 151.35
L371.211 151.35
L371.211 150.728
L371.691 150.728
L371.691 150.106
L371.93 150.106
L371.93 148.862
L372.873 148.862
L372.873 148.239
L374.71 148.239
L374.71 147.617
L375.826 147.617
L375.826 146.995
L376.046 146.995
L376.046 145.751
L376.266 145.751
L376.266 145.129
L376.702 145.129
L376.702 144.507
L376.918 144.507
L376.918 143.884
L377.776 143.884
L377.776 143.262
L377.989 143.262
L377.989 142.64
L378.411 142.64
L378.411 142.018
L378.62 142.018
L378.62 141.396
L379.244 141.396
L379.244 140.774
L379.861 140.774
L379.861 140.152
L380.268 140.152
L380.268 139.529
L380.873 139.529
L380.873 138.285
L381.073 138.285
L381.073 137.663
L381.669 137.663
L381.669 137.041
L381.866 137.041
L381.866 136.419
L384.921 136.419
L384.921 135.797
L385.106 135.797
L385.106 135.174
L385.475 135.174
L385.475 133.308
L385.84 133.308
L385.84 132.686
L386.203 132.686
L386.203 132.064
L387.101 132.064
L387.101 131.442
L387.455 131.442
L387.455 130.819
L388.677 130.819
L388.677 130.197
L389.363 130.197
L389.363 128.953
L389.533 128.953
L389.533 127.087
L389.702 127.087
L389.702 126.464
L391.204 126.464
L391.204 125.842
L391.694 125.842
L391.694 125.22
L391.857 125.22
L391.857 124.598
L392.181 124.598
L392.181 123.976
L393.298 123.976
L393.298 123.354
L393.456 123.354
L393.456 122.109
L394.392 122.109
L394.392 121.487
L394.7 121.487
L394.7 120.243
L395.615 120.243
L395.615 118.999
L398.121 118.999
L398.121 118.377
L399.96 118.377
L399.96 117.754
L401.196 117.754
L401.196 117.132
L401.602 117.132
L401.602 116.51
L401.736 116.51
L401.736 114.644
L402.668 114.644
L402.668 113.399
L402.8 113.399
L402.8 112.155
L409.113 112.155
L409.113 110.911
L409.346 110.911
L409.346 110.289
L410.721 110.289
L410.721 109.045
L410.833 109.045
L410.833 108.422
L414.218 108.422
L414.218 107.8
L415.057 107.8
L415.057 107.178
L415.265 107.178
L415.265 106.556
L415.883 106.556
L415.883 105.934
L417.297 105.934
L417.396 104.69
L417.792 104.69
L417.792 104.067
L418.186 104.067
L418.186 103.445
L418.77 103.445
L418.77 102.201
L418.964 102.201
L418.964 100.335
L419.73 100.335
L419.73 99.7124
L420.859 99.7124
L420.859 99.0902
L421.045 99.0902
L421.045 98.4681
L421.23 98.4681
L421.23 97.8459
L423.135 97.8459
L423.135 97.2238
L423.49 97.2238
L423.49 96.6017
L428.706 96.6017
L428.706 95.9795
L431.663 95.9795
L431.663 95.3574
L432.339 95.3574
L432.339 94.7352
L432.711 94.7352
L432.711 94.1131
L433.154 94.1131
L433.154 92.8688
L436.014 92.8688
L436.014 92.2467
L436.979 92.2467
L436.979 91.6245
L438.726 91.6245
L438.726 91.0024
L438.923 91.0024
L438.923 90.3802
L439.317 90.3802
L439.317 89.7581
L441.928 89.7581
L441.928 89.136
L445.759 89.136
L445.817 87.8917
L446.104 87.8917
L446.104 87.2695
L448.568 87.2695
L448.677 85.4031
L449.22 85.4031
L449.22 84.781
L450.658 84.781
L450.658 84.1588
L456.233 84.1588
L456.233 83.5367
L456.609 83.5367
L456.609 82.9145
L457.261 82.9145
L457.261 82.2924
L457.63 82.2924
L457.676 81.0481
L460.622 81.0481
L460.622 80.426
L466.407 80.426
L466.407 79.8038
L466.948 79.8038
L466.948 79.1817
L468.351 79.1817
L468.388 77.9374
L473.477 77.9374
L473.477 77.3152
L473.68 77.3152
L473.68 76.071
L479.612 76.071
L479.612 75.4488
L479.882 75.4488
L479.882 74.8267
L484.664 74.8267
L484.664 74.2045
L486.412 74.2045
L486.412 73.5824
L487.2 73.5824
L487.2 73.5824" style="fill:none;stroke:#00bfbf;stroke-linecap:square;stroke-width:1.5;"/>
   </g>
   <g id="line2d_3">
    <defs>
     <path d="
M-6 0
L6 0
M0 6
L0 -6" id="m3e4de746de" style="stroke:#00bfbf;stroke-width:1.5;"/>
    </defs>
    <g>
     <use style="fill:none;stroke:#00bfbf;stroke-width:1.5;" x="148.330951087" xlink:href="#m3e4de746de" y="342.969974966"/>
     <use style="fill:none;stroke:#00bfbf;stroke-width:1.5;" x="235.570798439" xlink:href="#m3e4de746de" y="292.576455614"/>
     <use style="fill:none;stroke:#00bfbf;stroke-width:1.5;" x="313.227402367" xlink:href="#m3e4de746de" y="209.209398909"/>
     <use style="fill:none;stroke:#00bfbf;stroke-width:1.5;" x="381.073261401" xlink:href="#m3e4de746de" y="138.285186487"/>
     <use style="fill:none;stroke:#00bfbf;stroke-width:1.5;" x="466.40670242" xlink:href="#m3e4de746de" y="79.8038183506"/>
     <use style="fill:none;stroke:#00bfbf;stroke-width:1.5;" x="487.2" xlink:href="#m3e4de746de" y="73.5823962084"/>
    </g>
   </g>
   <g id="line2d_4"/>
   <g id="line2d_5">
    <path clip-path="url(#p505825120b)" d="
M367.46 152.594" style="fill:none;stroke:#00bfbf;stroke-linecap:square;"/>
    <defs>
     <path d="
M-12 12
L12 -12
M-12 -12
L12 12" id="m09e435d1d9" style="stroke:#00bfbf;stroke-width:3;"/>
    </defs>
    <g clip-path="url(#p505825120b)">
     <use style="fill:#00bfbf;stroke:#00bfbf;stroke-width:3;" x="367.459927411" xlink:href="#m09e435d1d9" y="152.594457414"/>
    </g>
   </g>
   <g id="line2d_6">
    <defs>
     <path d="
M0 1.5
C0.397805 1.5 0.77937 1.34195 1.06066 1.06066
C1.34195 0.77937 1.5 0.397805 1.5 0
C1.5 -0.397805 1.34195 -0.77937 1.06066 -1.06066
C0.77937 -1.34195 0.397805 -1.5 0 -1.5
C-0.397805 -1.5 -0.77937 -1.34195 -1.06066 -1.06066
C-1.34195 -0.77937 -1.5 -0.397805 -1.5 0
C-1.5 0.397805 -1.34195 0.77937 -1.06066 1.06066
C-0.77937 1.34195 -0.397805 1.5 0 1.5
z
" id="mb0b177905e" style="stroke:#008000;stroke-width:0.5;"/>
    </defs>
    <g>
     <use style="fill:#008000;stroke:#008000;stroke-width:0.5;" x="556.512801284" xlink:href="#mb0b177905e" y="40.5337727253"/>
     <use style="fill:#008000;stroke:#008000;stroke-width:0.5;" x="556.512801284" xlink:href="#mb0b177905e" y="40.5337727253"/>
    </g>
   </g>
   <g id="line2d_7">
    <path d="
M106.069 336.105
L127.2 336.105
L127.2 329.615
L142.193 329.615
L142.193 326.666
L153.822 326.666
L153.822 322.536
L163.324 322.536
L163.324 318.996
L171.357 318.996
L171.357 316.046
L178.316 316.046
L178.316 314.866
L184.455 314.866
L184.455 311.327
L189.945 311.327
L189.945 310.737
L194.913 310.737
L194.913 310.147
L207.481 310.147
L207.481 306.607
L211.076 306.607
L211.076 306.017
L214.44 306.017
L214.44 290.678
L217.599 290.678
L217.599 280.059
L220.578 280.059
L220.578 276.519
L223.396 276.519
L223.396 272.389
L226.069 272.389
L226.069 267.669
L228.612 267.669
L228.612 265.309
L231.036 265.309
L231.036 263.54
L233.353 263.54
L233.353 262.95
L237.698 262.95
L237.698 259.41
L239.742 259.41
L239.742 254.1
L241.709 254.1
L241.709 252.92
L243.604 252.92
L243.604 242.891
L245.433 242.891
L245.433 242.301
L247.2 242.301
L247.2 240.531
L248.909 240.531
L248.909 238.171
L250.563 238.171
L250.563 234.631
L252.167 234.631
L252.167 232.862
L253.723 232.862
L253.723 227.552
L255.234 227.552
L255.234 222.242
L256.702 222.242
L256.702 215.753
L258.13 215.753
L258.13 213.393
L259.519 213.393
L259.519 209.853
L260.873 209.853
L260.873 208.673
L262.193 208.673
L262.193 207.493
L263.48 207.493
L263.48 204.543
L264.735 204.543
L264.735 203.953
L265.962 203.953
L265.962 202.183
L267.16 202.183
L267.16 199.824
L268.331 199.824
L268.331 196.284
L269.476 196.284
L269.476 194.514
L271.694 194.514
L271.694 193.334
L272.769 193.334
L272.769 186.844
L273.822 186.844
L273.822 186.254
L278.789 186.254
L278.789 184.485
L279.728 184.485
L279.728 182.125
L282.448 182.125
L282.448 181.535
L283.324 181.535
L283.324 177.405
L284.185 177.405
L284.185 176.225
L285.032 176.225
L285.032 175.045
L286.687 175.045
L286.687 170.915
L287.495 170.915
L287.495 170.326
L289.847 170.326
L289.847 169.736
L291.357 169.736
L291.357 167.966
L292.096 167.966
L292.096 165.016
L293.544 165.016
L293.544 162.656
L294.253 162.656
L294.253 161.476
L295.643 161.476
L295.643 159.706
L298.964 159.706
L298.964 158.526
L299.603 158.526
L299.603 156.756
L300.859 156.756
L300.859 156.166
L302.688 156.166
L302.688 153.807
L303.872 153.807
L303.872 153.217
L305.03 153.217
L305.03 151.447
L308.358 151.447
L308.358 150.857
L309.945 150.857
L309.945 150.267
L311.989 150.267
L311.989 149.677
L313.472 149.677
L313.472 149.087
L315.852 149.087
L315.852 146.727
L316.774 146.727
L316.774 145.547
L317.229 145.547
L317.229 144.957
L319.88 144.957
L319.88 143.187
L320.309 143.187
L320.309 142.597
L321.156 142.597
L321.156 142.007
L328.22 142.007
L328.22 140.827
L328.586 140.827
L328.586 140.237
L328.949 140.237
L328.949 139.647
L332.448 139.647
L332.448 137.878
L333.453 137.878
L333.453 136.698
L333.784 136.698
L333.784 135.518
L337.905 135.518
L337.905 134.928
L340.288 134.928
L340.288 134.338
L341.724 134.338
L341.724 133.158
L342.006 133.158
L342.006 131.978
L344.482 131.978
L344.482 131.388
L345.016 131.388
L345.016 130.798
L346.069 130.798
L346.069 129.028
L346.845 129.028
L346.845 128.438
L347.356 128.438
L347.356 127.848
L350.56 127.848
L350.56 127.258
L351.036 127.258
L351.036 126.668
L351.508 126.668
L351.508 124.898
L352.438 124.898
L352.438 124.308
L352.898 124.308
L352.898 123.718
L359.742 123.718
L359.742 123.129
L360.735 123.129
L360.735 120.769
L360.931 120.769
L360.931 118.409
L361.709 118.409
L361.709 117.819
L361.902 117.819
L361.902 116.049
L362.285 116.049
L362.285 114.869
L364.709 114.869
L364.709 114.279
L365.253 114.279
L365.253 113.689
L365.613 113.689
L365.613 113.099
L367.026 113.099
L367.026 111.919
L371.691 111.919
L371.691 111.329
L373.415 111.329
L373.415 110.739
L375.382 110.739
L375.382 110.149
L377.563 110.149
L377.563 109.559
L378.411 109.559
L378.411 108.969
L379.106 108.969
L379.106 108.379
L379.244 108.379
L379.244 107.789
L379.519 107.789
L379.519 107.2
L380.201 107.2
L380.201 106.02
L380.336 106.02
L380.336 105.43
L380.605 105.43
L380.605 104.84
L380.739 104.84
L380.739 104.25
L381.273 104.25
L381.273 103.66
L381.669 103.66
L381.669 101.89
L381.931 101.89
L381.931 101.3
L382.711 101.3
L382.711 100.71
L384.237 100.71
L384.237 100.12
L387.514 100.12
L387.514 99.53
L387.749 99.53
L387.749 98.9401
L388.562 98.9401
L388.562 98.3501
L388.792 98.3501
L388.792 97.7601
L391.694 97.7601
L391.694 97.1702
L392.234 97.1702
L392.342 95.9902
L394.03 95.9902
L394.134 94.2204
L395.966 94.2204
L395.966 93.6304
L397.153 93.6304
L397.153 93.0404
L399.261 93.0404
L399.354 91.8605
L400.283 91.8605
L400.283 91.2705
L400.742 91.2705
L400.833 89.5007
L400.924 89.5007
L400.924 88.9107
L401.106 88.9107
L401.106 88.3207
L402.624 88.3207
L402.624 87.7308
L402.975 87.7308
L403.062 85.9609
L403.324 85.9609
L403.324 85.3709
L407.254 85.3709
L407.254 84.781
L410.38 84.781
L410.38 84.191
L411.283 84.191
L411.283 83.601
L414.744 83.601
L414.744 81.8311
L414.953 81.8311
L414.953 81.2412
L415.848 81.2412
L415.848 80.6512
L415.985 80.6512
L415.985 80.0613
L416.527 80.0613
L416.527 79.4713
L416.796 79.4713
L416.796 78.8813
L419.603 78.8813
L419.603 78.2914
L421.781 78.2914
L421.842 77.1114
L422.867 77.1114
L422.867 75.9315
L424.339 75.9315
L424.339 75.3416
L428.304 75.3416
L428.304 74.7516
L429.369 74.7516
L429.369 74.1616
L434.341 74.1616
L434.341 73.5717
L435.102 73.5717
L435.102 72.9817
L435.29 72.9817
L435.29 72.3917
L438.394 72.3917
L438.394 71.8018
L439.23 71.8018
L439.23 71.2118
L439.404 71.2118
L439.404 70.6219
L439.534 70.6219
L439.534 70.0319
L443.978 70.0319
L443.978 68.852
L446.047 68.852
L446.047 68.262
L447.032 68.262
L447.07 67.0821
L447.667 67.0821
L447.704 65.9022
L448.731 65.9022
L448.731 65.3122
L450.236 65.3122
L450.236 64.7222
L454.244 64.7222
L454.244 64.1323
L454.829 64.1323
L454.829 63.5423
L456.453 63.5423
L456.453 62.9523
L457.722 62.9523
L457.722 62.3624
L459.348 62.3624
L459.348 61.7724
L460.636 61.7724
L460.636 61.1825
L466.199 61.1825
L466.225 60.0025
L467.635 60.0025
L467.635 59.4126
L472.392 59.4126
L472.392 58.8226
L473.194 58.8226
L473.194 58.2326
L473.307 58.2326
L473.307 57.6427
L473.534 57.6427
L473.534 56.4628
L479.4 56.4628
L479.421 55.2828
L479.922 55.2828
L479.962 54.1029
L481.146 54.1029
L481.146 53.5129
L483.827 53.5129
L483.827 52.923
L485.325 52.923
L485.325 51.7431
L487.2 51.7431
L487.2 51.7431" style="fill:none;stroke:#008000;stroke-linecap:square;stroke-width:1.5;"/>
   </g>
   <g id="line2d_8">
    <defs>
     <path d="
M-7.34788e-16 6
L6 -6
L-6 -6
z
" id="m397e16cd68" style="stroke:#008000;stroke-linejoin:miter;stroke-width:1.5;"/>
    </defs>
    <g>
     <use style="fill:none;stroke:#008000;stroke-linejoin:miter;stroke-width:1.5;" x="211.07640052" xlink:href="#m397e16cd68" y="306.016872759"/>
     <use style="fill:none;stroke:#008000;stroke-linejoin:miter;stroke-width:1.5;" x="253.722919479" xlink:href="#m397e16cd68" y="232.861529639"/>
     <use style="fill:none;stroke:#008000;stroke-linejoin:miter;stroke-width:1.5;" x="305.030416512" xlink:href="#m397e16cd68" y="153.216599629"/>
     <use style="fill:none;stroke:#008000;stroke-linejoin:miter;stroke-width:1.5;" x="419.60311172" xlink:href="#m397e16cd68" y="78.8813316192"/>
     <use style="fill:none;stroke:#008000;stroke-linejoin:miter;stroke-width:1.5;" x="485.325272648" xlink:href="#m397e16cd68" y="51.7430591712"/>
     <use style="fill:none;stroke:#008000;stroke-linejoin:miter;stroke-width:1.5;" x="487.2" xlink:href="#m397e16cd68" y="51.7430591712"/>
    </g>
   </g>
   <g id="line2d_9"/>
   <g id="line2d_10">
    <path clip-path="url(#p505825120b)" d="
M367.373 111.919" style="fill:none;stroke:#008000;stroke-linecap:square;"/>
    <defs>
     <path d="
M-12 12
L12 -12
M-12 -12
L12 12" id="m8c089fa6cd" style="stroke:#008000;stroke-width:3;"/>
    </defs>
    <g clip-path="url(#p505825120b)">
     <use style="fill:#008000;stroke:#008000;stroke-width:3;" x="367.373428905" xlink:href="#m8c089fa6cd" y="111.919228512"/>
    </g>
   </g>
   <g id="line2d_11">
    <defs>
     <path d="
M0 1.5
C0.397805 1.5 0.77937 1.34195 1.06066 1.06066
C1.34195 0.77937 1.5 0.397805 1.5 0
C1.5 -0.397805 1.34195 -0.77937 1.06066 -1.06066
C0.77937 -1.34195 0.397805 -1.5 0 -1.5
C-0.397805 -1.5 -0.77937 -1.34195 -1.06066 -1.06066
C-1.34195 -0.77937 -1.5 -0.397805 -1.5 0
C-1.5 0.397805 -1.34195 0.77937 -1.06066 1.06066
C-0.77937 1.34195 -0.397805 1.5 0 1.5
z
" id="m76a7ce5b4a" style="stroke:#0000ff;stroke-width:0.5;"/>
    </defs>
    <g>
     <use style="fill:#0000ff;stroke:#0000ff;stroke-width:0.5;" x="571.899541743" xlink:href="#m76a7ce5b4a" y="40.786613773"/>
     <use style="fill:#0000ff;stroke:#0000ff;stroke-width:0.5;" x="571.899541743" xlink:href="#m76a7ce5b4a" y="40.786613773"/>
    </g>
   </g>
   <g id="line2d_12">
    <path d="
M115.571 332.249
L136.702 332.249
L136.702 327.361
L151.694 327.361
L151.694 326.139
L172.825 326.139
L172.825 324.917
L176.997 324.917
L176.997 323.695
L184.455 323.695
L184.455 319.417
L187.818 319.417
L187.818 318.806
L193.956 318.806
L193.956 317.584
L196.774 317.584
L196.774 307.197
L199.447 307.197
L199.447 298.642
L201.99 298.642
L201.99 297.42
L204.414 297.42
L204.414 295.587
L206.731 295.587
L206.731 291.31
L208.949 291.31
L208.949 288.255
L211.076 288.255
L211.076 282.755
L213.12 282.755
L213.12 279.7
L215.087 279.7
L215.087 276.034
L216.983 276.034
L216.983 275.423
L218.811 275.423
L218.811 271.146
L220.578 271.146
L220.578 269.313
L222.287 269.313
L222.287 262.591
L223.942 262.591
L223.942 260.758
L225.545 260.758
L225.545 257.092
L227.101 257.092
L227.101 254.648
L228.612 254.648
L228.612 254.037
L230.08 254.037
L230.08 250.982
L231.508 250.982
L231.508 249.76
L232.898 249.76
L232.898 247.927
L234.251 247.927
L234.251 245.483
L235.571 245.483
L235.571 241.205
L236.858 241.205
L236.858 238.761
L238.114 238.761
L238.114 235.706
L240.538 235.706
L240.538 234.484
L241.709 234.484
L241.709 232.651
L242.855 232.651
L242.855 232.04
L245.073 232.04
L245.073 230.818
L246.147 230.818
L246.147 229.596
L247.2 229.596
L247.2 225.929
L248.232 225.929
L248.232 225.318
L249.244 225.318
L249.244 217.986
L250.237 217.986
L250.237 216.764
L251.211 216.764
L251.211 214.931
L253.106 214.931
L253.106 210.043
L254.029 210.043
L254.029 208.21
L255.826 208.21
L255.826 207.598
L258.411 207.598
L258.411 206.987
L260.065 206.987
L260.065 206.376
L262.453 206.376
L262.453 205.765
L263.225 205.765
L263.225 205.154
L263.985 205.154
L263.985 202.099
L266.922 202.099
L266.922 200.266
L269.021 200.266
L269.021 199.655
L269.702 199.655
L269.702 197.822
L271.039 197.822
L271.039 197.211
L272.342 197.211
L272.342 196.6
L273.613 196.6
L273.613 195.989
L274.237 195.989
L274.237 195.378
L274.854 195.378
L274.854 191.712
L275.463 191.712
L275.463 189.268
L277.833 189.268
L277.833 188.656
L278.409 188.656
L278.409 187.434
L279.542 187.434
L279.542 186.212
L280.099 186.212
L280.099 185.601
L280.65 185.601
L280.65 184.99
L281.196 184.99
L281.196 183.768
L283.324 183.768
L283.324 183.157
L284.356 183.157
L284.356 182.546
L284.864 182.546
L284.864 181.935
L285.866 181.935
L285.866 178.269
L287.334 178.269
L287.334 177.658
L287.815 177.658
L287.815 177.047
L288.762 177.047
L288.762 175.825
L289.693 175.825
L289.693 173.381
L290.152 173.381
L290.152 172.77
L291.506 172.77
L291.506 169.714
L293.258 169.714
L293.258 169.103
L293.687 169.103
L293.687 165.437
L294.112 165.437
L294.112 164.215
L294.534 164.215
L294.534 163.604
L295.78 163.604
L295.78 162.993
L296.189 162.993
L296.189 162.382
L297.396 162.382
L297.396 159.938
L298.576 159.938
L298.576 159.327
L300.859 159.327
L300.859 158.716
L301.23 158.716
L301.23 152.606
L301.964 152.606
L301.964 150.772
L303.402 150.772
L303.402 150.161
L303.755 150.161
L303.755 148.939
L305.487 148.939
L305.487 148.328
L306.499 148.328
L306.499 147.106
L306.832 147.106
L306.832 145.273
L307.491 145.273
L307.491 144.051
L308.786 144.051
L308.786 142.218
L309.422 142.218
L309.422 141.607
L310.361 141.607
L310.361 140.996
L310.67 140.996
L310.67 139.774
L312.19 139.774
L312.19 139.163
L313.374 139.163
L313.374 138.552
L313.666 138.552
L313.666 137.941
L314.245 137.941
L314.245 137.33
L314.818 137.33
L314.818 136.719
L315.665 136.719
L315.665 136.108
L317.59 136.108
L317.59 135.497
L318.923 135.497
L318.923 134.886
L319.707 134.886
L319.707 133.664
L322.973 133.664
L322.973 133.053
L323.699 133.053
L323.699 132.441
L325.586 132.441
L325.586 130.608
L326.276 130.608
L326.276 129.386
L327.182 129.386
L327.182 128.775
L330.024 128.775
L330.024 128.164
L332.92 128.164
L332.92 127.553
L334.894 127.553
L334.894 126.942
L335.472 126.942
L335.472 126.331
L337.722 126.331
L337.722 125.72
L338.811 125.72
L338.811 125.109
L345.228 125.109
L345.228 124.498
L345.387 124.498
L345.387 123.887
L350.08 123.887
L350.08 122.665
L351.789 122.665
L351.789 121.443
L353.714 121.443
L353.714 120.221
L355.96 120.221
L355.96 118.388
L356.089 118.388
L356.089 117.777
L357.615 117.777
L357.615 117.166
L357.989 117.166
L357.989 116.555
L360.656 116.555
L360.656 114.722
L361.244 114.722
L361.244 114.111
L362.285 114.111
L362.285 113.499
L362.399 113.499
L362.399 112.888
L366.991 112.888
L366.991 112.277
L372.639 112.277
L372.639 111.055
L372.826 111.055
L372.826 110.444
L374.393 110.444
L374.393 109.833
L376.002 109.833
L376.002 109.222
L376.615 109.222
L376.615 108.611
L377.048 108.611
L377.048 108
L377.22 108
L377.22 107.389
L377.734 107.389
L377.734 106.167
L378.662 106.167
L378.746 104.945
L378.829 104.945
L378.829 104.334
L380.147 104.334
L380.147 103.723
L380.309 103.723
L380.39 101.279
L380.471 101.279
L380.471 100.668
L381.113 100.668
L381.193 98.2237
L381.431 98.2237
L381.511 97.0016
L383.148 97.0016
L383.148 96.3906
L384.362 96.3906
L384.362 95.7795
L385.84 95.7795
L385.84 95.1685
L386.779 95.1685
L386.779 94.5575
L387.065 94.5575
L387.065 93.3354
L388.122 93.3354
L388.192 92.1133
L388.4 92.1133
L388.4 91.5023
L388.746 91.5023
L388.746 90.2802
L389.09 90.2802
L389.09 89.6692
L393.801 89.6692
L393.801 89.0582
L398.064 89.0582
L398.064 88.4472
L398.523 88.4472
L398.58 87.2251
L412.825 87.2251
L412.825 86.6141
L412.999 86.6141
L413.042 85.392
L414.239 85.392
L414.281 84.1699
L415.036 84.1699
L415.119 82.9479
L415.821 82.9479
L415.821 82.3368
L418.264 82.3368
L418.264 81.7258
L422.146 81.7258
L422.146 81.1148
L422.616 81.1148
L422.616 80.5037
L423.224 80.5037
L423.224 79.8927
L429.327 79.8927
L429.327 79.2817
L432.009 79.2817
L432.009 78.6706
L432.667 78.6706
L432.667 78.0596
L433.139 78.0596
L433.139 77.4486
L437.075 77.4486
L437.075 76.8375
L440.937 76.8375
L440.937 76.2265
L442.729 76.2265
L442.729 75.6155
L443.143 75.6155
L443.168 74.3934
L444.603 74.3934
L444.603 73.7824
L445.237 73.7824
L445.237 73.1713
L447.496 73.1713
L447.54 71.9493
L454.563 71.9493
L454.563 71.3382
L456.138 71.3382
L456.138 70.7272
L456.571 70.7272
L456.571 70.1162
L457.667 70.1162
L457.758 68.8941
L458.106 68.8941
L458.106 68.2831
L459.294 68.2831
L459.294 67.672
L466.546 67.672
L466.546 67.061
L467.468 67.061
L467.574 65.8389
L472.04 65.8389
L472.04 65.2279
L473.253 65.2279
L473.253 64.6169
L473.755 64.6169
L473.755 64.0058
L474.677 64.0058
L474.677 63.3948
L478.225 63.3948
L478.225 62.7838
L480.11 62.7838
L480.11 62.1728
L480.786 62.1728
L480.786 61.5617
L484.417 61.5617
L484.417 60.3397
L486.455 60.3397
L486.455 59.7286
L487.2 59.7286
L487.2 59.7286" style="fill:none;stroke:#0000ff;stroke-linecap:square;stroke-width:1.5;"/>
   </g>
   <g id="line2d_13">
    <defs>
     <path d="
M3.67394e-16 -6
L-1.34708 -1.8541
L-5.70634 -1.8541
L-2.17963 0.708204
L-3.52671 4.8541
L-4.20996e-16 2.2918
L3.52671 4.8541
L2.17963 0.708204
L5.70634 -1.8541
L1.34708 -1.8541
z
" id="m0933169453" style="stroke:#0000ff;stroke-linejoin:bevel;stroke-width:1.5;"/>
    </defs>
    <g>
     <use style="fill:none;stroke:#0000ff;stroke-linejoin:bevel;stroke-width:1.5;" x="201.989914848" xlink:href="#m0933169453" y="297.420277139"/>
     <use style="fill:none;stroke:#0000ff;stroke-linejoin:bevel;stroke-width:1.5;" x="260.065196358" xlink:href="#m0933169453" y="206.376429897"/>
     <use style="fill:none;stroke:#0000ff;stroke-linejoin:bevel;stroke-width:1.5;" x="323.698767542" xlink:href="#m0933169453" y="133.052526079"/>
     <use style="fill:none;stroke:#0000ff;stroke-linejoin:bevel;stroke-width:1.5;" x="433.139245586" xlink:href="#m0933169453" y="77.4485656825"/>
     <use style="fill:none;stroke:#0000ff;stroke-linejoin:bevel;stroke-width:1.5;" x="486.454657658" xlink:href="#m0933169453" y="59.7286222595"/>
     <use style="fill:none;stroke:#0000ff;stroke-linejoin:bevel;stroke-width:1.5;" x="487.2" xlink:href="#m0933169453" y="59.7286222595"/>
    </g>
   </g>
   <g id="line2d_14"/>
   <g id="line2d_15">
    <path clip-path="url(#p505825120b)" d="
M367.304 112.277" style="fill:none;stroke:#0000ff;stroke-linecap:square;"/>
    <defs>
     <path d="
M-12 12
L12 -12
M-12 -12
L12 12" id="ma4a355cd2c" style="stroke:#0000ff;stroke-width:3;"/>
    </defs>
    <g clip-path="url(#p505825120b)">
     <use style="fill:#0000ff;stroke:#0000ff;stroke-width:3;" x="367.304126584" xlink:href="#ma4a355cd2c" y="112.277419996"/>
    </g>
   </g>
   <g id="line2d_16">
    <defs>
     <path d="
M0 1.5
C0.397805 1.5 0.77937 1.34195 1.06066 1.06066
C1.34195 0.77937 1.5 0.397805 1.5 0
C1.5 -0.397805 1.34195 -0.77937 1.06066 -1.06066
C0.77937 -1.34195 0.397805 -1.5 0 -1.5
C-0.397805 -1.5 -0.77937 -1.34195 -1.06066 -1.06066
C-1.34195 -0.77937 -1.5 -0.397805 -1.5 0
C-1.5 0.397805 -1.34195 0.77937 -1.06066 1.06066
C-0.77937 1.34195 -0.397805 1.5 0 1.5
z
" id="m66763a63fb" style="stroke:#000000;stroke-width:0.5;"/>
    </defs>
    <g>
     <use style="stroke:#000000;stroke-width:0.5;" x="564.95047375" xlink:href="#m66763a63fb" y="76.7297038803"/>
     <use style="stroke:#000000;stroke-width:0.5;" x="564.95047375" xlink:href="#m66763a63fb" y="76.7297038803"/>
    </g>
   </g>
   <g id="line2d_17">
    <path d="
M121.709 354.498
L132.167 354.498
L132.167 351.814
L140.873 351.814
L140.873 351.143
L144.735 351.143
L144.735 350.472
L148.331 350.472
L148.331 349.13
L151.694 349.13
L151.694 348.459
L157.833 348.459
L157.833 347.789
L170.607 347.789
L170.607 345.776
L174.953 345.776
L174.953 343.092
L180.859 343.092
L180.859 341.75
L182.688 341.75
L182.688 340.408
L184.455 340.408
L184.455 338.395
L187.818 338.395
L187.818 335.712
L190.977 335.712
L190.977 335.041
L192.488 335.041
L192.488 334.37
L199.447 334.37
L199.447 333.699
L200.734 333.699
L200.734 333.028
L203.216 333.028
L203.216 331.686
L204.414 331.686
L204.414 328.331
L206.731 328.331
L206.731 326.989
L207.852 326.989
L207.852 323.635
L208.949 323.635
L208.949 322.293
L210.024 322.293
L210.024 319.609
L211.076 319.609
L211.076 318.267
L212.108 318.267
L212.108 316.254
L213.12 316.254
L213.12 315.584
L214.113 315.584
L214.113 314.913
L215.087 314.913
L215.087 312.9
L216.044 312.9
L216.044 310.887
L216.983 310.887
L216.983 309.545
L217.905 309.545
L217.905 308.874
L218.811 308.874
L218.811 308.203
L220.578 308.203
L220.578 306.861
L221.44 306.861
L221.44 305.519
L222.287 305.519
L222.287 304.849
L223.121 304.849
L223.121 296.797
L224.75 296.797
L224.75 294.784
L225.545 294.784
L225.545 291.43
L226.329 291.43
L226.329 290.759
L227.101 290.759
L227.101 289.417
L227.862 289.417
L227.862 286.062
L229.351 286.062
L229.351 284.049
L230.08 284.049
L230.08 280.695
L230.799 280.695
L230.799 280.024
L231.508 280.024
L231.508 279.353
L232.207 279.353
L232.207 278.682
L232.898 278.682
L232.898 275.327
L233.579 275.327
L233.579 273.314
L235.571 273.314
L235.571 272.644
L238.73 272.644
L238.73 271.973
L239.942 271.973
L239.942 271.302
L241.127 271.302
L241.127 269.96
L241.709 269.96
L241.709 268.618
L242.855 268.618
L242.855 263.25
L243.418 263.25
L243.418 257.212
L243.975 257.212
L243.975 255.87
L244.527 255.87
L244.527 252.515
L245.073 252.515
L245.073 251.844
L245.613 251.844
L245.613 251.174
L246.147 251.174
L246.147 250.503
L246.676 250.503
L246.676 249.161
L247.2 249.161
L247.2 248.49
L248.232 248.49
L248.232 247.148
L248.74 247.148
L248.74 245.806
L251.211 245.806
L251.211 245.135
L251.691 245.135
L251.691 242.451
L252.167 242.451
L252.167 241.78
L254.029 241.78
L254.029 239.768
L254.484 239.768
L254.484 238.426
L254.935 238.426
L254.935 235.742
L255.826 235.742
L255.826 234.4
L256.266 234.4
L256.266 233.729
L256.702 233.729
L256.702 233.058
L257.134 233.058
L257.134 231.716
L258.411 231.716
L258.411 229.703
L258.829 229.703
L258.829 228.362
L260.065 228.362
L260.065 226.349
L260.471 226.349
L260.471 225.678
L260.873 225.678
L260.873 224.336
L261.273 224.336
L261.273 222.323
L261.669 222.323
L261.669 221.652
L262.84 221.652
L262.84 219.639
L263.985 219.639
L263.985 218.298
L264.735 218.298
L264.735 217.627
L265.84 217.627
L265.84 215.614
L266.564 215.614
L266.564 214.943
L266.922 214.943
L266.922 214.272
L267.982 214.272
L267.982 212.93
L268.331 212.93
L268.331 211.588
L270.04 211.588
L270.04 210.246
L270.375 210.246
L270.375 209.575
L271.694 209.575
L271.694 208.904
L273.613 208.904
L273.613 206.892
L274.237 206.892
L274.237 204.208
L274.854 204.208
L274.854 202.866
L276.957 202.866
L276.957 202.195
L278.409 202.195
L278.409 201.524
L279.542 201.524
L279.542 200.182
L281.736 200.182
L281.736 197.498
L282.004 197.498
L282.004 196.828
L282.536 196.828
L282.536 196.157
L283.062 196.157
L283.062 194.144
L283.324 194.144
L283.324 192.802
L283.842 192.802
L283.842 192.131
L284.864 192.131
L284.864 190.789
L285.368 190.789
L285.368 189.447
L285.618 189.447
L285.618 188.776
L285.866 188.776
L285.866 188.105
L286.36 188.105
L286.36 186.093
L287.093 186.093
L287.093 185.422
L288.762 185.422
L288.762 182.738
L290.607 182.738
L290.607 178.712
L290.833 178.712
L290.833 177.37
L291.506 177.37
L291.506 175.358
L291.949 175.358
L291.949 174.016
L295.368 174.016
L295.368 173.345
L295.574 173.345
L295.574 172.003
L298.186 172.003
L298.186 171.332
L298.964 171.332
L298.964 170.661
L299.54 170.661
L299.54 168.648
L300.109 168.648
L300.109 167.977
L300.859 167.977
L300.859 167.306
L301.414 167.306
L301.414 166.635
L302.327 166.635
L302.327 165.964
L303.046 165.964
L303.046 164.623
L306.331 164.623
L306.331 163.952
L307.162 163.952
L307.162 163.281
L308.304 163.281
L308.304 162.61
L308.946 162.61
L308.946 161.939
L310.05 161.939
L310.05 159.926
L310.977 159.926
L310.977 159.255
L312.488 159.255
L312.488 157.242
L312.785 157.242
L312.785 156.571
L313.08 156.571
L313.08 155.229
L314.532 155.229
L314.532 154.558
L315.384 154.558
L315.384 153.217
L316.084 153.217
L316.084 152.546
L316.499 152.546
L316.499 151.875
L317.455 151.875
L317.455 151.204
L317.59 151.204
L317.59 149.862
L318.394 149.862
L318.394 149.191
L319.186 149.191
L319.186 148.52
L320.351 148.52
L320.351 147.849
L320.734 147.849
L320.734 147.178
L321.99 147.178
L321.99 146.507
L322.729 146.507
L322.729 145.836
L323.819 145.836
L323.819 145.165
L326.957 145.165
L326.957 143.823
L327.518 143.823
L327.518 142.482
L330.447 142.482
L330.447 141.811
L332.718 141.811
L332.718 141.14
L333.32 141.14
L333.32 140.469
L334.211 140.469
L334.211 139.798
L336.233 139.798
L336.233 139.127
L340.142 139.127
L340.142 137.785
L344.023 137.785
L344.023 137.114
L344.669 137.114
L344.669 136.443
L345.782 136.443
L345.782 135.772
L348.013 135.772
L348.013 134.43
L349.204 134.43
L349.204 133.759
L351.508 133.759
L351.508 133.088
L357.74 133.088
L357.74 132.418
L363.642 132.418
L363.642 131.747
L363.809 131.747
L363.809 131.076
L364.909 131.076
L364.909 130.405
L366.147 130.405
L366.147 129.734
L374.89 129.734
L374.89 128.392
L377.177 128.392
L377.177 127.721
L377.691 127.721
L377.691 127.05
L378.913 127.05
L378.913 126.379
L379.984 126.379
L379.984 125.708
L380.147 125.708
L380.147 125.037
L380.592 125.037
L380.632 123.695
L381.55 123.695
L381.55 123.024
L383.872 123.024
L383.872 121.683
L384.212 121.683
L384.287 119.67
L386.095 119.67
L386.095 118.999
L387.172 118.999
L387.172 118.328
L391.236 118.328
L391.236 117.657
L391.597 117.657
L391.597 116.315
L392.374 116.315
L392.374 115.644
L393.235 115.644
L393.235 114.302
L394.67 114.302
L394.67 113.631
L395.007 113.631
L395.007 112.96
L397.948 112.96
L397.948 112.289
L398.466 112.289
L398.466 111.618
L399.317 111.618
L399.317 110.948
L402.218 110.948
L402.218 110.277
L402.852 110.277
L402.852 109.606
L408.291 109.606
L408.291 108.935
L408.88 108.935
L408.88 108.264
L409.531 108.264
L409.531 107.593
L410.946 107.593
L410.946 106.251
L411.059 106.251
L411.059 105.58
L411.216 105.58
L411.216 104.909
L411.972 104.909
L411.972 104.238
L412.126 104.238
L412.126 103.567
L413.451 103.567
L413.451 102.896
L413.644 102.896
L413.644 102.225
L415.964 102.225
L415.964 101.554
L417.555 101.554
L417.555 100.883
L418.596 100.883
L418.596 100.213
L419.176 100.213
L419.176 99.5416
L420.071 99.5416
L420.071 98.8706
L423.348 98.8706
L423.348 98.1997
L428.658 98.1997
L428.658 97.5288
L429.168 97.5288
L429.168 96.8578
L430.05 96.8578
L430.05 96.1869
L430.423 96.1869
L430.423 95.516
L430.701 95.516
L430.701 94.845
L431.45 94.845
L431.45 94.1741
L431.678 94.1741
L431.678 93.5031
L432.04 93.5031
L432.04 92.8322
L434.732 92.8322
L434.732 92.1613
L434.946 92.1613
L434.946 91.4903
L442.656 91.4903
L442.656 90.8194
L444.177 90.8194
L444.201 88.8066
L444.308 88.8066
L444.308 88.1356
L444.98 88.1356
L444.98 87.4647
L445.932 87.4647
L445.932 86.7938
L447.451 86.7938
L447.451 86.1228
L448.326 86.1228
L448.326 85.4519
L455.203 85.4519
L455.203 84.781
L466.624 84.781
L466.624 84.11
L470.563 84.11
L470.563 83.4391
L477.464 83.4391
L477.464 82.7681
L478.051 82.7681
L478.051 82.0972
L478.225 82.0972
L478.225 81.4263
L478.447 81.4263
L478.447 80.7553
L481.419 80.7553
L481.419 80.0844
L481.686 80.0844
L481.686 79.4135
L483.075 79.4135
L483.075 78.7425
L483.925 78.7425
L483.931 77.4006
L487.2 77.4006
L487.2 77.4006" style="fill:none;stroke:#000000;stroke-linecap:square;stroke-width:1.5;"/>
   </g>
   <g id="line2d_18">
    <defs>
     <path d="
M0 6
C1.59122 6 3.11748 5.3678 4.24264 4.24264
C5.3678 3.11748 6 1.59122 6 0
C6 -1.59122 5.3678 -3.11748 4.24264 -4.24264
C3.11748 -5.3678 1.59122 -6 0 -6
C-1.59122 -6 -3.11748 -5.3678 -4.24264 -4.24264
C-5.3678 -3.11748 -6 -1.59122 -6 0
C-6 1.59122 -5.3678 3.11748 -4.24264 4.24264
C-3.11748 5.3678 -1.59122 6 0 6
z
" id="ma42492ef9b" style="stroke:#000000;stroke-width:1.5;"/>
    </defs>
    <g>
     <use style="fill:none;stroke:#000000;stroke-width:1.5;" x="151.694397919" xlink:href="#ma42492ef9b" y="349.130402774"/>
     <use style="fill:none;stroke:#000000;stroke-width:1.5;" x="222.28700274" xlink:href="#ma42492ef9b" y="304.848515762"/>
     <use style="fill:none;stroke:#000000;stroke-width:1.5;" x="270.374951803" xlink:href="#ma42492ef9b" y="210.246302599"/>
     <use style="fill:none;stroke:#000000;stroke-width:1.5;" x="351.507806368" xlink:href="#ma42492ef9b" y="133.759406851"/>
     <use style="fill:none;stroke:#000000;stroke-width:1.5;" x="481.685933612" xlink:href="#ma42492ef9b" y="79.4134546083"/>
     <use style="fill:none;stroke:#000000;stroke-width:1.5;" x="487.2" xlink:href="#ma42492ef9b" y="77.4006415623"/>
    </g>
   </g>
   <g id="line2d_19"/>
   <g id="line2d_20">
    <path clip-path="url(#p505825120b)" d="
M367.304 129.734" style="fill:none;stroke:#000000;stroke-linecap:square;"/>
    <defs>
     <path d="
M-12 12
L12 -12
M-12 -12
L12 12" id="m47417b404f" style="stroke:#000000;stroke-width:3;"/>
    </defs>
    <g clip-path="url(#p505825120b)">
     <use style="stroke:#000000;stroke-width:3;" x="367.304126584" xlink:href="#m47417b404f" y="129.733780759"/>
    </g>
   </g>
   <g id="line2d_21">
    <path d="
M487.2 77.4006
L526.8 351.68" style="fill:none;stroke:#000000;stroke-linecap:square;stroke-width:1.5;"/>
    <g>
     <use style="fill:none;stroke:#000000;stroke-width:1.5;" x="487.2" xlink:href="#ma42492ef9b" y="77.4006415623"/>
     <use style="fill:none;stroke:#000000;stroke-width:1.5;" x="526.8" xlink:href="#ma42492ef9b" y="351.679965965"/>
    </g>
   </g>
   <g id="line2d_22">
    <path d="
M487.2 73.5824
L526.8 242.183" style="fill:none;stroke:#00bfbf;stroke-linecap:square;stroke-width:1.5;"/>
    <g>
     <use style="fill:none;stroke:#00bfbf;stroke-width:1.5;" x="487.2" xlink:href="#m3e4de746de" y="73.5823962084"/>
     <use style="fill:none;stroke:#00bfbf;stroke-width:1.5;" x="526.8" xlink:href="#m3e4de746de" y="242.182936262"/>
    </g>
   </g>
   <g id="line2d_23">
    <path d="
M487.2 59.7286
L526.8 132.686" style="fill:none;stroke:#0000ff;stroke-linecap:square;stroke-width:1.5;"/>
    <g>
     <use style="fill:none;stroke:#0000ff;stroke-linejoin:bevel;stroke-width:1.5;" x="487.2" xlink:href="#m0933169453" y="59.7286222595"/>
     <use style="fill:none;stroke:#0000ff;stroke-linejoin:bevel;stroke-width:1.5;" x="526.8" xlink:href="#m0933169453" y="132.685906559"/>
    </g>
   </g>
   <g id="line2d_24">
    <path d="
M487.2 51.7431
L526.8 23.1889" style="fill:none;stroke:#008000;stroke-linecap:square;stroke-width:1.5;"/>
    <g>
     <use style="fill:none;stroke:#008000;stroke-linejoin:miter;stroke-width:1.5;" x="487.2" xlink:href="#m397e16cd68" y="51.7430591712"/>
     <use style="fill:none;stroke:#008000;stroke-linejoin:miter;stroke-width:1.5;" x="526.8" xlink:href="#m397e16cd68" y="23.1888768564"/>
    </g>
   </g>
   <g id="line2d_25">
    <path d="
M487.2 358.524
L487.2 16.3453" style="fill:none;stroke:#000000;stroke-linecap:square;"/>
   </g>
   <g id="matplotlib.axis_1">
    <g id="xtick_1">
     <g id="line2d_26">
      <path clip-path="url(#p505825120b)" d="
M127.2 358.524
L127.2 12.9235" style="fill:none;stroke:#000000;stroke-dasharray:1.000000,3.000000;stroke-dashoffset:0.0;stroke-width:0.5;"/>
     </g>
     <g id="line2d_27">
      <defs>
       <path d="
M0 0
L0 -4" id="m93b0483c22" style="stroke:#000000;stroke-width:0.5;"/>
      </defs>
      <g>
       <use style="stroke:#000000;stroke-width:0.5;" x="127.2" xlink:href="#m93b0483c22" y="358.523530322"/>
      </g>
     </g>
     <g id="line2d_28">
      <defs>
       <path d="
M0 0
L0 4" id="m741efc42ff" style="stroke:#000000;stroke-width:0.5;"/>
      </defs>
      <g>
       <use style="stroke:#000000;stroke-width:0.5;" x="127.2" xlink:href="#m741efc42ff" y="12.9235303218"/>
      </g>
     </g>
     <g id="text_1">
      <!-- 0 -->
      <defs>
       <path d="
M4.15625 35.2969
Q4.15625 48 6.76562 55.7344
Q9.375 63.4844 14.5156 67.6719
Q19.6719 71.875 27.4844 71.875
Q33.25 71.875 37.5938 69.5469
Q41.9375 67.2344 44.7656 62.8594
Q47.6094 58.5 49.2188 52.2188
Q50.8281 45.9531 50.8281 35.2969
Q50.8281 22.7031 48.2344 14.9688
Q45.6562 7.23438 40.5 3
Q35.3594 -1.21875 27.4844 -1.21875
Q17.1406 -1.21875 11.2344 6.20312
Q4.15625 15.1406 4.15625 35.2969
M13.1875 35.2969
Q13.1875 17.6719 17.3125 11.8281
Q21.4375 6 27.4844 6
Q33.5469 6 37.6719 11.8594
Q41.7969 17.7188 41.7969 35.2969
Q41.7969 52.9844 37.6719 58.7812
Q33.5469 64.5938 27.3906 64.5938
Q21.3438 64.5938 17.7188 59.4688
Q13.1875 52.9375 13.1875 35.2969" id="ArialMT-30"/>
      </defs>
      <g transform="translate(122.5328125 376.839155322)scale(0.2 -0.2)">
       <use xlink:href="#ArialMT-30"/>
      </g>
     </g>
    </g>
    <g id="xtick_2">
     <g id="line2d_29">
      <path clip-path="url(#p505825120b)" d="
M247.2 358.524
L247.2 12.9235" style="fill:none;stroke:#000000;stroke-dasharray:1.000000,3.000000;stroke-dashoffset:0.0;stroke-width:0.5;"/>
     </g>
     <g id="line2d_30">
      <g>
       <use style="stroke:#000000;stroke-width:0.5;" x="247.2" xlink:href="#m93b0483c22" y="358.523530322"/>
      </g>
     </g>
     <g id="line2d_31">
      <g>
       <use style="stroke:#000000;stroke-width:0.5;" x="247.2" xlink:href="#m741efc42ff" y="12.9235303218"/>
      </g>
     </g>
     <g id="text_2">
      <!-- 1 -->
      <defs>
       <path d="
M37.25 0
L28.4688 0
L28.4688 56
Q25.2969 52.9844 20.1406 49.9531
Q14.9844 46.9219 10.8906 45.4062
L10.8906 53.9062
Q18.2656 57.375 23.7812 62.2969
Q29.2969 67.2344 31.5938 71.875
L37.25 71.875
z
" id="ArialMT-31"/>
      </defs>
      <g transform="translate(244.5640625 376.839155322)scale(0.2 -0.2)">
       <use xlink:href="#ArialMT-31"/>
      </g>
     </g>
    </g>
    <g id="xtick_3">
     <g id="line2d_32">
      <path clip-path="url(#p505825120b)" d="
M367.2 358.524
L367.2 12.9235" style="fill:none;stroke:#000000;stroke-dasharray:1.000000,3.000000;stroke-dashoffset:0.0;stroke-width:0.5;"/>
     </g>
     <g id="line2d_33">
      <g>
       <use style="stroke:#000000;stroke-width:0.5;" x="367.2" xlink:href="#m93b0483c22" y="358.523530322"/>
      </g>
     </g>
     <g id="line2d_34">
      <g>
       <use style="stroke:#000000;stroke-width:0.5;" x="367.2" xlink:href="#m741efc42ff" y="12.9235303218"/>
      </g>
     </g>
     <g id="text_3">
      <!-- 2 -->
      <defs>
       <path d="
M50.3438 8.45312
L50.3438 0
L3.03125 0
Q2.9375 3.17188 4.04688 6.10938
Q5.85938 10.9375 9.82812 15.625
Q13.8125 20.3125 21.3438 26.4688
Q33.0156 36.0312 37.1094 41.625
Q41.2188 47.2188 41.2188 52.2031
Q41.2188 57.4219 37.4688 61
Q33.7344 64.5938 27.7344 64.5938
Q21.3906 64.5938 17.5781 60.7812
Q13.7656 56.9844 13.7188 50.25
L4.6875 51.1719
Q5.60938 61.2812 11.6562 66.5781
Q17.7188 71.875 27.9375 71.875
Q38.2344 71.875 44.2344 66.1562
Q50.25 60.4531 50.25 52
Q50.25 47.7031 48.4844 43.5469
Q46.7344 39.4062 42.6562 34.8125
Q38.5781 30.2188 29.1094 22.2188
Q21.1875 15.5781 18.9375 13.2031
Q16.7031 10.8438 15.2344 8.45312
z
" id="ArialMT-32"/>
      </defs>
      <g transform="translate(362.459375 376.839155322)scale(0.2 -0.2)">
       <use xlink:href="#ArialMT-32"/>
      </g>
     </g>
    </g>
    <g id="xtick_4">
     <g id="line2d_35">
      <path clip-path="url(#p505825120b)" d="
M487.2 358.524
L487.2 12.9235" style="fill:none;stroke:#000000;stroke-dasharray:1.000000,3.000000;stroke-dashoffset:0.0;stroke-width:0.5;"/>
     </g>
     <g id="line2d_36">
      <g>
       <use style="stroke:#000000;stroke-width:0.5;" x="487.2" xlink:href="#m93b0483c22" y="358.523530322"/>
      </g>
     </g>
     <g id="line2d_37">
      <g>
       <use style="stroke:#000000;stroke-width:0.5;" x="487.2" xlink:href="#m741efc42ff" y="12.9235303218"/>
      </g>
     </g>
     <g id="text_4">
      <!-- 3 -->
      <defs>
       <path d="
M4.20312 18.8906
L12.9844 20.0625
Q14.5 12.5938 18.1406 9.29688
Q21.7812 6 27 6
Q33.2031 6 37.4688 10.2969
Q41.75 14.5938 41.75 20.9531
Q41.75 27 37.7969 30.9219
Q33.8438 34.8594 27.7344 34.8594
Q25.25 34.8594 21.5312 33.8906
L22.5156 41.6094
Q23.3906 41.5 23.9219 41.5
Q29.5469 41.5 34.0312 44.4219
Q38.5312 47.3594 38.5312 53.4688
Q38.5312 58.2969 35.25 61.4688
Q31.9844 64.6562 26.8125 64.6562
Q21.6875 64.6562 18.2656 61.4219
Q14.8438 58.2031 13.875 51.7656
L5.07812 53.3281
Q6.6875 62.1562 12.3906 67.0156
Q18.1094 71.875 26.6094 71.875
Q32.4688 71.875 37.3906 69.3594
Q42.3281 66.8438 44.9375 62.5
Q47.5625 58.1562 47.5625 53.2656
Q47.5625 48.6406 45.0625 44.8281
Q42.5781 41.0156 37.7031 38.7656
Q44.0469 37.3125 47.5625 32.6875
Q51.0781 28.0781 51.0781 21.1406
Q51.0781 11.7656 44.2344 5.25
Q37.4062 -1.26562 26.9531 -1.26562
Q17.5312 -1.26562 11.2969 4.34375
Q5.07812 9.96875 4.20312 18.8906" id="ArialMT-33"/>
      </defs>
      <g transform="translate(482.5125 376.839155322)scale(0.2 -0.2)">
       <use xlink:href="#ArialMT-33"/>
      </g>
     </g>
    </g>
    <g id="xtick_5">
     <g id="line2d_38">
      <defs>
       <path d="
M0 0
L0 -2" id="m177f7580d0" style="stroke:#000000;stroke-width:0.5;"/>
      </defs>
      <g>
       <use style="stroke:#000000;stroke-width:0.5;" x="163.32359948" xlink:href="#m177f7580d0" y="358.523530322"/>
      </g>
     </g>
     <g id="line2d_39">
      <defs>
       <path d="
M0 0
L0 2" id="m5284c7e2a0" style="stroke:#000000;stroke-width:0.5;"/>
      </defs>
      <g>
       <use style="stroke:#000000;stroke-width:0.5;" x="163.32359948" xlink:href="#m5284c7e2a0" y="12.9235303218"/>
      </g>
     </g>
    </g>
    <g id="xtick_6">
     <g id="line2d_40">
      <g>
       <use style="stroke:#000000;stroke-width:0.5;" x="184.454550566" xlink:href="#m177f7580d0" y="358.523530322"/>
      </g>
     </g>
     <g id="line2d_41">
      <g>
       <use style="stroke:#000000;stroke-width:0.5;" x="184.454550566" xlink:href="#m5284c7e2a0" y="12.9235303218"/>
      </g>
     </g>
    </g>
    <g id="xtick_7">
     <g id="line2d_42">
      <g>
       <use style="stroke:#000000;stroke-width:0.5;" x="199.447198959" xlink:href="#m177f7580d0" y="358.523530322"/>
      </g>
     </g>
     <g id="line2d_43">
      <g>
       <use style="stroke:#000000;stroke-width:0.5;" x="199.447198959" xlink:href="#m5284c7e2a0" y="12.9235303218"/>
      </g>
     </g>
    </g>
    <g id="xtick_8">
     <g id="line2d_44">
      <g>
       <use style="stroke:#000000;stroke-width:0.5;" x="211.07640052" xlink:href="#m177f7580d0" y="358.523530322"/>
      </g>
     </g>
     <g id="line2d_45">
      <g>
       <use style="stroke:#000000;stroke-width:0.5;" x="211.07640052" xlink:href="#m5284c7e2a0" y="12.9235303218"/>
      </g>
     </g>
    </g>
    <g id="xtick_9">
     <g id="line2d_46">
      <g>
       <use style="stroke:#000000;stroke-width:0.5;" x="220.578150046" xlink:href="#m177f7580d0" y="358.523530322"/>
      </g>
     </g>
     <g id="line2d_47">
      <g>
       <use style="stroke:#000000;stroke-width:0.5;" x="220.578150046" xlink:href="#m5284c7e2a0" y="12.9235303218"/>
      </g>
     </g>
    </g>
    <g id="xtick_10">
     <g id="line2d_48">
      <g>
       <use style="stroke:#000000;stroke-width:0.5;" x="228.611764802" xlink:href="#m177f7580d0" y="358.523530322"/>
      </g>
     </g>
     <g id="line2d_49">
      <g>
       <use style="stroke:#000000;stroke-width:0.5;" x="228.611764802" xlink:href="#m5284c7e2a0" y="12.9235303218"/>
      </g>
     </g>
    </g>
    <g id="xtick_11">
     <g id="line2d_50">
      <g>
       <use style="stroke:#000000;stroke-width:0.5;" x="235.570798439" xlink:href="#m177f7580d0" y="358.523530322"/>
      </g>
     </g>
     <g id="line2d_51">
      <g>
       <use style="stroke:#000000;stroke-width:0.5;" x="235.570798439" xlink:href="#m5284c7e2a0" y="12.9235303218"/>
      </g>
     </g>
    </g>
    <g id="xtick_12">
     <g id="line2d_52">
      <g>
       <use style="stroke:#000000;stroke-width:0.5;" x="241.709101133" xlink:href="#m177f7580d0" y="358.523530322"/>
      </g>
     </g>
     <g id="line2d_53">
      <g>
       <use style="stroke:#000000;stroke-width:0.5;" x="241.709101133" xlink:href="#m5284c7e2a0" y="12.9235303218"/>
      </g>
     </g>
    </g>
    <g id="xtick_13">
     <g id="line2d_54">
      <g>
       <use style="stroke:#000000;stroke-width:0.5;" x="283.32359948" xlink:href="#m177f7580d0" y="358.523530322"/>
      </g>
     </g>
     <g id="line2d_55">
      <g>
       <use style="stroke:#000000;stroke-width:0.5;" x="283.32359948" xlink:href="#m5284c7e2a0" y="12.9235303218"/>
      </g>
     </g>
    </g>
    <g id="xtick_14">
     <g id="line2d_56">
      <g>
       <use style="stroke:#000000;stroke-width:0.5;" x="304.454550566" xlink:href="#m177f7580d0" y="358.523530322"/>
      </g>
     </g>
     <g id="line2d_57">
      <g>
       <use style="stroke:#000000;stroke-width:0.5;" x="304.454550566" xlink:href="#m5284c7e2a0" y="12.9235303218"/>
      </g>
     </g>
    </g>
    <g id="xtick_15">
     <g id="line2d_58">
      <g>
       <use style="stroke:#000000;stroke-width:0.5;" x="319.447198959" xlink:href="#m177f7580d0" y="358.523530322"/>
      </g>
     </g>
     <g id="line2d_59">
      <g>
       <use style="stroke:#000000;stroke-width:0.5;" x="319.447198959" xlink:href="#m5284c7e2a0" y="12.9235303218"/>
      </g>
     </g>
    </g>
    <g id="xtick_16">
     <g id="line2d_60">
      <g>
       <use style="stroke:#000000;stroke-width:0.5;" x="331.07640052" xlink:href="#m177f7580d0" y="358.523530322"/>
      </g>
     </g>
     <g id="line2d_61">
      <g>
       <use style="stroke:#000000;stroke-width:0.5;" x="331.07640052" xlink:href="#m5284c7e2a0" y="12.9235303218"/>
      </g>
     </g>
    </g>
    <g id="xtick_17">
     <g id="line2d_62">
      <g>
       <use style="stroke:#000000;stroke-width:0.5;" x="340.578150046" xlink:href="#m177f7580d0" y="358.523530322"/>
      </g>
     </g>
     <g id="line2d_63">
      <g>
       <use style="stroke:#000000;stroke-width:0.5;" x="340.578150046" xlink:href="#m5284c7e2a0" y="12.9235303218"/>
      </g>
     </g>
    </g>
    <g id="xtick_18">
     <g id="line2d_64">
      <g>
       <use style="stroke:#000000;stroke-width:0.5;" x="348.611764802" xlink:href="#m177f7580d0" y="358.523530322"/>
      </g>
     </g>
     <g id="line2d_65">
      <g>
       <use style="stroke:#000000;stroke-width:0.5;" x="348.611764802" xlink:href="#m5284c7e2a0" y="12.9235303218"/>
      </g>
     </g>
    </g>
    <g id="xtick_19">
     <g id="line2d_66">
      <g>
       <use style="stroke:#000000;stroke-width:0.5;" x="355.570798439" xlink:href="#m177f7580d0" y="358.523530322"/>
      </g>
     </g>
     <g id="line2d_67">
      <g>
       <use style="stroke:#000000;stroke-width:0.5;" x="355.570798439" xlink:href="#m5284c7e2a0" y="12.9235303218"/>
      </g>
     </g>
    </g>
    <g id="xtick_20">
     <g id="line2d_68">
      <g>
       <use style="stroke:#000000;stroke-width:0.5;" x="361.709101133" xlink:href="#m177f7580d0" y="358.523530322"/>
      </g>
     </g>
     <g id="line2d_69">
      <g>
       <use style="stroke:#000000;stroke-width:0.5;" x="361.709101133" xlink:href="#m5284c7e2a0" y="12.9235303218"/>
      </g>
     </g>
    </g>
    <g id="xtick_21">
     <g id="line2d_70">
      <g>
       <use style="stroke:#000000;stroke-width:0.5;" x="403.32359948" xlink:href="#m177f7580d0" y="358.523530322"/>
      </g>
     </g>
     <g id="line2d_71">
      <g>
       <use style="stroke:#000000;stroke-width:0.5;" x="403.32359948" xlink:href="#m5284c7e2a0" y="12.9235303218"/>
      </g>
     </g>
    </g>
    <g id="xtick_22">
     <g id="line2d_72">
      <g>
       <use style="stroke:#000000;stroke-width:0.5;" x="424.454550566" xlink:href="#m177f7580d0" y="358.523530322"/>
      </g>
     </g>
     <g id="line2d_73">
      <g>
       <use style="stroke:#000000;stroke-width:0.5;" x="424.454550566" xlink:href="#m5284c7e2a0" y="12.9235303218"/>
      </g>
     </g>
    </g>
    <g id="xtick_23">
     <g id="line2d_74">
      <g>
       <use style="stroke:#000000;stroke-width:0.5;" x="439.447198959" xlink:href="#m177f7580d0" y="358.523530322"/>
      </g>
     </g>
     <g id="line2d_75">
      <g>
       <use style="stroke:#000000;stroke-width:0.5;" x="439.447198959" xlink:href="#m5284c7e2a0" y="12.9235303218"/>
      </g>
     </g>
    </g>
    <g id="xtick_24">
     <g id="line2d_76">
      <g>
       <use style="stroke:#000000;stroke-width:0.5;" x="451.07640052" xlink:href="#m177f7580d0" y="358.523530322"/>
      </g>
     </g>
     <g id="line2d_77">
      <g>
       <use style="stroke:#000000;stroke-width:0.5;" x="451.07640052" xlink:href="#m5284c7e2a0" y="12.9235303218"/>
      </g>
     </g>
    </g>
    <g id="xtick_25">
     <g id="line2d_78">
      <g>
       <use style="stroke:#000000;stroke-width:0.5;" x="460.578150046" xlink:href="#m177f7580d0" y="358.523530322"/>
      </g>
     </g>
     <g id="line2d_79">
      <g>
       <use style="stroke:#000000;stroke-width:0.5;" x="460.578150046" xlink:href="#m5284c7e2a0" y="12.9235303218"/>
      </g>
     </g>
    </g>
    <g id="xtick_26">
     <g id="line2d_80">
      <g>
       <use style="stroke:#000000;stroke-width:0.5;" x="468.611764802" xlink:href="#m177f7580d0" y="358.523530322"/>
      </g>
     </g>
     <g id="line2d_81">
      <g>
       <use style="stroke:#000000;stroke-width:0.5;" x="468.611764802" xlink:href="#m5284c7e2a0" y="12.9235303218"/>
      </g>
     </g>
    </g>
    <g id="xtick_27">
     <g id="line2d_82">
      <g>
       <use style="stroke:#000000;stroke-width:0.5;" x="475.570798439" xlink:href="#m177f7580d0" y="358.523530322"/>
      </g>
     </g>
     <g id="line2d_83">
      <g>
       <use style="stroke:#000000;stroke-width:0.5;" x="475.570798439" xlink:href="#m5284c7e2a0" y="12.9235303218"/>
      </g>
     </g>
    </g>
    <g id="xtick_28">
     <g id="line2d_84">
      <g>
       <use style="stroke:#000000;stroke-width:0.5;" x="481.709101133" xlink:href="#m177f7580d0" y="358.523530322"/>
      </g>
     </g>
     <g id="line2d_85">
      <g>
       <use style="stroke:#000000;stroke-width:0.5;" x="481.709101133" xlink:href="#m5284c7e2a0" y="12.9235303218"/>
      </g>
     </g>
    </g>
    <g id="xtick_29">
     <g id="line2d_86">
      <g>
       <use style="stroke:#000000;stroke-width:0.5;" x="523.32359948" xlink:href="#m177f7580d0" y="358.523530322"/>
      </g>
     </g>
     <g id="line2d_87">
      <g>
       <use style="stroke:#000000;stroke-width:0.5;" x="523.32359948" xlink:href="#m5284c7e2a0" y="12.9235303218"/>
      </g>
     </g>
    </g>
    <g id="xtick_30">
     <g id="line2d_88">
      <g>
       <use style="stroke:#000000;stroke-width:0.5;" x="544.454550566" xlink:href="#m177f7580d0" y="358.523530322"/>
      </g>
     </g>
     <g id="line2d_89">
      <g>
       <use style="stroke:#000000;stroke-width:0.5;" x="544.454550566" xlink:href="#m5284c7e2a0" y="12.9235303218"/>
      </g>
     </g>
    </g>
    <g id="xtick_31">
     <g id="line2d_90">
      <g>
       <use style="stroke:#000000;stroke-width:0.5;" x="559.447198959" xlink:href="#m177f7580d0" y="358.523530322"/>
      </g>
     </g>
     <g id="line2d_91">
      <g>
       <use style="stroke:#000000;stroke-width:0.5;" x="559.447198959" xlink:href="#m5284c7e2a0" y="12.9235303218"/>
      </g>
     </g>
    </g>
    <g id="xtick_32">
     <g id="line2d_92">
      <g>
       <use style="stroke:#000000;stroke-width:0.5;" x="571.07640052" xlink:href="#m177f7580d0" y="358.523530322"/>
      </g>
     </g>
     <g id="line2d_93">
      <g>
       <use style="stroke:#000000;stroke-width:0.5;" x="571.07640052" xlink:href="#m5284c7e2a0" y="12.9235303218"/>
      </g>
     </g>
    </g>
    <g id="text_5">
     <!-- log10 of (# f-evals / dimension) -->
     <defs>
      <path d="
M12.3594 -21.0469
L6.0625 -21.0469
Q20.6562 2.39062 20.6562 25.875
Q20.6562 35.0625 18.5625 44.0938
Q16.8906 51.4219 13.9219 58.1562
Q12.0156 62.5469 6.0625 72.7969
L12.3594 72.7969
Q21.5312 60.5469 25.9219 48.1875
Q29.6875 37.5469 29.6875 25.9219
Q29.6875 12.75 24.625 0.4375
Q19.5781 -11.8594 12.3594 -21.0469" id="ArialMT-29"/>
      <path d="
M40.4375 6.39062
Q35.5469 2.25 31.0312 0.53125
Q26.5156 -1.17188 21.3438 -1.17188
Q12.7969 -1.17188 8.20312 3
Q3.60938 7.17188 3.60938 13.6719
Q3.60938 17.4844 5.34375 20.625
Q7.07812 23.7812 9.89062 25.6875
Q12.7031 27.5938 16.2188 28.5625
Q18.7969 29.25 24.0312 29.8906
Q34.6719 31.1562 39.7031 32.9062
Q39.75 34.7188 39.75 35.2031
Q39.75 40.5781 37.25 42.7812
Q33.8906 45.75 27.25 45.75
Q21.0469 45.75 18.0938 43.5781
Q15.1406 41.4062 13.7188 35.8906
L5.125 37.0625
Q6.29688 42.5781 8.98438 45.9688
Q11.6719 49.3594 16.75 51.1875
Q21.8281 53.0312 28.5156 53.0312
Q35.1562 53.0312 39.2969 51.4688
Q43.4531 49.9062 45.4062 47.5312
Q47.3594 45.1719 48.1406 41.5469
Q48.5781 39.3125 48.5781 33.4531
L48.5781 21.7344
Q48.5781 9.46875 49.1406 6.21875
Q49.7031 2.98438 51.375 0
L42.1875 0
Q40.8281 2.73438 40.4375 6.39062
M39.7031 26.0312
Q34.9062 24.0781 25.3438 22.7031
Q19.9219 21.9219 17.6719 20.9375
Q15.4375 19.9688 14.2031 18.0938
Q12.9844 16.2188 12.9844 13.9219
Q12.9844 10.4062 15.6406 8.0625
Q18.3125 5.71875 23.4375 5.71875
Q28.5156 5.71875 32.4688 7.9375
Q36.4219 10.1562 38.2812 14.0156
Q39.7031 17 39.7031 22.7969
z
" id="ArialMT-61"/>
      <path d="
M4.98438 -4.29688
L13.5312 -5.5625
Q14.0625 -9.51562 16.5 -11.3281
Q19.7812 -13.7656 25.4375 -13.7656
Q31.5469 -13.7656 34.8594 -11.3281
Q38.1875 -8.89062 39.3594 -4.5
Q40.0469 -1.8125 39.9844 6.78125
Q34.2344 0 25.6406 0
Q14.9375 0 9.07812 7.71875
Q3.21875 15.4375 3.21875 26.2188
Q3.21875 33.6406 5.90625 39.9062
Q8.59375 46.1875 13.6875 49.6094
Q18.7969 53.0312 25.6875 53.0312
Q34.8594 53.0312 40.8281 45.6094
L40.8281 51.8594
L48.9219 51.8594
L48.9219 7.03125
Q48.9219 -5.07812 46.4531 -10.125
Q44 -15.1875 38.6406 -18.1094
Q33.2969 -21.0469 25.4844 -21.0469
Q16.2188 -21.0469 10.5 -16.875
Q4.78125 -12.7031 4.98438 -4.29688
M12.25 26.8594
Q12.25 16.6562 16.2969 11.9688
Q20.3594 7.28125 26.4688 7.28125
Q32.5156 7.28125 36.6094 11.9375
Q40.7188 16.6094 40.7188 26.5625
Q40.7188 36.0781 36.5 40.9062
Q32.2812 45.75 26.3125 45.75
Q20.4531 45.75 16.3438 40.9844
Q12.25 36.2344 12.25 26.8594" id="ArialMT-67"/>
      <path d="
M8.6875 0
L8.6875 45.0156
L0.921875 45.0156
L0.921875 51.8594
L8.6875 51.8594
L8.6875 57.375
Q8.6875 62.5938 9.625 65.1406
Q10.8906 68.5625 14.0781 70.6719
Q17.2812 72.7969 23.0469 72.7969
Q26.7656 72.7969 31.25 71.9219
L29.9375 64.2656
Q27.2031 64.75 24.75 64.75
Q20.75 64.75 19.0938 63.0312
Q17.4375 61.3281 17.4375 56.6406
L17.4375 51.8594
L27.5469 51.8594
L27.5469 45.0156
L17.4375 45.0156
L17.4375 0
z
" id="ArialMT-66"/>
      <path d="
M42.0938 16.7031
L51.1719 15.5781
Q49.0312 7.625 43.2188 3.21875
Q37.4062 -1.17188 28.375 -1.17188
Q17 -1.17188 10.3281 5.82812
Q3.65625 12.8438 3.65625 25.4844
Q3.65625 38.5781 10.3906 45.7969
Q17.1406 53.0312 27.875 53.0312
Q38.2812 53.0312 44.875 45.9531
Q51.4688 38.875 51.4688 26.0312
Q51.4688 25.25 51.4219 23.6875
L12.75 23.6875
Q13.2344 15.1406 17.5781 10.5938
Q21.9219 6.0625 28.4219 6.0625
Q33.25 6.0625 36.6719 8.59375
Q40.0938 11.1406 42.0938 16.7031
M13.2344 30.9062
L42.1875 30.9062
Q41.6094 37.4531 38.875 40.7188
Q34.6719 45.7969 27.9844 45.7969
Q21.9219 45.7969 17.7969 41.75
Q13.6719 37.7031 13.2344 30.9062" id="ArialMT-65"/>
      <path d="
M40.2344 0
L40.2344 6.54688
Q35.2969 -1.17188 25.7344 -1.17188
Q19.5312 -1.17188 14.3281 2.25
Q9.125 5.67188 6.26562 11.7969
Q3.42188 17.9219 3.42188 25.875
Q3.42188 33.6406 6 39.9688
Q8.59375 46.2969 13.7656 49.6562
Q18.9531 53.0312 25.3438 53.0312
Q30.0312 53.0312 33.6875 51.0469
Q37.3594 49.0781 39.6562 45.9062
L39.6562 71.5781
L48.3906 71.5781
L48.3906 0
z

M12.4531 25.875
Q12.4531 15.9219 16.6406 10.9844
Q20.8438 6.0625 26.5625 6.0625
Q32.3281 6.0625 36.3438 10.7656
Q40.375 15.4844 40.375 25.1406
Q40.375 35.7969 36.2656 40.7656
Q32.1719 45.75 26.1719 45.75
Q20.3125 45.75 16.375 40.9688
Q12.4531 36.1875 12.4531 25.875" id="ArialMT-64"/>
      <path d="
M0 -1.21875
L20.75 72.7969
L27.7812 72.7969
L7.07812 -1.21875
z
" id="ArialMT-2f"/>
      <path d="
M21 0
L1.26562 51.8594
L10.5469 51.8594
L21.6875 20.7969
Q23.4844 15.7656 25 10.3594
Q26.1719 14.4531 28.2656 20.2188
L39.7969 51.8594
L48.8281 51.8594
L29.2031 0
z
" id="ArialMT-76"/>
      <path d="
M3.17188 21.4844
L3.17188 30.3281
L30.1719 30.3281
L30.1719 21.4844
z
" id="ArialMT-2d"/>
      <path d="
M6.59375 0
L6.59375 51.8594
L14.4531 51.8594
L14.4531 44.5781
Q16.8906 48.3906 20.9375 50.7031
Q25 53.0312 30.1719 53.0312
Q35.9375 53.0312 39.625 50.6406
Q43.3125 48.25 44.8281 43.9531
Q50.9844 53.0312 60.8438 53.0312
Q68.5625 53.0312 72.7031 48.75
Q76.8594 44.4844 76.8594 35.5938
L76.8594 0
L68.1094 0
L68.1094 32.6719
Q68.1094 37.9375 67.25 40.25
Q66.4062 42.5781 64.1562 43.9844
Q61.9219 45.4062 58.8906 45.4062
Q53.4219 45.4062 49.7969 41.7656
Q46.1875 38.1406 46.1875 30.125
L46.1875 0
L37.4062 0
L37.4062 33.6875
Q37.4062 39.5469 35.25 42.4688
Q33.1094 45.4062 28.2188 45.4062
Q24.5156 45.4062 21.3594 43.4531
Q18.2188 41.5 16.7969 37.7344
Q15.375 33.9844 15.375 26.9062
L15.375 0
z
" id="ArialMT-6d"/>
      <path d="
M3.07812 15.4844
L11.7656 16.8438
Q12.5 11.625 15.8438 8.84375
Q19.1875 6.0625 25.2031 6.0625
Q31.25 6.0625 34.1719 8.51562
Q37.1094 10.9844 37.1094 14.3125
Q37.1094 17.2812 34.5156 19
Q32.7188 20.1719 25.5312 21.9688
Q15.875 24.4219 12.1406 26.2031
Q8.40625 27.9844 6.46875 31.125
Q4.54688 34.2812 4.54688 38.0938
Q4.54688 41.5469 6.125 44.5
Q7.71875 47.4688 10.4531 49.4219
Q12.5 50.9219 16.0312 51.9688
Q19.5781 53.0312 23.6406 53.0312
Q29.7344 53.0312 34.3438 51.2656
Q38.9688 49.5156 41.1562 46.5
Q43.3594 43.5 44.1875 38.4844
L35.5938 37.3125
Q35.0156 41.3125 32.2031 43.5469
Q29.3906 45.7969 24.2656 45.7969
Q18.2188 45.7969 15.625 43.7969
Q13.0312 41.7969 13.0312 39.1094
Q13.0312 37.4062 14.1094 36.0312
Q15.1875 34.625 17.4844 33.6875
Q18.7969 33.2031 25.25 31.4531
Q34.5781 28.9531 38.25 27.3594
Q41.9375 25.7812 44.0312 22.75
Q46.1406 19.7344 46.1406 15.2344
Q46.1406 10.8438 43.5781 6.95312
Q41.0156 3.07812 36.1719 0.953125
Q31.3438 -1.17188 25.25 -1.17188
Q15.1406 -1.17188 9.84375 3.03125
Q4.54688 7.23438 3.07812 15.4844" id="ArialMT-73"/>
      <path d="
M6.39062 0
L6.39062 71.5781
L15.1875 71.5781
L15.1875 0
z
" id="ArialMT-6c"/>
      <path d="
M3.32812 25.9219
Q3.32812 40.3281 11.3281 47.2656
Q18.0156 53.0312 27.6406 53.0312
Q38.3281 53.0312 45.1094 46.0156
Q51.9062 39.0156 51.9062 26.6562
Q51.9062 16.6562 48.9062 10.9062
Q45.9062 5.17188 40.1562 2
Q34.4219 -1.17188 27.6406 -1.17188
Q16.75 -1.17188 10.0312 5.8125
Q3.32812 12.7969 3.32812 25.9219
M12.3594 25.9219
Q12.3594 15.9688 16.7031 11.0156
Q21.0469 6.0625 27.6406 6.0625
Q34.1875 6.0625 38.5312 11.0312
Q42.875 16.0156 42.875 26.2188
Q42.875 35.8438 38.5 40.7969
Q34.125 45.75 27.6406 45.75
Q21.0469 45.75 16.7031 40.8125
Q12.3594 35.8906 12.3594 25.9219" id="ArialMT-6f"/>
      <path d="
M6.59375 0
L6.59375 51.8594
L14.5 51.8594
L14.5 44.4844
Q20.2188 53.0312 31 53.0312
Q35.6875 53.0312 39.625 51.3438
Q43.5625 49.6562 45.5156 46.9219
Q47.4688 44.1875 48.25 40.4375
Q48.7344 37.9844 48.7344 31.8906
L48.7344 0
L39.9375 0
L39.9375 31.5469
Q39.9375 36.9219 38.9062 39.5781
Q37.8906 42.2344 35.2812 43.8125
Q32.6719 45.4062 29.1562 45.4062
Q23.5312 45.4062 19.4531 41.8438
Q15.375 38.2812 15.375 28.3281
L15.375 0
z
" id="ArialMT-6e"/>
      <path d="
M23.3906 -21.0469
Q16.1094 -11.8594 11.0781 0.4375
Q6.0625 12.75 6.0625 25.9219
Q6.0625 37.5469 9.8125 48.1875
Q14.2031 60.5469 23.3906 72.7969
L29.6875 72.7969
Q23.7812 62.6406 21.875 58.2969
Q18.8906 51.5625 17.1875 44.2344
Q15.0938 35.1094 15.0938 25.875
Q15.0938 2.39062 29.6875 -21.0469
z
" id="ArialMT-28"/>
      <path d="
M5.03125 -1.21875
L9.28125 19.5781
L1.03125 19.5781
L1.03125 26.8594
L10.75 26.8594
L14.3594 44.5781
L1.03125 44.5781
L1.03125 51.8594
L15.8281 51.8594
L20.0625 72.7969
L27.3906 72.7969
L23.1406 51.8594
L38.5312 51.8594
L42.7812 72.7969
L50.1406 72.7969
L45.9062 51.8594
L54.3438 51.8594
L54.3438 44.5781
L44.4375 44.5781
L40.7656 26.8594
L54.3438 26.8594
L54.3438 19.5781
L39.3125 19.5781
L35.0625 -1.21875
L27.7344 -1.21875
L31.9375 19.5781
L16.6094 19.5781
L12.3594 -1.21875
z

M18.0625 26.8594
L33.4062 26.8594
L37.0625 44.5781
L21.6875 44.5781
z
" id="ArialMT-23"/>
      <path d="
M6.64062 61.4688
L6.64062 71.5781
L15.4375 71.5781
L15.4375 61.4688
z

M6.64062 0
L6.64062 51.8594
L15.4375 51.8594
L15.4375 0
z
" id="ArialMT-69"/>
      <path id="ArialMT-20"/>
     </defs>
     <g transform="translate(227.67375 398.917592822)scale(0.18 -0.18)">
      <use xlink:href="#ArialMT-6c"/>
      <use x="22.216796875" xlink:href="#ArialMT-6f"/>
      <use x="77.83203125" xlink:href="#ArialMT-67"/>
      <use x="133.447265625" xlink:href="#ArialMT-31"/>
      <use x="189.0625" xlink:href="#ArialMT-30"/>
      <use x="244.677734375" xlink:href="#ArialMT-20"/>
      <use x="272.4609375" xlink:href="#ArialMT-6f"/>
      <use x="328.076171875" xlink:href="#ArialMT-66"/>
      <use x="355.859375" xlink:href="#ArialMT-20"/>
      <use x="383.642578125" xlink:href="#ArialMT-28"/>
      <use x="416.943359375" xlink:href="#ArialMT-23"/>
      <use x="472.55859375" xlink:href="#ArialMT-20"/>
      <use x="500.341796875" xlink:href="#ArialMT-66"/>
      <use x="528.125" xlink:href="#ArialMT-2d"/>
      <use x="561.42578125" xlink:href="#ArialMT-65"/>
      <use x="617.041015625" xlink:href="#ArialMT-76"/>
      <use x="667.041015625" xlink:href="#ArialMT-61"/>
      <use x="722.65625" xlink:href="#ArialMT-6c"/>
      <use x="744.873046875" xlink:href="#ArialMT-73"/>
      <use x="794.873046875" xlink:href="#ArialMT-20"/>
      <use x="822.65625" xlink:href="#ArialMT-2f"/>
      <use x="850.439453125" xlink:href="#ArialMT-20"/>
      <use x="878.22265625" xlink:href="#ArialMT-64"/>
      <use x="933.837890625" xlink:href="#ArialMT-69"/>
      <use x="956.0546875" xlink:href="#ArialMT-6d"/>
      <use x="1039.35546875" xlink:href="#ArialMT-65"/>
      <use x="1094.97070312" xlink:href="#ArialMT-6e"/>
      <use x="1150.5859375" xlink:href="#ArialMT-73"/>
      <use x="1200.5859375" xlink:href="#ArialMT-69"/>
      <use x="1222.80273438" xlink:href="#ArialMT-6f"/>
      <use x="1278.41796875" xlink:href="#ArialMT-6e"/>
      <use x="1334.03320312" xlink:href="#ArialMT-29"/>
     </g>
    </g>
   </g>
   <g id="matplotlib.axis_2">
    <g id="ytick_1">
     <g id="line2d_94">
      <path clip-path="url(#p505825120b)" d="
M127.2 358.524
L573.6 358.524" style="fill:none;stroke:#000000;stroke-dasharray:1.000000,3.000000;stroke-dashoffset:0.0;stroke-width:0.5;"/>
     </g>
     <g id="line2d_95">
      <defs>
       <path d="
M0 0
L4 0" id="m728421d6d4" style="stroke:#000000;stroke-width:0.5;"/>
      </defs>
      <g>
       <use style="stroke:#000000;stroke-width:0.5;" x="127.2" xlink:href="#m728421d6d4" y="358.523530322"/>
      </g>
     </g>
     <g id="line2d_96">
      <defs>
       <path d="
M0 0
L-4 0" id="mcb0005524f" style="stroke:#000000;stroke-width:0.5;"/>
      </defs>
      <g>
       <use style="stroke:#000000;stroke-width:0.5;" x="573.6" xlink:href="#mcb0005524f" y="358.523530322"/>
      </g>
     </g>
     <g id="text_6">
      <!-- 0.0 -->
      <defs>
       <path d="
M9.07812 0
L9.07812 10.0156
L19.0938 10.0156
L19.0938 0
z
" id="ArialMT-2e"/>
      </defs>
      <g transform="translate(97.1875 363.693842822)scale(0.2 -0.2)">
       <use xlink:href="#ArialMT-30"/>
       <use x="55.615234375" xlink:href="#ArialMT-2e"/>
       <use x="83.3984375" xlink:href="#ArialMT-30"/>
      </g>
     </g>
    </g>
    <g id="ytick_2">
     <g id="line2d_97">
      <path clip-path="url(#p505825120b)" d="
M127.2 290.088
L573.6 290.088" style="fill:none;stroke:#000000;stroke-dasharray:1.000000,3.000000;stroke-dashoffset:0.0;stroke-width:0.5;"/>
     </g>
     <g id="line2d_98">
      <g>
       <use style="stroke:#000000;stroke-width:0.5;" x="127.2" xlink:href="#m728421d6d4" y="290.087886757"/>
      </g>
     </g>
     <g id="line2d_99">
      <g>
       <use style="stroke:#000000;stroke-width:0.5;" x="573.6" xlink:href="#mcb0005524f" y="290.087886757"/>
      </g>
     </g>
     <g id="text_7">
      <!-- 0.2 -->
      <g transform="translate(97.284375 295.258199257)scale(0.2 -0.2)">
       <use xlink:href="#ArialMT-30"/>
       <use x="55.615234375" xlink:href="#ArialMT-2e"/>
       <use x="83.3984375" xlink:href="#ArialMT-32"/>
      </g>
     </g>
    </g>
    <g id="ytick_3">
     <g id="line2d_100">
      <path clip-path="url(#p505825120b)" d="
M127.2 221.652
L573.6 221.652" style="fill:none;stroke:#000000;stroke-dasharray:1.000000,3.000000;stroke-dashoffset:0.0;stroke-width:0.5;"/>
     </g>
     <g id="line2d_101">
      <g>
       <use style="stroke:#000000;stroke-width:0.5;" x="127.2" xlink:href="#m728421d6d4" y="221.652243193"/>
      </g>
     </g>
     <g id="line2d_102">
      <g>
       <use style="stroke:#000000;stroke-width:0.5;" x="573.6" xlink:href="#mcb0005524f" y="221.652243193"/>
      </g>
     </g>
     <g id="text_8">
      <!-- 0.4 -->
      <defs>
       <path d="
M32.3281 0
L32.3281 17.1406
L1.26562 17.1406
L1.26562 25.2031
L33.9375 71.5781
L41.1094 71.5781
L41.1094 25.2031
L50.7812 25.2031
L50.7812 17.1406
L41.1094 17.1406
L41.1094 0
z

M32.3281 25.2031
L32.3281 57.4688
L9.90625 25.2031
z
" id="ArialMT-34"/>
      </defs>
      <g transform="translate(97.196875 226.822555693)scale(0.2 -0.2)">
       <use xlink:href="#ArialMT-30"/>
       <use x="55.615234375" xlink:href="#ArialMT-2e"/>
       <use x="83.3984375" xlink:href="#ArialMT-34"/>
      </g>
     </g>
    </g>
    <g id="ytick_4">
     <g id="line2d_103">
      <path clip-path="url(#p505825120b)" d="
M127.2 153.217
L573.6 153.217" style="fill:none;stroke:#000000;stroke-dasharray:1.000000,3.000000;stroke-dashoffset:0.0;stroke-width:0.5;"/>
     </g>
     <g id="line2d_104">
      <g>
       <use style="stroke:#000000;stroke-width:0.5;" x="127.2" xlink:href="#m728421d6d4" y="153.216599629"/>
      </g>
     </g>
     <g id="line2d_105">
      <g>
       <use style="stroke:#000000;stroke-width:0.5;" x="573.6" xlink:href="#mcb0005524f" y="153.216599629"/>
      </g>
     </g>
     <g id="text_9">
      <!-- 0.6 -->
      <defs>
       <path d="
M49.75 54.0469
L41.0156 53.375
Q39.8438 58.5469 37.7031 60.8906
Q34.125 64.6562 28.9062 64.6562
Q24.7031 64.6562 21.5312 62.3125
Q17.3906 59.2812 14.9844 53.4688
Q12.5938 47.6562 12.5 36.9219
Q15.6719 41.75 20.2656 44.0938
Q24.8594 46.4375 29.8906 46.4375
Q38.6719 46.4375 44.8438 39.9688
Q51.0312 33.5 51.0312 23.25
Q51.0312 16.5 48.125 10.7188
Q45.2188 4.9375 40.1406 1.85938
Q35.0625 -1.21875 28.6094 -1.21875
Q17.625 -1.21875 10.6875 6.85938
Q3.76562 14.9375 3.76562 33.5
Q3.76562 54.25 11.4219 63.6719
Q18.1094 71.875 29.4375 71.875
Q37.8906 71.875 43.2812 67.1406
Q48.6875 62.4062 49.75 54.0469
M13.875 23.1875
Q13.875 18.6562 15.7969 14.5
Q17.7188 10.3594 21.1875 8.17188
Q24.6562 6 28.4688 6
Q34.0312 6 38.0312 10.4844
Q42.0469 14.9844 42.0469 22.7031
Q42.0469 30.125 38.0781 34.3906
Q34.125 38.6719 28.125 38.6719
Q22.1719 38.6719 18.0156 34.3906
Q13.875 30.125 13.875 23.1875" id="ArialMT-36"/>
      </defs>
      <g transform="translate(97.146875 158.386912129)scale(0.2 -0.2)">
       <use xlink:href="#ArialMT-30"/>
       <use x="55.615234375" xlink:href="#ArialMT-2e"/>
       <use x="83.3984375" xlink:href="#ArialMT-36"/>
      </g>
     </g>
    </g>
    <g id="ytick_5">
     <g id="line2d_106">
      <path clip-path="url(#p505825120b)" d="
M127.2 84.781
L573.6 84.781" style="fill:none;stroke:#000000;stroke-dasharray:1.000000,3.000000;stroke-dashoffset:0.0;stroke-width:0.5;"/>
     </g>
     <g id="line2d_107">
      <g>
       <use style="stroke:#000000;stroke-width:0.5;" x="127.2" xlink:href="#m728421d6d4" y="84.7809560644"/>
      </g>
     </g>
     <g id="line2d_108">
      <g>
       <use style="stroke:#000000;stroke-width:0.5;" x="573.6" xlink:href="#mcb0005524f" y="84.7809560644"/>
      </g>
     </g>
     <g id="text_10">
      <!-- 0.8 -->
      <defs>
       <path d="
M17.6719 38.8125
Q12.2031 40.8281 9.5625 44.5312
Q6.9375 48.25 6.9375 53.4219
Q6.9375 61.2344 12.5469 66.5469
Q18.1719 71.875 27.4844 71.875
Q36.8594 71.875 42.5781 66.4219
Q48.2969 60.9844 48.2969 53.1719
Q48.2969 48.1875 45.6719 44.5
Q43.0625 40.8281 37.75 38.8125
Q44.3438 36.6719 47.7812 31.875
Q51.2188 27.0938 51.2188 20.4531
Q51.2188 11.2812 44.7188 5.03125
Q38.2344 -1.21875 27.6406 -1.21875
Q17.0469 -1.21875 10.5469 5.04688
Q4.04688 11.3281 4.04688 20.7031
Q4.04688 27.6875 7.59375 32.3906
Q11.1406 37.1094 17.6719 38.8125
M15.9219 53.7188
Q15.9219 48.6406 19.1875 45.4062
Q22.4688 42.1875 27.6875 42.1875
Q32.7656 42.1875 36.0156 45.375
Q39.2656 48.5781 39.2656 53.2188
Q39.2656 58.0625 35.9062 61.3594
Q32.5625 64.6562 27.5938 64.6562
Q22.5625 64.6562 19.2344 61.4219
Q15.9219 58.2031 15.9219 53.7188
M13.0938 20.6562
Q13.0938 16.8906 14.875 13.375
Q16.6562 9.85938 20.1719 7.92188
Q23.6875 6 27.7344 6
Q34.0312 6 38.125 10.0469
Q42.2344 14.1094 42.2344 20.3594
Q42.2344 26.7031 38.0156 30.8594
Q33.7969 35.0156 27.4375 35.0156
Q21.2344 35.0156 17.1562 30.9062
Q13.0938 26.8125 13.0938 20.6562" id="ArialMT-38"/>
      </defs>
      <g transform="translate(97.109375 89.9512685644)scale(0.2 -0.2)">
       <use xlink:href="#ArialMT-30"/>
       <use x="55.615234375" xlink:href="#ArialMT-2e"/>
       <use x="83.3984375" xlink:href="#ArialMT-38"/>
      </g>
     </g>
    </g>
    <g id="ytick_6">
     <g id="line2d_109">
      <path clip-path="url(#p505825120b)" d="
M127.2 16.3453
L573.6 16.3453" style="fill:none;stroke:#000000;stroke-dasharray:1.000000,3.000000;stroke-dashoffset:0.0;stroke-width:0.5;"/>
     </g>
     <g id="line2d_110">
      <g>
       <use style="stroke:#000000;stroke-width:0.5;" x="127.2" xlink:href="#m728421d6d4" y="16.3453125"/>
      </g>
     </g>
     <g id="line2d_111">
      <g>
       <use style="stroke:#000000;stroke-width:0.5;" x="573.6" xlink:href="#mcb0005524f" y="16.3453125"/>
      </g>
     </g>
     <g id="text_11">
      <!-- 1.0 -->
      <g transform="translate(98.534375 21.515625)scale(0.2 -0.2)">
       <use xlink:href="#ArialMT-31"/>
       <use x="55.615234375" xlink:href="#ArialMT-2e"/>
       <use x="83.3984375" xlink:href="#ArialMT-30"/>
      </g>
     </g>
    </g>
    <g id="text_12">
     <!-- Proportion of function+target pairs -->
     <defs>
      <path d="
M40.4375 19
L49.0781 17.875
Q47.6562 8.9375 41.8125 3.875
Q35.9844 -1.17188 27.4844 -1.17188
Q16.8438 -1.17188 10.375 5.78125
Q3.90625 12.75 3.90625 25.7344
Q3.90625 34.125 6.6875 40.4219
Q9.46875 46.7344 15.1562 49.875
Q20.8438 53.0312 27.5469 53.0312
Q35.9844 53.0312 41.3594 48.75
Q46.7344 44.4844 48.25 36.625
L39.7031 35.2969
Q38.4844 40.5312 35.375 43.1562
Q32.2812 45.7969 27.875 45.7969
Q21.2344 45.7969 17.0781 41.0312
Q12.9375 36.2812 12.9375 25.9844
Q12.9375 15.5312 16.9375 10.7969
Q20.9531 6.0625 27.3906 6.0625
Q32.5625 6.0625 36.0312 9.23438
Q39.5 12.4062 40.4375 19" id="ArialMT-63"/>
      <path d="
M25.7812 7.85938
L27.0469 0.09375
Q23.3438 -0.6875 20.4062 -0.6875
Q15.625 -0.6875 12.9844 0.828125
Q10.3594 2.34375 9.28125 4.8125
Q8.20312 7.28125 8.20312 15.1875
L8.20312 45.0156
L1.76562 45.0156
L1.76562 51.8594
L8.20312 51.8594
L8.20312 64.7031
L16.9375 69.9688
L16.9375 51.8594
L25.7812 51.8594
L25.7812 45.0156
L16.9375 45.0156
L16.9375 14.7031
Q16.9375 10.9375 17.4062 9.85938
Q17.875 8.79688 18.9219 8.15625
Q19.9688 7.51562 21.9219 7.51562
Q23.3906 7.51562 25.7812 7.85938" id="ArialMT-74"/>
      <path d="
M40.5781 0
L40.5781 7.625
Q34.5156 -1.17188 24.125 -1.17188
Q19.5312 -1.17188 15.5469 0.578125
Q11.5781 2.34375 9.64062 5
Q7.71875 7.67188 6.9375 11.5312
Q6.39062 14.1094 6.39062 19.7344
L6.39062 51.8594
L15.1875 51.8594
L15.1875 23.0938
Q15.1875 16.2188 15.7188 13.8125
Q16.5469 10.3594 19.2344 8.375
Q21.9219 6.39062 25.875 6.39062
Q29.8281 6.39062 33.2969 8.42188
Q36.7656 10.4531 38.2031 13.9375
Q39.6562 17.4375 39.6562 24.0781
L39.6562 51.8594
L48.4375 51.8594
L48.4375 0
z
" id="ArialMT-75"/>
      <path d="
M7.71875 0
L7.71875 71.5781
L34.7188 71.5781
Q41.8438 71.5781 45.6094 70.9062
Q50.875 70.0156 54.4375 67.5469
Q58.0156 65.0938 60.1875 60.6406
Q62.3594 56.2031 62.3594 50.875
Q62.3594 41.75 56.5469 35.4219
Q50.7344 29.1094 35.5469 29.1094
L17.1875 29.1094
L17.1875 0
z

M17.1875 37.5469
L35.6875 37.5469
Q44.875 37.5469 48.7344 40.9688
Q52.5938 44.3906 52.5938 50.5938
Q52.5938 55.0781 50.3125 58.2656
Q48.0469 61.4688 44.3438 62.5
Q41.9375 63.1406 35.5 63.1406
L17.1875 63.1406
z
" id="ArialMT-50"/>
      <path d="
M6.59375 -19.875
L6.59375 51.8594
L14.5938 51.8594
L14.5938 45.125
Q17.4375 49.0781 21 51.0469
Q24.5625 53.0312 29.6406 53.0312
Q36.2812 53.0312 41.3594 49.6094
Q46.4375 46.1875 49.0156 39.9531
Q51.6094 33.7344 51.6094 26.3125
Q51.6094 18.3594 48.75 11.9844
Q45.9062 5.60938 40.4531 2.21875
Q35.0156 -1.17188 29 -1.17188
Q24.6094 -1.17188 21.1094 0.6875
Q17.625 2.54688 15.375 5.375
L15.375 -19.875
z

M14.5469 25.6406
Q14.5469 15.625 18.5938 10.8438
Q22.6562 6.0625 28.4219 6.0625
Q34.2812 6.0625 38.4531 11.0156
Q42.625 15.9688 42.625 26.375
Q42.625 36.2812 38.5469 41.2031
Q34.4688 46.1406 28.8125 46.1406
Q23.1875 46.1406 18.8594 40.8906
Q14.5469 35.6406 14.5469 25.6406" id="ArialMT-70"/>
      <path d="
M25.0469 11.5781
L25.0469 31.2031
L5.5625 31.2031
L5.5625 39.4062
L25.0469 39.4062
L25.0469 58.8906
L33.3438 58.8906
L33.3438 39.4062
L52.8281 39.4062
L52.8281 31.2031
L33.3438 31.2031
L33.3438 11.5781
z
" id="ArialMT-2b"/>
      <path d="
M6.5 0
L6.5 51.8594
L14.4062 51.8594
L14.4062 44
Q17.4375 49.5156 20 51.2656
Q22.5625 53.0312 25.6406 53.0312
Q30.0781 53.0312 34.6719 50.2031
L31.6406 42.0469
Q28.4219 43.9531 25.2031 43.9531
Q22.3125 43.9531 20.0156 42.2188
Q17.7188 40.4844 16.75 37.4062
Q15.2812 32.7188 15.2812 27.1562
L15.2812 0
z
" id="ArialMT-72"/>
     </defs>
     <g transform="translate(88.3209375 321.197436572)rotate(-90.0)scale(0.18 -0.18)">
      <use xlink:href="#ArialMT-50"/>
      <use x="66.69921875" xlink:href="#ArialMT-72"/>
      <use x="100.0" xlink:href="#ArialMT-6f"/>
      <use x="155.615234375" xlink:href="#ArialMT-70"/>
      <use x="211.23046875" xlink:href="#ArialMT-6f"/>
      <use x="266.845703125" xlink:href="#ArialMT-72"/>
      <use x="300.146484375" xlink:href="#ArialMT-74"/>
      <use x="327.9296875" xlink:href="#ArialMT-69"/>
      <use x="350.146484375" xlink:href="#ArialMT-6f"/>
      <use x="405.76171875" xlink:href="#ArialMT-6e"/>
      <use x="461.376953125" xlink:href="#ArialMT-20"/>
      <use x="489.16015625" xlink:href="#ArialMT-6f"/>
      <use x="544.775390625" xlink:href="#ArialMT-66"/>
      <use x="572.55859375" xlink:href="#ArialMT-20"/>
      <use x="600.341796875" xlink:href="#ArialMT-66"/>
      <use x="628.125" xlink:href="#ArialMT-75"/>
      <use x="683.740234375" xlink:href="#ArialMT-6e"/>
      <use x="739.35546875" xlink:href="#ArialMT-63"/>
      <use x="789.35546875" xlink:href="#ArialMT-74"/>
      <use x="817.138671875" xlink:href="#ArialMT-69"/>
      <use x="839.35546875" xlink:href="#ArialMT-6f"/>
      <use x="894.970703125" xlink:href="#ArialMT-6e"/>
      <use x="950.5859375" xlink:href="#ArialMT-2b"/>
      <use x="1008.984375" xlink:href="#ArialMT-74"/>
      <use x="1036.76757812" xlink:href="#ArialMT-61"/>
      <use x="1092.3828125" xlink:href="#ArialMT-72"/>
      <use x="1125.68359375" xlink:href="#ArialMT-67"/>
      <use x="1181.29882812" xlink:href="#ArialMT-65"/>
      <use x="1236.9140625" xlink:href="#ArialMT-74"/>
      <use x="1264.69726562" xlink:href="#ArialMT-20"/>
      <use x="1292.48046875" xlink:href="#ArialMT-70"/>
      <use x="1348.09570312" xlink:href="#ArialMT-61"/>
      <use x="1403.7109375" xlink:href="#ArialMT-69"/>
      <use x="1425.92773438" xlink:href="#ArialMT-72"/>
      <use x="1459.22851562" xlink:href="#ArialMT-73"/>
     </g>
    </g>
   </g>
   <g id="patch_3">
    <path d="
M127.2 12.9235
L573.6 12.9235" style="fill:none;stroke:#000000;"/>
   </g>
   <g id="patch_4">
    <path d="
M573.6 358.524
L573.6 12.9235" style="fill:none;stroke:#000000;"/>
   </g>
   <g id="patch_5">
    <path d="
M127.2 358.524
L573.6 358.524" style="fill:none;stroke:#000000;"/>
   </g>
   <g id="patch_6">
    <path d="
M127.2 358.524
L127.2 12.9235" style="fill:none;stroke:#000000;"/>
   </g>
   <g id="text_13">
    <!-- 10-D -->
    <defs>
     <path d="
M7.71875 0
L7.71875 71.5781
L32.375 71.5781
Q40.7188 71.5781 45.125 70.5625
Q51.2656 69.1406 55.6094 65.4375
Q61.2812 60.6406 64.0781 53.1875
Q66.8906 45.75 66.8906 36.1875
Q66.8906 28.0312 64.9844 21.7344
Q63.0938 15.4375 60.1094 11.2969
Q57.125 7.17188 53.5781 4.79688
Q50.0469 2.4375 45.0469 1.21875
Q40.0469 0 33.5469 0
z

M17.1875 8.45312
L32.4688 8.45312
Q39.5469 8.45312 43.5781 9.76562
Q47.6094 11.0781 50 13.4844
Q53.375 16.8438 55.25 22.5312
Q57.125 28.2188 57.125 36.3281
Q57.125 47.5625 53.4375 53.5938
Q49.75 59.625 44.4844 61.6719
Q40.6719 63.1406 32.2344 63.1406
L17.1875 63.1406
z
" id="ArialMT-44"/>
    </defs>
    <g transform="translate(534.0 355.55770034)scale(0.15 -0.15)">
     <use xlink:href="#ArialMT-31"/>
     <use x="55.615234375" xlink:href="#ArialMT-30"/>
     <use x="111.23046875" xlink:href="#ArialMT-2d"/>
     <use x="144.53125" xlink:href="#ArialMT-44"/>
    </g>
   </g>
   <g id="text_14">
    <!-- 2-D -->
    <g transform="translate(534.0 246.060670637)scale(0.15 -0.15)">
     <use xlink:href="#ArialMT-32"/>
     <use x="55.615234375" xlink:href="#ArialMT-2d"/>
     <use x="88.916015625" xlink:href="#ArialMT-44"/>
    </g>
   </g>
   <g id="text_15">
    <!-- 5-D -->
    <defs>
     <path d="
M4.15625 18.75
L13.375 19.5312
Q14.4062 12.7969 18.1406 9.39062
Q21.875 6 27.1562 6
Q33.5 6 37.8906 10.7812
Q42.2812 15.5781 42.2812 23.4844
Q42.2812 31 38.0625 35.3438
Q33.8438 39.7031 27 39.7031
Q22.75 39.7031 19.3281 37.7656
Q15.9219 35.8438 13.9688 32.7656
L5.71875 33.8438
L12.6406 70.6094
L48.25 70.6094
L48.25 62.2031
L19.6719 62.2031
L15.8281 42.9688
Q22.2656 47.4688 29.3438 47.4688
Q38.7188 47.4688 45.1562 40.9688
Q51.6094 34.4688 51.6094 24.2656
Q51.6094 14.5469 45.9531 7.46875
Q39.0625 -1.21875 27.1562 -1.21875
Q17.3906 -1.21875 11.2031 4.25
Q5.03125 9.71875 4.15625 18.75" id="ArialMT-35"/>
    </defs>
    <g transform="translate(534.0 136.563640934)scale(0.15 -0.15)">
     <use xlink:href="#ArialMT-35"/>
     <use x="55.615234375" xlink:href="#ArialMT-2d"/>
     <use x="88.916015625" xlink:href="#ArialMT-44"/>
    </g>
   </g>
   <g id="text_16">
    <!-- 3-D -->
    <g transform="translate(534.0 27.0666112314)scale(0.15 -0.15)">
     <use xlink:href="#ArialMT-33"/>
     <use x="55.615234375" xlink:href="#ArialMT-2d"/>
     <use x="88.916015625" xlink:href="#ArialMT-44"/>
    </g>
   </g>
   <g id="text_17">
    <!-- bbob - f6-f9 -->
    <defs>
     <path d="
M14.7031 0
L6.54688 0
L6.54688 71.5781
L15.3281 71.5781
L15.3281 46.0469
Q20.9062 53.0312 29.5469 53.0312
Q34.3281 53.0312 38.5938 51.0938
Q42.875 49.1719 45.625 45.6719
Q48.3906 42.1875 49.9531 37.25
Q51.5156 32.3281 51.5156 26.7031
Q51.5156 13.375 44.9219 6.09375
Q38.3281 -1.17188 29.1094 -1.17188
Q19.9219 -1.17188 14.7031 6.5
z

M14.5938 26.3125
Q14.5938 17 17.1406 12.8438
Q21.2969 6.0625 28.375 6.0625
Q34.125 6.0625 38.3281 11.0625
Q42.5312 16.0625 42.5312 25.9844
Q42.5312 36.1406 38.5 40.9688
Q34.4688 45.7969 28.7656 45.7969
Q23 45.7969 18.7969 40.7969
Q14.5938 35.7969 14.5938 26.3125" id="ArialMT-62"/>
     <path d="
M5.46875 16.5469
L13.9219 17.3281
Q14.9844 11.375 18.0156 8.6875
Q21.0469 6 25.7812 6
Q29.8281 6 32.875 7.85938
Q35.9375 9.71875 37.8906 12.8125
Q39.8438 15.9219 41.1562 21.1875
Q42.4844 26.4688 42.4844 31.9375
Q42.4844 32.5156 42.4375 33.6875
Q39.7969 29.5 35.2344 26.875
Q30.6719 24.2656 25.3438 24.2656
Q16.4531 24.2656 10.2969 30.7031
Q4.15625 37.1562 4.15625 47.7031
Q4.15625 58.5938 10.5781 65.2344
Q17 71.875 26.6562 71.875
Q33.6406 71.875 39.4219 68.1094
Q45.2188 64.3594 48.2188 57.3906
Q51.2188 50.4375 51.2188 37.25
Q51.2188 23.5312 48.2344 15.4062
Q45.2656 7.28125 39.375 3.03125
Q33.5 -1.21875 25.5938 -1.21875
Q17.1875 -1.21875 11.8594 3.4375
Q6.54688 8.10938 5.46875 16.5469
M41.4531 48.1406
Q41.4531 55.7188 37.4219 60.1562
Q33.4062 64.5938 27.7344 64.5938
Q21.875 64.5938 17.5312 59.8125
Q13.1875 55.0312 13.1875 47.4062
Q13.1875 40.5781 17.3125 36.2969
Q21.4375 32.0312 27.4844 32.0312
Q33.5938 32.0312 37.5156 36.2969
Q41.4531 40.5781 41.4531 48.1406" id="ArialMT-39"/>
    </defs>
    <g transform="translate(131.664 31.7604459468)scale(0.1666 -0.1666)">
     <use xlink:href="#ArialMT-62"/>
     <use x="55.615234375" xlink:href="#ArialMT-62"/>
     <use x="111.23046875" xlink:href="#ArialMT-6f"/>
     <use x="166.845703125" xlink:href="#ArialMT-62"/>
     <use x="222.4609375" xlink:href="#ArialMT-20"/>
     <use x="250.244140625" xlink:href="#ArialMT-2d"/>
     <use x="283.544921875" xlink:href="#ArialMT-20"/>
     <use x="311.328125" xlink:href="#ArialMT-66"/>
     <use x="339.111328125" xlink:href="#ArialMT-36"/>
     <use x="394.7265625" xlink:href="#ArialMT-2d"/>
     <use x="428.02734375" xlink:href="#ArialMT-66"/>
     <use x="455.810546875" xlink:href="#ArialMT-39"/>
    </g>
    <!-- 31 target RLs/dim: 0.5..50 -->
    <defs>
     <path d="
M7.85938 0
L7.85938 71.5781
L39.5938 71.5781
Q49.1719 71.5781 54.1406 69.6406
Q59.125 67.7188 62.1094 62.8281
Q65.0938 57.9531 65.0938 52.0469
Q65.0938 44.4375 60.1562 39.2031
Q55.2188 33.9844 44.9219 32.5625
Q48.6875 30.7656 50.6406 29
Q54.7812 25.2031 58.5 19.4844
L70.9531 0
L59.0312 0
L49.5625 14.8906
Q45.4062 21.3438 42.7188 24.75
Q40.0469 28.1719 37.9219 29.5312
Q35.7969 30.9062 33.5938 31.4531
Q31.9844 31.7812 28.3281 31.7812
L17.3281 31.7812
L17.3281 0
z

M17.3281 39.9844
L37.7031 39.9844
Q44.1875 39.9844 47.8438 41.3281
Q51.5156 42.6719 53.4219 45.625
Q55.3281 48.5781 55.3281 52.0469
Q55.3281 57.125 51.6406 60.3906
Q47.9531 63.6719 39.9844 63.6719
L17.3281 63.6719
z
" id="ArialMT-52"/>
     <path d="
M9.03125 41.8438
L9.03125 51.8594
L19.0469 51.8594
L19.0469 41.8438
z

M9.03125 0
L9.03125 10.0156
L19.0469 10.0156
L19.0469 0
z
" id="ArialMT-3a"/>
     <path d="
M7.32812 0
L7.32812 71.5781
L16.7969 71.5781
L16.7969 8.45312
L52.0469 8.45312
L52.0469 0
z
" id="ArialMT-4c"/>
    </defs>
    <g transform="translate(131.664 49.6251721968)scale(0.1666 -0.1666)">
     <use xlink:href="#ArialMT-33"/>
     <use x="55.615234375" xlink:href="#ArialMT-31"/>
     <use x="111.23046875" xlink:href="#ArialMT-20"/>
     <use x="139.013671875" xlink:href="#ArialMT-74"/>
     <use x="166.796875" xlink:href="#ArialMT-61"/>
     <use x="222.412109375" xlink:href="#ArialMT-72"/>
     <use x="255.712890625" xlink:href="#ArialMT-67"/>
     <use x="311.328125" xlink:href="#ArialMT-65"/>
     <use x="366.943359375" xlink:href="#ArialMT-74"/>
     <use x="394.7265625" xlink:href="#ArialMT-20"/>
     <use x="422.509765625" xlink:href="#ArialMT-52"/>
     <use x="494.7265625" xlink:href="#ArialMT-4c"/>
     <use x="550.341796875" xlink:href="#ArialMT-73"/>
     <use x="600.341796875" xlink:href="#ArialMT-2f"/>
     <use x="628.125" xlink:href="#ArialMT-64"/>
     <use x="683.740234375" xlink:href="#ArialMT-69"/>
     <use x="705.95703125" xlink:href="#ArialMT-6d"/>
     <use x="789.2578125" xlink:href="#ArialMT-3a"/>
     <use x="817.041015625" xlink:href="#ArialMT-20"/>
     <use x="844.82421875" xlink:href="#ArialMT-30"/>
     <use x="900.439453125" xlink:href="#ArialMT-2e"/>
     <use x="928.22265625" xlink:href="#ArialMT-35"/>
     <use x="983.837890625" xlink:href="#ArialMT-2e"/>
     <use x="1011.62109375" xlink:href="#ArialMT-2e"/>
     <use x="1039.40429688" xlink:href="#ArialMT-35"/>
     <use x="1095.01953125" xlink:href="#ArialMT-30"/>
    </g>
    <!--    from refalgs/best2009-bbob.tar.gz -->
    <defs>
     <path d="
M1.95312 0
L1.95312 7.125
L34.9688 45.0156
Q29.3438 44.7344 25.0469 44.7344
L3.90625 44.7344
L3.90625 51.8594
L46.2969 51.8594
L46.2969 46.0469
L18.2188 13.1406
L12.7969 7.125
Q18.7031 7.5625 23.875 7.5625
L47.8594 7.5625
L47.8594 0
z
" id="ArialMT-7a"/>
    </defs>
    <g transform="translate(131.664 67.6851328218)scale(0.1666 -0.1666)">
     <use xlink:href="#ArialMT-20"/>
     <use x="27.783203125" xlink:href="#ArialMT-20"/>
     <use x="55.56640625" xlink:href="#ArialMT-20"/>
     <use x="83.349609375" xlink:href="#ArialMT-66"/>
     <use x="111.1328125" xlink:href="#ArialMT-72"/>
     <use x="144.43359375" xlink:href="#ArialMT-6f"/>
     <use x="200.048828125" xlink:href="#ArialMT-6d"/>
     <use x="283.349609375" xlink:href="#ArialMT-20"/>
     <use x="311.1328125" xlink:href="#ArialMT-72"/>
     <use x="344.43359375" xlink:href="#ArialMT-65"/>
     <use x="400.048828125" xlink:href="#ArialMT-66"/>
     <use x="427.83203125" xlink:href="#ArialMT-61"/>
     <use x="483.447265625" xlink:href="#ArialMT-6c"/>
     <use x="505.6640625" xlink:href="#ArialMT-67"/>
     <use x="561.279296875" xlink:href="#ArialMT-73"/>
     <use x="611.279296875" xlink:href="#ArialMT-2f"/>
     <use x="639.0625" xlink:href="#ArialMT-62"/>
     <use x="694.677734375" xlink:href="#ArialMT-65"/>
     <use x="750.29296875" xlink:href="#ArialMT-73"/>
     <use x="800.29296875" xlink:href="#ArialMT-74"/>
     <use x="828.076171875" xlink:href="#ArialMT-32"/>
     <use x="883.69140625" xlink:href="#ArialMT-30"/>
     <use x="939.306640625" xlink:href="#ArialMT-30"/>
     <use x="994.921875" xlink:href="#ArialMT-39"/>
     <use x="1050.53710938" xlink:href="#ArialMT-2d"/>
     <use x="1083.83789062" xlink:href="#ArialMT-62"/>
     <use x="1139.453125" xlink:href="#ArialMT-62"/>
     <use x="1195.06835938" xlink:href="#ArialMT-6f"/>
     <use x="1250.68359375" xlink:href="#ArialMT-62"/>
     <use x="1306.29882812" xlink:href="#ArialMT-2e"/>
     <use x="1334.08203125" xlink:href="#ArialMT-74"/>
     <use x="1361.86523438" xlink:href="#ArialMT-61"/>
     <use x="1417.48046875" xlink:href="#ArialMT-72"/>
     <use x="1445.28125" xlink:href="#ArialMT-2e"/>
     <use x="1473.06445312" xlink:href="#ArialMT-67"/>
     <use x="1528.6796875" xlink:href="#ArialMT-7a"/>
    </g>
    <!-- 14 instances -->
    <g transform="translate(131.664 85.5014409468)scale(0.1666 -0.1666)">
     <use xlink:href="#ArialMT-31"/>
     <use x="55.615234375" xlink:href="#ArialMT-34"/>
     <use x="111.23046875" xlink:href="#ArialMT-20"/>
     <use x="139.013671875" xlink:href="#ArialMT-69"/>
     <use x="161.23046875" xlink:href="#ArialMT-6e"/>
     <use x="216.845703125" xlink:href="#ArialMT-73"/>
     <use x="266.845703125" xlink:href="#ArialMT-74"/>
     <use x="294.62890625" xlink:href="#ArialMT-61"/>
     <use x="350.244140625" xlink:href="#ArialMT-6e"/>
     <use x="405.859375" xlink:href="#ArialMT-63"/>
     <use x="455.859375" xlink:href="#ArialMT-65"/>
     <use x="511.474609375" xlink:href="#ArialMT-73"/>
    </g>
   </g>
   <g id="text_18">
    <!-- v2.0.1 -->
    <g style="fill:#808080;" transform="translate(337.76171875 353.080030322)scale(0.1 -0.1)">
     <use xlink:href="#ArialMT-76"/>
     <use x="50.0" xlink:href="#ArialMT-32"/>
     <use x="105.615234375" xlink:href="#ArialMT-2e"/>
     <use x="133.3984375" xlink:href="#ArialMT-30"/>
     <use x="189.013671875" xlink:href="#ArialMT-2e"/>
     <use x="216.796875" xlink:href="#ArialMT-31"/>
    </g>
   </g>
  </g>
 </g>
 <defs>
  <clipPath id="p505825120b">
   <rect height="345.6" width="446.4" x="127.2" y="12.9235303218"/>
  </clipPath>
 </defs>
</svg>
