<?xml version="1.0" encoding="utf-8" standalone="no"?>
<!DOCTYPE svg PUBLIC "-//W3C//DTD SVG 1.1//EN"
  "http://www.w3.org/Graphics/SVG/1.1/DTD/svg11.dtd">
<!-- Created with matplotlib (http://matplotlib.org/) -->
<svg height="414pt" version="1.1" viewBox="0 0 546 414" width="546pt" xmlns="http://www.w3.org/2000/svg" xmlns:xlink="http://www.w3.org/1999/xlink">
 <defs>
  <style type="text/css">
*{stroke-linecap:butt;stroke-linejoin:round;}
  </style>
 </defs>
 <g id="figure_1">
  <g id="patch_1">
   <path d="
M0 414.924
L546.796 414.924
L546.796 0
L0 0
z
" style="fill:#ffffff;"/>
  </g>
  <g id="axes_1">
   <g id="patch_2">
    <path d="
M91.0764 358.524
L537.476 358.524
L537.476 12.9235
L91.0764 12.9235
z
" style="fill:#ffffff;"/>
   </g>
   <g id="line2d_1">
    <defs>
     <path d="
M0 1.5
C0.397805 1.5 0.77937 1.34195 1.06066 1.06066
C1.34195 0.77937 1.5 0.397805 1.5 0
C1.5 -0.397805 1.34195 -0.77937 1.06066 -1.06066
C0.77937 -1.34195 0.397805 -1.5 0 -1.5
C-0.397805 -1.5 -0.77937 -1.34195 -1.06066 -1.06066
C-1.34195 -0.77937 -1.5 -0.397805 -1.5 0
C-1.5 0.397805 -1.34195 0.77937 -1.06066 1.06066
C-0.77937 1.34195 -0.397805 1.5 0 1.5
z
" id="m977c291b42" style="stroke:#00bfbf;stroke-width:0.5;"/>
    </defs>
    <g>
     <use style="fill:#00bfbf;stroke:#00bfbf;stroke-width:0.5;" x="536.056303463" xlink:href="#m977c291b42" y="68.0360645539"/>
     <use style="fill:#00bfbf;stroke:#00bfbf;stroke-width:0.5;" x="536.056303463" xlink:href="#m977c291b42" y="68.0360645539"/>
    </g>
   </g>
   <g id="line2d_2">
    <path d="
M54.9528 335.954
L91.0764 335.954
L91.0764 328.31
L112.207 328.31
L112.207 326.49
L127.2 326.49
L127.2 325.034
L138.829 325.034
L138.829 320.301
L148.331 320.301
L148.331 317.753
L156.365 317.753
L156.365 315.933
L163.324 315.933
L163.324 311.929
L169.462 311.929
L169.462 307.561
L174.953 307.561
L174.953 306.105
L179.92 306.105
L179.92 304.285
L184.455 304.285
L184.455 302.465
L188.626 302.465
L188.626 298.824
L192.488 298.824
L192.488 293.728
L196.084 293.728
L196.084 286.448
L199.447 286.448
L199.447 282.079
L202.607 282.079
L202.607 274.071
L205.586 274.071
L205.586 269.339
L208.403 269.339
L208.403 264.243
L211.076 264.243
L211.076 263.15
L213.619 263.15
L213.619 259.874
L216.044 259.874
L216.044 255.87
L218.36 255.87
L218.36 252.594
L220.578 252.594
L220.578 250.046
L222.706 250.046
L222.706 248.954
L224.75 248.954
L224.75 245.678
L226.716 245.678
L226.716 243.857
L228.612 243.857
L228.612 243.129
L230.441 243.129
L230.441 239.489
L232.207 239.489
L232.207 232.937
L233.916 232.937
L233.916 230.389
L235.571 230.389
L235.571 228.205
L237.174 228.205
L237.174 226.02
L238.73 226.02
L238.73 225.656
L240.241 225.656
L240.241 223.472
L241.709 223.472
L241.709 222.744
L243.137 222.744
L243.137 218.376
L244.527 218.376
L244.527 215.1
L245.881 215.1
L245.881 211.824
L247.2 211.824
L247.2 210.368
L248.487 210.368
L248.487 210.004
L249.743 210.004
L249.743 209.276
L250.969 209.276
L250.969 208.548
L252.167 208.548
L252.167 205.999
L253.338 205.999
L253.338 204.907
L254.484 204.907
L254.484 204.543
L255.605 204.543
L255.605 202.723
L256.702 202.723
L256.702 199.811
L258.829 199.811
L258.829 199.447
L259.861 199.447
L259.861 199.083
L260.873 199.083
L260.873 196.899
L261.866 196.899
L261.866 194.715
L262.84 194.715
L262.84 191.803
L263.796 191.803
L263.796 190.347
L264.735 190.347
L264.735 189.619
L265.658 189.619
L265.658 188.89
L266.564 188.89
L266.564 188.526
L267.455 188.526
L267.455 187.07
L268.331 187.07
L268.331 186.706
L269.192 186.706
L269.192 184.522
L270.874 184.522
L270.874 183.43
L271.694 183.43
L271.694 182.702
L272.502 182.702
L272.502 182.338
L273.298 182.338
L273.298 180.882
L274.082 180.882
L274.082 180.518
L274.854 180.518
L274.854 180.154
L277.833 180.154
L277.833 179.426
L279.96 179.426
L279.96 178.698
L281.332 178.698
L281.332 177.97
L282.004 177.97
L282.004 177.606
L283.324 177.606
L283.324 175.786
L283.971 175.786
L283.971 175.422
L284.61 175.422
L284.61 175.058
L285.242 175.058
L285.242 174.694
L285.866 174.694
L285.866 174.33
L286.483 174.33
L286.483 173.238
L287.093 173.238
L287.093 172.874
L294.429 172.874
L294.429 172.51
L295.985 172.51
L295.985 172.146
L296.493 172.146
L296.493 169.961
L297.496 169.961
L297.496 168.141
L297.99 168.141
L297.99 167.413
L299.444 167.413
L299.444 166.321
L299.92 166.321
L299.92 165.593
L300.392 165.593
L300.392 165.229
L301.322 165.229
L301.322 163.409
L301.781 163.409
L301.781 162.681
L302.688 162.681
L302.688 161.953
L304.018 161.953
L304.018 161.589
L305.741 161.589
L305.741 160.861
L306.997 160.861
L306.997 160.497
L307.409 160.497
L307.409 160.133
L307.818 160.133
L307.818 159.041
L309.422 159.041
L309.422 158.677
L309.815 158.677
L309.815 158.313
L311.359 158.313
L311.359 156.493
L313.227 156.493
L313.227 155.037
L314.317 155.037
L314.317 153.581
L315.031 153.581
L315.031 152.125
L315.735 152.125
L315.735 151.761
L318.461 151.761
L318.461 151.397
L318.792 151.397
L318.792 150.304
L319.12 150.304
L319.12 149.212
L319.772 149.212
L319.772 148.12
L320.095 148.12
L320.095 147.392
L320.415 147.392
L320.415 145.936
L321.051 145.936
L321.051 145.208
L321.366 145.208
L321.366 144.844
L321.99 144.844
L321.99 143.388
L322.299 143.388
L322.299 142.66
L322.912 142.66
L322.912 141.932
L323.518 141.932
L323.518 140.476
L323.819 140.476
L323.819 140.112
L325.874 140.112
L325.874 139.748
L326.161 139.748
L326.161 139.384
L327.013 139.384
L327.013 138.292
L327.294 138.292
L327.294 137.928
L327.574 137.928
L327.574 137.564
L328.128 137.564
L328.128 136.836
L328.677 136.836
L328.677 136.472
L330.815 136.472
L330.815 136.108
L331.076 136.108
L331.076 135.744
L331.336 135.744
L331.336 135.38
L336.044 135.38
L336.044 134.652
L340.142 134.652
L340.142 134.288
L340.361 134.288
L340.361 133.56
L340.578 133.56
L340.578 133.196
L342.497 133.196
L342.497 132.467
L342.706 132.467
L342.706 132.103
L342.914 132.103
L342.914 131.375
L343.121 131.375
L343.121 131.011
L343.327 131.011
L343.327 130.647
L343.533 130.647
L343.533 129.919
L343.738 129.919
L343.738 129.191
L344.347 129.191
L344.347 128.827
L344.75 128.827
L344.75 128.463
L345.347 128.463
L345.347 128.099
L346.134 128.099
L346.134 127.371
L346.523 127.371
L346.523 127.007
L347.292 127.007
L347.292 126.643
L348.425 126.643
L348.425 126.279
L348.983 126.279
L348.983 125.915
L349.534 125.915
L349.534 125.187
L350.62 125.187
L350.62 124.459
L351.508 124.459
L351.508 123.367
L353.069 123.367
L353.069 123.003
L353.239 123.003
L353.239 122.275
L353.409 122.275
L353.409 121.911
L353.579 121.911
L353.579 121.547
L353.916 121.547
L353.916 121.183
L354.084 121.183
L354.084 120.819
L354.584 120.819
L354.584 120.455
L354.75 120.455
L354.75 120.091
L355.733 120.091
L355.733 119.727
L356.218 119.727
L356.218 119.363
L356.379 119.363
L356.379 118.999
L356.699 118.999
L356.699 118.635
L357.016 118.635
L357.016 118.271
L359.34 118.271
L359.34 117.543
L362.285 117.543
L362.285 117.179
L362.428 117.179
L362.428 116.451
L362.571 116.451
L362.571 116.087
L362.713 116.087
L362.713 115.359
L363.278 115.359
L363.278 114.631
L364.527 114.631
L364.527 114.267
L365.073 114.267
L365.073 113.903
L365.343 113.903
L365.343 113.538
L365.478 113.538
L365.478 112.81
L365.613 112.81
L365.613 112.446
L365.881 112.446
L365.881 111.354
L366.147 111.354
L366.147 110.262
L367.46 110.262
L367.46 109.898
L371.452 109.898
L371.452 109.534
L372.049 109.534
L372.049 109.17
L373.569 109.17
L373.569 108.806
L374.597 108.806
L374.597 108.442
L375.159 108.442
L375.159 108.078
L376.046 108.078
L376.046 107.714
L377.563 107.714
L377.563 107.35
L378.516 107.35
L378.62 106.622
L379.037 106.622
L379.037 106.258
L379.554 106.258
L379.656 105.53
L379.963 105.53
L379.963 105.166
L380.471 105.166
L380.471 104.802
L382.743 104.802
L382.743 104.438
L385.014 104.438
L385.014 104.074
L385.199 104.074
L385.199 103.71
L385.475 103.71
L385.475 103.346
L385.658 103.346
L385.749 102.618
L386.294 102.618
L386.294 102.254
L386.922 102.254
L386.922 101.89
L387.543 101.89
L387.543 101.162
L387.807 101.162
L387.807 100.798
L388.244 100.798
L388.244 100.434
L388.504 100.434
L388.504 100.07
L391.039 100.07
L391.039 99.7058
L391.531 99.7058
L391.531 99.3417
L392.663 99.3417
L392.663 98.9777
L393.377 98.9777
L393.377 98.6137
L396.215 98.6137
L396.215 98.2497
L397.03 98.2497
L397.03 97.5216
L397.25 97.5216
L397.25 97.1576
L401.534 97.1576
L401.534 96.7936
L401.937 96.7936
L401.937 96.0656
L402.138 96.0656
L402.138 95.7015
L402.8 95.7015
L402.8 94.9735
L403.713 94.9735
L403.713 94.6095
L405.305 94.6095
L405.305 94.2455
L406.667 94.2455
L406.667 93.8814
L407.455 93.8814
L407.455 93.5174
L409.98 93.5174
L410.038 92.7894
L410.095 92.7894
L410.095 92.0613
L413.258 92.0613
L413.312 90.2412
L413.687 90.2412
L413.687 89.8772
L414.165 89.8772
L414.165 89.1492
L414.587 89.1492
L414.587 88.7852
L415.265 88.7852
L415.265 88.4211
L419.348 88.4211
L419.348 88.0571
L419.967 88.0571
L419.967 87.6931
L420.392 87.6931
L420.485 86.9651
L423.224 86.9651
L423.224 86.6011
L423.755 86.6011
L423.755 86.237
L424.018 86.237
L424.018 85.873
L427.204 85.873
L427.204 85.509
L429.184 85.509
L429.224 84.781
L431.549 84.781
L431.549 84.4169
L432.19 84.4169
L432.19 84.0529
L432.785 84.0529
L432.785 83.3249
L438.693 83.3249
L438.759 82.2328
L438.989 82.2328
L438.989 81.8688
L442.392 81.8688
L442.392 81.5048
L442.699 81.5048
L442.699 81.1408
L448.84 81.1408
L448.949 80.4127
L450.342 80.4127
L450.342 80.0487
L451.076 80.0487
L451.076 80.0487" style="fill:none;stroke:#00bfbf;stroke-linecap:square;stroke-width:1.5;"/>
   </g>
   <g id="line2d_3">
    <defs>
     <path d="
M-6 0
L6 0
M0 6
L0 -6" id="m3e4de746de" style="stroke:#00bfbf;stroke-width:1.5;"/>
    </defs>
    <g>
     <use style="fill:none;stroke:#00bfbf;stroke-width:1.5;" x="199.447198959" xlink:href="#m3e4de746de" y="286.447692951"/>
     <use style="fill:none;stroke:#00bfbf;stroke-width:1.5;" x="232.207351607" xlink:href="#m3e4de746de" y="239.489192845"/>
     <use style="fill:none;stroke:#00bfbf;stroke-width:1.5;" x="297.495516929" xlink:href="#m3e4de746de" y="169.961491139"/>
     <use style="fill:none;stroke:#00bfbf;stroke-width:1.5;" x="378.515567689" xlink:href="#m3e4de746de" y="107.350157665"/>
     <use style="fill:none;stroke:#00bfbf;stroke-width:1.5;" x="450.341630313" xlink:href="#m3e4de746de" y="80.0487041158"/>
     <use style="fill:none;stroke:#00bfbf;stroke-width:1.5;" x="451.07640052" xlink:href="#m3e4de746de" y="80.0487041158"/>
    </g>
   </g>
   <g id="line2d_4"/>
   <g id="line2d_5">
    <path clip-path="url(#p5e7421a262)" d="
M331.336 135.38" style="fill:none;stroke:#00bfbf;stroke-linecap:square;"/>
    <defs>
     <path d="
M-12 12
L12 -12
M-12 -12
L12 12" id="m09e435d1d9" style="stroke:#00bfbf;stroke-width:3;"/>
    </defs>
    <g clip-path="url(#p5e7421a262)">
     <use style="fill:#00bfbf;stroke:#00bfbf;stroke-width:3;" x="331.336327931" xlink:href="#m09e435d1d9" y="135.379649976"/>
    </g>
   </g>
   <g id="line2d_6">
    <defs>
     <path d="
M0 1.5
C0.397805 1.5 0.77937 1.34195 1.06066 1.06066
C1.34195 0.77937 1.5 0.397805 1.5 0
C1.5 -0.397805 1.34195 -0.77937 1.06066 -1.06066
C0.77937 -1.34195 0.397805 -1.5 0 -1.5
C-0.397805 -1.5 -0.77937 -1.34195 -1.06066 -1.06066
C-1.34195 -0.77937 -1.5 -0.397805 -1.5 0
C-1.5 0.397805 -1.34195 0.77937 -1.06066 1.06066
C-0.77937 1.34195 -0.397805 1.5 0 1.5
z
" id="mb0b177905e" style="stroke:#008000;stroke-width:0.5;"/>
    </defs>
    <g>
     <use style="fill:#008000;stroke:#008000;stroke-width:0.5;" x="514.715735294" xlink:href="#mb0b177905e" y="41.3913470004"/>
     <use style="fill:#008000;stroke:#008000;stroke-width:0.5;" x="514.715735294" xlink:href="#mb0b177905e" y="41.3913470004"/>
    </g>
   </g>
   <g id="line2d_7">
    <path d="
M69.9454 334.536
L91.0764 334.536
L91.0764 327.833
L106.069 327.833
L106.069 319.367
L117.698 319.367
L117.698 316.545
L127.2 316.545
L127.2 314.076
L135.234 314.076
L135.234 312.312
L142.193 312.312
L142.193 311.959
L148.331 311.959
L148.331 310.901
L153.822 310.901
L153.822 308.079
L158.789 308.079
L158.789 305.962
L163.324 305.962
L163.324 303.846
L167.495 303.846
L167.495 301.023
L171.357 301.023
L171.357 298.201
L178.316 298.201
L178.316 289.735
L181.476 289.735
L181.476 286.56
L184.455 286.56
L184.455 283.385
L187.272 283.385
L187.272 279.858
L189.945 279.858
L189.945 274.566
L192.488 274.566
L192.488 271.744
L194.913 271.744
L194.913 269.981
L197.229 269.981
L197.229 269.628
L199.447 269.628
L199.447 267.864
L201.575 267.864
L201.575 266.453
L203.619 266.453
L203.619 263.631
L205.586 263.631
L205.586 260.456
L207.481 260.456
L207.481 259.398
L209.31 259.398
L209.31 256.223
L211.076 256.223
L211.076 251.284
L212.785 251.284
L212.785 249.168
L214.44 249.168
L214.44 247.051
L216.044 247.051
L216.044 243.876
L217.599 243.876
L217.599 239.996
L219.11 239.996
L219.11 238.585
L220.578 238.585
L220.578 237.526
L222.006 237.526
L222.006 235.763
L223.396 235.763
L223.396 234.704
L224.75 234.704
L224.75 233.999
L226.069 233.999
L226.069 232.941
L227.356 232.941
L227.356 231.882
L228.612 231.882
L228.612 231.177
L229.838 231.177
L229.838 230.119
L231.036 230.119
L231.036 229.413
L232.207 229.413
L232.207 226.591
L233.353 226.591
L233.353 226.238
L234.474 226.238
L234.474 225.885
L235.571 225.885
L235.571 225.18
L236.645 225.18
L236.645 223.769
L237.698 223.769
L237.698 222.005
L238.73 222.005
L238.73 220.947
L239.742 220.947
L239.742 219.183
L240.735 219.183
L240.735 218.477
L241.709 218.477
L241.709 216.361
L242.665 216.361
L242.665 211.775
L243.604 211.775
L243.604 209.658
L244.527 209.658
L244.527 208.953
L245.433 208.953
L245.433 206.131
L246.324 206.131
L246.324 204.367
L247.2 204.367
L247.2 203.661
L248.061 203.661
L248.061 203.309
L248.909 203.309
L248.909 202.25
L249.743 202.25
L249.743 201.545
L250.563 201.545
L250.563 199.781
L251.371 199.781
L251.371 198.37
L252.167 198.37
L252.167 198.017
L252.951 198.017
L252.951 195.548
L253.723 195.548
L253.723 194.49
L255.973 194.49
L255.973 194.137
L256.702 194.137
L256.702 193.431
L257.421 193.431
L257.421 193.079
L258.13 193.079
L258.13 192.726
L259.519 192.726
L259.519 189.904
L260.201 189.904
L260.201 189.198
L260.873 189.198
L260.873 188.493
L261.537 188.493
L261.537 186.729
L262.84 186.729
L262.84 186.023
L264.111 186.023
L264.111 183.907
L264.735 183.907
L264.735 181.437
L265.352 181.437
L265.352 180.732
L265.962 180.732
L265.962 179.674
L266.564 179.674
L266.564 178.615
L267.16 178.615
L267.16 175.793
L267.749 175.793
L267.749 174.735
L268.331 174.735
L268.331 174.03
L268.907 174.03
L268.907 173.677
L270.04 173.677
L270.04 172.266
L270.597 172.266
L270.597 171.913
L271.694 171.913
L271.694 171.56
L272.234 171.56
L272.234 169.796
L272.769 169.796
L272.769 168.738
L273.822 168.738
L273.822 165.563
L274.34 165.563
L274.34 164.505
L274.854 164.505
L274.854 164.152
L276.365 164.152
L276.365 163.799
L277.348 163.799
L277.348 163.094
L277.833 163.094
L277.833 162.388
L278.313 162.388
L278.313 162.036
L278.789 162.036
L278.789 161.683
L280.65 161.683
L280.65 161.33
L281.106 161.33
L281.106 159.919
L282.004 159.919
L282.004 158.508
L282.448 158.508
L282.448 157.45
L282.887 157.45
L282.887 156.391
L283.324 156.391
L283.324 156.039
L283.756 156.039
L283.756 155.686
L284.61 155.686
L284.61 154.98
L286.687 154.98
L286.687 151.806
L288.291 151.806
L288.291 150.747
L289.462 150.747
L289.462 150.042
L289.847 150.042
L289.847 149.336
L290.228 149.336
L290.228 148.631
L290.607 148.631
L290.607 146.514
L291.357 146.514
L291.357 145.809
L291.728 145.809
L291.728 145.103
L292.096 145.103
L292.096 143.692
L292.825 143.692
L292.825 142.987
L294.953 142.987
L294.953 142.281
L296.324 142.281
L296.324 141.928
L296.662 141.928
L296.662 141.223
L297.33 141.223
L297.33 140.517
L297.99 140.517
L297.99 139.812
L298.316 139.812
L298.316 139.106
L298.641 139.106
L298.641 138.753
L298.964 138.753
L298.964 137.695
L299.603 137.695
L299.603 137.342
L299.92 137.342
L299.92 136.99
L300.235 136.99
L300.235 136.284
L300.548 136.284
L300.548 135.931
L301.476 135.931
L301.476 135.226
L302.986 135.226
L302.986 134.52
L303.872 134.52
L303.872 134.168
L304.164 134.168
L304.164 133.109
L304.455 133.109
L304.455 132.756
L305.03 132.756
L305.03 132.404
L305.316 132.404
L305.316 132.051
L305.6 132.051
L305.6 130.993
L306.721 130.993
L306.721 130.64
L306.997 130.64
L306.997 129.934
L309.422 129.934
L309.422 129.582
L309.945 129.582
L309.945 128.171
L310.205 128.171
L310.205 127.465
L310.464 127.465
L310.464 127.112
L310.721 127.112
L310.721 126.76
L311.232 126.76
L311.232 126.054
L311.486 126.054
L311.486 125.348
L311.738 125.348
L311.738 124.996
L312.488 124.996
L312.488 123.937
L313.472 123.937
L313.472 122.879
L313.714 122.879
L313.714 122.174
L314.437 122.174
L314.437 120.763
L315.149 120.763
L315.149 120.057
L316.084 120.057
L316.084 119.352
L316.774 119.352
L316.774 118.999
L317.002 118.999
L317.002 118.646
L318.128 118.646
L318.128 116.529
L318.571 116.529
L318.571 116.177
L319.23 116.177
L319.23 115.824
L319.447 115.824
L319.447 115.471
L319.88 115.471
L319.88 115.118
L320.095 115.118
L320.095 114.413
L321.783 114.413
L321.783 114.06
L323.619 114.06
L323.619 113.707
L324.611 113.707
L324.611 113.355
L325.198 113.355
L325.198 113.002
L325.392 113.002
L325.392 112.649
L326.731 112.649
L326.731 111.944
L327.667 111.944
L327.667 111.591
L328.22 111.591
L328.22 110.885
L328.768 110.885
L328.768 110.533
L329.31 110.533
L329.31 109.827
L329.846 109.827
L329.846 109.474
L330.024 109.474
L330.024 109.121
L331.25 109.121
L331.25 107.358
L339.702 107.358
L339.702 107.005
L339.996 107.005
L339.996 106.652
L340.142 106.652
L340.142 105.947
L342.983 105.947
L342.983 105.594
L343.396 105.594
L343.396 104.888
L344.212 104.888
L344.212 104.183
L344.616 104.183
L344.616 103.125
L345.939 103.125
L345.939 102.772
L346.199 102.772
L346.199 102.066
L346.329 102.066
L346.329 101.713
L347.356 101.713
L347.356 101.361
L347.483 101.361
L347.483 100.655
L347.61 100.655
L347.61 100.302
L348.113 100.302
L348.113 99.9497
L348.238 99.9497
L348.238 99.5969
L348.488 99.5969
L348.488 98.5386
L348.612 98.5386
L348.612 98.1859
L348.983 98.1859
L348.983 97.8331
L349.717 97.8331
L349.717 97.4804
L350.441 97.4804
L350.441 97.1276
L350.68 97.1276
L350.68 96.7748
L351.036 96.7748
L351.036 96.0693
L352.323 96.0693
L352.323 95.7165
L353.353 95.7165
L353.353 95.3638
L353.692 95.3638
L353.692 95.011
L355.135 95.011
L355.135 94.6583
L355.571 94.6583
L355.571 94.3055
L355.787 94.3055
L355.896 93.6
L356.111 93.6
L356.218 92.8945
L358.01 92.8945
L358.114 92.1889
L358.423 92.1889
L358.423 91.4834
L359.239 91.4834
L359.34 90.4251
L361.127 90.4251
L361.224 89.0141
L361.322 89.0141
L361.322 88.6613
L361.806 88.6613
L361.806 87.9558
L364.435 87.9558
L364.527 87.2503
L365.881 87.2503
L365.881 86.5448
L366.412 86.5448
L366.412 86.192
L366.851 86.192
L366.851 85.4865
L367.373 85.4865
L367.373 84.4282
L373.569 84.4282
L373.569 84.0754
L373.8 84.0754
L373.8 83.7227
L374.484 83.7227
L374.484 83.3699
L375.382 83.3699
L375.456 82.3116
L376.046 82.3116
L376.046 81.9589
L376.557 81.9589
L376.557 81.2533
L377.989 81.2533
L377.989 80.5478
L378.341 80.5478
L378.341 80.1951
L380.739 80.1951
L380.806 79.4895
L380.873 79.4895
L380.873 79.1368
L381.007 79.1368
L381.007 78.4313
L381.339 78.4313
L381.339 78.0785
L381.8 78.0785
L381.8 77.7257
L382.323 77.7257
L382.323 77.373
L382.517 77.373
L382.517 77.0202
L383.288 77.0202
L383.352 75.6092
L383.48 75.6092
L383.48 74.9036
L384.237 74.9036
L384.237 74.5509
L384.487 74.5509
L384.487 74.1981
L384.859 74.1981
L384.859 73.8454
L385.719 73.8454
L385.719 73.4926
L386.203 73.4926
L386.203 73.1398
L386.384 73.1398
L386.384 72.4343
L386.624 72.4343
L386.624 71.7288
L387.866 71.7288
L387.866 71.376
L388.041 71.376
L388.099 70.6705
L388.62 70.6705
L388.62 70.3178
L394.803 70.3178
L394.803 69.965
L395.413 69.965
L395.413 69.6122
L395.816 69.6122
L395.816 69.2595
L396.809 69.2595
L396.809 68.9067
L398.931 68.9067
L398.931 68.5539
L399.542 68.5539
L399.635 67.4957
L402.004 67.4957
L402.004 67.1429
L402.492 67.1429
L402.492 66.7901
L403.193 66.7901
L403.193 66.4374
L406.768 66.4374
L406.768 66.0846
L407.974 66.0846
L407.974 65.7319
L409.655 65.7319
L409.655 65.3791
L411.208 65.3791
L411.208 65.0263
L411.543 65.0263
L411.543 64.6736
L412.06 64.6736
L412.06 63.9681
L413.758 63.9681
L413.758 63.6153
L413.9 63.6153
L413.9 63.2625
L417.99 63.2625
L418.088 62.557
L418.964 62.557
L418.996 61.8515
L419.252 61.8515
L419.348 61.146
L421.72 61.146
L421.72 60.7932
L421.873 60.7932
L421.873 60.4404
L422.146 60.4404
L422.146 60.0877
L424.426 60.0877
L424.426 59.7349
L426.776 59.7349
L426.776 59.3822
L427.052 59.3822
L427.135 58.6766
L427.272 58.6766
L427.272 58.3239
L428.385 58.3239
L428.385 57.9711
L429.632 57.9711
L429.632 57.6184
L430.102 57.6184
L430.102 57.2656
L432.538 57.2656
L432.538 56.9128
L436.499 56.9128
L436.499 56.5601
L437.07 56.5601
L437.07 56.2073
L437.388 56.2073
L437.388 55.8546
L437.725 55.8546
L437.725 55.5018
L437.927 55.5018
L437.927 55.149
L438.283 55.149
L438.35 54.4435
L443.998 54.4435
L443.998 54.0907
L444.513 54.0907
L444.513 53.738
L445.101 53.738
L445.14 53.0325
L447.332 53.0325
L447.332 52.6797
L449.202 52.6797
L449.202 52.3269
L451.076 52.3269
L451.076 52.3269" style="fill:none;stroke:#008000;stroke-linecap:square;stroke-width:1.5;"/>
   </g>
   <g id="line2d_8">
    <defs>
     <path d="
M-7.34788e-16 6
L6 -6
L-6 -6
z
" id="m397e16cd68" style="stroke:#008000;stroke-linejoin:miter;stroke-width:1.5;"/>
    </defs>
    <g>
     <use style="fill:none;stroke:#008000;stroke-linejoin:miter;stroke-width:1.5;" x="117.698250474" xlink:href="#m397e16cd68" y="319.367053849"/>
     <use style="fill:none;stroke:#008000;stroke-linejoin:miter;stroke-width:1.5;" x="201.574650995" xlink:href="#m397e16cd68" y="267.863940651"/>
     <use style="fill:none;stroke:#008000;stroke-linejoin:miter;stroke-width:1.5;" x="271.694397919" xlink:href="#m397e16cd68" y="171.560174192"/>
     <use style="fill:none;stroke:#008000;stroke-linejoin:miter;stroke-width:1.5;" x="320.094602786" xlink:href="#m397e16cd68" y="115.118406304"/>
     <use style="fill:none;stroke:#008000;stroke-linejoin:miter;stroke-width:1.5;" x="419.348268484" xlink:href="#m397e16cd68" y="61.4987268105"/>
     <use style="fill:none;stroke:#008000;stroke-linejoin:miter;stroke-width:1.5;" x="451.07640052" xlink:href="#m397e16cd68" y="52.3269395287"/>
    </g>
   </g>
   <g id="line2d_9"/>
   <g id="line2d_10">
    <path clip-path="url(#p5e7421a262)" d="
M331.25 107.358" style="fill:none;stroke:#008000;stroke-linecap:square;"/>
    <defs>
     <path d="
M-12 12
L12 -12
M-12 -12
L12 12" id="m8c089fa6cd" style="stroke:#008000;stroke-width:3;"/>
    </defs>
    <g clip-path="url(#p5e7421a262)">
     <use style="fill:#008000;stroke:#008000;stroke-width:3;" x="331.249829425" xlink:href="#m8c089fa6cd" y="107.35766322"/>
    </g>
   </g>
   <g id="line2d_11">
    <defs>
     <path d="
M0 1.5
C0.397805 1.5 0.77937 1.34195 1.06066 1.06066
C1.34195 0.77937 1.5 0.397805 1.5 0
C1.5 -0.397805 1.34195 -0.77937 1.06066 -1.06066
C0.77937 -1.34195 0.397805 -1.5 0 -1.5
C-0.397805 -1.5 -0.77937 -1.34195 -1.06066 -1.06066
C-1.34195 -0.77937 -1.5 -0.397805 -1.5 0
C-1.5 0.397805 -1.34195 0.77937 -1.06066 1.06066
C-0.77937 1.34195 -0.397805 1.5 0 1.5
z
" id="m76a7ce5b4a" style="stroke:#0000ff;stroke-width:0.5;"/>
    </defs>
    <g>
     <use style="fill:#0000ff;stroke:#0000ff;stroke-width:0.5;" x="536.596384651" xlink:href="#m76a7ce5b4a" y="50.5631342822"/>
     <use style="fill:#0000ff;stroke:#0000ff;stroke-width:0.5;" x="536.596384651" xlink:href="#m76a7ce5b4a" y="50.5631342822"/>
    </g>
   </g>
   <g id="line2d_12">
    <path d="
M79.4472 336.714
L91.0764 336.714
L91.0764 334.834
L100.578 334.834
L100.578 330.322
L108.612 330.322
L108.612 327.69
L115.571 327.69
L115.571 326.186
L121.709 326.186
L121.709 323.178
L127.2 323.178
L127.2 320.922
L132.167 320.922
L132.167 320.169
L136.702 320.169
L136.702 319.041
L140.873 319.041
L140.873 317.161
L144.735 317.161
L144.735 316.409
L148.331 316.409
L148.331 316.033
L151.694 316.033
L151.694 314.529
L157.833 314.529
L157.833 314.153
L160.65 314.153
L160.65 308.137
L163.324 308.137
L163.324 302.497
L165.866 302.497
L165.866 300.24
L168.291 300.24
L168.291 297.232
L170.607 297.232
L170.607 295.728
L172.825 295.728
L172.825 291.968
L174.953 291.968
L174.953 289.712
L176.997 289.712
L176.997 288.96
L178.964 288.96
L178.964 284.824
L180.859 284.824
L180.859 280.311
L182.688 280.311
L182.688 278.807
L184.455 278.807
L184.455 278.055
L186.163 278.055
L186.163 274.671
L187.818 274.671
L187.818 273.543
L189.422 273.543
L189.422 271.663
L190.977 271.663
L190.977 269.031
L192.488 269.031
L192.488 267.903
L193.956 267.903
L193.956 265.271
L196.774 265.271
L196.774 264.143
L198.128 264.143
L198.128 263.39
L199.447 263.39
L199.447 261.51
L200.734 261.51
L200.734 260.758
L201.99 260.758
L201.99 260.006
L203.216 260.006
L203.216 259.63
L204.414 259.63
L204.414 256.998
L205.586 256.998
L205.586 256.622
L206.731 256.622
L206.731 256.246
L207.852 256.246
L207.852 253.99
L208.949 253.99
L208.949 249.854
L210.024 249.854
L210.024 248.35
L211.076 248.35
L211.076 247.222
L212.108 247.222
L212.108 244.589
L213.12 244.589
L213.12 243.837
L214.113 243.837
L214.113 242.333
L215.087 242.333
L215.087 241.957
L216.044 241.957
L216.044 241.205
L216.983 241.205
L216.983 240.453
L217.905 240.453
L217.905 238.197
L218.811 238.197
L218.811 237.821
L219.702 237.821
L219.702 236.693
L220.578 236.693
L220.578 235.941
L221.44 235.941
L221.44 234.813
L222.287 234.813
L222.287 234.061
L223.121 234.061
L223.121 233.309
L223.942 233.309
L223.942 232.933
L224.75 232.933
L224.75 231.805
L227.101 231.805
L227.101 230.677
L227.862 230.677
L227.862 229.549
L228.612 229.549
L228.612 229.173
L230.08 229.173
L230.08 228.421
L232.898 228.421
L232.898 227.669
L234.251 227.669
L234.251 226.917
L234.915 226.917
L234.915 225.412
L236.218 225.412
L236.218 224.284
L236.858 224.284
L236.858 223.156
L237.489 223.156
L237.489 222.78
L238.114 222.78
L238.114 222.404
L238.73 222.404
L238.73 222.028
L239.34 222.028
L239.34 221.276
L240.538 221.276
L240.538 219.772
L241.709 219.772
L241.709 218.268
L242.285 218.268
L242.285 217.892
L243.418 217.892
L243.418 216.764
L243.975 216.764
L243.975 216.388
L244.527 216.388
L244.527 214.132
L245.073 214.132
L245.073 211.5
L246.147 211.5
L246.147 209.996
L246.676 209.996
L246.676 209.62
L247.2 209.62
L247.2 208.868
L247.719 208.868
L247.719 208.492
L248.232 208.492
L248.232 205.859
L248.74 205.859
L248.74 203.603
L249.244 203.603
L249.244 203.227
L250.726 203.227
L250.726 202.099
L251.211 202.099
L251.211 201.347
L251.691 201.347
L251.691 200.595
L252.167 200.595
L252.167 199.843
L253.569 199.843
L253.569 197.587
L254.029 197.587
L254.029 194.203
L254.484 194.203
L254.484 193.451
L254.935 193.451
L254.935 192.699
L256.266 192.699
L256.266 191.947
L256.702 191.947
L256.702 191.571
L258.411 191.571
L258.411 190.819
L259.244 190.819
L259.244 190.443
L260.471 190.443
L260.471 189.691
L261.273 189.691
L261.273 189.315
L261.669 189.315
L261.669 188.186
L262.062 188.186
L262.062 187.81
L262.453 187.81
L262.453 187.434
L262.84 187.434
L262.84 186.682
L265.475 186.682
L265.475 185.93
L265.84 185.93
L265.84 185.178
L266.203 185.178
L266.203 184.802
L267.278 184.802
L267.278 184.426
L267.631 184.426
L267.631 183.674
L268.677 183.674
L268.677 183.298
L269.021 183.298
L269.021 182.546
L269.363 182.546
L269.363 181.418
L269.702 181.418
L269.702 180.29
L270.375 180.29
L270.375 179.914
L270.708 179.914
L270.708 179.162
L272.019 179.162
L272.019 178.786
L272.663 178.786
L272.663 178.41
L273.298 178.41
L273.298 175.402
L273.613 175.402
L273.613 175.026
L274.546 175.026
L274.546 174.274
L275.766 174.274
L275.766 173.898
L276.066 173.898
L276.066 172.77
L276.957 172.77
L276.957 172.018
L277.542 172.018
L277.542 170.89
L278.978 170.89
L278.978 169.385
L279.261 169.385
L279.261 169.009
L280.375 169.009
L280.375 168.633
L281.196 168.633
L281.196 167.881
L282.271 167.881
L282.271 167.129
L283.324 167.129
L283.324 165.249
L283.584 165.249
L283.584 164.497
L285.368 164.497
L285.368 164.121
L286.114 164.121
L286.114 163.745
L286.36 163.745
L286.36 162.993
L287.575 162.993
L287.575 162.617
L288.291 162.617
L288.291 161.865
L289.23 161.865
L289.23 161.489
L289.462 161.489
L289.462 161.113
L289.923 161.113
L289.923 160.737
L291.283 160.737
L291.283 160.361
L292.17 160.361
L292.17 159.985
L292.389 159.985
L292.389 159.609
L292.608 159.609
L292.608 158.481
L293.042 158.481
L293.042 157.729
L293.687 157.729
L293.687 156.977
L293.9 156.977
L293.9 156.601
L294.744 156.601
L294.744 155.849
L294.953 155.849
L294.953 154.721
L295.78 154.721
L295.78 153.969
L297.197 153.969
L297.197 153.593
L297.595 153.593
L297.595 153.217
L298.576 153.217
L298.576 152.841
L300.485 152.841
L300.485 152.465
L300.673 152.465
L300.673 152.089
L301.045 152.089
L301.045 151.336
L305.316 151.336
L305.316 150.584
L306.331 150.584
L306.331 150.208
L306.499 150.208
L306.499 149.832
L306.832 149.832
L306.832 149.456
L306.997 149.456
L306.997 148.704
L307.655 148.704
L307.655 148.328
L307.818 148.328
L307.818 147.952
L309.264 147.952
L309.264 147.576
L309.422 147.576
L309.422 147.2
L309.737 147.2
L309.737 146.824
L309.893 146.824
L309.893 146.448
L311.587 146.448
L311.587 146.072
L311.738 146.072
L311.738 145.32
L312.04 145.32
L312.04 144.944
L312.785 144.944
L312.785 144.192
L313.08 144.192
L313.08 143.816
L313.811 143.816
L313.811 143.44
L313.956 143.44
L313.956 141.936
L315.665 141.936
L315.665 141.56
L316.084 141.56
L316.084 140.432
L316.361 140.432
L316.361 140.056
L317.048 140.056
L317.048 139.68
L317.455 139.68
L317.455 139.304
L317.725 139.304
L317.725 138.552
L319.317 138.552
L319.317 138.176
L319.447 138.176
L319.447 137.8
L319.837 137.8
L319.837 137.048
L319.966 137.048
L319.966 136.296
L320.479 136.296
L320.479 135.92
L320.734 135.92
L320.734 135.544
L321.24 135.544
L321.24 134.792
L321.616 134.792
L321.616 134.416
L321.866 134.416
L321.866 134.04
L321.99 134.04
L321.99 133.664
L322.237 133.664
L322.237 133.288
L322.729 133.288
L322.729 132.535
L323.095 132.535
L323.095 132.159
L323.458 132.159
L323.458 131.783
L324.768 131.783
L324.768 131.407
L325.701 131.407
L325.701 131.031
L326.39 131.031
L326.39 130.655
L326.504 130.655
L326.504 129.903
L326.618 129.903
L326.618 129.527
L327.294 129.527
L327.294 129.151
L327.63 129.151
L327.63 128.775
L329.166 128.775
L329.166 128.399
L330.13 128.399
L330.13 127.271
L330.868 127.271
L330.972 123.887
L331.076 123.887
L331.076 123.511
L331.388 123.511
L331.388 122.759
L339.348 122.759
L339.348 122.383
L340.838 122.383
L340.924 120.879
L341.011 120.879
L341.011 120.503
L341.95 120.503
L341.95 120.127
L344.669 120.127
L344.669 119.751
L344.99 119.751
L344.99 119.375
L346.716 119.375
L346.716 118.999
L347.024 118.999
L347.101 117.871
L348.686 117.871
L348.686 117.495
L351.508 117.495
L351.508 116.743
L351.648 116.743
L351.648 116.367
L351.859 116.367
L351.859 115.991
L352.277 115.991
L352.277 115.615
L352.554 115.615
L352.554 114.863
L354.118 114.863
L354.118 114.487
L354.251 114.487
L354.251 114.111
L355.113 114.111
L355.113 113.734
L355.244 113.734
L355.244 113.358
L355.96 113.358
L355.96 112.982
L356.411 112.982
L356.411 112.606
L356.539 112.606
L356.539 112.23
L356.73 112.23
L356.73 111.478
L356.921 111.478
L356.921 110.726
L358.546 110.726
L358.608 109.598
L358.669 109.598
L358.669 108.846
L358.914 108.846
L358.914 108.47
L359.942 108.47
L359.942 107.718
L360.597 107.718
L360.597 107.342
L362.342 107.342
L362.399 106.59
L362.855 106.59
L362.855 106.214
L363.193 106.214
L363.25 105.086
L364.197 105.086
L364.197 104.71
L364.417 104.71
L364.417 104.334
L364.636 104.334
L364.636 103.958
L364.964 103.958
L364.964 103.582
L365.127 103.582
L365.181 102.454
L365.559 102.454
L365.559 102.078
L366.518 102.078
L366.518 101.702
L366.781 101.702
L366.781 100.95
L367.148 100.95
L367.148 99.8218
L372.403 99.8218
L372.403 99.4457
L372.92 99.4457
L372.92 99.0697
L375.605 99.0697
L375.605 98.6937
L375.87 98.6937
L375.87 97.9417
L376.09 97.9417
L376.09 97.5656
L377.435 97.5656
L377.435 97.1896
L378.913 97.1896
L378.913 96.4376
L379.079 96.4376
L379.079 96.0616
L379.656 96.0616
L379.656 95.6855
L380.632 95.6855
L380.632 95.3095
L381.153 95.3095
L381.153 94.5575
L381.511 94.5575
L381.55 93.8054
L383.033 93.8054
L383.071 93.0534
L383.301 93.0534
L383.301 92.6774
L384.474 92.6774
L384.474 92.3014
L384.921 92.3014
L384.921 91.9253
L385.254 91.9253
L385.254 91.5493
L385.548 91.5493
L385.548 91.1733
L385.767 91.1733
L385.767 90.7973
L386.672 90.7973
L386.672 90.4213
L387.278 90.4213
L387.278 90.0452
L388.087 90.0452
L388.087 89.6692
L388.4 89.6692
L388.504 88.5412
L395.16 88.5412
L395.16 88.1651
L396.454 88.1651
L396.454 87.7891
L396.986 87.7891
L396.986 87.4131
L399.232 87.4131
L399.232 86.6611
L399.401 86.6611
L399.401 86.285
L399.626 86.285
L399.626 85.909
L400.375 85.909
L400.431 84.781
L400.815 84.781
L400.815 84.4049
L402.271 84.4049
L402.271 83.6529
L402.984 83.6529
L402.984 83.2769
L403.35 83.2769
L403.35 82.9009
L406.064 82.9009
L406.064 82.5248
L406.311 82.5248
L406.311 82.1488
L409.439 82.1488
L409.439 81.7728
L409.554 81.7728
L409.554 81.3968
L411.148 81.3968
L411.148 81.0208
L411.728 81.0208
L411.728 80.6447
L411.861 80.6447
L411.861 80.2687
L412.038 80.2687
L412.038 79.8927
L414.702 79.8927
L414.702 79.5167
L414.848 79.5167
L414.848 79.1407
L419.195 79.1407
L419.195 78.7646
L420.09 78.7646
L420.09 78.3886
L421.156 78.3886
L421.156 78.0126
L421.818 78.0126
L421.818 77.6366
L422.58 77.6366
L422.58 77.2606
L422.831 77.2606
L422.831 76.8845
L423.983 76.8845
L423.983 76.5085
L424.385 76.5085
L424.385 75.7565
L424.507 75.7565
L424.593 74.6284
L428.224 74.6284
L428.224 74.2524
L428.722 74.2524
L428.722 73.8764
L429.595 73.8764
L429.595 73.5004
L429.831 73.5004
L429.831 73.1243
L430.018 73.1243
L430.018 72.7483
L430.33 72.7483
L430.33 72.3723
L430.901 72.3723
L430.901 71.6203
L431.176 71.6203
L431.176 71.2442
L431.329 71.2442
L431.329 70.8682
L431.844 70.8682
L431.844 70.4922
L436.181 70.4922
L436.181 70.1162
L437.143 70.1162
L437.17 69.3641
L437.577 69.3641
L437.604 68.6121
L438.074 68.6121
L438.074 68.2361
L438.208 68.2361
L438.208 67.8601
L438.897 67.8601
L438.897 67.484
L439.421 67.484
L439.512 66.356
L442.705 66.356
L442.705 65.98
L443.879 65.98
L443.879 65.6039
L445.493 65.6039
L445.493 65.2279
L449.274 65.2279
L449.274 64.8519
L451.076 64.8519
L451.076 64.8519" style="fill:none;stroke:#0000ff;stroke-linecap:square;stroke-width:1.5;"/>
   </g>
   <g id="line2d_13">
    <defs>
     <path d="
M3.67394e-16 -6
L-1.34708 -1.8541
L-5.70634 -1.8541
L-2.17963 0.708204
L-3.52671 4.8541
L-4.20996e-16 2.2918
L3.52671 4.8541
L2.17963 0.708204
L5.70634 -1.8541
L1.34708 -1.8541
z
" id="m0933169453" style="stroke:#0000ff;stroke-linejoin:bevel;stroke-width:1.5;"/>
    </defs>
    <g>
     <use style="fill:none;stroke:#0000ff;stroke-linejoin:bevel;stroke-width:1.5;" x="163.32359948" xlink:href="#m0933169453" y="308.136847697"/>
     <use style="fill:none;stroke:#0000ff;stroke-linejoin:bevel;stroke-width:1.5;" x="230.079899572" xlink:href="#m0933169453" y="228.420603546"/>
     <use style="fill:none;stroke:#0000ff;stroke-linejoin:bevel;stroke-width:1.5;" x="293.899930124" xlink:href="#m0933169453" y="156.976799825"/>
     <use style="fill:none;stroke:#0000ff;stroke-linejoin:bevel;stroke-width:1.5;" x="381.550292995" xlink:href="#m0933169453" y="94.181456554"/>
     <use style="fill:none;stroke:#0000ff;stroke-linejoin:bevel;stroke-width:1.5;" x="449.27365569" xlink:href="#m0933169453" y="64.8518950264"/>
     <use style="fill:none;stroke:#0000ff;stroke-linejoin:bevel;stroke-width:1.5;" x="451.07640052" xlink:href="#m0933169453" y="64.8518950264"/>
    </g>
   </g>
   <g id="line2d_14"/>
   <g id="line2d_15">
    <path clip-path="url(#p5e7421a262)" d="
M331.181 123.511" style="fill:none;stroke:#0000ff;stroke-linecap:square;"/>
    <defs>
     <path d="
M-12 12
L12 -12
M-12 -12
L12 12" id="ma4a355cd2c" style="stroke:#0000ff;stroke-width:3;"/>
    </defs>
    <g clip-path="url(#p5e7421a262)">
     <use style="fill:#0000ff;stroke:#0000ff;stroke-width:3;" x="331.180527104" xlink:href="#ma4a355cd2c" y="123.511018082"/>
    </g>
   </g>
   <g id="line2d_16">
    <path d="
M451.076 80.0487
L490.676 351.68" style="fill:none;stroke:#00bfbf;stroke-linecap:square;stroke-width:1.5;"/>
    <g>
     <use style="fill:none;stroke:#00bfbf;stroke-width:1.5;" x="451.07640052" xlink:href="#m3e4de746de" y="80.0487041158"/>
     <use style="fill:none;stroke:#00bfbf;stroke-width:1.5;" x="490.67640052" xlink:href="#m3e4de746de" y="351.679965965"/>
    </g>
   </g>
   <g id="line2d_17">
    <path d="
M451.076 64.8519
L490.676 187.434" style="fill:none;stroke:#0000ff;stroke-linecap:square;stroke-width:1.5;"/>
    <g>
     <use style="fill:none;stroke:#0000ff;stroke-linejoin:bevel;stroke-width:1.5;" x="451.07640052" xlink:href="#m0933169453" y="64.8518950264"/>
     <use style="fill:none;stroke:#0000ff;stroke-linejoin:bevel;stroke-width:1.5;" x="490.67640052" xlink:href="#m0933169453" y="187.434421411"/>
    </g>
   </g>
   <g id="line2d_18">
    <path d="
M451.076 52.3269
L490.676 23.1889" style="fill:none;stroke:#008000;stroke-linecap:square;stroke-width:1.5;"/>
    <g>
     <use style="fill:none;stroke:#008000;stroke-linejoin:miter;stroke-width:1.5;" x="451.07640052" xlink:href="#m397e16cd68" y="52.3269395287"/>
     <use style="fill:none;stroke:#008000;stroke-linejoin:miter;stroke-width:1.5;" x="490.67640052" xlink:href="#m397e16cd68" y="23.1888768564"/>
    </g>
   </g>
   <g id="line2d_19">
    <path d="
M451.076 358.524
L451.076 16.3453" style="fill:none;stroke:#000000;stroke-linecap:square;"/>
   </g>
   <g id="matplotlib.axis_1">
    <g id="xtick_1">
     <g id="line2d_20">
      <path clip-path="url(#p5e7421a262)" d="
M91.0764 358.524
L91.0764 12.9235" style="fill:none;stroke:#000000;stroke-dasharray:1.000000,3.000000;stroke-dashoffset:0.0;stroke-width:0.5;"/>
     </g>
     <g id="line2d_21">
      <defs>
       <path d="
M0 0
L0 -4" id="m93b0483c22" style="stroke:#000000;stroke-width:0.5;"/>
      </defs>
      <g>
       <use style="stroke:#000000;stroke-width:0.5;" x="91.0764005203" xlink:href="#m93b0483c22" y="358.523530322"/>
      </g>
     </g>
     <g id="line2d_22">
      <defs>
       <path d="
M0 0
L0 4" id="m741efc42ff" style="stroke:#000000;stroke-width:0.5;"/>
      </defs>
      <g>
       <use style="stroke:#000000;stroke-width:0.5;" x="91.0764005203" xlink:href="#m741efc42ff" y="12.9235303218"/>
      </g>
     </g>
     <g id="text_1">
      <!-- 0 -->
      <defs>
       <path d="
M4.15625 35.2969
Q4.15625 48 6.76562 55.7344
Q9.375 63.4844 14.5156 67.6719
Q19.6719 71.875 27.4844 71.875
Q33.25 71.875 37.5938 69.5469
Q41.9375 67.2344 44.7656 62.8594
Q47.6094 58.5 49.2188 52.2188
Q50.8281 45.9531 50.8281 35.2969
Q50.8281 22.7031 48.2344 14.9688
Q45.6562 7.23438 40.5 3
Q35.3594 -1.21875 27.4844 -1.21875
Q17.1406 -1.21875 11.2344 6.20312
Q4.15625 15.1406 4.15625 35.2969
M13.1875 35.2969
Q13.1875 17.6719 17.3125 11.8281
Q21.4375 6 27.4844 6
Q33.5469 6 37.6719 11.8594
Q41.7969 17.7188 41.7969 35.2969
Q41.7969 52.9844 37.6719 58.7812
Q33.5469 64.5938 27.3906 64.5938
Q21.3438 64.5938 17.7188 59.4688
Q13.1875 52.9375 13.1875 35.2969" id="ArialMT-30"/>
      </defs>
      <g transform="translate(86.4092130203 376.839155322)scale(0.2 -0.2)">
       <use xlink:href="#ArialMT-30"/>
      </g>
     </g>
    </g>
    <g id="xtick_2">
     <g id="line2d_23">
      <path clip-path="url(#p5e7421a262)" d="
M211.076 358.524
L211.076 12.9235" style="fill:none;stroke:#000000;stroke-dasharray:1.000000,3.000000;stroke-dashoffset:0.0;stroke-width:0.5;"/>
     </g>
     <g id="line2d_24">
      <g>
       <use style="stroke:#000000;stroke-width:0.5;" x="211.07640052" xlink:href="#m93b0483c22" y="358.523530322"/>
      </g>
     </g>
     <g id="line2d_25">
      <g>
       <use style="stroke:#000000;stroke-width:0.5;" x="211.07640052" xlink:href="#m741efc42ff" y="12.9235303218"/>
      </g>
     </g>
     <g id="text_2">
      <!-- 1 -->
      <defs>
       <path d="
M37.25 0
L28.4688 0
L28.4688 56
Q25.2969 52.9844 20.1406 49.9531
Q14.9844 46.9219 10.8906 45.4062
L10.8906 53.9062
Q18.2656 57.375 23.7812 62.2969
Q29.2969 67.2344 31.5938 71.875
L37.25 71.875
z
" id="ArialMT-31"/>
      </defs>
      <g transform="translate(208.44046302 376.839155322)scale(0.2 -0.2)">
       <use xlink:href="#ArialMT-31"/>
      </g>
     </g>
    </g>
    <g id="xtick_3">
     <g id="line2d_26">
      <path clip-path="url(#p5e7421a262)" d="
M331.076 358.524
L331.076 12.9235" style="fill:none;stroke:#000000;stroke-dasharray:1.000000,3.000000;stroke-dashoffset:0.0;stroke-width:0.5;"/>
     </g>
     <g id="line2d_27">
      <g>
       <use style="stroke:#000000;stroke-width:0.5;" x="331.07640052" xlink:href="#m93b0483c22" y="358.523530322"/>
      </g>
     </g>
     <g id="line2d_28">
      <g>
       <use style="stroke:#000000;stroke-width:0.5;" x="331.07640052" xlink:href="#m741efc42ff" y="12.9235303218"/>
      </g>
     </g>
     <g id="text_3">
      <!-- 2 -->
      <defs>
       <path d="
M50.3438 8.45312
L50.3438 0
L3.03125 0
Q2.9375 3.17188 4.04688 6.10938
Q5.85938 10.9375 9.82812 15.625
Q13.8125 20.3125 21.3438 26.4688
Q33.0156 36.0312 37.1094 41.625
Q41.2188 47.2188 41.2188 52.2031
Q41.2188 57.4219 37.4688 61
Q33.7344 64.5938 27.7344 64.5938
Q21.3906 64.5938 17.5781 60.7812
Q13.7656 56.9844 13.7188 50.25
L4.6875 51.1719
Q5.60938 61.2812 11.6562 66.5781
Q17.7188 71.875 27.9375 71.875
Q38.2344 71.875 44.2344 66.1562
Q50.25 60.4531 50.25 52
Q50.25 47.7031 48.4844 43.5469
Q46.7344 39.4062 42.6562 34.8125
Q38.5781 30.2188 29.1094 22.2188
Q21.1875 15.5781 18.9375 13.2031
Q16.7031 10.8438 15.2344 8.45312
z
" id="ArialMT-32"/>
      </defs>
      <g transform="translate(326.33577552 376.839155322)scale(0.2 -0.2)">
       <use xlink:href="#ArialMT-32"/>
      </g>
     </g>
    </g>
    <g id="xtick_4">
     <g id="line2d_29">
      <path clip-path="url(#p5e7421a262)" d="
M451.076 358.524
L451.076 12.9235" style="fill:none;stroke:#000000;stroke-dasharray:1.000000,3.000000;stroke-dashoffset:0.0;stroke-width:0.5;"/>
     </g>
     <g id="line2d_30">
      <g>
       <use style="stroke:#000000;stroke-width:0.5;" x="451.07640052" xlink:href="#m93b0483c22" y="358.523530322"/>
      </g>
     </g>
     <g id="line2d_31">
      <g>
       <use style="stroke:#000000;stroke-width:0.5;" x="451.07640052" xlink:href="#m741efc42ff" y="12.9235303218"/>
      </g>
     </g>
     <g id="text_4">
      <!-- 3 -->
      <defs>
       <path d="
M4.20312 18.8906
L12.9844 20.0625
Q14.5 12.5938 18.1406 9.29688
Q21.7812 6 27 6
Q33.2031 6 37.4688 10.2969
Q41.75 14.5938 41.75 20.9531
Q41.75 27 37.7969 30.9219
Q33.8438 34.8594 27.7344 34.8594
Q25.25 34.8594 21.5312 33.8906
L22.5156 41.6094
Q23.3906 41.5 23.9219 41.5
Q29.5469 41.5 34.0312 44.4219
Q38.5312 47.3594 38.5312 53.4688
Q38.5312 58.2969 35.25 61.4688
Q31.9844 64.6562 26.8125 64.6562
Q21.6875 64.6562 18.2656 61.4219
Q14.8438 58.2031 13.875 51.7656
L5.07812 53.3281
Q6.6875 62.1562 12.3906 67.0156
Q18.1094 71.875 26.6094 71.875
Q32.4688 71.875 37.3906 69.3594
Q42.3281 66.8438 44.9375 62.5
Q47.5625 58.1562 47.5625 53.2656
Q47.5625 48.6406 45.0625 44.8281
Q42.5781 41.0156 37.7031 38.7656
Q44.0469 37.3125 47.5625 32.6875
Q51.0781 28.0781 51.0781 21.1406
Q51.0781 11.7656 44.2344 5.25
Q37.4062 -1.26562 26.9531 -1.26562
Q17.5312 -1.26562 11.2969 4.34375
Q5.07812 9.96875 4.20312 18.8906" id="ArialMT-33"/>
      </defs>
      <g transform="translate(446.38890052 376.839155322)scale(0.2 -0.2)">
       <use xlink:href="#ArialMT-33"/>
      </g>
     </g>
    </g>
    <g id="xtick_5">
     <g id="line2d_32">
      <defs>
       <path d="
M0 0
L0 -2" id="m177f7580d0" style="stroke:#000000;stroke-width:0.5;"/>
      </defs>
      <g>
       <use style="stroke:#000000;stroke-width:0.5;" x="127.2" xlink:href="#m177f7580d0" y="358.523530322"/>
      </g>
     </g>
     <g id="line2d_33">
      <defs>
       <path d="
M0 0
L0 2" id="m5284c7e2a0" style="stroke:#000000;stroke-width:0.5;"/>
      </defs>
      <g>
       <use style="stroke:#000000;stroke-width:0.5;" x="127.2" xlink:href="#m5284c7e2a0" y="12.9235303218"/>
      </g>
     </g>
    </g>
    <g id="xtick_6">
     <g id="line2d_34">
      <g>
       <use style="stroke:#000000;stroke-width:0.5;" x="148.330951087" xlink:href="#m177f7580d0" y="358.523530322"/>
      </g>
     </g>
     <g id="line2d_35">
      <g>
       <use style="stroke:#000000;stroke-width:0.5;" x="148.330951087" xlink:href="#m5284c7e2a0" y="12.9235303218"/>
      </g>
     </g>
    </g>
    <g id="xtick_7">
     <g id="line2d_36">
      <g>
       <use style="stroke:#000000;stroke-width:0.5;" x="163.32359948" xlink:href="#m177f7580d0" y="358.523530322"/>
      </g>
     </g>
     <g id="line2d_37">
      <g>
       <use style="stroke:#000000;stroke-width:0.5;" x="163.32359948" xlink:href="#m5284c7e2a0" y="12.9235303218"/>
      </g>
     </g>
    </g>
    <g id="xtick_8">
     <g id="line2d_38">
      <g>
       <use style="stroke:#000000;stroke-width:0.5;" x="174.952801041" xlink:href="#m177f7580d0" y="358.523530322"/>
      </g>
     </g>
     <g id="line2d_39">
      <g>
       <use style="stroke:#000000;stroke-width:0.5;" x="174.952801041" xlink:href="#m5284c7e2a0" y="12.9235303218"/>
      </g>
     </g>
    </g>
    <g id="xtick_9">
     <g id="line2d_40">
      <g>
       <use style="stroke:#000000;stroke-width:0.5;" x="184.454550566" xlink:href="#m177f7580d0" y="358.523530322"/>
      </g>
     </g>
     <g id="line2d_41">
      <g>
       <use style="stroke:#000000;stroke-width:0.5;" x="184.454550566" xlink:href="#m5284c7e2a0" y="12.9235303218"/>
      </g>
     </g>
    </g>
    <g id="xtick_10">
     <g id="line2d_42">
      <g>
       <use style="stroke:#000000;stroke-width:0.5;" x="192.488165322" xlink:href="#m177f7580d0" y="358.523530322"/>
      </g>
     </g>
     <g id="line2d_43">
      <g>
       <use style="stroke:#000000;stroke-width:0.5;" x="192.488165322" xlink:href="#m5284c7e2a0" y="12.9235303218"/>
      </g>
     </g>
    </g>
    <g id="xtick_11">
     <g id="line2d_44">
      <g>
       <use style="stroke:#000000;stroke-width:0.5;" x="199.447198959" xlink:href="#m177f7580d0" y="358.523530322"/>
      </g>
     </g>
     <g id="line2d_45">
      <g>
       <use style="stroke:#000000;stroke-width:0.5;" x="199.447198959" xlink:href="#m5284c7e2a0" y="12.9235303218"/>
      </g>
     </g>
    </g>
    <g id="xtick_12">
     <g id="line2d_46">
      <g>
       <use style="stroke:#000000;stroke-width:0.5;" x="205.585501653" xlink:href="#m177f7580d0" y="358.523530322"/>
      </g>
     </g>
     <g id="line2d_47">
      <g>
       <use style="stroke:#000000;stroke-width:0.5;" x="205.585501653" xlink:href="#m5284c7e2a0" y="12.9235303218"/>
      </g>
     </g>
    </g>
    <g id="xtick_13">
     <g id="line2d_48">
      <g>
       <use style="stroke:#000000;stroke-width:0.5;" x="247.2" xlink:href="#m177f7580d0" y="358.523530322"/>
      </g>
     </g>
     <g id="line2d_49">
      <g>
       <use style="stroke:#000000;stroke-width:0.5;" x="247.2" xlink:href="#m5284c7e2a0" y="12.9235303218"/>
      </g>
     </g>
    </g>
    <g id="xtick_14">
     <g id="line2d_50">
      <g>
       <use style="stroke:#000000;stroke-width:0.5;" x="268.330951087" xlink:href="#m177f7580d0" y="358.523530322"/>
      </g>
     </g>
     <g id="line2d_51">
      <g>
       <use style="stroke:#000000;stroke-width:0.5;" x="268.330951087" xlink:href="#m5284c7e2a0" y="12.9235303218"/>
      </g>
     </g>
    </g>
    <g id="xtick_15">
     <g id="line2d_52">
      <g>
       <use style="stroke:#000000;stroke-width:0.5;" x="283.32359948" xlink:href="#m177f7580d0" y="358.523530322"/>
      </g>
     </g>
     <g id="line2d_53">
      <g>
       <use style="stroke:#000000;stroke-width:0.5;" x="283.32359948" xlink:href="#m5284c7e2a0" y="12.9235303218"/>
      </g>
     </g>
    </g>
    <g id="xtick_16">
     <g id="line2d_54">
      <g>
       <use style="stroke:#000000;stroke-width:0.5;" x="294.952801041" xlink:href="#m177f7580d0" y="358.523530322"/>
      </g>
     </g>
     <g id="line2d_55">
      <g>
       <use style="stroke:#000000;stroke-width:0.5;" x="294.952801041" xlink:href="#m5284c7e2a0" y="12.9235303218"/>
      </g>
     </g>
    </g>
    <g id="xtick_17">
     <g id="line2d_56">
      <g>
       <use style="stroke:#000000;stroke-width:0.5;" x="304.454550566" xlink:href="#m177f7580d0" y="358.523530322"/>
      </g>
     </g>
     <g id="line2d_57">
      <g>
       <use style="stroke:#000000;stroke-width:0.5;" x="304.454550566" xlink:href="#m5284c7e2a0" y="12.9235303218"/>
      </g>
     </g>
    </g>
    <g id="xtick_18">
     <g id="line2d_58">
      <g>
       <use style="stroke:#000000;stroke-width:0.5;" x="312.488165322" xlink:href="#m177f7580d0" y="358.523530322"/>
      </g>
     </g>
     <g id="line2d_59">
      <g>
       <use style="stroke:#000000;stroke-width:0.5;" x="312.488165322" xlink:href="#m5284c7e2a0" y="12.9235303218"/>
      </g>
     </g>
    </g>
    <g id="xtick_19">
     <g id="line2d_60">
      <g>
       <use style="stroke:#000000;stroke-width:0.5;" x="319.447198959" xlink:href="#m177f7580d0" y="358.523530322"/>
      </g>
     </g>
     <g id="line2d_61">
      <g>
       <use style="stroke:#000000;stroke-width:0.5;" x="319.447198959" xlink:href="#m5284c7e2a0" y="12.9235303218"/>
      </g>
     </g>
    </g>
    <g id="xtick_20">
     <g id="line2d_62">
      <g>
       <use style="stroke:#000000;stroke-width:0.5;" x="325.585501653" xlink:href="#m177f7580d0" y="358.523530322"/>
      </g>
     </g>
     <g id="line2d_63">
      <g>
       <use style="stroke:#000000;stroke-width:0.5;" x="325.585501653" xlink:href="#m5284c7e2a0" y="12.9235303218"/>
      </g>
     </g>
    </g>
    <g id="xtick_21">
     <g id="line2d_64">
      <g>
       <use style="stroke:#000000;stroke-width:0.5;" x="367.2" xlink:href="#m177f7580d0" y="358.523530322"/>
      </g>
     </g>
     <g id="line2d_65">
      <g>
       <use style="stroke:#000000;stroke-width:0.5;" x="367.2" xlink:href="#m5284c7e2a0" y="12.9235303218"/>
      </g>
     </g>
    </g>
    <g id="xtick_22">
     <g id="line2d_66">
      <g>
       <use style="stroke:#000000;stroke-width:0.5;" x="388.330951087" xlink:href="#m177f7580d0" y="358.523530322"/>
      </g>
     </g>
     <g id="line2d_67">
      <g>
       <use style="stroke:#000000;stroke-width:0.5;" x="388.330951087" xlink:href="#m5284c7e2a0" y="12.9235303218"/>
      </g>
     </g>
    </g>
    <g id="xtick_23">
     <g id="line2d_68">
      <g>
       <use style="stroke:#000000;stroke-width:0.5;" x="403.32359948" xlink:href="#m177f7580d0" y="358.523530322"/>
      </g>
     </g>
     <g id="line2d_69">
      <g>
       <use style="stroke:#000000;stroke-width:0.5;" x="403.32359948" xlink:href="#m5284c7e2a0" y="12.9235303218"/>
      </g>
     </g>
    </g>
    <g id="xtick_24">
     <g id="line2d_70">
      <g>
       <use style="stroke:#000000;stroke-width:0.5;" x="414.952801041" xlink:href="#m177f7580d0" y="358.523530322"/>
      </g>
     </g>
     <g id="line2d_71">
      <g>
       <use style="stroke:#000000;stroke-width:0.5;" x="414.952801041" xlink:href="#m5284c7e2a0" y="12.9235303218"/>
      </g>
     </g>
    </g>
    <g id="xtick_25">
     <g id="line2d_72">
      <g>
       <use style="stroke:#000000;stroke-width:0.5;" x="424.454550566" xlink:href="#m177f7580d0" y="358.523530322"/>
      </g>
     </g>
     <g id="line2d_73">
      <g>
       <use style="stroke:#000000;stroke-width:0.5;" x="424.454550566" xlink:href="#m5284c7e2a0" y="12.9235303218"/>
      </g>
     </g>
    </g>
    <g id="xtick_26">
     <g id="line2d_74">
      <g>
       <use style="stroke:#000000;stroke-width:0.5;" x="432.488165322" xlink:href="#m177f7580d0" y="358.523530322"/>
      </g>
     </g>
     <g id="line2d_75">
      <g>
       <use style="stroke:#000000;stroke-width:0.5;" x="432.488165322" xlink:href="#m5284c7e2a0" y="12.9235303218"/>
      </g>
     </g>
    </g>
    <g id="xtick_27">
     <g id="line2d_76">
      <g>
       <use style="stroke:#000000;stroke-width:0.5;" x="439.447198959" xlink:href="#m177f7580d0" y="358.523530322"/>
      </g>
     </g>
     <g id="line2d_77">
      <g>
       <use style="stroke:#000000;stroke-width:0.5;" x="439.447198959" xlink:href="#m5284c7e2a0" y="12.9235303218"/>
      </g>
     </g>
    </g>
    <g id="xtick_28">
     <g id="line2d_78">
      <g>
       <use style="stroke:#000000;stroke-width:0.5;" x="445.585501653" xlink:href="#m177f7580d0" y="358.523530322"/>
      </g>
     </g>
     <g id="line2d_79">
      <g>
       <use style="stroke:#000000;stroke-width:0.5;" x="445.585501653" xlink:href="#m5284c7e2a0" y="12.9235303218"/>
      </g>
     </g>
    </g>
    <g id="xtick_29">
     <g id="line2d_80">
      <g>
       <use style="stroke:#000000;stroke-width:0.5;" x="487.2" xlink:href="#m177f7580d0" y="358.523530322"/>
      </g>
     </g>
     <g id="line2d_81">
      <g>
       <use style="stroke:#000000;stroke-width:0.5;" x="487.2" xlink:href="#m5284c7e2a0" y="12.9235303218"/>
      </g>
     </g>
    </g>
    <g id="xtick_30">
     <g id="line2d_82">
      <g>
       <use style="stroke:#000000;stroke-width:0.5;" x="508.330951087" xlink:href="#m177f7580d0" y="358.523530322"/>
      </g>
     </g>
     <g id="line2d_83">
      <g>
       <use style="stroke:#000000;stroke-width:0.5;" x="508.330951087" xlink:href="#m5284c7e2a0" y="12.9235303218"/>
      </g>
     </g>
    </g>
    <g id="xtick_31">
     <g id="line2d_84">
      <g>
       <use style="stroke:#000000;stroke-width:0.5;" x="523.32359948" xlink:href="#m177f7580d0" y="358.523530322"/>
      </g>
     </g>
     <g id="line2d_85">
      <g>
       <use style="stroke:#000000;stroke-width:0.5;" x="523.32359948" xlink:href="#m5284c7e2a0" y="12.9235303218"/>
      </g>
     </g>
    </g>
    <g id="xtick_32">
     <g id="line2d_86">
      <g>
       <use style="stroke:#000000;stroke-width:0.5;" x="534.952801041" xlink:href="#m177f7580d0" y="358.523530322"/>
      </g>
     </g>
     <g id="line2d_87">
      <g>
       <use style="stroke:#000000;stroke-width:0.5;" x="534.952801041" xlink:href="#m5284c7e2a0" y="12.9235303218"/>
      </g>
     </g>
    </g>
    <g id="text_5">
     <!-- log10 of (# f-evals / dimension) -->
     <defs>
      <path d="
M12.3594 -21.0469
L6.0625 -21.0469
Q20.6562 2.39062 20.6562 25.875
Q20.6562 35.0625 18.5625 44.0938
Q16.8906 51.4219 13.9219 58.1562
Q12.0156 62.5469 6.0625 72.7969
L12.3594 72.7969
Q21.5312 60.5469 25.9219 48.1875
Q29.6875 37.5469 29.6875 25.9219
Q29.6875 12.75 24.625 0.4375
Q19.5781 -11.8594 12.3594 -21.0469" id="ArialMT-29"/>
      <path d="
M40.4375 6.39062
Q35.5469 2.25 31.0312 0.53125
Q26.5156 -1.17188 21.3438 -1.17188
Q12.7969 -1.17188 8.20312 3
Q3.60938 7.17188 3.60938 13.6719
Q3.60938 17.4844 5.34375 20.625
Q7.07812 23.7812 9.89062 25.6875
Q12.7031 27.5938 16.2188 28.5625
Q18.7969 29.25 24.0312 29.8906
Q34.6719 31.1562 39.7031 32.9062
Q39.75 34.7188 39.75 35.2031
Q39.75 40.5781 37.25 42.7812
Q33.8906 45.75 27.25 45.75
Q21.0469 45.75 18.0938 43.5781
Q15.1406 41.4062 13.7188 35.8906
L5.125 37.0625
Q6.29688 42.5781 8.98438 45.9688
Q11.6719 49.3594 16.75 51.1875
Q21.8281 53.0312 28.5156 53.0312
Q35.1562 53.0312 39.2969 51.4688
Q43.4531 49.9062 45.4062 47.5312
Q47.3594 45.1719 48.1406 41.5469
Q48.5781 39.3125 48.5781 33.4531
L48.5781 21.7344
Q48.5781 9.46875 49.1406 6.21875
Q49.7031 2.98438 51.375 0
L42.1875 0
Q40.8281 2.73438 40.4375 6.39062
M39.7031 26.0312
Q34.9062 24.0781 25.3438 22.7031
Q19.9219 21.9219 17.6719 20.9375
Q15.4375 19.9688 14.2031 18.0938
Q12.9844 16.2188 12.9844 13.9219
Q12.9844 10.4062 15.6406 8.0625
Q18.3125 5.71875 23.4375 5.71875
Q28.5156 5.71875 32.4688 7.9375
Q36.4219 10.1562 38.2812 14.0156
Q39.7031 17 39.7031 22.7969
z
" id="ArialMT-61"/>
      <path d="
M4.98438 -4.29688
L13.5312 -5.5625
Q14.0625 -9.51562 16.5 -11.3281
Q19.7812 -13.7656 25.4375 -13.7656
Q31.5469 -13.7656 34.8594 -11.3281
Q38.1875 -8.89062 39.3594 -4.5
Q40.0469 -1.8125 39.9844 6.78125
Q34.2344 0 25.6406 0
Q14.9375 0 9.07812 7.71875
Q3.21875 15.4375 3.21875 26.2188
Q3.21875 33.6406 5.90625 39.9062
Q8.59375 46.1875 13.6875 49.6094
Q18.7969 53.0312 25.6875 53.0312
Q34.8594 53.0312 40.8281 45.6094
L40.8281 51.8594
L48.9219 51.8594
L48.9219 7.03125
Q48.9219 -5.07812 46.4531 -10.125
Q44 -15.1875 38.6406 -18.1094
Q33.2969 -21.0469 25.4844 -21.0469
Q16.2188 -21.0469 10.5 -16.875
Q4.78125 -12.7031 4.98438 -4.29688
M12.25 26.8594
Q12.25 16.6562 16.2969 11.9688
Q20.3594 7.28125 26.4688 7.28125
Q32.5156 7.28125 36.6094 11.9375
Q40.7188 16.6094 40.7188 26.5625
Q40.7188 36.0781 36.5 40.9062
Q32.2812 45.75 26.3125 45.75
Q20.4531 45.75 16.3438 40.9844
Q12.25 36.2344 12.25 26.8594" id="ArialMT-67"/>
      <path d="
M8.6875 0
L8.6875 45.0156
L0.921875 45.0156
L0.921875 51.8594
L8.6875 51.8594
L8.6875 57.375
Q8.6875 62.5938 9.625 65.1406
Q10.8906 68.5625 14.0781 70.6719
Q17.2812 72.7969 23.0469 72.7969
Q26.7656 72.7969 31.25 71.9219
L29.9375 64.2656
Q27.2031 64.75 24.75 64.75
Q20.75 64.75 19.0938 63.0312
Q17.4375 61.3281 17.4375 56.6406
L17.4375 51.8594
L27.5469 51.8594
L27.5469 45.0156
L17.4375 45.0156
L17.4375 0
z
" id="ArialMT-66"/>
      <path d="
M42.0938 16.7031
L51.1719 15.5781
Q49.0312 7.625 43.2188 3.21875
Q37.4062 -1.17188 28.375 -1.17188
Q17 -1.17188 10.3281 5.82812
Q3.65625 12.8438 3.65625 25.4844
Q3.65625 38.5781 10.3906 45.7969
Q17.1406 53.0312 27.875 53.0312
Q38.2812 53.0312 44.875 45.9531
Q51.4688 38.875 51.4688 26.0312
Q51.4688 25.25 51.4219 23.6875
L12.75 23.6875
Q13.2344 15.1406 17.5781 10.5938
Q21.9219 6.0625 28.4219 6.0625
Q33.25 6.0625 36.6719 8.59375
Q40.0938 11.1406 42.0938 16.7031
M13.2344 30.9062
L42.1875 30.9062
Q41.6094 37.4531 38.875 40.7188
Q34.6719 45.7969 27.9844 45.7969
Q21.9219 45.7969 17.7969 41.75
Q13.6719 37.7031 13.2344 30.9062" id="ArialMT-65"/>
      <path d="
M40.2344 0
L40.2344 6.54688
Q35.2969 -1.17188 25.7344 -1.17188
Q19.5312 -1.17188 14.3281 2.25
Q9.125 5.67188 6.26562 11.7969
Q3.42188 17.9219 3.42188 25.875
Q3.42188 33.6406 6 39.9688
Q8.59375 46.2969 13.7656 49.6562
Q18.9531 53.0312 25.3438 53.0312
Q30.0312 53.0312 33.6875 51.0469
Q37.3594 49.0781 39.6562 45.9062
L39.6562 71.5781
L48.3906 71.5781
L48.3906 0
z

M12.4531 25.875
Q12.4531 15.9219 16.6406 10.9844
Q20.8438 6.0625 26.5625 6.0625
Q32.3281 6.0625 36.3438 10.7656
Q40.375 15.4844 40.375 25.1406
Q40.375 35.7969 36.2656 40.7656
Q32.1719 45.75 26.1719 45.75
Q20.3125 45.75 16.375 40.9688
Q12.4531 36.1875 12.4531 25.875" id="ArialMT-64"/>
      <path d="
M0 -1.21875
L20.75 72.7969
L27.7812 72.7969
L7.07812 -1.21875
z
" id="ArialMT-2f"/>
      <path d="
M21 0
L1.26562 51.8594
L10.5469 51.8594
L21.6875 20.7969
Q23.4844 15.7656 25 10.3594
Q26.1719 14.4531 28.2656 20.2188
L39.7969 51.8594
L48.8281 51.8594
L29.2031 0
z
" id="ArialMT-76"/>
      <path d="
M3.17188 21.4844
L3.17188 30.3281
L30.1719 30.3281
L30.1719 21.4844
z
" id="ArialMT-2d"/>
      <path d="
M6.59375 0
L6.59375 51.8594
L14.4531 51.8594
L14.4531 44.5781
Q16.8906 48.3906 20.9375 50.7031
Q25 53.0312 30.1719 53.0312
Q35.9375 53.0312 39.625 50.6406
Q43.3125 48.25 44.8281 43.9531
Q50.9844 53.0312 60.8438 53.0312
Q68.5625 53.0312 72.7031 48.75
Q76.8594 44.4844 76.8594 35.5938
L76.8594 0
L68.1094 0
L68.1094 32.6719
Q68.1094 37.9375 67.25 40.25
Q66.4062 42.5781 64.1562 43.9844
Q61.9219 45.4062 58.8906 45.4062
Q53.4219 45.4062 49.7969 41.7656
Q46.1875 38.1406 46.1875 30.125
L46.1875 0
L37.4062 0
L37.4062 33.6875
Q37.4062 39.5469 35.25 42.4688
Q33.1094 45.4062 28.2188 45.4062
Q24.5156 45.4062 21.3594 43.4531
Q18.2188 41.5 16.7969 37.7344
Q15.375 33.9844 15.375 26.9062
L15.375 0
z
" id="ArialMT-6d"/>
      <path d="
M3.07812 15.4844
L11.7656 16.8438
Q12.5 11.625 15.8438 8.84375
Q19.1875 6.0625 25.2031 6.0625
Q31.25 6.0625 34.1719 8.51562
Q37.1094 10.9844 37.1094 14.3125
Q37.1094 17.2812 34.5156 19
Q32.7188 20.1719 25.5312 21.9688
Q15.875 24.4219 12.1406 26.2031
Q8.40625 27.9844 6.46875 31.125
Q4.54688 34.2812 4.54688 38.0938
Q4.54688 41.5469 6.125 44.5
Q7.71875 47.4688 10.4531 49.4219
Q12.5 50.9219 16.0312 51.9688
Q19.5781 53.0312 23.6406 53.0312
Q29.7344 53.0312 34.3438 51.2656
Q38.9688 49.5156 41.1562 46.5
Q43.3594 43.5 44.1875 38.4844
L35.5938 37.3125
Q35.0156 41.3125 32.2031 43.5469
Q29.3906 45.7969 24.2656 45.7969
Q18.2188 45.7969 15.625 43.7969
Q13.0312 41.7969 13.0312 39.1094
Q13.0312 37.4062 14.1094 36.0312
Q15.1875 34.625 17.4844 33.6875
Q18.7969 33.2031 25.25 31.4531
Q34.5781 28.9531 38.25 27.3594
Q41.9375 25.7812 44.0312 22.75
Q46.1406 19.7344 46.1406 15.2344
Q46.1406 10.8438 43.5781 6.95312
Q41.0156 3.07812 36.1719 0.953125
Q31.3438 -1.17188 25.25 -1.17188
Q15.1406 -1.17188 9.84375 3.03125
Q4.54688 7.23438 3.07812 15.4844" id="ArialMT-73"/>
      <path d="
M6.39062 0
L6.39062 71.5781
L15.1875 71.5781
L15.1875 0
z
" id="ArialMT-6c"/>
      <path d="
M3.32812 25.9219
Q3.32812 40.3281 11.3281 47.2656
Q18.0156 53.0312 27.6406 53.0312
Q38.3281 53.0312 45.1094 46.0156
Q51.9062 39.0156 51.9062 26.6562
Q51.9062 16.6562 48.9062 10.9062
Q45.9062 5.17188 40.1562 2
Q34.4219 -1.17188 27.6406 -1.17188
Q16.75 -1.17188 10.0312 5.8125
Q3.32812 12.7969 3.32812 25.9219
M12.3594 25.9219
Q12.3594 15.9688 16.7031 11.0156
Q21.0469 6.0625 27.6406 6.0625
Q34.1875 6.0625 38.5312 11.0312
Q42.875 16.0156 42.875 26.2188
Q42.875 35.8438 38.5 40.7969
Q34.125 45.75 27.6406 45.75
Q21.0469 45.75 16.7031 40.8125
Q12.3594 35.8906 12.3594 25.9219" id="ArialMT-6f"/>
      <path d="
M6.59375 0
L6.59375 51.8594
L14.5 51.8594
L14.5 44.4844
Q20.2188 53.0312 31 53.0312
Q35.6875 53.0312 39.625 51.3438
Q43.5625 49.6562 45.5156 46.9219
Q47.4688 44.1875 48.25 40.4375
Q48.7344 37.9844 48.7344 31.8906
L48.7344 0
L39.9375 0
L39.9375 31.5469
Q39.9375 36.9219 38.9062 39.5781
Q37.8906 42.2344 35.2812 43.8125
Q32.6719 45.4062 29.1562 45.4062
Q23.5312 45.4062 19.4531 41.8438
Q15.375 38.2812 15.375 28.3281
L15.375 0
z
" id="ArialMT-6e"/>
      <path d="
M23.3906 -21.0469
Q16.1094 -11.8594 11.0781 0.4375
Q6.0625 12.75 6.0625 25.9219
Q6.0625 37.5469 9.8125 48.1875
Q14.2031 60.5469 23.3906 72.7969
L29.6875 72.7969
Q23.7812 62.6406 21.875 58.2969
Q18.8906 51.5625 17.1875 44.2344
Q15.0938 35.1094 15.0938 25.875
Q15.0938 2.39062 29.6875 -21.0469
z
" id="ArialMT-28"/>
      <path d="
M5.03125 -1.21875
L9.28125 19.5781
L1.03125 19.5781
L1.03125 26.8594
L10.75 26.8594
L14.3594 44.5781
L1.03125 44.5781
L1.03125 51.8594
L15.8281 51.8594
L20.0625 72.7969
L27.3906 72.7969
L23.1406 51.8594
L38.5312 51.8594
L42.7812 72.7969
L50.1406 72.7969
L45.9062 51.8594
L54.3438 51.8594
L54.3438 44.5781
L44.4375 44.5781
L40.7656 26.8594
L54.3438 26.8594
L54.3438 19.5781
L39.3125 19.5781
L35.0625 -1.21875
L27.7344 -1.21875
L31.9375 19.5781
L16.6094 19.5781
L12.3594 -1.21875
z

M18.0625 26.8594
L33.4062 26.8594
L37.0625 44.5781
L21.6875 44.5781
z
" id="ArialMT-23"/>
      <path d="
M6.64062 61.4688
L6.64062 71.5781
L15.4375 71.5781
L15.4375 61.4688
z

M6.64062 0
L6.64062 51.8594
L15.4375 51.8594
L15.4375 0
z
" id="ArialMT-69"/>
      <path id="ArialMT-20"/>
     </defs>
     <g transform="translate(191.55015052 398.917592822)scale(0.18 -0.18)">
      <use xlink:href="#ArialMT-6c"/>
      <use x="22.216796875" xlink:href="#ArialMT-6f"/>
      <use x="77.83203125" xlink:href="#ArialMT-67"/>
      <use x="133.447265625" xlink:href="#ArialMT-31"/>
      <use x="189.0625" xlink:href="#ArialMT-30"/>
      <use x="244.677734375" xlink:href="#ArialMT-20"/>
      <use x="272.4609375" xlink:href="#ArialMT-6f"/>
      <use x="328.076171875" xlink:href="#ArialMT-66"/>
      <use x="355.859375" xlink:href="#ArialMT-20"/>
      <use x="383.642578125" xlink:href="#ArialMT-28"/>
      <use x="416.943359375" xlink:href="#ArialMT-23"/>
      <use x="472.55859375" xlink:href="#ArialMT-20"/>
      <use x="500.341796875" xlink:href="#ArialMT-66"/>
      <use x="528.125" xlink:href="#ArialMT-2d"/>
      <use x="561.42578125" xlink:href="#ArialMT-65"/>
      <use x="617.041015625" xlink:href="#ArialMT-76"/>
      <use x="667.041015625" xlink:href="#ArialMT-61"/>
      <use x="722.65625" xlink:href="#ArialMT-6c"/>
      <use x="744.873046875" xlink:href="#ArialMT-73"/>
      <use x="794.873046875" xlink:href="#ArialMT-20"/>
      <use x="822.65625" xlink:href="#ArialMT-2f"/>
      <use x="850.439453125" xlink:href="#ArialMT-20"/>
      <use x="878.22265625" xlink:href="#ArialMT-64"/>
      <use x="933.837890625" xlink:href="#ArialMT-69"/>
      <use x="956.0546875" xlink:href="#ArialMT-6d"/>
      <use x="1039.35546875" xlink:href="#ArialMT-65"/>
      <use x="1094.97070312" xlink:href="#ArialMT-6e"/>
      <use x="1150.5859375" xlink:href="#ArialMT-73"/>
      <use x="1200.5859375" xlink:href="#ArialMT-69"/>
      <use x="1222.80273438" xlink:href="#ArialMT-6f"/>
      <use x="1278.41796875" xlink:href="#ArialMT-6e"/>
      <use x="1334.03320312" xlink:href="#ArialMT-29"/>
     </g>
    </g>
   </g>
   <g id="matplotlib.axis_2">
    <g id="ytick_1">
     <g id="line2d_88">
      <path clip-path="url(#p5e7421a262)" d="
M91.0764 358.524
L537.476 358.524" style="fill:none;stroke:#000000;stroke-dasharray:1.000000,3.000000;stroke-dashoffset:0.0;stroke-width:0.5;"/>
     </g>
     <g id="line2d_89">
      <defs>
       <path d="
M0 0
L4 0" id="m728421d6d4" style="stroke:#000000;stroke-width:0.5;"/>
      </defs>
      <g>
       <use style="stroke:#000000;stroke-width:0.5;" x="91.0764005203" xlink:href="#m728421d6d4" y="358.523530322"/>
      </g>
     </g>
     <g id="line2d_90">
      <defs>
       <path d="
M0 0
L-4 0" id="mcb0005524f" style="stroke:#000000;stroke-width:0.5;"/>
      </defs>
      <g>
       <use style="stroke:#000000;stroke-width:0.5;" x="537.47640052" xlink:href="#mcb0005524f" y="358.523530322"/>
      </g>
     </g>
     <g id="text_6">
      <!-- 0.0 -->
      <defs>
       <path d="
M9.07812 0
L9.07812 10.0156
L19.0938 10.0156
L19.0938 0
z
" id="ArialMT-2e"/>
      </defs>
      <g transform="translate(61.0639005203 363.693842822)scale(0.2 -0.2)">
       <use xlink:href="#ArialMT-30"/>
       <use x="55.615234375" xlink:href="#ArialMT-2e"/>
       <use x="83.3984375" xlink:href="#ArialMT-30"/>
      </g>
     </g>
    </g>
    <g id="ytick_2">
     <g id="line2d_91">
      <path clip-path="url(#p5e7421a262)" d="
M91.0764 290.088
L537.476 290.088" style="fill:none;stroke:#000000;stroke-dasharray:1.000000,3.000000;stroke-dashoffset:0.0;stroke-width:0.5;"/>
     </g>
     <g id="line2d_92">
      <g>
       <use style="stroke:#000000;stroke-width:0.5;" x="91.0764005203" xlink:href="#m728421d6d4" y="290.087886757"/>
      </g>
     </g>
     <g id="line2d_93">
      <g>
       <use style="stroke:#000000;stroke-width:0.5;" x="537.47640052" xlink:href="#mcb0005524f" y="290.087886757"/>
      </g>
     </g>
     <g id="text_7">
      <!-- 0.2 -->
      <g transform="translate(61.1607755203 295.258199257)scale(0.2 -0.2)">
       <use xlink:href="#ArialMT-30"/>
       <use x="55.615234375" xlink:href="#ArialMT-2e"/>
       <use x="83.3984375" xlink:href="#ArialMT-32"/>
      </g>
     </g>
    </g>
    <g id="ytick_3">
     <g id="line2d_94">
      <path clip-path="url(#p5e7421a262)" d="
M91.0764 221.652
L537.476 221.652" style="fill:none;stroke:#000000;stroke-dasharray:1.000000,3.000000;stroke-dashoffset:0.0;stroke-width:0.5;"/>
     </g>
     <g id="line2d_95">
      <g>
       <use style="stroke:#000000;stroke-width:0.5;" x="91.0764005203" xlink:href="#m728421d6d4" y="221.652243193"/>
      </g>
     </g>
     <g id="line2d_96">
      <g>
       <use style="stroke:#000000;stroke-width:0.5;" x="537.47640052" xlink:href="#mcb0005524f" y="221.652243193"/>
      </g>
     </g>
     <g id="text_8">
      <!-- 0.4 -->
      <defs>
       <path d="
M32.3281 0
L32.3281 17.1406
L1.26562 17.1406
L1.26562 25.2031
L33.9375 71.5781
L41.1094 71.5781
L41.1094 25.2031
L50.7812 25.2031
L50.7812 17.1406
L41.1094 17.1406
L41.1094 0
z

M32.3281 25.2031
L32.3281 57.4688
L9.90625 25.2031
z
" id="ArialMT-34"/>
      </defs>
      <g transform="translate(61.0732755203 226.822555693)scale(0.2 -0.2)">
       <use xlink:href="#ArialMT-30"/>
       <use x="55.615234375" xlink:href="#ArialMT-2e"/>
       <use x="83.3984375" xlink:href="#ArialMT-34"/>
      </g>
     </g>
    </g>
    <g id="ytick_4">
     <g id="line2d_97">
      <path clip-path="url(#p5e7421a262)" d="
M91.0764 153.217
L537.476 153.217" style="fill:none;stroke:#000000;stroke-dasharray:1.000000,3.000000;stroke-dashoffset:0.0;stroke-width:0.5;"/>
     </g>
     <g id="line2d_98">
      <g>
       <use style="stroke:#000000;stroke-width:0.5;" x="91.0764005203" xlink:href="#m728421d6d4" y="153.216599629"/>
      </g>
     </g>
     <g id="line2d_99">
      <g>
       <use style="stroke:#000000;stroke-width:0.5;" x="537.47640052" xlink:href="#mcb0005524f" y="153.216599629"/>
      </g>
     </g>
     <g id="text_9">
      <!-- 0.6 -->
      <defs>
       <path d="
M49.75 54.0469
L41.0156 53.375
Q39.8438 58.5469 37.7031 60.8906
Q34.125 64.6562 28.9062 64.6562
Q24.7031 64.6562 21.5312 62.3125
Q17.3906 59.2812 14.9844 53.4688
Q12.5938 47.6562 12.5 36.9219
Q15.6719 41.75 20.2656 44.0938
Q24.8594 46.4375 29.8906 46.4375
Q38.6719 46.4375 44.8438 39.9688
Q51.0312 33.5 51.0312 23.25
Q51.0312 16.5 48.125 10.7188
Q45.2188 4.9375 40.1406 1.85938
Q35.0625 -1.21875 28.6094 -1.21875
Q17.625 -1.21875 10.6875 6.85938
Q3.76562 14.9375 3.76562 33.5
Q3.76562 54.25 11.4219 63.6719
Q18.1094 71.875 29.4375 71.875
Q37.8906 71.875 43.2812 67.1406
Q48.6875 62.4062 49.75 54.0469
M13.875 23.1875
Q13.875 18.6562 15.7969 14.5
Q17.7188 10.3594 21.1875 8.17188
Q24.6562 6 28.4688 6
Q34.0312 6 38.0312 10.4844
Q42.0469 14.9844 42.0469 22.7031
Q42.0469 30.125 38.0781 34.3906
Q34.125 38.6719 28.125 38.6719
Q22.1719 38.6719 18.0156 34.3906
Q13.875 30.125 13.875 23.1875" id="ArialMT-36"/>
      </defs>
      <g transform="translate(61.0232755203 158.386912129)scale(0.2 -0.2)">
       <use xlink:href="#ArialMT-30"/>
       <use x="55.615234375" xlink:href="#ArialMT-2e"/>
       <use x="83.3984375" xlink:href="#ArialMT-36"/>
      </g>
     </g>
    </g>
    <g id="ytick_5">
     <g id="line2d_100">
      <path clip-path="url(#p5e7421a262)" d="
M91.0764 84.781
L537.476 84.781" style="fill:none;stroke:#000000;stroke-dasharray:1.000000,3.000000;stroke-dashoffset:0.0;stroke-width:0.5;"/>
     </g>
     <g id="line2d_101">
      <g>
       <use style="stroke:#000000;stroke-width:0.5;" x="91.0764005203" xlink:href="#m728421d6d4" y="84.7809560644"/>
      </g>
     </g>
     <g id="line2d_102">
      <g>
       <use style="stroke:#000000;stroke-width:0.5;" x="537.47640052" xlink:href="#mcb0005524f" y="84.7809560644"/>
      </g>
     </g>
     <g id="text_10">
      <!-- 0.8 -->
      <defs>
       <path d="
M17.6719 38.8125
Q12.2031 40.8281 9.5625 44.5312
Q6.9375 48.25 6.9375 53.4219
Q6.9375 61.2344 12.5469 66.5469
Q18.1719 71.875 27.4844 71.875
Q36.8594 71.875 42.5781 66.4219
Q48.2969 60.9844 48.2969 53.1719
Q48.2969 48.1875 45.6719 44.5
Q43.0625 40.8281 37.75 38.8125
Q44.3438 36.6719 47.7812 31.875
Q51.2188 27.0938 51.2188 20.4531
Q51.2188 11.2812 44.7188 5.03125
Q38.2344 -1.21875 27.6406 -1.21875
Q17.0469 -1.21875 10.5469 5.04688
Q4.04688 11.3281 4.04688 20.7031
Q4.04688 27.6875 7.59375 32.3906
Q11.1406 37.1094 17.6719 38.8125
M15.9219 53.7188
Q15.9219 48.6406 19.1875 45.4062
Q22.4688 42.1875 27.6875 42.1875
Q32.7656 42.1875 36.0156 45.375
Q39.2656 48.5781 39.2656 53.2188
Q39.2656 58.0625 35.9062 61.3594
Q32.5625 64.6562 27.5938 64.6562
Q22.5625 64.6562 19.2344 61.4219
Q15.9219 58.2031 15.9219 53.7188
M13.0938 20.6562
Q13.0938 16.8906 14.875 13.375
Q16.6562 9.85938 20.1719 7.92188
Q23.6875 6 27.7344 6
Q34.0312 6 38.125 10.0469
Q42.2344 14.1094 42.2344 20.3594
Q42.2344 26.7031 38.0156 30.8594
Q33.7969 35.0156 27.4375 35.0156
Q21.2344 35.0156 17.1562 30.9062
Q13.0938 26.8125 13.0938 20.6562" id="ArialMT-38"/>
      </defs>
      <g transform="translate(60.9857755203 89.9512685644)scale(0.2 -0.2)">
       <use xlink:href="#ArialMT-30"/>
       <use x="55.615234375" xlink:href="#ArialMT-2e"/>
       <use x="83.3984375" xlink:href="#ArialMT-38"/>
      </g>
     </g>
    </g>
    <g id="ytick_6">
     <g id="line2d_103">
      <path clip-path="url(#p5e7421a262)" d="
M91.0764 16.3453
L537.476 16.3453" style="fill:none;stroke:#000000;stroke-dasharray:1.000000,3.000000;stroke-dashoffset:0.0;stroke-width:0.5;"/>
     </g>
     <g id="line2d_104">
      <g>
       <use style="stroke:#000000;stroke-width:0.5;" x="91.0764005203" xlink:href="#m728421d6d4" y="16.3453125"/>
      </g>
     </g>
     <g id="line2d_105">
      <g>
       <use style="stroke:#000000;stroke-width:0.5;" x="537.47640052" xlink:href="#mcb0005524f" y="16.3453125"/>
      </g>
     </g>
     <g id="text_11">
      <!-- 1.0 -->
      <g transform="translate(62.4107755203 21.515625)scale(0.2 -0.2)">
       <use xlink:href="#ArialMT-31"/>
       <use x="55.615234375" xlink:href="#ArialMT-2e"/>
       <use x="83.3984375" xlink:href="#ArialMT-30"/>
      </g>
     </g>
    </g>
    <g id="text_12">
     <!-- Proportion of function+target pairs -->
     <defs>
      <path d="
M40.4375 19
L49.0781 17.875
Q47.6562 8.9375 41.8125 3.875
Q35.9844 -1.17188 27.4844 -1.17188
Q16.8438 -1.17188 10.375 5.78125
Q3.90625 12.75 3.90625 25.7344
Q3.90625 34.125 6.6875 40.4219
Q9.46875 46.7344 15.1562 49.875
Q20.8438 53.0312 27.5469 53.0312
Q35.9844 53.0312 41.3594 48.75
Q46.7344 44.4844 48.25 36.625
L39.7031 35.2969
Q38.4844 40.5312 35.375 43.1562
Q32.2812 45.7969 27.875 45.7969
Q21.2344 45.7969 17.0781 41.0312
Q12.9375 36.2812 12.9375 25.9844
Q12.9375 15.5312 16.9375 10.7969
Q20.9531 6.0625 27.3906 6.0625
Q32.5625 6.0625 36.0312 9.23438
Q39.5 12.4062 40.4375 19" id="ArialMT-63"/>
      <path d="
M25.7812 7.85938
L27.0469 0.09375
Q23.3438 -0.6875 20.4062 -0.6875
Q15.625 -0.6875 12.9844 0.828125
Q10.3594 2.34375 9.28125 4.8125
Q8.20312 7.28125 8.20312 15.1875
L8.20312 45.0156
L1.76562 45.0156
L1.76562 51.8594
L8.20312 51.8594
L8.20312 64.7031
L16.9375 69.9688
L16.9375 51.8594
L25.7812 51.8594
L25.7812 45.0156
L16.9375 45.0156
L16.9375 14.7031
Q16.9375 10.9375 17.4062 9.85938
Q17.875 8.79688 18.9219 8.15625
Q19.9688 7.51562 21.9219 7.51562
Q23.3906 7.51562 25.7812 7.85938" id="ArialMT-74"/>
      <path d="
M40.5781 0
L40.5781 7.625
Q34.5156 -1.17188 24.125 -1.17188
Q19.5312 -1.17188 15.5469 0.578125
Q11.5781 2.34375 9.64062 5
Q7.71875 7.67188 6.9375 11.5312
Q6.39062 14.1094 6.39062 19.7344
L6.39062 51.8594
L15.1875 51.8594
L15.1875 23.0938
Q15.1875 16.2188 15.7188 13.8125
Q16.5469 10.3594 19.2344 8.375
Q21.9219 6.39062 25.875 6.39062
Q29.8281 6.39062 33.2969 8.42188
Q36.7656 10.4531 38.2031 13.9375
Q39.6562 17.4375 39.6562 24.0781
L39.6562 51.8594
L48.4375 51.8594
L48.4375 0
z
" id="ArialMT-75"/>
      <path d="
M7.71875 0
L7.71875 71.5781
L34.7188 71.5781
Q41.8438 71.5781 45.6094 70.9062
Q50.875 70.0156 54.4375 67.5469
Q58.0156 65.0938 60.1875 60.6406
Q62.3594 56.2031 62.3594 50.875
Q62.3594 41.75 56.5469 35.4219
Q50.7344 29.1094 35.5469 29.1094
L17.1875 29.1094
L17.1875 0
z

M17.1875 37.5469
L35.6875 37.5469
Q44.875 37.5469 48.7344 40.9688
Q52.5938 44.3906 52.5938 50.5938
Q52.5938 55.0781 50.3125 58.2656
Q48.0469 61.4688 44.3438 62.5
Q41.9375 63.1406 35.5 63.1406
L17.1875 63.1406
z
" id="ArialMT-50"/>
      <path d="
M6.59375 -19.875
L6.59375 51.8594
L14.5938 51.8594
L14.5938 45.125
Q17.4375 49.0781 21 51.0469
Q24.5625 53.0312 29.6406 53.0312
Q36.2812 53.0312 41.3594 49.6094
Q46.4375 46.1875 49.0156 39.9531
Q51.6094 33.7344 51.6094 26.3125
Q51.6094 18.3594 48.75 11.9844
Q45.9062 5.60938 40.4531 2.21875
Q35.0156 -1.17188 29 -1.17188
Q24.6094 -1.17188 21.1094 0.6875
Q17.625 2.54688 15.375 5.375
L15.375 -19.875
z

M14.5469 25.6406
Q14.5469 15.625 18.5938 10.8438
Q22.6562 6.0625 28.4219 6.0625
Q34.2812 6.0625 38.4531 11.0156
Q42.625 15.9688 42.625 26.375
Q42.625 36.2812 38.5469 41.2031
Q34.4688 46.1406 28.8125 46.1406
Q23.1875 46.1406 18.8594 40.8906
Q14.5469 35.6406 14.5469 25.6406" id="ArialMT-70"/>
      <path d="
M25.0469 11.5781
L25.0469 31.2031
L5.5625 31.2031
L5.5625 39.4062
L25.0469 39.4062
L25.0469 58.8906
L33.3438 58.8906
L33.3438 39.4062
L52.8281 39.4062
L52.8281 31.2031
L33.3438 31.2031
L33.3438 11.5781
z
" id="ArialMT-2b"/>
      <path d="
M6.5 0
L6.5 51.8594
L14.4062 51.8594
L14.4062 44
Q17.4375 49.5156 20 51.2656
Q22.5625 53.0312 25.6406 53.0312
Q30.0781 53.0312 34.6719 50.2031
L31.6406 42.0469
Q28.4219 43.9531 25.2031 43.9531
Q22.3125 43.9531 20.0156 42.2188
Q17.7188 40.4844 16.75 37.4062
Q15.2812 32.7188 15.2812 27.1562
L15.2812 0
z
" id="ArialMT-72"/>
     </defs>
     <g transform="translate(52.1973380203 321.197436572)rotate(-90.0)scale(0.18 -0.18)">
      <use xlink:href="#ArialMT-50"/>
      <use x="66.69921875" xlink:href="#ArialMT-72"/>
      <use x="100.0" xlink:href="#ArialMT-6f"/>
      <use x="155.615234375" xlink:href="#ArialMT-70"/>
      <use x="211.23046875" xlink:href="#ArialMT-6f"/>
      <use x="266.845703125" xlink:href="#ArialMT-72"/>
      <use x="300.146484375" xlink:href="#ArialMT-74"/>
      <use x="327.9296875" xlink:href="#ArialMT-69"/>
      <use x="350.146484375" xlink:href="#ArialMT-6f"/>
      <use x="405.76171875" xlink:href="#ArialMT-6e"/>
      <use x="461.376953125" xlink:href="#ArialMT-20"/>
      <use x="489.16015625" xlink:href="#ArialMT-6f"/>
      <use x="544.775390625" xlink:href="#ArialMT-66"/>
      <use x="572.55859375" xlink:href="#ArialMT-20"/>
      <use x="600.341796875" xlink:href="#ArialMT-66"/>
      <use x="628.125" xlink:href="#ArialMT-75"/>
      <use x="683.740234375" xlink:href="#ArialMT-6e"/>
      <use x="739.35546875" xlink:href="#ArialMT-63"/>
      <use x="789.35546875" xlink:href="#ArialMT-74"/>
      <use x="817.138671875" xlink:href="#ArialMT-69"/>
      <use x="839.35546875" xlink:href="#ArialMT-6f"/>
      <use x="894.970703125" xlink:href="#ArialMT-6e"/>
      <use x="950.5859375" xlink:href="#ArialMT-2b"/>
      <use x="1008.984375" xlink:href="#ArialMT-74"/>
      <use x="1036.76757812" xlink:href="#ArialMT-61"/>
      <use x="1092.3828125" xlink:href="#ArialMT-72"/>
      <use x="1125.68359375" xlink:href="#ArialMT-67"/>
      <use x="1181.29882812" xlink:href="#ArialMT-65"/>
      <use x="1236.9140625" xlink:href="#ArialMT-74"/>
      <use x="1264.69726562" xlink:href="#ArialMT-20"/>
      <use x="1292.48046875" xlink:href="#ArialMT-70"/>
      <use x="1348.09570312" xlink:href="#ArialMT-61"/>
      <use x="1403.7109375" xlink:href="#ArialMT-69"/>
      <use x="1425.92773438" xlink:href="#ArialMT-72"/>
      <use x="1459.22851562" xlink:href="#ArialMT-73"/>
     </g>
    </g>
   </g>
   <g id="patch_3">
    <path d="
M91.0764 12.9235
L537.476 12.9235" style="fill:none;stroke:#000000;"/>
   </g>
   <g id="patch_4">
    <path d="
M537.476 358.524
L537.476 12.9235" style="fill:none;stroke:#000000;"/>
   </g>
   <g id="patch_5">
    <path d="
M91.0764 358.524
L537.476 358.524" style="fill:none;stroke:#000000;"/>
   </g>
   <g id="patch_6">
    <path d="
M91.0764 358.524
L91.0764 12.9235" style="fill:none;stroke:#000000;"/>
   </g>
   <g id="text_13">
    <!-- 2-D -->
    <defs>
     <path d="
M7.71875 0
L7.71875 71.5781
L32.375 71.5781
Q40.7188 71.5781 45.125 70.5625
Q51.2656 69.1406 55.6094 65.4375
Q61.2812 60.6406 64.0781 53.1875
Q66.8906 45.75 66.8906 36.1875
Q66.8906 28.0312 64.9844 21.7344
Q63.0938 15.4375 60.1094 11.2969
Q57.125 7.17188 53.5781 4.79688
Q50.0469 2.4375 45.0469 1.21875
Q40.0469 0 33.5469 0
z

M17.1875 8.45312
L32.4688 8.45312
Q39.5469 8.45312 43.5781 9.76562
Q47.6094 11.0781 50 13.4844
Q53.375 16.8438 55.25 22.5312
Q57.125 28.2188 57.125 36.3281
Q57.125 47.5625 53.4375 53.5938
Q49.75 59.625 44.4844 61.6719
Q40.6719 63.1406 32.2344 63.1406
L17.1875 63.1406
z
" id="ArialMT-44"/>
    </defs>
    <g transform="translate(497.87640052 355.55770034)scale(0.15 -0.15)">
     <use xlink:href="#ArialMT-32"/>
     <use x="55.615234375" xlink:href="#ArialMT-2d"/>
     <use x="88.916015625" xlink:href="#ArialMT-44"/>
    </g>
   </g>
   <g id="text_14">
    <!-- 5-D -->
    <defs>
     <path d="
M4.15625 18.75
L13.375 19.5312
Q14.4062 12.7969 18.1406 9.39062
Q21.875 6 27.1562 6
Q33.5 6 37.8906 10.7812
Q42.2812 15.5781 42.2812 23.4844
Q42.2812 31 38.0625 35.3438
Q33.8438 39.7031 27 39.7031
Q22.75 39.7031 19.3281 37.7656
Q15.9219 35.8438 13.9688 32.7656
L5.71875 33.8438
L12.6406 70.6094
L48.25 70.6094
L48.25 62.2031
L19.6719 62.2031
L15.8281 42.9688
Q22.2656 47.4688 29.3438 47.4688
Q38.7188 47.4688 45.1562 40.9688
Q51.6094 34.4688 51.6094 24.2656
Q51.6094 14.5469 45.9531 7.46875
Q39.0625 -1.21875 27.1562 -1.21875
Q17.3906 -1.21875 11.2031 4.25
Q5.03125 9.71875 4.15625 18.75" id="ArialMT-35"/>
    </defs>
    <g transform="translate(497.87640052 191.312155786)scale(0.15 -0.15)">
     <use xlink:href="#ArialMT-35"/>
     <use x="55.615234375" xlink:href="#ArialMT-2d"/>
     <use x="88.916015625" xlink:href="#ArialMT-44"/>
    </g>
   </g>
   <g id="text_15">
    <!-- 3-D -->
    <g transform="translate(497.87640052 27.0666112314)scale(0.15 -0.15)">
     <use xlink:href="#ArialMT-33"/>
     <use x="55.615234375" xlink:href="#ArialMT-2d"/>
     <use x="88.916015625" xlink:href="#ArialMT-44"/>
    </g>
   </g>
   <g id="text_16">
    <!-- bbob - f10-f14 -->
    <defs>
     <path d="
M14.7031 0
L6.54688 0
L6.54688 71.5781
L15.3281 71.5781
L15.3281 46.0469
Q20.9062 53.0312 29.5469 53.0312
Q34.3281 53.0312 38.5938 51.0938
Q42.875 49.1719 45.625 45.6719
Q48.3906 42.1875 49.9531 37.25
Q51.5156 32.3281 51.5156 26.7031
Q51.5156 13.375 44.9219 6.09375
Q38.3281 -1.17188 29.1094 -1.17188
Q19.9219 -1.17188 14.7031 6.5
z

M14.5938 26.3125
Q14.5938 17 17.1406 12.8438
Q21.2969 6.0625 28.375 6.0625
Q34.125 6.0625 38.3281 11.0625
Q42.5312 16.0625 42.5312 25.9844
Q42.5312 36.1406 38.5 40.9688
Q34.4688 45.7969 28.7656 45.7969
Q23 45.7969 18.7969 40.7969
Q14.5938 35.7969 14.5938 26.3125" id="ArialMT-62"/>
    </defs>
    <g transform="translate(95.5404005203 31.7604459468)scale(0.1666 -0.1666)">
     <use xlink:href="#ArialMT-62"/>
     <use x="55.615234375" xlink:href="#ArialMT-62"/>
     <use x="111.23046875" xlink:href="#ArialMT-6f"/>
     <use x="166.845703125" xlink:href="#ArialMT-62"/>
     <use x="222.4609375" xlink:href="#ArialMT-20"/>
     <use x="250.244140625" xlink:href="#ArialMT-2d"/>
     <use x="283.544921875" xlink:href="#ArialMT-20"/>
     <use x="311.328125" xlink:href="#ArialMT-66"/>
     <use x="339.111328125" xlink:href="#ArialMT-31"/>
     <use x="394.7265625" xlink:href="#ArialMT-30"/>
     <use x="450.341796875" xlink:href="#ArialMT-2d"/>
     <use x="483.642578125" xlink:href="#ArialMT-66"/>
     <use x="511.42578125" xlink:href="#ArialMT-31"/>
     <use x="567.041015625" xlink:href="#ArialMT-34"/>
    </g>
    <!-- 31 target RLs/dim: 0.5..50 -->
    <defs>
     <path d="
M7.85938 0
L7.85938 71.5781
L39.5938 71.5781
Q49.1719 71.5781 54.1406 69.6406
Q59.125 67.7188 62.1094 62.8281
Q65.0938 57.9531 65.0938 52.0469
Q65.0938 44.4375 60.1562 39.2031
Q55.2188 33.9844 44.9219 32.5625
Q48.6875 30.7656 50.6406 29
Q54.7812 25.2031 58.5 19.4844
L70.9531 0
L59.0312 0
L49.5625 14.8906
Q45.4062 21.3438 42.7188 24.75
Q40.0469 28.1719 37.9219 29.5312
Q35.7969 30.9062 33.5938 31.4531
Q31.9844 31.7812 28.3281 31.7812
L17.3281 31.7812
L17.3281 0
z

M17.3281 39.9844
L37.7031 39.9844
Q44.1875 39.9844 47.8438 41.3281
Q51.5156 42.6719 53.4219 45.625
Q55.3281 48.5781 55.3281 52.0469
Q55.3281 57.125 51.6406 60.3906
Q47.9531 63.6719 39.9844 63.6719
L17.3281 63.6719
z
" id="ArialMT-52"/>
     <path d="
M9.03125 41.8438
L9.03125 51.8594
L19.0469 51.8594
L19.0469 41.8438
z

M9.03125 0
L9.03125 10.0156
L19.0469 10.0156
L19.0469 0
z
" id="ArialMT-3a"/>
     <path d="
M7.32812 0
L7.32812 71.5781
L16.7969 71.5781
L16.7969 8.45312
L52.0469 8.45312
L52.0469 0
z
" id="ArialMT-4c"/>
    </defs>
    <g transform="translate(95.5404005203 49.6251721968)scale(0.1666 -0.1666)">
     <use xlink:href="#ArialMT-33"/>
     <use x="55.615234375" xlink:href="#ArialMT-31"/>
     <use x="111.23046875" xlink:href="#ArialMT-20"/>
     <use x="139.013671875" xlink:href="#ArialMT-74"/>
     <use x="166.796875" xlink:href="#ArialMT-61"/>
     <use x="222.412109375" xlink:href="#ArialMT-72"/>
     <use x="255.712890625" xlink:href="#ArialMT-67"/>
     <use x="311.328125" xlink:href="#ArialMT-65"/>
     <use x="366.943359375" xlink:href="#ArialMT-74"/>
     <use x="394.7265625" xlink:href="#ArialMT-20"/>
     <use x="422.509765625" xlink:href="#ArialMT-52"/>
     <use x="494.7265625" xlink:href="#ArialMT-4c"/>
     <use x="550.341796875" xlink:href="#ArialMT-73"/>
     <use x="600.341796875" xlink:href="#ArialMT-2f"/>
     <use x="628.125" xlink:href="#ArialMT-64"/>
     <use x="683.740234375" xlink:href="#ArialMT-69"/>
     <use x="705.95703125" xlink:href="#ArialMT-6d"/>
     <use x="789.2578125" xlink:href="#ArialMT-3a"/>
     <use x="817.041015625" xlink:href="#ArialMT-20"/>
     <use x="844.82421875" xlink:href="#ArialMT-30"/>
     <use x="900.439453125" xlink:href="#ArialMT-2e"/>
     <use x="928.22265625" xlink:href="#ArialMT-35"/>
     <use x="983.837890625" xlink:href="#ArialMT-2e"/>
     <use x="1011.62109375" xlink:href="#ArialMT-2e"/>
     <use x="1039.40429688" xlink:href="#ArialMT-35"/>
     <use x="1095.01953125" xlink:href="#ArialMT-30"/>
    </g>
    <!--    from refalgs/best2009-bbob.tar.gz -->
    <defs>
     <path d="
M5.46875 16.5469
L13.9219 17.3281
Q14.9844 11.375 18.0156 8.6875
Q21.0469 6 25.7812 6
Q29.8281 6 32.875 7.85938
Q35.9375 9.71875 37.8906 12.8125
Q39.8438 15.9219 41.1562 21.1875
Q42.4844 26.4688 42.4844 31.9375
Q42.4844 32.5156 42.4375 33.6875
Q39.7969 29.5 35.2344 26.875
Q30.6719 24.2656 25.3438 24.2656
Q16.4531 24.2656 10.2969 30.7031
Q4.15625 37.1562 4.15625 47.7031
Q4.15625 58.5938 10.5781 65.2344
Q17 71.875 26.6562 71.875
Q33.6406 71.875 39.4219 68.1094
Q45.2188 64.3594 48.2188 57.3906
Q51.2188 50.4375 51.2188 37.25
Q51.2188 23.5312 48.2344 15.4062
Q45.2656 7.28125 39.375 3.03125
Q33.5 -1.21875 25.5938 -1.21875
Q17.1875 -1.21875 11.8594 3.4375
Q6.54688 8.10938 5.46875 16.5469
M41.4531 48.1406
Q41.4531 55.7188 37.4219 60.1562
Q33.4062 64.5938 27.7344 64.5938
Q21.875 64.5938 17.5312 59.8125
Q13.1875 55.0312 13.1875 47.4062
Q13.1875 40.5781 17.3125 36.2969
Q21.4375 32.0312 27.4844 32.0312
Q33.5938 32.0312 37.5156 36.2969
Q41.4531 40.5781 41.4531 48.1406" id="ArialMT-39"/>
     <path d="
M1.95312 0
L1.95312 7.125
L34.9688 45.0156
Q29.3438 44.7344 25.0469 44.7344
L3.90625 44.7344
L3.90625 51.8594
L46.2969 51.8594
L46.2969 46.0469
L18.2188 13.1406
L12.7969 7.125
Q18.7031 7.5625 23.875 7.5625
L47.8594 7.5625
L47.8594 0
z
" id="ArialMT-7a"/>
    </defs>
    <g transform="translate(95.5404005203 67.6851328218)scale(0.1666 -0.1666)">
     <use xlink:href="#ArialMT-20"/>
     <use x="27.783203125" xlink:href="#ArialMT-20"/>
     <use x="55.56640625" xlink:href="#ArialMT-20"/>
     <use x="83.349609375" xlink:href="#ArialMT-66"/>
     <use x="111.1328125" xlink:href="#ArialMT-72"/>
     <use x="144.43359375" xlink:href="#ArialMT-6f"/>
     <use x="200.048828125" xlink:href="#ArialMT-6d"/>
     <use x="283.349609375" xlink:href="#ArialMT-20"/>
     <use x="311.1328125" xlink:href="#ArialMT-72"/>
     <use x="344.43359375" xlink:href="#ArialMT-65"/>
     <use x="400.048828125" xlink:href="#ArialMT-66"/>
     <use x="427.83203125" xlink:href="#ArialMT-61"/>
     <use x="483.447265625" xlink:href="#ArialMT-6c"/>
     <use x="505.6640625" xlink:href="#ArialMT-67"/>
     <use x="561.279296875" xlink:href="#ArialMT-73"/>
     <use x="611.279296875" xlink:href="#ArialMT-2f"/>
     <use x="639.0625" xlink:href="#ArialMT-62"/>
     <use x="694.677734375" xlink:href="#ArialMT-65"/>
     <use x="750.29296875" xlink:href="#ArialMT-73"/>
     <use x="800.29296875" xlink:href="#ArialMT-74"/>
     <use x="828.076171875" xlink:href="#ArialMT-32"/>
     <use x="883.69140625" xlink:href="#ArialMT-30"/>
     <use x="939.306640625" xlink:href="#ArialMT-30"/>
     <use x="994.921875" xlink:href="#ArialMT-39"/>
     <use x="1050.53710938" xlink:href="#ArialMT-2d"/>
     <use x="1083.83789062" xlink:href="#ArialMT-62"/>
     <use x="1139.453125" xlink:href="#ArialMT-62"/>
     <use x="1195.06835938" xlink:href="#ArialMT-6f"/>
     <use x="1250.68359375" xlink:href="#ArialMT-62"/>
     <use x="1306.29882812" xlink:href="#ArialMT-2e"/>
     <use x="1334.08203125" xlink:href="#ArialMT-74"/>
     <use x="1361.86523438" xlink:href="#ArialMT-61"/>
     <use x="1417.48046875" xlink:href="#ArialMT-72"/>
     <use x="1445.28125" xlink:href="#ArialMT-2e"/>
     <use x="1473.06445312" xlink:href="#ArialMT-67"/>
     <use x="1528.6796875" xlink:href="#ArialMT-7a"/>
    </g>
    <!-- 15 instances -->
    <g transform="translate(95.5404005203 85.5014409468)scale(0.1666 -0.1666)">
     <use xlink:href="#ArialMT-31"/>
     <use x="55.615234375" xlink:href="#ArialMT-35"/>
     <use x="111.23046875" xlink:href="#ArialMT-20"/>
     <use x="139.013671875" xlink:href="#ArialMT-69"/>
     <use x="161.23046875" xlink:href="#ArialMT-6e"/>
     <use x="216.845703125" xlink:href="#ArialMT-73"/>
     <use x="266.845703125" xlink:href="#ArialMT-74"/>
     <use x="294.62890625" xlink:href="#ArialMT-61"/>
     <use x="350.244140625" xlink:href="#ArialMT-6e"/>
     <use x="405.859375" xlink:href="#ArialMT-63"/>
     <use x="455.859375" xlink:href="#ArialMT-65"/>
     <use x="511.474609375" xlink:href="#ArialMT-73"/>
    </g>
   </g>
   <g id="text_17">
    <!-- v2.0.1 -->
    <g style="fill:#808080;" transform="translate(301.63811927 353.080030322)scale(0.1 -0.1)">
     <use xlink:href="#ArialMT-76"/>
     <use x="50.0" xlink:href="#ArialMT-32"/>
     <use x="105.615234375" xlink:href="#ArialMT-2e"/>
     <use x="133.3984375" xlink:href="#ArialMT-30"/>
     <use x="189.013671875" xlink:href="#ArialMT-2e"/>
     <use x="216.796875" xlink:href="#ArialMT-31"/>
    </g>
   </g>
  </g>
 </g>
 <defs>
  <clipPath id="p5e7421a262">
   <rect height="345.6" width="446.4" x="91.0764005203" y="12.9235303218"/>
  </clipPath>
 </defs>
</svg>
