<?xml version="1.0" encoding="utf-8" standalone="no"?>
<!DOCTYPE svg PUBLIC "-//W3C//DTD SVG 1.1//EN"
  "http://www.w3.org/Graphics/SVG/1.1/DTD/svg11.dtd">
<!-- Created with matplotlib (http://matplotlib.org/) -->
<svg height="414pt" version="1.1" viewBox="0 0 616 414" width="616pt" xmlns="http://www.w3.org/2000/svg" xmlns:xlink="http://www.w3.org/1999/xlink">
 <defs>
  <style type="text/css">
*{stroke-linecap:butt;stroke-linejoin:round;}
  </style>
 </defs>
 <g id="figure_1">
  <g id="patch_1">
   <path d="
M0 414.924
L616.924 414.924
L616.924 0
L0 0
z
" style="fill:#ffffff;"/>
  </g>
  <g id="axes_1">
   <g id="patch_2">
    <path d="
M163.324 358.524
L609.724 358.524
L609.724 12.9235
L163.324 12.9235
z
" style="fill:#ffffff;"/>
   </g>
   <g id="line2d_1">
    <defs>
     <path d="
M0 1.5
C0.397805 1.5 0.77937 1.34195 1.06066 1.06066
C1.34195 0.77937 1.5 0.397805 1.5 0
C1.5 -0.397805 1.34195 -0.77937 1.06066 -1.06066
C0.77937 -1.34195 0.397805 -1.5 0 -1.5
C-0.397805 -1.5 -0.77937 -1.34195 -1.06066 -1.06066
C-1.34195 -0.77937 -1.5 -0.397805 -1.5 0
C-1.5 0.397805 -1.34195 0.77937 -1.06066 1.06066
C-0.77937 1.34195 -0.397805 1.5 0 1.5
z
" id="m977c291b42" style="stroke:#00bfbf;stroke-width:0.5;"/>
    </defs>
    <g>
     <use style="fill:#00bfbf;stroke:#00bfbf;stroke-width:0.5;" x="584.371399813" xlink:href="#m977c291b42" y="16.3453125"/>
     <use style="fill:#00bfbf;stroke:#00bfbf;stroke-width:0.5;" x="584.371399813" xlink:href="#m977c291b42" y="16.3453125"/>
    </g>
   </g>
   <g id="line2d_2">
    <path d="
M127.2 325.05
L163.324 325.05
L163.324 313.148
L184.455 313.148
L184.455 292.319
L199.447 292.319
L199.447 282.649
L211.076 282.649
L211.076 275.211
L220.578 275.211
L220.578 272.235
L228.612 272.235
L228.612 270.004
L235.571 270.004
L235.571 269.26
L241.709 269.26
L241.709 263.309
L247.2 263.309
L247.2 260.333
L252.167 260.333
L252.167 256.614
L256.702 256.614
L256.702 252.151
L260.873 252.151
L260.873 251.407
L264.735 251.407
L264.735 250.663
L268.331 250.663
L268.331 248.431
L271.694 248.431
L271.694 243.968
L274.854 243.968
L274.854 241.737
L277.833 241.737
L277.833 235.786
L280.65 235.786
L280.65 229.835
L283.324 229.835
L283.324 223.14
L285.866 223.14
L285.866 222.396
L288.291 222.396
L288.291 219.421
L290.607 219.421
L290.607 217.933
L292.825 217.933
L292.825 214.957
L294.953 214.957
L294.953 211.238
L296.997 211.238
L296.997 201.568
L298.964 201.568
L298.964 197.849
L300.859 197.849
L300.859 196.361
L304.455 196.361
L304.455 190.41
L306.163 190.41
L306.163 188.178
L307.818 188.178
L307.818 186.691
L309.422 186.691
L309.422 185.947
L310.977 185.947
L310.977 185.203
L312.488 185.203
L312.488 184.459
L313.956 184.459
L313.956 180.74
L315.384 180.74
L315.384 179.252
L316.774 179.252
L316.774 177.764
L318.128 177.764
L318.128 174.789
L319.447 174.789
L319.447 168.838
L320.734 168.838
L320.734 165.862
L321.99 165.862
L321.99 162.887
L323.216 162.887
L323.216 162.143
L324.414 162.143
L324.414 161.399
L325.586 161.399
L325.586 159.911
L326.731 159.911
L326.731 157.68
L327.852 157.68
L327.852 153.96
L330.024 153.96
L330.024 151.729
L331.076 151.729
L331.076 150.985
L332.108 150.985
L332.108 148.753
L333.12 148.753
L333.12 148.01
L334.113 148.01
L334.113 146.522
L336.044 146.522
L336.044 144.29
L336.983 144.29
L336.983 142.802
L340.578 142.802
L340.578 141.315
L353.579 141.315
L353.579 140.571
L355.571 140.571
L355.571 139.827
L403.584 139.827
L403.584 136.108
L404.1 136.108
L404.1 135.364
L404.356 135.364
L404.356 133.876
L404.61 133.876
L404.61 133.132
L405.618 133.132
L405.618 132.388
L405.866 132.388
L405.866 131.644
L406.85 131.644
L406.85 130.901
L407.334 130.901
L407.334 130.157
L407.575 130.157
L407.575 129.413
L407.815 129.413
L407.815 127.925
L408.053 127.925
L408.053 125.694
L408.762 125.694
L408.762 121.974
L409.23 121.974
L409.23 121.23
L409.693 121.23
L409.693 120.487
L409.923 120.487
L409.923 118.255
L410.152 118.255
L410.152 116.767
L410.607 116.767
L410.607 116.023
L410.833 116.023
L410.833 113.048
L411.059 113.048
L411.059 112.304
L411.728 112.304
L411.728 111.56
L412.389 111.56
L412.389 110.816
L412.825 110.816
L412.825 106.353
L413.042 106.353
L413.042 104.121
L413.687 104.121
L413.687 101.89
L413.9 101.89
L413.9 101.146
L414.112 101.146
L414.112 100.402
L414.324 100.402
L414.324 98.9144
L414.744 98.9144
L414.744 98.1705
L414.953 98.1705
L414.953 97.4267
L415.161 97.4267
L415.161 95.9389
L415.368 95.9389
L415.368 95.1951
L416.189 95.1951
L416.189 92.9635
L416.997 92.9635
L416.997 90.7319
L418.77 90.7319
L418.77 89.988
L439.837 89.988
L439.837 89.2442
L440.095 89.2442
L440.095 88.5003
L441.491 88.5003
L441.491 87.7564
L441.741 87.7564
L441.741 86.2687
L441.99 86.2687
L441.99 85.5248
L442.729 85.5248
L442.729 84.781
L442.851 84.781
L442.851 83.2932
L443.216 83.2932
L443.216 82.5494
L443.458 82.5494
L443.458 81.8055
L443.699 81.8055
L443.699 80.3178
L444.296 80.3178
L444.296 79.5739
L444.414 79.5739
L444.414 76.5984
L444.886 76.5984
L444.886 75.1107
L445.12 75.1107
L445.12 72.1352
L445.237 72.1352
L445.237 69.9036
L445.586 69.9036
L445.586 68.4159
L445.932 68.4159
L445.932 67.672
L446.276 67.672
L446.276 66.1843
L461.95 66.1843
L461.95 64.6966
L462.119 64.6966
L462.119 63.9527
L462.455 63.9527
L462.455 63.2089
L463.204 63.2089
L463.204 62.465
L463.451 62.465
L463.451 61.7211
L463.942 61.7211
L463.942 58.7457
L464.509 58.7457
L464.509 58.0018
L464.75 58.0018
L464.83 55.7702
L465.228 55.7702
L465.228 55.0263
L476.985 55.0263
L476.985 54.2825
L477.238 54.2825
L477.301 52.7947
L477.489 52.7947
L477.489 51.307
L478.114 51.307
L478.176 49.8193
L478.361 49.8193
L478.361 49.0754
L478.546 49.0754
L478.546 48.3315
L478.669 48.3315
L478.73 46.0999
L478.792 46.0999
L478.792 44.6122
L478.914 44.6122
L478.914 43.8683
L479.097 43.8683
L479.097 43.1245
L487.356 43.1245
L487.356 42.3806
L488.027 42.3806
L488.027 41.6367
L488.538 41.6367
L488.538 40.8929
L488.74 40.8929
L488.74 39.4051
L489.444 39.4051
L489.444 38.6613
L489.792 38.6613
L489.792 37.9174
L490.04 37.9174
L490.04 37.1736
L497.989 37.1736
L498.073 35.6858
L498.411 35.6858
L498.411 34.942
L499.079 34.942
L499.079 34.1981
L499.244 34.1981
L499.244 33.4542
L506.203 33.4542
L506.203 32.7104
L506.528 32.7104
L506.6 31.2226
L513.203 31.2226
L513.298 29.7349
L513.393 29.7349
L513.393 28.991
L518.38 28.991
L518.38 28.2472
L519.232 28.2472
L519.261 26.7594
L519.345 26.7594
L519.345 26.0156
L523.324 26.0156
L523.324 26.0156" style="fill:none;stroke:#00bfbf;stroke-linecap:square;stroke-width:1.5;"/>
   </g>
   <g id="line2d_3">
    <defs>
     <path d="
M-6 0
L6 0
M0 6
L0 -6" id="m3e4de746de" style="stroke:#00bfbf;stroke-width:1.5;"/>
    </defs>
    <g>
     <use style="fill:none;stroke:#00bfbf;stroke-width:1.5;" x="184.454550566" xlink:href="#m3e4de746de" y="313.147723176"/>
     <use style="fill:none;stroke:#00bfbf;stroke-width:1.5;" x="288.290721699" xlink:href="#m3e4de746de" y="222.396108884"/>
     <use style="fill:none;stroke:#00bfbf;stroke-width:1.5;" x="330.023529603" xlink:href="#m3e4de746de" y="151.728868247"/>
     <use style="fill:none;stroke:#00bfbf;stroke-width:1.5;" x="440.094602786" xlink:href="#m3e4de746de" y="89.2441502099"/>
     <use style="fill:none;stroke:#00bfbf;stroke-width:1.5;" x="519.345050318" xlink:href="#m3e4de746de" y="26.0155664819"/>
     <use style="fill:none;stroke:#00bfbf;stroke-width:1.5;" x="523.32359948" xlink:href="#m3e4de746de" y="26.0155664819"/>
    </g>
   </g>
   <g id="line2d_4"/>
   <g id="line2d_5">
    <path clip-path="url(#pebde201112)" d="
M403.324 139.827" style="fill:none;stroke:#00bfbf;stroke-linecap:square;"/>
    <defs>
     <path d="
M-12 12
L12 -12
M-12 -12
L12 12" id="m09e435d1d9" style="stroke:#00bfbf;stroke-width:3;"/>
    </defs>
    <g clip-path="url(#pebde201112)">
     <use style="fill:#00bfbf;stroke:#00bfbf;stroke-width:3;" x="403.32359948" xlink:href="#m09e435d1d9" y="139.827017192"/>
    </g>
   </g>
   <g id="line2d_6">
    <defs>
     <path d="
M0 1.5
C0.397805 1.5 0.77937 1.34195 1.06066 1.06066
C1.34195 0.77937 1.5 0.397805 1.5 0
C1.5 -0.397805 1.34195 -0.77937 1.06066 -1.06066
C0.77937 -1.34195 0.397805 -1.5 0 -1.5
C-0.397805 -1.5 -0.77937 -1.34195 -1.06066 -1.06066
C-1.34195 -0.77937 -1.5 -0.397805 -1.5 0
C-1.5 0.397805 -1.34195 0.77937 -1.06066 1.06066
C-0.77937 1.34195 -0.397805 1.5 0 1.5
z
" id="mb0b177905e" style="stroke:#008000;stroke-width:0.5;"/>
    </defs>
    <g>
     <use style="fill:#008000;stroke:#008000;stroke-width:0.5;" x="590.339826983" xlink:href="#mb0b177905e" y="58.0743634539"/>
     <use style="fill:#008000;stroke:#008000;stroke-width:0.5;" x="590.339826983" xlink:href="#mb0b177905e" y="58.0743634539"/>
    </g>
   </g>
   <g id="line2d_7">
    <path d="
M142.193 324.306
L163.324 324.306
L163.324 314.291
L178.316 314.291
L178.316 303.441
L189.945 303.441
L189.945 298.434
L207.481 298.434
L207.481 295.095
L214.44 295.095
L214.44 293.426
L220.578 293.426
L220.578 290.088
L226.069 290.088
L226.069 286.75
L235.571 286.75
L235.571 282.577
L239.742 282.577
L239.742 280.907
L250.563 280.907
L250.563 277.569
L253.723 277.569
L253.723 270.893
L256.702 270.893
L256.702 267.554
L259.519 267.554
L259.519 262.547
L262.193 262.547
L262.193 259.208
L264.735 259.208
L264.735 255.035
L267.16 255.035
L267.16 250.863
L271.694 250.863
L271.694 246.69
L273.822 246.69
L273.822 244.186
L275.866 244.186
L275.866 234.171
L277.833 234.171
L277.833 229.998
L279.728 229.998
L279.728 225.825
L281.557 225.825
L281.557 222.487
L283.324 222.487
L283.324 221.652
L285.032 221.652
L285.032 219.149
L286.687 219.149
L286.687 214.976
L288.291 214.976
L288.291 214.141
L289.847 214.141
L289.847 210.803
L291.357 210.803
L291.357 209.134
L292.825 209.134
L292.825 208.299
L294.253 208.299
L294.253 207.464
L295.643 207.464
L295.643 204.961
L296.997 204.961
L296.997 201.622
L299.603 201.622
L299.603 199.119
L300.859 199.119
L300.859 196.615
L302.085 196.615
L302.085 192.442
L303.283 192.442
L303.283 189.938
L304.455 189.938
L304.455 181.592
L305.6 181.592
L305.6 179.923
L306.721 179.923
L306.721 179.089
L307.818 179.089
L307.818 178.254
L308.893 178.254
L308.893 174.081
L309.945 174.081
L309.945 172.412
L310.977 172.412
L310.977 166.57
L311.989 166.57
L311.989 163.232
L312.982 163.232
L312.982 160.728
L313.956 160.728
L313.956 158.224
L315.852 158.224
L315.852 157.39
L316.774 157.39
L316.774 154.051
L319.447 154.051
L319.447 152.382
L321.99 152.382
L321.99 149.878
L325.198 149.878
L325.198 149.044
L325.97 149.044
L325.97 148.209
L328.22 148.209
L328.22 145.705
L328.949 145.705
L328.949 144.871
L330.377 144.871
L330.377 143.202
L331.767 143.202
L331.767 142.367
L333.12 142.367
L333.12 141.532
L333.784 141.532
L333.784 140.698
L335.087 140.698
L335.087 139.863
L335.727 139.863
L335.727 138.194
L338.811 138.194
L338.811 137.36
L339.407 137.36
L339.407 134.856
L340.578 134.856
L340.578 133.187
L341.154 133.187
L341.154 131.517
L346.588 131.517
L346.588 129.848
L406.85 129.848
L406.85 126.51
L407.495 126.51
L407.495 125.675
L407.974 125.675
L407.974 124.006
L408.448 124.006
L408.448 123.172
L409.074 123.172
L409.074 121.503
L409.23 121.503
L409.23 120.668
L409.385 120.668
L409.385 118.164
L409.539 118.164
L409.539 117.33
L409.693 117.33
L409.693 115.66
L410.304 115.66
L410.304 113.991
L410.909 113.991
L410.909 112.322
L411.059 112.322
L411.059 111.488
L411.208 111.488
L411.208 110.653
L411.506 110.653
L411.506 104.811
L412.096 104.811
L412.096 103.976
L412.389 103.976
L412.389 101.473
L413.258 101.473
L413.258 99.8034
L414.394 99.8034
L414.394 98.9688
L414.953 98.9688
L414.953 98.1343
L415.506 98.1343
L415.506 97.2997
L441.24 97.2997
L441.24 96.4651
L442.402 96.4651
L442.402 95.6305
L442.729 95.6305
L442.729 94.7959
L442.892 94.7959
L442.892 93.9613
L443.216 93.9613
L443.216 93.1268
L443.458 93.1268
L443.458 92.2922
L443.619 92.2922
L443.699 90.623
L443.938 90.623
L444.018 88.9539
L444.098 88.9539
L444.098 88.1193
L445.586 88.1193
L445.586 87.2847
L449.81 87.2847
L449.81 86.4501
L461.553 86.4501
L461.553 85.6155
L462.678 85.6155
L462.678 84.781
L463.176 84.781
L463.176 83.9464
L463.451 83.9464
L463.451 81.4426
L463.669 81.4426
L463.669 79.7735
L464.104 79.7735
L464.104 78.9389
L464.482 78.9389
L464.482 78.1043
L464.856 78.1043
L464.856 77.2697
L466.484 77.2697
L466.484 76.4351
L476.773 76.4351
L476.773 75.6006
L477.111 75.6006
L477.111 74.766
L477.447 74.766
L477.447 73.9314
L477.657 73.9314
L477.74 71.4277
L477.782 71.4277
L477.782 70.5931
L478.525 70.5931
L478.525 69.7585
L479.461 69.7585
L479.461 68.9239
L480.062 68.9239
L480.062 68.0893
L488.707 68.0893
L488.707 67.2548
L488.942 67.2548
L488.942 66.4202
L489.344 66.4202
L489.344 65.5856
L498.158 65.5856
L498.242 63.9164
L506.059 63.9164
L506.059 62.2473
L523.324 62.2473
L523.324 62.2473" style="fill:none;stroke:#008000;stroke-linecap:square;stroke-width:1.5;"/>
   </g>
   <g id="line2d_8">
    <defs>
     <path d="
M-7.34788e-16 6
L6 -6
L-6 -6
z
" id="m397e16cd68" style="stroke:#008000;stroke-linejoin:miter;stroke-width:1.5;"/>
    </defs>
    <g>
     <use style="fill:none;stroke:#008000;stroke-linejoin:miter;stroke-width:1.5;" x="178.316247873" xlink:href="#m397e16cd68" y="314.290736311"/>
     <use style="fill:none;stroke:#008000;stroke-linejoin:miter;stroke-width:1.5;" x="264.735364281" xlink:href="#m397e16cd68" y="255.035483956"/>
     <use style="fill:none;stroke:#008000;stroke-linejoin:miter;stroke-width:1.5;" x="311.989450149" xlink:href="#m397e16cd68" y="166.569895934"/>
     <use style="fill:none;stroke:#008000;stroke-linejoin:miter;stroke-width:1.5;" x="409.074425758" xlink:href="#m397e16cd68" y="123.171682942"/>
     <use style="fill:none;stroke:#008000;stroke-linejoin:miter;stroke-width:1.5;" x="488.706724433" xlink:href="#m397e16cd68" y="67.2547546637"/>
     <use style="fill:none;stroke:#008000;stroke-linejoin:miter;stroke-width:1.5;" x="523.32359948" xlink:href="#m397e16cd68" y="62.2472685493"/>
    </g>
   </g>
   <g id="line2d_9"/>
   <g id="line2d_10">
    <path clip-path="url(#pebde201112)" d="
M403.324 129.848" style="fill:none;stroke:#008000;stroke-linecap:square;"/>
    <defs>
     <path d="
M-12 12
L12 -12
M-12 -12
L12 12" id="m8c089fa6cd" style="stroke:#008000;stroke-width:3;"/>
    </defs>
    <g clip-path="url(#pebde201112)">
     <use style="fill:#008000;stroke:#008000;stroke-width:3;" x="403.32359948" xlink:href="#m8c089fa6cd" y="129.848331095"/>
    </g>
   </g>
   <g id="line2d_11">
    <defs>
     <path d="
M0 1.5
C0.397805 1.5 0.77937 1.34195 1.06066 1.06066
C1.34195 0.77937 1.5 0.397805 1.5 0
C1.5 -0.397805 1.34195 -0.77937 1.06066 -1.06066
C0.77937 -1.34195 0.397805 -1.5 0 -1.5
C-0.397805 -1.5 -0.77937 -1.34195 -1.06066 -1.06066
C-1.34195 -0.77937 -1.5 -0.397805 -1.5 0
C-1.5 0.397805 -1.34195 0.77937 -1.06066 1.06066
C-0.77937 1.34195 -0.397805 1.5 0 1.5
z
" id="m76a7ce5b4a" style="stroke:#0000ff;stroke-width:0.5;"/>
    </defs>
    <g>
     <use style="fill:#0000ff;stroke:#0000ff;stroke-width:0.5;" x="529.108639523" xlink:href="#m76a7ce5b4a" y="49.4593335795"/>
     <use style="fill:#0000ff;stroke:#0000ff;stroke-width:0.5;" x="529.108639523" xlink:href="#m76a7ce5b4a" y="49.4593335795"/>
    </g>
   </g>
   <g id="line2d_12">
    <path d="
M151.694 346.382
L163.324 346.382
L163.324 337.551
L172.825 337.551
L172.825 335.344
L180.859 335.344
L180.859 334.24
L187.818 334.24
L187.818 326.513
L193.956 326.513
L193.956 315.475
L199.447 315.475
L199.447 304.437
L213.12 304.437
L213.12 303.333
L223.942 303.333
L223.942 301.126
L232.898 301.126
L232.898 300.022
L235.571 300.022
L235.571 298.918
L238.114 298.918
L238.114 297.814
L240.538 297.814
L240.538 292.295
L242.855 292.295
L242.855 290.088
L245.073 290.088
L245.073 284.569
L247.2 284.569
L247.2 281.257
L251.211 281.257
L251.211 274.635
L253.106 274.635
L253.106 273.531
L254.935 273.531
L254.935 268.012
L256.702 268.012
L256.702 264.7
L258.411 264.7
L258.411 259.181
L261.669 259.181
L261.669 254.766
L263.225 254.766
L263.225 250.351
L264.735 250.351
L264.735 247.04
L266.203 247.04
L266.203 242.624
L267.631 242.624
L267.631 234.898
L269.021 234.898
L269.021 231.586
L270.375 231.586
L270.375 229.379
L271.694 229.379
L271.694 226.067
L272.981 226.067
L272.981 224.964
L274.237 224.964
L274.237 223.86
L276.662 223.86
L276.662 220.548
L277.833 220.548
L277.833 218.341
L281.196 218.341
L281.196 215.029
L283.324 215.029
L283.324 209.51
L284.356 209.51
L284.356 206.199
L285.368 206.199
L285.368 205.095
L286.36 205.095
L286.36 202.888
L287.334 202.888
L287.334 201.784
L288.291 201.784
L288.291 199.576
L289.23 199.576
L289.23 194.057
L290.152 194.057
L290.152 191.85
L291.059 191.85
L291.059 189.642
L291.949 189.642
L291.949 185.227
L293.687 185.227
L293.687 184.123
L295.368 184.123
L295.368 179.708
L296.189 179.708
L296.189 177.5
L296.997 177.5
L296.997 174.189
L297.792 174.189
L297.792 173.085
L298.576 173.085
L298.576 171.981
L301.598 171.981
L301.598 169.774
L304.455 169.774
L304.455 168.67
L306.499 168.67
L306.499 167.566
L307.162 167.566
L307.162 165.358
L307.818 165.358
L307.818 163.151
L308.465 163.151
L308.465 159.839
L310.361 159.839
L310.361 156.528
L310.977 156.528
L310.977 155.424
L311.587 155.424
L311.587 152.113
L312.19 152.113
L312.19 151.009
L312.785 151.009
L312.785 146.594
L313.956 146.594
L313.956 139.971
L315.102 139.971
L315.102 136.66
L316.223 136.66
L316.223 135.556
L317.86 135.556
L317.86 134.452
L318.394 134.452
L318.394 133.348
L319.966 133.348
L319.966 132.244
L320.988 132.244
L320.988 128.933
L321.491 128.933
L321.491 127.829
L325.353 127.829
L325.353 126.725
L327.182 126.725
L327.182 124.518
L328.513 124.518
L328.513 122.31
L328.949 122.31
L328.949 120.103
L332.718 120.103
L332.718 118.999
L333.12 118.999
L333.12 117.895
L334.309 117.895
L334.309 112.376
L335.854 112.376
L335.854 111.272
L383.53 111.272
L383.53 110.168
L406.064 110.168
L406.064 109.065
L406.262 109.065
L406.262 107.961
L406.752 107.961
L406.752 106.857
L406.947 106.857
L406.947 105.753
L407.334 105.753
L407.334 102.442
L407.623 102.442
L407.623 101.338
L408.762 101.338
L408.762 99.1304
L409.137 99.1304
L409.137 96.9228
L409.877 96.9228
L409.877 95.819
L410.061 95.819
L410.061 92.5076
L410.244 92.5076
L410.335 90.3
L411.148 90.3
L411.238 88.0924
L411.595 88.0924
L411.595 86.9886
L411.772 86.9886
L411.772 85.8848
L411.949 85.8848
L411.949 83.6772
L412.126 83.6772
L412.126 82.5734
L412.912 82.5734
L412.912 81.4696
L413.085 81.4696
L413.085 80.3658
L414.197 80.3658
L414.197 79.262
L414.366 79.262
L414.366 78.1582
L415.698 78.1582
L415.698 75.9506
L416.026 75.9506
L416.026 74.8467
L416.514 74.8467
L416.514 73.7429
L417.157 73.7429
L417.157 72.6391
L421.156 72.6391
L421.156 71.5353
L440.836 71.5353
L440.836 70.4315
L441.491 70.4315
L441.491 69.3277
L442.385 69.3277
L442.435 67.1201
L442.729 67.1201
L442.729 66.0163
L442.925 66.0163
L442.925 64.9125
L443.361 64.9125
L443.361 63.8087
L443.938 63.8087
L443.938 62.7049
L444.556 62.7049
L444.556 61.6011
L446.458 61.6011
L446.458 60.4973
L454.778 60.4973
L454.778 59.3935
L462.922 59.3935
L462.922 58.2897
L465.608 58.2897
L465.608 57.1859
L476.679 57.1859
L476.679 56.0821
L478.509 56.0821
L478.509 53.8745
L479.388 53.8745
L479.388 52.7707
L497.443 52.7707
L497.443 51.6669
L506.377 51.6669
L506.377 50.5631
L523.324 50.5631
L523.324 50.5631" style="fill:none;stroke:#0000ff;stroke-linecap:square;stroke-width:1.5;"/>
   </g>
   <g id="line2d_13">
    <defs>
     <path d="
M3.67394e-16 -6
L-1.34708 -1.8541
L-5.70634 -1.8541
L-2.17963 0.708204
L-3.52671 4.8541
L-4.20996e-16 2.2918
L3.52671 4.8541
L2.17963 0.708204
L5.70634 -1.8541
L1.34708 -1.8541
z
" id="m0933169453" style="stroke:#0000ff;stroke-linejoin:bevel;stroke-width:1.5;"/>
    </defs>
    <g>
     <use style="fill:none;stroke:#0000ff;stroke-linejoin:bevel;stroke-width:1.5;" x="199.447198959" xlink:href="#m0933169453" y="304.437295892"/>
     <use style="fill:none;stroke:#0000ff;stroke-linejoin:bevel;stroke-width:1.5;" x="283.32359948" xlink:href="#m0933169453" y="215.029438977"/>
     <use style="fill:none;stroke:#0000ff;stroke-linejoin:bevel;stroke-width:1.5;" x="327.182157667" xlink:href="#m0933169453" y="126.725382765"/>
     <use style="fill:none;stroke:#0000ff;stroke-linejoin:bevel;stroke-width:1.5;" x="411.772478088" xlink:href="#m0933169453" y="85.884756767"/>
     <use style="fill:none;stroke:#0000ff;stroke-linejoin:bevel;stroke-width:1.5;" x="506.376927956" xlink:href="#m0933169453" y="50.5631342822"/>
     <use style="fill:none;stroke:#0000ff;stroke-linejoin:bevel;stroke-width:1.5;" x="523.32359948" xlink:href="#m0933169453" y="50.5631342822"/>
    </g>
   </g>
   <g id="line2d_14"/>
   <g id="line2d_15">
    <path clip-path="url(#pebde201112)" d="
M403.324 110.168" style="fill:none;stroke:#0000ff;stroke-linecap:square;"/>
    <defs>
     <path d="
M-12 12
L12 -12
M-12 -12
L12 12" id="ma4a355cd2c" style="stroke:#0000ff;stroke-width:3;"/>
    </defs>
    <g clip-path="url(#pebde201112)">
     <use style="fill:#0000ff;stroke:#0000ff;stroke-width:3;" x="403.32359948" xlink:href="#ma4a355cd2c" y="110.168372225"/>
    </g>
   </g>
   <g id="line2d_16">
    <defs>
     <path d="
M0 1.5
C0.397805 1.5 0.77937 1.34195 1.06066 1.06066
C1.34195 0.77937 1.5 0.397805 1.5 0
C1.5 -0.397805 1.34195 -0.77937 1.06066 -1.06066
C0.77937 -1.34195 0.397805 -1.5 0 -1.5
C-0.397805 -1.5 -0.77937 -1.34195 -1.06066 -1.06066
C-1.34195 -0.77937 -1.5 -0.397805 -1.5 0
C-1.5 0.397805 -1.34195 0.77937 -1.06066 1.06066
C-0.77937 1.34195 -0.397805 1.5 0 1.5
z
" id="m66763a63fb" style="stroke:#000000;stroke-width:0.5;"/>
    </defs>
    <g>
     <use style="stroke:#000000;stroke-width:0.5;" x="507.029319135" xlink:href="#m66763a63fb" y="29.5060131855"/>
     <use style="stroke:#000000;stroke-width:0.5;" x="507.029319135" xlink:href="#m66763a63fb" y="29.5060131855"/>
    </g>
   </g>
   <g id="line2d_17">
    <path d="
M157.833 351.943
L172.825 351.943
L172.825 349.311
L180.859 349.311
L180.859 347.995
L187.818 347.995
L187.818 345.363
L204.414 345.363
L204.414 344.047
L206.731 344.047
L206.731 342.731
L208.949 342.731
L208.949 337.466
L211.076 337.466
L211.076 336.15
L213.12 336.15
L213.12 334.834
L234.251 334.834
L234.251 332.202
L235.571 332.202
L235.571 330.886
L240.538 330.886
L240.538 326.938
L242.855 326.938
L242.855 324.306
L245.073 324.306
L245.073 320.357
L246.147 320.357
L246.147 319.041
L249.244 319.041
L249.244 316.409
L250.237 316.409
L250.237 315.093
L258.411 315.093
L258.411 307.197
L259.244 307.197
L259.244 304.565
L260.873 304.565
L260.873 303.249
L263.225 303.249
L263.225 301.933
L263.985 301.933
L263.985 300.616
L265.475 300.616
L265.475 295.352
L266.922 295.352
L266.922 294.036
L267.631 294.036
L267.631 291.404
L268.331 291.404
L268.331 287.456
L269.021 287.456
L269.021 284.824
L270.375 284.824
L270.375 283.508
L271.039 283.508
L271.039 280.875
L271.694 280.875
L271.694 279.559
L278.409 279.559
L278.409 274.295
L278.978 274.295
L278.978 270.347
L281.736 270.347
L281.736 269.031
L282.271 269.031
L282.271 265.083
L283.842 265.083
L283.842 263.766
L285.368 263.766
L285.368 261.134
L285.866 261.134
L285.866 258.502
L286.36 258.502
L286.36 255.87
L286.85 255.87
L286.85 254.554
L287.334 254.554
L287.334 253.238
L288.291 253.238
L288.291 251.922
L288.762 251.922
L288.762 249.29
L290.607 249.29
L290.607 246.658
L291.506 246.658
L291.506 244.025
L291.949 244.025
L291.949 241.393
L292.825 241.393
L292.825 238.761
L293.258 238.761
L293.258 237.445
L293.687 237.445
L293.687 236.129
L294.534 236.129
L294.534 228.233
L296.189 228.233
L296.189 225.6
L296.997 225.6
L296.997 224.284
L298.576 224.284
L298.576 221.652
L300.109 221.652
L300.109 217.704
L300.859 217.704
L300.859 216.388
L302.327 216.388
L302.327 212.44
L303.755 212.44
L303.755 207.175
L305.145 207.175
L305.145 205.859
L305.487 205.859
L305.487 201.911
L305.826 201.911
L305.826 197.963
L308.786 197.963
L308.786 192.699
L309.422 192.699
L309.422 191.383
L310.67 191.383
L310.67 187.434
L311.283 187.434
L311.283 183.486
L311.587 183.486
L311.587 182.17
L312.19 182.17
L312.19 179.538
L312.488 179.538
L312.488 178.222
L312.785 178.222
L312.785 175.59
L314.532 175.59
L314.532 174.274
L315.384 174.274
L315.384 172.958
L315.665 172.958
L315.665 167.693
L316.774 167.693
L316.774 166.377
L317.048 166.377
L317.048 165.061
L318.128 165.061
L318.128 162.429
L318.923 162.429
L318.923 161.113
L319.447 161.113
L319.447 154.533
L320.223 154.533
L320.223 151.901
L321.491 151.901
L321.491 150.584
L321.99 150.584
L321.99 149.268
L322.237 149.268
L322.237 146.636
L322.484 146.636
L322.484 145.32
L325.12 145.32
L325.12 144.004
L325.353 144.004
L325.353 141.372
L325.586 141.372
L325.586 140.056
L326.047 140.056
L326.047 138.74
L326.276 138.74
L326.276 136.108
L326.957 136.108
L326.957 134.792
L328.073 134.792
L328.073 133.476
L328.513 133.476
L328.513 132.159
L328.731 132.159
L328.731 130.843
L328.949 130.843
L328.949 129.527
L329.81 129.527
L329.81 124.263
L331.284 124.263
L331.284 122.947
L331.492 122.947
L331.492 117.683
L332.718 117.683
L332.718 116.367
L333.718 116.367
L333.718 113.734
L334.309 113.734
L334.309 111.102
L335.087 111.102
L335.087 109.786
L336.421 109.786
L336.421 108.47
L336.983 108.47
L336.983 104.522
L337.905 104.522
L337.905 101.89
L338.269 101.89
L338.269 100.574
L339.348 100.574
L339.348 99.2577
L340.578 99.2577
L340.578 97.9417
L341.268 97.9417
L341.268 95.3095
L343.121 95.3095
L343.121 93.9934
L345.545 93.9934
L345.545 92.6774
L346.329 92.6774
L346.329 91.3613
L346.639 91.3613
L346.639 88.7292
L352.207 88.7292
L352.207 87.4131
L354.385 87.4131
L354.385 86.097
L359.702 86.097
L359.702 84.781
L365.397 84.781
L365.397 82.1488
L368.639 82.1488
L368.639 80.8327
L374.484 80.8327
L374.484 79.5167
L407.238 79.5167
L407.238 78.2006
L410.517 78.2006
L410.517 75.5685
L410.743 75.5685
L410.743 74.2524
L410.969 74.2524
L410.969 72.9363
L411.283 72.9363
L411.283 70.3042
L411.461 70.3042
L411.461 68.9881
L412.389 68.9881
L412.389 66.356
L412.564 66.356
L412.564 65.0399
L412.825 65.0399
L412.825 63.7238
L413.042 63.7238
L413.042 62.4078
L413.258 62.4078
L413.258 59.7756
L413.729 59.7756
L413.729 58.4596
L414.702 58.4596
L414.702 57.1435
L414.994 57.1435
L414.994 54.5113
L416.433 54.5113
L416.433 53.1953
L420.523 53.1953
L420.523 51.8792
L443.168 51.8792
L443.168 50.5631
L443.579 50.5631
L443.579 49.2471
L444.462 49.2471
L444.556 46.6149
L445.423 46.6149
L445.516 43.9828
L445.655 43.9828
L445.655 42.6667
L446.093 42.6667
L446.093 41.3506
L446.731 41.3506
L446.731 40.0346
L463.088 40.0346
L463.088 38.7185
L464.798 38.7185
L464.798 37.4024
L465.545 37.4024
L465.545 36.0864
L466.562 36.0864
L466.562 34.7703
L466.963 34.7703
L466.963 33.4542
L479.06 33.4542
L479.06 32.1382
L489.304 32.1382
L489.304 30.8221
L507.029 30.8221
L507.029 29.506
L523.324 29.506
L523.324 29.506" style="fill:none;stroke:#000000;stroke-linecap:square;stroke-width:1.5;"/>
   </g>
   <g id="line2d_18">
    <defs>
     <path d="
M0 6
C1.59122 6 3.11748 5.3678 4.24264 4.24264
C5.3678 3.11748 6 1.59122 6 0
C6 -1.59122 5.3678 -3.11748 4.24264 -4.24264
C3.11748 -5.3678 1.59122 -6 0 -6
C-1.59122 -6 -3.11748 -5.3678 -4.24264 -4.24264
C-5.3678 -3.11748 -6 -1.59122 -6 0
C-6 1.59122 -5.3678 3.11748 -4.24264 4.24264
C-3.11748 5.3678 -1.59122 6 0 6
z
" id="ma42492ef9b" style="stroke:#000000;stroke-width:1.5;"/>
    </defs>
    <g>
     <use style="fill:none;stroke:#000000;stroke-width:1.5;" x="208.948948485" xlink:href="#ma42492ef9b" y="342.730689499"/>
     <use style="fill:none;stroke:#000000;stroke-width:1.5;" x="285.866315368" xlink:href="#ma42492ef9b" y="261.134345249"/>
     <use style="fill:none;stroke:#000000;stroke-width:1.5;" x="326.27578112" xlink:href="#ma42492ef9b" y="138.739828875"/>
     <use style="fill:none;stroke:#000000;stroke-width:1.5;" x="374.483740842" xlink:href="#ma42492ef9b" y="79.5166757902"/>
     <use style="fill:none;stroke:#000000;stroke-width:1.5;" x="507.029319135" xlink:href="#ma42492ef9b" y="29.5060131855"/>
     <use style="fill:none;stroke:#000000;stroke-width:1.5;" x="523.32359948" xlink:href="#ma42492ef9b" y="29.5060131855"/>
    </g>
   </g>
   <g id="line2d_19"/>
   <g id="line2d_20">
    <path clip-path="url(#pebde201112)" d="
M403.324 79.5167" style="fill:none;stroke:#000000;stroke-linecap:square;"/>
    <defs>
     <path d="
M-12 12
L12 -12
M-12 -12
L12 12" id="m47417b404f" style="stroke:#000000;stroke-width:3;"/>
    </defs>
    <g clip-path="url(#pebde201112)">
     <use style="stroke:#000000;stroke-width:3;" x="403.32359948" xlink:href="#m47417b404f" y="79.5166757902"/>
    </g>
   </g>
   <g id="line2d_21">
    <defs>
     <path d="
M0 1.5
C0.397805 1.5 0.77937 1.34195 1.06066 1.06066
C1.34195 0.77937 1.5 0.397805 1.5 0
C1.5 -0.397805 1.34195 -0.77937 1.06066 -1.06066
C0.77937 -1.34195 0.397805 -1.5 0 -1.5
C-0.397805 -1.5 -0.77937 -1.34195 -1.06066 -1.06066
C-1.34195 -0.77937 -1.5 -0.397805 -1.5 0
C-1.5 0.397805 -1.34195 0.77937 -1.06066 1.06066
C-0.77937 1.34195 -0.397805 1.5 0 1.5
z
" id="ma07bdd5909" style="stroke:#ff0000;stroke-width:0.5;"/>
    </defs>
    <g>
     <use style="fill:#ff0000;stroke:#ff0000;stroke-width:0.5;" x="467.131716593" xlink:href="#ma07bdd5909" y="31.2226263183"/>
     <use style="fill:#ff0000;stroke:#ff0000;stroke-width:0.5;" x="467.131716593" xlink:href="#ma07bdd5909" y="31.2226263183"/>
    </g>
   </g>
   <g id="line2d_22">
    <path d="
M157.833 346.622
L182.688 346.622
L182.688 345.134
L186.163 345.134
L186.163 342.158
L187.818 342.158
L187.818 340.671
L198.128 340.671
L198.128 339.183
L199.447 339.183
L199.447 337.695
L204.414 337.695
L204.414 336.208
L219.702 336.208
L219.702 334.72
L222.287 334.72
L222.287 333.232
L223.121 333.232
L223.121 330.257
L232.898 330.257
L232.898 327.281
L233.579 327.281
L233.579 324.306
L236.218 324.306
L236.218 322.818
L241.709 322.818
L241.709 319.843
L242.285 319.843
L242.285 318.355
L242.855 318.355
L242.855 315.379
L243.418 315.379
L243.418 310.916
L243.975 310.916
L243.975 307.941
L247.719 307.941
L247.719 304.965
L248.232 304.965
L248.232 303.477
L249.743 303.477
L249.743 301.99
L250.726 301.99
L250.726 300.502
L251.211 300.502
L251.211 297.527
L251.691 297.527
L251.691 296.039
L252.639 296.039
L252.639 293.063
L253.569 293.063
L253.569 291.576
L256.702 291.576
L256.702 288.6
L257.134 288.6
L257.134 287.112
L257.989 287.112
L257.989 285.625
L258.829 285.625
L258.829 284.137
L260.065 284.137
L260.065 282.649
L260.873 282.649
L260.873 278.186
L262.453 278.186
L262.453 275.211
L263.225 275.211
L263.225 270.747
L265.475 270.747
L265.475 269.26
L266.203 269.26
L266.203 267.772
L267.982 267.772
L267.982 266.284
L268.331 266.284
L268.331 264.796
L269.363 264.796
L269.363 263.309
L271.039 263.309
L271.039 261.821
L273.298 261.821
L273.298 260.333
L273.613 260.333
L273.613 258.846
L275.16 258.846
L275.16 257.358
L275.766 257.358
L275.766 252.895
L276.365 252.895
L276.365 251.407
L277.542 251.407
L277.542 249.919
L277.833 249.919
L277.833 248.431
L278.409 248.431
L278.409 246.944
L279.261 246.944
L279.261 245.456
L279.821 245.456
L279.821 243.968
L282.004 243.968
L282.004 242.48
L282.271 242.48
L282.271 239.505
L282.536 239.505
L282.536 236.53
L282.8 236.53
L282.8 233.554
L283.324 233.554
L283.324 230.579
L286.85 230.579
L286.85 226.115
L288.527 226.115
L288.527 224.628
L291.506 224.628
L291.506 221.652
L292.608 221.652
L292.608 218.677
L294.324 218.677
L294.324 217.189
L294.534 217.189
L294.534 215.701
L294.953 215.701
L294.953 214.214
L295.161 214.214
L295.161 209.75
L296.796 209.75
L296.796 203.799
L297.396 203.799
L297.396 202.312
L298.964 202.312
L298.964 200.824
L299.156 200.824
L299.156 197.849
L299.54 197.849
L299.54 196.361
L299.92 196.361
L299.92 194.873
L301.414 194.873
L301.414 193.385
L301.598 193.385
L301.598 190.41
L303.755 190.41
L303.755 187.434
L303.931 187.434
L303.931 182.971
L305.145 182.971
L305.145 181.483
L306.331 181.483
L306.331 179.996
L307.162 179.996
L307.162 178.508
L308.304 178.508
L308.304 175.533
L309.264 175.533
L309.264 174.045
L309.893 174.045
L309.893 172.557
L310.05 172.557
L310.05 171.069
L310.516 171.069
L310.516 168.094
L311.283 168.094
L311.283 166.606
L311.587 166.606
L311.587 165.118
L311.889 165.118
L311.889 163.631
L312.04 163.631
L312.04 160.655
L312.933 160.655
L312.933 159.168
L313.52 159.168
L313.52 156.192
L314.389 156.192
L314.389 154.704
L314.96 154.704
L314.96 153.217
L315.102 153.217
L315.102 150.241
L315.384 150.241
L315.384 148.753
L316.774 148.753
L316.774 147.266
L317.184 147.266
L317.184 145.778
L317.59 145.778
L317.59 144.29
L317.86 144.29
L317.86 142.802
L317.994 142.802
L317.994 141.315
L318.394 141.315
L318.394 138.339
L318.527 138.339
L318.527 136.852
L318.792 136.852
L318.792 135.364
L319.186 135.364
L319.186 133.876
L320.607 133.876
L320.607 132.388
L320.861 132.388
L320.861 130.901
L321.866 130.901
L321.866 129.413
L322.114 129.413
L322.114 127.925
L322.851 127.925
L322.851 126.437
L323.579 126.437
L323.579 121.974
L324.058 121.974
L324.058 117.511
L325.12 117.511
L325.12 116.023
L325.237 116.023
L325.237 114.536
L326.047 114.536
L326.047 113.048
L326.618 113.048
L326.618 111.56
L326.731 111.56
L326.731 110.072
L327.63 110.072
L327.63 107.097
L329.274 107.097
L329.274 105.609
L330.447 105.609
L330.447 104.121
L330.868 104.121
L330.868 102.634
L331.181 102.634
L331.181 101.146
L332.211 101.146
L332.312 96.6828
L332.516 96.6828
L332.516 95.1951
L333.42 95.1951
L333.52 90.7319
L333.619 90.7319
L333.619 89.2442
L334.015 89.2442
L334.015 84.781
L335.087 84.781
L335.087 83.2932
L335.472 83.2932
L335.568 80.3178
L335.949 80.3178
L335.949 78.83
L336.796 78.83
L336.889 75.8546
L339.08 75.8546
L339.17 69.9036
L339.702 69.9036
L339.702 68.4159
L340.404 68.4159
L340.491 65.4404
L342.371 65.4404
L342.371 63.9527
L342.872 63.9527
L342.872 62.465
L343.533 62.465
L343.533 60.9773
L344.185 60.9773
L344.185 59.4895
L344.91 59.4895
L344.91 56.5141
L350.441 56.5141
L350.441 55.0263
L351.367 55.0263
L351.367 53.5386
L360.241 53.5386
L360.241 50.5631
L368.232 50.5631
L368.232 44.6122
L368.74 44.6122
L368.74 43.1245
L410.788 43.1245
L410.856 40.149
L411.883 40.149
L411.883 38.6613
L414.112 38.6613
L414.112 37.1736
L415.718 37.1736
L415.718 34.1981
L465.632 34.1981
L465.632 32.7104
L467.132 32.7104
L467.132 31.2226
L523.324 31.2226
L523.324 31.2226" style="fill:none;stroke:#ff0000;stroke-linecap:square;stroke-width:1.5;"/>
   </g>
   <g id="line2d_23">
    <defs>
     <path d="
M-6 6
L6 6
L6 -6
L-6 -6
z
" id="m9d489a7eec" style="stroke:#ff0000;stroke-linejoin:miter;stroke-width:1.5;"/>
    </defs>
    <g>
     <use style="fill:none;stroke:#ff0000;stroke-linejoin:miter;stroke-width:1.5;" x="115.570798439" xlink:href="#m9d489a7eec" y="352.572604794"/>
     <use style="fill:none;stroke:#ff0000;stroke-linejoin:miter;stroke-width:1.5;" x="243.975342432" xlink:href="#m9d489a7eec" y="310.916126103"/>
     <use style="fill:none;stroke:#ff0000;stroke-linejoin:miter;stroke-width:1.5;" x="292.607748114" xlink:href="#m9d489a7eec" y="218.676780429"/>
     <use style="fill:none;stroke:#ff0000;stroke-linejoin:miter;stroke-width:1.5;" x="318.527106045" xlink:href="#m9d489a7eec" y="138.33928581"/>
     <use style="fill:none;stroke:#ff0000;stroke-linejoin:miter;stroke-width:1.5;" x="360.240966363" xlink:href="#m9d489a7eec" y="50.5631342822"/>
     <use style="fill:none;stroke:#ff0000;stroke-linejoin:miter;stroke-width:1.5;" x="467.131716593" xlink:href="#m9d489a7eec" y="31.2226263183"/>
     <use style="fill:none;stroke:#ff0000;stroke-linejoin:miter;stroke-width:1.5;" x="523.32359948" xlink:href="#m9d489a7eec" y="31.2226263183"/>
    </g>
   </g>
   <g id="line2d_24"/>
   <g id="line2d_25">
    <path clip-path="url(#pebde201112)" d="
M403.324 43.1245" style="fill:none;stroke:#ff0000;stroke-linecap:square;"/>
    <defs>
     <path d="
M-12 12
L12 -12
M-12 -12
L12 12" id="m4e2b024d89" style="stroke:#ff0000;stroke-width:3;"/>
    </defs>
    <g clip-path="url(#pebde201112)">
     <use style="fill:#ff0000;stroke:#ff0000;stroke-width:3;" x="403.32359948" xlink:href="#m4e2b024d89" y="43.124477373"/>
    </g>
   </g>
   <g id="line2d_26">
    <path d="
M523.324 62.2473
L562.924 351.68" style="fill:none;stroke:#008000;stroke-linecap:square;stroke-width:1.5;"/>
    <g>
     <use style="fill:none;stroke:#008000;stroke-linejoin:miter;stroke-width:1.5;" x="523.32359948" xlink:href="#m397e16cd68" y="62.2472685493"/>
     <use style="fill:none;stroke:#008000;stroke-linejoin:miter;stroke-width:1.5;" x="562.92359948" xlink:href="#m397e16cd68" y="351.679965965"/>
    </g>
   </g>
   <g id="line2d_27">
    <path d="
M523.324 50.5631
L562.924 269.557" style="fill:none;stroke:#0000ff;stroke-linecap:square;stroke-width:1.5;"/>
    <g>
     <use style="fill:none;stroke:#0000ff;stroke-linejoin:bevel;stroke-width:1.5;" x="523.32359948" xlink:href="#m0933169453" y="50.5631342822"/>
     <use style="fill:none;stroke:#0000ff;stroke-linejoin:bevel;stroke-width:1.5;" x="562.92359948" xlink:href="#m0933169453" y="269.557193688"/>
    </g>
   </g>
   <g id="line2d_28">
    <path d="
M523.324 31.2226
L562.924 187.434" style="fill:none;stroke:#ff0000;stroke-linecap:square;stroke-width:1.5;"/>
    <g>
     <use style="fill:none;stroke:#ff0000;stroke-linejoin:miter;stroke-width:1.5;" x="523.32359948" xlink:href="#m9d489a7eec" y="31.2226263183"/>
     <use style="fill:none;stroke:#ff0000;stroke-linejoin:miter;stroke-width:1.5;" x="562.92359948" xlink:href="#m9d489a7eec" y="187.434421411"/>
    </g>
   </g>
   <g id="line2d_29">
    <path d="
M523.324 29.506
L562.924 105.312" style="fill:none;stroke:#000000;stroke-linecap:square;stroke-width:1.5;"/>
    <g>
     <use style="fill:none;stroke:#000000;stroke-width:1.5;" x="523.32359948" xlink:href="#ma42492ef9b" y="29.5060131855"/>
     <use style="fill:none;stroke:#000000;stroke-width:1.5;" x="562.92359948" xlink:href="#ma42492ef9b" y="105.311649134"/>
    </g>
   </g>
   <g id="line2d_30">
    <path d="
M523.324 26.0156
L562.924 23.1889" style="fill:none;stroke:#00bfbf;stroke-linecap:square;stroke-width:1.5;"/>
    <g>
     <use style="fill:none;stroke:#00bfbf;stroke-width:1.5;" x="523.32359948" xlink:href="#m3e4de746de" y="26.0155664819"/>
     <use style="fill:none;stroke:#00bfbf;stroke-width:1.5;" x="562.92359948" xlink:href="#m3e4de746de" y="23.1888768564"/>
    </g>
   </g>
   <g id="line2d_31">
    <path d="
M523.324 358.524
L523.324 16.3453" style="fill:none;stroke:#000000;stroke-linecap:square;"/>
   </g>
   <g id="matplotlib.axis_1">
    <g id="xtick_1">
     <g id="line2d_32">
      <path clip-path="url(#pebde201112)" d="
M163.324 358.524
L163.324 12.9235" style="fill:none;stroke:#000000;stroke-dasharray:1.000000,3.000000;stroke-dashoffset:0.0;stroke-width:0.5;"/>
     </g>
     <g id="line2d_33">
      <defs>
       <path d="
M0 0
L0 -4" id="m93b0483c22" style="stroke:#000000;stroke-width:0.5;"/>
      </defs>
      <g>
       <use style="stroke:#000000;stroke-width:0.5;" x="163.32359948" xlink:href="#m93b0483c22" y="358.523530322"/>
      </g>
     </g>
     <g id="line2d_34">
      <defs>
       <path d="
M0 0
L0 4" id="m741efc42ff" style="stroke:#000000;stroke-width:0.5;"/>
      </defs>
      <g>
       <use style="stroke:#000000;stroke-width:0.5;" x="163.32359948" xlink:href="#m741efc42ff" y="12.9235303218"/>
      </g>
     </g>
     <g id="text_1">
      <!-- 0 -->
      <defs>
       <path d="
M4.15625 35.2969
Q4.15625 48 6.76562 55.7344
Q9.375 63.4844 14.5156 67.6719
Q19.6719 71.875 27.4844 71.875
Q33.25 71.875 37.5938 69.5469
Q41.9375 67.2344 44.7656 62.8594
Q47.6094 58.5 49.2188 52.2188
Q50.8281 45.9531 50.8281 35.2969
Q50.8281 22.7031 48.2344 14.9688
Q45.6562 7.23438 40.5 3
Q35.3594 -1.21875 27.4844 -1.21875
Q17.1406 -1.21875 11.2344 6.20312
Q4.15625 15.1406 4.15625 35.2969
M13.1875 35.2969
Q13.1875 17.6719 17.3125 11.8281
Q21.4375 6 27.4844 6
Q33.5469 6 37.6719 11.8594
Q41.7969 17.7188 41.7969 35.2969
Q41.7969 52.9844 37.6719 58.7812
Q33.5469 64.5938 27.3906 64.5938
Q21.3438 64.5938 17.7188 59.4688
Q13.1875 52.9375 13.1875 35.2969" id="ArialMT-30"/>
      </defs>
      <g transform="translate(158.65641198 376.839155322)scale(0.2 -0.2)">
       <use xlink:href="#ArialMT-30"/>
      </g>
     </g>
    </g>
    <g id="xtick_2">
     <g id="line2d_35">
      <path clip-path="url(#pebde201112)" d="
M283.324 358.524
L283.324 12.9235" style="fill:none;stroke:#000000;stroke-dasharray:1.000000,3.000000;stroke-dashoffset:0.0;stroke-width:0.5;"/>
     </g>
     <g id="line2d_36">
      <g>
       <use style="stroke:#000000;stroke-width:0.5;" x="283.32359948" xlink:href="#m93b0483c22" y="358.523530322"/>
      </g>
     </g>
     <g id="line2d_37">
      <g>
       <use style="stroke:#000000;stroke-width:0.5;" x="283.32359948" xlink:href="#m741efc42ff" y="12.9235303218"/>
      </g>
     </g>
     <g id="text_2">
      <!-- 1 -->
      <defs>
       <path d="
M37.25 0
L28.4688 0
L28.4688 56
Q25.2969 52.9844 20.1406 49.9531
Q14.9844 46.9219 10.8906 45.4062
L10.8906 53.9062
Q18.2656 57.375 23.7812 62.2969
Q29.2969 67.2344 31.5938 71.875
L37.25 71.875
z
" id="ArialMT-31"/>
      </defs>
      <g transform="translate(280.68766198 376.839155322)scale(0.2 -0.2)">
       <use xlink:href="#ArialMT-31"/>
      </g>
     </g>
    </g>
    <g id="xtick_3">
     <g id="line2d_38">
      <path clip-path="url(#pebde201112)" d="
M403.324 358.524
L403.324 12.9235" style="fill:none;stroke:#000000;stroke-dasharray:1.000000,3.000000;stroke-dashoffset:0.0;stroke-width:0.5;"/>
     </g>
     <g id="line2d_39">
      <g>
       <use style="stroke:#000000;stroke-width:0.5;" x="403.32359948" xlink:href="#m93b0483c22" y="358.523530322"/>
      </g>
     </g>
     <g id="line2d_40">
      <g>
       <use style="stroke:#000000;stroke-width:0.5;" x="403.32359948" xlink:href="#m741efc42ff" y="12.9235303218"/>
      </g>
     </g>
     <g id="text_3">
      <!-- 2 -->
      <defs>
       <path d="
M50.3438 8.45312
L50.3438 0
L3.03125 0
Q2.9375 3.17188 4.04688 6.10938
Q5.85938 10.9375 9.82812 15.625
Q13.8125 20.3125 21.3438 26.4688
Q33.0156 36.0312 37.1094 41.625
Q41.2188 47.2188 41.2188 52.2031
Q41.2188 57.4219 37.4688 61
Q33.7344 64.5938 27.7344 64.5938
Q21.3906 64.5938 17.5781 60.7812
Q13.7656 56.9844 13.7188 50.25
L4.6875 51.1719
Q5.60938 61.2812 11.6562 66.5781
Q17.7188 71.875 27.9375 71.875
Q38.2344 71.875 44.2344 66.1562
Q50.25 60.4531 50.25 52
Q50.25 47.7031 48.4844 43.5469
Q46.7344 39.4062 42.6562 34.8125
Q38.5781 30.2188 29.1094 22.2188
Q21.1875 15.5781 18.9375 13.2031
Q16.7031 10.8438 15.2344 8.45312
z
" id="ArialMT-32"/>
      </defs>
      <g transform="translate(398.58297448 376.839155322)scale(0.2 -0.2)">
       <use xlink:href="#ArialMT-32"/>
      </g>
     </g>
    </g>
    <g id="xtick_4">
     <g id="line2d_41">
      <path clip-path="url(#pebde201112)" d="
M523.324 358.524
L523.324 12.9235" style="fill:none;stroke:#000000;stroke-dasharray:1.000000,3.000000;stroke-dashoffset:0.0;stroke-width:0.5;"/>
     </g>
     <g id="line2d_42">
      <g>
       <use style="stroke:#000000;stroke-width:0.5;" x="523.32359948" xlink:href="#m93b0483c22" y="358.523530322"/>
      </g>
     </g>
     <g id="line2d_43">
      <g>
       <use style="stroke:#000000;stroke-width:0.5;" x="523.32359948" xlink:href="#m741efc42ff" y="12.9235303218"/>
      </g>
     </g>
     <g id="text_4">
      <!-- 3 -->
      <defs>
       <path d="
M4.20312 18.8906
L12.9844 20.0625
Q14.5 12.5938 18.1406 9.29688
Q21.7812 6 27 6
Q33.2031 6 37.4688 10.2969
Q41.75 14.5938 41.75 20.9531
Q41.75 27 37.7969 30.9219
Q33.8438 34.8594 27.7344 34.8594
Q25.25 34.8594 21.5312 33.8906
L22.5156 41.6094
Q23.3906 41.5 23.9219 41.5
Q29.5469 41.5 34.0312 44.4219
Q38.5312 47.3594 38.5312 53.4688
Q38.5312 58.2969 35.25 61.4688
Q31.9844 64.6562 26.8125 64.6562
Q21.6875 64.6562 18.2656 61.4219
Q14.8438 58.2031 13.875 51.7656
L5.07812 53.3281
Q6.6875 62.1562 12.3906 67.0156
Q18.1094 71.875 26.6094 71.875
Q32.4688 71.875 37.3906 69.3594
Q42.3281 66.8438 44.9375 62.5
Q47.5625 58.1562 47.5625 53.2656
Q47.5625 48.6406 45.0625 44.8281
Q42.5781 41.0156 37.7031 38.7656
Q44.0469 37.3125 47.5625 32.6875
Q51.0781 28.0781 51.0781 21.1406
Q51.0781 11.7656 44.2344 5.25
Q37.4062 -1.26562 26.9531 -1.26562
Q17.5312 -1.26562 11.2969 4.34375
Q5.07812 9.96875 4.20312 18.8906" id="ArialMT-33"/>
      </defs>
      <g transform="translate(518.63609948 376.839155322)scale(0.2 -0.2)">
       <use xlink:href="#ArialMT-33"/>
      </g>
     </g>
    </g>
    <g id="xtick_5">
     <g id="line2d_44">
      <defs>
       <path d="
M0 0
L0 -2" id="m177f7580d0" style="stroke:#000000;stroke-width:0.5;"/>
      </defs>
      <g>
       <use style="stroke:#000000;stroke-width:0.5;" x="199.447198959" xlink:href="#m177f7580d0" y="358.523530322"/>
      </g>
     </g>
     <g id="line2d_45">
      <defs>
       <path d="
M0 0
L0 2" id="m5284c7e2a0" style="stroke:#000000;stroke-width:0.5;"/>
      </defs>
      <g>
       <use style="stroke:#000000;stroke-width:0.5;" x="199.447198959" xlink:href="#m5284c7e2a0" y="12.9235303218"/>
      </g>
     </g>
    </g>
    <g id="xtick_6">
     <g id="line2d_46">
      <g>
       <use style="stroke:#000000;stroke-width:0.5;" x="220.578150046" xlink:href="#m177f7580d0" y="358.523530322"/>
      </g>
     </g>
     <g id="line2d_47">
      <g>
       <use style="stroke:#000000;stroke-width:0.5;" x="220.578150046" xlink:href="#m5284c7e2a0" y="12.9235303218"/>
      </g>
     </g>
    </g>
    <g id="xtick_7">
     <g id="line2d_48">
      <g>
       <use style="stroke:#000000;stroke-width:0.5;" x="235.570798439" xlink:href="#m177f7580d0" y="358.523530322"/>
      </g>
     </g>
     <g id="line2d_49">
      <g>
       <use style="stroke:#000000;stroke-width:0.5;" x="235.570798439" xlink:href="#m5284c7e2a0" y="12.9235303218"/>
      </g>
     </g>
    </g>
    <g id="xtick_8">
     <g id="line2d_50">
      <g>
       <use style="stroke:#000000;stroke-width:0.5;" x="247.2" xlink:href="#m177f7580d0" y="358.523530322"/>
      </g>
     </g>
     <g id="line2d_51">
      <g>
       <use style="stroke:#000000;stroke-width:0.5;" x="247.2" xlink:href="#m5284c7e2a0" y="12.9235303218"/>
      </g>
     </g>
    </g>
    <g id="xtick_9">
     <g id="line2d_52">
      <g>
       <use style="stroke:#000000;stroke-width:0.5;" x="256.701749526" xlink:href="#m177f7580d0" y="358.523530322"/>
      </g>
     </g>
     <g id="line2d_53">
      <g>
       <use style="stroke:#000000;stroke-width:0.5;" x="256.701749526" xlink:href="#m5284c7e2a0" y="12.9235303218"/>
      </g>
     </g>
    </g>
    <g id="xtick_10">
     <g id="line2d_54">
      <g>
       <use style="stroke:#000000;stroke-width:0.5;" x="264.735364281" xlink:href="#m177f7580d0" y="358.523530322"/>
      </g>
     </g>
     <g id="line2d_55">
      <g>
       <use style="stroke:#000000;stroke-width:0.5;" x="264.735364281" xlink:href="#m5284c7e2a0" y="12.9235303218"/>
      </g>
     </g>
    </g>
    <g id="xtick_11">
     <g id="line2d_56">
      <g>
       <use style="stroke:#000000;stroke-width:0.5;" x="271.694397919" xlink:href="#m177f7580d0" y="358.523530322"/>
      </g>
     </g>
     <g id="line2d_57">
      <g>
       <use style="stroke:#000000;stroke-width:0.5;" x="271.694397919" xlink:href="#m5284c7e2a0" y="12.9235303218"/>
      </g>
     </g>
    </g>
    <g id="xtick_12">
     <g id="line2d_58">
      <g>
       <use style="stroke:#000000;stroke-width:0.5;" x="277.832700612" xlink:href="#m177f7580d0" y="358.523530322"/>
      </g>
     </g>
     <g id="line2d_59">
      <g>
       <use style="stroke:#000000;stroke-width:0.5;" x="277.832700612" xlink:href="#m5284c7e2a0" y="12.9235303218"/>
      </g>
     </g>
    </g>
    <g id="xtick_13">
     <g id="line2d_60">
      <g>
       <use style="stroke:#000000;stroke-width:0.5;" x="319.447198959" xlink:href="#m177f7580d0" y="358.523530322"/>
      </g>
     </g>
     <g id="line2d_61">
      <g>
       <use style="stroke:#000000;stroke-width:0.5;" x="319.447198959" xlink:href="#m5284c7e2a0" y="12.9235303218"/>
      </g>
     </g>
    </g>
    <g id="xtick_14">
     <g id="line2d_62">
      <g>
       <use style="stroke:#000000;stroke-width:0.5;" x="340.578150046" xlink:href="#m177f7580d0" y="358.523530322"/>
      </g>
     </g>
     <g id="line2d_63">
      <g>
       <use style="stroke:#000000;stroke-width:0.5;" x="340.578150046" xlink:href="#m5284c7e2a0" y="12.9235303218"/>
      </g>
     </g>
    </g>
    <g id="xtick_15">
     <g id="line2d_64">
      <g>
       <use style="stroke:#000000;stroke-width:0.5;" x="355.570798439" xlink:href="#m177f7580d0" y="358.523530322"/>
      </g>
     </g>
     <g id="line2d_65">
      <g>
       <use style="stroke:#000000;stroke-width:0.5;" x="355.570798439" xlink:href="#m5284c7e2a0" y="12.9235303218"/>
      </g>
     </g>
    </g>
    <g id="xtick_16">
     <g id="line2d_66">
      <g>
       <use style="stroke:#000000;stroke-width:0.5;" x="367.2" xlink:href="#m177f7580d0" y="358.523530322"/>
      </g>
     </g>
     <g id="line2d_67">
      <g>
       <use style="stroke:#000000;stroke-width:0.5;" x="367.2" xlink:href="#m5284c7e2a0" y="12.9235303218"/>
      </g>
     </g>
    </g>
    <g id="xtick_17">
     <g id="line2d_68">
      <g>
       <use style="stroke:#000000;stroke-width:0.5;" x="376.701749526" xlink:href="#m177f7580d0" y="358.523530322"/>
      </g>
     </g>
     <g id="line2d_69">
      <g>
       <use style="stroke:#000000;stroke-width:0.5;" x="376.701749526" xlink:href="#m5284c7e2a0" y="12.9235303218"/>
      </g>
     </g>
    </g>
    <g id="xtick_18">
     <g id="line2d_70">
      <g>
       <use style="stroke:#000000;stroke-width:0.5;" x="384.735364281" xlink:href="#m177f7580d0" y="358.523530322"/>
      </g>
     </g>
     <g id="line2d_71">
      <g>
       <use style="stroke:#000000;stroke-width:0.5;" x="384.735364281" xlink:href="#m5284c7e2a0" y="12.9235303218"/>
      </g>
     </g>
    </g>
    <g id="xtick_19">
     <g id="line2d_72">
      <g>
       <use style="stroke:#000000;stroke-width:0.5;" x="391.694397919" xlink:href="#m177f7580d0" y="358.523530322"/>
      </g>
     </g>
     <g id="line2d_73">
      <g>
       <use style="stroke:#000000;stroke-width:0.5;" x="391.694397919" xlink:href="#m5284c7e2a0" y="12.9235303218"/>
      </g>
     </g>
    </g>
    <g id="xtick_20">
     <g id="line2d_74">
      <g>
       <use style="stroke:#000000;stroke-width:0.5;" x="397.832700612" xlink:href="#m177f7580d0" y="358.523530322"/>
      </g>
     </g>
     <g id="line2d_75">
      <g>
       <use style="stroke:#000000;stroke-width:0.5;" x="397.832700612" xlink:href="#m5284c7e2a0" y="12.9235303218"/>
      </g>
     </g>
    </g>
    <g id="xtick_21">
     <g id="line2d_76">
      <g>
       <use style="stroke:#000000;stroke-width:0.5;" x="439.447198959" xlink:href="#m177f7580d0" y="358.523530322"/>
      </g>
     </g>
     <g id="line2d_77">
      <g>
       <use style="stroke:#000000;stroke-width:0.5;" x="439.447198959" xlink:href="#m5284c7e2a0" y="12.9235303218"/>
      </g>
     </g>
    </g>
    <g id="xtick_22">
     <g id="line2d_78">
      <g>
       <use style="stroke:#000000;stroke-width:0.5;" x="460.578150046" xlink:href="#m177f7580d0" y="358.523530322"/>
      </g>
     </g>
     <g id="line2d_79">
      <g>
       <use style="stroke:#000000;stroke-width:0.5;" x="460.578150046" xlink:href="#m5284c7e2a0" y="12.9235303218"/>
      </g>
     </g>
    </g>
    <g id="xtick_23">
     <g id="line2d_80">
      <g>
       <use style="stroke:#000000;stroke-width:0.5;" x="475.570798439" xlink:href="#m177f7580d0" y="358.523530322"/>
      </g>
     </g>
     <g id="line2d_81">
      <g>
       <use style="stroke:#000000;stroke-width:0.5;" x="475.570798439" xlink:href="#m5284c7e2a0" y="12.9235303218"/>
      </g>
     </g>
    </g>
    <g id="xtick_24">
     <g id="line2d_82">
      <g>
       <use style="stroke:#000000;stroke-width:0.5;" x="487.2" xlink:href="#m177f7580d0" y="358.523530322"/>
      </g>
     </g>
     <g id="line2d_83">
      <g>
       <use style="stroke:#000000;stroke-width:0.5;" x="487.2" xlink:href="#m5284c7e2a0" y="12.9235303218"/>
      </g>
     </g>
    </g>
    <g id="xtick_25">
     <g id="line2d_84">
      <g>
       <use style="stroke:#000000;stroke-width:0.5;" x="496.701749526" xlink:href="#m177f7580d0" y="358.523530322"/>
      </g>
     </g>
     <g id="line2d_85">
      <g>
       <use style="stroke:#000000;stroke-width:0.5;" x="496.701749526" xlink:href="#m5284c7e2a0" y="12.9235303218"/>
      </g>
     </g>
    </g>
    <g id="xtick_26">
     <g id="line2d_86">
      <g>
       <use style="stroke:#000000;stroke-width:0.5;" x="504.735364281" xlink:href="#m177f7580d0" y="358.523530322"/>
      </g>
     </g>
     <g id="line2d_87">
      <g>
       <use style="stroke:#000000;stroke-width:0.5;" x="504.735364281" xlink:href="#m5284c7e2a0" y="12.9235303218"/>
      </g>
     </g>
    </g>
    <g id="xtick_27">
     <g id="line2d_88">
      <g>
       <use style="stroke:#000000;stroke-width:0.5;" x="511.694397919" xlink:href="#m177f7580d0" y="358.523530322"/>
      </g>
     </g>
     <g id="line2d_89">
      <g>
       <use style="stroke:#000000;stroke-width:0.5;" x="511.694397919" xlink:href="#m5284c7e2a0" y="12.9235303218"/>
      </g>
     </g>
    </g>
    <g id="xtick_28">
     <g id="line2d_90">
      <g>
       <use style="stroke:#000000;stroke-width:0.5;" x="517.832700612" xlink:href="#m177f7580d0" y="358.523530322"/>
      </g>
     </g>
     <g id="line2d_91">
      <g>
       <use style="stroke:#000000;stroke-width:0.5;" x="517.832700612" xlink:href="#m5284c7e2a0" y="12.9235303218"/>
      </g>
     </g>
    </g>
    <g id="xtick_29">
     <g id="line2d_92">
      <g>
       <use style="stroke:#000000;stroke-width:0.5;" x="559.447198959" xlink:href="#m177f7580d0" y="358.523530322"/>
      </g>
     </g>
     <g id="line2d_93">
      <g>
       <use style="stroke:#000000;stroke-width:0.5;" x="559.447198959" xlink:href="#m5284c7e2a0" y="12.9235303218"/>
      </g>
     </g>
    </g>
    <g id="xtick_30">
     <g id="line2d_94">
      <g>
       <use style="stroke:#000000;stroke-width:0.5;" x="580.578150046" xlink:href="#m177f7580d0" y="358.523530322"/>
      </g>
     </g>
     <g id="line2d_95">
      <g>
       <use style="stroke:#000000;stroke-width:0.5;" x="580.578150046" xlink:href="#m5284c7e2a0" y="12.9235303218"/>
      </g>
     </g>
    </g>
    <g id="xtick_31">
     <g id="line2d_96">
      <g>
       <use style="stroke:#000000;stroke-width:0.5;" x="595.570798439" xlink:href="#m177f7580d0" y="358.523530322"/>
      </g>
     </g>
     <g id="line2d_97">
      <g>
       <use style="stroke:#000000;stroke-width:0.5;" x="595.570798439" xlink:href="#m5284c7e2a0" y="12.9235303218"/>
      </g>
     </g>
    </g>
    <g id="xtick_32">
     <g id="line2d_98">
      <g>
       <use style="stroke:#000000;stroke-width:0.5;" x="607.2" xlink:href="#m177f7580d0" y="358.523530322"/>
      </g>
     </g>
     <g id="line2d_99">
      <g>
       <use style="stroke:#000000;stroke-width:0.5;" x="607.2" xlink:href="#m5284c7e2a0" y="12.9235303218"/>
      </g>
     </g>
    </g>
    <g id="text_5">
     <!-- log10 of (# f-evals / dimension) -->
     <defs>
      <path d="
M12.3594 -21.0469
L6.0625 -21.0469
Q20.6562 2.39062 20.6562 25.875
Q20.6562 35.0625 18.5625 44.0938
Q16.8906 51.4219 13.9219 58.1562
Q12.0156 62.5469 6.0625 72.7969
L12.3594 72.7969
Q21.5312 60.5469 25.9219 48.1875
Q29.6875 37.5469 29.6875 25.9219
Q29.6875 12.75 24.625 0.4375
Q19.5781 -11.8594 12.3594 -21.0469" id="ArialMT-29"/>
      <path d="
M40.4375 6.39062
Q35.5469 2.25 31.0312 0.53125
Q26.5156 -1.17188 21.3438 -1.17188
Q12.7969 -1.17188 8.20312 3
Q3.60938 7.17188 3.60938 13.6719
Q3.60938 17.4844 5.34375 20.625
Q7.07812 23.7812 9.89062 25.6875
Q12.7031 27.5938 16.2188 28.5625
Q18.7969 29.25 24.0312 29.8906
Q34.6719 31.1562 39.7031 32.9062
Q39.75 34.7188 39.75 35.2031
Q39.75 40.5781 37.25 42.7812
Q33.8906 45.75 27.25 45.75
Q21.0469 45.75 18.0938 43.5781
Q15.1406 41.4062 13.7188 35.8906
L5.125 37.0625
Q6.29688 42.5781 8.98438 45.9688
Q11.6719 49.3594 16.75 51.1875
Q21.8281 53.0312 28.5156 53.0312
Q35.1562 53.0312 39.2969 51.4688
Q43.4531 49.9062 45.4062 47.5312
Q47.3594 45.1719 48.1406 41.5469
Q48.5781 39.3125 48.5781 33.4531
L48.5781 21.7344
Q48.5781 9.46875 49.1406 6.21875
Q49.7031 2.98438 51.375 0
L42.1875 0
Q40.8281 2.73438 40.4375 6.39062
M39.7031 26.0312
Q34.9062 24.0781 25.3438 22.7031
Q19.9219 21.9219 17.6719 20.9375
Q15.4375 19.9688 14.2031 18.0938
Q12.9844 16.2188 12.9844 13.9219
Q12.9844 10.4062 15.6406 8.0625
Q18.3125 5.71875 23.4375 5.71875
Q28.5156 5.71875 32.4688 7.9375
Q36.4219 10.1562 38.2812 14.0156
Q39.7031 17 39.7031 22.7969
z
" id="ArialMT-61"/>
      <path d="
M4.98438 -4.29688
L13.5312 -5.5625
Q14.0625 -9.51562 16.5 -11.3281
Q19.7812 -13.7656 25.4375 -13.7656
Q31.5469 -13.7656 34.8594 -11.3281
Q38.1875 -8.89062 39.3594 -4.5
Q40.0469 -1.8125 39.9844 6.78125
Q34.2344 0 25.6406 0
Q14.9375 0 9.07812 7.71875
Q3.21875 15.4375 3.21875 26.2188
Q3.21875 33.6406 5.90625 39.9062
Q8.59375 46.1875 13.6875 49.6094
Q18.7969 53.0312 25.6875 53.0312
Q34.8594 53.0312 40.8281 45.6094
L40.8281 51.8594
L48.9219 51.8594
L48.9219 7.03125
Q48.9219 -5.07812 46.4531 -10.125
Q44 -15.1875 38.6406 -18.1094
Q33.2969 -21.0469 25.4844 -21.0469
Q16.2188 -21.0469 10.5 -16.875
Q4.78125 -12.7031 4.98438 -4.29688
M12.25 26.8594
Q12.25 16.6562 16.2969 11.9688
Q20.3594 7.28125 26.4688 7.28125
Q32.5156 7.28125 36.6094 11.9375
Q40.7188 16.6094 40.7188 26.5625
Q40.7188 36.0781 36.5 40.9062
Q32.2812 45.75 26.3125 45.75
Q20.4531 45.75 16.3438 40.9844
Q12.25 36.2344 12.25 26.8594" id="ArialMT-67"/>
      <path d="
M8.6875 0
L8.6875 45.0156
L0.921875 45.0156
L0.921875 51.8594
L8.6875 51.8594
L8.6875 57.375
Q8.6875 62.5938 9.625 65.1406
Q10.8906 68.5625 14.0781 70.6719
Q17.2812 72.7969 23.0469 72.7969
Q26.7656 72.7969 31.25 71.9219
L29.9375 64.2656
Q27.2031 64.75 24.75 64.75
Q20.75 64.75 19.0938 63.0312
Q17.4375 61.3281 17.4375 56.6406
L17.4375 51.8594
L27.5469 51.8594
L27.5469 45.0156
L17.4375 45.0156
L17.4375 0
z
" id="ArialMT-66"/>
      <path d="
M42.0938 16.7031
L51.1719 15.5781
Q49.0312 7.625 43.2188 3.21875
Q37.4062 -1.17188 28.375 -1.17188
Q17 -1.17188 10.3281 5.82812
Q3.65625 12.8438 3.65625 25.4844
Q3.65625 38.5781 10.3906 45.7969
Q17.1406 53.0312 27.875 53.0312
Q38.2812 53.0312 44.875 45.9531
Q51.4688 38.875 51.4688 26.0312
Q51.4688 25.25 51.4219 23.6875
L12.75 23.6875
Q13.2344 15.1406 17.5781 10.5938
Q21.9219 6.0625 28.4219 6.0625
Q33.25 6.0625 36.6719 8.59375
Q40.0938 11.1406 42.0938 16.7031
M13.2344 30.9062
L42.1875 30.9062
Q41.6094 37.4531 38.875 40.7188
Q34.6719 45.7969 27.9844 45.7969
Q21.9219 45.7969 17.7969 41.75
Q13.6719 37.7031 13.2344 30.9062" id="ArialMT-65"/>
      <path d="
M40.2344 0
L40.2344 6.54688
Q35.2969 -1.17188 25.7344 -1.17188
Q19.5312 -1.17188 14.3281 2.25
Q9.125 5.67188 6.26562 11.7969
Q3.42188 17.9219 3.42188 25.875
Q3.42188 33.6406 6 39.9688
Q8.59375 46.2969 13.7656 49.6562
Q18.9531 53.0312 25.3438 53.0312
Q30.0312 53.0312 33.6875 51.0469
Q37.3594 49.0781 39.6562 45.9062
L39.6562 71.5781
L48.3906 71.5781
L48.3906 0
z

M12.4531 25.875
Q12.4531 15.9219 16.6406 10.9844
Q20.8438 6.0625 26.5625 6.0625
Q32.3281 6.0625 36.3438 10.7656
Q40.375 15.4844 40.375 25.1406
Q40.375 35.7969 36.2656 40.7656
Q32.1719 45.75 26.1719 45.75
Q20.3125 45.75 16.375 40.9688
Q12.4531 36.1875 12.4531 25.875" id="ArialMT-64"/>
      <path d="
M0 -1.21875
L20.75 72.7969
L27.7812 72.7969
L7.07812 -1.21875
z
" id="ArialMT-2f"/>
      <path d="
M21 0
L1.26562 51.8594
L10.5469 51.8594
L21.6875 20.7969
Q23.4844 15.7656 25 10.3594
Q26.1719 14.4531 28.2656 20.2188
L39.7969 51.8594
L48.8281 51.8594
L29.2031 0
z
" id="ArialMT-76"/>
      <path d="
M3.17188 21.4844
L3.17188 30.3281
L30.1719 30.3281
L30.1719 21.4844
z
" id="ArialMT-2d"/>
      <path d="
M6.59375 0
L6.59375 51.8594
L14.4531 51.8594
L14.4531 44.5781
Q16.8906 48.3906 20.9375 50.7031
Q25 53.0312 30.1719 53.0312
Q35.9375 53.0312 39.625 50.6406
Q43.3125 48.25 44.8281 43.9531
Q50.9844 53.0312 60.8438 53.0312
Q68.5625 53.0312 72.7031 48.75
Q76.8594 44.4844 76.8594 35.5938
L76.8594 0
L68.1094 0
L68.1094 32.6719
Q68.1094 37.9375 67.25 40.25
Q66.4062 42.5781 64.1562 43.9844
Q61.9219 45.4062 58.8906 45.4062
Q53.4219 45.4062 49.7969 41.7656
Q46.1875 38.1406 46.1875 30.125
L46.1875 0
L37.4062 0
L37.4062 33.6875
Q37.4062 39.5469 35.25 42.4688
Q33.1094 45.4062 28.2188 45.4062
Q24.5156 45.4062 21.3594 43.4531
Q18.2188 41.5 16.7969 37.7344
Q15.375 33.9844 15.375 26.9062
L15.375 0
z
" id="ArialMT-6d"/>
      <path d="
M3.07812 15.4844
L11.7656 16.8438
Q12.5 11.625 15.8438 8.84375
Q19.1875 6.0625 25.2031 6.0625
Q31.25 6.0625 34.1719 8.51562
Q37.1094 10.9844 37.1094 14.3125
Q37.1094 17.2812 34.5156 19
Q32.7188 20.1719 25.5312 21.9688
Q15.875 24.4219 12.1406 26.2031
Q8.40625 27.9844 6.46875 31.125
Q4.54688 34.2812 4.54688 38.0938
Q4.54688 41.5469 6.125 44.5
Q7.71875 47.4688 10.4531 49.4219
Q12.5 50.9219 16.0312 51.9688
Q19.5781 53.0312 23.6406 53.0312
Q29.7344 53.0312 34.3438 51.2656
Q38.9688 49.5156 41.1562 46.5
Q43.3594 43.5 44.1875 38.4844
L35.5938 37.3125
Q35.0156 41.3125 32.2031 43.5469
Q29.3906 45.7969 24.2656 45.7969
Q18.2188 45.7969 15.625 43.7969
Q13.0312 41.7969 13.0312 39.1094
Q13.0312 37.4062 14.1094 36.0312
Q15.1875 34.625 17.4844 33.6875
Q18.7969 33.2031 25.25 31.4531
Q34.5781 28.9531 38.25 27.3594
Q41.9375 25.7812 44.0312 22.75
Q46.1406 19.7344 46.1406 15.2344
Q46.1406 10.8438 43.5781 6.95312
Q41.0156 3.07812 36.1719 0.953125
Q31.3438 -1.17188 25.25 -1.17188
Q15.1406 -1.17188 9.84375 3.03125
Q4.54688 7.23438 3.07812 15.4844" id="ArialMT-73"/>
      <path d="
M6.39062 0
L6.39062 71.5781
L15.1875 71.5781
L15.1875 0
z
" id="ArialMT-6c"/>
      <path d="
M3.32812 25.9219
Q3.32812 40.3281 11.3281 47.2656
Q18.0156 53.0312 27.6406 53.0312
Q38.3281 53.0312 45.1094 46.0156
Q51.9062 39.0156 51.9062 26.6562
Q51.9062 16.6562 48.9062 10.9062
Q45.9062 5.17188 40.1562 2
Q34.4219 -1.17188 27.6406 -1.17188
Q16.75 -1.17188 10.0312 5.8125
Q3.32812 12.7969 3.32812 25.9219
M12.3594 25.9219
Q12.3594 15.9688 16.7031 11.0156
Q21.0469 6.0625 27.6406 6.0625
Q34.1875 6.0625 38.5312 11.0312
Q42.875 16.0156 42.875 26.2188
Q42.875 35.8438 38.5 40.7969
Q34.125 45.75 27.6406 45.75
Q21.0469 45.75 16.7031 40.8125
Q12.3594 35.8906 12.3594 25.9219" id="ArialMT-6f"/>
      <path d="
M6.59375 0
L6.59375 51.8594
L14.5 51.8594
L14.5 44.4844
Q20.2188 53.0312 31 53.0312
Q35.6875 53.0312 39.625 51.3438
Q43.5625 49.6562 45.5156 46.9219
Q47.4688 44.1875 48.25 40.4375
Q48.7344 37.9844 48.7344 31.8906
L48.7344 0
L39.9375 0
L39.9375 31.5469
Q39.9375 36.9219 38.9062 39.5781
Q37.8906 42.2344 35.2812 43.8125
Q32.6719 45.4062 29.1562 45.4062
Q23.5312 45.4062 19.4531 41.8438
Q15.375 38.2812 15.375 28.3281
L15.375 0
z
" id="ArialMT-6e"/>
      <path d="
M23.3906 -21.0469
Q16.1094 -11.8594 11.0781 0.4375
Q6.0625 12.75 6.0625 25.9219
Q6.0625 37.5469 9.8125 48.1875
Q14.2031 60.5469 23.3906 72.7969
L29.6875 72.7969
Q23.7812 62.6406 21.875 58.2969
Q18.8906 51.5625 17.1875 44.2344
Q15.0938 35.1094 15.0938 25.875
Q15.0938 2.39062 29.6875 -21.0469
z
" id="ArialMT-28"/>
      <path d="
M5.03125 -1.21875
L9.28125 19.5781
L1.03125 19.5781
L1.03125 26.8594
L10.75 26.8594
L14.3594 44.5781
L1.03125 44.5781
L1.03125 51.8594
L15.8281 51.8594
L20.0625 72.7969
L27.3906 72.7969
L23.1406 51.8594
L38.5312 51.8594
L42.7812 72.7969
L50.1406 72.7969
L45.9062 51.8594
L54.3438 51.8594
L54.3438 44.5781
L44.4375 44.5781
L40.7656 26.8594
L54.3438 26.8594
L54.3438 19.5781
L39.3125 19.5781
L35.0625 -1.21875
L27.7344 -1.21875
L31.9375 19.5781
L16.6094 19.5781
L12.3594 -1.21875
z

M18.0625 26.8594
L33.4062 26.8594
L37.0625 44.5781
L21.6875 44.5781
z
" id="ArialMT-23"/>
      <path d="
M6.64062 61.4688
L6.64062 71.5781
L15.4375 71.5781
L15.4375 61.4688
z

M6.64062 0
L6.64062 51.8594
L15.4375 51.8594
L15.4375 0
z
" id="ArialMT-69"/>
      <path id="ArialMT-20"/>
     </defs>
     <g transform="translate(263.79734948 398.917592822)scale(0.18 -0.18)">
      <use xlink:href="#ArialMT-6c"/>
      <use x="22.216796875" xlink:href="#ArialMT-6f"/>
      <use x="77.83203125" xlink:href="#ArialMT-67"/>
      <use x="133.447265625" xlink:href="#ArialMT-31"/>
      <use x="189.0625" xlink:href="#ArialMT-30"/>
      <use x="244.677734375" xlink:href="#ArialMT-20"/>
      <use x="272.4609375" xlink:href="#ArialMT-6f"/>
      <use x="328.076171875" xlink:href="#ArialMT-66"/>
      <use x="355.859375" xlink:href="#ArialMT-20"/>
      <use x="383.642578125" xlink:href="#ArialMT-28"/>
      <use x="416.943359375" xlink:href="#ArialMT-23"/>
      <use x="472.55859375" xlink:href="#ArialMT-20"/>
      <use x="500.341796875" xlink:href="#ArialMT-66"/>
      <use x="528.125" xlink:href="#ArialMT-2d"/>
      <use x="561.42578125" xlink:href="#ArialMT-65"/>
      <use x="617.041015625" xlink:href="#ArialMT-76"/>
      <use x="667.041015625" xlink:href="#ArialMT-61"/>
      <use x="722.65625" xlink:href="#ArialMT-6c"/>
      <use x="744.873046875" xlink:href="#ArialMT-73"/>
      <use x="794.873046875" xlink:href="#ArialMT-20"/>
      <use x="822.65625" xlink:href="#ArialMT-2f"/>
      <use x="850.439453125" xlink:href="#ArialMT-20"/>
      <use x="878.22265625" xlink:href="#ArialMT-64"/>
      <use x="933.837890625" xlink:href="#ArialMT-69"/>
      <use x="956.0546875" xlink:href="#ArialMT-6d"/>
      <use x="1039.35546875" xlink:href="#ArialMT-65"/>
      <use x="1094.97070312" xlink:href="#ArialMT-6e"/>
      <use x="1150.5859375" xlink:href="#ArialMT-73"/>
      <use x="1200.5859375" xlink:href="#ArialMT-69"/>
      <use x="1222.80273438" xlink:href="#ArialMT-6f"/>
      <use x="1278.41796875" xlink:href="#ArialMT-6e"/>
      <use x="1334.03320312" xlink:href="#ArialMT-29"/>
     </g>
    </g>
   </g>
   <g id="matplotlib.axis_2">
    <g id="ytick_1">
     <g id="line2d_100">
      <path clip-path="url(#pebde201112)" d="
M163.324 358.524
L609.724 358.524" style="fill:none;stroke:#000000;stroke-dasharray:1.000000,3.000000;stroke-dashoffset:0.0;stroke-width:0.5;"/>
     </g>
     <g id="line2d_101">
      <defs>
       <path d="
M0 0
L4 0" id="m728421d6d4" style="stroke:#000000;stroke-width:0.5;"/>
      </defs>
      <g>
       <use style="stroke:#000000;stroke-width:0.5;" x="163.32359948" xlink:href="#m728421d6d4" y="358.523530322"/>
      </g>
     </g>
     <g id="line2d_102">
      <defs>
       <path d="
M0 0
L-4 0" id="mcb0005524f" style="stroke:#000000;stroke-width:0.5;"/>
      </defs>
      <g>
       <use style="stroke:#000000;stroke-width:0.5;" x="609.72359948" xlink:href="#mcb0005524f" y="358.523530322"/>
      </g>
     </g>
     <g id="text_6">
      <!-- 0.0 -->
      <defs>
       <path d="
M9.07812 0
L9.07812 10.0156
L19.0938 10.0156
L19.0938 0
z
" id="ArialMT-2e"/>
      </defs>
      <g transform="translate(133.31109948 363.693842822)scale(0.2 -0.2)">
       <use xlink:href="#ArialMT-30"/>
       <use x="55.615234375" xlink:href="#ArialMT-2e"/>
       <use x="83.3984375" xlink:href="#ArialMT-30"/>
      </g>
     </g>
    </g>
    <g id="ytick_2">
     <g id="line2d_103">
      <path clip-path="url(#pebde201112)" d="
M163.324 290.088
L609.724 290.088" style="fill:none;stroke:#000000;stroke-dasharray:1.000000,3.000000;stroke-dashoffset:0.0;stroke-width:0.5;"/>
     </g>
     <g id="line2d_104">
      <g>
       <use style="stroke:#000000;stroke-width:0.5;" x="163.32359948" xlink:href="#m728421d6d4" y="290.087886757"/>
      </g>
     </g>
     <g id="line2d_105">
      <g>
       <use style="stroke:#000000;stroke-width:0.5;" x="609.72359948" xlink:href="#mcb0005524f" y="290.087886757"/>
      </g>
     </g>
     <g id="text_7">
      <!-- 0.2 -->
      <g transform="translate(133.40797448 295.258199257)scale(0.2 -0.2)">
       <use xlink:href="#ArialMT-30"/>
       <use x="55.615234375" xlink:href="#ArialMT-2e"/>
       <use x="83.3984375" xlink:href="#ArialMT-32"/>
      </g>
     </g>
    </g>
    <g id="ytick_3">
     <g id="line2d_106">
      <path clip-path="url(#pebde201112)" d="
M163.324 221.652
L609.724 221.652" style="fill:none;stroke:#000000;stroke-dasharray:1.000000,3.000000;stroke-dashoffset:0.0;stroke-width:0.5;"/>
     </g>
     <g id="line2d_107">
      <g>
       <use style="stroke:#000000;stroke-width:0.5;" x="163.32359948" xlink:href="#m728421d6d4" y="221.652243193"/>
      </g>
     </g>
     <g id="line2d_108">
      <g>
       <use style="stroke:#000000;stroke-width:0.5;" x="609.72359948" xlink:href="#mcb0005524f" y="221.652243193"/>
      </g>
     </g>
     <g id="text_8">
      <!-- 0.4 -->
      <defs>
       <path d="
M32.3281 0
L32.3281 17.1406
L1.26562 17.1406
L1.26562 25.2031
L33.9375 71.5781
L41.1094 71.5781
L41.1094 25.2031
L50.7812 25.2031
L50.7812 17.1406
L41.1094 17.1406
L41.1094 0
z

M32.3281 25.2031
L32.3281 57.4688
L9.90625 25.2031
z
" id="ArialMT-34"/>
      </defs>
      <g transform="translate(133.32047448 226.822555693)scale(0.2 -0.2)">
       <use xlink:href="#ArialMT-30"/>
       <use x="55.615234375" xlink:href="#ArialMT-2e"/>
       <use x="83.3984375" xlink:href="#ArialMT-34"/>
      </g>
     </g>
    </g>
    <g id="ytick_4">
     <g id="line2d_109">
      <path clip-path="url(#pebde201112)" d="
M163.324 153.217
L609.724 153.217" style="fill:none;stroke:#000000;stroke-dasharray:1.000000,3.000000;stroke-dashoffset:0.0;stroke-width:0.5;"/>
     </g>
     <g id="line2d_110">
      <g>
       <use style="stroke:#000000;stroke-width:0.5;" x="163.32359948" xlink:href="#m728421d6d4" y="153.216599629"/>
      </g>
     </g>
     <g id="line2d_111">
      <g>
       <use style="stroke:#000000;stroke-width:0.5;" x="609.72359948" xlink:href="#mcb0005524f" y="153.216599629"/>
      </g>
     </g>
     <g id="text_9">
      <!-- 0.6 -->
      <defs>
       <path d="
M49.75 54.0469
L41.0156 53.375
Q39.8438 58.5469 37.7031 60.8906
Q34.125 64.6562 28.9062 64.6562
Q24.7031 64.6562 21.5312 62.3125
Q17.3906 59.2812 14.9844 53.4688
Q12.5938 47.6562 12.5 36.9219
Q15.6719 41.75 20.2656 44.0938
Q24.8594 46.4375 29.8906 46.4375
Q38.6719 46.4375 44.8438 39.9688
Q51.0312 33.5 51.0312 23.25
Q51.0312 16.5 48.125 10.7188
Q45.2188 4.9375 40.1406 1.85938
Q35.0625 -1.21875 28.6094 -1.21875
Q17.625 -1.21875 10.6875 6.85938
Q3.76562 14.9375 3.76562 33.5
Q3.76562 54.25 11.4219 63.6719
Q18.1094 71.875 29.4375 71.875
Q37.8906 71.875 43.2812 67.1406
Q48.6875 62.4062 49.75 54.0469
M13.875 23.1875
Q13.875 18.6562 15.7969 14.5
Q17.7188 10.3594 21.1875 8.17188
Q24.6562 6 28.4688 6
Q34.0312 6 38.0312 10.4844
Q42.0469 14.9844 42.0469 22.7031
Q42.0469 30.125 38.0781 34.3906
Q34.125 38.6719 28.125 38.6719
Q22.1719 38.6719 18.0156 34.3906
Q13.875 30.125 13.875 23.1875" id="ArialMT-36"/>
      </defs>
      <g transform="translate(133.27047448 158.386912129)scale(0.2 -0.2)">
       <use xlink:href="#ArialMT-30"/>
       <use x="55.615234375" xlink:href="#ArialMT-2e"/>
       <use x="83.3984375" xlink:href="#ArialMT-36"/>
      </g>
     </g>
    </g>
    <g id="ytick_5">
     <g id="line2d_112">
      <path clip-path="url(#pebde201112)" d="
M163.324 84.781
L609.724 84.781" style="fill:none;stroke:#000000;stroke-dasharray:1.000000,3.000000;stroke-dashoffset:0.0;stroke-width:0.5;"/>
     </g>
     <g id="line2d_113">
      <g>
       <use style="stroke:#000000;stroke-width:0.5;" x="163.32359948" xlink:href="#m728421d6d4" y="84.7809560644"/>
      </g>
     </g>
     <g id="line2d_114">
      <g>
       <use style="stroke:#000000;stroke-width:0.5;" x="609.72359948" xlink:href="#mcb0005524f" y="84.7809560644"/>
      </g>
     </g>
     <g id="text_10">
      <!-- 0.8 -->
      <defs>
       <path d="
M17.6719 38.8125
Q12.2031 40.8281 9.5625 44.5312
Q6.9375 48.25 6.9375 53.4219
Q6.9375 61.2344 12.5469 66.5469
Q18.1719 71.875 27.4844 71.875
Q36.8594 71.875 42.5781 66.4219
Q48.2969 60.9844 48.2969 53.1719
Q48.2969 48.1875 45.6719 44.5
Q43.0625 40.8281 37.75 38.8125
Q44.3438 36.6719 47.7812 31.875
Q51.2188 27.0938 51.2188 20.4531
Q51.2188 11.2812 44.7188 5.03125
Q38.2344 -1.21875 27.6406 -1.21875
Q17.0469 -1.21875 10.5469 5.04688
Q4.04688 11.3281 4.04688 20.7031
Q4.04688 27.6875 7.59375 32.3906
Q11.1406 37.1094 17.6719 38.8125
M15.9219 53.7188
Q15.9219 48.6406 19.1875 45.4062
Q22.4688 42.1875 27.6875 42.1875
Q32.7656 42.1875 36.0156 45.375
Q39.2656 48.5781 39.2656 53.2188
Q39.2656 58.0625 35.9062 61.3594
Q32.5625 64.6562 27.5938 64.6562
Q22.5625 64.6562 19.2344 61.4219
Q15.9219 58.2031 15.9219 53.7188
M13.0938 20.6562
Q13.0938 16.8906 14.875 13.375
Q16.6562 9.85938 20.1719 7.92188
Q23.6875 6 27.7344 6
Q34.0312 6 38.125 10.0469
Q42.2344 14.1094 42.2344 20.3594
Q42.2344 26.7031 38.0156 30.8594
Q33.7969 35.0156 27.4375 35.0156
Q21.2344 35.0156 17.1562 30.9062
Q13.0938 26.8125 13.0938 20.6562" id="ArialMT-38"/>
      </defs>
      <g transform="translate(133.23297448 89.9512685644)scale(0.2 -0.2)">
       <use xlink:href="#ArialMT-30"/>
       <use x="55.615234375" xlink:href="#ArialMT-2e"/>
       <use x="83.3984375" xlink:href="#ArialMT-38"/>
      </g>
     </g>
    </g>
    <g id="ytick_6">
     <g id="line2d_115">
      <path clip-path="url(#pebde201112)" d="
M163.324 16.3453
L609.724 16.3453" style="fill:none;stroke:#000000;stroke-dasharray:1.000000,3.000000;stroke-dashoffset:0.0;stroke-width:0.5;"/>
     </g>
     <g id="line2d_116">
      <g>
       <use style="stroke:#000000;stroke-width:0.5;" x="163.32359948" xlink:href="#m728421d6d4" y="16.3453125"/>
      </g>
     </g>
     <g id="line2d_117">
      <g>
       <use style="stroke:#000000;stroke-width:0.5;" x="609.72359948" xlink:href="#mcb0005524f" y="16.3453125"/>
      </g>
     </g>
     <g id="text_11">
      <!-- 1.0 -->
      <g transform="translate(134.65797448 21.515625)scale(0.2 -0.2)">
       <use xlink:href="#ArialMT-31"/>
       <use x="55.615234375" xlink:href="#ArialMT-2e"/>
       <use x="83.3984375" xlink:href="#ArialMT-30"/>
      </g>
     </g>
    </g>
    <g id="text_12">
     <!-- Proportion of function+target pairs -->
     <defs>
      <path d="
M40.4375 19
L49.0781 17.875
Q47.6562 8.9375 41.8125 3.875
Q35.9844 -1.17188 27.4844 -1.17188
Q16.8438 -1.17188 10.375 5.78125
Q3.90625 12.75 3.90625 25.7344
Q3.90625 34.125 6.6875 40.4219
Q9.46875 46.7344 15.1562 49.875
Q20.8438 53.0312 27.5469 53.0312
Q35.9844 53.0312 41.3594 48.75
Q46.7344 44.4844 48.25 36.625
L39.7031 35.2969
Q38.4844 40.5312 35.375 43.1562
Q32.2812 45.7969 27.875 45.7969
Q21.2344 45.7969 17.0781 41.0312
Q12.9375 36.2812 12.9375 25.9844
Q12.9375 15.5312 16.9375 10.7969
Q20.9531 6.0625 27.3906 6.0625
Q32.5625 6.0625 36.0312 9.23438
Q39.5 12.4062 40.4375 19" id="ArialMT-63"/>
      <path d="
M25.7812 7.85938
L27.0469 0.09375
Q23.3438 -0.6875 20.4062 -0.6875
Q15.625 -0.6875 12.9844 0.828125
Q10.3594 2.34375 9.28125 4.8125
Q8.20312 7.28125 8.20312 15.1875
L8.20312 45.0156
L1.76562 45.0156
L1.76562 51.8594
L8.20312 51.8594
L8.20312 64.7031
L16.9375 69.9688
L16.9375 51.8594
L25.7812 51.8594
L25.7812 45.0156
L16.9375 45.0156
L16.9375 14.7031
Q16.9375 10.9375 17.4062 9.85938
Q17.875 8.79688 18.9219 8.15625
Q19.9688 7.51562 21.9219 7.51562
Q23.3906 7.51562 25.7812 7.85938" id="ArialMT-74"/>
      <path d="
M40.5781 0
L40.5781 7.625
Q34.5156 -1.17188 24.125 -1.17188
Q19.5312 -1.17188 15.5469 0.578125
Q11.5781 2.34375 9.64062 5
Q7.71875 7.67188 6.9375 11.5312
Q6.39062 14.1094 6.39062 19.7344
L6.39062 51.8594
L15.1875 51.8594
L15.1875 23.0938
Q15.1875 16.2188 15.7188 13.8125
Q16.5469 10.3594 19.2344 8.375
Q21.9219 6.39062 25.875 6.39062
Q29.8281 6.39062 33.2969 8.42188
Q36.7656 10.4531 38.2031 13.9375
Q39.6562 17.4375 39.6562 24.0781
L39.6562 51.8594
L48.4375 51.8594
L48.4375 0
z
" id="ArialMT-75"/>
      <path d="
M7.71875 0
L7.71875 71.5781
L34.7188 71.5781
Q41.8438 71.5781 45.6094 70.9062
Q50.875 70.0156 54.4375 67.5469
Q58.0156 65.0938 60.1875 60.6406
Q62.3594 56.2031 62.3594 50.875
Q62.3594 41.75 56.5469 35.4219
Q50.7344 29.1094 35.5469 29.1094
L17.1875 29.1094
L17.1875 0
z

M17.1875 37.5469
L35.6875 37.5469
Q44.875 37.5469 48.7344 40.9688
Q52.5938 44.3906 52.5938 50.5938
Q52.5938 55.0781 50.3125 58.2656
Q48.0469 61.4688 44.3438 62.5
Q41.9375 63.1406 35.5 63.1406
L17.1875 63.1406
z
" id="ArialMT-50"/>
      <path d="
M6.59375 -19.875
L6.59375 51.8594
L14.5938 51.8594
L14.5938 45.125
Q17.4375 49.0781 21 51.0469
Q24.5625 53.0312 29.6406 53.0312
Q36.2812 53.0312 41.3594 49.6094
Q46.4375 46.1875 49.0156 39.9531
Q51.6094 33.7344 51.6094 26.3125
Q51.6094 18.3594 48.75 11.9844
Q45.9062 5.60938 40.4531 2.21875
Q35.0156 -1.17188 29 -1.17188
Q24.6094 -1.17188 21.1094 0.6875
Q17.625 2.54688 15.375 5.375
L15.375 -19.875
z

M14.5469 25.6406
Q14.5469 15.625 18.5938 10.8438
Q22.6562 6.0625 28.4219 6.0625
Q34.2812 6.0625 38.4531 11.0156
Q42.625 15.9688 42.625 26.375
Q42.625 36.2812 38.5469 41.2031
Q34.4688 46.1406 28.8125 46.1406
Q23.1875 46.1406 18.8594 40.8906
Q14.5469 35.6406 14.5469 25.6406" id="ArialMT-70"/>
      <path d="
M25.0469 11.5781
L25.0469 31.2031
L5.5625 31.2031
L5.5625 39.4062
L25.0469 39.4062
L25.0469 58.8906
L33.3438 58.8906
L33.3438 39.4062
L52.8281 39.4062
L52.8281 31.2031
L33.3438 31.2031
L33.3438 11.5781
z
" id="ArialMT-2b"/>
      <path d="
M6.5 0
L6.5 51.8594
L14.4062 51.8594
L14.4062 44
Q17.4375 49.5156 20 51.2656
Q22.5625 53.0312 25.6406 53.0312
Q30.0781 53.0312 34.6719 50.2031
L31.6406 42.0469
Q28.4219 43.9531 25.2031 43.9531
Q22.3125 43.9531 20.0156 42.2188
Q17.7188 40.4844 16.75 37.4062
Q15.2812 32.7188 15.2812 27.1562
L15.2812 0
z
" id="ArialMT-72"/>
     </defs>
     <g transform="translate(124.44453698 321.197436572)rotate(-90.0)scale(0.18 -0.18)">
      <use xlink:href="#ArialMT-50"/>
      <use x="66.69921875" xlink:href="#ArialMT-72"/>
      <use x="100.0" xlink:href="#ArialMT-6f"/>
      <use x="155.615234375" xlink:href="#ArialMT-70"/>
      <use x="211.23046875" xlink:href="#ArialMT-6f"/>
      <use x="266.845703125" xlink:href="#ArialMT-72"/>
      <use x="300.146484375" xlink:href="#ArialMT-74"/>
      <use x="327.9296875" xlink:href="#ArialMT-69"/>
      <use x="350.146484375" xlink:href="#ArialMT-6f"/>
      <use x="405.76171875" xlink:href="#ArialMT-6e"/>
      <use x="461.376953125" xlink:href="#ArialMT-20"/>
      <use x="489.16015625" xlink:href="#ArialMT-6f"/>
      <use x="544.775390625" xlink:href="#ArialMT-66"/>
      <use x="572.55859375" xlink:href="#ArialMT-20"/>
      <use x="600.341796875" xlink:href="#ArialMT-66"/>
      <use x="628.125" xlink:href="#ArialMT-75"/>
      <use x="683.740234375" xlink:href="#ArialMT-6e"/>
      <use x="739.35546875" xlink:href="#ArialMT-63"/>
      <use x="789.35546875" xlink:href="#ArialMT-74"/>
      <use x="817.138671875" xlink:href="#ArialMT-69"/>
      <use x="839.35546875" xlink:href="#ArialMT-6f"/>
      <use x="894.970703125" xlink:href="#ArialMT-6e"/>
      <use x="950.5859375" xlink:href="#ArialMT-2b"/>
      <use x="1008.984375" xlink:href="#ArialMT-74"/>
      <use x="1036.76757812" xlink:href="#ArialMT-61"/>
      <use x="1092.3828125" xlink:href="#ArialMT-72"/>
      <use x="1125.68359375" xlink:href="#ArialMT-67"/>
      <use x="1181.29882812" xlink:href="#ArialMT-65"/>
      <use x="1236.9140625" xlink:href="#ArialMT-74"/>
      <use x="1264.69726562" xlink:href="#ArialMT-20"/>
      <use x="1292.48046875" xlink:href="#ArialMT-70"/>
      <use x="1348.09570312" xlink:href="#ArialMT-61"/>
      <use x="1403.7109375" xlink:href="#ArialMT-69"/>
      <use x="1425.92773438" xlink:href="#ArialMT-72"/>
      <use x="1459.22851562" xlink:href="#ArialMT-73"/>
     </g>
    </g>
   </g>
   <g id="patch_3">
    <path d="
M163.324 12.9235
L609.724 12.9235" style="fill:none;stroke:#000000;"/>
   </g>
   <g id="patch_4">
    <path d="
M609.724 358.524
L609.724 12.9235" style="fill:none;stroke:#000000;"/>
   </g>
   <g id="patch_5">
    <path d="
M163.324 358.524
L609.724 358.524" style="fill:none;stroke:#000000;"/>
   </g>
   <g id="patch_6">
    <path d="
M163.324 358.524
L163.324 12.9235" style="fill:none;stroke:#000000;"/>
   </g>
   <g id="text_13">
    <!-- 3-D -->
    <defs>
     <path d="
M7.71875 0
L7.71875 71.5781
L32.375 71.5781
Q40.7188 71.5781 45.125 70.5625
Q51.2656 69.1406 55.6094 65.4375
Q61.2812 60.6406 64.0781 53.1875
Q66.8906 45.75 66.8906 36.1875
Q66.8906 28.0312 64.9844 21.7344
Q63.0938 15.4375 60.1094 11.2969
Q57.125 7.17188 53.5781 4.79688
Q50.0469 2.4375 45.0469 1.21875
Q40.0469 0 33.5469 0
z

M17.1875 8.45312
L32.4688 8.45312
Q39.5469 8.45312 43.5781 9.76562
Q47.6094 11.0781 50 13.4844
Q53.375 16.8438 55.25 22.5312
Q57.125 28.2188 57.125 36.3281
Q57.125 47.5625 53.4375 53.5938
Q49.75 59.625 44.4844 61.6719
Q40.6719 63.1406 32.2344 63.1406
L17.1875 63.1406
z
" id="ArialMT-44"/>
    </defs>
    <g transform="translate(570.12359948 355.55770034)scale(0.15 -0.15)">
     <use xlink:href="#ArialMT-33"/>
     <use x="55.615234375" xlink:href="#ArialMT-2d"/>
     <use x="88.916015625" xlink:href="#ArialMT-44"/>
    </g>
   </g>
   <g id="text_14">
    <!-- 5-D -->
    <defs>
     <path d="
M4.15625 18.75
L13.375 19.5312
Q14.4062 12.7969 18.1406 9.39062
Q21.875 6 27.1562 6
Q33.5 6 37.8906 10.7812
Q42.2812 15.5781 42.2812 23.4844
Q42.2812 31 38.0625 35.3438
Q33.8438 39.7031 27 39.7031
Q22.75 39.7031 19.3281 37.7656
Q15.9219 35.8438 13.9688 32.7656
L5.71875 33.8438
L12.6406 70.6094
L48.25 70.6094
L48.25 62.2031
L19.6719 62.2031
L15.8281 42.9688
Q22.2656 47.4688 29.3438 47.4688
Q38.7188 47.4688 45.1562 40.9688
Q51.6094 34.4688 51.6094 24.2656
Q51.6094 14.5469 45.9531 7.46875
Q39.0625 -1.21875 27.1562 -1.21875
Q17.3906 -1.21875 11.2031 4.25
Q5.03125 9.71875 4.15625 18.75" id="ArialMT-35"/>
    </defs>
    <g transform="translate(570.12359948 273.434928063)scale(0.15 -0.15)">
     <use xlink:href="#ArialMT-35"/>
     <use x="55.615234375" xlink:href="#ArialMT-2d"/>
     <use x="88.916015625" xlink:href="#ArialMT-44"/>
    </g>
   </g>
   <g id="text_15">
    <!-- 20-D -->
    <g transform="translate(570.12359948 191.312155786)scale(0.15 -0.15)">
     <use xlink:href="#ArialMT-32"/>
     <use x="55.615234375" xlink:href="#ArialMT-30"/>
     <use x="111.23046875" xlink:href="#ArialMT-2d"/>
     <use x="144.53125" xlink:href="#ArialMT-44"/>
    </g>
   </g>
   <g id="text_16">
    <!-- 10-D -->
    <g transform="translate(570.12359948 109.189383509)scale(0.15 -0.15)">
     <use xlink:href="#ArialMT-31"/>
     <use x="55.615234375" xlink:href="#ArialMT-30"/>
     <use x="111.23046875" xlink:href="#ArialMT-2d"/>
     <use x="144.53125" xlink:href="#ArialMT-44"/>
    </g>
   </g>
   <g id="text_17">
    <!-- 2-D -->
    <g transform="translate(570.12359948 27.0666112314)scale(0.15 -0.15)">
     <use xlink:href="#ArialMT-32"/>
     <use x="55.615234375" xlink:href="#ArialMT-2d"/>
     <use x="88.916015625" xlink:href="#ArialMT-44"/>
    </g>
   </g>
   <g id="text_18">
    <!-- bbob - f15-f19 -->
    <defs>
     <path d="
M14.7031 0
L6.54688 0
L6.54688 71.5781
L15.3281 71.5781
L15.3281 46.0469
Q20.9062 53.0312 29.5469 53.0312
Q34.3281 53.0312 38.5938 51.0938
Q42.875 49.1719 45.625 45.6719
Q48.3906 42.1875 49.9531 37.25
Q51.5156 32.3281 51.5156 26.7031
Q51.5156 13.375 44.9219 6.09375
Q38.3281 -1.17188 29.1094 -1.17188
Q19.9219 -1.17188 14.7031 6.5
z

M14.5938 26.3125
Q14.5938 17 17.1406 12.8438
Q21.2969 6.0625 28.375 6.0625
Q34.125 6.0625 38.3281 11.0625
Q42.5312 16.0625 42.5312 25.9844
Q42.5312 36.1406 38.5 40.9688
Q34.4688 45.7969 28.7656 45.7969
Q23 45.7969 18.7969 40.7969
Q14.5938 35.7969 14.5938 26.3125" id="ArialMT-62"/>
     <path d="
M5.46875 16.5469
L13.9219 17.3281
Q14.9844 11.375 18.0156 8.6875
Q21.0469 6 25.7812 6
Q29.8281 6 32.875 7.85938
Q35.9375 9.71875 37.8906 12.8125
Q39.8438 15.9219 41.1562 21.1875
Q42.4844 26.4688 42.4844 31.9375
Q42.4844 32.5156 42.4375 33.6875
Q39.7969 29.5 35.2344 26.875
Q30.6719 24.2656 25.3438 24.2656
Q16.4531 24.2656 10.2969 30.7031
Q4.15625 37.1562 4.15625 47.7031
Q4.15625 58.5938 10.5781 65.2344
Q17 71.875 26.6562 71.875
Q33.6406 71.875 39.4219 68.1094
Q45.2188 64.3594 48.2188 57.3906
Q51.2188 50.4375 51.2188 37.25
Q51.2188 23.5312 48.2344 15.4062
Q45.2656 7.28125 39.375 3.03125
Q33.5 -1.21875 25.5938 -1.21875
Q17.1875 -1.21875 11.8594 3.4375
Q6.54688 8.10938 5.46875 16.5469
M41.4531 48.1406
Q41.4531 55.7188 37.4219 60.1562
Q33.4062 64.5938 27.7344 64.5938
Q21.875 64.5938 17.5312 59.8125
Q13.1875 55.0312 13.1875 47.4062
Q13.1875 40.5781 17.3125 36.2969
Q21.4375 32.0312 27.4844 32.0312
Q33.5938 32.0312 37.5156 36.2969
Q41.4531 40.5781 41.4531 48.1406" id="ArialMT-39"/>
    </defs>
    <g transform="translate(167.78759948 31.7604459468)scale(0.1666 -0.1666)">
     <use xlink:href="#ArialMT-62"/>
     <use x="55.615234375" xlink:href="#ArialMT-62"/>
     <use x="111.23046875" xlink:href="#ArialMT-6f"/>
     <use x="166.845703125" xlink:href="#ArialMT-62"/>
     <use x="222.4609375" xlink:href="#ArialMT-20"/>
     <use x="250.244140625" xlink:href="#ArialMT-2d"/>
     <use x="283.544921875" xlink:href="#ArialMT-20"/>
     <use x="311.328125" xlink:href="#ArialMT-66"/>
     <use x="339.111328125" xlink:href="#ArialMT-31"/>
     <use x="394.7265625" xlink:href="#ArialMT-35"/>
     <use x="450.341796875" xlink:href="#ArialMT-2d"/>
     <use x="483.642578125" xlink:href="#ArialMT-66"/>
     <use x="511.42578125" xlink:href="#ArialMT-31"/>
     <use x="567.041015625" xlink:href="#ArialMT-39"/>
    </g>
    <!-- 31 target RLs/dim: 0.5..50 -->
    <defs>
     <path d="
M7.85938 0
L7.85938 71.5781
L39.5938 71.5781
Q49.1719 71.5781 54.1406 69.6406
Q59.125 67.7188 62.1094 62.8281
Q65.0938 57.9531 65.0938 52.0469
Q65.0938 44.4375 60.1562 39.2031
Q55.2188 33.9844 44.9219 32.5625
Q48.6875 30.7656 50.6406 29
Q54.7812 25.2031 58.5 19.4844
L70.9531 0
L59.0312 0
L49.5625 14.8906
Q45.4062 21.3438 42.7188 24.75
Q40.0469 28.1719 37.9219 29.5312
Q35.7969 30.9062 33.5938 31.4531
Q31.9844 31.7812 28.3281 31.7812
L17.3281 31.7812
L17.3281 0
z

M17.3281 39.9844
L37.7031 39.9844
Q44.1875 39.9844 47.8438 41.3281
Q51.5156 42.6719 53.4219 45.625
Q55.3281 48.5781 55.3281 52.0469
Q55.3281 57.125 51.6406 60.3906
Q47.9531 63.6719 39.9844 63.6719
L17.3281 63.6719
z
" id="ArialMT-52"/>
     <path d="
M9.03125 41.8438
L9.03125 51.8594
L19.0469 51.8594
L19.0469 41.8438
z

M9.03125 0
L9.03125 10.0156
L19.0469 10.0156
L19.0469 0
z
" id="ArialMT-3a"/>
     <path d="
M7.32812 0
L7.32812 71.5781
L16.7969 71.5781
L16.7969 8.45312
L52.0469 8.45312
L52.0469 0
z
" id="ArialMT-4c"/>
    </defs>
    <g transform="translate(167.78759948 49.6251721968)scale(0.1666 -0.1666)">
     <use xlink:href="#ArialMT-33"/>
     <use x="55.615234375" xlink:href="#ArialMT-31"/>
     <use x="111.23046875" xlink:href="#ArialMT-20"/>
     <use x="139.013671875" xlink:href="#ArialMT-74"/>
     <use x="166.796875" xlink:href="#ArialMT-61"/>
     <use x="222.412109375" xlink:href="#ArialMT-72"/>
     <use x="255.712890625" xlink:href="#ArialMT-67"/>
     <use x="311.328125" xlink:href="#ArialMT-65"/>
     <use x="366.943359375" xlink:href="#ArialMT-74"/>
     <use x="394.7265625" xlink:href="#ArialMT-20"/>
     <use x="422.509765625" xlink:href="#ArialMT-52"/>
     <use x="494.7265625" xlink:href="#ArialMT-4c"/>
     <use x="550.341796875" xlink:href="#ArialMT-73"/>
     <use x="600.341796875" xlink:href="#ArialMT-2f"/>
     <use x="628.125" xlink:href="#ArialMT-64"/>
     <use x="683.740234375" xlink:href="#ArialMT-69"/>
     <use x="705.95703125" xlink:href="#ArialMT-6d"/>
     <use x="789.2578125" xlink:href="#ArialMT-3a"/>
     <use x="817.041015625" xlink:href="#ArialMT-20"/>
     <use x="844.82421875" xlink:href="#ArialMT-30"/>
     <use x="900.439453125" xlink:href="#ArialMT-2e"/>
     <use x="928.22265625" xlink:href="#ArialMT-35"/>
     <use x="983.837890625" xlink:href="#ArialMT-2e"/>
     <use x="1011.62109375" xlink:href="#ArialMT-2e"/>
     <use x="1039.40429688" xlink:href="#ArialMT-35"/>
     <use x="1095.01953125" xlink:href="#ArialMT-30"/>
    </g>
    <!--    from refalgs/best2009-bbob.tar.gz -->
    <defs>
     <path d="
M1.95312 0
L1.95312 7.125
L34.9688 45.0156
Q29.3438 44.7344 25.0469 44.7344
L3.90625 44.7344
L3.90625 51.8594
L46.2969 51.8594
L46.2969 46.0469
L18.2188 13.1406
L12.7969 7.125
Q18.7031 7.5625 23.875 7.5625
L47.8594 7.5625
L47.8594 0
z
" id="ArialMT-7a"/>
    </defs>
    <g transform="translate(167.78759948 67.6851328218)scale(0.1666 -0.1666)">
     <use xlink:href="#ArialMT-20"/>
     <use x="27.783203125" xlink:href="#ArialMT-20"/>
     <use x="55.56640625" xlink:href="#ArialMT-20"/>
     <use x="83.349609375" xlink:href="#ArialMT-66"/>
     <use x="111.1328125" xlink:href="#ArialMT-72"/>
     <use x="144.43359375" xlink:href="#ArialMT-6f"/>
     <use x="200.048828125" xlink:href="#ArialMT-6d"/>
     <use x="283.349609375" xlink:href="#ArialMT-20"/>
     <use x="311.1328125" xlink:href="#ArialMT-72"/>
     <use x="344.43359375" xlink:href="#ArialMT-65"/>
     <use x="400.048828125" xlink:href="#ArialMT-66"/>
     <use x="427.83203125" xlink:href="#ArialMT-61"/>
     <use x="483.447265625" xlink:href="#ArialMT-6c"/>
     <use x="505.6640625" xlink:href="#ArialMT-67"/>
     <use x="561.279296875" xlink:href="#ArialMT-73"/>
     <use x="611.279296875" xlink:href="#ArialMT-2f"/>
     <use x="639.0625" xlink:href="#ArialMT-62"/>
     <use x="694.677734375" xlink:href="#ArialMT-65"/>
     <use x="750.29296875" xlink:href="#ArialMT-73"/>
     <use x="800.29296875" xlink:href="#ArialMT-74"/>
     <use x="828.076171875" xlink:href="#ArialMT-32"/>
     <use x="883.69140625" xlink:href="#ArialMT-30"/>
     <use x="939.306640625" xlink:href="#ArialMT-30"/>
     <use x="994.921875" xlink:href="#ArialMT-39"/>
     <use x="1050.53710938" xlink:href="#ArialMT-2d"/>
     <use x="1083.83789062" xlink:href="#ArialMT-62"/>
     <use x="1139.453125" xlink:href="#ArialMT-62"/>
     <use x="1195.06835938" xlink:href="#ArialMT-6f"/>
     <use x="1250.68359375" xlink:href="#ArialMT-62"/>
     <use x="1306.29882812" xlink:href="#ArialMT-2e"/>
     <use x="1334.08203125" xlink:href="#ArialMT-74"/>
     <use x="1361.86523438" xlink:href="#ArialMT-61"/>
     <use x="1417.48046875" xlink:href="#ArialMT-72"/>
     <use x="1445.28125" xlink:href="#ArialMT-2e"/>
     <use x="1473.06445312" xlink:href="#ArialMT-67"/>
     <use x="1528.6796875" xlink:href="#ArialMT-7a"/>
    </g>
    <!-- 15 instances -->
    <g transform="translate(167.78759948 85.5014409468)scale(0.1666 -0.1666)">
     <use xlink:href="#ArialMT-31"/>
     <use x="55.615234375" xlink:href="#ArialMT-35"/>
     <use x="111.23046875" xlink:href="#ArialMT-20"/>
     <use x="139.013671875" xlink:href="#ArialMT-69"/>
     <use x="161.23046875" xlink:href="#ArialMT-6e"/>
     <use x="216.845703125" xlink:href="#ArialMT-73"/>
     <use x="266.845703125" xlink:href="#ArialMT-74"/>
     <use x="294.62890625" xlink:href="#ArialMT-61"/>
     <use x="350.244140625" xlink:href="#ArialMT-6e"/>
     <use x="405.859375" xlink:href="#ArialMT-63"/>
     <use x="455.859375" xlink:href="#ArialMT-65"/>
     <use x="511.474609375" xlink:href="#ArialMT-73"/>
    </g>
   </g>
   <g id="text_19">
    <!-- v2.0.1 -->
    <g style="fill:#808080;" transform="translate(373.88531823 353.080030322)scale(0.1 -0.1)">
     <use xlink:href="#ArialMT-76"/>
     <use x="50.0" xlink:href="#ArialMT-32"/>
     <use x="105.615234375" xlink:href="#ArialMT-2e"/>
     <use x="133.3984375" xlink:href="#ArialMT-30"/>
     <use x="189.013671875" xlink:href="#ArialMT-2e"/>
     <use x="216.796875" xlink:href="#ArialMT-31"/>
    </g>
   </g>
  </g>
 </g>
 <defs>
  <clipPath id="pebde201112">
   <rect height="345.6" width="446.4" x="163.32359948" y="12.9235303218"/>
  </clipPath>
 </defs>
</svg>
