<?xml version="1.0" encoding="utf-8" standalone="no"?>
<!DOCTYPE svg PUBLIC "-//W3C//DTD SVG 1.1//EN"
  "http://www.w3.org/Graphics/SVG/1.1/DTD/svg11.dtd">
<!-- Created with matplotlib (http://matplotlib.org/) -->
<svg height="411pt" version="1.1" viewBox="0 0 514 411" width="514pt" xmlns="http://www.w3.org/2000/svg" xmlns:xlink="http://www.w3.org/1999/xlink">
 <defs>
  <style type="text/css">
*{stroke-linecap:butt;stroke-linejoin:round;}
  </style>
 </defs>
 <g id="figure_1">
  <g id="patch_1">
   <path d="
M0 411.783
L514.425 411.783
L514.425 0
L0 0
z
" style="fill:#ffffff;"/>
  </g>
  <g id="axes_1">
   <g id="patch_2">
    <path d="
M60.825 358.524
L507.225 358.524
L507.225 12.9235
L60.825 12.9235
z
" style="fill:#ffffff;"/>
   </g>
   <g id="line2d_1">
    <path clip-path="url(#p0ab5e1e507)" d="
M358.115 358.524
L358.115 353.961
L363.528 353.961
L363.528 349.399
L363.945 349.399
L363.945 344.836
L367.521 344.836
L367.521 340.274
L368.024 340.274
L368.024 335.712
L368.579 335.712
L368.579 331.149
L368.744 331.149
L368.744 326.587
L371.176 326.587
L371.176 322.025
L374.935 322.025
L374.935 317.462
L375.682 317.462
L375.682 312.9
L376.712 312.9
L376.712 308.337
L377.582 308.337
L377.582 303.775
L377.726 303.775
L377.726 299.213
L385.229 299.213
L385.229 294.65
L400.274 294.65
L400.274 290.088
L405.062 290.088
L405.062 285.526
L405.687 285.526
L405.687 280.963
L406.337 280.963
L406.337 276.401
L409.373 276.401
L409.373 271.838
L409.549 271.838
L409.549 267.276
L410.248 267.276
L410.248 262.714
L414.455 262.714
L414.455 258.151
L417.141 258.151
L417.219 249.027
L418.071 249.027
L418.071 244.464
L418.404 244.464
L418.404 239.902
L418.583 239.902
L418.583 235.339
L419.619 235.339
L419.619 230.777
L420.292 230.777
L420.292 226.215
L420.589 226.215
L420.589 221.652
L421.861 221.652
L421.861 217.09
L422.726 217.09
L422.726 212.527
L424.074 212.527
L424.074 207.965
L424.772 207.965
L424.772 203.403
L425.049 203.403
L425.049 198.84
L429.048 198.84
L429.048 194.278
L430.462 194.278
L430.462 189.716
L431.514 189.716
L431.514 185.153
L436.759 185.153
L436.759 180.591
L437.409 180.591
L437.466 171.466
L443.991 171.466
L443.991 166.904
L456.12 166.904
L456.12 162.341
L457.418 162.341
L457.418 157.779
L457.544 157.779
L457.544 153.217
L463.2 153.217
L463.2 148.654
L465.138 148.654
L465.138 144.092
L470.75 144.092
L470.75 139.529
L471.113 139.529
L471.113 134.967
L472.234 134.967
L472.234 130.405
L473.149 130.405
L473.149 125.842
L477.908 125.842
L477.908 121.28
L478.828 121.28
L478.828 116.718
L480.608 116.718
L480.608 112.155
L481.268 112.155
L481.268 107.593
L482.218 107.593
L482.218 103.03
L485.926 103.03
L485.926 98.4681
L487.969 98.4681
L487.969 93.9057
L488.429 93.9057
L488.429 89.3433
L491.519 89.3433
L491.519 84.781
L492.321 84.781
L492.321 80.2186
L493.754 80.2186
L493.754 75.6562
L495.915 75.6562
L495.915 71.0938
L499.517 71.0938
L499.517 66.5315
L501.327 66.5315
L501.327 61.9691
L504.519 61.9691
L504.519 57.4067
L506.268 57.4067
L506.268 52.8443
L507.173 52.8443
L507.173 48.2819
L515.425 48.2819
L515.425 48.2819" style="fill:none;stroke:#f5deb3;stroke-linecap:square;"/>
   </g>
   <g id="line2d_2">
    <path clip-path="url(#p0ab5e1e507)" d="
M443.75 358.524
L443.75 353.961
L444.471 353.961
L444.471 349.399
L444.76 349.399
L444.76 344.836
L449.144 344.836
L449.144 340.274
L449.287 340.274
L449.319 331.149
L451.788 331.149
L451.788 326.587
L452.501 326.587
L452.501 322.025
L454.752 322.025
L454.752 317.462
L455.216 317.462
L455.216 312.9
L455.749 312.9
L455.749 308.337
L456.348 308.337
L456.348 303.775
L456.617 303.775
L456.617 299.213
L458.155 299.213
L458.155 294.65
L460.461 294.65
L460.461 290.088
L460.66 290.088
L460.66 285.526
L461.031 285.526
L461.031 280.963
L462.713 280.963
L462.713 276.401
L464.29 276.401
L464.29 271.838
L467.487 271.838
L467.487 267.276
L468.212 267.276
L468.212 262.714
L470.248 262.714
L470.248 258.151
L470.694 258.151
L470.694 253.589
L474.557 253.589
L474.557 249.027
L475.704 249.027
L475.704 244.464
L476.499 244.464
L476.499 239.902
L483.069 239.902
L483.069 235.339
L487.961 235.339
L487.961 230.777
L488.299 230.777
L488.299 226.215
L499.677 226.215
L499.677 221.652
L509.286 221.652
L509.286 217.09
L515.425 217.09
L515.425 217.09" style="fill:none;stroke:#f5deb3;stroke-linecap:square;"/>
   </g>
   <g id="line2d_3">
    <path clip-path="url(#p0ab5e1e507)" d="
M492.264 358.524
L492.264 353.961
L493.106 353.961
L493.106 349.399
L493.179 349.399
L493.179 344.836
L493.675 344.836
L493.675 340.274
L503.012 340.274
L503.012 335.712
L505.176 335.712
L505.176 331.149
L508.181 331.149
L508.181 326.587
L515.425 326.587" style="fill:none;stroke:#f5deb3;stroke-linecap:square;"/>
   </g>
   <g id="line2d_4">
    <path clip-path="url(#p0ab5e1e507)" d="
M592.111 358.524" style="fill:none;stroke:#f5deb3;stroke-linecap:square;"/>
   </g>
   <g id="line2d_5">
    <path clip-path="url(#p0ab5e1e507)" d="
M391.95 358.524
L391.95 353.961
L393.433 353.961
L393.433 349.399
L396.479 349.399
L396.479 344.836
L397.405 344.836
L397.405 340.274
L398.734 340.274
L398.734 335.712
L399.491 335.712
L399.491 331.149
L400.24 331.149
L400.24 322.025
L401.446 322.025
L401.513 312.9
L402.598 312.9
L402.598 308.337
L403.922 308.337
L403.922 303.775
L404.113 303.775
L404.113 299.213
L404.368 299.213
L404.368 294.65
L408.872 294.65
L408.872 290.088
L411.34 290.088
L411.34 285.526
L413.964 285.526
L413.964 280.963
L439.304 280.963
L439.304 276.401
L470.088 276.401
L470.088 271.838
L486.987 271.838
L486.987 267.276
L488.619 267.276
L488.619 262.714
L488.86 262.714
L488.877 253.589
L489.203 253.589
L489.203 249.027
L490.781 249.027
L490.781 244.464
L491.757 244.464
L491.757 239.902
L491.88 239.902
L491.88 235.339
L492.411 235.339
L492.411 230.777
L492.792 230.777
L492.792 226.215
L493.73 226.215
L493.73 221.652
L495.908 221.652
L495.908 217.09
L497.007 217.09
L497.007 212.527
L498.423 212.527
L498.423 207.965
L498.659 207.965
L498.659 203.403
L499.692 203.403
L499.692 198.84
L502.853 198.84
L502.853 194.278
L502.998 194.278
L502.998 189.716
L503.142 189.716
L503.177 180.591
L503.349 180.591
L503.349 176.028
L503.479 176.028
L503.479 171.466
L504.296 171.466
L504.296 166.904
L505.196 166.904
L505.196 162.341
L508.461 162.341
L508.461 157.779
L508.739 157.779
L508.739 153.217
L509.773 153.217
L509.773 148.654
L510.342 148.654
L510.342 144.092
L512.074 144.092
L512.074 139.529
L512.415 139.529
L512.415 134.967
L514.006 134.967
L514.006 130.405
L515.425 130.405
L515.425 130.405" style="fill:none;stroke:#f5deb3;stroke-linecap:square;"/>
   </g>
   <g id="line2d_6">
    <path clip-path="url(#p0ab5e1e507)" d="
M327.99 358.524
L327.99 353.961
L328.506 353.961
L328.506 349.399
L329.22 349.399
L329.22 344.836
L329.826 344.836
L329.826 340.274
L330.426 340.274
L330.426 335.712
L330.625 335.712
L330.625 331.149
L330.824 331.149
L330.824 326.587
L332.485 326.587
L332.485 322.025
L332.678 322.025
L332.678 317.462
L333.633 317.462
L333.633 312.9
L333.727 312.9
L333.727 308.337
L334.48 308.337
L334.48 303.775
L334.667 303.775
L334.667 299.213
L335.96 299.213
L335.96 294.65
L336.415 294.65
L336.415 290.088
L336.958 290.088
L336.958 285.526
L342.89 285.526
L342.89 280.963
L343.462 280.963
L343.462 276.401
L344.11 276.401
L344.11 271.838
L345.308 271.838
L345.308 267.276
L427.425 267.276
L427.425 262.714
L436.469 262.714
L436.469 258.151
L439.174 258.151
L439.174 253.589
L450.837 253.589
L450.837 249.027
L456.73 249.027
L456.73 244.464
L460.899 244.464
L460.899 239.902
L463.924 239.902
L463.924 235.339
L465.975 235.339
L465.975 230.777
L471.844 230.777
L471.844 226.215
L475.112 226.215
L475.112 221.652
L490.964 221.652
L490.964 217.09
L497.015 217.09
L497.015 212.527
L498.954 212.527
L498.954 207.965
L499.408 207.965
L499.408 203.403
L500.392 203.403
L500.392 198.84
L505.042 198.84
L505.042 194.278
L505.189 194.278
L505.189 189.716
L505.223 189.716
L505.223 185.153
L505.542 185.153
L505.542 180.591
L508.758 180.591
L508.758 176.028
L511.132 176.028
L511.132 171.466
L513.919 171.466
L513.919 166.904
L515.425 166.904" style="fill:none;stroke:#f5deb3;stroke-linecap:square;"/>
   </g>
   <g id="line2d_7">
    <path clip-path="url(#p0ab5e1e507)" d="
M384.585 358.524
L384.585 353.961
L384.714 353.961
L384.714 349.399
L388.311 349.399
L388.311 344.836
L388.433 344.836
L388.433 340.274
L389.839 340.274
L389.839 335.712
L390.432 335.712
L390.432 331.149
L390.981 331.149
L390.981 326.587
L392.486 326.587
L392.562 317.462
L393.282 317.462
L393.282 312.9
L395.248 312.9
L395.248 308.337
L395.867 308.337
L395.867 303.775
L396.3 303.775
L396.3 299.213
L396.944 299.213
L396.944 290.088
L397.086 290.088
L397.086 285.526
L401.513 285.526
L401.513 280.963
L401.678 280.963
L401.678 276.401
L402.008 276.401
L402.008 271.838
L408.664 271.838
L408.664 267.276
L414.183 267.276
L414.292 258.151
L416.722 258.151
L416.722 253.589
L418.225 253.589
L418.225 249.027
L420.069 249.027
L420.069 244.464
L420.712 244.464
L420.712 239.902
L423.012 239.902
L423.012 235.339
L424.517 235.339
L424.517 230.777
L424.726 230.777
L424.726 226.215
L425.394 226.215
L425.394 221.652
L427.135 221.652
L427.135 217.09
L427.978 217.09
L427.978 212.527
L428.831 212.527
L428.831 207.965
L430.016 207.965
L430.016 203.403
L432.404 203.403
L432.425 194.278
L432.835 194.278
L432.835 189.716
L433.667 189.716
L433.667 185.153
L434.807 185.153
L434.807 180.591
L436.469 180.591
L436.469 176.028
L437.257 176.028
L437.257 171.466
L438.015 171.466
L438.015 166.904
L440.075 166.904
L440.075 162.341
L440.567 162.341
L440.567 157.779
L447.927 157.779
L447.927 153.217
L484.591 153.217
L484.591 148.654
L488.972 148.654
L488.972 144.092
L493.106 144.092
L493.106 139.529
L495.529 139.529
L495.529 134.967
L497.693 134.967
L497.693 130.405
L515.425 130.405
L515.425 130.405" style="fill:none;stroke:#f5deb3;stroke-linecap:square;"/>
   </g>
   <g id="line2d_8">
    <path clip-path="url(#p0ab5e1e507)" d="
M362.08 358.524
L362.08 353.961
L363.767 353.961
L363.767 349.399
L366.045 349.399
L366.045 344.836
L368.413 344.836
L368.413 340.274
L370.483 340.274
L370.483 335.712
L370.697 335.712
L370.697 331.149
L474.116 331.149
L474.116 326.587
L478.405 326.587
L478.405 322.025
L479.585 322.025
L479.645 308.337
L479.981 308.337
L479.981 303.775
L480.677 303.775
L480.677 294.65
L480.881 294.65
L480.881 290.088
L482.645 290.088
L482.645 285.526
L482.833 285.526
L482.833 280.963
L484.747 280.963
L484.747 276.401
L485.529 276.401
L485.529 271.838
L486.898 271.838
L486.942 262.714
L487.987 262.714
L487.987 258.151
L488.446 258.151
L488.446 253.589
L489.975 253.589
L489.975 249.027
L509.418 249.027
L509.418 244.464
L512.546 244.464
L512.546 239.902
L515.425 239.902
L515.425 239.902" style="fill:none;stroke:#f5deb3;stroke-linecap:square;"/>
   </g>
   <g id="line2d_9">
    <path clip-path="url(#p0ab5e1e507)" d="
M617.779 358.524" style="fill:none;stroke:#f5deb3;stroke-linecap:square;"/>
   </g>
   <g id="line2d_10">
    <path clip-path="url(#p0ab5e1e507)" d="
M314.208 358.524
L314.208 353.961
L319.373 353.961
L319.373 344.836
L336.687 344.836
L336.687 335.712
L338.559 335.712
L338.559 326.587
L343.868 326.587
L343.868 322.025
L347.18 322.025
L347.18 317.462
L350.33 317.462
L350.33 312.9
L351.85 312.9
L351.85 299.213
L353.334 299.213
L353.334 285.526
L354.785 285.526
L354.785 271.838
L358.953 271.838
L358.953 258.151
L360.285 258.151
L360.285 253.589
L361.589 253.589
L361.589 244.464
L364.123 244.464
L364.123 235.339
L366.56 235.339
L366.56 230.777
L368.909 230.777
L368.909 226.215
L370.052 226.215
L370.052 221.652
L371.176 221.652
L371.176 217.09
L372.28 217.09
L372.28 212.527
L373.365 212.527
L373.365 207.965
L374.433 207.965
L374.433 198.84
L375.483 198.84
L375.483 189.716
L376.517 189.716
L376.517 185.153
L378.536 185.153
L378.536 176.028
L381.451 176.028
L381.451 171.466
L382.394 171.466
L382.394 166.904
L383.323 166.904
L383.323 162.341
L384.24 162.341
L384.24 153.217
L385.143 153.217
L385.143 148.654
L386.913 148.654
L386.913 144.092
L387.78 144.092
L387.78 134.967
L389.481 134.967
L389.481 130.405
L390.314 130.405
L390.314 125.842
L391.137 125.842
L391.137 121.28
L391.95 121.28
L391.95 107.593
L392.752 107.593
L392.752 103.03
L393.545 103.03
L393.545 98.4681
L394.328 98.4681
L394.328 93.9057
L395.102 93.9057
L395.102 84.781
L395.867 84.781
L395.867 80.2186
L396.622 80.2186
L396.622 75.6562
L397.369 75.6562
L397.369 71.0938
L398.108 71.0938
L398.108 66.5315
L400.274 66.5315
L400.274 61.9691
L401.678 61.9691
L401.678 57.4067
L408.902 57.4067
L408.902 52.8443
L409.52 52.8443
L409.52 48.2819
L412.526 48.2819
L412.526 43.7196
L413.69 43.7196
L413.69 39.1572
L417.062 39.1572
L417.062 34.5948
L419.744 34.5948
L419.744 25.4701
L424.795 25.4701
L424.795 20.9077
L489.151 20.9077
L489.151 16.3453
L489.151 16.3453
L507.225 16.3453
L507.225 16.3453" style="fill:none;stroke:#f5deb3;stroke-linecap:square;"/>
   </g>
   <g id="line2d_11">
    <path clip-path="url(#p0ab5e1e507)" d="
M359.781 358.524
L359.781 353.961
L367.969 353.961
L367.969 349.399
L368.136 349.399
L368.136 344.836
L386.788 344.836
L386.788 340.274
L388.271 340.274
L388.271 335.712
L389.68 335.712
L389.68 331.149
L389.879 331.149
L389.879 326.587
L390.314 326.587
L390.314 322.025
L391.525 322.025
L391.525 317.462
L392.333 317.462
L392.333 312.9
L393.357 312.9
L393.357 308.337
L394.735 308.337
L394.735 303.775
L396.371 303.775
L396.371 299.213
L396.979 299.213
L396.979 294.65
L397.405 294.65
L397.405 290.088
L397.933 290.088
L397.933 285.526
L398.665 285.526
L398.665 280.963
L400.98 280.963
L400.98 276.401
L409.432 276.401
L409.432 271.838
L412.358 271.838
L412.358 267.276
L423.226 267.276
L423.226 262.714
L424.888 262.714
L424.888 258.151
L425.394 258.151
L425.394 253.589
L426.214 253.589
L426.214 249.027
L426.957 249.027
L426.957 244.464
L427.18 244.464
L427.18 239.902
L428.983 239.902
L429.027 230.777
L429.502 230.777
L429.502 226.215
L429.631 226.215
L429.631 221.652
L429.952 221.652
L429.952 217.09
L433.707 217.09
L433.768 207.965
L434.189 207.965
L434.189 203.403
L435.712 203.403
L435.712 198.84
L438.091 198.84
L438.091 194.278
L438.803 194.278
L438.803 189.716
L440.002 189.716
L440.002 185.153
L445.671 185.153
L445.671 180.591
L447.521 180.591
L447.521 176.028
L463.506 176.028
L463.506 171.466
L491.642 171.466
L491.642 166.904
L495.024 166.904
L495.024 162.341
L496.414 162.341
L496.414 157.779
L496.772 157.779
L496.772 153.217
L515.425 153.217
L515.425 153.217" style="fill:none;stroke:#f5deb3;stroke-linecap:square;"/>
   </g>
   <g id="line2d_12">
    <path clip-path="url(#p0ab5e1e507)" d="
M388.352 358.524
L388.352 353.961
L396.658 353.961
L396.658 349.399
L398.699 349.399
L398.699 344.836
L399.079 344.836
L399.079 340.274
L399.901 340.274
L399.901 335.712
L400.51 335.712
L400.611 322.025
L401.113 322.025
L401.113 317.462
L401.347 317.462
L401.347 312.9
L401.711 312.9
L401.711 308.337
L402.008 308.337
L402.008 303.775
L402.631 303.775
L402.631 299.213
L403.021 299.213
L403.021 294.65
L403.408 294.65
L403.408 290.088
L406.674 290.088
L406.766 276.401
L406.827 276.401
L406.827 271.838
L407.102 271.838
L407.102 267.276
L409.108 267.276
L409.108 262.714
L409.783 262.714
L409.783 258.151
L410.595 258.151
L410.595 253.589
L420.168 253.589
L420.168 249.027
L421.228 249.027
L421.228 244.464
L436.315 244.464
L436.315 239.902
L438.466 239.902
L438.466 235.339
L439.322 235.339
L439.322 230.777
L443.595 230.777
L443.595 226.215
L444.777 226.215
L444.777 221.652
L448.746 221.652
L448.746 217.09
L448.906 217.09
L448.906 212.527
L449.587 212.527
L449.587 207.965
L450.883 207.965
L450.883 203.403
L451.222 203.403
L451.222 198.84
L452.38 198.84
L452.38 194.278
L452.996 194.278
L452.996 189.716
L453.116 189.716
L453.116 185.153
L453.25 185.153
L453.25 176.028
L453.429 176.028
L453.429 171.466
L453.814 171.466
L453.814 166.904
L454.035 166.904
L454.035 162.341
L455.187 162.341
L455.187 157.779
L455.317 157.779
L455.317 153.217
L455.533 153.217
L455.533 148.654
L456.857 148.654
L456.857 144.092
L457.725 144.092
L457.725 139.529
L458.099 139.529
L458.099 134.967
L458.964 134.967
L458.964 130.405
L460.046 130.405
L460.046 125.842
L461.557 125.842
L461.557 121.28
L462.571 121.28
L462.571 116.718
L470.454 116.718
L470.454 112.155
L472.289 112.155
L472.289 107.593
L476.019 107.593
L476.019 103.03
L500.736 103.03
L500.736 98.4681
L502.513 98.4681
L502.513 93.9057
L505.203 93.9057
L505.203 89.3433
L505.641 89.3433
L505.641 84.781
L506.849 84.781
L506.849 80.2186
L507.451 80.2186
L507.451 75.6562
L508.985 75.6562
L508.985 71.0938
L509.104 71.0938
L509.104 66.5315
L509.854 66.5315
L509.854 61.9691
L510.064 61.9691
L510.064 57.4067
L510.772 57.4067
L510.772 52.8443
L510.931 52.8443
L510.931 48.2819
L511.065 48.2819
L511.065 43.7196
L511.29 43.7196
L511.314 34.5948
L512.433 34.5948
L512.433 30.0324
L514.856 30.0324
L514.856 25.4701
L515.425 25.4701
L515.425 25.4701" style="fill:none;stroke:#f5deb3;stroke-linecap:square;"/>
   </g>
   <g id="line2d_13">
    <path clip-path="url(#p0ab5e1e507)" d="
M496.015 358.524
L496.015 353.961
L501.114 353.961
L501.114 349.399
L501.779 349.399
L501.779 344.836
L502.108 344.836
L502.108 340.274
L503.204 340.274
L503.204 335.712
L505.096 335.712
L505.096 331.149
L515.425 331.149
L515.425 331.149" style="fill:none;stroke:#f5deb3;stroke-linecap:square;"/>
   </g>
   <g id="line2d_14">
    <path clip-path="url(#p0ab5e1e507)" d="
M479.932 358.524
L479.932 353.961
L482.37 353.961
L482.37 349.399
L482.55 349.399
L482.55 344.836
L483.312 344.836
L483.312 340.274
L483.611 340.274
L483.714 331.149
L489.177 331.149
L489.254 322.025
L489.314 322.025
L489.314 317.462
L490.051 317.462
L490.144 308.337
L490.789 308.337
L490.789 303.775
L491.064 303.775
L491.064 299.213
L491.634 299.213
L491.634 294.65
L491.782 294.65
L491.798 285.526
L492.346 285.526
L492.346 276.401
L496.742 276.401
L496.742 271.838
L497.06 271.838
L497.06 267.276
L497.279 267.276
L497.279 262.714
L497.483 262.714
L497.483 258.151
L497.82 258.151
L497.82 253.589
L498.111 253.589
L498.111 249.027
L498.222 249.027
L498.222 244.464
L498.924 244.464
L498.924 239.902
L499.262 239.902
L499.262 235.339
L499.444 235.339
L499.444 230.777
L505.912 230.777
L505.926 221.652
L506.458 221.652
L506.458 217.09
L506.771 217.09
L506.771 212.527
L512.677 212.527
L512.677 207.965
L515.425 207.965
L515.425 207.965" style="fill:none;stroke:#f5deb3;stroke-linecap:square;"/>
   </g>
   <g id="line2d_15">
    <path clip-path="url(#p0ab5e1e507)" d="
M569.499 358.524" style="fill:none;stroke:#f5deb3;stroke-linecap:square;"/>
   </g>
   <g id="line2d_16">
    <path clip-path="url(#p0ab5e1e507)" d="
M348.473 358.524
L348.473 353.961
L356.936 353.961
L356.936 349.399
L364.359 349.399
L364.359 344.836
L364.535 344.836
L364.535 340.274
L366.731 340.274
L366.731 335.712
L367.071 335.712
L367.071 331.149
L370.91 331.149
L370.91 326.587
L371.282 326.587
L371.282 322.025
L376.027 322.025
L376.027 317.462
L376.174 317.462
L376.174 312.9
L378.772 312.9
L378.772 308.337
L383.411 308.337
L383.411 303.775
L391.37 303.775
L391.37 299.213
L400.341 299.213
L400.341 294.65
L411.766 294.65
L411.766 290.088
L418.02 290.088
L418.02 285.526
L418.786 285.526
L418.786 280.963
L421.057 280.963
L421.057 276.401
L423.345 276.401
L423.345 271.838
L425.279 271.838
L425.279 267.276
L425.6 267.276
L425.6 262.714
L425.714 262.714
L425.714 258.151
L427.247 258.151
L427.314 249.027
L428.066 249.027
L428.066 244.464
L428.962 244.464
L429.027 235.339
L430.037 235.339
L430.037 230.777
L430.695 230.777
L430.695 226.215
L434.826 226.215
L434.826 221.652
L435.044 221.652
L435.044 217.09
L445.302 217.09
L445.302 212.527
L457.516 212.527
L457.516 207.965
L460.22 207.965
L460.22 203.403
L461.124 203.403
L461.124 198.84
L470.283 198.84
L470.283 194.278
L472.665 194.278
L472.665 189.716
L486.525 189.716
L486.525 185.153
L490.195 185.153
L490.195 180.591
L491.147 180.591
L491.147 176.028
L491.798 176.028
L491.798 171.466
L494.93 171.466
L494.93 166.904
L497.038 166.904
L497.038 162.341
L497.91 162.341
L497.91 157.779
L498.46 157.779
L498.46 153.217
L501.772 153.217
L501.772 148.654
L502.115 148.654
L502.213 139.529
L509.079 139.529
L509.079 134.967
L515.425 134.967
L515.425 134.967" style="fill:none;stroke:#f5deb3;stroke-linecap:square;"/>
   </g>
   <g id="line2d_17">
    <path clip-path="url(#p0ab5e1e507)" d="
M563.417 358.524" style="fill:none;stroke:#f5deb3;stroke-linecap:square;"/>
   </g>
   <g id="line2d_18">
    <path clip-path="url(#p0ab5e1e507)" d="
M348.549 358.524
L348.549 353.961
L365.062 353.961
L365.062 349.399
L365.931 349.399
L365.931 344.836
L370.429 344.836
L370.429 340.274
L370.857 340.274
L370.857 335.712
L376.174 335.712
L376.174 331.149
L376.809 331.149
L376.809 326.587
L377.918 326.587
L377.918 322.025
L381.901 322.025
L381.901 317.462
L383.103 317.462
L383.103 312.9
L383.674 312.9
L383.674 308.337
L384.066 308.337
L384.066 303.775
L385.015 303.775
L385.015 299.213
L385.781 299.213
L385.781 294.65
L386.705 294.65
L386.705 290.088
L386.872 290.088
L386.872 285.526
L388.23 285.526
L388.23 280.963
L388.717 280.963
L388.717 276.401
L388.959 276.401
L388.959 271.838
L391.642 271.838
L391.642 267.276
L392.98 267.276
L392.98 262.714
L395.649 262.714
L395.649 258.151
L395.939 258.151
L395.939 253.589
L396.872 253.589
L396.872 249.027
L397.652 249.027
L397.652 244.464
L398.699 244.464
L398.699 239.902
L401.28 239.902
L401.28 235.339
L403.215 235.339
L403.215 230.777
L408.605 230.777
L408.605 226.215
L410.045 226.215
L410.045 221.652
L413.387 221.652
L413.387 217.09
L413.635 217.09
L413.635 212.527
L416.222 212.527
L416.222 207.965
L421.179 207.965
L421.179 203.403
L423.155 203.403
L423.155 198.84
L424.097 198.84
L424.097 194.278
L424.934 194.278
L424.934 189.716
L428.088 189.716
L428.088 185.153
L428.307 185.153
L428.307 180.591
L431.763 180.591
L431.763 176.028
L434.149 176.028
L434.149 171.466
L435.848 171.466
L435.848 166.904
L438.504 166.904
L438.504 162.341
L441.198 162.341
L441.198 157.779
L450.496 157.779
L450.496 153.217
L452.214 153.217
L452.214 148.654
L452.802 148.654
L452.802 144.092
L453.488 144.092
L453.488 139.529
L459.331 139.529
L459.331 134.967
L499.108 134.967
L499.108 130.405
L510.937 130.405
L510.937 125.842
L515.425 125.842
L515.425 125.842" style="fill:none;stroke:#f5deb3;stroke-linecap:square;"/>
   </g>
   <g id="line2d_19">
    <path clip-path="url(#p0ab5e1e507)" d="
M824.224 358.524" style="fill:none;stroke:#f5deb3;stroke-linecap:square;"/>
   </g>
   <g id="line2d_20">
    <path clip-path="url(#p0ab5e1e507)" d="
M531.569 358.524" style="fill:none;stroke:#f5deb3;stroke-linecap:square;"/>
   </g>
   <g id="line2d_21">
    <path clip-path="url(#p0ab5e1e507)" d="
M369.401 358.524
L369.401 353.961
L370.857 353.961
L370.857 349.399
L372.228 349.399
L372.228 344.836
L375.334 344.836
L375.334 340.274
L381.991 340.274
L381.991 335.712
L385.186 335.712
L385.186 331.149
L385.992 331.149
L385.992 326.587
L390.629 326.587
L390.629 322.025
L393.093 322.025
L393.093 317.462
L404.747 317.462
L404.747 312.9
L422.078 312.9
L422.078 308.337
L429.07 308.337
L429.07 303.775
L429.243 303.775
L429.243 299.213
L435.829 299.213
L435.829 294.65
L437.18 294.65
L437.18 290.088
L442.213 290.088
L442.213 285.526
L443.161 285.526
L443.161 280.963
L515.425 280.963" style="fill:none;stroke:#f5deb3;stroke-linecap:square;"/>
   </g>
   <g id="line2d_22"/>
   <g id="line2d_23">
    <path clip-path="url(#p0ab5e1e507)" d="
M602.393 358.524" style="fill:none;stroke:#f5deb3;stroke-linecap:square;"/>
   </g>
   <g id="line2d_24">
    <path clip-path="url(#p0ab5e1e507)" d="
M588.36 358.524" style="fill:none;stroke:#f5deb3;stroke-linecap:square;"/>
   </g>
   <g id="line2d_25">
    <path clip-path="url(#p0ab5e1e507)" d="
M403.279 358.524
L403.279 353.961
L403.986 353.961
L403.986 349.399
L405.842 349.399
L405.842 344.836
L405.966 344.836
L406.059 335.712
L408.218 335.712
L408.277 326.587
L408.664 326.587
L408.664 322.025
L409.754 322.025
L409.754 317.462
L410.074 317.462
L410.074 312.9
L410.422 312.9
L410.422 308.337
L410.653 308.337
L410.653 303.775
L411.083 303.775
L411.083 299.213
L411.539 299.213
L411.625 290.088
L411.992 290.088
L411.992 285.526
L412.833 285.526
L412.833 280.963
L413.194 280.963
L413.277 271.838
L415.264 271.838
L415.264 267.276
L417.375 267.276
L417.375 262.714
L417.866 262.714
L417.866 258.151
L420.466 258.151
L420.466 253.589
L450.852 253.589
L450.852 249.027
L452.621 249.027
L452.621 244.464
L456.405 244.464
L456.405 239.902
L456.829 239.902
L456.829 235.339
L461.097 235.339
L461.097 230.777
L461.321 230.777
L461.321 226.215
L461.936 226.215
L461.936 221.652
L463.353 221.652
L463.353 217.09
L463.823 217.09
L463.823 212.527
L465.422 212.527
L465.422 207.965
L466.754 207.965
L466.79 198.84
L467.451 198.84
L467.451 194.278
L467.63 194.278
L467.63 189.716
L470.329 189.716
L470.329 185.153
L471.474 185.153
L471.474 180.591
L473.313 180.591
L473.313 176.028
L473.564 176.028
L473.564 171.466
L473.857 171.466
L473.857 166.904
L476.831 166.904
L476.831 162.341
L477.428 162.341
L477.428 157.779
L478.818 157.779
L478.818 153.217
L480.53 153.217
L480.53 148.654
L480.657 148.654
L480.657 144.092
L481.998 144.092
L481.998 139.529
L485.656 139.529
L485.656 134.967
L487.322 134.967
L487.322 130.405
L490.997 130.405
L490.997 125.842
L495.738 125.842
L495.738 121.28
L498.74 121.28
L498.74 116.718
L511.363 116.718
L511.363 112.155
L512.523 112.155
L512.523 107.593
L512.772 107.593
L512.772 103.03
L515.425 103.03
L515.425 103.03" style="fill:none;stroke:#f5deb3;stroke-linecap:square;"/>
   </g>
   <g id="line2d_26">
    <path clip-path="url(#p0ab5e1e507)" d="
M583.304 358.524" style="fill:none;stroke:#f5deb3;stroke-linecap:square;"/>
   </g>
   <g id="line2d_27">
    <path clip-path="url(#p0ab5e1e507)" d="
M417.452 358.524
L417.452 353.961
L424.633 353.961
L424.633 349.399
L429.781 349.399
L429.802 340.274
L430.59 340.274
L430.59 335.712
L433.323 335.712
L433.323 331.149
L435.182 331.149
L435.182 326.587
L436.489 326.587
L436.489 322.025
L438.672 322.025
L438.672 317.462
L439.081 317.462
L439.081 312.9
L439.193 312.9
L439.193 308.337
L439.433 308.337
L439.433 303.775
L439.691 303.775
L439.746 294.65
L439.874 294.65
L439.874 290.088
L443.195 290.088
L443.195 285.526
L444.726 285.526
L444.726 280.963
L444.896 280.963
L444.896 276.401
L445.955 276.401
L445.955 271.838
L446.998 271.838
L446.998 267.276
L448.538 267.276
L448.538 262.714
L449.335 262.714
L449.335 258.151
L450.168 258.151
L450.168 253.589
L451.437 253.589
L451.437 249.027
L456.447 249.027
L456.447 244.464
L458.334 244.464
L458.348 235.339
L461.741 235.339
L461.741 230.777
L472.3 230.777
L472.3 226.215
L476.458 226.215
L476.458 221.652
L483.256 221.652
L483.256 217.09
L484.371 217.09
L484.371 212.527
L484.966 212.527
L484.966 207.965
L485.157 207.965
L485.157 203.403
L485.375 203.403
L485.375 198.84
L485.737 198.84
L485.737 194.278
L485.953 194.278
L485.953 189.716
L486.204 189.716
L486.204 185.153
L486.32 185.153
L486.32 180.591
L486.925 180.591
L487.004 171.466
L487.401 171.466
L487.401 166.904
L487.532 166.904
L487.576 148.654
L487.646 148.654
L487.646 144.092
L487.926 144.092
L487.987 130.405
L488.221 130.405
L488.221 125.842
L488.774 125.842
L488.774 121.28
L488.929 121.28
L488.929 116.718
L489.28 116.718
L489.28 112.155
L491.403 112.155
L491.403 107.593
L491.872 107.593
L491.872 103.03
L492.093 103.03
L492.093 98.4681
L493.267 98.4681
L493.267 93.9057
L494.554 93.9057
L494.554 89.3433
L495.258 89.3433
L495.258 84.781
L497.939 84.781
L497.939 80.2186
L498.2 80.2186
L498.2 75.6562
L498.4 75.6562
L498.408 66.5315
L498.844 66.5315
L498.844 61.9691
L499.108 61.9691
L499.108 57.4067
L499.488 57.4067
L499.488 52.8443
L499.634 52.8443
L499.677 43.7196
L500.514 43.7196
L500.514 39.1572
L501.313 39.1572
L501.313 34.5948
L501.807 34.5948
L501.807 30.0324
L502.157 30.0324
L502.157 25.4701
L505.183 25.4701
L505.183 20.9077
L509.086 20.9077
L509.086 16.3453
L509.086 16.3453" style="fill:none;stroke:#f5deb3;stroke-linecap:square;"/>
   </g>
   <g id="line2d_28">
    <path clip-path="url(#p0ab5e1e507)" d="
M670.151 358.524" style="fill:none;stroke:#f5deb3;stroke-linecap:square;"/>
   </g>
   <g id="line2d_29">
    <path clip-path="url(#p0ab5e1e507)" d="
M335.224 358.524
L335.224 353.961
L335.224 353.961
L335.224 349.399
L335.224 349.399
L335.224 344.836
L337.585 344.836
L337.585 340.274
L337.585 340.274
L337.585 335.712
L337.585 335.712
L337.585 331.149
L353.194 331.149
L353.194 326.587
L353.194 326.587
L353.194 322.025
L353.194 322.025
L353.194 317.462
L355.533 317.462
L355.533 312.9
L355.533 312.9
L355.533 308.337
L355.533 308.337
L355.533 303.775
L408.516 303.775
L408.516 299.213
L408.516 299.213
L408.516 294.65
L408.516 294.65
L408.516 290.088
L412.777 290.088
L412.777 285.526
L412.777 285.526
L412.777 280.963
L412.777 280.963
L412.777 276.401
L431.116 276.401
L431.116 271.838
L431.116 271.838
L431.116 267.276
L431.116 267.276
L431.116 262.714
L451.925 262.714
L451.925 258.151
L451.925 258.151
L451.925 253.589
L451.925 253.589
L451.925 249.027
L452.891 249.027
L452.891 244.464
L452.891 244.464
L452.891 239.902
L452.891 239.902
L452.891 235.339
L457.209 235.339
L457.209 230.777
L457.209 230.777
L457.209 226.215
L457.209 226.215
L457.209 221.652
L515.425 221.652" style="fill:none;stroke:#f5deb3;stroke-linecap:square;"/>
   </g>
   <g id="line2d_30">
    <path clip-path="url(#p0ab5e1e507)" d="
M-1 353.961
L1.43787 353.961
L1.43787 349.399
L15.863 349.399
L15.863 335.712
L37.6144 335.712
L37.6144 331.149
L82.423 331.149
L82.423 322.025
L86.8831 322.025
L86.8831 317.462
L91.0552 317.462
L91.0552 312.9
L119.905 312.9
L119.905 308.337
L122.441 308.337
L122.441 303.775
L133.811 303.775
L133.811 299.213
L141.657 299.213
L141.657 294.65
L168.481 294.65
L168.481 280.963
L175.414 280.963
L175.414 267.276
L180.672 267.276
L180.672 262.714
L184.592 262.714
L184.592 258.151
L185.535 258.151
L185.535 253.589
L190.058 253.589
L190.058 244.464
L195.098 244.464
L195.098 239.902
L197.477 239.902
L197.477 226.215
L198.252 226.215
L198.252 221.652
L199.017 221.652
L199.017 217.09
L199.773 217.09
L199.773 203.403
L200.52 203.403
L200.52 198.84
L201.259 198.84
L201.259 194.278
L204.831 194.278
L204.831 189.716
L205.523 189.716
L205.523 185.153
L206.207 185.153
L206.207 176.028
L206.884 176.028
L206.884 166.904
L207.554 166.904
L207.554 157.779
L208.217 157.779
L208.217 144.092
L208.873 144.092
L208.873 134.967
L209.523 134.967
L209.523 130.405
L210.166 130.405
L210.166 125.842
L212.058 125.842
L212.058 112.155
L212.677 112.155
L212.677 103.03
L213.29 103.03
L213.29 98.4681
L213.897 98.4681
L213.897 93.9057
L215.094 93.9057
L215.094 84.781
L220.223 84.781
L220.223 80.2186
L221.845 80.2186
L221.845 75.6562
L226.979 75.6562
L226.979 66.5315
L227.47 66.5315
L227.47 61.9691
L227.958 61.9691
L227.958 57.4067
L228.442 57.4067
L228.442 52.8443
L230.344 52.8443
L230.344 48.2819
L232.645 48.2819
L232.645 43.7196
L233.095 43.7196
L233.095 39.1572
L234.866 39.1572
L234.866 34.5948
L244.205 34.5948
L244.205 30.0324
L254.007 30.0324
L254.007 25.4701
L255.294 25.4701
L255.294 20.9077
L264.481 20.9077
L264.481 16.3453
L264.481 16.3453
L507.225 16.3453
L507.225 16.3453" style="fill:none;stroke:#000000;stroke-linecap:square;"/>
   </g>
   <g id="line2d_31"/>
   <g id="line2d_32">
    <path clip-path="url(#p0ab5e1e507)" d="
M205.523 358.524
L205.523 353.961
L208.873 353.961
L208.873 344.836
L212.677 344.836
L212.677 335.712
L213.29 335.712
L213.29 331.149
L217.993 331.149
L217.993 326.587
L218.558 326.587
L218.558 322.025
L219.117 322.025
L219.117 317.462
L220.223 317.462
L220.223 312.9
L222.905 312.9
L222.905 308.337
L223.429 308.337
L223.429 303.775
L225.984 303.775
L225.984 299.213
L227.47 299.213
L227.47 294.65
L229.4 294.65
L229.4 290.088
L229.874 290.088
L229.874 285.526
L230.811 285.526
L230.811 276.401
L231.734 276.401
L231.734 262.714
L232.191 262.714
L232.191 258.151
L233.987 258.151
L233.987 253.589
L234.428 253.589
L234.428 249.027
L234.866 249.027
L234.866 244.464
L235.302 244.464
L235.302 239.902
L235.734 239.902
L235.734 230.777
L239.501 230.777
L239.501 226.215
L241.107 226.215
L241.107 217.09
L243.444 217.09
L243.444 212.527
L244.205 212.527
L244.205 207.965
L244.581 207.965
L244.581 198.84
L244.956 198.84
L244.956 194.278
L245.699 194.278
L245.699 185.153
L247.16 185.153
L247.16 180.591
L247.52 180.591
L247.52 176.028
L249.292 176.028
L249.292 171.466
L249.64 171.466
L249.64 166.904
L251.016 166.904
L251.016 162.341
L252.695 162.341
L252.695 157.779
L253.025 157.779
L253.025 153.217
L253.682 153.217
L253.682 144.092
L256.555 144.092
L256.555 139.529
L257.485 139.529
L257.485 134.967
L257.793 134.967
L257.793 130.405
L259.902 130.405
L259.902 125.842
L260.493 125.842
L260.493 121.28
L263.366 121.28
L263.366 116.718
L270.037 116.718
L270.037 112.155
L272.767 112.155
L272.767 107.593
L273.009 107.593
L273.009 103.03
L274.209 103.03
L274.209 98.4681
L278.128 98.4681
L278.128 93.9057
L280.327 93.9057
L280.327 89.3433
L285.518 89.3433
L285.518 84.781
L306.177 84.781
L306.177 80.2186
L318.66 80.2186
L318.66 75.6562
L326.101 75.6562
L326.101 71.0938
L327.053 71.0938
L327.053 66.5315
L377.63 66.5315
L377.63 61.9691
L380.723 61.9691
L380.723 57.4067
L382.749 57.4067
L382.749 52.8443
L386.58 52.8443
L386.58 48.2819
L388.515 48.2819
L388.515 43.7196
L390.038 43.7196
L390.038 39.1572
L390.314 39.1572
L390.314 34.5948
L391.332 34.5948
L391.332 30.0324
L399.491 30.0324
L399.491 25.4701
L399.491 25.4701
L507.225 25.4701
L507.225 25.4701" style="fill:none;stroke:#00bfbf;stroke-linecap:square;"/>
   </g>
   <g id="line2d_33"/>
   <g id="line2d_34">
    <path clip-path="url(#p0ab5e1e507)" d="
M260.493 358.524
L260.493 353.961
L266.118 353.961
L266.118 349.399
L267.186 349.399
L267.186 344.836
L271.54 344.836
L271.54 340.274
L272.523 340.274
L272.523 335.712
L272.767 335.712
L272.767 322.025
L273.492 322.025
L273.492 317.462
L278.351 317.462
L278.351 312.9
L279.456 312.9
L279.456 308.337
L279.675 308.337
L279.675 303.775
L280.11 303.775
L280.11 299.213
L281.823 299.213
L281.823 294.65
L282.244 294.65
L282.244 290.088
L282.663 290.088
L282.663 285.526
L282.871 285.526
L282.871 280.963
L283.078 280.963
L283.078 276.401
L283.285 276.401
L283.285 271.838
L283.491 271.838
L283.491 267.276
L284.31 267.276
L284.31 262.714
L286.508 262.714
L286.508 258.151
L287.483 258.151
L287.483 253.589
L287.676 253.589
L287.676 249.027
L288.634 249.027
L288.634 244.464
L288.824 244.464
L288.824 239.902
L289.202 239.902
L289.202 235.339
L291.243 235.339
L291.243 226.215
L293.574 226.215
L293.574 221.652
L295.994 221.652
L295.994 217.09
L300.262 217.09
L300.262 212.527
L308.735 212.527
L308.735 207.965
L309.29 207.965
L309.29 203.403
L310.113 203.403
L310.113 198.84
L311.596 198.84
L311.596 194.278
L311.862 194.278
L311.862 189.716
L313.952 189.716
L313.952 185.153
L314.972 185.153
L314.972 180.591
L315.727 180.591
L315.727 176.028
L315.976 176.028
L315.976 171.466
L316.225 171.466
L316.225 166.904
L317.088 166.904
L317.088 162.341
L317.454 162.341
L317.454 157.779
L317.939 157.779
L317.939 153.217
L319.136 153.217
L319.136 148.654
L319.491 148.654
L319.491 144.092
L319.609 144.092
L319.609 139.529
L319.727 139.529
L319.727 134.967
L321.808 134.967
L321.808 130.405
L324.045 130.405
L324.155 121.28
L324.919 121.28
L324.919 116.718
L325.136 116.718
L325.136 107.593
L325.459 107.593
L325.459 103.03
L325.674 103.03
L325.674 98.4681
L329.725 98.4681
L329.725 93.9057
L330.227 93.9057
L330.227 89.3433
L335.777 89.3433
L335.777 84.781
L336.868 84.781
L336.868 80.2186
L387.575 80.2186
L387.575 75.6562
L391.098 75.6562
L391.098 71.0938
L397.827 71.0938
L397.827 66.5315
L398.422 66.5315
L398.422 61.9691
L399.56 61.9691
L399.56 57.4067
L401.446 57.4067
L401.446 52.8443
L403.086 52.8443
L403.086 48.2819
L403.086 48.2819
L507.225 48.2819
L507.225 48.2819" style="fill:none;stroke:#bf00bf;stroke-linecap:square;"/>
   </g>
   <g id="line2d_35"/>
   <g id="line2d_36">
    <path clip-path="url(#p0ab5e1e507)" d="
M340.463 358.524
L340.463 353.961
L342.395 353.961
L342.395 349.399
L345.624 349.399
L345.624 344.836
L347.486 344.836
L347.486 340.274
L348.096 340.274
L348.096 335.712
L349.148 335.712
L349.148 331.149
L351.13 331.149
L351.13 326.587
L352.984 326.587
L352.984 322.025
L354.098 322.025
L354.098 317.462
L354.374 317.462
L354.374 312.9
L354.511 312.9
L354.511 308.337
L357.331 308.337
L357.331 303.775
L357.724 303.775
L357.724 299.213
L358.889 299.213
L358.889 294.65
L359.4 294.65
L359.4 290.088
L359.464 290.088
L359.464 285.526
L359.654 285.526
L359.654 280.963
L359.907 280.963
L359.907 276.401
L361.957 276.401
L361.957 271.838
L362.384 271.838
L362.384 267.276
L362.627 267.276
L362.627 262.714
L364.004 262.714
L364.004 258.151
L365.004 258.151
L365.004 253.589
L367.745 253.589
L367.745 249.027
L368.247 249.027
L368.247 244.464
L371.861 244.464
L371.861 239.902
L373.519 239.902
L373.519 235.339
L373.672 235.339
L373.672 230.777
L377.342 230.777
L377.342 226.215
L379.382 226.215
L379.382 221.652
L380.997 221.652
L380.997 217.09
L381.541 217.09
L381.541 212.527
L384.066 212.527
L384.066 207.965
L385.527 207.965
L385.527 203.403
L386.203 203.403
L386.203 198.84
L386.83 198.84
L386.83 194.278
L388.959 194.278
L388.959 189.716
L391.332 189.716
L391.332 185.153
L392.524 185.153
L392.524 180.591
L395.139 180.591
L395.139 176.028
L397.44 176.028
L397.44 171.466
L398.456 171.466
L398.456 166.904
L398.907 166.904
L398.907 162.341
L400.476 162.341
L400.476 157.779
L400.577 157.779
L400.577 153.217
L401.612 153.217
L401.612 148.654
L401.711 148.654
L401.711 144.092
L401.744 144.092
L401.744 139.529
L401.744 139.529
L401.744 134.967
L401.744 134.967
L401.744 134.967
L507.225 134.967" style="fill:none;stroke:#ff0000;stroke-linecap:square;stroke-width:3.0;"/>
   </g>
   <g id="line2d_37"/>
   <g id="line2d_38">
    <path clip-path="url(#p0ab5e1e507)" d="
M403.183 358.524
L403.183 12.9235" style="fill:none;stroke:#000000;stroke-linecap:square;"/>
   </g>
   <g id="matplotlib.axis_1">
    <g id="xtick_1">
     <g id="line2d_39">
      <path clip-path="url(#p0ab5e1e507)" d="
M105.48 358.524
L105.48 12.9235" style="fill:none;stroke:#000000;stroke-dasharray:1.000000,3.000000;stroke-dashoffset:0.0;stroke-width:0.5;"/>
     </g>
     <g id="line2d_40">
      <defs>
       <path d="
M0 0
L0 -4" id="m93b0483c22" style="stroke:#000000;stroke-width:0.5;"/>
      </defs>
      <g>
       <use style="stroke:#000000;stroke-width:0.5;" x="105.480331599" xlink:href="#m93b0483c22" y="358.523530322"/>
      </g>
     </g>
     <g id="line2d_41">
      <defs>
       <path d="
M0 0
L0 4" id="m741efc42ff" style="stroke:#000000;stroke-width:0.5;"/>
      </defs>
      <g>
       <use style="stroke:#000000;stroke-width:0.5;" x="105.480331599" xlink:href="#m741efc42ff" y="12.9235303218"/>
      </g>
     </g>
     <g id="text_1">
      <!-- 0 -->
      <defs>
       <path d="
M4.15625 35.2969
Q4.15625 48 6.76562 55.7344
Q9.375 63.4844 14.5156 67.6719
Q19.6719 71.875 27.4844 71.875
Q33.25 71.875 37.5938 69.5469
Q41.9375 67.2344 44.7656 62.8594
Q47.6094 58.5 49.2188 52.2188
Q50.8281 45.9531 50.8281 35.2969
Q50.8281 22.7031 48.2344 14.9688
Q45.6562 7.23438 40.5 3
Q35.3594 -1.21875 27.4844 -1.21875
Q17.1406 -1.21875 11.2344 6.20312
Q4.15625 15.1406 4.15625 35.2969
M13.1875 35.2969
Q13.1875 17.6719 17.3125 11.8281
Q21.4375 6 27.4844 6
Q33.5469 6 37.6719 11.8594
Q41.7969 17.7188 41.7969 35.2969
Q41.7969 52.9844 37.6719 58.7812
Q33.5469 64.5938 27.3906 64.5938
Q21.3438 64.5938 17.7188 59.4688
Q13.1875 52.9375 13.1875 35.2969" id="ArialMT-30"/>
      </defs>
      <g transform="translate(100.813144099 376.839155322)scale(0.2 -0.2)">
       <use xlink:href="#ArialMT-30"/>
      </g>
     </g>
    </g>
    <g id="xtick_2">
     <g id="line2d_42">
      <path clip-path="url(#p0ab5e1e507)" d="
M254.331 358.524
L254.331 12.9235" style="fill:none;stroke:#000000;stroke-dasharray:1.000000,3.000000;stroke-dashoffset:0.0;stroke-width:0.5;"/>
     </g>
     <g id="line2d_43">
      <g>
       <use style="stroke:#000000;stroke-width:0.5;" x="254.33143693" xlink:href="#m93b0483c22" y="358.523530322"/>
      </g>
     </g>
     <g id="line2d_44">
      <g>
       <use style="stroke:#000000;stroke-width:0.5;" x="254.33143693" xlink:href="#m741efc42ff" y="12.9235303218"/>
      </g>
     </g>
     <g id="text_2">
      <!-- 1 -->
      <defs>
       <path d="
M37.25 0
L28.4688 0
L28.4688 56
Q25.2969 52.9844 20.1406 49.9531
Q14.9844 46.9219 10.8906 45.4062
L10.8906 53.9062
Q18.2656 57.375 23.7812 62.2969
Q29.2969 67.2344 31.5938 71.875
L37.25 71.875
z
" id="ArialMT-31"/>
      </defs>
      <g transform="translate(251.69549943 376.839155322)scale(0.2 -0.2)">
       <use xlink:href="#ArialMT-31"/>
      </g>
     </g>
    </g>
    <g id="xtick_3">
     <g id="line2d_45">
      <path clip-path="url(#p0ab5e1e507)" d="
M403.183 358.524
L403.183 12.9235" style="fill:none;stroke:#000000;stroke-dasharray:1.000000,3.000000;stroke-dashoffset:0.0;stroke-width:0.5;"/>
     </g>
     <g id="line2d_46">
      <g>
       <use style="stroke:#000000;stroke-width:0.5;" x="403.182542261" xlink:href="#m93b0483c22" y="358.523530322"/>
      </g>
     </g>
     <g id="line2d_47">
      <g>
       <use style="stroke:#000000;stroke-width:0.5;" x="403.182542261" xlink:href="#m741efc42ff" y="12.9235303218"/>
      </g>
     </g>
     <g id="text_3">
      <!-- 2 -->
      <defs>
       <path d="
M50.3438 8.45312
L50.3438 0
L3.03125 0
Q2.9375 3.17188 4.04688 6.10938
Q5.85938 10.9375 9.82812 15.625
Q13.8125 20.3125 21.3438 26.4688
Q33.0156 36.0312 37.1094 41.625
Q41.2188 47.2188 41.2188 52.2031
Q41.2188 57.4219 37.4688 61
Q33.7344 64.5938 27.7344 64.5938
Q21.3906 64.5938 17.5781 60.7812
Q13.7656 56.9844 13.7188 50.25
L4.6875 51.1719
Q5.60938 61.2812 11.6562 66.5781
Q17.7188 71.875 27.9375 71.875
Q38.2344 71.875 44.2344 66.1562
Q50.25 60.4531 50.25 52
Q50.25 47.7031 48.4844 43.5469
Q46.7344 39.4062 42.6562 34.8125
Q38.5781 30.2188 29.1094 22.2188
Q21.1875 15.5781 18.9375 13.2031
Q16.7031 10.8438 15.2344 8.45312
z
" id="ArialMT-32"/>
      </defs>
      <g transform="translate(398.441917261 376.839155322)scale(0.2 -0.2)">
       <use xlink:href="#ArialMT-32"/>
      </g>
     </g>
    </g>
    <g id="xtick_4"/>
    <g id="xtick_5">
     <g id="line2d_48">
      <defs>
       <path d="
M0 0
L0 -2" id="m177f7580d0" style="stroke:#000000;stroke-width:0.5;"/>
      </defs>
      <g>
       <use style="stroke:#000000;stroke-width:0.5;" x="72.4579000026" xlink:href="#m177f7580d0" y="358.523530322"/>
      </g>
     </g>
     <g id="line2d_49">
      <defs>
       <path d="
M0 0
L0 2" id="m5284c7e2a0" style="stroke:#000000;stroke-width:0.5;"/>
      </defs>
      <g>
       <use style="stroke:#000000;stroke-width:0.5;" x="72.4579000026" xlink:href="#m5284c7e2a0" y="12.9235303218"/>
      </g>
     </g>
    </g>
    <g id="xtick_6">
     <g id="line2d_50">
      <g>
       <use style="stroke:#000000;stroke-width:0.5;" x="82.4230036375" xlink:href="#m177f7580d0" y="358.523530322"/>
      </g>
     </g>
     <g id="line2d_51">
      <g>
       <use style="stroke:#000000;stroke-width:0.5;" x="82.4230036375" xlink:href="#m5284c7e2a0" y="12.9235303218"/>
      </g>
     </g>
    </g>
    <g id="xtick_7">
     <g id="line2d_52">
      <g>
       <use style="stroke:#000000;stroke-width:0.5;" x="91.0551690454" xlink:href="#m177f7580d0" y="358.523530322"/>
      </g>
     </g>
     <g id="line2d_53">
      <g>
       <use style="stroke:#000000;stroke-width:0.5;" x="91.0551690454" xlink:href="#m5284c7e2a0" y="12.9235303218"/>
      </g>
     </g>
    </g>
    <g id="xtick_8">
     <g id="line2d_54">
      <g>
       <use style="stroke:#000000;stroke-width:0.5;" x="98.6692785522" xlink:href="#m177f7580d0" y="358.523530322"/>
      </g>
     </g>
     <g id="line2d_55">
      <g>
       <use style="stroke:#000000;stroke-width:0.5;" x="98.6692785522" xlink:href="#m5284c7e2a0" y="12.9235303218"/>
      </g>
     </g>
    </g>
    <g id="xtick_9">
     <g id="line2d_56">
      <g>
       <use style="stroke:#000000;stroke-width:0.5;" x="150.288979192" xlink:href="#m177f7580d0" y="358.523530322"/>
      </g>
     </g>
     <g id="line2d_57">
      <g>
       <use style="stroke:#000000;stroke-width:0.5;" x="150.288979192" xlink:href="#m5284c7e2a0" y="12.9235303218"/>
      </g>
     </g>
    </g>
    <g id="xtick_10">
     <g id="line2d_58">
      <g>
       <use style="stroke:#000000;stroke-width:0.5;" x="176.500357741" xlink:href="#m177f7580d0" y="358.523530322"/>
      </g>
     </g>
     <g id="line2d_59">
      <g>
       <use style="stroke:#000000;stroke-width:0.5;" x="176.500357741" xlink:href="#m5284c7e2a0" y="12.9235303218"/>
      </g>
     </g>
    </g>
    <g id="xtick_11">
     <g id="line2d_60">
      <g>
       <use style="stroke:#000000;stroke-width:0.5;" x="195.097626784" xlink:href="#m177f7580d0" y="358.523530322"/>
      </g>
     </g>
     <g id="line2d_61">
      <g>
       <use style="stroke:#000000;stroke-width:0.5;" x="195.097626784" xlink:href="#m5284c7e2a0" y="12.9235303218"/>
      </g>
     </g>
    </g>
    <g id="xtick_12">
     <g id="line2d_62">
      <g>
       <use style="stroke:#000000;stroke-width:0.5;" x="209.522789338" xlink:href="#m177f7580d0" y="358.523530322"/>
      </g>
     </g>
     <g id="line2d_63">
      <g>
       <use style="stroke:#000000;stroke-width:0.5;" x="209.522789338" xlink:href="#m5284c7e2a0" y="12.9235303218"/>
      </g>
     </g>
    </g>
    <g id="xtick_13">
     <g id="line2d_64">
      <g>
       <use style="stroke:#000000;stroke-width:0.5;" x="221.309005334" xlink:href="#m177f7580d0" y="358.523530322"/>
      </g>
     </g>
     <g id="line2d_65">
      <g>
       <use style="stroke:#000000;stroke-width:0.5;" x="221.309005334" xlink:href="#m5284c7e2a0" y="12.9235303218"/>
      </g>
     </g>
    </g>
    <g id="xtick_14">
     <g id="line2d_66">
      <g>
       <use style="stroke:#000000;stroke-width:0.5;" x="231.274108969" xlink:href="#m177f7580d0" y="358.523530322"/>
      </g>
     </g>
     <g id="line2d_67">
      <g>
       <use style="stroke:#000000;stroke-width:0.5;" x="231.274108969" xlink:href="#m5284c7e2a0" y="12.9235303218"/>
      </g>
     </g>
    </g>
    <g id="xtick_15">
     <g id="line2d_68">
      <g>
       <use style="stroke:#000000;stroke-width:0.5;" x="239.906274376" xlink:href="#m177f7580d0" y="358.523530322"/>
      </g>
     </g>
     <g id="line2d_69">
      <g>
       <use style="stroke:#000000;stroke-width:0.5;" x="239.906274376" xlink:href="#m5284c7e2a0" y="12.9235303218"/>
      </g>
     </g>
    </g>
    <g id="xtick_16">
     <g id="line2d_70">
      <g>
       <use style="stroke:#000000;stroke-width:0.5;" x="247.520383883" xlink:href="#m177f7580d0" y="358.523530322"/>
      </g>
     </g>
     <g id="line2d_71">
      <g>
       <use style="stroke:#000000;stroke-width:0.5;" x="247.520383883" xlink:href="#m5284c7e2a0" y="12.9235303218"/>
      </g>
     </g>
    </g>
    <g id="xtick_17">
     <g id="line2d_72">
      <g>
       <use style="stroke:#000000;stroke-width:0.5;" x="299.140084523" xlink:href="#m177f7580d0" y="358.523530322"/>
      </g>
     </g>
     <g id="line2d_73">
      <g>
       <use style="stroke:#000000;stroke-width:0.5;" x="299.140084523" xlink:href="#m5284c7e2a0" y="12.9235303218"/>
      </g>
     </g>
    </g>
    <g id="xtick_18">
     <g id="line2d_74">
      <g>
       <use style="stroke:#000000;stroke-width:0.5;" x="325.351463072" xlink:href="#m177f7580d0" y="358.523530322"/>
      </g>
     </g>
     <g id="line2d_75">
      <g>
       <use style="stroke:#000000;stroke-width:0.5;" x="325.351463072" xlink:href="#m5284c7e2a0" y="12.9235303218"/>
      </g>
     </g>
    </g>
    <g id="xtick_19">
     <g id="line2d_76">
      <g>
       <use style="stroke:#000000;stroke-width:0.5;" x="343.948732115" xlink:href="#m177f7580d0" y="358.523530322"/>
      </g>
     </g>
     <g id="line2d_77">
      <g>
       <use style="stroke:#000000;stroke-width:0.5;" x="343.948732115" xlink:href="#m5284c7e2a0" y="12.9235303218"/>
      </g>
     </g>
    </g>
    <g id="xtick_20">
     <g id="line2d_78">
      <g>
       <use style="stroke:#000000;stroke-width:0.5;" x="358.373894669" xlink:href="#m177f7580d0" y="358.523530322"/>
      </g>
     </g>
     <g id="line2d_79">
      <g>
       <use style="stroke:#000000;stroke-width:0.5;" x="358.373894669" xlink:href="#m5284c7e2a0" y="12.9235303218"/>
      </g>
     </g>
    </g>
    <g id="xtick_21">
     <g id="line2d_80">
      <g>
       <use style="stroke:#000000;stroke-width:0.5;" x="370.160110665" xlink:href="#m177f7580d0" y="358.523530322"/>
      </g>
     </g>
     <g id="line2d_81">
      <g>
       <use style="stroke:#000000;stroke-width:0.5;" x="370.160110665" xlink:href="#m5284c7e2a0" y="12.9235303218"/>
      </g>
     </g>
    </g>
    <g id="xtick_22">
     <g id="line2d_82">
      <g>
       <use style="stroke:#000000;stroke-width:0.5;" x="380.1252143" xlink:href="#m177f7580d0" y="358.523530322"/>
      </g>
     </g>
     <g id="line2d_83">
      <g>
       <use style="stroke:#000000;stroke-width:0.5;" x="380.1252143" xlink:href="#m5284c7e2a0" y="12.9235303218"/>
      </g>
     </g>
    </g>
    <g id="xtick_23">
     <g id="line2d_84">
      <g>
       <use style="stroke:#000000;stroke-width:0.5;" x="388.757379707" xlink:href="#m177f7580d0" y="358.523530322"/>
      </g>
     </g>
     <g id="line2d_85">
      <g>
       <use style="stroke:#000000;stroke-width:0.5;" x="388.757379707" xlink:href="#m5284c7e2a0" y="12.9235303218"/>
      </g>
     </g>
    </g>
    <g id="xtick_24">
     <g id="line2d_86">
      <g>
       <use style="stroke:#000000;stroke-width:0.5;" x="396.371489214" xlink:href="#m177f7580d0" y="358.523530322"/>
      </g>
     </g>
     <g id="line2d_87">
      <g>
       <use style="stroke:#000000;stroke-width:0.5;" x="396.371489214" xlink:href="#m5284c7e2a0" y="12.9235303218"/>
      </g>
     </g>
    </g>
    <g id="xtick_25">
     <g id="line2d_88">
      <g>
       <use style="stroke:#000000;stroke-width:0.5;" x="447.991189854" xlink:href="#m177f7580d0" y="358.523530322"/>
      </g>
     </g>
     <g id="line2d_89">
      <g>
       <use style="stroke:#000000;stroke-width:0.5;" x="447.991189854" xlink:href="#m5284c7e2a0" y="12.9235303218"/>
      </g>
     </g>
    </g>
    <g id="xtick_26">
     <g id="line2d_90">
      <g>
       <use style="stroke:#000000;stroke-width:0.5;" x="474.202568403" xlink:href="#m177f7580d0" y="358.523530322"/>
      </g>
     </g>
     <g id="line2d_91">
      <g>
       <use style="stroke:#000000;stroke-width:0.5;" x="474.202568403" xlink:href="#m5284c7e2a0" y="12.9235303218"/>
      </g>
     </g>
    </g>
    <g id="xtick_27">
     <g id="line2d_92">
      <g>
       <use style="stroke:#000000;stroke-width:0.5;" x="492.799837446" xlink:href="#m177f7580d0" y="358.523530322"/>
      </g>
     </g>
     <g id="line2d_93">
      <g>
       <use style="stroke:#000000;stroke-width:0.5;" x="492.799837446" xlink:href="#m5284c7e2a0" y="12.9235303218"/>
      </g>
     </g>
    </g>
    <g id="xtick_28">
     <g id="line2d_94">
      <g>
       <use style="stroke:#000000;stroke-width:0.5;" x="507.225" xlink:href="#m177f7580d0" y="358.523530322"/>
      </g>
     </g>
     <g id="line2d_95">
      <g>
       <use style="stroke:#000000;stroke-width:0.5;" x="507.225" xlink:href="#m5284c7e2a0" y="12.9235303218"/>
      </g>
     </g>
    </g>
    <g id="text_4">
     <!-- log10 of FEvals / DIM -->
     <defs>
      <path d="
M9.32812 0
L9.32812 71.5781
L18.7969 71.5781
L18.7969 0
z
" id="ArialMT-49"/>
      <path d="
M40.4375 6.39062
Q35.5469 2.25 31.0312 0.53125
Q26.5156 -1.17188 21.3438 -1.17188
Q12.7969 -1.17188 8.20312 3
Q3.60938 7.17188 3.60938 13.6719
Q3.60938 17.4844 5.34375 20.625
Q7.07812 23.7812 9.89062 25.6875
Q12.7031 27.5938 16.2188 28.5625
Q18.7969 29.25 24.0312 29.8906
Q34.6719 31.1562 39.7031 32.9062
Q39.75 34.7188 39.75 35.2031
Q39.75 40.5781 37.25 42.7812
Q33.8906 45.75 27.25 45.75
Q21.0469 45.75 18.0938 43.5781
Q15.1406 41.4062 13.7188 35.8906
L5.125 37.0625
Q6.29688 42.5781 8.98438 45.9688
Q11.6719 49.3594 16.75 51.1875
Q21.8281 53.0312 28.5156 53.0312
Q35.1562 53.0312 39.2969 51.4688
Q43.4531 49.9062 45.4062 47.5312
Q47.3594 45.1719 48.1406 41.5469
Q48.5781 39.3125 48.5781 33.4531
L48.5781 21.7344
Q48.5781 9.46875 49.1406 6.21875
Q49.7031 2.98438 51.375 0
L42.1875 0
Q40.8281 2.73438 40.4375 6.39062
M39.7031 26.0312
Q34.9062 24.0781 25.3438 22.7031
Q19.9219 21.9219 17.6719 20.9375
Q15.4375 19.9688 14.2031 18.0938
Q12.9844 16.2188 12.9844 13.9219
Q12.9844 10.4062 15.6406 8.0625
Q18.3125 5.71875 23.4375 5.71875
Q28.5156 5.71875 32.4688 7.9375
Q36.4219 10.1562 38.2812 14.0156
Q39.7031 17 39.7031 22.7969
z
" id="ArialMT-61"/>
      <path d="
M4.98438 -4.29688
L13.5312 -5.5625
Q14.0625 -9.51562 16.5 -11.3281
Q19.7812 -13.7656 25.4375 -13.7656
Q31.5469 -13.7656 34.8594 -11.3281
Q38.1875 -8.89062 39.3594 -4.5
Q40.0469 -1.8125 39.9844 6.78125
Q34.2344 0 25.6406 0
Q14.9375 0 9.07812 7.71875
Q3.21875 15.4375 3.21875 26.2188
Q3.21875 33.6406 5.90625 39.9062
Q8.59375 46.1875 13.6875 49.6094
Q18.7969 53.0312 25.6875 53.0312
Q34.8594 53.0312 40.8281 45.6094
L40.8281 51.8594
L48.9219 51.8594
L48.9219 7.03125
Q48.9219 -5.07812 46.4531 -10.125
Q44 -15.1875 38.6406 -18.1094
Q33.2969 -21.0469 25.4844 -21.0469
Q16.2188 -21.0469 10.5 -16.875
Q4.78125 -12.7031 4.98438 -4.29688
M12.25 26.8594
Q12.25 16.6562 16.2969 11.9688
Q20.3594 7.28125 26.4688 7.28125
Q32.5156 7.28125 36.6094 11.9375
Q40.7188 16.6094 40.7188 26.5625
Q40.7188 36.0781 36.5 40.9062
Q32.2812 45.75 26.3125 45.75
Q20.4531 45.75 16.3438 40.9844
Q12.25 36.2344 12.25 26.8594" id="ArialMT-67"/>
      <path d="
M8.6875 0
L8.6875 45.0156
L0.921875 45.0156
L0.921875 51.8594
L8.6875 51.8594
L8.6875 57.375
Q8.6875 62.5938 9.625 65.1406
Q10.8906 68.5625 14.0781 70.6719
Q17.2812 72.7969 23.0469 72.7969
Q26.7656 72.7969 31.25 71.9219
L29.9375 64.2656
Q27.2031 64.75 24.75 64.75
Q20.75 64.75 19.0938 63.0312
Q17.4375 61.3281 17.4375 56.6406
L17.4375 51.8594
L27.5469 51.8594
L27.5469 45.0156
L17.4375 45.0156
L17.4375 0
z
" id="ArialMT-66"/>
      <path d="
M0 -1.21875
L20.75 72.7969
L27.7812 72.7969
L7.07812 -1.21875
z
" id="ArialMT-2f"/>
      <path d="
M21 0
L1.26562 51.8594
L10.5469 51.8594
L21.6875 20.7969
Q23.4844 15.7656 25 10.3594
Q26.1719 14.4531 28.2656 20.2188
L39.7969 51.8594
L48.8281 51.8594
L29.2031 0
z
" id="ArialMT-76"/>
      <path d="
M7.90625 0
L7.90625 71.5781
L59.6719 71.5781
L59.6719 63.1406
L17.3906 63.1406
L17.3906 41.2188
L56.9844 41.2188
L56.9844 32.8125
L17.3906 32.8125
L17.3906 8.45312
L61.3281 8.45312
L61.3281 0
z
" id="ArialMT-45"/>
      <path d="
M7.71875 0
L7.71875 71.5781
L32.375 71.5781
Q40.7188 71.5781 45.125 70.5625
Q51.2656 69.1406 55.6094 65.4375
Q61.2812 60.6406 64.0781 53.1875
Q66.8906 45.75 66.8906 36.1875
Q66.8906 28.0312 64.9844 21.7344
Q63.0938 15.4375 60.1094 11.2969
Q57.125 7.17188 53.5781 4.79688
Q50.0469 2.4375 45.0469 1.21875
Q40.0469 0 33.5469 0
z

M17.1875 8.45312
L32.4688 8.45312
Q39.5469 8.45312 43.5781 9.76562
Q47.6094 11.0781 50 13.4844
Q53.375 16.8438 55.25 22.5312
Q57.125 28.2188 57.125 36.3281
Q57.125 47.5625 53.4375 53.5938
Q49.75 59.625 44.4844 61.6719
Q40.6719 63.1406 32.2344 63.1406
L17.1875 63.1406
z
" id="ArialMT-44"/>
      <path d="
M8.20312 0
L8.20312 71.5781
L56.5 71.5781
L56.5 63.1406
L17.6719 63.1406
L17.6719 40.9688
L51.2656 40.9688
L51.2656 32.5156
L17.6719 32.5156
L17.6719 0
z
" id="ArialMT-46"/>
      <path d="
M6.39062 0
L6.39062 71.5781
L15.1875 71.5781
L15.1875 0
z
" id="ArialMT-6c"/>
      <path d="
M3.32812 25.9219
Q3.32812 40.3281 11.3281 47.2656
Q18.0156 53.0312 27.6406 53.0312
Q38.3281 53.0312 45.1094 46.0156
Q51.9062 39.0156 51.9062 26.6562
Q51.9062 16.6562 48.9062 10.9062
Q45.9062 5.17188 40.1562 2
Q34.4219 -1.17188 27.6406 -1.17188
Q16.75 -1.17188 10.0312 5.8125
Q3.32812 12.7969 3.32812 25.9219
M12.3594 25.9219
Q12.3594 15.9688 16.7031 11.0156
Q21.0469 6.0625 27.6406 6.0625
Q34.1875 6.0625 38.5312 11.0312
Q42.875 16.0156 42.875 26.2188
Q42.875 35.8438 38.5 40.7969
Q34.125 45.75 27.6406 45.75
Q21.0469 45.75 16.7031 40.8125
Q12.3594 35.8906 12.3594 25.9219" id="ArialMT-6f"/>
      <path d="
M3.07812 15.4844
L11.7656 16.8438
Q12.5 11.625 15.8438 8.84375
Q19.1875 6.0625 25.2031 6.0625
Q31.25 6.0625 34.1719 8.51562
Q37.1094 10.9844 37.1094 14.3125
Q37.1094 17.2812 34.5156 19
Q32.7188 20.1719 25.5312 21.9688
Q15.875 24.4219 12.1406 26.2031
Q8.40625 27.9844 6.46875 31.125
Q4.54688 34.2812 4.54688 38.0938
Q4.54688 41.5469 6.125 44.5
Q7.71875 47.4688 10.4531 49.4219
Q12.5 50.9219 16.0312 51.9688
Q19.5781 53.0312 23.6406 53.0312
Q29.7344 53.0312 34.3438 51.2656
Q38.9688 49.5156 41.1562 46.5
Q43.3594 43.5 44.1875 38.4844
L35.5938 37.3125
Q35.0156 41.3125 32.2031 43.5469
Q29.3906 45.7969 24.2656 45.7969
Q18.2188 45.7969 15.625 43.7969
Q13.0312 41.7969 13.0312 39.1094
Q13.0312 37.4062 14.1094 36.0312
Q15.1875 34.625 17.4844 33.6875
Q18.7969 33.2031 25.25 31.4531
Q34.5781 28.9531 38.25 27.3594
Q41.9375 25.7812 44.0312 22.75
Q46.1406 19.7344 46.1406 15.2344
Q46.1406 10.8438 43.5781 6.95312
Q41.0156 3.07812 36.1719 0.953125
Q31.3438 -1.17188 25.25 -1.17188
Q15.1406 -1.17188 9.84375 3.03125
Q4.54688 7.23438 3.07812 15.4844" id="ArialMT-73"/>
      <path d="
M7.42188 0
L7.42188 71.5781
L21.6875 71.5781
L38.625 20.9062
Q40.9688 13.8125 42.0469 10.2969
Q43.2656 14.2031 45.8438 21.7812
L62.9844 71.5781
L75.7344 71.5781
L75.7344 0
L66.6094 0
L66.6094 59.9062
L45.7969 0
L37.25 0
L16.5469 60.9375
L16.5469 0
z
" id="ArialMT-4d"/>
      <path id="ArialMT-20"/>
     </defs>
     <g transform="translate(189.1953125 400.373530322)scale(0.2 -0.2)">
      <use xlink:href="#ArialMT-6c"/>
      <use x="22.216796875" xlink:href="#ArialMT-6f"/>
      <use x="77.83203125" xlink:href="#ArialMT-67"/>
      <use x="133.447265625" xlink:href="#ArialMT-31"/>
      <use x="189.0625" xlink:href="#ArialMT-30"/>
      <use x="244.677734375" xlink:href="#ArialMT-20"/>
      <use x="272.4609375" xlink:href="#ArialMT-6f"/>
      <use x="328.076171875" xlink:href="#ArialMT-66"/>
      <use x="355.859375" xlink:href="#ArialMT-20"/>
      <use x="383.642578125" xlink:href="#ArialMT-46"/>
      <use x="444.7265625" xlink:href="#ArialMT-45"/>
      <use x="511.42578125" xlink:href="#ArialMT-76"/>
      <use x="561.42578125" xlink:href="#ArialMT-61"/>
      <use x="617.041015625" xlink:href="#ArialMT-6c"/>
      <use x="639.2578125" xlink:href="#ArialMT-73"/>
      <use x="689.2578125" xlink:href="#ArialMT-20"/>
      <use x="717.041015625" xlink:href="#ArialMT-2f"/>
      <use x="744.82421875" xlink:href="#ArialMT-20"/>
      <use x="772.607421875" xlink:href="#ArialMT-44"/>
      <use x="844.82421875" xlink:href="#ArialMT-49"/>
      <use x="872.607421875" xlink:href="#ArialMT-4d"/>
     </g>
    </g>
   </g>
   <g id="matplotlib.axis_2">
    <g id="ytick_1">
     <g id="line2d_96">
      <path clip-path="url(#p0ab5e1e507)" d="
M60.825 358.524
L507.225 358.524" style="fill:none;stroke:#000000;stroke-dasharray:1.000000,3.000000;stroke-dashoffset:0.0;stroke-width:0.5;"/>
     </g>
     <g id="line2d_97">
      <defs>
       <path d="
M0 0
L4 0" id="m728421d6d4" style="stroke:#000000;stroke-width:0.5;"/>
      </defs>
      <g>
       <use style="stroke:#000000;stroke-width:0.5;" x="60.825" xlink:href="#m728421d6d4" y="358.523530322"/>
      </g>
     </g>
     <g id="line2d_98">
      <defs>
       <path d="
M0 0
L-4 0" id="mcb0005524f" style="stroke:#000000;stroke-width:0.5;"/>
      </defs>
      <g>
       <use style="stroke:#000000;stroke-width:0.5;" x="507.225" xlink:href="#mcb0005524f" y="358.523530322"/>
      </g>
     </g>
     <g id="text_5">
      <!-- 0.0 -->
      <defs>
       <path d="
M9.07812 0
L9.07812 10.0156
L19.0938 10.0156
L19.0938 0
z
" id="ArialMT-2e"/>
      </defs>
      <g transform="translate(30.8125 363.693842822)scale(0.2 -0.2)">
       <use xlink:href="#ArialMT-30"/>
       <use x="55.615234375" xlink:href="#ArialMT-2e"/>
       <use x="83.3984375" xlink:href="#ArialMT-30"/>
      </g>
     </g>
    </g>
    <g id="ytick_2">
     <g id="line2d_99">
      <path clip-path="url(#p0ab5e1e507)" d="
M60.825 290.088
L507.225 290.088" style="fill:none;stroke:#000000;stroke-dasharray:1.000000,3.000000;stroke-dashoffset:0.0;stroke-width:0.5;"/>
     </g>
     <g id="line2d_100">
      <g>
       <use style="stroke:#000000;stroke-width:0.5;" x="60.825" xlink:href="#m728421d6d4" y="290.087886757"/>
      </g>
     </g>
     <g id="line2d_101">
      <g>
       <use style="stroke:#000000;stroke-width:0.5;" x="507.225" xlink:href="#mcb0005524f" y="290.087886757"/>
      </g>
     </g>
     <g id="text_6">
      <!-- 0.2 -->
      <g transform="translate(30.909375 295.258199257)scale(0.2 -0.2)">
       <use xlink:href="#ArialMT-30"/>
       <use x="55.615234375" xlink:href="#ArialMT-2e"/>
       <use x="83.3984375" xlink:href="#ArialMT-32"/>
      </g>
     </g>
    </g>
    <g id="ytick_3">
     <g id="line2d_102">
      <path clip-path="url(#p0ab5e1e507)" d="
M60.825 221.652
L507.225 221.652" style="fill:none;stroke:#000000;stroke-dasharray:1.000000,3.000000;stroke-dashoffset:0.0;stroke-width:0.5;"/>
     </g>
     <g id="line2d_103">
      <g>
       <use style="stroke:#000000;stroke-width:0.5;" x="60.825" xlink:href="#m728421d6d4" y="221.652243193"/>
      </g>
     </g>
     <g id="line2d_104">
      <g>
       <use style="stroke:#000000;stroke-width:0.5;" x="507.225" xlink:href="#mcb0005524f" y="221.652243193"/>
      </g>
     </g>
     <g id="text_7">
      <!-- 0.4 -->
      <defs>
       <path d="
M32.3281 0
L32.3281 17.1406
L1.26562 17.1406
L1.26562 25.2031
L33.9375 71.5781
L41.1094 71.5781
L41.1094 25.2031
L50.7812 25.2031
L50.7812 17.1406
L41.1094 17.1406
L41.1094 0
z

M32.3281 25.2031
L32.3281 57.4688
L9.90625 25.2031
z
" id="ArialMT-34"/>
      </defs>
      <g transform="translate(30.821875 226.822555693)scale(0.2 -0.2)">
       <use xlink:href="#ArialMT-30"/>
       <use x="55.615234375" xlink:href="#ArialMT-2e"/>
       <use x="83.3984375" xlink:href="#ArialMT-34"/>
      </g>
     </g>
    </g>
    <g id="ytick_4">
     <g id="line2d_105">
      <path clip-path="url(#p0ab5e1e507)" d="
M60.825 153.217
L507.225 153.217" style="fill:none;stroke:#000000;stroke-dasharray:1.000000,3.000000;stroke-dashoffset:0.0;stroke-width:0.5;"/>
     </g>
     <g id="line2d_106">
      <g>
       <use style="stroke:#000000;stroke-width:0.5;" x="60.825" xlink:href="#m728421d6d4" y="153.216599629"/>
      </g>
     </g>
     <g id="line2d_107">
      <g>
       <use style="stroke:#000000;stroke-width:0.5;" x="507.225" xlink:href="#mcb0005524f" y="153.216599629"/>
      </g>
     </g>
     <g id="text_8">
      <!-- 0.6 -->
      <defs>
       <path d="
M49.75 54.0469
L41.0156 53.375
Q39.8438 58.5469 37.7031 60.8906
Q34.125 64.6562 28.9062 64.6562
Q24.7031 64.6562 21.5312 62.3125
Q17.3906 59.2812 14.9844 53.4688
Q12.5938 47.6562 12.5 36.9219
Q15.6719 41.75 20.2656 44.0938
Q24.8594 46.4375 29.8906 46.4375
Q38.6719 46.4375 44.8438 39.9688
Q51.0312 33.5 51.0312 23.25
Q51.0312 16.5 48.125 10.7188
Q45.2188 4.9375 40.1406 1.85938
Q35.0625 -1.21875 28.6094 -1.21875
Q17.625 -1.21875 10.6875 6.85938
Q3.76562 14.9375 3.76562 33.5
Q3.76562 54.25 11.4219 63.6719
Q18.1094 71.875 29.4375 71.875
Q37.8906 71.875 43.2812 67.1406
Q48.6875 62.4062 49.75 54.0469
M13.875 23.1875
Q13.875 18.6562 15.7969 14.5
Q17.7188 10.3594 21.1875 8.17188
Q24.6562 6 28.4688 6
Q34.0312 6 38.0312 10.4844
Q42.0469 14.9844 42.0469 22.7031
Q42.0469 30.125 38.0781 34.3906
Q34.125 38.6719 28.125 38.6719
Q22.1719 38.6719 18.0156 34.3906
Q13.875 30.125 13.875 23.1875" id="ArialMT-36"/>
      </defs>
      <g transform="translate(30.771875 158.386912129)scale(0.2 -0.2)">
       <use xlink:href="#ArialMT-30"/>
       <use x="55.615234375" xlink:href="#ArialMT-2e"/>
       <use x="83.3984375" xlink:href="#ArialMT-36"/>
      </g>
     </g>
    </g>
    <g id="ytick_5">
     <g id="line2d_108">
      <path clip-path="url(#p0ab5e1e507)" d="
M60.825 84.781
L507.225 84.781" style="fill:none;stroke:#000000;stroke-dasharray:1.000000,3.000000;stroke-dashoffset:0.0;stroke-width:0.5;"/>
     </g>
     <g id="line2d_109">
      <g>
       <use style="stroke:#000000;stroke-width:0.5;" x="60.825" xlink:href="#m728421d6d4" y="84.7809560644"/>
      </g>
     </g>
     <g id="line2d_110">
      <g>
       <use style="stroke:#000000;stroke-width:0.5;" x="507.225" xlink:href="#mcb0005524f" y="84.7809560644"/>
      </g>
     </g>
     <g id="text_9">
      <!-- 0.8 -->
      <defs>
       <path d="
M17.6719 38.8125
Q12.2031 40.8281 9.5625 44.5312
Q6.9375 48.25 6.9375 53.4219
Q6.9375 61.2344 12.5469 66.5469
Q18.1719 71.875 27.4844 71.875
Q36.8594 71.875 42.5781 66.4219
Q48.2969 60.9844 48.2969 53.1719
Q48.2969 48.1875 45.6719 44.5
Q43.0625 40.8281 37.75 38.8125
Q44.3438 36.6719 47.7812 31.875
Q51.2188 27.0938 51.2188 20.4531
Q51.2188 11.2812 44.7188 5.03125
Q38.2344 -1.21875 27.6406 -1.21875
Q17.0469 -1.21875 10.5469 5.04688
Q4.04688 11.3281 4.04688 20.7031
Q4.04688 27.6875 7.59375 32.3906
Q11.1406 37.1094 17.6719 38.8125
M15.9219 53.7188
Q15.9219 48.6406 19.1875 45.4062
Q22.4688 42.1875 27.6875 42.1875
Q32.7656 42.1875 36.0156 45.375
Q39.2656 48.5781 39.2656 53.2188
Q39.2656 58.0625 35.9062 61.3594
Q32.5625 64.6562 27.5938 64.6562
Q22.5625 64.6562 19.2344 61.4219
Q15.9219 58.2031 15.9219 53.7188
M13.0938 20.6562
Q13.0938 16.8906 14.875 13.375
Q16.6562 9.85938 20.1719 7.92188
Q23.6875 6 27.7344 6
Q34.0312 6 38.125 10.0469
Q42.2344 14.1094 42.2344 20.3594
Q42.2344 26.7031 38.0156 30.8594
Q33.7969 35.0156 27.4375 35.0156
Q21.2344 35.0156 17.1562 30.9062
Q13.0938 26.8125 13.0938 20.6562" id="ArialMT-38"/>
      </defs>
      <g transform="translate(30.734375 89.9512685644)scale(0.2 -0.2)">
       <use xlink:href="#ArialMT-30"/>
       <use x="55.615234375" xlink:href="#ArialMT-2e"/>
       <use x="83.3984375" xlink:href="#ArialMT-38"/>
      </g>
     </g>
    </g>
    <g id="ytick_6">
     <g id="line2d_111">
      <path clip-path="url(#p0ab5e1e507)" d="
M60.825 16.3453
L507.225 16.3453" style="fill:none;stroke:#000000;stroke-dasharray:1.000000,3.000000;stroke-dashoffset:0.0;stroke-width:0.5;"/>
     </g>
     <g id="line2d_112">
      <g>
       <use style="stroke:#000000;stroke-width:0.5;" x="60.825" xlink:href="#m728421d6d4" y="16.3453125"/>
      </g>
     </g>
     <g id="line2d_113">
      <g>
       <use style="stroke:#000000;stroke-width:0.5;" x="507.225" xlink:href="#mcb0005524f" y="16.3453125"/>
      </g>
     </g>
     <g id="text_10">
      <!-- 1.0 -->
      <g transform="translate(32.159375 21.515625)scale(0.2 -0.2)">
       <use xlink:href="#ArialMT-31"/>
       <use x="55.615234375" xlink:href="#ArialMT-2e"/>
       <use x="83.3984375" xlink:href="#ArialMT-30"/>
      </g>
     </g>
    </g>
    <g id="text_11">
     <!-- proportion of trials -->
     <defs>
      <path d="
M25.7812 7.85938
L27.0469 0.09375
Q23.3438 -0.6875 20.4062 -0.6875
Q15.625 -0.6875 12.9844 0.828125
Q10.3594 2.34375 9.28125 4.8125
Q8.20312 7.28125 8.20312 15.1875
L8.20312 45.0156
L1.76562 45.0156
L1.76562 51.8594
L8.20312 51.8594
L8.20312 64.7031
L16.9375 69.9688
L16.9375 51.8594
L25.7812 51.8594
L25.7812 45.0156
L16.9375 45.0156
L16.9375 14.7031
Q16.9375 10.9375 17.4062 9.85938
Q17.875 8.79688 18.9219 8.15625
Q19.9688 7.51562 21.9219 7.51562
Q23.3906 7.51562 25.7812 7.85938" id="ArialMT-74"/>
      <path d="
M6.64062 61.4688
L6.64062 71.5781
L15.4375 71.5781
L15.4375 61.4688
z

M6.64062 0
L6.64062 51.8594
L15.4375 51.8594
L15.4375 0
z
" id="ArialMT-69"/>
      <path d="
M6.59375 -19.875
L6.59375 51.8594
L14.5938 51.8594
L14.5938 45.125
Q17.4375 49.0781 21 51.0469
Q24.5625 53.0312 29.6406 53.0312
Q36.2812 53.0312 41.3594 49.6094
Q46.4375 46.1875 49.0156 39.9531
Q51.6094 33.7344 51.6094 26.3125
Q51.6094 18.3594 48.75 11.9844
Q45.9062 5.60938 40.4531 2.21875
Q35.0156 -1.17188 29 -1.17188
Q24.6094 -1.17188 21.1094 0.6875
Q17.625 2.54688 15.375 5.375
L15.375 -19.875
z

M14.5469 25.6406
Q14.5469 15.625 18.5938 10.8438
Q22.6562 6.0625 28.4219 6.0625
Q34.2812 6.0625 38.4531 11.0156
Q42.625 15.9688 42.625 26.375
Q42.625 36.2812 38.5469 41.2031
Q34.4688 46.1406 28.8125 46.1406
Q23.1875 46.1406 18.8594 40.8906
Q14.5469 35.6406 14.5469 25.6406" id="ArialMT-70"/>
      <path d="
M6.59375 0
L6.59375 51.8594
L14.5 51.8594
L14.5 44.4844
Q20.2188 53.0312 31 53.0312
Q35.6875 53.0312 39.625 51.3438
Q43.5625 49.6562 45.5156 46.9219
Q47.4688 44.1875 48.25 40.4375
Q48.7344 37.9844 48.7344 31.8906
L48.7344 0
L39.9375 0
L39.9375 31.5469
Q39.9375 36.9219 38.9062 39.5781
Q37.8906 42.2344 35.2812 43.8125
Q32.6719 45.4062 29.1562 45.4062
Q23.5312 45.4062 19.4531 41.8438
Q15.375 38.2812 15.375 28.3281
L15.375 0
z
" id="ArialMT-6e"/>
      <path d="
M6.5 0
L6.5 51.8594
L14.4062 51.8594
L14.4062 44
Q17.4375 49.5156 20 51.2656
Q22.5625 53.0312 25.6406 53.0312
Q30.0781 53.0312 34.6719 50.2031
L31.6406 42.0469
Q28.4219 43.9531 25.2031 43.9531
Q22.3125 43.9531 20.0156 42.2188
Q17.7188 40.4844 16.75 37.4062
Q15.2812 32.7188 15.2812 27.1562
L15.2812 0
z
" id="ArialMT-72"/>
     </defs>
     <g transform="translate(21.759375 265.370405322)rotate(-90.0)scale(0.2 -0.2)">
      <use xlink:href="#ArialMT-70"/>
      <use x="55.615234375" xlink:href="#ArialMT-72"/>
      <use x="88.916015625" xlink:href="#ArialMT-6f"/>
      <use x="144.53125" xlink:href="#ArialMT-70"/>
      <use x="200.146484375" xlink:href="#ArialMT-6f"/>
      <use x="255.76171875" xlink:href="#ArialMT-72"/>
      <use x="289.0625" xlink:href="#ArialMT-74"/>
      <use x="316.845703125" xlink:href="#ArialMT-69"/>
      <use x="339.0625" xlink:href="#ArialMT-6f"/>
      <use x="394.677734375" xlink:href="#ArialMT-6e"/>
      <use x="450.29296875" xlink:href="#ArialMT-20"/>
      <use x="478.076171875" xlink:href="#ArialMT-6f"/>
      <use x="533.69140625" xlink:href="#ArialMT-66"/>
      <use x="561.474609375" xlink:href="#ArialMT-20"/>
      <use x="589.2578125" xlink:href="#ArialMT-74"/>
      <use x="617.041015625" xlink:href="#ArialMT-72"/>
      <use x="650.341796875" xlink:href="#ArialMT-69"/>
      <use x="672.55859375" xlink:href="#ArialMT-61"/>
      <use x="728.173828125" xlink:href="#ArialMT-6c"/>
      <use x="750.390625" xlink:href="#ArialMT-73"/>
     </g>
    </g>
   </g>
   <g id="patch_3">
    <path d="
M60.825 12.9235
L507.225 12.9235" style="fill:none;stroke:#000000;"/>
   </g>
   <g id="patch_4">
    <path d="
M507.225 358.524
L507.225 12.9235" style="fill:none;stroke:#000000;"/>
   </g>
   <g id="patch_5">
    <path d="
M60.825 358.524
L507.225 358.524" style="fill:none;stroke:#000000;"/>
   </g>
   <g id="patch_6">
    <path d="
M60.825 358.524
L60.825 12.9235" style="fill:none;stroke:#000000;"/>
   </g>
   <g id="text_12">
    <!-- {f10-f14}, 20-D -->
    <defs>
     <path d="
M30.5625 29.8906
L30.5625 21.9219
Q26.8125 21.8281 24.4375 19.875
Q22.0781 17.9219 21.2969 14.5781
Q20.5156 11.2344 20.4531 3.07812
Q20.4062 -5.07812 20.1719 -7.67188
Q19.7344 -11.8125 18.5312 -14.2812
Q17.3281 -16.75 15.5625 -18.2344
Q13.8125 -19.7344 11.0781 -20.5156
Q9.23438 -21.0469 5.03125 -21.0469
L2.29688 -21.0469
L2.29688 -13.375
L3.8125 -13.375
Q8.89062 -13.375 10.5469 -11.5469
Q12.2031 -9.71875 12.2031 -3.32812
Q12.2031 8.89062 12.6406 12.1562
Q13.4219 17.5781 15.7656 20.8281
Q18.1094 24.0781 22.4062 25.875
Q16.7969 28.5625 14.5 32.9844
Q12.2031 37.4062 12.2031 47.9062
Q12.2031 57.4219 11.9688 59.2812
Q11.625 62.5469 10.0312 63.8438
Q8.45312 65.1406 3.8125 65.1406
L2.29688 65.1406
L2.29688 72.7969
L5.03125 72.7969
Q9.8125 72.7969 11.9688 72.0156
Q15.0938 70.9531 17.1406 68.4062
Q19.1875 65.875 19.7969 62.0156
Q20.4062 58.1562 20.4531 49.3594
Q20.5156 40.5781 21.2969 37.2344
Q22.0781 33.8906 24.4375 31.9375
Q26.8125 29.9844 30.5625 29.8906" id="ArialMT-7d"/>
     <path d="
M3.17188 21.4844
L3.17188 30.3281
L30.1719 30.3281
L30.1719 21.4844
z
" id="ArialMT-2d"/>
     <path d="
M8.89062 0
L8.89062 10.0156
L18.8906 10.0156
L18.8906 0
Q18.8906 -5.51562 16.9375 -8.90625
Q14.9844 -12.3125 10.75 -14.1562
L8.29688 -10.4062
Q11.0781 -9.1875 12.3906 -6.8125
Q13.7188 -4.4375 13.875 0
z
" id="ArialMT-2c"/>
     <path d="
M2.78125 29.8906
Q6.54688 29.9844 8.90625 31.9062
Q11.2812 33.8438 12.0625 37.2031
Q12.8438 40.5781 12.8906 48.7344
Q12.9375 56.8906 13.1875 59.4688
Q13.625 63.5781 14.8125 66.0625
Q16.0156 68.5625 17.7656 70.0469
Q19.5312 71.5312 22.2656 72.3125
Q24.125 72.7969 28.3281 72.7969
L31.0625 72.7969
L31.0625 65.1406
L29.5469 65.1406
Q24.4688 65.1406 22.7969 63.2969
Q21.1406 61.4688 21.1406 55.125
Q21.1406 42.3281 20.6094 38.9688
Q19.7344 33.7344 17.6094 30.9062
Q15.4844 28.0781 10.9375 25.875
Q16.3125 23.6406 18.7188 19.0156
Q21.1406 14.4062 21.1406 3.90625
Q21.1406 -5.60938 21.3438 -7.42188
Q21.7344 -10.75 23.3125 -12.0625
Q24.9062 -13.375 29.5469 -13.375
L31.0625 -13.375
L31.0625 -21.0469
L28.3281 -21.0469
Q23.5312 -21.0469 21.3906 -20.2656
Q18.2656 -19.1406 16.2031 -16.625
Q14.1562 -14.1094 13.5469 -10.25
Q12.9375 -6.39062 12.8906 2.39062
Q12.8438 11.1875 12.0625 14.5469
Q11.2812 17.9219 8.90625 19.875
Q6.54688 21.8281 2.78125 21.9219
z
" id="ArialMT-7b"/>
    </defs>
    <g transform="translate(219.5171875 34.3949053218)scale(0.2 -0.2)">
     <use xlink:href="#ArialMT-7b"/>
     <use x="33.3984375" xlink:href="#ArialMT-66"/>
     <use x="61.181640625" xlink:href="#ArialMT-31"/>
     <use x="116.796875" xlink:href="#ArialMT-30"/>
     <use x="172.412109375" xlink:href="#ArialMT-2d"/>
     <use x="205.712890625" xlink:href="#ArialMT-66"/>
     <use x="233.49609375" xlink:href="#ArialMT-31"/>
     <use x="289.111328125" xlink:href="#ArialMT-34"/>
     <use x="344.7265625" xlink:href="#ArialMT-7d"/>
     <use x="378.125" xlink:href="#ArialMT-2c"/>
     <use x="405.908203125" xlink:href="#ArialMT-20"/>
     <use x="433.69140625" xlink:href="#ArialMT-32"/>
     <use x="489.306640625" xlink:href="#ArialMT-30"/>
     <use x="544.921875" xlink:href="#ArialMT-2d"/>
     <use x="578.22265625" xlink:href="#ArialMT-44"/>
    </g>
   </g>
   <g id="text_13">
    <!-- reference budgets from refalgs/best2009-bbob.tar.gz -->
    <defs>
     <path d="
M40.4375 19
L49.0781 17.875
Q47.6562 8.9375 41.8125 3.875
Q35.9844 -1.17188 27.4844 -1.17188
Q16.8438 -1.17188 10.375 5.78125
Q3.90625 12.75 3.90625 25.7344
Q3.90625 34.125 6.6875 40.4219
Q9.46875 46.7344 15.1562 49.875
Q20.8438 53.0312 27.5469 53.0312
Q35.9844 53.0312 41.3594 48.75
Q46.7344 44.4844 48.25 36.625
L39.7031 35.2969
Q38.4844 40.5312 35.375 43.1562
Q32.2812 45.7969 27.875 45.7969
Q21.2344 45.7969 17.0781 41.0312
Q12.9375 36.2812 12.9375 25.9844
Q12.9375 15.5312 16.9375 10.7969
Q20.9531 6.0625 27.3906 6.0625
Q32.5625 6.0625 36.0312 9.23438
Q39.5 12.4062 40.4375 19" id="ArialMT-63"/>
     <path d="
M14.7031 0
L6.54688 0
L6.54688 71.5781
L15.3281 71.5781
L15.3281 46.0469
Q20.9062 53.0312 29.5469 53.0312
Q34.3281 53.0312 38.5938 51.0938
Q42.875 49.1719 45.625 45.6719
Q48.3906 42.1875 49.9531 37.25
Q51.5156 32.3281 51.5156 26.7031
Q51.5156 13.375 44.9219 6.09375
Q38.3281 -1.17188 29.1094 -1.17188
Q19.9219 -1.17188 14.7031 6.5
z

M14.5938 26.3125
Q14.5938 17 17.1406 12.8438
Q21.2969 6.0625 28.375 6.0625
Q34.125 6.0625 38.3281 11.0625
Q42.5312 16.0625 42.5312 25.9844
Q42.5312 36.1406 38.5 40.9688
Q34.4688 45.7969 28.7656 45.7969
Q23 45.7969 18.7969 40.7969
Q14.5938 35.7969 14.5938 26.3125" id="ArialMT-62"/>
     <path d="
M42.0938 16.7031
L51.1719 15.5781
Q49.0312 7.625 43.2188 3.21875
Q37.4062 -1.17188 28.375 -1.17188
Q17 -1.17188 10.3281 5.82812
Q3.65625 12.8438 3.65625 25.4844
Q3.65625 38.5781 10.3906 45.7969
Q17.1406 53.0312 27.875 53.0312
Q38.2812 53.0312 44.875 45.9531
Q51.4688 38.875 51.4688 26.0312
Q51.4688 25.25 51.4219 23.6875
L12.75 23.6875
Q13.2344 15.1406 17.5781 10.5938
Q21.9219 6.0625 28.4219 6.0625
Q33.25 6.0625 36.6719 8.59375
Q40.0938 11.1406 42.0938 16.7031
M13.2344 30.9062
L42.1875 30.9062
Q41.6094 37.4531 38.875 40.7188
Q34.6719 45.7969 27.9844 45.7969
Q21.9219 45.7969 17.7969 41.75
Q13.6719 37.7031 13.2344 30.9062" id="ArialMT-65"/>
     <path d="
M40.2344 0
L40.2344 6.54688
Q35.2969 -1.17188 25.7344 -1.17188
Q19.5312 -1.17188 14.3281 2.25
Q9.125 5.67188 6.26562 11.7969
Q3.42188 17.9219 3.42188 25.875
Q3.42188 33.6406 6 39.9688
Q8.59375 46.2969 13.7656 49.6562
Q18.9531 53.0312 25.3438 53.0312
Q30.0312 53.0312 33.6875 51.0469
Q37.3594 49.0781 39.6562 45.9062
L39.6562 71.5781
L48.3906 71.5781
L48.3906 0
z

M12.4531 25.875
Q12.4531 15.9219 16.6406 10.9844
Q20.8438 6.0625 26.5625 6.0625
Q32.3281 6.0625 36.3438 10.7656
Q40.375 15.4844 40.375 25.1406
Q40.375 35.7969 36.2656 40.7656
Q32.1719 45.75 26.1719 45.75
Q20.3125 45.75 16.375 40.9688
Q12.4531 36.1875 12.4531 25.875" id="ArialMT-64"/>
     <path d="
M40.5781 0
L40.5781 7.625
Q34.5156 -1.17188 24.125 -1.17188
Q19.5312 -1.17188 15.5469 0.578125
Q11.5781 2.34375 9.64062 5
Q7.71875 7.67188 6.9375 11.5312
Q6.39062 14.1094 6.39062 19.7344
L6.39062 51.8594
L15.1875 51.8594
L15.1875 23.0938
Q15.1875 16.2188 15.7188 13.8125
Q16.5469 10.3594 19.2344 8.375
Q21.9219 6.39062 25.875 6.39062
Q29.8281 6.39062 33.2969 8.42188
Q36.7656 10.4531 38.2031 13.9375
Q39.6562 17.4375 39.6562 24.0781
L39.6562 51.8594
L48.4375 51.8594
L48.4375 0
z
" id="ArialMT-75"/>
     <path d="
M5.46875 16.5469
L13.9219 17.3281
Q14.9844 11.375 18.0156 8.6875
Q21.0469 6 25.7812 6
Q29.8281 6 32.875 7.85938
Q35.9375 9.71875 37.8906 12.8125
Q39.8438 15.9219 41.1562 21.1875
Q42.4844 26.4688 42.4844 31.9375
Q42.4844 32.5156 42.4375 33.6875
Q39.7969 29.5 35.2344 26.875
Q30.6719 24.2656 25.3438 24.2656
Q16.4531 24.2656 10.2969 30.7031
Q4.15625 37.1562 4.15625 47.7031
Q4.15625 58.5938 10.5781 65.2344
Q17 71.875 26.6562 71.875
Q33.6406 71.875 39.4219 68.1094
Q45.2188 64.3594 48.2188 57.3906
Q51.2188 50.4375 51.2188 37.25
Q51.2188 23.5312 48.2344 15.4062
Q45.2656 7.28125 39.375 3.03125
Q33.5 -1.21875 25.5938 -1.21875
Q17.1875 -1.21875 11.8594 3.4375
Q6.54688 8.10938 5.46875 16.5469
M41.4531 48.1406
Q41.4531 55.7188 37.4219 60.1562
Q33.4062 64.5938 27.7344 64.5938
Q21.875 64.5938 17.5312 59.8125
Q13.1875 55.0312 13.1875 47.4062
Q13.1875 40.5781 17.3125 36.2969
Q21.4375 32.0312 27.4844 32.0312
Q33.5938 32.0312 37.5156 36.2969
Q41.4531 40.5781 41.4531 48.1406" id="ArialMT-39"/>
     <path d="
M6.59375 0
L6.59375 51.8594
L14.4531 51.8594
L14.4531 44.5781
Q16.8906 48.3906 20.9375 50.7031
Q25 53.0312 30.1719 53.0312
Q35.9375 53.0312 39.625 50.6406
Q43.3125 48.25 44.8281 43.9531
Q50.9844 53.0312 60.8438 53.0312
Q68.5625 53.0312 72.7031 48.75
Q76.8594 44.4844 76.8594 35.5938
L76.8594 0
L68.1094 0
L68.1094 32.6719
Q68.1094 37.9375 67.25 40.25
Q66.4062 42.5781 64.1562 43.9844
Q61.9219 45.4062 58.8906 45.4062
Q53.4219 45.4062 49.7969 41.7656
Q46.1875 38.1406 46.1875 30.125
L46.1875 0
L37.4062 0
L37.4062 33.6875
Q37.4062 39.5469 35.25 42.4688
Q33.1094 45.4062 28.2188 45.4062
Q24.5156 45.4062 21.3594 43.4531
Q18.2188 41.5 16.7969 37.7344
Q15.375 33.9844 15.375 26.9062
L15.375 0
z
" id="ArialMT-6d"/>
     <path d="
M1.95312 0
L1.95312 7.125
L34.9688 45.0156
Q29.3438 44.7344 25.0469 44.7344
L3.90625 44.7344
L3.90625 51.8594
L46.2969 51.8594
L46.2969 46.0469
L18.2188 13.1406
L12.7969 7.125
Q18.7031 7.5625 23.875 7.5625
L47.8594 7.5625
L47.8594 0
z
" id="ArialMT-7a"/>
    </defs>
    <g transform="translate(60.825 358.523530322)scale(0.14 -0.14)">
     <use xlink:href="#ArialMT-72"/>
     <use x="33.30078125" xlink:href="#ArialMT-65"/>
     <use x="88.916015625" xlink:href="#ArialMT-66"/>
     <use x="116.69921875" xlink:href="#ArialMT-65"/>
     <use x="172.314453125" xlink:href="#ArialMT-72"/>
     <use x="205.615234375" xlink:href="#ArialMT-65"/>
     <use x="261.23046875" xlink:href="#ArialMT-6e"/>
     <use x="316.845703125" xlink:href="#ArialMT-63"/>
     <use x="366.845703125" xlink:href="#ArialMT-65"/>
     <use x="422.4609375" xlink:href="#ArialMT-20"/>
     <use x="450.244140625" xlink:href="#ArialMT-62"/>
     <use x="505.859375" xlink:href="#ArialMT-75"/>
     <use x="561.474609375" xlink:href="#ArialMT-64"/>
     <use x="617.08984375" xlink:href="#ArialMT-67"/>
     <use x="672.705078125" xlink:href="#ArialMT-65"/>
     <use x="728.3203125" xlink:href="#ArialMT-74"/>
     <use x="756.103515625" xlink:href="#ArialMT-73"/>
     <use x="806.103515625" xlink:href="#ArialMT-20"/>
     <use x="833.88671875" xlink:href="#ArialMT-66"/>
     <use x="861.669921875" xlink:href="#ArialMT-72"/>
     <use x="894.970703125" xlink:href="#ArialMT-6f"/>
     <use x="950.5859375" xlink:href="#ArialMT-6d"/>
     <use x="1033.88671875" xlink:href="#ArialMT-20"/>
     <use x="1061.66992188" xlink:href="#ArialMT-72"/>
     <use x="1094.97070312" xlink:href="#ArialMT-65"/>
     <use x="1150.5859375" xlink:href="#ArialMT-66"/>
     <use x="1178.36914062" xlink:href="#ArialMT-61"/>
     <use x="1233.984375" xlink:href="#ArialMT-6c"/>
     <use x="1256.20117188" xlink:href="#ArialMT-67"/>
     <use x="1311.81640625" xlink:href="#ArialMT-73"/>
     <use x="1361.81640625" xlink:href="#ArialMT-2f"/>
     <use x="1389.59960938" xlink:href="#ArialMT-62"/>
     <use x="1445.21484375" xlink:href="#ArialMT-65"/>
     <use x="1500.83007812" xlink:href="#ArialMT-73"/>
     <use x="1550.83007812" xlink:href="#ArialMT-74"/>
     <use x="1578.61328125" xlink:href="#ArialMT-32"/>
     <use x="1634.22851562" xlink:href="#ArialMT-30"/>
     <use x="1689.84375" xlink:href="#ArialMT-30"/>
     <use x="1745.45898438" xlink:href="#ArialMT-39"/>
     <use x="1801.07421875" xlink:href="#ArialMT-2d"/>
     <use x="1834.375" xlink:href="#ArialMT-62"/>
     <use x="1889.99023438" xlink:href="#ArialMT-62"/>
     <use x="1945.60546875" xlink:href="#ArialMT-6f"/>
     <use x="2001.22070312" xlink:href="#ArialMT-62"/>
     <use x="2056.8359375" xlink:href="#ArialMT-2e"/>
     <use x="2084.61914062" xlink:href="#ArialMT-74"/>
     <use x="2112.40234375" xlink:href="#ArialMT-61"/>
     <use x="2168.01757812" xlink:href="#ArialMT-72"/>
     <use x="2195.81835938" xlink:href="#ArialMT-2e"/>
     <use x="2223.6015625" xlink:href="#ArialMT-67"/>
     <use x="2279.21679688" xlink:href="#ArialMT-7a"/>
    </g>
   </g>
   <g id="text_14">
    <!-- v2.0.1 -->
    <g style="fill:#808080;" transform="translate(271.38671875 353.080030322)scale(0.1 -0.1)">
     <use xlink:href="#ArialMT-76"/>
     <use x="50.0" xlink:href="#ArialMT-32"/>
     <use x="105.615234375" xlink:href="#ArialMT-2e"/>
     <use x="133.3984375" xlink:href="#ArialMT-30"/>
     <use x="189.013671875" xlink:href="#ArialMT-2e"/>
     <use x="216.796875" xlink:href="#ArialMT-31"/>
    </g>
   </g>
   <g id="legend_1">
    <g id="patch_7">
     <path d="
M70.825 142.086
L208.738 142.086
L208.738 22.9235
L70.825 22.9235
L70.825 142.086
z
" style="fill:#ffffff;opacity:0.2;stroke:#000000;"/>
    </g>
    <g id="line2d_114">
     <path d="
M84.825 38.2392
L112.825 38.2392" style="fill:none;stroke:#000000;stroke-linecap:square;"/>
    </g>
    <g id="line2d_115"/>
    <g id="text_15">
     <!-- 0.5: 5/5 -->
     <defs>
      <path d="
M9.03125 41.8438
L9.03125 51.8594
L19.0469 51.8594
L19.0469 41.8438
z

M9.03125 0
L9.03125 10.0156
L19.0469 10.0156
L19.0469 0
z
" id="ArialMT-3a"/>
      <path d="
M4.15625 18.75
L13.375 19.5312
Q14.4062 12.7969 18.1406 9.39062
Q21.875 6 27.1562 6
Q33.5 6 37.8906 10.7812
Q42.2812 15.5781 42.2812 23.4844
Q42.2812 31 38.0625 35.3438
Q33.8438 39.7031 27 39.7031
Q22.75 39.7031 19.3281 37.7656
Q15.9219 35.8438 13.9688 32.7656
L5.71875 33.8438
L12.6406 70.6094
L48.25 70.6094
L48.25 62.2031
L19.6719 62.2031
L15.8281 42.9688
Q22.2656 47.4688 29.3438 47.4688
Q38.7188 47.4688 45.1562 40.9688
Q51.6094 34.4688 51.6094 24.2656
Q51.6094 14.5469 45.9531 7.46875
Q39.0625 -1.21875 27.1562 -1.21875
Q17.3906 -1.21875 11.2031 4.25
Q5.03125 9.71875 4.15625 18.75" id="ArialMT-35"/>
     </defs>
     <g transform="translate(134.825 45.2391553218)scale(0.2 -0.2)">
      <use xlink:href="#ArialMT-30"/>
      <use x="55.615234375" xlink:href="#ArialMT-2e"/>
      <use x="83.3984375" xlink:href="#ArialMT-35"/>
      <use x="139.013671875" xlink:href="#ArialMT-3a"/>
      <use x="166.796875" xlink:href="#ArialMT-20"/>
      <use x="194.580078125" xlink:href="#ArialMT-35"/>
      <use x="250.1953125" xlink:href="#ArialMT-2f"/>
      <use x="277.978515625" xlink:href="#ArialMT-35"/>
     </g>
    </g>
    <g id="line2d_116">
     <path d="
M84.825 66.5298
L112.825 66.5298" style="fill:none;stroke:#00bfbf;stroke-linecap:square;"/>
    </g>
    <g id="line2d_117"/>
    <g id="text_16">
     <!-- 2: 5/5 -->
     <g transform="translate(134.825 73.5297803218)scale(0.2 -0.2)">
      <use xlink:href="#ArialMT-32"/>
      <use x="55.615234375" xlink:href="#ArialMT-3a"/>
      <use x="83.3984375" xlink:href="#ArialMT-20"/>
      <use x="111.181640625" xlink:href="#ArialMT-35"/>
      <use x="166.796875" xlink:href="#ArialMT-2f"/>
      <use x="194.580078125" xlink:href="#ArialMT-35"/>
     </g>
    </g>
    <g id="line2d_118">
     <path d="
M84.825 94.8204
L112.825 94.8204" style="fill:none;stroke:#bf00bf;stroke-linecap:square;"/>
    </g>
    <g id="line2d_119"/>
    <g id="text_17">
     <!-- 10: 5/5 -->
     <g transform="translate(134.825 101.820405322)scale(0.2 -0.2)">
      <use xlink:href="#ArialMT-31"/>
      <use x="55.615234375" xlink:href="#ArialMT-30"/>
      <use x="111.23046875" xlink:href="#ArialMT-3a"/>
      <use x="139.013671875" xlink:href="#ArialMT-20"/>
      <use x="166.796875" xlink:href="#ArialMT-35"/>
      <use x="222.412109375" xlink:href="#ArialMT-2f"/>
      <use x="250.1953125" xlink:href="#ArialMT-35"/>
     </g>
    </g>
    <g id="line2d_120">
     <path d="
M84.825 123.111
L112.825 123.111" style="fill:none;stroke:#ff0000;stroke-linecap:square;stroke-width:3.0;"/>
    </g>
    <g id="line2d_121"/>
    <g id="text_18">
     <!-- 50: 4/5 -->
     <g transform="translate(134.825 130.111030322)scale(0.2 -0.2)">
      <use xlink:href="#ArialMT-35"/>
      <use x="55.615234375" xlink:href="#ArialMT-30"/>
      <use x="111.23046875" xlink:href="#ArialMT-3a"/>
      <use x="139.013671875" xlink:href="#ArialMT-20"/>
      <use x="166.796875" xlink:href="#ArialMT-34"/>
      <use x="222.412109375" xlink:href="#ArialMT-2f"/>
      <use x="250.1953125" xlink:href="#ArialMT-35"/>
     </g>
    </g>
   </g>
  </g>
 </g>
 <defs>
  <clipPath id="p0ab5e1e507">
   <rect height="345.6" width="446.4" x="60.825" y="12.9235303218"/>
  </clipPath>
 </defs>
</svg>
