<?xml version="1.0" encoding="utf-8" standalone="no"?>
<!DOCTYPE svg PUBLIC "-//W3C//DTD SVG 1.1//EN"
  "http://www.w3.org/Graphics/SVG/1.1/DTD/svg11.dtd">
<!-- Created with matplotlib (http://matplotlib.org/) -->
<svg height="411pt" version="1.1" viewBox="0 0 514 411" width="514pt" xmlns="http://www.w3.org/2000/svg" xmlns:xlink="http://www.w3.org/1999/xlink">
 <defs>
  <style type="text/css">
*{stroke-linecap:butt;stroke-linejoin:round;}
  </style>
 </defs>
 <g id="figure_1">
  <g id="patch_1">
   <path d="
M0 411.783
L514.425 411.783
L514.425 0
L0 0
z
" style="fill:#ffffff;"/>
  </g>
  <g id="axes_1">
   <g id="patch_2">
    <path d="
M60.825 358.524
L507.225 358.524
L507.225 12.9235
L60.825 12.9235
z
" style="fill:#ffffff;"/>
   </g>
   <g id="line2d_1">
    <path clip-path="url(#p0ab5e1e507)" d="
M258.705 358.524
L258.705 353.961
L269.272 353.961
L269.272 349.399
L272.523 349.399
L272.523 344.836
L273.251 344.836
L273.251 340.274
L275.851 340.274
L275.851 335.712
L276.772 335.712
L276.772 331.149
L276.772 331.149
L276.772 326.587
L279.237 326.587
L279.237 322.025
L281.399 322.025
L281.399 317.462
L281.611 317.462
L281.611 312.9
L284.917 312.9
L284.917 308.337
L285.518 308.337
L285.518 303.775
L297.503 303.775
L297.503 299.213
L300.262 299.213
L300.262 294.65
L304.859 294.65
L304.859 290.088
L307.752 290.088
L307.752 285.526
L309.013 285.526
L309.013 280.963
L319.844 280.963
L319.844 276.401
L329.321 276.401
L329.321 271.838
L334.386 271.838
L334.386 267.276
L364.004 267.276
L364.004 262.714
L414.346 262.714
L414.346 258.151
L424.494 258.151
L424.494 253.589
L430.058 253.589
L430.058 249.027
L433.748 249.027
L433.748 244.464
L436.45 244.464
L436.45 239.902
L439.193 239.902
L439.193 235.339
L443.595 235.339
L443.595 230.777
L451.068 230.777
L451.068 226.215
L451.468 226.215
L451.468 221.652
L454.123 221.652
L454.123 217.09
L480.491 217.09
L480.491 212.527
L481.259 212.527
L481.259 207.965
L482.408 207.965
L482.408 203.403
L484.158 203.403
L484.158 198.84
L487.646 198.84
L487.646 194.278
L488.877 194.278
L488.877 189.716
L490.697 189.716
L490.697 185.153
L505.343 185.153
L505.343 180.591
L508.524 180.591
L508.524 176.028
L511.569 176.028
L511.569 171.466
L515.425 171.466" style="fill:none;stroke:#f5deb3;stroke-linecap:square;"/>
   </g>
   <g id="line2d_2">
    <path clip-path="url(#p0ab5e1e507)" d="
M403.021 358.524
L403.021 353.961
L413.58 353.961
L413.58 349.399
L414.482 349.399
L414.482 344.836
L423.179 344.836
L423.179 340.274
L443.3 340.274
L443.3 335.712
L449.572 335.712
L449.572 331.149
L456.277 331.149
L456.277 326.587
L456.49 326.587
L456.49 322.025
L459.885 322.025
L459.885 317.462
L462.649 317.462
L462.649 312.9
L463.937 312.9
L463.937 308.337
L471.373 308.337
L471.373 303.775
L471.832 303.775
L471.832 299.213
L475.069 299.213
L475.069 294.65
L477.551 294.65
L477.551 290.088
L480.452 290.088
L480.452 285.526
L480.803 285.526
L480.803 280.963
L481.201 280.963
L481.201 276.401
L486.168 276.401
L486.168 271.838
L497.437 271.838
L497.437 267.276
L498.489 267.276
L498.489 262.714
L503.17 262.714
L503.17 258.151
L505.469 258.151
L505.469 253.589
L515.425 253.589
L515.425 253.589" style="fill:none;stroke:#f5deb3;stroke-linecap:square;"/>
   </g>
   <g id="line2d_3">
    <path clip-path="url(#p0ab5e1e507)" d="
M486.043 358.524
L486.043 353.961
L489.518 353.961
L489.518 349.399
L489.518 349.399
L489.518 344.836
L489.535 344.836
L489.535 340.274
L507.257 340.274
L507.257 335.712
L515.425 335.712" style="fill:none;stroke:#f5deb3;stroke-linecap:square;"/>
   </g>
   <g id="line2d_4">
    <path clip-path="url(#p0ab5e1e507)" d="
M369.401 358.524
L369.401 344.836
L383.586 344.836
L383.586 331.149
L419.619 331.149
L419.619 317.462
L424.051 317.462
L424.051 303.775
L424.888 303.775
L424.888 290.088
L434.089 290.088
L434.089 276.401
L485.493 276.401
L485.493 262.714
L514.643 262.714
L514.643 249.027
L515.425 249.027" style="fill:none;stroke:#f5deb3;stroke-linecap:square;"/>
   </g>
   <g id="line2d_5">
    <path clip-path="url(#p0ab5e1e507)" d="
M286.508 358.524
L286.508 353.961
L286.704 353.961
L286.704 349.399
L295.483 349.399
L295.483 344.836
L298.653 344.836
L298.653 340.274
L298.978 340.274
L298.978 335.712
L299.14 335.712
L299.14 331.149
L303.363 331.149
L303.363 326.587
L305.448 326.587
L305.448 322.025
L308.874 322.025
L308.874 317.462
L313.436 317.462
L313.436 312.9
L314.464 312.9
L314.464 308.337
L314.845 308.337
L314.845 303.775
L317.21 303.775
L317.21 299.213
L319.491 299.213
L319.491 294.65
L327.99 294.65
L327.99 290.088
L333.538 290.088
L333.538 285.526
L346.329 285.526
L346.329 280.963
L354.167 280.963
L354.167 276.401
L382.126 276.401
L382.126 271.838
L384.8 271.838
L384.8 267.276
L416.827 267.276
L416.827 262.714
L433.262 262.714
L433.262 258.151
L459.359 258.151
L459.359 253.589
L465.509 253.589
L465.509 249.027
L466.049 249.027
L466.049 244.464
L471.249 244.464
L471.249 239.902
L483.63 239.902
L483.63 235.339
L485.266 235.339
L485.266 230.777
L485.421 230.777
L485.421 226.215
L489.39 226.215
L489.39 221.652
L496.207 221.652
L496.207 217.09
L498.585 217.09
L498.585 212.527
L499.152 212.527
L499.152 207.965
L502.88 207.965
L502.88 203.403
L515.425 203.403
L515.425 203.403" style="fill:none;stroke:#f5deb3;stroke-linecap:square;"/>
   </g>
   <g id="line2d_6">
    <path clip-path="url(#p0ab5e1e507)" d="
M221.309 358.524
L221.309 353.961
L237.014 353.961
L237.014 349.399
L245.699 349.399
L245.699 344.836
L248.589 344.836
L248.589 340.274
L249.292 340.274
L249.292 335.712
L249.292 335.712
L249.292 331.149
L258.402 331.149
L258.402 326.587
L259.902 326.587
L259.902 322.025
L262.232 322.025
L262.232 317.462
L278.574 317.462
L278.574 312.9
L278.796 312.9
L278.796 308.337
L284.106 308.337
L284.106 303.775
L284.106 303.775
L284.106 299.213
L292.329 299.213
L292.329 294.65
L293.398 294.65
L293.398 290.088
L293.75 290.088
L293.75 285.526
L294.795 285.526
L294.795 280.963
L298.653 280.963
L298.653 276.401
L302.294 276.401
L302.294 271.838
L313.046 271.838
L313.046 267.276
L388.515 267.276
L388.515 262.714
L390.825 262.714
L390.825 258.151
L391.719 258.151
L391.719 253.589
L396.551 253.589
L396.551 249.027
L398.422 249.027
L398.422 244.464
L398.526 244.464
L398.526 239.902
L400.341 239.902
L400.341 235.339
L403.794 235.339
L403.794 230.777
L406.367 230.777
L406.367 226.215
L421.788 226.215
L421.788 221.652
L426.327 221.652
L426.327 217.09
L429.2 217.09
L429.2 212.527
L430.948 212.527
L430.948 207.965
L436.912 207.965
L436.912 203.403
L437.008 203.403
L437.008 198.84
L438.185 198.84
L438.185 194.278
L438.803 194.278
L438.803 189.716
L440.657 189.716
L440.657 185.153
L440.928 185.153
L440.928 180.591
L452.966 180.591
L452.966 176.028
L463.366 176.028
L463.366 171.466
L469.209 171.466
L469.209 166.904
L474.203 166.904
L474.203 162.341
L475.027 162.341
L475.027 157.779
L488.239 157.779
L488.239 153.217
L489.73 153.217
L489.73 148.654
L493.754 148.654
L493.754 144.092
L495.475 144.092
L495.475 139.529
L497.595 139.529
L497.595 134.967
L514.862 134.967
L514.862 130.405
L515.425 130.405" style="fill:none;stroke:#f5deb3;stroke-linecap:square;"/>
   </g>
   <g id="line2d_7">
    <path clip-path="url(#p0ab5e1e507)" d="
M291.425 358.524
L291.425 353.961
L301.676 353.961
L301.676 349.399
L302.14 349.399
L302.14 344.836
L305.886 344.836
L305.886 340.274
L307.752 340.274
L307.752 335.712
L308.034 335.712
L308.034 331.149
L308.315 331.149
L308.315 326.587
L308.595 326.587
L308.595 322.025
L309.84 322.025
L309.84 317.462
L310.385 317.462
L310.385 312.9
L315.476 312.9
L315.476 308.337
L324.81 308.337
L324.81 303.775
L332.581 303.775
L332.581 299.213
L341.057 299.213
L341.057 294.65
L341.226 294.65
L341.226 290.088
L342.146 290.088
L342.146 285.526
L376.663 285.526
L376.663 280.963
L383.63 280.963
L383.63 276.401
L391.37 276.401
L391.37 271.838
L442.583 271.838
L442.583 267.276
L460.7 267.276
L460.7 262.714
L468.472 262.714
L468.472 258.151
L470.977 258.151
L470.977 253.589
L473.488 253.589
L473.488 249.027
L483.415 249.027
L483.415 244.464
L486.096 244.464
L486.096 239.902
L489.679 239.902
L489.679 235.339
L503.198 235.339
L503.198 230.777
L505.229 230.777
L505.229 226.215
L515.425 226.215" style="fill:none;stroke:#f5deb3;stroke-linecap:square;"/>
   </g>
   <g id="line2d_8">
    <path clip-path="url(#p0ab5e1e507)" d="
M252.695 358.524
L252.695 353.961
L255.928 353.961
L255.928 349.399
L265.031 349.399
L265.031 344.836
L269.783 344.836
L269.783 340.274
L270.542 340.274
L270.542 335.712
L275.619 335.712
L275.619 331.149
L279.893 331.149
L279.893 326.587
L283.902 326.587
L283.902 322.025
L288.824 322.025
L288.824 317.462
L289.765 317.462
L289.765 312.9
L310.521 312.9
L310.521 308.337
L318.301 308.337
L318.301 303.775
L358.115 303.775
L358.115 299.213
L372.954 299.213
L372.954 294.65
L401.08 294.65
L401.08 290.088
L421.252 290.088
L421.252 285.526
L424.841 285.526
L424.841 280.963
L424.934 280.963
L424.934 276.401
L427.824 276.401
L427.824 271.838
L428.896 271.838
L428.896 267.276
L429.113 267.276
L429.113 262.714
L429.265 262.714
L429.265 258.151
L430.526 258.151
L430.526 253.589
L442.636 253.589
L442.636 249.027
L443.802 249.027
L443.802 244.464
L490.681 244.464
L490.681 239.902
L491.552 239.902
L491.552 235.339
L492.8 235.339
L492.8 230.777
L497.924 230.777
L497.924 226.215
L498.541 226.215
L498.541 221.652
L509.723 221.652
L509.723 217.09
L515.425 217.09" style="fill:none;stroke:#f5deb3;stroke-linecap:square;"/>
   </g>
   <g id="line2d_9">
    <path clip-path="url(#p0ab5e1e507)" d="
M406.674 358.524
L406.674 353.961
L445.285 353.961
L445.285 349.399
L491.543 349.399
L491.543 344.836
L492.126 344.836
L492.126 340.274
L502.568 340.274
L502.568 335.712
L510.533 335.712
L510.533 331.149
L511.912 331.149
L511.912 326.587
L515.425 326.587" style="fill:none;stroke:#f5deb3;stroke-linecap:square;"/>
   </g>
   <g id="line2d_10">
    <path clip-path="url(#p0ab5e1e507)" d="
M263.926 358.524
L263.926 353.961
L269.528 353.961
L269.528 349.399
L279.456 349.399
L279.456 344.836
L279.456 344.836
L279.456 340.274
L288.061 340.274
L288.061 335.712
L295.654 335.712
L295.654 331.149
L305.595 331.149
L305.595 326.587
L321.808 326.587
L321.808 322.025
L345.545 322.025
L345.545 317.462
L356.205 317.462
L356.205 312.9
L364.123 312.9
L364.123 308.337
L374.433 308.337
L374.433 303.775
L374.433 303.775
L374.433 299.213
L376.517 299.213
L376.517 294.65
L376.517 294.65
L376.517 290.088
L377.534 290.088
L377.534 285.526
L377.534 285.526
L377.534 280.963
L384.24 280.963
L384.24 276.401
L386.913 276.401
L386.913 271.838
L386.913 271.838
L386.913 267.276
L388.636 267.276
L388.636 262.714
L389.481 262.714
L389.481 258.151
L389.481 258.151
L389.481 253.589
L393.545 253.589
L393.545 249.027
L397.369 249.027
L397.369 244.464
L400.274 244.464
L400.274 239.902
L400.98 239.902
L400.98 235.339
L402.369 235.339
L402.369 230.777
L408.277 230.777
L408.277 226.215
L408.902 226.215
L408.902 221.652
L459.629 221.652
L459.629 217.09
L462.944 217.09
L462.944 212.527
L465.841 212.527
L465.841 207.965
L468.366 207.965
L468.366 203.403
L470.796 203.403
L470.796 198.84
L479.902 198.84
L479.902 194.278
L501.532 194.278
L501.532 189.716
L503.861 189.716
L503.861 185.153
L504.996 185.153
L504.996 180.591
L505.416 180.591
L505.416 176.028
L515.425 176.028" style="fill:none;stroke:#f5deb3;stroke-linecap:square;"/>
   </g>
   <g id="line2d_11">
    <path clip-path="url(#p0ab5e1e507)" d="
M258.705 358.524
L258.705 353.961
L261.368 353.961
L261.368 349.399
L282.034 349.399
L282.034 344.836
L282.871 344.836
L282.871 340.274
L285.717 340.274
L285.717 335.712
L288.634 335.712
L288.634 331.149
L290.137 331.149
L290.137 326.587
L290.692 326.587
L290.692 322.025
L303.514 322.025
L303.514 317.462
L305.886 317.462
L305.886 312.9
L314.845 312.9
L314.845 308.337
L321.007 308.337
L321.007 303.775
L326.632 303.775
L326.632 299.213
L329.524 299.213
L329.524 294.65
L332.098 294.65
L332.098 290.088
L334.293 290.088
L334.293 285.526
L339.083 285.526
L339.083 280.963
L343.381 280.963
L343.381 276.401
L344.911 276.401
L344.911 271.838
L345.702 271.838
L345.702 267.276
L351.563 267.276
L351.563 262.714
L361.835 262.714
L361.835 258.151
L373.365 258.151
L373.365 253.589
L374.935 253.589
L374.935 249.027
L378.866 249.027
L378.866 244.464
L381.631 244.464
L381.631 239.902
L426.169 239.902
L426.169 235.339
L465.001 235.339
L465.001 230.777
L481.404 230.777
L481.404 226.215
L482.208 226.215
L482.208 221.652
L504.788 221.652
L504.788 217.09
L505.329 217.09
L505.329 212.527
L506.287 212.527
L506.287 207.965
L509.343 207.965
L509.343 203.403
L515.425 203.403" style="fill:none;stroke:#f5deb3;stroke-linecap:square;"/>
   </g>
   <g id="line2d_12">
    <path clip-path="url(#p0ab5e1e507)" d="
M290.876 358.524
L290.876 353.961
L294.795 353.961
L294.795 349.399
L296.501 349.399
L296.501 344.836
L297.171 344.836
L297.171 340.274
L303.211 340.274
L303.211 335.712
L305.154 335.712
L305.154 331.149
L306.754 331.149
L306.754 326.587
L309.703 326.587
L309.703 322.025
L318.06 322.025
L318.06 317.462
L320.312 317.462
L320.312 312.9
L323.382 312.9
L323.382 308.337
L326.208 308.337
L326.208 303.775
L332.388 303.775
L332.388 299.213
L349.073 299.213
L349.073 294.65
L368.854 294.65
L368.854 290.088
L446.371 290.088
L446.371 285.526
L465.988 285.526
L465.988 280.963
L466.609 280.963
L466.609 276.401
L467.392 276.401
L467.392 271.838
L474.224 271.838
L474.224 267.276
L476.061 267.276
L476.061 262.714
L481.307 262.714
L481.307 258.151
L483.34 258.151
L483.34 253.589
L499.218 253.589
L499.218 249.027
L499.371 249.027
L499.371 244.464
L502.374 244.464
L502.374 239.902
L507.315 239.902
L507.315 235.339
L515.425 235.339
L515.425 235.339" style="fill:none;stroke:#f5deb3;stroke-linecap:square;"/>
   </g>
   <g id="line2d_13">
    <path clip-path="url(#p0ab5e1e507)" d="
M354.236 358.524
L354.236 353.961
L354.374 353.961
L354.374 349.399
L354.854 349.399
L354.854 344.836
L367.127 344.836
L367.127 340.274
L370.643 340.274
L370.643 335.712
L370.963 335.712
L370.963 331.149
L371.123 331.149
L371.123 326.587
L374.935 326.587
L374.935 322.025
L384.628 322.025
L384.628 317.462
L387.985 317.462
L387.985 312.9
L401.678 312.9
L401.678 308.337
L407.345 308.337
L407.345 303.775
L412.105 303.775
L412.105 299.213
L412.358 299.213
L412.358 294.65
L419.894 294.65
L419.894 290.088
L420.49 290.088
L420.49 285.526
L421.957 285.526
L421.957 280.963
L424.656 280.963
L424.656 276.401
L425.072 276.401
L425.072 271.838
L425.302 271.838
L425.302 267.276
L427.18 267.276
L427.18 262.714
L428.657 262.714
L428.657 258.151
L429.07 258.151
L429.07 253.589
L430.969 253.589
L430.969 249.027
L434.588 249.027
L434.588 244.464
L438.185 244.464
L438.185 239.902
L441 239.902
L441 235.339
L467.308 235.339
L467.308 230.777
L473.716 230.777
L473.716 226.215
L475.683 226.215
L475.683 221.652
L515.425 221.652" style="fill:none;stroke:#f5deb3;stroke-linecap:square;"/>
   </g>
   <g id="line2d_14">
    <path clip-path="url(#p0ab5e1e507)" d="
M327.99 358.524
L327.99 354.679
L330.127 354.679
L330.127 350.834
L355.533 350.834
L355.533 346.989
L356.004 346.989
L356.004 343.145
L389.04 343.145
L389.04 339.3
L391.911 339.3
L391.911 335.455
L394.919 335.455
L394.919 331.611
L395.065 331.611
L395.065 327.766
L396.587 327.766
L396.587 323.921
L399.867 323.921
L399.867 320.077
L400.846 320.077
L400.913 312.387
L416.143 312.387
L416.143 308.542
L420.019 308.542
L420.019 304.698
L420.342 304.698
L420.342 300.853
L420.614 300.853
L420.614 297.008
L421.252 297.008
L421.252 293.164
L424.749 293.164
L424.749 289.319
L439.599 289.319
L439.599 285.474
L440.476 285.474
L440.476 281.63
L442.054 281.63
L442.09 273.94
L443.508 273.94
L443.508 270.095
L445.167 270.095
L445.167 266.251
L445.972 266.251
L445.972 262.406
L456.646 262.406
L456.646 258.561
L469.267 258.561
L469.267 254.717
L472.111 254.717
L472.111 250.872
L472.577 250.872
L472.588 243.183
L479.704 243.183
L479.704 239.338
L483.097 239.338
L483.097 235.493
L488.774 235.493
L488.774 231.648
L491.7 231.648
L491.7 227.804
L504.942 227.804
L504.942 223.959
L505.549 223.959
L505.549 220.114
L512.026 220.114
L512.026 216.27
L515.425 216.27
L515.425 216.27" style="fill:none;stroke:#f5deb3;stroke-linecap:square;"/>
   </g>
   <g id="line2d_15">
    <path clip-path="url(#p0ab5e1e507)" d="
M386.245 358.524
L386.245 353.961
L396.443 353.961
L396.443 349.399
L408.337 349.399
L408.337 344.836
L409.549 344.836
L409.549 340.274
L415.05 340.274
L415.05 335.712
L417.167 335.712
L417.167 331.149
L417.245 331.149
L417.245 326.587
L420.564 326.587
L420.564 322.025
L425.233 322.025
L425.233 317.462
L427.691 317.462
L427.691 312.9
L432.875 312.9
L432.875 308.337
L434.727 308.337
L434.727 303.775
L434.727 303.775
L434.727 299.213
L436.179 299.213
L436.179 294.65
L438.41 294.65
L438.41 290.088
L443.369 290.088
L443.369 285.526
L443.508 285.526
L443.508 280.963
L448.778 280.963
L448.778 276.401
L458.334 276.401
L458.334 271.838
L460.978 271.838
L460.978 267.276
L475.925 267.276
L475.925 262.714
L477.98 262.714
L477.98 258.151
L485.076 258.151
L485.076 253.589
L515.425 253.589" style="fill:none;stroke:#f5deb3;stroke-linecap:square;"/>
   </g>
   <g id="line2d_16">
    <path clip-path="url(#p0ab5e1e507)" d="
M282.034 358.524
L282.034 353.961
L282.244 353.961
L282.244 349.399
L283.902 349.399
L283.902 344.836
L285.118 344.836
L285.118 340.274
L285.717 340.274
L285.717 335.712
L287.676 335.712
L287.676 331.149
L296.164 331.149
L296.164 326.587
L300.42 326.587
L300.42 322.025
L307.184 322.025
L307.184 317.462
L307.61 317.462
L307.61 312.9
L313.694 312.9
L313.694 308.337
L327.367 308.337
L327.367 303.775
L331.317 303.775
L331.317 299.213
L337.585 299.213
L337.585 294.65
L350.11 294.65
L350.11 290.088
L361.219 290.088
L361.219 285.526
L361.835 285.526
L361.835 280.963
L361.896 280.963
L361.896 276.401
L366.389 276.401
L366.389 271.838
L366.617 271.838
L366.617 267.276
L380.494 267.276
L380.494 262.714
L382.17 262.714
L382.17 258.151
L383.015 258.151
L383.015 253.589
L388.999 253.589
L388.999 249.027
L394.402 249.027
L394.402 244.464
L438.747 244.464
L438.747 239.902
L439.137 239.902
L439.137 235.339
L440.312 235.339
L440.312 230.777
L443.612 230.777
L443.612 226.215
L444.658 226.215
L444.658 221.652
L445.167 221.652
L445.167 217.09
L446.998 217.09
L446.998 212.527
L451.468 212.527
L451.468 207.965
L478.476 207.965
L478.476 203.403
L485.484 203.403
L485.484 198.84
L496.871 198.84
L496.871 194.278
L512.469 194.278
L512.469 189.716
L515.109 189.716
L515.109 185.153
L515.425 185.153" style="fill:none;stroke:#f5deb3;stroke-linecap:square;"/>
   </g>
   <g id="line2d_17">
    <path clip-path="url(#p0ab5e1e507)" d="
M466.621 358.524
L466.621 353.961
L488.524 353.961
L488.524 349.399
L491.254 349.399
L491.254 344.836
L499.473 344.836
L499.473 340.274
L501.221 340.274
L501.221 335.712
L504.174 335.712
L504.174 331.149
L507.868 331.149
L507.868 326.587
L508.302 326.587
L508.302 322.025
L512.026 322.025
L512.026 317.462
L513.592 317.462
L513.592 312.9
L514.198 312.9
L514.198 308.337
L515.183 308.337
L515.183 303.775
L515.314 303.775
L515.314 299.213
L515.425 299.213" style="fill:none;stroke:#f5deb3;stroke-linecap:square;"/>
   </g>
   <g id="line2d_18">
    <path clip-path="url(#p0ab5e1e507)" d="
M239.501 358.524
L239.501 353.961
L245.329 353.961
L245.329 349.399
L254.654 349.399
L254.654 344.836
L258.705 344.836
L258.705 340.274
L259.902 340.274
L259.902 335.712
L264.757 335.712
L264.757 331.149
L266.654 331.149
L266.654 326.587
L275.386 326.587
L275.386 322.025
L282.454 322.025
L282.454 317.462
L284.917 317.462
L284.917 312.9
L291.425 312.9
L291.425 308.337
L302.14 308.337
L302.14 303.775
L306.032 303.775
L306.032 299.213
L306.754 299.213
L306.754 294.65
L316.225 294.65
L316.225 290.088
L318.66 290.088
L318.66 285.526
L323.715 285.526
L323.715 280.963
L328.608 280.963
L328.608 276.401
L335.685 276.401
L335.685 271.838
L338.383 271.838
L338.383 267.276
L348.398 267.276
L348.398 262.714
L349.668 262.714
L349.668 258.151
L349.889 258.151
L349.889 253.589
L365.004 253.589
L365.004 249.027
L415.612 249.027
L415.612 244.464
L419.09 244.464
L419.09 239.902
L419.519 239.902
L419.519 235.339
L425.577 235.339
L425.577 230.777
L431.158 230.777
L431.158 226.215
L432.384 226.215
L432.384 221.652
L436.508 221.652
L436.508 217.09
L455.346 217.09
L455.346 212.527
L460.74 212.527
L460.74 207.965
L474.439 207.965
L474.439 203.403
L482.132 203.403
L482.132 198.84
L495.063 198.84
L495.063 194.278
L499.699 194.278
L499.699 189.716
L502.506 189.716
L502.506 185.153
L503.827 185.153
L503.827 180.591
L506.425 180.591
L506.425 176.028
L515.425 176.028" style="fill:none;stroke:#f5deb3;stroke-linecap:square;"/>
   </g>
   <g id="line2d_19">
    <path clip-path="url(#p0ab5e1e507)" d="
M600.866 358.524" style="fill:none;stroke:#f5deb3;stroke-linecap:square;"/>
   </g>
   <g id="line2d_20">
    <path clip-path="url(#p0ab5e1e507)" d="
M359.209 358.524
L359.209 353.961
L364.945 353.961
L364.945 349.399
L366.16 349.399
L366.16 344.836
L368.024 344.836
L368.024 340.274
L371.493 340.274
L371.493 335.712
L373.006 335.712
L373.006 331.149
L396.979 331.149
L396.979 326.587
L398.108 326.587
L398.108 322.025
L403.473 322.025
L403.473 317.462
L404.81 317.462
L404.81 312.9
L406.521 312.9
L406.521 308.337
L412.694 308.337
L412.694 303.775
L413.277 303.775
L413.277 299.213
L416.275 299.213
L416.275 294.65
L418.685 294.65
L418.685 290.088
L425.394 290.088
L425.394 285.526
L432.178 285.526
L432.178 280.963
L446.883 280.963
L446.883 276.401
L448.072 276.401
L448.072 271.838
L449.603 271.838
L449.603 267.276
L466.851 267.276
L466.851 262.714
L480.04 262.714
L480.04 258.151
L484.398 258.151
L484.398 253.589
L486.177 253.589
L486.177 249.027
L486.347 249.027
L486.347 244.464
L493.715 244.464
L493.715 239.902
L496.338 239.902
L496.338 235.339
L497.962 235.339
L497.962 230.777
L502.192 230.777
L502.192 226.215
L507.212 226.215
L507.212 221.652
L509.847 221.652
L509.847 217.09
L514.891 217.09
L514.891 212.527
L515.425 212.527" style="fill:none;stroke:#f5deb3;stroke-linecap:square;"/>
   </g>
   <g id="line2d_21">
    <path clip-path="url(#p0ab5e1e507)" d="
M309.151 358.524
L309.151 353.961
L318.66 353.961
L318.66 349.399
L343.949 349.399
L343.949 344.836
L361.219 344.836
L361.219 340.274
L363.049 340.274
L363.049 335.712
L365.12 335.712
L365.12 331.149
L368.413 331.149
L368.413 326.587
L374.785 326.587
L374.785 322.025
L376.761 322.025
L376.761 317.462
L378.819 317.462
L378.819 312.9
L381.676 312.9
L381.676 308.337
L382.926 308.337
L382.926 303.775
L383.279 303.775
L383.279 299.213
L392.98 299.213
L392.98 294.65
L406.644 294.65
L406.644 290.088
L407.01 290.088
L407.01 285.526
L423.439 285.526
L423.439 280.963
L435.653 280.963
L435.653 276.401
L454.314 276.401
L454.314 271.838
L476.113 271.838
L476.113 267.276
L478.223 267.276
L478.223 262.714
L482.037 262.714
L482.037 258.151
L493.395 258.151
L493.395 253.589
L495.568 253.589
L495.568 249.027
L499.996 249.027
L499.996 244.464
L502.693 244.464
L502.693 239.902
L515.425 239.902" style="fill:none;stroke:#f5deb3;stroke-linecap:square;"/>
   </g>
   <g id="line2d_22">
    <path clip-path="url(#p0ab5e1e507)" d="
M918.633 358.524" style="fill:none;stroke:#f5deb3;stroke-linecap:square;"/>
   </g>
   <g id="line2d_23">
    <path clip-path="url(#p0ab5e1e507)" d="
M539.762 358.524" style="fill:none;stroke:#f5deb3;stroke-linecap:square;"/>
   </g>
   <g id="line2d_24">
    <path clip-path="url(#p0ab5e1e507)" d="
M614.112 358.524" style="fill:none;stroke:#f5deb3;stroke-linecap:square;"/>
   </g>
   <g id="line2d_25">
    <path clip-path="url(#p0ab5e1e507)" d="
M318.06 358.524
L318.06 353.961
L319.136 353.961
L319.136 349.399
L322.036 349.399
L322.036 344.836
L324.81 344.836
L324.81 340.274
L325.888 340.274
L325.888 335.712
L326.632 335.712
L326.632 331.149
L328.197 331.149
L328.197 326.587
L329.524 326.587
L329.524 322.025
L330.526 322.025
L330.526 317.462
L332.292 317.462
L332.292 312.9
L332.485 312.9
L332.485 308.337
L335.593 308.337
L335.593 303.775
L337.585 303.775
L337.585 299.213
L343.462 299.213
L343.462 294.65
L350.257 294.65
L350.257 290.088
L356.271 290.088
L356.271 285.526
L367.184 285.526
L367.184 280.963
L388.596 280.963
L388.596 276.401
L413.36 276.401
L413.36 271.838
L461.031 271.838
L461.031 267.276
L500.779 267.276
L500.779 262.714
L510.925 262.714
L510.925 258.151
L511.247 258.151
L511.247 253.589
L511.381 253.589
L511.381 249.027
L515.425 249.027
L515.425 249.027" style="fill:none;stroke:#f5deb3;stroke-linecap:square;"/>
   </g>
   <g id="line2d_26">
    <path clip-path="url(#p0ab5e1e507)" d="
M479.754 358.524
L479.754 353.961
L481.22 353.961
L481.22 349.399
L486.792 349.399
L486.792 344.836
L496.673 344.836
L496.673 340.274
L498.77 340.274
L498.77 335.712
L499.086 335.712
L499.086 331.149
L504.888 331.149
L504.888 326.587
L505.972 326.587
L505.972 322.025
L512.397 322.025
L512.397 317.462
L512.421 317.462
L512.421 312.9
L515.425 312.9" style="fill:none;stroke:#f5deb3;stroke-linecap:square;"/>
   </g>
   <g id="line2d_27">
    <path clip-path="url(#p0ab5e1e507)" d="
M375.78 358.524
L375.78 353.961
L379.615 353.961
L379.615 349.399
L383.279 349.399
L383.279 344.836
L383.455 344.836
L383.455 340.274
L384.8 340.274
L384.8 335.712
L387.534 335.712
L387.534 331.149
L393.244 331.149
L393.244 326.587
L395.431 326.587
L395.431 322.025
L395.577 322.025
L395.613 312.9
L395.903 312.9
L395.903 308.337
L396.658 308.337
L396.658 303.775
L404.716 303.775
L404.716 299.213
L405.531 299.213
L405.531 294.65
L407.345 294.65
L407.345 290.088
L412.077 290.088
L412.077 285.526
L414.915 285.526
L414.915 280.963
L427.868 280.963
L427.868 276.401
L471.361 276.401
L471.361 271.838
L479.267 271.838
L479.267 267.276
L479.387 267.276
L479.387 262.714
L484.472 262.714
L484.472 258.151
L485.719 258.151
L485.719 253.589
L486.481 253.589
L486.481 249.027
L491.519 249.027
L491.519 244.464
L491.864 244.464
L491.864 239.902
L494.191 239.902
L494.191 235.339
L496.062 235.339
L496.062 230.777
L496.399 230.777
L496.399 226.215
L499.459 226.215
L499.459 221.652
L501.27 221.652
L501.27 217.09
L502.631 217.09
L502.631 212.527
L503.17 212.527
L503.17 207.965
L508.727 207.965
L508.727 203.403
L509.847 203.403
L509.847 198.84
L513.925 198.84
L513.925 194.278
L515.425 194.278
L515.425 194.278" style="fill:none;stroke:#f5deb3;stroke-linecap:square;"/>
   </g>
   <g id="line2d_28">
    <path clip-path="url(#p0ab5e1e507)" d="
M458.471 358.524
L458.471 353.961
L464.327 353.961
L464.327 349.399
L465.743 349.399
L465.743 344.836
L468.295 344.836
L468.295 340.274
L471.575 340.274
L471.575 335.712
L473.357 335.712
L473.357 331.149
L474.611 331.149
L474.611 326.587
L480.442 326.587
L480.442 322.025
L482.094 322.025
L482.094 317.462
L487.882 317.462
L487.882 312.9
L488.317 312.9
L488.317 308.337
L489.509 308.337
L489.509 303.775
L495.024 303.775
L495.024 299.213
L515.425 299.213" style="fill:none;stroke:#f5deb3;stroke-linecap:square;"/>
   </g>
   <g id="line2d_29">
    <path clip-path="url(#p0ab5e1e507)" d="
M176.5 358.524
L176.5 353.961
L176.5 353.961
L176.5 349.399
L176.5 349.399
L176.5 344.836
L272.523 344.836
L272.523 340.274
L272.523 340.274
L272.523 335.712
L272.523 335.712
L272.523 331.149
L289.202 331.149
L289.202 326.587
L289.202 326.587
L289.202 322.025
L289.202 322.025
L289.202 317.462
L325.781 317.462
L325.781 312.9
L325.781 312.9
L325.781 308.337
L325.781 308.337
L325.781 303.775
L350.695 303.775
L350.695 299.213
L350.695 299.213
L350.695 294.65
L350.695 294.65
L350.695 290.088
L351.491 290.088
L351.491 285.526
L351.491 285.526
L351.491 280.963
L351.491 280.963
L351.491 276.401
L351.635 276.401
L351.635 271.838
L351.635 271.838
L351.635 267.276
L351.635 267.276
L351.635 262.714
L352.348 262.714
L352.348 258.151
L352.348 258.151
L352.348 253.589
L352.348 253.589
L352.348 249.027
L515.425 249.027" style="fill:none;stroke:#f5deb3;stroke-linecap:square;"/>
   </g>
   <g id="line2d_30">
    <path clip-path="url(#p0ab5e1e507)" d="
M-1 353.961
L37.6144 353.961
L37.6144 349.399
L72.4579 349.399
L72.4579 344.836
L82.423 344.836
L82.423 340.274
L105.48 340.274
L105.48 335.712
L111.642 335.712
L111.642 331.149
L117.267 331.149
L117.267 326.587
L124.881 326.587
L124.881 322.025
L148.652 322.025
L148.652 317.462
L169.689 317.462
L169.689 312.9
L178.62 312.9
L178.62 308.337
L182.662 308.337
L182.662 303.775
L192.627 303.775
L192.627 299.213
L198.252 299.213
L198.252 294.65
L200.52 294.65
L200.52 290.088
L204.133 290.088
L204.133 285.526
L204.831 285.526
L204.831 280.963
L206.207 280.963
L206.207 276.401
L207.554 276.401
L207.554 271.838
L208.217 271.838
L208.217 262.714
L208.873 262.714
L208.873 258.151
L209.523 258.151
L209.523 253.589
L210.803 253.589
L210.803 249.027
L211.434 249.027
L211.434 244.464
L212.058 244.464
L212.058 239.902
L212.677 239.902
L212.677 235.339
L213.29 235.339
L213.29 230.777
L213.897 230.777
L213.897 217.09
L214.498 217.09
L214.498 203.403
L215.094 203.403
L215.094 198.84
L215.684 198.84
L215.684 194.278
L216.269 194.278
L216.269 189.716
L216.849 189.716
L216.849 185.153
L217.424 185.153
L217.424 180.591
L219.117 180.591
L219.117 171.466
L219.672 171.466
L219.672 166.904
L220.768 166.904
L220.768 162.341
L221.845 162.341
L221.845 157.779
L222.905 157.779
L222.905 153.217
L223.429 153.217
L223.429 148.654
L225.984 148.654
L225.984 139.529
L226.483 139.529
L226.483 134.967
L227.958 134.967
L227.958 125.842
L228.442 125.842
L228.442 121.28
L229.4 121.28
L229.4 116.718
L230.344 116.718
L230.344 112.155
L231.274 112.155
L231.274 103.03
L231.734 103.03
L231.734 93.9057
L233.095 93.9057
L233.095 89.3433
L233.987 89.3433
L233.987 84.781
L234.866 84.781
L234.866 80.2186
L236.164 80.2186
L236.164 75.6562
L237.435 75.6562
L237.435 71.0938
L238.27 71.0938
L238.27 66.5315
L241.107 66.5315
L241.107 57.4067
L242.674 57.4067
L242.674 48.2819
L244.581 48.2819
L244.581 34.5948
L245.329 34.5948
L245.329 25.4701
L246.068 25.4701
L246.068 20.9077
L248.235 20.9077
L248.235 16.3453
L248.235 16.3453
L507.225 16.3453
L507.225 16.3453" style="fill:none;stroke:#000000;stroke-linecap:square;"/>
   </g>
   <g id="line2d_31"/>
   <g id="line2d_32">
    <path clip-path="url(#p0ab5e1e507)" d="
M72.4579 358.524
L72.4579 353.961
L148.652 353.961
L148.652 349.399
L163.408 349.399
L163.408 344.836
L178.62 344.836
L178.62 340.274
L208.217 340.274
L208.217 335.712
L212.058 335.712
L212.058 331.149
L213.29 331.149
L213.29 326.587
L214.498 326.587
L214.498 317.462
L215.684 317.462
L215.684 308.337
L216.269 308.337
L216.269 299.213
L216.849 299.213
L216.849 294.65
L217.424 294.65
L217.424 290.088
L218.558 290.088
L218.558 285.526
L219.672 285.526
L219.672 280.963
L222.378 280.963
L222.378 276.401
L224.974 276.401
L224.974 271.838
L226.483 271.838
L226.483 267.276
L230.344 267.276
L230.344 262.714
L231.274 262.714
L231.274 244.464
L232.645 244.464
L232.645 239.902
L233.543 239.902
L233.543 230.777
L233.987 230.777
L233.987 226.215
L235.734 226.215
L235.734 221.652
L236.164 221.652
L236.164 217.09
L236.59 217.09
L236.59 212.527
L237.854 212.527
L237.854 207.965
L239.906 207.965
L239.906 198.84
L242.674 198.84
L242.674 194.278
L243.06 194.278
L243.06 189.716
L244.205 189.716
L244.205 185.153
L244.581 185.153
L244.581 180.591
L245.699 180.591
L245.699 176.028
L247.16 176.028
L247.16 171.466
L248.589 171.466
L248.589 166.904
L249.64 166.904
L249.64 162.341
L253.682 162.341
L253.682 157.779
L254.331 157.779
L254.331 153.217
L254.975 153.217
L254.975 148.654
L261.368 148.654
L261.368 144.092
L263.085 144.092
L263.085 134.967
L269.783 134.967
L269.783 130.405
L279.893 130.405
L279.893 125.842
L283.285 125.842
L283.285 121.28
L296.837 121.28
L296.837 116.718
L305.741 116.718
L305.741 112.155
L306.466 112.155
L306.466 107.593
L306.754 107.593
L306.754 103.03
L309.29 103.03
L309.29 98.4681
L314.972 98.4681
L314.972 93.9057
L315.601 93.9057
L315.601 89.3433
L322.375 89.3433
L322.375 84.781
L326.208 84.781
L326.208 80.2186
L330.327 80.2186
L330.327 75.6562
L330.824 75.6562
L330.824 71.0938
L331.708 71.0938
L331.708 66.5315
L332.581 66.5315
L332.581 61.9691
L333.061 61.9691
L333.061 57.4067
L333.443 57.4067
L333.443 52.8443
L335.224 52.8443
L335.224 48.2819
L336.597 48.2819
L336.597 43.7196
L337.406 43.7196
L337.406 39.1572
L346.251 39.1572
L346.251 34.5948
L357.528 34.5948
L357.528 30.0324
L369.944 30.0324
L369.944 25.4701
L370.268 25.4701
L370.268 20.9077
L370.268 20.9077
L507.225 20.9077
L507.225 20.9077" style="fill:none;stroke:#00bfbf;stroke-linecap:square;"/>
   </g>
   <g id="line2d_33"/>
   <g id="line2d_34">
    <path clip-path="url(#p0ab5e1e507)" d="
M241.503 358.524
L241.503 353.961
L241.503 353.961
L241.503 353.961
L241.503 349.399
L242.674 349.399
L242.674 344.836
L244.581 344.836
L244.581 340.274
L245.329 340.274
L245.329 335.712
L245.699 335.712
L245.699 331.149
L246.068 331.149
L246.068 326.587
L247.16 326.587
L247.16 322.025
L251.016 322.025
L251.016 312.9
L253.354 312.9
L253.354 308.337
L256.555 308.337
L256.555 303.775
L257.177 303.775
L257.177 299.213
L257.485 299.213
L257.485 294.65
L259.605 294.65
L259.605 290.088
L259.902 290.088
L259.902 285.526
L262.802 285.526
L262.802 280.963
L263.366 280.963
L263.366 276.401
L267.451 276.401
L267.451 271.838
L268.498 271.838
L268.498 267.276
L268.757 267.276
L268.757 262.714
L270.29 262.714
L270.29 258.151
L270.793 258.151
L270.793 253.589
L271.292 253.589
L271.292 249.027
L282.871 249.027
L282.871 244.464
L296.837 244.464
L296.837 239.902
L334.011 239.902
L334.011 235.339
L335.593 235.339
L335.593 230.777
L340.035 230.777
L340.035 226.215
L340.803 226.215
L340.803 221.652
L341.478 221.652
L341.478 217.09
L342.229 217.09
L342.229 212.527
L343.462 212.527
L343.462 207.965
L343.625 207.965
L343.625 203.403
L345.07 203.403
L345.07 198.84
L345.624 198.84
L345.624 194.278
L347.103 194.278
L347.103 189.716
L349.073 189.716
L349.073 185.153
L350.768 185.153
L350.768 180.591
L351.85 180.591
L351.85 176.028
L352.206 176.028
L352.206 171.466
L354.374 171.466
L354.374 166.904
L354.58 166.904
L354.58 162.341
L355.262 162.341
L355.262 157.779
L356.271 157.779
L356.271 153.217
L357.331 153.217
L357.331 148.654
L359.273 148.654
L359.273 144.092
L360.285 144.092
L360.285 139.529
L362.989 139.529
L362.989 134.967
L363.289 134.967
L363.289 130.405
L366.16 130.405
L366.16 125.842
L367.014 125.842
L367.014 121.28
L368.08 121.28
L368.136 112.155
L368.799 112.155
L368.799 107.593
L369.074 107.593
L369.074 103.03
L372.954 103.03
L372.954 98.4681
L373.263 98.4681
L373.263 93.9057
L375.731 93.9057
L375.731 89.3433
L381.269 89.3433
L381.269 84.781
L385.908 84.781
L385.908 80.2186
L386.996 80.2186
L386.996 75.6562
L387.575 75.6562
L387.575 71.0938
L392.372 71.0938
L392.372 66.5315
L392.372 66.5315
L507.225 66.5315
L507.225 66.5315" style="fill:none;stroke:#bf00bf;stroke-linecap:square;"/>
   </g>
   <g id="line2d_35"/>
   <g id="line2d_36">
    <path clip-path="url(#p0ab5e1e507)" d="
M251.355 358.524
L251.355 353.961
L255.612 353.961
L255.612 349.399
L259.007 349.399
L259.007 344.836
L261.368 344.836
L261.368 340.274
L261.368 340.274
L261.368 335.712
L261.658 335.712
L261.658 331.149
L269.272 331.149
L269.272 326.587
L270.29 326.587
L270.29 322.025
L271.54 322.025
L271.54 317.462
L276.083 317.462
L276.083 312.9
L278.128 312.9
L278.128 308.337
L279.675 308.337
L279.675 303.775
L280.972 303.775
L280.972 299.213
L283.491 299.213
L283.491 294.65
L287.095 294.65
L287.095 290.088
L302.294 290.088
L302.294 285.526
L348.171 285.526
L348.171 280.963
L351.491 280.963
L351.491 276.401
L354.58 276.401
L354.58 271.838
L355.6 271.838
L355.6 267.276
L357.265 267.276
L357.265 262.714
L360.159 262.714
L360.159 258.151
L361.651 258.151
L361.651 253.589
L363.109 253.589
L363.109 249.027
L363.588 249.027
L363.588 244.464
L363.767 244.464
L363.767 239.902
L365.642 239.902
L365.642 235.339
L366.446 235.339
L366.446 230.777
L368.854 230.777
L368.854 226.215
L371.387 226.215
L371.387 221.652
L372.436 221.652
L372.436 217.09
L374.332 217.09
L374.332 212.527
L374.332 212.527
L374.332 207.965
L374.584 207.965
L374.584 203.403
L377.197 203.403
L377.197 198.84
L378.346 198.84
L378.346 194.278
L379.335 194.278
L379.335 189.716
L380.448 189.716
L380.448 185.153
L383.103 185.153
L383.103 180.591
L386.622 180.591
L386.622 176.028
L386.622 176.028
L386.622 176.028
L507.225 176.028" style="fill:none;stroke:#ff0000;stroke-linecap:square;stroke-width:3.0;"/>
   </g>
   <g id="line2d_37"/>
   <g id="line2d_38">
    <path clip-path="url(#p0ab5e1e507)" d="
M403.183 358.524
L403.183 12.9235" style="fill:none;stroke:#000000;stroke-linecap:square;"/>
   </g>
   <g id="matplotlib.axis_1">
    <g id="xtick_1">
     <g id="line2d_39">
      <path clip-path="url(#p0ab5e1e507)" d="
M105.48 358.524
L105.48 12.9235" style="fill:none;stroke:#000000;stroke-dasharray:1.000000,3.000000;stroke-dashoffset:0.0;stroke-width:0.5;"/>
     </g>
     <g id="line2d_40">
      <defs>
       <path d="
M0 0
L0 -4" id="m93b0483c22" style="stroke:#000000;stroke-width:0.5;"/>
      </defs>
      <g>
       <use style="stroke:#000000;stroke-width:0.5;" x="105.480331599" xlink:href="#m93b0483c22" y="358.523530322"/>
      </g>
     </g>
     <g id="line2d_41">
      <defs>
       <path d="
M0 0
L0 4" id="m741efc42ff" style="stroke:#000000;stroke-width:0.5;"/>
      </defs>
      <g>
       <use style="stroke:#000000;stroke-width:0.5;" x="105.480331599" xlink:href="#m741efc42ff" y="12.9235303218"/>
      </g>
     </g>
     <g id="text_1">
      <!-- 0 -->
      <defs>
       <path d="
M4.15625 35.2969
Q4.15625 48 6.76562 55.7344
Q9.375 63.4844 14.5156 67.6719
Q19.6719 71.875 27.4844 71.875
Q33.25 71.875 37.5938 69.5469
Q41.9375 67.2344 44.7656 62.8594
Q47.6094 58.5 49.2188 52.2188
Q50.8281 45.9531 50.8281 35.2969
Q50.8281 22.7031 48.2344 14.9688
Q45.6562 7.23438 40.5 3
Q35.3594 -1.21875 27.4844 -1.21875
Q17.1406 -1.21875 11.2344 6.20312
Q4.15625 15.1406 4.15625 35.2969
M13.1875 35.2969
Q13.1875 17.6719 17.3125 11.8281
Q21.4375 6 27.4844 6
Q33.5469 6 37.6719 11.8594
Q41.7969 17.7188 41.7969 35.2969
Q41.7969 52.9844 37.6719 58.7812
Q33.5469 64.5938 27.3906 64.5938
Q21.3438 64.5938 17.7188 59.4688
Q13.1875 52.9375 13.1875 35.2969" id="ArialMT-30"/>
      </defs>
      <g transform="translate(100.813144099 376.839155322)scale(0.2 -0.2)">
       <use xlink:href="#ArialMT-30"/>
      </g>
     </g>
    </g>
    <g id="xtick_2">
     <g id="line2d_42">
      <path clip-path="url(#p0ab5e1e507)" d="
M254.331 358.524
L254.331 12.9235" style="fill:none;stroke:#000000;stroke-dasharray:1.000000,3.000000;stroke-dashoffset:0.0;stroke-width:0.5;"/>
     </g>
     <g id="line2d_43">
      <g>
       <use style="stroke:#000000;stroke-width:0.5;" x="254.33143693" xlink:href="#m93b0483c22" y="358.523530322"/>
      </g>
     </g>
     <g id="line2d_44">
      <g>
       <use style="stroke:#000000;stroke-width:0.5;" x="254.33143693" xlink:href="#m741efc42ff" y="12.9235303218"/>
      </g>
     </g>
     <g id="text_2">
      <!-- 1 -->
      <defs>
       <path d="
M37.25 0
L28.4688 0
L28.4688 56
Q25.2969 52.9844 20.1406 49.9531
Q14.9844 46.9219 10.8906 45.4062
L10.8906 53.9062
Q18.2656 57.375 23.7812 62.2969
Q29.2969 67.2344 31.5938 71.875
L37.25 71.875
z
" id="ArialMT-31"/>
      </defs>
      <g transform="translate(251.69549943 376.839155322)scale(0.2 -0.2)">
       <use xlink:href="#ArialMT-31"/>
      </g>
     </g>
    </g>
    <g id="xtick_3">
     <g id="line2d_45">
      <path clip-path="url(#p0ab5e1e507)" d="
M403.183 358.524
L403.183 12.9235" style="fill:none;stroke:#000000;stroke-dasharray:1.000000,3.000000;stroke-dashoffset:0.0;stroke-width:0.5;"/>
     </g>
     <g id="line2d_46">
      <g>
       <use style="stroke:#000000;stroke-width:0.5;" x="403.182542261" xlink:href="#m93b0483c22" y="358.523530322"/>
      </g>
     </g>
     <g id="line2d_47">
      <g>
       <use style="stroke:#000000;stroke-width:0.5;" x="403.182542261" xlink:href="#m741efc42ff" y="12.9235303218"/>
      </g>
     </g>
     <g id="text_3">
      <!-- 2 -->
      <defs>
       <path d="
M50.3438 8.45312
L50.3438 0
L3.03125 0
Q2.9375 3.17188 4.04688 6.10938
Q5.85938 10.9375 9.82812 15.625
Q13.8125 20.3125 21.3438 26.4688
Q33.0156 36.0312 37.1094 41.625
Q41.2188 47.2188 41.2188 52.2031
Q41.2188 57.4219 37.4688 61
Q33.7344 64.5938 27.7344 64.5938
Q21.3906 64.5938 17.5781 60.7812
Q13.7656 56.9844 13.7188 50.25
L4.6875 51.1719
Q5.60938 61.2812 11.6562 66.5781
Q17.7188 71.875 27.9375 71.875
Q38.2344 71.875 44.2344 66.1562
Q50.25 60.4531 50.25 52
Q50.25 47.7031 48.4844 43.5469
Q46.7344 39.4062 42.6562 34.8125
Q38.5781 30.2188 29.1094 22.2188
Q21.1875 15.5781 18.9375 13.2031
Q16.7031 10.8438 15.2344 8.45312
z
" id="ArialMT-32"/>
      </defs>
      <g transform="translate(398.441917261 376.839155322)scale(0.2 -0.2)">
       <use xlink:href="#ArialMT-32"/>
      </g>
     </g>
    </g>
    <g id="xtick_4"/>
    <g id="xtick_5">
     <g id="line2d_48">
      <defs>
       <path d="
M0 0
L0 -2" id="m177f7580d0" style="stroke:#000000;stroke-width:0.5;"/>
      </defs>
      <g>
       <use style="stroke:#000000;stroke-width:0.5;" x="72.4579000026" xlink:href="#m177f7580d0" y="358.523530322"/>
      </g>
     </g>
     <g id="line2d_49">
      <defs>
       <path d="
M0 0
L0 2" id="m5284c7e2a0" style="stroke:#000000;stroke-width:0.5;"/>
      </defs>
      <g>
       <use style="stroke:#000000;stroke-width:0.5;" x="72.4579000026" xlink:href="#m5284c7e2a0" y="12.9235303218"/>
      </g>
     </g>
    </g>
    <g id="xtick_6">
     <g id="line2d_50">
      <g>
       <use style="stroke:#000000;stroke-width:0.5;" x="82.4230036375" xlink:href="#m177f7580d0" y="358.523530322"/>
      </g>
     </g>
     <g id="line2d_51">
      <g>
       <use style="stroke:#000000;stroke-width:0.5;" x="82.4230036375" xlink:href="#m5284c7e2a0" y="12.9235303218"/>
      </g>
     </g>
    </g>
    <g id="xtick_7">
     <g id="line2d_52">
      <g>
       <use style="stroke:#000000;stroke-width:0.5;" x="91.0551690454" xlink:href="#m177f7580d0" y="358.523530322"/>
      </g>
     </g>
     <g id="line2d_53">
      <g>
       <use style="stroke:#000000;stroke-width:0.5;" x="91.0551690454" xlink:href="#m5284c7e2a0" y="12.9235303218"/>
      </g>
     </g>
    </g>
    <g id="xtick_8">
     <g id="line2d_54">
      <g>
       <use style="stroke:#000000;stroke-width:0.5;" x="98.6692785522" xlink:href="#m177f7580d0" y="358.523530322"/>
      </g>
     </g>
     <g id="line2d_55">
      <g>
       <use style="stroke:#000000;stroke-width:0.5;" x="98.6692785522" xlink:href="#m5284c7e2a0" y="12.9235303218"/>
      </g>
     </g>
    </g>
    <g id="xtick_9">
     <g id="line2d_56">
      <g>
       <use style="stroke:#000000;stroke-width:0.5;" x="150.288979192" xlink:href="#m177f7580d0" y="358.523530322"/>
      </g>
     </g>
     <g id="line2d_57">
      <g>
       <use style="stroke:#000000;stroke-width:0.5;" x="150.288979192" xlink:href="#m5284c7e2a0" y="12.9235303218"/>
      </g>
     </g>
    </g>
    <g id="xtick_10">
     <g id="line2d_58">
      <g>
       <use style="stroke:#000000;stroke-width:0.5;" x="176.500357741" xlink:href="#m177f7580d0" y="358.523530322"/>
      </g>
     </g>
     <g id="line2d_59">
      <g>
       <use style="stroke:#000000;stroke-width:0.5;" x="176.500357741" xlink:href="#m5284c7e2a0" y="12.9235303218"/>
      </g>
     </g>
    </g>
    <g id="xtick_11">
     <g id="line2d_60">
      <g>
       <use style="stroke:#000000;stroke-width:0.5;" x="195.097626784" xlink:href="#m177f7580d0" y="358.523530322"/>
      </g>
     </g>
     <g id="line2d_61">
      <g>
       <use style="stroke:#000000;stroke-width:0.5;" x="195.097626784" xlink:href="#m5284c7e2a0" y="12.9235303218"/>
      </g>
     </g>
    </g>
    <g id="xtick_12">
     <g id="line2d_62">
      <g>
       <use style="stroke:#000000;stroke-width:0.5;" x="209.522789338" xlink:href="#m177f7580d0" y="358.523530322"/>
      </g>
     </g>
     <g id="line2d_63">
      <g>
       <use style="stroke:#000000;stroke-width:0.5;" x="209.522789338" xlink:href="#m5284c7e2a0" y="12.9235303218"/>
      </g>
     </g>
    </g>
    <g id="xtick_13">
     <g id="line2d_64">
      <g>
       <use style="stroke:#000000;stroke-width:0.5;" x="221.309005334" xlink:href="#m177f7580d0" y="358.523530322"/>
      </g>
     </g>
     <g id="line2d_65">
      <g>
       <use style="stroke:#000000;stroke-width:0.5;" x="221.309005334" xlink:href="#m5284c7e2a0" y="12.9235303218"/>
      </g>
     </g>
    </g>
    <g id="xtick_14">
     <g id="line2d_66">
      <g>
       <use style="stroke:#000000;stroke-width:0.5;" x="231.274108969" xlink:href="#m177f7580d0" y="358.523530322"/>
      </g>
     </g>
     <g id="line2d_67">
      <g>
       <use style="stroke:#000000;stroke-width:0.5;" x="231.274108969" xlink:href="#m5284c7e2a0" y="12.9235303218"/>
      </g>
     </g>
    </g>
    <g id="xtick_15">
     <g id="line2d_68">
      <g>
       <use style="stroke:#000000;stroke-width:0.5;" x="239.906274376" xlink:href="#m177f7580d0" y="358.523530322"/>
      </g>
     </g>
     <g id="line2d_69">
      <g>
       <use style="stroke:#000000;stroke-width:0.5;" x="239.906274376" xlink:href="#m5284c7e2a0" y="12.9235303218"/>
      </g>
     </g>
    </g>
    <g id="xtick_16">
     <g id="line2d_70">
      <g>
       <use style="stroke:#000000;stroke-width:0.5;" x="247.520383883" xlink:href="#m177f7580d0" y="358.523530322"/>
      </g>
     </g>
     <g id="line2d_71">
      <g>
       <use style="stroke:#000000;stroke-width:0.5;" x="247.520383883" xlink:href="#m5284c7e2a0" y="12.9235303218"/>
      </g>
     </g>
    </g>
    <g id="xtick_17">
     <g id="line2d_72">
      <g>
       <use style="stroke:#000000;stroke-width:0.5;" x="299.140084523" xlink:href="#m177f7580d0" y="358.523530322"/>
      </g>
     </g>
     <g id="line2d_73">
      <g>
       <use style="stroke:#000000;stroke-width:0.5;" x="299.140084523" xlink:href="#m5284c7e2a0" y="12.9235303218"/>
      </g>
     </g>
    </g>
    <g id="xtick_18">
     <g id="line2d_74">
      <g>
       <use style="stroke:#000000;stroke-width:0.5;" x="325.351463072" xlink:href="#m177f7580d0" y="358.523530322"/>
      </g>
     </g>
     <g id="line2d_75">
      <g>
       <use style="stroke:#000000;stroke-width:0.5;" x="325.351463072" xlink:href="#m5284c7e2a0" y="12.9235303218"/>
      </g>
     </g>
    </g>
    <g id="xtick_19">
     <g id="line2d_76">
      <g>
       <use style="stroke:#000000;stroke-width:0.5;" x="343.948732115" xlink:href="#m177f7580d0" y="358.523530322"/>
      </g>
     </g>
     <g id="line2d_77">
      <g>
       <use style="stroke:#000000;stroke-width:0.5;" x="343.948732115" xlink:href="#m5284c7e2a0" y="12.9235303218"/>
      </g>
     </g>
    </g>
    <g id="xtick_20">
     <g id="line2d_78">
      <g>
       <use style="stroke:#000000;stroke-width:0.5;" x="358.373894669" xlink:href="#m177f7580d0" y="358.523530322"/>
      </g>
     </g>
     <g id="line2d_79">
      <g>
       <use style="stroke:#000000;stroke-width:0.5;" x="358.373894669" xlink:href="#m5284c7e2a0" y="12.9235303218"/>
      </g>
     </g>
    </g>
    <g id="xtick_21">
     <g id="line2d_80">
      <g>
       <use style="stroke:#000000;stroke-width:0.5;" x="370.160110665" xlink:href="#m177f7580d0" y="358.523530322"/>
      </g>
     </g>
     <g id="line2d_81">
      <g>
       <use style="stroke:#000000;stroke-width:0.5;" x="370.160110665" xlink:href="#m5284c7e2a0" y="12.9235303218"/>
      </g>
     </g>
    </g>
    <g id="xtick_22">
     <g id="line2d_82">
      <g>
       <use style="stroke:#000000;stroke-width:0.5;" x="380.1252143" xlink:href="#m177f7580d0" y="358.523530322"/>
      </g>
     </g>
     <g id="line2d_83">
      <g>
       <use style="stroke:#000000;stroke-width:0.5;" x="380.1252143" xlink:href="#m5284c7e2a0" y="12.9235303218"/>
      </g>
     </g>
    </g>
    <g id="xtick_23">
     <g id="line2d_84">
      <g>
       <use style="stroke:#000000;stroke-width:0.5;" x="388.757379707" xlink:href="#m177f7580d0" y="358.523530322"/>
      </g>
     </g>
     <g id="line2d_85">
      <g>
       <use style="stroke:#000000;stroke-width:0.5;" x="388.757379707" xlink:href="#m5284c7e2a0" y="12.9235303218"/>
      </g>
     </g>
    </g>
    <g id="xtick_24">
     <g id="line2d_86">
      <g>
       <use style="stroke:#000000;stroke-width:0.5;" x="396.371489214" xlink:href="#m177f7580d0" y="358.523530322"/>
      </g>
     </g>
     <g id="line2d_87">
      <g>
       <use style="stroke:#000000;stroke-width:0.5;" x="396.371489214" xlink:href="#m5284c7e2a0" y="12.9235303218"/>
      </g>
     </g>
    </g>
    <g id="xtick_25">
     <g id="line2d_88">
      <g>
       <use style="stroke:#000000;stroke-width:0.5;" x="447.991189854" xlink:href="#m177f7580d0" y="358.523530322"/>
      </g>
     </g>
     <g id="line2d_89">
      <g>
       <use style="stroke:#000000;stroke-width:0.5;" x="447.991189854" xlink:href="#m5284c7e2a0" y="12.9235303218"/>
      </g>
     </g>
    </g>
    <g id="xtick_26">
     <g id="line2d_90">
      <g>
       <use style="stroke:#000000;stroke-width:0.5;" x="474.202568403" xlink:href="#m177f7580d0" y="358.523530322"/>
      </g>
     </g>
     <g id="line2d_91">
      <g>
       <use style="stroke:#000000;stroke-width:0.5;" x="474.202568403" xlink:href="#m5284c7e2a0" y="12.9235303218"/>
      </g>
     </g>
    </g>
    <g id="xtick_27">
     <g id="line2d_92">
      <g>
       <use style="stroke:#000000;stroke-width:0.5;" x="492.799837446" xlink:href="#m177f7580d0" y="358.523530322"/>
      </g>
     </g>
     <g id="line2d_93">
      <g>
       <use style="stroke:#000000;stroke-width:0.5;" x="492.799837446" xlink:href="#m5284c7e2a0" y="12.9235303218"/>
      </g>
     </g>
    </g>
    <g id="xtick_28">
     <g id="line2d_94">
      <g>
       <use style="stroke:#000000;stroke-width:0.5;" x="507.225" xlink:href="#m177f7580d0" y="358.523530322"/>
      </g>
     </g>
     <g id="line2d_95">
      <g>
       <use style="stroke:#000000;stroke-width:0.5;" x="507.225" xlink:href="#m5284c7e2a0" y="12.9235303218"/>
      </g>
     </g>
    </g>
    <g id="text_4">
     <!-- log10 of FEvals / DIM -->
     <defs>
      <path d="
M9.32812 0
L9.32812 71.5781
L18.7969 71.5781
L18.7969 0
z
" id="ArialMT-49"/>
      <path d="
M40.4375 6.39062
Q35.5469 2.25 31.0312 0.53125
Q26.5156 -1.17188 21.3438 -1.17188
Q12.7969 -1.17188 8.20312 3
Q3.60938 7.17188 3.60938 13.6719
Q3.60938 17.4844 5.34375 20.625
Q7.07812 23.7812 9.89062 25.6875
Q12.7031 27.5938 16.2188 28.5625
Q18.7969 29.25 24.0312 29.8906
Q34.6719 31.1562 39.7031 32.9062
Q39.75 34.7188 39.75 35.2031
Q39.75 40.5781 37.25 42.7812
Q33.8906 45.75 27.25 45.75
Q21.0469 45.75 18.0938 43.5781
Q15.1406 41.4062 13.7188 35.8906
L5.125 37.0625
Q6.29688 42.5781 8.98438 45.9688
Q11.6719 49.3594 16.75 51.1875
Q21.8281 53.0312 28.5156 53.0312
Q35.1562 53.0312 39.2969 51.4688
Q43.4531 49.9062 45.4062 47.5312
Q47.3594 45.1719 48.1406 41.5469
Q48.5781 39.3125 48.5781 33.4531
L48.5781 21.7344
Q48.5781 9.46875 49.1406 6.21875
Q49.7031 2.98438 51.375 0
L42.1875 0
Q40.8281 2.73438 40.4375 6.39062
M39.7031 26.0312
Q34.9062 24.0781 25.3438 22.7031
Q19.9219 21.9219 17.6719 20.9375
Q15.4375 19.9688 14.2031 18.0938
Q12.9844 16.2188 12.9844 13.9219
Q12.9844 10.4062 15.6406 8.0625
Q18.3125 5.71875 23.4375 5.71875
Q28.5156 5.71875 32.4688 7.9375
Q36.4219 10.1562 38.2812 14.0156
Q39.7031 17 39.7031 22.7969
z
" id="ArialMT-61"/>
      <path d="
M4.98438 -4.29688
L13.5312 -5.5625
Q14.0625 -9.51562 16.5 -11.3281
Q19.7812 -13.7656 25.4375 -13.7656
Q31.5469 -13.7656 34.8594 -11.3281
Q38.1875 -8.89062 39.3594 -4.5
Q40.0469 -1.8125 39.9844 6.78125
Q34.2344 0 25.6406 0
Q14.9375 0 9.07812 7.71875
Q3.21875 15.4375 3.21875 26.2188
Q3.21875 33.6406 5.90625 39.9062
Q8.59375 46.1875 13.6875 49.6094
Q18.7969 53.0312 25.6875 53.0312
Q34.8594 53.0312 40.8281 45.6094
L40.8281 51.8594
L48.9219 51.8594
L48.9219 7.03125
Q48.9219 -5.07812 46.4531 -10.125
Q44 -15.1875 38.6406 -18.1094
Q33.2969 -21.0469 25.4844 -21.0469
Q16.2188 -21.0469 10.5 -16.875
Q4.78125 -12.7031 4.98438 -4.29688
M12.25 26.8594
Q12.25 16.6562 16.2969 11.9688
Q20.3594 7.28125 26.4688 7.28125
Q32.5156 7.28125 36.6094 11.9375
Q40.7188 16.6094 40.7188 26.5625
Q40.7188 36.0781 36.5 40.9062
Q32.2812 45.75 26.3125 45.75
Q20.4531 45.75 16.3438 40.9844
Q12.25 36.2344 12.25 26.8594" id="ArialMT-67"/>
      <path d="
M8.6875 0
L8.6875 45.0156
L0.921875 45.0156
L0.921875 51.8594
L8.6875 51.8594
L8.6875 57.375
Q8.6875 62.5938 9.625 65.1406
Q10.8906 68.5625 14.0781 70.6719
Q17.2812 72.7969 23.0469 72.7969
Q26.7656 72.7969 31.25 71.9219
L29.9375 64.2656
Q27.2031 64.75 24.75 64.75
Q20.75 64.75 19.0938 63.0312
Q17.4375 61.3281 17.4375 56.6406
L17.4375 51.8594
L27.5469 51.8594
L27.5469 45.0156
L17.4375 45.0156
L17.4375 0
z
" id="ArialMT-66"/>
      <path d="
M0 -1.21875
L20.75 72.7969
L27.7812 72.7969
L7.07812 -1.21875
z
" id="ArialMT-2f"/>
      <path d="
M21 0
L1.26562 51.8594
L10.5469 51.8594
L21.6875 20.7969
Q23.4844 15.7656 25 10.3594
Q26.1719 14.4531 28.2656 20.2188
L39.7969 51.8594
L48.8281 51.8594
L29.2031 0
z
" id="ArialMT-76"/>
      <path d="
M7.90625 0
L7.90625 71.5781
L59.6719 71.5781
L59.6719 63.1406
L17.3906 63.1406
L17.3906 41.2188
L56.9844 41.2188
L56.9844 32.8125
L17.3906 32.8125
L17.3906 8.45312
L61.3281 8.45312
L61.3281 0
z
" id="ArialMT-45"/>
      <path d="
M7.71875 0
L7.71875 71.5781
L32.375 71.5781
Q40.7188 71.5781 45.125 70.5625
Q51.2656 69.1406 55.6094 65.4375
Q61.2812 60.6406 64.0781 53.1875
Q66.8906 45.75 66.8906 36.1875
Q66.8906 28.0312 64.9844 21.7344
Q63.0938 15.4375 60.1094 11.2969
Q57.125 7.17188 53.5781 4.79688
Q50.0469 2.4375 45.0469 1.21875
Q40.0469 0 33.5469 0
z

M17.1875 8.45312
L32.4688 8.45312
Q39.5469 8.45312 43.5781 9.76562
Q47.6094 11.0781 50 13.4844
Q53.375 16.8438 55.25 22.5312
Q57.125 28.2188 57.125 36.3281
Q57.125 47.5625 53.4375 53.5938
Q49.75 59.625 44.4844 61.6719
Q40.6719 63.1406 32.2344 63.1406
L17.1875 63.1406
z
" id="ArialMT-44"/>
      <path d="
M8.20312 0
L8.20312 71.5781
L56.5 71.5781
L56.5 63.1406
L17.6719 63.1406
L17.6719 40.9688
L51.2656 40.9688
L51.2656 32.5156
L17.6719 32.5156
L17.6719 0
z
" id="ArialMT-46"/>
      <path d="
M6.39062 0
L6.39062 71.5781
L15.1875 71.5781
L15.1875 0
z
" id="ArialMT-6c"/>
      <path d="
M3.32812 25.9219
Q3.32812 40.3281 11.3281 47.2656
Q18.0156 53.0312 27.6406 53.0312
Q38.3281 53.0312 45.1094 46.0156
Q51.9062 39.0156 51.9062 26.6562
Q51.9062 16.6562 48.9062 10.9062
Q45.9062 5.17188 40.1562 2
Q34.4219 -1.17188 27.6406 -1.17188
Q16.75 -1.17188 10.0312 5.8125
Q3.32812 12.7969 3.32812 25.9219
M12.3594 25.9219
Q12.3594 15.9688 16.7031 11.0156
Q21.0469 6.0625 27.6406 6.0625
Q34.1875 6.0625 38.5312 11.0312
Q42.875 16.0156 42.875 26.2188
Q42.875 35.8438 38.5 40.7969
Q34.125 45.75 27.6406 45.75
Q21.0469 45.75 16.7031 40.8125
Q12.3594 35.8906 12.3594 25.9219" id="ArialMT-6f"/>
      <path d="
M3.07812 15.4844
L11.7656 16.8438
Q12.5 11.625 15.8438 8.84375
Q19.1875 6.0625 25.2031 6.0625
Q31.25 6.0625 34.1719 8.51562
Q37.1094 10.9844 37.1094 14.3125
Q37.1094 17.2812 34.5156 19
Q32.7188 20.1719 25.5312 21.9688
Q15.875 24.4219 12.1406 26.2031
Q8.40625 27.9844 6.46875 31.125
Q4.54688 34.2812 4.54688 38.0938
Q4.54688 41.5469 6.125 44.5
Q7.71875 47.4688 10.4531 49.4219
Q12.5 50.9219 16.0312 51.9688
Q19.5781 53.0312 23.6406 53.0312
Q29.7344 53.0312 34.3438 51.2656
Q38.9688 49.5156 41.1562 46.5
Q43.3594 43.5 44.1875 38.4844
L35.5938 37.3125
Q35.0156 41.3125 32.2031 43.5469
Q29.3906 45.7969 24.2656 45.7969
Q18.2188 45.7969 15.625 43.7969
Q13.0312 41.7969 13.0312 39.1094
Q13.0312 37.4062 14.1094 36.0312
Q15.1875 34.625 17.4844 33.6875
Q18.7969 33.2031 25.25 31.4531
Q34.5781 28.9531 38.25 27.3594
Q41.9375 25.7812 44.0312 22.75
Q46.1406 19.7344 46.1406 15.2344
Q46.1406 10.8438 43.5781 6.95312
Q41.0156 3.07812 36.1719 0.953125
Q31.3438 -1.17188 25.25 -1.17188
Q15.1406 -1.17188 9.84375 3.03125
Q4.54688 7.23438 3.07812 15.4844" id="ArialMT-73"/>
      <path d="
M7.42188 0
L7.42188 71.5781
L21.6875 71.5781
L38.625 20.9062
Q40.9688 13.8125 42.0469 10.2969
Q43.2656 14.2031 45.8438 21.7812
L62.9844 71.5781
L75.7344 71.5781
L75.7344 0
L66.6094 0
L66.6094 59.9062
L45.7969 0
L37.25 0
L16.5469 60.9375
L16.5469 0
z
" id="ArialMT-4d"/>
      <path id="ArialMT-20"/>
     </defs>
     <g transform="translate(189.1953125 400.373530322)scale(0.2 -0.2)">
      <use xlink:href="#ArialMT-6c"/>
      <use x="22.216796875" xlink:href="#ArialMT-6f"/>
      <use x="77.83203125" xlink:href="#ArialMT-67"/>
      <use x="133.447265625" xlink:href="#ArialMT-31"/>
      <use x="189.0625" xlink:href="#ArialMT-30"/>
      <use x="244.677734375" xlink:href="#ArialMT-20"/>
      <use x="272.4609375" xlink:href="#ArialMT-6f"/>
      <use x="328.076171875" xlink:href="#ArialMT-66"/>
      <use x="355.859375" xlink:href="#ArialMT-20"/>
      <use x="383.642578125" xlink:href="#ArialMT-46"/>
      <use x="444.7265625" xlink:href="#ArialMT-45"/>
      <use x="511.42578125" xlink:href="#ArialMT-76"/>
      <use x="561.42578125" xlink:href="#ArialMT-61"/>
      <use x="617.041015625" xlink:href="#ArialMT-6c"/>
      <use x="639.2578125" xlink:href="#ArialMT-73"/>
      <use x="689.2578125" xlink:href="#ArialMT-20"/>
      <use x="717.041015625" xlink:href="#ArialMT-2f"/>
      <use x="744.82421875" xlink:href="#ArialMT-20"/>
      <use x="772.607421875" xlink:href="#ArialMT-44"/>
      <use x="844.82421875" xlink:href="#ArialMT-49"/>
      <use x="872.607421875" xlink:href="#ArialMT-4d"/>
     </g>
    </g>
   </g>
   <g id="matplotlib.axis_2">
    <g id="ytick_1">
     <g id="line2d_96">
      <path clip-path="url(#p0ab5e1e507)" d="
M60.825 358.524
L507.225 358.524" style="fill:none;stroke:#000000;stroke-dasharray:1.000000,3.000000;stroke-dashoffset:0.0;stroke-width:0.5;"/>
     </g>
     <g id="line2d_97">
      <defs>
       <path d="
M0 0
L4 0" id="m728421d6d4" style="stroke:#000000;stroke-width:0.5;"/>
      </defs>
      <g>
       <use style="stroke:#000000;stroke-width:0.5;" x="60.825" xlink:href="#m728421d6d4" y="358.523530322"/>
      </g>
     </g>
     <g id="line2d_98">
      <defs>
       <path d="
M0 0
L-4 0" id="mcb0005524f" style="stroke:#000000;stroke-width:0.5;"/>
      </defs>
      <g>
       <use style="stroke:#000000;stroke-width:0.5;" x="507.225" xlink:href="#mcb0005524f" y="358.523530322"/>
      </g>
     </g>
     <g id="text_5">
      <!-- 0.0 -->
      <defs>
       <path d="
M9.07812 0
L9.07812 10.0156
L19.0938 10.0156
L19.0938 0
z
" id="ArialMT-2e"/>
      </defs>
      <g transform="translate(30.8125 363.693842822)scale(0.2 -0.2)">
       <use xlink:href="#ArialMT-30"/>
       <use x="55.615234375" xlink:href="#ArialMT-2e"/>
       <use x="83.3984375" xlink:href="#ArialMT-30"/>
      </g>
     </g>
    </g>
    <g id="ytick_2">
     <g id="line2d_99">
      <path clip-path="url(#p0ab5e1e507)" d="
M60.825 290.088
L507.225 290.088" style="fill:none;stroke:#000000;stroke-dasharray:1.000000,3.000000;stroke-dashoffset:0.0;stroke-width:0.5;"/>
     </g>
     <g id="line2d_100">
      <g>
       <use style="stroke:#000000;stroke-width:0.5;" x="60.825" xlink:href="#m728421d6d4" y="290.087886757"/>
      </g>
     </g>
     <g id="line2d_101">
      <g>
       <use style="stroke:#000000;stroke-width:0.5;" x="507.225" xlink:href="#mcb0005524f" y="290.087886757"/>
      </g>
     </g>
     <g id="text_6">
      <!-- 0.2 -->
      <g transform="translate(30.909375 295.258199257)scale(0.2 -0.2)">
       <use xlink:href="#ArialMT-30"/>
       <use x="55.615234375" xlink:href="#ArialMT-2e"/>
       <use x="83.3984375" xlink:href="#ArialMT-32"/>
      </g>
     </g>
    </g>
    <g id="ytick_3">
     <g id="line2d_102">
      <path clip-path="url(#p0ab5e1e507)" d="
M60.825 221.652
L507.225 221.652" style="fill:none;stroke:#000000;stroke-dasharray:1.000000,3.000000;stroke-dashoffset:0.0;stroke-width:0.5;"/>
     </g>
     <g id="line2d_103">
      <g>
       <use style="stroke:#000000;stroke-width:0.5;" x="60.825" xlink:href="#m728421d6d4" y="221.652243193"/>
      </g>
     </g>
     <g id="line2d_104">
      <g>
       <use style="stroke:#000000;stroke-width:0.5;" x="507.225" xlink:href="#mcb0005524f" y="221.652243193"/>
      </g>
     </g>
     <g id="text_7">
      <!-- 0.4 -->
      <defs>
       <path d="
M32.3281 0
L32.3281 17.1406
L1.26562 17.1406
L1.26562 25.2031
L33.9375 71.5781
L41.1094 71.5781
L41.1094 25.2031
L50.7812 25.2031
L50.7812 17.1406
L41.1094 17.1406
L41.1094 0
z

M32.3281 25.2031
L32.3281 57.4688
L9.90625 25.2031
z
" id="ArialMT-34"/>
      </defs>
      <g transform="translate(30.821875 226.822555693)scale(0.2 -0.2)">
       <use xlink:href="#ArialMT-30"/>
       <use x="55.615234375" xlink:href="#ArialMT-2e"/>
       <use x="83.3984375" xlink:href="#ArialMT-34"/>
      </g>
     </g>
    </g>
    <g id="ytick_4">
     <g id="line2d_105">
      <path clip-path="url(#p0ab5e1e507)" d="
M60.825 153.217
L507.225 153.217" style="fill:none;stroke:#000000;stroke-dasharray:1.000000,3.000000;stroke-dashoffset:0.0;stroke-width:0.5;"/>
     </g>
     <g id="line2d_106">
      <g>
       <use style="stroke:#000000;stroke-width:0.5;" x="60.825" xlink:href="#m728421d6d4" y="153.216599629"/>
      </g>
     </g>
     <g id="line2d_107">
      <g>
       <use style="stroke:#000000;stroke-width:0.5;" x="507.225" xlink:href="#mcb0005524f" y="153.216599629"/>
      </g>
     </g>
     <g id="text_8">
      <!-- 0.6 -->
      <defs>
       <path d="
M49.75 54.0469
L41.0156 53.375
Q39.8438 58.5469 37.7031 60.8906
Q34.125 64.6562 28.9062 64.6562
Q24.7031 64.6562 21.5312 62.3125
Q17.3906 59.2812 14.9844 53.4688
Q12.5938 47.6562 12.5 36.9219
Q15.6719 41.75 20.2656 44.0938
Q24.8594 46.4375 29.8906 46.4375
Q38.6719 46.4375 44.8438 39.9688
Q51.0312 33.5 51.0312 23.25
Q51.0312 16.5 48.125 10.7188
Q45.2188 4.9375 40.1406 1.85938
Q35.0625 -1.21875 28.6094 -1.21875
Q17.625 -1.21875 10.6875 6.85938
Q3.76562 14.9375 3.76562 33.5
Q3.76562 54.25 11.4219 63.6719
Q18.1094 71.875 29.4375 71.875
Q37.8906 71.875 43.2812 67.1406
Q48.6875 62.4062 49.75 54.0469
M13.875 23.1875
Q13.875 18.6562 15.7969 14.5
Q17.7188 10.3594 21.1875 8.17188
Q24.6562 6 28.4688 6
Q34.0312 6 38.0312 10.4844
Q42.0469 14.9844 42.0469 22.7031
Q42.0469 30.125 38.0781 34.3906
Q34.125 38.6719 28.125 38.6719
Q22.1719 38.6719 18.0156 34.3906
Q13.875 30.125 13.875 23.1875" id="ArialMT-36"/>
      </defs>
      <g transform="translate(30.771875 158.386912129)scale(0.2 -0.2)">
       <use xlink:href="#ArialMT-30"/>
       <use x="55.615234375" xlink:href="#ArialMT-2e"/>
       <use x="83.3984375" xlink:href="#ArialMT-36"/>
      </g>
     </g>
    </g>
    <g id="ytick_5">
     <g id="line2d_108">
      <path clip-path="url(#p0ab5e1e507)" d="
M60.825 84.781
L507.225 84.781" style="fill:none;stroke:#000000;stroke-dasharray:1.000000,3.000000;stroke-dashoffset:0.0;stroke-width:0.5;"/>
     </g>
     <g id="line2d_109">
      <g>
       <use style="stroke:#000000;stroke-width:0.5;" x="60.825" xlink:href="#m728421d6d4" y="84.7809560644"/>
      </g>
     </g>
     <g id="line2d_110">
      <g>
       <use style="stroke:#000000;stroke-width:0.5;" x="507.225" xlink:href="#mcb0005524f" y="84.7809560644"/>
      </g>
     </g>
     <g id="text_9">
      <!-- 0.8 -->
      <defs>
       <path d="
M17.6719 38.8125
Q12.2031 40.8281 9.5625 44.5312
Q6.9375 48.25 6.9375 53.4219
Q6.9375 61.2344 12.5469 66.5469
Q18.1719 71.875 27.4844 71.875
Q36.8594 71.875 42.5781 66.4219
Q48.2969 60.9844 48.2969 53.1719
Q48.2969 48.1875 45.6719 44.5
Q43.0625 40.8281 37.75 38.8125
Q44.3438 36.6719 47.7812 31.875
Q51.2188 27.0938 51.2188 20.4531
Q51.2188 11.2812 44.7188 5.03125
Q38.2344 -1.21875 27.6406 -1.21875
Q17.0469 -1.21875 10.5469 5.04688
Q4.04688 11.3281 4.04688 20.7031
Q4.04688 27.6875 7.59375 32.3906
Q11.1406 37.1094 17.6719 38.8125
M15.9219 53.7188
Q15.9219 48.6406 19.1875 45.4062
Q22.4688 42.1875 27.6875 42.1875
Q32.7656 42.1875 36.0156 45.375
Q39.2656 48.5781 39.2656 53.2188
Q39.2656 58.0625 35.9062 61.3594
Q32.5625 64.6562 27.5938 64.6562
Q22.5625 64.6562 19.2344 61.4219
Q15.9219 58.2031 15.9219 53.7188
M13.0938 20.6562
Q13.0938 16.8906 14.875 13.375
Q16.6562 9.85938 20.1719 7.92188
Q23.6875 6 27.7344 6
Q34.0312 6 38.125 10.0469
Q42.2344 14.1094 42.2344 20.3594
Q42.2344 26.7031 38.0156 30.8594
Q33.7969 35.0156 27.4375 35.0156
Q21.2344 35.0156 17.1562 30.9062
Q13.0938 26.8125 13.0938 20.6562" id="ArialMT-38"/>
      </defs>
      <g transform="translate(30.734375 89.9512685644)scale(0.2 -0.2)">
       <use xlink:href="#ArialMT-30"/>
       <use x="55.615234375" xlink:href="#ArialMT-2e"/>
       <use x="83.3984375" xlink:href="#ArialMT-38"/>
      </g>
     </g>
    </g>
    <g id="ytick_6">
     <g id="line2d_111">
      <path clip-path="url(#p0ab5e1e507)" d="
M60.825 16.3453
L507.225 16.3453" style="fill:none;stroke:#000000;stroke-dasharray:1.000000,3.000000;stroke-dashoffset:0.0;stroke-width:0.5;"/>
     </g>
     <g id="line2d_112">
      <g>
       <use style="stroke:#000000;stroke-width:0.5;" x="60.825" xlink:href="#m728421d6d4" y="16.3453125"/>
      </g>
     </g>
     <g id="line2d_113">
      <g>
       <use style="stroke:#000000;stroke-width:0.5;" x="507.225" xlink:href="#mcb0005524f" y="16.3453125"/>
      </g>
     </g>
     <g id="text_10">
      <!-- 1.0 -->
      <g transform="translate(32.159375 21.515625)scale(0.2 -0.2)">
       <use xlink:href="#ArialMT-31"/>
       <use x="55.615234375" xlink:href="#ArialMT-2e"/>
       <use x="83.3984375" xlink:href="#ArialMT-30"/>
      </g>
     </g>
    </g>
    <g id="text_11">
     <!-- proportion of trials -->
     <defs>
      <path d="
M25.7812 7.85938
L27.0469 0.09375
Q23.3438 -0.6875 20.4062 -0.6875
Q15.625 -0.6875 12.9844 0.828125
Q10.3594 2.34375 9.28125 4.8125
Q8.20312 7.28125 8.20312 15.1875
L8.20312 45.0156
L1.76562 45.0156
L1.76562 51.8594
L8.20312 51.8594
L8.20312 64.7031
L16.9375 69.9688
L16.9375 51.8594
L25.7812 51.8594
L25.7812 45.0156
L16.9375 45.0156
L16.9375 14.7031
Q16.9375 10.9375 17.4062 9.85938
Q17.875 8.79688 18.9219 8.15625
Q19.9688 7.51562 21.9219 7.51562
Q23.3906 7.51562 25.7812 7.85938" id="ArialMT-74"/>
      <path d="
M6.64062 61.4688
L6.64062 71.5781
L15.4375 71.5781
L15.4375 61.4688
z

M6.64062 0
L6.64062 51.8594
L15.4375 51.8594
L15.4375 0
z
" id="ArialMT-69"/>
      <path d="
M6.59375 -19.875
L6.59375 51.8594
L14.5938 51.8594
L14.5938 45.125
Q17.4375 49.0781 21 51.0469
Q24.5625 53.0312 29.6406 53.0312
Q36.2812 53.0312 41.3594 49.6094
Q46.4375 46.1875 49.0156 39.9531
Q51.6094 33.7344 51.6094 26.3125
Q51.6094 18.3594 48.75 11.9844
Q45.9062 5.60938 40.4531 2.21875
Q35.0156 -1.17188 29 -1.17188
Q24.6094 -1.17188 21.1094 0.6875
Q17.625 2.54688 15.375 5.375
L15.375 -19.875
z

M14.5469 25.6406
Q14.5469 15.625 18.5938 10.8438
Q22.6562 6.0625 28.4219 6.0625
Q34.2812 6.0625 38.4531 11.0156
Q42.625 15.9688 42.625 26.375
Q42.625 36.2812 38.5469 41.2031
Q34.4688 46.1406 28.8125 46.1406
Q23.1875 46.1406 18.8594 40.8906
Q14.5469 35.6406 14.5469 25.6406" id="ArialMT-70"/>
      <path d="
M6.59375 0
L6.59375 51.8594
L14.5 51.8594
L14.5 44.4844
Q20.2188 53.0312 31 53.0312
Q35.6875 53.0312 39.625 51.3438
Q43.5625 49.6562 45.5156 46.9219
Q47.4688 44.1875 48.25 40.4375
Q48.7344 37.9844 48.7344 31.8906
L48.7344 0
L39.9375 0
L39.9375 31.5469
Q39.9375 36.9219 38.9062 39.5781
Q37.8906 42.2344 35.2812 43.8125
Q32.6719 45.4062 29.1562 45.4062
Q23.5312 45.4062 19.4531 41.8438
Q15.375 38.2812 15.375 28.3281
L15.375 0
z
" id="ArialMT-6e"/>
      <path d="
M6.5 0
L6.5 51.8594
L14.4062 51.8594
L14.4062 44
Q17.4375 49.5156 20 51.2656
Q22.5625 53.0312 25.6406 53.0312
Q30.0781 53.0312 34.6719 50.2031
L31.6406 42.0469
Q28.4219 43.9531 25.2031 43.9531
Q22.3125 43.9531 20.0156 42.2188
Q17.7188 40.4844 16.75 37.4062
Q15.2812 32.7188 15.2812 27.1562
L15.2812 0
z
" id="ArialMT-72"/>
     </defs>
     <g transform="translate(21.759375 265.370405322)rotate(-90.0)scale(0.2 -0.2)">
      <use xlink:href="#ArialMT-70"/>
      <use x="55.615234375" xlink:href="#ArialMT-72"/>
      <use x="88.916015625" xlink:href="#ArialMT-6f"/>
      <use x="144.53125" xlink:href="#ArialMT-70"/>
      <use x="200.146484375" xlink:href="#ArialMT-6f"/>
      <use x="255.76171875" xlink:href="#ArialMT-72"/>
      <use x="289.0625" xlink:href="#ArialMT-74"/>
      <use x="316.845703125" xlink:href="#ArialMT-69"/>
      <use x="339.0625" xlink:href="#ArialMT-6f"/>
      <use x="394.677734375" xlink:href="#ArialMT-6e"/>
      <use x="450.29296875" xlink:href="#ArialMT-20"/>
      <use x="478.076171875" xlink:href="#ArialMT-6f"/>
      <use x="533.69140625" xlink:href="#ArialMT-66"/>
      <use x="561.474609375" xlink:href="#ArialMT-20"/>
      <use x="589.2578125" xlink:href="#ArialMT-74"/>
      <use x="617.041015625" xlink:href="#ArialMT-72"/>
      <use x="650.341796875" xlink:href="#ArialMT-69"/>
      <use x="672.55859375" xlink:href="#ArialMT-61"/>
      <use x="728.173828125" xlink:href="#ArialMT-6c"/>
      <use x="750.390625" xlink:href="#ArialMT-73"/>
     </g>
    </g>
   </g>
   <g id="patch_3">
    <path d="
M60.825 12.9235
L507.225 12.9235" style="fill:none;stroke:#000000;"/>
   </g>
   <g id="patch_4">
    <path d="
M507.225 358.524
L507.225 12.9235" style="fill:none;stroke:#000000;"/>
   </g>
   <g id="patch_5">
    <path d="
M60.825 358.524
L507.225 358.524" style="fill:none;stroke:#000000;"/>
   </g>
   <g id="patch_6">
    <path d="
M60.825 358.524
L60.825 12.9235" style="fill:none;stroke:#000000;"/>
   </g>
   <g id="text_12">
    <!-- {f20-f24}, 20-D -->
    <defs>
     <path d="
M30.5625 29.8906
L30.5625 21.9219
Q26.8125 21.8281 24.4375 19.875
Q22.0781 17.9219 21.2969 14.5781
Q20.5156 11.2344 20.4531 3.07812
Q20.4062 -5.07812 20.1719 -7.67188
Q19.7344 -11.8125 18.5312 -14.2812
Q17.3281 -16.75 15.5625 -18.2344
Q13.8125 -19.7344 11.0781 -20.5156
Q9.23438 -21.0469 5.03125 -21.0469
L2.29688 -21.0469
L2.29688 -13.375
L3.8125 -13.375
Q8.89062 -13.375 10.5469 -11.5469
Q12.2031 -9.71875 12.2031 -3.32812
Q12.2031 8.89062 12.6406 12.1562
Q13.4219 17.5781 15.7656 20.8281
Q18.1094 24.0781 22.4062 25.875
Q16.7969 28.5625 14.5 32.9844
Q12.2031 37.4062 12.2031 47.9062
Q12.2031 57.4219 11.9688 59.2812
Q11.625 62.5469 10.0312 63.8438
Q8.45312 65.1406 3.8125 65.1406
L2.29688 65.1406
L2.29688 72.7969
L5.03125 72.7969
Q9.8125 72.7969 11.9688 72.0156
Q15.0938 70.9531 17.1406 68.4062
Q19.1875 65.875 19.7969 62.0156
Q20.4062 58.1562 20.4531 49.3594
Q20.5156 40.5781 21.2969 37.2344
Q22.0781 33.8906 24.4375 31.9375
Q26.8125 29.9844 30.5625 29.8906" id="ArialMT-7d"/>
     <path d="
M3.17188 21.4844
L3.17188 30.3281
L30.1719 30.3281
L30.1719 21.4844
z
" id="ArialMT-2d"/>
     <path d="
M8.89062 0
L8.89062 10.0156
L18.8906 10.0156
L18.8906 0
Q18.8906 -5.51562 16.9375 -8.90625
Q14.9844 -12.3125 10.75 -14.1562
L8.29688 -10.4062
Q11.0781 -9.1875 12.3906 -6.8125
Q13.7188 -4.4375 13.875 0
z
" id="ArialMT-2c"/>
     <path d="
M2.78125 29.8906
Q6.54688 29.9844 8.90625 31.9062
Q11.2812 33.8438 12.0625 37.2031
Q12.8438 40.5781 12.8906 48.7344
Q12.9375 56.8906 13.1875 59.4688
Q13.625 63.5781 14.8125 66.0625
Q16.0156 68.5625 17.7656 70.0469
Q19.5312 71.5312 22.2656 72.3125
Q24.125 72.7969 28.3281 72.7969
L31.0625 72.7969
L31.0625 65.1406
L29.5469 65.1406
Q24.4688 65.1406 22.7969 63.2969
Q21.1406 61.4688 21.1406 55.125
Q21.1406 42.3281 20.6094 38.9688
Q19.7344 33.7344 17.6094 30.9062
Q15.4844 28.0781 10.9375 25.875
Q16.3125 23.6406 18.7188 19.0156
Q21.1406 14.4062 21.1406 3.90625
Q21.1406 -5.60938 21.3438 -7.42188
Q21.7344 -10.75 23.3125 -12.0625
Q24.9062 -13.375 29.5469 -13.375
L31.0625 -13.375
L31.0625 -21.0469
L28.3281 -21.0469
Q23.5312 -21.0469 21.3906 -20.2656
Q18.2656 -19.1406 16.2031 -16.625
Q14.1562 -14.1094 13.5469 -10.25
Q12.9375 -6.39062 12.8906 2.39062
Q12.8438 11.1875 12.0625 14.5469
Q11.2812 17.9219 8.90625 19.875
Q6.54688 21.8281 2.78125 21.9219
z
" id="ArialMT-7b"/>
    </defs>
    <g transform="translate(219.5171875 34.3949053218)scale(0.2 -0.2)">
     <use xlink:href="#ArialMT-7b"/>
     <use x="33.3984375" xlink:href="#ArialMT-66"/>
     <use x="61.181640625" xlink:href="#ArialMT-32"/>
     <use x="116.796875" xlink:href="#ArialMT-30"/>
     <use x="172.412109375" xlink:href="#ArialMT-2d"/>
     <use x="205.712890625" xlink:href="#ArialMT-66"/>
     <use x="233.49609375" xlink:href="#ArialMT-32"/>
     <use x="289.111328125" xlink:href="#ArialMT-34"/>
     <use x="344.7265625" xlink:href="#ArialMT-7d"/>
     <use x="378.125" xlink:href="#ArialMT-2c"/>
     <use x="405.908203125" xlink:href="#ArialMT-20"/>
     <use x="433.69140625" xlink:href="#ArialMT-32"/>
     <use x="489.306640625" xlink:href="#ArialMT-30"/>
     <use x="544.921875" xlink:href="#ArialMT-2d"/>
     <use x="578.22265625" xlink:href="#ArialMT-44"/>
    </g>
   </g>
   <g id="text_13">
    <!-- reference budgets from refalgs/best2009-bbob.tar.gz -->
    <defs>
     <path d="
M40.4375 19
L49.0781 17.875
Q47.6562 8.9375 41.8125 3.875
Q35.9844 -1.17188 27.4844 -1.17188
Q16.8438 -1.17188 10.375 5.78125
Q3.90625 12.75 3.90625 25.7344
Q3.90625 34.125 6.6875 40.4219
Q9.46875 46.7344 15.1562 49.875
Q20.8438 53.0312 27.5469 53.0312
Q35.9844 53.0312 41.3594 48.75
Q46.7344 44.4844 48.25 36.625
L39.7031 35.2969
Q38.4844 40.5312 35.375 43.1562
Q32.2812 45.7969 27.875 45.7969
Q21.2344 45.7969 17.0781 41.0312
Q12.9375 36.2812 12.9375 25.9844
Q12.9375 15.5312 16.9375 10.7969
Q20.9531 6.0625 27.3906 6.0625
Q32.5625 6.0625 36.0312 9.23438
Q39.5 12.4062 40.4375 19" id="ArialMT-63"/>
     <path d="
M14.7031 0
L6.54688 0
L6.54688 71.5781
L15.3281 71.5781
L15.3281 46.0469
Q20.9062 53.0312 29.5469 53.0312
Q34.3281 53.0312 38.5938 51.0938
Q42.875 49.1719 45.625 45.6719
Q48.3906 42.1875 49.9531 37.25
Q51.5156 32.3281 51.5156 26.7031
Q51.5156 13.375 44.9219 6.09375
Q38.3281 -1.17188 29.1094 -1.17188
Q19.9219 -1.17188 14.7031 6.5
z

M14.5938 26.3125
Q14.5938 17 17.1406 12.8438
Q21.2969 6.0625 28.375 6.0625
Q34.125 6.0625 38.3281 11.0625
Q42.5312 16.0625 42.5312 25.9844
Q42.5312 36.1406 38.5 40.9688
Q34.4688 45.7969 28.7656 45.7969
Q23 45.7969 18.7969 40.7969
Q14.5938 35.7969 14.5938 26.3125" id="ArialMT-62"/>
     <path d="
M42.0938 16.7031
L51.1719 15.5781
Q49.0312 7.625 43.2188 3.21875
Q37.4062 -1.17188 28.375 -1.17188
Q17 -1.17188 10.3281 5.82812
Q3.65625 12.8438 3.65625 25.4844
Q3.65625 38.5781 10.3906 45.7969
Q17.1406 53.0312 27.875 53.0312
Q38.2812 53.0312 44.875 45.9531
Q51.4688 38.875 51.4688 26.0312
Q51.4688 25.25 51.4219 23.6875
L12.75 23.6875
Q13.2344 15.1406 17.5781 10.5938
Q21.9219 6.0625 28.4219 6.0625
Q33.25 6.0625 36.6719 8.59375
Q40.0938 11.1406 42.0938 16.7031
M13.2344 30.9062
L42.1875 30.9062
Q41.6094 37.4531 38.875 40.7188
Q34.6719 45.7969 27.9844 45.7969
Q21.9219 45.7969 17.7969 41.75
Q13.6719 37.7031 13.2344 30.9062" id="ArialMT-65"/>
     <path d="
M40.2344 0
L40.2344 6.54688
Q35.2969 -1.17188 25.7344 -1.17188
Q19.5312 -1.17188 14.3281 2.25
Q9.125 5.67188 6.26562 11.7969
Q3.42188 17.9219 3.42188 25.875
Q3.42188 33.6406 6 39.9688
Q8.59375 46.2969 13.7656 49.6562
Q18.9531 53.0312 25.3438 53.0312
Q30.0312 53.0312 33.6875 51.0469
Q37.3594 49.0781 39.6562 45.9062
L39.6562 71.5781
L48.3906 71.5781
L48.3906 0
z

M12.4531 25.875
Q12.4531 15.9219 16.6406 10.9844
Q20.8438 6.0625 26.5625 6.0625
Q32.3281 6.0625 36.3438 10.7656
Q40.375 15.4844 40.375 25.1406
Q40.375 35.7969 36.2656 40.7656
Q32.1719 45.75 26.1719 45.75
Q20.3125 45.75 16.375 40.9688
Q12.4531 36.1875 12.4531 25.875" id="ArialMT-64"/>
     <path d="
M40.5781 0
L40.5781 7.625
Q34.5156 -1.17188 24.125 -1.17188
Q19.5312 -1.17188 15.5469 0.578125
Q11.5781 2.34375 9.64062 5
Q7.71875 7.67188 6.9375 11.5312
Q6.39062 14.1094 6.39062 19.7344
L6.39062 51.8594
L15.1875 51.8594
L15.1875 23.0938
Q15.1875 16.2188 15.7188 13.8125
Q16.5469 10.3594 19.2344 8.375
Q21.9219 6.39062 25.875 6.39062
Q29.8281 6.39062 33.2969 8.42188
Q36.7656 10.4531 38.2031 13.9375
Q39.6562 17.4375 39.6562 24.0781
L39.6562 51.8594
L48.4375 51.8594
L48.4375 0
z
" id="ArialMT-75"/>
     <path d="
M5.46875 16.5469
L13.9219 17.3281
Q14.9844 11.375 18.0156 8.6875
Q21.0469 6 25.7812 6
Q29.8281 6 32.875 7.85938
Q35.9375 9.71875 37.8906 12.8125
Q39.8438 15.9219 41.1562 21.1875
Q42.4844 26.4688 42.4844 31.9375
Q42.4844 32.5156 42.4375 33.6875
Q39.7969 29.5 35.2344 26.875
Q30.6719 24.2656 25.3438 24.2656
Q16.4531 24.2656 10.2969 30.7031
Q4.15625 37.1562 4.15625 47.7031
Q4.15625 58.5938 10.5781 65.2344
Q17 71.875 26.6562 71.875
Q33.6406 71.875 39.4219 68.1094
Q45.2188 64.3594 48.2188 57.3906
Q51.2188 50.4375 51.2188 37.25
Q51.2188 23.5312 48.2344 15.4062
Q45.2656 7.28125 39.375 3.03125
Q33.5 -1.21875 25.5938 -1.21875
Q17.1875 -1.21875 11.8594 3.4375
Q6.54688 8.10938 5.46875 16.5469
M41.4531 48.1406
Q41.4531 55.7188 37.4219 60.1562
Q33.4062 64.5938 27.7344 64.5938
Q21.875 64.5938 17.5312 59.8125
Q13.1875 55.0312 13.1875 47.4062
Q13.1875 40.5781 17.3125 36.2969
Q21.4375 32.0312 27.4844 32.0312
Q33.5938 32.0312 37.5156 36.2969
Q41.4531 40.5781 41.4531 48.1406" id="ArialMT-39"/>
     <path d="
M6.59375 0
L6.59375 51.8594
L14.4531 51.8594
L14.4531 44.5781
Q16.8906 48.3906 20.9375 50.7031
Q25 53.0312 30.1719 53.0312
Q35.9375 53.0312 39.625 50.6406
Q43.3125 48.25 44.8281 43.9531
Q50.9844 53.0312 60.8438 53.0312
Q68.5625 53.0312 72.7031 48.75
Q76.8594 44.4844 76.8594 35.5938
L76.8594 0
L68.1094 0
L68.1094 32.6719
Q68.1094 37.9375 67.25 40.25
Q66.4062 42.5781 64.1562 43.9844
Q61.9219 45.4062 58.8906 45.4062
Q53.4219 45.4062 49.7969 41.7656
Q46.1875 38.1406 46.1875 30.125
L46.1875 0
L37.4062 0
L37.4062 33.6875
Q37.4062 39.5469 35.25 42.4688
Q33.1094 45.4062 28.2188 45.4062
Q24.5156 45.4062 21.3594 43.4531
Q18.2188 41.5 16.7969 37.7344
Q15.375 33.9844 15.375 26.9062
L15.375 0
z
" id="ArialMT-6d"/>
     <path d="
M1.95312 0
L1.95312 7.125
L34.9688 45.0156
Q29.3438 44.7344 25.0469 44.7344
L3.90625 44.7344
L3.90625 51.8594
L46.2969 51.8594
L46.2969 46.0469
L18.2188 13.1406
L12.7969 7.125
Q18.7031 7.5625 23.875 7.5625
L47.8594 7.5625
L47.8594 0
z
" id="ArialMT-7a"/>
    </defs>
    <g transform="translate(60.825 358.523530322)scale(0.14 -0.14)">
     <use xlink:href="#ArialMT-72"/>
     <use x="33.30078125" xlink:href="#ArialMT-65"/>
     <use x="88.916015625" xlink:href="#ArialMT-66"/>
     <use x="116.69921875" xlink:href="#ArialMT-65"/>
     <use x="172.314453125" xlink:href="#ArialMT-72"/>
     <use x="205.615234375" xlink:href="#ArialMT-65"/>
     <use x="261.23046875" xlink:href="#ArialMT-6e"/>
     <use x="316.845703125" xlink:href="#ArialMT-63"/>
     <use x="366.845703125" xlink:href="#ArialMT-65"/>
     <use x="422.4609375" xlink:href="#ArialMT-20"/>
     <use x="450.244140625" xlink:href="#ArialMT-62"/>
     <use x="505.859375" xlink:href="#ArialMT-75"/>
     <use x="561.474609375" xlink:href="#ArialMT-64"/>
     <use x="617.08984375" xlink:href="#ArialMT-67"/>
     <use x="672.705078125" xlink:href="#ArialMT-65"/>
     <use x="728.3203125" xlink:href="#ArialMT-74"/>
     <use x="756.103515625" xlink:href="#ArialMT-73"/>
     <use x="806.103515625" xlink:href="#ArialMT-20"/>
     <use x="833.88671875" xlink:href="#ArialMT-66"/>
     <use x="861.669921875" xlink:href="#ArialMT-72"/>
     <use x="894.970703125" xlink:href="#ArialMT-6f"/>
     <use x="950.5859375" xlink:href="#ArialMT-6d"/>
     <use x="1033.88671875" xlink:href="#ArialMT-20"/>
     <use x="1061.66992188" xlink:href="#ArialMT-72"/>
     <use x="1094.97070312" xlink:href="#ArialMT-65"/>
     <use x="1150.5859375" xlink:href="#ArialMT-66"/>
     <use x="1178.36914062" xlink:href="#ArialMT-61"/>
     <use x="1233.984375" xlink:href="#ArialMT-6c"/>
     <use x="1256.20117188" xlink:href="#ArialMT-67"/>
     <use x="1311.81640625" xlink:href="#ArialMT-73"/>
     <use x="1361.81640625" xlink:href="#ArialMT-2f"/>
     <use x="1389.59960938" xlink:href="#ArialMT-62"/>
     <use x="1445.21484375" xlink:href="#ArialMT-65"/>
     <use x="1500.83007812" xlink:href="#ArialMT-73"/>
     <use x="1550.83007812" xlink:href="#ArialMT-74"/>
     <use x="1578.61328125" xlink:href="#ArialMT-32"/>
     <use x="1634.22851562" xlink:href="#ArialMT-30"/>
     <use x="1689.84375" xlink:href="#ArialMT-30"/>
     <use x="1745.45898438" xlink:href="#ArialMT-39"/>
     <use x="1801.07421875" xlink:href="#ArialMT-2d"/>
     <use x="1834.375" xlink:href="#ArialMT-62"/>
     <use x="1889.99023438" xlink:href="#ArialMT-62"/>
     <use x="1945.60546875" xlink:href="#ArialMT-6f"/>
     <use x="2001.22070312" xlink:href="#ArialMT-62"/>
     <use x="2056.8359375" xlink:href="#ArialMT-2e"/>
     <use x="2084.61914062" xlink:href="#ArialMT-74"/>
     <use x="2112.40234375" xlink:href="#ArialMT-61"/>
     <use x="2168.01757812" xlink:href="#ArialMT-72"/>
     <use x="2195.81835938" xlink:href="#ArialMT-2e"/>
     <use x="2223.6015625" xlink:href="#ArialMT-67"/>
     <use x="2279.21679688" xlink:href="#ArialMT-7a"/>
    </g>
   </g>
   <g id="text_14">
    <!-- v2.0.1 -->
    <g style="fill:#808080;" transform="translate(271.38671875 353.080030322)scale(0.1 -0.1)">
     <use xlink:href="#ArialMT-76"/>
     <use x="50.0" xlink:href="#ArialMT-32"/>
     <use x="105.615234375" xlink:href="#ArialMT-2e"/>
     <use x="133.3984375" xlink:href="#ArialMT-30"/>
     <use x="189.013671875" xlink:href="#ArialMT-2e"/>
     <use x="216.796875" xlink:href="#ArialMT-31"/>
    </g>
   </g>
   <g id="legend_1">
    <g id="patch_7">
     <path d="
M70.825 142.086
L208.738 142.086
L208.738 22.9235
L70.825 22.9235
L70.825 142.086
z
" style="fill:#ffffff;opacity:0.2;stroke:#000000;"/>
    </g>
    <g id="line2d_114">
     <path d="
M84.825 38.2392
L112.825 38.2392" style="fill:none;stroke:#000000;stroke-linecap:square;"/>
    </g>
    <g id="line2d_115"/>
    <g id="text_15">
     <!-- 0.5: 5/5 -->
     <defs>
      <path d="
M9.03125 41.8438
L9.03125 51.8594
L19.0469 51.8594
L19.0469 41.8438
z

M9.03125 0
L9.03125 10.0156
L19.0469 10.0156
L19.0469 0
z
" id="ArialMT-3a"/>
      <path d="
M4.15625 18.75
L13.375 19.5312
Q14.4062 12.7969 18.1406 9.39062
Q21.875 6 27.1562 6
Q33.5 6 37.8906 10.7812
Q42.2812 15.5781 42.2812 23.4844
Q42.2812 31 38.0625 35.3438
Q33.8438 39.7031 27 39.7031
Q22.75 39.7031 19.3281 37.7656
Q15.9219 35.8438 13.9688 32.7656
L5.71875 33.8438
L12.6406 70.6094
L48.25 70.6094
L48.25 62.2031
L19.6719 62.2031
L15.8281 42.9688
Q22.2656 47.4688 29.3438 47.4688
Q38.7188 47.4688 45.1562 40.9688
Q51.6094 34.4688 51.6094 24.2656
Q51.6094 14.5469 45.9531 7.46875
Q39.0625 -1.21875 27.1562 -1.21875
Q17.3906 -1.21875 11.2031 4.25
Q5.03125 9.71875 4.15625 18.75" id="ArialMT-35"/>
     </defs>
     <g transform="translate(134.825 45.2391553218)scale(0.2 -0.2)">
      <use xlink:href="#ArialMT-30"/>
      <use x="55.615234375" xlink:href="#ArialMT-2e"/>
      <use x="83.3984375" xlink:href="#ArialMT-35"/>
      <use x="139.013671875" xlink:href="#ArialMT-3a"/>
      <use x="166.796875" xlink:href="#ArialMT-20"/>
      <use x="194.580078125" xlink:href="#ArialMT-35"/>
      <use x="250.1953125" xlink:href="#ArialMT-2f"/>
      <use x="277.978515625" xlink:href="#ArialMT-35"/>
     </g>
    </g>
    <g id="line2d_116">
     <path d="
M84.825 66.5298
L112.825 66.5298" style="fill:none;stroke:#00bfbf;stroke-linecap:square;"/>
    </g>
    <g id="line2d_117"/>
    <g id="text_16">
     <!-- 2: 5/5 -->
     <g transform="translate(134.825 73.5297803218)scale(0.2 -0.2)">
      <use xlink:href="#ArialMT-32"/>
      <use x="55.615234375" xlink:href="#ArialMT-3a"/>
      <use x="83.3984375" xlink:href="#ArialMT-20"/>
      <use x="111.181640625" xlink:href="#ArialMT-35"/>
      <use x="166.796875" xlink:href="#ArialMT-2f"/>
      <use x="194.580078125" xlink:href="#ArialMT-35"/>
     </g>
    </g>
    <g id="line2d_118">
     <path d="
M84.825 94.8204
L112.825 94.8204" style="fill:none;stroke:#bf00bf;stroke-linecap:square;"/>
    </g>
    <g id="line2d_119"/>
    <g id="text_17">
     <!-- 10: 5/5 -->
     <g transform="translate(134.825 101.820405322)scale(0.2 -0.2)">
      <use xlink:href="#ArialMT-31"/>
      <use x="55.615234375" xlink:href="#ArialMT-30"/>
      <use x="111.23046875" xlink:href="#ArialMT-3a"/>
      <use x="139.013671875" xlink:href="#ArialMT-20"/>
      <use x="166.796875" xlink:href="#ArialMT-35"/>
      <use x="222.412109375" xlink:href="#ArialMT-2f"/>
      <use x="250.1953125" xlink:href="#ArialMT-35"/>
     </g>
    </g>
    <g id="line2d_120">
     <path d="
M84.825 123.111
L112.825 123.111" style="fill:none;stroke:#ff0000;stroke-linecap:square;stroke-width:3.0;"/>
    </g>
    <g id="line2d_121"/>
    <g id="text_18">
     <!-- 50: 4/5 -->
     <g transform="translate(134.825 130.111030322)scale(0.2 -0.2)">
      <use xlink:href="#ArialMT-35"/>
      <use x="55.615234375" xlink:href="#ArialMT-30"/>
      <use x="111.23046875" xlink:href="#ArialMT-3a"/>
      <use x="139.013671875" xlink:href="#ArialMT-20"/>
      <use x="166.796875" xlink:href="#ArialMT-34"/>
      <use x="222.412109375" xlink:href="#ArialMT-2f"/>
      <use x="250.1953125" xlink:href="#ArialMT-35"/>
     </g>
    </g>
   </g>
  </g>
 </g>
 <defs>
  <clipPath id="p0ab5e1e507">
   <rect height="345.6" width="446.4" x="60.825" y="12.9235303218"/>
  </clipPath>
 </defs>
</svg>
