<?xml version="1.0" encoding="utf-8" standalone="no"?>
<!DOCTYPE svg PUBLIC "-//W3C//DTD SVG 1.1//EN"
  "http://www.w3.org/Graphics/SVG/1.1/DTD/svg11.dtd">
<!-- Created with matplotlib (http://matplotlib.org/) -->
<svg height="411pt" version="1.1" viewBox="0 0 514 411" width="514pt" xmlns="http://www.w3.org/2000/svg" xmlns:xlink="http://www.w3.org/1999/xlink">
 <defs>
  <style type="text/css">
*{stroke-linecap:butt;stroke-linejoin:round;}
  </style>
 </defs>
 <g id="figure_1">
  <g id="patch_1">
   <path d="
M0 411.783
L514.425 411.783
L514.425 0
L0 0
z
" style="fill:#ffffff;"/>
  </g>
  <g id="axes_1">
   <g id="patch_2">
    <path d="
M60.825 358.524
L507.225 358.524
L507.225 12.9235
L60.825 12.9235
z
" style="fill:#ffffff;"/>
   </g>
   <g id="line2d_1">
    <path clip-path="url(#p0ab5e1e507)" d="
M391.757 358.524
L391.757 353.961
L392.98 353.961
L392.98 349.399
L393.282 349.399
L393.282 344.836
L393.583 344.836
L393.583 340.274
L394.328 340.274
L394.328 335.712
L396.801 335.712
L396.801 331.149
L398.769 331.149
L398.769 326.587
L400.274 326.587
L400.274 322.025
L400.946 322.025
L400.946 317.462
L401.347 317.462
L401.347 312.9
L401.877 312.9
L401.877 308.337
L402.402 308.337
L402.402 303.775
L403.698 303.775
L403.698 299.213
L403.826 299.213
L403.826 294.65
L404.336 294.65
L404.336 290.088
L406.705 290.088
L406.705 285.526
L406.949 285.526
L406.949 280.963
L408.754 280.963
L408.754 276.401
L408.99 276.401
L408.99 271.838
L410.393 271.838
L410.393 267.276
L411.198 267.276
L411.198 262.714
L413.992 262.714
L413.992 258.151
L414.536 258.151
L414.536 253.589
L415.184 253.589
L415.184 249.027
L417.711 249.027
L417.711 244.464
L418.02 244.464
L418.02 239.902
L420.54 239.902
L420.639 230.777
L422.487 230.777
L422.487 226.215
L422.774 226.215
L422.774 221.652
L423.345 221.652
L423.345 217.09
L423.722 217.09
L423.722 212.527
L424.191 212.527
L424.191 207.965
L424.377 207.965
L424.377 203.403
L425.394 203.403
L425.394 198.84
L426.485 198.84
L426.485 194.278
L427.558 194.278
L427.558 189.716
L428 189.716
L428 185.153
L428.439 185.153
L428.439 176.028
L428.875 176.028
L428.875 171.466
L429.909 171.466
L429.909 166.904
L430.165 166.904
L430.165 162.341
L440.094 162.341
L440.094 157.779
L440.748 157.779
L440.748 153.217
L443.161 153.217
L443.161 148.654
L444.607 148.654
L444.607 144.092
L445.217 144.092
L445.217 139.529
L446.355 139.529
L446.355 134.967
L448.378 134.967
L448.378 130.405
L449.335 130.405
L449.335 125.842
L451.084 125.842
L451.084 121.28
L453.74 121.28
L453.74 116.718
L456.857 116.718
L456.857 112.155
L458.855 112.155
L458.855 107.593
L461.11 107.593
L461.11 103.03
L467.869 103.03
L467.869 98.4681
L476.322 98.4681
L476.322 93.9057
L485.665 93.9057
L485.665 89.3433
L488.421 89.3433
L488.421 84.781
L489.654 84.781
L489.654 80.2186
L494.805 80.2186
L494.805 75.6562
L503.032 75.6562
L503.032 71.0938
L503.032 71.0938
L507.225 71.0938
L507.225 71.0938" style="fill:none;stroke:#f5deb3;stroke-linecap:square;"/>
   </g>
   <g id="line2d_2">
    <path clip-path="url(#p0ab5e1e507)" d="
M363.349 358.524
L363.349 353.961
L363.588 353.961
L363.588 349.399
L365.931 349.399
L365.931 344.836
L367.296 344.836
L367.296 340.274
L369.944 340.274
L369.944 335.712
L371.229 335.712
L371.229 331.149
L376.906 331.149
L376.906 326.587
L380.125 326.587
L380.125 322.025
L408.038 322.025
L408.038 317.462
L413.111 317.462
L413.111 312.9
L413.553 312.9
L413.553 308.337
L416.037 308.337
L416.037 303.775
L419.644 303.775
L419.644 299.213
L423.534 299.213
L423.534 294.65
L426.214 294.65
L426.214 290.088
L430.335 290.088
L430.335 285.526
L431.514 285.526
L431.514 280.963
L432.671 280.963
L432.671 276.401
L434.049 276.401
L434.049 271.838
L435.162 271.838
L435.162 267.276
L435.79 267.276
L435.79 262.714
L436.874 262.714
L436.874 258.151
L438.466 258.151
L438.466 253.589
L438.765 253.589
L438.765 249.027
L438.914 249.027
L438.914 244.464
L441.036 244.464
L441.036 239.902
L442.178 239.902
L442.178 235.339
L443.369 235.339
L443.369 230.777
L444.129 230.777
L444.129 226.215
L447.732 226.215
L447.732 221.652
L448.954 221.652
L448.954 217.09
L450.09 217.09
L450.09 212.527
L450.651 212.527
L450.713 203.403
L450.899 203.403
L450.899 198.84
L451.207 198.84
L451.207 194.278
L451.514 194.278
L451.514 189.716
L454.329 189.716
L454.329 185.153
L454.504 185.153
L454.504 180.591
L455.433 180.591
L455.433 176.028
L456.177 176.028
L456.234 166.904
L456.631 166.904
L456.631 162.341
L457.697 162.341
L457.697 157.779
L458.416 157.779
L458.416 153.217
L459.073 153.217
L459.073 148.654
L461.793 148.654
L461.793 144.092
L461.949 144.092
L461.949 139.529
L462.623 139.529
L462.623 134.967
L463.899 134.967
L464 121.28
L464.151 121.28
L464.151 116.718
L465.398 116.718
L465.447 107.593
L467.007 107.593
L467.007 103.03
L471.564 103.03
L471.564 98.4681
L472.941 98.4681
L472.941 93.9057
L473.16 93.9057
L473.16 89.3433
L475.016 89.3433
L475.016 84.781
L475.483 84.781
L475.483 80.2186
L476.155 80.2186
L476.155 75.6562
L477.398 75.6562
L477.398 71.0938
L477.888 71.0938
L477.888 66.5315
L478.455 66.5315
L478.455 61.9691
L480.364 61.9691
L480.364 57.4067
L480.56 57.4067
L480.56 52.8443
L482.711 52.8443
L482.711 48.2819
L483.76 48.2819
L483.76 43.7196
L486.383 43.7196
L486.383 39.1572
L495.18 39.1572
L495.18 34.5948
L498.696 34.5948
L498.696 30.0324
L501.128 30.0324
L501.128 25.4701
L506.13 25.4701
L506.13 20.9077
L508.251 20.9077
L508.251 16.3453
L508.251 16.3453" style="fill:none;stroke:#f5deb3;stroke-linecap:square;"/>
   </g>
   <g id="line2d_3">
    <path clip-path="url(#p0ab5e1e507)" d="
M380.125 358.524
L380.125 353.961
L381.042 353.961
L381.042 349.399
L385.1 349.399
L385.1 344.836
L388.757 344.836
L388.757 340.274
L389.401 340.274
L389.401 335.712
L392.372 335.712
L392.372 331.149
L397.228 331.149
L397.228 326.587
L397.792 326.587
L397.792 322.025
L397.933 322.025
L397.933 317.462
L398.213 317.462
L398.213 312.9
L400.138 312.9
L400.138 308.337
L403.053 308.337
L403.053 303.775
L404.716 303.775
L404.716 299.213
L405.594 299.213
L405.594 294.65
L408.754 294.65
L408.754 290.088
L408.99 290.088
L408.99 285.526
L410.393 285.526
L410.393 280.963
L410.509 280.963
L410.509 276.401
L411.312 276.401
L411.312 271.838
L412.777 271.838
L412.777 267.276
L415.719 267.276
L415.719 262.714
L419.141 262.714
L419.141 258.151
L428.264 258.151
L428.264 253.589
L430.759 253.589
L430.759 249.027
L432.425 249.027
L432.425 244.464
L432.916 244.464
L432.916 239.902
L433.888 239.902
L433.888 235.339
L436.489 235.339
L436.566 226.215
L437.027 226.215
L437.027 221.652
L437.18 221.652
L437.18 217.09
L437.485 217.09
L437.485 212.527
L438.391 212.527
L438.391 207.965
L440.964 207.965
L440.964 203.403
L442.249 203.403
L442.249 198.84
L446.883 198.84
L446.883 194.278
L447.797 194.278
L447.797 189.716
L449.081 189.716
L449.081 185.153
L449.271 185.153
L449.271 180.591
L450.464 180.591
L450.464 176.028
L451.636 176.028
L451.636 171.466
L453.026 171.466
L453.026 162.341
L453.443 162.341
L453.503 153.217
L459.019 153.217
L459.019 148.654
L459.724 148.654
L459.724 144.092
L461.793 144.092
L461.845 134.967
L462.105 134.967
L462.157 125.842
L462.261 125.842
L462.313 116.718
L462.829 116.718
L462.829 112.155
L463.747 112.155
L463.747 107.593
L464.252 107.593
L464.252 103.03
L464.952 103.03
L464.952 98.4681
L465.595 98.4681
L465.595 93.9057
L466.378 93.9057
L466.378 89.3433
L468.484 89.3433
L468.484 84.781
L469.418 84.781
L469.418 80.2186
L470.796 80.2186
L470.796 75.6562
L471.113 75.6562
L471.113 71.0938
L471.294 71.0938
L471.339 61.9691
L473.028 61.9691
L473.028 57.4067
L473.378 57.4067
L473.378 52.8443
L477.192 52.8443
L477.192 48.2819
L479.058 48.2819
L479.058 43.7196
L484.719 43.7196
L484.719 39.1572
L485.737 39.1572
L485.737 34.5948
L487.865 34.5948
L487.865 30.0324
L490.864 30.0324
L490.864 25.4701
L515.425 25.4701
L515.425 25.4701" style="fill:none;stroke:#f5deb3;stroke-linecap:square;"/>
   </g>
   <g id="line2d_4">
    <path clip-path="url(#p0ab5e1e507)" d="
M505.203 358.524
L505.203 353.961
L515.425 353.961" style="fill:none;stroke:#f5deb3;stroke-linecap:square;"/>
   </g>
   <g id="line2d_5">
    <path clip-path="url(#p0ab5e1e507)" d="
M402.923 358.524
L402.923 344.836
L446.022 344.836
L446.022 331.149
L448.12 331.149
L448.12 317.462
L491.921 317.462
L491.921 303.775
L513.621 303.775
L513.621 290.088
L515.425 290.088" style="fill:none;stroke:#f5deb3;stroke-linecap:square;"/>
   </g>
   <g id="line2d_6">
    <path clip-path="url(#p0ab5e1e507)" d="
M425.577 358.524
L425.577 353.961
L484.057 353.961
L484.057 344.836
L490.697 344.836
L490.731 335.712
L492.378 335.712
L492.378 331.149
L496.628 331.149
L496.628 326.587
L496.901 326.587
L496.932 317.462
L497.083 317.462
L497.083 312.9
L498.755 312.9
L498.785 303.775
L500.328 303.775
L500.414 290.088
L500.986 290.088
L500.986 285.526
L501.694 285.526
L501.779 276.401
L503.06 276.401
L503.06 271.838
L503.554 271.838
L503.582 262.714
L504.478 262.714
L504.532 249.027
L505.919 249.027
L505.919 244.464
L507.044 244.464
L507.121 235.339
L508.758 235.339
L508.758 230.777
L508.985 230.777
L508.985 226.215
L509.511 226.215
L509.561 217.09
L510.206 217.09
L510.206 212.527
L510.943 212.527
L511.016 203.403
L511.187 203.403
L511.26 194.278
L511.526 194.278
L511.526 189.716
L511.96 189.716
L512.008 171.466
L512.248 171.466
L512.248 166.904
L512.558 166.904
L512.558 162.341
L513.269 162.341
L513.269 157.779
L514.828 157.779
L514.828 153.217
L515.425 153.217
L515.425 153.217" style="fill:none;stroke:#f5deb3;stroke-linecap:square;"/>
   </g>
   <g id="line2d_7">
    <path clip-path="url(#p0ab5e1e507)" d="
M304.711 358.524
L304.711 353.961
L326.632 353.961
L326.632 349.399
L329.118 349.399
L329.118 340.274
L384.929 340.274
L384.929 335.712
L407.918 335.712
L407.918 331.149
L419.443 331.149
L419.443 326.587
L419.644 326.587
L419.644 322.025
L422.295 322.025
L422.295 317.462
L427.024 317.462
L427.024 312.9
L429.994 312.9
L429.994 308.337
L430.759 308.337
L430.759 303.775
L436.874 303.775
L436.874 299.213
L445.082 299.213
L445.082 294.65
L456.006 294.65
L456.006 290.088
L456.97 290.088
L456.97 285.526
L459.616 285.526
L459.616 280.963
L460.952 280.963
L460.952 276.401
L465.001 276.401
L465.001 271.838
L465.693 271.838
L465.693 267.276
L468.484 267.276
L468.484 262.714
L473.204 262.714
L473.204 258.151
L474.803 258.151
L474.803 253.589
L476.113 253.589
L476.113 249.027
L478.576 249.027
L478.576 244.464
L479.456 244.464
L479.456 239.902
L481.027 239.902
L481.027 235.339
L484.426 235.339
L484.426 230.777
L490.228 230.777
L490.228 226.215
L503.964 226.215
L503.964 221.652
L504.586 221.652
L504.586 217.09
L506.13 217.09
L506.13 212.527
L506.549 212.527
L506.549 207.965
L507.945 207.965
L507.945 203.403
L508.302 203.403
L508.302 198.84
L511.162 198.84
L511.162 194.278
L513.316 194.278
L513.316 189.716
L515.425 189.716
L515.425 189.716" style="fill:none;stroke:#f5deb3;stroke-linecap:square;"/>
   </g>
   <g id="line2d_8">
    <path clip-path="url(#p0ab5e1e507)" d="
M392.676 358.524
L392.676 353.961
L392.828 353.961
L392.828 349.399
L393.433 349.399
L393.433 344.836
L395.939 344.836
L395.939 340.274
L398.907 340.274
L398.907 335.712
L411.426 335.712
L411.426 331.149
L428.962 331.149
L428.962 326.587
L461.479 326.587
L461.479 322.025
L476.779 322.025
L476.779 317.462
L479.417 317.462
L479.417 312.9
L482.446 312.9
L482.446 308.337
L490.43 308.337
L490.43 303.775
L499.779 303.775
L499.779 299.213
L503.335 299.213
L503.335 294.65
L504.072 294.65
L504.072 290.088
L506.706 290.088
L506.706 285.526
L512.463 285.526
L512.463 280.963
L513.715 280.963
L513.715 276.401
L515.24 276.401
L515.24 271.838
L515.425 271.838
L515.425 271.838" style="fill:none;stroke:#f5deb3;stroke-linecap:square;"/>
   </g>
   <g id="line2d_9">
    <path clip-path="url(#p0ab5e1e507)" d="
M341.31 358.524
L341.31 353.961
L374.935 353.961
L374.935 349.399
L378.63 349.399
L378.63 344.836
L515.425 344.836
L515.425 344.836" style="fill:none;stroke:#f5deb3;stroke-linecap:square;"/>
   </g>
   <g id="line2d_10">
    <path clip-path="url(#p0ab5e1e507)" d="
M606.23 358.524" style="fill:none;stroke:#f5deb3;stroke-linecap:square;"/>
   </g>
   <g id="line2d_11">
    <path clip-path="url(#p0ab5e1e507)" d="
M308.175 358.524
L308.175 353.961
L311.463 353.961
L311.463 349.399
L320.428 349.399
L320.428 344.836
L325.781 344.836
L325.781 335.712
L328.3 335.712
L328.3 322.025
L330.724 322.025
L330.724 308.337
L333.061 308.337
L333.061 303.775
L335.317 303.775
L335.317 290.088
L337.496 290.088
L337.496 285.526
L339.604 285.526
L339.604 280.963
L343.625 280.963
L343.625 276.401
L345.545 276.401
L345.545 271.838
L349.222 271.838
L349.222 267.276
L350.986 267.276
L350.986 253.589
L352.702 253.589
L352.702 249.027
L354.374 249.027
L354.374 235.339
L356.004 235.339
L356.004 221.652
L357.593 221.652
L357.593 217.09
L359.145 217.09
L359.145 198.84
L360.66 198.84
L360.66 171.466
L363.588 171.466
L363.588 157.779
L365.004 157.779
L365.004 130.405
L366.389 130.405
L366.389 125.842
L370.375 125.842
L370.375 121.28
L371.651 121.28
L371.651 116.718
L372.902 116.718
L372.902 112.155
L374.13 112.155
L374.13 98.4681
L375.334 98.4681
L375.334 89.3433
L376.517 89.3433
L376.517 84.781
L378.819 84.781
L378.819 80.2186
L379.94 80.2186
L379.94 75.6562
L382.126 75.6562
L382.126 61.9691
L386.287 61.9691
L386.287 57.4067
L388.271 57.4067
L388.271 52.8443
L390.196 52.8443
L390.196 48.2819
L392.98 48.2819
L392.98 43.7196
L399.867 43.7196
L399.867 39.1572
L400.678 39.1572
L400.678 34.5948
L406.09 34.5948
L406.09 30.0324
L410.393 30.0324
L410.393 25.4701
L414.428 25.4701
L414.428 20.9077
L425.76 20.9077
L425.76 16.3453
L425.76 16.3453
L507.225 16.3453
L507.225 16.3453" style="fill:none;stroke:#f5deb3;stroke-linecap:square;"/>
   </g>
   <g id="line2d_12">
    <path clip-path="url(#p0ab5e1e507)" d="
M411.312 358.524
L411.312 353.961
L415.505 353.961
L415.505 349.399
L418.43 349.399
L418.43 344.836
L428.264 344.836
L428.264 340.274
L431.929 340.274
L431.929 335.712
L432.178 335.712
L432.178 331.149
L435.32 331.149
L435.32 326.587
L436.101 326.587
L436.101 322.025
L438.241 322.025
L438.241 317.462
L438.989 317.462
L438.989 312.9
L442.741 312.9
L442.741 308.337
L446.619 308.337
L446.619 303.775
L448.442 303.775
L448.442 299.213
L450.775 299.213
L450.775 294.65
L453.086 294.65
L453.086 290.088
L454.796 290.088
L454.796 285.526
L455.835 285.526
L455.835 280.963
L456.006 280.963
L456.006 276.401
L456.801 276.401
L456.801 271.838
L460.58 271.838
L460.58 267.276
L461.584 267.276
L461.584 262.714
L462.416 262.714
L462.416 253.589
L462.623 253.589
L462.623 249.027
L463.696 249.027
L463.696 244.464
L464.553 244.464
L464.553 239.902
L465.001 239.902
L465.001 235.339
L465.546 235.339
L465.546 230.777
L465.988 230.777
L465.988 226.215
L466.814 226.215
L466.814 221.652
L467.392 221.652
L467.392 217.09
L468.484 217.09
L468.484 212.527
L468.765 212.527
L468.765 207.965
L468.953 207.965
L468.953 203.403
L469.139 203.403
L469.139 198.84
L470.614 198.84
L470.614 194.278
L471.068 194.278
L471.068 189.716
L471.429 189.716
L471.429 185.153
L472.455 185.153
L472.455 180.591
L472.897 180.591
L472.984 171.466
L474.375 171.466
L474.461 162.341
L474.504 162.341
L474.589 153.217
L475.271 153.217
L475.271 144.092
L475.778 144.092
L475.778 139.529
L475.988 139.529
L475.988 134.967
L476.364 134.967
L476.364 130.405
L476.904 130.405
L476.904 125.842
L477.439 125.842
L477.439 116.718
L477.888 116.718
L477.929 103.03
L478.375 103.03
L478.375 98.4681
L478.737 98.4681
L478.737 93.9057
L479.853 93.9057
L479.853 89.3433
L480.403 89.3433
L480.403 84.781
L480.949 84.781
L480.949 80.2186
L481.22 80.2186
L481.22 75.6562
L483.462 75.6562
L483.462 71.0938
L484.352 71.0938
L484.352 66.5315
L484.829 66.5315
L484.829 61.9691
L485.266 61.9691
L485.266 57.4067
L488.004 57.4067
L488.004 52.8443
L490.497 52.8443
L490.53 43.7196
L493.058 43.7196
L493.058 39.1572
L496.475 39.1572
L496.475 34.5948
L502.394 34.5948
L502.394 30.0324
L515.425 30.0324
L515.425 30.0324" style="fill:none;stroke:#f5deb3;stroke-linecap:square;"/>
   </g>
   <g id="line2d_13">
    <path clip-path="url(#p0ab5e1e507)" d="
M471.068 358.524
L471.068 353.961
L478.253 353.961
L478.253 349.399
L478.978 349.399
L478.978 344.836
L480.677 344.836
L480.677 340.274
L515.425 340.274" style="fill:none;stroke:#f5deb3;stroke-linecap:square;"/>
   </g>
   <g id="line2d_14">
    <path clip-path="url(#p0ab5e1e507)" d="
M422.965 358.524
L422.965 353.961
L431.763 353.961
L431.763 349.399
L440.094 349.399
L440.094 344.836
L443.3 344.836
L443.3 340.274
L445.487 340.274
L445.487 335.712
L447.797 335.712
L447.797 331.149
L482.937 331.149
L482.937 326.587
L483.797 326.587
L483.797 322.025
L485.339 322.025
L485.339 317.462
L486.951 317.462
L486.951 312.9
L488.869 312.9
L488.869 308.337
L490.363 308.337
L490.363 303.775
L491.626 303.775
L491.626 299.213
L492.052 299.213
L492.052 294.65
L507.766 294.65
L507.766 290.088
L509.611 290.088
L509.611 285.526
L512.82 285.526
L512.82 280.963
L513.574 280.963
L513.574 276.401
L514.343 276.401
L514.343 271.838
L514.505 271.838
L514.505 267.276
L514.69 267.276
L514.69 262.714
L515.425 262.714
L515.425 262.714" style="fill:none;stroke:#f5deb3;stroke-linecap:square;"/>
   </g>
   <g id="line2d_15">
    <path clip-path="url(#p0ab5e1e507)" d="
M504.747 358.524
L504.747 353.961
L504.747 353.961
L504.747 349.399
L515.425 349.399" style="fill:none;stroke:#f5deb3;stroke-linecap:square;"/>
   </g>
   <g id="line2d_16">
    <path clip-path="url(#p0ab5e1e507)" d="
M276.083 358.524
L276.083 353.961
L277.904 353.961
L277.904 349.399
L290.876 349.399
L290.876 344.836
L293.043 344.836
L293.043 340.274
L294.449 340.274
L294.449 335.712
L299.783 335.712
L299.783 331.149
L302.294 331.149
L302.294 326.587
L306.466 326.587
L306.466 322.025
L326.208 322.025
L326.208 317.462
L327.053 317.462
L327.053 312.9
L352.984 312.9
L352.984 308.337
L375.731 308.337
L375.731 303.775
L382.304 303.775
L382.304 299.213
L392.98 299.213
L392.98 294.65
L393.433 294.65
L393.433 290.088
L393.733 290.088
L393.733 285.526
L395.649 285.526
L395.649 280.963
L397.228 280.963
L397.228 276.401
L404.968 276.401
L404.968 271.838
L407.798 271.838
L407.798 267.276
L410.969 267.276
L410.969 262.714
L411.198 262.714
L411.198 258.151
L415.398 258.151
L415.398 253.589
L416.984 253.589
L416.984 249.027
L421.618 249.027
L421.618 244.464
L422.006 244.464
L422.006 239.902
L423.91 239.902
L423.91 235.339
L427.291 235.339
L427.291 230.777
L428.788 230.777
L428.788 226.215
L433.808 226.215
L433.808 221.652
L434.209 221.652
L434.209 217.09
L437.485 217.09
L437.485 212.527
L441.681 212.527
L441.681 207.965
L442.531 207.965
L442.531 203.403
L443.369 203.403
L443.369 198.84
L444.539 198.84
L444.539 194.278
L446.222 194.278
L446.222 189.716
L447.797 189.716
L447.797 185.153
L450.027 185.153
L450.027 180.591
L451.022 180.591
L451.022 176.028
L452.486 176.028
L452.486 171.466
L465.743 171.466
L465.743 166.904
L473.335 166.904
L473.335 162.341
L481.644 162.341
L481.644 157.779
L487.9 157.779
L487.969 148.654
L488.559 148.654
L488.559 144.092
L490.997 144.092
L490.997 139.529
L494.679 139.529
L494.679 134.967
L495.923 134.967
L495.923 130.405
L498.163 130.405
L498.163 125.842
L511.96 125.842
L511.96 121.28
L515.011 121.28
L515.011 116.718
L515.425 116.718
L515.425 116.718" style="fill:none;stroke:#f5deb3;stroke-linecap:square;"/>
   </g>
   <g id="line2d_17">
    <path clip-path="url(#p0ab5e1e507)" d="
M593.377 358.524" style="fill:none;stroke:#f5deb3;stroke-linecap:square;"/>
   </g>
   <g id="line2d_18">
    <path clip-path="url(#p0ab5e1e507)" d="
M323.16 358.524
L323.16 353.961
L331.513 353.961
L331.513 349.399
L332.292 349.399
L332.292 344.836
L332.678 344.836
L332.678 340.274
L335.317 340.274
L335.317 335.712
L339.604 335.712
L339.604 331.149
L342.643 331.149
L342.643 326.587
L343.625 326.587
L343.625 322.025
L352.419 322.025
L352.419 317.462
L353.821 317.462
L353.821 312.9
L356.538 312.9
L356.538 308.337
L359.907 308.337
L359.907 303.775
L364.535 303.775
L364.535 294.65
L364.77 294.65
L364.77 285.526
L365.237 285.526
L365.237 280.963
L365.931 280.963
L365.931 276.401
L367.521 276.401
L367.521 271.838
L367.969 271.838
L367.969 267.276
L373.314 267.276
L373.314 262.714
L375.731 262.714
L375.731 258.151
L379.382 258.151
L379.382 253.589
L380.31 253.589
L380.31 249.027
L382.483 249.027
L382.483 244.464
L383.892 244.464
L383.892 239.902
L384.413 239.902
L384.413 235.339
L385.95 235.339
L385.95 230.777
L386.118 230.777
L386.118 226.215
L386.788 226.215
L386.788 221.652
L389.401 221.652
L389.401 217.09
L394.18 217.09
L394.18 212.527
L395.358 212.527
L395.358 207.965
L395.504 207.965
L395.504 203.403
L397.652 203.403
L397.652 198.84
L398.352 198.84
L398.352 194.278
L398.491 194.278
L398.491 189.716
L400.138 189.716
L400.138 185.153
L400.274 185.153
L400.274 180.591
L404.589 180.591
L404.589 176.028
L408.99 176.028
L408.99 171.466
L409.108 171.466
L409.108 166.904
L409.344 166.904
L409.344 162.341
L409.579 162.341
L409.579 157.779
L410.624 157.779
L410.624 153.217
L412.105 153.217
L412.105 148.654
L412.33 148.654
L412.33 144.092
L413.111 144.092
L413.111 139.529
L413.992 139.529
L414.101 130.405
L417.193 130.405
L417.193 125.842
L417.917 125.842
L417.917 121.28
L423.155 121.28
L423.155 116.718
L425.76 116.718
L425.76 112.155
L429.909 112.155
L429.909 107.593
L433.242 107.593
L433.242 103.03
L434.369 103.03
L434.369 98.4681
L437.637 98.4681
L437.637 93.9057
L441.467 93.9057
L441.467 89.3433
L449.398 89.3433
L449.398 84.781
L451.33 84.781
L451.33 80.2186
L454.446 80.2186
L454.446 75.6562
L458.196 75.6562
L458.196 71.0938
L468.2 71.0938
L468.2 66.5315
L468.672 66.5315
L468.672 61.9691
L469.558 61.9691
L469.558 57.4067
L478.213 57.4067
L478.213 52.8443
L486.561 52.8443
L486.632 43.7196
L488.074 43.7196
L488.074 39.1572
L495.521 39.1572
L495.521 34.5948
L502.922 34.5948
L502.922 30.0324
L510.182 30.0324
L510.182 25.4701
L515.425 25.4701
L515.425 25.4701" style="fill:none;stroke:#f5deb3;stroke-linecap:square;"/>
   </g>
   <g id="line2d_19">
    <path clip-path="url(#p0ab5e1e507)" d="
M622.851 358.524" style="fill:none;stroke:#f5deb3;stroke-linecap:square;"/>
   </g>
   <g id="line2d_20">
    <path clip-path="url(#p0ab5e1e507)" d="
M516.35 358.524" style="fill:none;stroke:#f5deb3;stroke-linecap:square;"/>
   </g>
   <g id="line2d_21">
    <path clip-path="url(#p0ab5e1e507)" d="
M367.745 358.524
L367.745 353.961
L380.86 353.961
L380.86 349.399
L515.425 349.399" style="fill:none;stroke:#f5deb3;stroke-linecap:square;"/>
   </g>
   <g id="line2d_22">
    <path clip-path="url(#p0ab5e1e507)" d="
M937.112 358.524" style="fill:none;stroke:#f5deb3;stroke-linecap:square;"/>
   </g>
   <g id="line2d_23">
    <path clip-path="url(#p0ab5e1e507)" d="
M608.223 358.524" style="fill:none;stroke:#f5deb3;stroke-linecap:square;"/>
   </g>
   <g id="line2d_24">
    <path clip-path="url(#p0ab5e1e507)" d="
M480.755 358.524
L480.755 353.961
L485.629 353.961
L485.629 349.399
L506.156 349.399
L506.156 344.836
L511.016 344.836
L511.016 340.274
L511.792 340.274
L511.792 335.712
L513.527 335.712
L513.527 331.149
L515.425 331.149
L515.425 331.149" style="fill:none;stroke:#f5deb3;stroke-linecap:square;"/>
   </g>
   <g id="line2d_25">
    <path clip-path="url(#p0ab5e1e507)" d="
M418.328 358.524
L418.328 353.961
L446.817 353.961
L446.817 349.399
L449.461 349.399
L449.461 344.836
L449.839 344.836
L449.839 340.274
L450.96 340.274
L450.96 335.712
L453.265 335.712
L453.265 331.149
L458.964 331.149
L458.964 326.587
L461.897 326.587
L461.897 322.025
L463.034 322.025
L463.034 317.462
L464.302 317.462
L464.302 312.9
L467.439 312.9
L467.439 308.337
L468.153 308.337
L468.153 303.775
L468.437 303.775
L468.437 299.213
L469.881 299.213
L469.881 294.65
L472.145 294.65
L472.145 290.088
L472.278 290.088
L472.322 280.963
L472.411 280.963
L472.411 276.401
L472.544 276.401
L472.544 271.838
L473.683 271.838
L473.727 262.714
L474.461 262.714
L474.461 258.151
L474.589 258.151
L474.589 253.589
L475.736 253.589
L475.736 249.027
L476.821 249.027
L476.821 244.464
L477.151 244.464
L477.151 239.902
L477.439 239.902
L477.439 235.339
L477.643 235.339
L477.643 230.777
L477.969 230.777
L477.969 226.215
L478.334 226.215
L478.415 217.09
L478.898 217.09
L478.898 212.527
L480.52 212.527
L480.52 207.965
L480.832 207.965
L480.832 203.403
L481.065 203.403
L481.065 198.84
L482.18 198.84
L482.18 194.278
L483.35 194.278
L483.35 189.716
L483.611 189.716
L483.648 180.591
L484.057 180.591
L484.168 171.466
L484.536 171.466
L484.646 157.779
L485.303 157.779
L485.303 148.654
L485.448 148.654
L485.448 144.092
L486.168 144.092
L486.168 139.529
L486.49 139.529
L486.561 130.405
L487.48 130.405
L487.48 125.842
L487.725 125.842
L487.76 116.718
L488.49 116.718
L488.49 112.155
L489.28 112.155
L489.28 107.593
L490.43 107.593
L490.43 103.03
L491.461 103.03
L491.461 98.4681
L492.929 98.4681
L492.929 93.9057
L494.648 93.9057
L494.648 89.3433
L496.536 89.3433
L496.536 84.781
L498.844 84.781
L498.844 80.2186
L502.394 80.2186
L502.394 75.6562
L504.721 75.6562
L504.721 71.0938
L505.309 71.0938
L505.309 66.5315
L505.734 66.5315
L505.734 61.9691
L512.415 61.9691
L512.415 57.4067
L515.425 57.4067
L515.425 57.4067" style="fill:none;stroke:#f5deb3;stroke-linecap:square;"/>
   </g>
   <g id="line2d_26">
    <path clip-path="url(#p0ab5e1e507)" d="
M540.962 358.524" style="fill:none;stroke:#f5deb3;stroke-linecap:square;"/>
   </g>
   <g id="line2d_27">
    <path clip-path="url(#p0ab5e1e507)" d="
M369.944 358.524
L369.944 353.961
L383.543 353.961
L383.543 349.399
L390.038 349.399
L390.038 344.836
L392.524 344.836
L392.524 340.274
L392.676 340.274
L392.676 335.712
L394.031 335.712
L394.031 331.149
L396.228 331.149
L396.228 326.587
L398.907 326.587
L398.907 322.025
L401.214 322.025
L401.214 317.462
L401.347 317.462
L401.347 312.9
L401.744 312.9
L401.744 308.337
L402.402 308.337
L402.402 299.213
L404.209 299.213
L404.209 294.65
L416.037 294.65
L416.037 290.088
L417.088 290.088
L417.088 285.526
L419.443 285.526
L419.443 280.963
L422.006 280.963
L422.006 276.401
L422.487 276.401
L422.583 267.276
L424.563 267.276
L424.563 262.714
L425.302 262.714
L425.302 258.151
L425.486 258.151
L425.486 253.589
L425.851 253.589
L425.851 244.464
L426.665 244.464
L426.665 239.902
L428.613 239.902
L428.701 226.215
L429.135 226.215
L429.135 221.652
L429.566 221.652
L429.566 217.09
L430.335 217.09
L430.335 212.527
L430.505 212.527
L430.505 207.965
L431.929 207.965
L432.012 198.84
L433.647 198.84
L433.727 185.153
L433.888 185.153
L433.969 176.028
L434.529 176.028
L434.529 171.466
L434.846 171.466
L434.846 166.904
L435.555 166.904
L435.555 162.341
L436.951 162.341
L436.951 157.779
L438.691 157.779
L438.691 153.217
L438.84 153.217
L438.84 148.654
L439.211 148.654
L439.211 139.529
L440.021 139.529
L440.021 134.967
L440.385 134.967
L440.385 125.842
L440.603 125.842
L440.603 121.28
L442.107 121.28
L442.107 116.718
L445.285 116.718
L445.285 112.155
L445.889 112.155
L445.889 103.03
L448.185 103.03
L448.185 98.4681
L448.634 98.4681
L448.634 93.9057
L448.826 93.9057
L448.826 89.3433
L449.902 89.3433
L449.902 84.781
L450.96 84.781
L450.96 80.2186
L452.906 80.2186
L452.906 75.6562
L455.144 75.6562
L455.144 71.0938
L455.777 71.0938
L455.777 66.5315
L458.8 66.5315
L458.8 61.9691
L459.777 61.9691
L459.777 57.4067
L461.741 57.4067
L461.741 52.8443
L462.053 52.8443
L462.053 48.2819
L462.726 48.2819
L462.726 43.7196
L464.402 43.7196
L464.402 39.1572
L469.604 39.1572
L469.604 34.5948
L478.536 34.5948
L478.536 30.0324
L483.387 30.0324
L483.387 25.4701
L483.834 25.4701
L483.834 20.9077
L495.086 20.9077
L495.086 16.3453
L495.086 16.3453
L507.225 16.3453
L507.225 16.3453" style="fill:none;stroke:#f5deb3;stroke-linecap:square;"/>
   </g>
   <g id="line2d_28">
    <path clip-path="url(#p0ab5e1e507)" d="
M620 358.524" style="fill:none;stroke:#f5deb3;stroke-linecap:square;"/>
   </g>
   <g id="line2d_29">
    <path clip-path="url(#p0ab5e1e507)" d="
M303.514 358.524
L303.514 353.961
L303.514 353.961
L303.514 349.399
L303.514 349.399
L303.514 344.836
L313.565 344.836
L313.565 340.274
L313.565 340.274
L313.565 335.712
L313.565 335.712
L313.565 331.149
L316.596 331.149
L316.596 326.587
L316.596 326.587
L316.596 322.025
L316.596 322.025
L316.596 317.462
L371.016 317.462
L371.016 312.9
L371.016 312.9
L371.016 308.337
L371.016 308.337
L371.016 303.775
L427.647 303.775
L427.647 299.213
L427.647 299.213
L427.647 294.65
L427.647 294.65
L427.647 290.088
L515.425 290.088" style="fill:none;stroke:#f5deb3;stroke-linecap:square;"/>
   </g>
   <g id="line2d_30">
    <path clip-path="url(#p0ab5e1e507)" d="
M1.43787 358.524
L1.43787 353.961
L1.43787 353.961
L1.43787 353.961
L1.43787 349.399
L1.43787 349.399
L1.43787 349.399
L1.43787 344.836
L1.43787 344.836
L1.43787 344.836
L1.43787 340.274
L1.43787 340.274
L1.43787 340.274
L1.43787 335.712
L1.43787 335.712
L1.43787 335.712
L1.43787 331.149
L1.43787 331.149
L1.43787 331.149
L1.43787 326.587
L1.43787 326.587
L1.43787 326.587
L1.43787 322.025
L1.43787 322.025
L1.43787 322.025
L1.43787 317.462
L1.43787 317.462
L1.43787 317.462
L1.43787 312.9
L1.43787 312.9
L1.43787 312.9
L1.43787 308.337
L1.43787 308.337
L1.43787 308.337
L1.43787 303.775
L1.43787 303.775
L1.43787 303.775
L1.43787 299.213
L1.43787 299.213
L1.43787 299.213
L1.43787 294.65
L1.43787 294.65
L1.43787 294.65
L1.43787 290.088
L1.43787 290.088
L1.43787 290.088
L1.43787 285.526
L1.43787 285.526
L1.43787 285.526
L1.43787 280.963
L1.43787 280.963
L1.43787 280.963
L1.43787 276.401
L46.2465 276.401
L46.2465 253.589
L72.4579 253.589
L72.4579 239.902
L91.0552 239.902
L91.0552 221.652
L105.48 221.652
L105.48 212.527
L117.267 212.527
L117.267 185.153
L127.232 185.153
L127.232 176.028
L135.864 176.028
L135.864 148.654
L143.478 148.654
L143.478 144.092
L150.289 144.092
L150.289 125.842
L156.45 125.842
L156.45 121.28
L162.075 121.28
L162.075 112.155
L167.25 112.155
L167.25 103.03
L176.5 103.03
L176.5 98.4681
L180.672 98.4681
L180.672 89.3433
L184.592 89.3433
L184.592 84.781
L195.098 84.781
L195.098 80.2186
L198.252 80.2186
L198.252 61.9691
L201.259 61.9691
L201.259 48.2819
L204.133 48.2819
L204.133 34.5948
L209.523 34.5948
L209.523 25.4701
L212.058 25.4701
L212.058 20.9077
L225.481 20.9077
L225.481 16.3453
L225.481 16.3453
L507.225 16.3453
L507.225 16.3453" style="fill:none;stroke:#000000;stroke-linecap:square;"/>
   </g>
   <g id="line2d_31"/>
   <g id="line2d_32">
    <path clip-path="url(#p0ab5e1e507)" d="
M1.43787 358.524
L1.43787 353.961
L1.43787 353.961
L1.43787 353.961
L1.43787 349.399
L1.43787 349.399
L1.43787 349.399
L1.43787 344.836
L46.2465 344.836
L46.2465 335.712
L91.0552 335.712
L91.0552 331.149
L105.48 331.149
L105.48 326.587
L117.267 326.587
L117.267 322.025
L127.232 322.025
L127.232 317.462
L135.864 317.462
L135.864 312.9
L156.45 312.9
L156.45 308.337
L162.075 308.337
L162.075 299.213
L167.25 299.213
L167.25 290.088
L172.04 290.088
L172.04 285.526
L176.5 285.526
L176.5 280.963
L184.592 280.963
L184.592 276.401
L195.098 276.401
L195.098 262.714
L201.259 262.714
L201.259 253.589
L204.133 253.589
L204.133 239.902
L206.884 239.902
L206.884 212.527
L209.523 212.527
L209.523 207.965
L212.058 207.965
L212.058 185.153
L214.498 185.153
L214.498 171.466
L216.849 171.466
L216.849 162.341
L219.117 162.341
L219.117 153.217
L221.309 153.217
L221.309 139.529
L223.429 139.529
L223.429 116.718
L225.481 116.718
L225.481 103.03
L227.47 103.03
L227.47 84.781
L229.4 84.781
L229.4 75.6562
L233.095 75.6562
L233.095 61.9691
L234.866 61.9691
L234.866 48.2819
L236.59 48.2819
L236.59 43.7196
L241.503 43.7196
L241.503 39.1572
L246.068 39.1572
L246.068 34.5948
L247.52 34.5948
L247.52 30.0324
L254.331 30.0324
L254.331 25.4701
L255.612 25.4701
L255.612 20.9077
L258.098 20.9077
L258.098 16.3453
L258.098 16.3453
L507.225 16.3453
L507.225 16.3453" style="fill:none;stroke:#00bfbf;stroke-linecap:square;"/>
   </g>
   <g id="line2d_33"/>
   <g id="line2d_34">
    <path clip-path="url(#p0ab5e1e507)" d="
M221.309 358.524
L221.309 353.961
L236.59 353.961
L236.59 344.836
L241.503 344.836
L241.503 340.274
L243.06 340.274
L243.06 335.712
L244.581 335.712
L244.581 331.149
L246.068 331.149
L246.068 326.587
L250.331 326.587
L250.331 322.025
L253.025 322.025
L253.025 317.462
L255.612 317.462
L255.612 308.337
L256.867 308.337
L256.867 303.775
L259.307 303.775
L259.307 290.088
L261.658 290.088
L261.658 285.526
L262.802 285.526
L262.802 276.401
L263.926 276.401
L263.926 262.714
L266.118 262.714
L266.118 253.589
L267.186 253.589
L267.186 244.464
L269.272 244.464
L269.272 235.339
L270.29 235.339
L270.29 221.652
L271.292 221.652
L271.292 217.09
L272.279 217.09
L272.279 207.965
L273.251 207.965
L273.251 198.84
L274.209 198.84
L274.209 185.153
L275.153 185.153
L275.153 180.591
L276.083 180.591
L276.083 176.028
L277 176.028
L277 171.466
L277.904 171.466
L277.904 153.217
L279.675 153.217
L279.675 148.654
L280.543 148.654
L280.543 144.092
L282.244 144.092
L282.244 134.967
L283.078 134.967
L283.078 125.842
L283.902 125.842
L283.902 121.28
L284.715 121.28
L284.715 116.718
L286.311 116.718
L286.311 112.155
L287.095 112.155
L287.095 107.593
L287.869 107.593
L287.869 103.03
L288.634 103.03
L288.634 98.4681
L290.137 98.4681
L290.137 93.9057
L290.876 93.9057
L290.876 89.3433
L292.329 89.3433
L292.329 84.781
L293.75 84.781
L293.75 75.6562
L295.824 75.6562
L295.824 71.0938
L296.501 71.0938
L296.501 61.9691
L297.171 61.9691
L297.171 57.4067
L300.42 57.4067
L300.42 52.8443
L302.294 52.8443
L302.294 48.2819
L302.907 48.2819
L302.907 43.7196
L308.175 43.7196
L308.175 39.1572
L309.84 39.1572
L309.84 34.5948
L311.995 34.5948
L311.995 30.0324
L315.098 30.0324
L315.098 25.4701
L318.06 25.4701
L318.06 20.9077
L348.323 20.9077
L348.323 16.3453
L348.323 16.3453
L507.225 16.3453
L507.225 16.3453" style="fill:none;stroke:#bf00bf;stroke-linecap:square;"/>
   </g>
   <g id="line2d_35"/>
   <g id="line2d_36">
    <path clip-path="url(#p0ab5e1e507)" d="
M313.565 358.524
L313.565 353.961
L317.576 353.961
L317.576 349.399
L321.808 349.399
L321.808 344.836
L323.604 344.836
L323.604 340.274
L324.484 340.274
L324.484 335.712
L326.208 335.712
L326.208 326.587
L327.053 326.587
L327.053 322.025
L327.471 322.025
L327.471 317.462
L329.524 317.462
L329.524 312.9
L331.903 312.9
L331.903 308.337
L332.678 308.337
L332.678 303.775
L333.061 303.775
L333.061 299.213
L334.199 299.213
L334.199 294.65
L334.946 294.65
L334.946 290.088
L336.051 290.088
L336.051 280.963
L336.415 280.963
L336.415 276.401
L336.778 276.401
L336.778 271.838
L337.496 271.838
L337.496 267.276
L338.559 267.276
L338.559 262.714
L340.292 262.714
L340.292 258.151
L340.972 258.151
L340.972 253.589
L341.646 253.589
L341.646 249.027
L342.312 249.027
L342.312 244.464
L344.592 244.464
L344.592 239.902
L344.911 239.902
L344.911 235.339
L346.173 235.339
L346.173 230.777
L346.794 230.777
L346.794 226.215
L347.716 226.215
L347.716 221.652
L350.11 221.652
L350.11 217.09
L351.275 217.09
L351.275 212.527
L353.264 212.527
L353.264 207.965
L354.648 207.965
L354.648 203.403
L354.922 203.403
L354.922 198.84
L356.271 198.84
L356.271 194.278
L357.068 194.278
L357.068 189.716
L358.889 189.716
L358.889 185.153
L360.41 185.153
L360.41 180.591
L360.66 180.591
L360.66 176.028
L363.349 176.028
L363.349 171.466
L363.588 171.466
L363.588 166.904
L363.826 166.904
L363.826 162.341
L365.004 162.341
L365.004 157.779
L367.296 157.779
L367.296 153.217
L367.745 153.217
L367.745 148.654
L367.969 148.654
L367.969 144.092
L368.191 144.092
L368.191 139.529
L368.854 139.529
L368.854 134.967
L370.16 134.967
L370.16 130.405
L371.229 130.405
L371.229 125.842
L374.332 125.842
L374.332 121.28
L375.135 121.28
L375.135 116.718
L376.712 116.718
L376.712 112.155
L376.906 112.155
L376.906 107.593
L378.061 107.593
L378.061 103.03
L379.382 103.03
L379.382 89.3433
L380.31 89.3433
L380.31 80.2186
L381.224 80.2186
L381.224 75.6562
L384.757 75.6562
L384.757 71.0938
L388.596 71.0938
L388.596 66.5315
L390.038 66.5315
L390.038 61.9691
L390.354 61.9691
L390.354 57.4067
L390.825 57.4067
L390.825 52.8443
L391.137 52.8443
L391.137 48.2819
L394.328 48.2819
L394.328 43.7196
L395.504 43.7196
L395.504 39.1572
L402.923 39.1572
L402.923 34.5948
L402.923 34.5948
L507.225 34.5948
L507.225 34.5948" style="fill:none;stroke:#ff0000;stroke-linecap:square;stroke-width:3.0;"/>
   </g>
   <g id="line2d_37"/>
   <g id="line2d_38">
    <path clip-path="url(#p0ab5e1e507)" d="
M403.183 358.524
L403.183 12.9235" style="fill:none;stroke:#000000;stroke-linecap:square;"/>
   </g>
   <g id="matplotlib.axis_1">
    <g id="xtick_1">
     <g id="line2d_39">
      <path clip-path="url(#p0ab5e1e507)" d="
M105.48 358.524
L105.48 12.9235" style="fill:none;stroke:#000000;stroke-dasharray:1.000000,3.000000;stroke-dashoffset:0.0;stroke-width:0.5;"/>
     </g>
     <g id="line2d_40">
      <defs>
       <path d="
M0 0
L0 -4" id="m93b0483c22" style="stroke:#000000;stroke-width:0.5;"/>
      </defs>
      <g>
       <use style="stroke:#000000;stroke-width:0.5;" x="105.480331599" xlink:href="#m93b0483c22" y="358.523530322"/>
      </g>
     </g>
     <g id="line2d_41">
      <defs>
       <path d="
M0 0
L0 4" id="m741efc42ff" style="stroke:#000000;stroke-width:0.5;"/>
      </defs>
      <g>
       <use style="stroke:#000000;stroke-width:0.5;" x="105.480331599" xlink:href="#m741efc42ff" y="12.9235303218"/>
      </g>
     </g>
     <g id="text_1">
      <!-- 0 -->
      <defs>
       <path d="
M4.15625 35.2969
Q4.15625 48 6.76562 55.7344
Q9.375 63.4844 14.5156 67.6719
Q19.6719 71.875 27.4844 71.875
Q33.25 71.875 37.5938 69.5469
Q41.9375 67.2344 44.7656 62.8594
Q47.6094 58.5 49.2188 52.2188
Q50.8281 45.9531 50.8281 35.2969
Q50.8281 22.7031 48.2344 14.9688
Q45.6562 7.23438 40.5 3
Q35.3594 -1.21875 27.4844 -1.21875
Q17.1406 -1.21875 11.2344 6.20312
Q4.15625 15.1406 4.15625 35.2969
M13.1875 35.2969
Q13.1875 17.6719 17.3125 11.8281
Q21.4375 6 27.4844 6
Q33.5469 6 37.6719 11.8594
Q41.7969 17.7188 41.7969 35.2969
Q41.7969 52.9844 37.6719 58.7812
Q33.5469 64.5938 27.3906 64.5938
Q21.3438 64.5938 17.7188 59.4688
Q13.1875 52.9375 13.1875 35.2969" id="ArialMT-30"/>
      </defs>
      <g transform="translate(100.813144099 376.839155322)scale(0.2 -0.2)">
       <use xlink:href="#ArialMT-30"/>
      </g>
     </g>
    </g>
    <g id="xtick_2">
     <g id="line2d_42">
      <path clip-path="url(#p0ab5e1e507)" d="
M254.331 358.524
L254.331 12.9235" style="fill:none;stroke:#000000;stroke-dasharray:1.000000,3.000000;stroke-dashoffset:0.0;stroke-width:0.5;"/>
     </g>
     <g id="line2d_43">
      <g>
       <use style="stroke:#000000;stroke-width:0.5;" x="254.33143693" xlink:href="#m93b0483c22" y="358.523530322"/>
      </g>
     </g>
     <g id="line2d_44">
      <g>
       <use style="stroke:#000000;stroke-width:0.5;" x="254.33143693" xlink:href="#m741efc42ff" y="12.9235303218"/>
      </g>
     </g>
     <g id="text_2">
      <!-- 1 -->
      <defs>
       <path d="
M37.25 0
L28.4688 0
L28.4688 56
Q25.2969 52.9844 20.1406 49.9531
Q14.9844 46.9219 10.8906 45.4062
L10.8906 53.9062
Q18.2656 57.375 23.7812 62.2969
Q29.2969 67.2344 31.5938 71.875
L37.25 71.875
z
" id="ArialMT-31"/>
      </defs>
      <g transform="translate(251.69549943 376.839155322)scale(0.2 -0.2)">
       <use xlink:href="#ArialMT-31"/>
      </g>
     </g>
    </g>
    <g id="xtick_3">
     <g id="line2d_45">
      <path clip-path="url(#p0ab5e1e507)" d="
M403.183 358.524
L403.183 12.9235" style="fill:none;stroke:#000000;stroke-dasharray:1.000000,3.000000;stroke-dashoffset:0.0;stroke-width:0.5;"/>
     </g>
     <g id="line2d_46">
      <g>
       <use style="stroke:#000000;stroke-width:0.5;" x="403.182542261" xlink:href="#m93b0483c22" y="358.523530322"/>
      </g>
     </g>
     <g id="line2d_47">
      <g>
       <use style="stroke:#000000;stroke-width:0.5;" x="403.182542261" xlink:href="#m741efc42ff" y="12.9235303218"/>
      </g>
     </g>
     <g id="text_3">
      <!-- 2 -->
      <defs>
       <path d="
M50.3438 8.45312
L50.3438 0
L3.03125 0
Q2.9375 3.17188 4.04688 6.10938
Q5.85938 10.9375 9.82812 15.625
Q13.8125 20.3125 21.3438 26.4688
Q33.0156 36.0312 37.1094 41.625
Q41.2188 47.2188 41.2188 52.2031
Q41.2188 57.4219 37.4688 61
Q33.7344 64.5938 27.7344 64.5938
Q21.3906 64.5938 17.5781 60.7812
Q13.7656 56.9844 13.7188 50.25
L4.6875 51.1719
Q5.60938 61.2812 11.6562 66.5781
Q17.7188 71.875 27.9375 71.875
Q38.2344 71.875 44.2344 66.1562
Q50.25 60.4531 50.25 52
Q50.25 47.7031 48.4844 43.5469
Q46.7344 39.4062 42.6562 34.8125
Q38.5781 30.2188 29.1094 22.2188
Q21.1875 15.5781 18.9375 13.2031
Q16.7031 10.8438 15.2344 8.45312
z
" id="ArialMT-32"/>
      </defs>
      <g transform="translate(398.441917261 376.839155322)scale(0.2 -0.2)">
       <use xlink:href="#ArialMT-32"/>
      </g>
     </g>
    </g>
    <g id="xtick_4"/>
    <g id="xtick_5">
     <g id="line2d_48">
      <defs>
       <path d="
M0 0
L0 -2" id="m177f7580d0" style="stroke:#000000;stroke-width:0.5;"/>
      </defs>
      <g>
       <use style="stroke:#000000;stroke-width:0.5;" x="72.4579000026" xlink:href="#m177f7580d0" y="358.523530322"/>
      </g>
     </g>
     <g id="line2d_49">
      <defs>
       <path d="
M0 0
L0 2" id="m5284c7e2a0" style="stroke:#000000;stroke-width:0.5;"/>
      </defs>
      <g>
       <use style="stroke:#000000;stroke-width:0.5;" x="72.4579000026" xlink:href="#m5284c7e2a0" y="12.9235303218"/>
      </g>
     </g>
    </g>
    <g id="xtick_6">
     <g id="line2d_50">
      <g>
       <use style="stroke:#000000;stroke-width:0.5;" x="82.4230036375" xlink:href="#m177f7580d0" y="358.523530322"/>
      </g>
     </g>
     <g id="line2d_51">
      <g>
       <use style="stroke:#000000;stroke-width:0.5;" x="82.4230036375" xlink:href="#m5284c7e2a0" y="12.9235303218"/>
      </g>
     </g>
    </g>
    <g id="xtick_7">
     <g id="line2d_52">
      <g>
       <use style="stroke:#000000;stroke-width:0.5;" x="91.0551690454" xlink:href="#m177f7580d0" y="358.523530322"/>
      </g>
     </g>
     <g id="line2d_53">
      <g>
       <use style="stroke:#000000;stroke-width:0.5;" x="91.0551690454" xlink:href="#m5284c7e2a0" y="12.9235303218"/>
      </g>
     </g>
    </g>
    <g id="xtick_8">
     <g id="line2d_54">
      <g>
       <use style="stroke:#000000;stroke-width:0.5;" x="98.6692785522" xlink:href="#m177f7580d0" y="358.523530322"/>
      </g>
     </g>
     <g id="line2d_55">
      <g>
       <use style="stroke:#000000;stroke-width:0.5;" x="98.6692785522" xlink:href="#m5284c7e2a0" y="12.9235303218"/>
      </g>
     </g>
    </g>
    <g id="xtick_9">
     <g id="line2d_56">
      <g>
       <use style="stroke:#000000;stroke-width:0.5;" x="150.288979192" xlink:href="#m177f7580d0" y="358.523530322"/>
      </g>
     </g>
     <g id="line2d_57">
      <g>
       <use style="stroke:#000000;stroke-width:0.5;" x="150.288979192" xlink:href="#m5284c7e2a0" y="12.9235303218"/>
      </g>
     </g>
    </g>
    <g id="xtick_10">
     <g id="line2d_58">
      <g>
       <use style="stroke:#000000;stroke-width:0.5;" x="176.500357741" xlink:href="#m177f7580d0" y="358.523530322"/>
      </g>
     </g>
     <g id="line2d_59">
      <g>
       <use style="stroke:#000000;stroke-width:0.5;" x="176.500357741" xlink:href="#m5284c7e2a0" y="12.9235303218"/>
      </g>
     </g>
    </g>
    <g id="xtick_11">
     <g id="line2d_60">
      <g>
       <use style="stroke:#000000;stroke-width:0.5;" x="195.097626784" xlink:href="#m177f7580d0" y="358.523530322"/>
      </g>
     </g>
     <g id="line2d_61">
      <g>
       <use style="stroke:#000000;stroke-width:0.5;" x="195.097626784" xlink:href="#m5284c7e2a0" y="12.9235303218"/>
      </g>
     </g>
    </g>
    <g id="xtick_12">
     <g id="line2d_62">
      <g>
       <use style="stroke:#000000;stroke-width:0.5;" x="209.522789338" xlink:href="#m177f7580d0" y="358.523530322"/>
      </g>
     </g>
     <g id="line2d_63">
      <g>
       <use style="stroke:#000000;stroke-width:0.5;" x="209.522789338" xlink:href="#m5284c7e2a0" y="12.9235303218"/>
      </g>
     </g>
    </g>
    <g id="xtick_13">
     <g id="line2d_64">
      <g>
       <use style="stroke:#000000;stroke-width:0.5;" x="221.309005334" xlink:href="#m177f7580d0" y="358.523530322"/>
      </g>
     </g>
     <g id="line2d_65">
      <g>
       <use style="stroke:#000000;stroke-width:0.5;" x="221.309005334" xlink:href="#m5284c7e2a0" y="12.9235303218"/>
      </g>
     </g>
    </g>
    <g id="xtick_14">
     <g id="line2d_66">
      <g>
       <use style="stroke:#000000;stroke-width:0.5;" x="231.274108969" xlink:href="#m177f7580d0" y="358.523530322"/>
      </g>
     </g>
     <g id="line2d_67">
      <g>
       <use style="stroke:#000000;stroke-width:0.5;" x="231.274108969" xlink:href="#m5284c7e2a0" y="12.9235303218"/>
      </g>
     </g>
    </g>
    <g id="xtick_15">
     <g id="line2d_68">
      <g>
       <use style="stroke:#000000;stroke-width:0.5;" x="239.906274376" xlink:href="#m177f7580d0" y="358.523530322"/>
      </g>
     </g>
     <g id="line2d_69">
      <g>
       <use style="stroke:#000000;stroke-width:0.5;" x="239.906274376" xlink:href="#m5284c7e2a0" y="12.9235303218"/>
      </g>
     </g>
    </g>
    <g id="xtick_16">
     <g id="line2d_70">
      <g>
       <use style="stroke:#000000;stroke-width:0.5;" x="247.520383883" xlink:href="#m177f7580d0" y="358.523530322"/>
      </g>
     </g>
     <g id="line2d_71">
      <g>
       <use style="stroke:#000000;stroke-width:0.5;" x="247.520383883" xlink:href="#m5284c7e2a0" y="12.9235303218"/>
      </g>
     </g>
    </g>
    <g id="xtick_17">
     <g id="line2d_72">
      <g>
       <use style="stroke:#000000;stroke-width:0.5;" x="299.140084523" xlink:href="#m177f7580d0" y="358.523530322"/>
      </g>
     </g>
     <g id="line2d_73">
      <g>
       <use style="stroke:#000000;stroke-width:0.5;" x="299.140084523" xlink:href="#m5284c7e2a0" y="12.9235303218"/>
      </g>
     </g>
    </g>
    <g id="xtick_18">
     <g id="line2d_74">
      <g>
       <use style="stroke:#000000;stroke-width:0.5;" x="325.351463072" xlink:href="#m177f7580d0" y="358.523530322"/>
      </g>
     </g>
     <g id="line2d_75">
      <g>
       <use style="stroke:#000000;stroke-width:0.5;" x="325.351463072" xlink:href="#m5284c7e2a0" y="12.9235303218"/>
      </g>
     </g>
    </g>
    <g id="xtick_19">
     <g id="line2d_76">
      <g>
       <use style="stroke:#000000;stroke-width:0.5;" x="343.948732115" xlink:href="#m177f7580d0" y="358.523530322"/>
      </g>
     </g>
     <g id="line2d_77">
      <g>
       <use style="stroke:#000000;stroke-width:0.5;" x="343.948732115" xlink:href="#m5284c7e2a0" y="12.9235303218"/>
      </g>
     </g>
    </g>
    <g id="xtick_20">
     <g id="line2d_78">
      <g>
       <use style="stroke:#000000;stroke-width:0.5;" x="358.373894669" xlink:href="#m177f7580d0" y="358.523530322"/>
      </g>
     </g>
     <g id="line2d_79">
      <g>
       <use style="stroke:#000000;stroke-width:0.5;" x="358.373894669" xlink:href="#m5284c7e2a0" y="12.9235303218"/>
      </g>
     </g>
    </g>
    <g id="xtick_21">
     <g id="line2d_80">
      <g>
       <use style="stroke:#000000;stroke-width:0.5;" x="370.160110665" xlink:href="#m177f7580d0" y="358.523530322"/>
      </g>
     </g>
     <g id="line2d_81">
      <g>
       <use style="stroke:#000000;stroke-width:0.5;" x="370.160110665" xlink:href="#m5284c7e2a0" y="12.9235303218"/>
      </g>
     </g>
    </g>
    <g id="xtick_22">
     <g id="line2d_82">
      <g>
       <use style="stroke:#000000;stroke-width:0.5;" x="380.1252143" xlink:href="#m177f7580d0" y="358.523530322"/>
      </g>
     </g>
     <g id="line2d_83">
      <g>
       <use style="stroke:#000000;stroke-width:0.5;" x="380.1252143" xlink:href="#m5284c7e2a0" y="12.9235303218"/>
      </g>
     </g>
    </g>
    <g id="xtick_23">
     <g id="line2d_84">
      <g>
       <use style="stroke:#000000;stroke-width:0.5;" x="388.757379707" xlink:href="#m177f7580d0" y="358.523530322"/>
      </g>
     </g>
     <g id="line2d_85">
      <g>
       <use style="stroke:#000000;stroke-width:0.5;" x="388.757379707" xlink:href="#m5284c7e2a0" y="12.9235303218"/>
      </g>
     </g>
    </g>
    <g id="xtick_24">
     <g id="line2d_86">
      <g>
       <use style="stroke:#000000;stroke-width:0.5;" x="396.371489214" xlink:href="#m177f7580d0" y="358.523530322"/>
      </g>
     </g>
     <g id="line2d_87">
      <g>
       <use style="stroke:#000000;stroke-width:0.5;" x="396.371489214" xlink:href="#m5284c7e2a0" y="12.9235303218"/>
      </g>
     </g>
    </g>
    <g id="xtick_25">
     <g id="line2d_88">
      <g>
       <use style="stroke:#000000;stroke-width:0.5;" x="447.991189854" xlink:href="#m177f7580d0" y="358.523530322"/>
      </g>
     </g>
     <g id="line2d_89">
      <g>
       <use style="stroke:#000000;stroke-width:0.5;" x="447.991189854" xlink:href="#m5284c7e2a0" y="12.9235303218"/>
      </g>
     </g>
    </g>
    <g id="xtick_26">
     <g id="line2d_90">
      <g>
       <use style="stroke:#000000;stroke-width:0.5;" x="474.202568403" xlink:href="#m177f7580d0" y="358.523530322"/>
      </g>
     </g>
     <g id="line2d_91">
      <g>
       <use style="stroke:#000000;stroke-width:0.5;" x="474.202568403" xlink:href="#m5284c7e2a0" y="12.9235303218"/>
      </g>
     </g>
    </g>
    <g id="xtick_27">
     <g id="line2d_92">
      <g>
       <use style="stroke:#000000;stroke-width:0.5;" x="492.799837446" xlink:href="#m177f7580d0" y="358.523530322"/>
      </g>
     </g>
     <g id="line2d_93">
      <g>
       <use style="stroke:#000000;stroke-width:0.5;" x="492.799837446" xlink:href="#m5284c7e2a0" y="12.9235303218"/>
      </g>
     </g>
    </g>
    <g id="xtick_28">
     <g id="line2d_94">
      <g>
       <use style="stroke:#000000;stroke-width:0.5;" x="507.225" xlink:href="#m177f7580d0" y="358.523530322"/>
      </g>
     </g>
     <g id="line2d_95">
      <g>
       <use style="stroke:#000000;stroke-width:0.5;" x="507.225" xlink:href="#m5284c7e2a0" y="12.9235303218"/>
      </g>
     </g>
    </g>
    <g id="text_4">
     <!-- log10 of FEvals / DIM -->
     <defs>
      <path d="
M9.32812 0
L9.32812 71.5781
L18.7969 71.5781
L18.7969 0
z
" id="ArialMT-49"/>
      <path d="
M40.4375 6.39062
Q35.5469 2.25 31.0312 0.53125
Q26.5156 -1.17188 21.3438 -1.17188
Q12.7969 -1.17188 8.20312 3
Q3.60938 7.17188 3.60938 13.6719
Q3.60938 17.4844 5.34375 20.625
Q7.07812 23.7812 9.89062 25.6875
Q12.7031 27.5938 16.2188 28.5625
Q18.7969 29.25 24.0312 29.8906
Q34.6719 31.1562 39.7031 32.9062
Q39.75 34.7188 39.75 35.2031
Q39.75 40.5781 37.25 42.7812
Q33.8906 45.75 27.25 45.75
Q21.0469 45.75 18.0938 43.5781
Q15.1406 41.4062 13.7188 35.8906
L5.125 37.0625
Q6.29688 42.5781 8.98438 45.9688
Q11.6719 49.3594 16.75 51.1875
Q21.8281 53.0312 28.5156 53.0312
Q35.1562 53.0312 39.2969 51.4688
Q43.4531 49.9062 45.4062 47.5312
Q47.3594 45.1719 48.1406 41.5469
Q48.5781 39.3125 48.5781 33.4531
L48.5781 21.7344
Q48.5781 9.46875 49.1406 6.21875
Q49.7031 2.98438 51.375 0
L42.1875 0
Q40.8281 2.73438 40.4375 6.39062
M39.7031 26.0312
Q34.9062 24.0781 25.3438 22.7031
Q19.9219 21.9219 17.6719 20.9375
Q15.4375 19.9688 14.2031 18.0938
Q12.9844 16.2188 12.9844 13.9219
Q12.9844 10.4062 15.6406 8.0625
Q18.3125 5.71875 23.4375 5.71875
Q28.5156 5.71875 32.4688 7.9375
Q36.4219 10.1562 38.2812 14.0156
Q39.7031 17 39.7031 22.7969
z
" id="ArialMT-61"/>
      <path d="
M4.98438 -4.29688
L13.5312 -5.5625
Q14.0625 -9.51562 16.5 -11.3281
Q19.7812 -13.7656 25.4375 -13.7656
Q31.5469 -13.7656 34.8594 -11.3281
Q38.1875 -8.89062 39.3594 -4.5
Q40.0469 -1.8125 39.9844 6.78125
Q34.2344 0 25.6406 0
Q14.9375 0 9.07812 7.71875
Q3.21875 15.4375 3.21875 26.2188
Q3.21875 33.6406 5.90625 39.9062
Q8.59375 46.1875 13.6875 49.6094
Q18.7969 53.0312 25.6875 53.0312
Q34.8594 53.0312 40.8281 45.6094
L40.8281 51.8594
L48.9219 51.8594
L48.9219 7.03125
Q48.9219 -5.07812 46.4531 -10.125
Q44 -15.1875 38.6406 -18.1094
Q33.2969 -21.0469 25.4844 -21.0469
Q16.2188 -21.0469 10.5 -16.875
Q4.78125 -12.7031 4.98438 -4.29688
M12.25 26.8594
Q12.25 16.6562 16.2969 11.9688
Q20.3594 7.28125 26.4688 7.28125
Q32.5156 7.28125 36.6094 11.9375
Q40.7188 16.6094 40.7188 26.5625
Q40.7188 36.0781 36.5 40.9062
Q32.2812 45.75 26.3125 45.75
Q20.4531 45.75 16.3438 40.9844
Q12.25 36.2344 12.25 26.8594" id="ArialMT-67"/>
      <path d="
M8.6875 0
L8.6875 45.0156
L0.921875 45.0156
L0.921875 51.8594
L8.6875 51.8594
L8.6875 57.375
Q8.6875 62.5938 9.625 65.1406
Q10.8906 68.5625 14.0781 70.6719
Q17.2812 72.7969 23.0469 72.7969
Q26.7656 72.7969 31.25 71.9219
L29.9375 64.2656
Q27.2031 64.75 24.75 64.75
Q20.75 64.75 19.0938 63.0312
Q17.4375 61.3281 17.4375 56.6406
L17.4375 51.8594
L27.5469 51.8594
L27.5469 45.0156
L17.4375 45.0156
L17.4375 0
z
" id="ArialMT-66"/>
      <path d="
M0 -1.21875
L20.75 72.7969
L27.7812 72.7969
L7.07812 -1.21875
z
" id="ArialMT-2f"/>
      <path d="
M21 0
L1.26562 51.8594
L10.5469 51.8594
L21.6875 20.7969
Q23.4844 15.7656 25 10.3594
Q26.1719 14.4531 28.2656 20.2188
L39.7969 51.8594
L48.8281 51.8594
L29.2031 0
z
" id="ArialMT-76"/>
      <path d="
M7.90625 0
L7.90625 71.5781
L59.6719 71.5781
L59.6719 63.1406
L17.3906 63.1406
L17.3906 41.2188
L56.9844 41.2188
L56.9844 32.8125
L17.3906 32.8125
L17.3906 8.45312
L61.3281 8.45312
L61.3281 0
z
" id="ArialMT-45"/>
      <path d="
M7.71875 0
L7.71875 71.5781
L32.375 71.5781
Q40.7188 71.5781 45.125 70.5625
Q51.2656 69.1406 55.6094 65.4375
Q61.2812 60.6406 64.0781 53.1875
Q66.8906 45.75 66.8906 36.1875
Q66.8906 28.0312 64.9844 21.7344
Q63.0938 15.4375 60.1094 11.2969
Q57.125 7.17188 53.5781 4.79688
Q50.0469 2.4375 45.0469 1.21875
Q40.0469 0 33.5469 0
z

M17.1875 8.45312
L32.4688 8.45312
Q39.5469 8.45312 43.5781 9.76562
Q47.6094 11.0781 50 13.4844
Q53.375 16.8438 55.25 22.5312
Q57.125 28.2188 57.125 36.3281
Q57.125 47.5625 53.4375 53.5938
Q49.75 59.625 44.4844 61.6719
Q40.6719 63.1406 32.2344 63.1406
L17.1875 63.1406
z
" id="ArialMT-44"/>
      <path d="
M8.20312 0
L8.20312 71.5781
L56.5 71.5781
L56.5 63.1406
L17.6719 63.1406
L17.6719 40.9688
L51.2656 40.9688
L51.2656 32.5156
L17.6719 32.5156
L17.6719 0
z
" id="ArialMT-46"/>
      <path d="
M6.39062 0
L6.39062 71.5781
L15.1875 71.5781
L15.1875 0
z
" id="ArialMT-6c"/>
      <path d="
M3.32812 25.9219
Q3.32812 40.3281 11.3281 47.2656
Q18.0156 53.0312 27.6406 53.0312
Q38.3281 53.0312 45.1094 46.0156
Q51.9062 39.0156 51.9062 26.6562
Q51.9062 16.6562 48.9062 10.9062
Q45.9062 5.17188 40.1562 2
Q34.4219 -1.17188 27.6406 -1.17188
Q16.75 -1.17188 10.0312 5.8125
Q3.32812 12.7969 3.32812 25.9219
M12.3594 25.9219
Q12.3594 15.9688 16.7031 11.0156
Q21.0469 6.0625 27.6406 6.0625
Q34.1875 6.0625 38.5312 11.0312
Q42.875 16.0156 42.875 26.2188
Q42.875 35.8438 38.5 40.7969
Q34.125 45.75 27.6406 45.75
Q21.0469 45.75 16.7031 40.8125
Q12.3594 35.8906 12.3594 25.9219" id="ArialMT-6f"/>
      <path d="
M3.07812 15.4844
L11.7656 16.8438
Q12.5 11.625 15.8438 8.84375
Q19.1875 6.0625 25.2031 6.0625
Q31.25 6.0625 34.1719 8.51562
Q37.1094 10.9844 37.1094 14.3125
Q37.1094 17.2812 34.5156 19
Q32.7188 20.1719 25.5312 21.9688
Q15.875 24.4219 12.1406 26.2031
Q8.40625 27.9844 6.46875 31.125
Q4.54688 34.2812 4.54688 38.0938
Q4.54688 41.5469 6.125 44.5
Q7.71875 47.4688 10.4531 49.4219
Q12.5 50.9219 16.0312 51.9688
Q19.5781 53.0312 23.6406 53.0312
Q29.7344 53.0312 34.3438 51.2656
Q38.9688 49.5156 41.1562 46.5
Q43.3594 43.5 44.1875 38.4844
L35.5938 37.3125
Q35.0156 41.3125 32.2031 43.5469
Q29.3906 45.7969 24.2656 45.7969
Q18.2188 45.7969 15.625 43.7969
Q13.0312 41.7969 13.0312 39.1094
Q13.0312 37.4062 14.1094 36.0312
Q15.1875 34.625 17.4844 33.6875
Q18.7969 33.2031 25.25 31.4531
Q34.5781 28.9531 38.25 27.3594
Q41.9375 25.7812 44.0312 22.75
Q46.1406 19.7344 46.1406 15.2344
Q46.1406 10.8438 43.5781 6.95312
Q41.0156 3.07812 36.1719 0.953125
Q31.3438 -1.17188 25.25 -1.17188
Q15.1406 -1.17188 9.84375 3.03125
Q4.54688 7.23438 3.07812 15.4844" id="ArialMT-73"/>
      <path d="
M7.42188 0
L7.42188 71.5781
L21.6875 71.5781
L38.625 20.9062
Q40.9688 13.8125 42.0469 10.2969
Q43.2656 14.2031 45.8438 21.7812
L62.9844 71.5781
L75.7344 71.5781
L75.7344 0
L66.6094 0
L66.6094 59.9062
L45.7969 0
L37.25 0
L16.5469 60.9375
L16.5469 0
z
" id="ArialMT-4d"/>
      <path id="ArialMT-20"/>
     </defs>
     <g transform="translate(189.1953125 400.373530322)scale(0.2 -0.2)">
      <use xlink:href="#ArialMT-6c"/>
      <use x="22.216796875" xlink:href="#ArialMT-6f"/>
      <use x="77.83203125" xlink:href="#ArialMT-67"/>
      <use x="133.447265625" xlink:href="#ArialMT-31"/>
      <use x="189.0625" xlink:href="#ArialMT-30"/>
      <use x="244.677734375" xlink:href="#ArialMT-20"/>
      <use x="272.4609375" xlink:href="#ArialMT-6f"/>
      <use x="328.076171875" xlink:href="#ArialMT-66"/>
      <use x="355.859375" xlink:href="#ArialMT-20"/>
      <use x="383.642578125" xlink:href="#ArialMT-46"/>
      <use x="444.7265625" xlink:href="#ArialMT-45"/>
      <use x="511.42578125" xlink:href="#ArialMT-76"/>
      <use x="561.42578125" xlink:href="#ArialMT-61"/>
      <use x="617.041015625" xlink:href="#ArialMT-6c"/>
      <use x="639.2578125" xlink:href="#ArialMT-73"/>
      <use x="689.2578125" xlink:href="#ArialMT-20"/>
      <use x="717.041015625" xlink:href="#ArialMT-2f"/>
      <use x="744.82421875" xlink:href="#ArialMT-20"/>
      <use x="772.607421875" xlink:href="#ArialMT-44"/>
      <use x="844.82421875" xlink:href="#ArialMT-49"/>
      <use x="872.607421875" xlink:href="#ArialMT-4d"/>
     </g>
    </g>
   </g>
   <g id="matplotlib.axis_2">
    <g id="ytick_1">
     <g id="line2d_96">
      <path clip-path="url(#p0ab5e1e507)" d="
M60.825 358.524
L507.225 358.524" style="fill:none;stroke:#000000;stroke-dasharray:1.000000,3.000000;stroke-dashoffset:0.0;stroke-width:0.5;"/>
     </g>
     <g id="line2d_97">
      <defs>
       <path d="
M0 0
L4 0" id="m728421d6d4" style="stroke:#000000;stroke-width:0.5;"/>
      </defs>
      <g>
       <use style="stroke:#000000;stroke-width:0.5;" x="60.825" xlink:href="#m728421d6d4" y="358.523530322"/>
      </g>
     </g>
     <g id="line2d_98">
      <defs>
       <path d="
M0 0
L-4 0" id="mcb0005524f" style="stroke:#000000;stroke-width:0.5;"/>
      </defs>
      <g>
       <use style="stroke:#000000;stroke-width:0.5;" x="507.225" xlink:href="#mcb0005524f" y="358.523530322"/>
      </g>
     </g>
     <g id="text_5">
      <!-- 0.0 -->
      <defs>
       <path d="
M9.07812 0
L9.07812 10.0156
L19.0938 10.0156
L19.0938 0
z
" id="ArialMT-2e"/>
      </defs>
      <g transform="translate(30.8125 363.693842822)scale(0.2 -0.2)">
       <use xlink:href="#ArialMT-30"/>
       <use x="55.615234375" xlink:href="#ArialMT-2e"/>
       <use x="83.3984375" xlink:href="#ArialMT-30"/>
      </g>
     </g>
    </g>
    <g id="ytick_2">
     <g id="line2d_99">
      <path clip-path="url(#p0ab5e1e507)" d="
M60.825 290.088
L507.225 290.088" style="fill:none;stroke:#000000;stroke-dasharray:1.000000,3.000000;stroke-dashoffset:0.0;stroke-width:0.5;"/>
     </g>
     <g id="line2d_100">
      <g>
       <use style="stroke:#000000;stroke-width:0.5;" x="60.825" xlink:href="#m728421d6d4" y="290.087886757"/>
      </g>
     </g>
     <g id="line2d_101">
      <g>
       <use style="stroke:#000000;stroke-width:0.5;" x="507.225" xlink:href="#mcb0005524f" y="290.087886757"/>
      </g>
     </g>
     <g id="text_6">
      <!-- 0.2 -->
      <g transform="translate(30.909375 295.258199257)scale(0.2 -0.2)">
       <use xlink:href="#ArialMT-30"/>
       <use x="55.615234375" xlink:href="#ArialMT-2e"/>
       <use x="83.3984375" xlink:href="#ArialMT-32"/>
      </g>
     </g>
    </g>
    <g id="ytick_3">
     <g id="line2d_102">
      <path clip-path="url(#p0ab5e1e507)" d="
M60.825 221.652
L507.225 221.652" style="fill:none;stroke:#000000;stroke-dasharray:1.000000,3.000000;stroke-dashoffset:0.0;stroke-width:0.5;"/>
     </g>
     <g id="line2d_103">
      <g>
       <use style="stroke:#000000;stroke-width:0.5;" x="60.825" xlink:href="#m728421d6d4" y="221.652243193"/>
      </g>
     </g>
     <g id="line2d_104">
      <g>
       <use style="stroke:#000000;stroke-width:0.5;" x="507.225" xlink:href="#mcb0005524f" y="221.652243193"/>
      </g>
     </g>
     <g id="text_7">
      <!-- 0.4 -->
      <defs>
       <path d="
M32.3281 0
L32.3281 17.1406
L1.26562 17.1406
L1.26562 25.2031
L33.9375 71.5781
L41.1094 71.5781
L41.1094 25.2031
L50.7812 25.2031
L50.7812 17.1406
L41.1094 17.1406
L41.1094 0
z

M32.3281 25.2031
L32.3281 57.4688
L9.90625 25.2031
z
" id="ArialMT-34"/>
      </defs>
      <g transform="translate(30.821875 226.822555693)scale(0.2 -0.2)">
       <use xlink:href="#ArialMT-30"/>
       <use x="55.615234375" xlink:href="#ArialMT-2e"/>
       <use x="83.3984375" xlink:href="#ArialMT-34"/>
      </g>
     </g>
    </g>
    <g id="ytick_4">
     <g id="line2d_105">
      <path clip-path="url(#p0ab5e1e507)" d="
M60.825 153.217
L507.225 153.217" style="fill:none;stroke:#000000;stroke-dasharray:1.000000,3.000000;stroke-dashoffset:0.0;stroke-width:0.5;"/>
     </g>
     <g id="line2d_106">
      <g>
       <use style="stroke:#000000;stroke-width:0.5;" x="60.825" xlink:href="#m728421d6d4" y="153.216599629"/>
      </g>
     </g>
     <g id="line2d_107">
      <g>
       <use style="stroke:#000000;stroke-width:0.5;" x="507.225" xlink:href="#mcb0005524f" y="153.216599629"/>
      </g>
     </g>
     <g id="text_8">
      <!-- 0.6 -->
      <defs>
       <path d="
M49.75 54.0469
L41.0156 53.375
Q39.8438 58.5469 37.7031 60.8906
Q34.125 64.6562 28.9062 64.6562
Q24.7031 64.6562 21.5312 62.3125
Q17.3906 59.2812 14.9844 53.4688
Q12.5938 47.6562 12.5 36.9219
Q15.6719 41.75 20.2656 44.0938
Q24.8594 46.4375 29.8906 46.4375
Q38.6719 46.4375 44.8438 39.9688
Q51.0312 33.5 51.0312 23.25
Q51.0312 16.5 48.125 10.7188
Q45.2188 4.9375 40.1406 1.85938
Q35.0625 -1.21875 28.6094 -1.21875
Q17.625 -1.21875 10.6875 6.85938
Q3.76562 14.9375 3.76562 33.5
Q3.76562 54.25 11.4219 63.6719
Q18.1094 71.875 29.4375 71.875
Q37.8906 71.875 43.2812 67.1406
Q48.6875 62.4062 49.75 54.0469
M13.875 23.1875
Q13.875 18.6562 15.7969 14.5
Q17.7188 10.3594 21.1875 8.17188
Q24.6562 6 28.4688 6
Q34.0312 6 38.0312 10.4844
Q42.0469 14.9844 42.0469 22.7031
Q42.0469 30.125 38.0781 34.3906
Q34.125 38.6719 28.125 38.6719
Q22.1719 38.6719 18.0156 34.3906
Q13.875 30.125 13.875 23.1875" id="ArialMT-36"/>
      </defs>
      <g transform="translate(30.771875 158.386912129)scale(0.2 -0.2)">
       <use xlink:href="#ArialMT-30"/>
       <use x="55.615234375" xlink:href="#ArialMT-2e"/>
       <use x="83.3984375" xlink:href="#ArialMT-36"/>
      </g>
     </g>
    </g>
    <g id="ytick_5">
     <g id="line2d_108">
      <path clip-path="url(#p0ab5e1e507)" d="
M60.825 84.781
L507.225 84.781" style="fill:none;stroke:#000000;stroke-dasharray:1.000000,3.000000;stroke-dashoffset:0.0;stroke-width:0.5;"/>
     </g>
     <g id="line2d_109">
      <g>
       <use style="stroke:#000000;stroke-width:0.5;" x="60.825" xlink:href="#m728421d6d4" y="84.7809560644"/>
      </g>
     </g>
     <g id="line2d_110">
      <g>
       <use style="stroke:#000000;stroke-width:0.5;" x="507.225" xlink:href="#mcb0005524f" y="84.7809560644"/>
      </g>
     </g>
     <g id="text_9">
      <!-- 0.8 -->
      <defs>
       <path d="
M17.6719 38.8125
Q12.2031 40.8281 9.5625 44.5312
Q6.9375 48.25 6.9375 53.4219
Q6.9375 61.2344 12.5469 66.5469
Q18.1719 71.875 27.4844 71.875
Q36.8594 71.875 42.5781 66.4219
Q48.2969 60.9844 48.2969 53.1719
Q48.2969 48.1875 45.6719 44.5
Q43.0625 40.8281 37.75 38.8125
Q44.3438 36.6719 47.7812 31.875
Q51.2188 27.0938 51.2188 20.4531
Q51.2188 11.2812 44.7188 5.03125
Q38.2344 -1.21875 27.6406 -1.21875
Q17.0469 -1.21875 10.5469 5.04688
Q4.04688 11.3281 4.04688 20.7031
Q4.04688 27.6875 7.59375 32.3906
Q11.1406 37.1094 17.6719 38.8125
M15.9219 53.7188
Q15.9219 48.6406 19.1875 45.4062
Q22.4688 42.1875 27.6875 42.1875
Q32.7656 42.1875 36.0156 45.375
Q39.2656 48.5781 39.2656 53.2188
Q39.2656 58.0625 35.9062 61.3594
Q32.5625 64.6562 27.5938 64.6562
Q22.5625 64.6562 19.2344 61.4219
Q15.9219 58.2031 15.9219 53.7188
M13.0938 20.6562
Q13.0938 16.8906 14.875 13.375
Q16.6562 9.85938 20.1719 7.92188
Q23.6875 6 27.7344 6
Q34.0312 6 38.125 10.0469
Q42.2344 14.1094 42.2344 20.3594
Q42.2344 26.7031 38.0156 30.8594
Q33.7969 35.0156 27.4375 35.0156
Q21.2344 35.0156 17.1562 30.9062
Q13.0938 26.8125 13.0938 20.6562" id="ArialMT-38"/>
      </defs>
      <g transform="translate(30.734375 89.9512685644)scale(0.2 -0.2)">
       <use xlink:href="#ArialMT-30"/>
       <use x="55.615234375" xlink:href="#ArialMT-2e"/>
       <use x="83.3984375" xlink:href="#ArialMT-38"/>
      </g>
     </g>
    </g>
    <g id="ytick_6">
     <g id="line2d_111">
      <path clip-path="url(#p0ab5e1e507)" d="
M60.825 16.3453
L507.225 16.3453" style="fill:none;stroke:#000000;stroke-dasharray:1.000000,3.000000;stroke-dashoffset:0.0;stroke-width:0.5;"/>
     </g>
     <g id="line2d_112">
      <g>
       <use style="stroke:#000000;stroke-width:0.5;" x="60.825" xlink:href="#m728421d6d4" y="16.3453125"/>
      </g>
     </g>
     <g id="line2d_113">
      <g>
       <use style="stroke:#000000;stroke-width:0.5;" x="507.225" xlink:href="#mcb0005524f" y="16.3453125"/>
      </g>
     </g>
     <g id="text_10">
      <!-- 1.0 -->
      <g transform="translate(32.159375 21.515625)scale(0.2 -0.2)">
       <use xlink:href="#ArialMT-31"/>
       <use x="55.615234375" xlink:href="#ArialMT-2e"/>
       <use x="83.3984375" xlink:href="#ArialMT-30"/>
      </g>
     </g>
    </g>
    <g id="text_11">
     <!-- proportion of trials -->
     <defs>
      <path d="
M25.7812 7.85938
L27.0469 0.09375
Q23.3438 -0.6875 20.4062 -0.6875
Q15.625 -0.6875 12.9844 0.828125
Q10.3594 2.34375 9.28125 4.8125
Q8.20312 7.28125 8.20312 15.1875
L8.20312 45.0156
L1.76562 45.0156
L1.76562 51.8594
L8.20312 51.8594
L8.20312 64.7031
L16.9375 69.9688
L16.9375 51.8594
L25.7812 51.8594
L25.7812 45.0156
L16.9375 45.0156
L16.9375 14.7031
Q16.9375 10.9375 17.4062 9.85938
Q17.875 8.79688 18.9219 8.15625
Q19.9688 7.51562 21.9219 7.51562
Q23.3906 7.51562 25.7812 7.85938" id="ArialMT-74"/>
      <path d="
M6.64062 61.4688
L6.64062 71.5781
L15.4375 71.5781
L15.4375 61.4688
z

M6.64062 0
L6.64062 51.8594
L15.4375 51.8594
L15.4375 0
z
" id="ArialMT-69"/>
      <path d="
M6.59375 -19.875
L6.59375 51.8594
L14.5938 51.8594
L14.5938 45.125
Q17.4375 49.0781 21 51.0469
Q24.5625 53.0312 29.6406 53.0312
Q36.2812 53.0312 41.3594 49.6094
Q46.4375 46.1875 49.0156 39.9531
Q51.6094 33.7344 51.6094 26.3125
Q51.6094 18.3594 48.75 11.9844
Q45.9062 5.60938 40.4531 2.21875
Q35.0156 -1.17188 29 -1.17188
Q24.6094 -1.17188 21.1094 0.6875
Q17.625 2.54688 15.375 5.375
L15.375 -19.875
z

M14.5469 25.6406
Q14.5469 15.625 18.5938 10.8438
Q22.6562 6.0625 28.4219 6.0625
Q34.2812 6.0625 38.4531 11.0156
Q42.625 15.9688 42.625 26.375
Q42.625 36.2812 38.5469 41.2031
Q34.4688 46.1406 28.8125 46.1406
Q23.1875 46.1406 18.8594 40.8906
Q14.5469 35.6406 14.5469 25.6406" id="ArialMT-70"/>
      <path d="
M6.59375 0
L6.59375 51.8594
L14.5 51.8594
L14.5 44.4844
Q20.2188 53.0312 31 53.0312
Q35.6875 53.0312 39.625 51.3438
Q43.5625 49.6562 45.5156 46.9219
Q47.4688 44.1875 48.25 40.4375
Q48.7344 37.9844 48.7344 31.8906
L48.7344 0
L39.9375 0
L39.9375 31.5469
Q39.9375 36.9219 38.9062 39.5781
Q37.8906 42.2344 35.2812 43.8125
Q32.6719 45.4062 29.1562 45.4062
Q23.5312 45.4062 19.4531 41.8438
Q15.375 38.2812 15.375 28.3281
L15.375 0
z
" id="ArialMT-6e"/>
      <path d="
M6.5 0
L6.5 51.8594
L14.4062 51.8594
L14.4062 44
Q17.4375 49.5156 20 51.2656
Q22.5625 53.0312 25.6406 53.0312
Q30.0781 53.0312 34.6719 50.2031
L31.6406 42.0469
Q28.4219 43.9531 25.2031 43.9531
Q22.3125 43.9531 20.0156 42.2188
Q17.7188 40.4844 16.75 37.4062
Q15.2812 32.7188 15.2812 27.1562
L15.2812 0
z
" id="ArialMT-72"/>
     </defs>
     <g transform="translate(21.759375 265.370405322)rotate(-90.0)scale(0.2 -0.2)">
      <use xlink:href="#ArialMT-70"/>
      <use x="55.615234375" xlink:href="#ArialMT-72"/>
      <use x="88.916015625" xlink:href="#ArialMT-6f"/>
      <use x="144.53125" xlink:href="#ArialMT-70"/>
      <use x="200.146484375" xlink:href="#ArialMT-6f"/>
      <use x="255.76171875" xlink:href="#ArialMT-72"/>
      <use x="289.0625" xlink:href="#ArialMT-74"/>
      <use x="316.845703125" xlink:href="#ArialMT-69"/>
      <use x="339.0625" xlink:href="#ArialMT-6f"/>
      <use x="394.677734375" xlink:href="#ArialMT-6e"/>
      <use x="450.29296875" xlink:href="#ArialMT-20"/>
      <use x="478.076171875" xlink:href="#ArialMT-6f"/>
      <use x="533.69140625" xlink:href="#ArialMT-66"/>
      <use x="561.474609375" xlink:href="#ArialMT-20"/>
      <use x="589.2578125" xlink:href="#ArialMT-74"/>
      <use x="617.041015625" xlink:href="#ArialMT-72"/>
      <use x="650.341796875" xlink:href="#ArialMT-69"/>
      <use x="672.55859375" xlink:href="#ArialMT-61"/>
      <use x="728.173828125" xlink:href="#ArialMT-6c"/>
      <use x="750.390625" xlink:href="#ArialMT-73"/>
     </g>
    </g>
   </g>
   <g id="patch_3">
    <path d="
M60.825 12.9235
L507.225 12.9235" style="fill:none;stroke:#000000;"/>
   </g>
   <g id="patch_4">
    <path d="
M507.225 358.524
L507.225 12.9235" style="fill:none;stroke:#000000;"/>
   </g>
   <g id="patch_5">
    <path d="
M60.825 358.524
L507.225 358.524" style="fill:none;stroke:#000000;"/>
   </g>
   <g id="patch_6">
    <path d="
M60.825 358.524
L60.825 12.9235" style="fill:none;stroke:#000000;"/>
   </g>
   <g id="text_12">
    <!-- {f10-f14}, 5-D -->
    <defs>
     <path d="
M30.5625 29.8906
L30.5625 21.9219
Q26.8125 21.8281 24.4375 19.875
Q22.0781 17.9219 21.2969 14.5781
Q20.5156 11.2344 20.4531 3.07812
Q20.4062 -5.07812 20.1719 -7.67188
Q19.7344 -11.8125 18.5312 -14.2812
Q17.3281 -16.75 15.5625 -18.2344
Q13.8125 -19.7344 11.0781 -20.5156
Q9.23438 -21.0469 5.03125 -21.0469
L2.29688 -21.0469
L2.29688 -13.375
L3.8125 -13.375
Q8.89062 -13.375 10.5469 -11.5469
Q12.2031 -9.71875 12.2031 -3.32812
Q12.2031 8.89062 12.6406 12.1562
Q13.4219 17.5781 15.7656 20.8281
Q18.1094 24.0781 22.4062 25.875
Q16.7969 28.5625 14.5 32.9844
Q12.2031 37.4062 12.2031 47.9062
Q12.2031 57.4219 11.9688 59.2812
Q11.625 62.5469 10.0312 63.8438
Q8.45312 65.1406 3.8125 65.1406
L2.29688 65.1406
L2.29688 72.7969
L5.03125 72.7969
Q9.8125 72.7969 11.9688 72.0156
Q15.0938 70.9531 17.1406 68.4062
Q19.1875 65.875 19.7969 62.0156
Q20.4062 58.1562 20.4531 49.3594
Q20.5156 40.5781 21.2969 37.2344
Q22.0781 33.8906 24.4375 31.9375
Q26.8125 29.9844 30.5625 29.8906" id="ArialMT-7d"/>
     <path d="
M3.17188 21.4844
L3.17188 30.3281
L30.1719 30.3281
L30.1719 21.4844
z
" id="ArialMT-2d"/>
     <path d="
M8.89062 0
L8.89062 10.0156
L18.8906 10.0156
L18.8906 0
Q18.8906 -5.51562 16.9375 -8.90625
Q14.9844 -12.3125 10.75 -14.1562
L8.29688 -10.4062
Q11.0781 -9.1875 12.3906 -6.8125
Q13.7188 -4.4375 13.875 0
z
" id="ArialMT-2c"/>
     <path d="
M4.15625 18.75
L13.375 19.5312
Q14.4062 12.7969 18.1406 9.39062
Q21.875 6 27.1562 6
Q33.5 6 37.8906 10.7812
Q42.2812 15.5781 42.2812 23.4844
Q42.2812 31 38.0625 35.3438
Q33.8438 39.7031 27 39.7031
Q22.75 39.7031 19.3281 37.7656
Q15.9219 35.8438 13.9688 32.7656
L5.71875 33.8438
L12.6406 70.6094
L48.25 70.6094
L48.25 62.2031
L19.6719 62.2031
L15.8281 42.9688
Q22.2656 47.4688 29.3438 47.4688
Q38.7188 47.4688 45.1562 40.9688
Q51.6094 34.4688 51.6094 24.2656
Q51.6094 14.5469 45.9531 7.46875
Q39.0625 -1.21875 27.1562 -1.21875
Q17.3906 -1.21875 11.2031 4.25
Q5.03125 9.71875 4.15625 18.75" id="ArialMT-35"/>
     <path d="
M2.78125 29.8906
Q6.54688 29.9844 8.90625 31.9062
Q11.2812 33.8438 12.0625 37.2031
Q12.8438 40.5781 12.8906 48.7344
Q12.9375 56.8906 13.1875 59.4688
Q13.625 63.5781 14.8125 66.0625
Q16.0156 68.5625 17.7656 70.0469
Q19.5312 71.5312 22.2656 72.3125
Q24.125 72.7969 28.3281 72.7969
L31.0625 72.7969
L31.0625 65.1406
L29.5469 65.1406
Q24.4688 65.1406 22.7969 63.2969
Q21.1406 61.4688 21.1406 55.125
Q21.1406 42.3281 20.6094 38.9688
Q19.7344 33.7344 17.6094 30.9062
Q15.4844 28.0781 10.9375 25.875
Q16.3125 23.6406 18.7188 19.0156
Q21.1406 14.4062 21.1406 3.90625
Q21.1406 -5.60938 21.3438 -7.42188
Q21.7344 -10.75 23.3125 -12.0625
Q24.9062 -13.375 29.5469 -13.375
L31.0625 -13.375
L31.0625 -21.0469
L28.3281 -21.0469
Q23.5312 -21.0469 21.3906 -20.2656
Q18.2656 -19.1406 16.2031 -16.625
Q14.1562 -14.1094 13.5469 -10.25
Q12.9375 -6.39062 12.8906 2.39062
Q12.8438 11.1875 12.0625 14.5469
Q11.2812 17.9219 8.90625 19.875
Q6.54688 21.8281 2.78125 21.9219
z
" id="ArialMT-7b"/>
    </defs>
    <g transform="translate(225.078125 34.3949053218)scale(0.2 -0.2)">
     <use xlink:href="#ArialMT-7b"/>
     <use x="33.3984375" xlink:href="#ArialMT-66"/>
     <use x="61.181640625" xlink:href="#ArialMT-31"/>
     <use x="116.796875" xlink:href="#ArialMT-30"/>
     <use x="172.412109375" xlink:href="#ArialMT-2d"/>
     <use x="205.712890625" xlink:href="#ArialMT-66"/>
     <use x="233.49609375" xlink:href="#ArialMT-31"/>
     <use x="289.111328125" xlink:href="#ArialMT-34"/>
     <use x="344.7265625" xlink:href="#ArialMT-7d"/>
     <use x="378.125" xlink:href="#ArialMT-2c"/>
     <use x="405.908203125" xlink:href="#ArialMT-20"/>
     <use x="433.69140625" xlink:href="#ArialMT-35"/>
     <use x="489.306640625" xlink:href="#ArialMT-2d"/>
     <use x="522.607421875" xlink:href="#ArialMT-44"/>
    </g>
   </g>
   <g id="text_13">
    <!-- reference budgets from refalgs/best2009-bbob.tar.gz -->
    <defs>
     <path d="
M40.4375 19
L49.0781 17.875
Q47.6562 8.9375 41.8125 3.875
Q35.9844 -1.17188 27.4844 -1.17188
Q16.8438 -1.17188 10.375 5.78125
Q3.90625 12.75 3.90625 25.7344
Q3.90625 34.125 6.6875 40.4219
Q9.46875 46.7344 15.1562 49.875
Q20.8438 53.0312 27.5469 53.0312
Q35.9844 53.0312 41.3594 48.75
Q46.7344 44.4844 48.25 36.625
L39.7031 35.2969
Q38.4844 40.5312 35.375 43.1562
Q32.2812 45.7969 27.875 45.7969
Q21.2344 45.7969 17.0781 41.0312
Q12.9375 36.2812 12.9375 25.9844
Q12.9375 15.5312 16.9375 10.7969
Q20.9531 6.0625 27.3906 6.0625
Q32.5625 6.0625 36.0312 9.23438
Q39.5 12.4062 40.4375 19" id="ArialMT-63"/>
     <path d="
M14.7031 0
L6.54688 0
L6.54688 71.5781
L15.3281 71.5781
L15.3281 46.0469
Q20.9062 53.0312 29.5469 53.0312
Q34.3281 53.0312 38.5938 51.0938
Q42.875 49.1719 45.625 45.6719
Q48.3906 42.1875 49.9531 37.25
Q51.5156 32.3281 51.5156 26.7031
Q51.5156 13.375 44.9219 6.09375
Q38.3281 -1.17188 29.1094 -1.17188
Q19.9219 -1.17188 14.7031 6.5
z

M14.5938 26.3125
Q14.5938 17 17.1406 12.8438
Q21.2969 6.0625 28.375 6.0625
Q34.125 6.0625 38.3281 11.0625
Q42.5312 16.0625 42.5312 25.9844
Q42.5312 36.1406 38.5 40.9688
Q34.4688 45.7969 28.7656 45.7969
Q23 45.7969 18.7969 40.7969
Q14.5938 35.7969 14.5938 26.3125" id="ArialMT-62"/>
     <path d="
M42.0938 16.7031
L51.1719 15.5781
Q49.0312 7.625 43.2188 3.21875
Q37.4062 -1.17188 28.375 -1.17188
Q17 -1.17188 10.3281 5.82812
Q3.65625 12.8438 3.65625 25.4844
Q3.65625 38.5781 10.3906 45.7969
Q17.1406 53.0312 27.875 53.0312
Q38.2812 53.0312 44.875 45.9531
Q51.4688 38.875 51.4688 26.0312
Q51.4688 25.25 51.4219 23.6875
L12.75 23.6875
Q13.2344 15.1406 17.5781 10.5938
Q21.9219 6.0625 28.4219 6.0625
Q33.25 6.0625 36.6719 8.59375
Q40.0938 11.1406 42.0938 16.7031
M13.2344 30.9062
L42.1875 30.9062
Q41.6094 37.4531 38.875 40.7188
Q34.6719 45.7969 27.9844 45.7969
Q21.9219 45.7969 17.7969 41.75
Q13.6719 37.7031 13.2344 30.9062" id="ArialMT-65"/>
     <path d="
M40.2344 0
L40.2344 6.54688
Q35.2969 -1.17188 25.7344 -1.17188
Q19.5312 -1.17188 14.3281 2.25
Q9.125 5.67188 6.26562 11.7969
Q3.42188 17.9219 3.42188 25.875
Q3.42188 33.6406 6 39.9688
Q8.59375 46.2969 13.7656 49.6562
Q18.9531 53.0312 25.3438 53.0312
Q30.0312 53.0312 33.6875 51.0469
Q37.3594 49.0781 39.6562 45.9062
L39.6562 71.5781
L48.3906 71.5781
L48.3906 0
z

M12.4531 25.875
Q12.4531 15.9219 16.6406 10.9844
Q20.8438 6.0625 26.5625 6.0625
Q32.3281 6.0625 36.3438 10.7656
Q40.375 15.4844 40.375 25.1406
Q40.375 35.7969 36.2656 40.7656
Q32.1719 45.75 26.1719 45.75
Q20.3125 45.75 16.375 40.9688
Q12.4531 36.1875 12.4531 25.875" id="ArialMT-64"/>
     <path d="
M40.5781 0
L40.5781 7.625
Q34.5156 -1.17188 24.125 -1.17188
Q19.5312 -1.17188 15.5469 0.578125
Q11.5781 2.34375 9.64062 5
Q7.71875 7.67188 6.9375 11.5312
Q6.39062 14.1094 6.39062 19.7344
L6.39062 51.8594
L15.1875 51.8594
L15.1875 23.0938
Q15.1875 16.2188 15.7188 13.8125
Q16.5469 10.3594 19.2344 8.375
Q21.9219 6.39062 25.875 6.39062
Q29.8281 6.39062 33.2969 8.42188
Q36.7656 10.4531 38.2031 13.9375
Q39.6562 17.4375 39.6562 24.0781
L39.6562 51.8594
L48.4375 51.8594
L48.4375 0
z
" id="ArialMT-75"/>
     <path d="
M5.46875 16.5469
L13.9219 17.3281
Q14.9844 11.375 18.0156 8.6875
Q21.0469 6 25.7812 6
Q29.8281 6 32.875 7.85938
Q35.9375 9.71875 37.8906 12.8125
Q39.8438 15.9219 41.1562 21.1875
Q42.4844 26.4688 42.4844 31.9375
Q42.4844 32.5156 42.4375 33.6875
Q39.7969 29.5 35.2344 26.875
Q30.6719 24.2656 25.3438 24.2656
Q16.4531 24.2656 10.2969 30.7031
Q4.15625 37.1562 4.15625 47.7031
Q4.15625 58.5938 10.5781 65.2344
Q17 71.875 26.6562 71.875
Q33.6406 71.875 39.4219 68.1094
Q45.2188 64.3594 48.2188 57.3906
Q51.2188 50.4375 51.2188 37.25
Q51.2188 23.5312 48.2344 15.4062
Q45.2656 7.28125 39.375 3.03125
Q33.5 -1.21875 25.5938 -1.21875
Q17.1875 -1.21875 11.8594 3.4375
Q6.54688 8.10938 5.46875 16.5469
M41.4531 48.1406
Q41.4531 55.7188 37.4219 60.1562
Q33.4062 64.5938 27.7344 64.5938
Q21.875 64.5938 17.5312 59.8125
Q13.1875 55.0312 13.1875 47.4062
Q13.1875 40.5781 17.3125 36.2969
Q21.4375 32.0312 27.4844 32.0312
Q33.5938 32.0312 37.5156 36.2969
Q41.4531 40.5781 41.4531 48.1406" id="ArialMT-39"/>
     <path d="
M6.59375 0
L6.59375 51.8594
L14.4531 51.8594
L14.4531 44.5781
Q16.8906 48.3906 20.9375 50.7031
Q25 53.0312 30.1719 53.0312
Q35.9375 53.0312 39.625 50.6406
Q43.3125 48.25 44.8281 43.9531
Q50.9844 53.0312 60.8438 53.0312
Q68.5625 53.0312 72.7031 48.75
Q76.8594 44.4844 76.8594 35.5938
L76.8594 0
L68.1094 0
L68.1094 32.6719
Q68.1094 37.9375 67.25 40.25
Q66.4062 42.5781 64.1562 43.9844
Q61.9219 45.4062 58.8906 45.4062
Q53.4219 45.4062 49.7969 41.7656
Q46.1875 38.1406 46.1875 30.125
L46.1875 0
L37.4062 0
L37.4062 33.6875
Q37.4062 39.5469 35.25 42.4688
Q33.1094 45.4062 28.2188 45.4062
Q24.5156 45.4062 21.3594 43.4531
Q18.2188 41.5 16.7969 37.7344
Q15.375 33.9844 15.375 26.9062
L15.375 0
z
" id="ArialMT-6d"/>
     <path d="
M1.95312 0
L1.95312 7.125
L34.9688 45.0156
Q29.3438 44.7344 25.0469 44.7344
L3.90625 44.7344
L3.90625 51.8594
L46.2969 51.8594
L46.2969 46.0469
L18.2188 13.1406
L12.7969 7.125
Q18.7031 7.5625 23.875 7.5625
L47.8594 7.5625
L47.8594 0
z
" id="ArialMT-7a"/>
    </defs>
    <g transform="translate(60.825 358.523530322)scale(0.14 -0.14)">
     <use xlink:href="#ArialMT-72"/>
     <use x="33.30078125" xlink:href="#ArialMT-65"/>
     <use x="88.916015625" xlink:href="#ArialMT-66"/>
     <use x="116.69921875" xlink:href="#ArialMT-65"/>
     <use x="172.314453125" xlink:href="#ArialMT-72"/>
     <use x="205.615234375" xlink:href="#ArialMT-65"/>
     <use x="261.23046875" xlink:href="#ArialMT-6e"/>
     <use x="316.845703125" xlink:href="#ArialMT-63"/>
     <use x="366.845703125" xlink:href="#ArialMT-65"/>
     <use x="422.4609375" xlink:href="#ArialMT-20"/>
     <use x="450.244140625" xlink:href="#ArialMT-62"/>
     <use x="505.859375" xlink:href="#ArialMT-75"/>
     <use x="561.474609375" xlink:href="#ArialMT-64"/>
     <use x="617.08984375" xlink:href="#ArialMT-67"/>
     <use x="672.705078125" xlink:href="#ArialMT-65"/>
     <use x="728.3203125" xlink:href="#ArialMT-74"/>
     <use x="756.103515625" xlink:href="#ArialMT-73"/>
     <use x="806.103515625" xlink:href="#ArialMT-20"/>
     <use x="833.88671875" xlink:href="#ArialMT-66"/>
     <use x="861.669921875" xlink:href="#ArialMT-72"/>
     <use x="894.970703125" xlink:href="#ArialMT-6f"/>
     <use x="950.5859375" xlink:href="#ArialMT-6d"/>
     <use x="1033.88671875" xlink:href="#ArialMT-20"/>
     <use x="1061.66992188" xlink:href="#ArialMT-72"/>
     <use x="1094.97070312" xlink:href="#ArialMT-65"/>
     <use x="1150.5859375" xlink:href="#ArialMT-66"/>
     <use x="1178.36914062" xlink:href="#ArialMT-61"/>
     <use x="1233.984375" xlink:href="#ArialMT-6c"/>
     <use x="1256.20117188" xlink:href="#ArialMT-67"/>
     <use x="1311.81640625" xlink:href="#ArialMT-73"/>
     <use x="1361.81640625" xlink:href="#ArialMT-2f"/>
     <use x="1389.59960938" xlink:href="#ArialMT-62"/>
     <use x="1445.21484375" xlink:href="#ArialMT-65"/>
     <use x="1500.83007812" xlink:href="#ArialMT-73"/>
     <use x="1550.83007812" xlink:href="#ArialMT-74"/>
     <use x="1578.61328125" xlink:href="#ArialMT-32"/>
     <use x="1634.22851562" xlink:href="#ArialMT-30"/>
     <use x="1689.84375" xlink:href="#ArialMT-30"/>
     <use x="1745.45898438" xlink:href="#ArialMT-39"/>
     <use x="1801.07421875" xlink:href="#ArialMT-2d"/>
     <use x="1834.375" xlink:href="#ArialMT-62"/>
     <use x="1889.99023438" xlink:href="#ArialMT-62"/>
     <use x="1945.60546875" xlink:href="#ArialMT-6f"/>
     <use x="2001.22070312" xlink:href="#ArialMT-62"/>
     <use x="2056.8359375" xlink:href="#ArialMT-2e"/>
     <use x="2084.61914062" xlink:href="#ArialMT-74"/>
     <use x="2112.40234375" xlink:href="#ArialMT-61"/>
     <use x="2168.01757812" xlink:href="#ArialMT-72"/>
     <use x="2195.81835938" xlink:href="#ArialMT-2e"/>
     <use x="2223.6015625" xlink:href="#ArialMT-67"/>
     <use x="2279.21679688" xlink:href="#ArialMT-7a"/>
    </g>
   </g>
   <g id="text_14">
    <!-- v2.0.1 -->
    <g style="fill:#808080;" transform="translate(271.38671875 353.080030322)scale(0.1 -0.1)">
     <use xlink:href="#ArialMT-76"/>
     <use x="50.0" xlink:href="#ArialMT-32"/>
     <use x="105.615234375" xlink:href="#ArialMT-2e"/>
     <use x="133.3984375" xlink:href="#ArialMT-30"/>
     <use x="189.013671875" xlink:href="#ArialMT-2e"/>
     <use x="216.796875" xlink:href="#ArialMT-31"/>
    </g>
   </g>
   <g id="legend_1">
    <g id="patch_7">
     <path d="
M70.825 142.086
L208.738 142.086
L208.738 22.9235
L70.825 22.9235
L70.825 142.086
z
" style="fill:#ffffff;opacity:0.2;stroke:#000000;"/>
    </g>
    <g id="line2d_114">
     <path d="
M84.825 38.2392
L112.825 38.2392" style="fill:none;stroke:#000000;stroke-linecap:square;"/>
    </g>
    <g id="line2d_115"/>
    <g id="text_15">
     <!-- 0.5: 5/5 -->
     <defs>
      <path d="
M9.03125 41.8438
L9.03125 51.8594
L19.0469 51.8594
L19.0469 41.8438
z

M9.03125 0
L9.03125 10.0156
L19.0469 10.0156
L19.0469 0
z
" id="ArialMT-3a"/>
     </defs>
     <g transform="translate(134.825 45.2391553218)scale(0.2 -0.2)">
      <use xlink:href="#ArialMT-30"/>
      <use x="55.615234375" xlink:href="#ArialMT-2e"/>
      <use x="83.3984375" xlink:href="#ArialMT-35"/>
      <use x="139.013671875" xlink:href="#ArialMT-3a"/>
      <use x="166.796875" xlink:href="#ArialMT-20"/>
      <use x="194.580078125" xlink:href="#ArialMT-35"/>
      <use x="250.1953125" xlink:href="#ArialMT-2f"/>
      <use x="277.978515625" xlink:href="#ArialMT-35"/>
     </g>
    </g>
    <g id="line2d_116">
     <path d="
M84.825 66.5298
L112.825 66.5298" style="fill:none;stroke:#00bfbf;stroke-linecap:square;"/>
    </g>
    <g id="line2d_117"/>
    <g id="text_16">
     <!-- 2: 5/5 -->
     <g transform="translate(134.825 73.5297803218)scale(0.2 -0.2)">
      <use xlink:href="#ArialMT-32"/>
      <use x="55.615234375" xlink:href="#ArialMT-3a"/>
      <use x="83.3984375" xlink:href="#ArialMT-20"/>
      <use x="111.181640625" xlink:href="#ArialMT-35"/>
      <use x="166.796875" xlink:href="#ArialMT-2f"/>
      <use x="194.580078125" xlink:href="#ArialMT-35"/>
     </g>
    </g>
    <g id="line2d_118">
     <path d="
M84.825 94.8204
L112.825 94.8204" style="fill:none;stroke:#bf00bf;stroke-linecap:square;"/>
    </g>
    <g id="line2d_119"/>
    <g id="text_17">
     <!-- 10: 5/5 -->
     <g transform="translate(134.825 101.820405322)scale(0.2 -0.2)">
      <use xlink:href="#ArialMT-31"/>
      <use x="55.615234375" xlink:href="#ArialMT-30"/>
      <use x="111.23046875" xlink:href="#ArialMT-3a"/>
      <use x="139.013671875" xlink:href="#ArialMT-20"/>
      <use x="166.796875" xlink:href="#ArialMT-35"/>
      <use x="222.412109375" xlink:href="#ArialMT-2f"/>
      <use x="250.1953125" xlink:href="#ArialMT-35"/>
     </g>
    </g>
    <g id="line2d_120">
     <path d="
M84.825 123.111
L112.825 123.111" style="fill:none;stroke:#ff0000;stroke-linecap:square;stroke-width:3.0;"/>
    </g>
    <g id="line2d_121"/>
    <g id="text_18">
     <!-- 50: 5/5 -->
     <g transform="translate(134.825 130.111030322)scale(0.2 -0.2)">
      <use xlink:href="#ArialMT-35"/>
      <use x="55.615234375" xlink:href="#ArialMT-30"/>
      <use x="111.23046875" xlink:href="#ArialMT-3a"/>
      <use x="139.013671875" xlink:href="#ArialMT-20"/>
      <use x="166.796875" xlink:href="#ArialMT-35"/>
      <use x="222.412109375" xlink:href="#ArialMT-2f"/>
      <use x="250.1953125" xlink:href="#ArialMT-35"/>
     </g>
    </g>
   </g>
  </g>
 </g>
 <defs>
  <clipPath id="p0ab5e1e507">
   <rect height="345.6" width="446.4" x="60.825" y="12.9235303218"/>
  </clipPath>
 </defs>
</svg>
