<?xml version="1.0" encoding="utf-8" standalone="no"?>
<!DOCTYPE svg PUBLIC "-//W3C//DTD SVG 1.1//EN"
  "http://www.w3.org/Graphics/SVG/1.1/DTD/svg11.dtd">
<!-- Created with matplotlib (http://matplotlib.org/) -->
<svg height="414pt" version="1.1" viewBox="0 0 580 414" width="580pt" xmlns="http://www.w3.org/2000/svg" xmlns:xlink="http://www.w3.org/1999/xlink">
 <defs>
  <style type="text/css">
*{stroke-linecap:butt;stroke-linejoin:round;}
  </style>
 </defs>
 <g id="figure_1">
  <g id="patch_1">
   <path d="
M0 414.924
L580.563 414.924
L580.563 0
L0 0
z
" style="fill:#ffffff;"/>
  </g>
  <g id="axes_1">
   <g id="patch_2">
    <path d="
M85.2 358.524
L531.6 358.524
L531.6 12.9235
L85.2 12.9235
z
" style="fill:#ffffff;"/>
   </g>
   <g id="line2d_1">
    <path d="
M85.2 358.524
L85.2 319.417
L100.193 319.417
L100.193 309.641
L111.822 309.641
L111.822 280.311
L121.324 280.311
L121.324 260.758
L129.357 260.758
L129.357 250.982
L142.455 250.982
L142.455 231.429
L161.619 231.429
L161.619 211.876
L165.481 211.876
L165.481 202.099
L172.44 202.099
L172.44 192.323
L178.578 192.323
L178.578 182.546
L189.036 182.546
L189.036 172.77
L191.353 172.77
L191.353 162.993
L210.167 162.993
L210.167 153.217
L221.48 153.217
L221.48 133.664
L225.16 133.664
L225.16 123.887
L228.597 123.887
L228.597 114.111
L243.032 114.111
L243.032 104.334
L255.661 104.334
L255.661 94.5575
L259.476 94.5575
L259.476 84.781
L266.358 84.781
L266.358 75.0044
L288.728 75.0044
L288.728 65.2279
L294.671 65.2279
L294.671 55.4514
L295.599 55.4514
L295.599 45.6749
L303.545 45.6749
L303.545 35.8984
L337.793 35.8984
L337.793 26.1218
L338.201 26.1218
L338.201 16.3453
L445.2 16.3453" style="fill:none;stroke:#f5deb3;stroke-linecap:square;stroke-width:6;"/>
   </g>
   <g id="line2d_2"/>
   <g id="line2d_3">
    <path d="
M445.2 16.3453
L484.8 23.1889" style="fill:none;stroke:#f5deb3;stroke-linecap:square;stroke-width:6;"/>
    <defs>
     <path d="
M-6.10623e-16 7.77817
L7.77817 0
L1.16573e-15 -7.77817
L-7.77817 -1.77636e-15
z
" id="m2c936259e7" style="stroke:#f5deb3;stroke-linejoin:miter;stroke-width:1.5;"/>
    </defs>
    <g>
     <use style="fill:#f5deb3;stroke:#f5deb3;stroke-linejoin:miter;stroke-width:1.5;" x="445.2" xlink:href="#m2c936259e7" y="16.3453125"/>
     <use style="fill:#f5deb3;stroke:#f5deb3;stroke-linejoin:miter;stroke-width:1.5;" x="484.8" xlink:href="#m2c936259e7" y="23.1888768564"/>
    </g>
   </g>
   <g id="line2d_4">
    <defs>
     <path d="
M0 1.5
C0.397805 1.5 0.77937 1.34195 1.06066 1.06066
C1.34195 0.77937 1.5 0.397805 1.5 0
C1.5 -0.397805 1.34195 -0.77937 1.06066 -1.06066
C0.77937 -1.34195 0.397805 -1.5 0 -1.5
C-0.397805 -1.5 -0.77937 -1.34195 -1.06066 -1.06066
C-1.34195 -0.77937 -1.5 -0.397805 -1.5 0
C-1.5 0.397805 -1.34195 0.77937 -1.06066 1.06066
C-0.77937 1.34195 -0.397805 1.5 0 1.5
z
" id="m68ae1779e3" style="stroke:#f5deb3;stroke-width:0.5;"/>
    </defs>
    <g>
     <use style="fill:#f5deb3;stroke:#f5deb3;stroke-width:0.5;" x="338.200736975" xlink:href="#m68ae1779e3" y="16.3453125"/>
     <use style="fill:#f5deb3;stroke:#f5deb3;stroke-width:0.5;" x="338.200736975" xlink:href="#m68ae1779e3" y="16.3453125"/>
    </g>
   </g>
   <g id="line2d_5">
    <g>
     <use style="fill:#f5deb3;stroke:#f5deb3;stroke-linejoin:miter;stroke-width:1.5;" x="111.821849954" xlink:href="#m2c936259e7" y="280.311366248"/>
     <use style="fill:#f5deb3;stroke:#f5deb3;stroke-linejoin:miter;stroke-width:1.5;" x="172.439847352" xlink:href="#m2c936259e7" y="202.099202175"/>
     <use style="fill:#f5deb3;stroke:#f5deb3;stroke-linejoin:miter;stroke-width:1.5;" x="266.358057546" xlink:href="#m2c936259e7" y="84.7809560644"/>
     <use style="fill:#f5deb3;stroke:#f5deb3;stroke-linejoin:miter;stroke-width:1.5;" x="338.200736975" xlink:href="#m2c936259e7" y="26.1218330092"/>
     <use style="fill:#f5deb3;stroke:#f5deb3;stroke-linejoin:miter;stroke-width:1.5;" x="445.2" xlink:href="#m2c936259e7" y="16.3453125"/>
    </g>
   </g>
   <g id="line2d_6">
    <defs>
     <path d="
M0 1.5
C0.397805 1.5 0.77937 1.34195 1.06066 1.06066
C1.34195 0.77937 1.5 0.397805 1.5 0
C1.5 -0.397805 1.34195 -0.77937 1.06066 -1.06066
C0.77937 -1.34195 0.397805 -1.5 0 -1.5
C-0.397805 -1.5 -0.77937 -1.34195 -1.06066 -1.06066
C-1.34195 -0.77937 -1.5 -0.397805 -1.5 0
C-1.5 0.397805 -1.34195 0.77937 -1.06066 1.06066
C-0.77937 1.34195 -0.397805 1.5 0 1.5
z
" id="ma8fc8663ec" style="stroke:#000080;stroke-width:0.5;"/>
    </defs>
    <g>
     <use style="fill:#000080;stroke:#000080;stroke-width:0.5;" x="442.636433806" xlink:href="#ma8fc8663ec" y="35.8983535184"/>
     <use style="fill:#000080;stroke:#000080;stroke-width:0.5;" x="442.636433806" xlink:href="#ma8fc8663ec" y="35.8983535184"/>
    </g>
   </g>
   <g id="line2d_7">
    <path d="
M64.069 318.44
L85.2 318.44
L85.2 306.708
L100.193 306.708
L100.193 298.887
L111.822 298.887
L111.822 292.043
L121.324 292.043
L121.324 286.177
L129.357 286.177
L129.357 278.356
L136.316 278.356
L136.316 277.378
L147.945 277.378
L147.945 271.512
L152.913 271.512
L152.913 270.535
L157.447 270.535
L157.447 264.669
L161.619 264.669
L161.619 253.915
L165.481 253.915
L165.481 244.138
L169.076 244.138
L169.076 240.228
L172.44 240.228
L172.44 234.362
L175.599 234.362
L175.599 228.496
L178.578 228.496
L178.578 226.541
L181.396 226.541
L181.396 221.652
L186.612 221.652
L186.612 220.675
L189.036 220.675
L189.036 210.898
L191.353 210.898
L191.353 203.077
L193.571 203.077
L193.571 202.099
L195.698 202.099
L195.698 199.166
L197.742 199.166
L197.742 198.189
L199.709 198.189
L199.709 197.211
L201.604 197.211
L201.604 196.233
L203.433 196.233
L203.433 194.278
L205.2 194.278
L205.2 189.39
L206.909 189.39
L206.909 186.457
L208.563 186.457
L208.563 184.501
L210.167 184.501
L210.167 183.524
L211.723 183.524
L211.723 182.546
L213.234 182.546
L213.234 177.658
L214.702 177.658
L214.702 174.725
L216.13 174.725
L216.13 171.792
L217.519 171.792
L217.519 162.015
L223.962 162.015
L223.962 161.038
L227.476 161.038
L227.476 157.127
L229.694 157.127
L229.694 152.239
L231.822 152.239
L231.822 149.306
L232.854 149.306
L232.854 148.328
L233.866 148.328
L233.866 143.44
L234.859 143.44
L234.859 139.529
L235.833 139.529
L235.833 135.619
L240.448 135.619
L240.448 133.664
L242.185 133.664
L242.185 132.686
L243.032 132.686
L243.032 130.731
L245.495 130.731
L245.495 127.798
L246.291 127.798
L246.291 126.82
L247.847 126.82
L247.847 122.909
L250.825 122.909
L250.825 121.932
L251.544 121.932
L251.544 120.954
L257.603 120.954
L257.603 116.066
L259.476 116.066
L259.476 115.088
L261.283 115.088
L261.283 112.155
L261.872 112.155
L261.872 110.2
L262.455 110.2
L262.455 109.222
L265.272 109.222
L265.272 107.267
L267.945 107.267
L267.945 106.289
L268.977 106.289
L268.977 105.312
L270.488 105.312
L270.488 104.334
L270.982 104.334
L270.982 101.401
L271.956 101.401
L271.956 100.423
L274.774 100.423
L274.774 97.4904
L275.229 97.4904
L275.229 96.5128
L276.128 96.5128
L276.128 95.5351
L278.309 95.5351
L278.309 93.5798
L282.808 93.5798
L282.808 92.6022
L284.731 92.6022
L284.731 89.6692
L286.22 89.6692
L286.22 88.6916
L287.31 88.6916
L287.31 87.7139
L288.024 87.7139
L288.024 84.781
L291.12 84.781
L291.12 83.8033
L293.408 83.8033
L293.408 82.8257
L295.292 82.8257
L295.292 79.8927
L299.44 79.8927
L299.44 78.915
L307.106 78.915
L307.106 76.9597
L307.838 76.9597
L307.838 75.9821
L308.08 75.9821
L308.08 75.0044
L308.56 75.0044
L308.56 74.0268
L309.975 74.0268
L309.975 71.0938
L317.541 71.0938
L317.541 70.1162
L318.142 70.1162
L318.142 68.1609
L326.402 68.1609
L326.402 67.1832
L332.635 67.1832
L332.635 66.2056
L335.705 66.2056
L335.705 65.2279
L339.14 65.2279
L339.14 64.2503
L341.225 64.2503
L341.225 62.295
L344.922 62.295
L344.922 61.3173
L346.099 61.3173
L346.099 60.3397
L348.486 60.3397
L348.486 59.362
L353.564 59.362
L353.564 58.3844
L357.728 58.3844
L357.728 57.4067
L360.975 57.4067
L360.975 55.4514
L365.815 55.4514
L365.815 53.4961
L369.654 53.4961
L369.654 52.5184
L370.17 52.5184
L370.17 51.5408
L370.316 51.5408
L370.316 50.5631
L373.437 50.5631
L373.437 49.5855
L373.78 49.5855
L373.78 48.6078
L373.985 48.6078
L373.985 47.6302
L377.603 47.6302
L377.603 46.6525
L382.281 46.6525
L382.339 44.6972
L391.569 44.6972
L391.569 43.7196
L403.431 43.7196
L403.431 42.7419
L403.624 42.7419
L403.624 41.7643
L404.2 41.7643
L404.2 40.7866
L411.883 40.7866
L411.916 38.8313
L422.776 38.8313
L422.776 37.8537
L439.94 37.8537
L439.94 36.876
L442.636 36.876
L442.636 35.8984
L445.2 35.8984
L445.2 35.8984" style="fill:none;stroke:#000080;stroke-linecap:square;stroke-width:1.5;"/>
   </g>
   <g id="line2d_8">
    <defs>
     <path d="
M0 6
C1.59122 6 3.11748 5.3678 4.24264 4.24264
C5.3678 3.11748 6 1.59122 6 0
C6 -1.59122 5.3678 -3.11748 4.24264 -4.24264
C3.11748 -5.3678 1.59122 -6 0 -6
C-1.59122 -6 -3.11748 -5.3678 -4.24264 -4.24264
C-5.3678 -3.11748 -6 -1.59122 -6 0
C-6 1.59122 -5.3678 3.11748 -4.24264 4.24264
C-3.11748 5.3678 -1.59122 6 0 6
z
" id="mae466deef1" style="stroke:#000080;stroke-width:1.5;"/>
    </defs>
    <g>
     <use style="fill:none;stroke:#000080;stroke-width:1.5;" x="100.192648393" xlink:href="#mae466deef1" y="306.707971623"/>
     <use style="fill:none;stroke:#000080;stroke-width:1.5;" x="161.61865171" xlink:href="#mae466deef1" y="253.914760873"/>
     <use style="fill:none;stroke:#000080;stroke-width:1.5;" x="235.832700612" xlink:href="#mae466deef1" y="135.618862712"/>
     <use style="fill:none;stroke:#000080;stroke-width:1.5;" x="309.975211634" xlink:href="#mae466deef1" y="74.0267835042"/>
     <use style="fill:none;stroke:#000080;stroke-width:1.5;" x="403.43085662" xlink:href="#mae466deef1" y="43.7195699257"/>
     <use style="fill:none;stroke:#000080;stroke-width:1.5;" x="445.2" xlink:href="#mae466deef1" y="35.8983535184"/>
    </g>
   </g>
   <g id="line2d_9"/>
   <g id="line2d_10">
    <path clip-path="url(#p0cd469f449)" d="
M325.373 68.1609" style="fill:none;stroke:#000080;stroke-linecap:square;"/>
    <defs>
     <path d="
M-12 12
L12 -12
M-12 -12
L12 12" id="me286a5a777" style="stroke:#000080;stroke-width:3;"/>
    </defs>
    <g clip-path="url(#p0cd469f449)">
     <use style="fill:#000080;stroke:#000080;stroke-width:3;" x="325.373428905" xlink:href="#me286a5a777" y="68.1608711987"/>
    </g>
   </g>
   <g id="line2d_11">
    <defs>
     <path d="
M0 1.5
C0.397805 1.5 0.77937 1.34195 1.06066 1.06066
C1.34195 0.77937 1.5 0.397805 1.5 0
C1.5 -0.397805 1.34195 -0.77937 1.06066 -1.06066
C0.77937 -1.34195 0.397805 -1.5 0 -1.5
C-0.397805 -1.5 -0.77937 -1.34195 -1.06066 -1.06066
C-1.34195 -0.77937 -1.5 -0.397805 -1.5 0
C-1.5 0.397805 -1.34195 0.77937 -1.06066 1.06066
C-0.77937 1.34195 -0.397805 1.5 0 1.5
z
" id="m62d5190e8e" style="stroke:#ff00ff;stroke-width:0.5;"/>
    </defs>
    <g>
     <use style="fill:#ff00ff;stroke:#ff00ff;stroke-width:0.5;" x="495.475659684" xlink:href="#m62d5190e8e" y="16.3453125"/>
     <use style="fill:#ff00ff;stroke:#ff00ff;stroke-width:0.5;" x="495.475659684" xlink:href="#m62d5190e8e" y="16.3453125"/>
    </g>
   </g>
   <g id="line2d_12">
    <path d="
M64.069 312.574
L85.2 312.574
L85.2 299.864
L100.193 299.864
L100.193 289.11
L111.822 289.11
L111.822 283.244
L121.324 283.244
L121.324 280.311
L129.357 280.311
L129.357 277.378
L136.316 277.378
L136.316 263.691
L142.455 263.691
L142.455 262.714
L147.945 262.714
L147.945 257.825
L152.913 257.825
L152.913 255.87
L157.447 255.87
L157.447 249.027
L161.619 249.027
L161.619 248.049
L165.481 248.049
L165.481 246.094
L169.076 246.094
L169.076 245.116
L175.599 245.116
L175.599 244.138
L178.578 244.138
L178.578 235.339
L181.396 235.339
L181.396 221.652
L184.069 221.652
L184.069 220.675
L186.612 220.675
L186.612 212.853
L189.036 212.853
L189.036 211.876
L191.353 211.876
L191.353 210.898
L193.571 210.898
L193.571 209.92
L197.742 209.92
L197.742 208.943
L199.709 208.943
L199.709 206.01
L201.604 206.01
L201.604 195.256
L203.433 195.256
L203.433 184.501
L205.2 184.501
L205.2 182.546
L206.909 182.546
L206.909 178.636
L210.167 178.636
L210.167 177.658
L211.723 177.658
L211.723 176.68
L214.702 176.68
L214.702 174.725
L216.13 174.725
L216.13 171.792
L217.519 171.792
L217.519 169.837
L220.193 169.837
L220.193 162.993
L222.735 162.993
L222.735 157.127
L223.962 157.127
L223.962 156.15
L225.16 156.15
L225.16 152.239
L226.331 152.239
L226.331 151.261
L229.694 151.261
L229.694 150.284
L230.769 150.284
L230.769 148.328
L231.822 148.328
L231.822 146.373
L232.854 146.373
L232.854 145.395
L234.859 145.395
L234.859 140.507
L235.833 140.507
L235.833 139.529
L236.789 139.529
L236.789 138.552
L237.728 138.552
L237.728 137.574
L240.448 137.574
L240.448 136.597
L241.324 136.597
L241.324 135.619
L242.185 135.619
L242.185 133.664
L243.032 133.664
L243.032 131.708
L243.866 131.708
L243.866 130.731
L244.687 130.731
L244.687 127.798
L245.495 127.798
L245.495 124.865
L247.847 124.865
L247.847 123.887
L250.825 123.887
L250.825 122.909
L253.643 122.909
L253.643 121.932
L254.324 121.932
L254.324 119.976
L255.661 119.976
L255.661 118.999
L258.859 118.999
L258.859 118.021
L259.476 118.021
L259.476 112.155
L261.872 112.155
L261.872 111.178
L269.989 111.178
L269.989 110.2
L277.88 110.2
L277.88 108.245
L278.309 108.245
L278.309 107.267
L286.586 107.267
L286.586 104.334
L289.423 104.334
L289.423 103.356
L290.448 103.356
L290.448 102.379
L290.785 102.379
L290.785 101.401
L293.408 101.401
L293.408 100.423
L293.727 100.423
L293.727 99.4457
L296.209 99.4457
L296.209 95.5351
L296.511 95.5351
L296.511 94.5575
L298.288 94.5575
L298.288 93.5798
L303.016 93.5798
L303.016 92.6022
L303.281 92.6022
L303.281 88.6916
L304.069 88.6916
L304.069 86.7363
L304.845 86.7363
L304.845 85.7586
L309.036 85.7586
L309.036 83.8033
L313.787 83.8033
L313.787 81.848
L316.934 81.848
L316.934 80.8703
L317.34 80.8703
L317.34 77.9374
L321.975 77.9374
L321.975 76.9597
L324.5 76.9597
L324.5 75.9821
L326.232 75.9821
L326.232 75.0044
L326.74 75.0044
L326.74 74.0268
L327.908 74.0268
L327.908 73.0491
L328.4 73.0491
L328.4 70.1162
L330.009 70.1162
L330.009 68.1609
L330.167 68.1609
L330.167 66.2056
L331.415 66.2056
L331.415 65.2279
L332.332 65.2279
L332.332 64.2503
L333.234 64.2503
L333.234 63.2726
L333.826 63.2726
L333.826 62.295
L335.134 62.295
L335.134 60.3397
L336.69 60.3397
L336.69 58.3844
L336.968 58.3844
L336.968 57.4067
L338.065 57.4067
L338.065 56.429
L349.368 56.429
L349.368 55.4514
L351.087 55.4514
L351.087 53.4961
L351.718 53.4961
L351.718 52.5184
L352.237 52.5184
L352.237 51.5408
L356.409 51.5408
L356.409 50.5631
L358.375 50.5631
L358.375 49.5855
L361.584 49.5855
L361.584 48.6078
L361.928 48.6078
L361.928 47.6302
L363.949 47.6302
L363.949 46.6525
L369.059 46.6525
L369.059 45.6749
L369.357 45.6749
L369.357 44.6972
L371.258 44.6972
L371.258 43.7196
L377.603 43.7196
L377.603 42.7419
L379.964 42.7419
L379.964 41.7643
L386.733 41.7643
L386.733 40.7866
L387.527 40.7866
L387.527 39.809
L387.998 39.809
L388.102 36.876
L392.675 36.876
L392.675 35.8984
L398.988 35.8984
L398.988 34.9207
L410.38 34.9207
L410.38 33.943
L417.021 33.943
L417.05 31.9877
L421.478 31.9877
L421.478 31.0101
L426.736 31.0101
L426.736 30.0324
L427.571 30.0324
L427.571 29.0548
L429.202 29.0548
L429.202 28.0771
L434.454 28.0771
L434.475 26.1218
L436.072 26.1218
L436.072 25.1442
L439.863 25.1442
L439.863 24.1665
L445.2 24.1665
L445.2 24.1665" style="fill:none;stroke:#ff00ff;stroke-linecap:square;stroke-width:1.5;"/>
   </g>
   <g id="line2d_13">
    <defs>
     <path d="
M-3.9968e-16 8.48528
L5.09117 0
L4.88498e-16 -8.48528
L-5.09117 -1.77636e-15
z
" id="mf6640c921f" style="stroke:#ff00ff;stroke-linejoin:miter;stroke-width:1.5;"/>
    </defs>
    <g>
     <use style="fill:none;stroke:#ff00ff;stroke-linejoin:miter;stroke-width:1.5;" x="64.0690489133" xlink:href="#mf6640c921f" y="312.573883929"/>
     <use style="fill:none;stroke:#ff00ff;stroke-linejoin:miter;stroke-width:1.5;" x="165.480813715" xlink:href="#mf6640c921f" y="246.093544466"/>
     <use style="fill:none;stroke:#ff00ff;stroke-linejoin:miter;stroke-width:1.5;" x="241.32359948" xlink:href="#mf6640c921f" y="136.596514763"/>
     <use style="fill:none;stroke:#ff00ff;stroke-linejoin:miter;stroke-width:1.5;" x="313.787494543" xlink:href="#mf6640c921f" y="83.8033040134"/>
     <use style="fill:none;stroke:#ff00ff;stroke-linejoin:miter;stroke-width:1.5;" x="439.863288635" xlink:href="#mf6640c921f" y="25.1441809583"/>
     <use style="fill:none;stroke:#ff00ff;stroke-linejoin:miter;stroke-width:1.5;" x="445.2" xlink:href="#mf6640c921f" y="24.1665289074"/>
    </g>
   </g>
   <g id="line2d_14"/>
   <g id="line2d_15">
    <path clip-path="url(#p0cd469f449)" d="
M325.373 75.9821" style="fill:none;stroke:#ff00ff;stroke-linecap:square;"/>
    <defs>
     <path d="
M-12 12
L12 -12
M-12 -12
L12 12" id="m86aa83dd4c" style="stroke:#ff00ff;stroke-width:3;"/>
    </defs>
    <g clip-path="url(#p0cd469f449)">
     <use style="fill:#ff00ff;stroke:#ff00ff;stroke-width:3;" x="325.373428905" xlink:href="#m86aa83dd4c" y="75.9820876061"/>
    </g>
   </g>
   <g id="line2d_16">
    <defs>
     <path d="
M0 1.5
C0.397805 1.5 0.77937 1.34195 1.06066 1.06066
C1.34195 0.77937 1.5 0.397805 1.5 0
C1.5 -0.397805 1.34195 -0.77937 1.06066 -1.06066
C0.77937 -1.34195 0.397805 -1.5 0 -1.5
C-0.397805 -1.5 -0.77937 -1.34195 -1.06066 -1.06066
C-1.34195 -0.77937 -1.5 -0.397805 -1.5 0
C-1.5 0.397805 -1.34195 0.77937 -1.06066 1.06066
C-0.77937 1.34195 -0.397805 1.5 0 1.5
z
" id="m3747452efa" style="stroke:#ffa500;stroke-width:0.5;"/>
    </defs>
    <g>
     <use style="fill:#ffa500;stroke:#ffa500;stroke-width:0.5;" x="498.591497694" xlink:href="#m3747452efa" y="26.1218330092"/>
     <use style="fill:#ffa500;stroke:#ffa500;stroke-width:0.5;" x="498.591497694" xlink:href="#m3747452efa" y="26.1218330092"/>
    </g>
   </g>
   <g id="line2d_17">
    <path d="
M64.069 325.283
L85.2 325.283
L85.2 310.619
L100.193 310.619
L100.193 303.775
L111.822 303.775
L111.822 298.887
L121.324 298.887
L121.324 293.021
L129.357 293.021
L129.357 288.133
L136.316 288.133
L136.316 286.177
L142.455 286.177
L142.455 279.334
L147.945 279.334
L147.945 272.49
L152.913 272.49
L152.913 268.58
L157.447 268.58
L157.447 258.803
L161.619 258.803
L161.619 250.982
L165.481 250.982
L165.481 250.004
L169.076 250.004
L169.076 249.027
L172.44 249.027
L172.44 246.094
L175.599 246.094
L175.599 244.138
L178.578 244.138
L178.578 234.362
L181.396 234.362
L181.396 230.451
L184.069 230.451
L184.069 221.652
L186.612 221.652
L186.612 211.876
L189.036 211.876
L189.036 208.943
L191.353 208.943
L191.353 203.077
L193.571 203.077
L193.571 199.166
L195.698 199.166
L195.698 193.3
L197.742 193.3
L197.742 189.39
L199.709 189.39
L199.709 186.457
L201.604 186.457
L201.604 183.524
L203.433 183.524
L203.433 179.613
L205.2 179.613
L205.2 173.747
L208.563 173.747
L208.563 172.77
L210.167 172.77
L210.167 171.792
L211.723 171.792
L211.723 170.814
L213.234 170.814
L213.234 169.837
L216.13 169.837
L216.13 167.881
L217.519 167.881
L217.519 164.948
L220.193 164.948
L220.193 163.971
L221.48 163.971
L221.48 162.993
L222.735 162.993
L222.735 159.083
L223.962 159.083
L223.962 158.105
L225.16 158.105
L225.16 157.127
L227.476 157.127
L227.476 153.217
L228.597 153.217
L228.597 151.261
L229.694 151.261
L229.694 150.284
L230.769 150.284
L230.769 149.306
L233.866 149.306
L233.866 148.328
L236.789 148.328
L236.789 147.351
L239.557 147.351
L239.557 145.395
L240.448 145.395
L240.448 144.418
L242.185 144.418
L242.185 140.507
L243.032 140.507
L243.032 139.529
L243.866 139.529
L243.866 138.552
L244.687 138.552
L244.687 137.574
L247.847 137.574
L247.847 136.597
L253.643 136.597
L253.643 135.619
L254.997 135.619
L254.997 132.686
L256.316 132.686
L256.316 126.82
L256.964 126.82
L256.964 120.954
L260.085 120.954
L260.085 117.043
L261.283 117.043
L261.283 115.088
L263.03 115.088
L263.03 113.133
L264.163 113.133
L264.163 111.178
L264.721 111.178
L264.721 109.222
L266.893 109.222
L266.893 108.245
L267.945 108.245
L267.945 105.312
L269.486 105.312
L269.486 102.379
L270.488 102.379
L270.488 98.4681
L270.982 98.4681
L270.982 96.5128
L273.852 96.5128
L273.852 92.6022
L276.571 92.6022
L276.571 91.6245
L280.811 91.6245
L280.811 90.6469
L281.619 90.6469
L281.619 89.6692
L282.414 89.6692
L282.414 86.7363
L287.31 86.7363
L287.31 85.7586
L289.076 85.7586
L289.076 84.781
L290.785 84.781
L290.785 83.8033
L292.113 83.8033
L292.113 81.848
L292.44 81.848
L292.44 78.915
L294.044 78.915
L294.044 77.9374
L301.942 77.9374
L301.942 76.9597
L304.329 76.9597
L304.329 75.9821
L306.859 75.9821
L306.859 74.0268
L307.838 74.0268
L307.838 72.0715
L309.036 72.0715
L309.036 70.1162
L329.05 70.1162
L329.05 69.1385
L329.532 69.1385
L329.532 68.1609
L336.13 68.1609
L336.13 67.1832
L336.69 67.1832
L336.69 66.2056
L337.929 66.2056
L337.929 65.2279
L338.471 65.2279
L338.471 64.2503
L338.605 64.2503
L338.605 63.2726
L340.453 63.2726
L340.453 62.295
L350.342 62.295
L350.449 60.3397
L351.298 60.3397
L351.298 59.362
L357.635 59.362
L357.635 57.4067
L360.004 57.4067
L360.004 55.4514
L365.575 55.4514
L365.575 54.4737
L366.527 54.4737
L366.527 53.4961
L367.152 53.4961
L367.152 52.5184
L368.076 52.5184
L368.076 51.5408
L368.456 51.5408
L368.456 50.5631
L368.607 50.5631
L368.607 49.5855
L369.059 49.5855
L369.133 47.6302
L370.389 47.6302
L370.462 45.6749
L373.437 45.6749
L373.437 44.6972
L377.22 44.6972
L377.22 43.7196
L377.54 43.7196
L377.54 42.7419
L377.73 42.7419
L377.73 41.7643
L380.085 41.7643
L380.085 40.7866
L381.046 40.7866
L381.046 39.809
L384.776 39.809
L384.776 38.8313
L385.327 38.8313
L385.437 35.8984
L386.893 35.8984
L386.893 34.9207
L388.875 34.9207
L388.875 33.943
L393.805 33.943
L393.805 32.9654
L396.483 32.9654
L396.483 31.9877
L412.048 31.9877
L412.048 31.0101
L429.084 31.0101
L429.084 30.0324
L445.2 30.0324
L445.2 30.0324" style="fill:none;stroke:#ffa500;stroke-linecap:square;stroke-width:1.5;"/>
   </g>
   <g id="line2d_18">
    <defs>
     <path d="
M3.67394e-16 -6
L-1.34708 -1.8541
L-5.70634 -1.8541
L-2.17963 0.708204
L-3.52671 4.8541
L-4.20996e-16 2.2918
L3.52671 4.8541
L2.17963 0.708204
L5.70634 -1.8541
L1.34708 -1.8541
z
" id="m73d367cfb6" style="stroke:#ffa500;stroke-linejoin:bevel;stroke-width:1.5;"/>
    </defs>
    <g>
     <use style="fill:none;stroke:#ffa500;stroke-linejoin:bevel;stroke-width:1.5;" x="27.9454494336" xlink:href="#m73d367cfb6" y="330.171620845"/>
     <use style="fill:none;stroke:#ffa500;stroke-linejoin:bevel;stroke-width:1.5;" x="152.912571653" xlink:href="#m73d367cfb6" y="268.579541637"/>
     <use style="fill:none;stroke:#ffa500;stroke-linejoin:bevel;stroke-width:1.5;" x="222.735364281" xlink:href="#m73d367cfb6" y="159.082511934"/>
     <use style="fill:none;stroke:#ffa500;stroke-linejoin:bevel;stroke-width:1.5;" x="273.851612154" xlink:href="#m73d367cfb6" y="92.6021724717"/>
     <use style="fill:none;stroke:#ffa500;stroke-linejoin:bevel;stroke-width:1.5;" x="368.607340322" xlink:href="#m73d367cfb6" y="50.5631342822"/>
     <use style="fill:none;stroke:#ffa500;stroke-linejoin:bevel;stroke-width:1.5;" x="445.2" xlink:href="#m73d367cfb6" y="30.0324412129"/>
    </g>
   </g>
   <g id="line2d_19"/>
   <g id="line2d_20">
    <path clip-path="url(#p0cd469f449)" d="
M325.373 70.1162" style="fill:none;stroke:#ffa500;stroke-linecap:square;"/>
    <defs>
     <path d="
M-12 12
L12 -12
M-12 -12
L12 12" id="m5a4593f4cb" style="stroke:#ffa500;stroke-width:3;"/>
    </defs>
    <g clip-path="url(#p0cd469f449)">
     <use style="fill:#ffa500;stroke:#ffa500;stroke-width:3;" x="325.373428905" xlink:href="#m5a4593f4cb" y="70.1161753006"/>
    </g>
   </g>
   <g id="line2d_21">
    <defs>
     <path d="
M0 1.5
C0.397805 1.5 0.77937 1.34195 1.06066 1.06066
C1.34195 0.77937 1.5 0.397805 1.5 0
C1.5 -0.397805 1.34195 -0.77937 1.06066 -1.06066
C0.77937 -1.34195 0.397805 -1.5 0 -1.5
C-0.397805 -1.5 -0.77937 -1.34195 -1.06066 -1.06066
C-1.34195 -0.77937 -1.5 -0.397805 -1.5 0
C-1.5 0.397805 -1.34195 0.77937 -1.06066 1.06066
C-0.77937 1.34195 -0.397805 1.5 0 1.5
z
" id="m03dd694df9" style="stroke:#6495ed;stroke-width:0.5;"/>
    </defs>
    <g>
     <use style="fill:#6495ed;stroke:#6495ed;stroke-width:0.5;" x="435.321662693" xlink:href="#m03dd694df9" y="16.3453125"/>
     <use style="fill:#6495ed;stroke:#6495ed;stroke-width:0.5;" x="435.321662693" xlink:href="#m03dd694df9" y="16.3453125"/>
    </g>
   </g>
   <g id="line2d_22">
    <path d="
M64.069 314.529
L85.2 314.529
L85.2 300.842
L100.193 300.842
L100.193 288.133
L111.822 288.133
L111.822 275.423
L121.324 275.423
L121.324 265.647
L129.357 265.647
L129.357 260.758
L136.316 260.758
L136.316 259.781
L142.455 259.781
L142.455 252.937
L147.945 252.937
L147.945 245.116
L157.447 245.116
L157.447 234.362
L161.619 234.362
L161.619 231.429
L165.481 231.429
L165.481 230.451
L169.076 230.451
L169.076 226.541
L172.44 226.541
L172.44 218.719
L178.578 218.719
L178.578 213.831
L181.396 213.831
L181.396 211.876
L184.069 211.876
L184.069 206.987
L186.612 206.987
L186.612 191.345
L189.036 191.345
L189.036 189.39
L191.353 189.39
L191.353 185.479
L193.571 185.479
L193.571 181.569
L195.698 181.569
L195.698 180.591
L197.742 180.591
L197.742 178.636
L199.709 178.636
L199.709 173.747
L201.604 173.747
L201.604 168.859
L205.2 168.859
L205.2 164.948
L206.909 164.948
L206.909 163.971
L208.563 163.971
L208.563 162.015
L210.167 162.015
L210.167 161.038
L211.723 161.038
L211.723 157.127
L213.234 157.127
L213.234 154.194
L214.702 154.194
L214.702 152.239
L218.873 152.239
L218.873 150.284
L220.193 150.284
L220.193 147.351
L223.962 147.351
L223.962 145.395
L225.16 145.395
L225.16 143.44
L226.331 143.44
L226.331 142.462
L228.597 142.462
L228.597 139.529
L229.694 139.529
L229.694 135.619
L230.769 135.619
L230.769 134.641
L231.822 134.641
L231.822 132.686
L233.866 132.686
L233.866 128.775
L237.728 128.775
L237.728 124.865
L240.448 124.865
L240.448 123.887
L241.324 123.887
L241.324 122.909
L245.495 122.909
L245.495 121.932
L246.291 121.932
L246.291 120.954
L247.074 120.954
L247.074 119.976
L247.847 119.976
L247.847 118.999
L249.357 118.999
L249.357 116.066
L250.096 116.066
L250.096 115.088
L252.953 115.088
L252.953 113.133
L254.324 113.133
L254.324 111.178
L255.661 111.178
L255.661 110.2
L256.964 110.2
L256.964 109.222
L261.283 109.222
L261.283 108.245
L261.872 108.245
L261.872 106.289
L263.6 106.289
L263.6 102.379
L264.163 102.379
L264.163 101.401
L264.721 101.401
L264.721 98.4681
L265.272 98.4681
L265.272 97.4904
L266.358 97.4904
L266.358 95.5351
L267.422 95.5351
L267.422 94.5575
L268.464 94.5575
L268.464 93.5798
L270.488 93.5798
L270.488 92.6022
L273.852 92.6022
L273.852 89.6692
L315.906 89.6692
L315.906 87.7139
L318.931 87.7139
L318.931 86.7363
L323.253 86.7363
L323.253 85.7586
L325.373 85.7586
L325.373 83.8033
L325.89 83.8033
L325.89 82.8257
L326.232 82.8257
L326.232 81.848
L327.411 81.848
L327.411 79.8927
L327.743 79.8927
L327.743 78.915
L329.211 78.915
L329.211 77.9374
L329.532 77.9374
L329.532 76.9597
L329.85 76.9597
L329.85 74.0268
L330.639 74.0268
L330.639 73.0491
L330.951 73.0491
L330.951 72.0715
L331.415 72.0715
L331.415 70.1162
L331.569 70.1162
L331.569 69.1385
L331.723 69.1385
L331.723 68.1609
L332.484 68.1609
L332.484 66.2056
L332.785 66.2056
L332.785 64.2503
L334.557 64.2503
L334.557 63.2726
L335.134 63.2726
L335.134 62.295
L335.705 62.295
L335.705 61.3173
L336.13 61.3173
L336.13 58.3844
L336.829 58.3844
L336.829 57.4067
L337.106 57.4067
L337.106 56.429
L337.656 56.429
L337.656 55.4514
L338.605 55.4514
L338.605 54.4737
L339.14 54.4737
L339.14 52.5184
L339.8 52.5184
L339.8 51.5408
L340.062 51.5408
L340.062 49.5855
L340.453 49.5855
L340.453 48.6078
L340.84 48.6078
L340.84 47.6302
L341.733 47.6302
L341.733 45.6749
L343.475 45.6749
L343.475 44.6972
L363.534 44.6972
L363.534 43.7196
L364.278 43.7196
L364.36 40.7866
L365.254 40.7866
L365.254 39.809
L366.37 39.809
L366.37 37.8537
L366.762 37.8537
L366.841 35.8984
L367.77 35.8984
L367.77 34.9207
L368 34.9207
L368 33.943
L368.456 33.943
L368.456 32.9654
L369.283 32.9654
L369.283 31.9877
L380.448 31.9877
L380.448 31.0101
L383.6 31.0101
L383.6 29.0548
L383.826 29.0548
L383.826 28.0771
L383.995 28.0771
L383.995 27.0995
L384.443 27.0995
L384.443 26.1218
L385.818 26.1218
L385.818 25.1442
L400.851 25.1442
L400.851 24.1665
L401.579 24.1665
L401.579 23.1889
L409.111 23.1889
L409.111 22.2112
L411.85 22.2112
L411.85 21.2336
L412.048 21.2336
L412.048 20.2559
L412.407 20.2559
L412.407 19.2783
L420.706 19.2783
L420.706 18.3006
L421.368 18.3006
L421.368 17.323
L435.322 17.323
L435.322 16.3453
L445.2 16.3453
L445.2 16.3453" style="fill:none;stroke:#6495ed;stroke-linecap:square;stroke-width:1.5;"/>
   </g>
   <g id="line2d_23">
    <defs>
     <path d="
M-7.34788e-16 6
L6 -6
L-6 -6
z
" id="md7b19447de" style="stroke:#6495ed;stroke-linejoin:miter;stroke-width:1.5;"/>
    </defs>
    <g>
     <use style="fill:none;stroke:#6495ed;stroke-linejoin:miter;stroke-width:1.5;" x="129.357214235" xlink:href="#md7b19447de" y="265.646585484"/>
     <use style="fill:none;stroke:#6495ed;stroke-linejoin:miter;stroke-width:1.5;" x="184.069048913" xlink:href="#md7b19447de" y="211.875722684"/>
     <use style="fill:none;stroke:#6495ed;stroke-linejoin:miter;stroke-width:1.5;" x="263.599988715" xlink:href="#md7b19447de" y="106.289301185"/>
     <use style="fill:none;stroke:#6495ed;stroke-linejoin:miter;stroke-width:1.5;" x="339.139777476" xlink:href="#md7b19447de" y="54.4737424859"/>
     <use style="fill:none;stroke:#6495ed;stroke-linejoin:miter;stroke-width:1.5;" x="435.321662693" xlink:href="#md7b19447de" y="16.3453125"/>
     <use style="fill:none;stroke:#6495ed;stroke-linejoin:miter;stroke-width:1.5;" x="445.2" xlink:href="#md7b19447de" y="16.3453125"/>
    </g>
   </g>
   <g id="line2d_24"/>
   <g id="line2d_25">
    <path clip-path="url(#p0cd469f449)" d="
M325.2 85.7586" style="fill:none;stroke:#6495ed;stroke-linecap:square;"/>
    <defs>
     <path d="
M-12 12
L12 -12
M-12 -12
L12 12" id="mdd39a44969" style="stroke:#6495ed;stroke-width:3;"/>
    </defs>
    <g clip-path="url(#p0cd469f449)">
     <use style="fill:#6495ed;stroke:#6495ed;stroke-width:3;" x="325.2" xlink:href="#mdd39a44969" y="85.7586081153"/>
    </g>
   </g>
   <g id="line2d_26">
    <defs>
     <path d="
M0 1.5
C0.397805 1.5 0.77937 1.34195 1.06066 1.06066
C1.34195 0.77937 1.5 0.397805 1.5 0
C1.5 -0.397805 1.34195 -0.77937 1.06066 -1.06066
C0.77937 -1.34195 0.397805 -1.5 0 -1.5
C-0.397805 -1.5 -0.77937 -1.34195 -1.06066 -1.06066
C-1.34195 -0.77937 -1.5 -0.397805 -1.5 0
C-1.5 0.397805 -1.34195 0.77937 -1.06066 1.06066
C-0.77937 1.34195 -0.397805 1.5 0 1.5
z
" id="ma07bdd5909" style="stroke:#ff0000;stroke-width:0.5;"/>
    </defs>
    <g>
     <use style="fill:#ff0000;stroke:#ff0000;stroke-width:0.5;" x="530.285244841" xlink:href="#ma07bdd5909" y="17.3229645509"/>
     <use style="fill:#ff0000;stroke:#ff0000;stroke-width:0.5;" x="530.285244841" xlink:href="#ma07bdd5909" y="17.3229645509"/>
    </g>
   </g>
   <g id="line2d_27">
    <path d="
M64.069 308.663
L85.2 308.663
L85.2 292.043
L100.193 292.043
L100.193 279.334
L111.822 279.334
L111.822 270.535
L121.324 270.535
L121.324 268.58
L129.357 268.58
L129.357 262.714
L142.455 262.714
L142.455 258.803
L147.945 258.803
L147.945 254.892
L152.913 254.892
L152.913 250.004
L157.447 250.004
L157.447 249.027
L161.619 249.027
L161.619 247.071
L165.481 247.071
L165.481 246.094
L169.076 246.094
L169.076 244.138
L172.44 244.138
L172.44 241.205
L181.396 241.205
L181.396 238.272
L184.069 238.272
L184.069 236.317
L186.612 236.317
L186.612 234.362
L191.353 234.362
L191.353 232.406
L195.698 232.406
L195.698 231.429
L197.742 231.429
L197.742 226.541
L203.433 226.541
L203.433 225.563
L205.2 225.563
L205.2 222.63
L206.909 222.63
L206.909 220.675
L208.563 220.675
L208.563 216.764
L210.167 216.764
L210.167 212.853
L211.723 212.853
L211.723 206.01
L213.234 206.01
L213.234 204.055
L214.702 204.055
L214.702 203.077
L216.13 203.077
L216.13 196.233
L217.519 196.233
L217.519 189.39
L218.873 189.39
L218.873 188.412
L221.48 188.412
L221.48 187.434
L226.331 187.434
L226.331 186.457
L227.476 186.457
L227.476 185.479
L228.597 185.479
L228.597 183.524
L229.694 183.524
L229.694 180.591
L230.769 180.591
L230.769 179.613
L233.866 179.613
L233.866 177.658
L234.859 177.658
L234.859 176.68
L236.789 176.68
L236.789 175.703
L239.557 175.703
L239.557 174.725
L242.185 174.725
L242.185 171.792
L244.687 171.792
L244.687 170.814
L245.495 170.814
L245.495 167.881
L246.291 167.881
L246.291 166.904
L247.074 166.904
L247.074 165.926
L248.607 165.926
L248.607 163.971
L250.096 163.971
L250.096 158.105
L251.544 158.105
L251.544 157.127
L252.953 157.127
L252.953 156.15
L253.643 156.15
L253.643 151.261
L254.324 151.261
L254.324 150.284
L258.859 150.284
L258.859 148.328
L259.476 148.328
L259.476 146.373
L261.283 146.373
L261.283 144.418
L261.872 144.418
L261.872 142.462
L262.455 142.462
L262.455 140.507
L266.358 140.507
L266.358 137.574
L266.893 137.574
L266.893 134.641
L267.945 134.641
L267.945 133.664
L269.486 133.664
L269.486 132.686
L271.956 132.686
L271.956 131.708
L272.437 131.708
L272.437 129.753
L274.315 129.753
L274.315 126.82
L278.309 126.82
L278.309 125.842
L279.99 125.842
L279.99 124.865
L281.619 124.865
L281.619 122.909
L283.198 122.909
L283.198 121.932
L283.586 121.932
L283.586 120.954
L285.481 120.954
L285.481 119.976
L286.586 119.976
L286.586 118.999
L286.949 118.999
L286.949 117.043
L288.377 117.043
L288.377 116.066
L289.767 116.066
L289.767 115.088
L290.108 115.088
L290.108 112.155
L290.448 112.155
L290.448 111.178
L290.785 111.178
L290.785 110.2
L291.453 110.2
L291.453 109.222
L297.996 109.222
L297.996 108.245
L301.942 108.245
L301.942 107.267
L303.016 107.267
L303.016 106.289
L304.069 106.289
L304.069 105.312
L306.363 105.312
L306.363 103.356
L306.859 103.356
L306.859 99.4457
L310.438 99.4457
L310.438 97.4904
L311.353 97.4904
L311.353 95.5351
L312.695 95.5351
L312.695 94.5575
L315.698 94.5575
L315.698 93.5798
L316.934 93.5798
L316.934 89.6692
L317.137 89.6692
L317.137 88.6916
L319.516 88.6916
L319.516 87.7139
L321.604 87.7139
L321.604 86.7363
L322.16 86.7363
L322.16 85.7586
L322.527 85.7586
L322.527 83.8033
L323.073 83.8033
L323.073 80.8703
L324.5 80.8703
L324.5 78.915
L325.2 78.915
L325.2 77.9374
L325.373 77.9374
L325.373 76.9597
L331.261 76.9597
L331.261 75.9821
L335.278 75.9821
L335.278 75.0044
L336.69 75.0044
L336.69 74.0268
L336.968 74.0268
L336.968 73.0491
L341.859 73.0491
L341.859 72.0715
L344.083 72.0715
L344.083 71.0938
L345.514 71.0938
L345.514 70.1162
L346.331 70.1162
L346.331 69.1385
L348.597 69.1385
L348.597 68.1609
L350.449 68.1609
L350.449 67.1832
L351.193 67.1832
L351.193 65.2279
L353.665 65.2279
L353.665 64.2503
L354.365 64.2503
L354.365 63.2726
L354.563 63.2726
L354.563 61.3173
L357.354 61.3173
L357.448 59.362
L360.536 59.362
L360.536 58.3844
L360.975 58.3844
L360.975 57.4067
L361.324 57.4067
L361.324 56.429
L364.442 56.429
L364.442 54.4737
L366.053 54.4737
L366.053 52.5184
L367.539 52.5184
L367.539 50.5631
L370.316 50.5631
L370.316 49.5855
L371.616 49.5855
L371.616 48.6078
L381.931 48.6078
L381.931 47.6302
L384.554 47.6302
L384.554 46.6525
L385.382 46.6525
L385.382 45.6749
L385.655 45.6749
L385.655 43.7196
L394.82 43.7196
L394.82 42.7419
L399.866 42.7419
L399.866 41.7643
L401.135 41.7643
L401.135 40.7866
L410.852 40.7866
L410.852 39.809
L420.062 39.809
L420.062 38.8313
L420.203 38.8313
L420.203 37.8537
L420.678 37.8537
L420.678 36.876
L442.527 36.876
L442.527 35.8984
L445.2 35.8984
L445.2 35.8984" style="fill:none;stroke:#ff0000;stroke-linecap:square;stroke-width:1.5;"/>
   </g>
   <g id="line2d_28">
    <defs>
     <path d="
M3.67394e-16 -6
L-5.19615 -3
L-5.19615 3
L-1.10218e-15 6
L5.19615 3
L5.19615 -3
z
" id="m98e028c2bf" style="stroke:#ff0000;stroke-linejoin:miter;stroke-width:1.5;"/>
    </defs>
    <g>
     <use style="fill:none;stroke:#ff0000;stroke-linejoin:miter;stroke-width:1.5;" x="121.32359948" xlink:href="#m98e028c2bf" y="268.579541637"/>
     <use style="fill:none;stroke:#ff0000;stroke-linejoin:miter;stroke-width:1.5;" x="216.129656322" xlink:href="#m98e028c2bf" y="203.076854226"/>
     <use style="fill:none;stroke:#ff0000;stroke-linejoin:miter;stroke-width:1.5;" x="289.766679987" xlink:href="#m98e028c2bf" y="115.088169643"/>
     <use style="fill:none;stroke:#ff0000;stroke-linejoin:miter;stroke-width:1.5;" x="381.930773918" xlink:href="#m98e028c2bf" y="47.6301781294"/>
     <use style="fill:none;stroke:#ff0000;stroke-linejoin:miter;stroke-width:1.5;" x="442.526832635" xlink:href="#m98e028c2bf" y="35.8983535184"/>
     <use style="fill:none;stroke:#ff0000;stroke-linejoin:miter;stroke-width:1.5;" x="445.2" xlink:href="#m98e028c2bf" y="35.8983535184"/>
    </g>
   </g>
   <g id="line2d_29"/>
   <g id="line2d_30">
    <path clip-path="url(#p0cd469f449)" d="
M325.2 77.9374" style="fill:none;stroke:#ff0000;stroke-linecap:square;"/>
    <defs>
     <path d="
M-12 12
L12 -12
M-12 -12
L12 12" id="m4e2b024d89" style="stroke:#ff0000;stroke-width:3;"/>
    </defs>
    <g clip-path="url(#p0cd469f449)">
     <use style="fill:#ff0000;stroke:#ff0000;stroke-width:3;" x="325.2" xlink:href="#m4e2b024d89" y="77.9373917079"/>
    </g>
   </g>
   <g id="line2d_31">
    <path d="
M445.2 35.8984
L484.8 351.68" style="fill:none;stroke:#000080;stroke-linecap:square;stroke-width:1.5;"/>
    <g>
     <use style="fill:none;stroke:#000080;stroke-width:1.5;" x="445.2" xlink:href="#mae466deef1" y="35.8983535184"/>
     <use style="fill:none;stroke:#000080;stroke-width:1.5;" x="484.8" xlink:href="#mae466deef1" y="351.679965965"/>
    </g>
   </g>
   <g id="line2d_32">
    <path d="
M445.2 35.8984
L484.8 285.982" style="fill:none;stroke:#ff0000;stroke-linecap:square;stroke-width:1.5;"/>
    <g>
     <use style="fill:none;stroke:#ff0000;stroke-linejoin:miter;stroke-width:1.5;" x="445.2" xlink:href="#m98e028c2bf" y="35.8983535184"/>
     <use style="fill:none;stroke:#ff0000;stroke-linejoin:miter;stroke-width:1.5;" x="484.8" xlink:href="#m98e028c2bf" y="285.981748144"/>
    </g>
   </g>
   <g id="line2d_33">
    <path d="
M445.2 30.0324
L484.8 220.284" style="fill:none;stroke:#ffa500;stroke-linecap:square;stroke-width:1.5;"/>
    <g>
     <use style="fill:none;stroke:#ffa500;stroke-linejoin:bevel;stroke-width:1.5;" x="445.2" xlink:href="#m73d367cfb6" y="30.0324412129"/>
     <use style="fill:none;stroke:#ffa500;stroke-linejoin:bevel;stroke-width:1.5;" x="484.8" xlink:href="#m73d367cfb6" y="220.283530322"/>
    </g>
   </g>
   <g id="line2d_34">
    <path d="
M445.2 24.1665
L484.8 154.585" style="fill:none;stroke:#ff00ff;stroke-linecap:square;stroke-width:1.5;"/>
    <g>
     <use style="fill:none;stroke:#ff00ff;stroke-linejoin:miter;stroke-width:1.5;" x="445.2" xlink:href="#mf6640c921f" y="24.1665289074"/>
     <use style="fill:none;stroke:#ff00ff;stroke-linejoin:miter;stroke-width:1.5;" x="484.8" xlink:href="#mf6640c921f" y="154.5853125"/>
    </g>
   </g>
   <g id="line2d_35">
    <path d="
M445.2 16.3453
L484.8 88.8871" style="fill:none;stroke:#6495ed;stroke-linecap:square;stroke-width:1.5;"/>
    <g>
     <use style="fill:none;stroke:#6495ed;stroke-linejoin:miter;stroke-width:1.5;" x="445.2" xlink:href="#md7b19447de" y="16.3453125"/>
     <use style="fill:none;stroke:#6495ed;stroke-linejoin:miter;stroke-width:1.5;" x="484.8" xlink:href="#md7b19447de" y="88.8870946782"/>
    </g>
   </g>
   <g id="line2d_36">
    <path d="
M445.2 358.524
L445.2 16.3453" style="fill:none;stroke:#000000;stroke-linecap:square;"/>
   </g>
   <g id="matplotlib.axis_1">
    <g id="xtick_1">
     <g id="line2d_37">
      <path clip-path="url(#p0cd469f449)" d="
M85.2 358.524
L85.2 12.9235" style="fill:none;stroke:#000000;stroke-dasharray:1.000000,3.000000;stroke-dashoffset:0.0;stroke-width:0.5;"/>
     </g>
     <g id="line2d_38">
      <defs>
       <path d="
M0 0
L0 -4" id="m93b0483c22" style="stroke:#000000;stroke-width:0.5;"/>
      </defs>
      <g>
       <use style="stroke:#000000;stroke-width:0.5;" x="85.2" xlink:href="#m93b0483c22" y="358.523530322"/>
      </g>
     </g>
     <g id="line2d_39">
      <defs>
       <path d="
M0 0
L0 4" id="m741efc42ff" style="stroke:#000000;stroke-width:0.5;"/>
      </defs>
      <g>
       <use style="stroke:#000000;stroke-width:0.5;" x="85.2" xlink:href="#m741efc42ff" y="12.9235303218"/>
      </g>
     </g>
     <g id="text_1">
      <!-- 0 -->
      <defs>
       <path d="
M4.15625 35.2969
Q4.15625 48 6.76562 55.7344
Q9.375 63.4844 14.5156 67.6719
Q19.6719 71.875 27.4844 71.875
Q33.25 71.875 37.5938 69.5469
Q41.9375 67.2344 44.7656 62.8594
Q47.6094 58.5 49.2188 52.2188
Q50.8281 45.9531 50.8281 35.2969
Q50.8281 22.7031 48.2344 14.9688
Q45.6562 7.23438 40.5 3
Q35.3594 -1.21875 27.4844 -1.21875
Q17.1406 -1.21875 11.2344 6.20312
Q4.15625 15.1406 4.15625 35.2969
M13.1875 35.2969
Q13.1875 17.6719 17.3125 11.8281
Q21.4375 6 27.4844 6
Q33.5469 6 37.6719 11.8594
Q41.7969 17.7188 41.7969 35.2969
Q41.7969 52.9844 37.6719 58.7812
Q33.5469 64.5938 27.3906 64.5938
Q21.3438 64.5938 17.7188 59.4688
Q13.1875 52.9375 13.1875 35.2969" id="ArialMT-30"/>
      </defs>
      <g transform="translate(80.5328125 376.839155322)scale(0.2 -0.2)">
       <use xlink:href="#ArialMT-30"/>
      </g>
     </g>
    </g>
    <g id="xtick_2">
     <g id="line2d_40">
      <path clip-path="url(#p0cd469f449)" d="
M205.2 358.524
L205.2 12.9235" style="fill:none;stroke:#000000;stroke-dasharray:1.000000,3.000000;stroke-dashoffset:0.0;stroke-width:0.5;"/>
     </g>
     <g id="line2d_41">
      <g>
       <use style="stroke:#000000;stroke-width:0.5;" x="205.2" xlink:href="#m93b0483c22" y="358.523530322"/>
      </g>
     </g>
     <g id="line2d_42">
      <g>
       <use style="stroke:#000000;stroke-width:0.5;" x="205.2" xlink:href="#m741efc42ff" y="12.9235303218"/>
      </g>
     </g>
     <g id="text_2">
      <!-- 1 -->
      <defs>
       <path d="
M37.25 0
L28.4688 0
L28.4688 56
Q25.2969 52.9844 20.1406 49.9531
Q14.9844 46.9219 10.8906 45.4062
L10.8906 53.9062
Q18.2656 57.375 23.7812 62.2969
Q29.2969 67.2344 31.5938 71.875
L37.25 71.875
z
" id="ArialMT-31"/>
      </defs>
      <g transform="translate(202.5640625 376.839155322)scale(0.2 -0.2)">
       <use xlink:href="#ArialMT-31"/>
      </g>
     </g>
    </g>
    <g id="xtick_3">
     <g id="line2d_43">
      <path clip-path="url(#p0cd469f449)" d="
M325.2 358.524
L325.2 12.9235" style="fill:none;stroke:#000000;stroke-dasharray:1.000000,3.000000;stroke-dashoffset:0.0;stroke-width:0.5;"/>
     </g>
     <g id="line2d_44">
      <g>
       <use style="stroke:#000000;stroke-width:0.5;" x="325.2" xlink:href="#m93b0483c22" y="358.523530322"/>
      </g>
     </g>
     <g id="line2d_45">
      <g>
       <use style="stroke:#000000;stroke-width:0.5;" x="325.2" xlink:href="#m741efc42ff" y="12.9235303218"/>
      </g>
     </g>
     <g id="text_3">
      <!-- 2 -->
      <defs>
       <path d="
M50.3438 8.45312
L50.3438 0
L3.03125 0
Q2.9375 3.17188 4.04688 6.10938
Q5.85938 10.9375 9.82812 15.625
Q13.8125 20.3125 21.3438 26.4688
Q33.0156 36.0312 37.1094 41.625
Q41.2188 47.2188 41.2188 52.2031
Q41.2188 57.4219 37.4688 61
Q33.7344 64.5938 27.7344 64.5938
Q21.3906 64.5938 17.5781 60.7812
Q13.7656 56.9844 13.7188 50.25
L4.6875 51.1719
Q5.60938 61.2812 11.6562 66.5781
Q17.7188 71.875 27.9375 71.875
Q38.2344 71.875 44.2344 66.1562
Q50.25 60.4531 50.25 52
Q50.25 47.7031 48.4844 43.5469
Q46.7344 39.4062 42.6562 34.8125
Q38.5781 30.2188 29.1094 22.2188
Q21.1875 15.5781 18.9375 13.2031
Q16.7031 10.8438 15.2344 8.45312
z
" id="ArialMT-32"/>
      </defs>
      <g transform="translate(320.459375 376.839155322)scale(0.2 -0.2)">
       <use xlink:href="#ArialMT-32"/>
      </g>
     </g>
    </g>
    <g id="xtick_4">
     <g id="line2d_46">
      <path clip-path="url(#p0cd469f449)" d="
M445.2 358.524
L445.2 12.9235" style="fill:none;stroke:#000000;stroke-dasharray:1.000000,3.000000;stroke-dashoffset:0.0;stroke-width:0.5;"/>
     </g>
     <g id="line2d_47">
      <g>
       <use style="stroke:#000000;stroke-width:0.5;" x="445.2" xlink:href="#m93b0483c22" y="358.523530322"/>
      </g>
     </g>
     <g id="line2d_48">
      <g>
       <use style="stroke:#000000;stroke-width:0.5;" x="445.2" xlink:href="#m741efc42ff" y="12.9235303218"/>
      </g>
     </g>
     <g id="text_4">
      <!-- 3 -->
      <defs>
       <path d="
M4.20312 18.8906
L12.9844 20.0625
Q14.5 12.5938 18.1406 9.29688
Q21.7812 6 27 6
Q33.2031 6 37.4688 10.2969
Q41.75 14.5938 41.75 20.9531
Q41.75 27 37.7969 30.9219
Q33.8438 34.8594 27.7344 34.8594
Q25.25 34.8594 21.5312 33.8906
L22.5156 41.6094
Q23.3906 41.5 23.9219 41.5
Q29.5469 41.5 34.0312 44.4219
Q38.5312 47.3594 38.5312 53.4688
Q38.5312 58.2969 35.25 61.4688
Q31.9844 64.6562 26.8125 64.6562
Q21.6875 64.6562 18.2656 61.4219
Q14.8438 58.2031 13.875 51.7656
L5.07812 53.3281
Q6.6875 62.1562 12.3906 67.0156
Q18.1094 71.875 26.6094 71.875
Q32.4688 71.875 37.3906 69.3594
Q42.3281 66.8438 44.9375 62.5
Q47.5625 58.1562 47.5625 53.2656
Q47.5625 48.6406 45.0625 44.8281
Q42.5781 41.0156 37.7031 38.7656
Q44.0469 37.3125 47.5625 32.6875
Q51.0781 28.0781 51.0781 21.1406
Q51.0781 11.7656 44.2344 5.25
Q37.4062 -1.26562 26.9531 -1.26562
Q17.5312 -1.26562 11.2969 4.34375
Q5.07812 9.96875 4.20312 18.8906" id="ArialMT-33"/>
      </defs>
      <g transform="translate(440.5125 376.839155322)scale(0.2 -0.2)">
       <use xlink:href="#ArialMT-33"/>
      </g>
     </g>
    </g>
    <g id="xtick_5">
     <g id="line2d_49">
      <defs>
       <path d="
M0 0
L0 -2" id="m177f7580d0" style="stroke:#000000;stroke-width:0.5;"/>
      </defs>
      <g>
       <use style="stroke:#000000;stroke-width:0.5;" x="121.32359948" xlink:href="#m177f7580d0" y="358.523530322"/>
      </g>
     </g>
     <g id="line2d_50">
      <defs>
       <path d="
M0 0
L0 2" id="m5284c7e2a0" style="stroke:#000000;stroke-width:0.5;"/>
      </defs>
      <g>
       <use style="stroke:#000000;stroke-width:0.5;" x="121.32359948" xlink:href="#m5284c7e2a0" y="12.9235303218"/>
      </g>
     </g>
    </g>
    <g id="xtick_6">
     <g id="line2d_51">
      <g>
       <use style="stroke:#000000;stroke-width:0.5;" x="142.454550566" xlink:href="#m177f7580d0" y="358.523530322"/>
      </g>
     </g>
     <g id="line2d_52">
      <g>
       <use style="stroke:#000000;stroke-width:0.5;" x="142.454550566" xlink:href="#m5284c7e2a0" y="12.9235303218"/>
      </g>
     </g>
    </g>
    <g id="xtick_7">
     <g id="line2d_53">
      <g>
       <use style="stroke:#000000;stroke-width:0.5;" x="157.447198959" xlink:href="#m177f7580d0" y="358.523530322"/>
      </g>
     </g>
     <g id="line2d_54">
      <g>
       <use style="stroke:#000000;stroke-width:0.5;" x="157.447198959" xlink:href="#m5284c7e2a0" y="12.9235303218"/>
      </g>
     </g>
    </g>
    <g id="xtick_8">
     <g id="line2d_55">
      <g>
       <use style="stroke:#000000;stroke-width:0.5;" x="169.07640052" xlink:href="#m177f7580d0" y="358.523530322"/>
      </g>
     </g>
     <g id="line2d_56">
      <g>
       <use style="stroke:#000000;stroke-width:0.5;" x="169.07640052" xlink:href="#m5284c7e2a0" y="12.9235303218"/>
      </g>
     </g>
    </g>
    <g id="xtick_9">
     <g id="line2d_57">
      <g>
       <use style="stroke:#000000;stroke-width:0.5;" x="178.578150046" xlink:href="#m177f7580d0" y="358.523530322"/>
      </g>
     </g>
     <g id="line2d_58">
      <g>
       <use style="stroke:#000000;stroke-width:0.5;" x="178.578150046" xlink:href="#m5284c7e2a0" y="12.9235303218"/>
      </g>
     </g>
    </g>
    <g id="xtick_10">
     <g id="line2d_59">
      <g>
       <use style="stroke:#000000;stroke-width:0.5;" x="186.611764802" xlink:href="#m177f7580d0" y="358.523530322"/>
      </g>
     </g>
     <g id="line2d_60">
      <g>
       <use style="stroke:#000000;stroke-width:0.5;" x="186.611764802" xlink:href="#m5284c7e2a0" y="12.9235303218"/>
      </g>
     </g>
    </g>
    <g id="xtick_11">
     <g id="line2d_61">
      <g>
       <use style="stroke:#000000;stroke-width:0.5;" x="193.570798439" xlink:href="#m177f7580d0" y="358.523530322"/>
      </g>
     </g>
     <g id="line2d_62">
      <g>
       <use style="stroke:#000000;stroke-width:0.5;" x="193.570798439" xlink:href="#m5284c7e2a0" y="12.9235303218"/>
      </g>
     </g>
    </g>
    <g id="xtick_12">
     <g id="line2d_63">
      <g>
       <use style="stroke:#000000;stroke-width:0.5;" x="199.709101133" xlink:href="#m177f7580d0" y="358.523530322"/>
      </g>
     </g>
     <g id="line2d_64">
      <g>
       <use style="stroke:#000000;stroke-width:0.5;" x="199.709101133" xlink:href="#m5284c7e2a0" y="12.9235303218"/>
      </g>
     </g>
    </g>
    <g id="xtick_13">
     <g id="line2d_65">
      <g>
       <use style="stroke:#000000;stroke-width:0.5;" x="241.32359948" xlink:href="#m177f7580d0" y="358.523530322"/>
      </g>
     </g>
     <g id="line2d_66">
      <g>
       <use style="stroke:#000000;stroke-width:0.5;" x="241.32359948" xlink:href="#m5284c7e2a0" y="12.9235303218"/>
      </g>
     </g>
    </g>
    <g id="xtick_14">
     <g id="line2d_67">
      <g>
       <use style="stroke:#000000;stroke-width:0.5;" x="262.454550566" xlink:href="#m177f7580d0" y="358.523530322"/>
      </g>
     </g>
     <g id="line2d_68">
      <g>
       <use style="stroke:#000000;stroke-width:0.5;" x="262.454550566" xlink:href="#m5284c7e2a0" y="12.9235303218"/>
      </g>
     </g>
    </g>
    <g id="xtick_15">
     <g id="line2d_69">
      <g>
       <use style="stroke:#000000;stroke-width:0.5;" x="277.447198959" xlink:href="#m177f7580d0" y="358.523530322"/>
      </g>
     </g>
     <g id="line2d_70">
      <g>
       <use style="stroke:#000000;stroke-width:0.5;" x="277.447198959" xlink:href="#m5284c7e2a0" y="12.9235303218"/>
      </g>
     </g>
    </g>
    <g id="xtick_16">
     <g id="line2d_71">
      <g>
       <use style="stroke:#000000;stroke-width:0.5;" x="289.07640052" xlink:href="#m177f7580d0" y="358.523530322"/>
      </g>
     </g>
     <g id="line2d_72">
      <g>
       <use style="stroke:#000000;stroke-width:0.5;" x="289.07640052" xlink:href="#m5284c7e2a0" y="12.9235303218"/>
      </g>
     </g>
    </g>
    <g id="xtick_17">
     <g id="line2d_73">
      <g>
       <use style="stroke:#000000;stroke-width:0.5;" x="298.578150046" xlink:href="#m177f7580d0" y="358.523530322"/>
      </g>
     </g>
     <g id="line2d_74">
      <g>
       <use style="stroke:#000000;stroke-width:0.5;" x="298.578150046" xlink:href="#m5284c7e2a0" y="12.9235303218"/>
      </g>
     </g>
    </g>
    <g id="xtick_18">
     <g id="line2d_75">
      <g>
       <use style="stroke:#000000;stroke-width:0.5;" x="306.611764802" xlink:href="#m177f7580d0" y="358.523530322"/>
      </g>
     </g>
     <g id="line2d_76">
      <g>
       <use style="stroke:#000000;stroke-width:0.5;" x="306.611764802" xlink:href="#m5284c7e2a0" y="12.9235303218"/>
      </g>
     </g>
    </g>
    <g id="xtick_19">
     <g id="line2d_77">
      <g>
       <use style="stroke:#000000;stroke-width:0.5;" x="313.570798439" xlink:href="#m177f7580d0" y="358.523530322"/>
      </g>
     </g>
     <g id="line2d_78">
      <g>
       <use style="stroke:#000000;stroke-width:0.5;" x="313.570798439" xlink:href="#m5284c7e2a0" y="12.9235303218"/>
      </g>
     </g>
    </g>
    <g id="xtick_20">
     <g id="line2d_79">
      <g>
       <use style="stroke:#000000;stroke-width:0.5;" x="319.709101133" xlink:href="#m177f7580d0" y="358.523530322"/>
      </g>
     </g>
     <g id="line2d_80">
      <g>
       <use style="stroke:#000000;stroke-width:0.5;" x="319.709101133" xlink:href="#m5284c7e2a0" y="12.9235303218"/>
      </g>
     </g>
    </g>
    <g id="xtick_21">
     <g id="line2d_81">
      <g>
       <use style="stroke:#000000;stroke-width:0.5;" x="361.32359948" xlink:href="#m177f7580d0" y="358.523530322"/>
      </g>
     </g>
     <g id="line2d_82">
      <g>
       <use style="stroke:#000000;stroke-width:0.5;" x="361.32359948" xlink:href="#m5284c7e2a0" y="12.9235303218"/>
      </g>
     </g>
    </g>
    <g id="xtick_22">
     <g id="line2d_83">
      <g>
       <use style="stroke:#000000;stroke-width:0.5;" x="382.454550566" xlink:href="#m177f7580d0" y="358.523530322"/>
      </g>
     </g>
     <g id="line2d_84">
      <g>
       <use style="stroke:#000000;stroke-width:0.5;" x="382.454550566" xlink:href="#m5284c7e2a0" y="12.9235303218"/>
      </g>
     </g>
    </g>
    <g id="xtick_23">
     <g id="line2d_85">
      <g>
       <use style="stroke:#000000;stroke-width:0.5;" x="397.447198959" xlink:href="#m177f7580d0" y="358.523530322"/>
      </g>
     </g>
     <g id="line2d_86">
      <g>
       <use style="stroke:#000000;stroke-width:0.5;" x="397.447198959" xlink:href="#m5284c7e2a0" y="12.9235303218"/>
      </g>
     </g>
    </g>
    <g id="xtick_24">
     <g id="line2d_87">
      <g>
       <use style="stroke:#000000;stroke-width:0.5;" x="409.07640052" xlink:href="#m177f7580d0" y="358.523530322"/>
      </g>
     </g>
     <g id="line2d_88">
      <g>
       <use style="stroke:#000000;stroke-width:0.5;" x="409.07640052" xlink:href="#m5284c7e2a0" y="12.9235303218"/>
      </g>
     </g>
    </g>
    <g id="xtick_25">
     <g id="line2d_89">
      <g>
       <use style="stroke:#000000;stroke-width:0.5;" x="418.578150046" xlink:href="#m177f7580d0" y="358.523530322"/>
      </g>
     </g>
     <g id="line2d_90">
      <g>
       <use style="stroke:#000000;stroke-width:0.5;" x="418.578150046" xlink:href="#m5284c7e2a0" y="12.9235303218"/>
      </g>
     </g>
    </g>
    <g id="xtick_26">
     <g id="line2d_91">
      <g>
       <use style="stroke:#000000;stroke-width:0.5;" x="426.611764802" xlink:href="#m177f7580d0" y="358.523530322"/>
      </g>
     </g>
     <g id="line2d_92">
      <g>
       <use style="stroke:#000000;stroke-width:0.5;" x="426.611764802" xlink:href="#m5284c7e2a0" y="12.9235303218"/>
      </g>
     </g>
    </g>
    <g id="xtick_27">
     <g id="line2d_93">
      <g>
       <use style="stroke:#000000;stroke-width:0.5;" x="433.570798439" xlink:href="#m177f7580d0" y="358.523530322"/>
      </g>
     </g>
     <g id="line2d_94">
      <g>
       <use style="stroke:#000000;stroke-width:0.5;" x="433.570798439" xlink:href="#m5284c7e2a0" y="12.9235303218"/>
      </g>
     </g>
    </g>
    <g id="xtick_28">
     <g id="line2d_95">
      <g>
       <use style="stroke:#000000;stroke-width:0.5;" x="439.709101133" xlink:href="#m177f7580d0" y="358.523530322"/>
      </g>
     </g>
     <g id="line2d_96">
      <g>
       <use style="stroke:#000000;stroke-width:0.5;" x="439.709101133" xlink:href="#m5284c7e2a0" y="12.9235303218"/>
      </g>
     </g>
    </g>
    <g id="xtick_29">
     <g id="line2d_97">
      <g>
       <use style="stroke:#000000;stroke-width:0.5;" x="481.32359948" xlink:href="#m177f7580d0" y="358.523530322"/>
      </g>
     </g>
     <g id="line2d_98">
      <g>
       <use style="stroke:#000000;stroke-width:0.5;" x="481.32359948" xlink:href="#m5284c7e2a0" y="12.9235303218"/>
      </g>
     </g>
    </g>
    <g id="xtick_30">
     <g id="line2d_99">
      <g>
       <use style="stroke:#000000;stroke-width:0.5;" x="502.454550566" xlink:href="#m177f7580d0" y="358.523530322"/>
      </g>
     </g>
     <g id="line2d_100">
      <g>
       <use style="stroke:#000000;stroke-width:0.5;" x="502.454550566" xlink:href="#m5284c7e2a0" y="12.9235303218"/>
      </g>
     </g>
    </g>
    <g id="xtick_31">
     <g id="line2d_101">
      <g>
       <use style="stroke:#000000;stroke-width:0.5;" x="517.447198959" xlink:href="#m177f7580d0" y="358.523530322"/>
      </g>
     </g>
     <g id="line2d_102">
      <g>
       <use style="stroke:#000000;stroke-width:0.5;" x="517.447198959" xlink:href="#m5284c7e2a0" y="12.9235303218"/>
      </g>
     </g>
    </g>
    <g id="xtick_32">
     <g id="line2d_103">
      <g>
       <use style="stroke:#000000;stroke-width:0.5;" x="529.07640052" xlink:href="#m177f7580d0" y="358.523530322"/>
      </g>
     </g>
     <g id="line2d_104">
      <g>
       <use style="stroke:#000000;stroke-width:0.5;" x="529.07640052" xlink:href="#m5284c7e2a0" y="12.9235303218"/>
      </g>
     </g>
    </g>
    <g id="text_5">
     <!-- log10 of (# f-evals / dimension) -->
     <defs>
      <path d="
M12.3594 -21.0469
L6.0625 -21.0469
Q20.6562 2.39062 20.6562 25.875
Q20.6562 35.0625 18.5625 44.0938
Q16.8906 51.4219 13.9219 58.1562
Q12.0156 62.5469 6.0625 72.7969
L12.3594 72.7969
Q21.5312 60.5469 25.9219 48.1875
Q29.6875 37.5469 29.6875 25.9219
Q29.6875 12.75 24.625 0.4375
Q19.5781 -11.8594 12.3594 -21.0469" id="ArialMT-29"/>
      <path d="
M40.4375 6.39062
Q35.5469 2.25 31.0312 0.53125
Q26.5156 -1.17188 21.3438 -1.17188
Q12.7969 -1.17188 8.20312 3
Q3.60938 7.17188 3.60938 13.6719
Q3.60938 17.4844 5.34375 20.625
Q7.07812 23.7812 9.89062 25.6875
Q12.7031 27.5938 16.2188 28.5625
Q18.7969 29.25 24.0312 29.8906
Q34.6719 31.1562 39.7031 32.9062
Q39.75 34.7188 39.75 35.2031
Q39.75 40.5781 37.25 42.7812
Q33.8906 45.75 27.25 45.75
Q21.0469 45.75 18.0938 43.5781
Q15.1406 41.4062 13.7188 35.8906
L5.125 37.0625
Q6.29688 42.5781 8.98438 45.9688
Q11.6719 49.3594 16.75 51.1875
Q21.8281 53.0312 28.5156 53.0312
Q35.1562 53.0312 39.2969 51.4688
Q43.4531 49.9062 45.4062 47.5312
Q47.3594 45.1719 48.1406 41.5469
Q48.5781 39.3125 48.5781 33.4531
L48.5781 21.7344
Q48.5781 9.46875 49.1406 6.21875
Q49.7031 2.98438 51.375 0
L42.1875 0
Q40.8281 2.73438 40.4375 6.39062
M39.7031 26.0312
Q34.9062 24.0781 25.3438 22.7031
Q19.9219 21.9219 17.6719 20.9375
Q15.4375 19.9688 14.2031 18.0938
Q12.9844 16.2188 12.9844 13.9219
Q12.9844 10.4062 15.6406 8.0625
Q18.3125 5.71875 23.4375 5.71875
Q28.5156 5.71875 32.4688 7.9375
Q36.4219 10.1562 38.2812 14.0156
Q39.7031 17 39.7031 22.7969
z
" id="ArialMT-61"/>
      <path d="
M4.98438 -4.29688
L13.5312 -5.5625
Q14.0625 -9.51562 16.5 -11.3281
Q19.7812 -13.7656 25.4375 -13.7656
Q31.5469 -13.7656 34.8594 -11.3281
Q38.1875 -8.89062 39.3594 -4.5
Q40.0469 -1.8125 39.9844 6.78125
Q34.2344 0 25.6406 0
Q14.9375 0 9.07812 7.71875
Q3.21875 15.4375 3.21875 26.2188
Q3.21875 33.6406 5.90625 39.9062
Q8.59375 46.1875 13.6875 49.6094
Q18.7969 53.0312 25.6875 53.0312
Q34.8594 53.0312 40.8281 45.6094
L40.8281 51.8594
L48.9219 51.8594
L48.9219 7.03125
Q48.9219 -5.07812 46.4531 -10.125
Q44 -15.1875 38.6406 -18.1094
Q33.2969 -21.0469 25.4844 -21.0469
Q16.2188 -21.0469 10.5 -16.875
Q4.78125 -12.7031 4.98438 -4.29688
M12.25 26.8594
Q12.25 16.6562 16.2969 11.9688
Q20.3594 7.28125 26.4688 7.28125
Q32.5156 7.28125 36.6094 11.9375
Q40.7188 16.6094 40.7188 26.5625
Q40.7188 36.0781 36.5 40.9062
Q32.2812 45.75 26.3125 45.75
Q20.4531 45.75 16.3438 40.9844
Q12.25 36.2344 12.25 26.8594" id="ArialMT-67"/>
      <path d="
M8.6875 0
L8.6875 45.0156
L0.921875 45.0156
L0.921875 51.8594
L8.6875 51.8594
L8.6875 57.375
Q8.6875 62.5938 9.625 65.1406
Q10.8906 68.5625 14.0781 70.6719
Q17.2812 72.7969 23.0469 72.7969
Q26.7656 72.7969 31.25 71.9219
L29.9375 64.2656
Q27.2031 64.75 24.75 64.75
Q20.75 64.75 19.0938 63.0312
Q17.4375 61.3281 17.4375 56.6406
L17.4375 51.8594
L27.5469 51.8594
L27.5469 45.0156
L17.4375 45.0156
L17.4375 0
z
" id="ArialMT-66"/>
      <path d="
M42.0938 16.7031
L51.1719 15.5781
Q49.0312 7.625 43.2188 3.21875
Q37.4062 -1.17188 28.375 -1.17188
Q17 -1.17188 10.3281 5.82812
Q3.65625 12.8438 3.65625 25.4844
Q3.65625 38.5781 10.3906 45.7969
Q17.1406 53.0312 27.875 53.0312
Q38.2812 53.0312 44.875 45.9531
Q51.4688 38.875 51.4688 26.0312
Q51.4688 25.25 51.4219 23.6875
L12.75 23.6875
Q13.2344 15.1406 17.5781 10.5938
Q21.9219 6.0625 28.4219 6.0625
Q33.25 6.0625 36.6719 8.59375
Q40.0938 11.1406 42.0938 16.7031
M13.2344 30.9062
L42.1875 30.9062
Q41.6094 37.4531 38.875 40.7188
Q34.6719 45.7969 27.9844 45.7969
Q21.9219 45.7969 17.7969 41.75
Q13.6719 37.7031 13.2344 30.9062" id="ArialMT-65"/>
      <path d="
M40.2344 0
L40.2344 6.54688
Q35.2969 -1.17188 25.7344 -1.17188
Q19.5312 -1.17188 14.3281 2.25
Q9.125 5.67188 6.26562 11.7969
Q3.42188 17.9219 3.42188 25.875
Q3.42188 33.6406 6 39.9688
Q8.59375 46.2969 13.7656 49.6562
Q18.9531 53.0312 25.3438 53.0312
Q30.0312 53.0312 33.6875 51.0469
Q37.3594 49.0781 39.6562 45.9062
L39.6562 71.5781
L48.3906 71.5781
L48.3906 0
z

M12.4531 25.875
Q12.4531 15.9219 16.6406 10.9844
Q20.8438 6.0625 26.5625 6.0625
Q32.3281 6.0625 36.3438 10.7656
Q40.375 15.4844 40.375 25.1406
Q40.375 35.7969 36.2656 40.7656
Q32.1719 45.75 26.1719 45.75
Q20.3125 45.75 16.375 40.9688
Q12.4531 36.1875 12.4531 25.875" id="ArialMT-64"/>
      <path d="
M0 -1.21875
L20.75 72.7969
L27.7812 72.7969
L7.07812 -1.21875
z
" id="ArialMT-2f"/>
      <path d="
M21 0
L1.26562 51.8594
L10.5469 51.8594
L21.6875 20.7969
Q23.4844 15.7656 25 10.3594
Q26.1719 14.4531 28.2656 20.2188
L39.7969 51.8594
L48.8281 51.8594
L29.2031 0
z
" id="ArialMT-76"/>
      <path d="
M3.17188 21.4844
L3.17188 30.3281
L30.1719 30.3281
L30.1719 21.4844
z
" id="ArialMT-2d"/>
      <path d="
M6.59375 0
L6.59375 51.8594
L14.4531 51.8594
L14.4531 44.5781
Q16.8906 48.3906 20.9375 50.7031
Q25 53.0312 30.1719 53.0312
Q35.9375 53.0312 39.625 50.6406
Q43.3125 48.25 44.8281 43.9531
Q50.9844 53.0312 60.8438 53.0312
Q68.5625 53.0312 72.7031 48.75
Q76.8594 44.4844 76.8594 35.5938
L76.8594 0
L68.1094 0
L68.1094 32.6719
Q68.1094 37.9375 67.25 40.25
Q66.4062 42.5781 64.1562 43.9844
Q61.9219 45.4062 58.8906 45.4062
Q53.4219 45.4062 49.7969 41.7656
Q46.1875 38.1406 46.1875 30.125
L46.1875 0
L37.4062 0
L37.4062 33.6875
Q37.4062 39.5469 35.25 42.4688
Q33.1094 45.4062 28.2188 45.4062
Q24.5156 45.4062 21.3594 43.4531
Q18.2188 41.5 16.7969 37.7344
Q15.375 33.9844 15.375 26.9062
L15.375 0
z
" id="ArialMT-6d"/>
      <path d="
M3.07812 15.4844
L11.7656 16.8438
Q12.5 11.625 15.8438 8.84375
Q19.1875 6.0625 25.2031 6.0625
Q31.25 6.0625 34.1719 8.51562
Q37.1094 10.9844 37.1094 14.3125
Q37.1094 17.2812 34.5156 19
Q32.7188 20.1719 25.5312 21.9688
Q15.875 24.4219 12.1406 26.2031
Q8.40625 27.9844 6.46875 31.125
Q4.54688 34.2812 4.54688 38.0938
Q4.54688 41.5469 6.125 44.5
Q7.71875 47.4688 10.4531 49.4219
Q12.5 50.9219 16.0312 51.9688
Q19.5781 53.0312 23.6406 53.0312
Q29.7344 53.0312 34.3438 51.2656
Q38.9688 49.5156 41.1562 46.5
Q43.3594 43.5 44.1875 38.4844
L35.5938 37.3125
Q35.0156 41.3125 32.2031 43.5469
Q29.3906 45.7969 24.2656 45.7969
Q18.2188 45.7969 15.625 43.7969
Q13.0312 41.7969 13.0312 39.1094
Q13.0312 37.4062 14.1094 36.0312
Q15.1875 34.625 17.4844 33.6875
Q18.7969 33.2031 25.25 31.4531
Q34.5781 28.9531 38.25 27.3594
Q41.9375 25.7812 44.0312 22.75
Q46.1406 19.7344 46.1406 15.2344
Q46.1406 10.8438 43.5781 6.95312
Q41.0156 3.07812 36.1719 0.953125
Q31.3438 -1.17188 25.25 -1.17188
Q15.1406 -1.17188 9.84375 3.03125
Q4.54688 7.23438 3.07812 15.4844" id="ArialMT-73"/>
      <path d="
M6.39062 0
L6.39062 71.5781
L15.1875 71.5781
L15.1875 0
z
" id="ArialMT-6c"/>
      <path d="
M3.32812 25.9219
Q3.32812 40.3281 11.3281 47.2656
Q18.0156 53.0312 27.6406 53.0312
Q38.3281 53.0312 45.1094 46.0156
Q51.9062 39.0156 51.9062 26.6562
Q51.9062 16.6562 48.9062 10.9062
Q45.9062 5.17188 40.1562 2
Q34.4219 -1.17188 27.6406 -1.17188
Q16.75 -1.17188 10.0312 5.8125
Q3.32812 12.7969 3.32812 25.9219
M12.3594 25.9219
Q12.3594 15.9688 16.7031 11.0156
Q21.0469 6.0625 27.6406 6.0625
Q34.1875 6.0625 38.5312 11.0312
Q42.875 16.0156 42.875 26.2188
Q42.875 35.8438 38.5 40.7969
Q34.125 45.75 27.6406 45.75
Q21.0469 45.75 16.7031 40.8125
Q12.3594 35.8906 12.3594 25.9219" id="ArialMT-6f"/>
      <path d="
M6.59375 0
L6.59375 51.8594
L14.5 51.8594
L14.5 44.4844
Q20.2188 53.0312 31 53.0312
Q35.6875 53.0312 39.625 51.3438
Q43.5625 49.6562 45.5156 46.9219
Q47.4688 44.1875 48.25 40.4375
Q48.7344 37.9844 48.7344 31.8906
L48.7344 0
L39.9375 0
L39.9375 31.5469
Q39.9375 36.9219 38.9062 39.5781
Q37.8906 42.2344 35.2812 43.8125
Q32.6719 45.4062 29.1562 45.4062
Q23.5312 45.4062 19.4531 41.8438
Q15.375 38.2812 15.375 28.3281
L15.375 0
z
" id="ArialMT-6e"/>
      <path d="
M23.3906 -21.0469
Q16.1094 -11.8594 11.0781 0.4375
Q6.0625 12.75 6.0625 25.9219
Q6.0625 37.5469 9.8125 48.1875
Q14.2031 60.5469 23.3906 72.7969
L29.6875 72.7969
Q23.7812 62.6406 21.875 58.2969
Q18.8906 51.5625 17.1875 44.2344
Q15.0938 35.1094 15.0938 25.875
Q15.0938 2.39062 29.6875 -21.0469
z
" id="ArialMT-28"/>
      <path d="
M5.03125 -1.21875
L9.28125 19.5781
L1.03125 19.5781
L1.03125 26.8594
L10.75 26.8594
L14.3594 44.5781
L1.03125 44.5781
L1.03125 51.8594
L15.8281 51.8594
L20.0625 72.7969
L27.3906 72.7969
L23.1406 51.8594
L38.5312 51.8594
L42.7812 72.7969
L50.1406 72.7969
L45.9062 51.8594
L54.3438 51.8594
L54.3438 44.5781
L44.4375 44.5781
L40.7656 26.8594
L54.3438 26.8594
L54.3438 19.5781
L39.3125 19.5781
L35.0625 -1.21875
L27.7344 -1.21875
L31.9375 19.5781
L16.6094 19.5781
L12.3594 -1.21875
z

M18.0625 26.8594
L33.4062 26.8594
L37.0625 44.5781
L21.6875 44.5781
z
" id="ArialMT-23"/>
      <path d="
M6.64062 61.4688
L6.64062 71.5781
L15.4375 71.5781
L15.4375 61.4688
z

M6.64062 0
L6.64062 51.8594
L15.4375 51.8594
L15.4375 0
z
" id="ArialMT-69"/>
      <path id="ArialMT-20"/>
     </defs>
     <g transform="translate(185.67375 398.917592822)scale(0.18 -0.18)">
      <use xlink:href="#ArialMT-6c"/>
      <use x="22.216796875" xlink:href="#ArialMT-6f"/>
      <use x="77.83203125" xlink:href="#ArialMT-67"/>
      <use x="133.447265625" xlink:href="#ArialMT-31"/>
      <use x="189.0625" xlink:href="#ArialMT-30"/>
      <use x="244.677734375" xlink:href="#ArialMT-20"/>
      <use x="272.4609375" xlink:href="#ArialMT-6f"/>
      <use x="328.076171875" xlink:href="#ArialMT-66"/>
      <use x="355.859375" xlink:href="#ArialMT-20"/>
      <use x="383.642578125" xlink:href="#ArialMT-28"/>
      <use x="416.943359375" xlink:href="#ArialMT-23"/>
      <use x="472.55859375" xlink:href="#ArialMT-20"/>
      <use x="500.341796875" xlink:href="#ArialMT-66"/>
      <use x="528.125" xlink:href="#ArialMT-2d"/>
      <use x="561.42578125" xlink:href="#ArialMT-65"/>
      <use x="617.041015625" xlink:href="#ArialMT-76"/>
      <use x="667.041015625" xlink:href="#ArialMT-61"/>
      <use x="722.65625" xlink:href="#ArialMT-6c"/>
      <use x="744.873046875" xlink:href="#ArialMT-73"/>
      <use x="794.873046875" xlink:href="#ArialMT-20"/>
      <use x="822.65625" xlink:href="#ArialMT-2f"/>
      <use x="850.439453125" xlink:href="#ArialMT-20"/>
      <use x="878.22265625" xlink:href="#ArialMT-64"/>
      <use x="933.837890625" xlink:href="#ArialMT-69"/>
      <use x="956.0546875" xlink:href="#ArialMT-6d"/>
      <use x="1039.35546875" xlink:href="#ArialMT-65"/>
      <use x="1094.97070312" xlink:href="#ArialMT-6e"/>
      <use x="1150.5859375" xlink:href="#ArialMT-73"/>
      <use x="1200.5859375" xlink:href="#ArialMT-69"/>
      <use x="1222.80273438" xlink:href="#ArialMT-6f"/>
      <use x="1278.41796875" xlink:href="#ArialMT-6e"/>
      <use x="1334.03320312" xlink:href="#ArialMT-29"/>
     </g>
    </g>
   </g>
   <g id="matplotlib.axis_2">
    <g id="ytick_1">
     <g id="line2d_105">
      <path clip-path="url(#p0cd469f449)" d="
M85.2 358.524
L531.6 358.524" style="fill:none;stroke:#000000;stroke-dasharray:1.000000,3.000000;stroke-dashoffset:0.0;stroke-width:0.5;"/>
     </g>
     <g id="line2d_106">
      <defs>
       <path d="
M0 0
L4 0" id="m728421d6d4" style="stroke:#000000;stroke-width:0.5;"/>
      </defs>
      <g>
       <use style="stroke:#000000;stroke-width:0.5;" x="85.2" xlink:href="#m728421d6d4" y="358.523530322"/>
      </g>
     </g>
     <g id="line2d_107">
      <defs>
       <path d="
M0 0
L-4 0" id="mcb0005524f" style="stroke:#000000;stroke-width:0.5;"/>
      </defs>
      <g>
       <use style="stroke:#000000;stroke-width:0.5;" x="531.6" xlink:href="#mcb0005524f" y="358.523530322"/>
      </g>
     </g>
     <g id="text_6">
      <!-- 0.0 -->
      <defs>
       <path d="
M9.07812 0
L9.07812 10.0156
L19.0938 10.0156
L19.0938 0
z
" id="ArialMT-2e"/>
      </defs>
      <g transform="translate(55.1875 363.693842822)scale(0.2 -0.2)">
       <use xlink:href="#ArialMT-30"/>
       <use x="55.615234375" xlink:href="#ArialMT-2e"/>
       <use x="83.3984375" xlink:href="#ArialMT-30"/>
      </g>
     </g>
    </g>
    <g id="ytick_2">
     <g id="line2d_108">
      <path clip-path="url(#p0cd469f449)" d="
M85.2 290.088
L531.6 290.088" style="fill:none;stroke:#000000;stroke-dasharray:1.000000,3.000000;stroke-dashoffset:0.0;stroke-width:0.5;"/>
     </g>
     <g id="line2d_109">
      <g>
       <use style="stroke:#000000;stroke-width:0.5;" x="85.2" xlink:href="#m728421d6d4" y="290.087886757"/>
      </g>
     </g>
     <g id="line2d_110">
      <g>
       <use style="stroke:#000000;stroke-width:0.5;" x="531.6" xlink:href="#mcb0005524f" y="290.087886757"/>
      </g>
     </g>
     <g id="text_7">
      <!-- 0.2 -->
      <g transform="translate(55.284375 295.258199257)scale(0.2 -0.2)">
       <use xlink:href="#ArialMT-30"/>
       <use x="55.615234375" xlink:href="#ArialMT-2e"/>
       <use x="83.3984375" xlink:href="#ArialMT-32"/>
      </g>
     </g>
    </g>
    <g id="ytick_3">
     <g id="line2d_111">
      <path clip-path="url(#p0cd469f449)" d="
M85.2 221.652
L531.6 221.652" style="fill:none;stroke:#000000;stroke-dasharray:1.000000,3.000000;stroke-dashoffset:0.0;stroke-width:0.5;"/>
     </g>
     <g id="line2d_112">
      <g>
       <use style="stroke:#000000;stroke-width:0.5;" x="85.2" xlink:href="#m728421d6d4" y="221.652243193"/>
      </g>
     </g>
     <g id="line2d_113">
      <g>
       <use style="stroke:#000000;stroke-width:0.5;" x="531.6" xlink:href="#mcb0005524f" y="221.652243193"/>
      </g>
     </g>
     <g id="text_8">
      <!-- 0.4 -->
      <defs>
       <path d="
M32.3281 0
L32.3281 17.1406
L1.26562 17.1406
L1.26562 25.2031
L33.9375 71.5781
L41.1094 71.5781
L41.1094 25.2031
L50.7812 25.2031
L50.7812 17.1406
L41.1094 17.1406
L41.1094 0
z

M32.3281 25.2031
L32.3281 57.4688
L9.90625 25.2031
z
" id="ArialMT-34"/>
      </defs>
      <g transform="translate(55.196875 226.822555693)scale(0.2 -0.2)">
       <use xlink:href="#ArialMT-30"/>
       <use x="55.615234375" xlink:href="#ArialMT-2e"/>
       <use x="83.3984375" xlink:href="#ArialMT-34"/>
      </g>
     </g>
    </g>
    <g id="ytick_4">
     <g id="line2d_114">
      <path clip-path="url(#p0cd469f449)" d="
M85.2 153.217
L531.6 153.217" style="fill:none;stroke:#000000;stroke-dasharray:1.000000,3.000000;stroke-dashoffset:0.0;stroke-width:0.5;"/>
     </g>
     <g id="line2d_115">
      <g>
       <use style="stroke:#000000;stroke-width:0.5;" x="85.2" xlink:href="#m728421d6d4" y="153.216599629"/>
      </g>
     </g>
     <g id="line2d_116">
      <g>
       <use style="stroke:#000000;stroke-width:0.5;" x="531.6" xlink:href="#mcb0005524f" y="153.216599629"/>
      </g>
     </g>
     <g id="text_9">
      <!-- 0.6 -->
      <defs>
       <path d="
M49.75 54.0469
L41.0156 53.375
Q39.8438 58.5469 37.7031 60.8906
Q34.125 64.6562 28.9062 64.6562
Q24.7031 64.6562 21.5312 62.3125
Q17.3906 59.2812 14.9844 53.4688
Q12.5938 47.6562 12.5 36.9219
Q15.6719 41.75 20.2656 44.0938
Q24.8594 46.4375 29.8906 46.4375
Q38.6719 46.4375 44.8438 39.9688
Q51.0312 33.5 51.0312 23.25
Q51.0312 16.5 48.125 10.7188
Q45.2188 4.9375 40.1406 1.85938
Q35.0625 -1.21875 28.6094 -1.21875
Q17.625 -1.21875 10.6875 6.85938
Q3.76562 14.9375 3.76562 33.5
Q3.76562 54.25 11.4219 63.6719
Q18.1094 71.875 29.4375 71.875
Q37.8906 71.875 43.2812 67.1406
Q48.6875 62.4062 49.75 54.0469
M13.875 23.1875
Q13.875 18.6562 15.7969 14.5
Q17.7188 10.3594 21.1875 8.17188
Q24.6562 6 28.4688 6
Q34.0312 6 38.0312 10.4844
Q42.0469 14.9844 42.0469 22.7031
Q42.0469 30.125 38.0781 34.3906
Q34.125 38.6719 28.125 38.6719
Q22.1719 38.6719 18.0156 34.3906
Q13.875 30.125 13.875 23.1875" id="ArialMT-36"/>
      </defs>
      <g transform="translate(55.146875 158.386912129)scale(0.2 -0.2)">
       <use xlink:href="#ArialMT-30"/>
       <use x="55.615234375" xlink:href="#ArialMT-2e"/>
       <use x="83.3984375" xlink:href="#ArialMT-36"/>
      </g>
     </g>
    </g>
    <g id="ytick_5">
     <g id="line2d_117">
      <path clip-path="url(#p0cd469f449)" d="
M85.2 84.781
L531.6 84.781" style="fill:none;stroke:#000000;stroke-dasharray:1.000000,3.000000;stroke-dashoffset:0.0;stroke-width:0.5;"/>
     </g>
     <g id="line2d_118">
      <g>
       <use style="stroke:#000000;stroke-width:0.5;" x="85.2" xlink:href="#m728421d6d4" y="84.7809560644"/>
      </g>
     </g>
     <g id="line2d_119">
      <g>
       <use style="stroke:#000000;stroke-width:0.5;" x="531.6" xlink:href="#mcb0005524f" y="84.7809560644"/>
      </g>
     </g>
     <g id="text_10">
      <!-- 0.8 -->
      <defs>
       <path d="
M17.6719 38.8125
Q12.2031 40.8281 9.5625 44.5312
Q6.9375 48.25 6.9375 53.4219
Q6.9375 61.2344 12.5469 66.5469
Q18.1719 71.875 27.4844 71.875
Q36.8594 71.875 42.5781 66.4219
Q48.2969 60.9844 48.2969 53.1719
Q48.2969 48.1875 45.6719 44.5
Q43.0625 40.8281 37.75 38.8125
Q44.3438 36.6719 47.7812 31.875
Q51.2188 27.0938 51.2188 20.4531
Q51.2188 11.2812 44.7188 5.03125
Q38.2344 -1.21875 27.6406 -1.21875
Q17.0469 -1.21875 10.5469 5.04688
Q4.04688 11.3281 4.04688 20.7031
Q4.04688 27.6875 7.59375 32.3906
Q11.1406 37.1094 17.6719 38.8125
M15.9219 53.7188
Q15.9219 48.6406 19.1875 45.4062
Q22.4688 42.1875 27.6875 42.1875
Q32.7656 42.1875 36.0156 45.375
Q39.2656 48.5781 39.2656 53.2188
Q39.2656 58.0625 35.9062 61.3594
Q32.5625 64.6562 27.5938 64.6562
Q22.5625 64.6562 19.2344 61.4219
Q15.9219 58.2031 15.9219 53.7188
M13.0938 20.6562
Q13.0938 16.8906 14.875 13.375
Q16.6562 9.85938 20.1719 7.92188
Q23.6875 6 27.7344 6
Q34.0312 6 38.125 10.0469
Q42.2344 14.1094 42.2344 20.3594
Q42.2344 26.7031 38.0156 30.8594
Q33.7969 35.0156 27.4375 35.0156
Q21.2344 35.0156 17.1562 30.9062
Q13.0938 26.8125 13.0938 20.6562" id="ArialMT-38"/>
      </defs>
      <g transform="translate(55.109375 89.9512685644)scale(0.2 -0.2)">
       <use xlink:href="#ArialMT-30"/>
       <use x="55.615234375" xlink:href="#ArialMT-2e"/>
       <use x="83.3984375" xlink:href="#ArialMT-38"/>
      </g>
     </g>
    </g>
    <g id="ytick_6">
     <g id="line2d_120">
      <path clip-path="url(#p0cd469f449)" d="
M85.2 16.3453
L531.6 16.3453" style="fill:none;stroke:#000000;stroke-dasharray:1.000000,3.000000;stroke-dashoffset:0.0;stroke-width:0.5;"/>
     </g>
     <g id="line2d_121">
      <g>
       <use style="stroke:#000000;stroke-width:0.5;" x="85.2" xlink:href="#m728421d6d4" y="16.3453125"/>
      </g>
     </g>
     <g id="line2d_122">
      <g>
       <use style="stroke:#000000;stroke-width:0.5;" x="531.6" xlink:href="#mcb0005524f" y="16.3453125"/>
      </g>
     </g>
     <g id="text_11">
      <!-- 1.0 -->
      <g transform="translate(56.534375 21.515625)scale(0.2 -0.2)">
       <use xlink:href="#ArialMT-31"/>
       <use x="55.615234375" xlink:href="#ArialMT-2e"/>
       <use x="83.3984375" xlink:href="#ArialMT-30"/>
      </g>
     </g>
    </g>
    <g id="text_12">
     <!-- Proportion of function+target pairs -->
     <defs>
      <path d="
M40.4375 19
L49.0781 17.875
Q47.6562 8.9375 41.8125 3.875
Q35.9844 -1.17188 27.4844 -1.17188
Q16.8438 -1.17188 10.375 5.78125
Q3.90625 12.75 3.90625 25.7344
Q3.90625 34.125 6.6875 40.4219
Q9.46875 46.7344 15.1562 49.875
Q20.8438 53.0312 27.5469 53.0312
Q35.9844 53.0312 41.3594 48.75
Q46.7344 44.4844 48.25 36.625
L39.7031 35.2969
Q38.4844 40.5312 35.375 43.1562
Q32.2812 45.7969 27.875 45.7969
Q21.2344 45.7969 17.0781 41.0312
Q12.9375 36.2812 12.9375 25.9844
Q12.9375 15.5312 16.9375 10.7969
Q20.9531 6.0625 27.3906 6.0625
Q32.5625 6.0625 36.0312 9.23438
Q39.5 12.4062 40.4375 19" id="ArialMT-63"/>
      <path d="
M25.7812 7.85938
L27.0469 0.09375
Q23.3438 -0.6875 20.4062 -0.6875
Q15.625 -0.6875 12.9844 0.828125
Q10.3594 2.34375 9.28125 4.8125
Q8.20312 7.28125 8.20312 15.1875
L8.20312 45.0156
L1.76562 45.0156
L1.76562 51.8594
L8.20312 51.8594
L8.20312 64.7031
L16.9375 69.9688
L16.9375 51.8594
L25.7812 51.8594
L25.7812 45.0156
L16.9375 45.0156
L16.9375 14.7031
Q16.9375 10.9375 17.4062 9.85938
Q17.875 8.79688 18.9219 8.15625
Q19.9688 7.51562 21.9219 7.51562
Q23.3906 7.51562 25.7812 7.85938" id="ArialMT-74"/>
      <path d="
M40.5781 0
L40.5781 7.625
Q34.5156 -1.17188 24.125 -1.17188
Q19.5312 -1.17188 15.5469 0.578125
Q11.5781 2.34375 9.64062 5
Q7.71875 7.67188 6.9375 11.5312
Q6.39062 14.1094 6.39062 19.7344
L6.39062 51.8594
L15.1875 51.8594
L15.1875 23.0938
Q15.1875 16.2188 15.7188 13.8125
Q16.5469 10.3594 19.2344 8.375
Q21.9219 6.39062 25.875 6.39062
Q29.8281 6.39062 33.2969 8.42188
Q36.7656 10.4531 38.2031 13.9375
Q39.6562 17.4375 39.6562 24.0781
L39.6562 51.8594
L48.4375 51.8594
L48.4375 0
z
" id="ArialMT-75"/>
      <path d="
M7.71875 0
L7.71875 71.5781
L34.7188 71.5781
Q41.8438 71.5781 45.6094 70.9062
Q50.875 70.0156 54.4375 67.5469
Q58.0156 65.0938 60.1875 60.6406
Q62.3594 56.2031 62.3594 50.875
Q62.3594 41.75 56.5469 35.4219
Q50.7344 29.1094 35.5469 29.1094
L17.1875 29.1094
L17.1875 0
z

M17.1875 37.5469
L35.6875 37.5469
Q44.875 37.5469 48.7344 40.9688
Q52.5938 44.3906 52.5938 50.5938
Q52.5938 55.0781 50.3125 58.2656
Q48.0469 61.4688 44.3438 62.5
Q41.9375 63.1406 35.5 63.1406
L17.1875 63.1406
z
" id="ArialMT-50"/>
      <path d="
M6.59375 -19.875
L6.59375 51.8594
L14.5938 51.8594
L14.5938 45.125
Q17.4375 49.0781 21 51.0469
Q24.5625 53.0312 29.6406 53.0312
Q36.2812 53.0312 41.3594 49.6094
Q46.4375 46.1875 49.0156 39.9531
Q51.6094 33.7344 51.6094 26.3125
Q51.6094 18.3594 48.75 11.9844
Q45.9062 5.60938 40.4531 2.21875
Q35.0156 -1.17188 29 -1.17188
Q24.6094 -1.17188 21.1094 0.6875
Q17.625 2.54688 15.375 5.375
L15.375 -19.875
z

M14.5469 25.6406
Q14.5469 15.625 18.5938 10.8438
Q22.6562 6.0625 28.4219 6.0625
Q34.2812 6.0625 38.4531 11.0156
Q42.625 15.9688 42.625 26.375
Q42.625 36.2812 38.5469 41.2031
Q34.4688 46.1406 28.8125 46.1406
Q23.1875 46.1406 18.8594 40.8906
Q14.5469 35.6406 14.5469 25.6406" id="ArialMT-70"/>
      <path d="
M25.0469 11.5781
L25.0469 31.2031
L5.5625 31.2031
L5.5625 39.4062
L25.0469 39.4062
L25.0469 58.8906
L33.3438 58.8906
L33.3438 39.4062
L52.8281 39.4062
L52.8281 31.2031
L33.3438 31.2031
L33.3438 11.5781
z
" id="ArialMT-2b"/>
      <path d="
M6.5 0
L6.5 51.8594
L14.4062 51.8594
L14.4062 44
Q17.4375 49.5156 20 51.2656
Q22.5625 53.0312 25.6406 53.0312
Q30.0781 53.0312 34.6719 50.2031
L31.6406 42.0469
Q28.4219 43.9531 25.2031 43.9531
Q22.3125 43.9531 20.0156 42.2188
Q17.7188 40.4844 16.75 37.4062
Q15.2812 32.7188 15.2812 27.1562
L15.2812 0
z
" id="ArialMT-72"/>
     </defs>
     <g transform="translate(46.3209375 321.197436572)rotate(-90.0)scale(0.18 -0.18)">
      <use xlink:href="#ArialMT-50"/>
      <use x="66.69921875" xlink:href="#ArialMT-72"/>
      <use x="100.0" xlink:href="#ArialMT-6f"/>
      <use x="155.615234375" xlink:href="#ArialMT-70"/>
      <use x="211.23046875" xlink:href="#ArialMT-6f"/>
      <use x="266.845703125" xlink:href="#ArialMT-72"/>
      <use x="300.146484375" xlink:href="#ArialMT-74"/>
      <use x="327.9296875" xlink:href="#ArialMT-69"/>
      <use x="350.146484375" xlink:href="#ArialMT-6f"/>
      <use x="405.76171875" xlink:href="#ArialMT-6e"/>
      <use x="461.376953125" xlink:href="#ArialMT-20"/>
      <use x="489.16015625" xlink:href="#ArialMT-6f"/>
      <use x="544.775390625" xlink:href="#ArialMT-66"/>
      <use x="572.55859375" xlink:href="#ArialMT-20"/>
      <use x="600.341796875" xlink:href="#ArialMT-66"/>
      <use x="628.125" xlink:href="#ArialMT-75"/>
      <use x="683.740234375" xlink:href="#ArialMT-6e"/>
      <use x="739.35546875" xlink:href="#ArialMT-63"/>
      <use x="789.35546875" xlink:href="#ArialMT-74"/>
      <use x="817.138671875" xlink:href="#ArialMT-69"/>
      <use x="839.35546875" xlink:href="#ArialMT-6f"/>
      <use x="894.970703125" xlink:href="#ArialMT-6e"/>
      <use x="950.5859375" xlink:href="#ArialMT-2b"/>
      <use x="1008.984375" xlink:href="#ArialMT-74"/>
      <use x="1036.76757812" xlink:href="#ArialMT-61"/>
      <use x="1092.3828125" xlink:href="#ArialMT-72"/>
      <use x="1125.68359375" xlink:href="#ArialMT-67"/>
      <use x="1181.29882812" xlink:href="#ArialMT-65"/>
      <use x="1236.9140625" xlink:href="#ArialMT-74"/>
      <use x="1264.69726562" xlink:href="#ArialMT-20"/>
      <use x="1292.48046875" xlink:href="#ArialMT-70"/>
      <use x="1348.09570312" xlink:href="#ArialMT-61"/>
      <use x="1403.7109375" xlink:href="#ArialMT-69"/>
      <use x="1425.92773438" xlink:href="#ArialMT-72"/>
      <use x="1459.22851562" xlink:href="#ArialMT-73"/>
     </g>
    </g>
   </g>
   <g id="patch_3">
    <path d="
M85.2 12.9235
L531.6 12.9235" style="fill:none;stroke:#000000;"/>
   </g>
   <g id="patch_4">
    <path d="
M531.6 358.524
L531.6 12.9235" style="fill:none;stroke:#000000;"/>
   </g>
   <g id="patch_5">
    <path d="
M85.2 358.524
L531.6 358.524" style="fill:none;stroke:#000000;"/>
   </g>
   <g id="patch_6">
    <path d="
M85.2 358.524
L85.2 12.9235" style="fill:none;stroke:#000000;"/>
   </g>
   <g id="text_13">
    <!-- Ord-N-DTS -->
    <defs>
     <path d="
M4.5 23
L13.4219 23.7812
Q14.0625 18.4062 16.375 14.9688
Q18.7031 11.5312 23.5781 9.40625
Q28.4688 7.28125 34.5781 7.28125
Q39.9844 7.28125 44.1406 8.89062
Q48.2969 10.5 50.3125 13.2969
Q52.3438 16.1094 52.3438 19.4375
Q52.3438 22.7969 50.3906 25.3125
Q48.4375 27.8281 43.9531 29.5469
Q41.0625 30.6719 31.2031 33.0312
Q21.3438 35.4062 17.3906 37.5
Q12.25 40.1875 9.73438 44.1562
Q7.23438 48.1406 7.23438 53.0781
Q7.23438 58.5 10.2969 63.2031
Q13.375 67.9219 19.2812 70.3594
Q25.2031 72.7969 32.4219 72.7969
Q40.375 72.7969 46.4531 70.2344
Q52.5469 67.6719 55.8125 62.6875
Q59.0781 57.7188 59.3281 51.4219
L50.25 50.7344
Q49.5156 57.5156 45.2812 60.9844
Q41.0625 64.4531 32.8125 64.4531
Q24.2188 64.4531 20.2812 61.2969
Q16.3594 58.1562 16.3594 53.7188
Q16.3594 49.8594 19.1406 47.3594
Q21.875 44.875 33.4219 42.2656
Q44.9688 39.6562 49.2656 37.7031
Q55.5156 34.8125 58.4844 30.3906
Q61.4688 25.9844 61.4688 20.2188
Q61.4688 14.5 58.2031 9.4375
Q54.9375 4.39062 48.7969 1.57812
Q42.6719 -1.21875 35.0156 -1.21875
Q25.2969 -1.21875 18.7188 1.60938
Q12.1562 4.4375 8.42188 10.125
Q4.6875 15.8281 4.5 23" id="ArialMT-53"/>
     <path d="
M7.625 0
L7.625 71.5781
L17.3281 71.5781
L54.9375 15.375
L54.9375 71.5781
L64.0156 71.5781
L64.0156 0
L54.2969 0
L16.7031 56.25
L16.7031 0
z
" id="ArialMT-4e"/>
     <path d="
M7.71875 0
L7.71875 71.5781
L32.375 71.5781
Q40.7188 71.5781 45.125 70.5625
Q51.2656 69.1406 55.6094 65.4375
Q61.2812 60.6406 64.0781 53.1875
Q66.8906 45.75 66.8906 36.1875
Q66.8906 28.0312 64.9844 21.7344
Q63.0938 15.4375 60.1094 11.2969
Q57.125 7.17188 53.5781 4.79688
Q50.0469 2.4375 45.0469 1.21875
Q40.0469 0 33.5469 0
z

M17.1875 8.45312
L32.4688 8.45312
Q39.5469 8.45312 43.5781 9.76562
Q47.6094 11.0781 50 13.4844
Q53.375 16.8438 55.25 22.5312
Q57.125 28.2188 57.125 36.3281
Q57.125 47.5625 53.4375 53.5938
Q49.75 59.625 44.4844 61.6719
Q40.6719 63.1406 32.2344 63.1406
L17.1875 63.1406
z
" id="ArialMT-44"/>
     <path d="
M25.9219 0
L25.9219 63.1406
L2.34375 63.1406
L2.34375 71.5781
L59.0781 71.5781
L59.0781 63.1406
L35.4062 63.1406
L35.4062 0
z
" id="ArialMT-54"/>
     <path d="
M4.82812 34.8594
Q4.82812 52.6875 14.3906 62.7656
Q23.9688 72.8594 39.1094 72.8594
Q49.0312 72.8594 56.9844 68.1094
Q64.9375 63.375 69.1094 54.9062
Q73.2969 46.4375 73.2969 35.6875
Q73.2969 24.8125 68.8906 16.2188
Q64.5 7.625 56.4375 3.20312
Q48.3906 -1.21875 39.0625 -1.21875
Q28.9531 -1.21875 20.9844 3.65625
Q13.0312 8.54688 8.92188 16.9844
Q4.82812 25.4375 4.82812 34.8594
M14.5938 34.7188
Q14.5938 21.7812 21.5469 14.3281
Q28.5156 6.89062 39.0156 6.89062
Q49.7031 6.89062 56.6094 14.4062
Q63.5312 21.9219 63.5312 35.75
Q63.5312 44.4844 60.5781 51
Q57.625 57.5156 51.9219 61.1094
Q46.2344 64.7031 39.1562 64.7031
Q29.1094 64.7031 21.8438 57.7812
Q14.5938 50.875 14.5938 34.7188" id="ArialMT-4f"/>
    </defs>
    <g transform="translate(492.0 355.55770034)scale(0.15 -0.15)">
     <use xlink:href="#ArialMT-4f"/>
     <use x="77.783203125" xlink:href="#ArialMT-72"/>
     <use x="111.083984375" xlink:href="#ArialMT-64"/>
     <use x="166.69921875" xlink:href="#ArialMT-2d"/>
     <use x="200.0" xlink:href="#ArialMT-4e"/>
     <use x="272.216796875" xlink:href="#ArialMT-2d"/>
     <use x="305.517578125" xlink:href="#ArialMT-44"/>
     <use x="377.734375" xlink:href="#ArialMT-54"/>
     <use x="438.818359375" xlink:href="#ArialMT-53"/>
    </g>
   </g>
   <g id="text_14">
    <!-- CMA-ES -->
    <defs>
     <path d="
M-0.140625 0
L27.3438 71.5781
L37.5469 71.5781
L66.8438 0
L56.0625 0
L47.7031 21.6875
L17.7812 21.6875
L9.90625 0
z

M20.5156 29.3906
L44.7812 29.3906
L37.3125 49.2188
Q33.8906 58.25 32.2344 64.0625
Q30.8594 57.1719 28.375 50.3906
z
" id="ArialMT-41"/>
     <path d="
M58.7969 25.0938
L68.2656 22.7031
Q65.2812 11.0312 57.5469 4.90625
Q49.8125 -1.21875 38.625 -1.21875
Q27.0469 -1.21875 19.7969 3.48438
Q12.5469 8.20312 8.76562 17.1406
Q4.98438 26.0781 4.98438 36.3281
Q4.98438 47.5156 9.25 55.8281
Q13.5312 64.1562 21.4062 68.4688
Q29.2969 72.7969 38.7656 72.7969
Q49.5156 72.7969 56.8281 67.3281
Q64.1562 61.8594 67.0469 51.9531
L57.7188 49.75
Q55.2188 57.5625 50.4844 61.125
Q45.75 64.7031 38.5781 64.7031
Q30.3281 64.7031 24.7812 60.7344
Q19.2344 56.7812 16.9844 50.1094
Q14.75 43.4531 14.75 36.375
Q14.75 27.25 17.4062 20.4375
Q20.0625 13.625 25.6719 10.25
Q31.2969 6.89062 37.8438 6.89062
Q45.7969 6.89062 51.3125 11.4688
Q56.8438 16.0625 58.7969 25.0938" id="ArialMT-43"/>
     <path d="
M7.90625 0
L7.90625 71.5781
L59.6719 71.5781
L59.6719 63.1406
L17.3906 63.1406
L17.3906 41.2188
L56.9844 41.2188
L56.9844 32.8125
L17.3906 32.8125
L17.3906 8.45312
L61.3281 8.45312
L61.3281 0
z
" id="ArialMT-45"/>
     <path d="
M7.42188 0
L7.42188 71.5781
L21.6875 71.5781
L38.625 20.9062
Q40.9688 13.8125 42.0469 10.2969
Q43.2656 14.2031 45.8438 21.7812
L62.9844 71.5781
L75.7344 71.5781
L75.7344 0
L66.6094 0
L66.6094 59.9062
L45.7969 0
L37.25 0
L16.5469 60.9375
L16.5469 0
z
" id="ArialMT-4d"/>
    </defs>
    <g transform="translate(492.0 289.859482519)scale(0.15 -0.15)">
     <use xlink:href="#ArialMT-43"/>
     <use x="72.216796875" xlink:href="#ArialMT-4d"/>
     <use x="155.517578125" xlink:href="#ArialMT-41"/>
     <use x="222.216796875" xlink:href="#ArialMT-2d"/>
     <use x="255.517578125" xlink:href="#ArialMT-45"/>
     <use x="322.216796875" xlink:href="#ArialMT-53"/>
    </g>
   </g>
   <g id="text_15">
    <!-- Ord-Q-DTS -->
    <defs>
     <path d="
M61.9688 7.67188
Q68.5625 3.125 74.125 1.03125
L71.3438 -5.5625
Q63.625 -2.78125 55.9531 3.21875
Q48 -1.21875 38.375 -1.21875
Q28.6562 -1.21875 20.75 3.46875
Q12.8438 8.15625 8.5625 16.6406
Q4.29688 25.1406 4.29688 35.7969
Q4.29688 46.3906 8.59375 55.0781
Q12.8906 63.7656 20.8281 68.3125
Q28.7656 72.8594 38.5781 72.8594
Q48.4844 72.8594 56.4375 68.1406
Q64.4062 63.4219 68.5781 54.9531
Q72.75 46.4844 72.75 35.8438
Q72.75 27 70.0625 19.9375
Q67.3906 12.8906 61.9688 7.67188
M41.1094 19.7812
Q49.3125 17.4844 54.6406 12.9375
Q62.9844 20.5625 62.9844 35.8438
Q62.9844 44.5312 60.0312 51.0156
Q57.0781 57.5156 51.3906 61.1094
Q45.7031 64.7031 38.625 64.7031
Q28.0312 64.7031 21.0469 57.4531
Q14.0625 50.2031 14.0625 35.7969
Q14.0625 21.8281 20.9688 14.3594
Q27.875 6.89062 38.625 6.89062
Q43.7031 6.89062 48.1875 8.79688
Q43.75 11.6719 38.8125 12.8906
z
" id="ArialMT-51"/>
    </defs>
    <g transform="translate(492.0 224.161264697)scale(0.15 -0.15)">
     <use xlink:href="#ArialMT-4f"/>
     <use x="77.783203125" xlink:href="#ArialMT-72"/>
     <use x="111.083984375" xlink:href="#ArialMT-64"/>
     <use x="166.69921875" xlink:href="#ArialMT-2d"/>
     <use x="200.0" xlink:href="#ArialMT-51"/>
     <use x="277.783203125" xlink:href="#ArialMT-2d"/>
     <use x="311.083984375" xlink:href="#ArialMT-44"/>
     <use x="383.30078125" xlink:href="#ArialMT-54"/>
     <use x="444.384765625" xlink:href="#ArialMT-53"/>
    </g>
   </g>
   <g id="text_16">
    <!-- Ord-H-DTS -->
    <defs>
     <path d="
M8.01562 0
L8.01562 71.5781
L17.4844 71.5781
L17.4844 42.1875
L54.6875 42.1875
L54.6875 71.5781
L64.1562 71.5781
L64.1562 0
L54.6875 0
L54.6875 33.7344
L17.4844 33.7344
L17.4844 0
z
" id="ArialMT-48"/>
    </defs>
    <g transform="translate(492.0 158.463046875)scale(0.15 -0.15)">
     <use xlink:href="#ArialMT-4f"/>
     <use x="77.783203125" xlink:href="#ArialMT-72"/>
     <use x="111.083984375" xlink:href="#ArialMT-64"/>
     <use x="166.69921875" xlink:href="#ArialMT-2d"/>
     <use x="200.0" xlink:href="#ArialMT-48"/>
     <use x="272.216796875" xlink:href="#ArialMT-2d"/>
     <use x="305.517578125" xlink:href="#ArialMT-44"/>
     <use x="377.734375" xlink:href="#ArialMT-54"/>
     <use x="438.818359375" xlink:href="#ArialMT-53"/>
    </g>
   </g>
   <g id="text_17">
    <!-- DTS-CMA-E -->
    <g transform="translate(492.0 92.7648290532)scale(0.15 -0.15)">
     <use xlink:href="#ArialMT-44"/>
     <use x="72.216796875" xlink:href="#ArialMT-54"/>
     <use x="133.30078125" xlink:href="#ArialMT-53"/>
     <use x="200.0" xlink:href="#ArialMT-2d"/>
     <use x="233.30078125" xlink:href="#ArialMT-43"/>
     <use x="305.517578125" xlink:href="#ArialMT-4d"/>
     <use x="388.818359375" xlink:href="#ArialMT-41"/>
     <use x="455.517578125" xlink:href="#ArialMT-2d"/>
     <use x="488.818359375" xlink:href="#ArialMT-45"/>
    </g>
   </g>
   <g id="text_18">
    <!-- best 2009 -->
    <defs>
     <path d="
M14.7031 0
L6.54688 0
L6.54688 71.5781
L15.3281 71.5781
L15.3281 46.0469
Q20.9062 53.0312 29.5469 53.0312
Q34.3281 53.0312 38.5938 51.0938
Q42.875 49.1719 45.625 45.6719
Q48.3906 42.1875 49.9531 37.25
Q51.5156 32.3281 51.5156 26.7031
Q51.5156 13.375 44.9219 6.09375
Q38.3281 -1.17188 29.1094 -1.17188
Q19.9219 -1.17188 14.7031 6.5
z

M14.5938 26.3125
Q14.5938 17 17.1406 12.8438
Q21.2969 6.0625 28.375 6.0625
Q34.125 6.0625 38.3281 11.0625
Q42.5312 16.0625 42.5312 25.9844
Q42.5312 36.1406 38.5 40.9688
Q34.4688 45.7969 28.7656 45.7969
Q23 45.7969 18.7969 40.7969
Q14.5938 35.7969 14.5938 26.3125" id="ArialMT-62"/>
     <path d="
M5.46875 16.5469
L13.9219 17.3281
Q14.9844 11.375 18.0156 8.6875
Q21.0469 6 25.7812 6
Q29.8281 6 32.875 7.85938
Q35.9375 9.71875 37.8906 12.8125
Q39.8438 15.9219 41.1562 21.1875
Q42.4844 26.4688 42.4844 31.9375
Q42.4844 32.5156 42.4375 33.6875
Q39.7969 29.5 35.2344 26.875
Q30.6719 24.2656 25.3438 24.2656
Q16.4531 24.2656 10.2969 30.7031
Q4.15625 37.1562 4.15625 47.7031
Q4.15625 58.5938 10.5781 65.2344
Q17 71.875 26.6562 71.875
Q33.6406 71.875 39.4219 68.1094
Q45.2188 64.3594 48.2188 57.3906
Q51.2188 50.4375 51.2188 37.25
Q51.2188 23.5312 48.2344 15.4062
Q45.2656 7.28125 39.375 3.03125
Q33.5 -1.21875 25.5938 -1.21875
Q17.1875 -1.21875 11.8594 3.4375
Q6.54688 8.10938 5.46875 16.5469
M41.4531 48.1406
Q41.4531 55.7188 37.4219 60.1562
Q33.4062 64.5938 27.7344 64.5938
Q21.875 64.5938 17.5312 59.8125
Q13.1875 55.0312 13.1875 47.4062
Q13.1875 40.5781 17.3125 36.2969
Q21.4375 32.0312 27.4844 32.0312
Q33.5938 32.0312 37.5156 36.2969
Q41.4531 40.5781 41.4531 48.1406" id="ArialMT-39"/>
    </defs>
    <g transform="translate(492.0 27.0666112314)scale(0.15 -0.15)">
     <use xlink:href="#ArialMT-62"/>
     <use x="55.615234375" xlink:href="#ArialMT-65"/>
     <use x="111.23046875" xlink:href="#ArialMT-73"/>
     <use x="161.23046875" xlink:href="#ArialMT-74"/>
     <use x="189.013671875" xlink:href="#ArialMT-20"/>
     <use x="216.796875" xlink:href="#ArialMT-32"/>
     <use x="272.412109375" xlink:href="#ArialMT-30"/>
     <use x="328.02734375" xlink:href="#ArialMT-30"/>
     <use x="383.642578125" xlink:href="#ArialMT-39"/>
    </g>
   </g>
   <g id="text_19">
    <!-- bbob - f20-f24, 3-D -->
    <defs>
     <path d="
M8.89062 0
L8.89062 10.0156
L18.8906 10.0156
L18.8906 0
Q18.8906 -5.51562 16.9375 -8.90625
Q14.9844 -12.3125 10.75 -14.1562
L8.29688 -10.4062
Q11.0781 -9.1875 12.3906 -6.8125
Q13.7188 -4.4375 13.875 0
z
" id="ArialMT-2c"/>
    </defs>
    <g transform="translate(89.664 31.7604459468)scale(0.1666 -0.1666)">
     <use xlink:href="#ArialMT-62"/>
     <use x="55.615234375" xlink:href="#ArialMT-62"/>
     <use x="111.23046875" xlink:href="#ArialMT-6f"/>
     <use x="166.845703125" xlink:href="#ArialMT-62"/>
     <use x="222.4609375" xlink:href="#ArialMT-20"/>
     <use x="250.244140625" xlink:href="#ArialMT-2d"/>
     <use x="283.544921875" xlink:href="#ArialMT-20"/>
     <use x="311.328125" xlink:href="#ArialMT-66"/>
     <use x="339.111328125" xlink:href="#ArialMT-32"/>
     <use x="394.7265625" xlink:href="#ArialMT-30"/>
     <use x="450.341796875" xlink:href="#ArialMT-2d"/>
     <use x="483.642578125" xlink:href="#ArialMT-66"/>
     <use x="511.42578125" xlink:href="#ArialMT-32"/>
     <use x="567.041015625" xlink:href="#ArialMT-34"/>
     <use x="622.65625" xlink:href="#ArialMT-2c"/>
     <use x="650.439453125" xlink:href="#ArialMT-20"/>
     <use x="678.22265625" xlink:href="#ArialMT-33"/>
     <use x="733.837890625" xlink:href="#ArialMT-2d"/>
     <use x="767.138671875" xlink:href="#ArialMT-44"/>
    </g>
    <!-- 31 target RLs/dim: 0.5..50 -->
    <defs>
     <path d="
M7.85938 0
L7.85938 71.5781
L39.5938 71.5781
Q49.1719 71.5781 54.1406 69.6406
Q59.125 67.7188 62.1094 62.8281
Q65.0938 57.9531 65.0938 52.0469
Q65.0938 44.4375 60.1562 39.2031
Q55.2188 33.9844 44.9219 32.5625
Q48.6875 30.7656 50.6406 29
Q54.7812 25.2031 58.5 19.4844
L70.9531 0
L59.0312 0
L49.5625 14.8906
Q45.4062 21.3438 42.7188 24.75
Q40.0469 28.1719 37.9219 29.5312
Q35.7969 30.9062 33.5938 31.4531
Q31.9844 31.7812 28.3281 31.7812
L17.3281 31.7812
L17.3281 0
z

M17.3281 39.9844
L37.7031 39.9844
Q44.1875 39.9844 47.8438 41.3281
Q51.5156 42.6719 53.4219 45.625
Q55.3281 48.5781 55.3281 52.0469
Q55.3281 57.125 51.6406 60.3906
Q47.9531 63.6719 39.9844 63.6719
L17.3281 63.6719
z
" id="ArialMT-52"/>
     <path d="
M9.03125 41.8438
L9.03125 51.8594
L19.0469 51.8594
L19.0469 41.8438
z

M9.03125 0
L9.03125 10.0156
L19.0469 10.0156
L19.0469 0
z
" id="ArialMT-3a"/>
     <path d="
M7.32812 0
L7.32812 71.5781
L16.7969 71.5781
L16.7969 8.45312
L52.0469 8.45312
L52.0469 0
z
" id="ArialMT-4c"/>
     <path d="
M4.15625 18.75
L13.375 19.5312
Q14.4062 12.7969 18.1406 9.39062
Q21.875 6 27.1562 6
Q33.5 6 37.8906 10.7812
Q42.2812 15.5781 42.2812 23.4844
Q42.2812 31 38.0625 35.3438
Q33.8438 39.7031 27 39.7031
Q22.75 39.7031 19.3281 37.7656
Q15.9219 35.8438 13.9688 32.7656
L5.71875 33.8438
L12.6406 70.6094
L48.25 70.6094
L48.25 62.2031
L19.6719 62.2031
L15.8281 42.9688
Q22.2656 47.4688 29.3438 47.4688
Q38.7188 47.4688 45.1562 40.9688
Q51.6094 34.4688 51.6094 24.2656
Q51.6094 14.5469 45.9531 7.46875
Q39.0625 -1.21875 27.1562 -1.21875
Q17.3906 -1.21875 11.2031 4.25
Q5.03125 9.71875 4.15625 18.75" id="ArialMT-35"/>
    </defs>
    <g transform="translate(89.664 49.6251721968)scale(0.1666 -0.1666)">
     <use xlink:href="#ArialMT-33"/>
     <use x="55.615234375" xlink:href="#ArialMT-31"/>
     <use x="111.23046875" xlink:href="#ArialMT-20"/>
     <use x="139.013671875" xlink:href="#ArialMT-74"/>
     <use x="166.796875" xlink:href="#ArialMT-61"/>
     <use x="222.412109375" xlink:href="#ArialMT-72"/>
     <use x="255.712890625" xlink:href="#ArialMT-67"/>
     <use x="311.328125" xlink:href="#ArialMT-65"/>
     <use x="366.943359375" xlink:href="#ArialMT-74"/>
     <use x="394.7265625" xlink:href="#ArialMT-20"/>
     <use x="422.509765625" xlink:href="#ArialMT-52"/>
     <use x="494.7265625" xlink:href="#ArialMT-4c"/>
     <use x="550.341796875" xlink:href="#ArialMT-73"/>
     <use x="600.341796875" xlink:href="#ArialMT-2f"/>
     <use x="628.125" xlink:href="#ArialMT-64"/>
     <use x="683.740234375" xlink:href="#ArialMT-69"/>
     <use x="705.95703125" xlink:href="#ArialMT-6d"/>
     <use x="789.2578125" xlink:href="#ArialMT-3a"/>
     <use x="817.041015625" xlink:href="#ArialMT-20"/>
     <use x="844.82421875" xlink:href="#ArialMT-30"/>
     <use x="900.439453125" xlink:href="#ArialMT-2e"/>
     <use x="928.22265625" xlink:href="#ArialMT-35"/>
     <use x="983.837890625" xlink:href="#ArialMT-2e"/>
     <use x="1011.62109375" xlink:href="#ArialMT-2e"/>
     <use x="1039.40429688" xlink:href="#ArialMT-35"/>
     <use x="1095.01953125" xlink:href="#ArialMT-30"/>
    </g>
    <!--    from refalgs/best2009-bbob.tar.gz -->
    <defs>
     <path d="
M1.95312 0
L1.95312 7.125
L34.9688 45.0156
Q29.3438 44.7344 25.0469 44.7344
L3.90625 44.7344
L3.90625 51.8594
L46.2969 51.8594
L46.2969 46.0469
L18.2188 13.1406
L12.7969 7.125
Q18.7031 7.5625 23.875 7.5625
L47.8594 7.5625
L47.8594 0
z
" id="ArialMT-7a"/>
    </defs>
    <g transform="translate(89.664 67.6851328218)scale(0.1666 -0.1666)">
     <use xlink:href="#ArialMT-20"/>
     <use x="27.783203125" xlink:href="#ArialMT-20"/>
     <use x="55.56640625" xlink:href="#ArialMT-20"/>
     <use x="83.349609375" xlink:href="#ArialMT-66"/>
     <use x="111.1328125" xlink:href="#ArialMT-72"/>
     <use x="144.43359375" xlink:href="#ArialMT-6f"/>
     <use x="200.048828125" xlink:href="#ArialMT-6d"/>
     <use x="283.349609375" xlink:href="#ArialMT-20"/>
     <use x="311.1328125" xlink:href="#ArialMT-72"/>
     <use x="344.43359375" xlink:href="#ArialMT-65"/>
     <use x="400.048828125" xlink:href="#ArialMT-66"/>
     <use x="427.83203125" xlink:href="#ArialMT-61"/>
     <use x="483.447265625" xlink:href="#ArialMT-6c"/>
     <use x="505.6640625" xlink:href="#ArialMT-67"/>
     <use x="561.279296875" xlink:href="#ArialMT-73"/>
     <use x="611.279296875" xlink:href="#ArialMT-2f"/>
     <use x="639.0625" xlink:href="#ArialMT-62"/>
     <use x="694.677734375" xlink:href="#ArialMT-65"/>
     <use x="750.29296875" xlink:href="#ArialMT-73"/>
     <use x="800.29296875" xlink:href="#ArialMT-74"/>
     <use x="828.076171875" xlink:href="#ArialMT-32"/>
     <use x="883.69140625" xlink:href="#ArialMT-30"/>
     <use x="939.306640625" xlink:href="#ArialMT-30"/>
     <use x="994.921875" xlink:href="#ArialMT-39"/>
     <use x="1050.53710938" xlink:href="#ArialMT-2d"/>
     <use x="1083.83789062" xlink:href="#ArialMT-62"/>
     <use x="1139.453125" xlink:href="#ArialMT-62"/>
     <use x="1195.06835938" xlink:href="#ArialMT-6f"/>
     <use x="1250.68359375" xlink:href="#ArialMT-62"/>
     <use x="1306.29882812" xlink:href="#ArialMT-2e"/>
     <use x="1334.08203125" xlink:href="#ArialMT-74"/>
     <use x="1361.86523438" xlink:href="#ArialMT-61"/>
     <use x="1417.48046875" xlink:href="#ArialMT-72"/>
     <use x="1445.28125" xlink:href="#ArialMT-2e"/>
     <use x="1473.06445312" xlink:href="#ArialMT-67"/>
     <use x="1528.6796875" xlink:href="#ArialMT-7a"/>
    </g>
    <!-- 15 instances -->
    <g transform="translate(89.664 85.5014409468)scale(0.1666 -0.1666)">
     <use xlink:href="#ArialMT-31"/>
     <use x="55.615234375" xlink:href="#ArialMT-35"/>
     <use x="111.23046875" xlink:href="#ArialMT-20"/>
     <use x="139.013671875" xlink:href="#ArialMT-69"/>
     <use x="161.23046875" xlink:href="#ArialMT-6e"/>
     <use x="216.845703125" xlink:href="#ArialMT-73"/>
     <use x="266.845703125" xlink:href="#ArialMT-74"/>
     <use x="294.62890625" xlink:href="#ArialMT-61"/>
     <use x="350.244140625" xlink:href="#ArialMT-6e"/>
     <use x="405.859375" xlink:href="#ArialMT-63"/>
     <use x="455.859375" xlink:href="#ArialMT-65"/>
     <use x="511.474609375" xlink:href="#ArialMT-73"/>
    </g>
   </g>
   <g id="text_20">
    <!-- v2.0.1 -->
    <g style="fill:#808080;" transform="translate(295.76171875 353.080030322)scale(0.1 -0.1)">
     <use xlink:href="#ArialMT-76"/>
     <use x="50.0" xlink:href="#ArialMT-32"/>
     <use x="105.615234375" xlink:href="#ArialMT-2e"/>
     <use x="133.3984375" xlink:href="#ArialMT-30"/>
     <use x="189.013671875" xlink:href="#ArialMT-2e"/>
     <use x="216.796875" xlink:href="#ArialMT-31"/>
    </g>
   </g>
  </g>
 </g>
 <defs>
  <clipPath id="p0cd469f449">
   <rect height="345.6" width="446.4" x="85.2" y="12.9235303218"/>
  </clipPath>
 </defs>
</svg>
