<?xml version="1.0" encoding="utf-8" standalone="no"?>
<!DOCTYPE svg PUBLIC "-//W3C//DTD SVG 1.1//EN"
  "http://www.w3.org/Graphics/SVG/1.1/DTD/svg11.dtd">
<!-- Created with matplotlib (http://matplotlib.org/) -->
<svg height="414pt" version="1.1" viewBox="0 0 580 414" width="580pt" xmlns="http://www.w3.org/2000/svg" xmlns:xlink="http://www.w3.org/1999/xlink">
 <defs>
  <style type="text/css">
*{stroke-linecap:butt;stroke-linejoin:round;}
  </style>
 </defs>
 <g id="figure_1">
  <g id="patch_1">
   <path d="
M0 414.924
L580.563 414.924
L580.563 0
L0 0
z
" style="fill:#ffffff;"/>
  </g>
  <g id="axes_1">
   <g id="patch_2">
    <path d="
M85.2 358.524
L531.6 358.524
L531.6 12.9235
L85.2 12.9235
z
" style="fill:#ffffff;"/>
   </g>
   <g id="line2d_1">
    <path d="
M64.069 358.524
L64.069 334.651
L85.2 334.651
L85.2 318.735
L100.193 318.735
L100.193 302.82
L111.822 302.82
L111.822 270.99
L121.324 270.99
L121.324 239.159
L129.357 239.159
L129.357 215.286
L136.316 215.286
L136.316 199.371
L142.455 199.371
L142.455 191.413
L147.945 191.413
L147.945 167.54
L157.447 167.54
L157.447 159.583
L161.619 159.583
L161.619 151.625
L169.076 151.625
L169.076 143.667
L178.578 143.667
L178.578 135.71
L184.069 135.71
L184.069 127.752
L186.612 127.752
L186.612 119.795
L191.353 119.795
L191.353 111.837
L197.742 111.837
L197.742 103.879
L203.433 103.879
L203.433 95.9216
L208.563 95.9216
L208.563 87.964
L211.723 87.964
L211.723 80.0064
L214.702 80.0064
L214.702 72.0487
L217.519 72.0487
L217.519 56.1335
L218.873 56.1335
L218.873 48.1758
L225.16 48.1758
L225.16 40.2182
L230.769 40.2182
L230.769 32.2606
L328.4 32.2606
L328.4 24.3029
L362.78 24.3029
L362.78 16.3453
L445.2 16.3453" style="fill:none;stroke:#f5deb3;stroke-linecap:square;stroke-width:6;"/>
   </g>
   <g id="line2d_2"/>
   <g id="line2d_3">
    <path d="
M445.2 16.3453
L484.8 23.1889" style="fill:none;stroke:#f5deb3;stroke-linecap:square;stroke-width:6;"/>
    <defs>
     <path d="
M-6.10623e-16 7.77817
L7.77817 0
L1.16573e-15 -7.77817
L-7.77817 -1.77636e-15
z
" id="m2c936259e7" style="stroke:#f5deb3;stroke-linejoin:miter;stroke-width:1.5;"/>
    </defs>
    <g>
     <use style="fill:#f5deb3;stroke:#f5deb3;stroke-linejoin:miter;stroke-width:1.5;" x="445.2" xlink:href="#m2c936259e7" y="16.3453125"/>
     <use style="fill:#f5deb3;stroke:#f5deb3;stroke-linejoin:miter;stroke-width:1.5;" x="484.8" xlink:href="#m2c936259e7" y="23.1888768564"/>
    </g>
   </g>
   <g id="line2d_4">
    <defs>
     <path d="
M0 1.5
C0.397805 1.5 0.77937 1.34195 1.06066 1.06066
C1.34195 0.77937 1.5 0.397805 1.5 0
C1.5 -0.397805 1.34195 -0.77937 1.06066 -1.06066
C0.77937 -1.34195 0.397805 -1.5 0 -1.5
C-0.397805 -1.5 -0.77937 -1.34195 -1.06066 -1.06066
C-1.34195 -0.77937 -1.5 -0.397805 -1.5 0
C-1.5 0.397805 -1.34195 0.77937 -1.06066 1.06066
C-0.77937 1.34195 -0.397805 1.5 0 1.5
z
" id="m68ae1779e3" style="stroke:#f5deb3;stroke-width:0.5;"/>
    </defs>
    <g>
     <use style="fill:#f5deb3;stroke:#f5deb3;stroke-width:0.5;" x="362.779669118" xlink:href="#m68ae1779e3" y="16.3453125"/>
     <use style="fill:#f5deb3;stroke:#f5deb3;stroke-width:0.5;" x="362.779669118" xlink:href="#m68ae1779e3" y="16.3453125"/>
    </g>
   </g>
   <g id="line2d_5">
    <g>
     <use style="fill:#f5deb3;stroke:#f5deb3;stroke-linejoin:miter;stroke-width:1.5;" x="85.2" xlink:href="#m2c936259e7" y="318.735365459"/>
     <use style="fill:#f5deb3;stroke:#f5deb3;stroke-linejoin:miter;stroke-width:1.5;" x="129.357214235" xlink:href="#m2c936259e7" y="239.159035733"/>
     <use style="fill:#f5deb3;stroke:#f5deb3;stroke-linejoin:miter;stroke-width:1.5;" x="178.578150046" xlink:href="#m2c936259e7" y="135.709807089"/>
     <use style="fill:#f5deb3;stroke:#f5deb3;stroke-linejoin:miter;stroke-width:1.5;" x="230.768979037" xlink:href="#m2c936259e7" y="40.2182114178"/>
     <use style="fill:#f5deb3;stroke:#f5deb3;stroke-linejoin:miter;stroke-width:1.5;" x="362.779669118" xlink:href="#m2c936259e7" y="24.3029454726"/>
     <use style="fill:#f5deb3;stroke:#f5deb3;stroke-linejoin:miter;stroke-width:1.5;" x="445.2" xlink:href="#m2c936259e7" y="16.3453125"/>
    </g>
   </g>
   <g id="line2d_6">
    <defs>
     <path d="
M0 1.5
C0.397805 1.5 0.77937 1.34195 1.06066 1.06066
C1.34195 0.77937 1.5 0.397805 1.5 0
C1.5 -0.397805 1.34195 -0.77937 1.06066 -1.06066
C0.77937 -1.34195 0.397805 -1.5 0 -1.5
C-0.397805 -1.5 -0.77937 -1.34195 -1.06066 -1.06066
C-1.34195 -0.77937 -1.5 -0.397805 -1.5 0
C-1.5 0.397805 -1.34195 0.77937 -1.06066 1.06066
C-0.77937 1.34195 -0.397805 1.5 0 1.5
z
" id="ma8fc8663ec" style="stroke:#000080;stroke-width:0.5;"/>
    </defs>
    <g>
     <use style="fill:#000080;stroke:#000080;stroke-width:0.5;" x="460.955735592" xlink:href="#ma8fc8663ec" y="32.2605784452"/>
     <use style="fill:#000080;stroke:#000080;stroke-width:0.5;" x="460.955735592" xlink:href="#ma8fc8663ec" y="32.2605784452"/>
    </g>
   </g>
   <g id="line2d_7">
    <path d="
M64.069 323.51
L85.2 323.51
L85.2 317.94
L100.193 317.94
L100.193 310.778
L111.822 310.778
L111.822 303.616
L121.324 303.616
L121.324 301.229
L129.357 301.229
L129.357 299.637
L136.316 299.637
L136.316 292.475
L142.455 292.475
L142.455 288.496
L147.945 288.496
L147.945 283.722
L152.913 283.722
L152.913 279.743
L157.447 279.743
L157.447 277.356
L161.619 277.356
L161.619 275.764
L165.481 275.764
L165.481 272.581
L169.076 272.581
L169.076 267.807
L172.44 267.807
L172.44 243.138
L175.599 243.138
L175.599 220.856
L178.578 220.856
L178.578 212.103
L181.396 212.103
L181.396 206.533
L184.069 206.533
L184.069 200.962
L186.612 200.962
L186.612 194.596
L189.036 194.596
L189.036 188.23
L191.353 188.23
L191.353 184.251
L193.571 184.251
L193.571 169.928
L195.698 169.928
L195.698 165.153
L197.742 165.153
L197.742 163.562
L199.709 163.562
L199.709 162.766
L201.604 162.766
L201.604 157.195
L205.2 157.195
L205.2 156.4
L206.909 156.4
L206.909 154.012
L210.167 154.012
L210.167 150.829
L216.13 150.829
L216.13 149.238
L218.873 149.238
L218.873 144.463
L220.193 144.463
L220.193 143.667
L221.48 143.667
L221.48 142.872
L223.962 142.872
L223.962 139.689
L229.694 139.689
L229.694 138.097
L230.769 138.097
L230.769 136.506
L231.822 136.506
L231.822 134.914
L233.866 134.914
L233.866 130.935
L237.728 130.935
L237.728 130.139
L238.65 130.139
L238.65 129.344
L241.324 129.344
L241.324 128.548
L244.687 128.548
L244.687 126.956
L247.074 126.956
L247.074 125.365
L249.357 125.365
L249.357 123.773
L250.096 123.773
L250.096 122.182
L250.825 122.182
L250.825 119.795
L254.324 119.795
L254.324 118.999
L255.661 118.999
L255.661 118.203
L258.859 118.203
L258.859 117.407
L260.688 117.407
L260.688 115.02
L264.721 115.02
L264.721 112.633
L267.945 112.633
L267.945 110.245
L268.464 110.245
L268.464 109.45
L270.982 109.45
L270.982 107.858
L274.315 107.858
L274.315 107.062
L275.68 107.062
L275.68 106.267
L276.571 106.267
L276.571 105.471
L277.011 105.471
L277.011 104.675
L277.88 104.675
L277.88 103.879
L278.734 103.879
L278.734 103.084
L280.402 103.084
L280.402 101.492
L280.811 101.492
L280.811 99.1047
L281.619 99.1047
L281.619 98.3089
L283.586 98.3089
L283.586 97.5132
L283.97 97.5132
L283.97 95.9216
L291.453 95.9216
L291.453 95.1259
L292.44 95.1259
L292.44 94.3301
L293.727 94.3301
L293.727 91.9428
L294.983 91.9428
L294.983 91.1471
L298.578 91.1471
L298.578 90.3513
L300.287 90.3513
L300.287 88.7598
L301.669 88.7598
L301.669 87.1682
L305.356 87.1682
L305.356 86.3725
L310.207 86.3725
L310.207 84.781
L313.135 84.781
L313.135 83.1894
L313.353 83.1894
L313.353 82.3937
L314.858 82.3937
L314.858 80.0064
L315.489 80.0064
L315.489 79.2106
L315.698 79.2106
L315.698 77.6191
L316.32 77.6191
L316.32 76.0276
L317.742 76.0276
L317.742 75.2318
L318.142 75.2318
L318.142 74.436
L319.322 74.436
L319.322 73.6403
L320.094 73.6403
L320.094 72.0487
L321.79 72.0487
L321.79 70.4572
L324.5 70.4572
L324.5 68.0699
L325.2 68.0699
L325.2 67.2742
L326.232 67.2742
L326.232 66.4784
L329.691 66.4784
L329.691 65.6826
L330.009 65.6826
L330.009 64.8869
L334.846 64.8869
L334.846 64.0911
L339.669 64.0911
L339.669 63.2953
L342.111 63.2953
L342.111 62.4996
L342.735 62.4996
L342.735 61.7038
L343.106 61.7038
L343.106 60.9081
L343.352 60.9081
L343.352 60.1123
L343.962 60.1123
L343.962 59.3165
L345.16 59.3165
L345.16 58.5208
L345.278 58.5208
L345.278 57.725
L348.486 57.725
L348.486 56.9292
L353.058 56.9292
L353.058 56.1335
L355.929 56.1335
L355.929 55.3377
L357.167 55.3377
L357.167 54.542
L358.559 54.542
L358.559 53.7462
L358.924 53.7462
L358.924 52.1547
L359.826 52.1547
L359.826 51.3589
L364.278 51.3589
L364.278 50.5631
L365.735 50.5631
L365.735 49.7674
L372.042 49.7674
L372.042 48.9716
L373.643 48.9716
L373.643 48.1758
L376.641 48.1758
L376.641 47.3801
L378.983 47.3801
L378.983 46.5843
L379.168 46.5843
L379.168 45.7886
L380.807 45.7886
L380.807 44.197
L380.927 44.197
L380.927 43.4013
L381.52 43.4013
L381.52 42.6055
L403.198 42.6055
L403.198 41.8097
L407.703 41.8097
L407.703 41.014
L408.13 41.014
L408.13 40.2182
L413.98 40.2182
L413.98 39.4224
L417.849 39.4224
L417.849 38.6267
L436.771 38.6267
L436.771 37.8309
L438.814 37.8309
L438.814 37.0352
L439.302 37.0352
L439.302 36.2394
L444.395 36.2394
L444.395 35.4436
L445.2 35.4436
L445.2 35.4436" style="fill:none;stroke:#000080;stroke-linecap:square;stroke-width:1.5;"/>
   </g>
   <g id="line2d_8">
    <defs>
     <path d="
M0 6
C1.59122 6 3.11748 5.3678 4.24264 4.24264
C5.3678 3.11748 6 1.59122 6 0
C6 -1.59122 5.3678 -3.11748 4.24264 -4.24264
C3.11748 -5.3678 1.59122 -6 0 -6
C-1.59122 -6 -3.11748 -5.3678 -4.24264 -4.24264
C-5.3678 -3.11748 -6 -1.59122 -6 0
C-6 1.59122 -5.3678 3.11748 -4.24264 4.24264
C-3.11748 5.3678 -1.59122 6 0 6
z
" id="mae466deef1" style="stroke:#000080;stroke-width:1.5;"/>
    </defs>
    <g>
     <use style="fill:none;stroke:#000080;stroke-width:1.5;" x="169.07640052" xlink:href="#mae466deef1" y="272.581094218"/>
     <use style="fill:none;stroke:#000080;stroke-width:1.5;" x="191.352789756" xlink:href="#mae466deef1" y="184.251368222"/>
     <use style="fill:none;stroke:#000080;stroke-width:1.5;" x="281.61865171" xlink:href="#mae466deef1" y="99.104695415"/>
     <use style="fill:none;stroke:#000080;stroke-width:1.5;" x="379.168254508" xlink:href="#mae466deef1" y="46.5843177959"/>
     <use style="fill:none;stroke:#000080;stroke-width:1.5;" x="444.394708351" xlink:href="#mae466deef1" y="35.4436316342"/>
     <use style="fill:none;stroke:#000080;stroke-width:1.5;" x="445.2" xlink:href="#mae466deef1" y="35.4436316342"/>
    </g>
   </g>
   <g id="line2d_9"/>
   <g id="line2d_10">
    <path clip-path="url(#p0cd469f449)" d="
M325.373 67.2742" style="fill:none;stroke:#000080;stroke-linecap:square;"/>
    <defs>
     <path d="
M-12 12
L12 -12
M-12 -12
L12 12" id="me286a5a777" style="stroke:#000080;stroke-width:3;"/>
    </defs>
    <g clip-path="url(#p0cd469f449)">
     <use style="fill:#000080;stroke:#000080;stroke-width:3;" x="325.373428905" xlink:href="#me286a5a777" y="67.2741635246"/>
    </g>
   </g>
   <g id="line2d_11">
    <defs>
     <path d="
M0 1.5
C0.397805 1.5 0.77937 1.34195 1.06066 1.06066
C1.34195 0.77937 1.5 0.397805 1.5 0
C1.5 -0.397805 1.34195 -0.77937 1.06066 -1.06066
C0.77937 -1.34195 0.397805 -1.5 0 -1.5
C-0.397805 -1.5 -0.77937 -1.34195 -1.06066 -1.06066
C-1.34195 -0.77937 -1.5 -0.397805 -1.5 0
C-1.5 0.397805 -1.34195 0.77937 -1.06066 1.06066
C-0.77937 1.34195 -0.397805 1.5 0 1.5
z
" id="m62d5190e8e" style="stroke:#ff00ff;stroke-width:0.5;"/>
    </defs>
    <g>
     <use style="fill:#ff00ff;stroke:#ff00ff;stroke-width:0.5;" x="524.481094601" xlink:href="#m62d5190e8e" y="32.2605784452"/>
     <use style="fill:#ff00ff;stroke:#ff00ff;stroke-width:0.5;" x="524.481094601" xlink:href="#m62d5190e8e" y="32.2605784452"/>
    </g>
   </g>
   <g id="line2d_12">
    <path d="
M64.069 321.123
L85.2 321.123
L85.2 316.348
L100.193 316.348
L100.193 302.82
L111.822 302.82
L111.822 298.841
L121.324 298.841
L121.324 290.884
L129.357 290.884
L129.357 287.701
L136.316 287.701
L136.316 278.151
L142.455 278.151
L142.455 270.99
L147.945 270.99
L147.945 265.419
L152.913 265.419
L152.913 263.828
L161.619 263.828
L161.619 263.032
L165.481 263.032
L165.481 262.236
L169.076 262.236
L169.076 259.053
L172.44 259.053
L172.44 239.955
L175.599 239.955
L175.599 229.61
L178.578 229.61
L178.578 223.244
L181.396 223.244
L181.396 213.695
L184.069 213.695
L184.069 205.737
L186.612 205.737
L186.612 200.962
L189.036 200.962
L189.036 197.779
L191.353 197.779
L191.353 192.209
L193.571 192.209
L193.571 188.23
L195.698 188.23
L195.698 184.251
L197.742 184.251
L197.742 181.068
L199.709 181.068
L199.709 179.477
L201.604 179.477
L201.604 174.702
L203.433 174.702
L203.433 173.111
L205.2 173.111
L205.2 172.315
L206.909 172.315
L206.909 171.519
L208.563 171.519
L208.563 169.928
L210.167 169.928
L210.167 166.745
L211.723 166.745
L211.723 165.153
L213.234 165.153
L213.234 164.357
L216.13 164.357
L216.13 160.378
L217.519 160.378
L217.519 152.421
L218.873 152.421
L218.873 150.829
L220.193 150.829
L220.193 150.034
L221.48 150.034
L221.48 149.238
L223.962 149.238
L223.962 146.85
L225.16 146.85
L225.16 146.055
L227.476 146.055
L227.476 145.259
L228.597 145.259
L228.597 143.667
L232.854 143.667
L232.854 140.484
L233.866 140.484
L233.866 139.689
L234.859 139.689
L234.859 138.097
L236.789 138.097
L236.789 137.301
L237.728 137.301
L237.728 135.71
L238.65 135.71
L238.65 132.527
L240.448 132.527
L240.448 131.731
L241.324 131.731
L241.324 130.935
L243.032 130.935
L243.032 130.139
L244.687 130.139
L244.687 122.182
L246.291 122.182
L246.291 121.386
L247.074 121.386
L247.074 113.428
L247.847 113.428
L247.847 111.837
L249.357 111.837
L249.357 111.041
L250.096 111.041
L250.096 107.858
L256.316 107.858
L256.316 107.062
L256.964 107.062
L256.964 106.267
L258.235 106.267
L258.235 102.288
L259.476 102.288
L259.476 101.492
L263.6 101.492
L263.6 100.696
L264.721 100.696
L264.721 99.1047
L265.272 99.1047
L265.272 98.3089
L265.818 98.3089
L265.818 97.5132
L267.422 97.5132
L267.422 95.9216
L267.945 95.9216
L267.945 95.1259
L268.464 95.1259
L268.464 94.3301
L269.486 94.3301
L269.486 93.5344
L269.989 93.5344
L269.989 92.7386
L276.571 92.7386
L276.571 91.9428
L279.575 91.9428
L279.575 90.3513
L280.402 90.3513
L280.402 89.5555
L282.808 89.5555
L282.808 87.964
L285.852 87.964
L285.852 86.3725
L288.024 86.3725
L288.024 85.5767
L288.728 85.5767
L288.728 84.781
L289.076 84.781
L289.076 83.9852
L290.448 83.9852
L290.448 83.1894
L293.087 83.1894
L293.087 81.5979
L294.983 81.5979
L294.983 80.8021
L297.11 80.8021
L297.11 80.0064
L297.702 80.0064
L297.702 79.2106
L297.996 79.2106
L297.996 78.4148
L298.578 78.4148
L298.578 77.6191
L298.867 77.6191
L298.867 76.0276
L300.844 76.0276
L300.844 74.436
L301.942 74.436
L301.942 72.0487
L302.482 72.0487
L302.482 70.4572
L305.101 70.4572
L305.101 69.6615
L309.508 69.6615
L309.508 68.0699
L309.975 68.0699
L309.975 66.4784
L312.695 66.4784
L312.695 64.8869
L320.855 64.8869
L320.855 62.4996
L322.527 62.4996
L322.527 61.7038
L329.211 61.7038
L329.211 60.9081
L333.826 60.9081
L333.826 60.1123
L334.266 60.1123
L334.266 59.3165
L335.421 59.3165
L335.421 57.725
L340.062 57.725
L340.062 56.9292
L342.611 56.9292
L342.611 56.1335
L350.234 56.1335
L350.234 55.3377
L352.854 55.3377
L352.854 54.542
L360.359 54.542
L360.359 53.7462
L369.208 53.7462
L369.208 52.9504
L381.224 52.9504
L381.224 52.1547
L381.637 52.1547
L381.637 51.3589
L381.872 51.3589
L381.872 49.7674
L392.149 49.7674
L392.149 48.9716
L393.478 48.9716
L393.478 48.1758
L396.615 48.1758
L396.615 47.3801
L396.88 47.3801
L396.88 46.5843
L397.055 46.5843
L397.055 45.7886
L404.995 45.7886
L404.995 44.9928
L408.658 44.9928
L408.658 44.197
L418.142 44.197
L418.142 43.4013
L423.729 43.4013
L423.729 42.6055
L426.238 42.6055
L426.238 41.8097
L439.496 41.8097
L439.496 41.014
L445.2 41.014
L445.2 41.014" style="fill:none;stroke:#ff00ff;stroke-linecap:square;stroke-width:1.5;"/>
   </g>
   <g id="line2d_13">
    <defs>
     <path d="
M-3.9968e-16 8.48528
L5.09117 0
L4.88498e-16 -8.48528
L-5.09117 -1.77636e-15
z
" id="mf6640c921f" style="stroke:#ff00ff;stroke-linejoin:miter;stroke-width:1.5;"/>
    </defs>
    <g>
     <use style="fill:none;stroke:#ff00ff;stroke-linejoin:miter;stroke-width:1.5;" x="64.0690489133" xlink:href="#mf6640c921f" y="342.608264377"/>
     <use style="fill:none;stroke:#ff00ff;stroke-linejoin:miter;stroke-width:1.5;" x="172.439847352" xlink:href="#mf6640c921f" y="259.053118164"/>
     <use style="fill:none;stroke:#ff00ff;stroke-linejoin:miter;stroke-width:1.5;" x="206.908852694" xlink:href="#mf6640c921f" y="171.519155466"/>
     <use style="fill:none;stroke:#ff00ff;stroke-linejoin:miter;stroke-width:1.5;" x="290.447935934" xlink:href="#mf6640c921f" y="83.1894294698"/>
     <use style="fill:none;stroke:#ff00ff;stroke-linejoin:miter;stroke-width:1.5;" x="404.994624762" xlink:href="#mf6640c921f" y="45.7885544986"/>
     <use style="fill:none;stroke:#ff00ff;stroke-linejoin:miter;stroke-width:1.5;" x="445.2" xlink:href="#mf6640c921f" y="41.0139747151"/>
    </g>
   </g>
   <g id="line2d_14"/>
   <g id="line2d_15">
    <path clip-path="url(#p0cd469f449)" d="
M325.373 61.7038" style="fill:none;stroke:#ff00ff;stroke-linecap:square;"/>
    <defs>
     <path d="
M-12 12
L12 -12
M-12 -12
L12 12" id="m86aa83dd4c" style="stroke:#ff00ff;stroke-width:3;"/>
    </defs>
    <g clip-path="url(#p0cd469f449)">
     <use style="fill:#ff00ff;stroke:#ff00ff;stroke-width:3;" x="325.373428905" xlink:href="#m86aa83dd4c" y="61.7038204438"/>
    </g>
   </g>
   <g id="line2d_16">
    <defs>
     <path d="
M0 1.5
C0.397805 1.5 0.77937 1.34195 1.06066 1.06066
C1.34195 0.77937 1.5 0.397805 1.5 0
C1.5 -0.397805 1.34195 -0.77937 1.06066 -1.06066
C0.77937 -1.34195 0.397805 -1.5 0 -1.5
C-0.397805 -1.5 -0.77937 -1.34195 -1.06066 -1.06066
C-1.34195 -0.77937 -1.5 -0.397805 -1.5 0
C-1.5 0.397805 -1.34195 0.77937 -1.06066 1.06066
C-0.77937 1.34195 -0.397805 1.5 0 1.5
z
" id="m3747452efa" style="stroke:#ffa500;stroke-width:0.5;"/>
    </defs>
    <g>
     <use style="fill:#ffa500;stroke:#ffa500;stroke-width:0.5;" x="517.68983815" xlink:href="#m3747452efa" y="25.0987087699"/>
     <use style="fill:#ffa500;stroke:#ffa500;stroke-width:0.5;" x="517.68983815" xlink:href="#m3747452efa" y="25.0987087699"/>
    </g>
   </g>
   <g id="line2d_17">
    <path d="
M64.069 332.263
L85.2 332.263
L85.2 323.51
L100.193 323.51
L100.193 313.961
L111.822 313.961
L111.822 303.616
L121.324 303.616
L121.324 297.25
L129.357 297.25
L129.357 293.271
L136.316 293.271
L136.316 285.313
L142.455 285.313
L142.455 283.722
L147.945 283.722
L147.945 276.56
L152.913 276.56
L152.913 274.968
L157.447 274.968
L157.447 273.377
L161.619 273.377
L161.619 272.581
L165.481 272.581
L165.481 270.194
L169.076 270.194
L169.076 263.828
L172.44 263.828
L172.44 246.321
L175.599 246.321
L175.599 235.18
L178.578 235.18
L178.578 226.427
L181.396 226.427
L181.396 221.652
L184.069 221.652
L184.069 213.695
L186.612 213.695
L186.612 210.512
L189.036 210.512
L189.036 205.737
L191.353 205.737
L191.353 200.167
L193.571 200.167
L193.571 198.575
L195.698 198.575
L195.698 197.779
L197.742 197.779
L197.742 189.822
L199.709 189.822
L199.709 184.251
L201.604 184.251
L201.604 179.477
L203.433 179.477
L203.433 174.702
L205.2 174.702
L205.2 173.111
L206.909 173.111
L206.909 169.928
L208.563 169.928
L208.563 167.54
L210.167 167.54
L210.167 165.949
L211.723 165.949
L211.723 154.012
L216.13 154.012
L216.13 152.421
L217.519 152.421
L217.519 149.238
L221.48 149.238
L221.48 147.646
L222.735 147.646
L222.735 141.28
L225.16 141.28
L225.16 139.689
L228.597 139.689
L228.597 138.893
L230.769 138.893
L230.769 138.097
L231.822 138.097
L231.822 134.914
L234.859 134.914
L234.859 130.935
L243.032 130.935
L243.032 130.139
L244.687 130.139
L244.687 129.344
L245.495 129.344
L245.495 127.752
L250.096 127.752
L250.096 126.956
L251.544 126.956
L251.544 125.365
L252.253 125.365
L252.253 124.569
L252.953 124.569
L252.953 119.795
L254.324 119.795
L254.324 118.999
L255.661 118.999
L255.661 116.611
L258.235 116.611
L258.235 115.02
L259.476 115.02
L259.476 114.224
L261.872 114.224
L261.872 111.837
L264.163 111.837
L264.163 110.245
L264.721 110.245
L264.721 109.45
L266.358 109.45
L266.358 108.654
L266.893 108.654
L266.893 107.858
L267.422 107.858
L267.422 107.062
L267.945 107.062
L267.945 106.267
L269.486 106.267
L269.486 105.471
L271.956 105.471
L271.956 104.675
L273.852 104.675
L273.852 103.879
L274.774 103.879
L274.774 101.492
L275.229 101.492
L275.229 100.696
L277.447 100.696
L277.447 99.9005
L277.88 99.9005
L277.88 99.1047
L278.734 99.1047
L278.734 96.7174
L279.575 96.7174
L279.575 94.3301
L282.018 94.3301
L282.018 92.7386
L289.076 92.7386
L289.076 90.3513
L289.423 90.3513
L289.423 88.7598
L292.765 88.7598
L292.765 87.1682
L294.671 87.1682
L294.671 86.3725
L295.905 86.3725
L295.905 84.781
L297.407 84.781
L297.407 83.9852
L300.006 83.9852
L300.006 82.3937
L300.287 82.3937
L300.287 81.5979
L303.016 81.5979
L303.016 80.8021
L303.545 80.8021
L303.545 80.0064
L303.808 80.0064
L303.808 79.2106
L305.101 79.2106
L305.101 77.6191
L307.838 77.6191
L307.838 75.2318
L308.08 75.2318
L308.08 74.436
L309.273 74.436
L309.273 72.8445
L310.898 72.8445
L310.898 72.0487
L312.251 72.0487
L312.251 70.4572
L313.353 70.4572
L313.353 68.8657
L316.73 68.8657
L316.73 68.0699
L317.541 68.0699
L317.541 67.2742
L318.538 67.2742
L318.538 65.6826
L318.735 65.6826
L318.735 64.8869
L318.931 64.8869
L318.931 64.0911
L322.344 64.0911
L322.344 62.4996
L322.891 62.4996
L322.891 58.5208
L323.97 58.5208
L323.97 57.725
L324.5 57.725
L324.5 56.9292
L325.026 56.9292
L325.026 56.1335
L325.719 56.1335
L325.719 55.3377
L329.371 55.3377
L329.371 54.542
L331.261 54.542
L331.261 53.7462
L332.484 53.7462
L332.484 52.9504
L349.803 52.9504
L349.803 52.1547
L353.463 52.1547
L353.463 51.3589
L355.445 51.3589
L355.445 50.5631
L356.978 50.5631
L356.978 49.7674
L357.914 49.7674
L357.914 48.1758
L358.65 48.1758
L358.65 47.3801
L359.196 47.3801
L359.196 46.5843
L359.377 46.5843
L359.377 45.7886
L361.15 45.7886
L361.15 44.9928
L376.186 44.9928
L376.186 44.197
L376.316 44.197
L376.316 43.4013
L376.899 43.4013
L376.899 42.6055
L393.805 42.6055
L393.805 41.8097
L395.905 41.8097
L395.905 41.014
L397.491 41.014
L397.491 40.2182
L405.182 40.2182
L405.182 39.4224
L407.882 39.4224
L407.988 37.0352
L417.673 37.0352
L417.673 36.2394
L418.636 36.2394
L418.694 34.6479
L425.812 34.6479
L425.812 33.8521
L431.916 33.8521
L431.916 33.0563
L432.959 33.0563
L432.959 32.2606
L433.723 32.2606
L433.723 31.4648
L439.185 31.4648
L439.205 29.0775
L445.2 29.0775
L445.2 29.0775" style="fill:none;stroke:#ffa500;stroke-linecap:square;stroke-width:1.5;"/>
   </g>
   <g id="line2d_18">
    <defs>
     <path d="
M3.67394e-16 -6
L-1.34708 -1.8541
L-5.70634 -1.8541
L-2.17963 0.708204
L-3.52671 4.8541
L-4.20996e-16 2.2918
L3.52671 4.8541
L2.17963 0.708204
L5.70634 -1.8541
L1.34708 -1.8541
z
" id="m73d367cfb6" style="stroke:#ffa500;stroke-linejoin:bevel;stroke-width:1.5;"/>
    </defs>
    <g>
     <use style="fill:none;stroke:#ffa500;stroke-linejoin:bevel;stroke-width:1.5;" x="136.316247873" xlink:href="#m73d367cfb6" y="293.270939946"/>
     <use style="fill:none;stroke:#ffa500;stroke-linejoin:bevel;stroke-width:1.5;" x="197.74225119" xlink:href="#m73d367cfb6" y="197.779344275"/>
     <use style="fill:none;stroke:#ffa500;stroke-linejoin:bevel;stroke-width:1.5;" x="245.495052231" xlink:href="#m73d367cfb6" y="129.343700711"/>
     <use style="fill:none;stroke:#ffa500;stroke-linejoin:bevel;stroke-width:1.5;" x="332.483740842" xlink:href="#m73d367cfb6" y="52.950424174"/>
     <use style="fill:none;stroke:#ffa500;stroke-linejoin:bevel;stroke-width:1.5;" x="439.204817785" xlink:href="#m73d367cfb6" y="29.0775252562"/>
     <use style="fill:none;stroke:#ffa500;stroke-linejoin:bevel;stroke-width:1.5;" x="445.2" xlink:href="#m73d367cfb6" y="29.0775252562"/>
    </g>
   </g>
   <g id="line2d_19"/>
   <g id="line2d_20">
    <path clip-path="url(#p0cd469f449)" d="
M325.373 56.1335" style="fill:none;stroke:#ffa500;stroke-linecap:square;"/>
    <defs>
     <path d="
M-12 12
L12 -12
M-12 -12
L12 12" id="m5a4593f4cb" style="stroke:#ffa500;stroke-width:3;"/>
    </defs>
    <g clip-path="url(#p0cd469f449)">
     <use style="fill:#ffa500;stroke:#ffa500;stroke-width:3;" x="325.373428905" xlink:href="#m5a4593f4cb" y="56.133477363"/>
    </g>
   </g>
   <g id="line2d_21">
    <defs>
     <path d="
M0 1.5
C0.397805 1.5 0.77937 1.34195 1.06066 1.06066
C1.34195 0.77937 1.5 0.397805 1.5 0
C1.5 -0.397805 1.34195 -0.77937 1.06066 -1.06066
C0.77937 -1.34195 0.397805 -1.5 0 -1.5
C-0.397805 -1.5 -0.77937 -1.34195 -1.06066 -1.06066
C-1.34195 -0.77937 -1.5 -0.397805 -1.5 0
C-1.5 0.397805 -1.34195 0.77937 -1.06066 1.06066
C-0.77937 1.34195 -0.397805 1.5 0 1.5
z
" id="m03dd694df9" style="stroke:#6495ed;stroke-width:0.5;"/>
    </defs>
    <g>
     <use style="fill:#6495ed;stroke:#6495ed;stroke-width:0.5;" x="509.612256673" xlink:href="#m03dd694df9" y="16.3453125"/>
     <use style="fill:#6495ed;stroke:#6495ed;stroke-width:0.5;" x="509.612256673" xlink:href="#m03dd694df9" y="16.3453125"/>
    </g>
   </g>
   <g id="line2d_22">
    <path d="
M64.069 325.897
L85.2 325.897
L85.2 321.918
L100.193 321.918
L100.193 320.327
L111.822 320.327
L111.822 309.982
L121.324 309.982
L121.324 306.003
L129.357 306.003
L129.357 304.412
L136.316 304.412
L136.316 300.433
L142.455 300.433
L142.455 295.658
L147.945 295.658
L147.945 285.313
L152.913 285.313
L152.913 280.539
L157.447 280.539
L157.447 274.968
L161.619 274.968
L161.619 270.99
L165.481 270.99
L165.481 270.194
L172.44 270.194
L172.44 260.645
L175.599 260.645
L175.599 248.708
L178.578 248.708
L178.578 246.321
L181.396 246.321
L181.396 235.18
L184.069 235.18
L184.069 230.406
L186.612 230.406
L186.612 224.835
L189.036 224.835
L189.036 206.533
L191.353 206.533
L191.353 193.801
L193.571 193.801
L193.571 190.617
L195.698 190.617
L195.698 181.864
L197.742 181.864
L197.742 169.132
L199.709 169.132
L199.709 168.336
L203.433 168.336
L203.433 167.54
L205.2 167.54
L205.2 165.153
L206.909 165.153
L206.909 157.991
L208.563 157.991
L208.563 154.012
L211.723 154.012
L211.723 150.829
L213.234 150.829
L213.234 146.055
L214.702 146.055
L214.702 144.463
L216.13 144.463
L216.13 142.872
L217.519 142.872
L217.519 139.689
L218.873 139.689
L218.873 133.323
L220.193 133.323
L220.193 126.956
L221.48 126.956
L221.48 126.161
L222.735 126.161
L222.735 124.569
L223.962 124.569
L223.962 120.59
L225.16 120.59
L225.16 118.999
L226.331 118.999
L226.331 113.428
L227.476 113.428
L227.476 107.858
L230.769 107.858
L230.769 101.492
L231.822 101.492
L231.822 95.9216
L233.866 95.9216
L233.866 91.9428
L235.833 91.9428
L235.833 86.3725
L236.789 86.3725
L236.789 83.1894
L237.728 83.1894
L237.728 80.0064
L238.65 80.0064
L238.65 76.0276
L243.032 76.0276
L243.032 72.8445
L243.866 72.8445
L243.866 71.253
L245.495 71.253
L245.495 69.6615
L247.074 69.6615
L247.074 65.6826
L247.847 65.6826
L247.847 63.2953
L250.096 63.2953
L250.096 62.4996
L250.825 62.4996
L250.825 61.7038
L255.661 61.7038
L255.661 60.9081
L257.603 60.9081
L257.603 60.1123
L258.235 60.1123
L258.235 59.3165
L258.859 59.3165
L258.859 57.725
L259.476 57.725
L259.476 56.1335
L260.085 56.1335
L260.085 55.3377
L266.358 55.3377
L266.358 53.7462
L267.945 53.7462
L267.945 52.9504
L268.977 52.9504
L268.977 51.3589
L272.437 51.3589
L272.437 48.9716
L272.913 48.9716
L272.913 47.3801
L274.774 47.3801
L274.774 46.5843
L276.128 46.5843
L276.128 44.9928
L277.011 44.9928
L277.011 43.4013
L279.575 43.4013
L279.575 41.8097
L284.352 41.8097
L284.352 39.4224
L288.377 39.4224
L288.377 38.6267
L289.767 38.6267
L289.767 37.8309
L295.292 37.8309
L295.292 36.2394
L297.996 36.2394
L297.996 35.4436
L299.724 35.4436
L299.724 33.8521
L300.844 33.8521
L300.844 31.4648
L305.101 31.4648
L305.101 30.6691
L311.353 30.6691
L311.353 29.8733
L331.106 29.8733
L331.106 29.0775
L332.484 29.0775
L332.484 28.2818
L332.635 28.2818
L332.635 27.486
L334.119 27.486
L334.119 26.6902
L334.411 26.6902
L334.411 25.8945
L334.99 25.8945
L334.99 25.0987
L341.225 25.0987
L341.225 24.3029
L368.076 24.3029
L368.076 23.5072
L387.158 23.5072
L387.158 22.7114
L413.248 22.7114
L413.248 21.1199
L429.625 21.1199
L429.625 20.3241
L442.068 20.3241
L442.068 19.5284
L445.2 19.5284
L445.2 19.5284" style="fill:none;stroke:#6495ed;stroke-linecap:square;stroke-width:1.5;"/>
   </g>
   <g id="line2d_23">
    <defs>
     <path d="
M-7.34788e-16 6
L6 -6
L-6 -6
z
" id="md7b19447de" style="stroke:#6495ed;stroke-linejoin:miter;stroke-width:1.5;"/>
    </defs>
    <g>
     <use style="fill:none;stroke:#6495ed;stroke-linejoin:miter;stroke-width:1.5;" x="64.0690489133" xlink:href="#md7b19447de" y="325.897235134"/>
     <use style="fill:none;stroke:#6495ed;stroke-linejoin:miter;stroke-width:1.5;" x="157.447198959" xlink:href="#md7b19447de" y="274.968384109"/>
     <use style="fill:none;stroke:#6495ed;stroke-linejoin:miter;stroke-width:1.5;" x="213.233614756" xlink:href="#md7b19447de" y="150.829309737"/>
     <use style="fill:none;stroke:#6495ed;stroke-linejoin:miter;stroke-width:1.5;" x="260.085263583" xlink:href="#md7b19447de" y="56.133477363"/>
     <use style="fill:none;stroke:#6495ed;stroke-linejoin:miter;stroke-width:1.5;" x="368.075933875" xlink:href="#md7b19447de" y="23.5071821753"/>
     <use style="fill:none;stroke:#6495ed;stroke-linejoin:miter;stroke-width:1.5;" x="445.2" xlink:href="#md7b19447de" y="19.528365689"/>
    </g>
   </g>
   <g id="line2d_24"/>
   <g id="line2d_25">
    <path clip-path="url(#p0cd469f449)" d="
M325.2 29.8733" style="fill:none;stroke:#6495ed;stroke-linecap:square;"/>
    <defs>
     <path d="
M-12 12
L12 -12
M-12 -12
L12 12" id="mdd39a44969" style="stroke:#6495ed;stroke-width:3;"/>
    </defs>
    <g clip-path="url(#p0cd469f449)">
     <use style="fill:#6495ed;stroke:#6495ed;stroke-width:3;" x="325.2" xlink:href="#mdd39a44969" y="29.8732885534"/>
    </g>
   </g>
   <g id="line2d_26">
    <defs>
     <path d="
M0 1.5
C0.397805 1.5 0.77937 1.34195 1.06066 1.06066
C1.34195 0.77937 1.5 0.397805 1.5 0
C1.5 -0.397805 1.34195 -0.77937 1.06066 -1.06066
C0.77937 -1.34195 0.397805 -1.5 0 -1.5
C-0.397805 -1.5 -0.77937 -1.34195 -1.06066 -1.06066
C-1.34195 -0.77937 -1.5 -0.397805 -1.5 0
C-1.5 0.397805 -1.34195 0.77937 -1.06066 1.06066
C-0.77937 1.34195 -0.397805 1.5 0 1.5
z
" id="ma07bdd5909" style="stroke:#ff0000;stroke-width:0.5;"/>
    </defs>
    <g>
     <use style="fill:#ff0000;stroke:#ff0000;stroke-width:0.5;" x="514.714567912" xlink:href="#ma07bdd5909" y="48.1758443904"/>
     <use style="fill:#ff0000;stroke:#ff0000;stroke-width:0.5;" x="514.714567912" xlink:href="#ma07bdd5909" y="48.1758443904"/>
    </g>
   </g>
   <g id="line2d_27">
    <path d="
M64.069 310.778
L85.2 310.778
L85.2 298.046
L100.193 298.046
L100.193 294.862
L111.822 294.862
L111.822 292.475
L121.324 292.475
L121.324 285.313
L129.357 285.313
L129.357 274.173
L136.316 274.173
L136.316 263.828
L142.455 263.828
L142.455 256.666
L147.945 256.666
L147.945 251.095
L152.913 251.095
L152.913 248.708
L161.619 248.708
L161.619 242.342
L165.481 242.342
L165.481 240.751
L169.076 240.751
L169.076 238.363
L172.44 238.363
L172.44 237.568
L181.396 237.568
L181.396 234.384
L184.069 234.384
L184.069 233.589
L191.353 233.589
L191.353 232.793
L195.698 232.793
L195.698 229.61
L201.604 229.61
L201.604 227.223
L203.433 227.223
L203.433 224.835
L205.2 224.835
L205.2 222.448
L206.909 222.448
L206.909 221.652
L210.167 221.652
L210.167 220.061
L211.723 220.061
L211.723 218.469
L213.234 218.469
L213.234 216.878
L214.702 216.878
L214.702 216.082
L217.519 216.082
L217.519 215.286
L218.873 215.286
L218.873 213.695
L221.48 213.695
L221.48 210.512
L222.735 210.512
L222.735 209.716
L225.16 209.716
L225.16 208.92
L227.476 208.92
L227.476 208.124
L228.597 208.124
L228.597 204.941
L229.694 204.941
L229.694 202.554
L231.822 202.554
L231.822 200.962
L232.854 200.962
L232.854 196.984
L235.833 196.984
L235.833 193.801
L240.448 193.801
L240.448 192.209
L241.324 192.209
L241.324 186.639
L243.032 186.639
L243.032 185.843
L245.495 185.843
L245.495 184.251
L246.291 184.251
L246.291 175.498
L248.607 175.498
L248.607 174.702
L249.357 174.702
L249.357 173.111
L252.953 173.111
L252.953 171.519
L256.316 171.519
L256.316 170.723
L258.235 170.723
L258.235 169.132
L259.476 169.132
L259.476 168.336
L260.085 168.336
L260.085 165.949
L265.272 165.949
L265.272 163.562
L265.818 163.562
L265.818 160.378
L267.422 160.378
L267.422 158.787
L269.486 158.787
L269.486 155.604
L271.956 155.604
L271.956 154.012
L272.437 154.012
L272.437 153.217
L274.315 153.217
L274.315 150.034
L275.229 150.034
L275.229 149.238
L277.011 149.238
L277.011 145.259
L278.309 145.259
L278.309 144.463
L279.156 144.463
L279.156 143.667
L279.99 143.667
L279.99 140.484
L280.402 140.484
L280.402 139.689
L282.808 139.689
L282.808 138.893
L283.586 138.893
L283.586 137.301
L284.352 137.301
L284.352 136.506
L285.107 136.506
L285.107 135.71
L285.852 135.71
L285.852 134.914
L287.31 134.914
L287.31 134.118
L288.024 134.118
L288.024 132.527
L288.377 132.527
L288.377 126.161
L292.44 126.161
L292.44 125.365
L292.765 125.365
L292.765 124.569
L293.408 124.569
L293.408 123.773
L293.727 123.773
L293.727 122.182
L297.702 122.182
L297.702 119.795
L298.578 119.795
L298.578 118.999
L299.44 118.999
L299.44 118.203
L301.669 118.203
L301.669 116.611
L302.482 116.611
L302.482 115.816
L302.75 115.816
L302.75 114.224
L306.363 114.224
L306.363 113.428
L306.612 113.428
L306.612 111.837
L307.351 111.837
L307.351 110.245
L310.669 110.245
L310.669 109.45
L311.126 109.45
L311.126 108.654
L313.571 108.654
L313.571 107.858
L313.787 107.858
L313.787 107.062
L315.28 107.062
L315.28 106.267
L315.489 106.267
L315.489 105.471
L316.114 105.471
L316.114 104.675
L316.32 104.675
L316.32 103.879
L317.137 103.879
L317.137 101.492
L317.742 101.492
L317.742 99.9005
L318.34 99.9005
L318.34 97.5132
L319.127 97.5132
L319.127 94.3301
L320.285 94.3301
L320.285 93.5344
L320.665 93.5344
L320.665 91.9428
L322.527 91.9428
L322.527 90.3513
L322.891 90.3513
L322.891 89.5555
L324.851 89.5555
L324.851 88.7598
L325.373 88.7598
L325.373 87.964
L339.669 87.964
L339.669 87.1682
L342.611 87.1682
L342.611 86.3725
L343.106 86.3725
L343.106 85.5767
L345.514 85.5767
L345.514 84.781
L352.854 84.781
L352.854 83.9852
L353.463 83.9852
L353.463 83.1894
L355.833 83.1894
L355.833 82.3937
L357.448 82.3937
L357.448 80.8021
L360.004 80.8021
L360.004 80.0064
L360.182 80.0064
L360.182 79.2106
L360.975 79.2106
L360.975 78.4148
L361.15 78.4148
L361.15 76.8233
L361.497 76.8233
L361.497 76.0276
L368.984 76.0276
L368.984 75.2318
L378.548 75.2318
L378.548 74.436
L381.579 74.436
L381.579 73.6403
L381.696 73.6403
L381.696 72.8445
L382.222 72.8445
L382.222 72.0487
L382.57 72.0487
L382.57 70.4572
L389.131 70.4572
L389.131 69.6615
L393.384 69.6615
L393.384 68.8657
L395.68 68.8657
L395.68 68.0699
L397.534 68.0699
L397.534 67.2742
L403.508 67.2742
L403.508 66.4784
L408.937 66.4784
L408.937 65.6826
L409.146 65.6826
L409.146 64.8869
L413.98 64.8869
L413.98 64.0911
L416.421 64.0911
L416.421 63.2953
L417.407 63.2953
L417.407 62.4996
L425.61 62.4996
L425.61 61.7038
L426.288 61.7038
L426.288 60.9081
L439.748 60.9081
L439.748 60.1123
L445.2 60.1123
L445.2 60.1123" style="fill:none;stroke:#ff0000;stroke-linecap:square;stroke-width:1.5;"/>
   </g>
   <g id="line2d_28">
    <defs>
     <path d="
M3.67394e-16 -6
L-5.19615 -3
L-5.19615 3
L-1.10218e-15 6
L5.19615 3
L5.19615 -3
z
" id="m98e028c2bf" style="stroke:#ff0000;stroke-linejoin:miter;stroke-width:1.5;"/>
    </defs>
    <g>
     <use style="fill:none;stroke:#ff0000;stroke-linejoin:miter;stroke-width:1.5;" x="64.0690489133" xlink:href="#m98e028c2bf" y="310.777732486"/>
     <use style="fill:none;stroke:#ff0000;stroke-linejoin:miter;stroke-width:1.5;" x="191.352789756" xlink:href="#m98e028c2bf" y="232.792929355"/>
     <use style="fill:none;stroke:#ff0000;stroke-linejoin:miter;stroke-width:1.5;" x="243.032452173" xlink:href="#m98e028c2bf" y="186.638658114"/>
     <use style="fill:none;stroke:#ff0000;stroke-linejoin:miter;stroke-width:1.5;" x="319.126800797" xlink:href="#m98e028c2bf" y="97.5131688205"/>
     <use style="fill:none;stroke:#ff0000;stroke-linejoin:miter;stroke-width:1.5;" x="426.288143321" xlink:href="#m98e028c2bf" y="61.7038204438"/>
     <use style="fill:none;stroke:#ff0000;stroke-linejoin:miter;stroke-width:1.5;" x="445.2" xlink:href="#m98e028c2bf" y="60.1122938493"/>
    </g>
   </g>
   <g id="line2d_29"/>
   <g id="line2d_30">
    <path clip-path="url(#p0cd469f449)" d="
M325.2 88.7598" style="fill:none;stroke:#ff0000;stroke-linecap:square;"/>
    <defs>
     <path d="
M-12 12
L12 -12
M-12 -12
L12 12" id="m4e2b024d89" style="stroke:#ff0000;stroke-width:3;"/>
    </defs>
    <g clip-path="url(#p0cd469f449)">
     <use style="fill:#ff0000;stroke:#ff0000;stroke-width:3;" x="325.2" xlink:href="#m4e2b024d89" y="88.7597725507"/>
    </g>
   </g>
   <g id="line2d_31">
    <path d="
M445.2 60.1123
L484.8 351.68" style="fill:none;stroke:#ff0000;stroke-linecap:square;stroke-width:1.5;"/>
    <g>
     <use style="fill:none;stroke:#ff0000;stroke-linejoin:miter;stroke-width:1.5;" x="445.2" xlink:href="#m98e028c2bf" y="60.1122938493"/>
     <use style="fill:none;stroke:#ff0000;stroke-linejoin:miter;stroke-width:1.5;" x="484.8" xlink:href="#m98e028c2bf" y="351.679965965"/>
    </g>
   </g>
   <g id="line2d_32">
    <path d="
M445.2 41.014
L484.8 285.982" style="fill:none;stroke:#ff00ff;stroke-linecap:square;stroke-width:1.5;"/>
    <g>
     <use style="fill:none;stroke:#ff00ff;stroke-linejoin:miter;stroke-width:1.5;" x="445.2" xlink:href="#mf6640c921f" y="41.0139747151"/>
     <use style="fill:none;stroke:#ff00ff;stroke-linejoin:miter;stroke-width:1.5;" x="484.8" xlink:href="#mf6640c921f" y="285.981748144"/>
    </g>
   </g>
   <g id="line2d_33">
    <path d="
M445.2 35.4436
L484.8 220.284" style="fill:none;stroke:#000080;stroke-linecap:square;stroke-width:1.5;"/>
    <g>
     <use style="fill:none;stroke:#000080;stroke-width:1.5;" x="445.2" xlink:href="#mae466deef1" y="35.4436316342"/>
     <use style="fill:none;stroke:#000080;stroke-width:1.5;" x="484.8" xlink:href="#mae466deef1" y="220.283530322"/>
    </g>
   </g>
   <g id="line2d_34">
    <path d="
M445.2 29.0775
L484.8 154.585" style="fill:none;stroke:#ffa500;stroke-linecap:square;stroke-width:1.5;"/>
    <g>
     <use style="fill:none;stroke:#ffa500;stroke-linejoin:bevel;stroke-width:1.5;" x="445.2" xlink:href="#m73d367cfb6" y="29.0775252562"/>
     <use style="fill:none;stroke:#ffa500;stroke-linejoin:bevel;stroke-width:1.5;" x="484.8" xlink:href="#m73d367cfb6" y="154.5853125"/>
    </g>
   </g>
   <g id="line2d_35">
    <path d="
M445.2 19.5284
L484.8 88.8871" style="fill:none;stroke:#6495ed;stroke-linecap:square;stroke-width:1.5;"/>
    <g>
     <use style="fill:none;stroke:#6495ed;stroke-linejoin:miter;stroke-width:1.5;" x="445.2" xlink:href="#md7b19447de" y="19.528365689"/>
     <use style="fill:none;stroke:#6495ed;stroke-linejoin:miter;stroke-width:1.5;" x="484.8" xlink:href="#md7b19447de" y="88.8870946782"/>
    </g>
   </g>
   <g id="line2d_36">
    <path d="
M445.2 358.524
L445.2 16.3453" style="fill:none;stroke:#000000;stroke-linecap:square;"/>
   </g>
   <g id="matplotlib.axis_1">
    <g id="xtick_1">
     <g id="line2d_37">
      <path clip-path="url(#p0cd469f449)" d="
M85.2 358.524
L85.2 12.9235" style="fill:none;stroke:#000000;stroke-dasharray:1.000000,3.000000;stroke-dashoffset:0.0;stroke-width:0.5;"/>
     </g>
     <g id="line2d_38">
      <defs>
       <path d="
M0 0
L0 -4" id="m93b0483c22" style="stroke:#000000;stroke-width:0.5;"/>
      </defs>
      <g>
       <use style="stroke:#000000;stroke-width:0.5;" x="85.2" xlink:href="#m93b0483c22" y="358.523530322"/>
      </g>
     </g>
     <g id="line2d_39">
      <defs>
       <path d="
M0 0
L0 4" id="m741efc42ff" style="stroke:#000000;stroke-width:0.5;"/>
      </defs>
      <g>
       <use style="stroke:#000000;stroke-width:0.5;" x="85.2" xlink:href="#m741efc42ff" y="12.9235303218"/>
      </g>
     </g>
     <g id="text_1">
      <!-- 0 -->
      <defs>
       <path d="
M4.15625 35.2969
Q4.15625 48 6.76562 55.7344
Q9.375 63.4844 14.5156 67.6719
Q19.6719 71.875 27.4844 71.875
Q33.25 71.875 37.5938 69.5469
Q41.9375 67.2344 44.7656 62.8594
Q47.6094 58.5 49.2188 52.2188
Q50.8281 45.9531 50.8281 35.2969
Q50.8281 22.7031 48.2344 14.9688
Q45.6562 7.23438 40.5 3
Q35.3594 -1.21875 27.4844 -1.21875
Q17.1406 -1.21875 11.2344 6.20312
Q4.15625 15.1406 4.15625 35.2969
M13.1875 35.2969
Q13.1875 17.6719 17.3125 11.8281
Q21.4375 6 27.4844 6
Q33.5469 6 37.6719 11.8594
Q41.7969 17.7188 41.7969 35.2969
Q41.7969 52.9844 37.6719 58.7812
Q33.5469 64.5938 27.3906 64.5938
Q21.3438 64.5938 17.7188 59.4688
Q13.1875 52.9375 13.1875 35.2969" id="ArialMT-30"/>
      </defs>
      <g transform="translate(80.5328125 376.839155322)scale(0.2 -0.2)">
       <use xlink:href="#ArialMT-30"/>
      </g>
     </g>
    </g>
    <g id="xtick_2">
     <g id="line2d_40">
      <path clip-path="url(#p0cd469f449)" d="
M205.2 358.524
L205.2 12.9235" style="fill:none;stroke:#000000;stroke-dasharray:1.000000,3.000000;stroke-dashoffset:0.0;stroke-width:0.5;"/>
     </g>
     <g id="line2d_41">
      <g>
       <use style="stroke:#000000;stroke-width:0.5;" x="205.2" xlink:href="#m93b0483c22" y="358.523530322"/>
      </g>
     </g>
     <g id="line2d_42">
      <g>
       <use style="stroke:#000000;stroke-width:0.5;" x="205.2" xlink:href="#m741efc42ff" y="12.9235303218"/>
      </g>
     </g>
     <g id="text_2">
      <!-- 1 -->
      <defs>
       <path d="
M37.25 0
L28.4688 0
L28.4688 56
Q25.2969 52.9844 20.1406 49.9531
Q14.9844 46.9219 10.8906 45.4062
L10.8906 53.9062
Q18.2656 57.375 23.7812 62.2969
Q29.2969 67.2344 31.5938 71.875
L37.25 71.875
z
" id="ArialMT-31"/>
      </defs>
      <g transform="translate(202.5640625 376.839155322)scale(0.2 -0.2)">
       <use xlink:href="#ArialMT-31"/>
      </g>
     </g>
    </g>
    <g id="xtick_3">
     <g id="line2d_43">
      <path clip-path="url(#p0cd469f449)" d="
M325.2 358.524
L325.2 12.9235" style="fill:none;stroke:#000000;stroke-dasharray:1.000000,3.000000;stroke-dashoffset:0.0;stroke-width:0.5;"/>
     </g>
     <g id="line2d_44">
      <g>
       <use style="stroke:#000000;stroke-width:0.5;" x="325.2" xlink:href="#m93b0483c22" y="358.523530322"/>
      </g>
     </g>
     <g id="line2d_45">
      <g>
       <use style="stroke:#000000;stroke-width:0.5;" x="325.2" xlink:href="#m741efc42ff" y="12.9235303218"/>
      </g>
     </g>
     <g id="text_3">
      <!-- 2 -->
      <defs>
       <path d="
M50.3438 8.45312
L50.3438 0
L3.03125 0
Q2.9375 3.17188 4.04688 6.10938
Q5.85938 10.9375 9.82812 15.625
Q13.8125 20.3125 21.3438 26.4688
Q33.0156 36.0312 37.1094 41.625
Q41.2188 47.2188 41.2188 52.2031
Q41.2188 57.4219 37.4688 61
Q33.7344 64.5938 27.7344 64.5938
Q21.3906 64.5938 17.5781 60.7812
Q13.7656 56.9844 13.7188 50.25
L4.6875 51.1719
Q5.60938 61.2812 11.6562 66.5781
Q17.7188 71.875 27.9375 71.875
Q38.2344 71.875 44.2344 66.1562
Q50.25 60.4531 50.25 52
Q50.25 47.7031 48.4844 43.5469
Q46.7344 39.4062 42.6562 34.8125
Q38.5781 30.2188 29.1094 22.2188
Q21.1875 15.5781 18.9375 13.2031
Q16.7031 10.8438 15.2344 8.45312
z
" id="ArialMT-32"/>
      </defs>
      <g transform="translate(320.459375 376.839155322)scale(0.2 -0.2)">
       <use xlink:href="#ArialMT-32"/>
      </g>
     </g>
    </g>
    <g id="xtick_4">
     <g id="line2d_46">
      <path clip-path="url(#p0cd469f449)" d="
M445.2 358.524
L445.2 12.9235" style="fill:none;stroke:#000000;stroke-dasharray:1.000000,3.000000;stroke-dashoffset:0.0;stroke-width:0.5;"/>
     </g>
     <g id="line2d_47">
      <g>
       <use style="stroke:#000000;stroke-width:0.5;" x="445.2" xlink:href="#m93b0483c22" y="358.523530322"/>
      </g>
     </g>
     <g id="line2d_48">
      <g>
       <use style="stroke:#000000;stroke-width:0.5;" x="445.2" xlink:href="#m741efc42ff" y="12.9235303218"/>
      </g>
     </g>
     <g id="text_4">
      <!-- 3 -->
      <defs>
       <path d="
M4.20312 18.8906
L12.9844 20.0625
Q14.5 12.5938 18.1406 9.29688
Q21.7812 6 27 6
Q33.2031 6 37.4688 10.2969
Q41.75 14.5938 41.75 20.9531
Q41.75 27 37.7969 30.9219
Q33.8438 34.8594 27.7344 34.8594
Q25.25 34.8594 21.5312 33.8906
L22.5156 41.6094
Q23.3906 41.5 23.9219 41.5
Q29.5469 41.5 34.0312 44.4219
Q38.5312 47.3594 38.5312 53.4688
Q38.5312 58.2969 35.25 61.4688
Q31.9844 64.6562 26.8125 64.6562
Q21.6875 64.6562 18.2656 61.4219
Q14.8438 58.2031 13.875 51.7656
L5.07812 53.3281
Q6.6875 62.1562 12.3906 67.0156
Q18.1094 71.875 26.6094 71.875
Q32.4688 71.875 37.3906 69.3594
Q42.3281 66.8438 44.9375 62.5
Q47.5625 58.1562 47.5625 53.2656
Q47.5625 48.6406 45.0625 44.8281
Q42.5781 41.0156 37.7031 38.7656
Q44.0469 37.3125 47.5625 32.6875
Q51.0781 28.0781 51.0781 21.1406
Q51.0781 11.7656 44.2344 5.25
Q37.4062 -1.26562 26.9531 -1.26562
Q17.5312 -1.26562 11.2969 4.34375
Q5.07812 9.96875 4.20312 18.8906" id="ArialMT-33"/>
      </defs>
      <g transform="translate(440.5125 376.839155322)scale(0.2 -0.2)">
       <use xlink:href="#ArialMT-33"/>
      </g>
     </g>
    </g>
    <g id="xtick_5">
     <g id="line2d_49">
      <defs>
       <path d="
M0 0
L0 -2" id="m177f7580d0" style="stroke:#000000;stroke-width:0.5;"/>
      </defs>
      <g>
       <use style="stroke:#000000;stroke-width:0.5;" x="121.32359948" xlink:href="#m177f7580d0" y="358.523530322"/>
      </g>
     </g>
     <g id="line2d_50">
      <defs>
       <path d="
M0 0
L0 2" id="m5284c7e2a0" style="stroke:#000000;stroke-width:0.5;"/>
      </defs>
      <g>
       <use style="stroke:#000000;stroke-width:0.5;" x="121.32359948" xlink:href="#m5284c7e2a0" y="12.9235303218"/>
      </g>
     </g>
    </g>
    <g id="xtick_6">
     <g id="line2d_51">
      <g>
       <use style="stroke:#000000;stroke-width:0.5;" x="142.454550566" xlink:href="#m177f7580d0" y="358.523530322"/>
      </g>
     </g>
     <g id="line2d_52">
      <g>
       <use style="stroke:#000000;stroke-width:0.5;" x="142.454550566" xlink:href="#m5284c7e2a0" y="12.9235303218"/>
      </g>
     </g>
    </g>
    <g id="xtick_7">
     <g id="line2d_53">
      <g>
       <use style="stroke:#000000;stroke-width:0.5;" x="157.447198959" xlink:href="#m177f7580d0" y="358.523530322"/>
      </g>
     </g>
     <g id="line2d_54">
      <g>
       <use style="stroke:#000000;stroke-width:0.5;" x="157.447198959" xlink:href="#m5284c7e2a0" y="12.9235303218"/>
      </g>
     </g>
    </g>
    <g id="xtick_8">
     <g id="line2d_55">
      <g>
       <use style="stroke:#000000;stroke-width:0.5;" x="169.07640052" xlink:href="#m177f7580d0" y="358.523530322"/>
      </g>
     </g>
     <g id="line2d_56">
      <g>
       <use style="stroke:#000000;stroke-width:0.5;" x="169.07640052" xlink:href="#m5284c7e2a0" y="12.9235303218"/>
      </g>
     </g>
    </g>
    <g id="xtick_9">
     <g id="line2d_57">
      <g>
       <use style="stroke:#000000;stroke-width:0.5;" x="178.578150046" xlink:href="#m177f7580d0" y="358.523530322"/>
      </g>
     </g>
     <g id="line2d_58">
      <g>
       <use style="stroke:#000000;stroke-width:0.5;" x="178.578150046" xlink:href="#m5284c7e2a0" y="12.9235303218"/>
      </g>
     </g>
    </g>
    <g id="xtick_10">
     <g id="line2d_59">
      <g>
       <use style="stroke:#000000;stroke-width:0.5;" x="186.611764802" xlink:href="#m177f7580d0" y="358.523530322"/>
      </g>
     </g>
     <g id="line2d_60">
      <g>
       <use style="stroke:#000000;stroke-width:0.5;" x="186.611764802" xlink:href="#m5284c7e2a0" y="12.9235303218"/>
      </g>
     </g>
    </g>
    <g id="xtick_11">
     <g id="line2d_61">
      <g>
       <use style="stroke:#000000;stroke-width:0.5;" x="193.570798439" xlink:href="#m177f7580d0" y="358.523530322"/>
      </g>
     </g>
     <g id="line2d_62">
      <g>
       <use style="stroke:#000000;stroke-width:0.5;" x="193.570798439" xlink:href="#m5284c7e2a0" y="12.9235303218"/>
      </g>
     </g>
    </g>
    <g id="xtick_12">
     <g id="line2d_63">
      <g>
       <use style="stroke:#000000;stroke-width:0.5;" x="199.709101133" xlink:href="#m177f7580d0" y="358.523530322"/>
      </g>
     </g>
     <g id="line2d_64">
      <g>
       <use style="stroke:#000000;stroke-width:0.5;" x="199.709101133" xlink:href="#m5284c7e2a0" y="12.9235303218"/>
      </g>
     </g>
    </g>
    <g id="xtick_13">
     <g id="line2d_65">
      <g>
       <use style="stroke:#000000;stroke-width:0.5;" x="241.32359948" xlink:href="#m177f7580d0" y="358.523530322"/>
      </g>
     </g>
     <g id="line2d_66">
      <g>
       <use style="stroke:#000000;stroke-width:0.5;" x="241.32359948" xlink:href="#m5284c7e2a0" y="12.9235303218"/>
      </g>
     </g>
    </g>
    <g id="xtick_14">
     <g id="line2d_67">
      <g>
       <use style="stroke:#000000;stroke-width:0.5;" x="262.454550566" xlink:href="#m177f7580d0" y="358.523530322"/>
      </g>
     </g>
     <g id="line2d_68">
      <g>
       <use style="stroke:#000000;stroke-width:0.5;" x="262.454550566" xlink:href="#m5284c7e2a0" y="12.9235303218"/>
      </g>
     </g>
    </g>
    <g id="xtick_15">
     <g id="line2d_69">
      <g>
       <use style="stroke:#000000;stroke-width:0.5;" x="277.447198959" xlink:href="#m177f7580d0" y="358.523530322"/>
      </g>
     </g>
     <g id="line2d_70">
      <g>
       <use style="stroke:#000000;stroke-width:0.5;" x="277.447198959" xlink:href="#m5284c7e2a0" y="12.9235303218"/>
      </g>
     </g>
    </g>
    <g id="xtick_16">
     <g id="line2d_71">
      <g>
       <use style="stroke:#000000;stroke-width:0.5;" x="289.07640052" xlink:href="#m177f7580d0" y="358.523530322"/>
      </g>
     </g>
     <g id="line2d_72">
      <g>
       <use style="stroke:#000000;stroke-width:0.5;" x="289.07640052" xlink:href="#m5284c7e2a0" y="12.9235303218"/>
      </g>
     </g>
    </g>
    <g id="xtick_17">
     <g id="line2d_73">
      <g>
       <use style="stroke:#000000;stroke-width:0.5;" x="298.578150046" xlink:href="#m177f7580d0" y="358.523530322"/>
      </g>
     </g>
     <g id="line2d_74">
      <g>
       <use style="stroke:#000000;stroke-width:0.5;" x="298.578150046" xlink:href="#m5284c7e2a0" y="12.9235303218"/>
      </g>
     </g>
    </g>
    <g id="xtick_18">
     <g id="line2d_75">
      <g>
       <use style="stroke:#000000;stroke-width:0.5;" x="306.611764802" xlink:href="#m177f7580d0" y="358.523530322"/>
      </g>
     </g>
     <g id="line2d_76">
      <g>
       <use style="stroke:#000000;stroke-width:0.5;" x="306.611764802" xlink:href="#m5284c7e2a0" y="12.9235303218"/>
      </g>
     </g>
    </g>
    <g id="xtick_19">
     <g id="line2d_77">
      <g>
       <use style="stroke:#000000;stroke-width:0.5;" x="313.570798439" xlink:href="#m177f7580d0" y="358.523530322"/>
      </g>
     </g>
     <g id="line2d_78">
      <g>
       <use style="stroke:#000000;stroke-width:0.5;" x="313.570798439" xlink:href="#m5284c7e2a0" y="12.9235303218"/>
      </g>
     </g>
    </g>
    <g id="xtick_20">
     <g id="line2d_79">
      <g>
       <use style="stroke:#000000;stroke-width:0.5;" x="319.709101133" xlink:href="#m177f7580d0" y="358.523530322"/>
      </g>
     </g>
     <g id="line2d_80">
      <g>
       <use style="stroke:#000000;stroke-width:0.5;" x="319.709101133" xlink:href="#m5284c7e2a0" y="12.9235303218"/>
      </g>
     </g>
    </g>
    <g id="xtick_21">
     <g id="line2d_81">
      <g>
       <use style="stroke:#000000;stroke-width:0.5;" x="361.32359948" xlink:href="#m177f7580d0" y="358.523530322"/>
      </g>
     </g>
     <g id="line2d_82">
      <g>
       <use style="stroke:#000000;stroke-width:0.5;" x="361.32359948" xlink:href="#m5284c7e2a0" y="12.9235303218"/>
      </g>
     </g>
    </g>
    <g id="xtick_22">
     <g id="line2d_83">
      <g>
       <use style="stroke:#000000;stroke-width:0.5;" x="382.454550566" xlink:href="#m177f7580d0" y="358.523530322"/>
      </g>
     </g>
     <g id="line2d_84">
      <g>
       <use style="stroke:#000000;stroke-width:0.5;" x="382.454550566" xlink:href="#m5284c7e2a0" y="12.9235303218"/>
      </g>
     </g>
    </g>
    <g id="xtick_23">
     <g id="line2d_85">
      <g>
       <use style="stroke:#000000;stroke-width:0.5;" x="397.447198959" xlink:href="#m177f7580d0" y="358.523530322"/>
      </g>
     </g>
     <g id="line2d_86">
      <g>
       <use style="stroke:#000000;stroke-width:0.5;" x="397.447198959" xlink:href="#m5284c7e2a0" y="12.9235303218"/>
      </g>
     </g>
    </g>
    <g id="xtick_24">
     <g id="line2d_87">
      <g>
       <use style="stroke:#000000;stroke-width:0.5;" x="409.07640052" xlink:href="#m177f7580d0" y="358.523530322"/>
      </g>
     </g>
     <g id="line2d_88">
      <g>
       <use style="stroke:#000000;stroke-width:0.5;" x="409.07640052" xlink:href="#m5284c7e2a0" y="12.9235303218"/>
      </g>
     </g>
    </g>
    <g id="xtick_25">
     <g id="line2d_89">
      <g>
       <use style="stroke:#000000;stroke-width:0.5;" x="418.578150046" xlink:href="#m177f7580d0" y="358.523530322"/>
      </g>
     </g>
     <g id="line2d_90">
      <g>
       <use style="stroke:#000000;stroke-width:0.5;" x="418.578150046" xlink:href="#m5284c7e2a0" y="12.9235303218"/>
      </g>
     </g>
    </g>
    <g id="xtick_26">
     <g id="line2d_91">
      <g>
       <use style="stroke:#000000;stroke-width:0.5;" x="426.611764802" xlink:href="#m177f7580d0" y="358.523530322"/>
      </g>
     </g>
     <g id="line2d_92">
      <g>
       <use style="stroke:#000000;stroke-width:0.5;" x="426.611764802" xlink:href="#m5284c7e2a0" y="12.9235303218"/>
      </g>
     </g>
    </g>
    <g id="xtick_27">
     <g id="line2d_93">
      <g>
       <use style="stroke:#000000;stroke-width:0.5;" x="433.570798439" xlink:href="#m177f7580d0" y="358.523530322"/>
      </g>
     </g>
     <g id="line2d_94">
      <g>
       <use style="stroke:#000000;stroke-width:0.5;" x="433.570798439" xlink:href="#m5284c7e2a0" y="12.9235303218"/>
      </g>
     </g>
    </g>
    <g id="xtick_28">
     <g id="line2d_95">
      <g>
       <use style="stroke:#000000;stroke-width:0.5;" x="439.709101133" xlink:href="#m177f7580d0" y="358.523530322"/>
      </g>
     </g>
     <g id="line2d_96">
      <g>
       <use style="stroke:#000000;stroke-width:0.5;" x="439.709101133" xlink:href="#m5284c7e2a0" y="12.9235303218"/>
      </g>
     </g>
    </g>
    <g id="xtick_29">
     <g id="line2d_97">
      <g>
       <use style="stroke:#000000;stroke-width:0.5;" x="481.32359948" xlink:href="#m177f7580d0" y="358.523530322"/>
      </g>
     </g>
     <g id="line2d_98">
      <g>
       <use style="stroke:#000000;stroke-width:0.5;" x="481.32359948" xlink:href="#m5284c7e2a0" y="12.9235303218"/>
      </g>
     </g>
    </g>
    <g id="xtick_30">
     <g id="line2d_99">
      <g>
       <use style="stroke:#000000;stroke-width:0.5;" x="502.454550566" xlink:href="#m177f7580d0" y="358.523530322"/>
      </g>
     </g>
     <g id="line2d_100">
      <g>
       <use style="stroke:#000000;stroke-width:0.5;" x="502.454550566" xlink:href="#m5284c7e2a0" y="12.9235303218"/>
      </g>
     </g>
    </g>
    <g id="xtick_31">
     <g id="line2d_101">
      <g>
       <use style="stroke:#000000;stroke-width:0.5;" x="517.447198959" xlink:href="#m177f7580d0" y="358.523530322"/>
      </g>
     </g>
     <g id="line2d_102">
      <g>
       <use style="stroke:#000000;stroke-width:0.5;" x="517.447198959" xlink:href="#m5284c7e2a0" y="12.9235303218"/>
      </g>
     </g>
    </g>
    <g id="xtick_32">
     <g id="line2d_103">
      <g>
       <use style="stroke:#000000;stroke-width:0.5;" x="529.07640052" xlink:href="#m177f7580d0" y="358.523530322"/>
      </g>
     </g>
     <g id="line2d_104">
      <g>
       <use style="stroke:#000000;stroke-width:0.5;" x="529.07640052" xlink:href="#m5284c7e2a0" y="12.9235303218"/>
      </g>
     </g>
    </g>
    <g id="text_5">
     <!-- log10 of (# f-evals / dimension) -->
     <defs>
      <path d="
M12.3594 -21.0469
L6.0625 -21.0469
Q20.6562 2.39062 20.6562 25.875
Q20.6562 35.0625 18.5625 44.0938
Q16.8906 51.4219 13.9219 58.1562
Q12.0156 62.5469 6.0625 72.7969
L12.3594 72.7969
Q21.5312 60.5469 25.9219 48.1875
Q29.6875 37.5469 29.6875 25.9219
Q29.6875 12.75 24.625 0.4375
Q19.5781 -11.8594 12.3594 -21.0469" id="ArialMT-29"/>
      <path d="
M40.4375 6.39062
Q35.5469 2.25 31.0312 0.53125
Q26.5156 -1.17188 21.3438 -1.17188
Q12.7969 -1.17188 8.20312 3
Q3.60938 7.17188 3.60938 13.6719
Q3.60938 17.4844 5.34375 20.625
Q7.07812 23.7812 9.89062 25.6875
Q12.7031 27.5938 16.2188 28.5625
Q18.7969 29.25 24.0312 29.8906
Q34.6719 31.1562 39.7031 32.9062
Q39.75 34.7188 39.75 35.2031
Q39.75 40.5781 37.25 42.7812
Q33.8906 45.75 27.25 45.75
Q21.0469 45.75 18.0938 43.5781
Q15.1406 41.4062 13.7188 35.8906
L5.125 37.0625
Q6.29688 42.5781 8.98438 45.9688
Q11.6719 49.3594 16.75 51.1875
Q21.8281 53.0312 28.5156 53.0312
Q35.1562 53.0312 39.2969 51.4688
Q43.4531 49.9062 45.4062 47.5312
Q47.3594 45.1719 48.1406 41.5469
Q48.5781 39.3125 48.5781 33.4531
L48.5781 21.7344
Q48.5781 9.46875 49.1406 6.21875
Q49.7031 2.98438 51.375 0
L42.1875 0
Q40.8281 2.73438 40.4375 6.39062
M39.7031 26.0312
Q34.9062 24.0781 25.3438 22.7031
Q19.9219 21.9219 17.6719 20.9375
Q15.4375 19.9688 14.2031 18.0938
Q12.9844 16.2188 12.9844 13.9219
Q12.9844 10.4062 15.6406 8.0625
Q18.3125 5.71875 23.4375 5.71875
Q28.5156 5.71875 32.4688 7.9375
Q36.4219 10.1562 38.2812 14.0156
Q39.7031 17 39.7031 22.7969
z
" id="ArialMT-61"/>
      <path d="
M4.98438 -4.29688
L13.5312 -5.5625
Q14.0625 -9.51562 16.5 -11.3281
Q19.7812 -13.7656 25.4375 -13.7656
Q31.5469 -13.7656 34.8594 -11.3281
Q38.1875 -8.89062 39.3594 -4.5
Q40.0469 -1.8125 39.9844 6.78125
Q34.2344 0 25.6406 0
Q14.9375 0 9.07812 7.71875
Q3.21875 15.4375 3.21875 26.2188
Q3.21875 33.6406 5.90625 39.9062
Q8.59375 46.1875 13.6875 49.6094
Q18.7969 53.0312 25.6875 53.0312
Q34.8594 53.0312 40.8281 45.6094
L40.8281 51.8594
L48.9219 51.8594
L48.9219 7.03125
Q48.9219 -5.07812 46.4531 -10.125
Q44 -15.1875 38.6406 -18.1094
Q33.2969 -21.0469 25.4844 -21.0469
Q16.2188 -21.0469 10.5 -16.875
Q4.78125 -12.7031 4.98438 -4.29688
M12.25 26.8594
Q12.25 16.6562 16.2969 11.9688
Q20.3594 7.28125 26.4688 7.28125
Q32.5156 7.28125 36.6094 11.9375
Q40.7188 16.6094 40.7188 26.5625
Q40.7188 36.0781 36.5 40.9062
Q32.2812 45.75 26.3125 45.75
Q20.4531 45.75 16.3438 40.9844
Q12.25 36.2344 12.25 26.8594" id="ArialMT-67"/>
      <path d="
M8.6875 0
L8.6875 45.0156
L0.921875 45.0156
L0.921875 51.8594
L8.6875 51.8594
L8.6875 57.375
Q8.6875 62.5938 9.625 65.1406
Q10.8906 68.5625 14.0781 70.6719
Q17.2812 72.7969 23.0469 72.7969
Q26.7656 72.7969 31.25 71.9219
L29.9375 64.2656
Q27.2031 64.75 24.75 64.75
Q20.75 64.75 19.0938 63.0312
Q17.4375 61.3281 17.4375 56.6406
L17.4375 51.8594
L27.5469 51.8594
L27.5469 45.0156
L17.4375 45.0156
L17.4375 0
z
" id="ArialMT-66"/>
      <path d="
M42.0938 16.7031
L51.1719 15.5781
Q49.0312 7.625 43.2188 3.21875
Q37.4062 -1.17188 28.375 -1.17188
Q17 -1.17188 10.3281 5.82812
Q3.65625 12.8438 3.65625 25.4844
Q3.65625 38.5781 10.3906 45.7969
Q17.1406 53.0312 27.875 53.0312
Q38.2812 53.0312 44.875 45.9531
Q51.4688 38.875 51.4688 26.0312
Q51.4688 25.25 51.4219 23.6875
L12.75 23.6875
Q13.2344 15.1406 17.5781 10.5938
Q21.9219 6.0625 28.4219 6.0625
Q33.25 6.0625 36.6719 8.59375
Q40.0938 11.1406 42.0938 16.7031
M13.2344 30.9062
L42.1875 30.9062
Q41.6094 37.4531 38.875 40.7188
Q34.6719 45.7969 27.9844 45.7969
Q21.9219 45.7969 17.7969 41.75
Q13.6719 37.7031 13.2344 30.9062" id="ArialMT-65"/>
      <path d="
M40.2344 0
L40.2344 6.54688
Q35.2969 -1.17188 25.7344 -1.17188
Q19.5312 -1.17188 14.3281 2.25
Q9.125 5.67188 6.26562 11.7969
Q3.42188 17.9219 3.42188 25.875
Q3.42188 33.6406 6 39.9688
Q8.59375 46.2969 13.7656 49.6562
Q18.9531 53.0312 25.3438 53.0312
Q30.0312 53.0312 33.6875 51.0469
Q37.3594 49.0781 39.6562 45.9062
L39.6562 71.5781
L48.3906 71.5781
L48.3906 0
z

M12.4531 25.875
Q12.4531 15.9219 16.6406 10.9844
Q20.8438 6.0625 26.5625 6.0625
Q32.3281 6.0625 36.3438 10.7656
Q40.375 15.4844 40.375 25.1406
Q40.375 35.7969 36.2656 40.7656
Q32.1719 45.75 26.1719 45.75
Q20.3125 45.75 16.375 40.9688
Q12.4531 36.1875 12.4531 25.875" id="ArialMT-64"/>
      <path d="
M0 -1.21875
L20.75 72.7969
L27.7812 72.7969
L7.07812 -1.21875
z
" id="ArialMT-2f"/>
      <path d="
M21 0
L1.26562 51.8594
L10.5469 51.8594
L21.6875 20.7969
Q23.4844 15.7656 25 10.3594
Q26.1719 14.4531 28.2656 20.2188
L39.7969 51.8594
L48.8281 51.8594
L29.2031 0
z
" id="ArialMT-76"/>
      <path d="
M3.17188 21.4844
L3.17188 30.3281
L30.1719 30.3281
L30.1719 21.4844
z
" id="ArialMT-2d"/>
      <path d="
M6.59375 0
L6.59375 51.8594
L14.4531 51.8594
L14.4531 44.5781
Q16.8906 48.3906 20.9375 50.7031
Q25 53.0312 30.1719 53.0312
Q35.9375 53.0312 39.625 50.6406
Q43.3125 48.25 44.8281 43.9531
Q50.9844 53.0312 60.8438 53.0312
Q68.5625 53.0312 72.7031 48.75
Q76.8594 44.4844 76.8594 35.5938
L76.8594 0
L68.1094 0
L68.1094 32.6719
Q68.1094 37.9375 67.25 40.25
Q66.4062 42.5781 64.1562 43.9844
Q61.9219 45.4062 58.8906 45.4062
Q53.4219 45.4062 49.7969 41.7656
Q46.1875 38.1406 46.1875 30.125
L46.1875 0
L37.4062 0
L37.4062 33.6875
Q37.4062 39.5469 35.25 42.4688
Q33.1094 45.4062 28.2188 45.4062
Q24.5156 45.4062 21.3594 43.4531
Q18.2188 41.5 16.7969 37.7344
Q15.375 33.9844 15.375 26.9062
L15.375 0
z
" id="ArialMT-6d"/>
      <path d="
M3.07812 15.4844
L11.7656 16.8438
Q12.5 11.625 15.8438 8.84375
Q19.1875 6.0625 25.2031 6.0625
Q31.25 6.0625 34.1719 8.51562
Q37.1094 10.9844 37.1094 14.3125
Q37.1094 17.2812 34.5156 19
Q32.7188 20.1719 25.5312 21.9688
Q15.875 24.4219 12.1406 26.2031
Q8.40625 27.9844 6.46875 31.125
Q4.54688 34.2812 4.54688 38.0938
Q4.54688 41.5469 6.125 44.5
Q7.71875 47.4688 10.4531 49.4219
Q12.5 50.9219 16.0312 51.9688
Q19.5781 53.0312 23.6406 53.0312
Q29.7344 53.0312 34.3438 51.2656
Q38.9688 49.5156 41.1562 46.5
Q43.3594 43.5 44.1875 38.4844
L35.5938 37.3125
Q35.0156 41.3125 32.2031 43.5469
Q29.3906 45.7969 24.2656 45.7969
Q18.2188 45.7969 15.625 43.7969
Q13.0312 41.7969 13.0312 39.1094
Q13.0312 37.4062 14.1094 36.0312
Q15.1875 34.625 17.4844 33.6875
Q18.7969 33.2031 25.25 31.4531
Q34.5781 28.9531 38.25 27.3594
Q41.9375 25.7812 44.0312 22.75
Q46.1406 19.7344 46.1406 15.2344
Q46.1406 10.8438 43.5781 6.95312
Q41.0156 3.07812 36.1719 0.953125
Q31.3438 -1.17188 25.25 -1.17188
Q15.1406 -1.17188 9.84375 3.03125
Q4.54688 7.23438 3.07812 15.4844" id="ArialMT-73"/>
      <path d="
M6.39062 0
L6.39062 71.5781
L15.1875 71.5781
L15.1875 0
z
" id="ArialMT-6c"/>
      <path d="
M3.32812 25.9219
Q3.32812 40.3281 11.3281 47.2656
Q18.0156 53.0312 27.6406 53.0312
Q38.3281 53.0312 45.1094 46.0156
Q51.9062 39.0156 51.9062 26.6562
Q51.9062 16.6562 48.9062 10.9062
Q45.9062 5.17188 40.1562 2
Q34.4219 -1.17188 27.6406 -1.17188
Q16.75 -1.17188 10.0312 5.8125
Q3.32812 12.7969 3.32812 25.9219
M12.3594 25.9219
Q12.3594 15.9688 16.7031 11.0156
Q21.0469 6.0625 27.6406 6.0625
Q34.1875 6.0625 38.5312 11.0312
Q42.875 16.0156 42.875 26.2188
Q42.875 35.8438 38.5 40.7969
Q34.125 45.75 27.6406 45.75
Q21.0469 45.75 16.7031 40.8125
Q12.3594 35.8906 12.3594 25.9219" id="ArialMT-6f"/>
      <path d="
M6.59375 0
L6.59375 51.8594
L14.5 51.8594
L14.5 44.4844
Q20.2188 53.0312 31 53.0312
Q35.6875 53.0312 39.625 51.3438
Q43.5625 49.6562 45.5156 46.9219
Q47.4688 44.1875 48.25 40.4375
Q48.7344 37.9844 48.7344 31.8906
L48.7344 0
L39.9375 0
L39.9375 31.5469
Q39.9375 36.9219 38.9062 39.5781
Q37.8906 42.2344 35.2812 43.8125
Q32.6719 45.4062 29.1562 45.4062
Q23.5312 45.4062 19.4531 41.8438
Q15.375 38.2812 15.375 28.3281
L15.375 0
z
" id="ArialMT-6e"/>
      <path d="
M23.3906 -21.0469
Q16.1094 -11.8594 11.0781 0.4375
Q6.0625 12.75 6.0625 25.9219
Q6.0625 37.5469 9.8125 48.1875
Q14.2031 60.5469 23.3906 72.7969
L29.6875 72.7969
Q23.7812 62.6406 21.875 58.2969
Q18.8906 51.5625 17.1875 44.2344
Q15.0938 35.1094 15.0938 25.875
Q15.0938 2.39062 29.6875 -21.0469
z
" id="ArialMT-28"/>
      <path d="
M5.03125 -1.21875
L9.28125 19.5781
L1.03125 19.5781
L1.03125 26.8594
L10.75 26.8594
L14.3594 44.5781
L1.03125 44.5781
L1.03125 51.8594
L15.8281 51.8594
L20.0625 72.7969
L27.3906 72.7969
L23.1406 51.8594
L38.5312 51.8594
L42.7812 72.7969
L50.1406 72.7969
L45.9062 51.8594
L54.3438 51.8594
L54.3438 44.5781
L44.4375 44.5781
L40.7656 26.8594
L54.3438 26.8594
L54.3438 19.5781
L39.3125 19.5781
L35.0625 -1.21875
L27.7344 -1.21875
L31.9375 19.5781
L16.6094 19.5781
L12.3594 -1.21875
z

M18.0625 26.8594
L33.4062 26.8594
L37.0625 44.5781
L21.6875 44.5781
z
" id="ArialMT-23"/>
      <path d="
M6.64062 61.4688
L6.64062 71.5781
L15.4375 71.5781
L15.4375 61.4688
z

M6.64062 0
L6.64062 51.8594
L15.4375 51.8594
L15.4375 0
z
" id="ArialMT-69"/>
      <path id="ArialMT-20"/>
     </defs>
     <g transform="translate(185.67375 398.917592822)scale(0.18 -0.18)">
      <use xlink:href="#ArialMT-6c"/>
      <use x="22.216796875" xlink:href="#ArialMT-6f"/>
      <use x="77.83203125" xlink:href="#ArialMT-67"/>
      <use x="133.447265625" xlink:href="#ArialMT-31"/>
      <use x="189.0625" xlink:href="#ArialMT-30"/>
      <use x="244.677734375" xlink:href="#ArialMT-20"/>
      <use x="272.4609375" xlink:href="#ArialMT-6f"/>
      <use x="328.076171875" xlink:href="#ArialMT-66"/>
      <use x="355.859375" xlink:href="#ArialMT-20"/>
      <use x="383.642578125" xlink:href="#ArialMT-28"/>
      <use x="416.943359375" xlink:href="#ArialMT-23"/>
      <use x="472.55859375" xlink:href="#ArialMT-20"/>
      <use x="500.341796875" xlink:href="#ArialMT-66"/>
      <use x="528.125" xlink:href="#ArialMT-2d"/>
      <use x="561.42578125" xlink:href="#ArialMT-65"/>
      <use x="617.041015625" xlink:href="#ArialMT-76"/>
      <use x="667.041015625" xlink:href="#ArialMT-61"/>
      <use x="722.65625" xlink:href="#ArialMT-6c"/>
      <use x="744.873046875" xlink:href="#ArialMT-73"/>
      <use x="794.873046875" xlink:href="#ArialMT-20"/>
      <use x="822.65625" xlink:href="#ArialMT-2f"/>
      <use x="850.439453125" xlink:href="#ArialMT-20"/>
      <use x="878.22265625" xlink:href="#ArialMT-64"/>
      <use x="933.837890625" xlink:href="#ArialMT-69"/>
      <use x="956.0546875" xlink:href="#ArialMT-6d"/>
      <use x="1039.35546875" xlink:href="#ArialMT-65"/>
      <use x="1094.97070312" xlink:href="#ArialMT-6e"/>
      <use x="1150.5859375" xlink:href="#ArialMT-73"/>
      <use x="1200.5859375" xlink:href="#ArialMT-69"/>
      <use x="1222.80273438" xlink:href="#ArialMT-6f"/>
      <use x="1278.41796875" xlink:href="#ArialMT-6e"/>
      <use x="1334.03320312" xlink:href="#ArialMT-29"/>
     </g>
    </g>
   </g>
   <g id="matplotlib.axis_2">
    <g id="ytick_1">
     <g id="line2d_105">
      <path clip-path="url(#p0cd469f449)" d="
M85.2 358.524
L531.6 358.524" style="fill:none;stroke:#000000;stroke-dasharray:1.000000,3.000000;stroke-dashoffset:0.0;stroke-width:0.5;"/>
     </g>
     <g id="line2d_106">
      <defs>
       <path d="
M0 0
L4 0" id="m728421d6d4" style="stroke:#000000;stroke-width:0.5;"/>
      </defs>
      <g>
       <use style="stroke:#000000;stroke-width:0.5;" x="85.2" xlink:href="#m728421d6d4" y="358.523530322"/>
      </g>
     </g>
     <g id="line2d_107">
      <defs>
       <path d="
M0 0
L-4 0" id="mcb0005524f" style="stroke:#000000;stroke-width:0.5;"/>
      </defs>
      <g>
       <use style="stroke:#000000;stroke-width:0.5;" x="531.6" xlink:href="#mcb0005524f" y="358.523530322"/>
      </g>
     </g>
     <g id="text_6">
      <!-- 0.0 -->
      <defs>
       <path d="
M9.07812 0
L9.07812 10.0156
L19.0938 10.0156
L19.0938 0
z
" id="ArialMT-2e"/>
      </defs>
      <g transform="translate(55.1875 363.693842822)scale(0.2 -0.2)">
       <use xlink:href="#ArialMT-30"/>
       <use x="55.615234375" xlink:href="#ArialMT-2e"/>
       <use x="83.3984375" xlink:href="#ArialMT-30"/>
      </g>
     </g>
    </g>
    <g id="ytick_2">
     <g id="line2d_108">
      <path clip-path="url(#p0cd469f449)" d="
M85.2 290.088
L531.6 290.088" style="fill:none;stroke:#000000;stroke-dasharray:1.000000,3.000000;stroke-dashoffset:0.0;stroke-width:0.5;"/>
     </g>
     <g id="line2d_109">
      <g>
       <use style="stroke:#000000;stroke-width:0.5;" x="85.2" xlink:href="#m728421d6d4" y="290.087886757"/>
      </g>
     </g>
     <g id="line2d_110">
      <g>
       <use style="stroke:#000000;stroke-width:0.5;" x="531.6" xlink:href="#mcb0005524f" y="290.087886757"/>
      </g>
     </g>
     <g id="text_7">
      <!-- 0.2 -->
      <g transform="translate(55.284375 295.258199257)scale(0.2 -0.2)">
       <use xlink:href="#ArialMT-30"/>
       <use x="55.615234375" xlink:href="#ArialMT-2e"/>
       <use x="83.3984375" xlink:href="#ArialMT-32"/>
      </g>
     </g>
    </g>
    <g id="ytick_3">
     <g id="line2d_111">
      <path clip-path="url(#p0cd469f449)" d="
M85.2 221.652
L531.6 221.652" style="fill:none;stroke:#000000;stroke-dasharray:1.000000,3.000000;stroke-dashoffset:0.0;stroke-width:0.5;"/>
     </g>
     <g id="line2d_112">
      <g>
       <use style="stroke:#000000;stroke-width:0.5;" x="85.2" xlink:href="#m728421d6d4" y="221.652243193"/>
      </g>
     </g>
     <g id="line2d_113">
      <g>
       <use style="stroke:#000000;stroke-width:0.5;" x="531.6" xlink:href="#mcb0005524f" y="221.652243193"/>
      </g>
     </g>
     <g id="text_8">
      <!-- 0.4 -->
      <defs>
       <path d="
M32.3281 0
L32.3281 17.1406
L1.26562 17.1406
L1.26562 25.2031
L33.9375 71.5781
L41.1094 71.5781
L41.1094 25.2031
L50.7812 25.2031
L50.7812 17.1406
L41.1094 17.1406
L41.1094 0
z

M32.3281 25.2031
L32.3281 57.4688
L9.90625 25.2031
z
" id="ArialMT-34"/>
      </defs>
      <g transform="translate(55.196875 226.822555693)scale(0.2 -0.2)">
       <use xlink:href="#ArialMT-30"/>
       <use x="55.615234375" xlink:href="#ArialMT-2e"/>
       <use x="83.3984375" xlink:href="#ArialMT-34"/>
      </g>
     </g>
    </g>
    <g id="ytick_4">
     <g id="line2d_114">
      <path clip-path="url(#p0cd469f449)" d="
M85.2 153.217
L531.6 153.217" style="fill:none;stroke:#000000;stroke-dasharray:1.000000,3.000000;stroke-dashoffset:0.0;stroke-width:0.5;"/>
     </g>
     <g id="line2d_115">
      <g>
       <use style="stroke:#000000;stroke-width:0.5;" x="85.2" xlink:href="#m728421d6d4" y="153.216599629"/>
      </g>
     </g>
     <g id="line2d_116">
      <g>
       <use style="stroke:#000000;stroke-width:0.5;" x="531.6" xlink:href="#mcb0005524f" y="153.216599629"/>
      </g>
     </g>
     <g id="text_9">
      <!-- 0.6 -->
      <defs>
       <path d="
M49.75 54.0469
L41.0156 53.375
Q39.8438 58.5469 37.7031 60.8906
Q34.125 64.6562 28.9062 64.6562
Q24.7031 64.6562 21.5312 62.3125
Q17.3906 59.2812 14.9844 53.4688
Q12.5938 47.6562 12.5 36.9219
Q15.6719 41.75 20.2656 44.0938
Q24.8594 46.4375 29.8906 46.4375
Q38.6719 46.4375 44.8438 39.9688
Q51.0312 33.5 51.0312 23.25
Q51.0312 16.5 48.125 10.7188
Q45.2188 4.9375 40.1406 1.85938
Q35.0625 -1.21875 28.6094 -1.21875
Q17.625 -1.21875 10.6875 6.85938
Q3.76562 14.9375 3.76562 33.5
Q3.76562 54.25 11.4219 63.6719
Q18.1094 71.875 29.4375 71.875
Q37.8906 71.875 43.2812 67.1406
Q48.6875 62.4062 49.75 54.0469
M13.875 23.1875
Q13.875 18.6562 15.7969 14.5
Q17.7188 10.3594 21.1875 8.17188
Q24.6562 6 28.4688 6
Q34.0312 6 38.0312 10.4844
Q42.0469 14.9844 42.0469 22.7031
Q42.0469 30.125 38.0781 34.3906
Q34.125 38.6719 28.125 38.6719
Q22.1719 38.6719 18.0156 34.3906
Q13.875 30.125 13.875 23.1875" id="ArialMT-36"/>
      </defs>
      <g transform="translate(55.146875 158.386912129)scale(0.2 -0.2)">
       <use xlink:href="#ArialMT-30"/>
       <use x="55.615234375" xlink:href="#ArialMT-2e"/>
       <use x="83.3984375" xlink:href="#ArialMT-36"/>
      </g>
     </g>
    </g>
    <g id="ytick_5">
     <g id="line2d_117">
      <path clip-path="url(#p0cd469f449)" d="
M85.2 84.781
L531.6 84.781" style="fill:none;stroke:#000000;stroke-dasharray:1.000000,3.000000;stroke-dashoffset:0.0;stroke-width:0.5;"/>
     </g>
     <g id="line2d_118">
      <g>
       <use style="stroke:#000000;stroke-width:0.5;" x="85.2" xlink:href="#m728421d6d4" y="84.7809560644"/>
      </g>
     </g>
     <g id="line2d_119">
      <g>
       <use style="stroke:#000000;stroke-width:0.5;" x="531.6" xlink:href="#mcb0005524f" y="84.7809560644"/>
      </g>
     </g>
     <g id="text_10">
      <!-- 0.8 -->
      <defs>
       <path d="
M17.6719 38.8125
Q12.2031 40.8281 9.5625 44.5312
Q6.9375 48.25 6.9375 53.4219
Q6.9375 61.2344 12.5469 66.5469
Q18.1719 71.875 27.4844 71.875
Q36.8594 71.875 42.5781 66.4219
Q48.2969 60.9844 48.2969 53.1719
Q48.2969 48.1875 45.6719 44.5
Q43.0625 40.8281 37.75 38.8125
Q44.3438 36.6719 47.7812 31.875
Q51.2188 27.0938 51.2188 20.4531
Q51.2188 11.2812 44.7188 5.03125
Q38.2344 -1.21875 27.6406 -1.21875
Q17.0469 -1.21875 10.5469 5.04688
Q4.04688 11.3281 4.04688 20.7031
Q4.04688 27.6875 7.59375 32.3906
Q11.1406 37.1094 17.6719 38.8125
M15.9219 53.7188
Q15.9219 48.6406 19.1875 45.4062
Q22.4688 42.1875 27.6875 42.1875
Q32.7656 42.1875 36.0156 45.375
Q39.2656 48.5781 39.2656 53.2188
Q39.2656 58.0625 35.9062 61.3594
Q32.5625 64.6562 27.5938 64.6562
Q22.5625 64.6562 19.2344 61.4219
Q15.9219 58.2031 15.9219 53.7188
M13.0938 20.6562
Q13.0938 16.8906 14.875 13.375
Q16.6562 9.85938 20.1719 7.92188
Q23.6875 6 27.7344 6
Q34.0312 6 38.125 10.0469
Q42.2344 14.1094 42.2344 20.3594
Q42.2344 26.7031 38.0156 30.8594
Q33.7969 35.0156 27.4375 35.0156
Q21.2344 35.0156 17.1562 30.9062
Q13.0938 26.8125 13.0938 20.6562" id="ArialMT-38"/>
      </defs>
      <g transform="translate(55.109375 89.9512685644)scale(0.2 -0.2)">
       <use xlink:href="#ArialMT-30"/>
       <use x="55.615234375" xlink:href="#ArialMT-2e"/>
       <use x="83.3984375" xlink:href="#ArialMT-38"/>
      </g>
     </g>
    </g>
    <g id="ytick_6">
     <g id="line2d_120">
      <path clip-path="url(#p0cd469f449)" d="
M85.2 16.3453
L531.6 16.3453" style="fill:none;stroke:#000000;stroke-dasharray:1.000000,3.000000;stroke-dashoffset:0.0;stroke-width:0.5;"/>
     </g>
     <g id="line2d_121">
      <g>
       <use style="stroke:#000000;stroke-width:0.5;" x="85.2" xlink:href="#m728421d6d4" y="16.3453125"/>
      </g>
     </g>
     <g id="line2d_122">
      <g>
       <use style="stroke:#000000;stroke-width:0.5;" x="531.6" xlink:href="#mcb0005524f" y="16.3453125"/>
      </g>
     </g>
     <g id="text_11">
      <!-- 1.0 -->
      <g transform="translate(56.534375 21.515625)scale(0.2 -0.2)">
       <use xlink:href="#ArialMT-31"/>
       <use x="55.615234375" xlink:href="#ArialMT-2e"/>
       <use x="83.3984375" xlink:href="#ArialMT-30"/>
      </g>
     </g>
    </g>
    <g id="text_12">
     <!-- Proportion of function+target pairs -->
     <defs>
      <path d="
M40.4375 19
L49.0781 17.875
Q47.6562 8.9375 41.8125 3.875
Q35.9844 -1.17188 27.4844 -1.17188
Q16.8438 -1.17188 10.375 5.78125
Q3.90625 12.75 3.90625 25.7344
Q3.90625 34.125 6.6875 40.4219
Q9.46875 46.7344 15.1562 49.875
Q20.8438 53.0312 27.5469 53.0312
Q35.9844 53.0312 41.3594 48.75
Q46.7344 44.4844 48.25 36.625
L39.7031 35.2969
Q38.4844 40.5312 35.375 43.1562
Q32.2812 45.7969 27.875 45.7969
Q21.2344 45.7969 17.0781 41.0312
Q12.9375 36.2812 12.9375 25.9844
Q12.9375 15.5312 16.9375 10.7969
Q20.9531 6.0625 27.3906 6.0625
Q32.5625 6.0625 36.0312 9.23438
Q39.5 12.4062 40.4375 19" id="ArialMT-63"/>
      <path d="
M25.7812 7.85938
L27.0469 0.09375
Q23.3438 -0.6875 20.4062 -0.6875
Q15.625 -0.6875 12.9844 0.828125
Q10.3594 2.34375 9.28125 4.8125
Q8.20312 7.28125 8.20312 15.1875
L8.20312 45.0156
L1.76562 45.0156
L1.76562 51.8594
L8.20312 51.8594
L8.20312 64.7031
L16.9375 69.9688
L16.9375 51.8594
L25.7812 51.8594
L25.7812 45.0156
L16.9375 45.0156
L16.9375 14.7031
Q16.9375 10.9375 17.4062 9.85938
Q17.875 8.79688 18.9219 8.15625
Q19.9688 7.51562 21.9219 7.51562
Q23.3906 7.51562 25.7812 7.85938" id="ArialMT-74"/>
      <path d="
M40.5781 0
L40.5781 7.625
Q34.5156 -1.17188 24.125 -1.17188
Q19.5312 -1.17188 15.5469 0.578125
Q11.5781 2.34375 9.64062 5
Q7.71875 7.67188 6.9375 11.5312
Q6.39062 14.1094 6.39062 19.7344
L6.39062 51.8594
L15.1875 51.8594
L15.1875 23.0938
Q15.1875 16.2188 15.7188 13.8125
Q16.5469 10.3594 19.2344 8.375
Q21.9219 6.39062 25.875 6.39062
Q29.8281 6.39062 33.2969 8.42188
Q36.7656 10.4531 38.2031 13.9375
Q39.6562 17.4375 39.6562 24.0781
L39.6562 51.8594
L48.4375 51.8594
L48.4375 0
z
" id="ArialMT-75"/>
      <path d="
M7.71875 0
L7.71875 71.5781
L34.7188 71.5781
Q41.8438 71.5781 45.6094 70.9062
Q50.875 70.0156 54.4375 67.5469
Q58.0156 65.0938 60.1875 60.6406
Q62.3594 56.2031 62.3594 50.875
Q62.3594 41.75 56.5469 35.4219
Q50.7344 29.1094 35.5469 29.1094
L17.1875 29.1094
L17.1875 0
z

M17.1875 37.5469
L35.6875 37.5469
Q44.875 37.5469 48.7344 40.9688
Q52.5938 44.3906 52.5938 50.5938
Q52.5938 55.0781 50.3125 58.2656
Q48.0469 61.4688 44.3438 62.5
Q41.9375 63.1406 35.5 63.1406
L17.1875 63.1406
z
" id="ArialMT-50"/>
      <path d="
M6.59375 -19.875
L6.59375 51.8594
L14.5938 51.8594
L14.5938 45.125
Q17.4375 49.0781 21 51.0469
Q24.5625 53.0312 29.6406 53.0312
Q36.2812 53.0312 41.3594 49.6094
Q46.4375 46.1875 49.0156 39.9531
Q51.6094 33.7344 51.6094 26.3125
Q51.6094 18.3594 48.75 11.9844
Q45.9062 5.60938 40.4531 2.21875
Q35.0156 -1.17188 29 -1.17188
Q24.6094 -1.17188 21.1094 0.6875
Q17.625 2.54688 15.375 5.375
L15.375 -19.875
z

M14.5469 25.6406
Q14.5469 15.625 18.5938 10.8438
Q22.6562 6.0625 28.4219 6.0625
Q34.2812 6.0625 38.4531 11.0156
Q42.625 15.9688 42.625 26.375
Q42.625 36.2812 38.5469 41.2031
Q34.4688 46.1406 28.8125 46.1406
Q23.1875 46.1406 18.8594 40.8906
Q14.5469 35.6406 14.5469 25.6406" id="ArialMT-70"/>
      <path d="
M25.0469 11.5781
L25.0469 31.2031
L5.5625 31.2031
L5.5625 39.4062
L25.0469 39.4062
L25.0469 58.8906
L33.3438 58.8906
L33.3438 39.4062
L52.8281 39.4062
L52.8281 31.2031
L33.3438 31.2031
L33.3438 11.5781
z
" id="ArialMT-2b"/>
      <path d="
M6.5 0
L6.5 51.8594
L14.4062 51.8594
L14.4062 44
Q17.4375 49.5156 20 51.2656
Q22.5625 53.0312 25.6406 53.0312
Q30.0781 53.0312 34.6719 50.2031
L31.6406 42.0469
Q28.4219 43.9531 25.2031 43.9531
Q22.3125 43.9531 20.0156 42.2188
Q17.7188 40.4844 16.75 37.4062
Q15.2812 32.7188 15.2812 27.1562
L15.2812 0
z
" id="ArialMT-72"/>
     </defs>
     <g transform="translate(46.3209375 321.197436572)rotate(-90.0)scale(0.18 -0.18)">
      <use xlink:href="#ArialMT-50"/>
      <use x="66.69921875" xlink:href="#ArialMT-72"/>
      <use x="100.0" xlink:href="#ArialMT-6f"/>
      <use x="155.615234375" xlink:href="#ArialMT-70"/>
      <use x="211.23046875" xlink:href="#ArialMT-6f"/>
      <use x="266.845703125" xlink:href="#ArialMT-72"/>
      <use x="300.146484375" xlink:href="#ArialMT-74"/>
      <use x="327.9296875" xlink:href="#ArialMT-69"/>
      <use x="350.146484375" xlink:href="#ArialMT-6f"/>
      <use x="405.76171875" xlink:href="#ArialMT-6e"/>
      <use x="461.376953125" xlink:href="#ArialMT-20"/>
      <use x="489.16015625" xlink:href="#ArialMT-6f"/>
      <use x="544.775390625" xlink:href="#ArialMT-66"/>
      <use x="572.55859375" xlink:href="#ArialMT-20"/>
      <use x="600.341796875" xlink:href="#ArialMT-66"/>
      <use x="628.125" xlink:href="#ArialMT-75"/>
      <use x="683.740234375" xlink:href="#ArialMT-6e"/>
      <use x="739.35546875" xlink:href="#ArialMT-63"/>
      <use x="789.35546875" xlink:href="#ArialMT-74"/>
      <use x="817.138671875" xlink:href="#ArialMT-69"/>
      <use x="839.35546875" xlink:href="#ArialMT-6f"/>
      <use x="894.970703125" xlink:href="#ArialMT-6e"/>
      <use x="950.5859375" xlink:href="#ArialMT-2b"/>
      <use x="1008.984375" xlink:href="#ArialMT-74"/>
      <use x="1036.76757812" xlink:href="#ArialMT-61"/>
      <use x="1092.3828125" xlink:href="#ArialMT-72"/>
      <use x="1125.68359375" xlink:href="#ArialMT-67"/>
      <use x="1181.29882812" xlink:href="#ArialMT-65"/>
      <use x="1236.9140625" xlink:href="#ArialMT-74"/>
      <use x="1264.69726562" xlink:href="#ArialMT-20"/>
      <use x="1292.48046875" xlink:href="#ArialMT-70"/>
      <use x="1348.09570312" xlink:href="#ArialMT-61"/>
      <use x="1403.7109375" xlink:href="#ArialMT-69"/>
      <use x="1425.92773438" xlink:href="#ArialMT-72"/>
      <use x="1459.22851562" xlink:href="#ArialMT-73"/>
     </g>
    </g>
   </g>
   <g id="patch_3">
    <path d="
M85.2 12.9235
L531.6 12.9235" style="fill:none;stroke:#000000;"/>
   </g>
   <g id="patch_4">
    <path d="
M531.6 358.524
L531.6 12.9235" style="fill:none;stroke:#000000;"/>
   </g>
   <g id="patch_5">
    <path d="
M85.2 358.524
L531.6 358.524" style="fill:none;stroke:#000000;"/>
   </g>
   <g id="patch_6">
    <path d="
M85.2 358.524
L85.2 12.9235" style="fill:none;stroke:#000000;"/>
   </g>
   <g id="text_13">
    <!-- CMA-ES -->
    <defs>
     <path d="
M-0.140625 0
L27.3438 71.5781
L37.5469 71.5781
L66.8438 0
L56.0625 0
L47.7031 21.6875
L17.7812 21.6875
L9.90625 0
z

M20.5156 29.3906
L44.7812 29.3906
L37.3125 49.2188
Q33.8906 58.25 32.2344 64.0625
Q30.8594 57.1719 28.375 50.3906
z
" id="ArialMT-41"/>
     <path d="
M4.5 23
L13.4219 23.7812
Q14.0625 18.4062 16.375 14.9688
Q18.7031 11.5312 23.5781 9.40625
Q28.4688 7.28125 34.5781 7.28125
Q39.9844 7.28125 44.1406 8.89062
Q48.2969 10.5 50.3125 13.2969
Q52.3438 16.1094 52.3438 19.4375
Q52.3438 22.7969 50.3906 25.3125
Q48.4375 27.8281 43.9531 29.5469
Q41.0625 30.6719 31.2031 33.0312
Q21.3438 35.4062 17.3906 37.5
Q12.25 40.1875 9.73438 44.1562
Q7.23438 48.1406 7.23438 53.0781
Q7.23438 58.5 10.2969 63.2031
Q13.375 67.9219 19.2812 70.3594
Q25.2031 72.7969 32.4219 72.7969
Q40.375 72.7969 46.4531 70.2344
Q52.5469 67.6719 55.8125 62.6875
Q59.0781 57.7188 59.3281 51.4219
L50.25 50.7344
Q49.5156 57.5156 45.2812 60.9844
Q41.0625 64.4531 32.8125 64.4531
Q24.2188 64.4531 20.2812 61.2969
Q16.3594 58.1562 16.3594 53.7188
Q16.3594 49.8594 19.1406 47.3594
Q21.875 44.875 33.4219 42.2656
Q44.9688 39.6562 49.2656 37.7031
Q55.5156 34.8125 58.4844 30.3906
Q61.4688 25.9844 61.4688 20.2188
Q61.4688 14.5 58.2031 9.4375
Q54.9375 4.39062 48.7969 1.57812
Q42.6719 -1.21875 35.0156 -1.21875
Q25.2969 -1.21875 18.7188 1.60938
Q12.1562 4.4375 8.42188 10.125
Q4.6875 15.8281 4.5 23" id="ArialMT-53"/>
     <path d="
M58.7969 25.0938
L68.2656 22.7031
Q65.2812 11.0312 57.5469 4.90625
Q49.8125 -1.21875 38.625 -1.21875
Q27.0469 -1.21875 19.7969 3.48438
Q12.5469 8.20312 8.76562 17.1406
Q4.98438 26.0781 4.98438 36.3281
Q4.98438 47.5156 9.25 55.8281
Q13.5312 64.1562 21.4062 68.4688
Q29.2969 72.7969 38.7656 72.7969
Q49.5156 72.7969 56.8281 67.3281
Q64.1562 61.8594 67.0469 51.9531
L57.7188 49.75
Q55.2188 57.5625 50.4844 61.125
Q45.75 64.7031 38.5781 64.7031
Q30.3281 64.7031 24.7812 60.7344
Q19.2344 56.7812 16.9844 50.1094
Q14.75 43.4531 14.75 36.375
Q14.75 27.25 17.4062 20.4375
Q20.0625 13.625 25.6719 10.25
Q31.2969 6.89062 37.8438 6.89062
Q45.7969 6.89062 51.3125 11.4688
Q56.8438 16.0625 58.7969 25.0938" id="ArialMT-43"/>
     <path d="
M7.90625 0
L7.90625 71.5781
L59.6719 71.5781
L59.6719 63.1406
L17.3906 63.1406
L17.3906 41.2188
L56.9844 41.2188
L56.9844 32.8125
L17.3906 32.8125
L17.3906 8.45312
L61.3281 8.45312
L61.3281 0
z
" id="ArialMT-45"/>
     <path d="
M7.42188 0
L7.42188 71.5781
L21.6875 71.5781
L38.625 20.9062
Q40.9688 13.8125 42.0469 10.2969
Q43.2656 14.2031 45.8438 21.7812
L62.9844 71.5781
L75.7344 71.5781
L75.7344 0
L66.6094 0
L66.6094 59.9062
L45.7969 0
L37.25 0
L16.5469 60.9375
L16.5469 0
z
" id="ArialMT-4d"/>
    </defs>
    <g transform="translate(492.0 355.55770034)scale(0.15 -0.15)">
     <use xlink:href="#ArialMT-43"/>
     <use x="72.216796875" xlink:href="#ArialMT-4d"/>
     <use x="155.517578125" xlink:href="#ArialMT-41"/>
     <use x="222.216796875" xlink:href="#ArialMT-2d"/>
     <use x="255.517578125" xlink:href="#ArialMT-45"/>
     <use x="322.216796875" xlink:href="#ArialMT-53"/>
    </g>
   </g>
   <g id="text_14">
    <!-- Ord-H-DTS -->
    <defs>
     <path d="
M8.01562 0
L8.01562 71.5781
L17.4844 71.5781
L17.4844 42.1875
L54.6875 42.1875
L54.6875 71.5781
L64.1562 71.5781
L64.1562 0
L54.6875 0
L54.6875 33.7344
L17.4844 33.7344
L17.4844 0
z
" id="ArialMT-48"/>
     <path d="
M7.71875 0
L7.71875 71.5781
L32.375 71.5781
Q40.7188 71.5781 45.125 70.5625
Q51.2656 69.1406 55.6094 65.4375
Q61.2812 60.6406 64.0781 53.1875
Q66.8906 45.75 66.8906 36.1875
Q66.8906 28.0312 64.9844 21.7344
Q63.0938 15.4375 60.1094 11.2969
Q57.125 7.17188 53.5781 4.79688
Q50.0469 2.4375 45.0469 1.21875
Q40.0469 0 33.5469 0
z

M17.1875 8.45312
L32.4688 8.45312
Q39.5469 8.45312 43.5781 9.76562
Q47.6094 11.0781 50 13.4844
Q53.375 16.8438 55.25 22.5312
Q57.125 28.2188 57.125 36.3281
Q57.125 47.5625 53.4375 53.5938
Q49.75 59.625 44.4844 61.6719
Q40.6719 63.1406 32.2344 63.1406
L17.1875 63.1406
z
" id="ArialMT-44"/>
     <path d="
M25.9219 0
L25.9219 63.1406
L2.34375 63.1406
L2.34375 71.5781
L59.0781 71.5781
L59.0781 63.1406
L35.4062 63.1406
L35.4062 0
z
" id="ArialMT-54"/>
     <path d="
M4.82812 34.8594
Q4.82812 52.6875 14.3906 62.7656
Q23.9688 72.8594 39.1094 72.8594
Q49.0312 72.8594 56.9844 68.1094
Q64.9375 63.375 69.1094 54.9062
Q73.2969 46.4375 73.2969 35.6875
Q73.2969 24.8125 68.8906 16.2188
Q64.5 7.625 56.4375 3.20312
Q48.3906 -1.21875 39.0625 -1.21875
Q28.9531 -1.21875 20.9844 3.65625
Q13.0312 8.54688 8.92188 16.9844
Q4.82812 25.4375 4.82812 34.8594
M14.5938 34.7188
Q14.5938 21.7812 21.5469 14.3281
Q28.5156 6.89062 39.0156 6.89062
Q49.7031 6.89062 56.6094 14.4062
Q63.5312 21.9219 63.5312 35.75
Q63.5312 44.4844 60.5781 51
Q57.625 57.5156 51.9219 61.1094
Q46.2344 64.7031 39.1562 64.7031
Q29.1094 64.7031 21.8438 57.7812
Q14.5938 50.875 14.5938 34.7188" id="ArialMT-4f"/>
    </defs>
    <g transform="translate(492.0 289.859482519)scale(0.15 -0.15)">
     <use xlink:href="#ArialMT-4f"/>
     <use x="77.783203125" xlink:href="#ArialMT-72"/>
     <use x="111.083984375" xlink:href="#ArialMT-64"/>
     <use x="166.69921875" xlink:href="#ArialMT-2d"/>
     <use x="200.0" xlink:href="#ArialMT-48"/>
     <use x="272.216796875" xlink:href="#ArialMT-2d"/>
     <use x="305.517578125" xlink:href="#ArialMT-44"/>
     <use x="377.734375" xlink:href="#ArialMT-54"/>
     <use x="438.818359375" xlink:href="#ArialMT-53"/>
    </g>
   </g>
   <g id="text_15">
    <!-- Ord-N-DTS -->
    <defs>
     <path d="
M7.625 0
L7.625 71.5781
L17.3281 71.5781
L54.9375 15.375
L54.9375 71.5781
L64.0156 71.5781
L64.0156 0
L54.2969 0
L16.7031 56.25
L16.7031 0
z
" id="ArialMT-4e"/>
    </defs>
    <g transform="translate(492.0 224.161264697)scale(0.15 -0.15)">
     <use xlink:href="#ArialMT-4f"/>
     <use x="77.783203125" xlink:href="#ArialMT-72"/>
     <use x="111.083984375" xlink:href="#ArialMT-64"/>
     <use x="166.69921875" xlink:href="#ArialMT-2d"/>
     <use x="200.0" xlink:href="#ArialMT-4e"/>
     <use x="272.216796875" xlink:href="#ArialMT-2d"/>
     <use x="305.517578125" xlink:href="#ArialMT-44"/>
     <use x="377.734375" xlink:href="#ArialMT-54"/>
     <use x="438.818359375" xlink:href="#ArialMT-53"/>
    </g>
   </g>
   <g id="text_16">
    <!-- Ord-Q-DTS -->
    <defs>
     <path d="
M61.9688 7.67188
Q68.5625 3.125 74.125 1.03125
L71.3438 -5.5625
Q63.625 -2.78125 55.9531 3.21875
Q48 -1.21875 38.375 -1.21875
Q28.6562 -1.21875 20.75 3.46875
Q12.8438 8.15625 8.5625 16.6406
Q4.29688 25.1406 4.29688 35.7969
Q4.29688 46.3906 8.59375 55.0781
Q12.8906 63.7656 20.8281 68.3125
Q28.7656 72.8594 38.5781 72.8594
Q48.4844 72.8594 56.4375 68.1406
Q64.4062 63.4219 68.5781 54.9531
Q72.75 46.4844 72.75 35.8438
Q72.75 27 70.0625 19.9375
Q67.3906 12.8906 61.9688 7.67188
M41.1094 19.7812
Q49.3125 17.4844 54.6406 12.9375
Q62.9844 20.5625 62.9844 35.8438
Q62.9844 44.5312 60.0312 51.0156
Q57.0781 57.5156 51.3906 61.1094
Q45.7031 64.7031 38.625 64.7031
Q28.0312 64.7031 21.0469 57.4531
Q14.0625 50.2031 14.0625 35.7969
Q14.0625 21.8281 20.9688 14.3594
Q27.875 6.89062 38.625 6.89062
Q43.7031 6.89062 48.1875 8.79688
Q43.75 11.6719 38.8125 12.8906
z
" id="ArialMT-51"/>
    </defs>
    <g transform="translate(492.0 158.463046875)scale(0.15 -0.15)">
     <use xlink:href="#ArialMT-4f"/>
     <use x="77.783203125" xlink:href="#ArialMT-72"/>
     <use x="111.083984375" xlink:href="#ArialMT-64"/>
     <use x="166.69921875" xlink:href="#ArialMT-2d"/>
     <use x="200.0" xlink:href="#ArialMT-51"/>
     <use x="277.783203125" xlink:href="#ArialMT-2d"/>
     <use x="311.083984375" xlink:href="#ArialMT-44"/>
     <use x="383.30078125" xlink:href="#ArialMT-54"/>
     <use x="444.384765625" xlink:href="#ArialMT-53"/>
    </g>
   </g>
   <g id="text_17">
    <!-- DTS-CMA-E -->
    <g transform="translate(492.0 92.7648290532)scale(0.15 -0.15)">
     <use xlink:href="#ArialMT-44"/>
     <use x="72.216796875" xlink:href="#ArialMT-54"/>
     <use x="133.30078125" xlink:href="#ArialMT-53"/>
     <use x="200.0" xlink:href="#ArialMT-2d"/>
     <use x="233.30078125" xlink:href="#ArialMT-43"/>
     <use x="305.517578125" xlink:href="#ArialMT-4d"/>
     <use x="388.818359375" xlink:href="#ArialMT-41"/>
     <use x="455.517578125" xlink:href="#ArialMT-2d"/>
     <use x="488.818359375" xlink:href="#ArialMT-45"/>
    </g>
   </g>
   <g id="text_18">
    <!-- best 2009 -->
    <defs>
     <path d="
M14.7031 0
L6.54688 0
L6.54688 71.5781
L15.3281 71.5781
L15.3281 46.0469
Q20.9062 53.0312 29.5469 53.0312
Q34.3281 53.0312 38.5938 51.0938
Q42.875 49.1719 45.625 45.6719
Q48.3906 42.1875 49.9531 37.25
Q51.5156 32.3281 51.5156 26.7031
Q51.5156 13.375 44.9219 6.09375
Q38.3281 -1.17188 29.1094 -1.17188
Q19.9219 -1.17188 14.7031 6.5
z

M14.5938 26.3125
Q14.5938 17 17.1406 12.8438
Q21.2969 6.0625 28.375 6.0625
Q34.125 6.0625 38.3281 11.0625
Q42.5312 16.0625 42.5312 25.9844
Q42.5312 36.1406 38.5 40.9688
Q34.4688 45.7969 28.7656 45.7969
Q23 45.7969 18.7969 40.7969
Q14.5938 35.7969 14.5938 26.3125" id="ArialMT-62"/>
     <path d="
M5.46875 16.5469
L13.9219 17.3281
Q14.9844 11.375 18.0156 8.6875
Q21.0469 6 25.7812 6
Q29.8281 6 32.875 7.85938
Q35.9375 9.71875 37.8906 12.8125
Q39.8438 15.9219 41.1562 21.1875
Q42.4844 26.4688 42.4844 31.9375
Q42.4844 32.5156 42.4375 33.6875
Q39.7969 29.5 35.2344 26.875
Q30.6719 24.2656 25.3438 24.2656
Q16.4531 24.2656 10.2969 30.7031
Q4.15625 37.1562 4.15625 47.7031
Q4.15625 58.5938 10.5781 65.2344
Q17 71.875 26.6562 71.875
Q33.6406 71.875 39.4219 68.1094
Q45.2188 64.3594 48.2188 57.3906
Q51.2188 50.4375 51.2188 37.25
Q51.2188 23.5312 48.2344 15.4062
Q45.2656 7.28125 39.375 3.03125
Q33.5 -1.21875 25.5938 -1.21875
Q17.1875 -1.21875 11.8594 3.4375
Q6.54688 8.10938 5.46875 16.5469
M41.4531 48.1406
Q41.4531 55.7188 37.4219 60.1562
Q33.4062 64.5938 27.7344 64.5938
Q21.875 64.5938 17.5312 59.8125
Q13.1875 55.0312 13.1875 47.4062
Q13.1875 40.5781 17.3125 36.2969
Q21.4375 32.0312 27.4844 32.0312
Q33.5938 32.0312 37.5156 36.2969
Q41.4531 40.5781 41.4531 48.1406" id="ArialMT-39"/>
    </defs>
    <g transform="translate(492.0 27.0666112314)scale(0.15 -0.15)">
     <use xlink:href="#ArialMT-62"/>
     <use x="55.615234375" xlink:href="#ArialMT-65"/>
     <use x="111.23046875" xlink:href="#ArialMT-73"/>
     <use x="161.23046875" xlink:href="#ArialMT-74"/>
     <use x="189.013671875" xlink:href="#ArialMT-20"/>
     <use x="216.796875" xlink:href="#ArialMT-32"/>
     <use x="272.412109375" xlink:href="#ArialMT-30"/>
     <use x="328.02734375" xlink:href="#ArialMT-30"/>
     <use x="383.642578125" xlink:href="#ArialMT-39"/>
    </g>
   </g>
   <g id="text_19">
    <!-- bbob - f1-f5, 3-D -->
    <defs>
     <path d="
M8.89062 0
L8.89062 10.0156
L18.8906 10.0156
L18.8906 0
Q18.8906 -5.51562 16.9375 -8.90625
Q14.9844 -12.3125 10.75 -14.1562
L8.29688 -10.4062
Q11.0781 -9.1875 12.3906 -6.8125
Q13.7188 -4.4375 13.875 0
z
" id="ArialMT-2c"/>
     <path d="
M4.15625 18.75
L13.375 19.5312
Q14.4062 12.7969 18.1406 9.39062
Q21.875 6 27.1562 6
Q33.5 6 37.8906 10.7812
Q42.2812 15.5781 42.2812 23.4844
Q42.2812 31 38.0625 35.3438
Q33.8438 39.7031 27 39.7031
Q22.75 39.7031 19.3281 37.7656
Q15.9219 35.8438 13.9688 32.7656
L5.71875 33.8438
L12.6406 70.6094
L48.25 70.6094
L48.25 62.2031
L19.6719 62.2031
L15.8281 42.9688
Q22.2656 47.4688 29.3438 47.4688
Q38.7188 47.4688 45.1562 40.9688
Q51.6094 34.4688 51.6094 24.2656
Q51.6094 14.5469 45.9531 7.46875
Q39.0625 -1.21875 27.1562 -1.21875
Q17.3906 -1.21875 11.2031 4.25
Q5.03125 9.71875 4.15625 18.75" id="ArialMT-35"/>
    </defs>
    <g transform="translate(89.664 31.7604459468)scale(0.1666 -0.1666)">
     <use xlink:href="#ArialMT-62"/>
     <use x="55.615234375" xlink:href="#ArialMT-62"/>
     <use x="111.23046875" xlink:href="#ArialMT-6f"/>
     <use x="166.845703125" xlink:href="#ArialMT-62"/>
     <use x="222.4609375" xlink:href="#ArialMT-20"/>
     <use x="250.244140625" xlink:href="#ArialMT-2d"/>
     <use x="283.544921875" xlink:href="#ArialMT-20"/>
     <use x="311.328125" xlink:href="#ArialMT-66"/>
     <use x="339.111328125" xlink:href="#ArialMT-31"/>
     <use x="394.7265625" xlink:href="#ArialMT-2d"/>
     <use x="428.02734375" xlink:href="#ArialMT-66"/>
     <use x="455.810546875" xlink:href="#ArialMT-35"/>
     <use x="511.42578125" xlink:href="#ArialMT-2c"/>
     <use x="539.208984375" xlink:href="#ArialMT-20"/>
     <use x="566.9921875" xlink:href="#ArialMT-33"/>
     <use x="622.607421875" xlink:href="#ArialMT-2d"/>
     <use x="655.908203125" xlink:href="#ArialMT-44"/>
    </g>
    <!-- 31 target RLs/dim: 0.5..50 -->
    <defs>
     <path d="
M7.85938 0
L7.85938 71.5781
L39.5938 71.5781
Q49.1719 71.5781 54.1406 69.6406
Q59.125 67.7188 62.1094 62.8281
Q65.0938 57.9531 65.0938 52.0469
Q65.0938 44.4375 60.1562 39.2031
Q55.2188 33.9844 44.9219 32.5625
Q48.6875 30.7656 50.6406 29
Q54.7812 25.2031 58.5 19.4844
L70.9531 0
L59.0312 0
L49.5625 14.8906
Q45.4062 21.3438 42.7188 24.75
Q40.0469 28.1719 37.9219 29.5312
Q35.7969 30.9062 33.5938 31.4531
Q31.9844 31.7812 28.3281 31.7812
L17.3281 31.7812
L17.3281 0
z

M17.3281 39.9844
L37.7031 39.9844
Q44.1875 39.9844 47.8438 41.3281
Q51.5156 42.6719 53.4219 45.625
Q55.3281 48.5781 55.3281 52.0469
Q55.3281 57.125 51.6406 60.3906
Q47.9531 63.6719 39.9844 63.6719
L17.3281 63.6719
z
" id="ArialMT-52"/>
     <path d="
M9.03125 41.8438
L9.03125 51.8594
L19.0469 51.8594
L19.0469 41.8438
z

M9.03125 0
L9.03125 10.0156
L19.0469 10.0156
L19.0469 0
z
" id="ArialMT-3a"/>
     <path d="
M7.32812 0
L7.32812 71.5781
L16.7969 71.5781
L16.7969 8.45312
L52.0469 8.45312
L52.0469 0
z
" id="ArialMT-4c"/>
    </defs>
    <g transform="translate(89.664 49.6251721968)scale(0.1666 -0.1666)">
     <use xlink:href="#ArialMT-33"/>
     <use x="55.615234375" xlink:href="#ArialMT-31"/>
     <use x="111.23046875" xlink:href="#ArialMT-20"/>
     <use x="139.013671875" xlink:href="#ArialMT-74"/>
     <use x="166.796875" xlink:href="#ArialMT-61"/>
     <use x="222.412109375" xlink:href="#ArialMT-72"/>
     <use x="255.712890625" xlink:href="#ArialMT-67"/>
     <use x="311.328125" xlink:href="#ArialMT-65"/>
     <use x="366.943359375" xlink:href="#ArialMT-74"/>
     <use x="394.7265625" xlink:href="#ArialMT-20"/>
     <use x="422.509765625" xlink:href="#ArialMT-52"/>
     <use x="494.7265625" xlink:href="#ArialMT-4c"/>
     <use x="550.341796875" xlink:href="#ArialMT-73"/>
     <use x="600.341796875" xlink:href="#ArialMT-2f"/>
     <use x="628.125" xlink:href="#ArialMT-64"/>
     <use x="683.740234375" xlink:href="#ArialMT-69"/>
     <use x="705.95703125" xlink:href="#ArialMT-6d"/>
     <use x="789.2578125" xlink:href="#ArialMT-3a"/>
     <use x="817.041015625" xlink:href="#ArialMT-20"/>
     <use x="844.82421875" xlink:href="#ArialMT-30"/>
     <use x="900.439453125" xlink:href="#ArialMT-2e"/>
     <use x="928.22265625" xlink:href="#ArialMT-35"/>
     <use x="983.837890625" xlink:href="#ArialMT-2e"/>
     <use x="1011.62109375" xlink:href="#ArialMT-2e"/>
     <use x="1039.40429688" xlink:href="#ArialMT-35"/>
     <use x="1095.01953125" xlink:href="#ArialMT-30"/>
    </g>
    <!--    from refalgs/best2009-bbob.tar.gz -->
    <defs>
     <path d="
M1.95312 0
L1.95312 7.125
L34.9688 45.0156
Q29.3438 44.7344 25.0469 44.7344
L3.90625 44.7344
L3.90625 51.8594
L46.2969 51.8594
L46.2969 46.0469
L18.2188 13.1406
L12.7969 7.125
Q18.7031 7.5625 23.875 7.5625
L47.8594 7.5625
L47.8594 0
z
" id="ArialMT-7a"/>
    </defs>
    <g transform="translate(89.664 67.6851328218)scale(0.1666 -0.1666)">
     <use xlink:href="#ArialMT-20"/>
     <use x="27.783203125" xlink:href="#ArialMT-20"/>
     <use x="55.56640625" xlink:href="#ArialMT-20"/>
     <use x="83.349609375" xlink:href="#ArialMT-66"/>
     <use x="111.1328125" xlink:href="#ArialMT-72"/>
     <use x="144.43359375" xlink:href="#ArialMT-6f"/>
     <use x="200.048828125" xlink:href="#ArialMT-6d"/>
     <use x="283.349609375" xlink:href="#ArialMT-20"/>
     <use x="311.1328125" xlink:href="#ArialMT-72"/>
     <use x="344.43359375" xlink:href="#ArialMT-65"/>
     <use x="400.048828125" xlink:href="#ArialMT-66"/>
     <use x="427.83203125" xlink:href="#ArialMT-61"/>
     <use x="483.447265625" xlink:href="#ArialMT-6c"/>
     <use x="505.6640625" xlink:href="#ArialMT-67"/>
     <use x="561.279296875" xlink:href="#ArialMT-73"/>
     <use x="611.279296875" xlink:href="#ArialMT-2f"/>
     <use x="639.0625" xlink:href="#ArialMT-62"/>
     <use x="694.677734375" xlink:href="#ArialMT-65"/>
     <use x="750.29296875" xlink:href="#ArialMT-73"/>
     <use x="800.29296875" xlink:href="#ArialMT-74"/>
     <use x="828.076171875" xlink:href="#ArialMT-32"/>
     <use x="883.69140625" xlink:href="#ArialMT-30"/>
     <use x="939.306640625" xlink:href="#ArialMT-30"/>
     <use x="994.921875" xlink:href="#ArialMT-39"/>
     <use x="1050.53710938" xlink:href="#ArialMT-2d"/>
     <use x="1083.83789062" xlink:href="#ArialMT-62"/>
     <use x="1139.453125" xlink:href="#ArialMT-62"/>
     <use x="1195.06835938" xlink:href="#ArialMT-6f"/>
     <use x="1250.68359375" xlink:href="#ArialMT-62"/>
     <use x="1306.29882812" xlink:href="#ArialMT-2e"/>
     <use x="1334.08203125" xlink:href="#ArialMT-74"/>
     <use x="1361.86523438" xlink:href="#ArialMT-61"/>
     <use x="1417.48046875" xlink:href="#ArialMT-72"/>
     <use x="1445.28125" xlink:href="#ArialMT-2e"/>
     <use x="1473.06445312" xlink:href="#ArialMT-67"/>
     <use x="1528.6796875" xlink:href="#ArialMT-7a"/>
    </g>
    <!-- 15 instances -->
    <g transform="translate(89.664 85.5014409468)scale(0.1666 -0.1666)">
     <use xlink:href="#ArialMT-31"/>
     <use x="55.615234375" xlink:href="#ArialMT-35"/>
     <use x="111.23046875" xlink:href="#ArialMT-20"/>
     <use x="139.013671875" xlink:href="#ArialMT-69"/>
     <use x="161.23046875" xlink:href="#ArialMT-6e"/>
     <use x="216.845703125" xlink:href="#ArialMT-73"/>
     <use x="266.845703125" xlink:href="#ArialMT-74"/>
     <use x="294.62890625" xlink:href="#ArialMT-61"/>
     <use x="350.244140625" xlink:href="#ArialMT-6e"/>
     <use x="405.859375" xlink:href="#ArialMT-63"/>
     <use x="455.859375" xlink:href="#ArialMT-65"/>
     <use x="511.474609375" xlink:href="#ArialMT-73"/>
    </g>
   </g>
   <g id="text_20">
    <!-- v2.0.1 -->
    <g style="fill:#808080;" transform="translate(295.76171875 353.080030322)scale(0.1 -0.1)">
     <use xlink:href="#ArialMT-76"/>
     <use x="50.0" xlink:href="#ArialMT-32"/>
     <use x="105.615234375" xlink:href="#ArialMT-2e"/>
     <use x="133.3984375" xlink:href="#ArialMT-30"/>
     <use x="189.013671875" xlink:href="#ArialMT-2e"/>
     <use x="216.796875" xlink:href="#ArialMT-31"/>
    </g>
   </g>
  </g>
 </g>
 <defs>
  <clipPath id="p0cd469f449">
   <rect height="345.6" width="446.4" x="85.2" y="12.9235303218"/>
  </clipPath>
 </defs>
</svg>
