<?xml version="1.0" encoding="utf-8" standalone="no"?>
<!DOCTYPE svg PUBLIC "-//W3C//DTD SVG 1.1//EN"
  "http://www.w3.org/Graphics/SVG/1.1/DTD/svg11.dtd">
<!-- Created with matplotlib (http://matplotlib.org/) -->
<svg height="414pt" version="1.1" viewBox="0 0 616 414" width="616pt" xmlns="http://www.w3.org/2000/svg" xmlns:xlink="http://www.w3.org/1999/xlink">
 <defs>
  <style type="text/css">
*{stroke-linecap:butt;stroke-linejoin:round;}
  </style>
 </defs>
 <g id="figure_1">
  <g id="patch_1">
   <path d="
M0 414.924
L616.924 414.924
L616.924 0
L0 0
z
" style="fill:#ffffff;"/>
  </g>
  <g id="axes_1">
   <g id="patch_2">
    <path d="
M163.324 358.524
L609.724 358.524
L609.724 12.9235
L163.324 12.9235
z
" style="fill:#ffffff;"/>
   </g>
   <g id="line2d_1">
    <defs>
     <path d="
M0 1.5
C0.397805 1.5 0.77937 1.34195 1.06066 1.06066
C1.34195 0.77937 1.5 0.397805 1.5 0
C1.5 -0.397805 1.34195 -0.77937 1.06066 -1.06066
C0.77937 -1.34195 0.397805 -1.5 0 -1.5
C-0.397805 -1.5 -0.77937 -1.34195 -1.06066 -1.06066
C-1.34195 -0.77937 -1.5 -0.397805 -1.5 0
C-1.5 0.397805 -1.34195 0.77937 -1.06066 1.06066
C-0.77937 1.34195 -0.397805 1.5 0 1.5
z
" id="m977c291b42" style="stroke:#00bfbf;stroke-width:0.5;"/>
    </defs>
    <g>
     <use style="fill:#00bfbf;stroke:#00bfbf;stroke-width:0.5;" x="573.648888096" xlink:href="#m977c291b42" y="16.3453125"/>
     <use style="fill:#00bfbf;stroke:#00bfbf;stroke-width:0.5;" x="573.648888096" xlink:href="#m977c291b42" y="16.3453125"/>
    </g>
   </g>
   <g id="line2d_2">
    <path d="
M127.2 327.281
L163.324 327.281
L163.324 315.379
L184.455 315.379
L184.455 299.758
L199.447 299.758
L199.447 290.088
L211.076 290.088
L211.076 281.161
L220.578 281.161
L220.578 276.698
L228.612 276.698
L228.612 275.211
L235.571 275.211
L235.571 273.723
L241.709 273.723
L241.709 266.284
L247.2 266.284
L247.2 264.796
L252.167 264.796
L252.167 261.821
L256.702 261.821
L256.702 258.846
L264.735 258.846
L264.735 257.358
L268.331 257.358
L268.331 255.87
L271.694 255.87
L271.694 252.895
L274.854 252.895
L274.854 252.151
L277.833 252.151
L277.833 240.249
L280.65 240.249
L280.65 235.786
L283.324 235.786
L283.324 229.835
L285.866 229.835
L285.866 226.859
L288.291 226.859
L288.291 220.908
L290.607 220.908
L290.607 218.677
L292.825 218.677
L292.825 215.701
L294.953 215.701
L294.953 209.007
L296.997 209.007
L296.997 199.336
L298.964 199.336
L298.964 191.898
L300.859 191.898
L300.859 190.41
L304.455 190.41
L304.455 182.227
L306.163 182.227
L306.163 179.252
L307.818 179.252
L307.818 177.02
L310.977 177.02
L310.977 176.276
L312.488 176.276
L312.488 174.045
L313.956 174.045
L313.956 171.069
L315.384 171.069
L315.384 169.582
L316.774 169.582
L316.774 168.094
L318.128 168.094
L318.128 166.606
L319.447 166.606
L319.447 160.655
L320.734 160.655
L320.734 159.911
L321.99 159.911
L321.99 157.68
L323.216 157.68
L323.216 155.448
L325.586 155.448
L325.586 152.473
L326.731 152.473
L326.731 149.497
L327.852 149.497
L327.852 145.034
L330.024 145.034
L330.024 141.315
L331.076 141.315
L331.076 138.339
L332.108 138.339
L332.108 136.852
L333.12 136.852
L333.12 135.364
L334.113 135.364
L334.113 133.132
L336.044 133.132
L336.044 131.644
L336.983 131.644
L336.983 127.925
L337.905 127.925
L337.905 127.181
L339.702 127.181
L339.702 126.437
L340.578 126.437
L340.578 125.694
L347.862 125.694
L347.862 124.95
L403.584 124.95
L403.584 123.462
L403.842 123.462
L403.842 122.718
L404.1 122.718
L404.1 121.23
L405.866 121.23
L405.866 120.487
L406.36 120.487
L406.36 118.255
L407.815 118.255
L407.815 115.279
L408.053 115.279
L408.053 113.792
L408.762 113.792
L408.762 113.048
L409.23 113.048
L409.23 110.816
L409.462 110.816
L409.462 109.329
L409.693 109.329
L409.693 108.585
L409.923 108.585
L409.923 107.841
L410.152 107.841
L410.152 107.097
L410.607 107.097
L410.607 106.353
L410.833 106.353
L410.833 105.609
L411.059 105.609
L411.059 104.865
L411.506 104.865
L411.506 104.121
L411.728 104.121
L411.728 103.378
L411.949 103.378
L411.949 102.634
L412.17 102.634
L412.17 101.89
L412.389 101.89
L412.389 101.146
L412.825 101.146
L412.825 98.1705
L413.258 98.1705
L413.258 97.4267
L413.687 97.4267
L413.687 96.6828
L413.9 96.6828
L413.9 94.4512
L414.112 94.4512
L414.112 93.7073
L414.324 93.7073
L414.324 92.9635
L414.744 92.9635
L414.744 91.4757
L415.161 91.4757
L415.161 89.988
L415.574 89.988
L415.574 89.2442
L415.985 89.2442
L415.985 86.2687
L416.189 86.2687
L416.189 84.0371
L416.997 84.0371
L416.997 81.8055
L439.707 81.8055
L439.707 81.0616
L440.734 81.0616
L440.734 80.3178
L441.741 80.3178
L441.741 78.83
L441.866 78.83
L441.866 77.3423
L442.237 77.3423
L442.237 76.5984
L442.484 76.5984
L442.484 75.8546
L442.729 75.8546
L442.729 75.1107
L442.851 75.1107
L442.851 73.623
L443.216 73.623
L443.216 72.8791
L444.058 72.8791
L444.058 72.1352
L444.414 72.1352
L444.414 70.6475
L444.533 70.6475
L444.533 69.9036
L445.12 69.9036
L445.12 69.1598
L445.237 69.1598
L445.237 68.4159
L445.47 68.4159
L445.47 66.1843
L445.586 66.1843
L445.586 65.4404
L445.701 65.4404
L445.701 64.6966
L446.276 64.6966
L446.276 63.2089
L446.39 63.2089
L446.39 62.465
L446.731 62.465
L446.731 61.7211
L448.403 61.7211
L448.403 60.9773
L462.706 60.9773
L462.706 60.2334
L463.121 60.2334
L463.121 59.4895
L463.286 59.4895
L463.286 58.7457
L463.451 58.7457
L463.451 58.0018
L463.942 58.0018
L464.023 56.5141
L464.428 56.5141
L464.428 55.7702
L464.669 55.7702
L464.75 54.2825
L465.149 54.2825
L465.228 52.7947
L465.545 52.7947
L465.545 52.0509
L476.603 52.0509
L476.603 51.307
L477.238 51.307
L477.238 50.5631
L477.489 50.5631
L477.489 49.8193
L477.74 49.8193
L477.74 49.0754
L478.114 49.0754
L478.114 46.8438
L478.484 46.8438
L478.546 45.3561
L478.792 45.3561
L478.792 44.6122
L479.097 44.6122
L479.097 43.8683
L488.181 43.8683
L488.181 43.1245
L488.334 43.1245
L488.334 42.3806
L489.244 42.3806
L489.294 40.149
L489.444 40.149
L489.444 39.4051
L489.743 39.4051
L489.792 37.1736
L490.04 37.1736
L490.04 36.4297
L498.787 36.4297
L498.787 35.6858
L498.954 35.6858
L499.037 34.1981
L499.079 34.1981
L499.079 33.4542
L499.244 33.4542
L499.244 32.7104
L505.84 32.7104
L505.913 31.2226
L506.564 31.2226
L506.564 30.4788
L506.779 30.4788
L506.779 28.991
L512.663 28.991
L512.663 28.2472
L512.981 28.2472
L512.981 27.5033
L523.324 27.5033
L523.324 27.5033" style="fill:none;stroke:#00bfbf;stroke-linecap:square;stroke-width:1.5;"/>
   </g>
   <g id="line2d_3">
    <defs>
     <path d="
M-6 0
L6 0
M0 6
L0 -6" id="m3e4de746de" style="stroke:#00bfbf;stroke-width:1.5;"/>
    </defs>
    <g>
     <use style="fill:none;stroke:#00bfbf;stroke-width:1.5;" x="235.570798439" xlink:href="#m3e4de746de" y="273.722841557"/>
     <use style="fill:none;stroke:#00bfbf;stroke-width:1.5;" x="313.956300092" xlink:href="#m3e4de746de" y="174.044838974"/>
     <use style="fill:none;stroke:#00bfbf;stroke-width:1.5;" x="347.861890888" xlink:href="#m3e4de746de" y="124.949703374"/>
     <use style="fill:none;stroke:#00bfbf;stroke-width:1.5;" x="463.120865934" xlink:href="#m3e4de746de" y="60.2333882641"/>
     <use style="fill:none;stroke:#00bfbf;stroke-width:1.5;" x="512.981261766" xlink:href="#m3e4de746de" y="27.5032978638"/>
     <use style="fill:none;stroke:#00bfbf;stroke-width:1.5;" x="523.32359948" xlink:href="#m3e4de746de" y="27.5032978638"/>
    </g>
   </g>
   <g id="line2d_4"/>
   <g id="line2d_5">
    <path clip-path="url(#pebde201112)" d="
M403.324 124.95" style="fill:none;stroke:#00bfbf;stroke-linecap:square;"/>
    <defs>
     <path d="
M-12 12
L12 -12
M-12 -12
L12 12" id="m09e435d1d9" style="stroke:#00bfbf;stroke-width:3;"/>
    </defs>
    <g clip-path="url(#pebde201112)">
     <use style="fill:#00bfbf;stroke:#00bfbf;stroke-width:3;" x="403.32359948" xlink:href="#m09e435d1d9" y="124.949703374"/>
    </g>
   </g>
   <g id="line2d_6">
    <defs>
     <path d="
M0 1.5
C0.397805 1.5 0.77937 1.34195 1.06066 1.06066
C1.34195 0.77937 1.5 0.397805 1.5 0
C1.5 -0.397805 1.34195 -0.77937 1.06066 -1.06066
C0.77937 -1.34195 0.397805 -1.5 0 -1.5
C-0.397805 -1.5 -0.77937 -1.34195 -1.06066 -1.06066
C-1.34195 -0.77937 -1.5 -0.397805 -1.5 0
C-1.5 0.397805 -1.34195 0.77937 -1.06066 1.06066
C-0.77937 1.34195 -0.397805 1.5 0 1.5
z
" id="mb0b177905e" style="stroke:#008000;stroke-width:0.5;"/>
    </defs>
    <g>
     <use style="fill:#008000;stroke:#008000;stroke-width:0.5;" x="545.041869174" xlink:href="#mb0b177905e" y="58.0743634539"/>
     <use style="fill:#008000;stroke:#008000;stroke-width:0.5;" x="545.041869174" xlink:href="#mb0b177905e" y="58.0743634539"/>
    </g>
   </g>
   <g id="line2d_7">
    <path d="
M142.193 322.637
L163.324 322.637
L163.324 311.787
L178.316 311.787
L178.316 305.945
L189.945 305.945
L189.945 302.607
L199.447 302.607
L199.447 300.937
L207.481 300.937
L207.481 296.765
L214.44 296.765
L214.44 292.592
L220.578 292.592
L220.578 283.411
L226.069 283.411
L226.069 280.907
L235.571 280.907
L235.571 279.238
L239.742 279.238
L239.742 278.404
L250.563 278.404
L250.563 275.065
L253.723 275.065
L253.723 270.893
L256.702 270.893
L256.702 268.389
L259.519 268.389
L259.519 262.547
L262.193 262.547
L262.193 260.878
L267.16 260.878
L267.16 256.705
L271.694 256.705
L271.694 252.532
L273.822 252.532
L273.822 247.524
L275.866 247.524
L275.866 240.848
L277.833 240.848
L277.833 238.344
L279.728 238.344
L279.728 227.494
L281.557 227.494
L281.557 225.825
L283.324 225.825
L283.324 224.991
L285.032 224.991
L285.032 221.652
L286.687 221.652
L286.687 216.645
L288.291 216.645
L288.291 214.976
L289.847 214.976
L289.847 208.299
L291.357 208.299
L291.357 207.464
L294.253 207.464
L294.253 204.126
L295.643 204.126
L295.643 198.284
L296.997 198.284
L296.997 194.946
L300.859 194.946
L300.859 194.111
L302.085 194.111
L302.085 188.269
L303.283 188.269
L303.283 187.434
L304.455 187.434
L304.455 184.096
L305.6 184.096
L305.6 182.427
L306.721 182.427
L306.721 180.758
L307.818 180.758
L307.818 176.585
L308.893 176.585
L308.893 174.916
L309.945 174.916
L309.945 171.577
L310.977 171.577
L310.977 169.074
L311.989 169.074
L311.989 163.232
L312.982 163.232
L312.982 162.397
L313.956 162.397
L313.956 161.562
L314.913 161.562
L314.913 160.728
L316.774 160.728
L316.774 158.224
L319.447 158.224
L319.447 155.72
L321.99 155.72
L321.99 154.051
L322.811 154.051
L322.811 151.547
L324.414 151.547
L324.414 150.713
L325.97 150.713
L325.97 149.878
L327.481 149.878
L327.481 149.044
L328.22 149.044
L328.22 145.705
L330.377 145.705
L330.377 144.036
L331.076 144.036
L331.076 143.202
L332.448 143.202
L332.448 142.367
L335.727 142.367
L335.727 141.532
L338.811 141.532
L338.811 140.698
L339.407 140.698
L339.407 139.863
L340.578 139.863
L340.578 139.029
L341.154 139.029
L341.154 137.36
L342.287 137.36
L342.287 136.525
L346.588 136.525
L346.588 135.69
L348.113 135.69
L348.113 134.856
L350.08 134.856
L350.08 133.187
L360.538 133.187
L360.538 131.517
L403.67 131.517
L403.67 130.683
L404.014 130.683
L404.014 129.848
L404.185 129.848
L404.185 129.014
L404.356 129.014
L404.356 128.179
L406.196 128.179
L406.196 127.345
L406.524 127.345
L406.524 126.51
L406.85 126.51
L406.85 124.841
L408.606 124.841
L408.606 124.006
L409.074 124.006
L409.074 123.172
L409.693 123.172
L409.693 122.337
L410 122.337
L410 120.668
L410.152 120.668
L410.152 119.833
L410.304 119.833
L410.304 118.999
L410.456 118.999
L410.456 118.164
L411.357 118.164
L411.357 117.33
L411.506 117.33
L411.506 111.488
L411.654 111.488
L411.654 110.653
L411.802 110.653
L411.802 109.818
L412.096 109.818
L412.096 108.984
L412.389 108.984
L412.389 107.315
L412.825 107.315
L412.825 106.48
L413.258 106.48
L413.258 103.142
L413.401 103.142
L413.401 101.473
L413.829 101.473
L413.829 100.638
L414.253 100.638
L414.253 99.8034
L414.394 99.8034
L414.394 98.1343
L415.23 98.1343
L415.23 96.4651
L416.997 96.4651
L416.997 95.6305
L418.446 95.6305
L418.446 94.7959
L442.892 94.7959
L442.892 93.9613
L443.216 93.9613
L443.297 92.2922
L443.458 92.2922
L443.538 88.1193
L443.699 88.1193
L443.699 83.9464
L443.938 83.9464
L443.938 83.1118
L444.177 83.1118
L444.177 82.2772
L444.651 82.2772
L444.651 80.6081
L446.731 80.6081
L446.731 79.7735
L462.175 79.7735
L462.175 78.9389
L462.343 78.9389
L462.343 78.1043
L463.286 78.1043
L463.396 76.4351
L463.451 76.4351
L463.451 75.6006
L463.615 75.6006
L463.669 73.9314
L463.778 73.9314
L463.778 73.0968
L464.589 73.0968
L464.589 72.2622
L464.75 72.2622
L464.75 71.4277
L467.711 71.4277
L467.711 70.5931
L477.865 70.5931
L477.948 68.9239
L488.639 68.9239
L488.639 68.0893
L491.595 68.0893
L491.595 67.2548
L497.96 67.2548
L497.96 66.4202
L498.298 66.4202
L498.298 65.5856
L505.816 65.5856
L505.816 64.751
L506.059 64.751
L506.059 63.9164
L506.612 63.9164
L506.612 63.0818
L512.299 63.0818
L512.299 62.2473
L512.896 62.2473
L512.896 60.5781
L518.903 60.5781
L518.903 59.7435
L523.324 59.7435
L523.324 59.7435" style="fill:none;stroke:#008000;stroke-linecap:square;stroke-width:1.5;"/>
   </g>
   <g id="line2d_8">
    <defs>
     <path d="
M-7.34788e-16 6
L6 -6
L-6 -6
z
" id="m397e16cd68" style="stroke:#008000;stroke-linejoin:miter;stroke-width:1.5;"/>
    </defs>
    <g>
     <use style="fill:none;stroke:#008000;stroke-linejoin:miter;stroke-width:1.5;" x="106.069048913" xlink:href="#m397e16cd68" y="335.989842807"/>
     <use style="fill:none;stroke:#008000;stroke-linejoin:miter;stroke-width:1.5;" x="239.74225119" xlink:href="#m397e16cd68" y="279.238333509"/>
     <use style="fill:none;stroke:#008000;stroke-linejoin:miter;stroke-width:1.5;" x="303.283370092" xlink:href="#m397e16cd68" y="187.434421411"/>
     <use style="fill:none;stroke:#008000;stroke-linejoin:miter;stroke-width:1.5;" x="403.669882068" xlink:href="#m397e16cd68" y="130.682912114"/>
     <use style="fill:none;stroke:#008000;stroke-linejoin:miter;stroke-width:1.5;" x="477.947805641" xlink:href="#m397e16cd68" y="68.9239167019"/>
     <use style="fill:none;stroke:#008000;stroke-linejoin:miter;stroke-width:1.5;" x="523.32359948" xlink:href="#m397e16cd68" y="59.743525492"/>
    </g>
   </g>
   <g id="line2d_9"/>
   <g id="line2d_10">
    <path clip-path="url(#pebde201112)" d="
M403.324 131.517" style="fill:none;stroke:#008000;stroke-linecap:square;"/>
    <defs>
     <path d="
M-12 12
L12 -12
M-12 -12
L12 12" id="m8c089fa6cd" style="stroke:#008000;stroke-width:3;"/>
    </defs>
    <g clip-path="url(#pebde201112)">
     <use style="fill:#008000;stroke:#008000;stroke-width:3;" x="403.32359948" xlink:href="#m8c089fa6cd" y="131.517493133"/>
    </g>
   </g>
   <g id="line2d_11">
    <defs>
     <path d="
M0 1.5
C0.397805 1.5 0.77937 1.34195 1.06066 1.06066
C1.34195 0.77937 1.5 0.397805 1.5 0
C1.5 -0.397805 1.34195 -0.77937 1.06066 -1.06066
C0.77937 -1.34195 0.397805 -1.5 0 -1.5
C-0.397805 -1.5 -0.77937 -1.34195 -1.06066 -1.06066
C-1.34195 -0.77937 -1.5 -0.397805 -1.5 0
C-1.5 0.397805 -1.34195 0.77937 -1.06066 1.06066
C-0.77937 1.34195 -0.397805 1.5 0 1.5
z
" id="m76a7ce5b4a" style="stroke:#0000ff;stroke-width:0.5;"/>
    </defs>
    <g>
     <use style="fill:#0000ff;stroke:#0000ff;stroke-width:0.5;" x="519.012115947" xlink:href="#m76a7ce5b4a" y="49.4593335795"/>
     <use style="fill:#0000ff;stroke:#0000ff;stroke-width:0.5;" x="519.012115947" xlink:href="#m76a7ce5b4a" y="49.4593335795"/>
    </g>
   </g>
   <g id="line2d_12">
    <path d="
M151.694 343.07
L163.324 343.07
L163.324 336.448
L172.825 336.448
L172.825 335.344
L180.859 335.344
L180.859 333.136
L187.818 333.136
L187.818 328.721
L193.956 328.721
L193.956 319.891
L199.447 319.891
L199.447 311.06
L208.949 311.06
L208.949 307.749
L238.114 307.749
L238.114 305.541
L240.538 305.541
L240.538 296.711
L242.855 296.711
L242.855 294.503
L245.073 294.503
L245.073 291.192
L247.2 291.192
L247.2 290.088
L249.244 290.088
L249.244 286.776
L251.211 286.776
L251.211 273.531
L253.106 273.531
L253.106 270.219
L254.935 270.219
L254.935 265.804
L256.702 265.804
L256.702 264.7
L258.411 264.7
L258.411 260.285
L260.065 260.285
L260.065 258.078
L263.225 258.078
L263.225 255.87
L264.735 255.87
L264.735 252.559
L266.203 252.559
L266.203 248.143
L267.631 248.143
L267.631 240.417
L269.021 240.417
L269.021 238.209
L270.375 238.209
L270.375 233.794
L271.694 233.794
L271.694 228.275
L272.981 228.275
L272.981 227.171
L274.237 227.171
L274.237 226.067
L275.463 226.067
L275.463 223.86
L276.662 223.86
L276.662 221.652
L277.833 221.652
L277.833 220.548
L280.099 220.548
L280.099 219.445
L281.196 219.445
L281.196 215.029
L282.271 215.029
L282.271 213.926
L283.324 213.926
L283.324 212.822
L284.356 212.822
L284.356 211.718
L285.368 211.718
L285.368 208.407
L286.36 208.407
L286.36 207.303
L287.334 207.303
L287.334 206.199
L288.291 206.199
L288.291 202.888
L289.23 202.888
L289.23 197.369
L290.152 197.369
L290.152 195.161
L291.059 195.161
L291.059 191.85
L291.949 191.85
L291.949 187.434
L293.687 187.434
L293.687 184.123
L294.534 184.123
L294.534 181.915
L295.368 181.915
L295.368 177.5
L296.189 177.5
L296.189 176.396
L297.792 176.396
L297.792 169.774
L298.576 169.774
L298.576 167.566
L300.109 167.566
L300.109 165.358
L301.598 165.358
L301.598 164.255
L302.327 164.255
L302.327 160.943
L304.455 160.943
L304.455 159.839
L305.826 159.839
L305.826 158.736
L306.499 158.736
L306.499 157.632
L307.818 157.632
L307.818 156.528
L308.465 156.528
L308.465 153.217
L310.361 153.217
L310.361 152.113
L310.977 152.113
L310.977 151.009
L311.587 151.009
L311.587 148.801
L312.19 148.801
L312.19 147.698
L312.785 147.698
L312.785 144.386
L313.374 144.386
L313.374 142.179
L313.956 142.179
L313.956 136.66
L315.102 136.66
L315.102 135.556
L317.86 135.556
L317.86 134.452
L321.491 134.452
L321.491 133.348
L325.353 133.348
L325.353 132.244
L327.182 132.244
L327.182 128.933
L327.63 128.933
L327.63 126.725
L328.073 126.725
L328.073 125.622
L332.718 125.622
L332.718 124.518
L333.12 124.518
L333.12 123.414
L334.309 123.414
L334.309 121.206
L334.7 121.206
L334.7 120.103
L335.854 120.103
L335.854 117.895
L341.268 117.895
L341.268 115.687
L346.794 115.687
L346.794 114.584
L348.612 114.584
L348.612 113.48
L404.253 113.48
L404.253 112.376
L406.262 112.376
L406.262 111.272
L406.459 111.272
L406.459 110.168
L406.85 110.168
L406.85 109.065
L407.238 109.065
L407.238 105.753
L407.719 105.753
L407.719 104.649
L408.291 104.649
L408.385 100.234
L408.48 100.234
L408.48 99.1304
L409.043 99.1304
L409.137 96.9228
L409.877 96.9228
L409.877 95.819
L410.061 95.819
L410.061 94.7152
L410.244 94.7152
L410.335 92.5076
L411.148 92.5076
L411.238 89.1962
L411.417 89.1962
L411.506 86.9886
L411.684 86.9886
L411.684 85.8848
L411.949 85.8848
L411.949 84.781
L413.085 84.781
L413.085 83.6772
L414.281 83.6772
L414.281 82.5734
L415.368 82.5734
L415.368 81.4696
L415.616 81.4696
L415.616 79.262
L416.026 79.262
L416.026 78.1582
L441.99 78.1582
L442.089 74.8467
L442.336 74.8467
L442.336 73.7429
L442.925 73.7429
L442.925 72.6391
L443.554 72.6391
L443.651 70.4315
L443.843 70.4315
L443.843 69.3277
L445.167 69.3277
L445.167 68.2239
L445.678 68.2239
L445.678 67.1201
L446.458 67.1201
L446.458 66.0163
L446.821 66.0163
L446.821 63.8087
L461.916 63.8087
L461.916 62.7049
L462.051 62.7049
L462.051 61.6011
L462.22 61.6011
L462.22 60.4973
L464.039 60.4973
L464.039 59.3935
L476.577 59.3935
L476.577 58.2897
L476.858 58.2897
L476.858 57.1859
L477.338 57.1859
L477.338 56.0821
L477.715 56.0821
L477.715 54.9783
L478.188 54.9783
L478.188 53.8745
L488.922 53.8745
L488.922 52.7707
L497.904 52.7707
L497.904 51.6669
L498.612 51.6669
L498.612 50.5631
L519.012 50.5631
L519.012 49.4593
L523.324 49.4593
L523.324 49.4593" style="fill:none;stroke:#0000ff;stroke-linecap:square;stroke-width:1.5;"/>
   </g>
   <g id="line2d_13">
    <defs>
     <path d="
M3.67394e-16 -6
L-1.34708 -1.8541
L-5.70634 -1.8541
L-2.17963 0.708204
L-3.52671 4.8541
L-4.20996e-16 2.2918
L3.52671 4.8541
L2.17963 0.708204
L5.70634 -1.8541
L1.34708 -1.8541
z
" id="m0933169453" style="stroke:#0000ff;stroke-linejoin:bevel;stroke-width:1.5;"/>
    </defs>
    <g>
     <use style="fill:none;stroke:#0000ff;stroke-linejoin:bevel;stroke-width:1.5;" x="193.956300092" xlink:href="#m0933169453" y="319.890505729"/>
     <use style="fill:none;stroke:#0000ff;stroke-linejoin:bevel;stroke-width:1.5;" x="266.203499051" xlink:href="#m0933169453" y="248.143460057"/>
     <use style="fill:none;stroke:#0000ff;stroke-linejoin:bevel;stroke-width:1.5;" x="304.454550566" xlink:href="#m0933169453" y="160.943204547"/>
     <use style="fill:none;stroke:#0000ff;stroke-linejoin:bevel;stroke-width:1.5;" x="410.334722415" xlink:href="#m0933169453" y="93.6113616856"/>
     <use style="fill:none;stroke:#0000ff;stroke-linejoin:bevel;stroke-width:1.5;" x="498.611949557" xlink:href="#m0933169453" y="50.5631342822"/>
     <use style="fill:none;stroke:#0000ff;stroke-linejoin:bevel;stroke-width:1.5;" x="523.32359948" xlink:href="#m0933169453" y="49.4593335795"/>
    </g>
   </g>
   <g id="line2d_14"/>
   <g id="line2d_15">
    <path clip-path="url(#pebde201112)" d="
M403.324 113.48" style="fill:none;stroke:#0000ff;stroke-linecap:square;"/>
    <defs>
     <path d="
M-12 12
L12 -12
M-12 -12
L12 12" id="ma4a355cd2c" style="stroke:#0000ff;stroke-width:3;"/>
    </defs>
    <g clip-path="url(#pebde201112)">
     <use style="fill:#0000ff;stroke:#0000ff;stroke-width:3;" x="403.32359948" xlink:href="#ma4a355cd2c" y="113.479774333"/>
    </g>
   </g>
   <g id="line2d_16">
    <defs>
     <path d="
M0 1.5
C0.397805 1.5 0.77937 1.34195 1.06066 1.06066
C1.34195 0.77937 1.5 0.397805 1.5 0
C1.5 -0.397805 1.34195 -0.77937 1.06066 -1.06066
C0.77937 -1.34195 0.397805 -1.5 0 -1.5
C-0.397805 -1.5 -0.77937 -1.34195 -1.06066 -1.06066
C-1.34195 -0.77937 -1.5 -0.397805 -1.5 0
C-1.5 0.397805 -1.34195 0.77937 -1.06066 1.06066
C-0.77937 1.34195 -0.397805 1.5 0 1.5
z
" id="m66763a63fb" style="stroke:#000000;stroke-width:0.5;"/>
    </defs>
    <g>
     <use style="stroke:#000000;stroke-width:0.5;" x="506.217973524" xlink:href="#m66763a63fb" y="29.5060131855"/>
     <use style="stroke:#000000;stroke-width:0.5;" x="506.217973524" xlink:href="#m66763a63fb" y="29.5060131855"/>
    </g>
   </g>
   <g id="line2d_17">
    <path d="
M151.694 353.259
L204.414 353.259
L204.414 351.943
L206.731 351.943
L206.731 349.311
L208.949 349.311
L208.949 347.995
L213.12 347.995
L213.12 345.363
L216.983 345.363
L216.983 344.047
L222.287 344.047
L222.287 341.415
L234.251 341.415
L234.251 338.782
L235.571 338.782
L235.571 337.466
L240.538 337.466
L240.538 336.15
L242.855 336.15
L242.855 334.834
L245.073 334.834
L245.073 329.57
L246.147 329.57
L246.147 325.622
L247.2 325.622
L247.2 322.99
L249.244 322.99
L249.244 319.041
L250.237 319.041
L250.237 317.725
L251.211 317.725
L251.211 316.409
L255.826 316.409
L255.826 311.145
L258.411 311.145
L258.411 303.249
L259.244 303.249
L259.244 300.616
L260.873 300.616
L260.873 299.3
L262.453 299.3
L262.453 296.668
L263.225 296.668
L263.225 294.036
L265.475 294.036
L265.475 292.72
L267.631 292.72
L267.631 290.088
L269.021 290.088
L269.021 286.14
L270.375 286.14
L270.375 284.824
L271.039 284.824
L271.039 280.875
L272.981 280.875
L272.981 279.559
L276.662 279.559
L276.662 278.243
L277.25 278.243
L277.25 276.927
L278.409 276.927
L278.409 271.663
L278.978 271.663
L278.978 267.715
L279.542 267.715
L279.542 266.399
L281.736 266.399
L281.736 265.083
L282.271 265.083
L282.271 263.766
L282.8 263.766
L282.8 262.45
L283.842 262.45
L283.842 258.502
L285.368 258.502
L285.368 253.238
L285.866 253.238
L285.866 247.974
L288.762 247.974
L288.762 242.709
L290.607 242.709
L290.607 241.393
L292.389 241.393
L292.389 238.761
L292.825 238.761
L292.825 237.445
L293.258 237.445
L293.258 236.129
L293.687 236.129
L293.687 234.813
L294.534 234.813
L294.534 230.865
L295.368 230.865
L295.368 229.549
L296.997 229.549
L296.997 228.233
L297.396 228.233
L297.396 226.917
L298.576 226.917
L298.576 224.284
L299.73 224.284
L299.73 222.968
L300.109 222.968
L300.109 220.336
L300.859 220.336
L300.859 219.02
L301.964 219.02
L301.964 215.072
L303.755 215.072
L303.755 209.808
L304.106 209.808
L304.106 208.492
L305.145 208.492
L305.145 207.175
L305.826 207.175
L305.826 205.859
L306.163 205.859
L306.163 204.543
L308.143 204.543
L308.143 201.911
L308.786 201.911
L308.786 200.595
L309.105 200.595
L309.105 199.279
L309.422 199.279
L309.422 196.647
L310.67 196.647
L310.67 194.015
L310.977 194.015
L310.977 192.699
L311.283 192.699
L311.283 190.067
L312.488 190.067
L312.488 187.434
L312.785 187.434
L312.785 186.118
L313.956 186.118
L313.956 184.802
L315.102 184.802
L315.102 182.17
L315.665 182.17
L315.665 179.538
L317.048 179.538
L317.048 172.958
L317.86 172.958
L317.86 169.009
L318.923 169.009
L318.923 165.061
L319.447 165.061
L319.447 161.113
L319.707 161.113
L319.707 159.797
L320.223 159.797
L320.223 158.481
L320.734 158.481
L320.734 157.165
L321.99 157.165
L321.99 154.533
L322.237 154.533
L322.237 151.901
L322.484 151.901
L322.484 147.952
L322.973 147.952
L322.973 146.636
L323.699 146.636
L323.699 144.004
L324.651 144.004
L324.651 141.372
L325.353 141.372
L325.353 136.108
L325.586 136.108
L325.586 133.476
L326.047 133.476
L326.047 132.159
L326.276 132.159
L326.276 130.843
L326.731 130.843
L326.731 128.211
L326.957 128.211
L326.957 126.895
L327.406 126.895
L327.406 125.579
L327.852 125.579
L327.852 124.263
L328.513 124.263
L328.513 121.631
L329.596 121.631
L329.596 120.315
L329.81 120.315
L329.81 118.999
L332.718 118.999
L332.718 117.683
L333.718 117.683
L333.718 115.051
L334.309 115.051
L334.309 112.418
L334.505 112.418
L334.505 111.102
L335.087 111.102
L335.087 109.786
L335.472 109.786
L335.472 107.154
L336.983 107.154
L336.983 105.838
L338.088 105.838
L338.088 104.522
L338.269 104.522
L338.269 101.89
L339.348 101.89
L339.348 100.574
L340.578 100.574
L340.578 99.2577
L341.268 99.2577
L341.268 96.6256
L341.95 96.6256
L341.95 92.6774
L343.121 92.6774
L343.121 90.0452
L343.778 90.0452
L343.778 88.7292
L344.589 88.7292
L344.589 86.097
L345.545 86.097
L345.545 84.781
L346.329 84.781
L346.329 83.4649
L346.639 83.4649
L346.639 82.1488
L349.204 82.1488
L349.204 79.5167
L356.089 79.5167
L356.089 78.2006
L374.484 78.2006
L374.484 76.8845
L409.508 76.8845
L409.508 75.5685
L409.647 75.5685
L409.647 74.2524
L410.335 74.2524
L410.335 72.9363
L410.743 72.9363
L410.743 71.6203
L412.038 71.6203
L412.038 68.9881
L412.214 68.9881
L412.214 67.672
L412.389 67.672
L412.389 66.356
L412.608 66.356
L412.608 65.0399
L413.042 65.0399
L413.085 62.4078
L414.994 62.4078
L414.994 61.0917
L416.067 61.0917
L416.067 58.4596
L417.595 58.4596
L417.595 57.1435
L417.95 57.1435
L418.029 54.5113
L418.186 54.5113
L418.186 53.1953
L419.002 53.1953
L419.002 51.8792
L419.54 51.8792
L419.54 50.5631
L419.92 50.5631
L419.92 49.2471
L422.073 49.2471
L422.073 47.931
L423.861 47.931
L423.861 46.6149
L427.981 46.6149
L427.981 45.2989
L443.554 45.2989
L443.554 43.9828
L444.603 43.9828
L444.603 42.6667
L445.516 42.6667
L445.516 41.3506
L446.731 41.3506
L446.731 40.0346
L464.701 40.0346
L464.701 38.7185
L465.181 38.7185
L465.228 36.0864
L466.963 36.0864
L466.963 34.7703
L477.989 34.7703
L477.989 33.4542
L478.225 33.4542
L478.225 32.1382
L480.431 32.1382
L480.431 30.8221
L506.218 30.8221
L506.218 29.506
L523.324 29.506
L523.324 29.506" style="fill:none;stroke:#000000;stroke-linecap:square;stroke-width:1.5;"/>
   </g>
   <g id="line2d_18">
    <defs>
     <path d="
M0 6
C1.59122 6 3.11748 5.3678 4.24264 4.24264
C5.3678 3.11748 6 1.59122 6 0
C6 -1.59122 5.3678 -3.11748 4.24264 -4.24264
C3.11748 -5.3678 1.59122 -6 0 -6
C-1.59122 -6 -3.11748 -5.3678 -4.24264 -4.24264
C-5.3678 -3.11748 -6 -1.59122 -6 0
C-6 1.59122 -5.3678 3.11748 -4.24264 4.24264
C-3.11748 5.3678 -1.59122 6 0 6
z
" id="ma42492ef9b" style="stroke:#000000;stroke-width:1.5;"/>
    </defs>
    <g>
     <use style="fill:none;stroke:#000000;stroke-width:1.5;" x="251.210850658" xlink:href="#ma42492ef9b" y="316.409288128"/>
     <use style="fill:none;stroke:#000000;stroke-width:1.5;" x="285.866315368" xlink:href="#ma42492ef9b" y="247.973644564"/>
     <use style="fill:none;stroke:#000000;stroke-width:1.5;" x="326.27578112" xlink:href="#ma42492ef9b" y="132.159478532"/>
     <use style="fill:none;stroke:#000000;stroke-width:1.5;" x="419.002241362" xlink:href="#ma42492ef9b" y="51.8792043507"/>
     <use style="fill:none;stroke:#000000;stroke-width:1.5;" x="506.217973524" xlink:href="#ma42492ef9b" y="29.5060131855"/>
     <use style="fill:none;stroke:#000000;stroke-width:1.5;" x="523.32359948" xlink:href="#ma42492ef9b" y="29.5060131855"/>
    </g>
   </g>
   <g id="line2d_19"/>
   <g id="line2d_20">
    <path clip-path="url(#pebde201112)" d="
M403.324 76.8845" style="fill:none;stroke:#000000;stroke-linecap:square;"/>
    <defs>
     <path d="
M-12 12
L12 -12
M-12 -12
L12 12" id="m47417b404f" style="stroke:#000000;stroke-width:3;"/>
    </defs>
    <g clip-path="url(#pebde201112)">
     <use style="stroke:#000000;stroke-width:3;" x="403.32359948" xlink:href="#m47417b404f" y="76.8845356531"/>
    </g>
   </g>
   <g id="line2d_21">
    <defs>
     <path d="
M0 1.5
C0.397805 1.5 0.77937 1.34195 1.06066 1.06066
C1.34195 0.77937 1.5 0.397805 1.5 0
C1.5 -0.397805 1.34195 -0.77937 1.06066 -1.06066
C0.77937 -1.34195 0.397805 -1.5 0 -1.5
C-0.397805 -1.5 -0.77937 -1.34195 -1.06066 -1.06066
C-1.34195 -0.77937 -1.5 -0.397805 -1.5 0
C-1.5 0.397805 -1.34195 0.77937 -1.06066 1.06066
C-0.77937 1.34195 -0.397805 1.5 0 1.5
z
" id="ma07bdd5909" style="stroke:#ff0000;stroke-width:0.5;"/>
    </defs>
    <g>
     <use style="fill:#ff0000;stroke:#ff0000;stroke-width:0.5;" x="444.021983031" xlink:href="#ma07bdd5909" y="31.2226263183"/>
     <use style="fill:#ff0000;stroke:#ff0000;stroke-width:0.5;" x="444.021983031" xlink:href="#ma07bdd5909" y="31.2226263183"/>
    </g>
   </g>
   <g id="line2d_22">
    <path d="
M157.833 351.085
L178.964 351.085
L178.964 349.597
L186.163 349.597
L186.163 343.646
L190.977 343.646
L190.977 342.158
L192.488 342.158
L192.488 340.671
L196.774 340.671
L196.774 337.695
L198.128 337.695
L198.128 336.208
L199.447 336.208
L199.447 334.72
L213.12 334.72
L213.12 333.232
L216.983 333.232
L216.983 331.744
L221.44 331.744
L221.44 330.257
L222.287 330.257
L222.287 328.769
L230.08 328.769
L230.08 325.793
L233.579 325.793
L233.579 324.306
L236.218 324.306
L236.218 322.818
L237.489 322.818
L237.489 321.33
L241.709 321.33
L241.709 319.843
L242.855 319.843
L242.855 315.379
L243.418 315.379
L243.418 307.941
L243.975 307.941
L243.975 304.965
L246.676 304.965
L246.676 301.99
L248.232 301.99
L248.232 300.502
L250.237 300.502
L250.237 299.014
L250.726 299.014
L250.726 297.527
L251.691 297.527
L251.691 294.551
L252.167 294.551
L252.167 291.576
L252.639 291.576
L252.639 290.088
L253.106 290.088
L253.106 288.6
L254.029 288.6
L254.029 284.137
L256.266 284.137
L256.266 282.649
L256.702 282.649
L256.702 281.161
L257.989 281.161
L257.989 278.186
L258.829 278.186
L258.829 276.698
L260.065 276.698
L260.065 272.235
L260.873 272.235
L260.873 269.26
L264.362 269.26
L264.362 267.772
L265.475 267.772
L265.475 264.796
L265.84 264.796
L265.84 263.309
L266.203 263.309
L266.203 258.846
L267.982 258.846
L267.982 254.382
L268.331 254.382
L268.331 252.895
L272.019 252.895
L272.019 251.407
L272.981 251.407
L272.981 249.919
L273.298 249.919
L273.298 248.431
L273.613 248.431
L273.613 246.944
L274.546 246.944
L274.546 245.456
L275.16 245.456
L275.16 243.968
L275.766 243.968
L275.766 240.993
L278.121 240.993
L278.121 239.505
L279.261 239.505
L279.261 238.017
L279.821 238.017
L279.821 235.042
L282.271 235.042
L282.271 232.066
L282.536 232.066
L282.536 229.091
L282.8 229.091
L282.8 227.603
L283.324 227.603
L283.324 224.628
L286.85 224.628
L286.85 223.14
L288.527 223.14
L288.527 217.189
L288.997 217.189
L288.997 215.701
L291.506 215.701
L291.506 214.214
L292.608 214.214
L292.608 212.726
L294.324 212.726
L294.324 211.238
L294.534 211.238
L294.534 209.75
L294.953 209.75
L294.953 208.263
L295.161 208.263
L295.161 203.799
L296.796 203.799
L296.796 197.849
L297.197 197.849
L297.197 194.873
L297.396 194.873
L297.396 193.385
L298.77 193.385
L298.77 191.898
L298.964 191.898
L298.964 190.41
L299.54 190.41
L299.54 188.922
L300.109 188.922
L300.109 187.434
L301.414 187.434
L301.414 185.947
L303.755 185.947
L303.755 184.459
L303.931 184.459
L303.931 182.971
L306.832 182.971
L306.832 181.483
L308.304 181.483
L308.304 179.996
L309.105 179.996
L309.105 177.02
L310.05 177.02
L310.05 175.533
L310.516 175.533
L310.516 172.557
L311.283 172.557
L311.283 169.582
L312.04 169.582
L312.04 168.094
L312.19 168.094
L312.19 166.606
L312.339 166.606
L312.339 163.631
L312.637 163.631
L312.637 160.655
L313.52 160.655
L313.52 157.68
L314.389 157.68
L314.389 153.217
L316.084 153.217
L316.084 150.241
L316.223 150.241
L316.223 148.753
L317.184 148.753
L317.184 145.778
L317.86 145.778
L317.86 142.802
L317.994 142.802
L317.994 141.315
L318.792 141.315
L318.792 139.827
L319.707 139.827
L319.707 138.339
L320.223 138.339
L320.223 135.364
L320.607 135.364
L320.607 133.876
L320.988 133.876
L320.988 129.413
L321.741 129.413
L321.741 127.925
L321.866 127.925
L321.866 126.437
L322.114 126.437
L322.114 123.462
L323.579 123.462
L323.579 121.974
L325.12 121.974
L325.12 120.487
L325.237 120.487
L325.237 116.023
L325.47 116.023
L325.47 110.072
L326.047 110.072
L326.047 108.585
L326.618 108.585
L326.618 104.121
L326.731 104.121
L326.731 102.634
L330.13 102.634
L330.13 101.146
L330.868 101.146
L330.868 99.6583
L332.211 99.6583
L332.312 96.6828
L333.02 96.6828
L333.02 95.1951
L333.619 95.1951
L333.619 92.2196
L334.505 92.2196
L334.505 90.7319
L334.797 90.7319
L334.797 89.2442
L335.949 89.2442
L335.949 87.7564
L336.703 87.7564
L336.796 84.781
L337.905 84.781
L337.905 83.2932
L338.721 83.2932
L338.721 80.3178
L339.17 80.3178
L339.17 77.3423
L339.702 77.3423
L339.702 75.8546
L340.404 75.8546
L340.404 74.3668
L340.752 74.3668
L340.752 68.4159
L342.872 68.4159
L342.872 65.4404
L343.451 65.4404
L343.451 63.9527
L344.185 63.9527
L344.185 60.9773
L344.91 60.9773
L344.91 59.4895
L347.559 59.4895
L347.559 56.5141
L348.909 56.5141
L348.909 55.0263
L354.651 55.0263
L354.651 52.0509
L355.831 52.0509
L355.831 49.0754
L360.241 49.0754
L360.241 46.0999
L368.232 46.0999
L368.232 44.6122
L368.74 44.6122
L368.74 43.1245
L409.992 43.1245
L409.992 41.6367
L410.675 41.6367
L410.675 40.149
L413.408 40.149
L413.408 38.6613
L413.623 38.6613
L413.623 37.1736
L414.112 37.1736
L414.112 35.6858
L443.253 35.6858
L443.253 34.1981
L444.022 34.1981
L444.022 31.2226
L523.324 31.2226
L523.324 31.2226" style="fill:none;stroke:#ff0000;stroke-linecap:square;stroke-width:1.5;"/>
   </g>
   <g id="line2d_23">
    <defs>
     <path d="
M-6 6
L6 6
L6 -6
L-6 -6
z
" id="m9d489a7eec" style="stroke:#ff0000;stroke-linejoin:miter;stroke-width:1.5;"/>
    </defs>
    <g>
     <use style="fill:none;stroke:#ff0000;stroke-linejoin:miter;stroke-width:1.5;" x="199.447198959" xlink:href="#m9d489a7eec" y="336.207559594"/>
     <use style="fill:none;stroke:#ff0000;stroke-linejoin:miter;stroke-width:1.5;" x="256.265635367" xlink:href="#m9d489a7eec" y="284.13696123"/>
     <use style="fill:none;stroke:#ff0000;stroke-linejoin:miter;stroke-width:1.5;" x="310.515588105" xlink:href="#m9d489a7eec" y="175.532570356"/>
     <use style="fill:none;stroke:#ff0000;stroke-linejoin:miter;stroke-width:1.5;" x="339.169541653" xlink:href="#m9d489a7eec" y="80.3177619189"/>
     <use style="fill:none;stroke:#ff0000;stroke-linejoin:miter;stroke-width:1.5;" x="414.112212852" xlink:href="#m9d489a7eec" y="37.1735518457"/>
     <use style="fill:none;stroke:#ff0000;stroke-linejoin:miter;stroke-width:1.5;" x="444.021983031" xlink:href="#m9d489a7eec" y="31.2226263183"/>
     <use style="fill:none;stroke:#ff0000;stroke-linejoin:miter;stroke-width:1.5;" x="523.32359948" xlink:href="#m9d489a7eec" y="31.2226263183"/>
    </g>
   </g>
   <g id="line2d_24"/>
   <g id="line2d_25">
    <path clip-path="url(#pebde201112)" d="
M403.324 43.1245" style="fill:none;stroke:#ff0000;stroke-linecap:square;"/>
    <defs>
     <path d="
M-12 12
L12 -12
M-12 -12
L12 12" id="m4e2b024d89" style="stroke:#ff0000;stroke-width:3;"/>
    </defs>
    <g clip-path="url(#pebde201112)">
     <use style="fill:#ff0000;stroke:#ff0000;stroke-width:3;" x="403.32359948" xlink:href="#m4e2b024d89" y="43.124477373"/>
    </g>
   </g>
   <g id="line2d_26">
    <path d="
M523.324 59.7435
L562.924 351.68" style="fill:none;stroke:#008000;stroke-linecap:square;stroke-width:1.5;"/>
    <g>
     <use style="fill:none;stroke:#008000;stroke-linejoin:miter;stroke-width:1.5;" x="523.32359948" xlink:href="#m397e16cd68" y="59.743525492"/>
     <use style="fill:none;stroke:#008000;stroke-linejoin:miter;stroke-width:1.5;" x="562.92359948" xlink:href="#m397e16cd68" y="351.679965965"/>
    </g>
   </g>
   <g id="line2d_27">
    <path d="
M523.324 49.4593
L562.924 269.557" style="fill:none;stroke:#0000ff;stroke-linecap:square;stroke-width:1.5;"/>
    <g>
     <use style="fill:none;stroke:#0000ff;stroke-linejoin:bevel;stroke-width:1.5;" x="523.32359948" xlink:href="#m0933169453" y="49.4593335795"/>
     <use style="fill:none;stroke:#0000ff;stroke-linejoin:bevel;stroke-width:1.5;" x="562.92359948" xlink:href="#m0933169453" y="269.557193688"/>
    </g>
   </g>
   <g id="line2d_28">
    <path d="
M523.324 31.2226
L562.924 187.434" style="fill:none;stroke:#ff0000;stroke-linecap:square;stroke-width:1.5;"/>
    <g>
     <use style="fill:none;stroke:#ff0000;stroke-linejoin:miter;stroke-width:1.5;" x="523.32359948" xlink:href="#m9d489a7eec" y="31.2226263183"/>
     <use style="fill:none;stroke:#ff0000;stroke-linejoin:miter;stroke-width:1.5;" x="562.92359948" xlink:href="#m9d489a7eec" y="187.434421411"/>
    </g>
   </g>
   <g id="line2d_29">
    <path d="
M523.324 29.506
L562.924 105.312" style="fill:none;stroke:#000000;stroke-linecap:square;stroke-width:1.5;"/>
    <g>
     <use style="fill:none;stroke:#000000;stroke-width:1.5;" x="523.32359948" xlink:href="#ma42492ef9b" y="29.5060131855"/>
     <use style="fill:none;stroke:#000000;stroke-width:1.5;" x="562.92359948" xlink:href="#ma42492ef9b" y="105.311649134"/>
    </g>
   </g>
   <g id="line2d_30">
    <path d="
M523.324 27.5033
L562.924 23.1889" style="fill:none;stroke:#00bfbf;stroke-linecap:square;stroke-width:1.5;"/>
    <g>
     <use style="fill:none;stroke:#00bfbf;stroke-width:1.5;" x="523.32359948" xlink:href="#m3e4de746de" y="27.5032978638"/>
     <use style="fill:none;stroke:#00bfbf;stroke-width:1.5;" x="562.92359948" xlink:href="#m3e4de746de" y="23.1888768564"/>
    </g>
   </g>
   <g id="line2d_31">
    <path d="
M523.324 358.524
L523.324 16.3453" style="fill:none;stroke:#000000;stroke-linecap:square;"/>
   </g>
   <g id="matplotlib.axis_1">
    <g id="xtick_1">
     <g id="line2d_32">
      <path clip-path="url(#pebde201112)" d="
M163.324 358.524
L163.324 12.9235" style="fill:none;stroke:#000000;stroke-dasharray:1.000000,3.000000;stroke-dashoffset:0.0;stroke-width:0.5;"/>
     </g>
     <g id="line2d_33">
      <defs>
       <path d="
M0 0
L0 -4" id="m93b0483c22" style="stroke:#000000;stroke-width:0.5;"/>
      </defs>
      <g>
       <use style="stroke:#000000;stroke-width:0.5;" x="163.32359948" xlink:href="#m93b0483c22" y="358.523530322"/>
      </g>
     </g>
     <g id="line2d_34">
      <defs>
       <path d="
M0 0
L0 4" id="m741efc42ff" style="stroke:#000000;stroke-width:0.5;"/>
      </defs>
      <g>
       <use style="stroke:#000000;stroke-width:0.5;" x="163.32359948" xlink:href="#m741efc42ff" y="12.9235303218"/>
      </g>
     </g>
     <g id="text_1">
      <!-- 0 -->
      <defs>
       <path d="
M4.15625 35.2969
Q4.15625 48 6.76562 55.7344
Q9.375 63.4844 14.5156 67.6719
Q19.6719 71.875 27.4844 71.875
Q33.25 71.875 37.5938 69.5469
Q41.9375 67.2344 44.7656 62.8594
Q47.6094 58.5 49.2188 52.2188
Q50.8281 45.9531 50.8281 35.2969
Q50.8281 22.7031 48.2344 14.9688
Q45.6562 7.23438 40.5 3
Q35.3594 -1.21875 27.4844 -1.21875
Q17.1406 -1.21875 11.2344 6.20312
Q4.15625 15.1406 4.15625 35.2969
M13.1875 35.2969
Q13.1875 17.6719 17.3125 11.8281
Q21.4375 6 27.4844 6
Q33.5469 6 37.6719 11.8594
Q41.7969 17.7188 41.7969 35.2969
Q41.7969 52.9844 37.6719 58.7812
Q33.5469 64.5938 27.3906 64.5938
Q21.3438 64.5938 17.7188 59.4688
Q13.1875 52.9375 13.1875 35.2969" id="ArialMT-30"/>
      </defs>
      <g transform="translate(158.65641198 376.839155322)scale(0.2 -0.2)">
       <use xlink:href="#ArialMT-30"/>
      </g>
     </g>
    </g>
    <g id="xtick_2">
     <g id="line2d_35">
      <path clip-path="url(#pebde201112)" d="
M283.324 358.524
L283.324 12.9235" style="fill:none;stroke:#000000;stroke-dasharray:1.000000,3.000000;stroke-dashoffset:0.0;stroke-width:0.5;"/>
     </g>
     <g id="line2d_36">
      <g>
       <use style="stroke:#000000;stroke-width:0.5;" x="283.32359948" xlink:href="#m93b0483c22" y="358.523530322"/>
      </g>
     </g>
     <g id="line2d_37">
      <g>
       <use style="stroke:#000000;stroke-width:0.5;" x="283.32359948" xlink:href="#m741efc42ff" y="12.9235303218"/>
      </g>
     </g>
     <g id="text_2">
      <!-- 1 -->
      <defs>
       <path d="
M37.25 0
L28.4688 0
L28.4688 56
Q25.2969 52.9844 20.1406 49.9531
Q14.9844 46.9219 10.8906 45.4062
L10.8906 53.9062
Q18.2656 57.375 23.7812 62.2969
Q29.2969 67.2344 31.5938 71.875
L37.25 71.875
z
" id="ArialMT-31"/>
      </defs>
      <g transform="translate(280.68766198 376.839155322)scale(0.2 -0.2)">
       <use xlink:href="#ArialMT-31"/>
      </g>
     </g>
    </g>
    <g id="xtick_3">
     <g id="line2d_38">
      <path clip-path="url(#pebde201112)" d="
M403.324 358.524
L403.324 12.9235" style="fill:none;stroke:#000000;stroke-dasharray:1.000000,3.000000;stroke-dashoffset:0.0;stroke-width:0.5;"/>
     </g>
     <g id="line2d_39">
      <g>
       <use style="stroke:#000000;stroke-width:0.5;" x="403.32359948" xlink:href="#m93b0483c22" y="358.523530322"/>
      </g>
     </g>
     <g id="line2d_40">
      <g>
       <use style="stroke:#000000;stroke-width:0.5;" x="403.32359948" xlink:href="#m741efc42ff" y="12.9235303218"/>
      </g>
     </g>
     <g id="text_3">
      <!-- 2 -->
      <defs>
       <path d="
M50.3438 8.45312
L50.3438 0
L3.03125 0
Q2.9375 3.17188 4.04688 6.10938
Q5.85938 10.9375 9.82812 15.625
Q13.8125 20.3125 21.3438 26.4688
Q33.0156 36.0312 37.1094 41.625
Q41.2188 47.2188 41.2188 52.2031
Q41.2188 57.4219 37.4688 61
Q33.7344 64.5938 27.7344 64.5938
Q21.3906 64.5938 17.5781 60.7812
Q13.7656 56.9844 13.7188 50.25
L4.6875 51.1719
Q5.60938 61.2812 11.6562 66.5781
Q17.7188 71.875 27.9375 71.875
Q38.2344 71.875 44.2344 66.1562
Q50.25 60.4531 50.25 52
Q50.25 47.7031 48.4844 43.5469
Q46.7344 39.4062 42.6562 34.8125
Q38.5781 30.2188 29.1094 22.2188
Q21.1875 15.5781 18.9375 13.2031
Q16.7031 10.8438 15.2344 8.45312
z
" id="ArialMT-32"/>
      </defs>
      <g transform="translate(398.58297448 376.839155322)scale(0.2 -0.2)">
       <use xlink:href="#ArialMT-32"/>
      </g>
     </g>
    </g>
    <g id="xtick_4">
     <g id="line2d_41">
      <path clip-path="url(#pebde201112)" d="
M523.324 358.524
L523.324 12.9235" style="fill:none;stroke:#000000;stroke-dasharray:1.000000,3.000000;stroke-dashoffset:0.0;stroke-width:0.5;"/>
     </g>
     <g id="line2d_42">
      <g>
       <use style="stroke:#000000;stroke-width:0.5;" x="523.32359948" xlink:href="#m93b0483c22" y="358.523530322"/>
      </g>
     </g>
     <g id="line2d_43">
      <g>
       <use style="stroke:#000000;stroke-width:0.5;" x="523.32359948" xlink:href="#m741efc42ff" y="12.9235303218"/>
      </g>
     </g>
     <g id="text_4">
      <!-- 3 -->
      <defs>
       <path d="
M4.20312 18.8906
L12.9844 20.0625
Q14.5 12.5938 18.1406 9.29688
Q21.7812 6 27 6
Q33.2031 6 37.4688 10.2969
Q41.75 14.5938 41.75 20.9531
Q41.75 27 37.7969 30.9219
Q33.8438 34.8594 27.7344 34.8594
Q25.25 34.8594 21.5312 33.8906
L22.5156 41.6094
Q23.3906 41.5 23.9219 41.5
Q29.5469 41.5 34.0312 44.4219
Q38.5312 47.3594 38.5312 53.4688
Q38.5312 58.2969 35.25 61.4688
Q31.9844 64.6562 26.8125 64.6562
Q21.6875 64.6562 18.2656 61.4219
Q14.8438 58.2031 13.875 51.7656
L5.07812 53.3281
Q6.6875 62.1562 12.3906 67.0156
Q18.1094 71.875 26.6094 71.875
Q32.4688 71.875 37.3906 69.3594
Q42.3281 66.8438 44.9375 62.5
Q47.5625 58.1562 47.5625 53.2656
Q47.5625 48.6406 45.0625 44.8281
Q42.5781 41.0156 37.7031 38.7656
Q44.0469 37.3125 47.5625 32.6875
Q51.0781 28.0781 51.0781 21.1406
Q51.0781 11.7656 44.2344 5.25
Q37.4062 -1.26562 26.9531 -1.26562
Q17.5312 -1.26562 11.2969 4.34375
Q5.07812 9.96875 4.20312 18.8906" id="ArialMT-33"/>
      </defs>
      <g transform="translate(518.63609948 376.839155322)scale(0.2 -0.2)">
       <use xlink:href="#ArialMT-33"/>
      </g>
     </g>
    </g>
    <g id="xtick_5">
     <g id="line2d_44">
      <defs>
       <path d="
M0 0
L0 -2" id="m177f7580d0" style="stroke:#000000;stroke-width:0.5;"/>
      </defs>
      <g>
       <use style="stroke:#000000;stroke-width:0.5;" x="199.447198959" xlink:href="#m177f7580d0" y="358.523530322"/>
      </g>
     </g>
     <g id="line2d_45">
      <defs>
       <path d="
M0 0
L0 2" id="m5284c7e2a0" style="stroke:#000000;stroke-width:0.5;"/>
      </defs>
      <g>
       <use style="stroke:#000000;stroke-width:0.5;" x="199.447198959" xlink:href="#m5284c7e2a0" y="12.9235303218"/>
      </g>
     </g>
    </g>
    <g id="xtick_6">
     <g id="line2d_46">
      <g>
       <use style="stroke:#000000;stroke-width:0.5;" x="220.578150046" xlink:href="#m177f7580d0" y="358.523530322"/>
      </g>
     </g>
     <g id="line2d_47">
      <g>
       <use style="stroke:#000000;stroke-width:0.5;" x="220.578150046" xlink:href="#m5284c7e2a0" y="12.9235303218"/>
      </g>
     </g>
    </g>
    <g id="xtick_7">
     <g id="line2d_48">
      <g>
       <use style="stroke:#000000;stroke-width:0.5;" x="235.570798439" xlink:href="#m177f7580d0" y="358.523530322"/>
      </g>
     </g>
     <g id="line2d_49">
      <g>
       <use style="stroke:#000000;stroke-width:0.5;" x="235.570798439" xlink:href="#m5284c7e2a0" y="12.9235303218"/>
      </g>
     </g>
    </g>
    <g id="xtick_8">
     <g id="line2d_50">
      <g>
       <use style="stroke:#000000;stroke-width:0.5;" x="247.2" xlink:href="#m177f7580d0" y="358.523530322"/>
      </g>
     </g>
     <g id="line2d_51">
      <g>
       <use style="stroke:#000000;stroke-width:0.5;" x="247.2" xlink:href="#m5284c7e2a0" y="12.9235303218"/>
      </g>
     </g>
    </g>
    <g id="xtick_9">
     <g id="line2d_52">
      <g>
       <use style="stroke:#000000;stroke-width:0.5;" x="256.701749526" xlink:href="#m177f7580d0" y="358.523530322"/>
      </g>
     </g>
     <g id="line2d_53">
      <g>
       <use style="stroke:#000000;stroke-width:0.5;" x="256.701749526" xlink:href="#m5284c7e2a0" y="12.9235303218"/>
      </g>
     </g>
    </g>
    <g id="xtick_10">
     <g id="line2d_54">
      <g>
       <use style="stroke:#000000;stroke-width:0.5;" x="264.735364281" xlink:href="#m177f7580d0" y="358.523530322"/>
      </g>
     </g>
     <g id="line2d_55">
      <g>
       <use style="stroke:#000000;stroke-width:0.5;" x="264.735364281" xlink:href="#m5284c7e2a0" y="12.9235303218"/>
      </g>
     </g>
    </g>
    <g id="xtick_11">
     <g id="line2d_56">
      <g>
       <use style="stroke:#000000;stroke-width:0.5;" x="271.694397919" xlink:href="#m177f7580d0" y="358.523530322"/>
      </g>
     </g>
     <g id="line2d_57">
      <g>
       <use style="stroke:#000000;stroke-width:0.5;" x="271.694397919" xlink:href="#m5284c7e2a0" y="12.9235303218"/>
      </g>
     </g>
    </g>
    <g id="xtick_12">
     <g id="line2d_58">
      <g>
       <use style="stroke:#000000;stroke-width:0.5;" x="277.832700612" xlink:href="#m177f7580d0" y="358.523530322"/>
      </g>
     </g>
     <g id="line2d_59">
      <g>
       <use style="stroke:#000000;stroke-width:0.5;" x="277.832700612" xlink:href="#m5284c7e2a0" y="12.9235303218"/>
      </g>
     </g>
    </g>
    <g id="xtick_13">
     <g id="line2d_60">
      <g>
       <use style="stroke:#000000;stroke-width:0.5;" x="319.447198959" xlink:href="#m177f7580d0" y="358.523530322"/>
      </g>
     </g>
     <g id="line2d_61">
      <g>
       <use style="stroke:#000000;stroke-width:0.5;" x="319.447198959" xlink:href="#m5284c7e2a0" y="12.9235303218"/>
      </g>
     </g>
    </g>
    <g id="xtick_14">
     <g id="line2d_62">
      <g>
       <use style="stroke:#000000;stroke-width:0.5;" x="340.578150046" xlink:href="#m177f7580d0" y="358.523530322"/>
      </g>
     </g>
     <g id="line2d_63">
      <g>
       <use style="stroke:#000000;stroke-width:0.5;" x="340.578150046" xlink:href="#m5284c7e2a0" y="12.9235303218"/>
      </g>
     </g>
    </g>
    <g id="xtick_15">
     <g id="line2d_64">
      <g>
       <use style="stroke:#000000;stroke-width:0.5;" x="355.570798439" xlink:href="#m177f7580d0" y="358.523530322"/>
      </g>
     </g>
     <g id="line2d_65">
      <g>
       <use style="stroke:#000000;stroke-width:0.5;" x="355.570798439" xlink:href="#m5284c7e2a0" y="12.9235303218"/>
      </g>
     </g>
    </g>
    <g id="xtick_16">
     <g id="line2d_66">
      <g>
       <use style="stroke:#000000;stroke-width:0.5;" x="367.2" xlink:href="#m177f7580d0" y="358.523530322"/>
      </g>
     </g>
     <g id="line2d_67">
      <g>
       <use style="stroke:#000000;stroke-width:0.5;" x="367.2" xlink:href="#m5284c7e2a0" y="12.9235303218"/>
      </g>
     </g>
    </g>
    <g id="xtick_17">
     <g id="line2d_68">
      <g>
       <use style="stroke:#000000;stroke-width:0.5;" x="376.701749526" xlink:href="#m177f7580d0" y="358.523530322"/>
      </g>
     </g>
     <g id="line2d_69">
      <g>
       <use style="stroke:#000000;stroke-width:0.5;" x="376.701749526" xlink:href="#m5284c7e2a0" y="12.9235303218"/>
      </g>
     </g>
    </g>
    <g id="xtick_18">
     <g id="line2d_70">
      <g>
       <use style="stroke:#000000;stroke-width:0.5;" x="384.735364281" xlink:href="#m177f7580d0" y="358.523530322"/>
      </g>
     </g>
     <g id="line2d_71">
      <g>
       <use style="stroke:#000000;stroke-width:0.5;" x="384.735364281" xlink:href="#m5284c7e2a0" y="12.9235303218"/>
      </g>
     </g>
    </g>
    <g id="xtick_19">
     <g id="line2d_72">
      <g>
       <use style="stroke:#000000;stroke-width:0.5;" x="391.694397919" xlink:href="#m177f7580d0" y="358.523530322"/>
      </g>
     </g>
     <g id="line2d_73">
      <g>
       <use style="stroke:#000000;stroke-width:0.5;" x="391.694397919" xlink:href="#m5284c7e2a0" y="12.9235303218"/>
      </g>
     </g>
    </g>
    <g id="xtick_20">
     <g id="line2d_74">
      <g>
       <use style="stroke:#000000;stroke-width:0.5;" x="397.832700612" xlink:href="#m177f7580d0" y="358.523530322"/>
      </g>
     </g>
     <g id="line2d_75">
      <g>
       <use style="stroke:#000000;stroke-width:0.5;" x="397.832700612" xlink:href="#m5284c7e2a0" y="12.9235303218"/>
      </g>
     </g>
    </g>
    <g id="xtick_21">
     <g id="line2d_76">
      <g>
       <use style="stroke:#000000;stroke-width:0.5;" x="439.447198959" xlink:href="#m177f7580d0" y="358.523530322"/>
      </g>
     </g>
     <g id="line2d_77">
      <g>
       <use style="stroke:#000000;stroke-width:0.5;" x="439.447198959" xlink:href="#m5284c7e2a0" y="12.9235303218"/>
      </g>
     </g>
    </g>
    <g id="xtick_22">
     <g id="line2d_78">
      <g>
       <use style="stroke:#000000;stroke-width:0.5;" x="460.578150046" xlink:href="#m177f7580d0" y="358.523530322"/>
      </g>
     </g>
     <g id="line2d_79">
      <g>
       <use style="stroke:#000000;stroke-width:0.5;" x="460.578150046" xlink:href="#m5284c7e2a0" y="12.9235303218"/>
      </g>
     </g>
    </g>
    <g id="xtick_23">
     <g id="line2d_80">
      <g>
       <use style="stroke:#000000;stroke-width:0.5;" x="475.570798439" xlink:href="#m177f7580d0" y="358.523530322"/>
      </g>
     </g>
     <g id="line2d_81">
      <g>
       <use style="stroke:#000000;stroke-width:0.5;" x="475.570798439" xlink:href="#m5284c7e2a0" y="12.9235303218"/>
      </g>
     </g>
    </g>
    <g id="xtick_24">
     <g id="line2d_82">
      <g>
       <use style="stroke:#000000;stroke-width:0.5;" x="487.2" xlink:href="#m177f7580d0" y="358.523530322"/>
      </g>
     </g>
     <g id="line2d_83">
      <g>
       <use style="stroke:#000000;stroke-width:0.5;" x="487.2" xlink:href="#m5284c7e2a0" y="12.9235303218"/>
      </g>
     </g>
    </g>
    <g id="xtick_25">
     <g id="line2d_84">
      <g>
       <use style="stroke:#000000;stroke-width:0.5;" x="496.701749526" xlink:href="#m177f7580d0" y="358.523530322"/>
      </g>
     </g>
     <g id="line2d_85">
      <g>
       <use style="stroke:#000000;stroke-width:0.5;" x="496.701749526" xlink:href="#m5284c7e2a0" y="12.9235303218"/>
      </g>
     </g>
    </g>
    <g id="xtick_26">
     <g id="line2d_86">
      <g>
       <use style="stroke:#000000;stroke-width:0.5;" x="504.735364281" xlink:href="#m177f7580d0" y="358.523530322"/>
      </g>
     </g>
     <g id="line2d_87">
      <g>
       <use style="stroke:#000000;stroke-width:0.5;" x="504.735364281" xlink:href="#m5284c7e2a0" y="12.9235303218"/>
      </g>
     </g>
    </g>
    <g id="xtick_27">
     <g id="line2d_88">
      <g>
       <use style="stroke:#000000;stroke-width:0.5;" x="511.694397919" xlink:href="#m177f7580d0" y="358.523530322"/>
      </g>
     </g>
     <g id="line2d_89">
      <g>
       <use style="stroke:#000000;stroke-width:0.5;" x="511.694397919" xlink:href="#m5284c7e2a0" y="12.9235303218"/>
      </g>
     </g>
    </g>
    <g id="xtick_28">
     <g id="line2d_90">
      <g>
       <use style="stroke:#000000;stroke-width:0.5;" x="517.832700612" xlink:href="#m177f7580d0" y="358.523530322"/>
      </g>
     </g>
     <g id="line2d_91">
      <g>
       <use style="stroke:#000000;stroke-width:0.5;" x="517.832700612" xlink:href="#m5284c7e2a0" y="12.9235303218"/>
      </g>
     </g>
    </g>
    <g id="xtick_29">
     <g id="line2d_92">
      <g>
       <use style="stroke:#000000;stroke-width:0.5;" x="559.447198959" xlink:href="#m177f7580d0" y="358.523530322"/>
      </g>
     </g>
     <g id="line2d_93">
      <g>
       <use style="stroke:#000000;stroke-width:0.5;" x="559.447198959" xlink:href="#m5284c7e2a0" y="12.9235303218"/>
      </g>
     </g>
    </g>
    <g id="xtick_30">
     <g id="line2d_94">
      <g>
       <use style="stroke:#000000;stroke-width:0.5;" x="580.578150046" xlink:href="#m177f7580d0" y="358.523530322"/>
      </g>
     </g>
     <g id="line2d_95">
      <g>
       <use style="stroke:#000000;stroke-width:0.5;" x="580.578150046" xlink:href="#m5284c7e2a0" y="12.9235303218"/>
      </g>
     </g>
    </g>
    <g id="xtick_31">
     <g id="line2d_96">
      <g>
       <use style="stroke:#000000;stroke-width:0.5;" x="595.570798439" xlink:href="#m177f7580d0" y="358.523530322"/>
      </g>
     </g>
     <g id="line2d_97">
      <g>
       <use style="stroke:#000000;stroke-width:0.5;" x="595.570798439" xlink:href="#m5284c7e2a0" y="12.9235303218"/>
      </g>
     </g>
    </g>
    <g id="xtick_32">
     <g id="line2d_98">
      <g>
       <use style="stroke:#000000;stroke-width:0.5;" x="607.2" xlink:href="#m177f7580d0" y="358.523530322"/>
      </g>
     </g>
     <g id="line2d_99">
      <g>
       <use style="stroke:#000000;stroke-width:0.5;" x="607.2" xlink:href="#m5284c7e2a0" y="12.9235303218"/>
      </g>
     </g>
    </g>
    <g id="text_5">
     <!-- log10 of (# f-evals / dimension) -->
     <defs>
      <path d="
M12.3594 -21.0469
L6.0625 -21.0469
Q20.6562 2.39062 20.6562 25.875
Q20.6562 35.0625 18.5625 44.0938
Q16.8906 51.4219 13.9219 58.1562
Q12.0156 62.5469 6.0625 72.7969
L12.3594 72.7969
Q21.5312 60.5469 25.9219 48.1875
Q29.6875 37.5469 29.6875 25.9219
Q29.6875 12.75 24.625 0.4375
Q19.5781 -11.8594 12.3594 -21.0469" id="ArialMT-29"/>
      <path d="
M40.4375 6.39062
Q35.5469 2.25 31.0312 0.53125
Q26.5156 -1.17188 21.3438 -1.17188
Q12.7969 -1.17188 8.20312 3
Q3.60938 7.17188 3.60938 13.6719
Q3.60938 17.4844 5.34375 20.625
Q7.07812 23.7812 9.89062 25.6875
Q12.7031 27.5938 16.2188 28.5625
Q18.7969 29.25 24.0312 29.8906
Q34.6719 31.1562 39.7031 32.9062
Q39.75 34.7188 39.75 35.2031
Q39.75 40.5781 37.25 42.7812
Q33.8906 45.75 27.25 45.75
Q21.0469 45.75 18.0938 43.5781
Q15.1406 41.4062 13.7188 35.8906
L5.125 37.0625
Q6.29688 42.5781 8.98438 45.9688
Q11.6719 49.3594 16.75 51.1875
Q21.8281 53.0312 28.5156 53.0312
Q35.1562 53.0312 39.2969 51.4688
Q43.4531 49.9062 45.4062 47.5312
Q47.3594 45.1719 48.1406 41.5469
Q48.5781 39.3125 48.5781 33.4531
L48.5781 21.7344
Q48.5781 9.46875 49.1406 6.21875
Q49.7031 2.98438 51.375 0
L42.1875 0
Q40.8281 2.73438 40.4375 6.39062
M39.7031 26.0312
Q34.9062 24.0781 25.3438 22.7031
Q19.9219 21.9219 17.6719 20.9375
Q15.4375 19.9688 14.2031 18.0938
Q12.9844 16.2188 12.9844 13.9219
Q12.9844 10.4062 15.6406 8.0625
Q18.3125 5.71875 23.4375 5.71875
Q28.5156 5.71875 32.4688 7.9375
Q36.4219 10.1562 38.2812 14.0156
Q39.7031 17 39.7031 22.7969
z
" id="ArialMT-61"/>
      <path d="
M4.98438 -4.29688
L13.5312 -5.5625
Q14.0625 -9.51562 16.5 -11.3281
Q19.7812 -13.7656 25.4375 -13.7656
Q31.5469 -13.7656 34.8594 -11.3281
Q38.1875 -8.89062 39.3594 -4.5
Q40.0469 -1.8125 39.9844 6.78125
Q34.2344 0 25.6406 0
Q14.9375 0 9.07812 7.71875
Q3.21875 15.4375 3.21875 26.2188
Q3.21875 33.6406 5.90625 39.9062
Q8.59375 46.1875 13.6875 49.6094
Q18.7969 53.0312 25.6875 53.0312
Q34.8594 53.0312 40.8281 45.6094
L40.8281 51.8594
L48.9219 51.8594
L48.9219 7.03125
Q48.9219 -5.07812 46.4531 -10.125
Q44 -15.1875 38.6406 -18.1094
Q33.2969 -21.0469 25.4844 -21.0469
Q16.2188 -21.0469 10.5 -16.875
Q4.78125 -12.7031 4.98438 -4.29688
M12.25 26.8594
Q12.25 16.6562 16.2969 11.9688
Q20.3594 7.28125 26.4688 7.28125
Q32.5156 7.28125 36.6094 11.9375
Q40.7188 16.6094 40.7188 26.5625
Q40.7188 36.0781 36.5 40.9062
Q32.2812 45.75 26.3125 45.75
Q20.4531 45.75 16.3438 40.9844
Q12.25 36.2344 12.25 26.8594" id="ArialMT-67"/>
      <path d="
M8.6875 0
L8.6875 45.0156
L0.921875 45.0156
L0.921875 51.8594
L8.6875 51.8594
L8.6875 57.375
Q8.6875 62.5938 9.625 65.1406
Q10.8906 68.5625 14.0781 70.6719
Q17.2812 72.7969 23.0469 72.7969
Q26.7656 72.7969 31.25 71.9219
L29.9375 64.2656
Q27.2031 64.75 24.75 64.75
Q20.75 64.75 19.0938 63.0312
Q17.4375 61.3281 17.4375 56.6406
L17.4375 51.8594
L27.5469 51.8594
L27.5469 45.0156
L17.4375 45.0156
L17.4375 0
z
" id="ArialMT-66"/>
      <path d="
M42.0938 16.7031
L51.1719 15.5781
Q49.0312 7.625 43.2188 3.21875
Q37.4062 -1.17188 28.375 -1.17188
Q17 -1.17188 10.3281 5.82812
Q3.65625 12.8438 3.65625 25.4844
Q3.65625 38.5781 10.3906 45.7969
Q17.1406 53.0312 27.875 53.0312
Q38.2812 53.0312 44.875 45.9531
Q51.4688 38.875 51.4688 26.0312
Q51.4688 25.25 51.4219 23.6875
L12.75 23.6875
Q13.2344 15.1406 17.5781 10.5938
Q21.9219 6.0625 28.4219 6.0625
Q33.25 6.0625 36.6719 8.59375
Q40.0938 11.1406 42.0938 16.7031
M13.2344 30.9062
L42.1875 30.9062
Q41.6094 37.4531 38.875 40.7188
Q34.6719 45.7969 27.9844 45.7969
Q21.9219 45.7969 17.7969 41.75
Q13.6719 37.7031 13.2344 30.9062" id="ArialMT-65"/>
      <path d="
M40.2344 0
L40.2344 6.54688
Q35.2969 -1.17188 25.7344 -1.17188
Q19.5312 -1.17188 14.3281 2.25
Q9.125 5.67188 6.26562 11.7969
Q3.42188 17.9219 3.42188 25.875
Q3.42188 33.6406 6 39.9688
Q8.59375 46.2969 13.7656 49.6562
Q18.9531 53.0312 25.3438 53.0312
Q30.0312 53.0312 33.6875 51.0469
Q37.3594 49.0781 39.6562 45.9062
L39.6562 71.5781
L48.3906 71.5781
L48.3906 0
z

M12.4531 25.875
Q12.4531 15.9219 16.6406 10.9844
Q20.8438 6.0625 26.5625 6.0625
Q32.3281 6.0625 36.3438 10.7656
Q40.375 15.4844 40.375 25.1406
Q40.375 35.7969 36.2656 40.7656
Q32.1719 45.75 26.1719 45.75
Q20.3125 45.75 16.375 40.9688
Q12.4531 36.1875 12.4531 25.875" id="ArialMT-64"/>
      <path d="
M0 -1.21875
L20.75 72.7969
L27.7812 72.7969
L7.07812 -1.21875
z
" id="ArialMT-2f"/>
      <path d="
M21 0
L1.26562 51.8594
L10.5469 51.8594
L21.6875 20.7969
Q23.4844 15.7656 25 10.3594
Q26.1719 14.4531 28.2656 20.2188
L39.7969 51.8594
L48.8281 51.8594
L29.2031 0
z
" id="ArialMT-76"/>
      <path d="
M3.17188 21.4844
L3.17188 30.3281
L30.1719 30.3281
L30.1719 21.4844
z
" id="ArialMT-2d"/>
      <path d="
M6.59375 0
L6.59375 51.8594
L14.4531 51.8594
L14.4531 44.5781
Q16.8906 48.3906 20.9375 50.7031
Q25 53.0312 30.1719 53.0312
Q35.9375 53.0312 39.625 50.6406
Q43.3125 48.25 44.8281 43.9531
Q50.9844 53.0312 60.8438 53.0312
Q68.5625 53.0312 72.7031 48.75
Q76.8594 44.4844 76.8594 35.5938
L76.8594 0
L68.1094 0
L68.1094 32.6719
Q68.1094 37.9375 67.25 40.25
Q66.4062 42.5781 64.1562 43.9844
Q61.9219 45.4062 58.8906 45.4062
Q53.4219 45.4062 49.7969 41.7656
Q46.1875 38.1406 46.1875 30.125
L46.1875 0
L37.4062 0
L37.4062 33.6875
Q37.4062 39.5469 35.25 42.4688
Q33.1094 45.4062 28.2188 45.4062
Q24.5156 45.4062 21.3594 43.4531
Q18.2188 41.5 16.7969 37.7344
Q15.375 33.9844 15.375 26.9062
L15.375 0
z
" id="ArialMT-6d"/>
      <path d="
M3.07812 15.4844
L11.7656 16.8438
Q12.5 11.625 15.8438 8.84375
Q19.1875 6.0625 25.2031 6.0625
Q31.25 6.0625 34.1719 8.51562
Q37.1094 10.9844 37.1094 14.3125
Q37.1094 17.2812 34.5156 19
Q32.7188 20.1719 25.5312 21.9688
Q15.875 24.4219 12.1406 26.2031
Q8.40625 27.9844 6.46875 31.125
Q4.54688 34.2812 4.54688 38.0938
Q4.54688 41.5469 6.125 44.5
Q7.71875 47.4688 10.4531 49.4219
Q12.5 50.9219 16.0312 51.9688
Q19.5781 53.0312 23.6406 53.0312
Q29.7344 53.0312 34.3438 51.2656
Q38.9688 49.5156 41.1562 46.5
Q43.3594 43.5 44.1875 38.4844
L35.5938 37.3125
Q35.0156 41.3125 32.2031 43.5469
Q29.3906 45.7969 24.2656 45.7969
Q18.2188 45.7969 15.625 43.7969
Q13.0312 41.7969 13.0312 39.1094
Q13.0312 37.4062 14.1094 36.0312
Q15.1875 34.625 17.4844 33.6875
Q18.7969 33.2031 25.25 31.4531
Q34.5781 28.9531 38.25 27.3594
Q41.9375 25.7812 44.0312 22.75
Q46.1406 19.7344 46.1406 15.2344
Q46.1406 10.8438 43.5781 6.95312
Q41.0156 3.07812 36.1719 0.953125
Q31.3438 -1.17188 25.25 -1.17188
Q15.1406 -1.17188 9.84375 3.03125
Q4.54688 7.23438 3.07812 15.4844" id="ArialMT-73"/>
      <path d="
M6.39062 0
L6.39062 71.5781
L15.1875 71.5781
L15.1875 0
z
" id="ArialMT-6c"/>
      <path d="
M3.32812 25.9219
Q3.32812 40.3281 11.3281 47.2656
Q18.0156 53.0312 27.6406 53.0312
Q38.3281 53.0312 45.1094 46.0156
Q51.9062 39.0156 51.9062 26.6562
Q51.9062 16.6562 48.9062 10.9062
Q45.9062 5.17188 40.1562 2
Q34.4219 -1.17188 27.6406 -1.17188
Q16.75 -1.17188 10.0312 5.8125
Q3.32812 12.7969 3.32812 25.9219
M12.3594 25.9219
Q12.3594 15.9688 16.7031 11.0156
Q21.0469 6.0625 27.6406 6.0625
Q34.1875 6.0625 38.5312 11.0312
Q42.875 16.0156 42.875 26.2188
Q42.875 35.8438 38.5 40.7969
Q34.125 45.75 27.6406 45.75
Q21.0469 45.75 16.7031 40.8125
Q12.3594 35.8906 12.3594 25.9219" id="ArialMT-6f"/>
      <path d="
M6.59375 0
L6.59375 51.8594
L14.5 51.8594
L14.5 44.4844
Q20.2188 53.0312 31 53.0312
Q35.6875 53.0312 39.625 51.3438
Q43.5625 49.6562 45.5156 46.9219
Q47.4688 44.1875 48.25 40.4375
Q48.7344 37.9844 48.7344 31.8906
L48.7344 0
L39.9375 0
L39.9375 31.5469
Q39.9375 36.9219 38.9062 39.5781
Q37.8906 42.2344 35.2812 43.8125
Q32.6719 45.4062 29.1562 45.4062
Q23.5312 45.4062 19.4531 41.8438
Q15.375 38.2812 15.375 28.3281
L15.375 0
z
" id="ArialMT-6e"/>
      <path d="
M23.3906 -21.0469
Q16.1094 -11.8594 11.0781 0.4375
Q6.0625 12.75 6.0625 25.9219
Q6.0625 37.5469 9.8125 48.1875
Q14.2031 60.5469 23.3906 72.7969
L29.6875 72.7969
Q23.7812 62.6406 21.875 58.2969
Q18.8906 51.5625 17.1875 44.2344
Q15.0938 35.1094 15.0938 25.875
Q15.0938 2.39062 29.6875 -21.0469
z
" id="ArialMT-28"/>
      <path d="
M5.03125 -1.21875
L9.28125 19.5781
L1.03125 19.5781
L1.03125 26.8594
L10.75 26.8594
L14.3594 44.5781
L1.03125 44.5781
L1.03125 51.8594
L15.8281 51.8594
L20.0625 72.7969
L27.3906 72.7969
L23.1406 51.8594
L38.5312 51.8594
L42.7812 72.7969
L50.1406 72.7969
L45.9062 51.8594
L54.3438 51.8594
L54.3438 44.5781
L44.4375 44.5781
L40.7656 26.8594
L54.3438 26.8594
L54.3438 19.5781
L39.3125 19.5781
L35.0625 -1.21875
L27.7344 -1.21875
L31.9375 19.5781
L16.6094 19.5781
L12.3594 -1.21875
z

M18.0625 26.8594
L33.4062 26.8594
L37.0625 44.5781
L21.6875 44.5781
z
" id="ArialMT-23"/>
      <path d="
M6.64062 61.4688
L6.64062 71.5781
L15.4375 71.5781
L15.4375 61.4688
z

M6.64062 0
L6.64062 51.8594
L15.4375 51.8594
L15.4375 0
z
" id="ArialMT-69"/>
      <path id="ArialMT-20"/>
     </defs>
     <g transform="translate(263.79734948 398.917592822)scale(0.18 -0.18)">
      <use xlink:href="#ArialMT-6c"/>
      <use x="22.216796875" xlink:href="#ArialMT-6f"/>
      <use x="77.83203125" xlink:href="#ArialMT-67"/>
      <use x="133.447265625" xlink:href="#ArialMT-31"/>
      <use x="189.0625" xlink:href="#ArialMT-30"/>
      <use x="244.677734375" xlink:href="#ArialMT-20"/>
      <use x="272.4609375" xlink:href="#ArialMT-6f"/>
      <use x="328.076171875" xlink:href="#ArialMT-66"/>
      <use x="355.859375" xlink:href="#ArialMT-20"/>
      <use x="383.642578125" xlink:href="#ArialMT-28"/>
      <use x="416.943359375" xlink:href="#ArialMT-23"/>
      <use x="472.55859375" xlink:href="#ArialMT-20"/>
      <use x="500.341796875" xlink:href="#ArialMT-66"/>
      <use x="528.125" xlink:href="#ArialMT-2d"/>
      <use x="561.42578125" xlink:href="#ArialMT-65"/>
      <use x="617.041015625" xlink:href="#ArialMT-76"/>
      <use x="667.041015625" xlink:href="#ArialMT-61"/>
      <use x="722.65625" xlink:href="#ArialMT-6c"/>
      <use x="744.873046875" xlink:href="#ArialMT-73"/>
      <use x="794.873046875" xlink:href="#ArialMT-20"/>
      <use x="822.65625" xlink:href="#ArialMT-2f"/>
      <use x="850.439453125" xlink:href="#ArialMT-20"/>
      <use x="878.22265625" xlink:href="#ArialMT-64"/>
      <use x="933.837890625" xlink:href="#ArialMT-69"/>
      <use x="956.0546875" xlink:href="#ArialMT-6d"/>
      <use x="1039.35546875" xlink:href="#ArialMT-65"/>
      <use x="1094.97070312" xlink:href="#ArialMT-6e"/>
      <use x="1150.5859375" xlink:href="#ArialMT-73"/>
      <use x="1200.5859375" xlink:href="#ArialMT-69"/>
      <use x="1222.80273438" xlink:href="#ArialMT-6f"/>
      <use x="1278.41796875" xlink:href="#ArialMT-6e"/>
      <use x="1334.03320312" xlink:href="#ArialMT-29"/>
     </g>
    </g>
   </g>
   <g id="matplotlib.axis_2">
    <g id="ytick_1">
     <g id="line2d_100">
      <path clip-path="url(#pebde201112)" d="
M163.324 358.524
L609.724 358.524" style="fill:none;stroke:#000000;stroke-dasharray:1.000000,3.000000;stroke-dashoffset:0.0;stroke-width:0.5;"/>
     </g>
     <g id="line2d_101">
      <defs>
       <path d="
M0 0
L4 0" id="m728421d6d4" style="stroke:#000000;stroke-width:0.5;"/>
      </defs>
      <g>
       <use style="stroke:#000000;stroke-width:0.5;" x="163.32359948" xlink:href="#m728421d6d4" y="358.523530322"/>
      </g>
     </g>
     <g id="line2d_102">
      <defs>
       <path d="
M0 0
L-4 0" id="mcb0005524f" style="stroke:#000000;stroke-width:0.5;"/>
      </defs>
      <g>
       <use style="stroke:#000000;stroke-width:0.5;" x="609.72359948" xlink:href="#mcb0005524f" y="358.523530322"/>
      </g>
     </g>
     <g id="text_6">
      <!-- 0.0 -->
      <defs>
       <path d="
M9.07812 0
L9.07812 10.0156
L19.0938 10.0156
L19.0938 0
z
" id="ArialMT-2e"/>
      </defs>
      <g transform="translate(133.31109948 363.693842822)scale(0.2 -0.2)">
       <use xlink:href="#ArialMT-30"/>
       <use x="55.615234375" xlink:href="#ArialMT-2e"/>
       <use x="83.3984375" xlink:href="#ArialMT-30"/>
      </g>
     </g>
    </g>
    <g id="ytick_2">
     <g id="line2d_103">
      <path clip-path="url(#pebde201112)" d="
M163.324 290.088
L609.724 290.088" style="fill:none;stroke:#000000;stroke-dasharray:1.000000,3.000000;stroke-dashoffset:0.0;stroke-width:0.5;"/>
     </g>
     <g id="line2d_104">
      <g>
       <use style="stroke:#000000;stroke-width:0.5;" x="163.32359948" xlink:href="#m728421d6d4" y="290.087886757"/>
      </g>
     </g>
     <g id="line2d_105">
      <g>
       <use style="stroke:#000000;stroke-width:0.5;" x="609.72359948" xlink:href="#mcb0005524f" y="290.087886757"/>
      </g>
     </g>
     <g id="text_7">
      <!-- 0.2 -->
      <g transform="translate(133.40797448 295.258199257)scale(0.2 -0.2)">
       <use xlink:href="#ArialMT-30"/>
       <use x="55.615234375" xlink:href="#ArialMT-2e"/>
       <use x="83.3984375" xlink:href="#ArialMT-32"/>
      </g>
     </g>
    </g>
    <g id="ytick_3">
     <g id="line2d_106">
      <path clip-path="url(#pebde201112)" d="
M163.324 221.652
L609.724 221.652" style="fill:none;stroke:#000000;stroke-dasharray:1.000000,3.000000;stroke-dashoffset:0.0;stroke-width:0.5;"/>
     </g>
     <g id="line2d_107">
      <g>
       <use style="stroke:#000000;stroke-width:0.5;" x="163.32359948" xlink:href="#m728421d6d4" y="221.652243193"/>
      </g>
     </g>
     <g id="line2d_108">
      <g>
       <use style="stroke:#000000;stroke-width:0.5;" x="609.72359948" xlink:href="#mcb0005524f" y="221.652243193"/>
      </g>
     </g>
     <g id="text_8">
      <!-- 0.4 -->
      <defs>
       <path d="
M32.3281 0
L32.3281 17.1406
L1.26562 17.1406
L1.26562 25.2031
L33.9375 71.5781
L41.1094 71.5781
L41.1094 25.2031
L50.7812 25.2031
L50.7812 17.1406
L41.1094 17.1406
L41.1094 0
z

M32.3281 25.2031
L32.3281 57.4688
L9.90625 25.2031
z
" id="ArialMT-34"/>
      </defs>
      <g transform="translate(133.32047448 226.822555693)scale(0.2 -0.2)">
       <use xlink:href="#ArialMT-30"/>
       <use x="55.615234375" xlink:href="#ArialMT-2e"/>
       <use x="83.3984375" xlink:href="#ArialMT-34"/>
      </g>
     </g>
    </g>
    <g id="ytick_4">
     <g id="line2d_109">
      <path clip-path="url(#pebde201112)" d="
M163.324 153.217
L609.724 153.217" style="fill:none;stroke:#000000;stroke-dasharray:1.000000,3.000000;stroke-dashoffset:0.0;stroke-width:0.5;"/>
     </g>
     <g id="line2d_110">
      <g>
       <use style="stroke:#000000;stroke-width:0.5;" x="163.32359948" xlink:href="#m728421d6d4" y="153.216599629"/>
      </g>
     </g>
     <g id="line2d_111">
      <g>
       <use style="stroke:#000000;stroke-width:0.5;" x="609.72359948" xlink:href="#mcb0005524f" y="153.216599629"/>
      </g>
     </g>
     <g id="text_9">
      <!-- 0.6 -->
      <defs>
       <path d="
M49.75 54.0469
L41.0156 53.375
Q39.8438 58.5469 37.7031 60.8906
Q34.125 64.6562 28.9062 64.6562
Q24.7031 64.6562 21.5312 62.3125
Q17.3906 59.2812 14.9844 53.4688
Q12.5938 47.6562 12.5 36.9219
Q15.6719 41.75 20.2656 44.0938
Q24.8594 46.4375 29.8906 46.4375
Q38.6719 46.4375 44.8438 39.9688
Q51.0312 33.5 51.0312 23.25
Q51.0312 16.5 48.125 10.7188
Q45.2188 4.9375 40.1406 1.85938
Q35.0625 -1.21875 28.6094 -1.21875
Q17.625 -1.21875 10.6875 6.85938
Q3.76562 14.9375 3.76562 33.5
Q3.76562 54.25 11.4219 63.6719
Q18.1094 71.875 29.4375 71.875
Q37.8906 71.875 43.2812 67.1406
Q48.6875 62.4062 49.75 54.0469
M13.875 23.1875
Q13.875 18.6562 15.7969 14.5
Q17.7188 10.3594 21.1875 8.17188
Q24.6562 6 28.4688 6
Q34.0312 6 38.0312 10.4844
Q42.0469 14.9844 42.0469 22.7031
Q42.0469 30.125 38.0781 34.3906
Q34.125 38.6719 28.125 38.6719
Q22.1719 38.6719 18.0156 34.3906
Q13.875 30.125 13.875 23.1875" id="ArialMT-36"/>
      </defs>
      <g transform="translate(133.27047448 158.386912129)scale(0.2 -0.2)">
       <use xlink:href="#ArialMT-30"/>
       <use x="55.615234375" xlink:href="#ArialMT-2e"/>
       <use x="83.3984375" xlink:href="#ArialMT-36"/>
      </g>
     </g>
    </g>
    <g id="ytick_5">
     <g id="line2d_112">
      <path clip-path="url(#pebde201112)" d="
M163.324 84.781
L609.724 84.781" style="fill:none;stroke:#000000;stroke-dasharray:1.000000,3.000000;stroke-dashoffset:0.0;stroke-width:0.5;"/>
     </g>
     <g id="line2d_113">
      <g>
       <use style="stroke:#000000;stroke-width:0.5;" x="163.32359948" xlink:href="#m728421d6d4" y="84.7809560644"/>
      </g>
     </g>
     <g id="line2d_114">
      <g>
       <use style="stroke:#000000;stroke-width:0.5;" x="609.72359948" xlink:href="#mcb0005524f" y="84.7809560644"/>
      </g>
     </g>
     <g id="text_10">
      <!-- 0.8 -->
      <defs>
       <path d="
M17.6719 38.8125
Q12.2031 40.8281 9.5625 44.5312
Q6.9375 48.25 6.9375 53.4219
Q6.9375 61.2344 12.5469 66.5469
Q18.1719 71.875 27.4844 71.875
Q36.8594 71.875 42.5781 66.4219
Q48.2969 60.9844 48.2969 53.1719
Q48.2969 48.1875 45.6719 44.5
Q43.0625 40.8281 37.75 38.8125
Q44.3438 36.6719 47.7812 31.875
Q51.2188 27.0938 51.2188 20.4531
Q51.2188 11.2812 44.7188 5.03125
Q38.2344 -1.21875 27.6406 -1.21875
Q17.0469 -1.21875 10.5469 5.04688
Q4.04688 11.3281 4.04688 20.7031
Q4.04688 27.6875 7.59375 32.3906
Q11.1406 37.1094 17.6719 38.8125
M15.9219 53.7188
Q15.9219 48.6406 19.1875 45.4062
Q22.4688 42.1875 27.6875 42.1875
Q32.7656 42.1875 36.0156 45.375
Q39.2656 48.5781 39.2656 53.2188
Q39.2656 58.0625 35.9062 61.3594
Q32.5625 64.6562 27.5938 64.6562
Q22.5625 64.6562 19.2344 61.4219
Q15.9219 58.2031 15.9219 53.7188
M13.0938 20.6562
Q13.0938 16.8906 14.875 13.375
Q16.6562 9.85938 20.1719 7.92188
Q23.6875 6 27.7344 6
Q34.0312 6 38.125 10.0469
Q42.2344 14.1094 42.2344 20.3594
Q42.2344 26.7031 38.0156 30.8594
Q33.7969 35.0156 27.4375 35.0156
Q21.2344 35.0156 17.1562 30.9062
Q13.0938 26.8125 13.0938 20.6562" id="ArialMT-38"/>
      </defs>
      <g transform="translate(133.23297448 89.9512685644)scale(0.2 -0.2)">
       <use xlink:href="#ArialMT-30"/>
       <use x="55.615234375" xlink:href="#ArialMT-2e"/>
       <use x="83.3984375" xlink:href="#ArialMT-38"/>
      </g>
     </g>
    </g>
    <g id="ytick_6">
     <g id="line2d_115">
      <path clip-path="url(#pebde201112)" d="
M163.324 16.3453
L609.724 16.3453" style="fill:none;stroke:#000000;stroke-dasharray:1.000000,3.000000;stroke-dashoffset:0.0;stroke-width:0.5;"/>
     </g>
     <g id="line2d_116">
      <g>
       <use style="stroke:#000000;stroke-width:0.5;" x="163.32359948" xlink:href="#m728421d6d4" y="16.3453125"/>
      </g>
     </g>
     <g id="line2d_117">
      <g>
       <use style="stroke:#000000;stroke-width:0.5;" x="609.72359948" xlink:href="#mcb0005524f" y="16.3453125"/>
      </g>
     </g>
     <g id="text_11">
      <!-- 1.0 -->
      <g transform="translate(134.65797448 21.515625)scale(0.2 -0.2)">
       <use xlink:href="#ArialMT-31"/>
       <use x="55.615234375" xlink:href="#ArialMT-2e"/>
       <use x="83.3984375" xlink:href="#ArialMT-30"/>
      </g>
     </g>
    </g>
    <g id="text_12">
     <!-- Proportion of function+target pairs -->
     <defs>
      <path d="
M40.4375 19
L49.0781 17.875
Q47.6562 8.9375 41.8125 3.875
Q35.9844 -1.17188 27.4844 -1.17188
Q16.8438 -1.17188 10.375 5.78125
Q3.90625 12.75 3.90625 25.7344
Q3.90625 34.125 6.6875 40.4219
Q9.46875 46.7344 15.1562 49.875
Q20.8438 53.0312 27.5469 53.0312
Q35.9844 53.0312 41.3594 48.75
Q46.7344 44.4844 48.25 36.625
L39.7031 35.2969
Q38.4844 40.5312 35.375 43.1562
Q32.2812 45.7969 27.875 45.7969
Q21.2344 45.7969 17.0781 41.0312
Q12.9375 36.2812 12.9375 25.9844
Q12.9375 15.5312 16.9375 10.7969
Q20.9531 6.0625 27.3906 6.0625
Q32.5625 6.0625 36.0312 9.23438
Q39.5 12.4062 40.4375 19" id="ArialMT-63"/>
      <path d="
M25.7812 7.85938
L27.0469 0.09375
Q23.3438 -0.6875 20.4062 -0.6875
Q15.625 -0.6875 12.9844 0.828125
Q10.3594 2.34375 9.28125 4.8125
Q8.20312 7.28125 8.20312 15.1875
L8.20312 45.0156
L1.76562 45.0156
L1.76562 51.8594
L8.20312 51.8594
L8.20312 64.7031
L16.9375 69.9688
L16.9375 51.8594
L25.7812 51.8594
L25.7812 45.0156
L16.9375 45.0156
L16.9375 14.7031
Q16.9375 10.9375 17.4062 9.85938
Q17.875 8.79688 18.9219 8.15625
Q19.9688 7.51562 21.9219 7.51562
Q23.3906 7.51562 25.7812 7.85938" id="ArialMT-74"/>
      <path d="
M40.5781 0
L40.5781 7.625
Q34.5156 -1.17188 24.125 -1.17188
Q19.5312 -1.17188 15.5469 0.578125
Q11.5781 2.34375 9.64062 5
Q7.71875 7.67188 6.9375 11.5312
Q6.39062 14.1094 6.39062 19.7344
L6.39062 51.8594
L15.1875 51.8594
L15.1875 23.0938
Q15.1875 16.2188 15.7188 13.8125
Q16.5469 10.3594 19.2344 8.375
Q21.9219 6.39062 25.875 6.39062
Q29.8281 6.39062 33.2969 8.42188
Q36.7656 10.4531 38.2031 13.9375
Q39.6562 17.4375 39.6562 24.0781
L39.6562 51.8594
L48.4375 51.8594
L48.4375 0
z
" id="ArialMT-75"/>
      <path d="
M7.71875 0
L7.71875 71.5781
L34.7188 71.5781
Q41.8438 71.5781 45.6094 70.9062
Q50.875 70.0156 54.4375 67.5469
Q58.0156 65.0938 60.1875 60.6406
Q62.3594 56.2031 62.3594 50.875
Q62.3594 41.75 56.5469 35.4219
Q50.7344 29.1094 35.5469 29.1094
L17.1875 29.1094
L17.1875 0
z

M17.1875 37.5469
L35.6875 37.5469
Q44.875 37.5469 48.7344 40.9688
Q52.5938 44.3906 52.5938 50.5938
Q52.5938 55.0781 50.3125 58.2656
Q48.0469 61.4688 44.3438 62.5
Q41.9375 63.1406 35.5 63.1406
L17.1875 63.1406
z
" id="ArialMT-50"/>
      <path d="
M6.59375 -19.875
L6.59375 51.8594
L14.5938 51.8594
L14.5938 45.125
Q17.4375 49.0781 21 51.0469
Q24.5625 53.0312 29.6406 53.0312
Q36.2812 53.0312 41.3594 49.6094
Q46.4375 46.1875 49.0156 39.9531
Q51.6094 33.7344 51.6094 26.3125
Q51.6094 18.3594 48.75 11.9844
Q45.9062 5.60938 40.4531 2.21875
Q35.0156 -1.17188 29 -1.17188
Q24.6094 -1.17188 21.1094 0.6875
Q17.625 2.54688 15.375 5.375
L15.375 -19.875
z

M14.5469 25.6406
Q14.5469 15.625 18.5938 10.8438
Q22.6562 6.0625 28.4219 6.0625
Q34.2812 6.0625 38.4531 11.0156
Q42.625 15.9688 42.625 26.375
Q42.625 36.2812 38.5469 41.2031
Q34.4688 46.1406 28.8125 46.1406
Q23.1875 46.1406 18.8594 40.8906
Q14.5469 35.6406 14.5469 25.6406" id="ArialMT-70"/>
      <path d="
M25.0469 11.5781
L25.0469 31.2031
L5.5625 31.2031
L5.5625 39.4062
L25.0469 39.4062
L25.0469 58.8906
L33.3438 58.8906
L33.3438 39.4062
L52.8281 39.4062
L52.8281 31.2031
L33.3438 31.2031
L33.3438 11.5781
z
" id="ArialMT-2b"/>
      <path d="
M6.5 0
L6.5 51.8594
L14.4062 51.8594
L14.4062 44
Q17.4375 49.5156 20 51.2656
Q22.5625 53.0312 25.6406 53.0312
Q30.0781 53.0312 34.6719 50.2031
L31.6406 42.0469
Q28.4219 43.9531 25.2031 43.9531
Q22.3125 43.9531 20.0156 42.2188
Q17.7188 40.4844 16.75 37.4062
Q15.2812 32.7188 15.2812 27.1562
L15.2812 0
z
" id="ArialMT-72"/>
     </defs>
     <g transform="translate(124.44453698 321.197436572)rotate(-90.0)scale(0.18 -0.18)">
      <use xlink:href="#ArialMT-50"/>
      <use x="66.69921875" xlink:href="#ArialMT-72"/>
      <use x="100.0" xlink:href="#ArialMT-6f"/>
      <use x="155.615234375" xlink:href="#ArialMT-70"/>
      <use x="211.23046875" xlink:href="#ArialMT-6f"/>
      <use x="266.845703125" xlink:href="#ArialMT-72"/>
      <use x="300.146484375" xlink:href="#ArialMT-74"/>
      <use x="327.9296875" xlink:href="#ArialMT-69"/>
      <use x="350.146484375" xlink:href="#ArialMT-6f"/>
      <use x="405.76171875" xlink:href="#ArialMT-6e"/>
      <use x="461.376953125" xlink:href="#ArialMT-20"/>
      <use x="489.16015625" xlink:href="#ArialMT-6f"/>
      <use x="544.775390625" xlink:href="#ArialMT-66"/>
      <use x="572.55859375" xlink:href="#ArialMT-20"/>
      <use x="600.341796875" xlink:href="#ArialMT-66"/>
      <use x="628.125" xlink:href="#ArialMT-75"/>
      <use x="683.740234375" xlink:href="#ArialMT-6e"/>
      <use x="739.35546875" xlink:href="#ArialMT-63"/>
      <use x="789.35546875" xlink:href="#ArialMT-74"/>
      <use x="817.138671875" xlink:href="#ArialMT-69"/>
      <use x="839.35546875" xlink:href="#ArialMT-6f"/>
      <use x="894.970703125" xlink:href="#ArialMT-6e"/>
      <use x="950.5859375" xlink:href="#ArialMT-2b"/>
      <use x="1008.984375" xlink:href="#ArialMT-74"/>
      <use x="1036.76757812" xlink:href="#ArialMT-61"/>
      <use x="1092.3828125" xlink:href="#ArialMT-72"/>
      <use x="1125.68359375" xlink:href="#ArialMT-67"/>
      <use x="1181.29882812" xlink:href="#ArialMT-65"/>
      <use x="1236.9140625" xlink:href="#ArialMT-74"/>
      <use x="1264.69726562" xlink:href="#ArialMT-20"/>
      <use x="1292.48046875" xlink:href="#ArialMT-70"/>
      <use x="1348.09570312" xlink:href="#ArialMT-61"/>
      <use x="1403.7109375" xlink:href="#ArialMT-69"/>
      <use x="1425.92773438" xlink:href="#ArialMT-72"/>
      <use x="1459.22851562" xlink:href="#ArialMT-73"/>
     </g>
    </g>
   </g>
   <g id="patch_3">
    <path d="
M163.324 12.9235
L609.724 12.9235" style="fill:none;stroke:#000000;"/>
   </g>
   <g id="patch_4">
    <path d="
M609.724 358.524
L609.724 12.9235" style="fill:none;stroke:#000000;"/>
   </g>
   <g id="patch_5">
    <path d="
M163.324 358.524
L609.724 358.524" style="fill:none;stroke:#000000;"/>
   </g>
   <g id="patch_6">
    <path d="
M163.324 358.524
L163.324 12.9235" style="fill:none;stroke:#000000;"/>
   </g>
   <g id="text_13">
    <!-- 3-D -->
    <defs>
     <path d="
M7.71875 0
L7.71875 71.5781
L32.375 71.5781
Q40.7188 71.5781 45.125 70.5625
Q51.2656 69.1406 55.6094 65.4375
Q61.2812 60.6406 64.0781 53.1875
Q66.8906 45.75 66.8906 36.1875
Q66.8906 28.0312 64.9844 21.7344
Q63.0938 15.4375 60.1094 11.2969
Q57.125 7.17188 53.5781 4.79688
Q50.0469 2.4375 45.0469 1.21875
Q40.0469 0 33.5469 0
z

M17.1875 8.45312
L32.4688 8.45312
Q39.5469 8.45312 43.5781 9.76562
Q47.6094 11.0781 50 13.4844
Q53.375 16.8438 55.25 22.5312
Q57.125 28.2188 57.125 36.3281
Q57.125 47.5625 53.4375 53.5938
Q49.75 59.625 44.4844 61.6719
Q40.6719 63.1406 32.2344 63.1406
L17.1875 63.1406
z
" id="ArialMT-44"/>
    </defs>
    <g transform="translate(570.12359948 355.55770034)scale(0.15 -0.15)">
     <use xlink:href="#ArialMT-33"/>
     <use x="55.615234375" xlink:href="#ArialMT-2d"/>
     <use x="88.916015625" xlink:href="#ArialMT-44"/>
    </g>
   </g>
   <g id="text_14">
    <!-- 5-D -->
    <defs>
     <path d="
M4.15625 18.75
L13.375 19.5312
Q14.4062 12.7969 18.1406 9.39062
Q21.875 6 27.1562 6
Q33.5 6 37.8906 10.7812
Q42.2812 15.5781 42.2812 23.4844
Q42.2812 31 38.0625 35.3438
Q33.8438 39.7031 27 39.7031
Q22.75 39.7031 19.3281 37.7656
Q15.9219 35.8438 13.9688 32.7656
L5.71875 33.8438
L12.6406 70.6094
L48.25 70.6094
L48.25 62.2031
L19.6719 62.2031
L15.8281 42.9688
Q22.2656 47.4688 29.3438 47.4688
Q38.7188 47.4688 45.1562 40.9688
Q51.6094 34.4688 51.6094 24.2656
Q51.6094 14.5469 45.9531 7.46875
Q39.0625 -1.21875 27.1562 -1.21875
Q17.3906 -1.21875 11.2031 4.25
Q5.03125 9.71875 4.15625 18.75" id="ArialMT-35"/>
    </defs>
    <g transform="translate(570.12359948 273.434928063)scale(0.15 -0.15)">
     <use xlink:href="#ArialMT-35"/>
     <use x="55.615234375" xlink:href="#ArialMT-2d"/>
     <use x="88.916015625" xlink:href="#ArialMT-44"/>
    </g>
   </g>
   <g id="text_15">
    <!-- 20-D -->
    <g transform="translate(570.12359948 191.312155786)scale(0.15 -0.15)">
     <use xlink:href="#ArialMT-32"/>
     <use x="55.615234375" xlink:href="#ArialMT-30"/>
     <use x="111.23046875" xlink:href="#ArialMT-2d"/>
     <use x="144.53125" xlink:href="#ArialMT-44"/>
    </g>
   </g>
   <g id="text_16">
    <!-- 10-D -->
    <g transform="translate(570.12359948 109.189383509)scale(0.15 -0.15)">
     <use xlink:href="#ArialMT-31"/>
     <use x="55.615234375" xlink:href="#ArialMT-30"/>
     <use x="111.23046875" xlink:href="#ArialMT-2d"/>
     <use x="144.53125" xlink:href="#ArialMT-44"/>
    </g>
   </g>
   <g id="text_17">
    <!-- 2-D -->
    <g transform="translate(570.12359948 27.0666112314)scale(0.15 -0.15)">
     <use xlink:href="#ArialMT-32"/>
     <use x="55.615234375" xlink:href="#ArialMT-2d"/>
     <use x="88.916015625" xlink:href="#ArialMT-44"/>
    </g>
   </g>
   <g id="text_18">
    <!-- bbob - f15-f19 -->
    <defs>
     <path d="
M14.7031 0
L6.54688 0
L6.54688 71.5781
L15.3281 71.5781
L15.3281 46.0469
Q20.9062 53.0312 29.5469 53.0312
Q34.3281 53.0312 38.5938 51.0938
Q42.875 49.1719 45.625 45.6719
Q48.3906 42.1875 49.9531 37.25
Q51.5156 32.3281 51.5156 26.7031
Q51.5156 13.375 44.9219 6.09375
Q38.3281 -1.17188 29.1094 -1.17188
Q19.9219 -1.17188 14.7031 6.5
z

M14.5938 26.3125
Q14.5938 17 17.1406 12.8438
Q21.2969 6.0625 28.375 6.0625
Q34.125 6.0625 38.3281 11.0625
Q42.5312 16.0625 42.5312 25.9844
Q42.5312 36.1406 38.5 40.9688
Q34.4688 45.7969 28.7656 45.7969
Q23 45.7969 18.7969 40.7969
Q14.5938 35.7969 14.5938 26.3125" id="ArialMT-62"/>
     <path d="
M5.46875 16.5469
L13.9219 17.3281
Q14.9844 11.375 18.0156 8.6875
Q21.0469 6 25.7812 6
Q29.8281 6 32.875 7.85938
Q35.9375 9.71875 37.8906 12.8125
Q39.8438 15.9219 41.1562 21.1875
Q42.4844 26.4688 42.4844 31.9375
Q42.4844 32.5156 42.4375 33.6875
Q39.7969 29.5 35.2344 26.875
Q30.6719 24.2656 25.3438 24.2656
Q16.4531 24.2656 10.2969 30.7031
Q4.15625 37.1562 4.15625 47.7031
Q4.15625 58.5938 10.5781 65.2344
Q17 71.875 26.6562 71.875
Q33.6406 71.875 39.4219 68.1094
Q45.2188 64.3594 48.2188 57.3906
Q51.2188 50.4375 51.2188 37.25
Q51.2188 23.5312 48.2344 15.4062
Q45.2656 7.28125 39.375 3.03125
Q33.5 -1.21875 25.5938 -1.21875
Q17.1875 -1.21875 11.8594 3.4375
Q6.54688 8.10938 5.46875 16.5469
M41.4531 48.1406
Q41.4531 55.7188 37.4219 60.1562
Q33.4062 64.5938 27.7344 64.5938
Q21.875 64.5938 17.5312 59.8125
Q13.1875 55.0312 13.1875 47.4062
Q13.1875 40.5781 17.3125 36.2969
Q21.4375 32.0312 27.4844 32.0312
Q33.5938 32.0312 37.5156 36.2969
Q41.4531 40.5781 41.4531 48.1406" id="ArialMT-39"/>
    </defs>
    <g transform="translate(167.78759948 31.7604459468)scale(0.1666 -0.1666)">
     <use xlink:href="#ArialMT-62"/>
     <use x="55.615234375" xlink:href="#ArialMT-62"/>
     <use x="111.23046875" xlink:href="#ArialMT-6f"/>
     <use x="166.845703125" xlink:href="#ArialMT-62"/>
     <use x="222.4609375" xlink:href="#ArialMT-20"/>
     <use x="250.244140625" xlink:href="#ArialMT-2d"/>
     <use x="283.544921875" xlink:href="#ArialMT-20"/>
     <use x="311.328125" xlink:href="#ArialMT-66"/>
     <use x="339.111328125" xlink:href="#ArialMT-31"/>
     <use x="394.7265625" xlink:href="#ArialMT-35"/>
     <use x="450.341796875" xlink:href="#ArialMT-2d"/>
     <use x="483.642578125" xlink:href="#ArialMT-66"/>
     <use x="511.42578125" xlink:href="#ArialMT-31"/>
     <use x="567.041015625" xlink:href="#ArialMT-39"/>
    </g>
    <!-- 31 target RLs/dim: 0.5..50 -->
    <defs>
     <path d="
M7.85938 0
L7.85938 71.5781
L39.5938 71.5781
Q49.1719 71.5781 54.1406 69.6406
Q59.125 67.7188 62.1094 62.8281
Q65.0938 57.9531 65.0938 52.0469
Q65.0938 44.4375 60.1562 39.2031
Q55.2188 33.9844 44.9219 32.5625
Q48.6875 30.7656 50.6406 29
Q54.7812 25.2031 58.5 19.4844
L70.9531 0
L59.0312 0
L49.5625 14.8906
Q45.4062 21.3438 42.7188 24.75
Q40.0469 28.1719 37.9219 29.5312
Q35.7969 30.9062 33.5938 31.4531
Q31.9844 31.7812 28.3281 31.7812
L17.3281 31.7812
L17.3281 0
z

M17.3281 39.9844
L37.7031 39.9844
Q44.1875 39.9844 47.8438 41.3281
Q51.5156 42.6719 53.4219 45.625
Q55.3281 48.5781 55.3281 52.0469
Q55.3281 57.125 51.6406 60.3906
Q47.9531 63.6719 39.9844 63.6719
L17.3281 63.6719
z
" id="ArialMT-52"/>
     <path d="
M9.03125 41.8438
L9.03125 51.8594
L19.0469 51.8594
L19.0469 41.8438
z

M9.03125 0
L9.03125 10.0156
L19.0469 10.0156
L19.0469 0
z
" id="ArialMT-3a"/>
     <path d="
M7.32812 0
L7.32812 71.5781
L16.7969 71.5781
L16.7969 8.45312
L52.0469 8.45312
L52.0469 0
z
" id="ArialMT-4c"/>
    </defs>
    <g transform="translate(167.78759948 49.6251721968)scale(0.1666 -0.1666)">
     <use xlink:href="#ArialMT-33"/>
     <use x="55.615234375" xlink:href="#ArialMT-31"/>
     <use x="111.23046875" xlink:href="#ArialMT-20"/>
     <use x="139.013671875" xlink:href="#ArialMT-74"/>
     <use x="166.796875" xlink:href="#ArialMT-61"/>
     <use x="222.412109375" xlink:href="#ArialMT-72"/>
     <use x="255.712890625" xlink:href="#ArialMT-67"/>
     <use x="311.328125" xlink:href="#ArialMT-65"/>
     <use x="366.943359375" xlink:href="#ArialMT-74"/>
     <use x="394.7265625" xlink:href="#ArialMT-20"/>
     <use x="422.509765625" xlink:href="#ArialMT-52"/>
     <use x="494.7265625" xlink:href="#ArialMT-4c"/>
     <use x="550.341796875" xlink:href="#ArialMT-73"/>
     <use x="600.341796875" xlink:href="#ArialMT-2f"/>
     <use x="628.125" xlink:href="#ArialMT-64"/>
     <use x="683.740234375" xlink:href="#ArialMT-69"/>
     <use x="705.95703125" xlink:href="#ArialMT-6d"/>
     <use x="789.2578125" xlink:href="#ArialMT-3a"/>
     <use x="817.041015625" xlink:href="#ArialMT-20"/>
     <use x="844.82421875" xlink:href="#ArialMT-30"/>
     <use x="900.439453125" xlink:href="#ArialMT-2e"/>
     <use x="928.22265625" xlink:href="#ArialMT-35"/>
     <use x="983.837890625" xlink:href="#ArialMT-2e"/>
     <use x="1011.62109375" xlink:href="#ArialMT-2e"/>
     <use x="1039.40429688" xlink:href="#ArialMT-35"/>
     <use x="1095.01953125" xlink:href="#ArialMT-30"/>
    </g>
    <!--    from refalgs/best2009-bbob.tar.gz -->
    <defs>
     <path d="
M1.95312 0
L1.95312 7.125
L34.9688 45.0156
Q29.3438 44.7344 25.0469 44.7344
L3.90625 44.7344
L3.90625 51.8594
L46.2969 51.8594
L46.2969 46.0469
L18.2188 13.1406
L12.7969 7.125
Q18.7031 7.5625 23.875 7.5625
L47.8594 7.5625
L47.8594 0
z
" id="ArialMT-7a"/>
    </defs>
    <g transform="translate(167.78759948 67.6851328218)scale(0.1666 -0.1666)">
     <use xlink:href="#ArialMT-20"/>
     <use x="27.783203125" xlink:href="#ArialMT-20"/>
     <use x="55.56640625" xlink:href="#ArialMT-20"/>
     <use x="83.349609375" xlink:href="#ArialMT-66"/>
     <use x="111.1328125" xlink:href="#ArialMT-72"/>
     <use x="144.43359375" xlink:href="#ArialMT-6f"/>
     <use x="200.048828125" xlink:href="#ArialMT-6d"/>
     <use x="283.349609375" xlink:href="#ArialMT-20"/>
     <use x="311.1328125" xlink:href="#ArialMT-72"/>
     <use x="344.43359375" xlink:href="#ArialMT-65"/>
     <use x="400.048828125" xlink:href="#ArialMT-66"/>
     <use x="427.83203125" xlink:href="#ArialMT-61"/>
     <use x="483.447265625" xlink:href="#ArialMT-6c"/>
     <use x="505.6640625" xlink:href="#ArialMT-67"/>
     <use x="561.279296875" xlink:href="#ArialMT-73"/>
     <use x="611.279296875" xlink:href="#ArialMT-2f"/>
     <use x="639.0625" xlink:href="#ArialMT-62"/>
     <use x="694.677734375" xlink:href="#ArialMT-65"/>
     <use x="750.29296875" xlink:href="#ArialMT-73"/>
     <use x="800.29296875" xlink:href="#ArialMT-74"/>
     <use x="828.076171875" xlink:href="#ArialMT-32"/>
     <use x="883.69140625" xlink:href="#ArialMT-30"/>
     <use x="939.306640625" xlink:href="#ArialMT-30"/>
     <use x="994.921875" xlink:href="#ArialMT-39"/>
     <use x="1050.53710938" xlink:href="#ArialMT-2d"/>
     <use x="1083.83789062" xlink:href="#ArialMT-62"/>
     <use x="1139.453125" xlink:href="#ArialMT-62"/>
     <use x="1195.06835938" xlink:href="#ArialMT-6f"/>
     <use x="1250.68359375" xlink:href="#ArialMT-62"/>
     <use x="1306.29882812" xlink:href="#ArialMT-2e"/>
     <use x="1334.08203125" xlink:href="#ArialMT-74"/>
     <use x="1361.86523438" xlink:href="#ArialMT-61"/>
     <use x="1417.48046875" xlink:href="#ArialMT-72"/>
     <use x="1445.28125" xlink:href="#ArialMT-2e"/>
     <use x="1473.06445312" xlink:href="#ArialMT-67"/>
     <use x="1528.6796875" xlink:href="#ArialMT-7a"/>
    </g>
    <!-- 15 instances -->
    <g transform="translate(167.78759948 85.5014409468)scale(0.1666 -0.1666)">
     <use xlink:href="#ArialMT-31"/>
     <use x="55.615234375" xlink:href="#ArialMT-35"/>
     <use x="111.23046875" xlink:href="#ArialMT-20"/>
     <use x="139.013671875" xlink:href="#ArialMT-69"/>
     <use x="161.23046875" xlink:href="#ArialMT-6e"/>
     <use x="216.845703125" xlink:href="#ArialMT-73"/>
     <use x="266.845703125" xlink:href="#ArialMT-74"/>
     <use x="294.62890625" xlink:href="#ArialMT-61"/>
     <use x="350.244140625" xlink:href="#ArialMT-6e"/>
     <use x="405.859375" xlink:href="#ArialMT-63"/>
     <use x="455.859375" xlink:href="#ArialMT-65"/>
     <use x="511.474609375" xlink:href="#ArialMT-73"/>
    </g>
   </g>
   <g id="text_19">
    <!-- v2.0.1 -->
    <g style="fill:#808080;" transform="translate(373.88531823 353.080030322)scale(0.1 -0.1)">
     <use xlink:href="#ArialMT-76"/>
     <use x="50.0" xlink:href="#ArialMT-32"/>
     <use x="105.615234375" xlink:href="#ArialMT-2e"/>
     <use x="133.3984375" xlink:href="#ArialMT-30"/>
     <use x="189.013671875" xlink:href="#ArialMT-2e"/>
     <use x="216.796875" xlink:href="#ArialMT-31"/>
    </g>
   </g>
  </g>
 </g>
 <defs>
  <clipPath id="pebde201112">
   <rect height="345.6" width="446.4" x="163.32359948" y="12.9235303218"/>
  </clipPath>
 </defs>
</svg>
