<?xml version="1.0" encoding="utf-8" standalone="no"?>
<!DOCTYPE svg PUBLIC "-//W3C//DTD SVG 1.1//EN"
  "http://www.w3.org/Graphics/SVG/1.1/DTD/svg11.dtd">
<!-- Created with matplotlib (http://matplotlib.org/) -->
<svg height="414pt" version="1.1" viewBox="0 0 586 414" width="586pt" xmlns="http://www.w3.org/2000/svg" xmlns:xlink="http://www.w3.org/1999/xlink">
 <defs>
  <style type="text/css">
*{stroke-linecap:butt;stroke-linejoin:round;}
  </style>
 </defs>
 <g id="figure_1">
  <g id="patch_1">
   <path d="
M0 414.924
L586.8 414.924
L586.8 0
L0 0
z
" style="fill:#ffffff;"/>
  </g>
  <g id="axes_1">
   <g id="patch_2">
    <path d="
M133.2 358.524
L579.6 358.524
L579.6 12.9235
L133.2 12.9235
z
" style="fill:#ffffff;"/>
   </g>
   <g id="line2d_1">
    <defs>
     <path d="
M0 1.5
C0.397805 1.5 0.77937 1.34195 1.06066 1.06066
C1.34195 0.77937 1.5 0.397805 1.5 0
C1.5 -0.397805 1.34195 -0.77937 1.06066 -1.06066
C0.77937 -1.34195 0.397805 -1.5 0 -1.5
C-0.397805 -1.5 -0.77937 -1.34195 -1.06066 -1.06066
C-1.34195 -0.77937 -1.5 -0.397805 -1.5 0
C-1.5 0.397805 -1.34195 0.77937 -1.06066 1.06066
C-0.77937 1.34195 -0.397805 1.5 0 1.5
z
" id="m977c291b42" style="stroke:#00bfbf;stroke-width:0.5;"/>
    </defs>
    <g>
     <use style="fill:#00bfbf;stroke:#00bfbf;stroke-width:0.5;" x="532.642240438" xlink:href="#m977c291b42" y="16.3453125"/>
     <use style="fill:#00bfbf;stroke:#00bfbf;stroke-width:0.5;" x="532.642240438" xlink:href="#m977c291b42" y="16.3453125"/>
    </g>
   </g>
   <g id="line2d_2">
    <path d="
M97.0764 319.173
L133.2 319.173
L133.2 307.197
L154.331 307.197
L154.331 286.666
L169.324 286.666
L169.324 272.979
L180.953 272.979
L180.953 257.581
L190.455 257.581
L190.455 254.159
L198.488 254.159
L198.488 245.605
L205.447 245.605
L205.447 240.472
L211.586 240.472
L211.586 237.906
L217.076 237.906
L217.076 232.773
L222.044 232.773
L222.044 227.64
L226.578 227.64
L226.578 219.086
L230.75 219.086
L230.75 211.387
L234.612 211.387
L234.612 208.821
L238.207 208.821
L238.207 201.122
L241.571 201.122
L241.571 191.712
L244.73 191.712
L244.73 189.145
L247.709 189.145
L247.709 183.157
L250.527 183.157
L250.527 170.326
L255.743 170.326
L255.743 166.904
L258.167 166.904
L258.167 160.916
L260.484 160.916
L260.484 157.494
L262.702 157.494
L262.702 153.217
L264.829 153.217
L264.829 152.361
L268.84 152.361
L268.84 150.65
L270.735 150.65
L270.735 148.084
L272.564 148.084
L272.564 146.373
L274.331 146.373
L274.331 142.951
L276.04 142.951
L276.04 137.819
L277.694 137.819
L277.694 135.252
L279.298 135.252
L279.298 133.541
L280.854 133.541
L280.854 131.83
L283.833 131.83
L283.833 126.698
L286.65 126.698
L286.65 124.987
L289.324 124.987
L289.324 122.421
L290.61 122.421
L290.61 120.71
L291.866 120.71
L291.866 119.854
L295.462 119.854
L295.462 118.143
L298.825 118.143
L298.825 116.432
L299.9 116.432
L299.9 112.155
L303.99 112.155
L303.99 111.3
L306.859 111.3
L306.859 110.444
L308.688 110.444
L308.688 109.589
L312.997 109.589
L312.997 107.878
L315.422 107.878
L315.422 106.167
L316.205 106.167
L316.205 105.312
L317.738 105.312
L317.738 104.456
L324.128 104.456
L324.128 103.601
L327.366 103.601
L327.366 102.745
L329.819 102.745
L329.819 101.89
L332.161 101.89
L332.161 100.179
L332.731 100.179
L332.731 99.3235
L333.852 99.3235
L333.852 97.6126
L334.949 97.6126
L334.949 96.7572
L338.108 96.7572
L338.108 95.9017
L345.259 95.9017
L345.259 94.1909
L373.46 94.1909
L373.46 90.7691
L374.487 90.7691
L374.487 88.2027
L374.993 88.2027
L374.993 86.4918
L376.482 86.4918
L376.482 85.6364
L377.211 85.6364
L377.211 83.9255
L377.93 83.9255
L377.93 83.0701
L378.403 83.0701
L378.403 82.2146
L378.873 82.2146
L378.873 80.5037
L379.106 80.5037
L379.106 79.6483
L379.569 79.6483
L379.569 76.2265
L380.029 76.2265
L380.029 75.3711
L380.257 75.3711
L380.257 73.6602
L380.484 73.6602
L380.484 72.8047
L380.71 72.8047
L380.71 71.9493
L381.159 71.9493
L381.159 71.0938
L381.826 71.0938
L381.826 70.2384
L382.484 70.2384
L382.484 69.3829
L382.702 69.3829
L382.702 68.5275
L383.776 68.5275
L383.776 67.672
L384.411 67.672
L384.411 66.8166
L384.829 66.8166
L384.829 65.9612
L385.451 65.9612
L385.451 65.1057
L388.062 65.1057
L388.062 64.2503
L390.921 64.2503
L390.921 63.3948
L391.106 63.3948
L391.106 61.6839
L397.204 61.6839
L397.204 60.8285
L409.584 60.8285
L409.584 59.973
L409.971 59.973
L409.971 59.1176
L410.228 59.1176
L410.228 58.2621
L410.864 58.2621
L410.864 56.5513
L410.99 56.5513
L410.99 54.8404
L411.368 54.8404
L411.368 53.9849
L412.606 53.9849
L412.606 53.1295
L412.728 53.1295
L412.728 51.4186
L412.971 51.4186
L412.971 49.7077
L413.093 49.7077
L413.093 48.8522
L413.214 48.8522
L413.214 46.2859
L413.455 46.2859
L413.455 45.4305
L413.815 45.4305
L413.815 44.575
L415.693 44.575
L415.693 42.8641
L422.695 42.8641
L422.695 42.0087
L430.541 42.0087
L430.541 41.1532
L431.487 41.1532
L431.572 38.5869
L431.826 38.5869
L431.826 37.7315
L432.247 37.7315
L432.247 36.876
L433.08 36.876
L433.08 36.0206
L437.131 36.0206
L437.131 35.1651
L437.511 35.1651
L437.511 34.3097
L446.287 34.3097
L446.287 33.4542
L446.988 33.4542
L446.988 32.5988
L447.429 32.5988
L447.491 30.8879
L447.741 30.8879
L447.741 30.0324
L457.698 30.0324
L457.698 29.177
L458.718 29.177
L458.718 28.3216
L460.26 28.3216
L460.26 27.4661
L466.665 27.4661
L466.665 26.6107
L467.097 26.6107
L467.14 24.8998
L467.992 24.8998
L467.992 24.0443
L470.509 24.0443
L470.509 23.1889
L475.571 23.1889
L475.571 22.3334
L481.798 22.3334
L481.798 21.478
L487.854 21.478
L487.854 20.6225
L493.2 20.6225
L493.2 20.6225" style="fill:none;stroke:#00bfbf;stroke-linecap:square;stroke-width:1.5;"/>
   </g>
   <g id="line2d_3">
    <defs>
     <path d="
M-6 0
L6 0
M0 6
L0 -6" id="m3e4de746de" style="stroke:#00bfbf;stroke-width:1.5;"/>
    </defs>
    <g>
     <use style="fill:none;stroke:#00bfbf;stroke-width:1.5;" x="97.0764005203" xlink:href="#m3e4de746de" y="358.523530322"/>
     <use style="fill:none;stroke:#00bfbf;stroke-width:1.5;" x="198.488165322" xlink:href="#m3e4de746de" y="254.159173886"/>
     <use style="fill:none;stroke:#00bfbf;stroke-width:1.5;" x="270.735364281" xlink:href="#m3e4de746de" y="150.650262995"/>
     <use style="fill:none;stroke:#00bfbf;stroke-width:1.5;" x="324.127752843" xlink:href="#m3e4de746de" y="104.456203589"/>
     <use style="fill:none;stroke:#00bfbf;stroke-width:1.5;" x="447.741153813" xlink:href="#m3e4de746de" y="30.8878867574"/>
     <use style="fill:none;stroke:#00bfbf;stroke-width:1.5;" x="493.2" xlink:href="#m3e4de746de" y="20.6225402228"/>
    </g>
   </g>
   <g id="line2d_4"/>
   <g id="line2d_5">
    <path clip-path="url(#p63d92de1a6)" d="
M373.2 94.1909" style="fill:none;stroke:#00bfbf;stroke-linecap:square;"/>
    <defs>
     <path d="
M-12 12
L12 -12
M-12 -12
L12 12" id="m09e435d1d9" style="stroke:#00bfbf;stroke-width:3;"/>
    </defs>
    <g clip-path="url(#p63d92de1a6)">
     <use style="fill:#00bfbf;stroke:#00bfbf;stroke-width:3;" x="373.2" xlink:href="#m09e435d1d9" y="94.1908570545"/>
    </g>
   </g>
   <g id="line2d_6">
    <defs>
     <path d="
M0 1.5
C0.397805 1.5 0.77937 1.34195 1.06066 1.06066
C1.34195 0.77937 1.5 0.397805 1.5 0
C1.5 -0.397805 1.34195 -0.77937 1.06066 -1.06066
C0.77937 -1.34195 0.397805 -1.5 0 -1.5
C-0.397805 -1.5 -0.77937 -1.34195 -1.06066 -1.06066
C-1.34195 -0.77937 -1.5 -0.397805 -1.5 0
C-1.5 0.397805 -1.34195 0.77937 -1.06066 1.06066
C-0.77937 1.34195 -0.397805 1.5 0 1.5
z
" id="mb0b177905e" style="stroke:#008000;stroke-width:0.5;"/>
    </defs>
    <g>
     <use style="fill:#008000;stroke:#008000;stroke-width:0.5;" x="534.93422599" xlink:href="#mb0b177905e" y="16.3453125"/>
     <use style="fill:#008000;stroke:#008000;stroke-width:0.5;" x="534.93422599" xlink:href="#mb0b177905e" y="16.3453125"/>
    </g>
   </g>
   <g id="line2d_7">
    <path d="
M112.069 308.663
L133.2 308.663
L133.2 293.021
L148.193 293.021
L148.193 284.222
L159.822 284.222
L159.822 276.401
L169.324 276.401
L169.324 263.691
L177.357 263.691
L177.357 256.848
L184.316 256.848
L184.316 255.87
L190.455 255.87
L190.455 249.027
L195.945 249.027
L195.945 246.094
L205.447 246.094
L205.447 234.362
L209.619 234.362
L209.619 231.429
L213.481 231.429
L213.481 228.496
L217.076 228.496
L217.076 223.608
L220.44 223.608
L220.44 220.675
L226.578 220.675
L226.578 214.809
L229.396 214.809
L229.396 211.876
L232.069 211.876
L232.069 210.898
L234.612 210.898
L234.612 202.099
L237.036 202.099
L237.036 197.211
L239.353 197.211
L239.353 189.39
L241.571 189.39
L241.571 185.479
L243.698 185.479
L243.698 182.546
L245.742 182.546
L245.742 177.658
L247.709 177.658
L247.709 168.859
L249.604 168.859
L249.604 161.038
L251.433 161.038
L251.433 160.06
L253.2 160.06
L253.2 157.127
L254.909 157.127
L254.909 153.217
L256.563 153.217
L256.563 150.284
L258.167 150.284
L258.167 148.328
L259.723 148.328
L259.723 147.351
L261.234 147.351
L261.234 144.418
L262.702 144.418
L262.702 139.529
L266.873 139.529
L266.873 138.552
L268.193 138.552
L268.193 136.597
L270.735 136.597
L270.735 134.641
L273.16 134.641
L273.16 131.708
L274.331 131.708
L274.331 130.731
L276.597 130.731
L276.597 126.82
L277.694 126.82
L277.694 122.909
L278.769 122.909
L278.769 119.976
L279.822 119.976
L279.822 117.043
L280.854 117.043
L280.854 116.066
L281.866 116.066
L281.866 115.088
L285.728 115.088
L285.728 113.133
L288.448 113.133
L288.448 112.155
L291.866 112.155
L291.866 109.222
L293.495 109.222
L293.495 106.289
L297.357 106.289
L297.357 105.312
L298.096 105.312
L298.096 104.334
L298.825 104.334
L298.825 102.379
L300.953 102.379
L300.953 97.4904
L303.661 97.4904
L303.661 95.5351
L309.283 95.5351
L309.283 93.5798
L309.872 93.5798
L309.872 92.6022
L311.03 92.6022
L311.03 91.6245
L311.6 91.6245
L311.6 90.6469
L314.358 90.6469
L314.358 88.6916
L314.893 88.6916
L314.893 87.7139
L318.488 87.7139
L318.488 86.7363
L327.99 86.7363
L327.99 85.7586
L339.12 85.7586
L339.12 84.781
L358.669 84.781
L358.669 82.8257
L363.906 82.8257
L363.906 81.848
L373.719 81.848
L373.719 80.8703
L375.244 80.8703
L375.244 79.8927
L375.411 79.8927
L375.411 78.915
L375.743 78.915
L375.743 77.9374
L377.05 77.9374
L377.05 75.9821
L377.532 75.9821
L377.532 75.0044
L377.691 75.0044
L377.691 73.0491
L378.795 73.0491
L378.795 72.0715
L379.569 72.0715
L379.569 71.0938
L380.785 71.0938
L380.785 70.1162
L381.382 70.1162
L381.382 69.1385
L382.557 69.1385
L382.557 68.1609
L383.563 68.1609
L383.563 67.1832
L385.106 67.1832
L385.106 66.2056
L385.382 66.2056
L385.382 65.2279
L386.739 65.2279
L386.739 64.2503
L387.14 64.2503
L387.14 63.2726
L387.273 63.2726
L387.273 61.3173
L388.062 61.3173
L388.062 60.3397
L389.733 60.3397
L389.733 59.362
L394.562 59.362
L394.562 58.3844
L404.884 58.3844
L404.884 57.4067
L406.283 57.4067
L406.283 56.429
L409.41 56.429
L409.41 55.4514
L409.842 55.4514
L409.842 53.4961
L410.441 53.4961
L410.441 52.5184
L410.61 52.5184
L410.61 51.5408
L411.368 51.5408
L411.368 50.5631
L411.618 50.5631
L411.618 49.5855
L412.196 49.5855
L412.196 48.6078
L412.524 48.6078
L412.524 47.6302
L412.687 47.6302
L412.687 46.6525
L414.37 46.6525
L414.37 45.6749
L415.462 45.6749
L415.462 44.6972
L415.923 44.6972
L416 41.7643
L418.243 41.7643
L418.243 40.7866
L421.092 40.7866
L421.092 38.8313
L427.537 38.8313
L427.537 37.8537
L430.512 37.8537
L430.512 36.876
L432.499 36.876
L432.499 35.8984
L432.61 35.8984
L432.61 34.9207
L434.733 34.9207
L434.733 33.943
L434.999 33.943
L434.999 32.9654
L435.893 32.9654
L435.893 31.9877
L436.567 31.9877
L436.619 30.0324
L446.009 30.0324
L446.009 29.0548
L446.564 29.0548
L446.649 26.1218
L448.114 26.1218
L448.114 25.1442
L448.892 25.1442
L448.892 24.1665
L449.699 24.1665
L449.699 23.1889
L455.346 23.1889
L455.346 22.2112
L459.751 22.2112
L459.751 21.2336
L467.326 21.2336
L467.326 20.2559
L476.608 20.2559
L476.608 18.3006
L489.586 18.3006
L489.586 17.323
L493.2 17.323
L493.2 17.323" style="fill:none;stroke:#008000;stroke-linecap:square;stroke-width:1.5;"/>
   </g>
   <g id="line2d_8">
    <defs>
     <path d="
M-7.34788e-16 6
L6 -6
L-6 -6
z
" id="m397e16cd68" style="stroke:#008000;stroke-linejoin:miter;stroke-width:1.5;"/>
    </defs>
    <g>
     <use style="fill:none;stroke:#008000;stroke-linejoin:miter;stroke-width:1.5;" x="159.821849954" xlink:href="#m397e16cd68" y="276.400758045"/>
     <use style="fill:none;stroke:#008000;stroke-linejoin:miter;stroke-width:1.5;" x="247.709101133" xlink:href="#m397e16cd68" y="177.657900902"/>
     <use style="fill:none;stroke:#008000;stroke-linejoin:miter;stroke-width:1.5;" x="309.283370092" xlink:href="#m397e16cd68" y="93.5798245226"/>
     <use style="fill:none;stroke:#008000;stroke-linejoin:miter;stroke-width:1.5;" x="412.52393088" xlink:href="#m397e16cd68" y="48.6078301803"/>
     <use style="fill:none;stroke:#008000;stroke-linejoin:miter;stroke-width:1.5;" x="489.58579725" xlink:href="#m397e16cd68" y="17.3229645509"/>
     <use style="fill:none;stroke:#008000;stroke-linejoin:miter;stroke-width:1.5;" x="493.2" xlink:href="#m397e16cd68" y="17.3229645509"/>
    </g>
   </g>
   <g id="line2d_9"/>
   <g id="line2d_10">
    <path clip-path="url(#p63d92de1a6)" d="
M373.2 81.848" style="fill:none;stroke:#008000;stroke-linecap:square;"/>
    <defs>
     <path d="
M-12 12
L12 -12
M-12 -12
L12 12" id="m8c089fa6cd" style="stroke:#008000;stroke-width:3;"/>
    </defs>
    <g clip-path="url(#p63d92de1a6)">
     <use style="fill:#008000;stroke:#008000;stroke-width:3;" x="373.2" xlink:href="#m8c089fa6cd" y="81.8479999116"/>
    </g>
   </g>
   <g id="line2d_11">
    <defs>
     <path d="
M0 1.5
C0.397805 1.5 0.77937 1.34195 1.06066 1.06066
C1.34195 0.77937 1.5 0.397805 1.5 0
C1.5 -0.397805 1.34195 -0.77937 1.06066 -1.06066
C0.77937 -1.34195 0.397805 -1.5 0 -1.5
C-0.397805 -1.5 -0.77937 -1.34195 -1.06066 -1.06066
C-1.34195 -0.77937 -1.5 -0.397805 -1.5 0
C-1.5 0.397805 -1.34195 0.77937 -1.06066 1.06066
C-0.77937 1.34195 -0.397805 1.5 0 1.5
z
" id="m76a7ce5b4a" style="stroke:#0000ff;stroke-width:0.5;"/>
    </defs>
    <g>
     <use style="fill:#0000ff;stroke:#0000ff;stroke-width:0.5;" x="532.698445295" xlink:href="#m76a7ce5b4a" y="25.850262995"/>
     <use style="fill:#0000ff;stroke:#0000ff;stroke-width:0.5;" x="532.698445295" xlink:href="#m76a7ce5b4a" y="25.850262995"/>
    </g>
   </g>
   <g id="line2d_12">
    <path d="
M121.571 330.009
L133.2 330.009
L133.2 327.157
L142.702 327.157
L142.702 325.256
L150.735 325.256
L150.735 318.603
L157.694 318.603
L157.694 310.048
L163.833 310.048
L163.833 306.246
L169.324 306.246
L169.324 303.395
L174.291 303.395
L174.291 301.494
L178.825 301.494
L178.825 297.692
L182.997 297.692
L182.997 295.791
L190.455 295.791
L190.455 290.088
L196.977 290.088
L196.977 289.137
L199.956 289.137
L199.956 286.286
L202.774 286.286
L202.774 284.385
L207.99 284.385
L207.99 272.979
L210.414 272.979
L210.414 267.276
L212.731 267.276
L212.731 266.326
L214.949 266.326
L214.949 259.672
L217.076 259.672
L217.076 251.118
L219.12 251.118
L219.12 250.167
L221.087 250.167
L221.087 248.266
L222.983 248.266
L222.983 238.761
L224.811 238.761
L224.811 228.306
L226.578 228.306
L226.578 223.553
L228.287 223.553
L228.287 222.603
L229.942 222.603
L229.942 220.702
L231.545 220.702
L231.545 218.801
L233.101 218.801
L233.101 214.048
L234.612 214.048
L234.612 213.098
L236.08 213.098
L236.08 212.147
L237.508 212.147
L237.508 211.197
L238.898 211.197
L238.898 206.444
L240.251 206.444
L240.251 202.642
L241.571 202.642
L241.571 194.088
L242.858 194.088
L242.858 193.137
L244.114 193.137
L244.114 191.236
L245.34 191.236
L245.34 190.286
L246.538 190.286
L246.538 179.83
L248.855 179.83
L248.855 177.929
L249.975 177.929
L249.975 174.127
L251.073 174.127
L251.073 173.177
L252.147 173.177
L252.147 172.227
L253.2 172.227
L253.2 171.276
L254.232 171.276
L254.232 170.326
L257.211 170.326
L257.211 168.425
L258.167 168.425
L258.167 163.672
L259.106 163.672
L259.106 159.87
L260.029 159.87
L260.029 158.92
L264.411 158.92
L264.411 157.969
L265.244 157.969
L265.244 157.019
L266.873 157.019
L266.873 152.266
L269.985 152.266
L269.985 151.316
L277.694 151.316
L277.694 150.365
L279.613 150.365
L279.613 149.415
L280.237 149.415
L280.237 148.464
L282.066 148.464
L282.066 145.613
L282.662 145.613
L282.662 143.712
L284.978 143.712
L284.978 141.811
L285.542 141.811
L285.542 139.91
L287.196 139.91
L287.196 137.058
L289.324 137.058
L289.324 136.108
L290.356 136.108
L290.356 135.157
L290.864 135.157
L290.864 133.256
L291.866 133.256
L291.866 132.306
L293.815 132.306
L293.815 131.355
L294.762 131.355
L294.762 129.454
L295.693 129.454
L295.693 128.504
L297.059 128.504
L297.059 127.553
L298.389 127.553
L298.389 125.652
L298.825 125.652
L298.825 122.801
L300.112 122.801
L300.112 119.949
L300.953 119.949
L300.953 118.999
L301.368 118.999
L301.368 118.048
L302.189 118.048
L302.189 116.147
L304.576 116.147
L304.576 115.197
L306.859 115.197
L306.859 113.296
L308.327 113.296
L308.327 112.345
L309.046 112.345
L309.046 110.444
L309.402 110.444
L309.402 109.494
L312.163 109.494
L312.163 108.543
L313.818 108.543
L313.818 107.593
L314.143 107.593
L314.143 105.692
L315.737 105.692
L315.737 104.741
L316.05 104.741
L316.05 103.791
L316.67 103.791
L316.67 102.84
L319.08 102.84
L319.08 101.89
L319.666 101.89
L319.666 99.9889
L321.102 99.9889
L321.102 97.1374
L325.186 97.1374
L325.186 96.1869
L347.61 96.1869
L347.61 95.2364
L362.218 95.2364
L362.218 94.2859
L367.94 94.2859
L367.94 93.3354
L373.408 93.3354
L373.408 92.3849
L375.344 92.3849
L375.344 90.4839
L375.544 90.4839
L375.643 88.5829
L376.531 88.5829
L376.629 86.6819
L377.114 86.6819
L377.211 83.8305
L377.882 83.8305
L377.882 82.88
L378.451 82.88
L378.451 81.9295
L378.733 81.9295
L378.826 80.0285
L379.106 80.0285
L379.106 79.078
L379.845 79.078
L379.845 78.1275
L380.029 78.1275
L380.029 77.177
L382.09 77.177
L382.09 75.276
L382.353 75.276
L382.353 73.375
L383.392 73.375
L383.392 72.4245
L384.662 72.4245
L384.662 71.474
L385.079 71.474
L385.079 70.5235
L386.632 70.5235
L386.632 69.573
L387.669 69.573
L387.669 68.6225
L388.994 68.6225
L388.994 66.7216
L389.225 66.7216
L389.225 65.7711
L390.661 65.7711
L390.661 64.8206
L392.203 64.8206
L392.203 62.9196
L410.407 62.9196
L410.407 61.9691
L410.61 61.9691
L410.61 61.0186
L410.864 61.0186
L410.864 60.0681
L411.016 60.0681
L411.016 59.1176
L411.368 59.1176
L411.368 58.1671
L411.568 58.1671
L411.568 57.2166
L411.965 57.2166
L411.965 56.2661
L412.163 56.2661
L412.163 55.3156
L412.459 55.3156
L412.459 54.3651
L414.101 54.3651
L414.101 53.4146
L414.433 53.4146
L414.433 52.4641
L414.621 52.4641
L414.668 50.5631
L415.369 50.5631
L415.369 49.6126
L431.316 49.6126
L431.316 48.6621
L432.331 48.6621
L432.331 47.7116
L436.268 47.7116
L436.361 45.8107
L442.416 45.8107
L442.416 44.8602
L446.095 44.8602
L446.095 43.9097
L446.785 43.9097
L446.836 42.0087
L447.891 42.0087
L447.891 41.0582
L452.867 41.0582
L452.867 40.1077
L457.595 40.1077
L457.595 39.1572
L457.883 39.1572
L457.883 38.2067
L459.34 38.2067
L459.34 37.2562
L467.234 37.2562
L467.234 36.3057
L467.525 36.3057
L467.525 35.3552
L475.175 35.3552
L475.175 34.4047
L475.527 34.4047
L475.527 33.4542
L486.384 33.4542
L486.384 32.5037
L488.342 32.5037
L488.342 31.5532
L493.2 31.5532
L493.2 31.5532" style="fill:none;stroke:#0000ff;stroke-linecap:square;stroke-width:1.5;"/>
   </g>
   <g id="line2d_13">
    <defs>
     <path d="
M3.67394e-16 -6
L-1.34708 -1.8541
L-5.70634 -1.8541
L-2.17963 0.708204
L-3.52671 4.8541
L-4.20996e-16 2.2918
L3.52671 4.8541
L2.17963 0.708204
L5.70634 -1.8541
L1.34708 -1.8541
z
" id="m0933169453" style="stroke:#0000ff;stroke-linejoin:bevel;stroke-width:1.5;"/>
    </defs>
    <g>
     <use style="fill:none;stroke:#0000ff;stroke-linejoin:bevel;stroke-width:1.5;" x="182.996801756" xlink:href="#m0933169453" y="297.691847153"/>
     <use style="fill:none;stroke:#0000ff;stroke-linejoin:bevel;stroke-width:1.5;" x="241.570798439" xlink:href="#m0933169453" y="202.642342203"/>
     <use style="fill:none;stroke:#0000ff;stroke-linejoin:bevel;stroke-width:1.5;" x="297.058558187" xlink:href="#m0933169453" y="128.503728342"/>
     <use style="fill:none;stroke:#0000ff;stroke-linejoin:bevel;stroke-width:1.5;" x="392.203499051" xlink:href="#m0933169453" y="62.9195699257"/>
     <use style="fill:none;stroke:#0000ff;stroke-linejoin:bevel;stroke-width:1.5;" x="488.342205237" xlink:href="#m0933169453" y="31.5532332921"/>
     <use style="fill:none;stroke:#0000ff;stroke-linejoin:bevel;stroke-width:1.5;" x="493.2" xlink:href="#m0933169453" y="31.5532332921"/>
    </g>
   </g>
   <g id="line2d_14"/>
   <g id="line2d_15">
    <path clip-path="url(#p63d92de1a6)" d="
M373.2 93.3354" style="fill:none;stroke:#0000ff;stroke-linecap:square;"/>
    <defs>
     <path d="
M-12 12
L12 -12
M-12 -12
L12 12" id="ma4a355cd2c" style="stroke:#0000ff;stroke-width:3;"/>
    </defs>
    <g clip-path="url(#p63d92de1a6)">
     <use style="fill:#0000ff;stroke:#0000ff;stroke-width:3;" x="373.2" xlink:href="#ma4a355cd2c" y="93.3354115099"/>
    </g>
   </g>
   <g id="line2d_16">
    <defs>
     <path d="
M0 1.5
C0.397805 1.5 0.77937 1.34195 1.06066 1.06066
C1.34195 0.77937 1.5 0.397805 1.5 0
C1.5 -0.397805 1.34195 -0.77937 1.06066 -1.06066
C0.77937 -1.34195 0.397805 -1.5 0 -1.5
C-0.397805 -1.5 -0.77937 -1.34195 -1.06066 -1.06066
C-1.34195 -0.77937 -1.5 -0.397805 -1.5 0
C-1.5 0.397805 -1.34195 0.77937 -1.06066 1.06066
C-0.77937 1.34195 -0.397805 1.5 0 1.5
z
" id="m66763a63fb" style="stroke:#000000;stroke-width:0.5;"/>
    </defs>
    <g>
     <use style="stroke:#000000;stroke-width:0.5;" x="521.372435419" xlink:href="#m66763a63fb" y="40.786613773"/>
     <use style="stroke:#000000;stroke-width:0.5;" x="521.372435419" xlink:href="#m66763a63fb" y="40.786613773"/>
    </g>
   </g>
   <g id="line2d_17">
    <path d="
M106.578 353.635
L133.2 353.635
L133.2 352.413
L142.702 352.413
L142.702 349.969
L154.331 349.969
L154.331 348.747
L157.694 348.747
L157.694 346.303
L176.607 346.303
L176.607 345.081
L180.953 345.081
L180.953 342.637
L193.818 342.637
L193.818 340.193
L196.977 340.193
L196.977 338.97
L209.216 338.97
L209.216 335.304
L212.731 335.304
L212.731 334.082
L216.024 334.082
L216.024 331.638
L222.044 331.638
L222.044 326.75
L223.905 326.75
L223.905 324.306
L224.811 324.306
L224.811 323.084
L225.702 323.084
L225.702 321.862
L226.578 321.862
L226.578 316.973
L229.121 316.973
L229.121 312.085
L229.942 312.085
L229.942 302.309
L230.75 302.309
L230.75 299.864
L231.545 299.864
L231.545 297.42
L232.329 297.42
L232.329 294.976
L233.101 294.976
L233.101 290.088
L234.612 290.088
L234.612 288.866
L236.08 288.866
L236.08 280.311
L236.799 280.311
L236.799 274.201
L237.508 274.201
L237.508 271.757
L238.207 271.757
L238.207 268.091
L238.898 268.091
L238.898 266.869
L239.579 266.869
L239.579 261.98
L240.251 261.98
L240.251 259.536
L240.915 259.536
L240.915 254.648
L241.571 254.648
L241.571 246.094
L242.218 246.094
L242.218 241.205
L242.858 241.205
L242.858 238.761
L243.489 238.761
L243.489 233.873
L244.114 233.873
L244.114 224.096
L244.73 224.096
L244.73 217.986
L245.34 217.986
L245.34 216.764
L245.942 216.764
L245.942 214.32
L247.709 214.32
L247.709 209.432
L248.855 209.432
L248.855 204.543
L251.613 204.543
L251.613 203.321
L252.147 203.321
L252.147 200.877
L253.2 200.877
L253.2 198.433
L253.719 198.433
L253.719 195.989
L254.74 195.989
L254.74 194.767
L255.244 194.767
L255.244 193.545
L256.237 193.545
L256.237 191.101
L256.726 191.101
L256.726 187.434
L257.211 187.434
L257.211 184.99
L257.691 184.99
L257.691 183.768
L258.167 183.768
L258.167 181.324
L259.569 181.324
L259.569 177.658
L260.484 177.658
L260.484 175.214
L261.382 175.214
L261.382 171.548
L262.266 171.548
L262.266 170.326
L262.702 170.326
L262.702 169.103
L263.989 169.103
L263.989 167.881
L264.411 167.881
L264.411 166.659
L265.244 166.659
L265.244 164.215
L266.471 164.215
L266.471 162.993
L267.273 162.993
L267.273 158.105
L269.985 158.105
L269.985 156.883
L270.362 156.883
L270.362 155.661
L270.735 155.661
L270.735 154.439
L271.106 154.439
L271.106 151.995
L272.203 151.995
L272.203 150.772
L273.278 150.772
L273.278 149.55
L273.982 149.55
L273.982 147.106
L278.342 147.106
L278.342 145.884
L279.926 145.884
L279.926 144.662
L283.833 144.662
L283.833 143.44
L284.409 143.44
L284.409 140.996
L284.978 140.996
L284.978 139.774
L285.821 139.774
L285.821 137.33
L290.356 137.33
L290.356 136.108
L290.864 136.108
L290.864 134.886
L301.985 134.886
L301.985 133.664
L303.792 133.664
L303.792 131.219
L304.381 131.219
L304.381 129.997
L305.73 129.997
L305.73 128.775
L306.673 128.775
L306.673 127.553
L308.327 127.553
L308.327 126.331
L309.224 126.331
L309.224 125.109
L310.281 125.109
L310.281 123.887
L311.657 123.887
L311.657 122.665
L314.304 122.665
L314.304 120.221
L314.786 120.221
L314.786 118.999
L315.264 118.999
L315.264 117.777
L318.637 117.777
L318.637 116.555
L319.666 116.555
L319.666 115.333
L320.101 115.333
L320.101 114.111
L320.389 114.111
L320.389 112.888
L320.96 112.888
L320.96 110.444
L322.361 110.444
L322.361 109.222
L324.923 109.222
L324.923 108
L326.479 108
L326.479 106.778
L326.734 106.778
L326.734 105.556
L328.361 105.556
L328.361 103.112
L332.161 103.112
L332.161 100.668
L332.504 100.668
L332.504 99.4457
L333.406 99.4457
L333.406 98.2237
L346.665 98.2237
L346.665 95.7795
L359.375 95.7795
L359.375 94.5575
L363.865 94.5575
L363.865 92.1133
L376.629 92.1133
L376.629 89.6692
L377.259 89.6692
L377.307 87.2251
L377.452 87.2251
L377.452 86.003
L377.595 86.003
L377.691 83.5589
L377.882 83.5589
L377.882 82.3368
L378.025 82.3368
L378.025 81.1148
L378.262 81.1148
L378.262 79.8927
L378.403 79.8927
L378.498 76.2265
L378.545 76.2265
L378.545 73.7824
L378.779 73.7824
L378.779 72.5603
L378.966 72.5603
L378.966 71.3382
L379.106 71.3382
L379.106 70.1162
L379.523 70.1162
L379.523 68.8941
L379.937 68.8941
L379.937 67.672
L380.166 67.672
L380.166 66.45
L381.382 66.45
L381.382 65.2279
L382.962 65.2279
L382.962 62.7838
L384.578 62.7838
L384.578 61.5617
L386.592 61.5617
L386.592 60.3397
L402.721 60.3397
L402.721 59.1176
L408.747 59.1176
L408.747 56.6735
L410.813 56.6735
L410.813 55.4514
L411.99 55.4514
L411.99 54.2293
L412.703 54.2293
L412.703 53.0073
L413.575 53.0073
L413.671 50.5631
L414.48 50.5631
L414.48 49.3411
L419.322 49.3411
L419.322 48.119
L426.241 48.119
L426.241 46.8969
L432.732 46.8969
L432.732 45.6749
L437.859 45.6749
L437.859 44.4528
L446.823 44.4528
L446.823 43.2307
L466.387 43.2307
L466.387 42.0087
L493.2 42.0087
L493.2 42.0087" style="fill:none;stroke:#000000;stroke-linecap:square;stroke-width:1.5;"/>
   </g>
   <g id="line2d_18">
    <defs>
     <path d="
M0 6
C1.59122 6 3.11748 5.3678 4.24264 4.24264
C5.3678 3.11748 6 1.59122 6 0
C6 -1.59122 5.3678 -3.11748 4.24264 -4.24264
C3.11748 -5.3678 1.59122 -6 0 -6
C-1.59122 -6 -3.11748 -5.3678 -4.24264 -4.24264
C-5.3678 -3.11748 -6 -1.59122 -6 0
C-6 1.59122 -5.3678 3.11748 -4.24264 4.24264
C-3.11748 5.3678 -1.59122 6 0 6
z
" id="ma42492ef9b" style="stroke:#000000;stroke-width:1.5;"/>
    </defs>
    <g>
     <use style="fill:none;stroke:#000000;stroke-width:1.5;" x="13.2" xlink:href="#ma42492ef9b" y="356.079400194"/>
     <use style="fill:none;stroke:#000000;stroke-width:1.5;" x="229.120865934" xlink:href="#ma42492ef9b" y="312.085057903"/>
     <use style="fill:none;stroke:#000000;stroke-width:1.5;" x="260.483740842" xlink:href="#ma42492ef9b" y="175.213770774"/>
     <use style="fill:none;stroke:#000000;stroke-width:1.5;" x="324.923422311" xlink:href="#ma42492ef9b" y="108.000192274"/>
     <use style="fill:none;stroke:#000000;stroke-width:1.5;" x="437.858998673" xlink:href="#ma42492ef9b" y="44.4528089639"/>
     <use style="fill:none;stroke:#000000;stroke-width:1.5;" x="493.2" xlink:href="#ma42492ef9b" y="42.0086788366"/>
    </g>
   </g>
   <g id="line2d_19"/>
   <g id="line2d_20">
    <path clip-path="url(#p63d92de1a6)" d="
M373.2 92.1133" style="fill:none;stroke:#000000;stroke-linecap:square;"/>
    <defs>
     <path d="
M-12 12
L12 -12
M-12 -12
L12 12" id="m47417b404f" style="stroke:#000000;stroke-width:3;"/>
    </defs>
    <g clip-path="url(#p63d92de1a6)">
     <use style="stroke:#000000;stroke-width:3;" x="373.2" xlink:href="#m47417b404f" y="92.1133464463"/>
    </g>
   </g>
   <g id="line2d_21">
    <defs>
     <path d="
M0 1.5
C0.397805 1.5 0.77937 1.34195 1.06066 1.06066
C1.34195 0.77937 1.5 0.397805 1.5 0
C1.5 -0.397805 1.34195 -0.77937 1.06066 -1.06066
C0.77937 -1.34195 0.397805 -1.5 0 -1.5
C-0.397805 -1.5 -0.77937 -1.34195 -1.06066 -1.06066
C-1.34195 -0.77937 -1.5 -0.397805 -1.5 0
C-1.5 0.397805 -1.34195 0.77937 -1.06066 1.06066
C-0.77937 1.34195 -0.397805 1.5 0 1.5
z
" id="ma07bdd5909" style="stroke:#ff0000;stroke-width:0.5;"/>
    </defs>
    <g>
     <use style="fill:#ff0000;stroke:#ff0000;stroke-width:0.5;" x="433.980603889" xlink:href="#ma07bdd5909" y="27.3833195265"/>
     <use style="fill:#ff0000;stroke:#ff0000;stroke-width:0.5;" x="433.980603889" xlink:href="#ma07bdd5909" y="27.3833195265"/>
    </g>
   </g>
   <g id="line2d_22">
    <path d="
M114.612 355.212
L133.2 355.212
L133.2 351.901
L138.167 351.901
L138.167 350.797
L168.004 350.797
L168.004 348.589
L184.964 348.589
L184.964 347.486
L192.163 347.486
L192.163 346.382
L213.294 346.382
L213.294 345.278
L214.403 345.278
L214.403 341.967
L216.024 341.967
L216.024 340.863
L216.553 340.863
L216.553 339.759
L218.108 339.759
L218.108 338.655
L219.12 338.655
L219.12 335.344
L220.113 335.344
L220.113 333.136
L220.602 333.136
L220.602 329.825
L221.087 329.825
L221.087 326.513
L221.568 326.513
L221.568 325.41
L222.044 325.41
L222.044 324.306
L222.983 324.306
L222.983 322.098
L224.36 322.098
L224.36 320.994
L225.259 320.994
L225.259 315.475
L226.142 315.475
L226.142 314.372
L227.44 314.372
L227.44 313.268
L227.865 313.268
L227.865 312.164
L230.347 312.164
L230.347 309.956
L230.75 309.956
L230.75 308.852
L231.939 308.852
L231.939 307.749
L232.329 307.749
L232.329 306.645
L233.101 306.645
L233.101 305.541
L233.862 305.541
L233.862 303.333
L234.612 303.333
L234.612 301.126
L234.983 301.126
L234.983 297.814
L235.717 297.814
L235.717 295.607
L236.08 295.607
L236.08 294.503
L236.441 294.503
L236.441 290.088
L236.799 290.088
L236.799 288.984
L237.508 288.984
L237.508 287.88
L237.859 287.88
L237.859 286.776
L238.207 286.776
L238.207 285.673
L238.554 285.673
L238.554 284.569
L238.898 284.569
L238.898 283.465
L239.239 283.465
L239.239 282.361
L239.579 282.361
L239.579 277.946
L239.916 277.946
L239.916 276.842
L240.251 276.842
L240.251 275.738
L241.244 275.738
L241.244 268.012
L241.571 268.012
L241.571 264.7
L242.539 264.7
L242.539 263.597
L242.858 263.597
L242.858 262.493
L243.489 262.493
L243.489 261.389
L243.802 261.389
L243.802 256.974
L244.423 256.974
L244.423 255.87
L245.34 255.87
L245.34 250.351
L245.942 250.351
L245.942 244.832
L246.241 244.832
L246.241 242.624
L246.538 242.624
L246.538 241.521
L247.419 241.521
L247.419 239.313
L247.709 239.313
L247.709 236.002
L247.998 236.002
L247.998 233.794
L248.285 233.794
L248.285 232.69
L248.571 232.69
L248.571 231.586
L249.418 231.586
L249.418 228.275
L249.975 228.275
L249.975 227.171
L251.073 227.171
L251.073 223.86
L251.881 223.86
L251.881 221.652
L252.412 221.652
L252.412 220.548
L252.939 220.548
L252.939 218.341
L253.2 218.341
L253.2 212.822
L253.46 212.822
L253.46 211.718
L253.719 211.718
L253.719 207.303
L254.487 207.303
L254.487 206.199
L254.993 206.199
L254.993 203.991
L255.244 203.991
L255.244 200.68
L255.494 200.68
L255.494 197.369
L255.743 197.369
L255.743 196.265
L256.482 196.265
L256.482 194.057
L256.726 194.057
L256.726 189.642
L256.969 189.642
L256.969 188.538
L257.211 188.538
L257.211 185.227
L257.452 185.227
L257.452 183.019
L258.403 183.019
L258.403 181.915
L258.873 181.915
L258.873 177.5
L260.029 177.5
L260.029 176.396
L260.257 176.396
L260.257 173.085
L260.484 173.085
L260.484 168.67
L260.935 168.67
L260.935 164.255
L261.605 164.255
L261.605 162.047
L262.266 162.047
L262.266 159.839
L263.776 159.839
L263.776 158.736
L263.989 158.736
L263.989 157.632
L264.411 157.632
L264.411 155.424
L264.62 155.424
L264.62 153.217
L264.829 153.217
L264.829 152.113
L265.244 152.113
L265.244 149.905
L265.656 149.905
L265.656 147.698
L266.065 147.698
L266.065 145.49
L266.471 145.49
L266.471 144.386
L266.672 144.386
L266.672 143.282
L266.873 143.282
L266.873 141.075
L267.866 141.075
L267.866 139.971
L269.033 139.971
L269.033 137.763
L272.203 137.763
L272.203 136.66
L273.631 136.66
L273.631 135.556
L274.677 135.556
L274.677 134.452
L275.871 134.452
L275.871 133.348
L276.208 133.348
L276.208 132.244
L276.542 132.244
L276.542 131.141
L276.708 131.141
L276.708 130.037
L279.613 130.037
L279.613 128.933
L287.467 128.933
L287.467 126.725
L288.931 126.725
L288.931 124.518
L291.866 124.518
L291.866 122.31
L294.645 122.31
L294.645 121.206
L295.23 121.206
L295.23 118.999
L295.462 118.999
L295.462 116.791
L302.594 116.791
L302.594 115.687
L308.055 115.687
L308.055 114.584
L311.145 114.584
L311.145 113.48
L315.579 113.48
L315.579 112.376
L318.711 112.376
L318.711 111.272
L320.173 111.272
L320.173 110.168
L322.911 110.168
L322.911 107.961
L324.061 107.961
L324.061 105.753
L325.186 105.753
L325.186 104.649
L325.382 104.649
L325.382 103.546
L327.303 103.546
L327.303 102.442
L327.99 102.442
L327.99 101.338
L329.579 101.338
L329.579 99.1304
L330.945 99.1304
L330.945 98.0266
L331.817 98.0266
L331.817 96.9228
L332.104 96.9228
L332.104 95.819
L333.852 95.819
L333.852 94.7152
L334.568 94.7152
L334.568 93.6114
L335.381 93.6114
L335.381 92.5076
L336.92 92.5076
L336.92 91.4038
L338.617 91.4038
L338.617 90.3
L340.797 90.3
L340.797 89.1962
L343.353 89.1962
L343.353 88.0924
L343.584 88.0924
L343.584 85.8848
L344.901 85.8848
L344.991 83.6772
L346.404 83.6772
L346.491 80.3658
L348.034 80.3658
L348.034 79.262
L348.245 79.262
L348.245 77.0544
L348.413 77.0544
L348.413 75.9506
L348.622 75.9506
L348.622 74.8467
L349.079 74.8467
L349.079 72.6391
L349.942 72.6391
L349.942 71.5353
L350.145 71.5353
L350.145 69.3277
L351.069 69.3277
L351.069 68.2239
L354.872 68.2239
L354.872 67.1201
L359.273 67.1201
L359.273 66.0163
L359.849 66.0163
L359.849 64.9125
L360.151 64.9125
L360.151 63.8087
L364.484 63.8087
L364.484 62.7049
L377.066 62.7049
L377.066 61.6011
L377.307 61.6011
L377.307 60.4973
L377.619 60.4973
L377.619 58.2897
L377.953 58.2897
L377.953 57.1859
L378.262 57.1859
L378.356 53.8745
L378.521 53.8745
L378.521 52.7707
L378.733 52.7707
L378.733 51.6669
L379.246 51.6669
L379.315 48.3555
L379.361 48.3555
L379.361 47.2517
L379.639 47.2517
L379.639 45.0441
L380.029 45.0441
L380.029 43.9403
L382.397 43.9403
L382.397 42.8365
L390.174 42.8365
L390.174 41.7327
L391.95 41.7327
L391.95 40.6289
L393.508 40.6289
L393.508 39.5251
L397.105 39.5251
L397.105 38.4213
L398.981 38.4213
L398.981 37.3175
L403.074 37.3175
L403.074 36.2137
L403.411 36.2137
L403.411 35.1099
L411.978 35.1099
L411.978 34.0061
L412.935 34.0061
L412.935 31.7985
L413.359 31.7985
L413.359 30.6947
L432.906 30.6947
L432.956 28.4871
L433.981 28.4871
L433.981 27.3833
L493.2 27.3833
L493.2 27.3833" style="fill:none;stroke:#ff0000;stroke-linecap:square;stroke-width:1.5;"/>
   </g>
   <g id="line2d_23">
    <defs>
     <path d="
M-6 6
L6 6
L6 -6
L-6 -6
z
" id="m9d489a7eec" style="stroke:#ff0000;stroke-linejoin:miter;stroke-width:1.5;"/>
    </defs>
    <g>
     <use style="fill:none;stroke:#ff0000;stroke-linejoin:miter;stroke-width:1.5;" x="225.25870393" xlink:href="#m9d489a7eec" y="320.994306432"/>
     <use style="fill:none;stroke:#ff0000;stroke-linejoin:miter;stroke-width:1.5;" x="253.718564854" xlink:href="#m9d489a7eec" y="211.718036869"/>
     <use style="fill:none;stroke:#ff0000;stroke-linejoin:miter;stroke-width:1.5;" x="295.2297622" xlink:href="#m9d489a7eec" y="118.998777847"/>
     <use style="fill:none;stroke:#ff0000;stroke-linejoin:miter;stroke-width:1.5;" x="377.953485828" xlink:href="#m9d489a7eec" y="57.1859384981"/>
     <use style="fill:none;stroke:#ff0000;stroke-linejoin:miter;stroke-width:1.5;" x="433.980603889" xlink:href="#m9d489a7eec" y="27.3833195265"/>
     <use style="fill:none;stroke:#ff0000;stroke-linejoin:miter;stroke-width:1.5;" x="493.2" xlink:href="#m9d489a7eec" y="27.3833195265"/>
    </g>
   </g>
   <g id="line2d_24"/>
   <g id="line2d_25">
    <path clip-path="url(#p63d92de1a6)" d="
M373.2 62.7049" style="fill:none;stroke:#ff0000;stroke-linecap:square;"/>
    <defs>
     <path d="
M-12 12
L12 -12
M-12 -12
L12 12" id="m4e2b024d89" style="stroke:#ff0000;stroke-width:3;"/>
    </defs>
    <g clip-path="url(#p63d92de1a6)">
     <use style="fill:#ff0000;stroke:#ff0000;stroke-width:3;" x="373.2" xlink:href="#m4e2b024d89" y="62.7049420113"/>
    </g>
   </g>
   <g id="line2d_26">
    <path d="
M493.2 42.0087
L532.8 351.68" style="fill:none;stroke:#000000;stroke-linecap:square;stroke-width:1.5;"/>
    <g>
     <use style="fill:none;stroke:#000000;stroke-width:1.5;" x="493.2" xlink:href="#ma42492ef9b" y="42.0086788366"/>
     <use style="fill:none;stroke:#000000;stroke-width:1.5;" x="532.8" xlink:href="#ma42492ef9b" y="351.679965965"/>
    </g>
   </g>
   <g id="line2d_27">
    <path d="
M493.2 31.5532
L532.8 269.557" style="fill:none;stroke:#0000ff;stroke-linecap:square;stroke-width:1.5;"/>
    <g>
     <use style="fill:none;stroke:#0000ff;stroke-linejoin:bevel;stroke-width:1.5;" x="493.2" xlink:href="#m0933169453" y="31.5532332921"/>
     <use style="fill:none;stroke:#0000ff;stroke-linejoin:bevel;stroke-width:1.5;" x="532.8" xlink:href="#m0933169453" y="269.557193688"/>
    </g>
   </g>
   <g id="line2d_28">
    <path d="
M493.2 27.3833
L532.8 187.434" style="fill:none;stroke:#ff0000;stroke-linecap:square;stroke-width:1.5;"/>
    <g>
     <use style="fill:none;stroke:#ff0000;stroke-linejoin:miter;stroke-width:1.5;" x="493.2" xlink:href="#m9d489a7eec" y="27.3833195265"/>
     <use style="fill:none;stroke:#ff0000;stroke-linejoin:miter;stroke-width:1.5;" x="532.8" xlink:href="#m9d489a7eec" y="187.434421411"/>
    </g>
   </g>
   <g id="line2d_29">
    <path d="
M493.2 20.6225
L532.8 105.312" style="fill:none;stroke:#00bfbf;stroke-linecap:square;stroke-width:1.5;"/>
    <g>
     <use style="fill:none;stroke:#00bfbf;stroke-width:1.5;" x="493.2" xlink:href="#m3e4de746de" y="20.6225402228"/>
     <use style="fill:none;stroke:#00bfbf;stroke-width:1.5;" x="532.8" xlink:href="#m3e4de746de" y="105.311649134"/>
    </g>
   </g>
   <g id="line2d_30">
    <path d="
M493.2 17.323
L532.8 23.1889" style="fill:none;stroke:#008000;stroke-linecap:square;stroke-width:1.5;"/>
    <g>
     <use style="fill:none;stroke:#008000;stroke-linejoin:miter;stroke-width:1.5;" x="493.2" xlink:href="#m397e16cd68" y="17.3229645509"/>
     <use style="fill:none;stroke:#008000;stroke-linejoin:miter;stroke-width:1.5;" x="532.8" xlink:href="#m397e16cd68" y="23.1888768564"/>
    </g>
   </g>
   <g id="line2d_31">
    <path d="
M493.2 358.524
L493.2 16.3453" style="fill:none;stroke:#000000;stroke-linecap:square;"/>
   </g>
   <g id="matplotlib.axis_1">
    <g id="xtick_1">
     <g id="line2d_32">
      <path clip-path="url(#p63d92de1a6)" d="
M133.2 358.524
L133.2 12.9235" style="fill:none;stroke:#000000;stroke-dasharray:1.000000,3.000000;stroke-dashoffset:0.0;stroke-width:0.5;"/>
     </g>
     <g id="line2d_33">
      <defs>
       <path d="
M0 0
L0 -4" id="m93b0483c22" style="stroke:#000000;stroke-width:0.5;"/>
      </defs>
      <g>
       <use style="stroke:#000000;stroke-width:0.5;" x="133.2" xlink:href="#m93b0483c22" y="358.523530322"/>
      </g>
     </g>
     <g id="line2d_34">
      <defs>
       <path d="
M0 0
L0 4" id="m741efc42ff" style="stroke:#000000;stroke-width:0.5;"/>
      </defs>
      <g>
       <use style="stroke:#000000;stroke-width:0.5;" x="133.2" xlink:href="#m741efc42ff" y="12.9235303218"/>
      </g>
     </g>
     <g id="text_1">
      <!-- 0 -->
      <defs>
       <path d="
M4.15625 35.2969
Q4.15625 48 6.76562 55.7344
Q9.375 63.4844 14.5156 67.6719
Q19.6719 71.875 27.4844 71.875
Q33.25 71.875 37.5938 69.5469
Q41.9375 67.2344 44.7656 62.8594
Q47.6094 58.5 49.2188 52.2188
Q50.8281 45.9531 50.8281 35.2969
Q50.8281 22.7031 48.2344 14.9688
Q45.6562 7.23438 40.5 3
Q35.3594 -1.21875 27.4844 -1.21875
Q17.1406 -1.21875 11.2344 6.20312
Q4.15625 15.1406 4.15625 35.2969
M13.1875 35.2969
Q13.1875 17.6719 17.3125 11.8281
Q21.4375 6 27.4844 6
Q33.5469 6 37.6719 11.8594
Q41.7969 17.7188 41.7969 35.2969
Q41.7969 52.9844 37.6719 58.7812
Q33.5469 64.5938 27.3906 64.5938
Q21.3438 64.5938 17.7188 59.4688
Q13.1875 52.9375 13.1875 35.2969" id="ArialMT-30"/>
      </defs>
      <g transform="translate(128.5328125 376.839155322)scale(0.2 -0.2)">
       <use xlink:href="#ArialMT-30"/>
      </g>
     </g>
    </g>
    <g id="xtick_2">
     <g id="line2d_35">
      <path clip-path="url(#p63d92de1a6)" d="
M253.2 358.524
L253.2 12.9235" style="fill:none;stroke:#000000;stroke-dasharray:1.000000,3.000000;stroke-dashoffset:0.0;stroke-width:0.5;"/>
     </g>
     <g id="line2d_36">
      <g>
       <use style="stroke:#000000;stroke-width:0.5;" x="253.2" xlink:href="#m93b0483c22" y="358.523530322"/>
      </g>
     </g>
     <g id="line2d_37">
      <g>
       <use style="stroke:#000000;stroke-width:0.5;" x="253.2" xlink:href="#m741efc42ff" y="12.9235303218"/>
      </g>
     </g>
     <g id="text_2">
      <!-- 1 -->
      <defs>
       <path d="
M37.25 0
L28.4688 0
L28.4688 56
Q25.2969 52.9844 20.1406 49.9531
Q14.9844 46.9219 10.8906 45.4062
L10.8906 53.9062
Q18.2656 57.375 23.7812 62.2969
Q29.2969 67.2344 31.5938 71.875
L37.25 71.875
z
" id="ArialMT-31"/>
      </defs>
      <g transform="translate(250.5640625 376.839155322)scale(0.2 -0.2)">
       <use xlink:href="#ArialMT-31"/>
      </g>
     </g>
    </g>
    <g id="xtick_3">
     <g id="line2d_38">
      <path clip-path="url(#p63d92de1a6)" d="
M373.2 358.524
L373.2 12.9235" style="fill:none;stroke:#000000;stroke-dasharray:1.000000,3.000000;stroke-dashoffset:0.0;stroke-width:0.5;"/>
     </g>
     <g id="line2d_39">
      <g>
       <use style="stroke:#000000;stroke-width:0.5;" x="373.2" xlink:href="#m93b0483c22" y="358.523530322"/>
      </g>
     </g>
     <g id="line2d_40">
      <g>
       <use style="stroke:#000000;stroke-width:0.5;" x="373.2" xlink:href="#m741efc42ff" y="12.9235303218"/>
      </g>
     </g>
     <g id="text_3">
      <!-- 2 -->
      <defs>
       <path d="
M50.3438 8.45312
L50.3438 0
L3.03125 0
Q2.9375 3.17188 4.04688 6.10938
Q5.85938 10.9375 9.82812 15.625
Q13.8125 20.3125 21.3438 26.4688
Q33.0156 36.0312 37.1094 41.625
Q41.2188 47.2188 41.2188 52.2031
Q41.2188 57.4219 37.4688 61
Q33.7344 64.5938 27.7344 64.5938
Q21.3906 64.5938 17.5781 60.7812
Q13.7656 56.9844 13.7188 50.25
L4.6875 51.1719
Q5.60938 61.2812 11.6562 66.5781
Q17.7188 71.875 27.9375 71.875
Q38.2344 71.875 44.2344 66.1562
Q50.25 60.4531 50.25 52
Q50.25 47.7031 48.4844 43.5469
Q46.7344 39.4062 42.6562 34.8125
Q38.5781 30.2188 29.1094 22.2188
Q21.1875 15.5781 18.9375 13.2031
Q16.7031 10.8438 15.2344 8.45312
z
" id="ArialMT-32"/>
      </defs>
      <g transform="translate(368.459375 376.839155322)scale(0.2 -0.2)">
       <use xlink:href="#ArialMT-32"/>
      </g>
     </g>
    </g>
    <g id="xtick_4">
     <g id="line2d_41">
      <path clip-path="url(#p63d92de1a6)" d="
M493.2 358.524
L493.2 12.9235" style="fill:none;stroke:#000000;stroke-dasharray:1.000000,3.000000;stroke-dashoffset:0.0;stroke-width:0.5;"/>
     </g>
     <g id="line2d_42">
      <g>
       <use style="stroke:#000000;stroke-width:0.5;" x="493.2" xlink:href="#m93b0483c22" y="358.523530322"/>
      </g>
     </g>
     <g id="line2d_43">
      <g>
       <use style="stroke:#000000;stroke-width:0.5;" x="493.2" xlink:href="#m741efc42ff" y="12.9235303218"/>
      </g>
     </g>
     <g id="text_4">
      <!-- 3 -->
      <defs>
       <path d="
M4.20312 18.8906
L12.9844 20.0625
Q14.5 12.5938 18.1406 9.29688
Q21.7812 6 27 6
Q33.2031 6 37.4688 10.2969
Q41.75 14.5938 41.75 20.9531
Q41.75 27 37.7969 30.9219
Q33.8438 34.8594 27.7344 34.8594
Q25.25 34.8594 21.5312 33.8906
L22.5156 41.6094
Q23.3906 41.5 23.9219 41.5
Q29.5469 41.5 34.0312 44.4219
Q38.5312 47.3594 38.5312 53.4688
Q38.5312 58.2969 35.25 61.4688
Q31.9844 64.6562 26.8125 64.6562
Q21.6875 64.6562 18.2656 61.4219
Q14.8438 58.2031 13.875 51.7656
L5.07812 53.3281
Q6.6875 62.1562 12.3906 67.0156
Q18.1094 71.875 26.6094 71.875
Q32.4688 71.875 37.3906 69.3594
Q42.3281 66.8438 44.9375 62.5
Q47.5625 58.1562 47.5625 53.2656
Q47.5625 48.6406 45.0625 44.8281
Q42.5781 41.0156 37.7031 38.7656
Q44.0469 37.3125 47.5625 32.6875
Q51.0781 28.0781 51.0781 21.1406
Q51.0781 11.7656 44.2344 5.25
Q37.4062 -1.26562 26.9531 -1.26562
Q17.5312 -1.26562 11.2969 4.34375
Q5.07812 9.96875 4.20312 18.8906" id="ArialMT-33"/>
      </defs>
      <g transform="translate(488.5125 376.839155322)scale(0.2 -0.2)">
       <use xlink:href="#ArialMT-33"/>
      </g>
     </g>
    </g>
    <g id="xtick_5">
     <g id="line2d_44">
      <defs>
       <path d="
M0 0
L0 -2" id="m177f7580d0" style="stroke:#000000;stroke-width:0.5;"/>
      </defs>
      <g>
       <use style="stroke:#000000;stroke-width:0.5;" x="169.32359948" xlink:href="#m177f7580d0" y="358.523530322"/>
      </g>
     </g>
     <g id="line2d_45">
      <defs>
       <path d="
M0 0
L0 2" id="m5284c7e2a0" style="stroke:#000000;stroke-width:0.5;"/>
      </defs>
      <g>
       <use style="stroke:#000000;stroke-width:0.5;" x="169.32359948" xlink:href="#m5284c7e2a0" y="12.9235303218"/>
      </g>
     </g>
    </g>
    <g id="xtick_6">
     <g id="line2d_46">
      <g>
       <use style="stroke:#000000;stroke-width:0.5;" x="190.454550566" xlink:href="#m177f7580d0" y="358.523530322"/>
      </g>
     </g>
     <g id="line2d_47">
      <g>
       <use style="stroke:#000000;stroke-width:0.5;" x="190.454550566" xlink:href="#m5284c7e2a0" y="12.9235303218"/>
      </g>
     </g>
    </g>
    <g id="xtick_7">
     <g id="line2d_48">
      <g>
       <use style="stroke:#000000;stroke-width:0.5;" x="205.447198959" xlink:href="#m177f7580d0" y="358.523530322"/>
      </g>
     </g>
     <g id="line2d_49">
      <g>
       <use style="stroke:#000000;stroke-width:0.5;" x="205.447198959" xlink:href="#m5284c7e2a0" y="12.9235303218"/>
      </g>
     </g>
    </g>
    <g id="xtick_8">
     <g id="line2d_50">
      <g>
       <use style="stroke:#000000;stroke-width:0.5;" x="217.07640052" xlink:href="#m177f7580d0" y="358.523530322"/>
      </g>
     </g>
     <g id="line2d_51">
      <g>
       <use style="stroke:#000000;stroke-width:0.5;" x="217.07640052" xlink:href="#m5284c7e2a0" y="12.9235303218"/>
      </g>
     </g>
    </g>
    <g id="xtick_9">
     <g id="line2d_52">
      <g>
       <use style="stroke:#000000;stroke-width:0.5;" x="226.578150046" xlink:href="#m177f7580d0" y="358.523530322"/>
      </g>
     </g>
     <g id="line2d_53">
      <g>
       <use style="stroke:#000000;stroke-width:0.5;" x="226.578150046" xlink:href="#m5284c7e2a0" y="12.9235303218"/>
      </g>
     </g>
    </g>
    <g id="xtick_10">
     <g id="line2d_54">
      <g>
       <use style="stroke:#000000;stroke-width:0.5;" x="234.611764802" xlink:href="#m177f7580d0" y="358.523530322"/>
      </g>
     </g>
     <g id="line2d_55">
      <g>
       <use style="stroke:#000000;stroke-width:0.5;" x="234.611764802" xlink:href="#m5284c7e2a0" y="12.9235303218"/>
      </g>
     </g>
    </g>
    <g id="xtick_11">
     <g id="line2d_56">
      <g>
       <use style="stroke:#000000;stroke-width:0.5;" x="241.570798439" xlink:href="#m177f7580d0" y="358.523530322"/>
      </g>
     </g>
     <g id="line2d_57">
      <g>
       <use style="stroke:#000000;stroke-width:0.5;" x="241.570798439" xlink:href="#m5284c7e2a0" y="12.9235303218"/>
      </g>
     </g>
    </g>
    <g id="xtick_12">
     <g id="line2d_58">
      <g>
       <use style="stroke:#000000;stroke-width:0.5;" x="247.709101133" xlink:href="#m177f7580d0" y="358.523530322"/>
      </g>
     </g>
     <g id="line2d_59">
      <g>
       <use style="stroke:#000000;stroke-width:0.5;" x="247.709101133" xlink:href="#m5284c7e2a0" y="12.9235303218"/>
      </g>
     </g>
    </g>
    <g id="xtick_13">
     <g id="line2d_60">
      <g>
       <use style="stroke:#000000;stroke-width:0.5;" x="289.32359948" xlink:href="#m177f7580d0" y="358.523530322"/>
      </g>
     </g>
     <g id="line2d_61">
      <g>
       <use style="stroke:#000000;stroke-width:0.5;" x="289.32359948" xlink:href="#m5284c7e2a0" y="12.9235303218"/>
      </g>
     </g>
    </g>
    <g id="xtick_14">
     <g id="line2d_62">
      <g>
       <use style="stroke:#000000;stroke-width:0.5;" x="310.454550566" xlink:href="#m177f7580d0" y="358.523530322"/>
      </g>
     </g>
     <g id="line2d_63">
      <g>
       <use style="stroke:#000000;stroke-width:0.5;" x="310.454550566" xlink:href="#m5284c7e2a0" y="12.9235303218"/>
      </g>
     </g>
    </g>
    <g id="xtick_15">
     <g id="line2d_64">
      <g>
       <use style="stroke:#000000;stroke-width:0.5;" x="325.447198959" xlink:href="#m177f7580d0" y="358.523530322"/>
      </g>
     </g>
     <g id="line2d_65">
      <g>
       <use style="stroke:#000000;stroke-width:0.5;" x="325.447198959" xlink:href="#m5284c7e2a0" y="12.9235303218"/>
      </g>
     </g>
    </g>
    <g id="xtick_16">
     <g id="line2d_66">
      <g>
       <use style="stroke:#000000;stroke-width:0.5;" x="337.07640052" xlink:href="#m177f7580d0" y="358.523530322"/>
      </g>
     </g>
     <g id="line2d_67">
      <g>
       <use style="stroke:#000000;stroke-width:0.5;" x="337.07640052" xlink:href="#m5284c7e2a0" y="12.9235303218"/>
      </g>
     </g>
    </g>
    <g id="xtick_17">
     <g id="line2d_68">
      <g>
       <use style="stroke:#000000;stroke-width:0.5;" x="346.578150046" xlink:href="#m177f7580d0" y="358.523530322"/>
      </g>
     </g>
     <g id="line2d_69">
      <g>
       <use style="stroke:#000000;stroke-width:0.5;" x="346.578150046" xlink:href="#m5284c7e2a0" y="12.9235303218"/>
      </g>
     </g>
    </g>
    <g id="xtick_18">
     <g id="line2d_70">
      <g>
       <use style="stroke:#000000;stroke-width:0.5;" x="354.611764802" xlink:href="#m177f7580d0" y="358.523530322"/>
      </g>
     </g>
     <g id="line2d_71">
      <g>
       <use style="stroke:#000000;stroke-width:0.5;" x="354.611764802" xlink:href="#m5284c7e2a0" y="12.9235303218"/>
      </g>
     </g>
    </g>
    <g id="xtick_19">
     <g id="line2d_72">
      <g>
       <use style="stroke:#000000;stroke-width:0.5;" x="361.570798439" xlink:href="#m177f7580d0" y="358.523530322"/>
      </g>
     </g>
     <g id="line2d_73">
      <g>
       <use style="stroke:#000000;stroke-width:0.5;" x="361.570798439" xlink:href="#m5284c7e2a0" y="12.9235303218"/>
      </g>
     </g>
    </g>
    <g id="xtick_20">
     <g id="line2d_74">
      <g>
       <use style="stroke:#000000;stroke-width:0.5;" x="367.709101133" xlink:href="#m177f7580d0" y="358.523530322"/>
      </g>
     </g>
     <g id="line2d_75">
      <g>
       <use style="stroke:#000000;stroke-width:0.5;" x="367.709101133" xlink:href="#m5284c7e2a0" y="12.9235303218"/>
      </g>
     </g>
    </g>
    <g id="xtick_21">
     <g id="line2d_76">
      <g>
       <use style="stroke:#000000;stroke-width:0.5;" x="409.32359948" xlink:href="#m177f7580d0" y="358.523530322"/>
      </g>
     </g>
     <g id="line2d_77">
      <g>
       <use style="stroke:#000000;stroke-width:0.5;" x="409.32359948" xlink:href="#m5284c7e2a0" y="12.9235303218"/>
      </g>
     </g>
    </g>
    <g id="xtick_22">
     <g id="line2d_78">
      <g>
       <use style="stroke:#000000;stroke-width:0.5;" x="430.454550566" xlink:href="#m177f7580d0" y="358.523530322"/>
      </g>
     </g>
     <g id="line2d_79">
      <g>
       <use style="stroke:#000000;stroke-width:0.5;" x="430.454550566" xlink:href="#m5284c7e2a0" y="12.9235303218"/>
      </g>
     </g>
    </g>
    <g id="xtick_23">
     <g id="line2d_80">
      <g>
       <use style="stroke:#000000;stroke-width:0.5;" x="445.447198959" xlink:href="#m177f7580d0" y="358.523530322"/>
      </g>
     </g>
     <g id="line2d_81">
      <g>
       <use style="stroke:#000000;stroke-width:0.5;" x="445.447198959" xlink:href="#m5284c7e2a0" y="12.9235303218"/>
      </g>
     </g>
    </g>
    <g id="xtick_24">
     <g id="line2d_82">
      <g>
       <use style="stroke:#000000;stroke-width:0.5;" x="457.07640052" xlink:href="#m177f7580d0" y="358.523530322"/>
      </g>
     </g>
     <g id="line2d_83">
      <g>
       <use style="stroke:#000000;stroke-width:0.5;" x="457.07640052" xlink:href="#m5284c7e2a0" y="12.9235303218"/>
      </g>
     </g>
    </g>
    <g id="xtick_25">
     <g id="line2d_84">
      <g>
       <use style="stroke:#000000;stroke-width:0.5;" x="466.578150046" xlink:href="#m177f7580d0" y="358.523530322"/>
      </g>
     </g>
     <g id="line2d_85">
      <g>
       <use style="stroke:#000000;stroke-width:0.5;" x="466.578150046" xlink:href="#m5284c7e2a0" y="12.9235303218"/>
      </g>
     </g>
    </g>
    <g id="xtick_26">
     <g id="line2d_86">
      <g>
       <use style="stroke:#000000;stroke-width:0.5;" x="474.611764802" xlink:href="#m177f7580d0" y="358.523530322"/>
      </g>
     </g>
     <g id="line2d_87">
      <g>
       <use style="stroke:#000000;stroke-width:0.5;" x="474.611764802" xlink:href="#m5284c7e2a0" y="12.9235303218"/>
      </g>
     </g>
    </g>
    <g id="xtick_27">
     <g id="line2d_88">
      <g>
       <use style="stroke:#000000;stroke-width:0.5;" x="481.570798439" xlink:href="#m177f7580d0" y="358.523530322"/>
      </g>
     </g>
     <g id="line2d_89">
      <g>
       <use style="stroke:#000000;stroke-width:0.5;" x="481.570798439" xlink:href="#m5284c7e2a0" y="12.9235303218"/>
      </g>
     </g>
    </g>
    <g id="xtick_28">
     <g id="line2d_90">
      <g>
       <use style="stroke:#000000;stroke-width:0.5;" x="487.709101133" xlink:href="#m177f7580d0" y="358.523530322"/>
      </g>
     </g>
     <g id="line2d_91">
      <g>
       <use style="stroke:#000000;stroke-width:0.5;" x="487.709101133" xlink:href="#m5284c7e2a0" y="12.9235303218"/>
      </g>
     </g>
    </g>
    <g id="xtick_29">
     <g id="line2d_92">
      <g>
       <use style="stroke:#000000;stroke-width:0.5;" x="529.32359948" xlink:href="#m177f7580d0" y="358.523530322"/>
      </g>
     </g>
     <g id="line2d_93">
      <g>
       <use style="stroke:#000000;stroke-width:0.5;" x="529.32359948" xlink:href="#m5284c7e2a0" y="12.9235303218"/>
      </g>
     </g>
    </g>
    <g id="xtick_30">
     <g id="line2d_94">
      <g>
       <use style="stroke:#000000;stroke-width:0.5;" x="550.454550566" xlink:href="#m177f7580d0" y="358.523530322"/>
      </g>
     </g>
     <g id="line2d_95">
      <g>
       <use style="stroke:#000000;stroke-width:0.5;" x="550.454550566" xlink:href="#m5284c7e2a0" y="12.9235303218"/>
      </g>
     </g>
    </g>
    <g id="xtick_31">
     <g id="line2d_96">
      <g>
       <use style="stroke:#000000;stroke-width:0.5;" x="565.447198959" xlink:href="#m177f7580d0" y="358.523530322"/>
      </g>
     </g>
     <g id="line2d_97">
      <g>
       <use style="stroke:#000000;stroke-width:0.5;" x="565.447198959" xlink:href="#m5284c7e2a0" y="12.9235303218"/>
      </g>
     </g>
    </g>
    <g id="xtick_32">
     <g id="line2d_98">
      <g>
       <use style="stroke:#000000;stroke-width:0.5;" x="577.07640052" xlink:href="#m177f7580d0" y="358.523530322"/>
      </g>
     </g>
     <g id="line2d_99">
      <g>
       <use style="stroke:#000000;stroke-width:0.5;" x="577.07640052" xlink:href="#m5284c7e2a0" y="12.9235303218"/>
      </g>
     </g>
    </g>
    <g id="text_5">
     <!-- log10 of (# f-evals / dimension) -->
     <defs>
      <path d="
M12.3594 -21.0469
L6.0625 -21.0469
Q20.6562 2.39062 20.6562 25.875
Q20.6562 35.0625 18.5625 44.0938
Q16.8906 51.4219 13.9219 58.1562
Q12.0156 62.5469 6.0625 72.7969
L12.3594 72.7969
Q21.5312 60.5469 25.9219 48.1875
Q29.6875 37.5469 29.6875 25.9219
Q29.6875 12.75 24.625 0.4375
Q19.5781 -11.8594 12.3594 -21.0469" id="ArialMT-29"/>
      <path d="
M40.4375 6.39062
Q35.5469 2.25 31.0312 0.53125
Q26.5156 -1.17188 21.3438 -1.17188
Q12.7969 -1.17188 8.20312 3
Q3.60938 7.17188 3.60938 13.6719
Q3.60938 17.4844 5.34375 20.625
Q7.07812 23.7812 9.89062 25.6875
Q12.7031 27.5938 16.2188 28.5625
Q18.7969 29.25 24.0312 29.8906
Q34.6719 31.1562 39.7031 32.9062
Q39.75 34.7188 39.75 35.2031
Q39.75 40.5781 37.25 42.7812
Q33.8906 45.75 27.25 45.75
Q21.0469 45.75 18.0938 43.5781
Q15.1406 41.4062 13.7188 35.8906
L5.125 37.0625
Q6.29688 42.5781 8.98438 45.9688
Q11.6719 49.3594 16.75 51.1875
Q21.8281 53.0312 28.5156 53.0312
Q35.1562 53.0312 39.2969 51.4688
Q43.4531 49.9062 45.4062 47.5312
Q47.3594 45.1719 48.1406 41.5469
Q48.5781 39.3125 48.5781 33.4531
L48.5781 21.7344
Q48.5781 9.46875 49.1406 6.21875
Q49.7031 2.98438 51.375 0
L42.1875 0
Q40.8281 2.73438 40.4375 6.39062
M39.7031 26.0312
Q34.9062 24.0781 25.3438 22.7031
Q19.9219 21.9219 17.6719 20.9375
Q15.4375 19.9688 14.2031 18.0938
Q12.9844 16.2188 12.9844 13.9219
Q12.9844 10.4062 15.6406 8.0625
Q18.3125 5.71875 23.4375 5.71875
Q28.5156 5.71875 32.4688 7.9375
Q36.4219 10.1562 38.2812 14.0156
Q39.7031 17 39.7031 22.7969
z
" id="ArialMT-61"/>
      <path d="
M4.98438 -4.29688
L13.5312 -5.5625
Q14.0625 -9.51562 16.5 -11.3281
Q19.7812 -13.7656 25.4375 -13.7656
Q31.5469 -13.7656 34.8594 -11.3281
Q38.1875 -8.89062 39.3594 -4.5
Q40.0469 -1.8125 39.9844 6.78125
Q34.2344 0 25.6406 0
Q14.9375 0 9.07812 7.71875
Q3.21875 15.4375 3.21875 26.2188
Q3.21875 33.6406 5.90625 39.9062
Q8.59375 46.1875 13.6875 49.6094
Q18.7969 53.0312 25.6875 53.0312
Q34.8594 53.0312 40.8281 45.6094
L40.8281 51.8594
L48.9219 51.8594
L48.9219 7.03125
Q48.9219 -5.07812 46.4531 -10.125
Q44 -15.1875 38.6406 -18.1094
Q33.2969 -21.0469 25.4844 -21.0469
Q16.2188 -21.0469 10.5 -16.875
Q4.78125 -12.7031 4.98438 -4.29688
M12.25 26.8594
Q12.25 16.6562 16.2969 11.9688
Q20.3594 7.28125 26.4688 7.28125
Q32.5156 7.28125 36.6094 11.9375
Q40.7188 16.6094 40.7188 26.5625
Q40.7188 36.0781 36.5 40.9062
Q32.2812 45.75 26.3125 45.75
Q20.4531 45.75 16.3438 40.9844
Q12.25 36.2344 12.25 26.8594" id="ArialMT-67"/>
      <path d="
M8.6875 0
L8.6875 45.0156
L0.921875 45.0156
L0.921875 51.8594
L8.6875 51.8594
L8.6875 57.375
Q8.6875 62.5938 9.625 65.1406
Q10.8906 68.5625 14.0781 70.6719
Q17.2812 72.7969 23.0469 72.7969
Q26.7656 72.7969 31.25 71.9219
L29.9375 64.2656
Q27.2031 64.75 24.75 64.75
Q20.75 64.75 19.0938 63.0312
Q17.4375 61.3281 17.4375 56.6406
L17.4375 51.8594
L27.5469 51.8594
L27.5469 45.0156
L17.4375 45.0156
L17.4375 0
z
" id="ArialMT-66"/>
      <path d="
M42.0938 16.7031
L51.1719 15.5781
Q49.0312 7.625 43.2188 3.21875
Q37.4062 -1.17188 28.375 -1.17188
Q17 -1.17188 10.3281 5.82812
Q3.65625 12.8438 3.65625 25.4844
Q3.65625 38.5781 10.3906 45.7969
Q17.1406 53.0312 27.875 53.0312
Q38.2812 53.0312 44.875 45.9531
Q51.4688 38.875 51.4688 26.0312
Q51.4688 25.25 51.4219 23.6875
L12.75 23.6875
Q13.2344 15.1406 17.5781 10.5938
Q21.9219 6.0625 28.4219 6.0625
Q33.25 6.0625 36.6719 8.59375
Q40.0938 11.1406 42.0938 16.7031
M13.2344 30.9062
L42.1875 30.9062
Q41.6094 37.4531 38.875 40.7188
Q34.6719 45.7969 27.9844 45.7969
Q21.9219 45.7969 17.7969 41.75
Q13.6719 37.7031 13.2344 30.9062" id="ArialMT-65"/>
      <path d="
M40.2344 0
L40.2344 6.54688
Q35.2969 -1.17188 25.7344 -1.17188
Q19.5312 -1.17188 14.3281 2.25
Q9.125 5.67188 6.26562 11.7969
Q3.42188 17.9219 3.42188 25.875
Q3.42188 33.6406 6 39.9688
Q8.59375 46.2969 13.7656 49.6562
Q18.9531 53.0312 25.3438 53.0312
Q30.0312 53.0312 33.6875 51.0469
Q37.3594 49.0781 39.6562 45.9062
L39.6562 71.5781
L48.3906 71.5781
L48.3906 0
z

M12.4531 25.875
Q12.4531 15.9219 16.6406 10.9844
Q20.8438 6.0625 26.5625 6.0625
Q32.3281 6.0625 36.3438 10.7656
Q40.375 15.4844 40.375 25.1406
Q40.375 35.7969 36.2656 40.7656
Q32.1719 45.75 26.1719 45.75
Q20.3125 45.75 16.375 40.9688
Q12.4531 36.1875 12.4531 25.875" id="ArialMT-64"/>
      <path d="
M0 -1.21875
L20.75 72.7969
L27.7812 72.7969
L7.07812 -1.21875
z
" id="ArialMT-2f"/>
      <path d="
M21 0
L1.26562 51.8594
L10.5469 51.8594
L21.6875 20.7969
Q23.4844 15.7656 25 10.3594
Q26.1719 14.4531 28.2656 20.2188
L39.7969 51.8594
L48.8281 51.8594
L29.2031 0
z
" id="ArialMT-76"/>
      <path d="
M3.17188 21.4844
L3.17188 30.3281
L30.1719 30.3281
L30.1719 21.4844
z
" id="ArialMT-2d"/>
      <path d="
M6.59375 0
L6.59375 51.8594
L14.4531 51.8594
L14.4531 44.5781
Q16.8906 48.3906 20.9375 50.7031
Q25 53.0312 30.1719 53.0312
Q35.9375 53.0312 39.625 50.6406
Q43.3125 48.25 44.8281 43.9531
Q50.9844 53.0312 60.8438 53.0312
Q68.5625 53.0312 72.7031 48.75
Q76.8594 44.4844 76.8594 35.5938
L76.8594 0
L68.1094 0
L68.1094 32.6719
Q68.1094 37.9375 67.25 40.25
Q66.4062 42.5781 64.1562 43.9844
Q61.9219 45.4062 58.8906 45.4062
Q53.4219 45.4062 49.7969 41.7656
Q46.1875 38.1406 46.1875 30.125
L46.1875 0
L37.4062 0
L37.4062 33.6875
Q37.4062 39.5469 35.25 42.4688
Q33.1094 45.4062 28.2188 45.4062
Q24.5156 45.4062 21.3594 43.4531
Q18.2188 41.5 16.7969 37.7344
Q15.375 33.9844 15.375 26.9062
L15.375 0
z
" id="ArialMT-6d"/>
      <path d="
M3.07812 15.4844
L11.7656 16.8438
Q12.5 11.625 15.8438 8.84375
Q19.1875 6.0625 25.2031 6.0625
Q31.25 6.0625 34.1719 8.51562
Q37.1094 10.9844 37.1094 14.3125
Q37.1094 17.2812 34.5156 19
Q32.7188 20.1719 25.5312 21.9688
Q15.875 24.4219 12.1406 26.2031
Q8.40625 27.9844 6.46875 31.125
Q4.54688 34.2812 4.54688 38.0938
Q4.54688 41.5469 6.125 44.5
Q7.71875 47.4688 10.4531 49.4219
Q12.5 50.9219 16.0312 51.9688
Q19.5781 53.0312 23.6406 53.0312
Q29.7344 53.0312 34.3438 51.2656
Q38.9688 49.5156 41.1562 46.5
Q43.3594 43.5 44.1875 38.4844
L35.5938 37.3125
Q35.0156 41.3125 32.2031 43.5469
Q29.3906 45.7969 24.2656 45.7969
Q18.2188 45.7969 15.625 43.7969
Q13.0312 41.7969 13.0312 39.1094
Q13.0312 37.4062 14.1094 36.0312
Q15.1875 34.625 17.4844 33.6875
Q18.7969 33.2031 25.25 31.4531
Q34.5781 28.9531 38.25 27.3594
Q41.9375 25.7812 44.0312 22.75
Q46.1406 19.7344 46.1406 15.2344
Q46.1406 10.8438 43.5781 6.95312
Q41.0156 3.07812 36.1719 0.953125
Q31.3438 -1.17188 25.25 -1.17188
Q15.1406 -1.17188 9.84375 3.03125
Q4.54688 7.23438 3.07812 15.4844" id="ArialMT-73"/>
      <path d="
M6.39062 0
L6.39062 71.5781
L15.1875 71.5781
L15.1875 0
z
" id="ArialMT-6c"/>
      <path d="
M3.32812 25.9219
Q3.32812 40.3281 11.3281 47.2656
Q18.0156 53.0312 27.6406 53.0312
Q38.3281 53.0312 45.1094 46.0156
Q51.9062 39.0156 51.9062 26.6562
Q51.9062 16.6562 48.9062 10.9062
Q45.9062 5.17188 40.1562 2
Q34.4219 -1.17188 27.6406 -1.17188
Q16.75 -1.17188 10.0312 5.8125
Q3.32812 12.7969 3.32812 25.9219
M12.3594 25.9219
Q12.3594 15.9688 16.7031 11.0156
Q21.0469 6.0625 27.6406 6.0625
Q34.1875 6.0625 38.5312 11.0312
Q42.875 16.0156 42.875 26.2188
Q42.875 35.8438 38.5 40.7969
Q34.125 45.75 27.6406 45.75
Q21.0469 45.75 16.7031 40.8125
Q12.3594 35.8906 12.3594 25.9219" id="ArialMT-6f"/>
      <path d="
M6.59375 0
L6.59375 51.8594
L14.5 51.8594
L14.5 44.4844
Q20.2188 53.0312 31 53.0312
Q35.6875 53.0312 39.625 51.3438
Q43.5625 49.6562 45.5156 46.9219
Q47.4688 44.1875 48.25 40.4375
Q48.7344 37.9844 48.7344 31.8906
L48.7344 0
L39.9375 0
L39.9375 31.5469
Q39.9375 36.9219 38.9062 39.5781
Q37.8906 42.2344 35.2812 43.8125
Q32.6719 45.4062 29.1562 45.4062
Q23.5312 45.4062 19.4531 41.8438
Q15.375 38.2812 15.375 28.3281
L15.375 0
z
" id="ArialMT-6e"/>
      <path d="
M23.3906 -21.0469
Q16.1094 -11.8594 11.0781 0.4375
Q6.0625 12.75 6.0625 25.9219
Q6.0625 37.5469 9.8125 48.1875
Q14.2031 60.5469 23.3906 72.7969
L29.6875 72.7969
Q23.7812 62.6406 21.875 58.2969
Q18.8906 51.5625 17.1875 44.2344
Q15.0938 35.1094 15.0938 25.875
Q15.0938 2.39062 29.6875 -21.0469
z
" id="ArialMT-28"/>
      <path d="
M5.03125 -1.21875
L9.28125 19.5781
L1.03125 19.5781
L1.03125 26.8594
L10.75 26.8594
L14.3594 44.5781
L1.03125 44.5781
L1.03125 51.8594
L15.8281 51.8594
L20.0625 72.7969
L27.3906 72.7969
L23.1406 51.8594
L38.5312 51.8594
L42.7812 72.7969
L50.1406 72.7969
L45.9062 51.8594
L54.3438 51.8594
L54.3438 44.5781
L44.4375 44.5781
L40.7656 26.8594
L54.3438 26.8594
L54.3438 19.5781
L39.3125 19.5781
L35.0625 -1.21875
L27.7344 -1.21875
L31.9375 19.5781
L16.6094 19.5781
L12.3594 -1.21875
z

M18.0625 26.8594
L33.4062 26.8594
L37.0625 44.5781
L21.6875 44.5781
z
" id="ArialMT-23"/>
      <path d="
M6.64062 61.4688
L6.64062 71.5781
L15.4375 71.5781
L15.4375 61.4688
z

M6.64062 0
L6.64062 51.8594
L15.4375 51.8594
L15.4375 0
z
" id="ArialMT-69"/>
      <path id="ArialMT-20"/>
     </defs>
     <g transform="translate(233.67375 398.917592822)scale(0.18 -0.18)">
      <use xlink:href="#ArialMT-6c"/>
      <use x="22.216796875" xlink:href="#ArialMT-6f"/>
      <use x="77.83203125" xlink:href="#ArialMT-67"/>
      <use x="133.447265625" xlink:href="#ArialMT-31"/>
      <use x="189.0625" xlink:href="#ArialMT-30"/>
      <use x="244.677734375" xlink:href="#ArialMT-20"/>
      <use x="272.4609375" xlink:href="#ArialMT-6f"/>
      <use x="328.076171875" xlink:href="#ArialMT-66"/>
      <use x="355.859375" xlink:href="#ArialMT-20"/>
      <use x="383.642578125" xlink:href="#ArialMT-28"/>
      <use x="416.943359375" xlink:href="#ArialMT-23"/>
      <use x="472.55859375" xlink:href="#ArialMT-20"/>
      <use x="500.341796875" xlink:href="#ArialMT-66"/>
      <use x="528.125" xlink:href="#ArialMT-2d"/>
      <use x="561.42578125" xlink:href="#ArialMT-65"/>
      <use x="617.041015625" xlink:href="#ArialMT-76"/>
      <use x="667.041015625" xlink:href="#ArialMT-61"/>
      <use x="722.65625" xlink:href="#ArialMT-6c"/>
      <use x="744.873046875" xlink:href="#ArialMT-73"/>
      <use x="794.873046875" xlink:href="#ArialMT-20"/>
      <use x="822.65625" xlink:href="#ArialMT-2f"/>
      <use x="850.439453125" xlink:href="#ArialMT-20"/>
      <use x="878.22265625" xlink:href="#ArialMT-64"/>
      <use x="933.837890625" xlink:href="#ArialMT-69"/>
      <use x="956.0546875" xlink:href="#ArialMT-6d"/>
      <use x="1039.35546875" xlink:href="#ArialMT-65"/>
      <use x="1094.97070312" xlink:href="#ArialMT-6e"/>
      <use x="1150.5859375" xlink:href="#ArialMT-73"/>
      <use x="1200.5859375" xlink:href="#ArialMT-69"/>
      <use x="1222.80273438" xlink:href="#ArialMT-6f"/>
      <use x="1278.41796875" xlink:href="#ArialMT-6e"/>
      <use x="1334.03320312" xlink:href="#ArialMT-29"/>
     </g>
    </g>
   </g>
   <g id="matplotlib.axis_2">
    <g id="ytick_1">
     <g id="line2d_100">
      <path clip-path="url(#p63d92de1a6)" d="
M133.2 358.524
L579.6 358.524" style="fill:none;stroke:#000000;stroke-dasharray:1.000000,3.000000;stroke-dashoffset:0.0;stroke-width:0.5;"/>
     </g>
     <g id="line2d_101">
      <defs>
       <path d="
M0 0
L4 0" id="m728421d6d4" style="stroke:#000000;stroke-width:0.5;"/>
      </defs>
      <g>
       <use style="stroke:#000000;stroke-width:0.5;" x="133.2" xlink:href="#m728421d6d4" y="358.523530322"/>
      </g>
     </g>
     <g id="line2d_102">
      <defs>
       <path d="
M0 0
L-4 0" id="mcb0005524f" style="stroke:#000000;stroke-width:0.5;"/>
      </defs>
      <g>
       <use style="stroke:#000000;stroke-width:0.5;" x="579.6" xlink:href="#mcb0005524f" y="358.523530322"/>
      </g>
     </g>
     <g id="text_6">
      <!-- 0.0 -->
      <defs>
       <path d="
M9.07812 0
L9.07812 10.0156
L19.0938 10.0156
L19.0938 0
z
" id="ArialMT-2e"/>
      </defs>
      <g transform="translate(103.1875 363.693842822)scale(0.2 -0.2)">
       <use xlink:href="#ArialMT-30"/>
       <use x="55.615234375" xlink:href="#ArialMT-2e"/>
       <use x="83.3984375" xlink:href="#ArialMT-30"/>
      </g>
     </g>
    </g>
    <g id="ytick_2">
     <g id="line2d_103">
      <path clip-path="url(#p63d92de1a6)" d="
M133.2 290.088
L579.6 290.088" style="fill:none;stroke:#000000;stroke-dasharray:1.000000,3.000000;stroke-dashoffset:0.0;stroke-width:0.5;"/>
     </g>
     <g id="line2d_104">
      <g>
       <use style="stroke:#000000;stroke-width:0.5;" x="133.2" xlink:href="#m728421d6d4" y="290.087886757"/>
      </g>
     </g>
     <g id="line2d_105">
      <g>
       <use style="stroke:#000000;stroke-width:0.5;" x="579.6" xlink:href="#mcb0005524f" y="290.087886757"/>
      </g>
     </g>
     <g id="text_7">
      <!-- 0.2 -->
      <g transform="translate(103.284375 295.258199257)scale(0.2 -0.2)">
       <use xlink:href="#ArialMT-30"/>
       <use x="55.615234375" xlink:href="#ArialMT-2e"/>
       <use x="83.3984375" xlink:href="#ArialMT-32"/>
      </g>
     </g>
    </g>
    <g id="ytick_3">
     <g id="line2d_106">
      <path clip-path="url(#p63d92de1a6)" d="
M133.2 221.652
L579.6 221.652" style="fill:none;stroke:#000000;stroke-dasharray:1.000000,3.000000;stroke-dashoffset:0.0;stroke-width:0.5;"/>
     </g>
     <g id="line2d_107">
      <g>
       <use style="stroke:#000000;stroke-width:0.5;" x="133.2" xlink:href="#m728421d6d4" y="221.652243193"/>
      </g>
     </g>
     <g id="line2d_108">
      <g>
       <use style="stroke:#000000;stroke-width:0.5;" x="579.6" xlink:href="#mcb0005524f" y="221.652243193"/>
      </g>
     </g>
     <g id="text_8">
      <!-- 0.4 -->
      <defs>
       <path d="
M32.3281 0
L32.3281 17.1406
L1.26562 17.1406
L1.26562 25.2031
L33.9375 71.5781
L41.1094 71.5781
L41.1094 25.2031
L50.7812 25.2031
L50.7812 17.1406
L41.1094 17.1406
L41.1094 0
z

M32.3281 25.2031
L32.3281 57.4688
L9.90625 25.2031
z
" id="ArialMT-34"/>
      </defs>
      <g transform="translate(103.196875 226.822555693)scale(0.2 -0.2)">
       <use xlink:href="#ArialMT-30"/>
       <use x="55.615234375" xlink:href="#ArialMT-2e"/>
       <use x="83.3984375" xlink:href="#ArialMT-34"/>
      </g>
     </g>
    </g>
    <g id="ytick_4">
     <g id="line2d_109">
      <path clip-path="url(#p63d92de1a6)" d="
M133.2 153.217
L579.6 153.217" style="fill:none;stroke:#000000;stroke-dasharray:1.000000,3.000000;stroke-dashoffset:0.0;stroke-width:0.5;"/>
     </g>
     <g id="line2d_110">
      <g>
       <use style="stroke:#000000;stroke-width:0.5;" x="133.2" xlink:href="#m728421d6d4" y="153.216599629"/>
      </g>
     </g>
     <g id="line2d_111">
      <g>
       <use style="stroke:#000000;stroke-width:0.5;" x="579.6" xlink:href="#mcb0005524f" y="153.216599629"/>
      </g>
     </g>
     <g id="text_9">
      <!-- 0.6 -->
      <defs>
       <path d="
M49.75 54.0469
L41.0156 53.375
Q39.8438 58.5469 37.7031 60.8906
Q34.125 64.6562 28.9062 64.6562
Q24.7031 64.6562 21.5312 62.3125
Q17.3906 59.2812 14.9844 53.4688
Q12.5938 47.6562 12.5 36.9219
Q15.6719 41.75 20.2656 44.0938
Q24.8594 46.4375 29.8906 46.4375
Q38.6719 46.4375 44.8438 39.9688
Q51.0312 33.5 51.0312 23.25
Q51.0312 16.5 48.125 10.7188
Q45.2188 4.9375 40.1406 1.85938
Q35.0625 -1.21875 28.6094 -1.21875
Q17.625 -1.21875 10.6875 6.85938
Q3.76562 14.9375 3.76562 33.5
Q3.76562 54.25 11.4219 63.6719
Q18.1094 71.875 29.4375 71.875
Q37.8906 71.875 43.2812 67.1406
Q48.6875 62.4062 49.75 54.0469
M13.875 23.1875
Q13.875 18.6562 15.7969 14.5
Q17.7188 10.3594 21.1875 8.17188
Q24.6562 6 28.4688 6
Q34.0312 6 38.0312 10.4844
Q42.0469 14.9844 42.0469 22.7031
Q42.0469 30.125 38.0781 34.3906
Q34.125 38.6719 28.125 38.6719
Q22.1719 38.6719 18.0156 34.3906
Q13.875 30.125 13.875 23.1875" id="ArialMT-36"/>
      </defs>
      <g transform="translate(103.146875 158.386912129)scale(0.2 -0.2)">
       <use xlink:href="#ArialMT-30"/>
       <use x="55.615234375" xlink:href="#ArialMT-2e"/>
       <use x="83.3984375" xlink:href="#ArialMT-36"/>
      </g>
     </g>
    </g>
    <g id="ytick_5">
     <g id="line2d_112">
      <path clip-path="url(#p63d92de1a6)" d="
M133.2 84.781
L579.6 84.781" style="fill:none;stroke:#000000;stroke-dasharray:1.000000,3.000000;stroke-dashoffset:0.0;stroke-width:0.5;"/>
     </g>
     <g id="line2d_113">
      <g>
       <use style="stroke:#000000;stroke-width:0.5;" x="133.2" xlink:href="#m728421d6d4" y="84.7809560644"/>
      </g>
     </g>
     <g id="line2d_114">
      <g>
       <use style="stroke:#000000;stroke-width:0.5;" x="579.6" xlink:href="#mcb0005524f" y="84.7809560644"/>
      </g>
     </g>
     <g id="text_10">
      <!-- 0.8 -->
      <defs>
       <path d="
M17.6719 38.8125
Q12.2031 40.8281 9.5625 44.5312
Q6.9375 48.25 6.9375 53.4219
Q6.9375 61.2344 12.5469 66.5469
Q18.1719 71.875 27.4844 71.875
Q36.8594 71.875 42.5781 66.4219
Q48.2969 60.9844 48.2969 53.1719
Q48.2969 48.1875 45.6719 44.5
Q43.0625 40.8281 37.75 38.8125
Q44.3438 36.6719 47.7812 31.875
Q51.2188 27.0938 51.2188 20.4531
Q51.2188 11.2812 44.7188 5.03125
Q38.2344 -1.21875 27.6406 -1.21875
Q17.0469 -1.21875 10.5469 5.04688
Q4.04688 11.3281 4.04688 20.7031
Q4.04688 27.6875 7.59375 32.3906
Q11.1406 37.1094 17.6719 38.8125
M15.9219 53.7188
Q15.9219 48.6406 19.1875 45.4062
Q22.4688 42.1875 27.6875 42.1875
Q32.7656 42.1875 36.0156 45.375
Q39.2656 48.5781 39.2656 53.2188
Q39.2656 58.0625 35.9062 61.3594
Q32.5625 64.6562 27.5938 64.6562
Q22.5625 64.6562 19.2344 61.4219
Q15.9219 58.2031 15.9219 53.7188
M13.0938 20.6562
Q13.0938 16.8906 14.875 13.375
Q16.6562 9.85938 20.1719 7.92188
Q23.6875 6 27.7344 6
Q34.0312 6 38.125 10.0469
Q42.2344 14.1094 42.2344 20.3594
Q42.2344 26.7031 38.0156 30.8594
Q33.7969 35.0156 27.4375 35.0156
Q21.2344 35.0156 17.1562 30.9062
Q13.0938 26.8125 13.0938 20.6562" id="ArialMT-38"/>
      </defs>
      <g transform="translate(103.109375 89.9512685644)scale(0.2 -0.2)">
       <use xlink:href="#ArialMT-30"/>
       <use x="55.615234375" xlink:href="#ArialMT-2e"/>
       <use x="83.3984375" xlink:href="#ArialMT-38"/>
      </g>
     </g>
    </g>
    <g id="ytick_6">
     <g id="line2d_115">
      <path clip-path="url(#p63d92de1a6)" d="
M133.2 16.3453
L579.6 16.3453" style="fill:none;stroke:#000000;stroke-dasharray:1.000000,3.000000;stroke-dashoffset:0.0;stroke-width:0.5;"/>
     </g>
     <g id="line2d_116">
      <g>
       <use style="stroke:#000000;stroke-width:0.5;" x="133.2" xlink:href="#m728421d6d4" y="16.3453125"/>
      </g>
     </g>
     <g id="line2d_117">
      <g>
       <use style="stroke:#000000;stroke-width:0.5;" x="579.6" xlink:href="#mcb0005524f" y="16.3453125"/>
      </g>
     </g>
     <g id="text_11">
      <!-- 1.0 -->
      <g transform="translate(104.534375 21.515625)scale(0.2 -0.2)">
       <use xlink:href="#ArialMT-31"/>
       <use x="55.615234375" xlink:href="#ArialMT-2e"/>
       <use x="83.3984375" xlink:href="#ArialMT-30"/>
      </g>
     </g>
    </g>
    <g id="text_12">
     <!-- Proportion of function+target pairs -->
     <defs>
      <path d="
M40.4375 19
L49.0781 17.875
Q47.6562 8.9375 41.8125 3.875
Q35.9844 -1.17188 27.4844 -1.17188
Q16.8438 -1.17188 10.375 5.78125
Q3.90625 12.75 3.90625 25.7344
Q3.90625 34.125 6.6875 40.4219
Q9.46875 46.7344 15.1562 49.875
Q20.8438 53.0312 27.5469 53.0312
Q35.9844 53.0312 41.3594 48.75
Q46.7344 44.4844 48.25 36.625
L39.7031 35.2969
Q38.4844 40.5312 35.375 43.1562
Q32.2812 45.7969 27.875 45.7969
Q21.2344 45.7969 17.0781 41.0312
Q12.9375 36.2812 12.9375 25.9844
Q12.9375 15.5312 16.9375 10.7969
Q20.9531 6.0625 27.3906 6.0625
Q32.5625 6.0625 36.0312 9.23438
Q39.5 12.4062 40.4375 19" id="ArialMT-63"/>
      <path d="
M25.7812 7.85938
L27.0469 0.09375
Q23.3438 -0.6875 20.4062 -0.6875
Q15.625 -0.6875 12.9844 0.828125
Q10.3594 2.34375 9.28125 4.8125
Q8.20312 7.28125 8.20312 15.1875
L8.20312 45.0156
L1.76562 45.0156
L1.76562 51.8594
L8.20312 51.8594
L8.20312 64.7031
L16.9375 69.9688
L16.9375 51.8594
L25.7812 51.8594
L25.7812 45.0156
L16.9375 45.0156
L16.9375 14.7031
Q16.9375 10.9375 17.4062 9.85938
Q17.875 8.79688 18.9219 8.15625
Q19.9688 7.51562 21.9219 7.51562
Q23.3906 7.51562 25.7812 7.85938" id="ArialMT-74"/>
      <path d="
M40.5781 0
L40.5781 7.625
Q34.5156 -1.17188 24.125 -1.17188
Q19.5312 -1.17188 15.5469 0.578125
Q11.5781 2.34375 9.64062 5
Q7.71875 7.67188 6.9375 11.5312
Q6.39062 14.1094 6.39062 19.7344
L6.39062 51.8594
L15.1875 51.8594
L15.1875 23.0938
Q15.1875 16.2188 15.7188 13.8125
Q16.5469 10.3594 19.2344 8.375
Q21.9219 6.39062 25.875 6.39062
Q29.8281 6.39062 33.2969 8.42188
Q36.7656 10.4531 38.2031 13.9375
Q39.6562 17.4375 39.6562 24.0781
L39.6562 51.8594
L48.4375 51.8594
L48.4375 0
z
" id="ArialMT-75"/>
      <path d="
M7.71875 0
L7.71875 71.5781
L34.7188 71.5781
Q41.8438 71.5781 45.6094 70.9062
Q50.875 70.0156 54.4375 67.5469
Q58.0156 65.0938 60.1875 60.6406
Q62.3594 56.2031 62.3594 50.875
Q62.3594 41.75 56.5469 35.4219
Q50.7344 29.1094 35.5469 29.1094
L17.1875 29.1094
L17.1875 0
z

M17.1875 37.5469
L35.6875 37.5469
Q44.875 37.5469 48.7344 40.9688
Q52.5938 44.3906 52.5938 50.5938
Q52.5938 55.0781 50.3125 58.2656
Q48.0469 61.4688 44.3438 62.5
Q41.9375 63.1406 35.5 63.1406
L17.1875 63.1406
z
" id="ArialMT-50"/>
      <path d="
M6.59375 -19.875
L6.59375 51.8594
L14.5938 51.8594
L14.5938 45.125
Q17.4375 49.0781 21 51.0469
Q24.5625 53.0312 29.6406 53.0312
Q36.2812 53.0312 41.3594 49.6094
Q46.4375 46.1875 49.0156 39.9531
Q51.6094 33.7344 51.6094 26.3125
Q51.6094 18.3594 48.75 11.9844
Q45.9062 5.60938 40.4531 2.21875
Q35.0156 -1.17188 29 -1.17188
Q24.6094 -1.17188 21.1094 0.6875
Q17.625 2.54688 15.375 5.375
L15.375 -19.875
z

M14.5469 25.6406
Q14.5469 15.625 18.5938 10.8438
Q22.6562 6.0625 28.4219 6.0625
Q34.2812 6.0625 38.4531 11.0156
Q42.625 15.9688 42.625 26.375
Q42.625 36.2812 38.5469 41.2031
Q34.4688 46.1406 28.8125 46.1406
Q23.1875 46.1406 18.8594 40.8906
Q14.5469 35.6406 14.5469 25.6406" id="ArialMT-70"/>
      <path d="
M25.0469 11.5781
L25.0469 31.2031
L5.5625 31.2031
L5.5625 39.4062
L25.0469 39.4062
L25.0469 58.8906
L33.3438 58.8906
L33.3438 39.4062
L52.8281 39.4062
L52.8281 31.2031
L33.3438 31.2031
L33.3438 11.5781
z
" id="ArialMT-2b"/>
      <path d="
M6.5 0
L6.5 51.8594
L14.4062 51.8594
L14.4062 44
Q17.4375 49.5156 20 51.2656
Q22.5625 53.0312 25.6406 53.0312
Q30.0781 53.0312 34.6719 50.2031
L31.6406 42.0469
Q28.4219 43.9531 25.2031 43.9531
Q22.3125 43.9531 20.0156 42.2188
Q17.7188 40.4844 16.75 37.4062
Q15.2812 32.7188 15.2812 27.1562
L15.2812 0
z
" id="ArialMT-72"/>
     </defs>
     <g transform="translate(94.3209375 321.197436572)rotate(-90.0)scale(0.18 -0.18)">
      <use xlink:href="#ArialMT-50"/>
      <use x="66.69921875" xlink:href="#ArialMT-72"/>
      <use x="100.0" xlink:href="#ArialMT-6f"/>
      <use x="155.615234375" xlink:href="#ArialMT-70"/>
      <use x="211.23046875" xlink:href="#ArialMT-6f"/>
      <use x="266.845703125" xlink:href="#ArialMT-72"/>
      <use x="300.146484375" xlink:href="#ArialMT-74"/>
      <use x="327.9296875" xlink:href="#ArialMT-69"/>
      <use x="350.146484375" xlink:href="#ArialMT-6f"/>
      <use x="405.76171875" xlink:href="#ArialMT-6e"/>
      <use x="461.376953125" xlink:href="#ArialMT-20"/>
      <use x="489.16015625" xlink:href="#ArialMT-6f"/>
      <use x="544.775390625" xlink:href="#ArialMT-66"/>
      <use x="572.55859375" xlink:href="#ArialMT-20"/>
      <use x="600.341796875" xlink:href="#ArialMT-66"/>
      <use x="628.125" xlink:href="#ArialMT-75"/>
      <use x="683.740234375" xlink:href="#ArialMT-6e"/>
      <use x="739.35546875" xlink:href="#ArialMT-63"/>
      <use x="789.35546875" xlink:href="#ArialMT-74"/>
      <use x="817.138671875" xlink:href="#ArialMT-69"/>
      <use x="839.35546875" xlink:href="#ArialMT-6f"/>
      <use x="894.970703125" xlink:href="#ArialMT-6e"/>
      <use x="950.5859375" xlink:href="#ArialMT-2b"/>
      <use x="1008.984375" xlink:href="#ArialMT-74"/>
      <use x="1036.76757812" xlink:href="#ArialMT-61"/>
      <use x="1092.3828125" xlink:href="#ArialMT-72"/>
      <use x="1125.68359375" xlink:href="#ArialMT-67"/>
      <use x="1181.29882812" xlink:href="#ArialMT-65"/>
      <use x="1236.9140625" xlink:href="#ArialMT-74"/>
      <use x="1264.69726562" xlink:href="#ArialMT-20"/>
      <use x="1292.48046875" xlink:href="#ArialMT-70"/>
      <use x="1348.09570312" xlink:href="#ArialMT-61"/>
      <use x="1403.7109375" xlink:href="#ArialMT-69"/>
      <use x="1425.92773438" xlink:href="#ArialMT-72"/>
      <use x="1459.22851562" xlink:href="#ArialMT-73"/>
     </g>
    </g>
   </g>
   <g id="patch_3">
    <path d="
M133.2 12.9235
L579.6 12.9235" style="fill:none;stroke:#000000;"/>
   </g>
   <g id="patch_4">
    <path d="
M579.6 358.524
L579.6 12.9235" style="fill:none;stroke:#000000;"/>
   </g>
   <g id="patch_5">
    <path d="
M133.2 358.524
L579.6 358.524" style="fill:none;stroke:#000000;"/>
   </g>
   <g id="patch_6">
    <path d="
M133.2 358.524
L133.2 12.9235" style="fill:none;stroke:#000000;"/>
   </g>
   <g id="text_13">
    <!-- 10-D -->
    <defs>
     <path d="
M7.71875 0
L7.71875 71.5781
L32.375 71.5781
Q40.7188 71.5781 45.125 70.5625
Q51.2656 69.1406 55.6094 65.4375
Q61.2812 60.6406 64.0781 53.1875
Q66.8906 45.75 66.8906 36.1875
Q66.8906 28.0312 64.9844 21.7344
Q63.0938 15.4375 60.1094 11.2969
Q57.125 7.17188 53.5781 4.79688
Q50.0469 2.4375 45.0469 1.21875
Q40.0469 0 33.5469 0
z

M17.1875 8.45312
L32.4688 8.45312
Q39.5469 8.45312 43.5781 9.76562
Q47.6094 11.0781 50 13.4844
Q53.375 16.8438 55.25 22.5312
Q57.125 28.2188 57.125 36.3281
Q57.125 47.5625 53.4375 53.5938
Q49.75 59.625 44.4844 61.6719
Q40.6719 63.1406 32.2344 63.1406
L17.1875 63.1406
z
" id="ArialMT-44"/>
    </defs>
    <g transform="translate(540.0 355.55770034)scale(0.15 -0.15)">
     <use xlink:href="#ArialMT-31"/>
     <use x="55.615234375" xlink:href="#ArialMT-30"/>
     <use x="111.23046875" xlink:href="#ArialMT-2d"/>
     <use x="144.53125" xlink:href="#ArialMT-44"/>
    </g>
   </g>
   <g id="text_14">
    <!-- 5-D -->
    <defs>
     <path d="
M4.15625 18.75
L13.375 19.5312
Q14.4062 12.7969 18.1406 9.39062
Q21.875 6 27.1562 6
Q33.5 6 37.8906 10.7812
Q42.2812 15.5781 42.2812 23.4844
Q42.2812 31 38.0625 35.3438
Q33.8438 39.7031 27 39.7031
Q22.75 39.7031 19.3281 37.7656
Q15.9219 35.8438 13.9688 32.7656
L5.71875 33.8438
L12.6406 70.6094
L48.25 70.6094
L48.25 62.2031
L19.6719 62.2031
L15.8281 42.9688
Q22.2656 47.4688 29.3438 47.4688
Q38.7188 47.4688 45.1562 40.9688
Q51.6094 34.4688 51.6094 24.2656
Q51.6094 14.5469 45.9531 7.46875
Q39.0625 -1.21875 27.1562 -1.21875
Q17.3906 -1.21875 11.2031 4.25
Q5.03125 9.71875 4.15625 18.75" id="ArialMT-35"/>
    </defs>
    <g transform="translate(540.0 273.434928063)scale(0.15 -0.15)">
     <use xlink:href="#ArialMT-35"/>
     <use x="55.615234375" xlink:href="#ArialMT-2d"/>
     <use x="88.916015625" xlink:href="#ArialMT-44"/>
    </g>
   </g>
   <g id="text_15">
    <!-- 20-D -->
    <g transform="translate(540.0 191.312155786)scale(0.15 -0.15)">
     <use xlink:href="#ArialMT-32"/>
     <use x="55.615234375" xlink:href="#ArialMT-30"/>
     <use x="111.23046875" xlink:href="#ArialMT-2d"/>
     <use x="144.53125" xlink:href="#ArialMT-44"/>
    </g>
   </g>
   <g id="text_16">
    <!-- 2-D -->
    <g transform="translate(540.0 109.189383509)scale(0.15 -0.15)">
     <use xlink:href="#ArialMT-32"/>
     <use x="55.615234375" xlink:href="#ArialMT-2d"/>
     <use x="88.916015625" xlink:href="#ArialMT-44"/>
    </g>
   </g>
   <g id="text_17">
    <!-- 3-D -->
    <g transform="translate(540.0 27.0666112314)scale(0.15 -0.15)">
     <use xlink:href="#ArialMT-33"/>
     <use x="55.615234375" xlink:href="#ArialMT-2d"/>
     <use x="88.916015625" xlink:href="#ArialMT-44"/>
    </g>
   </g>
   <g id="text_18">
    <!-- bbob - f20-f24 -->
    <defs>
     <path d="
M14.7031 0
L6.54688 0
L6.54688 71.5781
L15.3281 71.5781
L15.3281 46.0469
Q20.9062 53.0312 29.5469 53.0312
Q34.3281 53.0312 38.5938 51.0938
Q42.875 49.1719 45.625 45.6719
Q48.3906 42.1875 49.9531 37.25
Q51.5156 32.3281 51.5156 26.7031
Q51.5156 13.375 44.9219 6.09375
Q38.3281 -1.17188 29.1094 -1.17188
Q19.9219 -1.17188 14.7031 6.5
z

M14.5938 26.3125
Q14.5938 17 17.1406 12.8438
Q21.2969 6.0625 28.375 6.0625
Q34.125 6.0625 38.3281 11.0625
Q42.5312 16.0625 42.5312 25.9844
Q42.5312 36.1406 38.5 40.9688
Q34.4688 45.7969 28.7656 45.7969
Q23 45.7969 18.7969 40.7969
Q14.5938 35.7969 14.5938 26.3125" id="ArialMT-62"/>
    </defs>
    <g transform="translate(137.664 31.7604459468)scale(0.1666 -0.1666)">
     <use xlink:href="#ArialMT-62"/>
     <use x="55.615234375" xlink:href="#ArialMT-62"/>
     <use x="111.23046875" xlink:href="#ArialMT-6f"/>
     <use x="166.845703125" xlink:href="#ArialMT-62"/>
     <use x="222.4609375" xlink:href="#ArialMT-20"/>
     <use x="250.244140625" xlink:href="#ArialMT-2d"/>
     <use x="283.544921875" xlink:href="#ArialMT-20"/>
     <use x="311.328125" xlink:href="#ArialMT-66"/>
     <use x="339.111328125" xlink:href="#ArialMT-32"/>
     <use x="394.7265625" xlink:href="#ArialMT-30"/>
     <use x="450.341796875" xlink:href="#ArialMT-2d"/>
     <use x="483.642578125" xlink:href="#ArialMT-66"/>
     <use x="511.42578125" xlink:href="#ArialMT-32"/>
     <use x="567.041015625" xlink:href="#ArialMT-34"/>
    </g>
    <!-- 31 target RLs/dim: 0.5..50 -->
    <defs>
     <path d="
M7.85938 0
L7.85938 71.5781
L39.5938 71.5781
Q49.1719 71.5781 54.1406 69.6406
Q59.125 67.7188 62.1094 62.8281
Q65.0938 57.9531 65.0938 52.0469
Q65.0938 44.4375 60.1562 39.2031
Q55.2188 33.9844 44.9219 32.5625
Q48.6875 30.7656 50.6406 29
Q54.7812 25.2031 58.5 19.4844
L70.9531 0
L59.0312 0
L49.5625 14.8906
Q45.4062 21.3438 42.7188 24.75
Q40.0469 28.1719 37.9219 29.5312
Q35.7969 30.9062 33.5938 31.4531
Q31.9844 31.7812 28.3281 31.7812
L17.3281 31.7812
L17.3281 0
z

M17.3281 39.9844
L37.7031 39.9844
Q44.1875 39.9844 47.8438 41.3281
Q51.5156 42.6719 53.4219 45.625
Q55.3281 48.5781 55.3281 52.0469
Q55.3281 57.125 51.6406 60.3906
Q47.9531 63.6719 39.9844 63.6719
L17.3281 63.6719
z
" id="ArialMT-52"/>
     <path d="
M9.03125 41.8438
L9.03125 51.8594
L19.0469 51.8594
L19.0469 41.8438
z

M9.03125 0
L9.03125 10.0156
L19.0469 10.0156
L19.0469 0
z
" id="ArialMT-3a"/>
     <path d="
M7.32812 0
L7.32812 71.5781
L16.7969 71.5781
L16.7969 8.45312
L52.0469 8.45312
L52.0469 0
z
" id="ArialMT-4c"/>
    </defs>
    <g transform="translate(137.664 49.6251721968)scale(0.1666 -0.1666)">
     <use xlink:href="#ArialMT-33"/>
     <use x="55.615234375" xlink:href="#ArialMT-31"/>
     <use x="111.23046875" xlink:href="#ArialMT-20"/>
     <use x="139.013671875" xlink:href="#ArialMT-74"/>
     <use x="166.796875" xlink:href="#ArialMT-61"/>
     <use x="222.412109375" xlink:href="#ArialMT-72"/>
     <use x="255.712890625" xlink:href="#ArialMT-67"/>
     <use x="311.328125" xlink:href="#ArialMT-65"/>
     <use x="366.943359375" xlink:href="#ArialMT-74"/>
     <use x="394.7265625" xlink:href="#ArialMT-20"/>
     <use x="422.509765625" xlink:href="#ArialMT-52"/>
     <use x="494.7265625" xlink:href="#ArialMT-4c"/>
     <use x="550.341796875" xlink:href="#ArialMT-73"/>
     <use x="600.341796875" xlink:href="#ArialMT-2f"/>
     <use x="628.125" xlink:href="#ArialMT-64"/>
     <use x="683.740234375" xlink:href="#ArialMT-69"/>
     <use x="705.95703125" xlink:href="#ArialMT-6d"/>
     <use x="789.2578125" xlink:href="#ArialMT-3a"/>
     <use x="817.041015625" xlink:href="#ArialMT-20"/>
     <use x="844.82421875" xlink:href="#ArialMT-30"/>
     <use x="900.439453125" xlink:href="#ArialMT-2e"/>
     <use x="928.22265625" xlink:href="#ArialMT-35"/>
     <use x="983.837890625" xlink:href="#ArialMT-2e"/>
     <use x="1011.62109375" xlink:href="#ArialMT-2e"/>
     <use x="1039.40429688" xlink:href="#ArialMT-35"/>
     <use x="1095.01953125" xlink:href="#ArialMT-30"/>
    </g>
    <!--    from refalgs/best2009-bbob.tar.gz -->
    <defs>
     <path d="
M5.46875 16.5469
L13.9219 17.3281
Q14.9844 11.375 18.0156 8.6875
Q21.0469 6 25.7812 6
Q29.8281 6 32.875 7.85938
Q35.9375 9.71875 37.8906 12.8125
Q39.8438 15.9219 41.1562 21.1875
Q42.4844 26.4688 42.4844 31.9375
Q42.4844 32.5156 42.4375 33.6875
Q39.7969 29.5 35.2344 26.875
Q30.6719 24.2656 25.3438 24.2656
Q16.4531 24.2656 10.2969 30.7031
Q4.15625 37.1562 4.15625 47.7031
Q4.15625 58.5938 10.5781 65.2344
Q17 71.875 26.6562 71.875
Q33.6406 71.875 39.4219 68.1094
Q45.2188 64.3594 48.2188 57.3906
Q51.2188 50.4375 51.2188 37.25
Q51.2188 23.5312 48.2344 15.4062
Q45.2656 7.28125 39.375 3.03125
Q33.5 -1.21875 25.5938 -1.21875
Q17.1875 -1.21875 11.8594 3.4375
Q6.54688 8.10938 5.46875 16.5469
M41.4531 48.1406
Q41.4531 55.7188 37.4219 60.1562
Q33.4062 64.5938 27.7344 64.5938
Q21.875 64.5938 17.5312 59.8125
Q13.1875 55.0312 13.1875 47.4062
Q13.1875 40.5781 17.3125 36.2969
Q21.4375 32.0312 27.4844 32.0312
Q33.5938 32.0312 37.5156 36.2969
Q41.4531 40.5781 41.4531 48.1406" id="ArialMT-39"/>
     <path d="
M1.95312 0
L1.95312 7.125
L34.9688 45.0156
Q29.3438 44.7344 25.0469 44.7344
L3.90625 44.7344
L3.90625 51.8594
L46.2969 51.8594
L46.2969 46.0469
L18.2188 13.1406
L12.7969 7.125
Q18.7031 7.5625 23.875 7.5625
L47.8594 7.5625
L47.8594 0
z
" id="ArialMT-7a"/>
    </defs>
    <g transform="translate(137.664 67.6851328218)scale(0.1666 -0.1666)">
     <use xlink:href="#ArialMT-20"/>
     <use x="27.783203125" xlink:href="#ArialMT-20"/>
     <use x="55.56640625" xlink:href="#ArialMT-20"/>
     <use x="83.349609375" xlink:href="#ArialMT-66"/>
     <use x="111.1328125" xlink:href="#ArialMT-72"/>
     <use x="144.43359375" xlink:href="#ArialMT-6f"/>
     <use x="200.048828125" xlink:href="#ArialMT-6d"/>
     <use x="283.349609375" xlink:href="#ArialMT-20"/>
     <use x="311.1328125" xlink:href="#ArialMT-72"/>
     <use x="344.43359375" xlink:href="#ArialMT-65"/>
     <use x="400.048828125" xlink:href="#ArialMT-66"/>
     <use x="427.83203125" xlink:href="#ArialMT-61"/>
     <use x="483.447265625" xlink:href="#ArialMT-6c"/>
     <use x="505.6640625" xlink:href="#ArialMT-67"/>
     <use x="561.279296875" xlink:href="#ArialMT-73"/>
     <use x="611.279296875" xlink:href="#ArialMT-2f"/>
     <use x="639.0625" xlink:href="#ArialMT-62"/>
     <use x="694.677734375" xlink:href="#ArialMT-65"/>
     <use x="750.29296875" xlink:href="#ArialMT-73"/>
     <use x="800.29296875" xlink:href="#ArialMT-74"/>
     <use x="828.076171875" xlink:href="#ArialMT-32"/>
     <use x="883.69140625" xlink:href="#ArialMT-30"/>
     <use x="939.306640625" xlink:href="#ArialMT-30"/>
     <use x="994.921875" xlink:href="#ArialMT-39"/>
     <use x="1050.53710938" xlink:href="#ArialMT-2d"/>
     <use x="1083.83789062" xlink:href="#ArialMT-62"/>
     <use x="1139.453125" xlink:href="#ArialMT-62"/>
     <use x="1195.06835938" xlink:href="#ArialMT-6f"/>
     <use x="1250.68359375" xlink:href="#ArialMT-62"/>
     <use x="1306.29882812" xlink:href="#ArialMT-2e"/>
     <use x="1334.08203125" xlink:href="#ArialMT-74"/>
     <use x="1361.86523438" xlink:href="#ArialMT-61"/>
     <use x="1417.48046875" xlink:href="#ArialMT-72"/>
     <use x="1445.28125" xlink:href="#ArialMT-2e"/>
     <use x="1473.06445312" xlink:href="#ArialMT-67"/>
     <use x="1528.6796875" xlink:href="#ArialMT-7a"/>
    </g>
    <!-- 15 instances -->
    <g transform="translate(137.664 85.5014409468)scale(0.1666 -0.1666)">
     <use xlink:href="#ArialMT-31"/>
     <use x="55.615234375" xlink:href="#ArialMT-35"/>
     <use x="111.23046875" xlink:href="#ArialMT-20"/>
     <use x="139.013671875" xlink:href="#ArialMT-69"/>
     <use x="161.23046875" xlink:href="#ArialMT-6e"/>
     <use x="216.845703125" xlink:href="#ArialMT-73"/>
     <use x="266.845703125" xlink:href="#ArialMT-74"/>
     <use x="294.62890625" xlink:href="#ArialMT-61"/>
     <use x="350.244140625" xlink:href="#ArialMT-6e"/>
     <use x="405.859375" xlink:href="#ArialMT-63"/>
     <use x="455.859375" xlink:href="#ArialMT-65"/>
     <use x="511.474609375" xlink:href="#ArialMT-73"/>
    </g>
   </g>
   <g id="text_19">
    <!-- v2.0.1 -->
    <g style="fill:#808080;" transform="translate(343.76171875 353.080030322)scale(0.1 -0.1)">
     <use xlink:href="#ArialMT-76"/>
     <use x="50.0" xlink:href="#ArialMT-32"/>
     <use x="105.615234375" xlink:href="#ArialMT-2e"/>
     <use x="133.3984375" xlink:href="#ArialMT-30"/>
     <use x="189.013671875" xlink:href="#ArialMT-2e"/>
     <use x="216.796875" xlink:href="#ArialMT-31"/>
    </g>
   </g>
  </g>
 </g>
 <defs>
  <clipPath id="p63d92de1a6">
   <rect height="345.6" width="446.4" x="133.2" y="12.9235303218"/>
  </clipPath>
 </defs>
</svg>
