<?xml version="1.0" encoding="utf-8" standalone="no"?>
<!DOCTYPE svg PUBLIC "-//W3C//DTD SVG 1.1//EN"
  "http://www.w3.org/Graphics/SVG/1.1/DTD/svg11.dtd">
<!-- Created with matplotlib (http://matplotlib.org/) -->
<svg height="414pt" version="1.1" viewBox="0 0 580 414" width="580pt" xmlns="http://www.w3.org/2000/svg" xmlns:xlink="http://www.w3.org/1999/xlink">
 <defs>
  <style type="text/css">
*{stroke-linecap:butt;stroke-linejoin:round;}
  </style>
 </defs>
 <g id="figure_1">
  <g id="patch_1">
   <path d="
M0 414.924
L580.8 414.924
L580.8 0
L0 0
z
" style="fill:#ffffff;"/>
  </g>
  <g id="axes_1">
   <g id="patch_2">
    <path d="
M127.2 358.524
L573.6 358.524
L573.6 12.9235
L127.2 12.9235
z
" style="fill:#ffffff;"/>
   </g>
   <g id="line2d_1">
    <defs>
     <path d="
M0 1.5
C0.397805 1.5 0.77937 1.34195 1.06066 1.06066
C1.34195 0.77937 1.5 0.397805 1.5 0
C1.5 -0.397805 1.34195 -0.77937 1.06066 -1.06066
C0.77937 -1.34195 0.397805 -1.5 0 -1.5
C-0.397805 -1.5 -0.77937 -1.34195 -1.06066 -1.06066
C-1.34195 -0.77937 -1.5 -0.397805 -1.5 0
C-1.5 0.397805 -1.34195 0.77937 -1.06066 1.06066
C-0.77937 1.34195 -0.397805 1.5 0 1.5
z
" id="m977c291b42" style="stroke:#00bfbf;stroke-width:0.5;"/>
    </defs>
    <g>
     <use style="fill:#00bfbf;stroke:#00bfbf;stroke-width:0.5;" x="453.070266227" xlink:href="#m977c291b42" y="16.3453125"/>
     <use style="fill:#00bfbf;stroke:#00bfbf;stroke-width:0.5;" x="453.070266227" xlink:href="#m977c291b42" y="16.3453125"/>
    </g>
   </g>
   <g id="line2d_2">
    <path d="
M91.0764 327.644
L127.2 327.644
L127.2 315.96
L148.331 315.96
L148.331 312.622
L163.324 312.622
L163.324 300.103
L174.953 300.103
L174.953 290.088
L184.455 290.088
L184.455 289.253
L192.488 289.253
L192.488 283.411
L199.447 283.411
L199.447 279.238
L211.076 279.238
L211.076 276.735
L216.044 276.735
L216.044 270.893
L220.578 270.893
L220.578 270.058
L224.75 270.058
L224.75 266.72
L228.612 266.72
L228.612 261.712
L232.207 261.712
L232.207 246.69
L235.571 246.69
L235.571 232.502
L238.73 232.502
L238.73 209.134
L241.709 209.134
L241.709 204.961
L244.527 204.961
L244.527 194.111
L247.2 194.111
L247.2 183.262
L249.743 183.262
L249.743 175.75
L252.167 175.75
L252.167 170.743
L254.484 170.743
L254.484 163.232
L256.702 163.232
L256.702 154.886
L258.829 154.886
L258.829 149.878
L260.873 149.878
L260.873 145.705
L262.84 145.705
L262.84 142.367
L264.735 142.367
L264.735 136.525
L266.564 136.525
L266.564 130.683
L268.331 130.683
L268.331 129.014
L270.04 129.014
L270.04 124.841
L271.694 124.841
L271.694 122.337
L273.298 122.337
L273.298 118.999
L274.854 118.999
L274.854 117.33
L276.365 117.33
L276.365 113.991
L277.833 113.991
L277.833 109.818
L279.261 109.818
L279.261 105.645
L280.65 105.645
L280.65 103.142
L282.004 103.142
L282.004 99.8034
L284.61 99.8034
L284.61 98.9688
L287.093 98.9688
L287.093 98.1343
L288.291 98.1343
L288.291 96.4651
L290.607 96.4651
L290.607 95.6305
L293.9 95.6305
L293.9 93.1268
L295.985 93.1268
L295.985 91.4576
L296.997 91.4576
L296.997 88.1193
L297.99 88.1193
L297.99 87.2847
L299.92 87.2847
L299.92 85.6155
L302.688 85.6155
L302.688 84.781
L304.455 84.781
L304.455 83.9464
L306.163 83.9464
L306.163 83.1118
L306.997 83.1118
L306.997 78.1043
L307.818 78.1043
L307.818 76.4351
L308.626 76.4351
L308.626 75.6006
L310.205 75.6006
L310.205 73.9314
L311.738 73.9314
L311.738 71.4277
L313.227 71.4277
L313.227 66.4202
L314.675 66.4202
L314.675 65.5856
L315.384 65.5856
L315.384 61.4127
L316.084 61.4127
L316.084 59.7435
L317.455 59.7435
L317.455 58.9089
L318.128 58.9089
L318.128 58.0744
L318.792 58.0744
L318.792 57.2398
L320.095 57.2398
L320.095 53.9015
L320.734 53.9015
L320.734 53.0669
L321.99 53.0669
L321.99 51.3977
L322.607 51.3977
L322.607 49.7286
L324.414 49.7286
L324.414 48.894
L325.003 48.894
L325.003 48.0594
L326.731 48.0594
L326.731 47.2248
L327.852 47.2248
L327.852 46.3902
L328.403 46.3902
L328.403 45.5556
L330.553 45.5556
L330.553 44.7211
L333.12 44.7211
L333.12 43.8865
L333.619 43.8865
L333.619 38.879
L334.602 38.879
L334.602 38.0444
L335.568 38.0444
L335.568 37.2098
L336.044 37.2098
L336.044 35.5407
L336.983 35.5407
L336.983 33.8715
L337.905 33.8715
L337.905 33.0369
L338.36 33.0369
L338.36 32.2024
L341.865 32.2024
L341.865 31.3678
L343.121 31.3678
L343.121 28.864
L345.149 28.864
L345.149 25.5257
L370.969 25.5257
L370.969 24.6911
L371.93 24.6911
L371.93 23.8565
L374.935 23.8565
L374.935 23.022
L376.046 23.022
L376.046 22.1874
L376.484 22.1874
L376.484 19.6836
L377.349 19.6836
L377.349 18.8491
L440.415 18.8491
L440.415 18.0145
L441.24 18.0145
L441.24 17.1799
L453.07 17.1799
L453.07 16.3453
L487.2 16.3453
L487.2 16.3453" style="fill:none;stroke:#00bfbf;stroke-linecap:square;stroke-width:1.5;"/>
   </g>
   <g id="line2d_3">
    <defs>
     <path d="
M-6 0
L6 0
M0 6
L0 -6" id="m3e4de746de" style="stroke:#00bfbf;stroke-width:1.5;"/>
    </defs>
    <g>
     <use style="fill:none;stroke:#00bfbf;stroke-width:1.5;" x="224.749602797" xlink:href="#m3e4de746de" y="266.719618223"/>
     <use style="fill:none;stroke:#00bfbf;stroke-width:1.5;" x="244.526832635" xlink:href="#m3e4de746de" y="194.111069564"/>
     <use style="fill:none;stroke:#00bfbf;stroke-width:1.5;" x="308.626003317" xlink:href="#m3e4de746de" y="75.6005648545"/>
     <use style="fill:none;stroke:#00bfbf;stroke-width:1.5;" x="377.349153352" xlink:href="#m3e4de746de" y="19.6836365763"/>
     <use style="fill:none;stroke:#00bfbf;stroke-width:1.5;" x="453.070266227" xlink:href="#m3e4de746de" y="16.3453125"/>
     <use style="fill:none;stroke:#00bfbf;stroke-width:1.5;" x="487.2" xlink:href="#m3e4de746de" y="16.3453125"/>
    </g>
   </g>
   <g id="line2d_4"/>
   <g id="line2d_5">
    <path clip-path="url(#p505825120b)" d="
M367.2 25.5257" style="fill:none;stroke:#00bfbf;stroke-linecap:square;"/>
    <defs>
     <path d="
M-12 12
L12 -12
M-12 -12
L12 12" id="m09e435d1d9" style="stroke:#00bfbf;stroke-width:3;"/>
    </defs>
    <g clip-path="url(#p505825120b)">
     <use style="fill:#00bfbf;stroke:#00bfbf;stroke-width:3;" x="367.2" xlink:href="#m09e435d1d9" y="25.5257037099"/>
    </g>
   </g>
   <g id="line2d_6">
    <defs>
     <path d="
M0 1.5
C0.397805 1.5 0.77937 1.34195 1.06066 1.06066
C1.34195 0.77937 1.5 0.397805 1.5 0
C1.5 -0.397805 1.34195 -0.77937 1.06066 -1.06066
C0.77937 -1.34195 0.397805 -1.5 0 -1.5
C-0.397805 -1.5 -0.77937 -1.34195 -1.06066 -1.06066
C-1.34195 -0.77937 -1.5 -0.397805 -1.5 0
C-1.5 0.397805 -1.34195 0.77937 -1.06066 1.06066
C-0.77937 1.34195 -0.397805 1.5 0 1.5
z
" id="mb0b177905e" style="stroke:#008000;stroke-width:0.5;"/>
    </defs>
    <g>
     <use style="fill:#008000;stroke:#008000;stroke-width:0.5;" x="550.075575189" xlink:href="#mb0b177905e" y="16.3453125"/>
     <use style="fill:#008000;stroke:#008000;stroke-width:0.5;" x="550.075575189" xlink:href="#mb0b177905e" y="16.3453125"/>
    </g>
   </g>
   <g id="line2d_7">
    <path d="
M106.069 333.059
L127.2 333.059
L127.2 325.897
L142.193 325.897
L142.193 322.714
L153.822 322.714
L153.822 313.961
L163.324 313.961
L163.324 311.573
L171.357 311.573
L171.357 309.982
L178.316 309.982
L178.316 303.616
L184.455 303.616
L184.455 298.841
L189.945 298.841
L189.945 294.067
L194.913 294.067
L194.913 292.475
L199.447 292.475
L199.447 286.905
L203.619 286.905
L203.619 278.947
L207.481 278.947
L207.481 278.151
L211.076 278.151
L211.076 277.356
L214.44 277.356
L214.44 265.419
L217.599 265.419
L217.599 250.3
L220.578 250.3
L220.578 241.546
L223.396 241.546
L223.396 232.793
L226.069 232.793
L226.069 228.018
L228.612 228.018
L228.612 220.856
L231.036 220.856
L231.036 200.962
L233.353 200.962
L233.353 190.617
L235.571 190.617
L235.571 189.026
L237.698 189.026
L237.698 185.047
L239.742 185.047
L239.742 170.723
L241.709 170.723
L241.709 168.336
L243.604 168.336
L243.604 166.745
L245.433 166.745
L245.433 164.357
L247.2 164.357
L247.2 160.378
L248.909 160.378
L248.909 156.4
L250.563 156.4
L250.563 150.829
L253.723 150.829
L253.723 149.238
L255.234 149.238
L255.234 148.442
L256.702 148.442
L256.702 146.055
L258.13 146.055
L258.13 144.463
L259.519 144.463
L259.519 143.667
L260.873 143.667
L260.873 134.914
L262.193 134.914
L262.193 134.118
L263.48 134.118
L263.48 131.731
L265.962 131.731
L265.962 126.956
L267.16 126.956
L267.16 126.161
L268.331 126.161
L268.331 121.386
L269.476 121.386
L269.476 118.203
L271.694 118.203
L271.694 116.611
L272.769 116.611
L272.769 115.02
L273.822 115.02
L273.822 108.654
L274.854 108.654
L274.854 106.267
L275.866 106.267
L275.866 104.675
L276.859 104.675
L276.859 101.492
L277.833 101.492
L277.833 95.1259
L278.789 95.1259
L278.789 92.7386
L279.728 92.7386
L279.728 88.7598
L280.65 88.7598
L280.65 83.9852
L285.032 83.9852
L285.032 80.8021
L285.866 80.8021
L285.866 76.0276
L286.687 76.0276
L286.687 75.2318
L287.495 75.2318
L287.495 72.8445
L289.074 72.8445
L289.074 68.8657
L289.847 68.8657
L289.847 67.2742
L292.096 67.2742
L292.096 64.8869
L292.825 64.8869
L292.825 63.2953
L299.603 63.2953
L299.603 62.4996
L301.476 62.4996
L301.476 60.1123
L302.085 60.1123
L302.085 58.5208
L303.283 58.5208
L303.283 57.725
L303.872 57.725
L303.872 56.1335
L307.272 56.1335
L307.272 55.3377
L308.358 55.3377
L308.358 54.542
L309.422 54.542
L309.422 53.7462
L309.945 53.7462
L309.945 51.3589
L312.982 51.3589
L312.982 50.5631
L313.472 50.5631
L313.472 49.7674
L313.956 49.7674
L313.956 48.9716
L314.437 48.9716
L314.437 46.5843
L315.852 46.5843
L315.852 44.197
L318.128 44.197
L318.128 43.4013
L319.011 43.4013
L319.011 41.8097
L319.88 41.8097
L319.88 39.4224
L321.99 39.4224
L321.99 38.6267
L322.402 38.6267
L322.402 37.8309
L332.108 37.8309
L332.108 37.0352
L339.996 37.0352
L339.996 35.4436
L341.724 35.4436
L341.724 34.6479
L342.844 34.6479
L342.844 32.2606
L344.482 32.2606
L344.482 31.4648
L345.545 31.4648
L345.545 30.6691
L348.113 30.6691
L348.113 29.8733
L374.635 29.8733
L374.635 29.0775
L375.234 29.0775
L375.234 28.2818
L378.829 28.2818
L378.829 26.6902
L380.065 26.6902
L380.065 25.8945
L385.352 25.8945
L385.352 25.0987
L408.448 25.0987
L408.448 24.3029
L413.186 24.3029
L413.186 21.9157
L426.219 21.9157
L426.219 21.1199
L455.248 21.1199
L455.248 20.3241
L471.625 20.3241
L471.625 19.5284
L487.2 19.5284
L487.2 19.5284" style="fill:none;stroke:#008000;stroke-linecap:square;stroke-width:1.5;"/>
   </g>
   <g id="line2d_8">
    <defs>
     <path d="
M-7.34788e-16 6
L6 -6
L-6 -6
z
" id="m397e16cd68" style="stroke:#008000;stroke-linejoin:miter;stroke-width:1.5;"/>
    </defs>
    <g>
     <use style="fill:none;stroke:#008000;stroke-linejoin:miter;stroke-width:1.5;" x="199.447198959" xlink:href="#m397e16cd68" y="286.904833568"/>
     <use style="fill:none;stroke:#008000;stroke-linejoin:miter;stroke-width:1.5;" x="245.433209182" xlink:href="#m397e16cd68" y="164.35728579"/>
     <use style="fill:none;stroke:#008000;stroke-linejoin:miter;stroke-width:1.5;" x="280.650432114" xlink:href="#m397e16cd68" y="83.9851927671"/>
     <use style="fill:none;stroke:#008000;stroke-linejoin:miter;stroke-width:1.5;" x="385.35212104" xlink:href="#m397e16cd68" y="25.0987087699"/>
     <use style="fill:none;stroke:#008000;stroke-linejoin:miter;stroke-width:1.5;" x="471.625051272" xlink:href="#m397e16cd68" y="19.528365689"/>
     <use style="fill:none;stroke:#008000;stroke-linejoin:miter;stroke-width:1.5;" x="487.2" xlink:href="#m397e16cd68" y="19.528365689"/>
    </g>
   </g>
   <g id="line2d_9"/>
   <g id="line2d_10">
    <path clip-path="url(#p505825120b)" d="
M367.2 29.8733" style="fill:none;stroke:#008000;stroke-linecap:square;"/>
    <defs>
     <path d="
M-12 12
L12 -12
M-12 -12
L12 12" id="m8c089fa6cd" style="stroke:#008000;stroke-width:3;"/>
    </defs>
    <g clip-path="url(#p505825120b)">
     <use style="fill:#008000;stroke:#008000;stroke-width:3;" x="367.2" xlink:href="#m8c089fa6cd" y="29.8732885534"/>
    </g>
   </g>
   <g id="line2d_11">
    <defs>
     <path d="
M0 1.5
C0.397805 1.5 0.77937 1.34195 1.06066 1.06066
C1.34195 0.77937 1.5 0.397805 1.5 0
C1.5 -0.397805 1.34195 -0.77937 1.06066 -1.06066
C0.77937 -1.34195 0.397805 -1.5 0 -1.5
C-0.397805 -1.5 -0.77937 -1.34195 -1.06066 -1.06066
C-1.34195 -0.77937 -1.5 -0.397805 -1.5 0
C-1.5 0.397805 -1.34195 0.77937 -1.06066 1.06066
C-0.77937 1.34195 -0.397805 1.5 0 1.5
z
" id="m76a7ce5b4a" style="stroke:#0000ff;stroke-width:0.5;"/>
    </defs>
    <g>
     <use style="fill:#0000ff;stroke:#0000ff;stroke-width:0.5;" x="444.17689326" xlink:href="#m76a7ce5b4a" y="16.3453125"/>
     <use style="fill:#0000ff;stroke:#0000ff;stroke-width:0.5;" x="444.17689326" xlink:href="#m76a7ce5b4a" y="16.3453125"/>
    </g>
   </g>
   <g id="line2d_12">
    <path d="
M115.571 340.952
L136.702 340.952
L136.702 338.178
L144.735 338.178
L144.735 332.629
L151.694 332.629
L151.694 323.381
L157.833 323.381
L157.833 320.606
L163.324 320.606
L163.324 319.682
L168.291 319.682
L168.291 317.832
L176.997 317.832
L176.997 316.907
L180.859 316.907
L180.859 315.058
L184.455 315.058
L184.455 313.208
L187.818 313.208
L187.818 309.509
L190.977 309.509
L190.977 305.81
L196.774 305.81
L196.774 303.96
L199.447 303.96
L199.447 295.637
L201.99 295.637
L201.99 285.464
L204.414 285.464
L204.414 270.667
L206.731 270.667
L206.731 266.043
L208.949 266.043
L208.949 258.644
L211.076 258.644
L211.076 255.87
L213.12 255.87
L213.12 253.096
L215.087 253.096
L215.087 243.848
L216.983 243.848
L216.983 238.299
L220.578 238.299
L220.578 232.75
L222.287 232.75
L222.287 229.051
L223.942 229.051
L223.942 225.351
L225.545 225.351
L225.545 223.502
L227.101 223.502
L227.101 221.652
L228.612 221.652
L228.612 217.953
L230.08 217.953
L230.08 214.254
L231.508 214.254
L231.508 208.705
L232.898 208.705
L232.898 203.156
L234.251 203.156
L234.251 200.382
L235.571 200.382
L235.571 198.532
L236.858 198.532
L236.858 195.758
L239.34 195.758
L239.34 190.209
L241.709 190.209
L241.709 187.434
L242.855 187.434
L242.855 186.51
L243.975 186.51
L243.975 182.81
L245.073 182.81
L245.073 180.961
L246.147 180.961
L246.147 176.337
L249.244 176.337
L249.244 173.562
L251.211 173.562
L251.211 170.788
L252.167 170.788
L252.167 168.938
L253.106 168.938
L253.106 167.089
L254.029 167.089
L254.029 158.765
L254.935 158.765
L254.935 155.991
L255.826 155.991
L255.826 152.292
L256.702 152.292
L256.702 150.442
L257.563 150.442
L257.563 143.044
L258.411 143.044
L258.411 142.119
L259.244 142.119
L259.244 138.42
L260.065 138.42
L260.065 137.495
L260.873 137.495
L260.873 136.57
L261.669 136.57
L261.669 131.021
L262.453 131.021
L262.453 130.096
L263.985 130.096
L263.985 129.172
L264.735 129.172
L264.735 126.397
L267.631 126.397
L267.631 124.548
L269.702 124.548
L269.702 122.698
L270.375 122.698
L270.375 121.773
L271.694 121.773
L271.694 120.848
L273.613 120.848
L273.613 119.924
L274.237 119.924
L274.237 117.149
L274.854 117.149
L274.854 116.224
L276.662 116.224
L276.662 115.3
L277.833 115.3
L277.833 113.45
L278.409 113.45
L278.409 112.525
L278.978 112.525
L278.978 111.6
L280.65 111.6
L280.65 110.676
L281.196 110.676
L281.196 109.751
L282.8 109.751
L282.8 105.127
L283.324 105.127
L283.324 104.202
L283.842 104.202
L283.842 103.277
L284.356 103.277
L284.356 100.503
L285.368 100.503
L285.368 96.8034
L286.36 96.8034
L286.36 95.8786
L287.815 95.8786
L287.815 94.9538
L289.693 94.9538
L289.693 92.1794
L290.152 92.1794
L290.152 90.3298
L290.607 90.3298
L290.607 88.4802
L291.949 88.4802
L291.949 86.6306
L292.825 86.6306
L292.825 85.7058
L294.953 85.7058
L294.953 83.8562
L296.189 83.8562
L296.189 82.9313
L296.594 82.9313
L296.594 81.0817
L298.576 81.0817
L298.576 79.2321
L298.964 79.2321
L298.964 78.3073
L299.348 78.3073
L299.348 77.3825
L299.73 77.3825
L299.73 75.5329
L302.327 75.5329
L302.327 72.7585
L303.402 72.7585
L303.402 70.9089
L303.755 70.9089
L303.755 69.9841
L306.499 69.9841
L306.499 69.0593
L306.832 69.0593
L306.832 66.2848
L307.162 66.2848
L307.162 65.36
L307.818 65.36
L307.818 64.4352
L309.422 64.4352
L309.422 63.5104
L311.889 63.5104
L311.889 60.736
L312.19 60.736
L312.19 59.8112
L312.488 59.8112
L312.488 58.8864
L313.666 58.8864
L313.666 57.9616
L316.774 57.9616
L316.774 55.1872
L317.32 55.1872
L317.32 52.4127
L317.59 52.4127
L317.59 50.5631
L317.86 50.5631
L317.86 49.6383
L318.128 49.6383
L318.128 48.7135
L319.707 48.7135
L319.707 46.8639
L320.223 46.8639
L320.223 44.0895
L324.177 44.0895
L324.177 43.1647
L325.817 43.1647
L325.817 42.2399
L327.182 42.2399
L327.182 40.3903
L334.894 40.3903
L334.894 39.4655
L338.811 39.4655
L338.811 38.5407
L350.369 38.5407
L350.369 37.6159
L351.084 37.6159
L351.084 35.7662
L352.207 35.7662
L352.207 34.8414
L355.31 34.8414
L355.31 33.9166
L359.218 33.9166
L359.218 32.9918
L360.656 32.9918
L360.656 32.067
L363.975 32.067
L363.975 31.1422
L373.199 31.1422
L373.199 30.2174
L373.845 30.2174
L373.845 29.2926
L376.615 29.2926
L376.615 28.3678
L382.994 28.3678
L382.994 27.443
L383.985 27.443
L383.985 25.5934
L384.958 25.5934
L384.958 24.6686
L386.779 24.6686
L386.779 23.7438
L395.584 23.7438
L395.584 22.819
L397.309 22.819
L397.309 21.8941
L411.059 21.8941
L411.059 20.9693
L417.396 20.9693
L417.396 20.0445
L427.948 20.0445
L427.948 19.1197
L428.626 19.1197
L428.626 18.1949
L429.232 18.1949
L429.232 17.2701
L444.177 17.2701
L444.177 16.3453
L487.2 16.3453
L487.2 16.3453" style="fill:none;stroke:#0000ff;stroke-linecap:square;stroke-width:1.5;"/>
   </g>
   <g id="line2d_13">
    <defs>
     <path d="
M3.67394e-16 -6
L-1.34708 -1.8541
L-5.70634 -1.8541
L-2.17963 0.708204
L-3.52671 4.8541
L-4.20996e-16 2.2918
L3.52671 4.8541
L2.17963 0.708204
L5.70634 -1.8541
L1.34708 -1.8541
z
" id="m0933169453" style="stroke:#0000ff;stroke-linejoin:bevel;stroke-width:1.5;"/>
    </defs>
    <g>
     <use style="fill:none;stroke:#0000ff;stroke-linejoin:bevel;stroke-width:1.5;" x="196.774031594" xlink:href="#m0933169453" y="305.809588657"/>
     <use style="fill:none;stroke:#0000ff;stroke-linejoin:bevel;stroke-width:1.5;" x="230.079899572" xlink:href="#m0933169453" y="214.25379524"/>
     <use style="fill:none;stroke:#0000ff;stroke-linejoin:bevel;stroke-width:1.5;" x="271.694397919" xlink:href="#m0933169453" y="121.773195829"/>
     <use style="fill:none;stroke:#0000ff;stroke-linejoin:bevel;stroke-width:1.5;" x="352.207351607" xlink:href="#m0933169453" y="35.7662383764"/>
     <use style="fill:none;stroke:#0000ff;stroke-linejoin:bevel;stroke-width:1.5;" x="444.17689326" xlink:href="#m0933169453" y="16.3453125"/>
     <use style="fill:none;stroke:#0000ff;stroke-linejoin:bevel;stroke-width:1.5;" x="487.2" xlink:href="#m0933169453" y="16.3453125"/>
    </g>
   </g>
   <g id="line2d_14"/>
   <g id="line2d_15">
    <path clip-path="url(#p505825120b)" d="
M367.2 31.1422" style="fill:none;stroke:#0000ff;stroke-linecap:square;"/>
    <defs>
     <path d="
M-12 12
L12 -12
M-12 -12
L12 12" id="ma4a355cd2c" style="stroke:#0000ff;stroke-width:3;"/>
    </defs>
    <g clip-path="url(#p505825120b)">
     <use style="fill:#0000ff;stroke:#0000ff;stroke-width:3;" x="367.2" xlink:href="#ma4a355cd2c" y="31.1422084058"/>
    </g>
   </g>
   <g id="line2d_16">
    <defs>
     <path d="
M0 1.5
C0.397805 1.5 0.77937 1.34195 1.06066 1.06066
C1.34195 0.77937 1.5 0.397805 1.5 0
C1.5 -0.397805 1.34195 -0.77937 1.06066 -1.06066
C0.77937 -1.34195 0.397805 -1.5 0 -1.5
C-0.397805 -1.5 -0.77937 -1.34195 -1.06066 -1.06066
C-1.34195 -0.77937 -1.5 -0.397805 -1.5 0
C-1.5 0.397805 -1.34195 0.77937 -1.06066 1.06066
C-0.77937 1.34195 -0.397805 1.5 0 1.5
z
" id="m66763a63fb" style="stroke:#000000;stroke-width:0.5;"/>
    </defs>
    <g>
     <use style="stroke:#000000;stroke-width:0.5;" x="502.4681303" xlink:href="#m66763a63fb" y="25.3500024427"/>
     <use style="stroke:#000000;stroke-width:0.5;" x="502.4681303" xlink:href="#m66763a63fb" y="25.3500024427"/>
    </g>
   </g>
   <g id="line2d_17">
    <path d="
M121.709 335.111
L157.833 335.111
L157.833 332.41
L160.65 332.41
L160.65 331.509
L172.825 331.509
L172.825 329.709
L174.953 329.709
L174.953 324.306
L178.964 324.306
L178.964 321.604
L180.859 321.604
L180.859 320.704
L182.688 320.704
L182.688 319.803
L189.422 319.803
L189.422 318.903
L192.488 318.903
L192.488 317.102
L199.447 317.102
L199.447 314.401
L200.734 314.401
L200.734 313.5
L201.99 313.5
L201.99 309.898
L204.414 309.898
L204.414 306.296
L206.731 306.296
L206.731 302.694
L207.852 302.694
L207.852 299.093
L208.949 299.093
L208.949 296.391
L210.024 296.391
L210.024 290.988
L211.076 290.988
L211.076 285.586
L212.108 285.586
L212.108 281.984
L213.12 281.984
L213.12 274.78
L214.113 274.78
L214.113 272.079
L215.087 272.079
L215.087 270.278
L216.044 270.278
L216.044 269.377
L216.983 269.377
L216.983 266.676
L217.905 266.676
L217.905 264.875
L218.811 264.875
L218.811 261.273
L219.702 261.273
L219.702 257.671
L220.578 257.671
L220.578 249.567
L222.287 249.567
L222.287 244.164
L223.121 244.164
L223.121 239.662
L223.942 239.662
L223.942 237.861
L227.101 237.861
L227.101 235.159
L229.351 235.159
L229.351 234.259
L230.08 234.259
L230.08 232.458
L232.898 232.458
L232.898 231.557
L234.251 231.557
L234.251 230.657
L234.915 230.657
L234.915 228.856
L236.218 228.856
L236.218 226.155
L236.858 226.155
L236.858 225.254
L238.114 225.254
L238.114 224.354
L238.73 224.354
L238.73 220.752
L241.709 220.752
L241.709 218.951
L242.285 218.951
L242.285 218.05
L242.855 218.05
L242.855 217.15
L243.975 217.15
L243.975 215.349
L245.073 215.349
L245.073 214.448
L246.147 214.448
L246.147 211.747
L249.244 211.747
L249.244 209.946
L249.743 209.946
L249.743 209.046
L251.691 209.046
L251.691 205.444
L252.167 205.444
L252.167 204.543
L254.484 204.543
L254.484 203.643
L254.935 203.643
L254.935 200.941
L256.702 200.941
L256.702 200.041
L257.563 200.041
L257.563 196.439
L257.989 196.439
L257.989 195.539
L258.411 195.539
L258.411 192.837
L258.829 192.837
L258.829 191.036
L259.244 191.036
L259.244 190.136
L259.656 190.136
L259.656 188.335
L261.273 188.335
L261.273 187.434
L261.669 187.434
L261.669 186.534
L262.84 186.534
L262.84 183.833
L263.606 183.833
L263.606 182.932
L263.985 182.932
L263.985 180.231
L264.735 180.231
L264.735 179.33
L265.475 179.33
L265.475 176.629
L265.84 176.629
L265.84 175.728
L266.564 175.728
L266.564 173.927
L267.278 173.927
L267.278 173.027
L267.982 173.027
L267.982 172.126
L269.363 172.126
L269.363 171.226
L270.375 171.226
L270.375 170.326
L272.342 170.326
L272.342 169.425
L272.663 169.425
L272.663 167.624
L273.298 167.624
L273.298 164.022
L273.613 164.022
L273.613 163.122
L274.237 163.122
L274.237 160.42
L274.546 160.42
L274.546 158.619
L274.854 158.619
L274.854 157.719
L275.766 157.719
L275.766 156.818
L277.833 156.818
L277.833 155.018
L278.694 155.018
L278.694 154.117
L279.261 154.117
L279.261 153.217
L279.542 153.217
L279.542 152.316
L280.099 152.316
L280.099 148.714
L280.375 148.714
L280.375 146.013
L280.65 146.013
L280.65 145.112
L280.924 145.112
L280.924 143.311
L281.196 143.311
L281.196 140.61
L282.271 140.61
L282.271 139.71
L283.324 139.71
L283.324 137.909
L284.1 137.909
L284.1 137.008
L284.356 137.008
L284.356 136.108
L284.61 136.108
L284.61 135.207
L285.368 135.207
L285.368 134.307
L285.866 134.307
L285.866 133.406
L286.606 133.406
L286.606 132.506
L289.693 132.506
L289.693 130.705
L290.607 130.705
L290.607 129.804
L291.283 129.804
L291.283 128.904
L292.17 128.904
L292.17 127.103
L292.389 127.103
L292.389 126.203
L293.473 126.203
L293.473 125.302
L294.744 125.302
L294.744 124.402
L294.953 124.402
L294.953 120.8
L295.161 120.8
L295.161 119.899
L295.78 119.899
L295.78 118.999
L296.189 118.999
L296.189 118.098
L297.197 118.098
L297.197 116.297
L297.595 116.297
L297.595 113.596
L298.381 113.596
L298.381 112.695
L298.77 112.695
L298.77 111.795
L300.109 111.795
L300.109 110.895
L300.298 110.895
L300.298 109.994
L300.485 109.994
L300.485 109.094
L300.859 109.094
L300.859 108.193
L302.327 108.193
L302.327 106.392
L303.224 106.392
L303.224 105.492
L303.402 105.492
L303.402 104.591
L303.755 104.591
L303.755 102.79
L304.455 102.79
L304.455 101.89
L304.628 101.89
L304.628 100.989
L305.145 100.989
L305.145 100.089
L305.316 100.089
L305.316 99.1885
L306.331 99.1885
L306.331 98.288
L308.946 98.288
L308.946 97.3875
L309.579 97.3875
L309.579 94.6861
L310.516 94.6861
L310.516 89.2833
L310.67 89.2833
L310.67 88.3828
L311.435 88.3828
L311.435 86.5819
L313.811 86.5819
L313.811 83.8805
L314.532 83.8805
L314.532 82.98
L315.665 82.98
L315.665 82.0795
L316.084 82.0795
L316.084 81.1791
L316.911 81.1791
L316.911 80.2786
L317.32 80.2786
L317.32 77.5772
L318.128 77.5772
L318.128 75.7763
L318.261 75.7763
L318.261 73.9753
L318.792 73.9753
L318.792 73.0749
L320.988 73.0749
L320.988 72.1744
L321.99 72.1744
L321.99 70.3735
L322.361 70.3735
L322.361 68.5725
L323.095 68.5725
L323.095 67.672
L323.216 67.672
L323.216 64.0702
L323.458 64.0702
L323.458 62.2692
L324.058 62.2692
L324.058 59.5678
L324.651 59.5678
L324.651 58.6674
L325.817 58.6674
L325.817 57.7669
L326.047 57.7669
L326.047 56.8664
L327.294 56.8664
L327.294 55.9659
L328.622 55.9659
L328.622 54.165
L329.274 54.165
L329.274 53.2645
L329.596 53.2645
L329.596 52.3641
L330.868 52.3641
L330.868 51.4636
L331.284 51.4636
L331.388 48.7622
L332.92 48.7622
L332.92 46.0608
L335.758 46.0608
L335.758 45.1603
L337.538 45.1603
L337.538 44.2599
L347.862 44.2599
L347.862 43.3594
L352.623 43.3594
L352.623 42.4589
L354.184 42.4589
L354.184 41.5584
L377.177 41.5584
L377.263 39.7575
L377.819 39.7575
L377.819 38.857
L379.902 38.857
L379.902 37.9566
L382.258 37.9566
L382.258 37.0561
L384.884 37.0561
L384.884 36.1556
L409.785 36.1556
L409.785 35.2552
L410.924 35.2552
L410.924 34.3547
L411.394 34.3547
L411.394 33.4542
L411.75 33.4542
L411.75 32.5538
L412.912 32.5538
L412.912 30.7528
L428.85 30.7528
L428.85 29.8523
L429.846 29.8523
L429.846 28.9519
L444.462 28.9519
L444.462 28.0514
L463.974 28.0514
L463.974 27.1509
L470.899 27.1509
L470.899 26.2505
L487.2 26.2505
L487.2 26.2505" style="fill:none;stroke:#000000;stroke-linecap:square;stroke-width:1.5;"/>
   </g>
   <g id="line2d_18">
    <defs>
     <path d="
M0 6
C1.59122 6 3.11748 5.3678 4.24264 4.24264
C5.3678 3.11748 6 1.59122 6 0
C6 -1.59122 5.3678 -3.11748 4.24264 -4.24264
C3.11748 -5.3678 1.59122 -6 0 -6
C-1.59122 -6 -3.11748 -5.3678 -4.24264 -4.24264
C-5.3678 -3.11748 -6 -1.59122 -6 0
C-6 1.59122 -5.3678 3.11748 -4.24264 4.24264
C-3.11748 5.3678 -1.59122 6 0 6
z
" id="ma42492ef9b" style="stroke:#000000;stroke-width:1.5;"/>
    </defs>
    <g>
     <use style="fill:none;stroke:#000000;stroke-width:1.5;" x="100.578150046" xlink:href="#ma42492ef9b" y="340.514150436"/>
     <use style="fill:none;stroke:#000000;stroke-width:1.5;" x="220.578150046" xlink:href="#ma42492ef9b" y="249.566782015"/>
     <use style="fill:none;stroke:#000000;stroke-width:1.5;" x="265.474601326" xlink:href="#ma42492ef9b" y="176.62879348"/>
     <use style="fill:none;stroke:#000000;stroke-width:1.5;" x="311.435294405" xlink:href="#ma42492ef9b" y="86.5818940529"/>
     <use style="fill:none;stroke:#000000;stroke-width:1.5;" x="444.461677236" xlink:href="#ma42492ef9b" y="28.0514094255"/>
     <use style="fill:none;stroke:#000000;stroke-width:1.5;" x="487.2" xlink:href="#ma42492ef9b" y="26.2504714369"/>
    </g>
   </g>
   <g id="line2d_19"/>
   <g id="line2d_20">
    <path clip-path="url(#p505825120b)" d="
M367.2 41.5584" style="fill:none;stroke:#000000;stroke-linecap:square;"/>
    <defs>
     <path d="
M-12 12
L12 -12
M-12 -12
L12 12" id="m47417b404f" style="stroke:#000000;stroke-width:3;"/>
    </defs>
    <g clip-path="url(#p505825120b)">
     <use style="stroke:#000000;stroke-width:3;" x="367.2" xlink:href="#m47417b404f" y="41.5584443395"/>
    </g>
   </g>
   <g id="line2d_21">
    <defs>
     <path d="
M0 1.5
C0.397805 1.5 0.77937 1.34195 1.06066 1.06066
C1.34195 0.77937 1.5 0.397805 1.5 0
C1.5 -0.397805 1.34195 -0.77937 1.06066 -1.06066
C0.77937 -1.34195 0.397805 -1.5 0 -1.5
C-0.397805 -1.5 -0.77937 -1.34195 -1.06066 -1.06066
C-1.34195 -0.77937 -1.5 -0.397805 -1.5 0
C-1.5 0.397805 -1.34195 0.77937 -1.06066 1.06066
C-0.77937 1.34195 -0.397805 1.5 0 1.5
z
" id="ma07bdd5909" style="stroke:#ff0000;stroke-width:0.5;"/>
    </defs>
    <g>
     <use style="fill:#ff0000;stroke:#ff0000;stroke-width:0.5;" x="569.3291942" xlink:href="#ma07bdd5909" y="44.8601639851"/>
     <use style="fill:#ff0000;stroke:#ff0000;stroke-width:0.5;" x="569.3291942" xlink:href="#ma07bdd5909" y="44.8601639851"/>
    </g>
   </g>
   <g id="line2d_22">
    <path d="
M112.207 354.722
L132.167 354.722
L132.167 353.771
L134.484 353.771
L134.484 352.821
L142.84 352.821
L142.84 350.92
L144.735 350.92
L144.735 348.068
L146.564 348.068
L146.564 347.118
L153.298 347.118
L153.298 345.217
L154.854 345.217
L154.854 343.316
L165.866 343.316
L165.866 342.365
L177.99 342.365
L177.99 340.464
L180.859 340.464
L180.859 337.613
L181.781 337.613
L181.781 335.712
L186.997 335.712
L186.997 334.761
L193.227 334.761
L193.227 333.811
L193.956 333.811
L193.956 332.86
L194.675 332.86
L194.675 330.959
L197.455 330.959
L197.455 329.058
L198.792 329.058
L198.792 328.108
L199.447 328.108
L199.447 326.207
L200.095 326.207
L200.095 320.504
L200.734 320.504
L200.734 318.603
L201.366 318.603
L201.366 316.702
L201.99 316.702
L201.99 312.9
L202.607 312.9
L202.607 309.098
L203.216 309.098
L203.216 306.246
L203.819 306.246
L203.819 304.345
L204.414 304.345
L204.414 303.395
L205.003 303.395
L205.003 302.444
L205.586 302.444
L205.586 301.494
L206.161 301.494
L206.161 300.543
L207.294 300.543
L207.294 298.642
L207.852 298.642
L207.852 297.692
L209.489 297.692
L209.489 296.741
L210.553 296.741
L210.553 294.84
L211.076 294.84
L211.076 291.989
L211.595 291.989
L211.595 289.137
L212.108 289.137
L212.108 288.187
L212.617 288.187
L212.617 284.385
L213.12 284.385
L213.12 282.484
L213.619 282.484
L213.619 281.533
L214.113 281.533
L214.113 280.583
L214.602 280.583
L214.602 277.731
L215.568 277.731
L215.568 273.929
L216.515 273.929
L216.515 272.979
L217.446 272.979
L217.446 272.028
L218.811 272.028
L218.811 270.127
L219.259 270.127
L219.259 269.177
L220.142 269.177
L220.142 268.227
L225.149 268.227
L225.149 265.375
L225.939 265.375
L225.939 264.425
L226.329 264.425
L226.329 263.474
L226.716 263.474
L226.716 262.524
L229.351 262.524
L229.351 261.573
L230.08 261.573
L230.08 260.623
L230.441 260.623
L230.441 259.672
L231.154 259.672
L231.154 258.722
L232.207 258.722
L232.207 256.821
L233.916 256.821
L233.916 255.87
L234.251 255.87
L234.251 254.92
L235.244 254.92
L235.244 253.969
L236.858 253.969
L236.858 253.019
L237.174 253.019
L237.174 251.118
L238.73 251.118
L238.73 247.316
L239.942 247.316
L239.942 246.365
L241.419 246.365
L241.419 245.415
L241.709 245.415
L241.709 244.464
L242.571 244.464
L242.571 243.514
L245.343 243.514
L245.343 240.662
L245.613 240.662
L245.613 239.712
L246.939 239.712
L246.939 238.761
L251.211 238.761
L251.211 237.811
L252.167 237.811
L252.167 236.86
L253.8 236.86
L253.8 234.959
L254.71 234.959
L254.71 233.058
L254.935 233.058
L254.935 232.108
L255.605 232.108
L255.605 229.256
L255.826 229.256
L255.826 228.306
L259.244 228.306
L259.244 224.504
L260.672 224.504
L260.672 222.603
L260.873 222.603
L260.873 221.652
L262.258 221.652
L262.258 218.801
L262.647 218.801
L262.647 217.85
L263.985 217.85
L263.985 215.949
L265.106 215.949
L265.106 214.999
L266.564 214.999
L266.564 213.098
L268.504 213.098
L268.504 212.147
L269.533 212.147
L269.533 211.197
L269.702 211.197
L269.702 209.296
L270.208 209.296
L270.208 208.345
L270.542 208.345
L270.542 207.395
L270.874 207.395
L270.874 205.494
L272.019 205.494
L272.019 204.543
L272.981 204.543
L272.981 202.642
L274.392 202.642
L274.392 201.692
L274.7 201.692
L274.7 200.741
L275.16 200.741
L275.16 199.791
L279.821 199.791
L279.821 197.89
L280.375 197.89
L280.375 196.939
L280.513 196.939
L280.513 195.038
L281.602 195.038
L281.602 194.088
L281.736 194.088
L281.736 193.137
L282.004 193.137
L282.004 192.187
L282.404 192.187
L282.404 190.286
L282.668 190.286
L282.668 189.335
L283.971 189.335
L283.971 188.385
L284.1 188.385
L284.1 187.434
L284.61 187.434
L284.61 186.484
L284.737 186.484
L284.737 185.533
L285.242 185.533
L285.242 184.583
L288.409 184.583
L288.409 182.682
L289.693 182.682
L289.693 181.731
L290.266 181.731
L290.266 180.781
L290.607 180.781
L290.607 178.88
L290.946 178.88
L290.946 177.929
L291.506 177.929
L291.506 176.028
L292.389 176.028
L292.389 174.127
L293.687 174.127
L293.687 172.227
L294.006 172.227
L294.006 170.326
L294.429 170.326
L294.429 167.474
L294.953 167.474
L294.953 166.524
L295.471 166.524
L295.471 164.623
L295.985 164.623
L295.985 163.672
L297.097 163.672
L297.097 162.722
L299.252 162.722
L299.348 160.821
L299.444 160.821
L299.444 158.92
L301.045 158.92
L301.045 157.969
L301.414 157.969
L301.414 157.019
L301.781 157.019
L301.873 154.167
L302.417 154.167
L302.417 153.217
L302.688 153.217
L302.688 152.266
L302.867 152.266
L302.957 149.415
L303.313 149.415
L303.313 148.464
L303.49 148.464
L303.49 147.514
L303.755 147.514
L303.755 146.563
L304.018 146.563
L304.018 145.613
L304.801 145.613
L304.887 143.712
L305.487 143.712
L305.487 142.761
L306.749 142.761
L306.832 140.86
L306.997 140.86
L306.997 138.959
L307.655 138.959
L307.655 138.009
L308.786 138.009
L308.866 136.108
L310.361 136.108
L310.361 135.157
L312.711 135.157
L312.711 134.207
L313.666 134.207
L313.666 133.256
L313.956 133.256
L313.956 131.355
L315.031 131.355
L315.102 129.454
L315.243 129.454
L315.243 128.504
L316.014 128.504
L316.014 127.553
L316.361 127.553
L316.361 125.652
L316.499 125.652
L316.499 124.702
L316.637 124.702
L316.637 123.751
L317.116 123.751
L317.116 122.801
L317.252 122.801
L317.252 121.85
L318.461 121.85
L318.461 119.949
L318.858 119.949
L318.858 118.999
L321.616 118.999
L321.616 118.048
L322.176 118.048
L322.176 116.147
L322.729 116.147
L322.729 115.197
L323.579 115.197
L323.579 113.296
L324.058 113.296
L324.058 112.345
L325.47 112.345
L325.47 111.395
L327.518 111.395
L327.518 109.494
L328.786 109.494
L328.786 108.543
L329.81 108.543
L329.81 106.642
L332.261 106.642
L332.261 105.692
L333.37 105.692
L333.37 103.791
L334.015 103.791
L334.015 102.84
L334.309 102.84
L334.309 101.89
L335.087 101.89
L335.087 99.9889
L336.327 99.9889
L336.327 99.0384
L336.515 99.0384
L336.515 98.0879
L336.889 98.0879
L336.889 96.1869
L340.317 96.1869
L340.317 95.2364
L340.708 95.2364
L340.708 94.2859
L341.14 94.2859
L341.14 93.3354
L341.738 93.3354
L341.738 91.4344
L342.497 91.4344
L342.539 89.5334
L342.622 89.5334
L342.664 86.6819
L343.121 86.6819
L343.121 85.7315
L343.492 85.7315
L343.492 84.781
L344.629 84.781
L344.709 82.88
L344.83 82.88
L344.87 80.0285
L348.238 80.0285
L348.238 77.177
L351.929 77.177
L351.929 76.2265
L353.748 76.2265
L353.748 74.3255
L358.546 74.3255
L358.546 73.375
L359.762 73.375
L359.762 69.573
L361.796 69.573
L361.796 68.6225
L363.081 68.6225
L363.081 67.672
L363.642 67.672
L363.642 64.8206
L378.516 64.8206
L378.516 63.8701
L381.471 63.8701
L381.471 62.9196
L382.141 62.9196
L382.141 61.9691
L382.898 61.9691
L382.898 61.0186
L383.872 61.0186
L383.872 60.0681
L402.151 60.0681
L402.151 58.1671
L411.761 58.1671
L411.761 56.2661
L423.676 56.2661
L423.676 55.3156
L430.229 55.3156
L430.229 54.3651
L436.589 54.3651
L436.589 53.4146
L443.837 53.4146
L443.837 51.5136
L449.355 51.5136
L449.355 50.5631
L454.617 50.5631
L454.617 49.6126
L460.19 49.6126
L460.19 48.6621
L463.799 48.6621
L463.799 47.7116
L487.2 47.7116
L487.2 47.7116" style="fill:none;stroke:#ff0000;stroke-linecap:square;stroke-width:1.5;"/>
   </g>
   <g id="line2d_23">
    <defs>
     <path d="
M-6 6
L6 6
L6 -6
L-6 -6
z
" id="m9d489a7eec" style="stroke:#ff0000;stroke-linejoin:miter;stroke-width:1.5;"/>
    </defs>
    <g>
     <use style="fill:none;stroke:#ff0000;stroke-linejoin:miter;stroke-width:1.5;" x="220.142035887" xlink:href="#m9d489a7eec" y="269.176995668"/>
     <use style="fill:none;stroke:#ff0000;stroke-linejoin:miter;stroke-width:1.5;" x="279.820992784" xlink:href="#m9d489a7eec" y="199.790857054"/>
     <use style="fill:none;stroke:#ff0000;stroke-linejoin:miter;stroke-width:1.5;" x="315.03088121" xlink:href="#m9d489a7eec" y="130.404718441"/>
     <use style="fill:none;stroke:#ff0000;stroke-linejoin:miter;stroke-width:1.5;" x="363.641625148" xlink:href="#m9d489a7eec" y="64.8205600248"/>
     <use style="fill:none;stroke:#ff0000;stroke-linejoin:miter;stroke-width:1.5;" x="463.798898817" xlink:href="#m9d489a7eec" y="47.7116491337"/>
     <use style="fill:none;stroke:#ff0000;stroke-linejoin:miter;stroke-width:1.5;" x="487.2" xlink:href="#m9d489a7eec" y="47.7116491337"/>
    </g>
   </g>
   <g id="line2d_24"/>
   <g id="line2d_25">
    <path clip-path="url(#p505825120b)" d="
M367.2 64.8206" style="fill:none;stroke:#ff0000;stroke-linecap:square;"/>
    <defs>
     <path d="
M-12 12
L12 -12
M-12 -12
L12 12" id="m4e2b024d89" style="stroke:#ff0000;stroke-width:3;"/>
    </defs>
    <g clip-path="url(#p505825120b)">
     <use style="fill:#ff0000;stroke:#ff0000;stroke-width:3;" x="367.2" xlink:href="#m4e2b024d89" y="64.8205600248"/>
    </g>
   </g>
   <g id="line2d_26">
    <path d="
M487.2 47.7116
L526.8 351.68" style="fill:none;stroke:#ff0000;stroke-linecap:square;stroke-width:1.5;"/>
    <g>
     <use style="fill:none;stroke:#ff0000;stroke-linejoin:miter;stroke-width:1.5;" x="487.2" xlink:href="#m9d489a7eec" y="47.7116491337"/>
     <use style="fill:none;stroke:#ff0000;stroke-linejoin:miter;stroke-width:1.5;" x="526.8" xlink:href="#m9d489a7eec" y="351.679965965"/>
    </g>
   </g>
   <g id="line2d_27">
    <path d="
M487.2 26.2505
L526.8 269.557" style="fill:none;stroke:#000000;stroke-linecap:square;stroke-width:1.5;"/>
    <g>
     <use style="fill:none;stroke:#000000;stroke-width:1.5;" x="487.2" xlink:href="#ma42492ef9b" y="26.2504714369"/>
     <use style="fill:none;stroke:#000000;stroke-width:1.5;" x="526.8" xlink:href="#ma42492ef9b" y="269.557193688"/>
    </g>
   </g>
   <g id="line2d_28">
    <path d="
M487.2 19.5284
L526.8 187.434" style="fill:none;stroke:#008000;stroke-linecap:square;stroke-width:1.5;"/>
    <g>
     <use style="fill:none;stroke:#008000;stroke-linejoin:miter;stroke-width:1.5;" x="487.2" xlink:href="#m397e16cd68" y="19.528365689"/>
     <use style="fill:none;stroke:#008000;stroke-linejoin:miter;stroke-width:1.5;" x="526.8" xlink:href="#m397e16cd68" y="187.434421411"/>
    </g>
   </g>
   <g id="line2d_29">
    <path d="
M487.2 16.3453
L526.8 105.312" style="fill:none;stroke:#00bfbf;stroke-linecap:square;stroke-width:1.5;"/>
    <g>
     <use style="fill:none;stroke:#00bfbf;stroke-width:1.5;" x="487.2" xlink:href="#m3e4de746de" y="16.3453125"/>
     <use style="fill:none;stroke:#00bfbf;stroke-width:1.5;" x="526.8" xlink:href="#m3e4de746de" y="105.311649134"/>
    </g>
   </g>
   <g id="line2d_30">
    <path d="
M487.2 16.3453
L526.8 23.1889" style="fill:none;stroke:#0000ff;stroke-linecap:square;stroke-width:1.5;"/>
    <g>
     <use style="fill:none;stroke:#0000ff;stroke-linejoin:bevel;stroke-width:1.5;" x="487.2" xlink:href="#m0933169453" y="16.3453125"/>
     <use style="fill:none;stroke:#0000ff;stroke-linejoin:bevel;stroke-width:1.5;" x="526.8" xlink:href="#m0933169453" y="23.1888768564"/>
    </g>
   </g>
   <g id="line2d_31">
    <path d="
M487.2 358.524
L487.2 16.3453" style="fill:none;stroke:#000000;stroke-linecap:square;"/>
   </g>
   <g id="matplotlib.axis_1">
    <g id="xtick_1">
     <g id="line2d_32">
      <path clip-path="url(#p505825120b)" d="
M127.2 358.524
L127.2 12.9235" style="fill:none;stroke:#000000;stroke-dasharray:1.000000,3.000000;stroke-dashoffset:0.0;stroke-width:0.5;"/>
     </g>
     <g id="line2d_33">
      <defs>
       <path d="
M0 0
L0 -4" id="m93b0483c22" style="stroke:#000000;stroke-width:0.5;"/>
      </defs>
      <g>
       <use style="stroke:#000000;stroke-width:0.5;" x="127.2" xlink:href="#m93b0483c22" y="358.523530322"/>
      </g>
     </g>
     <g id="line2d_34">
      <defs>
       <path d="
M0 0
L0 4" id="m741efc42ff" style="stroke:#000000;stroke-width:0.5;"/>
      </defs>
      <g>
       <use style="stroke:#000000;stroke-width:0.5;" x="127.2" xlink:href="#m741efc42ff" y="12.9235303218"/>
      </g>
     </g>
     <g id="text_1">
      <!-- 0 -->
      <defs>
       <path d="
M4.15625 35.2969
Q4.15625 48 6.76562 55.7344
Q9.375 63.4844 14.5156 67.6719
Q19.6719 71.875 27.4844 71.875
Q33.25 71.875 37.5938 69.5469
Q41.9375 67.2344 44.7656 62.8594
Q47.6094 58.5 49.2188 52.2188
Q50.8281 45.9531 50.8281 35.2969
Q50.8281 22.7031 48.2344 14.9688
Q45.6562 7.23438 40.5 3
Q35.3594 -1.21875 27.4844 -1.21875
Q17.1406 -1.21875 11.2344 6.20312
Q4.15625 15.1406 4.15625 35.2969
M13.1875 35.2969
Q13.1875 17.6719 17.3125 11.8281
Q21.4375 6 27.4844 6
Q33.5469 6 37.6719 11.8594
Q41.7969 17.7188 41.7969 35.2969
Q41.7969 52.9844 37.6719 58.7812
Q33.5469 64.5938 27.3906 64.5938
Q21.3438 64.5938 17.7188 59.4688
Q13.1875 52.9375 13.1875 35.2969" id="ArialMT-30"/>
      </defs>
      <g transform="translate(122.5328125 376.839155322)scale(0.2 -0.2)">
       <use xlink:href="#ArialMT-30"/>
      </g>
     </g>
    </g>
    <g id="xtick_2">
     <g id="line2d_35">
      <path clip-path="url(#p505825120b)" d="
M247.2 358.524
L247.2 12.9235" style="fill:none;stroke:#000000;stroke-dasharray:1.000000,3.000000;stroke-dashoffset:0.0;stroke-width:0.5;"/>
     </g>
     <g id="line2d_36">
      <g>
       <use style="stroke:#000000;stroke-width:0.5;" x="247.2" xlink:href="#m93b0483c22" y="358.523530322"/>
      </g>
     </g>
     <g id="line2d_37">
      <g>
       <use style="stroke:#000000;stroke-width:0.5;" x="247.2" xlink:href="#m741efc42ff" y="12.9235303218"/>
      </g>
     </g>
     <g id="text_2">
      <!-- 1 -->
      <defs>
       <path d="
M37.25 0
L28.4688 0
L28.4688 56
Q25.2969 52.9844 20.1406 49.9531
Q14.9844 46.9219 10.8906 45.4062
L10.8906 53.9062
Q18.2656 57.375 23.7812 62.2969
Q29.2969 67.2344 31.5938 71.875
L37.25 71.875
z
" id="ArialMT-31"/>
      </defs>
      <g transform="translate(244.5640625 376.839155322)scale(0.2 -0.2)">
       <use xlink:href="#ArialMT-31"/>
      </g>
     </g>
    </g>
    <g id="xtick_3">
     <g id="line2d_38">
      <path clip-path="url(#p505825120b)" d="
M367.2 358.524
L367.2 12.9235" style="fill:none;stroke:#000000;stroke-dasharray:1.000000,3.000000;stroke-dashoffset:0.0;stroke-width:0.5;"/>
     </g>
     <g id="line2d_39">
      <g>
       <use style="stroke:#000000;stroke-width:0.5;" x="367.2" xlink:href="#m93b0483c22" y="358.523530322"/>
      </g>
     </g>
     <g id="line2d_40">
      <g>
       <use style="stroke:#000000;stroke-width:0.5;" x="367.2" xlink:href="#m741efc42ff" y="12.9235303218"/>
      </g>
     </g>
     <g id="text_3">
      <!-- 2 -->
      <defs>
       <path d="
M50.3438 8.45312
L50.3438 0
L3.03125 0
Q2.9375 3.17188 4.04688 6.10938
Q5.85938 10.9375 9.82812 15.625
Q13.8125 20.3125 21.3438 26.4688
Q33.0156 36.0312 37.1094 41.625
Q41.2188 47.2188 41.2188 52.2031
Q41.2188 57.4219 37.4688 61
Q33.7344 64.5938 27.7344 64.5938
Q21.3906 64.5938 17.5781 60.7812
Q13.7656 56.9844 13.7188 50.25
L4.6875 51.1719
Q5.60938 61.2812 11.6562 66.5781
Q17.7188 71.875 27.9375 71.875
Q38.2344 71.875 44.2344 66.1562
Q50.25 60.4531 50.25 52
Q50.25 47.7031 48.4844 43.5469
Q46.7344 39.4062 42.6562 34.8125
Q38.5781 30.2188 29.1094 22.2188
Q21.1875 15.5781 18.9375 13.2031
Q16.7031 10.8438 15.2344 8.45312
z
" id="ArialMT-32"/>
      </defs>
      <g transform="translate(362.459375 376.839155322)scale(0.2 -0.2)">
       <use xlink:href="#ArialMT-32"/>
      </g>
     </g>
    </g>
    <g id="xtick_4">
     <g id="line2d_41">
      <path clip-path="url(#p505825120b)" d="
M487.2 358.524
L487.2 12.9235" style="fill:none;stroke:#000000;stroke-dasharray:1.000000,3.000000;stroke-dashoffset:0.0;stroke-width:0.5;"/>
     </g>
     <g id="line2d_42">
      <g>
       <use style="stroke:#000000;stroke-width:0.5;" x="487.2" xlink:href="#m93b0483c22" y="358.523530322"/>
      </g>
     </g>
     <g id="line2d_43">
      <g>
       <use style="stroke:#000000;stroke-width:0.5;" x="487.2" xlink:href="#m741efc42ff" y="12.9235303218"/>
      </g>
     </g>
     <g id="text_4">
      <!-- 3 -->
      <defs>
       <path d="
M4.20312 18.8906
L12.9844 20.0625
Q14.5 12.5938 18.1406 9.29688
Q21.7812 6 27 6
Q33.2031 6 37.4688 10.2969
Q41.75 14.5938 41.75 20.9531
Q41.75 27 37.7969 30.9219
Q33.8438 34.8594 27.7344 34.8594
Q25.25 34.8594 21.5312 33.8906
L22.5156 41.6094
Q23.3906 41.5 23.9219 41.5
Q29.5469 41.5 34.0312 44.4219
Q38.5312 47.3594 38.5312 53.4688
Q38.5312 58.2969 35.25 61.4688
Q31.9844 64.6562 26.8125 64.6562
Q21.6875 64.6562 18.2656 61.4219
Q14.8438 58.2031 13.875 51.7656
L5.07812 53.3281
Q6.6875 62.1562 12.3906 67.0156
Q18.1094 71.875 26.6094 71.875
Q32.4688 71.875 37.3906 69.3594
Q42.3281 66.8438 44.9375 62.5
Q47.5625 58.1562 47.5625 53.2656
Q47.5625 48.6406 45.0625 44.8281
Q42.5781 41.0156 37.7031 38.7656
Q44.0469 37.3125 47.5625 32.6875
Q51.0781 28.0781 51.0781 21.1406
Q51.0781 11.7656 44.2344 5.25
Q37.4062 -1.26562 26.9531 -1.26562
Q17.5312 -1.26562 11.2969 4.34375
Q5.07812 9.96875 4.20312 18.8906" id="ArialMT-33"/>
      </defs>
      <g transform="translate(482.5125 376.839155322)scale(0.2 -0.2)">
       <use xlink:href="#ArialMT-33"/>
      </g>
     </g>
    </g>
    <g id="xtick_5">
     <g id="line2d_44">
      <defs>
       <path d="
M0 0
L0 -2" id="m177f7580d0" style="stroke:#000000;stroke-width:0.5;"/>
      </defs>
      <g>
       <use style="stroke:#000000;stroke-width:0.5;" x="163.32359948" xlink:href="#m177f7580d0" y="358.523530322"/>
      </g>
     </g>
     <g id="line2d_45">
      <defs>
       <path d="
M0 0
L0 2" id="m5284c7e2a0" style="stroke:#000000;stroke-width:0.5;"/>
      </defs>
      <g>
       <use style="stroke:#000000;stroke-width:0.5;" x="163.32359948" xlink:href="#m5284c7e2a0" y="12.9235303218"/>
      </g>
     </g>
    </g>
    <g id="xtick_6">
     <g id="line2d_46">
      <g>
       <use style="stroke:#000000;stroke-width:0.5;" x="184.454550566" xlink:href="#m177f7580d0" y="358.523530322"/>
      </g>
     </g>
     <g id="line2d_47">
      <g>
       <use style="stroke:#000000;stroke-width:0.5;" x="184.454550566" xlink:href="#m5284c7e2a0" y="12.9235303218"/>
      </g>
     </g>
    </g>
    <g id="xtick_7">
     <g id="line2d_48">
      <g>
       <use style="stroke:#000000;stroke-width:0.5;" x="199.447198959" xlink:href="#m177f7580d0" y="358.523530322"/>
      </g>
     </g>
     <g id="line2d_49">
      <g>
       <use style="stroke:#000000;stroke-width:0.5;" x="199.447198959" xlink:href="#m5284c7e2a0" y="12.9235303218"/>
      </g>
     </g>
    </g>
    <g id="xtick_8">
     <g id="line2d_50">
      <g>
       <use style="stroke:#000000;stroke-width:0.5;" x="211.07640052" xlink:href="#m177f7580d0" y="358.523530322"/>
      </g>
     </g>
     <g id="line2d_51">
      <g>
       <use style="stroke:#000000;stroke-width:0.5;" x="211.07640052" xlink:href="#m5284c7e2a0" y="12.9235303218"/>
      </g>
     </g>
    </g>
    <g id="xtick_9">
     <g id="line2d_52">
      <g>
       <use style="stroke:#000000;stroke-width:0.5;" x="220.578150046" xlink:href="#m177f7580d0" y="358.523530322"/>
      </g>
     </g>
     <g id="line2d_53">
      <g>
       <use style="stroke:#000000;stroke-width:0.5;" x="220.578150046" xlink:href="#m5284c7e2a0" y="12.9235303218"/>
      </g>
     </g>
    </g>
    <g id="xtick_10">
     <g id="line2d_54">
      <g>
       <use style="stroke:#000000;stroke-width:0.5;" x="228.611764802" xlink:href="#m177f7580d0" y="358.523530322"/>
      </g>
     </g>
     <g id="line2d_55">
      <g>
       <use style="stroke:#000000;stroke-width:0.5;" x="228.611764802" xlink:href="#m5284c7e2a0" y="12.9235303218"/>
      </g>
     </g>
    </g>
    <g id="xtick_11">
     <g id="line2d_56">
      <g>
       <use style="stroke:#000000;stroke-width:0.5;" x="235.570798439" xlink:href="#m177f7580d0" y="358.523530322"/>
      </g>
     </g>
     <g id="line2d_57">
      <g>
       <use style="stroke:#000000;stroke-width:0.5;" x="235.570798439" xlink:href="#m5284c7e2a0" y="12.9235303218"/>
      </g>
     </g>
    </g>
    <g id="xtick_12">
     <g id="line2d_58">
      <g>
       <use style="stroke:#000000;stroke-width:0.5;" x="241.709101133" xlink:href="#m177f7580d0" y="358.523530322"/>
      </g>
     </g>
     <g id="line2d_59">
      <g>
       <use style="stroke:#000000;stroke-width:0.5;" x="241.709101133" xlink:href="#m5284c7e2a0" y="12.9235303218"/>
      </g>
     </g>
    </g>
    <g id="xtick_13">
     <g id="line2d_60">
      <g>
       <use style="stroke:#000000;stroke-width:0.5;" x="283.32359948" xlink:href="#m177f7580d0" y="358.523530322"/>
      </g>
     </g>
     <g id="line2d_61">
      <g>
       <use style="stroke:#000000;stroke-width:0.5;" x="283.32359948" xlink:href="#m5284c7e2a0" y="12.9235303218"/>
      </g>
     </g>
    </g>
    <g id="xtick_14">
     <g id="line2d_62">
      <g>
       <use style="stroke:#000000;stroke-width:0.5;" x="304.454550566" xlink:href="#m177f7580d0" y="358.523530322"/>
      </g>
     </g>
     <g id="line2d_63">
      <g>
       <use style="stroke:#000000;stroke-width:0.5;" x="304.454550566" xlink:href="#m5284c7e2a0" y="12.9235303218"/>
      </g>
     </g>
    </g>
    <g id="xtick_15">
     <g id="line2d_64">
      <g>
       <use style="stroke:#000000;stroke-width:0.5;" x="319.447198959" xlink:href="#m177f7580d0" y="358.523530322"/>
      </g>
     </g>
     <g id="line2d_65">
      <g>
       <use style="stroke:#000000;stroke-width:0.5;" x="319.447198959" xlink:href="#m5284c7e2a0" y="12.9235303218"/>
      </g>
     </g>
    </g>
    <g id="xtick_16">
     <g id="line2d_66">
      <g>
       <use style="stroke:#000000;stroke-width:0.5;" x="331.07640052" xlink:href="#m177f7580d0" y="358.523530322"/>
      </g>
     </g>
     <g id="line2d_67">
      <g>
       <use style="stroke:#000000;stroke-width:0.5;" x="331.07640052" xlink:href="#m5284c7e2a0" y="12.9235303218"/>
      </g>
     </g>
    </g>
    <g id="xtick_17">
     <g id="line2d_68">
      <g>
       <use style="stroke:#000000;stroke-width:0.5;" x="340.578150046" xlink:href="#m177f7580d0" y="358.523530322"/>
      </g>
     </g>
     <g id="line2d_69">
      <g>
       <use style="stroke:#000000;stroke-width:0.5;" x="340.578150046" xlink:href="#m5284c7e2a0" y="12.9235303218"/>
      </g>
     </g>
    </g>
    <g id="xtick_18">
     <g id="line2d_70">
      <g>
       <use style="stroke:#000000;stroke-width:0.5;" x="348.611764802" xlink:href="#m177f7580d0" y="358.523530322"/>
      </g>
     </g>
     <g id="line2d_71">
      <g>
       <use style="stroke:#000000;stroke-width:0.5;" x="348.611764802" xlink:href="#m5284c7e2a0" y="12.9235303218"/>
      </g>
     </g>
    </g>
    <g id="xtick_19">
     <g id="line2d_72">
      <g>
       <use style="stroke:#000000;stroke-width:0.5;" x="355.570798439" xlink:href="#m177f7580d0" y="358.523530322"/>
      </g>
     </g>
     <g id="line2d_73">
      <g>
       <use style="stroke:#000000;stroke-width:0.5;" x="355.570798439" xlink:href="#m5284c7e2a0" y="12.9235303218"/>
      </g>
     </g>
    </g>
    <g id="xtick_20">
     <g id="line2d_74">
      <g>
       <use style="stroke:#000000;stroke-width:0.5;" x="361.709101133" xlink:href="#m177f7580d0" y="358.523530322"/>
      </g>
     </g>
     <g id="line2d_75">
      <g>
       <use style="stroke:#000000;stroke-width:0.5;" x="361.709101133" xlink:href="#m5284c7e2a0" y="12.9235303218"/>
      </g>
     </g>
    </g>
    <g id="xtick_21">
     <g id="line2d_76">
      <g>
       <use style="stroke:#000000;stroke-width:0.5;" x="403.32359948" xlink:href="#m177f7580d0" y="358.523530322"/>
      </g>
     </g>
     <g id="line2d_77">
      <g>
       <use style="stroke:#000000;stroke-width:0.5;" x="403.32359948" xlink:href="#m5284c7e2a0" y="12.9235303218"/>
      </g>
     </g>
    </g>
    <g id="xtick_22">
     <g id="line2d_78">
      <g>
       <use style="stroke:#000000;stroke-width:0.5;" x="424.454550566" xlink:href="#m177f7580d0" y="358.523530322"/>
      </g>
     </g>
     <g id="line2d_79">
      <g>
       <use style="stroke:#000000;stroke-width:0.5;" x="424.454550566" xlink:href="#m5284c7e2a0" y="12.9235303218"/>
      </g>
     </g>
    </g>
    <g id="xtick_23">
     <g id="line2d_80">
      <g>
       <use style="stroke:#000000;stroke-width:0.5;" x="439.447198959" xlink:href="#m177f7580d0" y="358.523530322"/>
      </g>
     </g>
     <g id="line2d_81">
      <g>
       <use style="stroke:#000000;stroke-width:0.5;" x="439.447198959" xlink:href="#m5284c7e2a0" y="12.9235303218"/>
      </g>
     </g>
    </g>
    <g id="xtick_24">
     <g id="line2d_82">
      <g>
       <use style="stroke:#000000;stroke-width:0.5;" x="451.07640052" xlink:href="#m177f7580d0" y="358.523530322"/>
      </g>
     </g>
     <g id="line2d_83">
      <g>
       <use style="stroke:#000000;stroke-width:0.5;" x="451.07640052" xlink:href="#m5284c7e2a0" y="12.9235303218"/>
      </g>
     </g>
    </g>
    <g id="xtick_25">
     <g id="line2d_84">
      <g>
       <use style="stroke:#000000;stroke-width:0.5;" x="460.578150046" xlink:href="#m177f7580d0" y="358.523530322"/>
      </g>
     </g>
     <g id="line2d_85">
      <g>
       <use style="stroke:#000000;stroke-width:0.5;" x="460.578150046" xlink:href="#m5284c7e2a0" y="12.9235303218"/>
      </g>
     </g>
    </g>
    <g id="xtick_26">
     <g id="line2d_86">
      <g>
       <use style="stroke:#000000;stroke-width:0.5;" x="468.611764802" xlink:href="#m177f7580d0" y="358.523530322"/>
      </g>
     </g>
     <g id="line2d_87">
      <g>
       <use style="stroke:#000000;stroke-width:0.5;" x="468.611764802" xlink:href="#m5284c7e2a0" y="12.9235303218"/>
      </g>
     </g>
    </g>
    <g id="xtick_27">
     <g id="line2d_88">
      <g>
       <use style="stroke:#000000;stroke-width:0.5;" x="475.570798439" xlink:href="#m177f7580d0" y="358.523530322"/>
      </g>
     </g>
     <g id="line2d_89">
      <g>
       <use style="stroke:#000000;stroke-width:0.5;" x="475.570798439" xlink:href="#m5284c7e2a0" y="12.9235303218"/>
      </g>
     </g>
    </g>
    <g id="xtick_28">
     <g id="line2d_90">
      <g>
       <use style="stroke:#000000;stroke-width:0.5;" x="481.709101133" xlink:href="#m177f7580d0" y="358.523530322"/>
      </g>
     </g>
     <g id="line2d_91">
      <g>
       <use style="stroke:#000000;stroke-width:0.5;" x="481.709101133" xlink:href="#m5284c7e2a0" y="12.9235303218"/>
      </g>
     </g>
    </g>
    <g id="xtick_29">
     <g id="line2d_92">
      <g>
       <use style="stroke:#000000;stroke-width:0.5;" x="523.32359948" xlink:href="#m177f7580d0" y="358.523530322"/>
      </g>
     </g>
     <g id="line2d_93">
      <g>
       <use style="stroke:#000000;stroke-width:0.5;" x="523.32359948" xlink:href="#m5284c7e2a0" y="12.9235303218"/>
      </g>
     </g>
    </g>
    <g id="xtick_30">
     <g id="line2d_94">
      <g>
       <use style="stroke:#000000;stroke-width:0.5;" x="544.454550566" xlink:href="#m177f7580d0" y="358.523530322"/>
      </g>
     </g>
     <g id="line2d_95">
      <g>
       <use style="stroke:#000000;stroke-width:0.5;" x="544.454550566" xlink:href="#m5284c7e2a0" y="12.9235303218"/>
      </g>
     </g>
    </g>
    <g id="xtick_31">
     <g id="line2d_96">
      <g>
       <use style="stroke:#000000;stroke-width:0.5;" x="559.447198959" xlink:href="#m177f7580d0" y="358.523530322"/>
      </g>
     </g>
     <g id="line2d_97">
      <g>
       <use style="stroke:#000000;stroke-width:0.5;" x="559.447198959" xlink:href="#m5284c7e2a0" y="12.9235303218"/>
      </g>
     </g>
    </g>
    <g id="xtick_32">
     <g id="line2d_98">
      <g>
       <use style="stroke:#000000;stroke-width:0.5;" x="571.07640052" xlink:href="#m177f7580d0" y="358.523530322"/>
      </g>
     </g>
     <g id="line2d_99">
      <g>
       <use style="stroke:#000000;stroke-width:0.5;" x="571.07640052" xlink:href="#m5284c7e2a0" y="12.9235303218"/>
      </g>
     </g>
    </g>
    <g id="text_5">
     <!-- log10 of (# f-evals / dimension) -->
     <defs>
      <path d="
M12.3594 -21.0469
L6.0625 -21.0469
Q20.6562 2.39062 20.6562 25.875
Q20.6562 35.0625 18.5625 44.0938
Q16.8906 51.4219 13.9219 58.1562
Q12.0156 62.5469 6.0625 72.7969
L12.3594 72.7969
Q21.5312 60.5469 25.9219 48.1875
Q29.6875 37.5469 29.6875 25.9219
Q29.6875 12.75 24.625 0.4375
Q19.5781 -11.8594 12.3594 -21.0469" id="ArialMT-29"/>
      <path d="
M40.4375 6.39062
Q35.5469 2.25 31.0312 0.53125
Q26.5156 -1.17188 21.3438 -1.17188
Q12.7969 -1.17188 8.20312 3
Q3.60938 7.17188 3.60938 13.6719
Q3.60938 17.4844 5.34375 20.625
Q7.07812 23.7812 9.89062 25.6875
Q12.7031 27.5938 16.2188 28.5625
Q18.7969 29.25 24.0312 29.8906
Q34.6719 31.1562 39.7031 32.9062
Q39.75 34.7188 39.75 35.2031
Q39.75 40.5781 37.25 42.7812
Q33.8906 45.75 27.25 45.75
Q21.0469 45.75 18.0938 43.5781
Q15.1406 41.4062 13.7188 35.8906
L5.125 37.0625
Q6.29688 42.5781 8.98438 45.9688
Q11.6719 49.3594 16.75 51.1875
Q21.8281 53.0312 28.5156 53.0312
Q35.1562 53.0312 39.2969 51.4688
Q43.4531 49.9062 45.4062 47.5312
Q47.3594 45.1719 48.1406 41.5469
Q48.5781 39.3125 48.5781 33.4531
L48.5781 21.7344
Q48.5781 9.46875 49.1406 6.21875
Q49.7031 2.98438 51.375 0
L42.1875 0
Q40.8281 2.73438 40.4375 6.39062
M39.7031 26.0312
Q34.9062 24.0781 25.3438 22.7031
Q19.9219 21.9219 17.6719 20.9375
Q15.4375 19.9688 14.2031 18.0938
Q12.9844 16.2188 12.9844 13.9219
Q12.9844 10.4062 15.6406 8.0625
Q18.3125 5.71875 23.4375 5.71875
Q28.5156 5.71875 32.4688 7.9375
Q36.4219 10.1562 38.2812 14.0156
Q39.7031 17 39.7031 22.7969
z
" id="ArialMT-61"/>
      <path d="
M4.98438 -4.29688
L13.5312 -5.5625
Q14.0625 -9.51562 16.5 -11.3281
Q19.7812 -13.7656 25.4375 -13.7656
Q31.5469 -13.7656 34.8594 -11.3281
Q38.1875 -8.89062 39.3594 -4.5
Q40.0469 -1.8125 39.9844 6.78125
Q34.2344 0 25.6406 0
Q14.9375 0 9.07812 7.71875
Q3.21875 15.4375 3.21875 26.2188
Q3.21875 33.6406 5.90625 39.9062
Q8.59375 46.1875 13.6875 49.6094
Q18.7969 53.0312 25.6875 53.0312
Q34.8594 53.0312 40.8281 45.6094
L40.8281 51.8594
L48.9219 51.8594
L48.9219 7.03125
Q48.9219 -5.07812 46.4531 -10.125
Q44 -15.1875 38.6406 -18.1094
Q33.2969 -21.0469 25.4844 -21.0469
Q16.2188 -21.0469 10.5 -16.875
Q4.78125 -12.7031 4.98438 -4.29688
M12.25 26.8594
Q12.25 16.6562 16.2969 11.9688
Q20.3594 7.28125 26.4688 7.28125
Q32.5156 7.28125 36.6094 11.9375
Q40.7188 16.6094 40.7188 26.5625
Q40.7188 36.0781 36.5 40.9062
Q32.2812 45.75 26.3125 45.75
Q20.4531 45.75 16.3438 40.9844
Q12.25 36.2344 12.25 26.8594" id="ArialMT-67"/>
      <path d="
M8.6875 0
L8.6875 45.0156
L0.921875 45.0156
L0.921875 51.8594
L8.6875 51.8594
L8.6875 57.375
Q8.6875 62.5938 9.625 65.1406
Q10.8906 68.5625 14.0781 70.6719
Q17.2812 72.7969 23.0469 72.7969
Q26.7656 72.7969 31.25 71.9219
L29.9375 64.2656
Q27.2031 64.75 24.75 64.75
Q20.75 64.75 19.0938 63.0312
Q17.4375 61.3281 17.4375 56.6406
L17.4375 51.8594
L27.5469 51.8594
L27.5469 45.0156
L17.4375 45.0156
L17.4375 0
z
" id="ArialMT-66"/>
      <path d="
M42.0938 16.7031
L51.1719 15.5781
Q49.0312 7.625 43.2188 3.21875
Q37.4062 -1.17188 28.375 -1.17188
Q17 -1.17188 10.3281 5.82812
Q3.65625 12.8438 3.65625 25.4844
Q3.65625 38.5781 10.3906 45.7969
Q17.1406 53.0312 27.875 53.0312
Q38.2812 53.0312 44.875 45.9531
Q51.4688 38.875 51.4688 26.0312
Q51.4688 25.25 51.4219 23.6875
L12.75 23.6875
Q13.2344 15.1406 17.5781 10.5938
Q21.9219 6.0625 28.4219 6.0625
Q33.25 6.0625 36.6719 8.59375
Q40.0938 11.1406 42.0938 16.7031
M13.2344 30.9062
L42.1875 30.9062
Q41.6094 37.4531 38.875 40.7188
Q34.6719 45.7969 27.9844 45.7969
Q21.9219 45.7969 17.7969 41.75
Q13.6719 37.7031 13.2344 30.9062" id="ArialMT-65"/>
      <path d="
M40.2344 0
L40.2344 6.54688
Q35.2969 -1.17188 25.7344 -1.17188
Q19.5312 -1.17188 14.3281 2.25
Q9.125 5.67188 6.26562 11.7969
Q3.42188 17.9219 3.42188 25.875
Q3.42188 33.6406 6 39.9688
Q8.59375 46.2969 13.7656 49.6562
Q18.9531 53.0312 25.3438 53.0312
Q30.0312 53.0312 33.6875 51.0469
Q37.3594 49.0781 39.6562 45.9062
L39.6562 71.5781
L48.3906 71.5781
L48.3906 0
z

M12.4531 25.875
Q12.4531 15.9219 16.6406 10.9844
Q20.8438 6.0625 26.5625 6.0625
Q32.3281 6.0625 36.3438 10.7656
Q40.375 15.4844 40.375 25.1406
Q40.375 35.7969 36.2656 40.7656
Q32.1719 45.75 26.1719 45.75
Q20.3125 45.75 16.375 40.9688
Q12.4531 36.1875 12.4531 25.875" id="ArialMT-64"/>
      <path d="
M0 -1.21875
L20.75 72.7969
L27.7812 72.7969
L7.07812 -1.21875
z
" id="ArialMT-2f"/>
      <path d="
M21 0
L1.26562 51.8594
L10.5469 51.8594
L21.6875 20.7969
Q23.4844 15.7656 25 10.3594
Q26.1719 14.4531 28.2656 20.2188
L39.7969 51.8594
L48.8281 51.8594
L29.2031 0
z
" id="ArialMT-76"/>
      <path d="
M3.17188 21.4844
L3.17188 30.3281
L30.1719 30.3281
L30.1719 21.4844
z
" id="ArialMT-2d"/>
      <path d="
M6.59375 0
L6.59375 51.8594
L14.4531 51.8594
L14.4531 44.5781
Q16.8906 48.3906 20.9375 50.7031
Q25 53.0312 30.1719 53.0312
Q35.9375 53.0312 39.625 50.6406
Q43.3125 48.25 44.8281 43.9531
Q50.9844 53.0312 60.8438 53.0312
Q68.5625 53.0312 72.7031 48.75
Q76.8594 44.4844 76.8594 35.5938
L76.8594 0
L68.1094 0
L68.1094 32.6719
Q68.1094 37.9375 67.25 40.25
Q66.4062 42.5781 64.1562 43.9844
Q61.9219 45.4062 58.8906 45.4062
Q53.4219 45.4062 49.7969 41.7656
Q46.1875 38.1406 46.1875 30.125
L46.1875 0
L37.4062 0
L37.4062 33.6875
Q37.4062 39.5469 35.25 42.4688
Q33.1094 45.4062 28.2188 45.4062
Q24.5156 45.4062 21.3594 43.4531
Q18.2188 41.5 16.7969 37.7344
Q15.375 33.9844 15.375 26.9062
L15.375 0
z
" id="ArialMT-6d"/>
      <path d="
M3.07812 15.4844
L11.7656 16.8438
Q12.5 11.625 15.8438 8.84375
Q19.1875 6.0625 25.2031 6.0625
Q31.25 6.0625 34.1719 8.51562
Q37.1094 10.9844 37.1094 14.3125
Q37.1094 17.2812 34.5156 19
Q32.7188 20.1719 25.5312 21.9688
Q15.875 24.4219 12.1406 26.2031
Q8.40625 27.9844 6.46875 31.125
Q4.54688 34.2812 4.54688 38.0938
Q4.54688 41.5469 6.125 44.5
Q7.71875 47.4688 10.4531 49.4219
Q12.5 50.9219 16.0312 51.9688
Q19.5781 53.0312 23.6406 53.0312
Q29.7344 53.0312 34.3438 51.2656
Q38.9688 49.5156 41.1562 46.5
Q43.3594 43.5 44.1875 38.4844
L35.5938 37.3125
Q35.0156 41.3125 32.2031 43.5469
Q29.3906 45.7969 24.2656 45.7969
Q18.2188 45.7969 15.625 43.7969
Q13.0312 41.7969 13.0312 39.1094
Q13.0312 37.4062 14.1094 36.0312
Q15.1875 34.625 17.4844 33.6875
Q18.7969 33.2031 25.25 31.4531
Q34.5781 28.9531 38.25 27.3594
Q41.9375 25.7812 44.0312 22.75
Q46.1406 19.7344 46.1406 15.2344
Q46.1406 10.8438 43.5781 6.95312
Q41.0156 3.07812 36.1719 0.953125
Q31.3438 -1.17188 25.25 -1.17188
Q15.1406 -1.17188 9.84375 3.03125
Q4.54688 7.23438 3.07812 15.4844" id="ArialMT-73"/>
      <path d="
M6.39062 0
L6.39062 71.5781
L15.1875 71.5781
L15.1875 0
z
" id="ArialMT-6c"/>
      <path d="
M3.32812 25.9219
Q3.32812 40.3281 11.3281 47.2656
Q18.0156 53.0312 27.6406 53.0312
Q38.3281 53.0312 45.1094 46.0156
Q51.9062 39.0156 51.9062 26.6562
Q51.9062 16.6562 48.9062 10.9062
Q45.9062 5.17188 40.1562 2
Q34.4219 -1.17188 27.6406 -1.17188
Q16.75 -1.17188 10.0312 5.8125
Q3.32812 12.7969 3.32812 25.9219
M12.3594 25.9219
Q12.3594 15.9688 16.7031 11.0156
Q21.0469 6.0625 27.6406 6.0625
Q34.1875 6.0625 38.5312 11.0312
Q42.875 16.0156 42.875 26.2188
Q42.875 35.8438 38.5 40.7969
Q34.125 45.75 27.6406 45.75
Q21.0469 45.75 16.7031 40.8125
Q12.3594 35.8906 12.3594 25.9219" id="ArialMT-6f"/>
      <path d="
M6.59375 0
L6.59375 51.8594
L14.5 51.8594
L14.5 44.4844
Q20.2188 53.0312 31 53.0312
Q35.6875 53.0312 39.625 51.3438
Q43.5625 49.6562 45.5156 46.9219
Q47.4688 44.1875 48.25 40.4375
Q48.7344 37.9844 48.7344 31.8906
L48.7344 0
L39.9375 0
L39.9375 31.5469
Q39.9375 36.9219 38.9062 39.5781
Q37.8906 42.2344 35.2812 43.8125
Q32.6719 45.4062 29.1562 45.4062
Q23.5312 45.4062 19.4531 41.8438
Q15.375 38.2812 15.375 28.3281
L15.375 0
z
" id="ArialMT-6e"/>
      <path d="
M23.3906 -21.0469
Q16.1094 -11.8594 11.0781 0.4375
Q6.0625 12.75 6.0625 25.9219
Q6.0625 37.5469 9.8125 48.1875
Q14.2031 60.5469 23.3906 72.7969
L29.6875 72.7969
Q23.7812 62.6406 21.875 58.2969
Q18.8906 51.5625 17.1875 44.2344
Q15.0938 35.1094 15.0938 25.875
Q15.0938 2.39062 29.6875 -21.0469
z
" id="ArialMT-28"/>
      <path d="
M5.03125 -1.21875
L9.28125 19.5781
L1.03125 19.5781
L1.03125 26.8594
L10.75 26.8594
L14.3594 44.5781
L1.03125 44.5781
L1.03125 51.8594
L15.8281 51.8594
L20.0625 72.7969
L27.3906 72.7969
L23.1406 51.8594
L38.5312 51.8594
L42.7812 72.7969
L50.1406 72.7969
L45.9062 51.8594
L54.3438 51.8594
L54.3438 44.5781
L44.4375 44.5781
L40.7656 26.8594
L54.3438 26.8594
L54.3438 19.5781
L39.3125 19.5781
L35.0625 -1.21875
L27.7344 -1.21875
L31.9375 19.5781
L16.6094 19.5781
L12.3594 -1.21875
z

M18.0625 26.8594
L33.4062 26.8594
L37.0625 44.5781
L21.6875 44.5781
z
" id="ArialMT-23"/>
      <path d="
M6.64062 61.4688
L6.64062 71.5781
L15.4375 71.5781
L15.4375 61.4688
z

M6.64062 0
L6.64062 51.8594
L15.4375 51.8594
L15.4375 0
z
" id="ArialMT-69"/>
      <path id="ArialMT-20"/>
     </defs>
     <g transform="translate(227.67375 398.917592822)scale(0.18 -0.18)">
      <use xlink:href="#ArialMT-6c"/>
      <use x="22.216796875" xlink:href="#ArialMT-6f"/>
      <use x="77.83203125" xlink:href="#ArialMT-67"/>
      <use x="133.447265625" xlink:href="#ArialMT-31"/>
      <use x="189.0625" xlink:href="#ArialMT-30"/>
      <use x="244.677734375" xlink:href="#ArialMT-20"/>
      <use x="272.4609375" xlink:href="#ArialMT-6f"/>
      <use x="328.076171875" xlink:href="#ArialMT-66"/>
      <use x="355.859375" xlink:href="#ArialMT-20"/>
      <use x="383.642578125" xlink:href="#ArialMT-28"/>
      <use x="416.943359375" xlink:href="#ArialMT-23"/>
      <use x="472.55859375" xlink:href="#ArialMT-20"/>
      <use x="500.341796875" xlink:href="#ArialMT-66"/>
      <use x="528.125" xlink:href="#ArialMT-2d"/>
      <use x="561.42578125" xlink:href="#ArialMT-65"/>
      <use x="617.041015625" xlink:href="#ArialMT-76"/>
      <use x="667.041015625" xlink:href="#ArialMT-61"/>
      <use x="722.65625" xlink:href="#ArialMT-6c"/>
      <use x="744.873046875" xlink:href="#ArialMT-73"/>
      <use x="794.873046875" xlink:href="#ArialMT-20"/>
      <use x="822.65625" xlink:href="#ArialMT-2f"/>
      <use x="850.439453125" xlink:href="#ArialMT-20"/>
      <use x="878.22265625" xlink:href="#ArialMT-64"/>
      <use x="933.837890625" xlink:href="#ArialMT-69"/>
      <use x="956.0546875" xlink:href="#ArialMT-6d"/>
      <use x="1039.35546875" xlink:href="#ArialMT-65"/>
      <use x="1094.97070312" xlink:href="#ArialMT-6e"/>
      <use x="1150.5859375" xlink:href="#ArialMT-73"/>
      <use x="1200.5859375" xlink:href="#ArialMT-69"/>
      <use x="1222.80273438" xlink:href="#ArialMT-6f"/>
      <use x="1278.41796875" xlink:href="#ArialMT-6e"/>
      <use x="1334.03320312" xlink:href="#ArialMT-29"/>
     </g>
    </g>
   </g>
   <g id="matplotlib.axis_2">
    <g id="ytick_1">
     <g id="line2d_100">
      <path clip-path="url(#p505825120b)" d="
M127.2 358.524
L573.6 358.524" style="fill:none;stroke:#000000;stroke-dasharray:1.000000,3.000000;stroke-dashoffset:0.0;stroke-width:0.5;"/>
     </g>
     <g id="line2d_101">
      <defs>
       <path d="
M0 0
L4 0" id="m728421d6d4" style="stroke:#000000;stroke-width:0.5;"/>
      </defs>
      <g>
       <use style="stroke:#000000;stroke-width:0.5;" x="127.2" xlink:href="#m728421d6d4" y="358.523530322"/>
      </g>
     </g>
     <g id="line2d_102">
      <defs>
       <path d="
M0 0
L-4 0" id="mcb0005524f" style="stroke:#000000;stroke-width:0.5;"/>
      </defs>
      <g>
       <use style="stroke:#000000;stroke-width:0.5;" x="573.6" xlink:href="#mcb0005524f" y="358.523530322"/>
      </g>
     </g>
     <g id="text_6">
      <!-- 0.0 -->
      <defs>
       <path d="
M9.07812 0
L9.07812 10.0156
L19.0938 10.0156
L19.0938 0
z
" id="ArialMT-2e"/>
      </defs>
      <g transform="translate(97.1875 363.693842822)scale(0.2 -0.2)">
       <use xlink:href="#ArialMT-30"/>
       <use x="55.615234375" xlink:href="#ArialMT-2e"/>
       <use x="83.3984375" xlink:href="#ArialMT-30"/>
      </g>
     </g>
    </g>
    <g id="ytick_2">
     <g id="line2d_103">
      <path clip-path="url(#p505825120b)" d="
M127.2 290.088
L573.6 290.088" style="fill:none;stroke:#000000;stroke-dasharray:1.000000,3.000000;stroke-dashoffset:0.0;stroke-width:0.5;"/>
     </g>
     <g id="line2d_104">
      <g>
       <use style="stroke:#000000;stroke-width:0.5;" x="127.2" xlink:href="#m728421d6d4" y="290.087886757"/>
      </g>
     </g>
     <g id="line2d_105">
      <g>
       <use style="stroke:#000000;stroke-width:0.5;" x="573.6" xlink:href="#mcb0005524f" y="290.087886757"/>
      </g>
     </g>
     <g id="text_7">
      <!-- 0.2 -->
      <g transform="translate(97.284375 295.258199257)scale(0.2 -0.2)">
       <use xlink:href="#ArialMT-30"/>
       <use x="55.615234375" xlink:href="#ArialMT-2e"/>
       <use x="83.3984375" xlink:href="#ArialMT-32"/>
      </g>
     </g>
    </g>
    <g id="ytick_3">
     <g id="line2d_106">
      <path clip-path="url(#p505825120b)" d="
M127.2 221.652
L573.6 221.652" style="fill:none;stroke:#000000;stroke-dasharray:1.000000,3.000000;stroke-dashoffset:0.0;stroke-width:0.5;"/>
     </g>
     <g id="line2d_107">
      <g>
       <use style="stroke:#000000;stroke-width:0.5;" x="127.2" xlink:href="#m728421d6d4" y="221.652243193"/>
      </g>
     </g>
     <g id="line2d_108">
      <g>
       <use style="stroke:#000000;stroke-width:0.5;" x="573.6" xlink:href="#mcb0005524f" y="221.652243193"/>
      </g>
     </g>
     <g id="text_8">
      <!-- 0.4 -->
      <defs>
       <path d="
M32.3281 0
L32.3281 17.1406
L1.26562 17.1406
L1.26562 25.2031
L33.9375 71.5781
L41.1094 71.5781
L41.1094 25.2031
L50.7812 25.2031
L50.7812 17.1406
L41.1094 17.1406
L41.1094 0
z

M32.3281 25.2031
L32.3281 57.4688
L9.90625 25.2031
z
" id="ArialMT-34"/>
      </defs>
      <g transform="translate(97.196875 226.822555693)scale(0.2 -0.2)">
       <use xlink:href="#ArialMT-30"/>
       <use x="55.615234375" xlink:href="#ArialMT-2e"/>
       <use x="83.3984375" xlink:href="#ArialMT-34"/>
      </g>
     </g>
    </g>
    <g id="ytick_4">
     <g id="line2d_109">
      <path clip-path="url(#p505825120b)" d="
M127.2 153.217
L573.6 153.217" style="fill:none;stroke:#000000;stroke-dasharray:1.000000,3.000000;stroke-dashoffset:0.0;stroke-width:0.5;"/>
     </g>
     <g id="line2d_110">
      <g>
       <use style="stroke:#000000;stroke-width:0.5;" x="127.2" xlink:href="#m728421d6d4" y="153.216599629"/>
      </g>
     </g>
     <g id="line2d_111">
      <g>
       <use style="stroke:#000000;stroke-width:0.5;" x="573.6" xlink:href="#mcb0005524f" y="153.216599629"/>
      </g>
     </g>
     <g id="text_9">
      <!-- 0.6 -->
      <defs>
       <path d="
M49.75 54.0469
L41.0156 53.375
Q39.8438 58.5469 37.7031 60.8906
Q34.125 64.6562 28.9062 64.6562
Q24.7031 64.6562 21.5312 62.3125
Q17.3906 59.2812 14.9844 53.4688
Q12.5938 47.6562 12.5 36.9219
Q15.6719 41.75 20.2656 44.0938
Q24.8594 46.4375 29.8906 46.4375
Q38.6719 46.4375 44.8438 39.9688
Q51.0312 33.5 51.0312 23.25
Q51.0312 16.5 48.125 10.7188
Q45.2188 4.9375 40.1406 1.85938
Q35.0625 -1.21875 28.6094 -1.21875
Q17.625 -1.21875 10.6875 6.85938
Q3.76562 14.9375 3.76562 33.5
Q3.76562 54.25 11.4219 63.6719
Q18.1094 71.875 29.4375 71.875
Q37.8906 71.875 43.2812 67.1406
Q48.6875 62.4062 49.75 54.0469
M13.875 23.1875
Q13.875 18.6562 15.7969 14.5
Q17.7188 10.3594 21.1875 8.17188
Q24.6562 6 28.4688 6
Q34.0312 6 38.0312 10.4844
Q42.0469 14.9844 42.0469 22.7031
Q42.0469 30.125 38.0781 34.3906
Q34.125 38.6719 28.125 38.6719
Q22.1719 38.6719 18.0156 34.3906
Q13.875 30.125 13.875 23.1875" id="ArialMT-36"/>
      </defs>
      <g transform="translate(97.146875 158.386912129)scale(0.2 -0.2)">
       <use xlink:href="#ArialMT-30"/>
       <use x="55.615234375" xlink:href="#ArialMT-2e"/>
       <use x="83.3984375" xlink:href="#ArialMT-36"/>
      </g>
     </g>
    </g>
    <g id="ytick_5">
     <g id="line2d_112">
      <path clip-path="url(#p505825120b)" d="
M127.2 84.781
L573.6 84.781" style="fill:none;stroke:#000000;stroke-dasharray:1.000000,3.000000;stroke-dashoffset:0.0;stroke-width:0.5;"/>
     </g>
     <g id="line2d_113">
      <g>
       <use style="stroke:#000000;stroke-width:0.5;" x="127.2" xlink:href="#m728421d6d4" y="84.7809560644"/>
      </g>
     </g>
     <g id="line2d_114">
      <g>
       <use style="stroke:#000000;stroke-width:0.5;" x="573.6" xlink:href="#mcb0005524f" y="84.7809560644"/>
      </g>
     </g>
     <g id="text_10">
      <!-- 0.8 -->
      <defs>
       <path d="
M17.6719 38.8125
Q12.2031 40.8281 9.5625 44.5312
Q6.9375 48.25 6.9375 53.4219
Q6.9375 61.2344 12.5469 66.5469
Q18.1719 71.875 27.4844 71.875
Q36.8594 71.875 42.5781 66.4219
Q48.2969 60.9844 48.2969 53.1719
Q48.2969 48.1875 45.6719 44.5
Q43.0625 40.8281 37.75 38.8125
Q44.3438 36.6719 47.7812 31.875
Q51.2188 27.0938 51.2188 20.4531
Q51.2188 11.2812 44.7188 5.03125
Q38.2344 -1.21875 27.6406 -1.21875
Q17.0469 -1.21875 10.5469 5.04688
Q4.04688 11.3281 4.04688 20.7031
Q4.04688 27.6875 7.59375 32.3906
Q11.1406 37.1094 17.6719 38.8125
M15.9219 53.7188
Q15.9219 48.6406 19.1875 45.4062
Q22.4688 42.1875 27.6875 42.1875
Q32.7656 42.1875 36.0156 45.375
Q39.2656 48.5781 39.2656 53.2188
Q39.2656 58.0625 35.9062 61.3594
Q32.5625 64.6562 27.5938 64.6562
Q22.5625 64.6562 19.2344 61.4219
Q15.9219 58.2031 15.9219 53.7188
M13.0938 20.6562
Q13.0938 16.8906 14.875 13.375
Q16.6562 9.85938 20.1719 7.92188
Q23.6875 6 27.7344 6
Q34.0312 6 38.125 10.0469
Q42.2344 14.1094 42.2344 20.3594
Q42.2344 26.7031 38.0156 30.8594
Q33.7969 35.0156 27.4375 35.0156
Q21.2344 35.0156 17.1562 30.9062
Q13.0938 26.8125 13.0938 20.6562" id="ArialMT-38"/>
      </defs>
      <g transform="translate(97.109375 89.9512685644)scale(0.2 -0.2)">
       <use xlink:href="#ArialMT-30"/>
       <use x="55.615234375" xlink:href="#ArialMT-2e"/>
       <use x="83.3984375" xlink:href="#ArialMT-38"/>
      </g>
     </g>
    </g>
    <g id="ytick_6">
     <g id="line2d_115">
      <path clip-path="url(#p505825120b)" d="
M127.2 16.3453
L573.6 16.3453" style="fill:none;stroke:#000000;stroke-dasharray:1.000000,3.000000;stroke-dashoffset:0.0;stroke-width:0.5;"/>
     </g>
     <g id="line2d_116">
      <g>
       <use style="stroke:#000000;stroke-width:0.5;" x="127.2" xlink:href="#m728421d6d4" y="16.3453125"/>
      </g>
     </g>
     <g id="line2d_117">
      <g>
       <use style="stroke:#000000;stroke-width:0.5;" x="573.6" xlink:href="#mcb0005524f" y="16.3453125"/>
      </g>
     </g>
     <g id="text_11">
      <!-- 1.0 -->
      <g transform="translate(98.534375 21.515625)scale(0.2 -0.2)">
       <use xlink:href="#ArialMT-31"/>
       <use x="55.615234375" xlink:href="#ArialMT-2e"/>
       <use x="83.3984375" xlink:href="#ArialMT-30"/>
      </g>
     </g>
    </g>
    <g id="text_12">
     <!-- Proportion of function+target pairs -->
     <defs>
      <path d="
M40.4375 19
L49.0781 17.875
Q47.6562 8.9375 41.8125 3.875
Q35.9844 -1.17188 27.4844 -1.17188
Q16.8438 -1.17188 10.375 5.78125
Q3.90625 12.75 3.90625 25.7344
Q3.90625 34.125 6.6875 40.4219
Q9.46875 46.7344 15.1562 49.875
Q20.8438 53.0312 27.5469 53.0312
Q35.9844 53.0312 41.3594 48.75
Q46.7344 44.4844 48.25 36.625
L39.7031 35.2969
Q38.4844 40.5312 35.375 43.1562
Q32.2812 45.7969 27.875 45.7969
Q21.2344 45.7969 17.0781 41.0312
Q12.9375 36.2812 12.9375 25.9844
Q12.9375 15.5312 16.9375 10.7969
Q20.9531 6.0625 27.3906 6.0625
Q32.5625 6.0625 36.0312 9.23438
Q39.5 12.4062 40.4375 19" id="ArialMT-63"/>
      <path d="
M25.7812 7.85938
L27.0469 0.09375
Q23.3438 -0.6875 20.4062 -0.6875
Q15.625 -0.6875 12.9844 0.828125
Q10.3594 2.34375 9.28125 4.8125
Q8.20312 7.28125 8.20312 15.1875
L8.20312 45.0156
L1.76562 45.0156
L1.76562 51.8594
L8.20312 51.8594
L8.20312 64.7031
L16.9375 69.9688
L16.9375 51.8594
L25.7812 51.8594
L25.7812 45.0156
L16.9375 45.0156
L16.9375 14.7031
Q16.9375 10.9375 17.4062 9.85938
Q17.875 8.79688 18.9219 8.15625
Q19.9688 7.51562 21.9219 7.51562
Q23.3906 7.51562 25.7812 7.85938" id="ArialMT-74"/>
      <path d="
M40.5781 0
L40.5781 7.625
Q34.5156 -1.17188 24.125 -1.17188
Q19.5312 -1.17188 15.5469 0.578125
Q11.5781 2.34375 9.64062 5
Q7.71875 7.67188 6.9375 11.5312
Q6.39062 14.1094 6.39062 19.7344
L6.39062 51.8594
L15.1875 51.8594
L15.1875 23.0938
Q15.1875 16.2188 15.7188 13.8125
Q16.5469 10.3594 19.2344 8.375
Q21.9219 6.39062 25.875 6.39062
Q29.8281 6.39062 33.2969 8.42188
Q36.7656 10.4531 38.2031 13.9375
Q39.6562 17.4375 39.6562 24.0781
L39.6562 51.8594
L48.4375 51.8594
L48.4375 0
z
" id="ArialMT-75"/>
      <path d="
M7.71875 0
L7.71875 71.5781
L34.7188 71.5781
Q41.8438 71.5781 45.6094 70.9062
Q50.875 70.0156 54.4375 67.5469
Q58.0156 65.0938 60.1875 60.6406
Q62.3594 56.2031 62.3594 50.875
Q62.3594 41.75 56.5469 35.4219
Q50.7344 29.1094 35.5469 29.1094
L17.1875 29.1094
L17.1875 0
z

M17.1875 37.5469
L35.6875 37.5469
Q44.875 37.5469 48.7344 40.9688
Q52.5938 44.3906 52.5938 50.5938
Q52.5938 55.0781 50.3125 58.2656
Q48.0469 61.4688 44.3438 62.5
Q41.9375 63.1406 35.5 63.1406
L17.1875 63.1406
z
" id="ArialMT-50"/>
      <path d="
M6.59375 -19.875
L6.59375 51.8594
L14.5938 51.8594
L14.5938 45.125
Q17.4375 49.0781 21 51.0469
Q24.5625 53.0312 29.6406 53.0312
Q36.2812 53.0312 41.3594 49.6094
Q46.4375 46.1875 49.0156 39.9531
Q51.6094 33.7344 51.6094 26.3125
Q51.6094 18.3594 48.75 11.9844
Q45.9062 5.60938 40.4531 2.21875
Q35.0156 -1.17188 29 -1.17188
Q24.6094 -1.17188 21.1094 0.6875
Q17.625 2.54688 15.375 5.375
L15.375 -19.875
z

M14.5469 25.6406
Q14.5469 15.625 18.5938 10.8438
Q22.6562 6.0625 28.4219 6.0625
Q34.2812 6.0625 38.4531 11.0156
Q42.625 15.9688 42.625 26.375
Q42.625 36.2812 38.5469 41.2031
Q34.4688 46.1406 28.8125 46.1406
Q23.1875 46.1406 18.8594 40.8906
Q14.5469 35.6406 14.5469 25.6406" id="ArialMT-70"/>
      <path d="
M25.0469 11.5781
L25.0469 31.2031
L5.5625 31.2031
L5.5625 39.4062
L25.0469 39.4062
L25.0469 58.8906
L33.3438 58.8906
L33.3438 39.4062
L52.8281 39.4062
L52.8281 31.2031
L33.3438 31.2031
L33.3438 11.5781
z
" id="ArialMT-2b"/>
      <path d="
M6.5 0
L6.5 51.8594
L14.4062 51.8594
L14.4062 44
Q17.4375 49.5156 20 51.2656
Q22.5625 53.0312 25.6406 53.0312
Q30.0781 53.0312 34.6719 50.2031
L31.6406 42.0469
Q28.4219 43.9531 25.2031 43.9531
Q22.3125 43.9531 20.0156 42.2188
Q17.7188 40.4844 16.75 37.4062
Q15.2812 32.7188 15.2812 27.1562
L15.2812 0
z
" id="ArialMT-72"/>
     </defs>
     <g transform="translate(88.3209375 321.197436572)rotate(-90.0)scale(0.18 -0.18)">
      <use xlink:href="#ArialMT-50"/>
      <use x="66.69921875" xlink:href="#ArialMT-72"/>
      <use x="100.0" xlink:href="#ArialMT-6f"/>
      <use x="155.615234375" xlink:href="#ArialMT-70"/>
      <use x="211.23046875" xlink:href="#ArialMT-6f"/>
      <use x="266.845703125" xlink:href="#ArialMT-72"/>
      <use x="300.146484375" xlink:href="#ArialMT-74"/>
      <use x="327.9296875" xlink:href="#ArialMT-69"/>
      <use x="350.146484375" xlink:href="#ArialMT-6f"/>
      <use x="405.76171875" xlink:href="#ArialMT-6e"/>
      <use x="461.376953125" xlink:href="#ArialMT-20"/>
      <use x="489.16015625" xlink:href="#ArialMT-6f"/>
      <use x="544.775390625" xlink:href="#ArialMT-66"/>
      <use x="572.55859375" xlink:href="#ArialMT-20"/>
      <use x="600.341796875" xlink:href="#ArialMT-66"/>
      <use x="628.125" xlink:href="#ArialMT-75"/>
      <use x="683.740234375" xlink:href="#ArialMT-6e"/>
      <use x="739.35546875" xlink:href="#ArialMT-63"/>
      <use x="789.35546875" xlink:href="#ArialMT-74"/>
      <use x="817.138671875" xlink:href="#ArialMT-69"/>
      <use x="839.35546875" xlink:href="#ArialMT-6f"/>
      <use x="894.970703125" xlink:href="#ArialMT-6e"/>
      <use x="950.5859375" xlink:href="#ArialMT-2b"/>
      <use x="1008.984375" xlink:href="#ArialMT-74"/>
      <use x="1036.76757812" xlink:href="#ArialMT-61"/>
      <use x="1092.3828125" xlink:href="#ArialMT-72"/>
      <use x="1125.68359375" xlink:href="#ArialMT-67"/>
      <use x="1181.29882812" xlink:href="#ArialMT-65"/>
      <use x="1236.9140625" xlink:href="#ArialMT-74"/>
      <use x="1264.69726562" xlink:href="#ArialMT-20"/>
      <use x="1292.48046875" xlink:href="#ArialMT-70"/>
      <use x="1348.09570312" xlink:href="#ArialMT-61"/>
      <use x="1403.7109375" xlink:href="#ArialMT-69"/>
      <use x="1425.92773438" xlink:href="#ArialMT-72"/>
      <use x="1459.22851562" xlink:href="#ArialMT-73"/>
     </g>
    </g>
   </g>
   <g id="patch_3">
    <path d="
M127.2 12.9235
L573.6 12.9235" style="fill:none;stroke:#000000;"/>
   </g>
   <g id="patch_4">
    <path d="
M573.6 358.524
L573.6 12.9235" style="fill:none;stroke:#000000;"/>
   </g>
   <g id="patch_5">
    <path d="
M127.2 358.524
L573.6 358.524" style="fill:none;stroke:#000000;"/>
   </g>
   <g id="patch_6">
    <path d="
M127.2 358.524
L127.2 12.9235" style="fill:none;stroke:#000000;"/>
   </g>
   <g id="text_13">
    <!-- 20-D -->
    <defs>
     <path d="
M7.71875 0
L7.71875 71.5781
L32.375 71.5781
Q40.7188 71.5781 45.125 70.5625
Q51.2656 69.1406 55.6094 65.4375
Q61.2812 60.6406 64.0781 53.1875
Q66.8906 45.75 66.8906 36.1875
Q66.8906 28.0312 64.9844 21.7344
Q63.0938 15.4375 60.1094 11.2969
Q57.125 7.17188 53.5781 4.79688
Q50.0469 2.4375 45.0469 1.21875
Q40.0469 0 33.5469 0
z

M17.1875 8.45312
L32.4688 8.45312
Q39.5469 8.45312 43.5781 9.76562
Q47.6094 11.0781 50 13.4844
Q53.375 16.8438 55.25 22.5312
Q57.125 28.2188 57.125 36.3281
Q57.125 47.5625 53.4375 53.5938
Q49.75 59.625 44.4844 61.6719
Q40.6719 63.1406 32.2344 63.1406
L17.1875 63.1406
z
" id="ArialMT-44"/>
    </defs>
    <g transform="translate(534.0 355.55770034)scale(0.15 -0.15)">
     <use xlink:href="#ArialMT-32"/>
     <use x="55.615234375" xlink:href="#ArialMT-30"/>
     <use x="111.23046875" xlink:href="#ArialMT-2d"/>
     <use x="144.53125" xlink:href="#ArialMT-44"/>
    </g>
   </g>
   <g id="text_14">
    <!-- 10-D -->
    <g transform="translate(534.0 273.434928063)scale(0.15 -0.15)">
     <use xlink:href="#ArialMT-31"/>
     <use x="55.615234375" xlink:href="#ArialMT-30"/>
     <use x="111.23046875" xlink:href="#ArialMT-2d"/>
     <use x="144.53125" xlink:href="#ArialMT-44"/>
    </g>
   </g>
   <g id="text_15">
    <!-- 3-D -->
    <g transform="translate(534.0 191.312155786)scale(0.15 -0.15)">
     <use xlink:href="#ArialMT-33"/>
     <use x="55.615234375" xlink:href="#ArialMT-2d"/>
     <use x="88.916015625" xlink:href="#ArialMT-44"/>
    </g>
   </g>
   <g id="text_16">
    <!-- 2-D -->
    <g transform="translate(534.0 109.189383509)scale(0.15 -0.15)">
     <use xlink:href="#ArialMT-32"/>
     <use x="55.615234375" xlink:href="#ArialMT-2d"/>
     <use x="88.916015625" xlink:href="#ArialMT-44"/>
    </g>
   </g>
   <g id="text_17">
    <!-- 5-D -->
    <defs>
     <path d="
M4.15625 18.75
L13.375 19.5312
Q14.4062 12.7969 18.1406 9.39062
Q21.875 6 27.1562 6
Q33.5 6 37.8906 10.7812
Q42.2812 15.5781 42.2812 23.4844
Q42.2812 31 38.0625 35.3438
Q33.8438 39.7031 27 39.7031
Q22.75 39.7031 19.3281 37.7656
Q15.9219 35.8438 13.9688 32.7656
L5.71875 33.8438
L12.6406 70.6094
L48.25 70.6094
L48.25 62.2031
L19.6719 62.2031
L15.8281 42.9688
Q22.2656 47.4688 29.3438 47.4688
Q38.7188 47.4688 45.1562 40.9688
Q51.6094 34.4688 51.6094 24.2656
Q51.6094 14.5469 45.9531 7.46875
Q39.0625 -1.21875 27.1562 -1.21875
Q17.3906 -1.21875 11.2031 4.25
Q5.03125 9.71875 4.15625 18.75" id="ArialMT-35"/>
    </defs>
    <g transform="translate(534.0 27.0666112314)scale(0.15 -0.15)">
     <use xlink:href="#ArialMT-35"/>
     <use x="55.615234375" xlink:href="#ArialMT-2d"/>
     <use x="88.916015625" xlink:href="#ArialMT-44"/>
    </g>
   </g>
   <g id="text_18">
    <!-- bbob - f1-f5 -->
    <defs>
     <path d="
M14.7031 0
L6.54688 0
L6.54688 71.5781
L15.3281 71.5781
L15.3281 46.0469
Q20.9062 53.0312 29.5469 53.0312
Q34.3281 53.0312 38.5938 51.0938
Q42.875 49.1719 45.625 45.6719
Q48.3906 42.1875 49.9531 37.25
Q51.5156 32.3281 51.5156 26.7031
Q51.5156 13.375 44.9219 6.09375
Q38.3281 -1.17188 29.1094 -1.17188
Q19.9219 -1.17188 14.7031 6.5
z

M14.5938 26.3125
Q14.5938 17 17.1406 12.8438
Q21.2969 6.0625 28.375 6.0625
Q34.125 6.0625 38.3281 11.0625
Q42.5312 16.0625 42.5312 25.9844
Q42.5312 36.1406 38.5 40.9688
Q34.4688 45.7969 28.7656 45.7969
Q23 45.7969 18.7969 40.7969
Q14.5938 35.7969 14.5938 26.3125" id="ArialMT-62"/>
    </defs>
    <g transform="translate(131.664 31.7604459468)scale(0.1666 -0.1666)">
     <use xlink:href="#ArialMT-62"/>
     <use x="55.615234375" xlink:href="#ArialMT-62"/>
     <use x="111.23046875" xlink:href="#ArialMT-6f"/>
     <use x="166.845703125" xlink:href="#ArialMT-62"/>
     <use x="222.4609375" xlink:href="#ArialMT-20"/>
     <use x="250.244140625" xlink:href="#ArialMT-2d"/>
     <use x="283.544921875" xlink:href="#ArialMT-20"/>
     <use x="311.328125" xlink:href="#ArialMT-66"/>
     <use x="339.111328125" xlink:href="#ArialMT-31"/>
     <use x="394.7265625" xlink:href="#ArialMT-2d"/>
     <use x="428.02734375" xlink:href="#ArialMT-66"/>
     <use x="455.810546875" xlink:href="#ArialMT-35"/>
    </g>
    <!-- 31 target RLs/dim: 0.5..50 -->
    <defs>
     <path d="
M7.85938 0
L7.85938 71.5781
L39.5938 71.5781
Q49.1719 71.5781 54.1406 69.6406
Q59.125 67.7188 62.1094 62.8281
Q65.0938 57.9531 65.0938 52.0469
Q65.0938 44.4375 60.1562 39.2031
Q55.2188 33.9844 44.9219 32.5625
Q48.6875 30.7656 50.6406 29
Q54.7812 25.2031 58.5 19.4844
L70.9531 0
L59.0312 0
L49.5625 14.8906
Q45.4062 21.3438 42.7188 24.75
Q40.0469 28.1719 37.9219 29.5312
Q35.7969 30.9062 33.5938 31.4531
Q31.9844 31.7812 28.3281 31.7812
L17.3281 31.7812
L17.3281 0
z

M17.3281 39.9844
L37.7031 39.9844
Q44.1875 39.9844 47.8438 41.3281
Q51.5156 42.6719 53.4219 45.625
Q55.3281 48.5781 55.3281 52.0469
Q55.3281 57.125 51.6406 60.3906
Q47.9531 63.6719 39.9844 63.6719
L17.3281 63.6719
z
" id="ArialMT-52"/>
     <path d="
M9.03125 41.8438
L9.03125 51.8594
L19.0469 51.8594
L19.0469 41.8438
z

M9.03125 0
L9.03125 10.0156
L19.0469 10.0156
L19.0469 0
z
" id="ArialMT-3a"/>
     <path d="
M7.32812 0
L7.32812 71.5781
L16.7969 71.5781
L16.7969 8.45312
L52.0469 8.45312
L52.0469 0
z
" id="ArialMT-4c"/>
    </defs>
    <g transform="translate(131.664 49.6251721968)scale(0.1666 -0.1666)">
     <use xlink:href="#ArialMT-33"/>
     <use x="55.615234375" xlink:href="#ArialMT-31"/>
     <use x="111.23046875" xlink:href="#ArialMT-20"/>
     <use x="139.013671875" xlink:href="#ArialMT-74"/>
     <use x="166.796875" xlink:href="#ArialMT-61"/>
     <use x="222.412109375" xlink:href="#ArialMT-72"/>
     <use x="255.712890625" xlink:href="#ArialMT-67"/>
     <use x="311.328125" xlink:href="#ArialMT-65"/>
     <use x="366.943359375" xlink:href="#ArialMT-74"/>
     <use x="394.7265625" xlink:href="#ArialMT-20"/>
     <use x="422.509765625" xlink:href="#ArialMT-52"/>
     <use x="494.7265625" xlink:href="#ArialMT-4c"/>
     <use x="550.341796875" xlink:href="#ArialMT-73"/>
     <use x="600.341796875" xlink:href="#ArialMT-2f"/>
     <use x="628.125" xlink:href="#ArialMT-64"/>
     <use x="683.740234375" xlink:href="#ArialMT-69"/>
     <use x="705.95703125" xlink:href="#ArialMT-6d"/>
     <use x="789.2578125" xlink:href="#ArialMT-3a"/>
     <use x="817.041015625" xlink:href="#ArialMT-20"/>
     <use x="844.82421875" xlink:href="#ArialMT-30"/>
     <use x="900.439453125" xlink:href="#ArialMT-2e"/>
     <use x="928.22265625" xlink:href="#ArialMT-35"/>
     <use x="983.837890625" xlink:href="#ArialMT-2e"/>
     <use x="1011.62109375" xlink:href="#ArialMT-2e"/>
     <use x="1039.40429688" xlink:href="#ArialMT-35"/>
     <use x="1095.01953125" xlink:href="#ArialMT-30"/>
    </g>
    <!--    from refalgs/best2009-bbob.tar.gz -->
    <defs>
     <path d="
M5.46875 16.5469
L13.9219 17.3281
Q14.9844 11.375 18.0156 8.6875
Q21.0469 6 25.7812 6
Q29.8281 6 32.875 7.85938
Q35.9375 9.71875 37.8906 12.8125
Q39.8438 15.9219 41.1562 21.1875
Q42.4844 26.4688 42.4844 31.9375
Q42.4844 32.5156 42.4375 33.6875
Q39.7969 29.5 35.2344 26.875
Q30.6719 24.2656 25.3438 24.2656
Q16.4531 24.2656 10.2969 30.7031
Q4.15625 37.1562 4.15625 47.7031
Q4.15625 58.5938 10.5781 65.2344
Q17 71.875 26.6562 71.875
Q33.6406 71.875 39.4219 68.1094
Q45.2188 64.3594 48.2188 57.3906
Q51.2188 50.4375 51.2188 37.25
Q51.2188 23.5312 48.2344 15.4062
Q45.2656 7.28125 39.375 3.03125
Q33.5 -1.21875 25.5938 -1.21875
Q17.1875 -1.21875 11.8594 3.4375
Q6.54688 8.10938 5.46875 16.5469
M41.4531 48.1406
Q41.4531 55.7188 37.4219 60.1562
Q33.4062 64.5938 27.7344 64.5938
Q21.875 64.5938 17.5312 59.8125
Q13.1875 55.0312 13.1875 47.4062
Q13.1875 40.5781 17.3125 36.2969
Q21.4375 32.0312 27.4844 32.0312
Q33.5938 32.0312 37.5156 36.2969
Q41.4531 40.5781 41.4531 48.1406" id="ArialMT-39"/>
     <path d="
M1.95312 0
L1.95312 7.125
L34.9688 45.0156
Q29.3438 44.7344 25.0469 44.7344
L3.90625 44.7344
L3.90625 51.8594
L46.2969 51.8594
L46.2969 46.0469
L18.2188 13.1406
L12.7969 7.125
Q18.7031 7.5625 23.875 7.5625
L47.8594 7.5625
L47.8594 0
z
" id="ArialMT-7a"/>
    </defs>
    <g transform="translate(131.664 67.6851328218)scale(0.1666 -0.1666)">
     <use xlink:href="#ArialMT-20"/>
     <use x="27.783203125" xlink:href="#ArialMT-20"/>
     <use x="55.56640625" xlink:href="#ArialMT-20"/>
     <use x="83.349609375" xlink:href="#ArialMT-66"/>
     <use x="111.1328125" xlink:href="#ArialMT-72"/>
     <use x="144.43359375" xlink:href="#ArialMT-6f"/>
     <use x="200.048828125" xlink:href="#ArialMT-6d"/>
     <use x="283.349609375" xlink:href="#ArialMT-20"/>
     <use x="311.1328125" xlink:href="#ArialMT-72"/>
     <use x="344.43359375" xlink:href="#ArialMT-65"/>
     <use x="400.048828125" xlink:href="#ArialMT-66"/>
     <use x="427.83203125" xlink:href="#ArialMT-61"/>
     <use x="483.447265625" xlink:href="#ArialMT-6c"/>
     <use x="505.6640625" xlink:href="#ArialMT-67"/>
     <use x="561.279296875" xlink:href="#ArialMT-73"/>
     <use x="611.279296875" xlink:href="#ArialMT-2f"/>
     <use x="639.0625" xlink:href="#ArialMT-62"/>
     <use x="694.677734375" xlink:href="#ArialMT-65"/>
     <use x="750.29296875" xlink:href="#ArialMT-73"/>
     <use x="800.29296875" xlink:href="#ArialMT-74"/>
     <use x="828.076171875" xlink:href="#ArialMT-32"/>
     <use x="883.69140625" xlink:href="#ArialMT-30"/>
     <use x="939.306640625" xlink:href="#ArialMT-30"/>
     <use x="994.921875" xlink:href="#ArialMT-39"/>
     <use x="1050.53710938" xlink:href="#ArialMT-2d"/>
     <use x="1083.83789062" xlink:href="#ArialMT-62"/>
     <use x="1139.453125" xlink:href="#ArialMT-62"/>
     <use x="1195.06835938" xlink:href="#ArialMT-6f"/>
     <use x="1250.68359375" xlink:href="#ArialMT-62"/>
     <use x="1306.29882812" xlink:href="#ArialMT-2e"/>
     <use x="1334.08203125" xlink:href="#ArialMT-74"/>
     <use x="1361.86523438" xlink:href="#ArialMT-61"/>
     <use x="1417.48046875" xlink:href="#ArialMT-72"/>
     <use x="1445.28125" xlink:href="#ArialMT-2e"/>
     <use x="1473.06445312" xlink:href="#ArialMT-67"/>
     <use x="1528.6796875" xlink:href="#ArialMT-7a"/>
    </g>
    <!-- 15 instances -->
    <g transform="translate(131.664 85.5014409468)scale(0.1666 -0.1666)">
     <use xlink:href="#ArialMT-31"/>
     <use x="55.615234375" xlink:href="#ArialMT-35"/>
     <use x="111.23046875" xlink:href="#ArialMT-20"/>
     <use x="139.013671875" xlink:href="#ArialMT-69"/>
     <use x="161.23046875" xlink:href="#ArialMT-6e"/>
     <use x="216.845703125" xlink:href="#ArialMT-73"/>
     <use x="266.845703125" xlink:href="#ArialMT-74"/>
     <use x="294.62890625" xlink:href="#ArialMT-61"/>
     <use x="350.244140625" xlink:href="#ArialMT-6e"/>
     <use x="405.859375" xlink:href="#ArialMT-63"/>
     <use x="455.859375" xlink:href="#ArialMT-65"/>
     <use x="511.474609375" xlink:href="#ArialMT-73"/>
    </g>
   </g>
   <g id="text_19">
    <!-- v2.0.1 -->
    <g style="fill:#808080;" transform="translate(337.76171875 353.080030322)scale(0.1 -0.1)">
     <use xlink:href="#ArialMT-76"/>
     <use x="50.0" xlink:href="#ArialMT-32"/>
     <use x="105.615234375" xlink:href="#ArialMT-2e"/>
     <use x="133.3984375" xlink:href="#ArialMT-30"/>
     <use x="189.013671875" xlink:href="#ArialMT-2e"/>
     <use x="216.796875" xlink:href="#ArialMT-31"/>
    </g>
   </g>
  </g>
 </g>
 <defs>
  <clipPath id="p505825120b">
   <rect height="345.6" width="446.4" x="127.2" y="12.9235303218"/>
  </clipPath>
 </defs>
</svg>
