<?xml version="1.0" encoding="utf-8" standalone="no"?>
<!DOCTYPE svg PUBLIC "-//W3C//DTD SVG 1.1//EN"
  "http://www.w3.org/Graphics/SVG/1.1/DTD/svg11.dtd">
<!-- Created with matplotlib (http://matplotlib.org/) -->
<svg height="414pt" version="1.1" viewBox="0 0 544 414" width="544pt" xmlns="http://www.w3.org/2000/svg" xmlns:xlink="http://www.w3.org/1999/xlink">
 <defs>
  <style type="text/css">
*{stroke-linecap:butt;stroke-linejoin:round;}
  </style>
 </defs>
 <g id="figure_1">
  <g id="patch_1">
   <path d="
M0 414.924
L544.676 414.924
L544.676 0
L0 0
z
" style="fill:#ffffff;"/>
  </g>
  <g id="axes_1">
   <g id="patch_2">
    <path d="
M91.0764 358.524
L537.476 358.524
L537.476 12.9235
L91.0764 12.9235
z
" style="fill:#ffffff;"/>
   </g>
   <g id="line2d_1">
    <defs>
     <path d="
M0 1.5
C0.397805 1.5 0.77937 1.34195 1.06066 1.06066
C1.34195 0.77937 1.5 0.397805 1.5 0
C1.5 -0.397805 1.34195 -0.77937 1.06066 -1.06066
C0.77937 -1.34195 0.397805 -1.5 0 -1.5
C-0.397805 -1.5 -0.77937 -1.34195 -1.06066 -1.06066
C-1.34195 -0.77937 -1.5 -0.397805 -1.5 0
C-1.5 0.397805 -1.34195 0.77937 -1.06066 1.06066
C-0.77937 1.34195 -0.397805 1.5 0 1.5
z
" id="m977c291b42" style="stroke:#00bfbf;stroke-width:0.5;"/>
    </defs>
    <g>
     <use style="fill:#00bfbf;stroke:#00bfbf;stroke-width:0.5;" x="494.302154116" xlink:href="#m977c291b42" y="33.0369328816"/>
     <use style="fill:#00bfbf;stroke:#00bfbf;stroke-width:0.5;" x="494.302154116" xlink:href="#m977c291b42" y="33.0369328816"/>
    </g>
   </g>
   <g id="line2d_2">
    <path d="
M54.9528 335.155
L91.0764 335.155
L91.0764 311.787
L112.207 311.787
L112.207 292.592
L127.2 292.592
L127.2 290.922
L138.829 290.922
L138.829 275.9
L148.331 275.9
L148.331 270.893
L156.365 270.893
L156.365 269.223
L163.324 269.223
L163.324 265.885
L169.462 265.885
L169.462 258.374
L174.953 258.374
L174.953 256.705
L179.92 256.705
L179.92 252.532
L184.455 252.532
L184.455 242.517
L188.626 242.517
L188.626 240.848
L192.488 240.848
L192.488 229.998
L196.084 229.998
L196.084 213.306
L199.447 213.306
L199.447 199.953
L202.607 199.953
L202.607 190.773
L205.586 190.773
L205.586 186.6
L208.403 186.6
L208.403 184.096
L211.076 184.096
L211.076 171.577
L213.619 171.577
L213.619 169.908
L218.36 169.908
L218.36 164.901
L220.578 164.901
L220.578 159.893
L222.706 159.893
L222.706 156.555
L224.75 156.555
L224.75 150.713
L228.612 150.713
L228.612 142.367
L230.441 142.367
L230.441 140.698
L233.916 140.698
L233.916 138.194
L235.571 138.194
L235.571 134.856
L237.174 134.856
L237.174 132.352
L244.527 132.352
L244.527 130.683
L245.881 130.683
L245.881 129.014
L247.2 129.014
L247.2 123.172
L250.969 123.172
L250.969 120.668
L255.605 120.668
L255.605 118.164
L258.829 118.164
L258.829 116.495
L259.861 116.495
L259.861 114.826
L260.873 114.826
L260.873 113.991
L262.84 113.991
L262.84 111.488
L263.796 111.488
L263.796 110.653
L264.735 110.653
L264.735 108.984
L265.658 108.984
L265.658 108.149
L266.564 108.149
L266.564 104.811
L270.874 104.811
L270.874 103.142
L277.104 103.142
L277.104 102.307
L279.261 102.307
L279.261 101.473
L280.65 101.473
L280.65 100.638
L284.61 100.638
L284.61 98.9688
L285.242 98.9688
L285.242 98.1343
L288.88 98.1343
L288.88 97.2997
L290.038 97.2997
L290.038 96.4651
L292.28 96.4651
L292.28 94.7959
L294.429 94.7959
L294.429 93.1268
L295.471 93.1268
L295.471 90.623
L297.496 90.623
L297.496 89.7884
L298.479 89.7884
L298.479 88.9539
L299.92 88.9539
L299.92 88.1193
L302.237 88.1193
L302.237 87.2847
L305.316 87.2847
L305.316 84.781
L306.997 84.781
L306.997 83.1118
L307.818 83.1118
L307.818 78.1043
L308.224 78.1043
L308.224 77.2697
L310.593 77.2697
L310.593 75.6006
L312.115 75.6006
L312.115 73.0968
L317.116 73.0968
L317.116 71.4277
L318.792 71.4277
L318.792 68.9239
L323.518 68.9239
L323.518 68.0893
L324.414 68.0893
L324.414 67.2548
L337.446 67.2548
L337.446 66.4202
L337.676 66.4202
L337.676 65.5856
L340.578 65.5856
L340.578 64.751
L340.795 64.751
L340.795 63.9164
L344.145 63.9164
L344.145 63.0818
L350.62 63.0818
L350.62 62.2473
L354.251 62.2473
L354.251 61.4127
L358.73 61.4127
L358.73 60.5781
L361.273 60.5781
L361.273 59.7435
L374.257 59.7435
L374.257 58.9089
L376.266 58.9089
L376.266 58.0744
L376.81 58.0744
L376.81 57.2398
L381.866 57.2398
L381.866 56.4052
L383.985 56.4052
L383.985 55.5706
L384.455 55.5706
L384.455 54.736
L386.564 54.736
L386.564 53.9015
L393.298 53.9015
L393.298 53.0669
L398.694 53.0669
L398.694 52.2323
L402.204 52.2323
L402.204 51.3977
L407.214 51.3977
L407.214 50.5631
L407.695 50.5631
L407.695 49.7286
L408.291 49.7286
L408.291 48.894
L412.553 48.894
L412.553 48.0594
L412.771 48.0594
L412.771 46.3902
L419.396 46.3902
L419.396 45.5556
L422.733 45.5556
L422.733 44.7211
L427.859 44.7211
L427.859 43.8865
L428.143 43.8865
L428.143 43.0519
L428.906 43.0519
L428.906 42.2173
L444.592 42.2173
L444.592 41.3827
L447.99 41.3827
L447.99 40.5482
L451.076 40.5482
L451.076 40.5482" style="fill:none;stroke:#00bfbf;stroke-linecap:square;stroke-width:1.5;"/>
   </g>
   <g id="line2d_3">
    <defs>
     <path d="
M-6 0
L6 0
M0 6
L0 -6" id="m3e4de746de" style="stroke:#00bfbf;stroke-width:1.5;"/>
    </defs>
    <g>
     <use style="fill:none;stroke:#00bfbf;stroke-width:1.5;" x="54.9528010406" xlink:href="#m3e4de746de" y="335.155261788"/>
     <use style="fill:none;stroke:#00bfbf;stroke-width:1.5;" x="163.32359948" xlink:href="#m3e4de746de" y="265.885037204"/>
     <use style="fill:none;stroke:#00bfbf;stroke-width:1.5;" x="213.619116409" xlink:href="#m3e4de746de" y="169.90822001"/>
     <use style="fill:none;stroke:#00bfbf;stroke-width:1.5;" x="277.103802887" xlink:href="#m3e4de746de" y="102.307157465"/>
     <use style="fill:none;stroke:#00bfbf;stroke-width:1.5;" x="384.455424461" xlink:href="#m3e4de746de" y="55.5706203966"/>
     <use style="fill:none;stroke:#00bfbf;stroke-width:1.5;" x="451.07640052" xlink:href="#m3e4de746de" y="40.5481620532"/>
    </g>
   </g>
   <g id="line2d_4"/>
   <g id="line2d_5">
    <path clip-path="url(#p5e7421a262)" d="
M331.336 67.2548" style="fill:none;stroke:#00bfbf;stroke-linecap:square;"/>
    <defs>
     <path d="
M-12 12
L12 -12
M-12 -12
L12 12" id="m09e435d1d9" style="stroke:#00bfbf;stroke-width:3;"/>
    </defs>
    <g clip-path="url(#p5e7421a262)">
     <use style="fill:#00bfbf;stroke:#00bfbf;stroke-width:3;" x="331.336327931" xlink:href="#m09e435d1d9" y="67.2547546637"/>
    </g>
   </g>
   <g id="line2d_6">
    <defs>
     <path d="
M0 1.5
C0.397805 1.5 0.77937 1.34195 1.06066 1.06066
C1.34195 0.77937 1.5 0.397805 1.5 0
C1.5 -0.397805 1.34195 -0.77937 1.06066 -1.06066
C0.77937 -1.34195 0.397805 -1.5 0 -1.5
C-0.397805 -1.5 -0.77937 -1.34195 -1.06066 -1.06066
C-1.34195 -0.77937 -1.5 -0.397805 -1.5 0
C-1.5 0.397805 -1.34195 0.77937 -1.06066 1.06066
C-0.77937 1.34195 -0.397805 1.5 0 1.5
z
" id="mb0b177905e" style="stroke:#008000;stroke-width:0.5;"/>
    </defs>
    <g>
     <use style="fill:#008000;stroke:#008000;stroke-width:0.5;" x="470.596075512" xlink:href="#mb0b177905e" y="32.2605784452"/>
     <use style="fill:#008000;stroke:#008000;stroke-width:0.5;" x="470.596075512" xlink:href="#mb0b177905e" y="32.2605784452"/>
    </g>
   </g>
   <g id="line2d_7">
    <path d="
M69.9454 319.531
L91.0764 319.531
L91.0764 312.369
L106.069 312.369
L106.069 305.207
L117.698 305.207
L117.698 296.454
L127.2 296.454
L127.2 294.067
L135.234 294.067
L135.234 292.475
L142.193 292.475
L142.193 288.496
L148.331 288.496
L148.331 281.334
L153.822 281.334
L153.822 278.947
L158.789 278.947
L158.789 273.377
L163.324 273.377
L163.324 266.215
L171.357 266.215
L171.357 265.419
L174.953 265.419
L174.953 260.645
L178.316 260.645
L178.316 235.976
L181.476 235.976
L181.476 211.307
L184.455 211.307
L184.455 205.737
L187.272 205.737
L187.272 198.575
L189.945 198.575
L189.945 189.822
L192.488 189.822
L192.488 187.434
L194.913 187.434
L194.913 185.843
L197.229 185.843
L197.229 180.273
L199.447 180.273
L199.447 169.928
L201.575 169.928
L201.575 167.54
L203.619 167.54
L203.619 164.357
L205.586 164.357
L205.586 162.766
L207.481 162.766
L207.481 161.174
L209.31 161.174
L209.31 159.583
L212.785 159.583
L212.785 156.4
L216.044 156.4
L216.044 153.217
L222.006 153.217
L222.006 150.829
L224.75 150.829
L224.75 148.442
L227.356 148.442
L227.356 147.646
L228.612 147.646
L228.612 146.85
L229.838 146.85
L229.838 144.463
L233.353 144.463
L233.353 143.667
L235.571 143.667
L235.571 142.076
L236.645 142.076
L236.645 141.28
L238.73 141.28
L238.73 139.689
L239.742 139.689
L239.742 138.893
L241.709 138.893
L241.709 136.506
L243.604 136.506
L243.604 135.71
L244.527 135.71
L244.527 134.118
L246.324 134.118
L246.324 133.323
L247.2 133.323
L247.2 132.527
L248.061 132.527
L248.061 131.731
L248.909 131.731
L248.909 130.139
L250.563 130.139
L250.563 129.344
L256.702 129.344
L256.702 124.569
L260.201 124.569
L260.201 122.978
L261.537 122.978
L261.537 122.182
L262.193 122.182
L262.193 121.386
L264.735 121.386
L264.735 119.795
L270.597 119.795
L270.597 118.203
L271.149 118.203
L271.149 116.611
L273.822 116.611
L273.822 115.816
L274.34 115.816
L274.34 114.224
L275.362 114.224
L275.362 112.633
L277.833 112.633
L277.833 111.837
L280.191 111.837
L280.191 111.041
L281.557 111.041
L281.557 110.245
L282.887 110.245
L282.887 109.45
L283.756 109.45
L283.756 108.654
L284.61 108.654
L284.61 106.267
L286.278 106.267
L286.278 105.471
L286.687 105.471
L286.687 103.084
L287.495 103.084
L287.495 102.288
L288.684 102.288
L288.684 101.492
L289.462 101.492
L289.462 100.696
L289.847 100.696
L289.847 99.1047
L290.984 99.1047
L290.984 97.5132
L292.462 97.5132
L292.462 96.7174
L297.33 96.7174
L297.33 95.9216
L299.603 95.9216
L299.603 93.5344
L304.455 93.5344
L304.455 92.7386
L306.163 92.7386
L306.163 91.1471
L310.977 91.1471
L310.977 89.5555
L311.232 89.5555
L311.232 87.1682
L316.084 87.1682
L316.084 83.9852
L320.095 83.9852
L320.095 82.3937
L320.734 82.3937
L320.734 78.4148
L321.575 78.4148
L321.575 77.6191
L321.99 77.6191
L321.99 76.8233
L322.196 76.8233
L322.196 75.2318
L324.018 75.2318
L324.018 74.436
L325.97 74.436
L325.97 73.6403
L327.667 73.6403
L327.667 72.8445
L327.852 72.8445
L327.852 72.0487
L328.949 72.0487
L328.949 71.253
L330.377 71.253
L330.377 69.6615
L335.087 69.6615
L335.087 68.8657
L335.727 68.8657
L335.727 68.0699
L336.358 68.0699
L336.358 67.2742
L339.11 67.2742
L339.11 66.4784
L340.867 66.4784
L340.867 65.6826
L342.287 65.6826
L342.287 64.8869
L344.616 64.8869
L344.616 64.0911
L345.281 64.0911
L345.281 63.2953
L345.545 63.2953
L345.545 62.4996
L348.612 62.4996
L348.612 61.7038
L349.838 61.7038
L349.838 60.9081
L350.08 60.9081
L350.08 60.1123
L350.799 60.1123
L350.799 59.3165
L353.012 59.3165
L353.012 58.5208
L353.126 58.5208
L353.126 57.725
L353.239 57.725
L353.239 56.9292
L355.679 56.9292
L355.679 56.1335
L358.217 56.1335
L358.217 54.542
L361.613 54.542
L361.613 53.7462
L362.094 53.7462
L362.094 52.9504
L363.043 52.9504
L363.043 52.1547
L363.79 52.1547
L363.79 51.3589
L364.435 51.3589
L364.527 49.7674
L377.705 49.7674
L377.705 48.9716
L377.847 48.9716
L377.918 47.3801
L384.921 47.3801
L384.921 45.7886
L385.045 45.7886
L385.045 44.9928
L386.083 44.9928
L386.083 44.197
L386.803 44.197
L386.803 43.4013
L388.331 43.4013
L388.331 42.6055
L401.691 42.6055
L401.691 41.8097
L402.138 41.8097
L402.138 40.2182
L419.857 40.2182
L419.857 39.4224
L422.957 39.4224
L422.957 38.6267
L423.814 38.6267
L423.814 37.8309
L428.626 37.8309
L428.626 37.0352
L431.309 37.0352
L431.309 36.2394
L431.688 36.2394
L431.688 35.4436
L448.403 35.4436
L448.403 34.6479
L450.253 34.6479
L450.253 33.8521
L451.076 33.8521
L451.076 33.8521" style="fill:none;stroke:#008000;stroke-linecap:square;stroke-width:1.5;"/>
   </g>
   <g id="line2d_8">
    <defs>
     <path d="
M-7.34788e-16 6
L6 -6
L-6 -6
z
" id="m397e16cd68" style="stroke:#008000;stroke-linejoin:miter;stroke-width:1.5;"/>
    </defs>
    <g>
     <use style="fill:none;stroke:#008000;stroke-linejoin:miter;stroke-width:1.5;" x="91.0764005203" xlink:href="#m397e16cd68" y="312.369259081"/>
     <use style="fill:none;stroke:#008000;stroke-linejoin:miter;stroke-width:1.5;" x="178.316247873" xlink:href="#m397e16cd68" y="235.975982544"/>
     <use style="fill:none;stroke:#008000;stroke-linejoin:miter;stroke-width:1.5;" x="228.611764802" xlink:href="#m397e16cd68" y="146.850493251"/>
     <use style="fill:none;stroke:#008000;stroke-linejoin:miter;stroke-width:1.5;" x="310.977470045" xlink:href="#m397e16cd68" y="91.1470624424"/>
     <use style="fill:none;stroke:#008000;stroke-linejoin:miter;stroke-width:1.5;" x="386.80322187" xlink:href="#m397e16cd68" y="44.1970279041"/>
     <use style="fill:none;stroke:#008000;stroke-linejoin:miter;stroke-width:1.5;" x="451.07640052" xlink:href="#m397e16cd68" y="33.8521050397"/>
    </g>
   </g>
   <g id="line2d_9"/>
   <g id="line2d_10">
    <path clip-path="url(#p5e7421a262)" d="
M331.25 69.6615" style="fill:none;stroke:#008000;stroke-linecap:square;"/>
    <defs>
     <path d="
M-12 12
L12 -12
M-12 -12
L12 12" id="m8c089fa6cd" style="stroke:#008000;stroke-width:3;"/>
    </defs>
    <g clip-path="url(#p5e7421a262)">
     <use style="fill:#008000;stroke:#008000;stroke-width:3;" x="331.249829425" xlink:href="#m8c089fa6cd" y="69.6614534164"/>
    </g>
   </g>
   <g id="line2d_11">
    <defs>
     <path d="
M0 1.5
C0.397805 1.5 0.77937 1.34195 1.06066 1.06066
C1.34195 0.77937 1.5 0.397805 1.5 0
C1.5 -0.397805 1.34195 -0.77937 1.06066 -1.06066
C0.77937 -1.34195 0.397805 -1.5 0 -1.5
C-0.397805 -1.5 -0.77937 -1.34195 -1.06066 -1.06066
C-1.34195 -0.77937 -1.5 -0.397805 -1.5 0
C-1.5 0.397805 -1.34195 0.77937 -1.06066 1.06066
C-0.77937 1.34195 -0.397805 1.5 0 1.5
z
" id="m76a7ce5b4a" style="stroke:#0000ff;stroke-width:0.5;"/>
    </defs>
    <g>
     <use style="fill:#0000ff;stroke:#0000ff;stroke-width:0.5;" x="500.897249961" xlink:href="#m76a7ce5b4a" y="44.0894923234"/>
     <use style="fill:#0000ff;stroke:#0000ff;stroke-width:0.5;" x="500.897249961" xlink:href="#m76a7ce5b4a" y="44.0894923234"/>
    </g>
   </g>
   <g id="line2d_12">
    <path d="
M79.4472 330.779
L91.0764 330.779
L91.0764 328.93
L100.578 328.93
L100.578 327.08
L115.571 327.08
L115.571 325.231
L121.709 325.231
L121.709 322.456
L127.2 322.456
L127.2 317.832
L132.167 317.832
L132.167 316.907
L136.702 316.907
L136.702 308.584
L144.735 308.584
L144.735 307.659
L151.694 307.659
L151.694 303.035
L154.854 303.035
L154.854 301.186
L160.65 301.186
L160.65 287.313
L163.324 287.313
L163.324 279.915
L165.866 279.915
L165.866 272.517
L168.291 272.517
L168.291 268.817
L170.607 268.817
L170.607 267.893
L172.825 267.893
L172.825 264.193
L174.953 264.193
L174.953 260.494
L176.997 260.494
L176.997 257.72
L178.964 257.72
L178.964 252.171
L180.859 252.171
L180.859 246.622
L182.688 246.622
L182.688 245.697
L184.455 245.697
L184.455 241.073
L186.163 241.073
L186.163 237.374
L187.818 237.374
L187.818 235.524
L189.422 235.524
L189.422 229.051
L190.977 229.051
L190.977 228.126
L192.488 228.126
L192.488 225.351
L193.956 225.351
L193.956 222.577
L195.384 222.577
L195.384 221.652
L196.774 221.652
L196.774 218.878
L198.128 218.878
L198.128 216.103
L199.447 216.103
L199.447 215.179
L200.734 215.179
L200.734 212.404
L201.99 212.404
L201.99 211.479
L203.216 211.479
L203.216 210.555
L206.731 210.555
L206.731 209.63
L207.852 209.63
L207.852 206.855
L208.949 206.855
L208.949 205.006
L211.076 205.006
L211.076 203.156
L212.108 203.156
L212.108 195.758
L213.12 195.758
L213.12 193.908
L215.087 193.908
L215.087 192.983
L216.983 192.983
L216.983 192.058
L217.905 192.058
L217.905 190.209
L220.578 190.209
L220.578 186.51
L226.329 186.51
L226.329 184.66
L227.862 184.66
L227.862 183.735
L230.08 183.735
L230.08 182.81
L232.207 182.81
L232.207 181.886
L232.898 181.886
L232.898 180.036
L233.579 180.036
L233.579 178.186
L238.114 178.186
L238.114 176.337
L246.676 176.337
L246.676 173.562
L248.232 173.562
L248.232 172.638
L248.74 172.638
L248.74 171.713
L249.244 171.713
L249.244 167.089
L252.167 167.089
L252.167 165.239
L257.989 165.239
L257.989 163.389
L258.829 163.389
L258.829 162.465
L261.273 162.465
L261.273 161.54
L262.453 161.54
L262.453 155.991
L262.84 155.991
L262.84 154.141
L263.606 154.141
L263.606 153.217
L267.982 153.217
L267.982 151.367
L269.021 151.367
L269.021 150.442
L270.04 150.442
L270.04 148.593
L271.368 148.593
L271.368 147.668
L272.663 147.668
L272.663 145.818
L273.298 145.818
L273.298 144.893
L276.365 144.893
L276.365 142.119
L278.121 142.119
L278.121 140.269
L280.099 140.269
L280.099 139.345
L280.65 139.345
L280.65 137.495
L287.815 137.495
L287.815 135.645
L288.527 135.645
L288.527 133.796
L290.152 133.796
L290.152 131.021
L291.728 131.021
L291.728 130.096
L297.197 130.096
L297.197 129.172
L297.396 129.172
L297.396 126.397
L298.381 126.397
L298.381 124.548
L300.298 124.548
L300.298 123.623
L307.327 123.623
L307.327 122.698
L308.304 122.698
L308.304 120.848
L308.946 120.848
L308.946 119.924
L309.893 119.924
L309.893 118.074
L311.283 118.074
L311.283 117.149
L312.04 117.149
L312.04 116.224
L313.956 116.224
L313.956 115.3
L314.245 115.3
L314.245 113.45
L314.532 113.45
L314.532 112.525
L318.394 112.525
L318.394 111.6
L319.186 111.6
L319.186 110.676
L321.366 110.676
L321.366 109.751
L321.491 109.751
L321.491 108.826
L323.458 108.826
L323.458 107.901
L324.177 107.901
L324.177 106.976
L324.886 106.976
L324.886 106.051
L325.47 106.051
L325.47 105.127
L327.182 105.127
L327.182 103.277
L327.63 103.277
L327.63 102.352
L331.284 102.352
L331.284 101.427
L336.609 101.427
L336.609 100.503
L338.088 100.503
L338.179 98.653
L338.269 98.653
L338.269 97.7282
L343.778 97.7282
L343.778 96.8034
L345.624 96.8034
L345.703 94.9538
L346.871 94.9538
L346.871 94.029
L348.163 94.029
L348.163 93.1042
L350.727 93.1042
L350.727 92.1794
L353.103 92.1794
L353.103 91.2546
L355.831 91.2546
L355.831 90.3298
L357.927 90.3298
L357.989 88.4802
L358.608 88.4802
L358.608 87.5554
L359.762 87.5554
L359.762 86.6306
L360.241 86.6306
L360.241 85.7058
L361.302 85.7058
L361.302 84.781
L365.018 84.781
L365.018 83.8562
L365.505 83.8562
L365.559 82.0065
L372.498 82.0065
L372.498 81.0817
L374.89 81.0817
L374.89 80.1569
L376.09 80.1569
L376.09 79.2321
L378.326 79.2321
L378.326 77.3825
L384.512 77.3825
L384.512 76.4577
L385.511 76.4577
L385.511 75.5329
L386.994 75.5329
L386.994 74.6081
L387.842 74.6081
L387.842 73.6833
L388.504 73.6833
L388.504 72.7585
L396.066 72.7585
L396.066 71.8337
L400.486 71.8337
L400.486 70.9089
L401.169 70.9089
L401.169 69.9841
L402.084 69.9841
L402.084 69.0593
L402.509 69.0593
L402.589 67.2096
L409.276 67.2096
L409.3 65.36
L414.176 65.36
L414.176 64.4352
L424.001 64.4352
L424.018 62.5856
L431.949 62.5856
L431.949 61.6608
L432.13 61.6608
L432.175 59.8112
L442.558 59.8112
L442.558 58.8864
L445.33 58.8864
L445.33 57.9616
L449.714 57.9616
L449.714 57.0368
L451.076 57.0368
L451.076 57.0368" style="fill:none;stroke:#0000ff;stroke-linecap:square;stroke-width:1.5;"/>
   </g>
   <g id="line2d_13">
    <defs>
     <path d="
M3.67394e-16 -6
L-1.34708 -1.8541
L-5.70634 -1.8541
L-2.17963 0.708204
L-3.52671 4.8541
L-4.20996e-16 2.2918
L3.52671 4.8541
L2.17963 0.708204
L5.70634 -1.8541
L1.34708 -1.8541
z
" id="m0933169453" style="stroke:#0000ff;stroke-linejoin:bevel;stroke-width:1.5;"/>
    </defs>
    <g>
     <use style="fill:none;stroke:#0000ff;stroke-linejoin:bevel;stroke-width:1.5;" x="91.0764005203" xlink:href="#m0933169453" y="330.779350498"/>
     <use style="fill:none;stroke:#0000ff;stroke-linejoin:bevel;stroke-width:1.5;" x="160.650432114" xlink:href="#m0933169453" y="287.313468775"/>
     <use style="fill:none;stroke:#0000ff;stroke-linejoin:bevel;stroke-width:1.5;" x="226.328976324" xlink:href="#m0933169453" y="184.660003429"/>
     <use style="fill:none;stroke:#0000ff;stroke-linejoin:bevel;stroke-width:1.5;" x="324.885956414" xlink:href="#m0933169453" y="106.051493929"/>
     <use style="fill:none;stroke:#0000ff;stroke-linejoin:bevel;stroke-width:1.5;" x="424.018436408" xlink:href="#m0933169453" y="62.5856122056"/>
     <use style="fill:none;stroke:#0000ff;stroke-linejoin:bevel;stroke-width:1.5;" x="451.07640052" xlink:href="#m0933169453" y="57.036776241"/>
    </g>
   </g>
   <g id="line2d_14"/>
   <g id="line2d_15">
    <path clip-path="url(#p5e7421a262)" d="
M331.181 102.352" style="fill:none;stroke:#0000ff;stroke-linecap:square;"/>
    <defs>
     <path d="
M-12 12
L12 -12
M-12 -12
L12 12" id="ma4a355cd2c" style="stroke:#0000ff;stroke-width:3;"/>
    </defs>
    <g clip-path="url(#p5e7421a262)">
     <use style="fill:#0000ff;stroke:#0000ff;stroke-width:3;" x="331.180527104" xlink:href="#ma4a355cd2c" y="102.352269953"/>
    </g>
   </g>
   <g id="line2d_16">
    <path d="
M451.076 57.0368
L490.676 351.68" style="fill:none;stroke:#0000ff;stroke-linecap:square;stroke-width:1.5;"/>
    <g>
     <use style="fill:none;stroke:#0000ff;stroke-linejoin:bevel;stroke-width:1.5;" x="451.07640052" xlink:href="#m0933169453" y="57.036776241"/>
     <use style="fill:none;stroke:#0000ff;stroke-linejoin:bevel;stroke-width:1.5;" x="490.67640052" xlink:href="#m0933169453" y="351.679965965"/>
    </g>
   </g>
   <g id="line2d_17">
    <path d="
M451.076 40.5482
L490.676 187.434" style="fill:none;stroke:#00bfbf;stroke-linecap:square;stroke-width:1.5;"/>
    <g>
     <use style="fill:none;stroke:#00bfbf;stroke-width:1.5;" x="451.07640052" xlink:href="#m3e4de746de" y="40.5481620532"/>
     <use style="fill:none;stroke:#00bfbf;stroke-width:1.5;" x="490.67640052" xlink:href="#m3e4de746de" y="187.434421411"/>
    </g>
   </g>
   <g id="line2d_18">
    <path d="
M451.076 33.8521
L490.676 23.1889" style="fill:none;stroke:#008000;stroke-linecap:square;stroke-width:1.5;"/>
    <g>
     <use style="fill:none;stroke:#008000;stroke-linejoin:miter;stroke-width:1.5;" x="451.07640052" xlink:href="#m397e16cd68" y="33.8521050397"/>
     <use style="fill:none;stroke:#008000;stroke-linejoin:miter;stroke-width:1.5;" x="490.67640052" xlink:href="#m397e16cd68" y="23.1888768564"/>
    </g>
   </g>
   <g id="line2d_19">
    <path d="
M451.076 358.524
L451.076 16.3453" style="fill:none;stroke:#000000;stroke-linecap:square;"/>
   </g>
   <g id="matplotlib.axis_1">
    <g id="xtick_1">
     <g id="line2d_20">
      <path clip-path="url(#p5e7421a262)" d="
M91.0764 358.524
L91.0764 12.9235" style="fill:none;stroke:#000000;stroke-dasharray:1.000000,3.000000;stroke-dashoffset:0.0;stroke-width:0.5;"/>
     </g>
     <g id="line2d_21">
      <defs>
       <path d="
M0 0
L0 -4" id="m93b0483c22" style="stroke:#000000;stroke-width:0.5;"/>
      </defs>
      <g>
       <use style="stroke:#000000;stroke-width:0.5;" x="91.0764005203" xlink:href="#m93b0483c22" y="358.523530322"/>
      </g>
     </g>
     <g id="line2d_22">
      <defs>
       <path d="
M0 0
L0 4" id="m741efc42ff" style="stroke:#000000;stroke-width:0.5;"/>
      </defs>
      <g>
       <use style="stroke:#000000;stroke-width:0.5;" x="91.0764005203" xlink:href="#m741efc42ff" y="12.9235303218"/>
      </g>
     </g>
     <g id="text_1">
      <!-- 0 -->
      <defs>
       <path d="
M4.15625 35.2969
Q4.15625 48 6.76562 55.7344
Q9.375 63.4844 14.5156 67.6719
Q19.6719 71.875 27.4844 71.875
Q33.25 71.875 37.5938 69.5469
Q41.9375 67.2344 44.7656 62.8594
Q47.6094 58.5 49.2188 52.2188
Q50.8281 45.9531 50.8281 35.2969
Q50.8281 22.7031 48.2344 14.9688
Q45.6562 7.23438 40.5 3
Q35.3594 -1.21875 27.4844 -1.21875
Q17.1406 -1.21875 11.2344 6.20312
Q4.15625 15.1406 4.15625 35.2969
M13.1875 35.2969
Q13.1875 17.6719 17.3125 11.8281
Q21.4375 6 27.4844 6
Q33.5469 6 37.6719 11.8594
Q41.7969 17.7188 41.7969 35.2969
Q41.7969 52.9844 37.6719 58.7812
Q33.5469 64.5938 27.3906 64.5938
Q21.3438 64.5938 17.7188 59.4688
Q13.1875 52.9375 13.1875 35.2969" id="ArialMT-30"/>
      </defs>
      <g transform="translate(86.4092130203 376.839155322)scale(0.2 -0.2)">
       <use xlink:href="#ArialMT-30"/>
      </g>
     </g>
    </g>
    <g id="xtick_2">
     <g id="line2d_23">
      <path clip-path="url(#p5e7421a262)" d="
M211.076 358.524
L211.076 12.9235" style="fill:none;stroke:#000000;stroke-dasharray:1.000000,3.000000;stroke-dashoffset:0.0;stroke-width:0.5;"/>
     </g>
     <g id="line2d_24">
      <g>
       <use style="stroke:#000000;stroke-width:0.5;" x="211.07640052" xlink:href="#m93b0483c22" y="358.523530322"/>
      </g>
     </g>
     <g id="line2d_25">
      <g>
       <use style="stroke:#000000;stroke-width:0.5;" x="211.07640052" xlink:href="#m741efc42ff" y="12.9235303218"/>
      </g>
     </g>
     <g id="text_2">
      <!-- 1 -->
      <defs>
       <path d="
M37.25 0
L28.4688 0
L28.4688 56
Q25.2969 52.9844 20.1406 49.9531
Q14.9844 46.9219 10.8906 45.4062
L10.8906 53.9062
Q18.2656 57.375 23.7812 62.2969
Q29.2969 67.2344 31.5938 71.875
L37.25 71.875
z
" id="ArialMT-31"/>
      </defs>
      <g transform="translate(208.44046302 376.839155322)scale(0.2 -0.2)">
       <use xlink:href="#ArialMT-31"/>
      </g>
     </g>
    </g>
    <g id="xtick_3">
     <g id="line2d_26">
      <path clip-path="url(#p5e7421a262)" d="
M331.076 358.524
L331.076 12.9235" style="fill:none;stroke:#000000;stroke-dasharray:1.000000,3.000000;stroke-dashoffset:0.0;stroke-width:0.5;"/>
     </g>
     <g id="line2d_27">
      <g>
       <use style="stroke:#000000;stroke-width:0.5;" x="331.07640052" xlink:href="#m93b0483c22" y="358.523530322"/>
      </g>
     </g>
     <g id="line2d_28">
      <g>
       <use style="stroke:#000000;stroke-width:0.5;" x="331.07640052" xlink:href="#m741efc42ff" y="12.9235303218"/>
      </g>
     </g>
     <g id="text_3">
      <!-- 2 -->
      <defs>
       <path d="
M50.3438 8.45312
L50.3438 0
L3.03125 0
Q2.9375 3.17188 4.04688 6.10938
Q5.85938 10.9375 9.82812 15.625
Q13.8125 20.3125 21.3438 26.4688
Q33.0156 36.0312 37.1094 41.625
Q41.2188 47.2188 41.2188 52.2031
Q41.2188 57.4219 37.4688 61
Q33.7344 64.5938 27.7344 64.5938
Q21.3906 64.5938 17.5781 60.7812
Q13.7656 56.9844 13.7188 50.25
L4.6875 51.1719
Q5.60938 61.2812 11.6562 66.5781
Q17.7188 71.875 27.9375 71.875
Q38.2344 71.875 44.2344 66.1562
Q50.25 60.4531 50.25 52
Q50.25 47.7031 48.4844 43.5469
Q46.7344 39.4062 42.6562 34.8125
Q38.5781 30.2188 29.1094 22.2188
Q21.1875 15.5781 18.9375 13.2031
Q16.7031 10.8438 15.2344 8.45312
z
" id="ArialMT-32"/>
      </defs>
      <g transform="translate(326.33577552 376.839155322)scale(0.2 -0.2)">
       <use xlink:href="#ArialMT-32"/>
      </g>
     </g>
    </g>
    <g id="xtick_4">
     <g id="line2d_29">
      <path clip-path="url(#p5e7421a262)" d="
M451.076 358.524
L451.076 12.9235" style="fill:none;stroke:#000000;stroke-dasharray:1.000000,3.000000;stroke-dashoffset:0.0;stroke-width:0.5;"/>
     </g>
     <g id="line2d_30">
      <g>
       <use style="stroke:#000000;stroke-width:0.5;" x="451.07640052" xlink:href="#m93b0483c22" y="358.523530322"/>
      </g>
     </g>
     <g id="line2d_31">
      <g>
       <use style="stroke:#000000;stroke-width:0.5;" x="451.07640052" xlink:href="#m741efc42ff" y="12.9235303218"/>
      </g>
     </g>
     <g id="text_4">
      <!-- 3 -->
      <defs>
       <path d="
M4.20312 18.8906
L12.9844 20.0625
Q14.5 12.5938 18.1406 9.29688
Q21.7812 6 27 6
Q33.2031 6 37.4688 10.2969
Q41.75 14.5938 41.75 20.9531
Q41.75 27 37.7969 30.9219
Q33.8438 34.8594 27.7344 34.8594
Q25.25 34.8594 21.5312 33.8906
L22.5156 41.6094
Q23.3906 41.5 23.9219 41.5
Q29.5469 41.5 34.0312 44.4219
Q38.5312 47.3594 38.5312 53.4688
Q38.5312 58.2969 35.25 61.4688
Q31.9844 64.6562 26.8125 64.6562
Q21.6875 64.6562 18.2656 61.4219
Q14.8438 58.2031 13.875 51.7656
L5.07812 53.3281
Q6.6875 62.1562 12.3906 67.0156
Q18.1094 71.875 26.6094 71.875
Q32.4688 71.875 37.3906 69.3594
Q42.3281 66.8438 44.9375 62.5
Q47.5625 58.1562 47.5625 53.2656
Q47.5625 48.6406 45.0625 44.8281
Q42.5781 41.0156 37.7031 38.7656
Q44.0469 37.3125 47.5625 32.6875
Q51.0781 28.0781 51.0781 21.1406
Q51.0781 11.7656 44.2344 5.25
Q37.4062 -1.26562 26.9531 -1.26562
Q17.5312 -1.26562 11.2969 4.34375
Q5.07812 9.96875 4.20312 18.8906" id="ArialMT-33"/>
      </defs>
      <g transform="translate(446.38890052 376.839155322)scale(0.2 -0.2)">
       <use xlink:href="#ArialMT-33"/>
      </g>
     </g>
    </g>
    <g id="xtick_5">
     <g id="line2d_32">
      <defs>
       <path d="
M0 0
L0 -2" id="m177f7580d0" style="stroke:#000000;stroke-width:0.5;"/>
      </defs>
      <g>
       <use style="stroke:#000000;stroke-width:0.5;" x="127.2" xlink:href="#m177f7580d0" y="358.523530322"/>
      </g>
     </g>
     <g id="line2d_33">
      <defs>
       <path d="
M0 0
L0 2" id="m5284c7e2a0" style="stroke:#000000;stroke-width:0.5;"/>
      </defs>
      <g>
       <use style="stroke:#000000;stroke-width:0.5;" x="127.2" xlink:href="#m5284c7e2a0" y="12.9235303218"/>
      </g>
     </g>
    </g>
    <g id="xtick_6">
     <g id="line2d_34">
      <g>
       <use style="stroke:#000000;stroke-width:0.5;" x="148.330951087" xlink:href="#m177f7580d0" y="358.523530322"/>
      </g>
     </g>
     <g id="line2d_35">
      <g>
       <use style="stroke:#000000;stroke-width:0.5;" x="148.330951087" xlink:href="#m5284c7e2a0" y="12.9235303218"/>
      </g>
     </g>
    </g>
    <g id="xtick_7">
     <g id="line2d_36">
      <g>
       <use style="stroke:#000000;stroke-width:0.5;" x="163.32359948" xlink:href="#m177f7580d0" y="358.523530322"/>
      </g>
     </g>
     <g id="line2d_37">
      <g>
       <use style="stroke:#000000;stroke-width:0.5;" x="163.32359948" xlink:href="#m5284c7e2a0" y="12.9235303218"/>
      </g>
     </g>
    </g>
    <g id="xtick_8">
     <g id="line2d_38">
      <g>
       <use style="stroke:#000000;stroke-width:0.5;" x="174.952801041" xlink:href="#m177f7580d0" y="358.523530322"/>
      </g>
     </g>
     <g id="line2d_39">
      <g>
       <use style="stroke:#000000;stroke-width:0.5;" x="174.952801041" xlink:href="#m5284c7e2a0" y="12.9235303218"/>
      </g>
     </g>
    </g>
    <g id="xtick_9">
     <g id="line2d_40">
      <g>
       <use style="stroke:#000000;stroke-width:0.5;" x="184.454550566" xlink:href="#m177f7580d0" y="358.523530322"/>
      </g>
     </g>
     <g id="line2d_41">
      <g>
       <use style="stroke:#000000;stroke-width:0.5;" x="184.454550566" xlink:href="#m5284c7e2a0" y="12.9235303218"/>
      </g>
     </g>
    </g>
    <g id="xtick_10">
     <g id="line2d_42">
      <g>
       <use style="stroke:#000000;stroke-width:0.5;" x="192.488165322" xlink:href="#m177f7580d0" y="358.523530322"/>
      </g>
     </g>
     <g id="line2d_43">
      <g>
       <use style="stroke:#000000;stroke-width:0.5;" x="192.488165322" xlink:href="#m5284c7e2a0" y="12.9235303218"/>
      </g>
     </g>
    </g>
    <g id="xtick_11">
     <g id="line2d_44">
      <g>
       <use style="stroke:#000000;stroke-width:0.5;" x="199.447198959" xlink:href="#m177f7580d0" y="358.523530322"/>
      </g>
     </g>
     <g id="line2d_45">
      <g>
       <use style="stroke:#000000;stroke-width:0.5;" x="199.447198959" xlink:href="#m5284c7e2a0" y="12.9235303218"/>
      </g>
     </g>
    </g>
    <g id="xtick_12">
     <g id="line2d_46">
      <g>
       <use style="stroke:#000000;stroke-width:0.5;" x="205.585501653" xlink:href="#m177f7580d0" y="358.523530322"/>
      </g>
     </g>
     <g id="line2d_47">
      <g>
       <use style="stroke:#000000;stroke-width:0.5;" x="205.585501653" xlink:href="#m5284c7e2a0" y="12.9235303218"/>
      </g>
     </g>
    </g>
    <g id="xtick_13">
     <g id="line2d_48">
      <g>
       <use style="stroke:#000000;stroke-width:0.5;" x="247.2" xlink:href="#m177f7580d0" y="358.523530322"/>
      </g>
     </g>
     <g id="line2d_49">
      <g>
       <use style="stroke:#000000;stroke-width:0.5;" x="247.2" xlink:href="#m5284c7e2a0" y="12.9235303218"/>
      </g>
     </g>
    </g>
    <g id="xtick_14">
     <g id="line2d_50">
      <g>
       <use style="stroke:#000000;stroke-width:0.5;" x="268.330951087" xlink:href="#m177f7580d0" y="358.523530322"/>
      </g>
     </g>
     <g id="line2d_51">
      <g>
       <use style="stroke:#000000;stroke-width:0.5;" x="268.330951087" xlink:href="#m5284c7e2a0" y="12.9235303218"/>
      </g>
     </g>
    </g>
    <g id="xtick_15">
     <g id="line2d_52">
      <g>
       <use style="stroke:#000000;stroke-width:0.5;" x="283.32359948" xlink:href="#m177f7580d0" y="358.523530322"/>
      </g>
     </g>
     <g id="line2d_53">
      <g>
       <use style="stroke:#000000;stroke-width:0.5;" x="283.32359948" xlink:href="#m5284c7e2a0" y="12.9235303218"/>
      </g>
     </g>
    </g>
    <g id="xtick_16">
     <g id="line2d_54">
      <g>
       <use style="stroke:#000000;stroke-width:0.5;" x="294.952801041" xlink:href="#m177f7580d0" y="358.523530322"/>
      </g>
     </g>
     <g id="line2d_55">
      <g>
       <use style="stroke:#000000;stroke-width:0.5;" x="294.952801041" xlink:href="#m5284c7e2a0" y="12.9235303218"/>
      </g>
     </g>
    </g>
    <g id="xtick_17">
     <g id="line2d_56">
      <g>
       <use style="stroke:#000000;stroke-width:0.5;" x="304.454550566" xlink:href="#m177f7580d0" y="358.523530322"/>
      </g>
     </g>
     <g id="line2d_57">
      <g>
       <use style="stroke:#000000;stroke-width:0.5;" x="304.454550566" xlink:href="#m5284c7e2a0" y="12.9235303218"/>
      </g>
     </g>
    </g>
    <g id="xtick_18">
     <g id="line2d_58">
      <g>
       <use style="stroke:#000000;stroke-width:0.5;" x="312.488165322" xlink:href="#m177f7580d0" y="358.523530322"/>
      </g>
     </g>
     <g id="line2d_59">
      <g>
       <use style="stroke:#000000;stroke-width:0.5;" x="312.488165322" xlink:href="#m5284c7e2a0" y="12.9235303218"/>
      </g>
     </g>
    </g>
    <g id="xtick_19">
     <g id="line2d_60">
      <g>
       <use style="stroke:#000000;stroke-width:0.5;" x="319.447198959" xlink:href="#m177f7580d0" y="358.523530322"/>
      </g>
     </g>
     <g id="line2d_61">
      <g>
       <use style="stroke:#000000;stroke-width:0.5;" x="319.447198959" xlink:href="#m5284c7e2a0" y="12.9235303218"/>
      </g>
     </g>
    </g>
    <g id="xtick_20">
     <g id="line2d_62">
      <g>
       <use style="stroke:#000000;stroke-width:0.5;" x="325.585501653" xlink:href="#m177f7580d0" y="358.523530322"/>
      </g>
     </g>
     <g id="line2d_63">
      <g>
       <use style="stroke:#000000;stroke-width:0.5;" x="325.585501653" xlink:href="#m5284c7e2a0" y="12.9235303218"/>
      </g>
     </g>
    </g>
    <g id="xtick_21">
     <g id="line2d_64">
      <g>
       <use style="stroke:#000000;stroke-width:0.5;" x="367.2" xlink:href="#m177f7580d0" y="358.523530322"/>
      </g>
     </g>
     <g id="line2d_65">
      <g>
       <use style="stroke:#000000;stroke-width:0.5;" x="367.2" xlink:href="#m5284c7e2a0" y="12.9235303218"/>
      </g>
     </g>
    </g>
    <g id="xtick_22">
     <g id="line2d_66">
      <g>
       <use style="stroke:#000000;stroke-width:0.5;" x="388.330951087" xlink:href="#m177f7580d0" y="358.523530322"/>
      </g>
     </g>
     <g id="line2d_67">
      <g>
       <use style="stroke:#000000;stroke-width:0.5;" x="388.330951087" xlink:href="#m5284c7e2a0" y="12.9235303218"/>
      </g>
     </g>
    </g>
    <g id="xtick_23">
     <g id="line2d_68">
      <g>
       <use style="stroke:#000000;stroke-width:0.5;" x="403.32359948" xlink:href="#m177f7580d0" y="358.523530322"/>
      </g>
     </g>
     <g id="line2d_69">
      <g>
       <use style="stroke:#000000;stroke-width:0.5;" x="403.32359948" xlink:href="#m5284c7e2a0" y="12.9235303218"/>
      </g>
     </g>
    </g>
    <g id="xtick_24">
     <g id="line2d_70">
      <g>
       <use style="stroke:#000000;stroke-width:0.5;" x="414.952801041" xlink:href="#m177f7580d0" y="358.523530322"/>
      </g>
     </g>
     <g id="line2d_71">
      <g>
       <use style="stroke:#000000;stroke-width:0.5;" x="414.952801041" xlink:href="#m5284c7e2a0" y="12.9235303218"/>
      </g>
     </g>
    </g>
    <g id="xtick_25">
     <g id="line2d_72">
      <g>
       <use style="stroke:#000000;stroke-width:0.5;" x="424.454550566" xlink:href="#m177f7580d0" y="358.523530322"/>
      </g>
     </g>
     <g id="line2d_73">
      <g>
       <use style="stroke:#000000;stroke-width:0.5;" x="424.454550566" xlink:href="#m5284c7e2a0" y="12.9235303218"/>
      </g>
     </g>
    </g>
    <g id="xtick_26">
     <g id="line2d_74">
      <g>
       <use style="stroke:#000000;stroke-width:0.5;" x="432.488165322" xlink:href="#m177f7580d0" y="358.523530322"/>
      </g>
     </g>
     <g id="line2d_75">
      <g>
       <use style="stroke:#000000;stroke-width:0.5;" x="432.488165322" xlink:href="#m5284c7e2a0" y="12.9235303218"/>
      </g>
     </g>
    </g>
    <g id="xtick_27">
     <g id="line2d_76">
      <g>
       <use style="stroke:#000000;stroke-width:0.5;" x="439.447198959" xlink:href="#m177f7580d0" y="358.523530322"/>
      </g>
     </g>
     <g id="line2d_77">
      <g>
       <use style="stroke:#000000;stroke-width:0.5;" x="439.447198959" xlink:href="#m5284c7e2a0" y="12.9235303218"/>
      </g>
     </g>
    </g>
    <g id="xtick_28">
     <g id="line2d_78">
      <g>
       <use style="stroke:#000000;stroke-width:0.5;" x="445.585501653" xlink:href="#m177f7580d0" y="358.523530322"/>
      </g>
     </g>
     <g id="line2d_79">
      <g>
       <use style="stroke:#000000;stroke-width:0.5;" x="445.585501653" xlink:href="#m5284c7e2a0" y="12.9235303218"/>
      </g>
     </g>
    </g>
    <g id="xtick_29">
     <g id="line2d_80">
      <g>
       <use style="stroke:#000000;stroke-width:0.5;" x="487.2" xlink:href="#m177f7580d0" y="358.523530322"/>
      </g>
     </g>
     <g id="line2d_81">
      <g>
       <use style="stroke:#000000;stroke-width:0.5;" x="487.2" xlink:href="#m5284c7e2a0" y="12.9235303218"/>
      </g>
     </g>
    </g>
    <g id="xtick_30">
     <g id="line2d_82">
      <g>
       <use style="stroke:#000000;stroke-width:0.5;" x="508.330951087" xlink:href="#m177f7580d0" y="358.523530322"/>
      </g>
     </g>
     <g id="line2d_83">
      <g>
       <use style="stroke:#000000;stroke-width:0.5;" x="508.330951087" xlink:href="#m5284c7e2a0" y="12.9235303218"/>
      </g>
     </g>
    </g>
    <g id="xtick_31">
     <g id="line2d_84">
      <g>
       <use style="stroke:#000000;stroke-width:0.5;" x="523.32359948" xlink:href="#m177f7580d0" y="358.523530322"/>
      </g>
     </g>
     <g id="line2d_85">
      <g>
       <use style="stroke:#000000;stroke-width:0.5;" x="523.32359948" xlink:href="#m5284c7e2a0" y="12.9235303218"/>
      </g>
     </g>
    </g>
    <g id="xtick_32">
     <g id="line2d_86">
      <g>
       <use style="stroke:#000000;stroke-width:0.5;" x="534.952801041" xlink:href="#m177f7580d0" y="358.523530322"/>
      </g>
     </g>
     <g id="line2d_87">
      <g>
       <use style="stroke:#000000;stroke-width:0.5;" x="534.952801041" xlink:href="#m5284c7e2a0" y="12.9235303218"/>
      </g>
     </g>
    </g>
    <g id="text_5">
     <!-- log10 of (# f-evals / dimension) -->
     <defs>
      <path d="
M12.3594 -21.0469
L6.0625 -21.0469
Q20.6562 2.39062 20.6562 25.875
Q20.6562 35.0625 18.5625 44.0938
Q16.8906 51.4219 13.9219 58.1562
Q12.0156 62.5469 6.0625 72.7969
L12.3594 72.7969
Q21.5312 60.5469 25.9219 48.1875
Q29.6875 37.5469 29.6875 25.9219
Q29.6875 12.75 24.625 0.4375
Q19.5781 -11.8594 12.3594 -21.0469" id="ArialMT-29"/>
      <path d="
M40.4375 6.39062
Q35.5469 2.25 31.0312 0.53125
Q26.5156 -1.17188 21.3438 -1.17188
Q12.7969 -1.17188 8.20312 3
Q3.60938 7.17188 3.60938 13.6719
Q3.60938 17.4844 5.34375 20.625
Q7.07812 23.7812 9.89062 25.6875
Q12.7031 27.5938 16.2188 28.5625
Q18.7969 29.25 24.0312 29.8906
Q34.6719 31.1562 39.7031 32.9062
Q39.75 34.7188 39.75 35.2031
Q39.75 40.5781 37.25 42.7812
Q33.8906 45.75 27.25 45.75
Q21.0469 45.75 18.0938 43.5781
Q15.1406 41.4062 13.7188 35.8906
L5.125 37.0625
Q6.29688 42.5781 8.98438 45.9688
Q11.6719 49.3594 16.75 51.1875
Q21.8281 53.0312 28.5156 53.0312
Q35.1562 53.0312 39.2969 51.4688
Q43.4531 49.9062 45.4062 47.5312
Q47.3594 45.1719 48.1406 41.5469
Q48.5781 39.3125 48.5781 33.4531
L48.5781 21.7344
Q48.5781 9.46875 49.1406 6.21875
Q49.7031 2.98438 51.375 0
L42.1875 0
Q40.8281 2.73438 40.4375 6.39062
M39.7031 26.0312
Q34.9062 24.0781 25.3438 22.7031
Q19.9219 21.9219 17.6719 20.9375
Q15.4375 19.9688 14.2031 18.0938
Q12.9844 16.2188 12.9844 13.9219
Q12.9844 10.4062 15.6406 8.0625
Q18.3125 5.71875 23.4375 5.71875
Q28.5156 5.71875 32.4688 7.9375
Q36.4219 10.1562 38.2812 14.0156
Q39.7031 17 39.7031 22.7969
z
" id="ArialMT-61"/>
      <path d="
M4.98438 -4.29688
L13.5312 -5.5625
Q14.0625 -9.51562 16.5 -11.3281
Q19.7812 -13.7656 25.4375 -13.7656
Q31.5469 -13.7656 34.8594 -11.3281
Q38.1875 -8.89062 39.3594 -4.5
Q40.0469 -1.8125 39.9844 6.78125
Q34.2344 0 25.6406 0
Q14.9375 0 9.07812 7.71875
Q3.21875 15.4375 3.21875 26.2188
Q3.21875 33.6406 5.90625 39.9062
Q8.59375 46.1875 13.6875 49.6094
Q18.7969 53.0312 25.6875 53.0312
Q34.8594 53.0312 40.8281 45.6094
L40.8281 51.8594
L48.9219 51.8594
L48.9219 7.03125
Q48.9219 -5.07812 46.4531 -10.125
Q44 -15.1875 38.6406 -18.1094
Q33.2969 -21.0469 25.4844 -21.0469
Q16.2188 -21.0469 10.5 -16.875
Q4.78125 -12.7031 4.98438 -4.29688
M12.25 26.8594
Q12.25 16.6562 16.2969 11.9688
Q20.3594 7.28125 26.4688 7.28125
Q32.5156 7.28125 36.6094 11.9375
Q40.7188 16.6094 40.7188 26.5625
Q40.7188 36.0781 36.5 40.9062
Q32.2812 45.75 26.3125 45.75
Q20.4531 45.75 16.3438 40.9844
Q12.25 36.2344 12.25 26.8594" id="ArialMT-67"/>
      <path d="
M8.6875 0
L8.6875 45.0156
L0.921875 45.0156
L0.921875 51.8594
L8.6875 51.8594
L8.6875 57.375
Q8.6875 62.5938 9.625 65.1406
Q10.8906 68.5625 14.0781 70.6719
Q17.2812 72.7969 23.0469 72.7969
Q26.7656 72.7969 31.25 71.9219
L29.9375 64.2656
Q27.2031 64.75 24.75 64.75
Q20.75 64.75 19.0938 63.0312
Q17.4375 61.3281 17.4375 56.6406
L17.4375 51.8594
L27.5469 51.8594
L27.5469 45.0156
L17.4375 45.0156
L17.4375 0
z
" id="ArialMT-66"/>
      <path d="
M42.0938 16.7031
L51.1719 15.5781
Q49.0312 7.625 43.2188 3.21875
Q37.4062 -1.17188 28.375 -1.17188
Q17 -1.17188 10.3281 5.82812
Q3.65625 12.8438 3.65625 25.4844
Q3.65625 38.5781 10.3906 45.7969
Q17.1406 53.0312 27.875 53.0312
Q38.2812 53.0312 44.875 45.9531
Q51.4688 38.875 51.4688 26.0312
Q51.4688 25.25 51.4219 23.6875
L12.75 23.6875
Q13.2344 15.1406 17.5781 10.5938
Q21.9219 6.0625 28.4219 6.0625
Q33.25 6.0625 36.6719 8.59375
Q40.0938 11.1406 42.0938 16.7031
M13.2344 30.9062
L42.1875 30.9062
Q41.6094 37.4531 38.875 40.7188
Q34.6719 45.7969 27.9844 45.7969
Q21.9219 45.7969 17.7969 41.75
Q13.6719 37.7031 13.2344 30.9062" id="ArialMT-65"/>
      <path d="
M40.2344 0
L40.2344 6.54688
Q35.2969 -1.17188 25.7344 -1.17188
Q19.5312 -1.17188 14.3281 2.25
Q9.125 5.67188 6.26562 11.7969
Q3.42188 17.9219 3.42188 25.875
Q3.42188 33.6406 6 39.9688
Q8.59375 46.2969 13.7656 49.6562
Q18.9531 53.0312 25.3438 53.0312
Q30.0312 53.0312 33.6875 51.0469
Q37.3594 49.0781 39.6562 45.9062
L39.6562 71.5781
L48.3906 71.5781
L48.3906 0
z

M12.4531 25.875
Q12.4531 15.9219 16.6406 10.9844
Q20.8438 6.0625 26.5625 6.0625
Q32.3281 6.0625 36.3438 10.7656
Q40.375 15.4844 40.375 25.1406
Q40.375 35.7969 36.2656 40.7656
Q32.1719 45.75 26.1719 45.75
Q20.3125 45.75 16.375 40.9688
Q12.4531 36.1875 12.4531 25.875" id="ArialMT-64"/>
      <path d="
M0 -1.21875
L20.75 72.7969
L27.7812 72.7969
L7.07812 -1.21875
z
" id="ArialMT-2f"/>
      <path d="
M21 0
L1.26562 51.8594
L10.5469 51.8594
L21.6875 20.7969
Q23.4844 15.7656 25 10.3594
Q26.1719 14.4531 28.2656 20.2188
L39.7969 51.8594
L48.8281 51.8594
L29.2031 0
z
" id="ArialMT-76"/>
      <path d="
M3.17188 21.4844
L3.17188 30.3281
L30.1719 30.3281
L30.1719 21.4844
z
" id="ArialMT-2d"/>
      <path d="
M6.59375 0
L6.59375 51.8594
L14.4531 51.8594
L14.4531 44.5781
Q16.8906 48.3906 20.9375 50.7031
Q25 53.0312 30.1719 53.0312
Q35.9375 53.0312 39.625 50.6406
Q43.3125 48.25 44.8281 43.9531
Q50.9844 53.0312 60.8438 53.0312
Q68.5625 53.0312 72.7031 48.75
Q76.8594 44.4844 76.8594 35.5938
L76.8594 0
L68.1094 0
L68.1094 32.6719
Q68.1094 37.9375 67.25 40.25
Q66.4062 42.5781 64.1562 43.9844
Q61.9219 45.4062 58.8906 45.4062
Q53.4219 45.4062 49.7969 41.7656
Q46.1875 38.1406 46.1875 30.125
L46.1875 0
L37.4062 0
L37.4062 33.6875
Q37.4062 39.5469 35.25 42.4688
Q33.1094 45.4062 28.2188 45.4062
Q24.5156 45.4062 21.3594 43.4531
Q18.2188 41.5 16.7969 37.7344
Q15.375 33.9844 15.375 26.9062
L15.375 0
z
" id="ArialMT-6d"/>
      <path d="
M3.07812 15.4844
L11.7656 16.8438
Q12.5 11.625 15.8438 8.84375
Q19.1875 6.0625 25.2031 6.0625
Q31.25 6.0625 34.1719 8.51562
Q37.1094 10.9844 37.1094 14.3125
Q37.1094 17.2812 34.5156 19
Q32.7188 20.1719 25.5312 21.9688
Q15.875 24.4219 12.1406 26.2031
Q8.40625 27.9844 6.46875 31.125
Q4.54688 34.2812 4.54688 38.0938
Q4.54688 41.5469 6.125 44.5
Q7.71875 47.4688 10.4531 49.4219
Q12.5 50.9219 16.0312 51.9688
Q19.5781 53.0312 23.6406 53.0312
Q29.7344 53.0312 34.3438 51.2656
Q38.9688 49.5156 41.1562 46.5
Q43.3594 43.5 44.1875 38.4844
L35.5938 37.3125
Q35.0156 41.3125 32.2031 43.5469
Q29.3906 45.7969 24.2656 45.7969
Q18.2188 45.7969 15.625 43.7969
Q13.0312 41.7969 13.0312 39.1094
Q13.0312 37.4062 14.1094 36.0312
Q15.1875 34.625 17.4844 33.6875
Q18.7969 33.2031 25.25 31.4531
Q34.5781 28.9531 38.25 27.3594
Q41.9375 25.7812 44.0312 22.75
Q46.1406 19.7344 46.1406 15.2344
Q46.1406 10.8438 43.5781 6.95312
Q41.0156 3.07812 36.1719 0.953125
Q31.3438 -1.17188 25.25 -1.17188
Q15.1406 -1.17188 9.84375 3.03125
Q4.54688 7.23438 3.07812 15.4844" id="ArialMT-73"/>
      <path d="
M6.39062 0
L6.39062 71.5781
L15.1875 71.5781
L15.1875 0
z
" id="ArialMT-6c"/>
      <path d="
M3.32812 25.9219
Q3.32812 40.3281 11.3281 47.2656
Q18.0156 53.0312 27.6406 53.0312
Q38.3281 53.0312 45.1094 46.0156
Q51.9062 39.0156 51.9062 26.6562
Q51.9062 16.6562 48.9062 10.9062
Q45.9062 5.17188 40.1562 2
Q34.4219 -1.17188 27.6406 -1.17188
Q16.75 -1.17188 10.0312 5.8125
Q3.32812 12.7969 3.32812 25.9219
M12.3594 25.9219
Q12.3594 15.9688 16.7031 11.0156
Q21.0469 6.0625 27.6406 6.0625
Q34.1875 6.0625 38.5312 11.0312
Q42.875 16.0156 42.875 26.2188
Q42.875 35.8438 38.5 40.7969
Q34.125 45.75 27.6406 45.75
Q21.0469 45.75 16.7031 40.8125
Q12.3594 35.8906 12.3594 25.9219" id="ArialMT-6f"/>
      <path d="
M6.59375 0
L6.59375 51.8594
L14.5 51.8594
L14.5 44.4844
Q20.2188 53.0312 31 53.0312
Q35.6875 53.0312 39.625 51.3438
Q43.5625 49.6562 45.5156 46.9219
Q47.4688 44.1875 48.25 40.4375
Q48.7344 37.9844 48.7344 31.8906
L48.7344 0
L39.9375 0
L39.9375 31.5469
Q39.9375 36.9219 38.9062 39.5781
Q37.8906 42.2344 35.2812 43.8125
Q32.6719 45.4062 29.1562 45.4062
Q23.5312 45.4062 19.4531 41.8438
Q15.375 38.2812 15.375 28.3281
L15.375 0
z
" id="ArialMT-6e"/>
      <path d="
M23.3906 -21.0469
Q16.1094 -11.8594 11.0781 0.4375
Q6.0625 12.75 6.0625 25.9219
Q6.0625 37.5469 9.8125 48.1875
Q14.2031 60.5469 23.3906 72.7969
L29.6875 72.7969
Q23.7812 62.6406 21.875 58.2969
Q18.8906 51.5625 17.1875 44.2344
Q15.0938 35.1094 15.0938 25.875
Q15.0938 2.39062 29.6875 -21.0469
z
" id="ArialMT-28"/>
      <path d="
M5.03125 -1.21875
L9.28125 19.5781
L1.03125 19.5781
L1.03125 26.8594
L10.75 26.8594
L14.3594 44.5781
L1.03125 44.5781
L1.03125 51.8594
L15.8281 51.8594
L20.0625 72.7969
L27.3906 72.7969
L23.1406 51.8594
L38.5312 51.8594
L42.7812 72.7969
L50.1406 72.7969
L45.9062 51.8594
L54.3438 51.8594
L54.3438 44.5781
L44.4375 44.5781
L40.7656 26.8594
L54.3438 26.8594
L54.3438 19.5781
L39.3125 19.5781
L35.0625 -1.21875
L27.7344 -1.21875
L31.9375 19.5781
L16.6094 19.5781
L12.3594 -1.21875
z

M18.0625 26.8594
L33.4062 26.8594
L37.0625 44.5781
L21.6875 44.5781
z
" id="ArialMT-23"/>
      <path d="
M6.64062 61.4688
L6.64062 71.5781
L15.4375 71.5781
L15.4375 61.4688
z

M6.64062 0
L6.64062 51.8594
L15.4375 51.8594
L15.4375 0
z
" id="ArialMT-69"/>
      <path id="ArialMT-20"/>
     </defs>
     <g transform="translate(191.55015052 398.917592822)scale(0.18 -0.18)">
      <use xlink:href="#ArialMT-6c"/>
      <use x="22.216796875" xlink:href="#ArialMT-6f"/>
      <use x="77.83203125" xlink:href="#ArialMT-67"/>
      <use x="133.447265625" xlink:href="#ArialMT-31"/>
      <use x="189.0625" xlink:href="#ArialMT-30"/>
      <use x="244.677734375" xlink:href="#ArialMT-20"/>
      <use x="272.4609375" xlink:href="#ArialMT-6f"/>
      <use x="328.076171875" xlink:href="#ArialMT-66"/>
      <use x="355.859375" xlink:href="#ArialMT-20"/>
      <use x="383.642578125" xlink:href="#ArialMT-28"/>
      <use x="416.943359375" xlink:href="#ArialMT-23"/>
      <use x="472.55859375" xlink:href="#ArialMT-20"/>
      <use x="500.341796875" xlink:href="#ArialMT-66"/>
      <use x="528.125" xlink:href="#ArialMT-2d"/>
      <use x="561.42578125" xlink:href="#ArialMT-65"/>
      <use x="617.041015625" xlink:href="#ArialMT-76"/>
      <use x="667.041015625" xlink:href="#ArialMT-61"/>
      <use x="722.65625" xlink:href="#ArialMT-6c"/>
      <use x="744.873046875" xlink:href="#ArialMT-73"/>
      <use x="794.873046875" xlink:href="#ArialMT-20"/>
      <use x="822.65625" xlink:href="#ArialMT-2f"/>
      <use x="850.439453125" xlink:href="#ArialMT-20"/>
      <use x="878.22265625" xlink:href="#ArialMT-64"/>
      <use x="933.837890625" xlink:href="#ArialMT-69"/>
      <use x="956.0546875" xlink:href="#ArialMT-6d"/>
      <use x="1039.35546875" xlink:href="#ArialMT-65"/>
      <use x="1094.97070312" xlink:href="#ArialMT-6e"/>
      <use x="1150.5859375" xlink:href="#ArialMT-73"/>
      <use x="1200.5859375" xlink:href="#ArialMT-69"/>
      <use x="1222.80273438" xlink:href="#ArialMT-6f"/>
      <use x="1278.41796875" xlink:href="#ArialMT-6e"/>
      <use x="1334.03320312" xlink:href="#ArialMT-29"/>
     </g>
    </g>
   </g>
   <g id="matplotlib.axis_2">
    <g id="ytick_1">
     <g id="line2d_88">
      <path clip-path="url(#p5e7421a262)" d="
M91.0764 358.524
L537.476 358.524" style="fill:none;stroke:#000000;stroke-dasharray:1.000000,3.000000;stroke-dashoffset:0.0;stroke-width:0.5;"/>
     </g>
     <g id="line2d_89">
      <defs>
       <path d="
M0 0
L4 0" id="m728421d6d4" style="stroke:#000000;stroke-width:0.5;"/>
      </defs>
      <g>
       <use style="stroke:#000000;stroke-width:0.5;" x="91.0764005203" xlink:href="#m728421d6d4" y="358.523530322"/>
      </g>
     </g>
     <g id="line2d_90">
      <defs>
       <path d="
M0 0
L-4 0" id="mcb0005524f" style="stroke:#000000;stroke-width:0.5;"/>
      </defs>
      <g>
       <use style="stroke:#000000;stroke-width:0.5;" x="537.47640052" xlink:href="#mcb0005524f" y="358.523530322"/>
      </g>
     </g>
     <g id="text_6">
      <!-- 0.0 -->
      <defs>
       <path d="
M9.07812 0
L9.07812 10.0156
L19.0938 10.0156
L19.0938 0
z
" id="ArialMT-2e"/>
      </defs>
      <g transform="translate(61.0639005203 363.693842822)scale(0.2 -0.2)">
       <use xlink:href="#ArialMT-30"/>
       <use x="55.615234375" xlink:href="#ArialMT-2e"/>
       <use x="83.3984375" xlink:href="#ArialMT-30"/>
      </g>
     </g>
    </g>
    <g id="ytick_2">
     <g id="line2d_91">
      <path clip-path="url(#p5e7421a262)" d="
M91.0764 290.088
L537.476 290.088" style="fill:none;stroke:#000000;stroke-dasharray:1.000000,3.000000;stroke-dashoffset:0.0;stroke-width:0.5;"/>
     </g>
     <g id="line2d_92">
      <g>
       <use style="stroke:#000000;stroke-width:0.5;" x="91.0764005203" xlink:href="#m728421d6d4" y="290.087886757"/>
      </g>
     </g>
     <g id="line2d_93">
      <g>
       <use style="stroke:#000000;stroke-width:0.5;" x="537.47640052" xlink:href="#mcb0005524f" y="290.087886757"/>
      </g>
     </g>
     <g id="text_7">
      <!-- 0.2 -->
      <g transform="translate(61.1607755203 295.258199257)scale(0.2 -0.2)">
       <use xlink:href="#ArialMT-30"/>
       <use x="55.615234375" xlink:href="#ArialMT-2e"/>
       <use x="83.3984375" xlink:href="#ArialMT-32"/>
      </g>
     </g>
    </g>
    <g id="ytick_3">
     <g id="line2d_94">
      <path clip-path="url(#p5e7421a262)" d="
M91.0764 221.652
L537.476 221.652" style="fill:none;stroke:#000000;stroke-dasharray:1.000000,3.000000;stroke-dashoffset:0.0;stroke-width:0.5;"/>
     </g>
     <g id="line2d_95">
      <g>
       <use style="stroke:#000000;stroke-width:0.5;" x="91.0764005203" xlink:href="#m728421d6d4" y="221.652243193"/>
      </g>
     </g>
     <g id="line2d_96">
      <g>
       <use style="stroke:#000000;stroke-width:0.5;" x="537.47640052" xlink:href="#mcb0005524f" y="221.652243193"/>
      </g>
     </g>
     <g id="text_8">
      <!-- 0.4 -->
      <defs>
       <path d="
M32.3281 0
L32.3281 17.1406
L1.26562 17.1406
L1.26562 25.2031
L33.9375 71.5781
L41.1094 71.5781
L41.1094 25.2031
L50.7812 25.2031
L50.7812 17.1406
L41.1094 17.1406
L41.1094 0
z

M32.3281 25.2031
L32.3281 57.4688
L9.90625 25.2031
z
" id="ArialMT-34"/>
      </defs>
      <g transform="translate(61.0732755203 226.822555693)scale(0.2 -0.2)">
       <use xlink:href="#ArialMT-30"/>
       <use x="55.615234375" xlink:href="#ArialMT-2e"/>
       <use x="83.3984375" xlink:href="#ArialMT-34"/>
      </g>
     </g>
    </g>
    <g id="ytick_4">
     <g id="line2d_97">
      <path clip-path="url(#p5e7421a262)" d="
M91.0764 153.217
L537.476 153.217" style="fill:none;stroke:#000000;stroke-dasharray:1.000000,3.000000;stroke-dashoffset:0.0;stroke-width:0.5;"/>
     </g>
     <g id="line2d_98">
      <g>
       <use style="stroke:#000000;stroke-width:0.5;" x="91.0764005203" xlink:href="#m728421d6d4" y="153.216599629"/>
      </g>
     </g>
     <g id="line2d_99">
      <g>
       <use style="stroke:#000000;stroke-width:0.5;" x="537.47640052" xlink:href="#mcb0005524f" y="153.216599629"/>
      </g>
     </g>
     <g id="text_9">
      <!-- 0.6 -->
      <defs>
       <path d="
M49.75 54.0469
L41.0156 53.375
Q39.8438 58.5469 37.7031 60.8906
Q34.125 64.6562 28.9062 64.6562
Q24.7031 64.6562 21.5312 62.3125
Q17.3906 59.2812 14.9844 53.4688
Q12.5938 47.6562 12.5 36.9219
Q15.6719 41.75 20.2656 44.0938
Q24.8594 46.4375 29.8906 46.4375
Q38.6719 46.4375 44.8438 39.9688
Q51.0312 33.5 51.0312 23.25
Q51.0312 16.5 48.125 10.7188
Q45.2188 4.9375 40.1406 1.85938
Q35.0625 -1.21875 28.6094 -1.21875
Q17.625 -1.21875 10.6875 6.85938
Q3.76562 14.9375 3.76562 33.5
Q3.76562 54.25 11.4219 63.6719
Q18.1094 71.875 29.4375 71.875
Q37.8906 71.875 43.2812 67.1406
Q48.6875 62.4062 49.75 54.0469
M13.875 23.1875
Q13.875 18.6562 15.7969 14.5
Q17.7188 10.3594 21.1875 8.17188
Q24.6562 6 28.4688 6
Q34.0312 6 38.0312 10.4844
Q42.0469 14.9844 42.0469 22.7031
Q42.0469 30.125 38.0781 34.3906
Q34.125 38.6719 28.125 38.6719
Q22.1719 38.6719 18.0156 34.3906
Q13.875 30.125 13.875 23.1875" id="ArialMT-36"/>
      </defs>
      <g transform="translate(61.0232755203 158.386912129)scale(0.2 -0.2)">
       <use xlink:href="#ArialMT-30"/>
       <use x="55.615234375" xlink:href="#ArialMT-2e"/>
       <use x="83.3984375" xlink:href="#ArialMT-36"/>
      </g>
     </g>
    </g>
    <g id="ytick_5">
     <g id="line2d_100">
      <path clip-path="url(#p5e7421a262)" d="
M91.0764 84.781
L537.476 84.781" style="fill:none;stroke:#000000;stroke-dasharray:1.000000,3.000000;stroke-dashoffset:0.0;stroke-width:0.5;"/>
     </g>
     <g id="line2d_101">
      <g>
       <use style="stroke:#000000;stroke-width:0.5;" x="91.0764005203" xlink:href="#m728421d6d4" y="84.7809560644"/>
      </g>
     </g>
     <g id="line2d_102">
      <g>
       <use style="stroke:#000000;stroke-width:0.5;" x="537.47640052" xlink:href="#mcb0005524f" y="84.7809560644"/>
      </g>
     </g>
     <g id="text_10">
      <!-- 0.8 -->
      <defs>
       <path d="
M17.6719 38.8125
Q12.2031 40.8281 9.5625 44.5312
Q6.9375 48.25 6.9375 53.4219
Q6.9375 61.2344 12.5469 66.5469
Q18.1719 71.875 27.4844 71.875
Q36.8594 71.875 42.5781 66.4219
Q48.2969 60.9844 48.2969 53.1719
Q48.2969 48.1875 45.6719 44.5
Q43.0625 40.8281 37.75 38.8125
Q44.3438 36.6719 47.7812 31.875
Q51.2188 27.0938 51.2188 20.4531
Q51.2188 11.2812 44.7188 5.03125
Q38.2344 -1.21875 27.6406 -1.21875
Q17.0469 -1.21875 10.5469 5.04688
Q4.04688 11.3281 4.04688 20.7031
Q4.04688 27.6875 7.59375 32.3906
Q11.1406 37.1094 17.6719 38.8125
M15.9219 53.7188
Q15.9219 48.6406 19.1875 45.4062
Q22.4688 42.1875 27.6875 42.1875
Q32.7656 42.1875 36.0156 45.375
Q39.2656 48.5781 39.2656 53.2188
Q39.2656 58.0625 35.9062 61.3594
Q32.5625 64.6562 27.5938 64.6562
Q22.5625 64.6562 19.2344 61.4219
Q15.9219 58.2031 15.9219 53.7188
M13.0938 20.6562
Q13.0938 16.8906 14.875 13.375
Q16.6562 9.85938 20.1719 7.92188
Q23.6875 6 27.7344 6
Q34.0312 6 38.125 10.0469
Q42.2344 14.1094 42.2344 20.3594
Q42.2344 26.7031 38.0156 30.8594
Q33.7969 35.0156 27.4375 35.0156
Q21.2344 35.0156 17.1562 30.9062
Q13.0938 26.8125 13.0938 20.6562" id="ArialMT-38"/>
      </defs>
      <g transform="translate(60.9857755203 89.9512685644)scale(0.2 -0.2)">
       <use xlink:href="#ArialMT-30"/>
       <use x="55.615234375" xlink:href="#ArialMT-2e"/>
       <use x="83.3984375" xlink:href="#ArialMT-38"/>
      </g>
     </g>
    </g>
    <g id="ytick_6">
     <g id="line2d_103">
      <path clip-path="url(#p5e7421a262)" d="
M91.0764 16.3453
L537.476 16.3453" style="fill:none;stroke:#000000;stroke-dasharray:1.000000,3.000000;stroke-dashoffset:0.0;stroke-width:0.5;"/>
     </g>
     <g id="line2d_104">
      <g>
       <use style="stroke:#000000;stroke-width:0.5;" x="91.0764005203" xlink:href="#m728421d6d4" y="16.3453125"/>
      </g>
     </g>
     <g id="line2d_105">
      <g>
       <use style="stroke:#000000;stroke-width:0.5;" x="537.47640052" xlink:href="#mcb0005524f" y="16.3453125"/>
      </g>
     </g>
     <g id="text_11">
      <!-- 1.0 -->
      <g transform="translate(62.4107755203 21.515625)scale(0.2 -0.2)">
       <use xlink:href="#ArialMT-31"/>
       <use x="55.615234375" xlink:href="#ArialMT-2e"/>
       <use x="83.3984375" xlink:href="#ArialMT-30"/>
      </g>
     </g>
    </g>
    <g id="text_12">
     <!-- Proportion of function+target pairs -->
     <defs>
      <path d="
M40.4375 19
L49.0781 17.875
Q47.6562 8.9375 41.8125 3.875
Q35.9844 -1.17188 27.4844 -1.17188
Q16.8438 -1.17188 10.375 5.78125
Q3.90625 12.75 3.90625 25.7344
Q3.90625 34.125 6.6875 40.4219
Q9.46875 46.7344 15.1562 49.875
Q20.8438 53.0312 27.5469 53.0312
Q35.9844 53.0312 41.3594 48.75
Q46.7344 44.4844 48.25 36.625
L39.7031 35.2969
Q38.4844 40.5312 35.375 43.1562
Q32.2812 45.7969 27.875 45.7969
Q21.2344 45.7969 17.0781 41.0312
Q12.9375 36.2812 12.9375 25.9844
Q12.9375 15.5312 16.9375 10.7969
Q20.9531 6.0625 27.3906 6.0625
Q32.5625 6.0625 36.0312 9.23438
Q39.5 12.4062 40.4375 19" id="ArialMT-63"/>
      <path d="
M25.7812 7.85938
L27.0469 0.09375
Q23.3438 -0.6875 20.4062 -0.6875
Q15.625 -0.6875 12.9844 0.828125
Q10.3594 2.34375 9.28125 4.8125
Q8.20312 7.28125 8.20312 15.1875
L8.20312 45.0156
L1.76562 45.0156
L1.76562 51.8594
L8.20312 51.8594
L8.20312 64.7031
L16.9375 69.9688
L16.9375 51.8594
L25.7812 51.8594
L25.7812 45.0156
L16.9375 45.0156
L16.9375 14.7031
Q16.9375 10.9375 17.4062 9.85938
Q17.875 8.79688 18.9219 8.15625
Q19.9688 7.51562 21.9219 7.51562
Q23.3906 7.51562 25.7812 7.85938" id="ArialMT-74"/>
      <path d="
M40.5781 0
L40.5781 7.625
Q34.5156 -1.17188 24.125 -1.17188
Q19.5312 -1.17188 15.5469 0.578125
Q11.5781 2.34375 9.64062 5
Q7.71875 7.67188 6.9375 11.5312
Q6.39062 14.1094 6.39062 19.7344
L6.39062 51.8594
L15.1875 51.8594
L15.1875 23.0938
Q15.1875 16.2188 15.7188 13.8125
Q16.5469 10.3594 19.2344 8.375
Q21.9219 6.39062 25.875 6.39062
Q29.8281 6.39062 33.2969 8.42188
Q36.7656 10.4531 38.2031 13.9375
Q39.6562 17.4375 39.6562 24.0781
L39.6562 51.8594
L48.4375 51.8594
L48.4375 0
z
" id="ArialMT-75"/>
      <path d="
M7.71875 0
L7.71875 71.5781
L34.7188 71.5781
Q41.8438 71.5781 45.6094 70.9062
Q50.875 70.0156 54.4375 67.5469
Q58.0156 65.0938 60.1875 60.6406
Q62.3594 56.2031 62.3594 50.875
Q62.3594 41.75 56.5469 35.4219
Q50.7344 29.1094 35.5469 29.1094
L17.1875 29.1094
L17.1875 0
z

M17.1875 37.5469
L35.6875 37.5469
Q44.875 37.5469 48.7344 40.9688
Q52.5938 44.3906 52.5938 50.5938
Q52.5938 55.0781 50.3125 58.2656
Q48.0469 61.4688 44.3438 62.5
Q41.9375 63.1406 35.5 63.1406
L17.1875 63.1406
z
" id="ArialMT-50"/>
      <path d="
M6.59375 -19.875
L6.59375 51.8594
L14.5938 51.8594
L14.5938 45.125
Q17.4375 49.0781 21 51.0469
Q24.5625 53.0312 29.6406 53.0312
Q36.2812 53.0312 41.3594 49.6094
Q46.4375 46.1875 49.0156 39.9531
Q51.6094 33.7344 51.6094 26.3125
Q51.6094 18.3594 48.75 11.9844
Q45.9062 5.60938 40.4531 2.21875
Q35.0156 -1.17188 29 -1.17188
Q24.6094 -1.17188 21.1094 0.6875
Q17.625 2.54688 15.375 5.375
L15.375 -19.875
z

M14.5469 25.6406
Q14.5469 15.625 18.5938 10.8438
Q22.6562 6.0625 28.4219 6.0625
Q34.2812 6.0625 38.4531 11.0156
Q42.625 15.9688 42.625 26.375
Q42.625 36.2812 38.5469 41.2031
Q34.4688 46.1406 28.8125 46.1406
Q23.1875 46.1406 18.8594 40.8906
Q14.5469 35.6406 14.5469 25.6406" id="ArialMT-70"/>
      <path d="
M25.0469 11.5781
L25.0469 31.2031
L5.5625 31.2031
L5.5625 39.4062
L25.0469 39.4062
L25.0469 58.8906
L33.3438 58.8906
L33.3438 39.4062
L52.8281 39.4062
L52.8281 31.2031
L33.3438 31.2031
L33.3438 11.5781
z
" id="ArialMT-2b"/>
      <path d="
M6.5 0
L6.5 51.8594
L14.4062 51.8594
L14.4062 44
Q17.4375 49.5156 20 51.2656
Q22.5625 53.0312 25.6406 53.0312
Q30.0781 53.0312 34.6719 50.2031
L31.6406 42.0469
Q28.4219 43.9531 25.2031 43.9531
Q22.3125 43.9531 20.0156 42.2188
Q17.7188 40.4844 16.75 37.4062
Q15.2812 32.7188 15.2812 27.1562
L15.2812 0
z
" id="ArialMT-72"/>
     </defs>
     <g transform="translate(52.1973380203 321.197436572)rotate(-90.0)scale(0.18 -0.18)">
      <use xlink:href="#ArialMT-50"/>
      <use x="66.69921875" xlink:href="#ArialMT-72"/>
      <use x="100.0" xlink:href="#ArialMT-6f"/>
      <use x="155.615234375" xlink:href="#ArialMT-70"/>
      <use x="211.23046875" xlink:href="#ArialMT-6f"/>
      <use x="266.845703125" xlink:href="#ArialMT-72"/>
      <use x="300.146484375" xlink:href="#ArialMT-74"/>
      <use x="327.9296875" xlink:href="#ArialMT-69"/>
      <use x="350.146484375" xlink:href="#ArialMT-6f"/>
      <use x="405.76171875" xlink:href="#ArialMT-6e"/>
      <use x="461.376953125" xlink:href="#ArialMT-20"/>
      <use x="489.16015625" xlink:href="#ArialMT-6f"/>
      <use x="544.775390625" xlink:href="#ArialMT-66"/>
      <use x="572.55859375" xlink:href="#ArialMT-20"/>
      <use x="600.341796875" xlink:href="#ArialMT-66"/>
      <use x="628.125" xlink:href="#ArialMT-75"/>
      <use x="683.740234375" xlink:href="#ArialMT-6e"/>
      <use x="739.35546875" xlink:href="#ArialMT-63"/>
      <use x="789.35546875" xlink:href="#ArialMT-74"/>
      <use x="817.138671875" xlink:href="#ArialMT-69"/>
      <use x="839.35546875" xlink:href="#ArialMT-6f"/>
      <use x="894.970703125" xlink:href="#ArialMT-6e"/>
      <use x="950.5859375" xlink:href="#ArialMT-2b"/>
      <use x="1008.984375" xlink:href="#ArialMT-74"/>
      <use x="1036.76757812" xlink:href="#ArialMT-61"/>
      <use x="1092.3828125" xlink:href="#ArialMT-72"/>
      <use x="1125.68359375" xlink:href="#ArialMT-67"/>
      <use x="1181.29882812" xlink:href="#ArialMT-65"/>
      <use x="1236.9140625" xlink:href="#ArialMT-74"/>
      <use x="1264.69726562" xlink:href="#ArialMT-20"/>
      <use x="1292.48046875" xlink:href="#ArialMT-70"/>
      <use x="1348.09570312" xlink:href="#ArialMT-61"/>
      <use x="1403.7109375" xlink:href="#ArialMT-69"/>
      <use x="1425.92773438" xlink:href="#ArialMT-72"/>
      <use x="1459.22851562" xlink:href="#ArialMT-73"/>
     </g>
    </g>
   </g>
   <g id="patch_3">
    <path d="
M91.0764 12.9235
L537.476 12.9235" style="fill:none;stroke:#000000;"/>
   </g>
   <g id="patch_4">
    <path d="
M537.476 358.524
L537.476 12.9235" style="fill:none;stroke:#000000;"/>
   </g>
   <g id="patch_5">
    <path d="
M91.0764 358.524
L537.476 358.524" style="fill:none;stroke:#000000;"/>
   </g>
   <g id="patch_6">
    <path d="
M91.0764 358.524
L91.0764 12.9235" style="fill:none;stroke:#000000;"/>
   </g>
   <g id="text_13">
    <!-- 5-D -->
    <defs>
     <path d="
M4.15625 18.75
L13.375 19.5312
Q14.4062 12.7969 18.1406 9.39062
Q21.875 6 27.1562 6
Q33.5 6 37.8906 10.7812
Q42.2812 15.5781 42.2812 23.4844
Q42.2812 31 38.0625 35.3438
Q33.8438 39.7031 27 39.7031
Q22.75 39.7031 19.3281 37.7656
Q15.9219 35.8438 13.9688 32.7656
L5.71875 33.8438
L12.6406 70.6094
L48.25 70.6094
L48.25 62.2031
L19.6719 62.2031
L15.8281 42.9688
Q22.2656 47.4688 29.3438 47.4688
Q38.7188 47.4688 45.1562 40.9688
Q51.6094 34.4688 51.6094 24.2656
Q51.6094 14.5469 45.9531 7.46875
Q39.0625 -1.21875 27.1562 -1.21875
Q17.3906 -1.21875 11.2031 4.25
Q5.03125 9.71875 4.15625 18.75" id="ArialMT-35"/>
     <path d="
M7.71875 0
L7.71875 71.5781
L32.375 71.5781
Q40.7188 71.5781 45.125 70.5625
Q51.2656 69.1406 55.6094 65.4375
Q61.2812 60.6406 64.0781 53.1875
Q66.8906 45.75 66.8906 36.1875
Q66.8906 28.0312 64.9844 21.7344
Q63.0938 15.4375 60.1094 11.2969
Q57.125 7.17188 53.5781 4.79688
Q50.0469 2.4375 45.0469 1.21875
Q40.0469 0 33.5469 0
z

M17.1875 8.45312
L32.4688 8.45312
Q39.5469 8.45312 43.5781 9.76562
Q47.6094 11.0781 50 13.4844
Q53.375 16.8438 55.25 22.5312
Q57.125 28.2188 57.125 36.3281
Q57.125 47.5625 53.4375 53.5938
Q49.75 59.625 44.4844 61.6719
Q40.6719 63.1406 32.2344 63.1406
L17.1875 63.1406
z
" id="ArialMT-44"/>
    </defs>
    <g transform="translate(497.87640052 355.55770034)scale(0.15 -0.15)">
     <use xlink:href="#ArialMT-35"/>
     <use x="55.615234375" xlink:href="#ArialMT-2d"/>
     <use x="88.916015625" xlink:href="#ArialMT-44"/>
    </g>
   </g>
   <g id="text_14">
    <!-- 2-D -->
    <g transform="translate(497.87640052 191.312155786)scale(0.15 -0.15)">
     <use xlink:href="#ArialMT-32"/>
     <use x="55.615234375" xlink:href="#ArialMT-2d"/>
     <use x="88.916015625" xlink:href="#ArialMT-44"/>
    </g>
   </g>
   <g id="text_15">
    <!-- 3-D -->
    <g transform="translate(497.87640052 27.0666112314)scale(0.15 -0.15)">
     <use xlink:href="#ArialMT-33"/>
     <use x="55.615234375" xlink:href="#ArialMT-2d"/>
     <use x="88.916015625" xlink:href="#ArialMT-44"/>
    </g>
   </g>
   <g id="text_16">
    <!-- bbob - f1-f5 -->
    <defs>
     <path d="
M14.7031 0
L6.54688 0
L6.54688 71.5781
L15.3281 71.5781
L15.3281 46.0469
Q20.9062 53.0312 29.5469 53.0312
Q34.3281 53.0312 38.5938 51.0938
Q42.875 49.1719 45.625 45.6719
Q48.3906 42.1875 49.9531 37.25
Q51.5156 32.3281 51.5156 26.7031
Q51.5156 13.375 44.9219 6.09375
Q38.3281 -1.17188 29.1094 -1.17188
Q19.9219 -1.17188 14.7031 6.5
z

M14.5938 26.3125
Q14.5938 17 17.1406 12.8438
Q21.2969 6.0625 28.375 6.0625
Q34.125 6.0625 38.3281 11.0625
Q42.5312 16.0625 42.5312 25.9844
Q42.5312 36.1406 38.5 40.9688
Q34.4688 45.7969 28.7656 45.7969
Q23 45.7969 18.7969 40.7969
Q14.5938 35.7969 14.5938 26.3125" id="ArialMT-62"/>
    </defs>
    <g transform="translate(95.5404005203 31.7604459468)scale(0.1666 -0.1666)">
     <use xlink:href="#ArialMT-62"/>
     <use x="55.615234375" xlink:href="#ArialMT-62"/>
     <use x="111.23046875" xlink:href="#ArialMT-6f"/>
     <use x="166.845703125" xlink:href="#ArialMT-62"/>
     <use x="222.4609375" xlink:href="#ArialMT-20"/>
     <use x="250.244140625" xlink:href="#ArialMT-2d"/>
     <use x="283.544921875" xlink:href="#ArialMT-20"/>
     <use x="311.328125" xlink:href="#ArialMT-66"/>
     <use x="339.111328125" xlink:href="#ArialMT-31"/>
     <use x="394.7265625" xlink:href="#ArialMT-2d"/>
     <use x="428.02734375" xlink:href="#ArialMT-66"/>
     <use x="455.810546875" xlink:href="#ArialMT-35"/>
    </g>
    <!-- 31 target RLs/dim: 0.5..50 -->
    <defs>
     <path d="
M7.85938 0
L7.85938 71.5781
L39.5938 71.5781
Q49.1719 71.5781 54.1406 69.6406
Q59.125 67.7188 62.1094 62.8281
Q65.0938 57.9531 65.0938 52.0469
Q65.0938 44.4375 60.1562 39.2031
Q55.2188 33.9844 44.9219 32.5625
Q48.6875 30.7656 50.6406 29
Q54.7812 25.2031 58.5 19.4844
L70.9531 0
L59.0312 0
L49.5625 14.8906
Q45.4062 21.3438 42.7188 24.75
Q40.0469 28.1719 37.9219 29.5312
Q35.7969 30.9062 33.5938 31.4531
Q31.9844 31.7812 28.3281 31.7812
L17.3281 31.7812
L17.3281 0
z

M17.3281 39.9844
L37.7031 39.9844
Q44.1875 39.9844 47.8438 41.3281
Q51.5156 42.6719 53.4219 45.625
Q55.3281 48.5781 55.3281 52.0469
Q55.3281 57.125 51.6406 60.3906
Q47.9531 63.6719 39.9844 63.6719
L17.3281 63.6719
z
" id="ArialMT-52"/>
     <path d="
M9.03125 41.8438
L9.03125 51.8594
L19.0469 51.8594
L19.0469 41.8438
z

M9.03125 0
L9.03125 10.0156
L19.0469 10.0156
L19.0469 0
z
" id="ArialMT-3a"/>
     <path d="
M7.32812 0
L7.32812 71.5781
L16.7969 71.5781
L16.7969 8.45312
L52.0469 8.45312
L52.0469 0
z
" id="ArialMT-4c"/>
    </defs>
    <g transform="translate(95.5404005203 49.6251721968)scale(0.1666 -0.1666)">
     <use xlink:href="#ArialMT-33"/>
     <use x="55.615234375" xlink:href="#ArialMT-31"/>
     <use x="111.23046875" xlink:href="#ArialMT-20"/>
     <use x="139.013671875" xlink:href="#ArialMT-74"/>
     <use x="166.796875" xlink:href="#ArialMT-61"/>
     <use x="222.412109375" xlink:href="#ArialMT-72"/>
     <use x="255.712890625" xlink:href="#ArialMT-67"/>
     <use x="311.328125" xlink:href="#ArialMT-65"/>
     <use x="366.943359375" xlink:href="#ArialMT-74"/>
     <use x="394.7265625" xlink:href="#ArialMT-20"/>
     <use x="422.509765625" xlink:href="#ArialMT-52"/>
     <use x="494.7265625" xlink:href="#ArialMT-4c"/>
     <use x="550.341796875" xlink:href="#ArialMT-73"/>
     <use x="600.341796875" xlink:href="#ArialMT-2f"/>
     <use x="628.125" xlink:href="#ArialMT-64"/>
     <use x="683.740234375" xlink:href="#ArialMT-69"/>
     <use x="705.95703125" xlink:href="#ArialMT-6d"/>
     <use x="789.2578125" xlink:href="#ArialMT-3a"/>
     <use x="817.041015625" xlink:href="#ArialMT-20"/>
     <use x="844.82421875" xlink:href="#ArialMT-30"/>
     <use x="900.439453125" xlink:href="#ArialMT-2e"/>
     <use x="928.22265625" xlink:href="#ArialMT-35"/>
     <use x="983.837890625" xlink:href="#ArialMT-2e"/>
     <use x="1011.62109375" xlink:href="#ArialMT-2e"/>
     <use x="1039.40429688" xlink:href="#ArialMT-35"/>
     <use x="1095.01953125" xlink:href="#ArialMT-30"/>
    </g>
    <!--    from refalgs/best2009-bbob.tar.gz -->
    <defs>
     <path d="
M5.46875 16.5469
L13.9219 17.3281
Q14.9844 11.375 18.0156 8.6875
Q21.0469 6 25.7812 6
Q29.8281 6 32.875 7.85938
Q35.9375 9.71875 37.8906 12.8125
Q39.8438 15.9219 41.1562 21.1875
Q42.4844 26.4688 42.4844 31.9375
Q42.4844 32.5156 42.4375 33.6875
Q39.7969 29.5 35.2344 26.875
Q30.6719 24.2656 25.3438 24.2656
Q16.4531 24.2656 10.2969 30.7031
Q4.15625 37.1562 4.15625 47.7031
Q4.15625 58.5938 10.5781 65.2344
Q17 71.875 26.6562 71.875
Q33.6406 71.875 39.4219 68.1094
Q45.2188 64.3594 48.2188 57.3906
Q51.2188 50.4375 51.2188 37.25
Q51.2188 23.5312 48.2344 15.4062
Q45.2656 7.28125 39.375 3.03125
Q33.5 -1.21875 25.5938 -1.21875
Q17.1875 -1.21875 11.8594 3.4375
Q6.54688 8.10938 5.46875 16.5469
M41.4531 48.1406
Q41.4531 55.7188 37.4219 60.1562
Q33.4062 64.5938 27.7344 64.5938
Q21.875 64.5938 17.5312 59.8125
Q13.1875 55.0312 13.1875 47.4062
Q13.1875 40.5781 17.3125 36.2969
Q21.4375 32.0312 27.4844 32.0312
Q33.5938 32.0312 37.5156 36.2969
Q41.4531 40.5781 41.4531 48.1406" id="ArialMT-39"/>
     <path d="
M1.95312 0
L1.95312 7.125
L34.9688 45.0156
Q29.3438 44.7344 25.0469 44.7344
L3.90625 44.7344
L3.90625 51.8594
L46.2969 51.8594
L46.2969 46.0469
L18.2188 13.1406
L12.7969 7.125
Q18.7031 7.5625 23.875 7.5625
L47.8594 7.5625
L47.8594 0
z
" id="ArialMT-7a"/>
    </defs>
    <g transform="translate(95.5404005203 67.6851328218)scale(0.1666 -0.1666)">
     <use xlink:href="#ArialMT-20"/>
     <use x="27.783203125" xlink:href="#ArialMT-20"/>
     <use x="55.56640625" xlink:href="#ArialMT-20"/>
     <use x="83.349609375" xlink:href="#ArialMT-66"/>
     <use x="111.1328125" xlink:href="#ArialMT-72"/>
     <use x="144.43359375" xlink:href="#ArialMT-6f"/>
     <use x="200.048828125" xlink:href="#ArialMT-6d"/>
     <use x="283.349609375" xlink:href="#ArialMT-20"/>
     <use x="311.1328125" xlink:href="#ArialMT-72"/>
     <use x="344.43359375" xlink:href="#ArialMT-65"/>
     <use x="400.048828125" xlink:href="#ArialMT-66"/>
     <use x="427.83203125" xlink:href="#ArialMT-61"/>
     <use x="483.447265625" xlink:href="#ArialMT-6c"/>
     <use x="505.6640625" xlink:href="#ArialMT-67"/>
     <use x="561.279296875" xlink:href="#ArialMT-73"/>
     <use x="611.279296875" xlink:href="#ArialMT-2f"/>
     <use x="639.0625" xlink:href="#ArialMT-62"/>
     <use x="694.677734375" xlink:href="#ArialMT-65"/>
     <use x="750.29296875" xlink:href="#ArialMT-73"/>
     <use x="800.29296875" xlink:href="#ArialMT-74"/>
     <use x="828.076171875" xlink:href="#ArialMT-32"/>
     <use x="883.69140625" xlink:href="#ArialMT-30"/>
     <use x="939.306640625" xlink:href="#ArialMT-30"/>
     <use x="994.921875" xlink:href="#ArialMT-39"/>
     <use x="1050.53710938" xlink:href="#ArialMT-2d"/>
     <use x="1083.83789062" xlink:href="#ArialMT-62"/>
     <use x="1139.453125" xlink:href="#ArialMT-62"/>
     <use x="1195.06835938" xlink:href="#ArialMT-6f"/>
     <use x="1250.68359375" xlink:href="#ArialMT-62"/>
     <use x="1306.29882812" xlink:href="#ArialMT-2e"/>
     <use x="1334.08203125" xlink:href="#ArialMT-74"/>
     <use x="1361.86523438" xlink:href="#ArialMT-61"/>
     <use x="1417.48046875" xlink:href="#ArialMT-72"/>
     <use x="1445.28125" xlink:href="#ArialMT-2e"/>
     <use x="1473.06445312" xlink:href="#ArialMT-67"/>
     <use x="1528.6796875" xlink:href="#ArialMT-7a"/>
    </g>
    <!-- 15 instances -->
    <g transform="translate(95.5404005203 85.5014409468)scale(0.1666 -0.1666)">
     <use xlink:href="#ArialMT-31"/>
     <use x="55.615234375" xlink:href="#ArialMT-35"/>
     <use x="111.23046875" xlink:href="#ArialMT-20"/>
     <use x="139.013671875" xlink:href="#ArialMT-69"/>
     <use x="161.23046875" xlink:href="#ArialMT-6e"/>
     <use x="216.845703125" xlink:href="#ArialMT-73"/>
     <use x="266.845703125" xlink:href="#ArialMT-74"/>
     <use x="294.62890625" xlink:href="#ArialMT-61"/>
     <use x="350.244140625" xlink:href="#ArialMT-6e"/>
     <use x="405.859375" xlink:href="#ArialMT-63"/>
     <use x="455.859375" xlink:href="#ArialMT-65"/>
     <use x="511.474609375" xlink:href="#ArialMT-73"/>
    </g>
   </g>
   <g id="text_17">
    <!-- v2.0.1 -->
    <g style="fill:#808080;" transform="translate(301.63811927 353.080030322)scale(0.1 -0.1)">
     <use xlink:href="#ArialMT-76"/>
     <use x="50.0" xlink:href="#ArialMT-32"/>
     <use x="105.615234375" xlink:href="#ArialMT-2e"/>
     <use x="133.3984375" xlink:href="#ArialMT-30"/>
     <use x="189.013671875" xlink:href="#ArialMT-2e"/>
     <use x="216.796875" xlink:href="#ArialMT-31"/>
    </g>
   </g>
  </g>
 </g>
 <defs>
  <clipPath id="p5e7421a262">
   <rect height="345.6" width="446.4" x="91.0764005203" y="12.9235303218"/>
  </clipPath>
 </defs>
</svg>
