<?xml version="1.0" encoding="utf-8" standalone="no"?>
<!DOCTYPE svg PUBLIC "-//W3C//DTD SVG 1.1//EN"
  "http://www.w3.org/Graphics/SVG/1.1/DTD/svg11.dtd">
<!-- Created with matplotlib (http://matplotlib.org/) -->
<svg height="414pt" version="1.1" viewBox="0 0 545 414" width="545pt" xmlns="http://www.w3.org/2000/svg" xmlns:xlink="http://www.w3.org/1999/xlink">
 <defs>
  <style type="text/css">
*{stroke-linecap:butt;stroke-linejoin:round;}
  </style>
 </defs>
 <g id="figure_1">
  <g id="patch_1">
   <path d="
M0 414.924
L545.366 414.924
L545.366 0
L0 0
z
" style="fill:#ffffff;"/>
  </g>
  <g id="axes_1">
   <g id="patch_2">
    <path d="
M91.0764 358.524
L537.476 358.524
L537.476 12.9235
L91.0764 12.9235
z
" style="fill:#ffffff;"/>
   </g>
   <g id="line2d_1">
    <defs>
     <path d="
M0 1.5
C0.397805 1.5 0.77937 1.34195 1.06066 1.06066
C1.34195 0.77937 1.5 0.397805 1.5 0
C1.5 -0.397805 1.34195 -0.77937 1.06066 -1.06066
C0.77937 -1.34195 0.397805 -1.5 0 -1.5
C-0.397805 -1.5 -0.77937 -1.34195 -1.06066 -1.06066
C-1.34195 -0.77937 -1.5 -0.397805 -1.5 0
C-1.5 0.397805 -1.34195 0.77937 -1.06066 1.06066
C-0.77937 1.34195 -0.397805 1.5 0 1.5
z
" id="m977c291b42" style="stroke:#00bfbf;stroke-width:0.5;"/>
    </defs>
    <g>
     <use style="fill:#00bfbf;stroke:#00bfbf;stroke-width:0.5;" x="535.16603709" xlink:href="#m977c291b42" y="42.9187272883"/>
     <use style="fill:#00bfbf;stroke:#00bfbf;stroke-width:0.5;" x="535.16603709" xlink:href="#m977c291b42" y="42.9187272883"/>
    </g>
   </g>
   <g id="line2d_2">
    <path d="
M54.9528 338.138
L91.0764 338.138
L91.0764 335.59
L112.207 335.59
L112.207 326.49
L127.2 326.49
L127.2 318.481
L138.829 318.481
L138.829 316.297
L148.331 316.297
L148.331 310.109
L156.365 310.109
L156.365 306.833
L163.324 306.833
L163.324 302.101
L169.462 302.101
L169.462 299.552
L174.953 299.552
L174.953 299.188
L179.92 299.188
L179.92 297.004
L184.455 297.004
L184.455 295.548
L188.626 295.548
L188.626 293.728
L192.488 293.728
L192.488 288.632
L196.084 288.632
L196.084 279.531
L199.447 279.531
L199.447 275.163
L202.607 275.163
L202.607 266.063
L205.586 266.063
L205.586 261.33
L208.403 261.33
L208.403 259.874
L211.076 259.874
L211.076 255.87
L213.619 255.87
L213.619 253.686
L216.044 253.686
L216.044 250.41
L218.36 250.41
L218.36 245.314
L220.578 245.314
L220.578 243.493
L222.706 243.493
L222.706 241.673
L224.75 241.673
L224.75 236.941
L226.716 236.941
L226.716 235.121
L228.612 235.121
L228.612 231.845
L230.441 231.845
L230.441 231.481
L232.207 231.481
L232.207 230.753
L233.916 230.753
L233.916 229.297
L235.571 229.297
L235.571 223.836
L237.174 223.836
L237.174 221.652
L238.73 221.652
L238.73 221.288
L240.241 221.288
L240.241 219.832
L241.709 219.832
L241.709 217.648
L243.137 217.648
L243.137 214.736
L244.527 214.736
L244.527 214.372
L245.881 214.372
L245.881 212.552
L247.2 212.552
L247.2 211.096
L248.487 211.096
L248.487 209.64
L250.969 209.64
L250.969 206.363
L252.167 206.363
L252.167 204.179
L253.338 204.179
L253.338 203.451
L254.484 203.451
L254.484 202.359
L255.605 202.359
L255.605 200.903
L256.702 200.903
L256.702 199.083
L257.776 199.083
L257.776 196.899
L258.829 196.899
L258.829 196.171
L259.861 196.171
L259.861 193.259
L260.873 193.259
L260.873 192.167
L261.866 192.167
L261.866 188.162
L263.796 188.162
L263.796 185.614
L264.735 185.614
L264.735 183.794
L265.658 183.794
L265.658 183.066
L266.564 183.066
L266.564 181.61
L268.331 181.61
L268.331 177.97
L269.192 177.97
L269.192 175.422
L270.04 175.422
L270.04 175.058
L270.874 175.058
L270.874 173.238
L273.298 173.238
L273.298 171.054
L274.082 171.054
L274.082 169.597
L275.615 169.597
L275.615 167.413
L276.365 167.413
L276.365 167.049
L277.104 167.049
L277.104 166.685
L277.833 166.685
L277.833 166.321
L278.552 166.321
L278.552 165.593
L279.261 165.593
L279.261 164.501
L279.96 164.501
L279.96 164.137
L281.332 164.137
L281.332 163.773
L282.004 163.773
L282.004 163.045
L282.668 163.045
L282.668 161.225
L283.324 161.225
L283.324 160.861
L285.866 160.861
L285.866 160.497
L286.483 160.497
L286.483 160.133
L287.695 160.133
L287.695 159.041
L288.291 159.041
L288.291 158.677
L290.038 158.677
L290.038 158.313
L291.728 158.313
L291.728 157.585
L292.28 157.585
L292.28 157.221
L292.825 157.221
L292.825 155.401
L293.365 155.401
L293.365 155.037
L293.9 155.037
L293.9 154.673
L294.429 154.673
L294.429 153.945
L295.471 153.945
L295.471 153.581
L297.496 153.581
L297.496 153.217
L299.92 153.217
L299.92 152.489
L300.392 152.489
L300.392 151.397
L302.688 151.397
L302.688 151.032
L303.135 151.032
L303.135 150.668
L305.316 150.668
L305.316 149.94
L307.409 149.94
L307.409 148.484
L307.818 148.484
L307.818 148.12
L308.626 148.12
L308.626 147.392
L309.815 147.392
L309.815 146.3
L310.205 146.3
L310.205 145.936
L311.359 145.936
L311.359 145.208
L311.738 145.208
L311.738 144.48
L312.859 144.48
L312.859 143.752
L315.031 143.752
L315.031 143.388
L315.735 143.388
L315.735 142.66
L316.43 142.66
L316.43 142.296
L316.774 142.296
L316.774 141.932
L317.116 141.932
L317.116 141.204
L317.455 141.204
L317.455 140.112
L317.793 140.112
L317.793 139.02
L318.461 139.02
L318.461 138.656
L319.772 138.656
L319.772 137.928
L320.734 137.928
L320.734 136.836
L321.051 136.836
L321.051 135.38
L321.366 135.38
L321.366 134.288
L322.299 134.288
L322.299 133.924
L323.819 133.924
L323.819 133.56
L324.117 133.56
L324.117 132.832
L325.003 132.832
L325.003 132.467
L325.586 132.467
L325.586 131.739
L325.874 131.739
L325.874 129.919
L326.447 129.919
L326.447 129.555
L328.128 129.555
L328.128 128.463
L328.949 128.463
L328.949 126.279
L329.489 126.279
L329.489 125.551
L329.757 125.551
L329.757 124.823
L330.289 124.823
L330.289 124.095
L339.702 124.095
L339.702 123.731
L343.121 123.731
L343.121 123.367
L343.327 123.367
L343.327 123.003
L343.942 123.003
L343.942 122.639
L344.347 122.639
L344.347 122.275
L344.549 122.275
L344.549 121.911
L344.95 121.911
L344.95 121.547
L345.149 121.547
L345.149 120.091
L345.347 120.091
L345.347 119.363
L346.329 119.363
L346.329 118.999
L346.523 118.999
L346.523 118.635
L346.716 118.635
L346.716 117.543
L347.101 117.543
L347.101 117.179
L347.292 117.179
L347.292 116.815
L347.862 116.815
L347.862 116.087
L348.05 116.087
L348.05 115.723
L348.612 115.723
L348.612 114.995
L348.983 114.995
L348.983 114.631
L350.261 114.631
L350.261 114.267
L350.441 114.267
L350.441 113.903
L350.799 113.903
L350.799 113.538
L351.684 113.538
L351.684 113.174
L351.859 113.174
L351.859 112.81
L352.381 112.81
L352.381 112.446
L352.726 112.446
L352.726 111.718
L353.239 111.718
L353.239 111.354
L358.268 111.354
L358.268 110.99
L359.188 110.99
L359.188 110.626
L360.833 110.626
L360.833 109.898
L362.428 109.898
L362.428 109.534
L362.571 109.534
L362.571 108.806
L362.855 108.806
L362.855 108.442
L363.697 108.442
L363.697 108.078
L363.975 108.078
L363.975 107.714
L364.527 107.714
L364.527 107.35
L364.664 107.35
L364.664 106.986
L364.8 106.986
L364.8 106.622
L364.937 106.622
L364.937 106.258
L365.343 106.258
L365.343 105.894
L366.28 105.894
L366.28 105.53
L366.544 105.53
L366.544 105.166
L367.07 105.166
L367.07 104.438
L374.37 104.438
L374.37 103.71
L374.823 103.71
L374.823 102.982
L374.935 102.982
L374.935 102.618
L375.271 102.618
L375.271 102.254
L375.715 102.254
L375.826 101.162
L375.936 101.162
L376.046 100.434
L376.375 100.434
L376.375 100.07
L377.349 100.07
L377.349 99.3417
L379.141 99.3417
L379.141 98.9777
L379.759 98.9777
L379.759 98.6137
L380.065 98.6137
L380.065 98.2497
L381.372 98.2497
L381.372 97.8857
L381.669 97.8857
L381.669 97.5216
L382.453 97.5216
L382.453 97.1576
L382.647 97.1576
L382.647 96.7936
L383.129 96.7936
L383.129 96.0656
L383.32 96.0656
L383.32 95.7015
L383.891 95.7015
L383.891 95.3375
L384.174 95.3375
L384.268 94.6095
L384.828 94.6095
L384.828 94.2455
L385.014 94.2455
L385.014 93.8814
L386.294 93.8814
L386.384 93.1534
L386.654 93.1534
L386.654 92.7894
L386.833 92.7894
L386.922 91.6973
L387.807 91.6973
L387.807 90.9693
L387.982 90.9693
L388.07 89.8772
L388.244 89.8772
L388.244 89.5132
L392.583 89.5132
L392.583 89.1492
L393.061 89.1492
L393.061 88.7852
L393.613 88.7852
L393.691 87.6931
L397.324 87.6931
L397.324 87.3291
L398.337 87.3291
L398.409 86.6011
L398.48 86.6011
L398.552 85.873
L399.049 85.873
L399.049 85.509
L399.261 85.509
L399.261 85.145
L399.96 85.145
L399.96 84.781
L400.099 84.781
L400.099 84.4169
L400.306 84.4169
L400.306 84.0529
L400.444 84.0529
L400.444 83.6889
L400.924 83.6889
L400.992 82.9609
L401.128 82.9609
L401.128 82.5968
L401.937 82.5968
L401.937 82.2328
L402.138 82.2328
L402.138 81.8688
L402.271 81.8688
L402.271 81.5048
L402.602 81.5048
L402.602 81.1408
L402.997 81.1408
L402.997 80.7767
L403.128 80.7767
L403.128 80.4127
L403.389 80.4127
L403.389 80.0487
L409.635 80.0487
L409.693 79.3207
L409.866 79.3207
L409.866 78.9566
L410.266 78.9566
L410.266 78.5926
L411.227 78.5926
L411.227 78.2286
L412.06 78.2286
L412.06 77.8646
L412.608 77.8646
L412.608 77.5006
L412.771 77.5006
L412.771 76.7725
L413.312 76.7725
L413.312 76.4085
L414.059 76.4085
L414.059 75.3165
L414.744 75.3165
L414.744 74.9524
L415.005 74.9524
L415.005 74.5884
L419.156 74.5884
L419.156 74.2244
L419.3 74.2244
L419.396 73.4964
L419.967 73.4964
L419.967 73.1323
L422.055 73.1323
L422.055 72.7683
L422.733 72.7683
L422.778 72.0403
L422.867 72.0403
L422.867 71.6763
L424.585 71.6763
L424.628 70.9482
L427.162 70.9482
L427.162 70.5842
L427.737 70.5842
L427.777 69.8562
L428.143 69.8562
L428.183 69.1281
L430.166 69.1281
L430.166 68.7641
L432.04 68.7641
L432.04 68.4001
L432.19 68.4001
L432.19 68.0361
L432.414 68.0361
L432.414 67.672
L437.927 67.672
L437.927 67.308
L438.094 67.308
L438.094 66.944
L438.228 66.944
L438.228 66.58
L438.527 66.58
L438.527 66.216
L438.891 66.216
L438.956 65.4879
L441.897 65.4879
L441.897 65.1239
L442.299 65.1239
L442.299 64.7599
L444.827 64.7599
L444.827 64.0319
L445.149 64.0319
L445.149 63.6678
L445.324 63.6678
L445.324 63.3038
L445.817 63.3038
L445.817 62.9398
L450.13 62.9398
L450.13 62.5758
L450.421 62.5758
L450.421 62.2118
L450.789 62.2118
L450.868 61.4837
L451.076 61.4837
L451.076 61.4837" style="fill:none;stroke:#00bfbf;stroke-linecap:square;stroke-width:1.5;"/>
   </g>
   <g id="line2d_3">
    <defs>
     <path d="
M-6 0
L6 0
M0 6
L0 -6" id="m3e4de746de" style="stroke:#00bfbf;stroke-width:1.5;"/>
    </defs>
    <g>
     <use style="fill:none;stroke:#00bfbf;stroke-width:1.5;" x="127.2" xlink:href="#m3e4de746de" y="318.481398449"/>
     <use style="fill:none;stroke:#00bfbf;stroke-width:1.5;" x="216.043522739" xlink:href="#m3e4de746de" y="253.685948691"/>
     <use style="fill:none;stroke:#00bfbf;stroke-width:1.5;" x="270.03980378" xlink:href="#m3e4de746de" y="175.057762468"/>
     <use style="fill:none;stroke:#00bfbf;stroke-width:1.5;" x="352.380780512" xlink:href="#m3e4de746de" y="112.810448375"/>
     <use style="fill:none;stroke:#00bfbf;stroke-width:1.5;" x="445.816612177" xlink:href="#m3e4de746de" y="63.3038126053"/>
     <use style="fill:none;stroke:#00bfbf;stroke-width:1.5;" x="451.07640052" xlink:href="#m3e4de746de" y="61.483715702"/>
    </g>
   </g>
   <g id="line2d_4"/>
   <g id="line2d_5">
    <path clip-path="url(#p5e7421a262)" d="
M331.336 124.095" style="fill:none;stroke:#00bfbf;stroke-linecap:square;"/>
    <defs>
     <path d="
M-12 12
L12 -12
M-12 -12
L12 12" id="m09e435d1d9" style="stroke:#00bfbf;stroke-width:3;"/>
    </defs>
    <g clip-path="url(#p5e7421a262)">
     <use style="fill:#00bfbf;stroke:#00bfbf;stroke-width:3;" x="331.336327931" xlink:href="#m09e435d1d9" y="124.095049176"/>
    </g>
   </g>
   <g id="line2d_6">
    <defs>
     <path d="
M0 1.5
C0.397805 1.5 0.77937 1.34195 1.06066 1.06066
C1.34195 0.77937 1.5 0.397805 1.5 0
C1.5 -0.397805 1.34195 -0.77937 1.06066 -1.06066
C0.77937 -1.34195 0.397805 -1.5 0 -1.5
C-0.397805 -1.5 -0.77937 -1.34195 -1.06066 -1.06066
C-1.34195 -0.77937 -1.5 -0.397805 -1.5 0
C-1.5 0.397805 -1.34195 0.77937 -1.06066 1.06066
C-0.77937 1.34195 -0.397805 1.5 0 1.5
z
" id="mb0b177905e" style="stroke:#008000;stroke-width:0.5;"/>
    </defs>
    <g>
     <use style="fill:#008000;stroke:#008000;stroke-width:0.5;" x="520.709828026" xlink:href="#mb0b177905e" y="27.6336660776"/>
     <use style="fill:#008000;stroke:#008000;stroke-width:0.5;" x="520.709828026" xlink:href="#mb0b177905e" y="27.6336660776"/>
    </g>
   </g>
   <g id="line2d_7">
    <path d="
M69.9454 332.772
L91.0764 332.772
L91.0764 327.833
L106.069 327.833
L106.069 322.895
L117.698 322.895
L117.698 318.662
L127.2 318.662
L127.2 316.545
L135.234 316.545
L135.234 312.312
L148.331 312.312
L148.331 311.254
L153.822 311.254
L153.822 309.49
L158.789 309.49
L158.789 308.784
L163.324 308.784
L163.324 305.962
L171.357 305.962
L171.357 304.198
L174.953 304.198
L174.953 303.846
L178.316 303.846
L178.316 293.263
L181.476 293.263
L181.476 287.971
L184.455 287.971
L184.455 281.974
L187.272 281.974
L187.272 277.741
L189.945 277.741
L189.945 271.744
L192.488 271.744
L192.488 267.511
L194.913 267.511
L194.913 261.514
L197.229 261.514
L197.229 260.103
L201.575 260.103
L201.575 256.576
L203.619 256.576
L203.619 250.931
L205.586 250.931
L205.586 247.757
L207.481 247.757
L207.481 244.934
L209.31 244.934
L209.31 242.465
L211.076 242.465
L211.076 240.349
L212.785 240.349
L212.785 238.938
L214.44 238.938
L214.44 234.352
L216.044 234.352
L216.044 231.882
L217.599 231.882
L217.599 229.766
L219.11 229.766
L219.11 227.296
L220.578 227.296
L220.578 226.238
L222.006 226.238
L222.006 223.769
L223.396 223.769
L223.396 223.416
L224.75 223.416
L224.75 222.358
L226.069 222.358
L226.069 221.299
L227.356 221.299
L227.356 220.947
L228.612 220.947
L228.612 219.183
L229.838 219.183
L229.838 218.125
L231.036 218.125
L231.036 216.361
L232.207 216.361
L232.207 213.892
L233.353 213.892
L233.353 212.128
L234.474 212.128
L234.474 211.422
L235.571 211.422
L235.571 209.658
L236.645 209.658
L236.645 207.895
L237.698 207.895
L237.698 207.542
L238.73 207.542
L238.73 205.072
L239.742 205.072
L239.742 204.367
L240.735 204.367
L240.735 202.603
L241.709 202.603
L241.709 200.134
L242.665 200.134
L242.665 199.428
L244.527 199.428
L244.527 198.723
L245.433 198.723
L245.433 197.312
L246.324 197.312
L246.324 195.195
L247.2 195.195
L247.2 194.137
L248.061 194.137
L248.061 192.02
L248.909 192.02
L248.909 190.609
L250.563 190.609
L250.563 189.904
L251.371 189.904
L251.371 189.551
L252.167 189.551
L252.167 186.376
L252.951 186.376
L252.951 186.023
L253.723 186.023
L253.723 184.965
L254.484 184.965
L254.484 184.26
L255.234 184.26
L255.234 183.554
L256.702 183.554
L256.702 183.201
L258.829 183.201
L258.829 181.437
L259.519 181.437
L259.519 180.732
L260.201 180.732
L260.201 179.321
L260.873 179.321
L260.873 178.968
L261.537 178.968
L261.537 177.557
L262.193 177.557
L262.193 175.793
L263.48 175.793
L263.48 172.266
L264.111 172.266
L264.111 171.913
L264.735 171.913
L264.735 170.855
L266.564 170.855
L266.564 169.796
L267.16 169.796
L267.16 169.444
L268.331 169.444
L268.331 169.091
L268.907 169.091
L268.907 167.68
L269.476 167.68
L269.476 166.974
L270.04 166.974
L270.04 165.916
L270.597 165.916
L270.597 164.505
L271.149 164.505
L271.149 163.799
L271.694 163.799
L271.694 163.094
L272.234 163.094
L272.234 161.683
L272.769 161.683
L272.769 160.977
L273.822 160.977
L273.822 160.625
L274.34 160.625
L274.34 159.566
L274.854 159.566
L274.854 158.155
L276.365 158.155
L276.365 157.802
L276.859 157.802
L276.859 157.45
L277.833 157.45
L277.833 156.391
L278.313 156.391
L278.313 154.98
L278.789 154.98
L278.789 153.217
L279.261 153.217
L279.261 152.511
L279.728 152.511
L279.728 152.158
L280.191 152.158
L280.191 151.806
L281.106 151.806
L281.106 150.395
L281.557 150.395
L281.557 150.042
L283.324 150.042
L283.324 149.336
L285.032 149.336
L285.032 147.22
L285.451 147.22
L285.451 145.103
L287.894 145.103
L287.894 144.75
L288.291 144.75
L288.291 144.045
L289.847 144.045
L289.847 141.223
L290.984 141.223
L290.984 140.87
L291.728 140.87
L291.728 138.753
L292.096 138.753
L292.096 137.695
L293.544 137.695
L293.544 135.579
L293.9 135.579
L293.9 135.226
L295.299 135.226
L295.299 134.873
L295.643 134.873
L295.643 134.52
L296.324 134.52
L296.324 133.109
L297.33 133.109
L297.33 132.404
L298.316 132.404
L298.316 130.64
L298.641 130.64
L298.641 129.582
L298.964 129.582
L298.964 128.876
L299.284 128.876
L299.284 128.171
L299.92 128.171
L299.92 126.76
L300.859 126.76
L300.859 125.348
L301.476 125.348
L301.476 124.29
L303.872 124.29
L303.872 123.585
L304.743 123.585
L304.743 122.879
L305.316 122.879
L305.316 122.526
L305.6 122.526
L305.6 121.821
L306.163 121.821
L306.163 121.115
L308.089 121.115
L308.089 120.763
L308.626 120.763
L308.626 120.057
L310.205 120.057
L310.205 119.352
L311.232 119.352
L311.232 118.999
L312.239 118.999
L312.239 117.94
L312.982 117.94
L312.982 117.235
L313.956 117.235
L313.956 116.882
L314.197 116.882
L314.197 116.529
L314.437 116.529
L314.437 115.471
L314.675 115.471
L314.675 114.766
L315.149 114.766
L315.149 114.06
L315.384 114.06
L315.384 113.707
L316.084 113.707
L316.084 112.649
L316.774 112.649
L316.774 112.296
L317.229 112.296
L317.229 111.591
L317.455 111.591
L317.455 111.238
L317.68 111.238
L317.68 110.885
L318.571 110.885
L318.571 110.533
L318.792 110.533
L318.792 109.827
L320.309 109.827
L320.309 109.121
L320.522 109.121
L320.522 108.416
L320.945 108.416
L320.945 107.71
L321.783 107.71
L321.783 107.005
L322.607 107.005
L322.607 105.947
L323.014 105.947
L323.014 105.594
L323.418 105.594
L323.418 104.888
L323.819 104.888
L323.819 103.83
L324.217 103.83
L324.217 103.477
L324.611 103.477
L324.611 103.125
L325.003 103.125
L325.003 102.772
L325.586 102.772
L325.586 102.419
L326.161 102.419
L326.161 101.361
L326.352 101.361
L326.352 100.302
L327.481 100.302
L327.481 99.2442
L327.667 99.2442
L327.667 98.5386
L329.13 98.5386
L329.13 98.1859
L330.553 98.1859
L330.553 97.8331
L330.728 97.8331
L330.728 96.7748
L331.076 96.7748
L331.076 96.4221
L331.423 96.4221
L331.423 96.0693
L333.949 96.0693
L333.949 95.7165
L334.926 95.7165
L334.926 95.3638
L335.885 95.3638
L335.885 95.011
L336.671 95.011
L336.671 94.6583
L337.752 94.6583
L337.752 94.3055
L338.661 94.3055
L338.661 93.9527
L339.849 93.9527
L339.849 93.6
L340.867 93.6
L340.867 93.2472
L341.297 93.2472
L341.297 92.8945
L341.724 92.8945
L341.724 92.5417
L342.006 92.5417
L342.006 92.1889
L343.121 92.1889
L343.121 91.8362
L343.806 91.8362
L343.806 91.1307
L345.281 91.1307
L345.281 90.7779
L347.356 90.7779
L347.356 90.4251
L347.862 90.4251
L347.862 90.0724
L348.113 90.0724
L348.113 89.7196
L348.736 89.7196
L348.736 89.3668
L349.229 89.3668
L349.229 89.0141
L349.351 89.0141
L349.351 88.6613
L350.2 88.6613
L350.2 88.3086
L351.273 88.3086
L351.273 87.9558
L351.39 87.9558
L351.39 86.8975
L351.859 86.8975
L351.859 86.5448
L351.975 86.5448
L351.975 86.192
L352.554 86.192
L352.554 85.8392
L352.898 85.8392
L352.898 85.4865
L353.126 85.4865
L353.126 84.4282
L353.239 84.4282
L353.239 84.0754
L353.579 84.0754
L353.579 83.7227
L354.028 83.7227
L354.028 83.0172
L354.14 83.0172
L354.14 82.6644
L354.695 82.6644
L354.695 82.3116
L354.915 82.3116
L354.915 81.9589
L355.135 81.9589
L355.135 81.6061
L355.787 81.6061
L355.787 81.2533
L356.003 81.2533
L356.003 80.5478
L356.218 80.5478
L356.218 79.8423
L357.906 79.8423
L357.906 79.4895
L359.239 79.4895
L359.239 79.1368
L359.642 79.1368
L359.642 78.784
L361.516 78.784
L361.613 78.0785
L361.709 78.0785
L361.806 77.0202
L362.855 77.0202
L362.855 76.6675
L363.231 76.6675
L363.231 75.6092
L363.79 75.6092
L363.79 75.2564
L364.8 75.2564
L364.8 74.1981
L364.982 74.1981
L364.982 73.4926
L366.147 73.4926
L366.147 73.1398
L367.287 73.1398
L367.287 72.7871
L367.46 72.7871
L367.46 72.4343
L369.99 72.4343
L369.99 72.0816
L371.532 72.0816
L371.532 71.7288
L373.029 71.7288
L373.029 71.376
L374.029 71.376
L374.029 71.0233
L375.973 71.0233
L375.973 70.6705
L376.119 70.6705
L376.119 69.965
L376.846 69.965
L376.846 69.6122
L377.206 69.6122
L377.206 69.2595
L378.411 69.2595
L378.411 68.9067
L378.69 68.9067
L378.69 68.5539
L379.106 68.5539
L379.106 68.2012
L379.451 68.2012
L379.451 67.8484
L380.065 67.8484
L380.065 67.4957
L380.201 67.4957
L380.201 67.1429
L380.672 67.1429
L380.672 66.7901
L381.206 66.7901
L381.273 65.3791
L381.471 65.3791
L381.471 65.0263
L381.735 65.0263
L381.735 64.6736
L381.997 64.6736
L381.997 64.3208
L382.776 64.3208
L382.776 63.9681
L384.237 63.9681
L384.237 63.6153
L384.735 63.6153
L384.735 63.2625
L385.475 63.2625
L385.475 62.557
L385.78 62.557
L385.78 62.2042
L385.901 62.2042
L385.901 61.8515
L386.264 61.8515
L386.264 61.4987
L386.504 61.4987
L386.504 61.146
L388.157 61.146
L388.157 60.7932
L388.273 60.7932
L388.331 60.0877
L388.447 60.0877
L388.447 59.7349
L388.562 59.7349
L388.562 59.3822
L393.087 59.3822
L393.087 59.0294
L394.495 59.0294
L394.495 58.6766
L395.261 58.6766
L395.312 57.9711
L397.25 57.9711
L397.25 57.6184
L398.121 57.6184
L398.121 57.2656
L398.313 57.2656
L398.313 56.9128
L398.599 56.9128
L398.647 56.2073
L399.025 56.2073
L399.025 55.8546
L399.261 55.8546
L399.261 55.149
L399.588 55.149
L399.588 54.7963
L400.329 54.7963
L400.329 54.4435
L400.696 54.4435
L400.742 53.738
L401.06 53.738
L401.06 53.3852
L401.87 53.3852
L401.87 53.0325
L408.053 53.0325
L408.053 52.6797
L408.645 52.6797
L408.645 52.3269
L410.721 52.3269
L410.721 51.9742
L411.171 51.9742
L411.171 51.6214
L411.357 51.6214
L411.357 51.2687
L411.802 51.2687
L411.802 50.5631
L412.608 50.5631
L412.608 50.2104
L412.898 50.2104
L412.898 49.8576
L413.33 49.8576
L413.33 49.5049
L419.316 49.5049
L419.316 49.1521
L420.298 49.1521
L420.298 48.7993
L421.014 48.7993
L421.014 48.4466
L421.199 48.4466
L421.23 47.3883
L421.659 47.3883
L421.659 47.0355
L422.025 47.0355
L422.025 46.6828
L422.237 46.6828
L422.237 46.33
L422.778 46.33
L422.778 45.9772
L423.843 45.9772
L423.843 45.6245
L424.077 45.6245
L424.077 45.2717
L424.714 45.2717
L424.714 44.919
L426.942 44.919
L426.942 44.5662
L429.579 44.5662
L429.658 43.8607
L429.763 43.8607
L429.763 43.5079
L429.919 43.5079
L429.972 42.8024
L431.207 42.8024
L431.258 42.0969
L431.461 42.0969
L431.511 41.3913
L434.651 41.3913
L434.651 41.0386
L435.875 41.0386
L435.875 40.6858
L437.093 40.6858
L437.093 40.3331
L437.455 40.3331
L437.455 39.9803
L437.59 39.9803
L437.59 39.6275
L438.527 39.6275
L438.527 39.2748
L441.928 39.2748
L441.928 38.922
L442.912 38.922
L442.912 38.5693
L443.034 38.5693
L443.034 38.2165
L443.518 38.2165
L443.518 37.8637
L444.256 37.8637
L444.256 37.511
L444.375 37.511
L444.375 37.1582
L444.69 37.1582
L444.69 36.8055
L445.797 36.8055
L445.797 36.4527
L451.076 36.4527
L451.076 36.4527" style="fill:none;stroke:#008000;stroke-linecap:square;stroke-width:1.5;"/>
   </g>
   <g id="line2d_8">
    <defs>
     <path d="
M-7.34788e-16 6
L6 -6
L-6 -6
z
" id="m397e16cd68" style="stroke:#008000;stroke-linejoin:miter;stroke-width:1.5;"/>
    </defs>
    <g>
     <use style="fill:none;stroke:#008000;stroke-linejoin:miter;stroke-width:1.5;" x="178.316247873" xlink:href="#m397e16cd68" y="303.84556768"/>
     <use style="fill:none;stroke:#008000;stroke-linejoin:miter;stroke-width:1.5;" x="235.570798439" xlink:href="#m397e16cd68" y="211.422172763"/>
     <use style="fill:none;stroke:#008000;stroke-linejoin:miter;stroke-width:1.5;" x="298.640955078" xlink:href="#m397e16cd68" y="130.639892473"/>
     <use style="fill:none;stroke:#008000;stroke-linejoin:miter;stroke-width:1.5;" x="352.553634196" xlink:href="#m397e16cd68" y="86.1920002616"/>
     <use style="fill:none;stroke:#008000;stroke-linejoin:miter;stroke-width:1.5;" x="445.797392064" xlink:href="#m397e16cd68" y="36.4526923101"/>
     <use style="fill:none;stroke:#008000;stroke-linejoin:miter;stroke-width:1.5;" x="451.07640052" xlink:href="#m397e16cd68" y="36.4526923101"/>
    </g>
   </g>
   <g id="line2d_9"/>
   <g id="line2d_10">
    <path clip-path="url(#p5e7421a262)" d="
M331.25 96.4221" style="fill:none;stroke:#008000;stroke-linecap:square;"/>
    <defs>
     <path d="
M-12 12
L12 -12
M-12 -12
L12 12" id="m8c089fa6cd" style="stroke:#008000;stroke-width:3;"/>
    </defs>
    <g clip-path="url(#p5e7421a262)">
     <use style="fill:#008000;stroke:#008000;stroke-width:3;" x="331.249829425" xlink:href="#m8c089fa6cd" y="96.4220706913"/>
    </g>
   </g>
   <g id="line2d_11">
    <defs>
     <path d="
M0 1.5
C0.397805 1.5 0.77937 1.34195 1.06066 1.06066
C1.34195 0.77937 1.5 0.397805 1.5 0
C1.5 -0.397805 1.34195 -0.77937 1.06066 -1.06066
C0.77937 -1.34195 0.397805 -1.5 0 -1.5
C-0.397805 -1.5 -0.77937 -1.34195 -1.06066 -1.06066
C-1.34195 -0.77937 -1.5 -0.397805 -1.5 0
C-1.5 0.397805 -1.34195 0.77937 -1.06066 1.06066
C-0.77937 1.34195 -0.397805 1.5 0 1.5
z
" id="m76a7ce5b4a" style="stroke:#0000ff;stroke-width:0.5;"/>
    </defs>
    <g>
     <use style="fill:#0000ff;stroke:#0000ff;stroke-width:0.5;" x="516.304971396" xlink:href="#m76a7ce5b4a" y="73.1243354572"/>
     <use style="fill:#0000ff;stroke:#0000ff;stroke-width:0.5;" x="516.304971396" xlink:href="#m76a7ce5b4a" y="73.1243354572"/>
    </g>
   </g>
   <g id="line2d_12">
    <path d="
M79.4472 337.09
L91.0764 337.09
L91.0764 335.21
L100.578 335.21
L100.578 333.33
L108.612 333.33
L108.612 331.074
L115.571 331.074
L115.571 330.698
L121.709 330.698
L121.709 328.818
L127.2 328.818
L127.2 326.562
L132.167 326.562
L132.167 325.434
L136.702 325.434
L136.702 324.306
L144.735 324.306
L144.735 323.93
L148.331 323.93
L148.331 322.05
L151.694 322.05
L151.694 321.674
L154.854 321.674
L154.854 318.665
L157.833 318.665
L157.833 317.913
L160.65 317.913
L160.65 314.905
L163.324 314.905
L163.324 313.401
L165.866 313.401
L165.866 310.769
L168.291 310.769
L168.291 308.137
L170.607 308.137
L170.607 300.992
L172.825 300.992
L172.825 294.976
L174.953 294.976
L174.953 291.592
L176.997 291.592
L176.997 290.464
L178.964 290.464
L178.964 287.456
L180.859 287.456
L180.859 285.576
L182.688 285.576
L182.688 283.696
L184.455 283.696
L184.455 282.191
L186.163 282.191
L186.163 281.815
L187.818 281.815
L187.818 280.311
L189.422 280.311
L189.422 279.935
L190.977 279.935
L190.977 277.679
L192.488 277.679
L192.488 275.047
L193.956 275.047
L193.956 273.167
L195.384 273.167
L195.384 270.535
L196.774 270.535
L196.774 269.031
L198.128 269.031
L198.128 265.271
L199.447 265.271
L199.447 264.895
L200.734 264.895
L200.734 263.39
L201.99 263.39
L201.99 260.758
L203.216 260.758
L203.216 259.254
L205.586 259.254
L205.586 257.374
L206.731 257.374
L206.731 255.87
L207.852 255.87
L207.852 252.486
L208.949 252.486
L208.949 249.102
L210.024 249.102
L210.024 247.222
L211.076 247.222
L211.076 244.965
L212.108 244.965
L212.108 243.085
L213.12 243.085
L213.12 242.333
L214.113 242.333
L214.113 239.325
L215.087 239.325
L215.087 238.197
L216.044 238.197
L216.044 237.445
L217.905 237.445
L217.905 235.941
L219.702 235.941
L219.702 235.565
L220.578 235.565
L220.578 234.437
L221.44 234.437
L221.44 234.061
L222.287 234.061
L222.287 231.053
L223.121 231.053
L223.121 230.301
L223.942 230.301
L223.942 229.173
L224.75 229.173
L224.75 228.045
L225.545 228.045
L225.545 227.293
L226.329 227.293
L226.329 226.541
L227.862 226.541
L227.862 225.036
L228.612 225.036
L228.612 224.284
L230.08 224.284
L230.08 222.78
L230.799 222.78
L230.799 222.028
L231.508 222.028
L231.508 221.276
L232.207 221.276
L232.207 220.524
L232.898 220.524
L232.898 220.148
L233.579 220.148
L233.579 219.396
L234.251 219.396
L234.251 219.02
L234.915 219.02
L234.915 217.516
L235.571 217.516
L235.571 215.636
L236.218 215.636
L236.218 215.26
L236.858 215.26
L236.858 213.38
L237.489 213.38
L237.489 212.252
L238.114 212.252
L238.114 211.876
L239.34 211.876
L239.34 211.124
L239.942 211.124
L239.942 209.62
L241.127 209.62
L241.127 208.868
L241.709 208.868
L241.709 208.492
L242.285 208.492
L242.285 208.116
L242.855 208.116
L242.855 206.611
L244.527 206.611
L244.527 204.731
L245.073 204.731
L245.073 203.603
L245.613 203.603
L245.613 202.475
L246.147 202.475
L246.147 201.723
L247.2 201.723
L247.2 200.971
L248.232 200.971
L248.232 200.595
L249.244 200.595
L249.244 200.219
L249.743 200.219
L249.743 199.467
L250.237 199.467
L250.237 197.963
L250.726 197.963
L250.726 197.587
L251.211 197.587
L251.211 195.331
L251.691 195.331
L251.691 194.955
L253.106 194.955
L253.106 194.579
L253.569 194.579
L253.569 194.203
L254.029 194.203
L254.029 192.699
L255.382 192.699
L255.382 191.947
L255.826 191.947
L255.826 190.819
L256.266 190.819
L256.266 190.443
L257.134 190.443
L257.134 189.315
L258.829 189.315
L258.829 188.186
L259.244 188.186
L259.244 187.058
L259.656 187.058
L259.656 186.682
L260.065 186.682
L260.065 186.306
L260.471 186.306
L260.471 185.93
L261.669 185.93
L261.669 185.178
L262.062 185.178
L262.062 184.802
L263.225 184.802
L263.225 184.426
L264.735 184.426
L264.735 183.298
L265.106 183.298
L265.106 182.17
L266.203 182.17
L266.203 181.794
L267.631 181.794
L267.631 179.914
L268.331 179.914
L268.331 179.162
L269.021 179.162
L269.021 178.786
L269.702 178.786
L269.702 178.034
L270.375 178.034
L270.375 177.658
L271.039 177.658
L271.039 176.906
L271.368 176.906
L271.368 176.53
L271.694 176.53
L271.694 176.154
L272.663 176.154
L272.663 175.778
L273.926 175.778
L273.926 175.402
L274.854 175.402
L274.854 175.026
L275.16 175.026
L275.16 174.65
L276.066 174.65
L276.066 174.274
L276.662 174.274
L276.662 173.522
L277.25 173.522
L277.25 173.146
L277.542 173.146
L277.542 172.77
L277.833 172.77
L277.833 172.394
L278.409 172.394
L278.409 172.018
L278.694 172.018
L278.694 170.514
L278.978 170.514
L278.978 170.138
L279.542 170.138
L279.542 169.761
L279.821 169.761
L279.821 168.633
L280.375 168.633
L280.375 168.257
L280.65 168.257
L280.65 167.881
L280.924 167.881
L280.924 166.001
L282.8 166.001
L282.8 165.625
L284.1 165.625
L284.1 164.497
L285.368 164.497
L285.368 163.745
L286.606 163.745
L286.606 163.369
L286.85 163.369
L286.85 162.993
L287.815 162.993
L287.815 162.617
L288.053 162.617
L288.053 161.865
L288.291 161.865
L288.291 161.113
L289.693 161.113
L289.693 159.985
L289.923 159.985
L289.923 159.609
L291.506 159.609
L291.506 159.233
L293.473 159.233
L293.473 158.857
L294.112 158.857
L294.112 158.481
L294.953 158.481
L294.953 157.353
L295.78 157.353
L295.78 156.977
L295.985 156.977
L295.985 156.225
L296.594 156.225
L296.594 155.849
L296.796 155.849
L296.796 155.473
L297.792 155.473
L297.792 154.345
L298.186 154.345
L298.186 153.969
L299.348 153.969
L299.348 153.593
L301.045 153.593
L301.045 153.217
L301.781 153.217
L301.781 152.465
L302.146 152.465
L302.146 151.336
L302.508 151.336
L302.508 150.96
L303.931 150.96
L303.931 150.208
L304.281 150.208
L304.281 149.832
L304.801 149.832
L304.801 149.456
L307.491 149.456
L307.491 149.08
L309.422 149.08
L309.422 148.328
L309.737 148.328
L309.737 147.952
L311.587 147.952
L311.587 147.576
L312.04 147.576
L312.04 146.824
L312.339 146.824
L312.339 145.696
L315.243 145.696
L315.243 145.32
L315.384 145.32
L315.384 144.944
L315.525 144.944
L315.525 144.192
L316.637 144.192
L316.637 143.816
L317.59 143.816
L317.59 143.064
L318.128 143.064
L318.128 142.688
L318.792 142.688
L318.792 142.312
L319.577 142.312
L319.577 141.936
L321.114 141.936
L321.114 141.56
L321.616 141.56
L321.616 141.184
L322.607 141.184
L322.607 140.808
L323.458 140.808
L323.458 139.68
L324.651 139.68
L324.651 139.304
L325.12 139.304
L325.12 138.928
L325.353 138.928
L325.353 138.552
L326.731 138.552
L326.731 138.176
L327.07 138.176
L327.07 137.8
L328.513 137.8
L328.622 136.296
L329.81 136.296
L329.81 135.92
L330.13 135.92
L330.13 135.544
L331.284 135.544
L331.284 135.168
L334.991 135.168
L334.991 134.792
L335.949 134.792
L336.044 134.04
L338.269 134.04
L338.269 133.664
L339.879 133.664
L339.967 132.912
L341.78 132.912
L341.865 132.159
L343.038 132.159
L343.038 131.783
L343.368 131.783
L343.368 131.407
L344.75 131.407
L344.83 130.655
L344.91 130.655
L344.91 130.279
L345.069 130.279
L345.069 129.903
L345.228 129.903
L345.228 129.527
L345.545 129.527
L345.545 129.151
L345.86 129.151
L345.86 128.775
L346.173 128.775
L346.251 128.023
L346.948 128.023
L346.948 127.647
L347.711 127.647
L347.711 127.271
L349.278 127.271
L349.278 126.895
L350.584 126.895
L350.656 125.391
L353.171 125.391
L353.239 124.639
L353.579 124.639
L353.579 124.263
L353.916 124.263
L353.983 123.511
L354.915 123.511
L354.915 123.135
L356.603 123.135
L356.603 122.759
L358.484 122.759
L358.484 122.383
L359.582 122.383
L359.582 122.007
L362.798 122.007
L362.798 121.631
L362.911 121.631
L362.911 121.255
L363.362 121.255
L363.362 120.879
L364.362 120.879
L364.472 120.127
L364.909 120.127
L364.909 119.751
L365.181 119.751
L365.181 119.375
L365.666 119.375
L365.666 118.999
L366.2 118.999
L366.2 118.623
L366.518 118.623
L366.518 118.247
L366.729 118.247
L366.834 117.495
L367.356 117.495
L367.356 116.743
L372.072 116.743
L372.072 116.367
L373.106 116.367
L373.106 115.991
L373.708 115.991
L373.708 115.615
L375.025 115.615
L375.114 114.487
L379.492 114.487
L379.533 113.358
L380.873 113.358
L380.873 112.982
L380.993 112.982
L380.993 112.606
L382.258 112.606
L382.258 112.23
L382.956 112.23
L382.956 111.854
L384.324 111.854
L384.324 111.478
L385.438 111.478
L385.511 110.35
L385.986 110.35
L385.986 109.598
L386.167 109.598
L386.167 109.222
L386.564 109.222
L386.564 108.47
L387.136 108.47
L387.136 108.094
L387.349 108.094
L387.349 107.718
L394.423 107.718
L394.423 107.342
L395.22 107.342
L395.22 106.966
L395.524 106.966
L395.524 106.59
L396.662 106.59
L396.662 106.214
L396.898 106.214
L396.898 105.838
L397.775 105.838
L397.775 105.462
L397.948 105.462
L397.948 105.086
L399.57 105.086
L399.626 104.334
L400.375 104.334
L400.375 103.958
L400.541 103.958
L400.568 103.206
L401.656 103.206
L401.682 102.454
L401.817 102.454
L401.817 102.078
L402.111 102.078
L402.111 101.702
L402.297 101.702
L402.297 101.326
L402.43 101.326
L402.43 100.95
L408.053 100.95
L408.053 100.574
L409.762 100.574
L409.762 100.198
L409.877 100.198
L409.877 99.8218
L410.743 99.8218
L410.743 99.4457
L411.817 99.4457
L411.817 99.0697
L413.451 99.0697
L413.558 97.1896
L413.623 97.1896
L413.644 96.4376
L413.921 96.4376
L413.921 96.0616
L414.429 96.0616
L414.429 95.6855
L414.765 95.6855
L414.765 95.3095
L415.14 95.3095
L415.14 94.9335
L418.323 94.9335
L418.323 94.5575
L420.298 94.5575
L420.335 93.8054
L422.2 93.8054
L422.2 93.4294
L422.652 93.4294
L422.652 93.0534
L423.224 93.0534
L423.224 92.3014
L423.384 92.3014
L423.49 91.1733
L423.508 91.1733
L423.508 90.7973
L428.994 90.7973
L428.994 90.4213
L430.034 90.4213
L430.034 90.0452
L431.557 90.0452
L431.617 87.7891
L431.678 87.7891
L431.678 87.4131
L435.102 87.4131
L435.102 87.0371
L436.402 87.0371
L436.402 86.6611
L436.527 86.6611
L436.527 86.285
L438.567 86.285
L438.567 85.909
L438.686 85.909
L438.792 85.157
L442.912 85.157
L442.912 84.781
L444.058 84.781
L444.058 84.4049
L444.426 84.4049
L444.426 84.0289
L444.921 84.0289
L444.921 83.6529
L445.038 83.6529
L445.038 83.2769
L445.26 83.2769
L445.26 82.5248
L451.076 82.5248
L451.076 82.5248" style="fill:none;stroke:#0000ff;stroke-linecap:square;stroke-width:1.5;"/>
   </g>
   <g id="line2d_13">
    <defs>
     <path d="
M3.67394e-16 -6
L-1.34708 -1.8541
L-5.70634 -1.8541
L-2.17963 0.708204
L-3.52671 4.8541
L-4.20996e-16 2.2918
L3.52671 4.8541
L2.17963 0.708204
L5.70634 -1.8541
L1.34708 -1.8541
z
" id="m0933169453" style="stroke:#0000ff;stroke-linejoin:bevel;stroke-width:1.5;"/>
    </defs>
    <g>
     <use style="fill:none;stroke:#0000ff;stroke-linejoin:bevel;stroke-width:1.5;" x="100.578150046" xlink:href="#m0933169453" y="333.33018901"/>
     <use style="fill:none;stroke:#0000ff;stroke-linejoin:bevel;stroke-width:1.5;" x="199.447198959" xlink:href="#m0933169453" y="264.894545445"/>
     <use style="fill:none;stroke:#0000ff;stroke-linejoin:bevel;stroke-width:1.5;" x="256.265635367" xlink:href="#m0933169453" y="190.442581568"/>
     <use style="fill:none;stroke:#0000ff;stroke-linejoin:bevel;stroke-width:1.5;" x="330.129779055" xlink:href="#m0933169453" y="135.919678728"/>
     <use style="fill:none;stroke:#0000ff;stroke-linejoin:bevel;stroke-width:1.5;" x="418.322761883" xlink:href="#m0933169453" y="94.9334965931"/>
     <use style="fill:none;stroke:#0000ff;stroke-linejoin:bevel;stroke-width:1.5;" x="451.07640052" xlink:href="#m0933169453" y="82.5248359469"/>
    </g>
   </g>
   <g id="line2d_14"/>
   <g id="line2d_15">
    <path clip-path="url(#p5e7421a262)" d="
M331.181 135.544" style="fill:none;stroke:#0000ff;stroke-linecap:square;"/>
    <defs>
     <path d="
M-12 12
L12 -12
M-12 -12
L12 12" id="ma4a355cd2c" style="stroke:#0000ff;stroke-width:3;"/>
    </defs>
    <g clip-path="url(#p5e7421a262)">
     <use style="fill:#0000ff;stroke:#0000ff;stroke-width:3;" x="331.180527104" xlink:href="#ma4a355cd2c" y="135.543658708"/>
    </g>
   </g>
   <g id="line2d_16">
    <path d="
M451.076 82.5248
L490.676 351.68" style="fill:none;stroke:#0000ff;stroke-linecap:square;stroke-width:1.5;"/>
    <g>
     <use style="fill:none;stroke:#0000ff;stroke-linejoin:bevel;stroke-width:1.5;" x="451.07640052" xlink:href="#m0933169453" y="82.5248359469"/>
     <use style="fill:none;stroke:#0000ff;stroke-linejoin:bevel;stroke-width:1.5;" x="490.67640052" xlink:href="#m0933169453" y="351.679965965"/>
    </g>
   </g>
   <g id="line2d_17">
    <path d="
M451.076 61.4837
L490.676 187.434" style="fill:none;stroke:#00bfbf;stroke-linecap:square;stroke-width:1.5;"/>
    <g>
     <use style="fill:none;stroke:#00bfbf;stroke-width:1.5;" x="451.07640052" xlink:href="#m3e4de746de" y="61.483715702"/>
     <use style="fill:none;stroke:#00bfbf;stroke-width:1.5;" x="490.67640052" xlink:href="#m3e4de746de" y="187.434421411"/>
    </g>
   </g>
   <g id="line2d_18">
    <path d="
M451.076 36.4527
L490.676 23.1889" style="fill:none;stroke:#008000;stroke-linecap:square;stroke-width:1.5;"/>
    <g>
     <use style="fill:none;stroke:#008000;stroke-linejoin:miter;stroke-width:1.5;" x="451.07640052" xlink:href="#m397e16cd68" y="36.4526923101"/>
     <use style="fill:none;stroke:#008000;stroke-linejoin:miter;stroke-width:1.5;" x="490.67640052" xlink:href="#m397e16cd68" y="23.1888768564"/>
    </g>
   </g>
   <g id="line2d_19">
    <path d="
M451.076 358.524
L451.076 16.3453" style="fill:none;stroke:#000000;stroke-linecap:square;"/>
   </g>
   <g id="matplotlib.axis_1">
    <g id="xtick_1">
     <g id="line2d_20">
      <path clip-path="url(#p5e7421a262)" d="
M91.0764 358.524
L91.0764 12.9235" style="fill:none;stroke:#000000;stroke-dasharray:1.000000,3.000000;stroke-dashoffset:0.0;stroke-width:0.5;"/>
     </g>
     <g id="line2d_21">
      <defs>
       <path d="
M0 0
L0 -4" id="m93b0483c22" style="stroke:#000000;stroke-width:0.5;"/>
      </defs>
      <g>
       <use style="stroke:#000000;stroke-width:0.5;" x="91.0764005203" xlink:href="#m93b0483c22" y="358.523530322"/>
      </g>
     </g>
     <g id="line2d_22">
      <defs>
       <path d="
M0 0
L0 4" id="m741efc42ff" style="stroke:#000000;stroke-width:0.5;"/>
      </defs>
      <g>
       <use style="stroke:#000000;stroke-width:0.5;" x="91.0764005203" xlink:href="#m741efc42ff" y="12.9235303218"/>
      </g>
     </g>
     <g id="text_1">
      <!-- 0 -->
      <defs>
       <path d="
M4.15625 35.2969
Q4.15625 48 6.76562 55.7344
Q9.375 63.4844 14.5156 67.6719
Q19.6719 71.875 27.4844 71.875
Q33.25 71.875 37.5938 69.5469
Q41.9375 67.2344 44.7656 62.8594
Q47.6094 58.5 49.2188 52.2188
Q50.8281 45.9531 50.8281 35.2969
Q50.8281 22.7031 48.2344 14.9688
Q45.6562 7.23438 40.5 3
Q35.3594 -1.21875 27.4844 -1.21875
Q17.1406 -1.21875 11.2344 6.20312
Q4.15625 15.1406 4.15625 35.2969
M13.1875 35.2969
Q13.1875 17.6719 17.3125 11.8281
Q21.4375 6 27.4844 6
Q33.5469 6 37.6719 11.8594
Q41.7969 17.7188 41.7969 35.2969
Q41.7969 52.9844 37.6719 58.7812
Q33.5469 64.5938 27.3906 64.5938
Q21.3438 64.5938 17.7188 59.4688
Q13.1875 52.9375 13.1875 35.2969" id="ArialMT-30"/>
      </defs>
      <g transform="translate(86.4092130203 376.839155322)scale(0.2 -0.2)">
       <use xlink:href="#ArialMT-30"/>
      </g>
     </g>
    </g>
    <g id="xtick_2">
     <g id="line2d_23">
      <path clip-path="url(#p5e7421a262)" d="
M211.076 358.524
L211.076 12.9235" style="fill:none;stroke:#000000;stroke-dasharray:1.000000,3.000000;stroke-dashoffset:0.0;stroke-width:0.5;"/>
     </g>
     <g id="line2d_24">
      <g>
       <use style="stroke:#000000;stroke-width:0.5;" x="211.07640052" xlink:href="#m93b0483c22" y="358.523530322"/>
      </g>
     </g>
     <g id="line2d_25">
      <g>
       <use style="stroke:#000000;stroke-width:0.5;" x="211.07640052" xlink:href="#m741efc42ff" y="12.9235303218"/>
      </g>
     </g>
     <g id="text_2">
      <!-- 1 -->
      <defs>
       <path d="
M37.25 0
L28.4688 0
L28.4688 56
Q25.2969 52.9844 20.1406 49.9531
Q14.9844 46.9219 10.8906 45.4062
L10.8906 53.9062
Q18.2656 57.375 23.7812 62.2969
Q29.2969 67.2344 31.5938 71.875
L37.25 71.875
z
" id="ArialMT-31"/>
      </defs>
      <g transform="translate(208.44046302 376.839155322)scale(0.2 -0.2)">
       <use xlink:href="#ArialMT-31"/>
      </g>
     </g>
    </g>
    <g id="xtick_3">
     <g id="line2d_26">
      <path clip-path="url(#p5e7421a262)" d="
M331.076 358.524
L331.076 12.9235" style="fill:none;stroke:#000000;stroke-dasharray:1.000000,3.000000;stroke-dashoffset:0.0;stroke-width:0.5;"/>
     </g>
     <g id="line2d_27">
      <g>
       <use style="stroke:#000000;stroke-width:0.5;" x="331.07640052" xlink:href="#m93b0483c22" y="358.523530322"/>
      </g>
     </g>
     <g id="line2d_28">
      <g>
       <use style="stroke:#000000;stroke-width:0.5;" x="331.07640052" xlink:href="#m741efc42ff" y="12.9235303218"/>
      </g>
     </g>
     <g id="text_3">
      <!-- 2 -->
      <defs>
       <path d="
M50.3438 8.45312
L50.3438 0
L3.03125 0
Q2.9375 3.17188 4.04688 6.10938
Q5.85938 10.9375 9.82812 15.625
Q13.8125 20.3125 21.3438 26.4688
Q33.0156 36.0312 37.1094 41.625
Q41.2188 47.2188 41.2188 52.2031
Q41.2188 57.4219 37.4688 61
Q33.7344 64.5938 27.7344 64.5938
Q21.3906 64.5938 17.5781 60.7812
Q13.7656 56.9844 13.7188 50.25
L4.6875 51.1719
Q5.60938 61.2812 11.6562 66.5781
Q17.7188 71.875 27.9375 71.875
Q38.2344 71.875 44.2344 66.1562
Q50.25 60.4531 50.25 52
Q50.25 47.7031 48.4844 43.5469
Q46.7344 39.4062 42.6562 34.8125
Q38.5781 30.2188 29.1094 22.2188
Q21.1875 15.5781 18.9375 13.2031
Q16.7031 10.8438 15.2344 8.45312
z
" id="ArialMT-32"/>
      </defs>
      <g transform="translate(326.33577552 376.839155322)scale(0.2 -0.2)">
       <use xlink:href="#ArialMT-32"/>
      </g>
     </g>
    </g>
    <g id="xtick_4">
     <g id="line2d_29">
      <path clip-path="url(#p5e7421a262)" d="
M451.076 358.524
L451.076 12.9235" style="fill:none;stroke:#000000;stroke-dasharray:1.000000,3.000000;stroke-dashoffset:0.0;stroke-width:0.5;"/>
     </g>
     <g id="line2d_30">
      <g>
       <use style="stroke:#000000;stroke-width:0.5;" x="451.07640052" xlink:href="#m93b0483c22" y="358.523530322"/>
      </g>
     </g>
     <g id="line2d_31">
      <g>
       <use style="stroke:#000000;stroke-width:0.5;" x="451.07640052" xlink:href="#m741efc42ff" y="12.9235303218"/>
      </g>
     </g>
     <g id="text_4">
      <!-- 3 -->
      <defs>
       <path d="
M4.20312 18.8906
L12.9844 20.0625
Q14.5 12.5938 18.1406 9.29688
Q21.7812 6 27 6
Q33.2031 6 37.4688 10.2969
Q41.75 14.5938 41.75 20.9531
Q41.75 27 37.7969 30.9219
Q33.8438 34.8594 27.7344 34.8594
Q25.25 34.8594 21.5312 33.8906
L22.5156 41.6094
Q23.3906 41.5 23.9219 41.5
Q29.5469 41.5 34.0312 44.4219
Q38.5312 47.3594 38.5312 53.4688
Q38.5312 58.2969 35.25 61.4688
Q31.9844 64.6562 26.8125 64.6562
Q21.6875 64.6562 18.2656 61.4219
Q14.8438 58.2031 13.875 51.7656
L5.07812 53.3281
Q6.6875 62.1562 12.3906 67.0156
Q18.1094 71.875 26.6094 71.875
Q32.4688 71.875 37.3906 69.3594
Q42.3281 66.8438 44.9375 62.5
Q47.5625 58.1562 47.5625 53.2656
Q47.5625 48.6406 45.0625 44.8281
Q42.5781 41.0156 37.7031 38.7656
Q44.0469 37.3125 47.5625 32.6875
Q51.0781 28.0781 51.0781 21.1406
Q51.0781 11.7656 44.2344 5.25
Q37.4062 -1.26562 26.9531 -1.26562
Q17.5312 -1.26562 11.2969 4.34375
Q5.07812 9.96875 4.20312 18.8906" id="ArialMT-33"/>
      </defs>
      <g transform="translate(446.38890052 376.839155322)scale(0.2 -0.2)">
       <use xlink:href="#ArialMT-33"/>
      </g>
     </g>
    </g>
    <g id="xtick_5">
     <g id="line2d_32">
      <defs>
       <path d="
M0 0
L0 -2" id="m177f7580d0" style="stroke:#000000;stroke-width:0.5;"/>
      </defs>
      <g>
       <use style="stroke:#000000;stroke-width:0.5;" x="127.2" xlink:href="#m177f7580d0" y="358.523530322"/>
      </g>
     </g>
     <g id="line2d_33">
      <defs>
       <path d="
M0 0
L0 2" id="m5284c7e2a0" style="stroke:#000000;stroke-width:0.5;"/>
      </defs>
      <g>
       <use style="stroke:#000000;stroke-width:0.5;" x="127.2" xlink:href="#m5284c7e2a0" y="12.9235303218"/>
      </g>
     </g>
    </g>
    <g id="xtick_6">
     <g id="line2d_34">
      <g>
       <use style="stroke:#000000;stroke-width:0.5;" x="148.330951087" xlink:href="#m177f7580d0" y="358.523530322"/>
      </g>
     </g>
     <g id="line2d_35">
      <g>
       <use style="stroke:#000000;stroke-width:0.5;" x="148.330951087" xlink:href="#m5284c7e2a0" y="12.9235303218"/>
      </g>
     </g>
    </g>
    <g id="xtick_7">
     <g id="line2d_36">
      <g>
       <use style="stroke:#000000;stroke-width:0.5;" x="163.32359948" xlink:href="#m177f7580d0" y="358.523530322"/>
      </g>
     </g>
     <g id="line2d_37">
      <g>
       <use style="stroke:#000000;stroke-width:0.5;" x="163.32359948" xlink:href="#m5284c7e2a0" y="12.9235303218"/>
      </g>
     </g>
    </g>
    <g id="xtick_8">
     <g id="line2d_38">
      <g>
       <use style="stroke:#000000;stroke-width:0.5;" x="174.952801041" xlink:href="#m177f7580d0" y="358.523530322"/>
      </g>
     </g>
     <g id="line2d_39">
      <g>
       <use style="stroke:#000000;stroke-width:0.5;" x="174.952801041" xlink:href="#m5284c7e2a0" y="12.9235303218"/>
      </g>
     </g>
    </g>
    <g id="xtick_9">
     <g id="line2d_40">
      <g>
       <use style="stroke:#000000;stroke-width:0.5;" x="184.454550566" xlink:href="#m177f7580d0" y="358.523530322"/>
      </g>
     </g>
     <g id="line2d_41">
      <g>
       <use style="stroke:#000000;stroke-width:0.5;" x="184.454550566" xlink:href="#m5284c7e2a0" y="12.9235303218"/>
      </g>
     </g>
    </g>
    <g id="xtick_10">
     <g id="line2d_42">
      <g>
       <use style="stroke:#000000;stroke-width:0.5;" x="192.488165322" xlink:href="#m177f7580d0" y="358.523530322"/>
      </g>
     </g>
     <g id="line2d_43">
      <g>
       <use style="stroke:#000000;stroke-width:0.5;" x="192.488165322" xlink:href="#m5284c7e2a0" y="12.9235303218"/>
      </g>
     </g>
    </g>
    <g id="xtick_11">
     <g id="line2d_44">
      <g>
       <use style="stroke:#000000;stroke-width:0.5;" x="199.447198959" xlink:href="#m177f7580d0" y="358.523530322"/>
      </g>
     </g>
     <g id="line2d_45">
      <g>
       <use style="stroke:#000000;stroke-width:0.5;" x="199.447198959" xlink:href="#m5284c7e2a0" y="12.9235303218"/>
      </g>
     </g>
    </g>
    <g id="xtick_12">
     <g id="line2d_46">
      <g>
       <use style="stroke:#000000;stroke-width:0.5;" x="205.585501653" xlink:href="#m177f7580d0" y="358.523530322"/>
      </g>
     </g>
     <g id="line2d_47">
      <g>
       <use style="stroke:#000000;stroke-width:0.5;" x="205.585501653" xlink:href="#m5284c7e2a0" y="12.9235303218"/>
      </g>
     </g>
    </g>
    <g id="xtick_13">
     <g id="line2d_48">
      <g>
       <use style="stroke:#000000;stroke-width:0.5;" x="247.2" xlink:href="#m177f7580d0" y="358.523530322"/>
      </g>
     </g>
     <g id="line2d_49">
      <g>
       <use style="stroke:#000000;stroke-width:0.5;" x="247.2" xlink:href="#m5284c7e2a0" y="12.9235303218"/>
      </g>
     </g>
    </g>
    <g id="xtick_14">
     <g id="line2d_50">
      <g>
       <use style="stroke:#000000;stroke-width:0.5;" x="268.330951087" xlink:href="#m177f7580d0" y="358.523530322"/>
      </g>
     </g>
     <g id="line2d_51">
      <g>
       <use style="stroke:#000000;stroke-width:0.5;" x="268.330951087" xlink:href="#m5284c7e2a0" y="12.9235303218"/>
      </g>
     </g>
    </g>
    <g id="xtick_15">
     <g id="line2d_52">
      <g>
       <use style="stroke:#000000;stroke-width:0.5;" x="283.32359948" xlink:href="#m177f7580d0" y="358.523530322"/>
      </g>
     </g>
     <g id="line2d_53">
      <g>
       <use style="stroke:#000000;stroke-width:0.5;" x="283.32359948" xlink:href="#m5284c7e2a0" y="12.9235303218"/>
      </g>
     </g>
    </g>
    <g id="xtick_16">
     <g id="line2d_54">
      <g>
       <use style="stroke:#000000;stroke-width:0.5;" x="294.952801041" xlink:href="#m177f7580d0" y="358.523530322"/>
      </g>
     </g>
     <g id="line2d_55">
      <g>
       <use style="stroke:#000000;stroke-width:0.5;" x="294.952801041" xlink:href="#m5284c7e2a0" y="12.9235303218"/>
      </g>
     </g>
    </g>
    <g id="xtick_17">
     <g id="line2d_56">
      <g>
       <use style="stroke:#000000;stroke-width:0.5;" x="304.454550566" xlink:href="#m177f7580d0" y="358.523530322"/>
      </g>
     </g>
     <g id="line2d_57">
      <g>
       <use style="stroke:#000000;stroke-width:0.5;" x="304.454550566" xlink:href="#m5284c7e2a0" y="12.9235303218"/>
      </g>
     </g>
    </g>
    <g id="xtick_18">
     <g id="line2d_58">
      <g>
       <use style="stroke:#000000;stroke-width:0.5;" x="312.488165322" xlink:href="#m177f7580d0" y="358.523530322"/>
      </g>
     </g>
     <g id="line2d_59">
      <g>
       <use style="stroke:#000000;stroke-width:0.5;" x="312.488165322" xlink:href="#m5284c7e2a0" y="12.9235303218"/>
      </g>
     </g>
    </g>
    <g id="xtick_19">
     <g id="line2d_60">
      <g>
       <use style="stroke:#000000;stroke-width:0.5;" x="319.447198959" xlink:href="#m177f7580d0" y="358.523530322"/>
      </g>
     </g>
     <g id="line2d_61">
      <g>
       <use style="stroke:#000000;stroke-width:0.5;" x="319.447198959" xlink:href="#m5284c7e2a0" y="12.9235303218"/>
      </g>
     </g>
    </g>
    <g id="xtick_20">
     <g id="line2d_62">
      <g>
       <use style="stroke:#000000;stroke-width:0.5;" x="325.585501653" xlink:href="#m177f7580d0" y="358.523530322"/>
      </g>
     </g>
     <g id="line2d_63">
      <g>
       <use style="stroke:#000000;stroke-width:0.5;" x="325.585501653" xlink:href="#m5284c7e2a0" y="12.9235303218"/>
      </g>
     </g>
    </g>
    <g id="xtick_21">
     <g id="line2d_64">
      <g>
       <use style="stroke:#000000;stroke-width:0.5;" x="367.2" xlink:href="#m177f7580d0" y="358.523530322"/>
      </g>
     </g>
     <g id="line2d_65">
      <g>
       <use style="stroke:#000000;stroke-width:0.5;" x="367.2" xlink:href="#m5284c7e2a0" y="12.9235303218"/>
      </g>
     </g>
    </g>
    <g id="xtick_22">
     <g id="line2d_66">
      <g>
       <use style="stroke:#000000;stroke-width:0.5;" x="388.330951087" xlink:href="#m177f7580d0" y="358.523530322"/>
      </g>
     </g>
     <g id="line2d_67">
      <g>
       <use style="stroke:#000000;stroke-width:0.5;" x="388.330951087" xlink:href="#m5284c7e2a0" y="12.9235303218"/>
      </g>
     </g>
    </g>
    <g id="xtick_23">
     <g id="line2d_68">
      <g>
       <use style="stroke:#000000;stroke-width:0.5;" x="403.32359948" xlink:href="#m177f7580d0" y="358.523530322"/>
      </g>
     </g>
     <g id="line2d_69">
      <g>
       <use style="stroke:#000000;stroke-width:0.5;" x="403.32359948" xlink:href="#m5284c7e2a0" y="12.9235303218"/>
      </g>
     </g>
    </g>
    <g id="xtick_24">
     <g id="line2d_70">
      <g>
       <use style="stroke:#000000;stroke-width:0.5;" x="414.952801041" xlink:href="#m177f7580d0" y="358.523530322"/>
      </g>
     </g>
     <g id="line2d_71">
      <g>
       <use style="stroke:#000000;stroke-width:0.5;" x="414.952801041" xlink:href="#m5284c7e2a0" y="12.9235303218"/>
      </g>
     </g>
    </g>
    <g id="xtick_25">
     <g id="line2d_72">
      <g>
       <use style="stroke:#000000;stroke-width:0.5;" x="424.454550566" xlink:href="#m177f7580d0" y="358.523530322"/>
      </g>
     </g>
     <g id="line2d_73">
      <g>
       <use style="stroke:#000000;stroke-width:0.5;" x="424.454550566" xlink:href="#m5284c7e2a0" y="12.9235303218"/>
      </g>
     </g>
    </g>
    <g id="xtick_26">
     <g id="line2d_74">
      <g>
       <use style="stroke:#000000;stroke-width:0.5;" x="432.488165322" xlink:href="#m177f7580d0" y="358.523530322"/>
      </g>
     </g>
     <g id="line2d_75">
      <g>
       <use style="stroke:#000000;stroke-width:0.5;" x="432.488165322" xlink:href="#m5284c7e2a0" y="12.9235303218"/>
      </g>
     </g>
    </g>
    <g id="xtick_27">
     <g id="line2d_76">
      <g>
       <use style="stroke:#000000;stroke-width:0.5;" x="439.447198959" xlink:href="#m177f7580d0" y="358.523530322"/>
      </g>
     </g>
     <g id="line2d_77">
      <g>
       <use style="stroke:#000000;stroke-width:0.5;" x="439.447198959" xlink:href="#m5284c7e2a0" y="12.9235303218"/>
      </g>
     </g>
    </g>
    <g id="xtick_28">
     <g id="line2d_78">
      <g>
       <use style="stroke:#000000;stroke-width:0.5;" x="445.585501653" xlink:href="#m177f7580d0" y="358.523530322"/>
      </g>
     </g>
     <g id="line2d_79">
      <g>
       <use style="stroke:#000000;stroke-width:0.5;" x="445.585501653" xlink:href="#m5284c7e2a0" y="12.9235303218"/>
      </g>
     </g>
    </g>
    <g id="xtick_29">
     <g id="line2d_80">
      <g>
       <use style="stroke:#000000;stroke-width:0.5;" x="487.2" xlink:href="#m177f7580d0" y="358.523530322"/>
      </g>
     </g>
     <g id="line2d_81">
      <g>
       <use style="stroke:#000000;stroke-width:0.5;" x="487.2" xlink:href="#m5284c7e2a0" y="12.9235303218"/>
      </g>
     </g>
    </g>
    <g id="xtick_30">
     <g id="line2d_82">
      <g>
       <use style="stroke:#000000;stroke-width:0.5;" x="508.330951087" xlink:href="#m177f7580d0" y="358.523530322"/>
      </g>
     </g>
     <g id="line2d_83">
      <g>
       <use style="stroke:#000000;stroke-width:0.5;" x="508.330951087" xlink:href="#m5284c7e2a0" y="12.9235303218"/>
      </g>
     </g>
    </g>
    <g id="xtick_31">
     <g id="line2d_84">
      <g>
       <use style="stroke:#000000;stroke-width:0.5;" x="523.32359948" xlink:href="#m177f7580d0" y="358.523530322"/>
      </g>
     </g>
     <g id="line2d_85">
      <g>
       <use style="stroke:#000000;stroke-width:0.5;" x="523.32359948" xlink:href="#m5284c7e2a0" y="12.9235303218"/>
      </g>
     </g>
    </g>
    <g id="xtick_32">
     <g id="line2d_86">
      <g>
       <use style="stroke:#000000;stroke-width:0.5;" x="534.952801041" xlink:href="#m177f7580d0" y="358.523530322"/>
      </g>
     </g>
     <g id="line2d_87">
      <g>
       <use style="stroke:#000000;stroke-width:0.5;" x="534.952801041" xlink:href="#m5284c7e2a0" y="12.9235303218"/>
      </g>
     </g>
    </g>
    <g id="text_5">
     <!-- log10 of (# f-evals / dimension) -->
     <defs>
      <path d="
M12.3594 -21.0469
L6.0625 -21.0469
Q20.6562 2.39062 20.6562 25.875
Q20.6562 35.0625 18.5625 44.0938
Q16.8906 51.4219 13.9219 58.1562
Q12.0156 62.5469 6.0625 72.7969
L12.3594 72.7969
Q21.5312 60.5469 25.9219 48.1875
Q29.6875 37.5469 29.6875 25.9219
Q29.6875 12.75 24.625 0.4375
Q19.5781 -11.8594 12.3594 -21.0469" id="ArialMT-29"/>
      <path d="
M40.4375 6.39062
Q35.5469 2.25 31.0312 0.53125
Q26.5156 -1.17188 21.3438 -1.17188
Q12.7969 -1.17188 8.20312 3
Q3.60938 7.17188 3.60938 13.6719
Q3.60938 17.4844 5.34375 20.625
Q7.07812 23.7812 9.89062 25.6875
Q12.7031 27.5938 16.2188 28.5625
Q18.7969 29.25 24.0312 29.8906
Q34.6719 31.1562 39.7031 32.9062
Q39.75 34.7188 39.75 35.2031
Q39.75 40.5781 37.25 42.7812
Q33.8906 45.75 27.25 45.75
Q21.0469 45.75 18.0938 43.5781
Q15.1406 41.4062 13.7188 35.8906
L5.125 37.0625
Q6.29688 42.5781 8.98438 45.9688
Q11.6719 49.3594 16.75 51.1875
Q21.8281 53.0312 28.5156 53.0312
Q35.1562 53.0312 39.2969 51.4688
Q43.4531 49.9062 45.4062 47.5312
Q47.3594 45.1719 48.1406 41.5469
Q48.5781 39.3125 48.5781 33.4531
L48.5781 21.7344
Q48.5781 9.46875 49.1406 6.21875
Q49.7031 2.98438 51.375 0
L42.1875 0
Q40.8281 2.73438 40.4375 6.39062
M39.7031 26.0312
Q34.9062 24.0781 25.3438 22.7031
Q19.9219 21.9219 17.6719 20.9375
Q15.4375 19.9688 14.2031 18.0938
Q12.9844 16.2188 12.9844 13.9219
Q12.9844 10.4062 15.6406 8.0625
Q18.3125 5.71875 23.4375 5.71875
Q28.5156 5.71875 32.4688 7.9375
Q36.4219 10.1562 38.2812 14.0156
Q39.7031 17 39.7031 22.7969
z
" id="ArialMT-61"/>
      <path d="
M4.98438 -4.29688
L13.5312 -5.5625
Q14.0625 -9.51562 16.5 -11.3281
Q19.7812 -13.7656 25.4375 -13.7656
Q31.5469 -13.7656 34.8594 -11.3281
Q38.1875 -8.89062 39.3594 -4.5
Q40.0469 -1.8125 39.9844 6.78125
Q34.2344 0 25.6406 0
Q14.9375 0 9.07812 7.71875
Q3.21875 15.4375 3.21875 26.2188
Q3.21875 33.6406 5.90625 39.9062
Q8.59375 46.1875 13.6875 49.6094
Q18.7969 53.0312 25.6875 53.0312
Q34.8594 53.0312 40.8281 45.6094
L40.8281 51.8594
L48.9219 51.8594
L48.9219 7.03125
Q48.9219 -5.07812 46.4531 -10.125
Q44 -15.1875 38.6406 -18.1094
Q33.2969 -21.0469 25.4844 -21.0469
Q16.2188 -21.0469 10.5 -16.875
Q4.78125 -12.7031 4.98438 -4.29688
M12.25 26.8594
Q12.25 16.6562 16.2969 11.9688
Q20.3594 7.28125 26.4688 7.28125
Q32.5156 7.28125 36.6094 11.9375
Q40.7188 16.6094 40.7188 26.5625
Q40.7188 36.0781 36.5 40.9062
Q32.2812 45.75 26.3125 45.75
Q20.4531 45.75 16.3438 40.9844
Q12.25 36.2344 12.25 26.8594" id="ArialMT-67"/>
      <path d="
M8.6875 0
L8.6875 45.0156
L0.921875 45.0156
L0.921875 51.8594
L8.6875 51.8594
L8.6875 57.375
Q8.6875 62.5938 9.625 65.1406
Q10.8906 68.5625 14.0781 70.6719
Q17.2812 72.7969 23.0469 72.7969
Q26.7656 72.7969 31.25 71.9219
L29.9375 64.2656
Q27.2031 64.75 24.75 64.75
Q20.75 64.75 19.0938 63.0312
Q17.4375 61.3281 17.4375 56.6406
L17.4375 51.8594
L27.5469 51.8594
L27.5469 45.0156
L17.4375 45.0156
L17.4375 0
z
" id="ArialMT-66"/>
      <path d="
M42.0938 16.7031
L51.1719 15.5781
Q49.0312 7.625 43.2188 3.21875
Q37.4062 -1.17188 28.375 -1.17188
Q17 -1.17188 10.3281 5.82812
Q3.65625 12.8438 3.65625 25.4844
Q3.65625 38.5781 10.3906 45.7969
Q17.1406 53.0312 27.875 53.0312
Q38.2812 53.0312 44.875 45.9531
Q51.4688 38.875 51.4688 26.0312
Q51.4688 25.25 51.4219 23.6875
L12.75 23.6875
Q13.2344 15.1406 17.5781 10.5938
Q21.9219 6.0625 28.4219 6.0625
Q33.25 6.0625 36.6719 8.59375
Q40.0938 11.1406 42.0938 16.7031
M13.2344 30.9062
L42.1875 30.9062
Q41.6094 37.4531 38.875 40.7188
Q34.6719 45.7969 27.9844 45.7969
Q21.9219 45.7969 17.7969 41.75
Q13.6719 37.7031 13.2344 30.9062" id="ArialMT-65"/>
      <path d="
M40.2344 0
L40.2344 6.54688
Q35.2969 -1.17188 25.7344 -1.17188
Q19.5312 -1.17188 14.3281 2.25
Q9.125 5.67188 6.26562 11.7969
Q3.42188 17.9219 3.42188 25.875
Q3.42188 33.6406 6 39.9688
Q8.59375 46.2969 13.7656 49.6562
Q18.9531 53.0312 25.3438 53.0312
Q30.0312 53.0312 33.6875 51.0469
Q37.3594 49.0781 39.6562 45.9062
L39.6562 71.5781
L48.3906 71.5781
L48.3906 0
z

M12.4531 25.875
Q12.4531 15.9219 16.6406 10.9844
Q20.8438 6.0625 26.5625 6.0625
Q32.3281 6.0625 36.3438 10.7656
Q40.375 15.4844 40.375 25.1406
Q40.375 35.7969 36.2656 40.7656
Q32.1719 45.75 26.1719 45.75
Q20.3125 45.75 16.375 40.9688
Q12.4531 36.1875 12.4531 25.875" id="ArialMT-64"/>
      <path d="
M0 -1.21875
L20.75 72.7969
L27.7812 72.7969
L7.07812 -1.21875
z
" id="ArialMT-2f"/>
      <path d="
M21 0
L1.26562 51.8594
L10.5469 51.8594
L21.6875 20.7969
Q23.4844 15.7656 25 10.3594
Q26.1719 14.4531 28.2656 20.2188
L39.7969 51.8594
L48.8281 51.8594
L29.2031 0
z
" id="ArialMT-76"/>
      <path d="
M3.17188 21.4844
L3.17188 30.3281
L30.1719 30.3281
L30.1719 21.4844
z
" id="ArialMT-2d"/>
      <path d="
M6.59375 0
L6.59375 51.8594
L14.4531 51.8594
L14.4531 44.5781
Q16.8906 48.3906 20.9375 50.7031
Q25 53.0312 30.1719 53.0312
Q35.9375 53.0312 39.625 50.6406
Q43.3125 48.25 44.8281 43.9531
Q50.9844 53.0312 60.8438 53.0312
Q68.5625 53.0312 72.7031 48.75
Q76.8594 44.4844 76.8594 35.5938
L76.8594 0
L68.1094 0
L68.1094 32.6719
Q68.1094 37.9375 67.25 40.25
Q66.4062 42.5781 64.1562 43.9844
Q61.9219 45.4062 58.8906 45.4062
Q53.4219 45.4062 49.7969 41.7656
Q46.1875 38.1406 46.1875 30.125
L46.1875 0
L37.4062 0
L37.4062 33.6875
Q37.4062 39.5469 35.25 42.4688
Q33.1094 45.4062 28.2188 45.4062
Q24.5156 45.4062 21.3594 43.4531
Q18.2188 41.5 16.7969 37.7344
Q15.375 33.9844 15.375 26.9062
L15.375 0
z
" id="ArialMT-6d"/>
      <path d="
M3.07812 15.4844
L11.7656 16.8438
Q12.5 11.625 15.8438 8.84375
Q19.1875 6.0625 25.2031 6.0625
Q31.25 6.0625 34.1719 8.51562
Q37.1094 10.9844 37.1094 14.3125
Q37.1094 17.2812 34.5156 19
Q32.7188 20.1719 25.5312 21.9688
Q15.875 24.4219 12.1406 26.2031
Q8.40625 27.9844 6.46875 31.125
Q4.54688 34.2812 4.54688 38.0938
Q4.54688 41.5469 6.125 44.5
Q7.71875 47.4688 10.4531 49.4219
Q12.5 50.9219 16.0312 51.9688
Q19.5781 53.0312 23.6406 53.0312
Q29.7344 53.0312 34.3438 51.2656
Q38.9688 49.5156 41.1562 46.5
Q43.3594 43.5 44.1875 38.4844
L35.5938 37.3125
Q35.0156 41.3125 32.2031 43.5469
Q29.3906 45.7969 24.2656 45.7969
Q18.2188 45.7969 15.625 43.7969
Q13.0312 41.7969 13.0312 39.1094
Q13.0312 37.4062 14.1094 36.0312
Q15.1875 34.625 17.4844 33.6875
Q18.7969 33.2031 25.25 31.4531
Q34.5781 28.9531 38.25 27.3594
Q41.9375 25.7812 44.0312 22.75
Q46.1406 19.7344 46.1406 15.2344
Q46.1406 10.8438 43.5781 6.95312
Q41.0156 3.07812 36.1719 0.953125
Q31.3438 -1.17188 25.25 -1.17188
Q15.1406 -1.17188 9.84375 3.03125
Q4.54688 7.23438 3.07812 15.4844" id="ArialMT-73"/>
      <path d="
M6.39062 0
L6.39062 71.5781
L15.1875 71.5781
L15.1875 0
z
" id="ArialMT-6c"/>
      <path d="
M3.32812 25.9219
Q3.32812 40.3281 11.3281 47.2656
Q18.0156 53.0312 27.6406 53.0312
Q38.3281 53.0312 45.1094 46.0156
Q51.9062 39.0156 51.9062 26.6562
Q51.9062 16.6562 48.9062 10.9062
Q45.9062 5.17188 40.1562 2
Q34.4219 -1.17188 27.6406 -1.17188
Q16.75 -1.17188 10.0312 5.8125
Q3.32812 12.7969 3.32812 25.9219
M12.3594 25.9219
Q12.3594 15.9688 16.7031 11.0156
Q21.0469 6.0625 27.6406 6.0625
Q34.1875 6.0625 38.5312 11.0312
Q42.875 16.0156 42.875 26.2188
Q42.875 35.8438 38.5 40.7969
Q34.125 45.75 27.6406 45.75
Q21.0469 45.75 16.7031 40.8125
Q12.3594 35.8906 12.3594 25.9219" id="ArialMT-6f"/>
      <path d="
M6.59375 0
L6.59375 51.8594
L14.5 51.8594
L14.5 44.4844
Q20.2188 53.0312 31 53.0312
Q35.6875 53.0312 39.625 51.3438
Q43.5625 49.6562 45.5156 46.9219
Q47.4688 44.1875 48.25 40.4375
Q48.7344 37.9844 48.7344 31.8906
L48.7344 0
L39.9375 0
L39.9375 31.5469
Q39.9375 36.9219 38.9062 39.5781
Q37.8906 42.2344 35.2812 43.8125
Q32.6719 45.4062 29.1562 45.4062
Q23.5312 45.4062 19.4531 41.8438
Q15.375 38.2812 15.375 28.3281
L15.375 0
z
" id="ArialMT-6e"/>
      <path d="
M23.3906 -21.0469
Q16.1094 -11.8594 11.0781 0.4375
Q6.0625 12.75 6.0625 25.9219
Q6.0625 37.5469 9.8125 48.1875
Q14.2031 60.5469 23.3906 72.7969
L29.6875 72.7969
Q23.7812 62.6406 21.875 58.2969
Q18.8906 51.5625 17.1875 44.2344
Q15.0938 35.1094 15.0938 25.875
Q15.0938 2.39062 29.6875 -21.0469
z
" id="ArialMT-28"/>
      <path d="
M5.03125 -1.21875
L9.28125 19.5781
L1.03125 19.5781
L1.03125 26.8594
L10.75 26.8594
L14.3594 44.5781
L1.03125 44.5781
L1.03125 51.8594
L15.8281 51.8594
L20.0625 72.7969
L27.3906 72.7969
L23.1406 51.8594
L38.5312 51.8594
L42.7812 72.7969
L50.1406 72.7969
L45.9062 51.8594
L54.3438 51.8594
L54.3438 44.5781
L44.4375 44.5781
L40.7656 26.8594
L54.3438 26.8594
L54.3438 19.5781
L39.3125 19.5781
L35.0625 -1.21875
L27.7344 -1.21875
L31.9375 19.5781
L16.6094 19.5781
L12.3594 -1.21875
z

M18.0625 26.8594
L33.4062 26.8594
L37.0625 44.5781
L21.6875 44.5781
z
" id="ArialMT-23"/>
      <path d="
M6.64062 61.4688
L6.64062 71.5781
L15.4375 71.5781
L15.4375 61.4688
z

M6.64062 0
L6.64062 51.8594
L15.4375 51.8594
L15.4375 0
z
" id="ArialMT-69"/>
      <path id="ArialMT-20"/>
     </defs>
     <g transform="translate(191.55015052 398.917592822)scale(0.18 -0.18)">
      <use xlink:href="#ArialMT-6c"/>
      <use x="22.216796875" xlink:href="#ArialMT-6f"/>
      <use x="77.83203125" xlink:href="#ArialMT-67"/>
      <use x="133.447265625" xlink:href="#ArialMT-31"/>
      <use x="189.0625" xlink:href="#ArialMT-30"/>
      <use x="244.677734375" xlink:href="#ArialMT-20"/>
      <use x="272.4609375" xlink:href="#ArialMT-6f"/>
      <use x="328.076171875" xlink:href="#ArialMT-66"/>
      <use x="355.859375" xlink:href="#ArialMT-20"/>
      <use x="383.642578125" xlink:href="#ArialMT-28"/>
      <use x="416.943359375" xlink:href="#ArialMT-23"/>
      <use x="472.55859375" xlink:href="#ArialMT-20"/>
      <use x="500.341796875" xlink:href="#ArialMT-66"/>
      <use x="528.125" xlink:href="#ArialMT-2d"/>
      <use x="561.42578125" xlink:href="#ArialMT-65"/>
      <use x="617.041015625" xlink:href="#ArialMT-76"/>
      <use x="667.041015625" xlink:href="#ArialMT-61"/>
      <use x="722.65625" xlink:href="#ArialMT-6c"/>
      <use x="744.873046875" xlink:href="#ArialMT-73"/>
      <use x="794.873046875" xlink:href="#ArialMT-20"/>
      <use x="822.65625" xlink:href="#ArialMT-2f"/>
      <use x="850.439453125" xlink:href="#ArialMT-20"/>
      <use x="878.22265625" xlink:href="#ArialMT-64"/>
      <use x="933.837890625" xlink:href="#ArialMT-69"/>
      <use x="956.0546875" xlink:href="#ArialMT-6d"/>
      <use x="1039.35546875" xlink:href="#ArialMT-65"/>
      <use x="1094.97070312" xlink:href="#ArialMT-6e"/>
      <use x="1150.5859375" xlink:href="#ArialMT-73"/>
      <use x="1200.5859375" xlink:href="#ArialMT-69"/>
      <use x="1222.80273438" xlink:href="#ArialMT-6f"/>
      <use x="1278.41796875" xlink:href="#ArialMT-6e"/>
      <use x="1334.03320312" xlink:href="#ArialMT-29"/>
     </g>
    </g>
   </g>
   <g id="matplotlib.axis_2">
    <g id="ytick_1">
     <g id="line2d_88">
      <path clip-path="url(#p5e7421a262)" d="
M91.0764 358.524
L537.476 358.524" style="fill:none;stroke:#000000;stroke-dasharray:1.000000,3.000000;stroke-dashoffset:0.0;stroke-width:0.5;"/>
     </g>
     <g id="line2d_89">
      <defs>
       <path d="
M0 0
L4 0" id="m728421d6d4" style="stroke:#000000;stroke-width:0.5;"/>
      </defs>
      <g>
       <use style="stroke:#000000;stroke-width:0.5;" x="91.0764005203" xlink:href="#m728421d6d4" y="358.523530322"/>
      </g>
     </g>
     <g id="line2d_90">
      <defs>
       <path d="
M0 0
L-4 0" id="mcb0005524f" style="stroke:#000000;stroke-width:0.5;"/>
      </defs>
      <g>
       <use style="stroke:#000000;stroke-width:0.5;" x="537.47640052" xlink:href="#mcb0005524f" y="358.523530322"/>
      </g>
     </g>
     <g id="text_6">
      <!-- 0.0 -->
      <defs>
       <path d="
M9.07812 0
L9.07812 10.0156
L19.0938 10.0156
L19.0938 0
z
" id="ArialMT-2e"/>
      </defs>
      <g transform="translate(61.0639005203 363.693842822)scale(0.2 -0.2)">
       <use xlink:href="#ArialMT-30"/>
       <use x="55.615234375" xlink:href="#ArialMT-2e"/>
       <use x="83.3984375" xlink:href="#ArialMT-30"/>
      </g>
     </g>
    </g>
    <g id="ytick_2">
     <g id="line2d_91">
      <path clip-path="url(#p5e7421a262)" d="
M91.0764 290.088
L537.476 290.088" style="fill:none;stroke:#000000;stroke-dasharray:1.000000,3.000000;stroke-dashoffset:0.0;stroke-width:0.5;"/>
     </g>
     <g id="line2d_92">
      <g>
       <use style="stroke:#000000;stroke-width:0.5;" x="91.0764005203" xlink:href="#m728421d6d4" y="290.087886757"/>
      </g>
     </g>
     <g id="line2d_93">
      <g>
       <use style="stroke:#000000;stroke-width:0.5;" x="537.47640052" xlink:href="#mcb0005524f" y="290.087886757"/>
      </g>
     </g>
     <g id="text_7">
      <!-- 0.2 -->
      <g transform="translate(61.1607755203 295.258199257)scale(0.2 -0.2)">
       <use xlink:href="#ArialMT-30"/>
       <use x="55.615234375" xlink:href="#ArialMT-2e"/>
       <use x="83.3984375" xlink:href="#ArialMT-32"/>
      </g>
     </g>
    </g>
    <g id="ytick_3">
     <g id="line2d_94">
      <path clip-path="url(#p5e7421a262)" d="
M91.0764 221.652
L537.476 221.652" style="fill:none;stroke:#000000;stroke-dasharray:1.000000,3.000000;stroke-dashoffset:0.0;stroke-width:0.5;"/>
     </g>
     <g id="line2d_95">
      <g>
       <use style="stroke:#000000;stroke-width:0.5;" x="91.0764005203" xlink:href="#m728421d6d4" y="221.652243193"/>
      </g>
     </g>
     <g id="line2d_96">
      <g>
       <use style="stroke:#000000;stroke-width:0.5;" x="537.47640052" xlink:href="#mcb0005524f" y="221.652243193"/>
      </g>
     </g>
     <g id="text_8">
      <!-- 0.4 -->
      <defs>
       <path d="
M32.3281 0
L32.3281 17.1406
L1.26562 17.1406
L1.26562 25.2031
L33.9375 71.5781
L41.1094 71.5781
L41.1094 25.2031
L50.7812 25.2031
L50.7812 17.1406
L41.1094 17.1406
L41.1094 0
z

M32.3281 25.2031
L32.3281 57.4688
L9.90625 25.2031
z
" id="ArialMT-34"/>
      </defs>
      <g transform="translate(61.0732755203 226.822555693)scale(0.2 -0.2)">
       <use xlink:href="#ArialMT-30"/>
       <use x="55.615234375" xlink:href="#ArialMT-2e"/>
       <use x="83.3984375" xlink:href="#ArialMT-34"/>
      </g>
     </g>
    </g>
    <g id="ytick_4">
     <g id="line2d_97">
      <path clip-path="url(#p5e7421a262)" d="
M91.0764 153.217
L537.476 153.217" style="fill:none;stroke:#000000;stroke-dasharray:1.000000,3.000000;stroke-dashoffset:0.0;stroke-width:0.5;"/>
     </g>
     <g id="line2d_98">
      <g>
       <use style="stroke:#000000;stroke-width:0.5;" x="91.0764005203" xlink:href="#m728421d6d4" y="153.216599629"/>
      </g>
     </g>
     <g id="line2d_99">
      <g>
       <use style="stroke:#000000;stroke-width:0.5;" x="537.47640052" xlink:href="#mcb0005524f" y="153.216599629"/>
      </g>
     </g>
     <g id="text_9">
      <!-- 0.6 -->
      <defs>
       <path d="
M49.75 54.0469
L41.0156 53.375
Q39.8438 58.5469 37.7031 60.8906
Q34.125 64.6562 28.9062 64.6562
Q24.7031 64.6562 21.5312 62.3125
Q17.3906 59.2812 14.9844 53.4688
Q12.5938 47.6562 12.5 36.9219
Q15.6719 41.75 20.2656 44.0938
Q24.8594 46.4375 29.8906 46.4375
Q38.6719 46.4375 44.8438 39.9688
Q51.0312 33.5 51.0312 23.25
Q51.0312 16.5 48.125 10.7188
Q45.2188 4.9375 40.1406 1.85938
Q35.0625 -1.21875 28.6094 -1.21875
Q17.625 -1.21875 10.6875 6.85938
Q3.76562 14.9375 3.76562 33.5
Q3.76562 54.25 11.4219 63.6719
Q18.1094 71.875 29.4375 71.875
Q37.8906 71.875 43.2812 67.1406
Q48.6875 62.4062 49.75 54.0469
M13.875 23.1875
Q13.875 18.6562 15.7969 14.5
Q17.7188 10.3594 21.1875 8.17188
Q24.6562 6 28.4688 6
Q34.0312 6 38.0312 10.4844
Q42.0469 14.9844 42.0469 22.7031
Q42.0469 30.125 38.0781 34.3906
Q34.125 38.6719 28.125 38.6719
Q22.1719 38.6719 18.0156 34.3906
Q13.875 30.125 13.875 23.1875" id="ArialMT-36"/>
      </defs>
      <g transform="translate(61.0232755203 158.386912129)scale(0.2 -0.2)">
       <use xlink:href="#ArialMT-30"/>
       <use x="55.615234375" xlink:href="#ArialMT-2e"/>
       <use x="83.3984375" xlink:href="#ArialMT-36"/>
      </g>
     </g>
    </g>
    <g id="ytick_5">
     <g id="line2d_100">
      <path clip-path="url(#p5e7421a262)" d="
M91.0764 84.781
L537.476 84.781" style="fill:none;stroke:#000000;stroke-dasharray:1.000000,3.000000;stroke-dashoffset:0.0;stroke-width:0.5;"/>
     </g>
     <g id="line2d_101">
      <g>
       <use style="stroke:#000000;stroke-width:0.5;" x="91.0764005203" xlink:href="#m728421d6d4" y="84.7809560644"/>
      </g>
     </g>
     <g id="line2d_102">
      <g>
       <use style="stroke:#000000;stroke-width:0.5;" x="537.47640052" xlink:href="#mcb0005524f" y="84.7809560644"/>
      </g>
     </g>
     <g id="text_10">
      <!-- 0.8 -->
      <defs>
       <path d="
M17.6719 38.8125
Q12.2031 40.8281 9.5625 44.5312
Q6.9375 48.25 6.9375 53.4219
Q6.9375 61.2344 12.5469 66.5469
Q18.1719 71.875 27.4844 71.875
Q36.8594 71.875 42.5781 66.4219
Q48.2969 60.9844 48.2969 53.1719
Q48.2969 48.1875 45.6719 44.5
Q43.0625 40.8281 37.75 38.8125
Q44.3438 36.6719 47.7812 31.875
Q51.2188 27.0938 51.2188 20.4531
Q51.2188 11.2812 44.7188 5.03125
Q38.2344 -1.21875 27.6406 -1.21875
Q17.0469 -1.21875 10.5469 5.04688
Q4.04688 11.3281 4.04688 20.7031
Q4.04688 27.6875 7.59375 32.3906
Q11.1406 37.1094 17.6719 38.8125
M15.9219 53.7188
Q15.9219 48.6406 19.1875 45.4062
Q22.4688 42.1875 27.6875 42.1875
Q32.7656 42.1875 36.0156 45.375
Q39.2656 48.5781 39.2656 53.2188
Q39.2656 58.0625 35.9062 61.3594
Q32.5625 64.6562 27.5938 64.6562
Q22.5625 64.6562 19.2344 61.4219
Q15.9219 58.2031 15.9219 53.7188
M13.0938 20.6562
Q13.0938 16.8906 14.875 13.375
Q16.6562 9.85938 20.1719 7.92188
Q23.6875 6 27.7344 6
Q34.0312 6 38.125 10.0469
Q42.2344 14.1094 42.2344 20.3594
Q42.2344 26.7031 38.0156 30.8594
Q33.7969 35.0156 27.4375 35.0156
Q21.2344 35.0156 17.1562 30.9062
Q13.0938 26.8125 13.0938 20.6562" id="ArialMT-38"/>
      </defs>
      <g transform="translate(60.9857755203 89.9512685644)scale(0.2 -0.2)">
       <use xlink:href="#ArialMT-30"/>
       <use x="55.615234375" xlink:href="#ArialMT-2e"/>
       <use x="83.3984375" xlink:href="#ArialMT-38"/>
      </g>
     </g>
    </g>
    <g id="ytick_6">
     <g id="line2d_103">
      <path clip-path="url(#p5e7421a262)" d="
M91.0764 16.3453
L537.476 16.3453" style="fill:none;stroke:#000000;stroke-dasharray:1.000000,3.000000;stroke-dashoffset:0.0;stroke-width:0.5;"/>
     </g>
     <g id="line2d_104">
      <g>
       <use style="stroke:#000000;stroke-width:0.5;" x="91.0764005203" xlink:href="#m728421d6d4" y="16.3453125"/>
      </g>
     </g>
     <g id="line2d_105">
      <g>
       <use style="stroke:#000000;stroke-width:0.5;" x="537.47640052" xlink:href="#mcb0005524f" y="16.3453125"/>
      </g>
     </g>
     <g id="text_11">
      <!-- 1.0 -->
      <g transform="translate(62.4107755203 21.515625)scale(0.2 -0.2)">
       <use xlink:href="#ArialMT-31"/>
       <use x="55.615234375" xlink:href="#ArialMT-2e"/>
       <use x="83.3984375" xlink:href="#ArialMT-30"/>
      </g>
     </g>
    </g>
    <g id="text_12">
     <!-- Proportion of function+target pairs -->
     <defs>
      <path d="
M40.4375 19
L49.0781 17.875
Q47.6562 8.9375 41.8125 3.875
Q35.9844 -1.17188 27.4844 -1.17188
Q16.8438 -1.17188 10.375 5.78125
Q3.90625 12.75 3.90625 25.7344
Q3.90625 34.125 6.6875 40.4219
Q9.46875 46.7344 15.1562 49.875
Q20.8438 53.0312 27.5469 53.0312
Q35.9844 53.0312 41.3594 48.75
Q46.7344 44.4844 48.25 36.625
L39.7031 35.2969
Q38.4844 40.5312 35.375 43.1562
Q32.2812 45.7969 27.875 45.7969
Q21.2344 45.7969 17.0781 41.0312
Q12.9375 36.2812 12.9375 25.9844
Q12.9375 15.5312 16.9375 10.7969
Q20.9531 6.0625 27.3906 6.0625
Q32.5625 6.0625 36.0312 9.23438
Q39.5 12.4062 40.4375 19" id="ArialMT-63"/>
      <path d="
M25.7812 7.85938
L27.0469 0.09375
Q23.3438 -0.6875 20.4062 -0.6875
Q15.625 -0.6875 12.9844 0.828125
Q10.3594 2.34375 9.28125 4.8125
Q8.20312 7.28125 8.20312 15.1875
L8.20312 45.0156
L1.76562 45.0156
L1.76562 51.8594
L8.20312 51.8594
L8.20312 64.7031
L16.9375 69.9688
L16.9375 51.8594
L25.7812 51.8594
L25.7812 45.0156
L16.9375 45.0156
L16.9375 14.7031
Q16.9375 10.9375 17.4062 9.85938
Q17.875 8.79688 18.9219 8.15625
Q19.9688 7.51562 21.9219 7.51562
Q23.3906 7.51562 25.7812 7.85938" id="ArialMT-74"/>
      <path d="
M40.5781 0
L40.5781 7.625
Q34.5156 -1.17188 24.125 -1.17188
Q19.5312 -1.17188 15.5469 0.578125
Q11.5781 2.34375 9.64062 5
Q7.71875 7.67188 6.9375 11.5312
Q6.39062 14.1094 6.39062 19.7344
L6.39062 51.8594
L15.1875 51.8594
L15.1875 23.0938
Q15.1875 16.2188 15.7188 13.8125
Q16.5469 10.3594 19.2344 8.375
Q21.9219 6.39062 25.875 6.39062
Q29.8281 6.39062 33.2969 8.42188
Q36.7656 10.4531 38.2031 13.9375
Q39.6562 17.4375 39.6562 24.0781
L39.6562 51.8594
L48.4375 51.8594
L48.4375 0
z
" id="ArialMT-75"/>
      <path d="
M7.71875 0
L7.71875 71.5781
L34.7188 71.5781
Q41.8438 71.5781 45.6094 70.9062
Q50.875 70.0156 54.4375 67.5469
Q58.0156 65.0938 60.1875 60.6406
Q62.3594 56.2031 62.3594 50.875
Q62.3594 41.75 56.5469 35.4219
Q50.7344 29.1094 35.5469 29.1094
L17.1875 29.1094
L17.1875 0
z

M17.1875 37.5469
L35.6875 37.5469
Q44.875 37.5469 48.7344 40.9688
Q52.5938 44.3906 52.5938 50.5938
Q52.5938 55.0781 50.3125 58.2656
Q48.0469 61.4688 44.3438 62.5
Q41.9375 63.1406 35.5 63.1406
L17.1875 63.1406
z
" id="ArialMT-50"/>
      <path d="
M6.59375 -19.875
L6.59375 51.8594
L14.5938 51.8594
L14.5938 45.125
Q17.4375 49.0781 21 51.0469
Q24.5625 53.0312 29.6406 53.0312
Q36.2812 53.0312 41.3594 49.6094
Q46.4375 46.1875 49.0156 39.9531
Q51.6094 33.7344 51.6094 26.3125
Q51.6094 18.3594 48.75 11.9844
Q45.9062 5.60938 40.4531 2.21875
Q35.0156 -1.17188 29 -1.17188
Q24.6094 -1.17188 21.1094 0.6875
Q17.625 2.54688 15.375 5.375
L15.375 -19.875
z

M14.5469 25.6406
Q14.5469 15.625 18.5938 10.8438
Q22.6562 6.0625 28.4219 6.0625
Q34.2812 6.0625 38.4531 11.0156
Q42.625 15.9688 42.625 26.375
Q42.625 36.2812 38.5469 41.2031
Q34.4688 46.1406 28.8125 46.1406
Q23.1875 46.1406 18.8594 40.8906
Q14.5469 35.6406 14.5469 25.6406" id="ArialMT-70"/>
      <path d="
M25.0469 11.5781
L25.0469 31.2031
L5.5625 31.2031
L5.5625 39.4062
L25.0469 39.4062
L25.0469 58.8906
L33.3438 58.8906
L33.3438 39.4062
L52.8281 39.4062
L52.8281 31.2031
L33.3438 31.2031
L33.3438 11.5781
z
" id="ArialMT-2b"/>
      <path d="
M6.5 0
L6.5 51.8594
L14.4062 51.8594
L14.4062 44
Q17.4375 49.5156 20 51.2656
Q22.5625 53.0312 25.6406 53.0312
Q30.0781 53.0312 34.6719 50.2031
L31.6406 42.0469
Q28.4219 43.9531 25.2031 43.9531
Q22.3125 43.9531 20.0156 42.2188
Q17.7188 40.4844 16.75 37.4062
Q15.2812 32.7188 15.2812 27.1562
L15.2812 0
z
" id="ArialMT-72"/>
     </defs>
     <g transform="translate(52.1973380203 321.197436572)rotate(-90.0)scale(0.18 -0.18)">
      <use xlink:href="#ArialMT-50"/>
      <use x="66.69921875" xlink:href="#ArialMT-72"/>
      <use x="100.0" xlink:href="#ArialMT-6f"/>
      <use x="155.615234375" xlink:href="#ArialMT-70"/>
      <use x="211.23046875" xlink:href="#ArialMT-6f"/>
      <use x="266.845703125" xlink:href="#ArialMT-72"/>
      <use x="300.146484375" xlink:href="#ArialMT-74"/>
      <use x="327.9296875" xlink:href="#ArialMT-69"/>
      <use x="350.146484375" xlink:href="#ArialMT-6f"/>
      <use x="405.76171875" xlink:href="#ArialMT-6e"/>
      <use x="461.376953125" xlink:href="#ArialMT-20"/>
      <use x="489.16015625" xlink:href="#ArialMT-6f"/>
      <use x="544.775390625" xlink:href="#ArialMT-66"/>
      <use x="572.55859375" xlink:href="#ArialMT-20"/>
      <use x="600.341796875" xlink:href="#ArialMT-66"/>
      <use x="628.125" xlink:href="#ArialMT-75"/>
      <use x="683.740234375" xlink:href="#ArialMT-6e"/>
      <use x="739.35546875" xlink:href="#ArialMT-63"/>
      <use x="789.35546875" xlink:href="#ArialMT-74"/>
      <use x="817.138671875" xlink:href="#ArialMT-69"/>
      <use x="839.35546875" xlink:href="#ArialMT-6f"/>
      <use x="894.970703125" xlink:href="#ArialMT-6e"/>
      <use x="950.5859375" xlink:href="#ArialMT-2b"/>
      <use x="1008.984375" xlink:href="#ArialMT-74"/>
      <use x="1036.76757812" xlink:href="#ArialMT-61"/>
      <use x="1092.3828125" xlink:href="#ArialMT-72"/>
      <use x="1125.68359375" xlink:href="#ArialMT-67"/>
      <use x="1181.29882812" xlink:href="#ArialMT-65"/>
      <use x="1236.9140625" xlink:href="#ArialMT-74"/>
      <use x="1264.69726562" xlink:href="#ArialMT-20"/>
      <use x="1292.48046875" xlink:href="#ArialMT-70"/>
      <use x="1348.09570312" xlink:href="#ArialMT-61"/>
      <use x="1403.7109375" xlink:href="#ArialMT-69"/>
      <use x="1425.92773438" xlink:href="#ArialMT-72"/>
      <use x="1459.22851562" xlink:href="#ArialMT-73"/>
     </g>
    </g>
   </g>
   <g id="patch_3">
    <path d="
M91.0764 12.9235
L537.476 12.9235" style="fill:none;stroke:#000000;"/>
   </g>
   <g id="patch_4">
    <path d="
M537.476 358.524
L537.476 12.9235" style="fill:none;stroke:#000000;"/>
   </g>
   <g id="patch_5">
    <path d="
M91.0764 358.524
L537.476 358.524" style="fill:none;stroke:#000000;"/>
   </g>
   <g id="patch_6">
    <path d="
M91.0764 358.524
L91.0764 12.9235" style="fill:none;stroke:#000000;"/>
   </g>
   <g id="text_13">
    <!-- 5-D -->
    <defs>
     <path d="
M4.15625 18.75
L13.375 19.5312
Q14.4062 12.7969 18.1406 9.39062
Q21.875 6 27.1562 6
Q33.5 6 37.8906 10.7812
Q42.2812 15.5781 42.2812 23.4844
Q42.2812 31 38.0625 35.3438
Q33.8438 39.7031 27 39.7031
Q22.75 39.7031 19.3281 37.7656
Q15.9219 35.8438 13.9688 32.7656
L5.71875 33.8438
L12.6406 70.6094
L48.25 70.6094
L48.25 62.2031
L19.6719 62.2031
L15.8281 42.9688
Q22.2656 47.4688 29.3438 47.4688
Q38.7188 47.4688 45.1562 40.9688
Q51.6094 34.4688 51.6094 24.2656
Q51.6094 14.5469 45.9531 7.46875
Q39.0625 -1.21875 27.1562 -1.21875
Q17.3906 -1.21875 11.2031 4.25
Q5.03125 9.71875 4.15625 18.75" id="ArialMT-35"/>
     <path d="
M7.71875 0
L7.71875 71.5781
L32.375 71.5781
Q40.7188 71.5781 45.125 70.5625
Q51.2656 69.1406 55.6094 65.4375
Q61.2812 60.6406 64.0781 53.1875
Q66.8906 45.75 66.8906 36.1875
Q66.8906 28.0312 64.9844 21.7344
Q63.0938 15.4375 60.1094 11.2969
Q57.125 7.17188 53.5781 4.79688
Q50.0469 2.4375 45.0469 1.21875
Q40.0469 0 33.5469 0
z

M17.1875 8.45312
L32.4688 8.45312
Q39.5469 8.45312 43.5781 9.76562
Q47.6094 11.0781 50 13.4844
Q53.375 16.8438 55.25 22.5312
Q57.125 28.2188 57.125 36.3281
Q57.125 47.5625 53.4375 53.5938
Q49.75 59.625 44.4844 61.6719
Q40.6719 63.1406 32.2344 63.1406
L17.1875 63.1406
z
" id="ArialMT-44"/>
    </defs>
    <g transform="translate(497.87640052 355.55770034)scale(0.15 -0.15)">
     <use xlink:href="#ArialMT-35"/>
     <use x="55.615234375" xlink:href="#ArialMT-2d"/>
     <use x="88.916015625" xlink:href="#ArialMT-44"/>
    </g>
   </g>
   <g id="text_14">
    <!-- 2-D -->
    <g transform="translate(497.87640052 191.312155786)scale(0.15 -0.15)">
     <use xlink:href="#ArialMT-32"/>
     <use x="55.615234375" xlink:href="#ArialMT-2d"/>
     <use x="88.916015625" xlink:href="#ArialMT-44"/>
    </g>
   </g>
   <g id="text_15">
    <!-- 3-D -->
    <g transform="translate(497.87640052 27.0666112314)scale(0.15 -0.15)">
     <use xlink:href="#ArialMT-33"/>
     <use x="55.615234375" xlink:href="#ArialMT-2d"/>
     <use x="88.916015625" xlink:href="#ArialMT-44"/>
    </g>
   </g>
   <g id="text_16">
    <!-- bbob - f10-f14 -->
    <defs>
     <path d="
M14.7031 0
L6.54688 0
L6.54688 71.5781
L15.3281 71.5781
L15.3281 46.0469
Q20.9062 53.0312 29.5469 53.0312
Q34.3281 53.0312 38.5938 51.0938
Q42.875 49.1719 45.625 45.6719
Q48.3906 42.1875 49.9531 37.25
Q51.5156 32.3281 51.5156 26.7031
Q51.5156 13.375 44.9219 6.09375
Q38.3281 -1.17188 29.1094 -1.17188
Q19.9219 -1.17188 14.7031 6.5
z

M14.5938 26.3125
Q14.5938 17 17.1406 12.8438
Q21.2969 6.0625 28.375 6.0625
Q34.125 6.0625 38.3281 11.0625
Q42.5312 16.0625 42.5312 25.9844
Q42.5312 36.1406 38.5 40.9688
Q34.4688 45.7969 28.7656 45.7969
Q23 45.7969 18.7969 40.7969
Q14.5938 35.7969 14.5938 26.3125" id="ArialMT-62"/>
    </defs>
    <g transform="translate(95.5404005203 31.7604459468)scale(0.1666 -0.1666)">
     <use xlink:href="#ArialMT-62"/>
     <use x="55.615234375" xlink:href="#ArialMT-62"/>
     <use x="111.23046875" xlink:href="#ArialMT-6f"/>
     <use x="166.845703125" xlink:href="#ArialMT-62"/>
     <use x="222.4609375" xlink:href="#ArialMT-20"/>
     <use x="250.244140625" xlink:href="#ArialMT-2d"/>
     <use x="283.544921875" xlink:href="#ArialMT-20"/>
     <use x="311.328125" xlink:href="#ArialMT-66"/>
     <use x="339.111328125" xlink:href="#ArialMT-31"/>
     <use x="394.7265625" xlink:href="#ArialMT-30"/>
     <use x="450.341796875" xlink:href="#ArialMT-2d"/>
     <use x="483.642578125" xlink:href="#ArialMT-66"/>
     <use x="511.42578125" xlink:href="#ArialMT-31"/>
     <use x="567.041015625" xlink:href="#ArialMT-34"/>
    </g>
    <!-- 31 target RLs/dim: 0.5..50 -->
    <defs>
     <path d="
M7.85938 0
L7.85938 71.5781
L39.5938 71.5781
Q49.1719 71.5781 54.1406 69.6406
Q59.125 67.7188 62.1094 62.8281
Q65.0938 57.9531 65.0938 52.0469
Q65.0938 44.4375 60.1562 39.2031
Q55.2188 33.9844 44.9219 32.5625
Q48.6875 30.7656 50.6406 29
Q54.7812 25.2031 58.5 19.4844
L70.9531 0
L59.0312 0
L49.5625 14.8906
Q45.4062 21.3438 42.7188 24.75
Q40.0469 28.1719 37.9219 29.5312
Q35.7969 30.9062 33.5938 31.4531
Q31.9844 31.7812 28.3281 31.7812
L17.3281 31.7812
L17.3281 0
z

M17.3281 39.9844
L37.7031 39.9844
Q44.1875 39.9844 47.8438 41.3281
Q51.5156 42.6719 53.4219 45.625
Q55.3281 48.5781 55.3281 52.0469
Q55.3281 57.125 51.6406 60.3906
Q47.9531 63.6719 39.9844 63.6719
L17.3281 63.6719
z
" id="ArialMT-52"/>
     <path d="
M9.03125 41.8438
L9.03125 51.8594
L19.0469 51.8594
L19.0469 41.8438
z

M9.03125 0
L9.03125 10.0156
L19.0469 10.0156
L19.0469 0
z
" id="ArialMT-3a"/>
     <path d="
M7.32812 0
L7.32812 71.5781
L16.7969 71.5781
L16.7969 8.45312
L52.0469 8.45312
L52.0469 0
z
" id="ArialMT-4c"/>
    </defs>
    <g transform="translate(95.5404005203 49.6251721968)scale(0.1666 -0.1666)">
     <use xlink:href="#ArialMT-33"/>
     <use x="55.615234375" xlink:href="#ArialMT-31"/>
     <use x="111.23046875" xlink:href="#ArialMT-20"/>
     <use x="139.013671875" xlink:href="#ArialMT-74"/>
     <use x="166.796875" xlink:href="#ArialMT-61"/>
     <use x="222.412109375" xlink:href="#ArialMT-72"/>
     <use x="255.712890625" xlink:href="#ArialMT-67"/>
     <use x="311.328125" xlink:href="#ArialMT-65"/>
     <use x="366.943359375" xlink:href="#ArialMT-74"/>
     <use x="394.7265625" xlink:href="#ArialMT-20"/>
     <use x="422.509765625" xlink:href="#ArialMT-52"/>
     <use x="494.7265625" xlink:href="#ArialMT-4c"/>
     <use x="550.341796875" xlink:href="#ArialMT-73"/>
     <use x="600.341796875" xlink:href="#ArialMT-2f"/>
     <use x="628.125" xlink:href="#ArialMT-64"/>
     <use x="683.740234375" xlink:href="#ArialMT-69"/>
     <use x="705.95703125" xlink:href="#ArialMT-6d"/>
     <use x="789.2578125" xlink:href="#ArialMT-3a"/>
     <use x="817.041015625" xlink:href="#ArialMT-20"/>
     <use x="844.82421875" xlink:href="#ArialMT-30"/>
     <use x="900.439453125" xlink:href="#ArialMT-2e"/>
     <use x="928.22265625" xlink:href="#ArialMT-35"/>
     <use x="983.837890625" xlink:href="#ArialMT-2e"/>
     <use x="1011.62109375" xlink:href="#ArialMT-2e"/>
     <use x="1039.40429688" xlink:href="#ArialMT-35"/>
     <use x="1095.01953125" xlink:href="#ArialMT-30"/>
    </g>
    <!--    from refalgs/best2009-bbob.tar.gz -->
    <defs>
     <path d="
M5.46875 16.5469
L13.9219 17.3281
Q14.9844 11.375 18.0156 8.6875
Q21.0469 6 25.7812 6
Q29.8281 6 32.875 7.85938
Q35.9375 9.71875 37.8906 12.8125
Q39.8438 15.9219 41.1562 21.1875
Q42.4844 26.4688 42.4844 31.9375
Q42.4844 32.5156 42.4375 33.6875
Q39.7969 29.5 35.2344 26.875
Q30.6719 24.2656 25.3438 24.2656
Q16.4531 24.2656 10.2969 30.7031
Q4.15625 37.1562 4.15625 47.7031
Q4.15625 58.5938 10.5781 65.2344
Q17 71.875 26.6562 71.875
Q33.6406 71.875 39.4219 68.1094
Q45.2188 64.3594 48.2188 57.3906
Q51.2188 50.4375 51.2188 37.25
Q51.2188 23.5312 48.2344 15.4062
Q45.2656 7.28125 39.375 3.03125
Q33.5 -1.21875 25.5938 -1.21875
Q17.1875 -1.21875 11.8594 3.4375
Q6.54688 8.10938 5.46875 16.5469
M41.4531 48.1406
Q41.4531 55.7188 37.4219 60.1562
Q33.4062 64.5938 27.7344 64.5938
Q21.875 64.5938 17.5312 59.8125
Q13.1875 55.0312 13.1875 47.4062
Q13.1875 40.5781 17.3125 36.2969
Q21.4375 32.0312 27.4844 32.0312
Q33.5938 32.0312 37.5156 36.2969
Q41.4531 40.5781 41.4531 48.1406" id="ArialMT-39"/>
     <path d="
M1.95312 0
L1.95312 7.125
L34.9688 45.0156
Q29.3438 44.7344 25.0469 44.7344
L3.90625 44.7344
L3.90625 51.8594
L46.2969 51.8594
L46.2969 46.0469
L18.2188 13.1406
L12.7969 7.125
Q18.7031 7.5625 23.875 7.5625
L47.8594 7.5625
L47.8594 0
z
" id="ArialMT-7a"/>
    </defs>
    <g transform="translate(95.5404005203 67.6851328218)scale(0.1666 -0.1666)">
     <use xlink:href="#ArialMT-20"/>
     <use x="27.783203125" xlink:href="#ArialMT-20"/>
     <use x="55.56640625" xlink:href="#ArialMT-20"/>
     <use x="83.349609375" xlink:href="#ArialMT-66"/>
     <use x="111.1328125" xlink:href="#ArialMT-72"/>
     <use x="144.43359375" xlink:href="#ArialMT-6f"/>
     <use x="200.048828125" xlink:href="#ArialMT-6d"/>
     <use x="283.349609375" xlink:href="#ArialMT-20"/>
     <use x="311.1328125" xlink:href="#ArialMT-72"/>
     <use x="344.43359375" xlink:href="#ArialMT-65"/>
     <use x="400.048828125" xlink:href="#ArialMT-66"/>
     <use x="427.83203125" xlink:href="#ArialMT-61"/>
     <use x="483.447265625" xlink:href="#ArialMT-6c"/>
     <use x="505.6640625" xlink:href="#ArialMT-67"/>
     <use x="561.279296875" xlink:href="#ArialMT-73"/>
     <use x="611.279296875" xlink:href="#ArialMT-2f"/>
     <use x="639.0625" xlink:href="#ArialMT-62"/>
     <use x="694.677734375" xlink:href="#ArialMT-65"/>
     <use x="750.29296875" xlink:href="#ArialMT-73"/>
     <use x="800.29296875" xlink:href="#ArialMT-74"/>
     <use x="828.076171875" xlink:href="#ArialMT-32"/>
     <use x="883.69140625" xlink:href="#ArialMT-30"/>
     <use x="939.306640625" xlink:href="#ArialMT-30"/>
     <use x="994.921875" xlink:href="#ArialMT-39"/>
     <use x="1050.53710938" xlink:href="#ArialMT-2d"/>
     <use x="1083.83789062" xlink:href="#ArialMT-62"/>
     <use x="1139.453125" xlink:href="#ArialMT-62"/>
     <use x="1195.06835938" xlink:href="#ArialMT-6f"/>
     <use x="1250.68359375" xlink:href="#ArialMT-62"/>
     <use x="1306.29882812" xlink:href="#ArialMT-2e"/>
     <use x="1334.08203125" xlink:href="#ArialMT-74"/>
     <use x="1361.86523438" xlink:href="#ArialMT-61"/>
     <use x="1417.48046875" xlink:href="#ArialMT-72"/>
     <use x="1445.28125" xlink:href="#ArialMT-2e"/>
     <use x="1473.06445312" xlink:href="#ArialMT-67"/>
     <use x="1528.6796875" xlink:href="#ArialMT-7a"/>
    </g>
    <!-- 15 instances -->
    <g transform="translate(95.5404005203 85.5014409468)scale(0.1666 -0.1666)">
     <use xlink:href="#ArialMT-31"/>
     <use x="55.615234375" xlink:href="#ArialMT-35"/>
     <use x="111.23046875" xlink:href="#ArialMT-20"/>
     <use x="139.013671875" xlink:href="#ArialMT-69"/>
     <use x="161.23046875" xlink:href="#ArialMT-6e"/>
     <use x="216.845703125" xlink:href="#ArialMT-73"/>
     <use x="266.845703125" xlink:href="#ArialMT-74"/>
     <use x="294.62890625" xlink:href="#ArialMT-61"/>
     <use x="350.244140625" xlink:href="#ArialMT-6e"/>
     <use x="405.859375" xlink:href="#ArialMT-63"/>
     <use x="455.859375" xlink:href="#ArialMT-65"/>
     <use x="511.474609375" xlink:href="#ArialMT-73"/>
    </g>
   </g>
   <g id="text_17">
    <!-- v2.0.1 -->
    <g style="fill:#808080;" transform="translate(301.63811927 353.080030322)scale(0.1 -0.1)">
     <use xlink:href="#ArialMT-76"/>
     <use x="50.0" xlink:href="#ArialMT-32"/>
     <use x="105.615234375" xlink:href="#ArialMT-2e"/>
     <use x="133.3984375" xlink:href="#ArialMT-30"/>
     <use x="189.013671875" xlink:href="#ArialMT-2e"/>
     <use x="216.796875" xlink:href="#ArialMT-31"/>
    </g>
   </g>
  </g>
 </g>
 <defs>
  <clipPath id="p5e7421a262">
   <rect height="345.6" width="446.4" x="91.0764005203" y="12.9235303218"/>
  </clipPath>
 </defs>
</svg>
