<?xml version="1.0" encoding="utf-8" standalone="no"?>
<!DOCTYPE svg PUBLIC "-//W3C//DTD SVG 1.1//EN"
  "http://www.w3.org/Graphics/SVG/1.1/DTD/svg11.dtd">
<!-- Created with matplotlib (http://matplotlib.org/) -->
<svg height="406pt" version="1.1" viewBox="0 0 460 406" width="460pt" xmlns="http://www.w3.org/2000/svg" xmlns:xlink="http://www.w3.org/1999/xlink">
 <defs>
  <style type="text/css">
*{stroke-linecap:butt;stroke-linejoin:round;}
  </style>
 </defs>
 <g id="figure_1">
  <g id="patch_1">
   <path d="
M0 406.059
L460.8 406.059
L460.8 0
L0 0
z
" style="fill:#ffffff;"/>
  </g>
  <g id="axes_1">
   <g id="patch_2">
    <path d="
M7.2 352.8
L453.6 352.8
L453.6 7.2
L7.2 7.2
z
" style="fill:#ffffff;"/>
   </g>
   <g id="line2d_1">
    <path clip-path="url(#p5bee155178)" d="
M7.0928 352.8
L7.0928 351.85
L133.495 351.85
L133.495 350.899
L136.457 350.899
L136.457 349.949
L140.88 349.949
L140.88 348.998
L141.2 348.998
L141.2 348.048
L143.272 348.048
L143.272 347.097
L145.612 347.097
L145.612 346.147
L146.953 346.147
L146.953 345.196
L147.305 345.196
L147.305 344.246
L148.719 344.246
L148.719 343.295
L149.991 343.295
L149.991 342.345
L153.669 342.345
L153.669 341.394
L153.824 341.394
L153.824 340.444
L154.331 340.444
L154.331 339.493
L155.488 339.493
L155.488 338.543
L157.626 338.543
L157.626 337.592
L170.942 337.592
L170.942 336.642
L189.385 336.642
L189.385 335.691
L189.549 335.691
L189.549 334.741
L190.708 334.741
L190.708 333.79
L193.75 333.79
L193.75 332.84
L196.833 332.84
L196.833 331.889
L199.273 331.889
L199.273 330.939
L201.149 330.939
L201.149 329.988
L202.159 329.988
L202.22 327.137
L203.702 327.137
L203.702 326.186
L204.118 326.186
L204.118 325.236
L204.43 325.236
L204.43 324.285
L204.708 324.285
L204.708 323.335
L206.835 323.335
L206.835 322.384
L208.624 322.384
L208.624 321.434
L208.883 321.434
L208.992 318.582
L209.157 318.582
L209.157 317.632
L209.29 317.632
L209.29 316.681
L209.405 316.681
L209.405 315.731
L210.789 315.731
L210.789 314.78
L211.247 314.78
L211.247 313.83
L211.427 313.83
L211.427 312.879
L211.713 312.879
L211.713 311.929
L211.976 311.929
L212.077 309.077
L212.5 309.077
L212.5 308.127
L212.645 308.127
L212.645 307.176
L213.102 307.176
L213.102 306.226
L213.539 306.226
L213.539 305.275
L213.679 305.275
L213.679 304.325
L214.074 304.325
L214.166 302.424
L214.345 302.424
L214.345 301.473
L214.95 301.473
L214.95 300.523
L215.42 300.523
L215.42 299.572
L216.164 299.572
L216.195 297.671
L216.877 297.671
L216.877 296.721
L217.027 296.721
L217.027 295.77
L217.211 295.77
L217.232 293.869
L217.38 293.869
L217.446 291.968
L217.559 291.968
L217.66 290.067
L217.892 290.067
L217.933 288.166
L218.13 288.166
L218.197 285.315
L218.288 285.315
L218.299 283.414
L218.412 283.414
L218.412 282.463
L218.599 282.463
L218.668 278.661
L218.764 278.661
L218.865 275.81
L218.983 275.81
L219.055 273.909
L219.398 273.909
L219.398 272.958
L219.594 272.958
L219.594 272.008
L220.081 272.008
L220.18 270.107
L220.449 270.107
L220.449 269.156
L220.995 269.156
L220.995 268.206
L221.247 268.206
L221.247 267.255
L221.528 267.255
L221.528 266.305
L221.709 266.305
L221.709 265.354
L221.847 265.354
L221.847 264.404
L222.247 264.404
L222.247 263.453
L222.478 263.453
L222.582 258.701
L222.676 258.701
L222.676 257.75
L222.925 257.75
L222.925 256.8
L223.43 256.8
L223.445 254.899
L223.564 254.899
L223.564 253.949
L223.773 253.949
L223.773 252.998
L223.974 252.998
L223.974 252.048
L224.097 252.048
L224.097 251.097
L224.25 251.097
L224.25 250.147
L224.843 250.147
L224.909 248.246
L225.029 248.246
L225.096 245.394
L225.431 245.394
L225.501 242.543
L226.555 242.543
L226.612 239.691
L227.592 239.691
L227.65 237.79
L227.729 237.79
L227.729 236.84
L228.179 236.84
L228.21 234.939
L228.829 234.939
L228.913 233.038
L229.189 233.038
L229.189 232.087
L229.499 232.087
L229.499 231.137
L229.768 231.137
L229.768 230.186
L229.921 230.186
L229.921 229.236
L230.266 229.236
L230.266 228.285
L230.595 228.285
L230.613 226.384
L230.726 226.384
L230.802 224.483
L231.666 224.483
L231.666 223.533
L232.154 223.533
L232.25 221.632
L232.31 221.632
L232.31 220.681
L233.465 220.681
L233.465 219.731
L234.187 219.731
L234.197 217.83
L234.818 217.83
L234.818 216.879
L236.2 216.879
L236.2 215.929
L236.57 215.929
L236.67 214.028
L236.925 214.028
L236.925 213.077
L237.235 213.077
L237.298 211.176
L237.933 211.176
L237.933 210.226
L238.423 210.226
L238.423 209.275
L238.854 209.275
L238.854 208.325
L238.985 208.325
L238.985 207.374
L239.667 207.374
L239.667 206.424
L240.006 206.424
L240.056 203.572
L240.143 203.572
L240.143 202.622
L240.391 202.622
L240.482 199.77
L240.544 199.77
L240.544 198.82
L240.756 198.82
L240.777 196.919
L240.91 196.919
L240.91 195.968
L241.088 195.968
L241.157 194.067
L241.225 194.067
L241.284 192.166
L242.143 192.166
L242.143 191.216
L242.623 191.216
L242.623 190.265
L243.356 190.265
L243.356 189.315
L243.472 189.315
L243.489 187.414
L244.586 187.414
L244.651 184.562
L245.135 184.562
L245.135 183.612
L246.795 183.612
L246.795 182.661
L247.699 182.661
L247.699 181.711
L248.88 181.711
L248.88 180.76
L250.178 180.76
L250.178 179.81
L250.882 179.81
L250.974 177.909
L251.522 177.909
L251.59 176.008
L251.907 176.008
L251.99 174.107
L252.711 174.107
L252.711 173.156
L252.855 173.156
L252.855 172.206
L253.616 172.206
L253.616 171.255
L253.822 171.255
L253.822 170.305
L253.938 170.305
L253.938 169.354
L254.386 169.354
L254.386 168.404
L254.63 168.404
L254.63 167.453
L254.796 167.453
L254.796 166.503
L255.205 166.503
L255.205 165.552
L255.47 165.552
L255.524 163.651
L255.596 163.651
L255.631 160.8
L255.875 160.8
L255.875 159.85
L256.145 159.85
L256.149 157.949
L256.334 157.949
L256.363 156.048
L256.537 156.048
L256.537 155.097
L256.654 155.097
L256.718 151.295
L256.813 151.295
L256.898 149.394
L256.953 149.394
L257.033 145.592
L257.094 145.592
L257.198 142.741
L257.27 142.741
L257.319 140.84
L257.402 140.84
L257.478 138.939
L257.557 138.939
L257.557 137.988
L257.681 137.988
L257.742 135.137
L257.802 135.137
L257.905 133.236
L257.995 133.236
L258.046 130.384
L258.242 130.384
L258.242 129.434
L258.451 129.434
L258.528 126.582
L258.652 126.582
L258.74 120.879
L258.801 120.879
L258.845 118.978
L259.036 118.978
L259.036 118.028
L259.18 118.028
L259.235 116.127
L259.397 116.127
L259.397 115.176
L259.51 115.176
L259.544 112.325
L259.668 112.325
L259.77 108.523
L259.822 108.523
L259.822 107.572
L260.022 107.572
L260.022 106.622
L260.408 106.622
L260.408 105.671
L260.526 105.671
L260.526 104.721
L261.105 104.721
L261.105 103.77
L261.255 103.77
L261.255 102.82
L261.443 102.82
L261.443 101.869
L261.665 101.869
L261.67 99.9683
L261.793 99.9683
L261.793 99.0178
L262.37 99.0178
L262.424 97.1168
L262.488 97.1168
L262.594 94.2653
L262.709 94.2653
L262.82 89.5129
L262.879 89.5129
L262.879 88.5624
L263.128 88.5624
L263.238 85.7109
L263.636 85.7109
L263.669 82.8594
L263.904 82.8594
L263.904 81.9089
L264.085 81.9089
L264.085 80.9584
L264.234 80.9584
L264.234 80.0079
L264.438 80.0079
L264.537 78.1069
L264.631 78.1069
L264.664 76.2059
L264.777 76.2059
L264.798 74.305
L265.015 74.305
L265.091 72.404
L265.394 72.404
L265.394 71.4535
L265.557 71.4535
L265.557 70.503
L265.712 70.503
L265.742 68.602
L265.842 68.602
L265.849 66.701
L266.452 66.701
L266.452 65.7505
L266.631 65.7505
L266.631 64.8
L267.432 64.8
L267.537 62.899
L267.607 62.899
L267.699 60.998
L268.01 60.998
L268.01 60.0475
L268.567 60.0475
L268.567 59.097
L268.841 59.097
L268.841 58.1465
L269.209 58.1465
L269.209 57.196
L271.044 57.196
L271.044 56.2455
L272.031 56.2455
L272.031 55.295
L272.62 55.295
L272.62 54.3446
L276.055 54.3446
L276.055 53.3941
L291.361 53.3941
L291.361 52.4436
L294.626 52.4436
L294.626 51.4931
L299.132 51.4931
L299.132 50.5426
L302.822 50.5426
L302.822 49.5921
L303.691 49.5921
L303.691 48.6416
L304.115 48.6416
L304.115 47.6911
L304.931 47.6911
L304.931 46.7406
L305.327 46.7406
L305.327 45.7901
L306.398 45.7901
L306.398 44.8396
L307.903 44.8396
L307.99 42.9386
L309.82 42.9386
L309.82 41.9881
L311.842 41.9881
L311.842 41.0376
L314.759 41.0376
L314.759 40.0871
L315.202 40.0871
L315.202 39.1366
L322.676 39.1366
L322.676 38.1861
L322.824 38.1861
L322.824 37.2356
L323.391 37.2356
L323.391 36.2851
L323.857 36.2851
L323.857 35.3347
L324.016 35.3347
L324.016 34.3842
L324.587 34.3842
L324.587 33.4337
L324.794 33.4337
L324.794 32.4832
L325.106 32.4832
L325.106 31.5327
L325.294 31.5327
L325.294 30.5822
L325.781 30.5822
L325.781 29.6317
L326.131 29.6317
L326.226 27.7307
L327.138 27.7307
L327.138 26.7802
L327.56 26.7802
L327.56 25.8297
L327.853 25.8297
L327.855 23.9287
L328.237 23.9287
L328.337 22.0277
L328.391 22.0277
L328.391 21.0772
L329.252 21.0772
L329.252 20.1267
L329.515 20.1267
L329.515 19.1762
L330.273 19.1762
L330.273 18.2257
L331.326 18.2257
L331.326 17.2752
L332.258 17.2752
L332.258 16.3248
L332.537 16.3248
L332.537 15.3743
L332.811 15.3743
L332.811 14.4238
L333.038 14.4238
L333.038 13.4733
L335.01 13.4733
L335.01 12.5228
L335.333 12.5228
L335.333 11.5723
L337.968 11.5723
L337.968 10.6218
L337.968 10.6218
L453.6 10.6218
L453.6 10.6218" style="fill:none;stroke:#ff0000;stroke-linecap:square;stroke-width:3.0;"/>
   </g>
   <g id="line2d_2">
    <path clip-path="url(#p5bee155178)" d="
M221.272 352.8
L221.272 351.85
L225.159 351.85
L225.159 350.899
L226.179 350.899
L226.179 349.949
L226.814 349.949
L226.814 348.998
L227.109 348.998
L227.109 348.048
L227.255 348.048
L227.255 347.097
L227.594 347.097
L227.635 345.196
L227.833 345.196
L227.833 344.246
L228.188 344.246
L228.23 342.345
L228.557 342.345
L228.611 340.444
L229.885 340.444
L229.885 339.493
L232.482 339.493
L232.525 337.592
L234.258 337.592
L234.258 336.642
L235.117 336.642
L235.117 335.691
L236.121 335.691
L236.121 334.741
L237.847 334.741
L237.847 333.79
L238.42 333.79
L238.42 332.84
L239.013 332.84
L239.013 331.889
L239.713 331.889
L239.713 330.939
L240.016 330.939
L240.081 329.038
L240.35 329.038
L240.35 328.087
L240.489 328.087
L240.526 325.236
L240.873 325.236
L240.873 324.285
L241.142 324.285
L241.247 322.384
L241.444 322.384
L241.502 319.533
L241.597 319.533
L241.597 318.582
L241.723 318.582
L241.723 317.632
L241.983 317.632
L241.983 316.681
L242.23 316.681
L242.23 315.731
L242.395 315.731
L242.395 314.78
L243.139 314.78
L243.139 313.83
L243.715 313.83
L243.715 312.879
L244.43 312.879
L244.43 311.929
L245.042 311.929
L245.042 310.978
L245.337 310.978
L245.337 310.028
L245.835 310.028
L245.835 309.077
L246.089 309.077
L246.089 308.127
L246.256 308.127
L246.308 306.226
L246.643 306.226
L246.643 305.275
L247.149 305.275
L247.149 304.325
L247.272 304.325
L247.35 302.424
L247.499 302.424
L247.499 301.473
L247.719 301.473
L247.719 300.523
L247.895 300.523
L247.921 298.622
L248.107 298.622
L248.107 297.671
L248.411 297.671
L248.411 296.721
L249.189 296.721
L249.189 295.77
L249.335 295.77
L249.335 294.82
L249.473 294.82
L249.491 292.919
L249.895 292.919
L249.895 291.968
L250.096 291.968
L250.096 291.018
L251.133 291.018
L251.168 289.117
L251.263 289.117
L251.263 288.166
L251.421 288.166
L251.421 287.216
L251.893 287.216
L251.893 286.265
L252.317 286.265
L252.4 282.463
L252.458 282.463
L252.559 280.562
L252.616 280.562
L252.715 276.76
L252.886 276.76
L252.965 272.958
L253.106 272.958
L253.201 269.156
L253.223 269.156
L253.33 263.453
L253.338 263.453
L253.417 255.85
L253.466 255.85
L253.533 252.048
L253.738 252.048
L253.738 251.097
L254.213 251.097
L254.213 250.147
L255.13 250.147
L255.13 249.196
L255.505 249.196
L255.505 248.246
L256.646 248.246
L256.646 247.295
L256.846 247.295
L256.846 246.345
L258.277 246.345
L258.277 245.394
L258.668 245.394
L258.668 244.444
L258.965 244.444
L258.965 243.493
L259.181 243.493
L259.269 241.592
L259.441 241.592
L259.544 239.691
L259.839 239.691
L259.839 238.741
L260.295 238.741
L260.295 237.79
L260.598 237.79
L260.598 236.84
L261.084 236.84
L261.13 234.939
L261.251 234.939
L261.29 233.038
L261.561 233.038
L261.561 232.087
L262.16 232.087
L262.16 231.137
L262.516 231.137
L262.516 230.186
L262.855 230.186
L262.855 229.236
L263.06 229.236
L263.06 228.285
L263.304 228.285
L263.304 227.335
L263.473 227.335
L263.473 226.384
L264.768 226.384
L264.768 225.434
L265.016 225.434
L265.016 224.483
L266.12 224.483
L266.12 223.533
L267.255 223.533
L267.255 222.582
L267.641 222.582
L267.641 221.632
L267.959 221.632
L268.041 219.731
L268.438 219.731
L268.532 216.879
L268.598 216.879
L268.602 214.978
L268.836 214.978
L268.836 214.028
L269.037 214.028
L269.037 213.077
L269.638 213.077
L269.697 211.176
L270.231 211.176
L270.231 210.226
L270.703 210.226
L270.703 209.275
L270.912 209.275
L270.912 208.325
L271.358 208.325
L271.358 207.374
L271.73 207.374
L271.73 206.424
L272.398 206.424
L272.398 205.473
L272.806 205.473
L272.904 202.622
L272.937 202.622
L272.937 201.671
L274.094 201.671
L274.094 200.721
L274.28 200.721
L274.379 198.82
L274.682 198.82
L274.694 196.919
L274.804 196.919
L274.804 195.968
L275.016 195.968
L275.016 195.018
L275.171 195.018
L275.171 194.067
L275.387 194.067
L275.387 193.117
L275.697 193.117
L275.716 191.216
L277.351 191.216
L277.351 190.265
L277.768 190.265
L277.768 189.315
L278.765 189.315
L278.765 188.364
L278.997 188.364
L278.997 187.414
L279.298 187.414
L279.298 186.463
L279.489 186.463
L279.489 185.513
L279.65 185.513
L279.65 184.562
L279.846 184.562
L279.871 182.661
L280.178 182.661
L280.178 181.711
L280.576 181.711
L280.576 180.76
L280.764 180.76
L280.795 178.859
L281.328 178.859
L281.328 177.909
L281.61 177.909
L281.668 176.008
L281.801 176.008
L281.819 174.107
L281.965 174.107
L281.998 172.206
L282.108 172.206
L282.108 171.255
L282.337 171.255
L282.396 169.354
L282.689 169.354
L282.707 167.453
L283.048 167.453
L283.107 164.602
L283.223 164.602
L283.223 163.651
L283.691 163.651
L283.704 161.75
L283.858 161.75
L283.858 160.8
L284.142 160.8
L284.168 158.899
L284.696 158.899
L284.696 157.949
L285.251 157.949
L285.273 156.048
L285.508 156.048
L285.508 155.097
L285.938 155.097
L285.938 154.147
L286.589 154.147
L286.589 153.196
L287.23 153.196
L287.312 151.295
L287.63 151.295
L287.724 149.394
L287.816 149.394
L287.92 145.592
L288.336 145.592
L288.336 144.642
L288.713 144.642
L288.77 142.741
L289.366 142.741
L289.457 140.84
L289.537 140.84
L289.537 139.889
L290.18 139.889
L290.18 138.939
L290.659 138.939
L290.659 137.988
L290.92 137.988
L290.92 137.038
L291.044 137.038
L291.049 135.137
L291.409 135.137
L291.475 132.285
L291.736 132.285
L291.736 131.335
L291.907 131.335
L291.907 130.384
L292.354 130.384
L292.354 129.434
L292.926 129.434
L292.926 128.483
L293.594 128.483
L293.594 127.533
L294.456 127.533
L294.456 126.582
L295.583 126.582
L295.583 125.632
L297.076 125.632
L297.076 124.681
L302.094 124.681
L302.094 123.731
L304.04 123.731
L304.04 122.78
L304.469 122.78
L304.469 121.83
L308.73 121.83
L308.73 120.879
L319.29 120.879
L319.29 119.929
L319.779 119.929
L319.853 118.028
L322.84 118.028
L322.84 117.077
L323.61 117.077
L323.61 116.127
L324.669 116.127
L324.669 115.176
L324.899 115.176
L324.899 114.226
L325.275 114.226
L325.275 113.275
L325.508 113.275
L325.508 112.325
L325.792 112.325
L325.792 111.374
L326.725 111.374
L326.725 110.424
L328.64 110.424
L328.64 109.473
L329.373 109.473
L329.373 108.523
L330.335 108.523
L330.335 107.572
L330.746 107.572
L330.746 106.622
L331.153 106.622
L331.153 105.671
L331.323 105.671
L331.323 104.721
L331.481 104.721
L331.481 103.77
L332.434 103.77
L332.544 100.919
L332.552 100.919
L332.615 99.0178
L332.691 99.0178
L332.797 97.1168
L333.161 97.1168
L333.161 96.1663
L334.064 96.1663
L334.064 95.2158
L334.196 95.2158
L334.196 94.2653
L335.237 94.2653
L335.237 93.3149
L335.78 93.3149
L335.78 92.3644
L336.253 92.3644
L336.253 91.4139
L336.772 91.4139
L336.772 90.4634
L337.636 90.4634
L337.636 89.5129
L338.951 89.5129
L338.951 88.5624
L339.676 88.5624
L339.676 87.6119
L339.991 87.6119
L339.991 86.6614
L341.338 86.6614
L341.338 85.7109
L341.627 85.7109
L341.627 84.7604
L342.039 84.7604
L342.039 83.8099
L342.456 83.8099
L342.456 82.8594
L343.35 82.8594
L343.35 81.9089
L344.339 81.9089
L344.339 80.9584
L344.655 80.9584
L344.702 78.1069
L344.904 78.1069
L344.904 77.1564
L345.559 77.1564
L345.56 75.2554
L345.723 75.2554
L345.723 74.305
L346.444 74.305
L346.444 73.3545
L346.767 73.3545
L346.856 71.4535
L348.2 71.4535
L348.2 70.503
L348.557 70.503
L348.557 69.5525
L348.699 69.5525
L348.808 67.6515
L348.869 67.6515
L348.869 66.701
L349.029 66.701
L349.029 65.7505
L350.892 65.7505
L350.892 64.8
L354.404 64.8
L354.404 63.8495
L355.113 63.8495
L355.199 61.9485
L355.274 61.9485
L355.37 60.0475
L355.525 60.0475
L355.525 59.097
L355.742 59.097
L355.742 58.1465
L355.873 58.1465
L355.873 57.196
L356.999 57.196
L356.999 56.2455
L358.746 56.2455
L358.746 55.295
L362.095 55.295
L362.095 54.3446
L363 54.3446
L363 53.3941
L364.01 53.3941
L364.098 51.4931
L365.559 51.4931
L365.594 49.5921
L365.817 49.5921
L365.817 48.6416
L370.907 48.6416
L370.907 47.6911
L372.59 47.6911
L372.59 46.7406
L372.771 46.7406
L372.771 45.7901
L373.518 45.7901
L373.518 44.8396
L374.645 44.8396
L374.645 43.8891
L376.728 43.8891
L376.728 42.9386
L377.843 42.9386
L377.843 41.9881
L379.818 41.9881
L379.818 41.0376
L379.979 41.0376
L380.057 39.1366
L380.484 39.1366
L380.484 38.1861
L381.126 38.1861
L381.126 37.2356
L383.272 37.2356
L383.272 36.2851
L384.152 36.2851
L384.152 35.3347
L384.591 35.3347
L384.591 34.3842
L384.707 34.3842
L384.707 33.4337
L384.913 33.4337
L384.913 32.4832
L385.164 32.4832
L385.17 30.5822
L386.304 30.5822
L386.304 29.6317
L387.536 29.6317
L387.536 28.6812
L388.757 28.6812
L388.757 27.7307
L390.191 27.7307
L390.191 26.7802
L391.728 26.7802
L391.728 25.8297
L393.823 25.8297
L393.823 24.8792
L411.495 24.8792
L411.495 23.9287
L411.752 23.9287
L411.752 22.9782
L412.28 22.9782
L412.28 22.0277
L416.268 22.0277
L416.268 21.0772
L416.408 21.0772
L416.414 19.1762
L419.016 19.1762
L419.016 18.2257
L420.973 18.2257
L420.973 17.2752
L422.468 17.2752
L422.468 16.3248
L425.286 16.3248
L425.286 15.3743
L425.705 15.3743
L425.705 14.4238
L426.809 14.4238
L426.809 13.4733
L430.785 13.4733
L430.785 12.5228
L445.983 12.5228
L445.983 11.5723
L447.134 11.5723
L447.134 10.6218
L447.134 10.6218
L453.6 10.6218
L453.6 10.6218" style="fill:none;stroke:#00bfbf;stroke-linecap:square;"/>
   </g>
   <g id="line2d_3">
    <path clip-path="url(#p5bee155178)" d="
M221.272 352.8
L221.272 351.85
L224.222 351.85
L224.222 350.899
L225.01 350.899
L225.01 349.949
L225.159 349.949
L225.195 348.048
L225.584 348.048
L225.626 346.147
L226.306 346.147
L226.306 345.196
L227.109 345.196
L227.109 344.246
L227.282 344.246
L227.282 343.295
L227.594 343.295
L227.635 341.394
L228.09 341.394
L228.09 340.444
L228.23 340.444
L228.23 339.493
L228.557 339.493
L228.557 338.543
L231.319 338.543
L231.319 337.592
L234.258 337.592
L234.258 336.642
L235.117 336.642
L235.117 335.691
L235.292 335.691
L235.292 334.741
L236.121 334.741
L236.121 333.79
L236.89 333.79
L236.89 332.84
L238.42 332.84
L238.516 330.939
L238.562 330.939
L238.562 329.988
L238.73 329.988
L238.73 329.038
L239.013 329.038
L239.013 328.087
L239.471 328.087
L239.471 327.137
L240.016 327.137
L240.016 326.186
L240.35 326.186
L240.35 325.236
L240.489 325.236
L240.526 322.384
L240.636 322.384
L240.636 321.434
L241.142 321.434
L241.247 319.533
L241.444 319.533
L241.462 317.632
L241.597 317.632
L241.597 316.681
L241.723 316.681
L241.723 315.731
L241.983 315.731
L241.983 314.78
L242.23 314.78
L242.23 313.83
L243.139 313.83
L243.139 312.879
L243.747 312.879
L243.747 311.929
L243.946 311.929
L243.946 310.978
L244.43 310.978
L244.43 310.028
L244.556 310.028
L244.649 308.127
L245.042 308.127
L245.057 306.226
L245.644 306.226
L245.644 305.275
L245.835 305.275
L245.835 304.325
L246.089 304.325
L246.089 303.374
L246.256 303.374
L246.256 302.424
L246.558 302.424
L246.643 300.523
L246.929 300.523
L246.929 299.572
L247.149 299.572
L247.149 298.622
L247.272 298.622
L247.347 296.721
L247.448 296.721
L247.513 294.82
L247.895 294.82
L247.921 292.919
L248.42 292.919
L248.42 291.968
L248.989 291.968
L248.989 291.018
L249.335 291.018
L249.335 290.067
L250.096 290.067
L250.156 288.166
L250.497 288.166
L250.574 285.315
L250.846 285.315
L250.846 284.364
L251.166 284.364
L251.166 283.414
L251.421 283.414
L251.421 282.463
L251.689 282.463
L251.689 281.513
L252.317 281.513
L252.347 279.612
L252.458 279.612
L252.559 275.81
L252.606 275.81
L252.715 271.057
L252.859 271.057
L252.967 265.354
L252.977 265.354
L253.081 262.503
L253.108 262.503
L253.168 258.701
L253.223 258.701
L253.325 254.899
L253.355 254.899
L253.466 250.147
L253.738 250.147
L253.738 249.196
L254.109 249.196
L254.213 247.295
L255.112 247.295
L255.13 245.394
L255.404 245.394
L255.404 244.444
L255.943 244.444
L255.943 243.493
L256.646 243.493
L256.646 242.543
L256.846 242.543
L256.846 241.592
L257.313 241.592
L257.392 239.691
L257.74 239.691
L257.74 238.741
L258.398 238.741
L258.413 235.889
L258.611 235.889
L258.611 234.939
L258.833 234.939
L258.833 233.988
L260.295 233.988
L260.295 233.038
L260.598 233.038
L260.598 232.087
L261.091 232.087
L261.091 231.137
L261.251 231.137
L261.251 230.186
L261.561 230.186
L261.561 229.236
L262.383 229.236
L262.383 228.285
L262.855 228.285
L262.855 227.335
L263.473 227.335
L263.473 226.384
L264.768 226.384
L264.768 225.434
L265.016 225.434
L265.016 224.483
L266.12 224.483
L266.12 223.533
L266.839 223.533
L266.91 221.632
L267.249 221.632
L267.317 219.731
L267.6 219.731
L267.6 218.78
L267.721 218.78
L267.741 216.879
L268.027 216.879
L268.03 214.978
L268.598 214.978
L268.628 213.077
L268.754 213.077
L268.754 212.127
L269.064 212.127
L269.064 211.176
L270.068 211.176
L270.068 210.226
L270.231 210.226
L270.231 209.275
L270.585 209.275
L270.599 207.374
L270.703 207.374
L270.703 206.424
L271.316 206.424
L271.358 204.523
L271.73 204.523
L271.73 203.572
L272.289 203.572
L272.398 201.671
L272.833 201.671
L272.904 198.82
L273.819 198.82
L273.819 197.869
L274.094 197.869
L274.094 196.919
L274.28 196.919
L274.379 195.018
L274.436 195.018
L274.436 194.067
L274.804 194.067
L274.804 193.117
L275.171 193.117
L275.171 192.166
L275.697 192.166
L275.716 190.265
L276.494 190.265
L276.494 189.315
L276.867 189.315
L276.867 188.364
L277.351 188.364
L277.351 187.414
L277.666 187.414
L277.768 185.513
L278.581 185.513
L278.581 184.562
L278.735 184.562
L278.735 183.612
L278.903 183.612
L278.997 181.711
L279.298 181.711
L279.298 180.76
L279.601 180.76
L279.601 179.81
L279.846 179.81
L279.883 176.958
L280.07 176.958
L280.07 176.008
L280.576 176.008
L280.576 175.057
L280.709 175.057
L280.795 173.156
L280.842 173.156
L280.842 172.206
L281.328 172.206
L281.328 171.255
L281.61 171.255
L281.702 167.453
L281.801 167.453
L281.801 166.503
L281.998 166.503
L282.108 163.651
L282.396 163.651
L282.396 162.701
L282.689 162.701
L282.707 160.8
L283.082 160.8
L283.107 158.899
L283.447 158.899
L283.461 156.998
L283.691 156.998
L283.704 155.097
L283.858 155.097
L283.858 154.147
L284.142 154.147
L284.142 153.196
L284.416 153.196
L284.416 152.246
L284.696 152.246
L284.696 151.295
L284.833 151.295
L284.833 150.345
L285.326 150.345
L285.326 149.394
L285.508 149.394
L285.508 148.444
L286.028 148.444
L286.028 147.493
L286.628 147.493
L286.628 146.543
L287.23 146.543
L287.312 144.642
L287.63 144.642
L287.724 142.741
L287.816 142.741
L287.898 138.939
L288.33 138.939
L288.33 137.988
L288.672 137.988
L288.672 137.038
L289.366 137.038
L289.366 136.087
L289.817 136.087
L289.912 134.186
L289.947 134.186
L289.947 133.236
L290.18 133.236
L290.18 132.285
L290.92 132.285
L290.976 130.384
L291.044 130.384
L291.049 128.483
L291.185 128.483
L291.185 127.533
L291.47 127.533
L291.47 126.582
L291.646 126.582
L291.646 125.632
L292.38 125.632
L292.488 123.731
L295.583 123.731
L295.583 122.78
L297.368 122.78
L297.368 121.83
L304.04 121.83
L304.04 120.879
L308.73 120.879
L308.73 119.929
L311.449 119.929
L311.449 118.978
L318.35 118.978
L318.35 118.028
L319.29 118.028
L319.29 117.077
L319.779 117.077
L319.853 115.176
L322.613 115.176
L322.613 114.226
L322.84 114.226
L322.911 112.325
L323.395 112.325
L323.395 111.374
L324.669 111.374
L324.669 110.424
L324.899 110.424
L324.899 109.473
L325.508 109.473
L325.508 108.523
L325.792 108.523
L325.792 107.572
L326.725 107.572
L326.725 106.622
L328.64 106.622
L328.64 105.671
L329.373 105.671
L329.373 104.721
L330.746 104.721
L330.746 103.77
L331.153 103.77
L331.153 102.82
L331.323 102.82
L331.355 100.919
L331.481 100.919
L331.481 99.9683
L332.352 99.9683
L332.434 98.0673
L332.499 98.0673
L332.552 95.2158
L332.615 95.2158
L332.691 93.3149
L332.797 93.3149
L332.797 92.3644
L333.161 92.3644
L333.161 91.4139
L334.064 91.4139
L334.064 90.4634
L334.196 90.4634
L334.196 89.5129
L335.237 89.5129
L335.237 88.5624
L335.78 88.5624
L335.78 87.6119
L335.977 87.6119
L335.977 86.6614
L336.67 86.6614
L336.67 85.7109
L338.847 85.7109
L338.847 84.7604
L339.676 84.7604
L339.676 83.8099
L339.851 83.8099
L339.851 82.8594
L339.991 82.8594
L339.991 81.9089
L340.825 81.9089
L340.825 80.9584
L341.627 80.9584
L341.627 80.0079
L342.456 80.0079
L342.456 79.0574
L343.346 79.0574
L343.35 77.1564
L343.763 77.1564
L343.763 76.2059
L344.339 76.2059
L344.339 75.2554
L344.453 75.2554
L344.453 74.305
L344.655 74.305
L344.702 72.404
L345.559 72.404
L345.559 71.4535
L346.767 71.4535
L346.767 70.503
L347.171 70.503
L347.171 69.5525
L348.095 69.5525
L348.2 67.6515
L348.551 67.6515
L348.604 65.7505
L348.725 65.7505
L348.808 63.8495
L349.722 63.8495
L349.722 62.899
L350.892 62.899
L350.892 60.998
L352.117 60.998
L352.146 59.097
L355.358 59.097
L355.37 57.196
L355.525 57.196
L355.525 56.2455
L355.87 56.2455
L355.87 55.295
L358.746 55.295
L358.746 54.3446
L361.431 54.3446
L361.431 53.3941
L363 53.3941
L363 52.4436
L364.01 52.4436
L364.098 50.5426
L365.307 50.5426
L365.307 49.5921
L365.517 49.5921
L365.559 47.6911
L368.923 47.6911
L368.923 46.7406
L370.907 46.7406
L370.907 45.7901
L371.902 45.7901
L371.902 44.8396
L372.231 44.8396
L372.231 43.8891
L372.59 43.8891
L372.59 42.9386
L372.735 42.9386
L372.735 41.9881
L373.518 41.9881
L373.518 41.0376
L374.374 41.0376
L374.374 40.0871
L376.056 40.0871
L376.056 39.1366
L376.696 39.1366
L376.696 38.1861
L377.709 38.1861
L377.709 37.2356
L378.075 37.2356
L378.096 35.3347
L379.038 35.3347
L379.113 33.4337
L380.057 33.4337
L380.057 32.4832
L380.293 32.4832
L380.293 31.5327
L380.484 31.5327
L380.484 30.5822
L381.546 30.5822
L381.546 29.6317
L381.849 29.6317
L381.849 28.6812
L383.585 28.6812
L383.585 27.7307
L384.622 27.7307
L384.622 26.7802
L385.065 26.7802
L385.065 25.8297
L386.499 25.8297
L386.499 24.8792
L406.657 24.8792
L406.657 23.9287
L408.626 23.9287
L408.626 22.9782
L411.495 22.9782
L411.495 22.0277
L411.752 22.0277
L411.752 21.0772
L416.268 21.0772
L416.268 20.1267
L416.414 20.1267
L416.414 19.1762
L417.669 19.1762
L417.669 18.2257
L419.861 18.2257
L419.861 17.2752
L420.973 17.2752
L420.973 16.3248
L425.286 16.3248
L425.286 15.3743
L425.705 15.3743
L425.705 14.4238
L426.809 14.4238
L426.809 13.4733
L429.878 13.4733
L429.878 12.5228
L430.785 12.5228
L430.785 11.5723
L441.608 11.5723
L441.608 10.6218
L441.608 10.6218
L453.6 10.6218
L453.6 10.6218" style="fill:none;stroke:#bf00bf;stroke-linecap:square;"/>
   </g>
   <g id="line2d_4">
    <path clip-path="url(#p5bee155178)" d="
M221.272 352.8
L221.272 351.85
L221.51 351.85
L221.51 350.899
L223.64 350.899
L223.64 349.949
L224.222 349.949
L224.245 348.048
L224.613 348.048
L224.613 347.097
L225.01 347.097
L225.057 345.196
L225.159 345.196
L225.195 343.295
L225.277 343.295
L225.277 342.345
L225.584 342.345
L225.584 341.394
L225.785 341.394
L225.785 340.444
L226.306 340.444
L226.306 339.493
L227.035 339.493
L227.046 337.592
L234.258 337.592
L234.258 336.642
L234.392 336.642
L234.392 335.691
L234.955 335.691
L234.985 333.79
L235.117 333.79
L235.117 332.84
L235.35 332.84
L235.35 331.889
L235.628 331.889
L235.628 330.939
L235.93 330.939
L235.93 329.988
L236.159 329.988
L236.159 329.038
L236.297 329.038
L236.297 328.087
L236.97 328.087
L236.97 327.137
L237.325 327.137
L237.325 326.186
L237.857 326.186
L237.915 324.285
L238.049 324.285
L238.104 322.384
L238.293 322.384
L238.293 321.434
L238.73 321.434
L238.73 320.483
L238.858 320.483
L238.873 318.582
L239.471 318.582
L239.471 317.632
L239.692 317.632
L239.692 316.681
L240.431 316.681
L240.49 314.78
L241.376 314.78
L241.376 313.83
L241.611 313.83
L241.611 312.879
L241.791 312.879
L241.791 311.929
L242.614 311.929
L242.614 310.978
L242.855 310.978
L242.855 310.028
L243.079 310.028
L243.079 309.077
L243.747 309.077
L243.841 307.176
L243.946 307.176
L243.99 305.275
L244.43 305.275
L244.43 304.325
L244.556 304.325
L244.649 301.473
L245.057 301.473
L245.098 299.572
L245.362 299.572
L245.362 298.622
L245.491 298.622
L245.491 297.671
L245.756 297.671
L245.835 295.77
L245.992 295.77
L246.089 293.869
L246.217 293.869
L246.217 292.919
L246.643 292.919
L246.643 291.968
L247.075 291.968
L247.079 290.067
L247.448 290.067
L247.448 289.117
L247.957 289.117
L247.957 288.166
L248.364 288.166
L248.442 286.265
L248.623 286.265
L248.726 284.364
L248.991 284.364
L249.001 282.463
L249.302 282.463
L249.346 280.562
L250.04 280.562
L250.04 279.612
L250.156 279.612
L250.156 278.661
L250.796 278.661
L250.796 277.711
L251.304 277.711
L251.304 276.76
L251.506 276.76
L251.506 275.81
L251.626 275.81
L251.689 273.909
L251.856 273.909
L251.856 272.958
L252.008 272.958
L252.008 272.008
L252.225 272.008
L252.225 271.057
L252.418 271.057
L252.458 269.156
L252.532 269.156
L252.618 262.503
L252.648 262.503
L252.758 258.701
L252.907 258.701
L252.986 251.097
L253.046 251.097
L253.132 244.444
L253.296 244.444
L253.296 243.493
L253.418 243.493
L253.418 242.543
L253.536 242.543
L253.536 241.592
L253.678 241.592
L253.678 240.642
L255.13 240.642
L255.13 239.691
L255.28 239.691
L255.28 238.741
L255.404 238.741
L255.404 237.79
L256.377 237.79
L256.451 235.889
L256.62 235.889
L256.7 233.988
L256.741 233.988
L256.741 233.038
L257.322 233.038
L257.322 232.087
L257.583 232.087
L257.583 231.137
L257.803 231.137
L257.803 230.186
L258.611 230.186
L258.611 229.236
L259.233 229.236
L259.233 228.285
L260.374 228.285
L260.462 226.384
L260.882 226.384
L260.882 225.434
L261.611 225.434
L261.611 224.483
L261.767 224.483
L261.767 223.533
L262.505 223.533
L262.505 222.582
L263.361 222.582
L263.4 220.681
L264.526 220.681
L264.618 218.78
L265.543 218.78
L265.543 217.83
L265.709 217.83
L265.709 216.879
L265.838 216.879
L265.838 215.929
L266.128 215.929
L266.128 214.978
L266.831 214.978
L266.933 213.077
L266.995 213.077
L266.995 212.127
L267.755 212.127
L267.755 211.176
L268.008 211.176
L268.008 210.226
L269.063 210.226
L269.064 208.325
L269.625 208.325
L269.625 207.374
L269.89 207.374
L269.895 205.473
L270.231 205.473
L270.231 204.523
L270.585 204.523
L270.599 202.622
L270.703 202.622
L270.703 201.671
L271.118 201.671
L271.118 200.721
L271.358 200.721
L271.358 199.77
L271.73 199.77
L271.775 197.869
L271.89 197.869
L271.89 196.919
L272.081 196.919
L272.081 195.968
L272.238 195.968
L272.275 194.067
L272.51 194.067
L272.51 193.117
L272.833 193.117
L272.833 192.166
L273.136 192.166
L273.136 191.216
L273.471 191.216
L273.543 188.364
L273.796 188.364
L273.796 187.414
L273.941 187.414
L273.941 186.463
L274.16 186.463
L274.16 185.513
L275.557 185.513
L275.639 181.711
L275.697 181.711
L275.697 180.76
L276.152 180.76
L276.185 177.909
L276.353 177.909
L276.353 176.958
L276.667 176.958
L276.737 175.057
L276.867 175.057
L276.97 171.255
L277.351 171.255
L277.397 169.354
L277.697 169.354
L277.697 168.404
L278.287 168.404
L278.287 167.453
L278.415 167.453
L278.48 164.602
L278.555 164.602
L278.555 163.651
L278.742 163.651
L278.742 162.701
L279.061 162.701
L279.061 161.75
L279.187 161.75
L279.265 159.85
L279.402 159.85
L279.49 156.998
L279.542 156.998
L279.649 155.097
L279.871 155.097
L279.871 154.147
L280.004 154.147
L280.004 153.196
L280.192 153.196
L280.296 151.295
L280.795 151.295
L280.813 149.394
L280.969 149.394
L280.969 148.444
L281.668 148.444
L281.668 147.493
L281.837 147.493
L281.883 145.592
L282.319 145.592
L282.319 144.642
L282.503 144.642
L282.503 143.691
L282.689 143.691
L282.785 141.79
L283.157 141.79
L283.157 140.84
L283.387 140.84
L283.387 139.889
L283.528 139.889
L283.528 138.939
L283.704 138.939
L283.796 137.038
L284.416 137.038
L284.416 136.087
L284.696 136.087
L284.696 135.137
L284.984 135.137
L284.984 134.186
L285.326 134.186
L285.326 133.236
L285.494 133.236
L285.494 132.285
L285.883 132.285
L285.883 131.335
L286.597 131.335
L286.628 129.434
L287.483 129.434
L287.483 128.483
L287.724 128.483
L287.826 126.582
L288.33 126.582
L288.33 125.632
L289.571 125.632
L289.571 124.681
L289.912 124.681
L289.947 122.78
L290.078 122.78
L290.078 121.83
L290.214 121.83
L290.323 119.929
L290.513 119.929
L290.513 118.978
L291.112 118.978
L291.112 118.028
L291.692 118.028
L291.692 117.077
L292.488 117.077
L292.488 116.127
L295.195 116.127
L295.195 115.176
L304.075 115.176
L304.075 114.226
L305.457 114.226
L305.457 113.275
L309.515 113.275
L309.515 112.325
L314.768 112.325
L314.768 111.374
L318.174 111.374
L318.174 110.424
L318.35 110.424
L318.35 109.473
L319.29 109.473
L319.29 108.523
L319.853 108.523
L319.853 107.572
L321.294 107.572
L321.294 106.622
L322.117 106.622
L322.117 105.671
L322.52 105.671
L322.52 104.721
L323.395 104.721
L323.421 102.82
L324.852 102.82
L324.899 100.919
L325.503 100.919
L325.508 99.0178
L325.792 99.0178
L325.792 98.0673
L327.171 98.0673
L327.171 97.1168
L327.707 97.1168
L327.707 96.1663
L328.171 96.1663
L328.171 95.2158
L328.824 95.2158
L328.824 94.2653
L329.071 94.2653
L329.071 93.3149
L330.746 93.3149
L330.746 92.3644
L330.953 92.3644
L330.953 91.4139
L331.323 91.4139
L331.355 89.5129
L331.481 89.5129
L331.481 88.5624
L331.626 88.5624
L331.626 87.6119
L332.434 87.6119
L332.499 85.7109
L332.552 85.7109
L332.552 84.7604
L333.536 84.7604
L333.536 83.8099
L334.064 83.8099
L334.064 82.8594
L334.196 82.8594
L334.196 81.9089
L335.237 81.9089
L335.237 80.9584
L335.78 80.9584
L335.78 80.0079
L336.647 80.0079
L336.67 78.1069
L338.557 78.1069
L338.557 77.1564
L339.676 77.1564
L339.676 76.2059
L339.851 76.2059
L339.851 75.2554
L340.825 75.2554
L340.825 74.305
L340.98 74.305
L341.059 72.404
L341.627 72.404
L341.627 71.4535
L342.456 71.4535
L342.492 69.5525
L344.144 69.5525
L344.144 68.602
L344.257 68.602
L344.339 66.701
L344.702 66.701
L344.702 65.7505
L344.847 65.7505
L344.847 64.8
L345.289 64.8
L345.299 62.899
L345.472 62.899
L345.472 61.9485
L348.095 61.9485
L348.095 60.998
L348.633 60.998
L348.633 60.0475
L348.746 60.0475
L348.746 59.097
L348.868 59.097
L348.868 58.1465
L350.067 58.1465
L350.067 57.196
L350.524 57.196
L350.524 56.2455
L350.838 56.2455
L350.838 55.295
L352.117 55.295
L352.117 54.3446
L354.335 54.3446
L354.335 53.3941
L358.746 53.3941
L358.746 52.4436
L360.235 52.4436
L360.235 51.4931
L361.431 51.4931
L361.431 50.5426
L362.546 50.5426
L362.626 48.6416
L363.075 48.6416
L363.075 47.6911
L365.517 47.6911
L365.559 45.7901
L365.832 45.7901
L365.832 44.8396
L366.581 44.8396
L366.581 43.8891
L366.916 43.8891
L366.916 42.9386
L367.896 42.9386
L367.896 41.9881
L368.923 41.9881
L368.923 41.0376
L369.795 41.0376
L369.795 40.0871
L370.14 40.0871
L370.14 39.1366
L370.521 39.1366
L370.521 38.1861
L371.54 38.1861
L371.54 37.2356
L371.874 37.2356
L371.874 36.2851
L372.231 36.2851
L372.231 35.3347
L372.9 35.3347
L372.9 34.3842
L373.518 34.3842
L373.518 33.4337
L373.764 33.4337
L373.798 31.5327
L374.447 31.5327
L374.447 30.5822
L375.115 30.5822
L375.115 29.6317
L376.396 29.6317
L376.396 28.6812
L376.553 28.6812
L376.553 27.7307
L378.107 27.7307
L378.107 26.7802
L379.038 26.7802
L379.038 25.8297
L379.834 25.8297
L379.834 24.8792
L404.33 24.8792
L404.33 23.9287
L406.657 23.9287
L406.657 22.9782
L407.719 22.9782
L407.719 22.0277
L408.626 22.0277
L408.626 21.0772
L409.425 21.0772
L409.425 20.1267
L410.149 20.1267
L410.149 19.1762
L411.495 19.1762
L411.495 18.2257
L412.563 18.2257
L412.563 17.2752
L413.497 17.2752
L413.497 16.3248
L414.004 16.3248
L414.004 15.3743
L415.338 15.3743
L415.338 14.4238
L416.175 14.4238
L416.175 13.4733
L418.048 13.4733
L418.048 12.5228
L422.497 12.5228
L422.497 11.5723
L427.223 11.5723
L427.223 10.6218
L427.223 10.6218
L453.6 10.6218
L453.6 10.6218" style="fill:none;stroke:#000000;stroke-linecap:square;"/>
   </g>
   <g id="line2d_5">
    <path clip-path="url(#p5bee155178)" d="
M218.998 352.8
L218.998 351.85
L221.11 351.85
L221.11 350.899
L221.272 350.899
L221.272 349.949
L221.51 349.949
L221.546 348.048
L222.792 348.048
L222.792 347.097
L223.18 347.097
L223.266 345.196
L223.317 345.196
L223.317 344.246
L223.652 344.246
L223.652 343.295
L223.84 343.295
L223.84 342.345
L224.113 342.345
L224.113 341.394
L224.613 341.394
L224.613 340.444
L224.727 340.444
L224.727 339.493
L225.599 339.493
L225.599 338.543
L227.035 338.543
L227.035 337.592
L230.801 337.592
L230.801 336.642
L231.219 336.642
L231.269 334.741
L231.385 334.741
L231.385 333.79
L231.906 333.79
L231.906 332.84
L232.039 332.84
L232.131 330.939
L232.462 330.939
L232.529 328.087
L232.683 328.087
L232.683 327.137
L232.897 327.137
L232.924 325.236
L233.127 325.236
L233.191 323.335
L233.266 323.335
L233.331 321.434
L233.389 321.434
L233.425 319.533
L233.908 319.533
L233.921 317.632
L234.021 317.632
L234.021 316.681
L234.33 316.681
L234.429 314.78
L234.957 314.78
L234.957 313.83
L235.264 313.83
L235.264 312.879
L236.085 312.879
L236.085 311.929
L236.378 311.929
L236.378 310.978
L236.554 310.978
L236.554 310.028
L236.955 310.028
L236.955 309.077
L238.414 309.077
L238.423 307.176
L238.572 307.176
L238.572 306.226
L239.573 306.226
L239.573 305.275
L240.91 305.275
L240.91 304.325
L241.173 304.325
L241.247 302.424
L241.416 302.424
L241.416 301.473
L242.093 301.473
L242.093 300.523
L242.316 300.523
L242.316 299.572
L242.506 299.572
L242.506 298.622
L242.814 298.622
L242.823 296.721
L243.079 296.721
L243.089 294.82
L243.56 294.82
L243.64 291.968
L243.707 291.968
L243.802 290.067
L243.856 290.067
L243.856 289.117
L244.145 289.117
L244.145 288.166
L244.261 288.166
L244.335 286.265
L244.43 286.265
L244.538 283.414
L244.599 283.414
L244.649 281.513
L244.841 281.513
L244.9 279.612
L244.976 279.612
L244.976 278.661
L245.144 278.661
L245.144 277.711
L245.282 277.711
L245.321 275.81
L245.415 275.81
L245.415 274.859
L245.771 274.859
L245.792 272.958
L246.051 272.958
L246.098 270.107
L246.46 270.107
L246.531 268.206
L246.886 268.206
L246.886 267.255
L247.164 267.255
L247.193 265.354
L247.399 265.354
L247.399 264.404
L248.284 264.404
L248.284 263.453
L248.507 263.453
L248.507 262.503
L248.836 262.503
L248.836 261.552
L249.357 261.552
L249.357 260.602
L249.905 260.602
L249.905 259.651
L250.4 259.651
L250.4 258.701
L250.783 258.701
L250.783 257.75
L250.934 257.75
L250.98 254.899
L251.152 254.899
L251.223 252.048
L251.422 252.048
L251.527 248.246
L251.593 248.246
L251.593 247.295
L251.752 247.295
L251.845 244.444
L251.898 244.444
L251.998 239.691
L252.02 239.691
L252.071 237.79
L252.143 237.79
L252.169 235.889
L252.408 235.889
L252.46 233.038
L252.526 233.038
L252.626 228.285
L252.723 228.285
L252.807 225.434
L253.598 225.434
L253.628 223.533
L253.736 223.533
L253.736 222.582
L255.875 222.582
L255.934 220.681
L256.39 220.681
L256.47 218.78
L256.7 218.78
L256.8 216.879
L257.779 216.879
L257.779 215.929
L258.691 215.929
L258.701 214.028
L258.892 214.028
L258.892 213.077
L259.046 213.077
L259.046 212.127
L259.729 212.127
L259.729 211.176
L259.951 211.176
L259.951 210.226
L260.387 210.226
L260.387 209.275
L262.116 209.275
L262.116 208.325
L263.4 208.325
L263.4 207.374
L265.82 207.374
L265.82 206.424
L266.339 206.424
L266.339 205.473
L266.895 205.473
L266.895 204.523
L267.051 204.523
L267.051 203.572
L267.697 203.572
L267.697 202.622
L268.081 202.622
L268.12 199.77
L268.36 199.77
L268.418 197.869
L268.694 197.869
L268.694 196.919
L268.88 196.919
L268.928 195.018
L269.132 195.018
L269.186 192.166
L269.281 192.166
L269.281 191.216
L269.465 191.216
L269.491 189.315
L269.607 189.315
L269.67 186.463
L269.761 186.463
L269.854 184.562
L269.895 184.562
L269.993 181.711
L270.016 181.711
L270.016 180.76
L270.147 180.76
L270.147 179.81
L270.275 179.81
L270.381 176.958
L270.407 176.958
L270.407 176.008
L270.599 176.008
L270.689 174.107
L270.735 174.107
L270.735 173.156
L270.926 173.156
L270.946 171.255
L271.095 171.255
L271.095 170.305
L271.41 170.305
L271.41 169.354
L271.544 169.354
L271.544 168.404
L271.712 168.404
L271.814 166.503
L271.855 166.503
L271.951 164.602
L272.086 164.602
L272.086 163.651
L272.271 163.651
L272.317 161.75
L272.483 161.75
L272.483 160.8
L272.795 160.8
L272.859 158.899
L273.074 158.899
L273.074 157.949
L273.189 157.949
L273.261 156.048
L273.303 156.048
L273.303 155.097
L273.57 155.097
L273.57 154.147
L273.752 154.147
L273.781 152.246
L274.206 152.246
L274.206 151.295
L274.382 151.295
L274.479 149.394
L274.629 149.394
L274.629 148.444
L275.1 148.444
L275.1 147.493
L275.249 147.493
L275.249 146.543
L276.025 146.543
L276.084 144.642
L276.384 144.642
L276.442 142.741
L276.667 142.741
L276.667 141.79
L277.276 141.79
L277.351 139.889
L277.596 139.889
L277.596 138.939
L277.811 138.939
L277.835 137.038
L278 137.038
L278 136.087
L279.607 136.087
L279.666 134.186
L280.34 134.186
L280.34 133.236
L280.551 133.236
L280.551 132.285
L280.806 132.285
L280.806 131.335
L281.026 131.335
L281.026 130.384
L281.449 130.384
L281.449 129.434
L281.743 129.434
L281.777 127.533
L282.025 127.533
L282.025 126.582
L283.658 126.582
L283.658 125.632
L283.796 125.632
L283.796 124.681
L284.221 124.681
L284.221 123.731
L284.449 123.731
L284.505 121.83
L284.883 121.83
L284.929 118.978
L285.183 118.978
L285.183 118.028
L286.486 118.028
L286.486 117.077
L286.849 117.077
L286.91 115.176
L287.494 115.176
L287.494 114.226
L287.707 114.226
L287.814 111.374
L288.577 111.374
L288.577 110.424
L308.575 110.424
L308.575 109.473
L310.764 109.473
L310.764 108.523
L312.414 108.523
L312.414 107.572
L313.092 107.572
L313.092 106.622
L313.946 106.622
L314.042 104.721
L314.364 104.721
L314.364 103.77
L314.768 103.77
L314.768 102.82
L315.701 102.82
L315.772 100.919
L316.29 100.919
L316.29 99.9683
L316.673 99.9683
L316.673 99.0178
L316.818 99.0178
L316.898 97.1168
L317.756 97.1168
L317.77 95.2158
L318.912 95.2158
L318.912 94.2653
L319.11 94.2653
L319.11 93.3149
L319.622 93.3149
L319.622 92.3644
L319.834 92.3644
L319.861 89.5129
L320.016 89.5129
L320.016 88.5624
L320.285 88.5624
L320.285 87.6119
L320.616 87.6119
L320.616 86.6614
L320.943 86.6614
L321.011 84.7604
L321.794 84.7604
L321.794 83.8099
L322.363 83.8099
L322.363 82.8594
L322.676 82.8594
L322.676 81.9089
L323.666 81.9089
L323.666 80.9584
L323.9 80.9584
L323.9 80.0079
L324.014 80.0079
L324.014 79.0574
L324.61 79.0574
L324.61 78.1069
L325.001 78.1069
L325.001 77.1564
L325.768 77.1564
L325.768 76.2059
L326.617 76.2059
L326.617 75.2554
L327.53 75.2554
L327.53 74.305
L327.851 74.305
L327.851 73.3545
L328.303 73.3545
L328.303 72.404
L328.463 72.404
L328.507 70.503
L329.128 70.503
L329.128 69.5525
L329.487 69.5525
L329.487 68.602
L330.141 68.602
L330.141 67.6515
L330.53 67.6515
L330.53 66.701
L330.974 66.701
L330.974 65.7505
L331.626 65.7505
L331.626 64.8
L331.944 64.8
L331.944 63.8495
L332.561 63.8495
L332.617 61.9485
L332.951 61.9485
L332.975 60.0475
L335.952 60.0475
L335.952 59.097
L336.224 59.097
L336.224 58.1465
L336.767 58.1465
L336.767 57.196
L337.647 57.196
L337.647 56.2455
L337.835 56.2455
L337.835 55.295
L342.598 55.295
L342.598 54.3446
L343.942 54.3446
L343.942 53.3941
L344.291 53.3941
L344.291 52.4436
L345.624 52.4436
L345.624 51.4931
L348.434 51.4931
L348.434 50.5426
L355.095 50.5426
L355.095 49.5921
L355.448 49.5921
L355.448 48.6416
L355.946 48.6416
L355.946 47.6911
L356.103 47.6911
L356.103 46.7406
L356.239 46.7406
L356.239 45.7901
L356.446 45.7901
L356.446 44.8396
L357.777 44.8396
L357.777 43.8891
L358.242 43.8891
L358.242 42.9386
L358.892 42.9386
L358.892 41.9881
L359.591 41.9881
L359.591 41.0376
L360.577 41.0376
L360.577 40.0871
L360.788 40.0871
L360.788 39.1366
L360.959 39.1366
L360.959 38.1861
L361.072 38.1861
L361.072 37.2356
L361.244 37.2356
L361.244 36.2851
L361.376 36.2851
L361.394 34.3842
L361.764 34.3842
L361.764 33.4337
L362.256 33.4337
L362.256 32.4832
L362.828 32.4832
L362.828 31.5327
L363.012 31.5327
L363.012 30.5822
L364.012 30.5822
L364.119 28.6812
L364.775 28.6812
L364.775 27.7307
L366.109 27.7307
L366.164 25.8297
L367.57 25.8297
L367.57 24.8792
L396.325 24.8792
L396.325 23.9287
L397.944 23.9287
L397.944 22.9782
L398.357 22.9782
L398.357 22.0277
L398.978 22.0277
L398.978 21.0772
L399.991 21.0772
L399.991 20.1267
L402.829 20.1267
L402.829 19.1762
L403.252 19.1762
L403.252 18.2257
L403.551 18.2257
L403.551 17.2752
L404.373 17.2752
L404.42 15.3743
L405.335 15.3743
L405.335 14.4238
L405.868 14.4238
L405.868 13.4733
L406.142 13.4733
L406.142 12.5228
L407.986 12.5228
L407.986 11.5723
L412.872 11.5723
L412.872 10.6218
L412.872 10.6218
L453.6 10.6218
L453.6 10.6218" style="fill:none;stroke:#00bfbf;stroke-linecap:square;"/>
   </g>
   <g id="line2d_6">
    <path clip-path="url(#p5bee155178)" d="
M7.0928 352.8
L7.0928 351.85
L133.495 351.85
L133.495 350.899
L136.457 350.899
L136.457 349.949
L140.88 349.949
L140.88 348.998
L141.2 348.998
L141.2 348.048
L143.272 348.048
L143.272 347.097
L145.612 347.097
L145.612 346.147
L146.953 346.147
L146.953 345.196
L147.305 345.196
L147.305 344.246
L148.719 344.246
L148.719 343.295
L149.991 343.295
L149.991 342.345
L153.669 342.345
L153.669 341.394
L153.824 341.394
L153.824 340.444
L154.331 340.444
L154.331 339.493
L155.488 339.493
L155.488 338.543
L157.626 338.543
L157.626 337.592
L170.942 337.592
L170.942 336.642
L189.385 336.642
L189.385 335.691
L189.549 335.691
L189.549 334.741
L190.708 334.741
L190.708 333.79
L193.75 333.79
L193.75 332.84
L196.833 332.84
L196.833 331.889
L199.273 331.889
L199.273 330.939
L201.149 330.939
L201.149 329.988
L202.159 329.988
L202.22 327.137
L203.702 327.137
L203.702 326.186
L204.118 326.186
L204.118 325.236
L204.43 325.236
L204.43 324.285
L204.708 324.285
L204.708 323.335
L206.835 323.335
L206.835 322.384
L208.624 322.384
L208.624 321.434
L208.883 321.434
L208.992 318.582
L209.157 318.582
L209.157 317.632
L209.29 317.632
L209.29 316.681
L209.405 316.681
L209.405 315.731
L210.789 315.731
L210.789 314.78
L211.247 314.78
L211.247 313.83
L211.427 313.83
L211.427 312.879
L211.713 312.879
L211.713 311.929
L211.976 311.929
L212.077 309.077
L212.5 309.077
L212.5 308.127
L212.645 308.127
L212.645 307.176
L213.102 307.176
L213.102 306.226
L213.539 306.226
L213.539 305.275
L213.679 305.275
L213.679 304.325
L214.074 304.325
L214.166 302.424
L214.345 302.424
L214.345 301.473
L214.95 301.473
L214.95 300.523
L215.42 300.523
L215.42 299.572
L216.164 299.572
L216.195 297.671
L216.877 297.671
L216.877 296.721
L217.027 296.721
L217.027 295.77
L217.211 295.77
L217.232 293.869
L217.38 293.869
L217.446 291.968
L217.559 291.968
L217.66 290.067
L217.892 290.067
L217.933 288.166
L218.13 288.166
L218.197 285.315
L218.288 285.315
L218.299 283.414
L218.412 283.414
L218.412 282.463
L218.599 282.463
L218.668 278.661
L218.764 278.661
L218.865 275.81
L218.983 275.81
L219.055 273.909
L219.398 273.909
L219.398 272.958
L219.594 272.958
L219.594 272.008
L220.081 272.008
L220.18 270.107
L220.449 270.107
L220.449 269.156
L220.995 269.156
L220.995 268.206
L221.247 268.206
L221.247 267.255
L221.528 267.255
L221.528 266.305
L221.709 266.305
L221.709 265.354
L221.847 265.354
L221.847 264.404
L222.247 264.404
L222.247 263.453
L222.478 263.453
L222.582 258.701
L222.676 258.701
L222.676 257.75
L222.925 257.75
L222.925 256.8
L223.43 256.8
L223.445 254.899
L223.564 254.899
L223.564 253.949
L223.773 253.949
L223.773 252.998
L223.974 252.998
L223.974 252.048
L224.097 252.048
L224.097 251.097
L224.25 251.097
L224.25 250.147
L224.843 250.147
L224.909 248.246
L225.029 248.246
L225.096 245.394
L225.431 245.394
L225.501 242.543
L226.555 242.543
L226.612 239.691
L227.592 239.691
L227.65 237.79
L227.729 237.79
L227.729 236.84
L228.179 236.84
L228.21 234.939
L228.829 234.939
L228.913 233.038
L229.189 233.038
L229.189 232.087
L229.499 232.087
L229.499 231.137
L229.768 231.137
L229.768 230.186
L229.921 230.186
L229.921 229.236
L230.266 229.236
L230.266 228.285
L230.595 228.285
L230.613 226.384
L230.726 226.384
L230.802 224.483
L231.666 224.483
L231.666 223.533
L232.154 223.533
L232.25 221.632
L232.31 221.632
L232.31 220.681
L233.465 220.681
L233.465 219.731
L234.187 219.731
L234.197 217.83
L234.818 217.83
L234.818 216.879
L236.2 216.879
L236.2 215.929
L236.57 215.929
L236.67 214.028
L236.925 214.028
L236.925 213.077
L237.235 213.077
L237.298 211.176
L237.933 211.176
L237.933 210.226
L238.423 210.226
L238.423 209.275
L238.854 209.275
L238.854 208.325
L238.985 208.325
L238.985 207.374
L239.667 207.374
L239.667 206.424
L240.006 206.424
L240.056 203.572
L240.143 203.572
L240.143 202.622
L240.391 202.622
L240.482 199.77
L240.544 199.77
L240.544 198.82
L240.756 198.82
L240.777 196.919
L240.91 196.919
L240.91 195.968
L241.088 195.968
L241.157 194.067
L241.225 194.067
L241.284 192.166
L242.143 192.166
L242.143 191.216
L242.623 191.216
L242.623 190.265
L243.356 190.265
L243.356 189.315
L243.472 189.315
L243.489 187.414
L244.586 187.414
L244.651 184.562
L245.135 184.562
L245.135 183.612
L246.795 183.612
L246.795 182.661
L247.699 182.661
L247.699 181.711
L248.88 181.711
L248.88 180.76
L250.178 180.76
L250.178 179.81
L250.882 179.81
L250.974 177.909
L251.522 177.909
L251.59 176.008
L251.907 176.008
L251.99 174.107
L252.711 174.107
L252.711 173.156
L252.855 173.156
L252.855 172.206
L253.616 172.206
L253.616 171.255
L253.822 171.255
L253.822 170.305
L253.938 170.305
L253.938 169.354
L254.386 169.354
L254.386 168.404
L254.63 168.404
L254.63 167.453
L254.796 167.453
L254.796 166.503
L255.205 166.503
L255.205 165.552
L255.47 165.552
L255.524 163.651
L255.596 163.651
L255.631 160.8
L255.875 160.8
L255.875 159.85
L256.145 159.85
L256.149 157.949
L256.334 157.949
L256.363 156.048
L256.537 156.048
L256.537 155.097
L256.654 155.097
L256.718 151.295
L256.813 151.295
L256.898 149.394
L256.953 149.394
L257.033 145.592
L257.094 145.592
L257.198 142.741
L257.27 142.741
L257.319 140.84
L257.402 140.84
L257.478 138.939
L257.557 138.939
L257.557 137.988
L257.681 137.988
L257.742 135.137
L257.802 135.137
L257.905 133.236
L257.995 133.236
L258.046 130.384
L258.242 130.384
L258.242 129.434
L258.451 129.434
L258.528 126.582
L258.652 126.582
L258.74 120.879
L258.801 120.879
L258.845 118.978
L259.036 118.978
L259.036 118.028
L259.18 118.028
L259.235 116.127
L259.397 116.127
L259.397 115.176
L259.51 115.176
L259.544 112.325
L259.668 112.325
L259.77 108.523
L259.822 108.523
L259.822 107.572
L260.022 107.572
L260.022 106.622
L260.408 106.622
L260.408 105.671
L260.526 105.671
L260.526 104.721
L261.105 104.721
L261.105 103.77
L261.255 103.77
L261.255 102.82
L261.443 102.82
L261.443 101.869
L261.665 101.869
L261.67 99.9683
L261.793 99.9683
L261.793 99.0178
L262.37 99.0178
L262.424 97.1168
L262.488 97.1168
L262.594 94.2653
L262.709 94.2653
L262.82 89.5129
L262.879 89.5129
L262.879 88.5624
L263.128 88.5624
L263.238 85.7109
L263.636 85.7109
L263.669 82.8594
L263.904 82.8594
L263.904 81.9089
L264.085 81.9089
L264.085 80.9584
L264.234 80.9584
L264.234 80.0079
L264.438 80.0079
L264.537 78.1069
L264.631 78.1069
L264.664 76.2059
L264.777 76.2059
L264.798 74.305
L265.015 74.305
L265.091 72.404
L265.394 72.404
L265.394 71.4535
L265.557 71.4535
L265.557 70.503
L265.712 70.503
L265.742 68.602
L265.842 68.602
L265.849 66.701
L266.452 66.701
L266.452 65.7505
L266.631 65.7505
L266.631 64.8
L267.432 64.8
L267.537 62.899
L267.607 62.899
L267.699 60.998
L268.01 60.998
L268.01 60.0475
L268.567 60.0475
L268.567 59.097
L268.841 59.097
L268.841 58.1465
L269.209 58.1465
L269.209 57.196
L271.044 57.196
L271.044 56.2455
L272.031 56.2455
L272.031 55.295
L272.62 55.295
L272.62 54.3446
L276.055 54.3446
L276.055 53.3941
L291.361 53.3941
L291.361 52.4436
L294.626 52.4436
L294.626 51.4931
L299.132 51.4931
L299.132 50.5426
L302.822 50.5426
L302.822 49.5921
L303.691 49.5921
L303.691 48.6416
L304.115 48.6416
L304.115 47.6911
L304.931 47.6911
L304.931 46.7406
L305.327 46.7406
L305.327 45.7901
L306.398 45.7901
L306.398 44.8396
L307.903 44.8396
L307.99 42.9386
L309.82 42.9386
L309.82 41.9881
L311.842 41.9881
L311.842 41.0376
L314.759 41.0376
L314.759 40.0871
L315.202 40.0871
L315.202 39.1366
L322.676 39.1366
L322.676 38.1861
L322.824 38.1861
L322.824 37.2356
L323.391 37.2356
L323.391 36.2851
L323.857 36.2851
L323.857 35.3347
L324.016 35.3347
L324.016 34.3842
L324.587 34.3842
L324.587 33.4337
L324.794 33.4337
L324.794 32.4832
L325.106 32.4832
L325.106 31.5327
L325.294 31.5327
L325.294 30.5822
L325.781 30.5822
L325.781 29.6317
L326.131 29.6317
L326.226 27.7307
L327.138 27.7307
L327.138 26.7802
L327.56 26.7802
L327.56 25.8297
L327.853 25.8297
L327.855 23.9287
L328.237 23.9287
L328.337 22.0277
L328.391 22.0277
L328.391 21.0772
L329.252 21.0772
L329.252 20.1267
L329.515 20.1267
L329.515 19.1762
L330.273 19.1762
L330.273 18.2257
L331.326 18.2257
L331.326 17.2752
L332.258 17.2752
L332.258 16.3248
L332.537 16.3248
L332.537 15.3743
L332.811 15.3743
L332.811 14.4238
L333.038 14.4238
L333.038 13.4733
L335.01 13.4733
L335.01 12.5228
L335.333 12.5228
L335.333 11.5723
L337.968 11.5723
L337.968 10.6218
L337.968 10.6218
L453.6 10.6218
L453.6 10.6218" style="fill:none;stroke:#bf00bf;stroke-linecap:square;"/>
   </g>
   <g id="matplotlib.axis_1">
    <g id="xtick_1"/>
    <g id="xtick_2">
     <g id="line2d_7">
      <path clip-path="url(#p5bee155178)" d="
M56.7047 352.8
L56.7047 7.2" style="fill:none;stroke:#000000;stroke-dasharray:1.000000,3.000000;stroke-dashoffset:0.0;stroke-width:0.5;"/>
     </g>
     <g id="line2d_8">
      <defs>
       <path d="
M0 0
L0 -4" id="m93b0483c22" style="stroke:#000000;stroke-width:0.5;"/>
      </defs>
      <g>
       <use style="stroke:#000000;stroke-width:0.5;" x="56.70471484" xlink:href="#m93b0483c22" y="352.8"/>
      </g>
     </g>
     <g id="line2d_9">
      <defs>
       <path d="
M0 0
L0 4" id="m741efc42ff" style="stroke:#000000;stroke-width:0.5;"/>
      </defs>
      <g>
       <use style="stroke:#000000;stroke-width:0.5;" x="56.70471484" xlink:href="#m741efc42ff" y="7.2"/>
      </g>
     </g>
     <g id="text_1">
      <!-- -6 -->
      <defs>
       <path d="
M3.17188 21.4844
L3.17188 30.3281
L30.1719 30.3281
L30.1719 21.4844
z
" id="ArialMT-2d"/>
       <path d="
M49.75 54.0469
L41.0156 53.375
Q39.8438 58.5469 37.7031 60.8906
Q34.125 64.6562 28.9062 64.6562
Q24.7031 64.6562 21.5312 62.3125
Q17.3906 59.2812 14.9844 53.4688
Q12.5938 47.6562 12.5 36.9219
Q15.6719 41.75 20.2656 44.0938
Q24.8594 46.4375 29.8906 46.4375
Q38.6719 46.4375 44.8438 39.9688
Q51.0312 33.5 51.0312 23.25
Q51.0312 16.5 48.125 10.7188
Q45.2188 4.9375 40.1406 1.85938
Q35.0625 -1.21875 28.6094 -1.21875
Q17.625 -1.21875 10.6875 6.85938
Q3.76562 14.9375 3.76562 33.5
Q3.76562 54.25 11.4219 63.6719
Q18.1094 71.875 29.4375 71.875
Q37.8906 71.875 43.2812 67.1406
Q48.6875 62.4062 49.75 54.0469
M13.875 23.1875
Q13.875 18.6562 15.7969 14.5
Q17.7188 10.3594 21.1875 8.17188
Q24.6562 6 28.4688 6
Q34.0312 6 38.0312 10.4844
Q42.0469 14.9844 42.0469 22.7031
Q42.0469 30.125 38.0781 34.3906
Q34.125 38.6719 28.125 38.6719
Q22.1719 38.6719 18.0156 34.3906
Q13.875 30.125 13.875 23.1875" id="ArialMT-36"/>
      </defs>
      <g transform="translate(48.58908984 371.115625)scale(0.2 -0.2)">
       <use xlink:href="#ArialMT-2d"/>
       <use x="33.30078125" xlink:href="#ArialMT-36"/>
      </g>
     </g>
    </g>
    <g id="xtick_3">
     <g id="line2d_10">
      <path clip-path="url(#p5bee155178)" d="
M106.317 352.8
L106.317 7.2" style="fill:none;stroke:#000000;stroke-dasharray:1.000000,3.000000;stroke-dashoffset:0.0;stroke-width:0.5;"/>
     </g>
     <g id="line2d_11">
      <g>
       <use style="stroke:#000000;stroke-width:0.5;" x="106.316625485" xlink:href="#m93b0483c22" y="352.8"/>
      </g>
     </g>
     <g id="line2d_12">
      <g>
       <use style="stroke:#000000;stroke-width:0.5;" x="106.316625485" xlink:href="#m741efc42ff" y="7.2"/>
      </g>
     </g>
     <g id="text_2">
      <!-- -4 -->
      <defs>
       <path d="
M32.3281 0
L32.3281 17.1406
L1.26562 17.1406
L1.26562 25.2031
L33.9375 71.5781
L41.1094 71.5781
L41.1094 25.2031
L50.7812 25.2031
L50.7812 17.1406
L41.1094 17.1406
L41.1094 0
z

M32.3281 25.2031
L32.3281 57.4688
L9.90625 25.2031
z
" id="ArialMT-34"/>
      </defs>
      <g transform="translate(98.226000485 371.115625)scale(0.2 -0.2)">
       <use xlink:href="#ArialMT-2d"/>
       <use x="33.30078125" xlink:href="#ArialMT-34"/>
      </g>
     </g>
    </g>
    <g id="xtick_4">
     <g id="line2d_13">
      <path clip-path="url(#p5bee155178)" d="
M155.929 352.8
L155.929 7.2" style="fill:none;stroke:#000000;stroke-dasharray:1.000000,3.000000;stroke-dashoffset:0.0;stroke-width:0.5;"/>
     </g>
     <g id="line2d_14">
      <g>
       <use style="stroke:#000000;stroke-width:0.5;" x="155.92853613" xlink:href="#m93b0483c22" y="352.8"/>
      </g>
     </g>
     <g id="line2d_15">
      <g>
       <use style="stroke:#000000;stroke-width:0.5;" x="155.92853613" xlink:href="#m741efc42ff" y="7.2"/>
      </g>
     </g>
     <g id="text_3">
      <!-- -2 -->
      <defs>
       <path d="
M50.3438 8.45312
L50.3438 0
L3.03125 0
Q2.9375 3.17188 4.04688 6.10938
Q5.85938 10.9375 9.82812 15.625
Q13.8125 20.3125 21.3438 26.4688
Q33.0156 36.0312 37.1094 41.625
Q41.2188 47.2188 41.2188 52.2031
Q41.2188 57.4219 37.4688 61
Q33.7344 64.5938 27.7344 64.5938
Q21.3906 64.5938 17.5781 60.7812
Q13.7656 56.9844 13.7188 50.25
L4.6875 51.1719
Q5.60938 61.2812 11.6562 66.5781
Q17.7188 71.875 27.9375 71.875
Q38.2344 71.875 44.2344 66.1562
Q50.25 60.4531 50.25 52
Q50.25 47.7031 48.4844 43.5469
Q46.7344 39.4062 42.6562 34.8125
Q38.5781 30.2188 29.1094 22.2188
Q21.1875 15.5781 18.9375 13.2031
Q16.7031 10.8438 15.2344 8.45312
z
" id="ArialMT-32"/>
      </defs>
      <g transform="translate(147.88166113 371.115625)scale(0.2 -0.2)">
       <use xlink:href="#ArialMT-2d"/>
       <use x="33.30078125" xlink:href="#ArialMT-32"/>
      </g>
     </g>
    </g>
    <g id="xtick_5">
     <g id="line2d_16">
      <path clip-path="url(#p5bee155178)" d="
M205.54 352.8
L205.54 7.2" style="fill:none;stroke:#000000;stroke-dasharray:1.000000,3.000000;stroke-dashoffset:0.0;stroke-width:0.5;"/>
     </g>
     <g id="line2d_17">
      <g>
       <use style="stroke:#000000;stroke-width:0.5;" x="205.540446775" xlink:href="#m93b0483c22" y="352.8"/>
      </g>
     </g>
     <g id="line2d_18">
      <g>
       <use style="stroke:#000000;stroke-width:0.5;" x="205.540446775" xlink:href="#m741efc42ff" y="7.2"/>
      </g>
     </g>
     <g id="text_4">
      <!-- 0 -->
      <defs>
       <path d="
M4.15625 35.2969
Q4.15625 48 6.76562 55.7344
Q9.375 63.4844 14.5156 67.6719
Q19.6719 71.875 27.4844 71.875
Q33.25 71.875 37.5938 69.5469
Q41.9375 67.2344 44.7656 62.8594
Q47.6094 58.5 49.2188 52.2188
Q50.8281 45.9531 50.8281 35.2969
Q50.8281 22.7031 48.2344 14.9688
Q45.6562 7.23438 40.5 3
Q35.3594 -1.21875 27.4844 -1.21875
Q17.1406 -1.21875 11.2344 6.20312
Q4.15625 15.1406 4.15625 35.2969
M13.1875 35.2969
Q13.1875 17.6719 17.3125 11.8281
Q21.4375 6 27.4844 6
Q33.5469 6 37.6719 11.8594
Q41.7969 17.7188 41.7969 35.2969
Q41.7969 52.9844 37.6719 58.7812
Q33.5469 64.5938 27.3906 64.5938
Q21.3438 64.5938 17.7188 59.4688
Q13.1875 52.9375 13.1875 35.2969" id="ArialMT-30"/>
      </defs>
      <g transform="translate(200.873259275 371.115625)scale(0.2 -0.2)">
       <use xlink:href="#ArialMT-30"/>
      </g>
     </g>
    </g>
    <g id="xtick_6">
     <g id="line2d_19">
      <path clip-path="url(#p5bee155178)" d="
M255.152 352.8
L255.152 7.2" style="fill:none;stroke:#000000;stroke-dasharray:1.000000,3.000000;stroke-dashoffset:0.0;stroke-width:0.5;"/>
     </g>
     <g id="line2d_20">
      <g>
       <use style="stroke:#000000;stroke-width:0.5;" x="255.15235742" xlink:href="#m93b0483c22" y="352.8"/>
      </g>
     </g>
     <g id="line2d_21">
      <g>
       <use style="stroke:#000000;stroke-width:0.5;" x="255.15235742" xlink:href="#m741efc42ff" y="7.2"/>
      </g>
     </g>
     <g id="text_5">
      <!-- 2 -->
      <g transform="translate(250.41173242 371.115625)scale(0.2 -0.2)">
       <use xlink:href="#ArialMT-32"/>
      </g>
     </g>
    </g>
    <g id="xtick_7">
     <g id="line2d_22">
      <path clip-path="url(#p5bee155178)" d="
M304.764 352.8
L304.764 7.2" style="fill:none;stroke:#000000;stroke-dasharray:1.000000,3.000000;stroke-dashoffset:0.0;stroke-width:0.5;"/>
     </g>
     <g id="line2d_23">
      <g>
       <use style="stroke:#000000;stroke-width:0.5;" x="304.764268065" xlink:href="#m93b0483c22" y="352.8"/>
      </g>
     </g>
     <g id="line2d_24">
      <g>
       <use style="stroke:#000000;stroke-width:0.5;" x="304.764268065" xlink:href="#m741efc42ff" y="7.2"/>
      </g>
     </g>
     <g id="text_6">
      <!-- 4 -->
      <g transform="translate(299.812705565 371.115625)scale(0.2 -0.2)">
       <use xlink:href="#ArialMT-34"/>
      </g>
     </g>
    </g>
    <g id="xtick_8">
     <g id="line2d_25">
      <path clip-path="url(#p5bee155178)" d="
M354.376 352.8
L354.376 7.2" style="fill:none;stroke:#000000;stroke-dasharray:1.000000,3.000000;stroke-dashoffset:0.0;stroke-width:0.5;"/>
     </g>
     <g id="line2d_26">
      <g>
       <use style="stroke:#000000;stroke-width:0.5;" x="354.37617871" xlink:href="#m93b0483c22" y="352.8"/>
      </g>
     </g>
     <g id="line2d_27">
      <g>
       <use style="stroke:#000000;stroke-width:0.5;" x="354.37617871" xlink:href="#m741efc42ff" y="7.2"/>
      </g>
     </g>
     <g id="text_7">
      <!-- 6 -->
      <g transform="translate(349.64961621 371.115625)scale(0.2 -0.2)">
       <use xlink:href="#ArialMT-36"/>
      </g>
     </g>
    </g>
    <g id="xtick_9">
     <g id="line2d_28">
      <path clip-path="url(#p5bee155178)" d="
M403.988 352.8
L403.988 7.2" style="fill:none;stroke:#000000;stroke-dasharray:1.000000,3.000000;stroke-dashoffset:0.0;stroke-width:0.5;"/>
     </g>
     <g id="line2d_29">
      <g>
       <use style="stroke:#000000;stroke-width:0.5;" x="403.988089355" xlink:href="#m93b0483c22" y="352.8"/>
      </g>
     </g>
     <g id="line2d_30">
      <g>
       <use style="stroke:#000000;stroke-width:0.5;" x="403.988089355" xlink:href="#m741efc42ff" y="7.2"/>
      </g>
     </g>
     <g id="text_8">
      <!-- 8 -->
      <defs>
       <path d="
M17.6719 38.8125
Q12.2031 40.8281 9.5625 44.5312
Q6.9375 48.25 6.9375 53.4219
Q6.9375 61.2344 12.5469 66.5469
Q18.1719 71.875 27.4844 71.875
Q36.8594 71.875 42.5781 66.4219
Q48.2969 60.9844 48.2969 53.1719
Q48.2969 48.1875 45.6719 44.5
Q43.0625 40.8281 37.75 38.8125
Q44.3438 36.6719 47.7812 31.875
Q51.2188 27.0938 51.2188 20.4531
Q51.2188 11.2812 44.7188 5.03125
Q38.2344 -1.21875 27.6406 -1.21875
Q17.0469 -1.21875 10.5469 5.04688
Q4.04688 11.3281 4.04688 20.7031
Q4.04688 27.6875 7.59375 32.3906
Q11.1406 37.1094 17.6719 38.8125
M15.9219 53.7188
Q15.9219 48.6406 19.1875 45.4062
Q22.4688 42.1875 27.6875 42.1875
Q32.7656 42.1875 36.0156 45.375
Q39.2656 48.5781 39.2656 53.2188
Q39.2656 58.0625 35.9062 61.3594
Q32.5625 64.6562 27.5938 64.6562
Q22.5625 64.6562 19.2344 61.4219
Q15.9219 58.2031 15.9219 53.7188
M13.0938 20.6562
Q13.0938 16.8906 14.875 13.375
Q16.6562 9.85938 20.1719 7.92188
Q23.6875 6 27.7344 6
Q34.0312 6 38.125 10.0469
Q42.2344 14.1094 42.2344 20.3594
Q42.2344 26.7031 38.0156 30.8594
Q33.7969 35.0156 27.4375 35.0156
Q21.2344 35.0156 17.1562 30.9062
Q13.0938 26.8125 13.0938 20.6562" id="ArialMT-38"/>
      </defs>
      <g transform="translate(399.270901855 371.115625)scale(0.2 -0.2)">
       <use xlink:href="#ArialMT-38"/>
      </g>
     </g>
    </g>
    <g id="xtick_10">
     <g id="line2d_31">
      <path clip-path="url(#p5bee155178)" d="
M453.6 352.8
L453.6 7.2" style="fill:none;stroke:#000000;stroke-dasharray:1.000000,3.000000;stroke-dashoffset:0.0;stroke-width:0.5;"/>
     </g>
     <g id="line2d_32">
      <g>
       <use style="stroke:#000000;stroke-width:0.5;" x="453.6" xlink:href="#m93b0483c22" y="352.8"/>
      </g>
     </g>
     <g id="line2d_33">
      <g>
       <use style="stroke:#000000;stroke-width:0.5;" x="453.6" xlink:href="#m741efc42ff" y="7.2"/>
      </g>
     </g>
    </g>
    <g id="xtick_11"/>
    <g id="xtick_12">
     <g id="line2d_34">
      <defs>
       <path d="
M0 0
L0 -2" id="m177f7580d0" style="stroke:#000000;stroke-width:0.5;"/>
      </defs>
      <g>
       <use style="stroke:#000000;stroke-width:0.5;" x="56.70471484" xlink:href="#m177f7580d0" y="352.8"/>
      </g>
     </g>
     <g id="line2d_35">
      <defs>
       <path d="
M0 0
L0 2" id="m5284c7e2a0" style="stroke:#000000;stroke-width:0.5;"/>
      </defs>
      <g>
       <use style="stroke:#000000;stroke-width:0.5;" x="56.70471484" xlink:href="#m5284c7e2a0" y="7.2"/>
      </g>
     </g>
    </g>
    <g id="xtick_13">
     <g id="line2d_36">
      <g>
       <use style="stroke:#000000;stroke-width:0.5;" x="106.316625485" xlink:href="#m177f7580d0" y="352.8"/>
      </g>
     </g>
     <g id="line2d_37">
      <g>
       <use style="stroke:#000000;stroke-width:0.5;" x="106.316625485" xlink:href="#m5284c7e2a0" y="7.2"/>
      </g>
     </g>
    </g>
    <g id="xtick_14">
     <g id="line2d_38">
      <g>
       <use style="stroke:#000000;stroke-width:0.5;" x="155.92853613" xlink:href="#m177f7580d0" y="352.8"/>
      </g>
     </g>
     <g id="line2d_39">
      <g>
       <use style="stroke:#000000;stroke-width:0.5;" x="155.92853613" xlink:href="#m5284c7e2a0" y="7.2"/>
      </g>
     </g>
    </g>
    <g id="xtick_15">
     <g id="line2d_40">
      <g>
       <use style="stroke:#000000;stroke-width:0.5;" x="205.540446775" xlink:href="#m177f7580d0" y="352.8"/>
      </g>
     </g>
     <g id="line2d_41">
      <g>
       <use style="stroke:#000000;stroke-width:0.5;" x="205.540446775" xlink:href="#m5284c7e2a0" y="7.2"/>
      </g>
     </g>
    </g>
    <g id="xtick_16">
     <g id="line2d_42">
      <g>
       <use style="stroke:#000000;stroke-width:0.5;" x="255.15235742" xlink:href="#m177f7580d0" y="352.8"/>
      </g>
     </g>
     <g id="line2d_43">
      <g>
       <use style="stroke:#000000;stroke-width:0.5;" x="255.15235742" xlink:href="#m5284c7e2a0" y="7.2"/>
      </g>
     </g>
    </g>
    <g id="xtick_17">
     <g id="line2d_44">
      <g>
       <use style="stroke:#000000;stroke-width:0.5;" x="304.764268065" xlink:href="#m177f7580d0" y="352.8"/>
      </g>
     </g>
     <g id="line2d_45">
      <g>
       <use style="stroke:#000000;stroke-width:0.5;" x="304.764268065" xlink:href="#m5284c7e2a0" y="7.2"/>
      </g>
     </g>
    </g>
    <g id="xtick_18">
     <g id="line2d_46">
      <g>
       <use style="stroke:#000000;stroke-width:0.5;" x="354.37617871" xlink:href="#m177f7580d0" y="352.8"/>
      </g>
     </g>
     <g id="line2d_47">
      <g>
       <use style="stroke:#000000;stroke-width:0.5;" x="354.37617871" xlink:href="#m5284c7e2a0" y="7.2"/>
      </g>
     </g>
    </g>
    <g id="xtick_19">
     <g id="line2d_48">
      <g>
       <use style="stroke:#000000;stroke-width:0.5;" x="403.988089355" xlink:href="#m177f7580d0" y="352.8"/>
      </g>
     </g>
     <g id="line2d_49">
      <g>
       <use style="stroke:#000000;stroke-width:0.5;" x="403.988089355" xlink:href="#m5284c7e2a0" y="7.2"/>
      </g>
     </g>
    </g>
    <g id="xtick_20">
     <g id="line2d_50">
      <g>
       <use style="stroke:#000000;stroke-width:0.5;" x="453.6" xlink:href="#m177f7580d0" y="352.8"/>
      </g>
     </g>
     <g id="line2d_51">
      <g>
       <use style="stroke:#000000;stroke-width:0.5;" x="453.6" xlink:href="#m5284c7e2a0" y="7.2"/>
      </g>
     </g>
    </g>
    <g id="text_9">
     <!-- log10 of Df -->
     <defs>
      <path d="
M4.98438 -4.29688
L13.5312 -5.5625
Q14.0625 -9.51562 16.5 -11.3281
Q19.7812 -13.7656 25.4375 -13.7656
Q31.5469 -13.7656 34.8594 -11.3281
Q38.1875 -8.89062 39.3594 -4.5
Q40.0469 -1.8125 39.9844 6.78125
Q34.2344 0 25.6406 0
Q14.9375 0 9.07812 7.71875
Q3.21875 15.4375 3.21875 26.2188
Q3.21875 33.6406 5.90625 39.9062
Q8.59375 46.1875 13.6875 49.6094
Q18.7969 53.0312 25.6875 53.0312
Q34.8594 53.0312 40.8281 45.6094
L40.8281 51.8594
L48.9219 51.8594
L48.9219 7.03125
Q48.9219 -5.07812 46.4531 -10.125
Q44 -15.1875 38.6406 -18.1094
Q33.2969 -21.0469 25.4844 -21.0469
Q16.2188 -21.0469 10.5 -16.875
Q4.78125 -12.7031 4.98438 -4.29688
M12.25 26.8594
Q12.25 16.6562 16.2969 11.9688
Q20.3594 7.28125 26.4688 7.28125
Q32.5156 7.28125 36.6094 11.9375
Q40.7188 16.6094 40.7188 26.5625
Q40.7188 36.0781 36.5 40.9062
Q32.2812 45.75 26.3125 45.75
Q20.4531 45.75 16.3438 40.9844
Q12.25 36.2344 12.25 26.8594" id="ArialMT-67"/>
      <path d="
M8.6875 0
L8.6875 45.0156
L0.921875 45.0156
L0.921875 51.8594
L8.6875 51.8594
L8.6875 57.375
Q8.6875 62.5938 9.625 65.1406
Q10.8906 68.5625 14.0781 70.6719
Q17.2812 72.7969 23.0469 72.7969
Q26.7656 72.7969 31.25 71.9219
L29.9375 64.2656
Q27.2031 64.75 24.75 64.75
Q20.75 64.75 19.0938 63.0312
Q17.4375 61.3281 17.4375 56.6406
L17.4375 51.8594
L27.5469 51.8594
L27.5469 45.0156
L17.4375 45.0156
L17.4375 0
z
" id="ArialMT-66"/>
      <path d="
M7.71875 0
L7.71875 71.5781
L32.375 71.5781
Q40.7188 71.5781 45.125 70.5625
Q51.2656 69.1406 55.6094 65.4375
Q61.2812 60.6406 64.0781 53.1875
Q66.8906 45.75 66.8906 36.1875
Q66.8906 28.0312 64.9844 21.7344
Q63.0938 15.4375 60.1094 11.2969
Q57.125 7.17188 53.5781 4.79688
Q50.0469 2.4375 45.0469 1.21875
Q40.0469 0 33.5469 0
z

M17.1875 8.45312
L32.4688 8.45312
Q39.5469 8.45312 43.5781 9.76562
Q47.6094 11.0781 50 13.4844
Q53.375 16.8438 55.25 22.5312
Q57.125 28.2188 57.125 36.3281
Q57.125 47.5625 53.4375 53.5938
Q49.75 59.625 44.4844 61.6719
Q40.6719 63.1406 32.2344 63.1406
L17.1875 63.1406
z
" id="ArialMT-44"/>
      <path d="
M6.39062 0
L6.39062 71.5781
L15.1875 71.5781
L15.1875 0
z
" id="ArialMT-6c"/>
      <path d="
M3.32812 25.9219
Q3.32812 40.3281 11.3281 47.2656
Q18.0156 53.0312 27.6406 53.0312
Q38.3281 53.0312 45.1094 46.0156
Q51.9062 39.0156 51.9062 26.6562
Q51.9062 16.6562 48.9062 10.9062
Q45.9062 5.17188 40.1562 2
Q34.4219 -1.17188 27.6406 -1.17188
Q16.75 -1.17188 10.0312 5.8125
Q3.32812 12.7969 3.32812 25.9219
M12.3594 25.9219
Q12.3594 15.9688 16.7031 11.0156
Q21.0469 6.0625 27.6406 6.0625
Q34.1875 6.0625 38.5312 11.0312
Q42.875 16.0156 42.875 26.2188
Q42.875 35.8438 38.5 40.7969
Q34.125 45.75 27.6406 45.75
Q21.0469 45.75 16.7031 40.8125
Q12.3594 35.8906 12.3594 25.9219" id="ArialMT-6f"/>
      <path d="
M37.25 0
L28.4688 0
L28.4688 56
Q25.2969 52.9844 20.1406 49.9531
Q14.9844 46.9219 10.8906 45.4062
L10.8906 53.9062
Q18.2656 57.375 23.7812 62.2969
Q29.2969 67.2344 31.5938 71.875
L37.25 71.875
z
" id="ArialMT-31"/>
      <path id="ArialMT-20"/>
     </defs>
     <g transform="translate(181.6921875 394.65)scale(0.2 -0.2)">
      <use xlink:href="#ArialMT-6c"/>
      <use x="22.216796875" xlink:href="#ArialMT-6f"/>
      <use x="77.83203125" xlink:href="#ArialMT-67"/>
      <use x="133.447265625" xlink:href="#ArialMT-31"/>
      <use x="189.0625" xlink:href="#ArialMT-30"/>
      <use x="244.677734375" xlink:href="#ArialMT-20"/>
      <use x="272.4609375" xlink:href="#ArialMT-6f"/>
      <use x="328.076171875" xlink:href="#ArialMT-66"/>
      <use x="355.859375" xlink:href="#ArialMT-20"/>
      <use x="383.642578125" xlink:href="#ArialMT-44"/>
      <use x="455.859375" xlink:href="#ArialMT-66"/>
     </g>
    </g>
   </g>
   <g id="matplotlib.axis_2">
    <g id="ytick_1">
     <g id="line2d_52">
      <path clip-path="url(#p5bee155178)" d="
M7.2 352.8
L453.6 352.8" style="fill:none;stroke:#000000;stroke-dasharray:1.000000,3.000000;stroke-dashoffset:0.0;stroke-width:0.5;"/>
     </g>
     <g id="line2d_53">
      <defs>
       <path d="
M0 0
L4 0" id="m728421d6d4" style="stroke:#000000;stroke-width:0.5;"/>
      </defs>
      <g>
       <use style="stroke:#000000;stroke-width:0.5;" x="7.2" xlink:href="#m728421d6d4" y="352.8"/>
      </g>
     </g>
     <g id="line2d_54">
      <defs>
       <path d="
M0 0
L-4 0" id="mcb0005524f" style="stroke:#000000;stroke-width:0.5;"/>
      </defs>
      <g>
       <use style="stroke:#000000;stroke-width:0.5;" x="453.6" xlink:href="#mcb0005524f" y="352.8"/>
      </g>
     </g>
    </g>
    <g id="ytick_2">
     <g id="line2d_55">
      <path clip-path="url(#p5bee155178)" d="
M7.2 284.364
L453.6 284.364" style="fill:none;stroke:#000000;stroke-dasharray:1.000000,3.000000;stroke-dashoffset:0.0;stroke-width:0.5;"/>
     </g>
     <g id="line2d_56">
      <g>
       <use style="stroke:#000000;stroke-width:0.5;" x="7.2" xlink:href="#m728421d6d4" y="284.364356436"/>
      </g>
     </g>
     <g id="line2d_57">
      <g>
       <use style="stroke:#000000;stroke-width:0.5;" x="453.6" xlink:href="#mcb0005524f" y="284.364356436"/>
      </g>
     </g>
    </g>
    <g id="ytick_3">
     <g id="line2d_58">
      <path clip-path="url(#p5bee155178)" d="
M7.2 215.929
L453.6 215.929" style="fill:none;stroke:#000000;stroke-dasharray:1.000000,3.000000;stroke-dashoffset:0.0;stroke-width:0.5;"/>
     </g>
     <g id="line2d_59">
      <g>
       <use style="stroke:#000000;stroke-width:0.5;" x="7.2" xlink:href="#m728421d6d4" y="215.928712871"/>
      </g>
     </g>
     <g id="line2d_60">
      <g>
       <use style="stroke:#000000;stroke-width:0.5;" x="453.6" xlink:href="#mcb0005524f" y="215.928712871"/>
      </g>
     </g>
    </g>
    <g id="ytick_4">
     <g id="line2d_61">
      <path clip-path="url(#p5bee155178)" d="
M7.2 147.493
L453.6 147.493" style="fill:none;stroke:#000000;stroke-dasharray:1.000000,3.000000;stroke-dashoffset:0.0;stroke-width:0.5;"/>
     </g>
     <g id="line2d_62">
      <g>
       <use style="stroke:#000000;stroke-width:0.5;" x="7.2" xlink:href="#m728421d6d4" y="147.493069307"/>
      </g>
     </g>
     <g id="line2d_63">
      <g>
       <use style="stroke:#000000;stroke-width:0.5;" x="453.6" xlink:href="#mcb0005524f" y="147.493069307"/>
      </g>
     </g>
    </g>
    <g id="ytick_5">
     <g id="line2d_64">
      <path clip-path="url(#p5bee155178)" d="
M7.2 79.0574
L453.6 79.0574" style="fill:none;stroke:#000000;stroke-dasharray:1.000000,3.000000;stroke-dashoffset:0.0;stroke-width:0.5;"/>
     </g>
     <g id="line2d_65">
      <g>
       <use style="stroke:#000000;stroke-width:0.5;" x="7.2" xlink:href="#m728421d6d4" y="79.0574257426"/>
      </g>
     </g>
     <g id="line2d_66">
      <g>
       <use style="stroke:#000000;stroke-width:0.5;" x="453.6" xlink:href="#mcb0005524f" y="79.0574257426"/>
      </g>
     </g>
    </g>
    <g id="ytick_6">
     <g id="line2d_67">
      <path clip-path="url(#p5bee155178)" d="
M7.2 10.6218
L453.6 10.6218" style="fill:none;stroke:#000000;stroke-dasharray:1.000000,3.000000;stroke-dashoffset:0.0;stroke-width:0.5;"/>
     </g>
     <g id="line2d_68">
      <g>
       <use style="stroke:#000000;stroke-width:0.5;" x="7.2" xlink:href="#m728421d6d4" y="10.6217821782"/>
      </g>
     </g>
     <g id="line2d_69">
      <g>
       <use style="stroke:#000000;stroke-width:0.5;" x="453.6" xlink:href="#mcb0005524f" y="10.6217821782"/>
      </g>
     </g>
    </g>
   </g>
   <g id="patch_3">
    <path d="
M7.2 7.2
L453.6 7.2" style="fill:none;stroke:#000000;"/>
   </g>
   <g id="patch_4">
    <path d="
M453.6 352.8
L453.6 7.2" style="fill:none;stroke:#000000;"/>
   </g>
   <g id="patch_5">
    <path d="
M7.2 352.8
L453.6 352.8" style="fill:none;stroke:#000000;"/>
   </g>
   <g id="patch_6">
    <path d="
M7.2 352.8
L7.2 7.2" style="fill:none;stroke:#000000;"/>
   </g>
   <g id="text_10">
    <!-- {f1-f24}, 20-D -->
    <defs>
     <path d="
M30.5625 29.8906
L30.5625 21.9219
Q26.8125 21.8281 24.4375 19.875
Q22.0781 17.9219 21.2969 14.5781
Q20.5156 11.2344 20.4531 3.07812
Q20.4062 -5.07812 20.1719 -7.67188
Q19.7344 -11.8125 18.5312 -14.2812
Q17.3281 -16.75 15.5625 -18.2344
Q13.8125 -19.7344 11.0781 -20.5156
Q9.23438 -21.0469 5.03125 -21.0469
L2.29688 -21.0469
L2.29688 -13.375
L3.8125 -13.375
Q8.89062 -13.375 10.5469 -11.5469
Q12.2031 -9.71875 12.2031 -3.32812
Q12.2031 8.89062 12.6406 12.1562
Q13.4219 17.5781 15.7656 20.8281
Q18.1094 24.0781 22.4062 25.875
Q16.7969 28.5625 14.5 32.9844
Q12.2031 37.4062 12.2031 47.9062
Q12.2031 57.4219 11.9688 59.2812
Q11.625 62.5469 10.0312 63.8438
Q8.45312 65.1406 3.8125 65.1406
L2.29688 65.1406
L2.29688 72.7969
L5.03125 72.7969
Q9.8125 72.7969 11.9688 72.0156
Q15.0938 70.9531 17.1406 68.4062
Q19.1875 65.875 19.7969 62.0156
Q20.4062 58.1562 20.4531 49.3594
Q20.5156 40.5781 21.2969 37.2344
Q22.0781 33.8906 24.4375 31.9375
Q26.8125 29.9844 30.5625 29.8906" id="ArialMT-7d"/>
     <path d="
M8.89062 0
L8.89062 10.0156
L18.8906 10.0156
L18.8906 0
Q18.8906 -5.51562 16.9375 -8.90625
Q14.9844 -12.3125 10.75 -14.1562
L8.29688 -10.4062
Q11.0781 -9.1875 12.3906 -6.8125
Q13.7188 -4.4375 13.875 0
z
" id="ArialMT-2c"/>
     <path d="
M2.78125 29.8906
Q6.54688 29.9844 8.90625 31.9062
Q11.2812 33.8438 12.0625 37.2031
Q12.8438 40.5781 12.8906 48.7344
Q12.9375 56.8906 13.1875 59.4688
Q13.625 63.5781 14.8125 66.0625
Q16.0156 68.5625 17.7656 70.0469
Q19.5312 71.5312 22.2656 72.3125
Q24.125 72.7969 28.3281 72.7969
L31.0625 72.7969
L31.0625 65.1406
L29.5469 65.1406
Q24.4688 65.1406 22.7969 63.2969
Q21.1406 61.4688 21.1406 55.125
Q21.1406 42.3281 20.6094 38.9688
Q19.7344 33.7344 17.6094 30.9062
Q15.4844 28.0781 10.9375 25.875
Q16.3125 23.6406 18.7188 19.0156
Q21.1406 14.4062 21.1406 3.90625
Q21.1406 -5.60938 21.3438 -7.42188
Q21.7344 -10.75 23.3125 -12.0625
Q24.9062 -13.375 29.5469 -13.375
L31.0625 -13.375
L31.0625 -21.0469
L28.3281 -21.0469
Q23.5312 -21.0469 21.3906 -20.2656
Q18.2656 -19.1406 16.2031 -16.625
Q14.1562 -14.1094 13.5469 -10.25
Q12.9375 -6.39062 12.8906 2.39062
Q12.8438 11.1875 12.0625 14.5469
Q11.2812 17.9219 8.90625 19.875
Q6.54688 21.8281 2.78125 21.9219
z
" id="ArialMT-7b"/>
    </defs>
    <g transform="translate(326.77825 345.888)scale(0.2 -0.2)">
     <use xlink:href="#ArialMT-7b"/>
     <use x="33.3984375" xlink:href="#ArialMT-66"/>
     <use x="61.181640625" xlink:href="#ArialMT-31"/>
     <use x="116.796875" xlink:href="#ArialMT-2d"/>
     <use x="150.09765625" xlink:href="#ArialMT-66"/>
     <use x="177.880859375" xlink:href="#ArialMT-32"/>
     <use x="233.49609375" xlink:href="#ArialMT-34"/>
     <use x="289.111328125" xlink:href="#ArialMT-7d"/>
     <use x="322.509765625" xlink:href="#ArialMT-2c"/>
     <use x="350.29296875" xlink:href="#ArialMT-20"/>
     <use x="378.076171875" xlink:href="#ArialMT-32"/>
     <use x="433.69140625" xlink:href="#ArialMT-30"/>
     <use x="489.306640625" xlink:href="#ArialMT-2d"/>
     <use x="522.607421875" xlink:href="#ArialMT-44"/>
    </g>
   </g>
   <g id="text_11">
    <!-- v2.0.1 -->
    <defs>
     <path d="
M21 0
L1.26562 51.8594
L10.5469 51.8594
L21.6875 20.7969
Q23.4844 15.7656 25 10.3594
Q26.1719 14.4531 28.2656 20.2188
L39.7969 51.8594
L48.8281 51.8594
L29.2031 0
z
" id="ArialMT-76"/>
     <path d="
M9.07812 0
L9.07812 10.0156
L19.0938 10.0156
L19.0938 0
z
" id="ArialMT-2e"/>
    </defs>
    <g style="fill:#808080;" transform="translate(217.76171875 347.3565)scale(0.1 -0.1)">
     <use xlink:href="#ArialMT-76"/>
     <use x="50.0" xlink:href="#ArialMT-32"/>
     <use x="105.615234375" xlink:href="#ArialMT-2e"/>
     <use x="133.3984375" xlink:href="#ArialMT-30"/>
     <use x="189.013671875" xlink:href="#ArialMT-2e"/>
     <use x="216.796875" xlink:href="#ArialMT-31"/>
    </g>
   </g>
  </g>
 </g>
 <defs>
  <clipPath id="p5bee155178">
   <rect height="345.6" width="446.4" x="7.2" y="7.2"/>
  </clipPath>
 </defs>
</svg>
