<?xml version="1.0" encoding="utf-8" standalone="no"?>
<!DOCTYPE svg PUBLIC "-//W3C//DTD SVG 1.1//EN"
  "http://www.w3.org/Graphics/SVG/1.1/DTD/svg11.dtd">
<!-- Created with matplotlib (http://matplotlib.org/) -->
<svg height="406pt" version="1.1" viewBox="0 0 460 406" width="460pt" xmlns="http://www.w3.org/2000/svg" xmlns:xlink="http://www.w3.org/1999/xlink">
 <defs>
  <style type="text/css">
*{stroke-linecap:butt;stroke-linejoin:round;}
  </style>
 </defs>
 <g id="figure_1">
  <g id="patch_1">
   <path d="
M0 406.059
L460.8 406.059
L460.8 0
L0 0
z
" style="fill:#ffffff;"/>
  </g>
  <g id="axes_1">
   <g id="patch_2">
    <path d="
M7.2 352.8
L453.6 352.8
L453.6 7.2
L7.2 7.2
z
" style="fill:#ffffff;"/>
   </g>
   <g id="line2d_1">
    <path clip-path="url(#p5bee155178)" d="
M230.726 352.8
L230.726 347.097
L232.31 347.097
L232.31 341.394
L236.57 341.394
L236.57 335.691
L236.67 335.691
L236.67 329.988
L237.235 329.988
L237.235 324.285
L237.298 324.285
L237.298 318.582
L238.423 318.582
L238.423 312.879
L241.157 312.879
L241.157 307.176
L241.284 307.176
L241.284 301.473
L242.143 301.473
L242.143 295.77
L243.356 295.77
L243.356 290.067
L243.472 290.067
L243.472 284.364
L243.489 284.364
L243.489 278.661
L244.586 278.661
L244.586 272.958
L244.588 272.958
L244.588 267.255
L246.795 267.255
L246.795 261.552
L248.88 261.552
L248.88 255.85
L250.178 255.85
L250.178 250.147
L250.974 250.147
L250.974 244.444
L251.59 244.444
L251.59 238.741
L251.907 238.741
L251.907 233.038
L251.99 233.038
L251.99 227.335
L252.711 227.335
L252.711 221.632
L252.855 221.632
L252.855 215.929
L253.616 215.929
L253.616 210.226
L253.938 210.226
L253.938 204.523
L255.205 204.523
L255.205 198.82
L256.145 198.82
L256.145 193.117
L256.334 193.117
L256.334 187.414
L256.654 187.414
L256.654 181.711
L256.668 181.711
L256.668 176.008
L256.813 176.008
L256.813 170.305
L256.898 170.305
L256.898 164.602
L257.195 164.602
L257.195 158.899
L257.478 158.899
L257.478 153.196
L257.905 153.196
L257.905 147.493
L258.74 147.493
L258.74 141.79
L259.77 141.79
L259.77 136.087
L259.822 136.087
L259.822 130.384
L260.022 130.384
L260.022 124.681
L260.526 124.681
L260.526 118.978
L261.105 118.978
L261.105 113.275
L261.665 113.275
L261.665 107.572
L261.67 107.572
L261.67 101.869
L262.729 101.869
L262.729 96.1663
L262.82 96.1663
L262.82 90.4634
L262.879 90.4634
L262.879 84.7604
L263.128 84.7604
L263.128 79.0574
L263.131 79.0574
L263.131 73.3545
L265.091 73.3545
L265.091 67.6515
L265.394 67.6515
L265.394 61.9485
L265.712 61.9485
L265.712 56.2455
L265.842 56.2455
L265.842 50.5426
L265.849 50.5426
L265.849 44.8396
L267.607 44.8396
L267.607 39.1366
L268.01 39.1366
L268.01 33.4337
L268.567 33.4337
L268.567 27.7307
L271.044 27.7307
L271.044 22.0277
L272.031 22.0277
L272.031 16.3248
L276.055 16.3248
L276.055 10.6218
L276.055 10.6218
L276.055 10.6218
L453.6 10.6218" style="fill:none;stroke:#ff0000;stroke-linecap:square;stroke-width:3.0;"/>
   </g>
   <g id="line2d_2">
    <path clip-path="url(#p5bee155178)" d="
M270.231 352.8
L270.231 347.097
L272.833 347.097
L272.833 341.394
L275.697 341.394
L275.697 335.691
L277.768 335.691
L277.768 329.988
L279.871 329.988
L279.871 324.285
L280.178 324.285
L280.178 318.582
L281.328 318.582
L281.328 312.879
L283.063 312.879
L283.063 307.176
L283.223 307.176
L283.223 301.473
L283.704 301.473
L283.704 295.77
L285.508 295.77
L285.508 290.067
L287.816 290.067
L287.816 284.364
L288.336 284.364
L288.336 278.661
L288.713 278.661
L288.713 272.958
L291.736 272.958
L291.736 267.255
L322.84 267.255
L322.84 261.552
L324.899 261.552
L324.899 255.85
L325.508 255.85
L325.508 250.147
L330.335 250.147
L330.335 244.444
L330.746 244.444
L330.746 238.741
L331.153 238.741
L331.153 233.038
L331.323 233.038
L331.323 227.335
L331.481 227.335
L331.481 221.632
L332.434 221.632
L332.434 215.929
L332.499 215.929
L332.499 210.226
L332.552 210.226
L332.552 204.523
L332.615 204.523
L332.615 198.82
L334.064 198.82
L334.064 193.117
L334.196 193.117
L334.196 187.414
L335.237 187.414
L335.237 181.711
L335.78 181.711
L335.78 176.008
L338.951 176.008
L338.951 170.305
L339.676 170.305
L339.676 164.602
L339.991 164.602
L339.991 158.899
L341.338 158.899
L341.338 153.196
L341.627 153.196
L341.627 147.493
L342.039 147.493
L342.039 141.79
L342.456 141.79
L342.456 136.087
L344.339 136.087
L344.339 130.384
L344.672 130.384
L344.672 124.681
L344.702 124.681
L344.702 118.978
L344.904 118.978
L344.904 113.275
L345.559 113.275
L345.559 107.572
L345.56 107.572
L345.56 101.869
L346.444 101.869
L346.444 96.1663
L346.767 96.1663
L346.767 90.4634
L348.2 90.4634
L348.2 84.7604
L348.557 84.7604
L348.557 79.0574
L348.699 79.0574
L348.699 73.3545
L348.808 73.3545
L348.808 67.6515
L348.869 67.6515
L348.869 61.9485
L349.029 61.9485
L349.029 56.2455
L350.892 56.2455
L350.892 50.5426
L354.404 50.5426
L354.404 44.8396
L355.113 44.8396
L355.113 39.1366
L355.199 39.1366
L355.199 33.4337
L355.274 33.4337
L355.274 27.7307
L355.37 27.7307
L355.37 22.0277
L355.742 22.0277
L355.742 16.3248
L355.873 16.3248
L355.873 10.6218
L355.873 10.6218
L355.873 10.6218
L453.6 10.6218" style="fill:none;stroke:#00bfbf;stroke-linecap:square;"/>
   </g>
   <g id="line2d_3">
    <path clip-path="url(#p5bee155178)" d="
M270.231 352.8
L270.231 347.097
L272.833 347.097
L272.833 341.394
L275.697 341.394
L275.697 335.691
L276.494 335.691
L276.494 329.988
L277.768 329.988
L277.768 324.285
L278.735 324.285
L278.735 318.582
L279.871 318.582
L279.871 312.879
L280.709 312.879
L280.709 307.176
L281.328 307.176
L281.328 301.473
L283.447 301.473
L283.447 295.77
L283.704 295.77
L283.704 290.067
L284.833 290.067
L284.833 284.364
L285.508 284.364
L285.508 278.661
L287.816 278.661
L287.816 272.958
L288.672 272.958
L288.672 267.255
L322.84 267.255
L322.84 261.552
L323.395 261.552
L323.395 255.85
L324.899 255.85
L324.899 250.147
L325.508 250.147
L325.508 244.444
L330.746 244.444
L330.746 238.741
L331.153 238.741
L331.153 233.038
L331.323 233.038
L331.323 227.335
L331.481 227.335
L331.481 221.632
L332.434 221.632
L332.434 215.929
L332.499 215.929
L332.499 210.226
L332.552 210.226
L332.552 204.523
L332.615 204.523
L332.615 198.82
L334.064 198.82
L334.064 193.117
L334.196 193.117
L334.196 187.414
L335.237 187.414
L335.237 181.711
L335.78 181.711
L335.78 176.008
L336.67 176.008
L336.67 170.305
L338.847 170.305
L338.847 164.602
L339.676 164.602
L339.676 158.899
L339.851 158.899
L339.851 153.196
L339.991 153.196
L339.991 147.493
L340.825 147.493
L340.825 141.79
L341.627 141.79
L341.627 136.087
L342.456 136.087
L342.456 130.384
L343.346 130.384
L343.346 124.681
L343.763 124.681
L343.763 118.978
L344.339 118.978
L344.339 113.275
L344.453 113.275
L344.453 107.572
L344.702 107.572
L344.702 101.869
L345.559 101.869
L345.559 96.1663
L346.767 96.1663
L346.767 90.4634
L348.095 90.4634
L348.095 84.7604
L348.2 84.7604
L348.2 79.0574
L348.551 79.0574
L348.551 73.3545
L348.604 73.3545
L348.604 67.6515
L348.725 67.6515
L348.725 61.9485
L348.808 61.9485
L348.808 56.2455
L349.722 56.2455
L349.722 50.5426
L350.892 50.5426
L350.892 44.8396
L350.892 44.8396
L350.892 39.1366
L352.117 39.1366
L352.117 33.4337
L352.146 33.4337
L352.146 27.7307
L355.358 27.7307
L355.358 22.0277
L355.37 22.0277
L355.37 16.3248
L355.87 16.3248
L355.87 10.6218
L355.87 10.6218
L355.87 10.6218
L453.6 10.6218" style="fill:none;stroke:#bf00bf;stroke-linecap:square;"/>
   </g>
   <g id="line2d_4">
    <path clip-path="url(#p5bee155178)" d="
M270.231 352.8
L270.231 347.097
L272.833 347.097
L272.833 341.394
L273.941 341.394
L273.941 335.691
L275.697 335.691
L275.697 329.988
L276.152 329.988
L276.152 324.285
L276.157 324.285
L276.157 318.582
L276.185 318.582
L276.185 312.879
L279.402 312.879
L279.402 307.176
L279.871 307.176
L279.871 301.473
L280.004 301.473
L280.004 295.77
L281.837 295.77
L281.837 290.067
L281.883 290.067
L281.883 284.364
L282.503 284.364
L282.503 278.661
L282.785 278.661
L282.785 272.958
L283.704 272.958
L283.704 267.255
L322.52 267.255
L322.52 261.552
L323.395 261.552
L323.395 255.85
L324.899 255.85
L324.899 250.147
L325.503 250.147
L325.503 244.444
L325.508 244.444
L325.508 238.741
L327.707 238.741
L327.707 233.038
L330.746 233.038
L330.746 227.335
L331.323 227.335
L331.323 221.632
L331.481 221.632
L331.481 215.929
L331.626 215.929
L331.626 210.226
L332.434 210.226
L332.434 204.523
L332.499 204.523
L332.499 198.82
L332.552 198.82
L332.552 193.117
L334.064 193.117
L334.064 187.414
L334.196 187.414
L334.196 181.711
L335.237 181.711
L335.237 176.008
L335.78 176.008
L335.78 170.305
L336.647 170.305
L336.647 164.602
L336.67 164.602
L336.67 158.899
L338.557 158.899
L338.557 153.196
L339.676 153.196
L339.676 147.493
L339.851 147.493
L339.851 141.79
L340.825 141.79
L340.825 136.087
L340.98 136.087
L340.98 130.384
L341.059 130.384
L341.059 124.681
L341.627 124.681
L341.627 118.978
L342.456 118.978
L342.456 113.275
L342.492 113.275
L342.492 107.572
L344.144 107.572
L344.144 101.869
L344.257 101.869
L344.257 96.1663
L344.339 96.1663
L344.339 90.4634
L344.702 90.4634
L344.702 84.7604
L344.847 84.7604
L344.847 79.0574
L345.289 79.0574
L345.289 73.3545
L345.299 73.3545
L345.299 67.6515
L345.472 67.6515
L345.472 61.9485
L348.095 61.9485
L348.095 56.2455
L348.633 56.2455
L348.633 50.5426
L348.746 50.5426
L348.746 44.8396
L348.868 44.8396
L348.868 39.1366
L350.067 39.1366
L350.067 33.4337
L350.524 33.4337
L350.524 27.7307
L350.838 27.7307
L350.838 22.0277
L352.117 22.0277
L352.117 16.3248
L354.335 16.3248
L354.335 10.6218
L354.335 10.6218
L354.335 10.6218
L453.6 10.6218" style="fill:none;stroke:#000000;stroke-linecap:square;"/>
   </g>
   <g id="line2d_5">
    <path clip-path="url(#p5bee155178)" d="
M265.82 352.8
L265.82 347.097
L267.697 347.097
L267.697 341.394
L268.12 341.394
L268.12 335.691
L268.694 335.691
L268.694 329.988
L269.491 329.988
L269.491 324.285
L269.761 324.285
L269.761 318.582
L269.952 318.582
L269.952 312.879
L270.016 312.879
L270.016 307.176
L270.147 307.176
L270.147 301.473
L270.689 301.473
L270.689 295.77
L272.317 295.77
L272.317 290.067
L274.382 290.067
L274.382 284.364
L276.084 284.364
L276.084 278.661
L277.276 278.661
L277.276 272.958
L278 272.958
L278 267.255
L310.764 267.255
L310.764 261.552
L312.414 261.552
L312.414 255.85
L313.946 255.85
L313.946 250.147
L314.364 250.147
L314.364 244.444
L316.898 244.444
L316.898 238.741
L317.756 238.741
L317.756 233.038
L317.77 233.038
L317.77 227.335
L318.912 227.335
L318.912 221.632
L319.622 221.632
L319.622 215.929
L319.834 215.929
L319.834 210.226
L319.861 210.226
L319.861 204.523
L320.016 204.523
L320.016 198.82
L320.943 198.82
L320.943 193.117
L321.011 193.117
L321.011 187.414
L321.794 187.414
L321.794 181.711
L322.363 181.711
L322.363 176.008
L323.9 176.008
L323.9 170.305
L324.014 170.305
L324.014 164.602
L324.61 164.602
L324.61 158.899
L325.001 158.899
L325.001 153.196
L325.768 153.196
L325.768 147.493
L326.617 147.493
L326.617 141.79
L327.53 141.79
L327.53 136.087
L327.851 136.087
L327.851 130.384
L328.303 130.384
L328.303 124.681
L328.463 124.681
L328.463 118.978
L328.507 118.978
L328.507 113.275
L329.128 113.275
L329.128 107.572
L329.487 107.572
L329.487 101.869
L330.141 101.869
L330.141 96.1663
L330.53 96.1663
L330.53 90.4634
L330.974 90.4634
L330.974 84.7604
L331.626 84.7604
L331.626 79.0574
L331.944 79.0574
L331.944 73.3545
L332.561 73.3545
L332.561 67.6515
L332.617 67.6515
L332.617 61.9485
L332.951 61.9485
L332.951 56.2455
L332.975 56.2455
L332.975 50.5426
L335.952 50.5426
L335.952 44.8396
L336.224 44.8396
L336.224 39.1366
L336.767 39.1366
L336.767 33.4337
L337.647 33.4337
L337.647 27.7307
L337.835 27.7307
L337.835 22.0277
L342.598 22.0277
L342.598 16.3248
L344.291 16.3248
L344.291 10.6218
L344.291 10.6218
L344.291 10.6218
L453.6 10.6218" style="fill:none;stroke:#00bfbf;stroke-linecap:square;"/>
   </g>
   <g id="line2d_6">
    <path clip-path="url(#p5bee155178)" d="
M230.726 352.8
L230.726 347.097
L232.31 347.097
L232.31 341.394
L236.57 341.394
L236.57 335.691
L236.67 335.691
L236.67 329.988
L237.235 329.988
L237.235 324.285
L237.298 324.285
L237.298 318.582
L238.423 318.582
L238.423 312.879
L241.157 312.879
L241.157 307.176
L241.284 307.176
L241.284 301.473
L242.143 301.473
L242.143 295.77
L243.356 295.77
L243.356 290.067
L243.472 290.067
L243.472 284.364
L243.489 284.364
L243.489 278.661
L244.586 278.661
L244.586 272.958
L244.588 272.958
L244.588 267.255
L246.795 267.255
L246.795 261.552
L248.88 261.552
L248.88 255.85
L250.178 255.85
L250.178 250.147
L250.974 250.147
L250.974 244.444
L251.59 244.444
L251.59 238.741
L251.907 238.741
L251.907 233.038
L251.99 233.038
L251.99 227.335
L252.711 227.335
L252.711 221.632
L252.855 221.632
L252.855 215.929
L253.616 215.929
L253.616 210.226
L253.938 210.226
L253.938 204.523
L255.205 204.523
L255.205 198.82
L256.145 198.82
L256.145 193.117
L256.334 193.117
L256.334 187.414
L256.654 187.414
L256.654 181.711
L256.668 181.711
L256.668 176.008
L256.813 176.008
L256.813 170.305
L256.898 170.305
L256.898 164.602
L257.195 164.602
L257.195 158.899
L257.478 158.899
L257.478 153.196
L257.905 153.196
L257.905 147.493
L258.74 147.493
L258.74 141.79
L259.77 141.79
L259.77 136.087
L259.822 136.087
L259.822 130.384
L260.022 130.384
L260.022 124.681
L260.526 124.681
L260.526 118.978
L261.105 118.978
L261.105 113.275
L261.665 113.275
L261.665 107.572
L261.67 107.572
L261.67 101.869
L262.729 101.869
L262.729 96.1663
L262.82 96.1663
L262.82 90.4634
L262.879 90.4634
L262.879 84.7604
L263.128 84.7604
L263.128 79.0574
L263.131 79.0574
L263.131 73.3545
L265.091 73.3545
L265.091 67.6515
L265.394 67.6515
L265.394 61.9485
L265.712 61.9485
L265.712 56.2455
L265.842 56.2455
L265.842 50.5426
L265.849 50.5426
L265.849 44.8396
L267.607 44.8396
L267.607 39.1366
L268.01 39.1366
L268.01 33.4337
L268.567 33.4337
L268.567 27.7307
L271.044 27.7307
L271.044 22.0277
L272.031 22.0277
L272.031 16.3248
L276.055 16.3248
L276.055 10.6218
L276.055 10.6218
L276.055 10.6218
L453.6 10.6218" style="fill:none;stroke:#bf00bf;stroke-linecap:square;"/>
   </g>
   <g id="matplotlib.axis_1">
    <g id="xtick_1"/>
    <g id="xtick_2">
     <g id="line2d_7">
      <path clip-path="url(#p5bee155178)" d="
M56.7047 352.8
L56.7047 7.2" style="fill:none;stroke:#000000;stroke-dasharray:1.000000,3.000000;stroke-dashoffset:0.0;stroke-width:0.5;"/>
     </g>
     <g id="line2d_8">
      <defs>
       <path d="
M0 0
L0 -4" id="m93b0483c22" style="stroke:#000000;stroke-width:0.5;"/>
      </defs>
      <g>
       <use style="stroke:#000000;stroke-width:0.5;" x="56.70471484" xlink:href="#m93b0483c22" y="352.8"/>
      </g>
     </g>
     <g id="line2d_9">
      <defs>
       <path d="
M0 0
L0 4" id="m741efc42ff" style="stroke:#000000;stroke-width:0.5;"/>
      </defs>
      <g>
       <use style="stroke:#000000;stroke-width:0.5;" x="56.70471484" xlink:href="#m741efc42ff" y="7.2"/>
      </g>
     </g>
     <g id="text_1">
      <!-- -6 -->
      <defs>
       <path d="
M3.17188 21.4844
L3.17188 30.3281
L30.1719 30.3281
L30.1719 21.4844
z
" id="ArialMT-2d"/>
       <path d="
M49.75 54.0469
L41.0156 53.375
Q39.8438 58.5469 37.7031 60.8906
Q34.125 64.6562 28.9062 64.6562
Q24.7031 64.6562 21.5312 62.3125
Q17.3906 59.2812 14.9844 53.4688
Q12.5938 47.6562 12.5 36.9219
Q15.6719 41.75 20.2656 44.0938
Q24.8594 46.4375 29.8906 46.4375
Q38.6719 46.4375 44.8438 39.9688
Q51.0312 33.5 51.0312 23.25
Q51.0312 16.5 48.125 10.7188
Q45.2188 4.9375 40.1406 1.85938
Q35.0625 -1.21875 28.6094 -1.21875
Q17.625 -1.21875 10.6875 6.85938
Q3.76562 14.9375 3.76562 33.5
Q3.76562 54.25 11.4219 63.6719
Q18.1094 71.875 29.4375 71.875
Q37.8906 71.875 43.2812 67.1406
Q48.6875 62.4062 49.75 54.0469
M13.875 23.1875
Q13.875 18.6562 15.7969 14.5
Q17.7188 10.3594 21.1875 8.17188
Q24.6562 6 28.4688 6
Q34.0312 6 38.0312 10.4844
Q42.0469 14.9844 42.0469 22.7031
Q42.0469 30.125 38.0781 34.3906
Q34.125 38.6719 28.125 38.6719
Q22.1719 38.6719 18.0156 34.3906
Q13.875 30.125 13.875 23.1875" id="ArialMT-36"/>
      </defs>
      <g transform="translate(48.58908984 371.115625)scale(0.2 -0.2)">
       <use xlink:href="#ArialMT-2d"/>
       <use x="33.30078125" xlink:href="#ArialMT-36"/>
      </g>
     </g>
    </g>
    <g id="xtick_3">
     <g id="line2d_10">
      <path clip-path="url(#p5bee155178)" d="
M106.317 352.8
L106.317 7.2" style="fill:none;stroke:#000000;stroke-dasharray:1.000000,3.000000;stroke-dashoffset:0.0;stroke-width:0.5;"/>
     </g>
     <g id="line2d_11">
      <g>
       <use style="stroke:#000000;stroke-width:0.5;" x="106.316625485" xlink:href="#m93b0483c22" y="352.8"/>
      </g>
     </g>
     <g id="line2d_12">
      <g>
       <use style="stroke:#000000;stroke-width:0.5;" x="106.316625485" xlink:href="#m741efc42ff" y="7.2"/>
      </g>
     </g>
     <g id="text_2">
      <!-- -4 -->
      <defs>
       <path d="
M32.3281 0
L32.3281 17.1406
L1.26562 17.1406
L1.26562 25.2031
L33.9375 71.5781
L41.1094 71.5781
L41.1094 25.2031
L50.7812 25.2031
L50.7812 17.1406
L41.1094 17.1406
L41.1094 0
z

M32.3281 25.2031
L32.3281 57.4688
L9.90625 25.2031
z
" id="ArialMT-34"/>
      </defs>
      <g transform="translate(98.226000485 371.115625)scale(0.2 -0.2)">
       <use xlink:href="#ArialMT-2d"/>
       <use x="33.30078125" xlink:href="#ArialMT-34"/>
      </g>
     </g>
    </g>
    <g id="xtick_4">
     <g id="line2d_13">
      <path clip-path="url(#p5bee155178)" d="
M155.929 352.8
L155.929 7.2" style="fill:none;stroke:#000000;stroke-dasharray:1.000000,3.000000;stroke-dashoffset:0.0;stroke-width:0.5;"/>
     </g>
     <g id="line2d_14">
      <g>
       <use style="stroke:#000000;stroke-width:0.5;" x="155.92853613" xlink:href="#m93b0483c22" y="352.8"/>
      </g>
     </g>
     <g id="line2d_15">
      <g>
       <use style="stroke:#000000;stroke-width:0.5;" x="155.92853613" xlink:href="#m741efc42ff" y="7.2"/>
      </g>
     </g>
     <g id="text_3">
      <!-- -2 -->
      <defs>
       <path d="
M50.3438 8.45312
L50.3438 0
L3.03125 0
Q2.9375 3.17188 4.04688 6.10938
Q5.85938 10.9375 9.82812 15.625
Q13.8125 20.3125 21.3438 26.4688
Q33.0156 36.0312 37.1094 41.625
Q41.2188 47.2188 41.2188 52.2031
Q41.2188 57.4219 37.4688 61
Q33.7344 64.5938 27.7344 64.5938
Q21.3906 64.5938 17.5781 60.7812
Q13.7656 56.9844 13.7188 50.25
L4.6875 51.1719
Q5.60938 61.2812 11.6562 66.5781
Q17.7188 71.875 27.9375 71.875
Q38.2344 71.875 44.2344 66.1562
Q50.25 60.4531 50.25 52
Q50.25 47.7031 48.4844 43.5469
Q46.7344 39.4062 42.6562 34.8125
Q38.5781 30.2188 29.1094 22.2188
Q21.1875 15.5781 18.9375 13.2031
Q16.7031 10.8438 15.2344 8.45312
z
" id="ArialMT-32"/>
      </defs>
      <g transform="translate(147.88166113 371.115625)scale(0.2 -0.2)">
       <use xlink:href="#ArialMT-2d"/>
       <use x="33.30078125" xlink:href="#ArialMT-32"/>
      </g>
     </g>
    </g>
    <g id="xtick_5">
     <g id="line2d_16">
      <path clip-path="url(#p5bee155178)" d="
M205.54 352.8
L205.54 7.2" style="fill:none;stroke:#000000;stroke-dasharray:1.000000,3.000000;stroke-dashoffset:0.0;stroke-width:0.5;"/>
     </g>
     <g id="line2d_17">
      <g>
       <use style="stroke:#000000;stroke-width:0.5;" x="205.540446775" xlink:href="#m93b0483c22" y="352.8"/>
      </g>
     </g>
     <g id="line2d_18">
      <g>
       <use style="stroke:#000000;stroke-width:0.5;" x="205.540446775" xlink:href="#m741efc42ff" y="7.2"/>
      </g>
     </g>
     <g id="text_4">
      <!-- 0 -->
      <defs>
       <path d="
M4.15625 35.2969
Q4.15625 48 6.76562 55.7344
Q9.375 63.4844 14.5156 67.6719
Q19.6719 71.875 27.4844 71.875
Q33.25 71.875 37.5938 69.5469
Q41.9375 67.2344 44.7656 62.8594
Q47.6094 58.5 49.2188 52.2188
Q50.8281 45.9531 50.8281 35.2969
Q50.8281 22.7031 48.2344 14.9688
Q45.6562 7.23438 40.5 3
Q35.3594 -1.21875 27.4844 -1.21875
Q17.1406 -1.21875 11.2344 6.20312
Q4.15625 15.1406 4.15625 35.2969
M13.1875 35.2969
Q13.1875 17.6719 17.3125 11.8281
Q21.4375 6 27.4844 6
Q33.5469 6 37.6719 11.8594
Q41.7969 17.7188 41.7969 35.2969
Q41.7969 52.9844 37.6719 58.7812
Q33.5469 64.5938 27.3906 64.5938
Q21.3438 64.5938 17.7188 59.4688
Q13.1875 52.9375 13.1875 35.2969" id="ArialMT-30"/>
      </defs>
      <g transform="translate(200.873259275 371.115625)scale(0.2 -0.2)">
       <use xlink:href="#ArialMT-30"/>
      </g>
     </g>
    </g>
    <g id="xtick_6">
     <g id="line2d_19">
      <path clip-path="url(#p5bee155178)" d="
M255.152 352.8
L255.152 7.2" style="fill:none;stroke:#000000;stroke-dasharray:1.000000,3.000000;stroke-dashoffset:0.0;stroke-width:0.5;"/>
     </g>
     <g id="line2d_20">
      <g>
       <use style="stroke:#000000;stroke-width:0.5;" x="255.15235742" xlink:href="#m93b0483c22" y="352.8"/>
      </g>
     </g>
     <g id="line2d_21">
      <g>
       <use style="stroke:#000000;stroke-width:0.5;" x="255.15235742" xlink:href="#m741efc42ff" y="7.2"/>
      </g>
     </g>
     <g id="text_5">
      <!-- 2 -->
      <g transform="translate(250.41173242 371.115625)scale(0.2 -0.2)">
       <use xlink:href="#ArialMT-32"/>
      </g>
     </g>
    </g>
    <g id="xtick_7">
     <g id="line2d_22">
      <path clip-path="url(#p5bee155178)" d="
M304.764 352.8
L304.764 7.2" style="fill:none;stroke:#000000;stroke-dasharray:1.000000,3.000000;stroke-dashoffset:0.0;stroke-width:0.5;"/>
     </g>
     <g id="line2d_23">
      <g>
       <use style="stroke:#000000;stroke-width:0.5;" x="304.764268065" xlink:href="#m93b0483c22" y="352.8"/>
      </g>
     </g>
     <g id="line2d_24">
      <g>
       <use style="stroke:#000000;stroke-width:0.5;" x="304.764268065" xlink:href="#m741efc42ff" y="7.2"/>
      </g>
     </g>
     <g id="text_6">
      <!-- 4 -->
      <g transform="translate(299.812705565 371.115625)scale(0.2 -0.2)">
       <use xlink:href="#ArialMT-34"/>
      </g>
     </g>
    </g>
    <g id="xtick_8">
     <g id="line2d_25">
      <path clip-path="url(#p5bee155178)" d="
M354.376 352.8
L354.376 7.2" style="fill:none;stroke:#000000;stroke-dasharray:1.000000,3.000000;stroke-dashoffset:0.0;stroke-width:0.5;"/>
     </g>
     <g id="line2d_26">
      <g>
       <use style="stroke:#000000;stroke-width:0.5;" x="354.37617871" xlink:href="#m93b0483c22" y="352.8"/>
      </g>
     </g>
     <g id="line2d_27">
      <g>
       <use style="stroke:#000000;stroke-width:0.5;" x="354.37617871" xlink:href="#m741efc42ff" y="7.2"/>
      </g>
     </g>
     <g id="text_7">
      <!-- 6 -->
      <g transform="translate(349.64961621 371.115625)scale(0.2 -0.2)">
       <use xlink:href="#ArialMT-36"/>
      </g>
     </g>
    </g>
    <g id="xtick_9">
     <g id="line2d_28">
      <path clip-path="url(#p5bee155178)" d="
M403.988 352.8
L403.988 7.2" style="fill:none;stroke:#000000;stroke-dasharray:1.000000,3.000000;stroke-dashoffset:0.0;stroke-width:0.5;"/>
     </g>
     <g id="line2d_29">
      <g>
       <use style="stroke:#000000;stroke-width:0.5;" x="403.988089355" xlink:href="#m93b0483c22" y="352.8"/>
      </g>
     </g>
     <g id="line2d_30">
      <g>
       <use style="stroke:#000000;stroke-width:0.5;" x="403.988089355" xlink:href="#m741efc42ff" y="7.2"/>
      </g>
     </g>
     <g id="text_8">
      <!-- 8 -->
      <defs>
       <path d="
M17.6719 38.8125
Q12.2031 40.8281 9.5625 44.5312
Q6.9375 48.25 6.9375 53.4219
Q6.9375 61.2344 12.5469 66.5469
Q18.1719 71.875 27.4844 71.875
Q36.8594 71.875 42.5781 66.4219
Q48.2969 60.9844 48.2969 53.1719
Q48.2969 48.1875 45.6719 44.5
Q43.0625 40.8281 37.75 38.8125
Q44.3438 36.6719 47.7812 31.875
Q51.2188 27.0938 51.2188 20.4531
Q51.2188 11.2812 44.7188 5.03125
Q38.2344 -1.21875 27.6406 -1.21875
Q17.0469 -1.21875 10.5469 5.04688
Q4.04688 11.3281 4.04688 20.7031
Q4.04688 27.6875 7.59375 32.3906
Q11.1406 37.1094 17.6719 38.8125
M15.9219 53.7188
Q15.9219 48.6406 19.1875 45.4062
Q22.4688 42.1875 27.6875 42.1875
Q32.7656 42.1875 36.0156 45.375
Q39.2656 48.5781 39.2656 53.2188
Q39.2656 58.0625 35.9062 61.3594
Q32.5625 64.6562 27.5938 64.6562
Q22.5625 64.6562 19.2344 61.4219
Q15.9219 58.2031 15.9219 53.7188
M13.0938 20.6562
Q13.0938 16.8906 14.875 13.375
Q16.6562 9.85938 20.1719 7.92188
Q23.6875 6 27.7344 6
Q34.0312 6 38.125 10.0469
Q42.2344 14.1094 42.2344 20.3594
Q42.2344 26.7031 38.0156 30.8594
Q33.7969 35.0156 27.4375 35.0156
Q21.2344 35.0156 17.1562 30.9062
Q13.0938 26.8125 13.0938 20.6562" id="ArialMT-38"/>
      </defs>
      <g transform="translate(399.270901855 371.115625)scale(0.2 -0.2)">
       <use xlink:href="#ArialMT-38"/>
      </g>
     </g>
    </g>
    <g id="xtick_10">
     <g id="line2d_31">
      <path clip-path="url(#p5bee155178)" d="
M453.6 352.8
L453.6 7.2" style="fill:none;stroke:#000000;stroke-dasharray:1.000000,3.000000;stroke-dashoffset:0.0;stroke-width:0.5;"/>
     </g>
     <g id="line2d_32">
      <g>
       <use style="stroke:#000000;stroke-width:0.5;" x="453.6" xlink:href="#m93b0483c22" y="352.8"/>
      </g>
     </g>
     <g id="line2d_33">
      <g>
       <use style="stroke:#000000;stroke-width:0.5;" x="453.6" xlink:href="#m741efc42ff" y="7.2"/>
      </g>
     </g>
    </g>
    <g id="xtick_11"/>
    <g id="xtick_12">
     <g id="line2d_34">
      <defs>
       <path d="
M0 0
L0 -2" id="m177f7580d0" style="stroke:#000000;stroke-width:0.5;"/>
      </defs>
      <g>
       <use style="stroke:#000000;stroke-width:0.5;" x="56.70471484" xlink:href="#m177f7580d0" y="352.8"/>
      </g>
     </g>
     <g id="line2d_35">
      <defs>
       <path d="
M0 0
L0 2" id="m5284c7e2a0" style="stroke:#000000;stroke-width:0.5;"/>
      </defs>
      <g>
       <use style="stroke:#000000;stroke-width:0.5;" x="56.70471484" xlink:href="#m5284c7e2a0" y="7.2"/>
      </g>
     </g>
    </g>
    <g id="xtick_13">
     <g id="line2d_36">
      <g>
       <use style="stroke:#000000;stroke-width:0.5;" x="106.316625485" xlink:href="#m177f7580d0" y="352.8"/>
      </g>
     </g>
     <g id="line2d_37">
      <g>
       <use style="stroke:#000000;stroke-width:0.5;" x="106.316625485" xlink:href="#m5284c7e2a0" y="7.2"/>
      </g>
     </g>
    </g>
    <g id="xtick_14">
     <g id="line2d_38">
      <g>
       <use style="stroke:#000000;stroke-width:0.5;" x="155.92853613" xlink:href="#m177f7580d0" y="352.8"/>
      </g>
     </g>
     <g id="line2d_39">
      <g>
       <use style="stroke:#000000;stroke-width:0.5;" x="155.92853613" xlink:href="#m5284c7e2a0" y="7.2"/>
      </g>
     </g>
    </g>
    <g id="xtick_15">
     <g id="line2d_40">
      <g>
       <use style="stroke:#000000;stroke-width:0.5;" x="205.540446775" xlink:href="#m177f7580d0" y="352.8"/>
      </g>
     </g>
     <g id="line2d_41">
      <g>
       <use style="stroke:#000000;stroke-width:0.5;" x="205.540446775" xlink:href="#m5284c7e2a0" y="7.2"/>
      </g>
     </g>
    </g>
    <g id="xtick_16">
     <g id="line2d_42">
      <g>
       <use style="stroke:#000000;stroke-width:0.5;" x="255.15235742" xlink:href="#m177f7580d0" y="352.8"/>
      </g>
     </g>
     <g id="line2d_43">
      <g>
       <use style="stroke:#000000;stroke-width:0.5;" x="255.15235742" xlink:href="#m5284c7e2a0" y="7.2"/>
      </g>
     </g>
    </g>
    <g id="xtick_17">
     <g id="line2d_44">
      <g>
       <use style="stroke:#000000;stroke-width:0.5;" x="304.764268065" xlink:href="#m177f7580d0" y="352.8"/>
      </g>
     </g>
     <g id="line2d_45">
      <g>
       <use style="stroke:#000000;stroke-width:0.5;" x="304.764268065" xlink:href="#m5284c7e2a0" y="7.2"/>
      </g>
     </g>
    </g>
    <g id="xtick_18">
     <g id="line2d_46">
      <g>
       <use style="stroke:#000000;stroke-width:0.5;" x="354.37617871" xlink:href="#m177f7580d0" y="352.8"/>
      </g>
     </g>
     <g id="line2d_47">
      <g>
       <use style="stroke:#000000;stroke-width:0.5;" x="354.37617871" xlink:href="#m5284c7e2a0" y="7.2"/>
      </g>
     </g>
    </g>
    <g id="xtick_19">
     <g id="line2d_48">
      <g>
       <use style="stroke:#000000;stroke-width:0.5;" x="403.988089355" xlink:href="#m177f7580d0" y="352.8"/>
      </g>
     </g>
     <g id="line2d_49">
      <g>
       <use style="stroke:#000000;stroke-width:0.5;" x="403.988089355" xlink:href="#m5284c7e2a0" y="7.2"/>
      </g>
     </g>
    </g>
    <g id="xtick_20">
     <g id="line2d_50">
      <g>
       <use style="stroke:#000000;stroke-width:0.5;" x="453.6" xlink:href="#m177f7580d0" y="352.8"/>
      </g>
     </g>
     <g id="line2d_51">
      <g>
       <use style="stroke:#000000;stroke-width:0.5;" x="453.6" xlink:href="#m5284c7e2a0" y="7.2"/>
      </g>
     </g>
    </g>
    <g id="text_9">
     <!-- log10 of Df -->
     <defs>
      <path d="
M4.98438 -4.29688
L13.5312 -5.5625
Q14.0625 -9.51562 16.5 -11.3281
Q19.7812 -13.7656 25.4375 -13.7656
Q31.5469 -13.7656 34.8594 -11.3281
Q38.1875 -8.89062 39.3594 -4.5
Q40.0469 -1.8125 39.9844 6.78125
Q34.2344 0 25.6406 0
Q14.9375 0 9.07812 7.71875
Q3.21875 15.4375 3.21875 26.2188
Q3.21875 33.6406 5.90625 39.9062
Q8.59375 46.1875 13.6875 49.6094
Q18.7969 53.0312 25.6875 53.0312
Q34.8594 53.0312 40.8281 45.6094
L40.8281 51.8594
L48.9219 51.8594
L48.9219 7.03125
Q48.9219 -5.07812 46.4531 -10.125
Q44 -15.1875 38.6406 -18.1094
Q33.2969 -21.0469 25.4844 -21.0469
Q16.2188 -21.0469 10.5 -16.875
Q4.78125 -12.7031 4.98438 -4.29688
M12.25 26.8594
Q12.25 16.6562 16.2969 11.9688
Q20.3594 7.28125 26.4688 7.28125
Q32.5156 7.28125 36.6094 11.9375
Q40.7188 16.6094 40.7188 26.5625
Q40.7188 36.0781 36.5 40.9062
Q32.2812 45.75 26.3125 45.75
Q20.4531 45.75 16.3438 40.9844
Q12.25 36.2344 12.25 26.8594" id="ArialMT-67"/>
      <path d="
M8.6875 0
L8.6875 45.0156
L0.921875 45.0156
L0.921875 51.8594
L8.6875 51.8594
L8.6875 57.375
Q8.6875 62.5938 9.625 65.1406
Q10.8906 68.5625 14.0781 70.6719
Q17.2812 72.7969 23.0469 72.7969
Q26.7656 72.7969 31.25 71.9219
L29.9375 64.2656
Q27.2031 64.75 24.75 64.75
Q20.75 64.75 19.0938 63.0312
Q17.4375 61.3281 17.4375 56.6406
L17.4375 51.8594
L27.5469 51.8594
L27.5469 45.0156
L17.4375 45.0156
L17.4375 0
z
" id="ArialMT-66"/>
      <path d="
M7.71875 0
L7.71875 71.5781
L32.375 71.5781
Q40.7188 71.5781 45.125 70.5625
Q51.2656 69.1406 55.6094 65.4375
Q61.2812 60.6406 64.0781 53.1875
Q66.8906 45.75 66.8906 36.1875
Q66.8906 28.0312 64.9844 21.7344
Q63.0938 15.4375 60.1094 11.2969
Q57.125 7.17188 53.5781 4.79688
Q50.0469 2.4375 45.0469 1.21875
Q40.0469 0 33.5469 0
z

M17.1875 8.45312
L32.4688 8.45312
Q39.5469 8.45312 43.5781 9.76562
Q47.6094 11.0781 50 13.4844
Q53.375 16.8438 55.25 22.5312
Q57.125 28.2188 57.125 36.3281
Q57.125 47.5625 53.4375 53.5938
Q49.75 59.625 44.4844 61.6719
Q40.6719 63.1406 32.2344 63.1406
L17.1875 63.1406
z
" id="ArialMT-44"/>
      <path d="
M6.39062 0
L6.39062 71.5781
L15.1875 71.5781
L15.1875 0
z
" id="ArialMT-6c"/>
      <path d="
M3.32812 25.9219
Q3.32812 40.3281 11.3281 47.2656
Q18.0156 53.0312 27.6406 53.0312
Q38.3281 53.0312 45.1094 46.0156
Q51.9062 39.0156 51.9062 26.6562
Q51.9062 16.6562 48.9062 10.9062
Q45.9062 5.17188 40.1562 2
Q34.4219 -1.17188 27.6406 -1.17188
Q16.75 -1.17188 10.0312 5.8125
Q3.32812 12.7969 3.32812 25.9219
M12.3594 25.9219
Q12.3594 15.9688 16.7031 11.0156
Q21.0469 6.0625 27.6406 6.0625
Q34.1875 6.0625 38.5312 11.0312
Q42.875 16.0156 42.875 26.2188
Q42.875 35.8438 38.5 40.7969
Q34.125 45.75 27.6406 45.75
Q21.0469 45.75 16.7031 40.8125
Q12.3594 35.8906 12.3594 25.9219" id="ArialMT-6f"/>
      <path d="
M37.25 0
L28.4688 0
L28.4688 56
Q25.2969 52.9844 20.1406 49.9531
Q14.9844 46.9219 10.8906 45.4062
L10.8906 53.9062
Q18.2656 57.375 23.7812 62.2969
Q29.2969 67.2344 31.5938 71.875
L37.25 71.875
z
" id="ArialMT-31"/>
      <path id="ArialMT-20"/>
     </defs>
     <g transform="translate(181.6921875 394.65)scale(0.2 -0.2)">
      <use xlink:href="#ArialMT-6c"/>
      <use x="22.216796875" xlink:href="#ArialMT-6f"/>
      <use x="77.83203125" xlink:href="#ArialMT-67"/>
      <use x="133.447265625" xlink:href="#ArialMT-31"/>
      <use x="189.0625" xlink:href="#ArialMT-30"/>
      <use x="244.677734375" xlink:href="#ArialMT-20"/>
      <use x="272.4609375" xlink:href="#ArialMT-6f"/>
      <use x="328.076171875" xlink:href="#ArialMT-66"/>
      <use x="355.859375" xlink:href="#ArialMT-20"/>
      <use x="383.642578125" xlink:href="#ArialMT-44"/>
      <use x="455.859375" xlink:href="#ArialMT-66"/>
     </g>
    </g>
   </g>
   <g id="matplotlib.axis_2">
    <g id="ytick_1">
     <g id="line2d_52">
      <path clip-path="url(#p5bee155178)" d="
M7.2 352.8
L453.6 352.8" style="fill:none;stroke:#000000;stroke-dasharray:1.000000,3.000000;stroke-dashoffset:0.0;stroke-width:0.5;"/>
     </g>
     <g id="line2d_53">
      <defs>
       <path d="
M0 0
L4 0" id="m728421d6d4" style="stroke:#000000;stroke-width:0.5;"/>
      </defs>
      <g>
       <use style="stroke:#000000;stroke-width:0.5;" x="7.2" xlink:href="#m728421d6d4" y="352.8"/>
      </g>
     </g>
     <g id="line2d_54">
      <defs>
       <path d="
M0 0
L-4 0" id="mcb0005524f" style="stroke:#000000;stroke-width:0.5;"/>
      </defs>
      <g>
       <use style="stroke:#000000;stroke-width:0.5;" x="453.6" xlink:href="#mcb0005524f" y="352.8"/>
      </g>
     </g>
    </g>
    <g id="ytick_2">
     <g id="line2d_55">
      <path clip-path="url(#p5bee155178)" d="
M7.2 284.364
L453.6 284.364" style="fill:none;stroke:#000000;stroke-dasharray:1.000000,3.000000;stroke-dashoffset:0.0;stroke-width:0.5;"/>
     </g>
     <g id="line2d_56">
      <g>
       <use style="stroke:#000000;stroke-width:0.5;" x="7.2" xlink:href="#m728421d6d4" y="284.364356436"/>
      </g>
     </g>
     <g id="line2d_57">
      <g>
       <use style="stroke:#000000;stroke-width:0.5;" x="453.6" xlink:href="#mcb0005524f" y="284.364356436"/>
      </g>
     </g>
    </g>
    <g id="ytick_3">
     <g id="line2d_58">
      <path clip-path="url(#p5bee155178)" d="
M7.2 215.929
L453.6 215.929" style="fill:none;stroke:#000000;stroke-dasharray:1.000000,3.000000;stroke-dashoffset:0.0;stroke-width:0.5;"/>
     </g>
     <g id="line2d_59">
      <g>
       <use style="stroke:#000000;stroke-width:0.5;" x="7.2" xlink:href="#m728421d6d4" y="215.928712871"/>
      </g>
     </g>
     <g id="line2d_60">
      <g>
       <use style="stroke:#000000;stroke-width:0.5;" x="453.6" xlink:href="#mcb0005524f" y="215.928712871"/>
      </g>
     </g>
    </g>
    <g id="ytick_4">
     <g id="line2d_61">
      <path clip-path="url(#p5bee155178)" d="
M7.2 147.493
L453.6 147.493" style="fill:none;stroke:#000000;stroke-dasharray:1.000000,3.000000;stroke-dashoffset:0.0;stroke-width:0.5;"/>
     </g>
     <g id="line2d_62">
      <g>
       <use style="stroke:#000000;stroke-width:0.5;" x="7.2" xlink:href="#m728421d6d4" y="147.493069307"/>
      </g>
     </g>
     <g id="line2d_63">
      <g>
       <use style="stroke:#000000;stroke-width:0.5;" x="453.6" xlink:href="#mcb0005524f" y="147.493069307"/>
      </g>
     </g>
    </g>
    <g id="ytick_5">
     <g id="line2d_64">
      <path clip-path="url(#p5bee155178)" d="
M7.2 79.0574
L453.6 79.0574" style="fill:none;stroke:#000000;stroke-dasharray:1.000000,3.000000;stroke-dashoffset:0.0;stroke-width:0.5;"/>
     </g>
     <g id="line2d_65">
      <g>
       <use style="stroke:#000000;stroke-width:0.5;" x="7.2" xlink:href="#m728421d6d4" y="79.0574257426"/>
      </g>
     </g>
     <g id="line2d_66">
      <g>
       <use style="stroke:#000000;stroke-width:0.5;" x="453.6" xlink:href="#mcb0005524f" y="79.0574257426"/>
      </g>
     </g>
    </g>
    <g id="ytick_6">
     <g id="line2d_67">
      <path clip-path="url(#p5bee155178)" d="
M7.2 10.6218
L453.6 10.6218" style="fill:none;stroke:#000000;stroke-dasharray:1.000000,3.000000;stroke-dashoffset:0.0;stroke-width:0.5;"/>
     </g>
     <g id="line2d_68">
      <g>
       <use style="stroke:#000000;stroke-width:0.5;" x="7.2" xlink:href="#m728421d6d4" y="10.6217821782"/>
      </g>
     </g>
     <g id="line2d_69">
      <g>
       <use style="stroke:#000000;stroke-width:0.5;" x="453.6" xlink:href="#mcb0005524f" y="10.6217821782"/>
      </g>
     </g>
    </g>
   </g>
   <g id="patch_3">
    <path d="
M7.2 7.2
L453.6 7.2" style="fill:none;stroke:#000000;"/>
   </g>
   <g id="patch_4">
    <path d="
M453.6 352.8
L453.6 7.2" style="fill:none;stroke:#000000;"/>
   </g>
   <g id="patch_5">
    <path d="
M7.2 352.8
L453.6 352.8" style="fill:none;stroke:#000000;"/>
   </g>
   <g id="patch_6">
    <path d="
M7.2 352.8
L7.2 7.2" style="fill:none;stroke:#000000;"/>
   </g>
   <g id="text_10">
    <!-- {f6-f9}, 20-D -->
    <defs>
     <path d="
M30.5625 29.8906
L30.5625 21.9219
Q26.8125 21.8281 24.4375 19.875
Q22.0781 17.9219 21.2969 14.5781
Q20.5156 11.2344 20.4531 3.07812
Q20.4062 -5.07812 20.1719 -7.67188
Q19.7344 -11.8125 18.5312 -14.2812
Q17.3281 -16.75 15.5625 -18.2344
Q13.8125 -19.7344 11.0781 -20.5156
Q9.23438 -21.0469 5.03125 -21.0469
L2.29688 -21.0469
L2.29688 -13.375
L3.8125 -13.375
Q8.89062 -13.375 10.5469 -11.5469
Q12.2031 -9.71875 12.2031 -3.32812
Q12.2031 8.89062 12.6406 12.1562
Q13.4219 17.5781 15.7656 20.8281
Q18.1094 24.0781 22.4062 25.875
Q16.7969 28.5625 14.5 32.9844
Q12.2031 37.4062 12.2031 47.9062
Q12.2031 57.4219 11.9688 59.2812
Q11.625 62.5469 10.0312 63.8438
Q8.45312 65.1406 3.8125 65.1406
L2.29688 65.1406
L2.29688 72.7969
L5.03125 72.7969
Q9.8125 72.7969 11.9688 72.0156
Q15.0938 70.9531 17.1406 68.4062
Q19.1875 65.875 19.7969 62.0156
Q20.4062 58.1562 20.4531 49.3594
Q20.5156 40.5781 21.2969 37.2344
Q22.0781 33.8906 24.4375 31.9375
Q26.8125 29.9844 30.5625 29.8906" id="ArialMT-7d"/>
     <path d="
M5.46875 16.5469
L13.9219 17.3281
Q14.9844 11.375 18.0156 8.6875
Q21.0469 6 25.7812 6
Q29.8281 6 32.875 7.85938
Q35.9375 9.71875 37.8906 12.8125
Q39.8438 15.9219 41.1562 21.1875
Q42.4844 26.4688 42.4844 31.9375
Q42.4844 32.5156 42.4375 33.6875
Q39.7969 29.5 35.2344 26.875
Q30.6719 24.2656 25.3438 24.2656
Q16.4531 24.2656 10.2969 30.7031
Q4.15625 37.1562 4.15625 47.7031
Q4.15625 58.5938 10.5781 65.2344
Q17 71.875 26.6562 71.875
Q33.6406 71.875 39.4219 68.1094
Q45.2188 64.3594 48.2188 57.3906
Q51.2188 50.4375 51.2188 37.25
Q51.2188 23.5312 48.2344 15.4062
Q45.2656 7.28125 39.375 3.03125
Q33.5 -1.21875 25.5938 -1.21875
Q17.1875 -1.21875 11.8594 3.4375
Q6.54688 8.10938 5.46875 16.5469
M41.4531 48.1406
Q41.4531 55.7188 37.4219 60.1562
Q33.4062 64.5938 27.7344 64.5938
Q21.875 64.5938 17.5312 59.8125
Q13.1875 55.0312 13.1875 47.4062
Q13.1875 40.5781 17.3125 36.2969
Q21.4375 32.0312 27.4844 32.0312
Q33.5938 32.0312 37.5156 36.2969
Q41.4531 40.5781 41.4531 48.1406" id="ArialMT-39"/>
     <path d="
M8.89062 0
L8.89062 10.0156
L18.8906 10.0156
L18.8906 0
Q18.8906 -5.51562 16.9375 -8.90625
Q14.9844 -12.3125 10.75 -14.1562
L8.29688 -10.4062
Q11.0781 -9.1875 12.3906 -6.8125
Q13.7188 -4.4375 13.875 0
z
" id="ArialMT-2c"/>
     <path d="
M2.78125 29.8906
Q6.54688 29.9844 8.90625 31.9062
Q11.2812 33.8438 12.0625 37.2031
Q12.8438 40.5781 12.8906 48.7344
Q12.9375 56.8906 13.1875 59.4688
Q13.625 63.5781 14.8125 66.0625
Q16.0156 68.5625 17.7656 70.0469
Q19.5312 71.5312 22.2656 72.3125
Q24.125 72.7969 28.3281 72.7969
L31.0625 72.7969
L31.0625 65.1406
L29.5469 65.1406
Q24.4688 65.1406 22.7969 63.2969
Q21.1406 61.4688 21.1406 55.125
Q21.1406 42.3281 20.6094 38.9688
Q19.7344 33.7344 17.6094 30.9062
Q15.4844 28.0781 10.9375 25.875
Q16.3125 23.6406 18.7188 19.0156
Q21.1406 14.4062 21.1406 3.90625
Q21.1406 -5.60938 21.3438 -7.42188
Q21.7344 -10.75 23.3125 -12.0625
Q24.9062 -13.375 29.5469 -13.375
L31.0625 -13.375
L31.0625 -21.0469
L28.3281 -21.0469
Q23.5312 -21.0469 21.3906 -20.2656
Q18.2656 -19.1406 16.2031 -16.625
Q14.1562 -14.1094 13.5469 -10.25
Q12.9375 -6.39062 12.8906 2.39062
Q12.8438 11.1875 12.0625 14.5469
Q11.2812 17.9219 8.90625 19.875
Q6.54688 21.8281 2.78125 21.9219
z
" id="ArialMT-7b"/>
    </defs>
    <g transform="translate(337.900125 345.888)scale(0.2 -0.2)">
     <use xlink:href="#ArialMT-7b"/>
     <use x="33.3984375" xlink:href="#ArialMT-66"/>
     <use x="61.181640625" xlink:href="#ArialMT-36"/>
     <use x="116.796875" xlink:href="#ArialMT-2d"/>
     <use x="150.09765625" xlink:href="#ArialMT-66"/>
     <use x="177.880859375" xlink:href="#ArialMT-39"/>
     <use x="233.49609375" xlink:href="#ArialMT-7d"/>
     <use x="266.89453125" xlink:href="#ArialMT-2c"/>
     <use x="294.677734375" xlink:href="#ArialMT-20"/>
     <use x="322.4609375" xlink:href="#ArialMT-32"/>
     <use x="378.076171875" xlink:href="#ArialMT-30"/>
     <use x="433.69140625" xlink:href="#ArialMT-2d"/>
     <use x="466.9921875" xlink:href="#ArialMT-44"/>
    </g>
   </g>
   <g id="text_11">
    <!-- v2.0.1 -->
    <defs>
     <path d="
M21 0
L1.26562 51.8594
L10.5469 51.8594
L21.6875 20.7969
Q23.4844 15.7656 25 10.3594
Q26.1719 14.4531 28.2656 20.2188
L39.7969 51.8594
L48.8281 51.8594
L29.2031 0
z
" id="ArialMT-76"/>
     <path d="
M9.07812 0
L9.07812 10.0156
L19.0938 10.0156
L19.0938 0
z
" id="ArialMT-2e"/>
    </defs>
    <g style="fill:#808080;" transform="translate(217.76171875 347.3565)scale(0.1 -0.1)">
     <use xlink:href="#ArialMT-76"/>
     <use x="50.0" xlink:href="#ArialMT-32"/>
     <use x="105.615234375" xlink:href="#ArialMT-2e"/>
     <use x="133.3984375" xlink:href="#ArialMT-30"/>
     <use x="189.013671875" xlink:href="#ArialMT-2e"/>
     <use x="216.796875" xlink:href="#ArialMT-31"/>
    </g>
   </g>
  </g>
 </g>
 <defs>
  <clipPath id="p5bee155178">
   <rect height="345.6" width="446.4" x="7.2" y="7.2"/>
  </clipPath>
 </defs>
</svg>
