<?xml version="1.0" encoding="utf-8" standalone="no"?>
<!DOCTYPE svg PUBLIC "-//W3C//DTD SVG 1.1//EN"
  "http://www.w3.org/Graphics/SVG/1.1/DTD/svg11.dtd">
<!-- Created with matplotlib (http://matplotlib.org/) -->
<svg height="406pt" version="1.1" viewBox="0 0 460 406" width="460pt" xmlns="http://www.w3.org/2000/svg" xmlns:xlink="http://www.w3.org/1999/xlink">
 <defs>
  <style type="text/css">
*{stroke-linecap:butt;stroke-linejoin:round;}
  </style>
 </defs>
 <g id="figure_1">
  <g id="patch_1">
   <path d="
M0 406.059
L460.8 406.059
L460.8 0
L0 0
z
" style="fill:#ffffff;"/>
  </g>
  <g id="axes_1">
   <g id="patch_2">
    <path d="
M7.2 352.8
L453.6 352.8
L453.6 7.2
L7.2 7.2
z
" style="fill:#ffffff;"/>
   </g>
   <g id="line2d_1">
    <path clip-path="url(#p5bee155178)" d="
M189.385 352.8
L189.385 348.238
L193.75 348.238
L193.75 343.675
L196.833 343.675
L196.833 339.113
L199.273 339.113
L199.273 334.55
L201.149 334.55
L201.149 329.988
L202.159 329.988
L202.22 320.863
L204.43 320.863
L204.43 316.301
L204.708 316.301
L204.708 311.739
L206.835 311.739
L206.835 307.176
L208.883 307.176
L208.992 298.051
L211.713 298.051
L211.713 293.489
L213.102 293.489
L213.102 288.927
L221.709 288.927
L221.709 284.364
L251.522 284.364
L251.522 279.802
L254.386 279.802
L254.386 275.24
L255.596 275.24
L255.625 266.115
L255.875 266.115
L255.875 261.552
L258.451 261.552
L258.482 252.428
L258.845 252.428
L258.845 247.865
L259.769 247.865
L259.769 243.303
L261.255 243.303
L261.255 238.741
L261.793 238.741
L261.793 234.178
L262.37 234.178
L262.37 229.616
L262.523 229.616
L262.594 220.491
L262.775 220.491
L262.775 215.929
L264.085 215.929
L264.085 211.366
L264.438 211.366
L264.537 202.242
L264.664 202.242
L264.664 197.679
L264.798 197.679
L264.798 193.117
L265.015 193.117
L265.015 188.554
L265.742 188.554
L265.742 183.992
L266.452 183.992
L266.452 179.43
L266.631 179.43
L266.631 174.867
L267.432 174.867
L267.537 165.743
L267.699 165.743
L267.699 161.18
L268.841 161.18
L268.841 156.618
L269.209 156.618
L269.209 152.055
L272.62 152.055
L272.62 147.493
L291.361 147.493
L291.361 142.931
L294.626 142.931
L294.626 138.368
L299.132 138.368
L299.132 133.806
L302.822 133.806
L302.822 129.244
L303.691 129.244
L303.691 124.681
L304.115 124.681
L304.115 120.119
L304.931 120.119
L304.931 115.556
L305.327 115.556
L305.327 110.994
L306.398 110.994
L306.398 106.432
L307.903 106.432
L307.99 97.3069
L309.82 97.3069
L309.82 92.7446
L311.842 92.7446
L311.842 88.1822
L314.759 88.1822
L314.759 83.6198
L315.202 83.6198
L315.202 79.0574
L322.676 79.0574
L322.676 74.495
L322.824 74.495
L322.824 69.9327
L324.016 69.9327
L324.016 65.3703
L324.794 65.3703
L324.794 60.8079
L325.106 60.8079
L325.106 56.2455
L325.294 56.2455
L325.294 51.6832
L327.138 51.6832
L327.138 47.1208
L327.853 47.1208
L327.853 42.5584
L328.237 42.5584
L328.337 33.4337
L328.391 33.4337
L328.391 28.8713
L332.537 28.8713
L332.537 24.3089
L332.811 24.3089
L332.811 19.7465
L335.01 19.7465
L335.01 15.1842
L337.968 15.1842
L337.968 10.6218
L337.968 10.6218
L453.6 10.6218
L453.6 10.6218" style="fill:none;stroke:#ff0000;stroke-linecap:square;stroke-width:3.0;"/>
   </g>
   <g id="line2d_2">
    <path clip-path="url(#p5bee155178)" d="
M246.256 352.8
L246.256 348.238
L247.895 348.238
L247.895 343.675
L249.895 343.675
L249.895 339.113
L250.096 339.113
L250.096 334.55
L251.133 334.55
L251.133 329.988
L251.263 329.988
L251.263 325.426
L251.421 325.426
L251.421 320.863
L252.375 320.863
L252.375 316.301
L253.338 316.301
L253.369 307.176
L256.846 307.176
L256.846 302.614
L258.277 302.614
L258.277 298.051
L259.269 298.051
L259.269 293.489
L259.441 293.489
L259.544 284.364
L270.703 284.364
L270.703 279.802
L287.23 279.802
L287.23 275.24
L287.724 275.24
L287.826 266.115
L287.898 266.115
L287.898 261.552
L288.77 261.552
L288.77 256.99
L289.457 256.99
L289.537 247.865
L290.659 247.865
L290.659 243.303
L291.044 243.303
L291.044 238.741
L291.409 238.741
L291.475 225.053
L291.907 225.053
L291.907 220.491
L292.926 220.491
L292.926 215.929
L293.594 215.929
L293.594 211.366
L304.04 211.366
L304.04 206.804
L304.469 206.804
L304.469 202.242
L308.73 202.242
L308.73 197.679
L319.779 197.679
L319.779 193.117
L326.725 193.117
L326.725 188.554
L343.35 188.554
L343.35 183.992
L344.655 183.992
L344.655 179.43
L345.723 179.43
L345.723 174.867
L346.856 174.867
L346.856 170.305
L355.525 170.305
L355.525 165.743
L356.999 165.743
L356.999 161.18
L358.746 161.18
L358.746 156.618
L362.095 156.618
L362.095 152.055
L364.098 152.055
L364.098 147.493
L365.559 147.493
L365.594 138.368
L365.817 138.368
L365.817 133.806
L372.771 133.806
L372.771 129.244
L373.518 129.244
L373.518 124.681
L374.645 124.681
L374.645 120.119
L377.843 120.119
L377.843 115.556
L379.979 115.556
L380.057 106.432
L380.484 106.432
L380.484 101.869
L381.126 101.869
L381.126 97.3069
L383.272 97.3069
L383.272 92.7446
L384.591 92.7446
L384.591 88.1822
L384.913 88.1822
L384.913 83.6198
L385.164 83.6198
L385.164 79.0574
L411.495 79.0574
L411.495 74.495
L411.752 74.495
L411.752 69.9327
L412.28 69.9327
L412.28 65.3703
L416.268 65.3703
L416.268 60.8079
L416.408 60.8079
L416.414 51.6832
L419.016 51.6832
L419.016 47.1208
L420.973 47.1208
L420.973 42.5584
L422.468 42.5584
L422.468 37.996
L425.286 37.996
L425.286 33.4337
L425.705 33.4337
L425.705 28.8713
L426.809 28.8713
L426.809 24.3089
L430.785 24.3089
L430.785 19.7465
L445.983 19.7465
L445.983 15.1842
L447.134 15.1842
L447.134 10.6218
L447.134 10.6218
L453.6 10.6218
L453.6 10.6218" style="fill:none;stroke:#00bfbf;stroke-linecap:square;"/>
   </g>
   <g id="line2d_3">
    <path clip-path="url(#p5bee155178)" d="
M243.747 352.8
L243.747 348.238
L246.256 348.238
L246.256 343.675
L247.895 343.675
L247.895 339.113
L248.42 339.113
L248.42 334.55
L250.096 334.55
L250.096 329.988
L250.556 329.988
L250.574 320.863
L250.846 320.863
L250.846 316.301
L251.421 316.301
L251.421 311.739
L251.689 311.739
L251.689 307.176
L252.532 307.176
L252.532 302.614
L252.859 302.614
L252.859 298.051
L255.112 298.051
L255.112 293.489
L256.846 293.489
L256.846 288.927
L257.74 288.927
L257.74 284.364
L270.599 284.364
L270.703 275.24
L285.326 275.24
L285.326 270.677
L286.628 270.677
L286.628 266.115
L287.23 266.115
L287.23 261.552
L287.724 261.552
L287.826 252.428
L287.898 252.428
L287.898 247.865
L288.33 247.865
L288.33 243.303
L289.912 243.303
L289.947 234.178
L290.976 234.178
L291.044 225.053
L291.185 225.053
L291.185 220.491
L291.47 220.491
L291.47 215.929
L291.646 215.929
L291.646 211.366
L292.38 211.366
L292.488 202.242
L304.04 202.242
L304.04 197.679
L308.73 197.679
L308.73 193.117
L311.449 193.117
L311.449 188.554
L319.779 188.554
L319.779 183.992
L322.911 183.992
L322.911 179.43
L326.725 179.43
L326.725 174.867
L343.35 174.867
L343.35 170.305
L344.655 170.305
L344.655 165.743
L347.171 165.743
L347.171 161.18
L355.525 161.18
L355.525 156.618
L358.746 156.618
L358.746 152.055
L361.431 152.055
L361.431 147.493
L364.098 147.493
L364.098 142.931
L365.307 142.931
L365.307 138.368
L365.517 138.368
L365.559 129.244
L371.902 129.244
L371.902 124.681
L372.231 124.681
L372.231 120.119
L372.735 120.119
L372.735 115.556
L373.518 115.556
L373.518 110.994
L376.056 110.994
L376.056 106.432
L376.696 106.432
L376.696 101.869
L377.709 101.869
L377.709 97.3069
L378.096 97.3069
L378.096 92.7446
L379.113 92.7446
L379.113 88.1822
L380.057 88.1822
L380.057 83.6198
L380.484 83.6198
L380.484 79.0574
L406.657 79.0574
L406.657 74.495
L408.626 74.495
L408.626 69.9327
L411.495 69.9327
L411.495 65.3703
L411.752 65.3703
L411.752 60.8079
L416.268 60.8079
L416.268 56.2455
L416.414 56.2455
L416.414 51.6832
L417.669 51.6832
L417.669 47.1208
L419.861 47.1208
L419.861 42.5584
L420.973 42.5584
L420.973 37.996
L425.286 37.996
L425.286 33.4337
L425.705 33.4337
L425.705 28.8713
L426.809 28.8713
L426.809 24.3089
L429.878 24.3089
L429.878 19.7465
L430.785 19.7465
L430.785 15.1842
L441.608 15.1842
L441.608 10.6218
L441.608 10.6218
L453.6 10.6218
L453.6 10.6218" style="fill:none;stroke:#bf00bf;stroke-linecap:square;"/>
   </g>
   <g id="line2d_4">
    <path clip-path="url(#p5bee155178)" d="
M242.614 352.8
L242.614 348.238
L243.747 348.238
L243.841 339.113
L243.99 339.113
L243.99 334.55
L245.756 334.55
L245.756 329.988
L247.957 329.988
L247.957 325.426
L248.364 325.426
L248.364 320.863
L248.623 320.863
L248.623 316.301
L249.001 316.301
L249.001 311.739
L249.302 311.739
L249.302 307.176
L250.796 307.176
L250.796 302.614
L251.689 302.614
L251.689 298.051
L252.532 298.051
L252.532 293.489
L252.925 293.489
L252.925 288.927
L253.046 288.927
L253.046 284.364
L256.7 284.364
L256.7 279.802
L263.4 279.802
L263.4 275.24
L269.625 275.24
L269.625 270.677
L269.89 270.677
L269.89 266.115
L270.599 266.115
L270.703 256.99
L276.667 256.99
L276.667 252.428
L283.796 252.428
L283.796 247.865
L285.326 247.865
L285.326 243.303
L285.883 243.303
L285.883 238.741
L286.597 238.741
L286.628 229.616
L287.724 229.616
L287.826 220.491
L288.33 220.491
L288.33 215.929
L289.571 215.929
L289.571 211.366
L289.912 211.366
L289.947 202.242
L290.078 202.242
L290.078 197.679
L290.214 197.679
L290.323 188.554
L290.513 188.554
L290.513 183.992
L291.112 183.992
L291.112 179.43
L292.488 179.43
L292.488 174.867
L295.195 174.867
L295.195 170.305
L304.075 170.305
L304.075 165.743
L305.457 165.743
L305.457 161.18
L309.515 161.18
L309.515 156.618
L318.174 156.618
L318.174 152.055
L322.117 152.055
L322.117 147.493
L358.746 147.493
L358.746 142.931
L360.235 142.931
L360.235 138.368
L361.431 138.368
L361.431 133.806
L362.546 133.806
L362.546 129.244
L365.517 129.244
L365.559 120.119
L370.521 120.119
L370.521 115.556
L371.54 115.556
L371.54 110.994
L371.874 110.994
L371.874 106.432
L372.231 106.432
L372.231 101.869
L372.9 101.869
L372.9 97.3069
L373.518 97.3069
L373.518 92.7446
L373.764 92.7446
L373.764 88.1822
L375.115 88.1822
L375.115 83.6198
L376.396 83.6198
L376.396 79.0574
L404.33 79.0574
L404.33 74.495
L406.657 74.495
L406.657 69.9327
L407.719 69.9327
L407.719 65.3703
L408.626 65.3703
L408.626 60.8079
L409.425 60.8079
L409.425 56.2455
L410.149 56.2455
L410.149 51.6832
L411.495 51.6832
L411.495 47.1208
L412.563 47.1208
L412.563 42.5584
L413.497 42.5584
L413.497 37.996
L414.004 37.996
L414.004 33.4337
L415.338 33.4337
L415.338 28.8713
L416.175 28.8713
L416.175 24.3089
L418.048 24.3089
L418.048 19.7465
L422.497 19.7465
L422.497 15.1842
L427.223 15.1842
L427.223 10.6218
L427.223 10.6218
L453.6 10.6218
L453.6 10.6218" style="fill:none;stroke:#000000;stroke-linecap:square;"/>
   </g>
   <g id="line2d_5">
    <path clip-path="url(#p5bee155178)" d="
M235.264 352.8
L235.264 348.238
L238.414 348.238
L238.423 339.113
L238.572 339.113
L238.572 334.55
L239.573 334.55
L239.573 329.988
L241.173 329.988
L241.247 320.863
L242.093 320.863
L242.093 316.301
L242.506 316.301
L242.506 311.739
L242.814 311.739
L242.814 307.176
L243.56 307.176
L243.64 298.051
L244.538 298.051
L244.538 293.489
L244.9 293.489
L244.976 284.364
L255.875 284.364
L255.875 279.802
L256.7 279.802
L256.7 275.24
L263.4 275.24
L263.4 270.677
L266.339 270.677
L266.339 266.115
L266.895 266.115
L266.895 261.552
L269.465 261.552
L269.465 256.99
L269.607 256.99
L269.625 247.865
L270.599 247.865
L270.599 243.303
L276.667 243.303
L276.667 238.741
L280.806 238.741
L280.806 234.178
L281.777 234.178
L281.777 229.616
L282.025 229.616
L282.025 225.053
L283.658 225.053
L283.658 220.491
L283.796 220.491
L283.796 215.929
L284.221 215.929
L284.221 211.366
L284.449 211.366
L284.505 202.242
L284.883 202.242
L284.929 188.554
L285.183 188.554
L285.183 183.992
L286.486 183.992
L286.486 179.43
L286.849 179.43
L286.91 170.305
L287.494 170.305
L287.494 165.743
L287.707 165.743
L287.814 152.055
L288.577 152.055
L288.577 147.493
L343.942 147.493
L343.942 142.931
L348.434 142.931
L348.434 138.368
L355.095 138.368
L355.095 133.806
L355.946 133.806
L355.946 129.244
L356.103 129.244
L356.103 124.681
L356.239 124.681
L356.239 120.119
L356.446 120.119
L356.446 115.556
L358.242 115.556
L358.242 110.994
L359.591 110.994
L359.591 106.432
L360.577 106.432
L360.577 101.869
L361.072 101.869
L361.072 97.3069
L361.376 97.3069
L361.394 88.1822
L362.256 88.1822
L362.256 83.6198
L364.119 83.6198
L364.119 79.0574
L396.325 79.0574
L396.325 74.495
L397.944 74.495
L397.944 69.9327
L398.357 69.9327
L398.357 65.3703
L398.978 65.3703
L398.978 60.8079
L399.991 60.8079
L399.991 56.2455
L402.829 56.2455
L402.829 51.6832
L403.252 51.6832
L403.252 47.1208
L403.551 47.1208
L403.551 42.5584
L404.373 42.5584
L404.42 33.4337
L405.335 33.4337
L405.335 28.8713
L405.868 28.8713
L405.868 24.3089
L406.142 24.3089
L406.142 19.7465
L407.986 19.7465
L407.986 15.1842
L412.872 15.1842
L412.872 10.6218
L412.872 10.6218
L453.6 10.6218
L453.6 10.6218" style="fill:none;stroke:#00bfbf;stroke-linecap:square;"/>
   </g>
   <g id="line2d_6">
    <path clip-path="url(#p5bee155178)" d="
M189.385 352.8
L189.385 348.238
L193.75 348.238
L193.75 343.675
L196.833 343.675
L196.833 339.113
L199.273 339.113
L199.273 334.55
L201.149 334.55
L201.149 329.988
L202.159 329.988
L202.22 320.863
L204.43 320.863
L204.43 316.301
L204.708 316.301
L204.708 311.739
L206.835 311.739
L206.835 307.176
L208.883 307.176
L208.992 298.051
L211.713 298.051
L211.713 293.489
L213.102 293.489
L213.102 288.927
L221.709 288.927
L221.709 284.364
L251.522 284.364
L251.522 279.802
L254.386 279.802
L254.386 275.24
L255.596 275.24
L255.625 266.115
L255.875 266.115
L255.875 261.552
L258.451 261.552
L258.482 252.428
L258.845 252.428
L258.845 247.865
L259.769 247.865
L259.769 243.303
L261.255 243.303
L261.255 238.741
L261.793 238.741
L261.793 234.178
L262.37 234.178
L262.37 229.616
L262.523 229.616
L262.594 220.491
L262.775 220.491
L262.775 215.929
L264.085 215.929
L264.085 211.366
L264.438 211.366
L264.537 202.242
L264.664 202.242
L264.664 197.679
L264.798 197.679
L264.798 193.117
L265.015 193.117
L265.015 188.554
L265.742 188.554
L265.742 183.992
L266.452 183.992
L266.452 179.43
L266.631 179.43
L266.631 174.867
L267.432 174.867
L267.537 165.743
L267.699 165.743
L267.699 161.18
L268.841 161.18
L268.841 156.618
L269.209 156.618
L269.209 152.055
L272.62 152.055
L272.62 147.493
L291.361 147.493
L291.361 142.931
L294.626 142.931
L294.626 138.368
L299.132 138.368
L299.132 133.806
L302.822 133.806
L302.822 129.244
L303.691 129.244
L303.691 124.681
L304.115 124.681
L304.115 120.119
L304.931 120.119
L304.931 115.556
L305.327 115.556
L305.327 110.994
L306.398 110.994
L306.398 106.432
L307.903 106.432
L307.99 97.3069
L309.82 97.3069
L309.82 92.7446
L311.842 92.7446
L311.842 88.1822
L314.759 88.1822
L314.759 83.6198
L315.202 83.6198
L315.202 79.0574
L322.676 79.0574
L322.676 74.495
L322.824 74.495
L322.824 69.9327
L324.016 69.9327
L324.016 65.3703
L324.794 65.3703
L324.794 60.8079
L325.106 60.8079
L325.106 56.2455
L325.294 56.2455
L325.294 51.6832
L327.138 51.6832
L327.138 47.1208
L327.853 47.1208
L327.853 42.5584
L328.237 42.5584
L328.337 33.4337
L328.391 33.4337
L328.391 28.8713
L332.537 28.8713
L332.537 24.3089
L332.811 24.3089
L332.811 19.7465
L335.01 19.7465
L335.01 15.1842
L337.968 15.1842
L337.968 10.6218
L337.968 10.6218
L453.6 10.6218
L453.6 10.6218" style="fill:none;stroke:#bf00bf;stroke-linecap:square;"/>
   </g>
   <g id="matplotlib.axis_1">
    <g id="xtick_1"/>
    <g id="xtick_2">
     <g id="line2d_7">
      <path clip-path="url(#p5bee155178)" d="
M56.7047 352.8
L56.7047 7.2" style="fill:none;stroke:#000000;stroke-dasharray:1.000000,3.000000;stroke-dashoffset:0.0;stroke-width:0.5;"/>
     </g>
     <g id="line2d_8">
      <defs>
       <path d="
M0 0
L0 -4" id="m93b0483c22" style="stroke:#000000;stroke-width:0.5;"/>
      </defs>
      <g>
       <use style="stroke:#000000;stroke-width:0.5;" x="56.70471484" xlink:href="#m93b0483c22" y="352.8"/>
      </g>
     </g>
     <g id="line2d_9">
      <defs>
       <path d="
M0 0
L0 4" id="m741efc42ff" style="stroke:#000000;stroke-width:0.5;"/>
      </defs>
      <g>
       <use style="stroke:#000000;stroke-width:0.5;" x="56.70471484" xlink:href="#m741efc42ff" y="7.2"/>
      </g>
     </g>
     <g id="text_1">
      <!-- -6 -->
      <defs>
       <path d="
M3.17188 21.4844
L3.17188 30.3281
L30.1719 30.3281
L30.1719 21.4844
z
" id="ArialMT-2d"/>
       <path d="
M49.75 54.0469
L41.0156 53.375
Q39.8438 58.5469 37.7031 60.8906
Q34.125 64.6562 28.9062 64.6562
Q24.7031 64.6562 21.5312 62.3125
Q17.3906 59.2812 14.9844 53.4688
Q12.5938 47.6562 12.5 36.9219
Q15.6719 41.75 20.2656 44.0938
Q24.8594 46.4375 29.8906 46.4375
Q38.6719 46.4375 44.8438 39.9688
Q51.0312 33.5 51.0312 23.25
Q51.0312 16.5 48.125 10.7188
Q45.2188 4.9375 40.1406 1.85938
Q35.0625 -1.21875 28.6094 -1.21875
Q17.625 -1.21875 10.6875 6.85938
Q3.76562 14.9375 3.76562 33.5
Q3.76562 54.25 11.4219 63.6719
Q18.1094 71.875 29.4375 71.875
Q37.8906 71.875 43.2812 67.1406
Q48.6875 62.4062 49.75 54.0469
M13.875 23.1875
Q13.875 18.6562 15.7969 14.5
Q17.7188 10.3594 21.1875 8.17188
Q24.6562 6 28.4688 6
Q34.0312 6 38.0312 10.4844
Q42.0469 14.9844 42.0469 22.7031
Q42.0469 30.125 38.0781 34.3906
Q34.125 38.6719 28.125 38.6719
Q22.1719 38.6719 18.0156 34.3906
Q13.875 30.125 13.875 23.1875" id="ArialMT-36"/>
      </defs>
      <g transform="translate(48.58908984 371.115625)scale(0.2 -0.2)">
       <use xlink:href="#ArialMT-2d"/>
       <use x="33.30078125" xlink:href="#ArialMT-36"/>
      </g>
     </g>
    </g>
    <g id="xtick_3">
     <g id="line2d_10">
      <path clip-path="url(#p5bee155178)" d="
M106.317 352.8
L106.317 7.2" style="fill:none;stroke:#000000;stroke-dasharray:1.000000,3.000000;stroke-dashoffset:0.0;stroke-width:0.5;"/>
     </g>
     <g id="line2d_11">
      <g>
       <use style="stroke:#000000;stroke-width:0.5;" x="106.316625485" xlink:href="#m93b0483c22" y="352.8"/>
      </g>
     </g>
     <g id="line2d_12">
      <g>
       <use style="stroke:#000000;stroke-width:0.5;" x="106.316625485" xlink:href="#m741efc42ff" y="7.2"/>
      </g>
     </g>
     <g id="text_2">
      <!-- -4 -->
      <defs>
       <path d="
M32.3281 0
L32.3281 17.1406
L1.26562 17.1406
L1.26562 25.2031
L33.9375 71.5781
L41.1094 71.5781
L41.1094 25.2031
L50.7812 25.2031
L50.7812 17.1406
L41.1094 17.1406
L41.1094 0
z

M32.3281 25.2031
L32.3281 57.4688
L9.90625 25.2031
z
" id="ArialMT-34"/>
      </defs>
      <g transform="translate(98.226000485 371.115625)scale(0.2 -0.2)">
       <use xlink:href="#ArialMT-2d"/>
       <use x="33.30078125" xlink:href="#ArialMT-34"/>
      </g>
     </g>
    </g>
    <g id="xtick_4">
     <g id="line2d_13">
      <path clip-path="url(#p5bee155178)" d="
M155.929 352.8
L155.929 7.2" style="fill:none;stroke:#000000;stroke-dasharray:1.000000,3.000000;stroke-dashoffset:0.0;stroke-width:0.5;"/>
     </g>
     <g id="line2d_14">
      <g>
       <use style="stroke:#000000;stroke-width:0.5;" x="155.92853613" xlink:href="#m93b0483c22" y="352.8"/>
      </g>
     </g>
     <g id="line2d_15">
      <g>
       <use style="stroke:#000000;stroke-width:0.5;" x="155.92853613" xlink:href="#m741efc42ff" y="7.2"/>
      </g>
     </g>
     <g id="text_3">
      <!-- -2 -->
      <defs>
       <path d="
M50.3438 8.45312
L50.3438 0
L3.03125 0
Q2.9375 3.17188 4.04688 6.10938
Q5.85938 10.9375 9.82812 15.625
Q13.8125 20.3125 21.3438 26.4688
Q33.0156 36.0312 37.1094 41.625
Q41.2188 47.2188 41.2188 52.2031
Q41.2188 57.4219 37.4688 61
Q33.7344 64.5938 27.7344 64.5938
Q21.3906 64.5938 17.5781 60.7812
Q13.7656 56.9844 13.7188 50.25
L4.6875 51.1719
Q5.60938 61.2812 11.6562 66.5781
Q17.7188 71.875 27.9375 71.875
Q38.2344 71.875 44.2344 66.1562
Q50.25 60.4531 50.25 52
Q50.25 47.7031 48.4844 43.5469
Q46.7344 39.4062 42.6562 34.8125
Q38.5781 30.2188 29.1094 22.2188
Q21.1875 15.5781 18.9375 13.2031
Q16.7031 10.8438 15.2344 8.45312
z
" id="ArialMT-32"/>
      </defs>
      <g transform="translate(147.88166113 371.115625)scale(0.2 -0.2)">
       <use xlink:href="#ArialMT-2d"/>
       <use x="33.30078125" xlink:href="#ArialMT-32"/>
      </g>
     </g>
    </g>
    <g id="xtick_5">
     <g id="line2d_16">
      <path clip-path="url(#p5bee155178)" d="
M205.54 352.8
L205.54 7.2" style="fill:none;stroke:#000000;stroke-dasharray:1.000000,3.000000;stroke-dashoffset:0.0;stroke-width:0.5;"/>
     </g>
     <g id="line2d_17">
      <g>
       <use style="stroke:#000000;stroke-width:0.5;" x="205.540446775" xlink:href="#m93b0483c22" y="352.8"/>
      </g>
     </g>
     <g id="line2d_18">
      <g>
       <use style="stroke:#000000;stroke-width:0.5;" x="205.540446775" xlink:href="#m741efc42ff" y="7.2"/>
      </g>
     </g>
     <g id="text_4">
      <!-- 0 -->
      <defs>
       <path d="
M4.15625 35.2969
Q4.15625 48 6.76562 55.7344
Q9.375 63.4844 14.5156 67.6719
Q19.6719 71.875 27.4844 71.875
Q33.25 71.875 37.5938 69.5469
Q41.9375 67.2344 44.7656 62.8594
Q47.6094 58.5 49.2188 52.2188
Q50.8281 45.9531 50.8281 35.2969
Q50.8281 22.7031 48.2344 14.9688
Q45.6562 7.23438 40.5 3
Q35.3594 -1.21875 27.4844 -1.21875
Q17.1406 -1.21875 11.2344 6.20312
Q4.15625 15.1406 4.15625 35.2969
M13.1875 35.2969
Q13.1875 17.6719 17.3125 11.8281
Q21.4375 6 27.4844 6
Q33.5469 6 37.6719 11.8594
Q41.7969 17.7188 41.7969 35.2969
Q41.7969 52.9844 37.6719 58.7812
Q33.5469 64.5938 27.3906 64.5938
Q21.3438 64.5938 17.7188 59.4688
Q13.1875 52.9375 13.1875 35.2969" id="ArialMT-30"/>
      </defs>
      <g transform="translate(200.873259275 371.115625)scale(0.2 -0.2)">
       <use xlink:href="#ArialMT-30"/>
      </g>
     </g>
    </g>
    <g id="xtick_6">
     <g id="line2d_19">
      <path clip-path="url(#p5bee155178)" d="
M255.152 352.8
L255.152 7.2" style="fill:none;stroke:#000000;stroke-dasharray:1.000000,3.000000;stroke-dashoffset:0.0;stroke-width:0.5;"/>
     </g>
     <g id="line2d_20">
      <g>
       <use style="stroke:#000000;stroke-width:0.5;" x="255.15235742" xlink:href="#m93b0483c22" y="352.8"/>
      </g>
     </g>
     <g id="line2d_21">
      <g>
       <use style="stroke:#000000;stroke-width:0.5;" x="255.15235742" xlink:href="#m741efc42ff" y="7.2"/>
      </g>
     </g>
     <g id="text_5">
      <!-- 2 -->
      <g transform="translate(250.41173242 371.115625)scale(0.2 -0.2)">
       <use xlink:href="#ArialMT-32"/>
      </g>
     </g>
    </g>
    <g id="xtick_7">
     <g id="line2d_22">
      <path clip-path="url(#p5bee155178)" d="
M304.764 352.8
L304.764 7.2" style="fill:none;stroke:#000000;stroke-dasharray:1.000000,3.000000;stroke-dashoffset:0.0;stroke-width:0.5;"/>
     </g>
     <g id="line2d_23">
      <g>
       <use style="stroke:#000000;stroke-width:0.5;" x="304.764268065" xlink:href="#m93b0483c22" y="352.8"/>
      </g>
     </g>
     <g id="line2d_24">
      <g>
       <use style="stroke:#000000;stroke-width:0.5;" x="304.764268065" xlink:href="#m741efc42ff" y="7.2"/>
      </g>
     </g>
     <g id="text_6">
      <!-- 4 -->
      <g transform="translate(299.812705565 371.115625)scale(0.2 -0.2)">
       <use xlink:href="#ArialMT-34"/>
      </g>
     </g>
    </g>
    <g id="xtick_8">
     <g id="line2d_25">
      <path clip-path="url(#p5bee155178)" d="
M354.376 352.8
L354.376 7.2" style="fill:none;stroke:#000000;stroke-dasharray:1.000000,3.000000;stroke-dashoffset:0.0;stroke-width:0.5;"/>
     </g>
     <g id="line2d_26">
      <g>
       <use style="stroke:#000000;stroke-width:0.5;" x="354.37617871" xlink:href="#m93b0483c22" y="352.8"/>
      </g>
     </g>
     <g id="line2d_27">
      <g>
       <use style="stroke:#000000;stroke-width:0.5;" x="354.37617871" xlink:href="#m741efc42ff" y="7.2"/>
      </g>
     </g>
     <g id="text_7">
      <!-- 6 -->
      <g transform="translate(349.64961621 371.115625)scale(0.2 -0.2)">
       <use xlink:href="#ArialMT-36"/>
      </g>
     </g>
    </g>
    <g id="xtick_9">
     <g id="line2d_28">
      <path clip-path="url(#p5bee155178)" d="
M403.988 352.8
L403.988 7.2" style="fill:none;stroke:#000000;stroke-dasharray:1.000000,3.000000;stroke-dashoffset:0.0;stroke-width:0.5;"/>
     </g>
     <g id="line2d_29">
      <g>
       <use style="stroke:#000000;stroke-width:0.5;" x="403.988089355" xlink:href="#m93b0483c22" y="352.8"/>
      </g>
     </g>
     <g id="line2d_30">
      <g>
       <use style="stroke:#000000;stroke-width:0.5;" x="403.988089355" xlink:href="#m741efc42ff" y="7.2"/>
      </g>
     </g>
     <g id="text_8">
      <!-- 8 -->
      <defs>
       <path d="
M17.6719 38.8125
Q12.2031 40.8281 9.5625 44.5312
Q6.9375 48.25 6.9375 53.4219
Q6.9375 61.2344 12.5469 66.5469
Q18.1719 71.875 27.4844 71.875
Q36.8594 71.875 42.5781 66.4219
Q48.2969 60.9844 48.2969 53.1719
Q48.2969 48.1875 45.6719 44.5
Q43.0625 40.8281 37.75 38.8125
Q44.3438 36.6719 47.7812 31.875
Q51.2188 27.0938 51.2188 20.4531
Q51.2188 11.2812 44.7188 5.03125
Q38.2344 -1.21875 27.6406 -1.21875
Q17.0469 -1.21875 10.5469 5.04688
Q4.04688 11.3281 4.04688 20.7031
Q4.04688 27.6875 7.59375 32.3906
Q11.1406 37.1094 17.6719 38.8125
M15.9219 53.7188
Q15.9219 48.6406 19.1875 45.4062
Q22.4688 42.1875 27.6875 42.1875
Q32.7656 42.1875 36.0156 45.375
Q39.2656 48.5781 39.2656 53.2188
Q39.2656 58.0625 35.9062 61.3594
Q32.5625 64.6562 27.5938 64.6562
Q22.5625 64.6562 19.2344 61.4219
Q15.9219 58.2031 15.9219 53.7188
M13.0938 20.6562
Q13.0938 16.8906 14.875 13.375
Q16.6562 9.85938 20.1719 7.92188
Q23.6875 6 27.7344 6
Q34.0312 6 38.125 10.0469
Q42.2344 14.1094 42.2344 20.3594
Q42.2344 26.7031 38.0156 30.8594
Q33.7969 35.0156 27.4375 35.0156
Q21.2344 35.0156 17.1562 30.9062
Q13.0938 26.8125 13.0938 20.6562" id="ArialMT-38"/>
      </defs>
      <g transform="translate(399.270901855 371.115625)scale(0.2 -0.2)">
       <use xlink:href="#ArialMT-38"/>
      </g>
     </g>
    </g>
    <g id="xtick_10">
     <g id="line2d_31">
      <path clip-path="url(#p5bee155178)" d="
M453.6 352.8
L453.6 7.2" style="fill:none;stroke:#000000;stroke-dasharray:1.000000,3.000000;stroke-dashoffset:0.0;stroke-width:0.5;"/>
     </g>
     <g id="line2d_32">
      <g>
       <use style="stroke:#000000;stroke-width:0.5;" x="453.6" xlink:href="#m93b0483c22" y="352.8"/>
      </g>
     </g>
     <g id="line2d_33">
      <g>
       <use style="stroke:#000000;stroke-width:0.5;" x="453.6" xlink:href="#m741efc42ff" y="7.2"/>
      </g>
     </g>
    </g>
    <g id="xtick_11"/>
    <g id="xtick_12">
     <g id="line2d_34">
      <defs>
       <path d="
M0 0
L0 -2" id="m177f7580d0" style="stroke:#000000;stroke-width:0.5;"/>
      </defs>
      <g>
       <use style="stroke:#000000;stroke-width:0.5;" x="56.70471484" xlink:href="#m177f7580d0" y="352.8"/>
      </g>
     </g>
     <g id="line2d_35">
      <defs>
       <path d="
M0 0
L0 2" id="m5284c7e2a0" style="stroke:#000000;stroke-width:0.5;"/>
      </defs>
      <g>
       <use style="stroke:#000000;stroke-width:0.5;" x="56.70471484" xlink:href="#m5284c7e2a0" y="7.2"/>
      </g>
     </g>
    </g>
    <g id="xtick_13">
     <g id="line2d_36">
      <g>
       <use style="stroke:#000000;stroke-width:0.5;" x="106.316625485" xlink:href="#m177f7580d0" y="352.8"/>
      </g>
     </g>
     <g id="line2d_37">
      <g>
       <use style="stroke:#000000;stroke-width:0.5;" x="106.316625485" xlink:href="#m5284c7e2a0" y="7.2"/>
      </g>
     </g>
    </g>
    <g id="xtick_14">
     <g id="line2d_38">
      <g>
       <use style="stroke:#000000;stroke-width:0.5;" x="155.92853613" xlink:href="#m177f7580d0" y="352.8"/>
      </g>
     </g>
     <g id="line2d_39">
      <g>
       <use style="stroke:#000000;stroke-width:0.5;" x="155.92853613" xlink:href="#m5284c7e2a0" y="7.2"/>
      </g>
     </g>
    </g>
    <g id="xtick_15">
     <g id="line2d_40">
      <g>
       <use style="stroke:#000000;stroke-width:0.5;" x="205.540446775" xlink:href="#m177f7580d0" y="352.8"/>
      </g>
     </g>
     <g id="line2d_41">
      <g>
       <use style="stroke:#000000;stroke-width:0.5;" x="205.540446775" xlink:href="#m5284c7e2a0" y="7.2"/>
      </g>
     </g>
    </g>
    <g id="xtick_16">
     <g id="line2d_42">
      <g>
       <use style="stroke:#000000;stroke-width:0.5;" x="255.15235742" xlink:href="#m177f7580d0" y="352.8"/>
      </g>
     </g>
     <g id="line2d_43">
      <g>
       <use style="stroke:#000000;stroke-width:0.5;" x="255.15235742" xlink:href="#m5284c7e2a0" y="7.2"/>
      </g>
     </g>
    </g>
    <g id="xtick_17">
     <g id="line2d_44">
      <g>
       <use style="stroke:#000000;stroke-width:0.5;" x="304.764268065" xlink:href="#m177f7580d0" y="352.8"/>
      </g>
     </g>
     <g id="line2d_45">
      <g>
       <use style="stroke:#000000;stroke-width:0.5;" x="304.764268065" xlink:href="#m5284c7e2a0" y="7.2"/>
      </g>
     </g>
    </g>
    <g id="xtick_18">
     <g id="line2d_46">
      <g>
       <use style="stroke:#000000;stroke-width:0.5;" x="354.37617871" xlink:href="#m177f7580d0" y="352.8"/>
      </g>
     </g>
     <g id="line2d_47">
      <g>
       <use style="stroke:#000000;stroke-width:0.5;" x="354.37617871" xlink:href="#m5284c7e2a0" y="7.2"/>
      </g>
     </g>
    </g>
    <g id="xtick_19">
     <g id="line2d_48">
      <g>
       <use style="stroke:#000000;stroke-width:0.5;" x="403.988089355" xlink:href="#m177f7580d0" y="352.8"/>
      </g>
     </g>
     <g id="line2d_49">
      <g>
       <use style="stroke:#000000;stroke-width:0.5;" x="403.988089355" xlink:href="#m5284c7e2a0" y="7.2"/>
      </g>
     </g>
    </g>
    <g id="xtick_20">
     <g id="line2d_50">
      <g>
       <use style="stroke:#000000;stroke-width:0.5;" x="453.6" xlink:href="#m177f7580d0" y="352.8"/>
      </g>
     </g>
     <g id="line2d_51">
      <g>
       <use style="stroke:#000000;stroke-width:0.5;" x="453.6" xlink:href="#m5284c7e2a0" y="7.2"/>
      </g>
     </g>
    </g>
    <g id="text_9">
     <!-- log10 of Df -->
     <defs>
      <path d="
M4.98438 -4.29688
L13.5312 -5.5625
Q14.0625 -9.51562 16.5 -11.3281
Q19.7812 -13.7656 25.4375 -13.7656
Q31.5469 -13.7656 34.8594 -11.3281
Q38.1875 -8.89062 39.3594 -4.5
Q40.0469 -1.8125 39.9844 6.78125
Q34.2344 0 25.6406 0
Q14.9375 0 9.07812 7.71875
Q3.21875 15.4375 3.21875 26.2188
Q3.21875 33.6406 5.90625 39.9062
Q8.59375 46.1875 13.6875 49.6094
Q18.7969 53.0312 25.6875 53.0312
Q34.8594 53.0312 40.8281 45.6094
L40.8281 51.8594
L48.9219 51.8594
L48.9219 7.03125
Q48.9219 -5.07812 46.4531 -10.125
Q44 -15.1875 38.6406 -18.1094
Q33.2969 -21.0469 25.4844 -21.0469
Q16.2188 -21.0469 10.5 -16.875
Q4.78125 -12.7031 4.98438 -4.29688
M12.25 26.8594
Q12.25 16.6562 16.2969 11.9688
Q20.3594 7.28125 26.4688 7.28125
Q32.5156 7.28125 36.6094 11.9375
Q40.7188 16.6094 40.7188 26.5625
Q40.7188 36.0781 36.5 40.9062
Q32.2812 45.75 26.3125 45.75
Q20.4531 45.75 16.3438 40.9844
Q12.25 36.2344 12.25 26.8594" id="ArialMT-67"/>
      <path d="
M8.6875 0
L8.6875 45.0156
L0.921875 45.0156
L0.921875 51.8594
L8.6875 51.8594
L8.6875 57.375
Q8.6875 62.5938 9.625 65.1406
Q10.8906 68.5625 14.0781 70.6719
Q17.2812 72.7969 23.0469 72.7969
Q26.7656 72.7969 31.25 71.9219
L29.9375 64.2656
Q27.2031 64.75 24.75 64.75
Q20.75 64.75 19.0938 63.0312
Q17.4375 61.3281 17.4375 56.6406
L17.4375 51.8594
L27.5469 51.8594
L27.5469 45.0156
L17.4375 45.0156
L17.4375 0
z
" id="ArialMT-66"/>
      <path d="
M7.71875 0
L7.71875 71.5781
L32.375 71.5781
Q40.7188 71.5781 45.125 70.5625
Q51.2656 69.1406 55.6094 65.4375
Q61.2812 60.6406 64.0781 53.1875
Q66.8906 45.75 66.8906 36.1875
Q66.8906 28.0312 64.9844 21.7344
Q63.0938 15.4375 60.1094 11.2969
Q57.125 7.17188 53.5781 4.79688
Q50.0469 2.4375 45.0469 1.21875
Q40.0469 0 33.5469 0
z

M17.1875 8.45312
L32.4688 8.45312
Q39.5469 8.45312 43.5781 9.76562
Q47.6094 11.0781 50 13.4844
Q53.375 16.8438 55.25 22.5312
Q57.125 28.2188 57.125 36.3281
Q57.125 47.5625 53.4375 53.5938
Q49.75 59.625 44.4844 61.6719
Q40.6719 63.1406 32.2344 63.1406
L17.1875 63.1406
z
" id="ArialMT-44"/>
      <path d="
M6.39062 0
L6.39062 71.5781
L15.1875 71.5781
L15.1875 0
z
" id="ArialMT-6c"/>
      <path d="
M3.32812 25.9219
Q3.32812 40.3281 11.3281 47.2656
Q18.0156 53.0312 27.6406 53.0312
Q38.3281 53.0312 45.1094 46.0156
Q51.9062 39.0156 51.9062 26.6562
Q51.9062 16.6562 48.9062 10.9062
Q45.9062 5.17188 40.1562 2
Q34.4219 -1.17188 27.6406 -1.17188
Q16.75 -1.17188 10.0312 5.8125
Q3.32812 12.7969 3.32812 25.9219
M12.3594 25.9219
Q12.3594 15.9688 16.7031 11.0156
Q21.0469 6.0625 27.6406 6.0625
Q34.1875 6.0625 38.5312 11.0312
Q42.875 16.0156 42.875 26.2188
Q42.875 35.8438 38.5 40.7969
Q34.125 45.75 27.6406 45.75
Q21.0469 45.75 16.7031 40.8125
Q12.3594 35.8906 12.3594 25.9219" id="ArialMT-6f"/>
      <path d="
M37.25 0
L28.4688 0
L28.4688 56
Q25.2969 52.9844 20.1406 49.9531
Q14.9844 46.9219 10.8906 45.4062
L10.8906 53.9062
Q18.2656 57.375 23.7812 62.2969
Q29.2969 67.2344 31.5938 71.875
L37.25 71.875
z
" id="ArialMT-31"/>
      <path id="ArialMT-20"/>
     </defs>
     <g transform="translate(181.6921875 394.65)scale(0.2 -0.2)">
      <use xlink:href="#ArialMT-6c"/>
      <use x="22.216796875" xlink:href="#ArialMT-6f"/>
      <use x="77.83203125" xlink:href="#ArialMT-67"/>
      <use x="133.447265625" xlink:href="#ArialMT-31"/>
      <use x="189.0625" xlink:href="#ArialMT-30"/>
      <use x="244.677734375" xlink:href="#ArialMT-20"/>
      <use x="272.4609375" xlink:href="#ArialMT-6f"/>
      <use x="328.076171875" xlink:href="#ArialMT-66"/>
      <use x="355.859375" xlink:href="#ArialMT-20"/>
      <use x="383.642578125" xlink:href="#ArialMT-44"/>
      <use x="455.859375" xlink:href="#ArialMT-66"/>
     </g>
    </g>
   </g>
   <g id="matplotlib.axis_2">
    <g id="ytick_1">
     <g id="line2d_52">
      <path clip-path="url(#p5bee155178)" d="
M7.2 352.8
L453.6 352.8" style="fill:none;stroke:#000000;stroke-dasharray:1.000000,3.000000;stroke-dashoffset:0.0;stroke-width:0.5;"/>
     </g>
     <g id="line2d_53">
      <defs>
       <path d="
M0 0
L4 0" id="m728421d6d4" style="stroke:#000000;stroke-width:0.5;"/>
      </defs>
      <g>
       <use style="stroke:#000000;stroke-width:0.5;" x="7.2" xlink:href="#m728421d6d4" y="352.8"/>
      </g>
     </g>
     <g id="line2d_54">
      <defs>
       <path d="
M0 0
L-4 0" id="mcb0005524f" style="stroke:#000000;stroke-width:0.5;"/>
      </defs>
      <g>
       <use style="stroke:#000000;stroke-width:0.5;" x="453.6" xlink:href="#mcb0005524f" y="352.8"/>
      </g>
     </g>
    </g>
    <g id="ytick_2">
     <g id="line2d_55">
      <path clip-path="url(#p5bee155178)" d="
M7.2 284.364
L453.6 284.364" style="fill:none;stroke:#000000;stroke-dasharray:1.000000,3.000000;stroke-dashoffset:0.0;stroke-width:0.5;"/>
     </g>
     <g id="line2d_56">
      <g>
       <use style="stroke:#000000;stroke-width:0.5;" x="7.2" xlink:href="#m728421d6d4" y="284.364356436"/>
      </g>
     </g>
     <g id="line2d_57">
      <g>
       <use style="stroke:#000000;stroke-width:0.5;" x="453.6" xlink:href="#mcb0005524f" y="284.364356436"/>
      </g>
     </g>
    </g>
    <g id="ytick_3">
     <g id="line2d_58">
      <path clip-path="url(#p5bee155178)" d="
M7.2 215.929
L453.6 215.929" style="fill:none;stroke:#000000;stroke-dasharray:1.000000,3.000000;stroke-dashoffset:0.0;stroke-width:0.5;"/>
     </g>
     <g id="line2d_59">
      <g>
       <use style="stroke:#000000;stroke-width:0.5;" x="7.2" xlink:href="#m728421d6d4" y="215.928712871"/>
      </g>
     </g>
     <g id="line2d_60">
      <g>
       <use style="stroke:#000000;stroke-width:0.5;" x="453.6" xlink:href="#mcb0005524f" y="215.928712871"/>
      </g>
     </g>
    </g>
    <g id="ytick_4">
     <g id="line2d_61">
      <path clip-path="url(#p5bee155178)" d="
M7.2 147.493
L453.6 147.493" style="fill:none;stroke:#000000;stroke-dasharray:1.000000,3.000000;stroke-dashoffset:0.0;stroke-width:0.5;"/>
     </g>
     <g id="line2d_62">
      <g>
       <use style="stroke:#000000;stroke-width:0.5;" x="7.2" xlink:href="#m728421d6d4" y="147.493069307"/>
      </g>
     </g>
     <g id="line2d_63">
      <g>
       <use style="stroke:#000000;stroke-width:0.5;" x="453.6" xlink:href="#mcb0005524f" y="147.493069307"/>
      </g>
     </g>
    </g>
    <g id="ytick_5">
     <g id="line2d_64">
      <path clip-path="url(#p5bee155178)" d="
M7.2 79.0574
L453.6 79.0574" style="fill:none;stroke:#000000;stroke-dasharray:1.000000,3.000000;stroke-dashoffset:0.0;stroke-width:0.5;"/>
     </g>
     <g id="line2d_65">
      <g>
       <use style="stroke:#000000;stroke-width:0.5;" x="7.2" xlink:href="#m728421d6d4" y="79.0574257426"/>
      </g>
     </g>
     <g id="line2d_66">
      <g>
       <use style="stroke:#000000;stroke-width:0.5;" x="453.6" xlink:href="#mcb0005524f" y="79.0574257426"/>
      </g>
     </g>
    </g>
    <g id="ytick_6">
     <g id="line2d_67">
      <path clip-path="url(#p5bee155178)" d="
M7.2 10.6218
L453.6 10.6218" style="fill:none;stroke:#000000;stroke-dasharray:1.000000,3.000000;stroke-dashoffset:0.0;stroke-width:0.5;"/>
     </g>
     <g id="line2d_68">
      <g>
       <use style="stroke:#000000;stroke-width:0.5;" x="7.2" xlink:href="#m728421d6d4" y="10.6217821782"/>
      </g>
     </g>
     <g id="line2d_69">
      <g>
       <use style="stroke:#000000;stroke-width:0.5;" x="453.6" xlink:href="#mcb0005524f" y="10.6217821782"/>
      </g>
     </g>
    </g>
   </g>
   <g id="patch_3">
    <path d="
M7.2 7.2
L453.6 7.2" style="fill:none;stroke:#000000;"/>
   </g>
   <g id="patch_4">
    <path d="
M453.6 352.8
L453.6 7.2" style="fill:none;stroke:#000000;"/>
   </g>
   <g id="patch_5">
    <path d="
M7.2 352.8
L453.6 352.8" style="fill:none;stroke:#000000;"/>
   </g>
   <g id="patch_6">
    <path d="
M7.2 352.8
L7.2 7.2" style="fill:none;stroke:#000000;"/>
   </g>
   <g id="text_10">
    <!-- {f10-f14}, 20-D -->
    <defs>
     <path d="
M30.5625 29.8906
L30.5625 21.9219
Q26.8125 21.8281 24.4375 19.875
Q22.0781 17.9219 21.2969 14.5781
Q20.5156 11.2344 20.4531 3.07812
Q20.4062 -5.07812 20.1719 -7.67188
Q19.7344 -11.8125 18.5312 -14.2812
Q17.3281 -16.75 15.5625 -18.2344
Q13.8125 -19.7344 11.0781 -20.5156
Q9.23438 -21.0469 5.03125 -21.0469
L2.29688 -21.0469
L2.29688 -13.375
L3.8125 -13.375
Q8.89062 -13.375 10.5469 -11.5469
Q12.2031 -9.71875 12.2031 -3.32812
Q12.2031 8.89062 12.6406 12.1562
Q13.4219 17.5781 15.7656 20.8281
Q18.1094 24.0781 22.4062 25.875
Q16.7969 28.5625 14.5 32.9844
Q12.2031 37.4062 12.2031 47.9062
Q12.2031 57.4219 11.9688 59.2812
Q11.625 62.5469 10.0312 63.8438
Q8.45312 65.1406 3.8125 65.1406
L2.29688 65.1406
L2.29688 72.7969
L5.03125 72.7969
Q9.8125 72.7969 11.9688 72.0156
Q15.0938 70.9531 17.1406 68.4062
Q19.1875 65.875 19.7969 62.0156
Q20.4062 58.1562 20.4531 49.3594
Q20.5156 40.5781 21.2969 37.2344
Q22.0781 33.8906 24.4375 31.9375
Q26.8125 29.9844 30.5625 29.8906" id="ArialMT-7d"/>
     <path d="
M8.89062 0
L8.89062 10.0156
L18.8906 10.0156
L18.8906 0
Q18.8906 -5.51562 16.9375 -8.90625
Q14.9844 -12.3125 10.75 -14.1562
L8.29688 -10.4062
Q11.0781 -9.1875 12.3906 -6.8125
Q13.7188 -4.4375 13.875 0
z
" id="ArialMT-2c"/>
     <path d="
M2.78125 29.8906
Q6.54688 29.9844 8.90625 31.9062
Q11.2812 33.8438 12.0625 37.2031
Q12.8438 40.5781 12.8906 48.7344
Q12.9375 56.8906 13.1875 59.4688
Q13.625 63.5781 14.8125 66.0625
Q16.0156 68.5625 17.7656 70.0469
Q19.5312 71.5312 22.2656 72.3125
Q24.125 72.7969 28.3281 72.7969
L31.0625 72.7969
L31.0625 65.1406
L29.5469 65.1406
Q24.4688 65.1406 22.7969 63.2969
Q21.1406 61.4688 21.1406 55.125
Q21.1406 42.3281 20.6094 38.9688
Q19.7344 33.7344 17.6094 30.9062
Q15.4844 28.0781 10.9375 25.875
Q16.3125 23.6406 18.7188 19.0156
Q21.1406 14.4062 21.1406 3.90625
Q21.1406 -5.60938 21.3438 -7.42188
Q21.7344 -10.75 23.3125 -12.0625
Q24.9062 -13.375 29.5469 -13.375
L31.0625 -13.375
L31.0625 -21.0469
L28.3281 -21.0469
Q23.5312 -21.0469 21.3906 -20.2656
Q18.2656 -19.1406 16.2031 -16.625
Q14.1562 -14.1094 13.5469 -10.25
Q12.9375 -6.39062 12.8906 2.39062
Q12.8438 11.1875 12.0625 14.5469
Q11.2812 17.9219 8.90625 19.875
Q6.54688 21.8281 2.78125 21.9219
z
" id="ArialMT-7b"/>
    </defs>
    <g transform="translate(315.656375 345.888)scale(0.2 -0.2)">
     <use xlink:href="#ArialMT-7b"/>
     <use x="33.3984375" xlink:href="#ArialMT-66"/>
     <use x="61.181640625" xlink:href="#ArialMT-31"/>
     <use x="116.796875" xlink:href="#ArialMT-30"/>
     <use x="172.412109375" xlink:href="#ArialMT-2d"/>
     <use x="205.712890625" xlink:href="#ArialMT-66"/>
     <use x="233.49609375" xlink:href="#ArialMT-31"/>
     <use x="289.111328125" xlink:href="#ArialMT-34"/>
     <use x="344.7265625" xlink:href="#ArialMT-7d"/>
     <use x="378.125" xlink:href="#ArialMT-2c"/>
     <use x="405.908203125" xlink:href="#ArialMT-20"/>
     <use x="433.69140625" xlink:href="#ArialMT-32"/>
     <use x="489.306640625" xlink:href="#ArialMT-30"/>
     <use x="544.921875" xlink:href="#ArialMT-2d"/>
     <use x="578.22265625" xlink:href="#ArialMT-44"/>
    </g>
   </g>
   <g id="text_11">
    <!-- v2.0.1 -->
    <defs>
     <path d="
M21 0
L1.26562 51.8594
L10.5469 51.8594
L21.6875 20.7969
Q23.4844 15.7656 25 10.3594
Q26.1719 14.4531 28.2656 20.2188
L39.7969 51.8594
L48.8281 51.8594
L29.2031 0
z
" id="ArialMT-76"/>
     <path d="
M9.07812 0
L9.07812 10.0156
L19.0938 10.0156
L19.0938 0
z
" id="ArialMT-2e"/>
    </defs>
    <g style="fill:#808080;" transform="translate(217.76171875 347.3565)scale(0.1 -0.1)">
     <use xlink:href="#ArialMT-76"/>
     <use x="50.0" xlink:href="#ArialMT-32"/>
     <use x="105.615234375" xlink:href="#ArialMT-2e"/>
     <use x="133.3984375" xlink:href="#ArialMT-30"/>
     <use x="189.013671875" xlink:href="#ArialMT-2e"/>
     <use x="216.796875" xlink:href="#ArialMT-31"/>
    </g>
   </g>
  </g>
 </g>
 <defs>
  <clipPath id="p5bee155178">
   <rect height="345.6" width="446.4" x="7.2" y="7.2"/>
  </clipPath>
 </defs>
</svg>
