<?xml version="1.0" encoding="utf-8" standalone="no"?>
<!DOCTYPE svg PUBLIC "-//W3C//DTD SVG 1.1//EN"
  "http://www.w3.org/Graphics/SVG/1.1/DTD/svg11.dtd">
<!-- Created with matplotlib (http://matplotlib.org/) -->
<svg height="406pt" version="1.1" viewBox="0 0 460 406" width="460pt" xmlns="http://www.w3.org/2000/svg" xmlns:xlink="http://www.w3.org/1999/xlink">
 <defs>
  <style type="text/css">
*{stroke-linecap:butt;stroke-linejoin:round;}
  </style>
 </defs>
 <g id="figure_1">
  <g id="patch_1">
   <path d="
M0 406.059
L460.8 406.059
L460.8 0
L0 0
z
" style="fill:#ffffff;"/>
  </g>
  <g id="axes_1">
   <g id="patch_2">
    <path d="
M7.2 352.8
L453.6 352.8
L453.6 7.2
L7.2 7.2
z
" style="fill:#ffffff;"/>
   </g>
   <g id="line2d_1">
    <path clip-path="url(#p5bee155178)" d="
M-1 338.543
L163.838 338.543
L163.838 337.592
L169.893 337.592
L169.893 336.642
L171.547 336.642
L171.547 335.691
L172.396 335.691
L172.396 334.741
L173.546 334.741
L173.546 333.79
L175.157 333.79
L175.157 332.84
L176.65 332.84
L176.65 331.889
L178.757 331.889
L178.757 330.939
L179.996 330.939
L179.996 329.988
L180.256 329.988
L180.272 328.087
L181.066 328.087
L181.066 327.137
L181.584 327.137
L181.687 325.236
L181.845 325.236
L181.845 324.285
L185.065 324.285
L185.065 323.335
L186.349 323.335
L186.352 321.434
L186.667 321.434
L186.667 320.483
L186.951 320.483
L186.951 319.533
L187.585 319.533
L187.585 318.582
L187.923 318.582
L187.923 317.632
L188.381 317.632
L188.381 316.681
L188.723 316.681
L188.723 315.731
L189.546 315.731
L189.546 314.78
L189.677 314.78
L189.717 312.879
L190.231 312.879
L190.231 311.929
L192.06 311.929
L192.06 310.978
L192.763 310.978
L192.763 310.028
L197.355 310.028
L197.355 309.077
L198.315 309.077
L198.315 308.127
L198.575 308.127
L198.575 307.176
L199.203 307.176
L199.313 305.275
L200.119 305.275
L200.119 304.325
L202.652 304.325
L202.652 303.374
L203.623 303.374
L203.623 302.424
L203.836 302.424
L203.836 301.473
L204.096 301.473
L204.096 300.523
L204.381 300.523
L204.381 299.572
L204.721 299.572
L204.721 298.622
L205.528 298.622
L205.528 297.671
L205.686 297.671
L205.765 295.77
L206.041 295.77
L206.041 294.82
L206.274 294.82
L206.385 292.919
L206.484 292.919
L206.484 291.968
L207.107 291.968
L207.107 291.018
L207.707 291.018
L207.788 289.117
L207.926 289.117
L207.926 288.166
L208.229 288.166
L208.229 287.216
L208.637 287.216
L208.637 286.265
L208.996 286.265
L208.996 285.315
L209.223 285.315
L209.223 284.364
L209.771 284.364
L209.771 283.414
L210.315 283.414
L210.315 282.463
L211 282.463
L211.045 279.612
L211.241 279.612
L211.298 277.711
L211.733 277.711
L211.843 275.81
L212.08 275.81
L212.08 274.859
L212.312 274.859
L212.404 272.008
L212.521 272.008
L212.593 270.107
L212.643 270.107
L212.74 266.305
L212.978 266.305
L213.08 263.453
L213.096 263.453
L213.11 261.552
L213.511 261.552
L213.575 257.75
L213.804 257.75
L213.804 256.8
L214.007 256.8
L214.113 252.998
L214.169 252.998
L214.194 251.097
L214.485 251.097
L214.485 250.147
L214.633 250.147
L214.683 248.246
L214.752 248.246
L214.775 246.345
L214.908 246.345
L214.966 244.444
L215.063 244.444
L215.11 242.543
L215.217 242.543
L215.229 240.642
L215.411 240.642
L215.52 238.741
L215.682 238.741
L215.732 236.84
L215.868 236.84
L215.959 233.988
L216.115 233.988
L216.173 231.137
L216.263 231.137
L216.263 230.186
L216.533 230.186
L216.612 228.285
L216.761 228.285
L216.761 227.335
L216.966 227.335
L216.975 225.434
L217.093 225.434
L217.093 224.483
L217.575 224.483
L217.575 223.533
L217.94 223.533
L217.94 222.582
L218.115 222.582
L218.115 221.632
L218.511 221.632
L218.511 220.681
L219.011 220.681
L219.103 218.78
L219.28 218.78
L219.385 216.879
L220.046 216.879
L220.052 214.978
L220.257 214.978
L220.257 214.028
L221.774 214.028
L221.774 213.077
L222.201 213.077
L222.201 212.127
L222.429 212.127
L222.429 211.176
L222.732 211.176
L222.831 209.275
L222.85 209.275
L222.949 207.374
L223.089 207.374
L223.16 204.523
L223.31 204.523
L223.31 203.572
L223.883 203.572
L223.883 202.622
L224.338 202.622
L224.338 201.671
L224.608 201.671
L224.618 199.77
L224.889 199.77
L224.889 198.82
L225.147 198.82
L225.23 195.968
L225.548 195.968
L225.583 194.067
L225.94 194.067
L225.966 192.166
L226.074 192.166
L226.142 190.265
L226.34 190.265
L226.358 188.364
L226.56 188.364
L226.602 186.463
L226.774 186.463
L226.774 185.513
L226.916 185.513
L226.916 184.562
L227.032 184.562
L227.032 183.612
L227.163 183.612
L227.227 180.76
L227.575 180.76
L227.677 178.859
L227.915 178.859
L227.915 177.909
L228.256 177.909
L228.259 176.008
L228.529 176.008
L228.529 175.057
L228.812 175.057
L228.812 174.107
L229.419 174.107
L229.419 173.156
L229.573 173.156
L229.573 172.206
L229.737 172.206
L229.819 170.305
L229.943 170.305
L229.943 169.354
L230.623 169.354
L230.623 168.404
L230.971 168.404
L231.003 165.552
L231.15 165.552
L231.15 164.602
L231.309 164.602
L231.383 161.75
L231.473 161.75
L231.543 159.85
L232.158 159.85
L232.158 158.899
L232.375 158.899
L232.421 156.998
L232.745 156.998
L232.845 152.246
L232.894 152.246
L232.894 151.295
L233.235 151.295
L233.235 150.345
L233.59 150.345
L233.59 149.394
L233.92 149.394
L233.92 148.444
L234.075 148.444
L234.175 146.543
L234.6 146.543
L234.666 144.642
L234.84 144.642
L234.951 141.79
L235.312 141.79
L235.312 140.84
L235.516 140.84
L235.516 139.889
L235.759 139.889
L235.759 138.939
L235.885 138.939
L235.885 137.988
L236.137 137.988
L236.137 137.038
L236.526 137.038
L236.526 136.087
L236.77 136.087
L236.773 133.236
L237.241 133.236
L237.241 132.285
L237.359 132.285
L237.359 131.335
L237.498 131.335
L237.574 128.483
L237.707 128.483
L237.707 127.533
L237.864 127.533
L237.937 125.632
L238.421 125.632
L238.421 124.681
L238.688 124.681
L238.762 122.78
L238.83 122.78
L238.83 121.83
L239.024 121.83
L239.024 120.879
L239.17 120.879
L239.17 119.929
L239.434 119.929
L239.501 118.028
L239.841 118.028
L239.86 115.176
L240.062 115.176
L240.062 114.226
L240.256 114.226
L240.256 113.275
L240.378 113.275
L240.378 112.325
L240.542 112.325
L240.542 111.374
L240.684 111.374
L240.684 110.424
L240.862 110.424
L240.862 109.473
L241.036 109.473
L241.081 106.622
L241.249 106.622
L241.31 103.77
L241.568 103.77
L241.632 101.869
L241.686 101.869
L241.782 98.0673
L241.908 98.0673
L241.981 96.1663
L242.025 96.1663
L242.025 95.2158
L242.596 95.2158
L242.681 93.3149
L242.787 93.3149
L242.787 92.3644
L242.954 92.3644
L242.954 91.4139
L243.253 91.4139
L243.253 90.4634
L243.728 90.4634
L243.806 87.6119
L244.047 87.6119
L244.047 86.6614
L244.225 86.6614
L244.225 85.7109
L244.474 85.7109
L244.474 84.7604
L244.591 84.7604
L244.591 83.8099
L244.818 83.8099
L244.886 81.9089
L245.181 81.9089
L245.181 80.9584
L245.416 80.9584
L245.445 79.0574
L245.684 79.0574
L245.684 78.1069
L246.057 78.1069
L246.063 76.2059
L246.318 76.2059
L246.318 75.2554
L247.228 75.2554
L247.327 73.3545
L247.955 73.3545
L248.046 71.4535
L248.569 71.4535
L248.569 70.503
L249.276 70.503
L249.276 69.5525
L249.726 69.5525
L249.726 68.602
L250.045 68.602
L250.045 67.6515
L250.289 67.6515
L250.289 66.701
L250.455 66.701
L250.455 65.7505
L250.867 65.7505
L250.867 64.8
L251.354 64.8
L251.362 62.899
L251.805 62.899
L251.884 60.998
L252.133 60.998
L252.133 60.0475
L252.767 60.0475
L252.835 58.1465
L253.722 58.1465
L253.722 57.196
L254.902 57.196
L254.902 56.2455
L256.095 56.2455
L256.095 55.295
L256.873 55.295
L256.873 54.3446
L260.716 54.3446
L260.716 53.3941
L270.546 53.3941
L270.546 52.4436
L270.866 52.4436
L270.866 51.4931
L271.277 51.4931
L271.277 50.5426
L272.057 50.5426
L272.057 49.5921
L275.187 49.5921
L275.187 48.6416
L277.069 48.6416
L277.069 47.6911
L281.478 47.6911
L281.478 46.7406
L281.644 46.7406
L281.644 45.7901
L283.24 45.7901
L283.24 44.8396
L283.949 44.8396
L283.949 43.8891
L286.038 43.8891
L286.038 42.9386
L287.847 42.9386
L287.847 41.9881
L289.502 41.9881
L289.502 41.0376
L289.825 41.0376
L289.825 40.0871
L290.587 40.0871
L290.587 39.1366
L290.826 39.1366
L290.826 38.1861
L290.972 38.1861
L290.972 37.2356
L291.908 37.2356
L291.908 36.2851
L293.65 36.2851
L293.65 35.3347
L293.888 35.3347
L293.888 34.3842
L295.569 34.3842
L295.569 33.4337
L296.703 33.4337
L296.703 32.4832
L297.796 32.4832
L297.845 30.5822
L302.55 30.5822
L302.55 29.6317
L304.536 29.6317
L304.536 28.6812
L305.132 28.6812
L305.132 27.7307
L306.805 27.7307
L306.805 26.7802
L308.286 26.7802
L308.384 24.8792
L309.975 24.8792
L309.975 23.9287
L321.49 23.9287
L321.49 22.9782
L322.387 22.9782
L322.387 22.0277
L323.417 22.0277
L323.417 21.0772
L324.706 21.0772
L324.706 20.1267
L325.79 20.1267
L325.79 19.1762
L329.831 19.1762
L329.831 18.2257
L331.881 18.2257
L331.881 17.2752
L332.032 17.2752
L332.119 15.3743
L333.423 15.3743
L333.423 14.4238
L336.468 14.4238
L336.468 13.4733
L339.008 13.4733
L339.008 12.5228
L343.015 12.5228
L343.015 11.5723
L343.329 11.5723
L343.329 10.6218
L343.329 10.6218
L453.6 10.6218
L453.6 10.6218" style="fill:none;stroke:#ff0000;stroke-linecap:square;stroke-width:3.0;"/>
   </g>
   <g id="line2d_2">
    <path clip-path="url(#p5bee155178)" d="
M214.366 352.8
L214.366 351.85
L225.259 351.85
L225.259 350.899
L226.34 350.899
L226.34 349.949
L227.593 349.949
L227.593 348.998
L228.113 348.998
L228.212 347.097
L230.141 347.097
L230.141 346.147
L230.398 346.147
L230.398 345.196
L231.088 345.196
L231.088 344.246
L231.234 344.246
L231.272 342.345
L231.499 342.345
L231.499 341.394
L231.951 341.394
L232.039 339.493
L232.251 339.493
L232.251 338.543
L232.82 338.543
L232.82 337.592
L233.213 337.592
L233.237 335.691
L233.502 335.691
L233.502 334.741
L234.557 334.741
L234.653 332.84
L234.745 332.84
L234.775 330.939
L235.331 330.939
L235.331 329.988
L235.736 329.988
L235.823 326.186
L236.375 326.186
L236.375 325.236
L236.7 325.236
L236.735 323.335
L237.165 323.335
L237.165 322.384
L237.465 322.384
L237.465 321.434
L237.615 321.434
L237.717 319.533
L238.024 319.533
L238.069 317.632
L238.331 317.632
L238.331 316.681
L238.792 316.681
L238.792 315.731
L238.925 315.731
L238.925 314.78
L239.105 314.78
L239.176 311.929
L239.315 311.929
L239.315 310.978
L239.641 310.978
L239.641 310.028
L239.754 310.028
L239.754 309.077
L239.889 309.077
L239.906 307.176
L240.123 307.176
L240.133 305.275
L240.413 305.275
L240.413 304.325
L240.891 304.325
L240.891 303.374
L241.232 303.374
L241.232 302.424
L241.511 302.424
L241.511 301.473
L242.135 301.473
L242.235 299.572
L242.391 299.572
L242.431 297.671
L242.644 297.671
L242.7 295.77
L242.843 295.77
L242.843 294.82
L243.202 294.82
L243.274 292.919
L243.706 292.919
L243.706 291.968
L243.891 291.968
L243.891 291.018
L244.136 291.018
L244.136 290.067
L244.48 290.067
L244.513 288.166
L244.667 288.166
L244.77 286.265
L245.042 286.265
L245.067 284.364
L245.407 284.364
L245.407 283.414
L245.67 283.414
L245.708 281.513
L246.185 281.513
L246.185 280.562
L246.513 280.562
L246.513 279.612
L247.17 279.612
L247.17 278.661
L247.328 278.661
L247.328 277.711
L247.938 277.711
L248.034 275.81
L248.077 275.81
L248.16 273.909
L248.22 273.909
L248.31 271.057
L248.396 271.057
L248.396 270.107
L248.652 270.107
L248.757 268.206
L248.911 268.206
L248.911 267.255
L249.088 267.255
L249.088 266.305
L249.401 266.305
L249.492 264.404
L249.611 264.404
L249.611 263.453
L249.734 263.453
L249.781 261.552
L249.915 261.552
L249.915 260.602
L250.04 260.602
L250.119 257.75
L250.379 257.75
L250.379 256.8
L250.511 256.8
L250.581 254.899
L250.684 254.899
L250.684 253.949
L250.819 253.949
L250.897 251.097
L251.002 251.097
L251.099 248.246
L251.119 248.246
L251.119 247.295
L251.306 247.295
L251.407 245.394
L251.477 245.394
L251.562 243.493
L251.651 243.493
L251.757 239.691
L252.106 239.691
L252.106 238.741
L252.266 238.741
L252.3 236.84
L252.392 236.84
L252.483 233.988
L252.512 233.988
L252.534 231.137
L252.719 231.137
L252.809 228.285
L253.046 228.285
L253.124 225.434
L253.186 225.434
L253.288 223.533
L253.343 223.533
L253.343 222.582
L253.528 222.582
L253.528 221.632
L253.784 221.632
L253.821 219.731
L253.929 219.731
L253.929 218.78
L254.229 218.78
L254.229 217.83
L254.702 217.83
L254.702 216.879
L255.066 216.879
L255.096 214.978
L255.579 214.978
L255.624 213.077
L255.712 213.077
L255.712 212.127
L255.988 212.127
L256.064 210.226
L256.161 210.226
L256.248 208.325
L256.857 208.325
L256.873 205.473
L256.985 205.473
L256.985 204.523
L257.431 204.523
L257.499 202.622
L257.605 202.622
L257.605 201.671
L257.779 201.671
L257.829 198.82
L258.16 198.82
L258.16 197.869
L258.284 197.869
L258.359 195.968
L258.597 195.968
L258.625 194.067
L258.732 194.067
L258.732 193.117
L258.929 193.117
L258.929 192.166
L259.077 192.166
L259.185 189.315
L259.368 189.315
L259.429 186.463
L259.592 186.463
L259.592 185.513
L259.892 185.513
L259.904 183.612
L260.202 183.612
L260.202 182.661
L260.96 182.661
L260.96 181.711
L261.083 181.711
L261.083 180.76
L261.318 180.76
L261.328 178.859
L261.622 178.859
L261.622 177.909
L262.279 177.909
L262.281 176.008
L262.505 176.008
L262.53 174.107
L262.714 174.107
L262.765 172.206
L263.372 172.206
L263.418 170.305
L264.187 170.305
L264.202 168.404
L264.363 168.404
L264.363 167.453
L265.304 167.453
L265.304 166.503
L265.419 166.503
L265.419 165.552
L266.734 165.552
L266.765 163.651
L266.955 163.651
L266.955 162.701
L267.217 162.701
L267.217 161.75
L267.567 161.75
L267.567 160.8
L268.062 160.8
L268.062 159.85
L268.296 159.85
L268.296 158.899
L268.45 158.899
L268.45 157.949
L269.097 157.949
L269.097 156.998
L269.981 156.998
L269.994 155.097
L270.14 155.097
L270.14 154.147
L270.52 154.147
L270.621 152.246
L270.874 152.246
L270.874 151.295
L271.149 151.295
L271.149 150.345
L271.291 150.345
L271.291 149.394
L271.446 149.394
L271.556 147.493
L271.633 147.493
L271.633 146.543
L272.652 146.543
L272.652 145.592
L273.528 145.592
L273.528 144.642
L275.027 144.642
L275.027 143.691
L275.261 143.691
L275.261 142.741
L275.669 142.741
L275.669 141.79
L275.891 141.79
L275.891 140.84
L276.069 140.84
L276.069 139.889
L276.819 139.889
L276.909 137.988
L278.697 137.988
L278.697 137.038
L279.087 137.038
L279.087 136.087
L279.295 136.087
L279.295 135.137
L280.562 135.137
L280.562 134.186
L281.182 134.186
L281.188 132.285
L281.699 132.285
L281.792 130.384
L282.204 130.384
L282.204 129.434
L282.598 129.434
L282.598 128.483
L283.143 128.483
L283.143 127.533
L283.593 127.533
L283.593 126.582
L283.763 126.582
L283.763 125.632
L283.89 125.632
L283.89 124.681
L284.149 124.681
L284.255 122.78
L284.51 122.78
L284.571 120.879
L284.999 120.879
L284.999 119.929
L285.339 119.929
L285.339 118.978
L286.589 118.978
L286.589 118.028
L288.914 118.028
L288.914 117.077
L292.599 117.077
L292.599 116.127
L293.531 116.127
L293.531 115.176
L294.158 115.176
L294.158 114.226
L297.73 114.226
L297.73 113.275
L302.866 113.275
L302.866 112.325
L304.775 112.325
L304.775 111.374
L305.34 111.374
L305.34 110.424
L305.864 110.424
L305.864 109.473
L306.207 109.473
L306.207 108.523
L307.729 108.523
L307.729 107.572
L307.867 107.572
L307.948 105.671
L308.537 105.671
L308.537 104.721
L309.589 104.721
L309.589 103.77
L310.168 103.77
L310.168 102.82
L311.061 102.82
L311.061 101.869
L311.286 101.869
L311.286 100.919
L312.532 100.919
L312.532 99.9683
L314.338 99.9683
L314.338 99.0178
L314.853 99.0178
L314.853 98.0673
L317.501 98.0673
L317.501 97.1168
L317.877 97.1168
L317.877 96.1663
L318.336 96.1663
L318.336 95.2158
L318.662 95.2158
L318.662 94.2653
L318.825 94.2653
L318.825 93.3149
L320.555 93.3149
L320.555 92.3644
L321.032 92.3644
L321.032 91.4139
L321.47 91.4139
L321.47 90.4634
L322.202 90.4634
L322.244 88.5624
L323.173 88.5624
L323.173 87.6119
L323.689 87.6119
L323.689 86.6614
L323.988 86.6614
L323.988 85.7109
L324.648 85.7109
L324.648 84.7604
L325.704 84.7604
L325.704 83.8099
L326.009 83.8099
L326.009 82.8594
L327.482 82.8594
L327.482 81.9089
L327.844 81.9089
L327.844 80.9584
L328.134 80.9584
L328.134 80.0079
L328.386 80.0079
L328.386 79.0574
L328.908 79.0574
L328.908 78.1069
L329.776 78.1069
L329.776 77.1564
L331.148 77.1564
L331.148 76.2059
L332.145 76.2059
L332.145 75.2554
L332.819 75.2554
L332.819 74.305
L333.303 74.305
L333.303 73.3545
L333.638 73.3545
L333.645 71.4535
L336.557 71.4535
L336.557 70.503
L338.656 70.503
L338.656 69.5525
L339.503 69.5525
L339.503 68.602
L341.101 68.602
L341.101 67.6515
L343.263 67.6515
L343.263 66.701
L343.614 66.701
L343.614 65.7505
L344.553 65.7505
L344.553 64.8
L346.218 64.8
L346.218 63.8495
L348.625 63.8495
L348.625 62.899
L349.899 62.899
L349.899 61.9485
L350.447 61.9485
L350.447 60.998
L351.515 60.998
L351.515 60.0475
L351.723 60.0475
L351.723 59.097
L352.195 59.097
L352.195 58.1465
L354.751 58.1465
L354.751 57.196
L356.429 57.196
L356.429 56.2455
L357.605 56.2455
L357.605 55.295
L359.48 55.295
L359.48 54.3446
L361.422 54.3446
L361.422 53.3941
L361.791 53.3941
L361.791 52.4436
L361.925 52.4436
L361.925 51.4931
L362.768 51.4931
L362.768 50.5426
L364.972 50.5426
L364.972 49.5921
L365.842 49.5921
L365.842 48.6416
L368.034 48.6416
L368.034 47.6911
L368.662 47.6911
L368.662 46.7406
L369.417 46.7406
L369.417 45.7901
L372.508 45.7901
L372.508 44.8396
L372.718 44.8396
L372.718 43.8891
L376.094 43.8891
L376.094 42.9386
L376.949 42.9386
L376.949 41.9881
L377.095 41.9881
L377.19 39.1366
L377.624 39.1366
L377.624 38.1861
L377.91 38.1861
L377.91 37.2356
L378.331 37.2356
L378.331 36.2851
L380.462 36.2851
L380.462 35.3347
L380.605 35.3347
L380.605 34.3842
L383.317 34.3842
L383.317 33.4337
L384.053 33.4337
L384.053 32.4832
L384.312 32.4832
L384.312 31.5327
L388.554 31.5327
L388.554 30.5822
L388.682 30.5822
L388.682 29.6317
L388.799 29.6317
L388.799 28.6812
L389.196 28.6812
L389.196 27.7307
L390.517 27.7307
L390.517 26.7802
L391.035 26.7802
L391.035 25.8297
L391.479 25.8297
L391.479 24.8792
L392.582 24.8792
L392.582 23.9287
L392.744 23.9287
L392.744 22.9782
L396.726 22.9782
L396.726 22.0277
L397.351 22.0277
L397.351 21.0772
L400.036 21.0772
L400.036 20.1267
L401.203 20.1267
L401.203 19.1762
L402.251 19.1762
L402.251 18.2257
L404.518 18.2257
L404.518 17.2752
L404.67 17.2752
L404.67 16.3248
L405.134 16.3248
L405.134 15.3743
L405.84 15.3743
L405.84 14.4238
L406.137 14.4238
L406.137 13.4733
L406.452 13.4733
L406.452 12.5228
L407.014 12.5228
L407.014 11.5723
L452.558 11.5723
L452.558 10.6218
L452.558 10.6218
L453.6 10.6218
L453.6 10.6218" style="fill:none;stroke:#00bfbf;stroke-linecap:square;"/>
   </g>
   <g id="line2d_3">
    <path clip-path="url(#p5bee155178)" d="
M214.366 352.8
L214.366 351.85
L220.93 351.85
L220.93 350.899
L221.209 350.899
L221.209 349.949
L221.555 349.949
L221.555 348.998
L222.14 348.998
L222.14 348.048
L224.03 348.048
L224.03 347.097
L225.259 347.097
L225.302 345.196
L226.116 345.196
L226.116 344.246
L226.303 344.246
L226.34 342.345
L226.44 342.345
L226.44 341.394
L226.617 341.394
L226.617 340.444
L226.982 340.444
L226.982 339.493
L227.196 339.493
L227.196 338.543
L227.934 338.543
L227.934 337.592
L228.064 337.592
L228.113 335.691
L228.62 335.691
L228.62 334.741
L228.955 334.741
L228.996 332.84
L229.314 332.84
L229.314 331.889
L229.433 331.889
L229.471 329.988
L230.11 329.988
L230.11 329.038
L230.398 329.038
L230.398 328.087
L231.088 328.087
L231.093 326.186
L231.234 326.186
L231.272 324.285
L231.713 324.285
L231.713 323.335
L232.039 323.335
L232.039 322.384
L232.22 322.384
L232.22 321.434
L232.341 321.434
L232.341 320.483
L232.789 320.483
L232.789 319.533
L233.502 319.533
L233.502 318.582
L233.862 318.582
L233.918 316.681
L234.129 316.681
L234.129 315.731
L234.31 315.731
L234.31 314.78
L235.257 314.78
L235.331 312.879
L235.473 312.879
L235.473 311.929
L235.736 311.929
L235.821 310.028
L236.7 310.028
L236.7 309.077
L236.951 309.077
L236.995 307.176
L237.165 307.176
L237.165 306.226
L237.465 306.226
L237.465 305.275
L237.758 305.275
L237.758 304.325
L238.024 304.325
L238.133 302.424
L238.484 302.424
L238.503 300.523
L238.792 300.523
L238.792 299.572
L239.126 299.572
L239.126 298.622
L239.557 298.622
L239.641 296.721
L239.754 296.721
L239.754 295.77
L239.889 295.77
L239.906 293.869
L240.055 293.869
L240.055 292.919
L240.534 292.919
L240.534 291.968
L240.901 291.968
L240.901 291.018
L241.353 291.018
L241.353 290.067
L241.511 290.067
L241.573 287.216
L242.214 287.216
L242.235 285.315
L242.412 285.315
L242.431 283.414
L242.524 283.414
L242.581 281.513
L242.7 281.513
L242.718 279.612
L242.843 279.612
L242.843 278.661
L242.991 278.661
L242.991 277.711
L243.202 277.711
L243.243 275.81
L243.699 275.81
L243.777 272.958
L243.891 272.958
L243.891 272.008
L244.136 272.008
L244.136 271.057
L244.535 271.057
L244.535 270.107
L244.667 270.107
L244.667 269.156
L244.793 269.156
L244.793 268.206
L245.042 268.206
L245.042 267.255
L245.407 267.255
L245.407 266.305
L245.67 266.305
L245.712 263.453
L246.401 263.453
L246.401 262.503
L246.513 262.503
L246.513 261.552
L246.748 261.552
L246.751 259.651
L246.973 259.651
L247.006 257.75
L247.17 257.75
L247.173 255.85
L247.328 255.85
L247.409 253.949
L247.583 253.949
L247.583 252.998
L247.865 252.998
L247.938 250.147
L248.1 250.147
L248.16 248.246
L248.276 248.246
L248.307 246.345
L248.396 246.345
L248.396 245.394
L248.618 245.394
L248.652 243.493
L248.93 243.493
L248.988 241.592
L249.222 241.592
L249.331 239.691
L249.492 239.691
L249.564 237.79
L249.781 237.79
L249.781 236.84
L250.005 236.84
L250.04 234.939
L250.119 234.939
L250.119 233.988
L250.379 233.988
L250.416 232.087
L250.551 232.087
L250.581 230.186
L250.766 230.186
L250.873 226.384
L250.897 226.384
L251.002 222.582
L251.027 222.582
L251.099 219.731
L251.143 219.731
L251.143 218.78
L251.353 218.78
L251.353 217.83
L251.47 217.83
L251.537 214.978
L251.651 214.978
L251.705 213.077
L251.969 213.077
L251.969 212.127
L252.095 212.127
L252.095 211.176
L252.407 211.176
L252.479 209.275
L252.794 209.275
L252.794 208.325
L253.107 208.325
L253.107 207.374
L253.288 207.374
L253.343 204.523
L253.465 204.523
L253.465 203.572
L253.652 203.572
L253.714 201.671
L253.929 201.671
L254.028 197.869
L254.776 197.869
L254.776 196.919
L255.239 196.919
L255.239 195.968
L255.543 195.968
L255.627 192.166
L256.064 192.166
L256.161 190.265
L256.255 190.265
L256.298 188.364
L256.672 188.364
L256.672 187.414
L257.051 187.414
L257.051 186.463
L257.528 186.463
L257.605 184.562
L257.779 184.562
L257.802 182.661
L258.003 182.661
L258.006 180.76
L258.16 180.76
L258.16 179.81
L258.292 179.81
L258.292 178.859
L258.483 178.859
L258.483 177.909
L258.597 177.909
L258.625 176.008
L258.725 176.008
L258.725 175.057
L258.856 175.057
L258.856 174.107
L259.185 174.107
L259.185 173.156
L259.575 173.156
L259.617 171.255
L259.865 171.255
L259.904 168.404
L260.02 168.404
L260.02 167.453
L260.202 167.453
L260.202 166.503
L260.456 166.503
L260.456 165.552
L260.742 165.552
L260.742 164.602
L261.027 164.602
L261.083 162.701
L261.402 162.701
L261.402 161.75
L261.679 161.75
L261.679 160.8
L262.047 160.8
L262.047 159.85
L262.271 159.85
L262.271 158.899
L262.505 158.899
L262.505 157.949
L262.714 157.949
L262.714 156.998
L262.948 156.998
L262.948 156.048
L263.372 156.048
L263.372 155.097
L263.623 155.097
L263.623 154.147
L263.782 154.147
L263.782 153.196
L264.202 153.196
L264.265 151.295
L265.7 151.295
L265.7 150.345
L266.074 150.345
L266.074 149.394
L266.734 149.394
L266.765 147.493
L267.447 147.493
L267.447 146.543
L267.667 146.543
L267.667 145.592
L268.296 145.592
L268.296 144.642
L268.45 144.642
L268.45 143.691
L269.981 143.691
L269.981 142.741
L270.176 142.741
L270.176 141.79
L270.874 141.79
L270.874 140.84
L271.291 140.84
L271.291 139.889
L271.446 139.889
L271.446 138.939
L271.578 138.939
L271.633 137.038
L272.428 137.038
L272.43 135.137
L273.509 135.137
L273.509 134.186
L273.997 134.186
L273.997 133.236
L274.441 133.236
L274.441 132.285
L274.701 132.285
L274.701 131.335
L276.758 131.335
L276.817 129.434
L276.909 129.434
L276.909 128.483
L277.976 128.483
L277.976 127.533
L278.746 127.533
L278.746 126.582
L279.866 126.582
L279.866 125.632
L280.223 125.632
L280.223 124.681
L280.841 124.681
L280.841 123.731
L281.162 123.731
L281.182 121.83
L281.559 121.83
L281.559 120.879
L281.699 120.879
L281.699 119.929
L282.339 119.929
L282.339 118.978
L283.593 118.978
L283.593 118.028
L283.763 118.028
L283.763 117.077
L284.899 117.077
L284.899 116.127
L286.952 116.127
L286.952 115.176
L288.914 115.176
L288.914 114.226
L291.532 114.226
L291.532 113.275
L292.574 113.275
L292.599 111.374
L293.531 111.374
L293.531 110.424
L294.158 110.424
L294.158 109.473
L294.858 109.473
L294.858 108.523
L295.571 108.523
L295.571 107.572
L302.866 107.572
L302.866 106.622
L303.299 106.622
L303.299 105.671
L304.21 105.671
L304.21 104.721
L305.864 104.721
L305.864 103.77
L306.207 103.77
L306.207 102.82
L306.451 102.82
L306.451 101.869
L306.59 101.869
L306.59 100.919
L307.867 100.919
L307.867 99.9683
L308.537 99.9683
L308.537 99.0178
L309.589 99.0178
L309.589 98.0673
L310.168 98.0673
L310.244 96.1663
L310.629 96.1663
L310.629 95.2158
L311.061 95.2158
L311.061 94.2653
L311.286 94.2653
L311.286 93.3149
L311.48 93.3149
L311.48 92.3644
L312.445 92.3644
L312.445 91.4139
L314.338 91.4139
L314.338 90.4634
L314.941 90.4634
L314.941 89.5129
L315.11 89.5129
L315.11 88.5624
L317.877 88.5624
L317.877 87.6119
L318.09 87.6119
L318.09 86.6614
L318.662 86.6614
L318.662 85.7109
L318.825 85.7109
L318.825 84.7604
L320.135 84.7604
L320.135 83.8099
L320.331 83.8099
L320.331 82.8594
L320.514 82.8594
L320.514 81.9089
L321.47 81.9089
L321.47 80.9584
L322.202 80.9584
L322.202 80.0079
L323.3 80.0079
L323.3 79.0574
L323.988 79.0574
L323.988 78.1069
L324.648 78.1069
L324.648 77.1564
L324.842 77.1564
L324.842 76.2059
L325.991 76.2059
L325.991 75.2554
L327.002 75.2554
L327.002 74.305
L327.763 74.305
L327.844 72.404
L328.386 72.404
L328.386 71.4535
L330.023 71.4535
L330.023 70.503
L330.942 70.503
L330.942 69.5525
L332.44 69.5525
L332.44 68.602
L333.638 68.602
L333.638 67.6515
L334.823 67.6515
L334.917 65.7505
L337.174 65.7505
L337.174 64.8
L338.656 64.8
L338.656 63.8495
L338.84 63.8495
L338.84 62.899
L339.898 62.899
L339.898 61.9485
L340.857 61.9485
L340.857 60.998
L341.101 60.998
L341.101 60.0475
L341.465 60.0475
L341.465 59.097
L341.665 59.097
L341.665 58.1465
L342.565 58.1465
L342.565 57.196
L344.553 57.196
L344.553 56.2455
L345.045 56.2455
L345.045 55.295
L346.024 55.295
L346.024 54.3446
L346.218 54.3446
L346.218 53.3941
L346.923 53.3941
L346.932 51.4931
L347.465 51.4931
L347.492 49.5921
L348.356 49.5921
L348.423 47.6911
L349.899 47.6911
L349.899 46.7406
L350.553 46.7406
L350.553 45.7901
L351.515 45.7901
L351.515 44.8396
L351.689 44.8396
L351.689 43.8891
L351.861 43.8891
L351.861 42.9386
L352.195 42.9386
L352.195 41.9881
L353.787 41.9881
L353.787 41.0376
L354.038 41.0376
L354.038 40.0871
L357.666 40.0871
L357.666 39.1366
L358.932 39.1366
L358.932 38.1861
L361.791 38.1861
L361.791 37.2356
L362.035 37.2356
L362.035 36.2851
L368.034 36.2851
L368.034 35.3347
L368.705 35.3347
L368.705 34.3842
L369.375 34.3842
L369.375 33.4337
L369.8 33.4337
L369.8 32.4832
L370.288 32.4832
L370.288 31.5327
L371.812 31.5327
L371.812 30.5822
L375.618 30.5822
L375.618 29.6317
L377.951 29.6317
L377.951 28.6812
L378.322 28.6812
L378.322 27.7307
L381.304 27.7307
L381.304 26.7802
L384.312 26.7802
L384.312 25.8297
L385.943 25.8297
L385.943 24.8792
L388.682 24.8792
L388.682 23.9287
L390.976 23.9287
L391.035 22.0277
L392.784 22.0277
L392.784 21.0772
L393.467 21.0772
L393.467 20.1267
L396.661 20.1267
L396.761 18.2257
L397.681 18.2257
L397.681 17.2752
L398.973 17.2752
L398.973 16.3248
L400.347 16.3248
L400.347 15.3743
L400.482 15.3743
L400.482 14.4238
L401.217 14.4238
L401.217 13.4733
L403.761 13.4733
L403.761 12.5228
L404.167 12.5228
L404.167 11.5723
L440.87 11.5723
L440.87 10.6218
L440.87 10.6218
L453.6 10.6218
L453.6 10.6218" style="fill:none;stroke:#bf00bf;stroke-linecap:square;"/>
   </g>
   <g id="line2d_4">
    <path clip-path="url(#p5bee155178)" d="
M203.623 352.8
L203.623 351.85
L214.366 351.85
L214.366 350.899
L215.47 350.899
L215.47 349.949
L220.93 349.949
L220.93 348.998
L221.209 348.998
L221.209 348.048
L221.555 348.048
L221.555 347.097
L222.05 347.097
L222.14 345.196
L222.441 345.196
L222.441 344.246
L223.315 344.246
L223.315 343.295
L223.712 343.295
L223.712 342.345
L224.03 342.345
L224.03 341.394
L224.54 341.394
L224.56 339.493
L224.708 339.493
L224.708 338.543
L225.028 338.543
L225.028 337.592
L225.144 337.592
L225.144 336.642
L225.259 336.642
L225.259 335.691
L225.751 335.691
L225.751 334.741
L226.002 334.741
L226.002 333.79
L226.34 333.79
L226.34 332.84
L226.982 332.84
L226.982 331.889
L227.934 331.889
L227.934 330.939
L228.509 330.939
L228.562 329.038
L228.62 329.038
L228.62 328.087
L228.777 328.087
L228.777 327.137
L228.955 327.137
L229.029 324.285
L229.314 324.285
L229.327 322.384
L229.433 322.384
L229.433 321.434
L229.743 321.434
L229.747 319.533
L230.11 319.533
L230.11 318.582
L230.398 318.582
L230.398 317.632
L230.811 317.632
L230.811 316.681
L231.088 316.681
L231.093 314.78
L231.237 314.78
L231.237 313.83
L231.713 313.83
L231.713 312.879
L232.039 312.879
L232.039 311.929
L232.342 311.929
L232.342 310.978
L232.494 310.978
L232.494 310.028
L233.344 310.028
L233.423 308.127
L233.502 308.127
L233.568 306.226
L233.765 306.226
L233.765 305.275
L233.918 305.275
L233.918 304.325
L234.043 304.325
L234.043 303.374
L234.245 303.374
L234.31 301.473
L234.418 301.473
L234.418 300.523
L234.631 300.523
L234.631 299.572
L234.985 299.572
L235.011 297.671
L235.229 297.671
L235.267 295.77
L235.473 295.77
L235.473 294.82
L235.736 294.82
L235.736 293.869
L236.281 293.869
L236.356 291.968
L236.635 291.968
L236.635 291.018
L236.951 291.018
L236.951 290.067
L237.203 290.067
L237.286 288.166
L237.465 288.166
L237.546 286.265
L237.755 286.265
L237.758 284.364
L238.156 284.364
L238.156 283.414
L238.484 283.414
L238.503 281.513
L238.606 281.513
L238.632 278.661
L238.792 278.661
L238.792 277.711
L238.924 277.711
L238.924 276.76
L239.557 276.76
L239.557 275.81
L239.754 275.81
L239.754 274.859
L239.889 274.859
L239.906 272.958
L240.134 272.958
L240.134 272.008
L240.525 272.008
L240.534 270.107
L240.704 270.107
L240.704 269.156
L240.901 269.156
L240.901 268.206
L241.211 268.206
L241.211 267.255
L241.335 267.255
L241.353 265.354
L241.558 265.354
L241.559 263.453
L241.923 263.453
L241.923 262.503
L242.169 262.503
L242.25 258.701
L242.412 258.701
L242.415 256.8
L242.581 256.8
L242.581 255.85
L242.991 255.85
L243.091 253.949
L243.202 253.949
L243.243 251.097
L243.354 251.097
L243.461 248.246
L243.687 248.246
L243.777 245.394
L243.833 245.394
L243.937 242.543
L244.274 242.543
L244.352 240.642
L244.511 240.642
L244.511 239.691
L244.631 239.691
L244.631 238.741
L244.769 238.741
L244.793 236.84
L245.051 236.84
L245.051 235.889
L245.368 235.889
L245.368 234.939
L245.712 234.939
L245.712 233.988
L246.194 233.988
L246.194 233.038
L246.376 233.038
L246.447 231.137
L246.513 231.137
L246.622 229.236
L246.717 229.236
L246.717 228.285
L247.106 228.285
L247.106 227.335
L247.29 227.335
L247.31 225.434
L247.409 225.434
L247.409 224.483
L248.16 224.483
L248.16 223.533
L248.276 223.533
L248.322 220.681
L248.396 220.681
L248.42 218.78
L248.618 218.78
L248.652 216.879
L248.93 216.879
L248.93 215.929
L249.272 215.929
L249.341 214.028
L249.451 214.028
L249.471 211.176
L249.564 211.176
L249.674 209.275
L250.005 209.275
L250.066 207.374
L250.119 207.374
L250.18 205.473
L250.467 205.473
L250.551 202.622
L250.783 202.622
L250.783 201.671
L250.897 201.671
L250.897 200.721
L251.362 200.721
L251.362 199.77
L251.565 199.77
L251.565 198.82
L251.705 198.82
L251.783 196.919
L252.054 196.919
L252.095 195.018
L252.479 195.018
L252.479 194.067
L253.048 194.067
L253.048 193.117
L253.211 193.117
L253.288 191.216
L253.343 191.216
L253.415 189.315
L253.465 189.315
L253.564 186.463
L253.671 186.463
L253.673 184.562
L253.929 184.562
L254.028 181.711
L254.051 181.711
L254.051 180.76
L254.332 180.76
L254.414 177.909
L255.403 177.909
L255.403 176.958
L255.567 176.958
L255.627 174.107
L255.711 174.107
L255.799 172.206
L255.825 172.206
L255.825 171.255
L256.347 171.255
L256.347 170.305
L256.672 170.305
L256.672 169.354
L256.85 169.354
L256.85 168.404
L256.993 168.404
L257.066 166.503
L257.267 166.503
L257.267 165.552
L257.605 165.552
L257.605 164.602
L258.006 164.602
L258.006 163.651
L258.292 163.651
L258.385 161.75
L258.597 161.75
L258.625 159.85
L259.009 159.85
L259.009 158.899
L259.533 158.899
L259.575 156.998
L259.79 156.998
L259.876 155.097
L259.904 155.097
L259.904 154.147
L260.456 154.147
L260.456 153.196
L260.781 153.196
L260.781 152.246
L261.083 152.246
L261.083 151.295
L261.405 151.295
L261.405 150.345
L261.798 150.345
L261.798 149.394
L262.047 149.394
L262.047 148.444
L262.447 148.444
L262.447 147.493
L262.671 147.493
L262.671 146.543
L262.948 146.543
L262.948 145.592
L263.26 145.592
L263.292 143.691
L263.623 143.691
L263.623 142.741
L263.782 142.741
L263.782 141.79
L263.914 141.79
L263.914 140.84
L266.074 140.84
L266.074 139.889
L266.455 139.889
L266.455 138.939
L267.278 138.939
L267.278 137.988
L267.447 137.988
L267.447 137.038
L267.667 137.038
L267.667 136.087
L267.947 136.087
L267.947 135.137
L269.985 135.137
L269.985 134.186
L270.874 134.186
L270.874 133.236
L271.088 133.236
L271.088 132.285
L271.578 132.285
L271.633 130.384
L272.428 130.384
L272.428 129.434
L273.509 129.434
L273.509 128.483
L273.724 128.483
L273.724 127.533
L273.96 127.533
L273.96 126.582
L274.701 126.582
L274.701 125.632
L275.046 125.632
L275.055 123.731
L276.58 123.731
L276.58 122.78
L276.758 122.78
L276.758 121.83
L278.059 121.83
L278.059 120.879
L278.312 120.879
L278.312 119.929
L278.743 119.929
L278.746 118.028
L279.622 118.028
L279.622 117.077
L280.413 117.077
L280.413 116.127
L280.93 116.127
L280.93 115.176
L281.182 115.176
L281.182 114.226
L281.484 114.226
L281.484 113.275
L286.282 113.275
L286.282 112.325
L286.952 112.325
L286.952 111.374
L287.994 111.374
L287.994 110.424
L288.914 110.424
L288.914 109.473
L289.528 109.473
L289.528 108.523
L291.227 108.523
L291.227 107.572
L291.532 107.572
L291.532 106.622
L292.574 106.622
L292.599 104.721
L293.448 104.721
L293.531 102.82
L294.158 102.82
L294.158 101.869
L294.858 101.869
L294.858 100.919
L295.571 100.919
L295.571 99.9683
L296.484 99.9683
L296.484 99.0178
L296.725 99.0178
L296.725 98.0673
L297.64 98.0673
L297.64 97.1168
L298.34 97.1168
L298.34 96.1663
L299.427 96.1663
L299.427 95.2158
L301.012 95.2158
L301.012 94.2653
L302.352 94.2653
L302.352 93.3149
L302.866 93.3149
L302.866 92.3644
L303.053 92.3644
L303.053 91.4139
L303.299 91.4139
L303.299 90.4634
L305.654 90.4634
L305.654 89.5129
L305.852 89.5129
L305.852 88.5624
L306.05 88.5624
L306.089 86.6614
L308.075 86.6614
L308.075 85.7109
L308.537 85.7109
L308.537 84.7604
L310.012 84.7604
L310.012 83.8099
L310.244 83.8099
L310.27 81.9089
L310.629 81.9089
L310.629 80.9584
L311.48 80.9584
L311.48 80.0079
L312.445 80.0079
L312.445 79.0574
L312.74 79.0574
L312.74 78.1069
L314.36 78.1069
L314.36 77.1564
L315.11 77.1564
L315.11 76.2059
L318.093 76.2059
L318.093 75.2554
L318.375 75.2554
L318.375 74.305
L318.825 74.305
L318.825 73.3545
L318.969 73.3545
L318.969 72.404
L320.331 72.404
L320.331 71.4535
L322.202 71.4535
L322.202 70.503
L322.441 70.503
L322.441 69.5525
L323.865 69.5525
L323.865 68.602
L327.763 68.602
L327.867 65.7505
L328.223 65.7505
L328.223 64.8
L329.755 64.8
L329.755 63.8495
L332.44 63.8495
L332.44 62.899
L334.823 62.899
L334.823 61.9485
L336.164 61.9485
L336.164 60.998
L336.774 60.998
L336.774 60.0475
L337.037 60.0475
L337.037 59.097
L338.84 59.097
L338.84 58.1465
L339.478 58.1465
L339.478 57.196
L339.898 57.196
L339.898 56.2455
L340.723 56.2455
L340.723 55.295
L341.004 55.295
L341.101 53.3941
L341.441 53.3941
L341.465 51.4931
L341.665 51.4931
L341.665 50.5426
L342.264 50.5426
L342.264 49.5921
L342.778 49.5921
L342.778 48.6416
L343.39 48.6416
L343.39 47.6911
L345.843 47.6911
L345.843 46.7406
L346.923 46.7406
L346.932 44.8396
L347.492 44.8396
L347.492 43.8891
L348.187 43.8891
L348.187 42.9386
L348.898 42.9386
L348.898 41.9881
L350.553 41.9881
L350.553 41.0376
L350.754 41.0376
L350.754 40.0871
L350.866 40.0871
L350.937 38.1861
L351.515 38.1861
L351.515 37.2356
L353.787 37.2356
L353.787 36.2851
L354.038 36.2851
L354.038 35.3347
L358.932 35.3347
L358.932 34.3842
L362.035 34.3842
L362.035 33.4337
L364.841 33.4337
L364.841 32.4832
L368.034 32.4832
L368.034 31.5327
L368.705 31.5327
L368.705 30.5822
L370.288 30.5822
L370.288 29.6317
L371.812 29.6317
L371.812 28.6812
L375.932 28.6812
L375.932 27.7307
L377.951 27.7307
L377.951 26.7802
L378.804 26.7802
L378.804 25.8297
L380.244 25.8297
L380.244 24.8792
L381.304 24.8792
L381.304 23.9287
L382.147 23.9287
L382.147 22.9782
L382.703 22.9782
L382.703 22.0277
L384.247 22.0277
L384.247 21.0772
L384.757 21.0772
L384.757 20.1267
L387.636 20.1267
L387.676 18.2257
L391.035 18.2257
L391.035 17.2752
L395.813 17.2752
L395.813 16.3248
L396.585 16.3248
L396.585 15.3743
L396.757 15.3743
L396.757 14.4238
L397.656 14.4238
L397.656 13.4733
L398.973 13.4733
L398.973 12.5228
L399.76 12.5228
L399.76 11.5723
L400.623 11.5723
L400.623 10.6218
L400.623 10.6218
L453.6 10.6218
L453.6 10.6218" style="fill:none;stroke:#000000;stroke-linecap:square;"/>
   </g>
   <g id="line2d_5">
    <path clip-path="url(#p5bee155178)" d="
M203.623 352.8
L203.623 351.85
L211.645 351.85
L211.645 350.899
L214.366 350.899
L214.366 349.949
L215.47 349.949
L215.47 348.998
L216.524 348.998
L216.524 348.048
L217.018 348.048
L217.125 346.147
L218.018 346.147
L218.018 345.196
L218.194 345.196
L218.194 344.246
L218.597 344.246
L218.597 343.295
L220.609 343.295
L220.677 341.394
L220.826 341.394
L220.826 340.444
L221.209 340.444
L221.226 338.543
L221.555 338.543
L221.662 336.642
L221.943 336.642
L222.05 333.79
L222.096 333.79
L222.156 330.939
L222.441 330.939
L222.441 329.988
L223.014 329.988
L223.014 329.038
L223.696 329.038
L223.712 327.137
L224.446 327.137
L224.446 326.186
L224.608 326.186
L224.643 324.285
L224.856 324.285
L224.856 323.335
L225.051 323.335
L225.051 322.384
L225.259 322.384
L225.287 320.483
L225.953 320.483
L226.027 318.582
L226.074 318.582
L226.074 317.632
L226.232 317.632
L226.34 315.731
L226.486 315.731
L226.486 314.78
L226.982 314.78
L226.982 313.83
L227.184 313.83
L227.276 310.978
L227.346 310.978
L227.427 309.077
L227.934 309.077
L227.981 307.176
L228.491 307.176
L228.492 305.275
L228.62 305.275
L228.731 302.424
L228.812 302.424
L228.812 301.473
L228.996 301.473
L228.996 300.523
L229.327 300.523
L229.327 299.572
L229.743 299.572
L229.747 297.671
L230.185 297.671
L230.185 296.721
L230.398 296.721
L230.398 295.77
L230.681 295.77
L230.776 292.919
L230.8 292.919
L230.812 291.018
L230.952 291.018
L231.009 288.166
L231.237 288.166
L231.344 286.265
L231.453 286.265
L231.453 285.315
L231.657 285.315
L231.721 283.414
L231.903 283.414
L231.903 282.463
L232.179 282.463
L232.204 279.612
L232.412 279.612
L232.494 273.909
L232.674 273.909
L232.733 272.008
L232.912 272.008
L232.912 271.057
L233.087 271.057
L233.087 270.107
L233.318 270.107
L233.318 269.156
L233.568 269.156
L233.625 267.255
L233.765 267.255
L233.765 266.305
L233.879 266.305
L233.879 265.354
L234.21 265.354
L234.297 263.453
L234.493 263.453
L234.493 262.503
L234.631 262.503
L234.724 259.651
L235.067 259.651
L235.067 258.701
L235.521 258.701
L235.521 257.75
L235.738 257.75
L235.822 255.85
L235.942 255.85
L236.017 253.949
L236.281 253.949
L236.281 252.998
L236.635 252.998
L236.635 252.048
L236.863 252.048
L236.927 250.147
L237.249 250.147
L237.359 246.345
L237.576 246.345
L237.587 244.444
L237.755 244.444
L237.78 242.543
L238.103 242.543
L238.184 240.642
L238.607 240.642
L238.632 238.741
L238.735 238.741
L238.735 237.79
L238.924 237.79
L238.924 236.84
L239.491 236.84
L239.557 234.939
L239.644 234.939
L239.754 232.087
L240.192 232.087
L240.192 231.137
L240.312 231.137
L240.312 230.186
L240.525 230.186
L240.525 229.236
L240.71 229.236
L240.71 228.285
L240.901 228.285
L241.004 226.384
L241.211 226.384
L241.31 224.483
L241.335 224.483
L241.347 221.632
L241.892 221.632
L241.912 219.731
L242.191 219.731
L242.196 217.83
L242.387 217.83
L242.387 216.879
L242.686 216.879
L242.688 214.978
L243.056 214.978
L243.091 213.077
L243.616 213.077
L243.616 212.127
L243.937 212.127
L243.937 211.176
L244.146 211.176
L244.146 210.226
L244.631 210.226
L244.631 209.275
L244.793 209.275
L244.793 208.325
L245.555 208.325
L245.555 207.374
L246.025 207.374
L246.025 206.424
L246.513 206.424
L246.513 205.473
L246.689 205.473
L246.786 203.572
L247.21 203.572
L247.226 201.671
L247.409 201.671
L247.409 200.721
L247.529 200.721
L247.54 198.82
L247.89 198.82
L247.89 197.869
L248.276 197.869
L248.314 195.018
L248.396 195.018
L248.479 191.216
L248.569 191.216
L248.569 190.265
L248.688 190.265
L248.714 188.364
L248.994 188.364
L248.994 187.414
L249.272 187.414
L249.341 183.612
L249.471 183.612
L249.471 182.661
L249.674 182.661
L249.674 181.711
L250.002 181.711
L250.005 179.81
L250.467 179.81
L250.467 178.859
L250.7 178.859
L250.783 176.958
L250.899 176.958
L250.899 176.008
L251.278 176.008
L251.323 174.107
L251.459 174.107
L251.459 173.156
L251.604 173.156
L251.664 170.305
L251.783 170.305
L251.862 168.404
L252.379 168.404
L252.46 165.552
L252.644 165.552
L252.656 163.651
L253.075 163.651
L253.149 161.75
L253.211 161.75
L253.211 160.8
L253.564 160.8
L253.564 159.85
L253.929 159.85
L253.938 157.949
L254.109 157.949
L254.109 156.998
L254.414 156.998
L254.513 154.147
L254.643 154.147
L254.643 153.196
L254.85 153.196
L254.85 152.246
L255.251 152.246
L255.251 151.295
L255.558 151.295
L255.558 150.345
L255.68 150.345
L255.718 148.444
L255.831 148.444
L255.831 147.493
L256.006 147.493
L256.006 146.543
L256.347 146.543
L256.347 145.592
L256.541 145.592
L256.576 143.691
L256.777 143.691
L256.884 141.79
L257.302 141.79
L257.359 139.889
L258.006 139.889
L258.006 138.939
L258.781 138.939
L258.781 137.988
L259.453 137.988
L259.49 136.087
L259.79 136.087
L259.79 135.137
L260.54 135.137
L260.54 134.186
L261.249 134.186
L261.249 133.236
L261.369 133.236
L261.369 132.285
L261.74 132.285
L261.74 131.335
L262.317 131.335
L262.317 130.384
L262.671 130.384
L262.671 129.434
L263.463 129.434
L263.463 128.483
L263.697 128.483
L263.697 127.533
L264.763 127.533
L264.763 126.582
L266.57 126.582
L266.68 124.681
L267.712 124.681
L267.712 123.731
L267.947 123.731
L267.947 122.78
L269.045 122.78
L269.045 121.83
L269.732 121.83
L269.732 120.879
L269.906 120.879
L269.985 118.978
L270.827 118.978
L270.874 116.127
L271.216 116.127
L271.216 115.176
L271.633 115.176
L271.633 114.226
L271.895 114.226
L271.895 113.275
L273.567 113.275
L273.567 112.325
L273.857 112.325
L273.96 110.424
L274.027 110.424
L274.076 108.523
L274.502 108.523
L274.502 107.572
L274.882 107.572
L274.882 106.622
L275.055 106.622
L275.055 105.671
L275.63 105.671
L275.63 104.721
L277.209 104.721
L277.209 103.77
L277.847 103.77
L277.847 102.82
L279.011 102.82
L279.011 101.869
L279.162 101.869
L279.162 100.919
L279.491 100.919
L279.491 99.9683
L281.182 99.9683
L281.211 98.0673
L281.636 98.0673
L281.694 96.1663
L284.414 96.1663
L284.414 95.2158
L284.656 95.2158
L284.656 94.2653
L285.472 94.2653
L285.472 93.3149
L286.013 93.3149
L286.013 92.3644
L287.929 92.3644
L287.994 90.4634
L288.36 90.4634
L288.36 89.5129
L289.306 89.5129
L289.306 88.5624
L290.746 88.5624
L290.746 87.6119
L291.532 87.6119
L291.532 86.6614
L291.765 86.6614
L291.765 85.7109
L292.574 85.7109
L292.574 84.7604
L293.448 84.7604
L293.448 83.8099
L293.888 83.8099
L293.957 81.9089
L294.55 81.9089
L294.55 80.9584
L295.086 80.9584
L295.149 79.0574
L295.561 79.0574
L295.561 78.1069
L296.484 78.1069
L296.484 77.1564
L296.752 77.1564
L296.752 76.2059
L298.34 76.2059
L298.34 75.2554
L299.427 75.2554
L299.427 74.305
L299.627 74.305
L299.695 72.404
L300.486 72.404
L300.486 71.4535
L300.904 71.4535
L300.904 70.503
L301.048 70.503
L301.048 69.5525
L301.374 69.5525
L301.374 68.602
L302.004 68.602
L302.004 67.6515
L303.299 67.6515
L303.299 66.701
L303.587 66.701
L303.587 65.7505
L304.496 65.7505
L304.496 64.8
L306.451 64.8
L306.451 63.8495
L308.087 63.8495
L308.087 62.899
L308.37 62.899
L308.37 61.9485
L308.51 61.9485
L308.537 60.0475
L310.012 60.0475
L310.012 59.097
L314.772 59.097
L314.772 58.1465
L315.671 58.1465
L315.671 57.196
L317.924 57.196
L317.924 56.2455
L318.589 56.2455
L318.589 55.295
L318.776 55.295
L318.776 54.3446
L318.969 54.3446
L318.969 53.3941
L322.103 53.3941
L322.202 51.4931
L325.215 51.4931
L325.215 50.5426
L325.35 50.5426
L325.417 48.6416
L325.593 48.6416
L325.593 47.6911
L326.812 47.6911
L326.812 46.7406
L327.889 46.7406
L327.902 44.8396
L328.367 44.8396
L328.367 43.8891
L331.347 43.8891
L331.347 42.9386
L332.277 42.9386
L332.277 41.9881
L332.44 41.9881
L332.484 40.0871
L332.599 40.0871
L332.599 39.1366
L332.717 39.1366
L332.717 38.1861
L333.28 38.1861
L333.28 37.2356
L334.776 37.2356
L334.776 36.2851
L334.95 36.2851
L334.95 35.3347
L337.462 35.3347
L337.462 34.3842
L339.199 34.3842
L339.199 33.4337
L339.493 33.4337
L339.493 32.4832
L340.191 32.4832
L340.191 31.5327
L340.62 31.5327
L340.62 30.5822
L342.778 30.5822
L342.778 29.6317
L345.228 29.6317
L345.313 27.7307
L347.221 27.7307
L347.221 26.7802
L353.606 26.7802
L353.606 25.8297
L359.144 25.8297
L359.144 24.8792
L366.215 24.8792
L366.215 23.9287
L368.188 23.9287
L368.188 22.9782
L369.074 22.9782
L369.074 22.0277
L375.186 22.0277
L375.186 21.0772
L377.437 21.0772
L377.437 20.1267
L379.643 20.1267
L379.702 18.2257
L380.244 18.2257
L380.353 16.3248
L381.236 16.3248
L381.304 14.4238
L382.102 14.4238
L382.102 13.4733
L384.343 13.4733
L384.343 12.5228
L386.53 12.5228
L386.53 11.5723
L387.613 11.5723
L387.613 10.6218
L387.613 10.6218
L453.6 10.6218
L453.6 10.6218" style="fill:none;stroke:#00bfbf;stroke-linecap:square;"/>
   </g>
   <g id="line2d_6">
    <path clip-path="url(#p5bee155178)" d="
M-1 338.543
L163.838 338.543
L163.838 337.592
L169.893 337.592
L169.893 336.642
L171.547 336.642
L171.547 335.691
L172.396 335.691
L172.396 334.741
L173.546 334.741
L173.546 333.79
L175.157 333.79
L175.157 332.84
L176.65 332.84
L176.65 331.889
L178.757 331.889
L178.757 330.939
L179.996 330.939
L179.996 329.988
L180.256 329.988
L180.272 328.087
L181.066 328.087
L181.066 327.137
L181.584 327.137
L181.687 325.236
L181.845 325.236
L181.845 324.285
L185.065 324.285
L185.065 323.335
L186.349 323.335
L186.352 321.434
L186.667 321.434
L186.667 320.483
L186.951 320.483
L186.951 319.533
L187.585 319.533
L187.585 318.582
L187.923 318.582
L187.923 317.632
L188.381 317.632
L188.381 316.681
L188.723 316.681
L188.723 315.731
L189.546 315.731
L189.546 314.78
L189.677 314.78
L189.717 312.879
L190.231 312.879
L190.231 311.929
L192.06 311.929
L192.06 310.978
L192.763 310.978
L192.763 310.028
L197.355 310.028
L197.355 309.077
L198.315 309.077
L198.315 308.127
L198.575 308.127
L198.575 307.176
L199.203 307.176
L199.313 305.275
L200.119 305.275
L200.119 304.325
L202.652 304.325
L202.652 303.374
L203.623 303.374
L203.623 302.424
L203.836 302.424
L203.836 301.473
L204.096 301.473
L204.096 300.523
L204.381 300.523
L204.381 299.572
L204.721 299.572
L204.721 298.622
L205.528 298.622
L205.528 297.671
L205.686 297.671
L205.765 295.77
L206.041 295.77
L206.041 294.82
L206.274 294.82
L206.385 292.919
L206.484 292.919
L206.484 291.968
L207.107 291.968
L207.107 291.018
L207.707 291.018
L207.788 289.117
L207.926 289.117
L207.926 288.166
L208.229 288.166
L208.229 287.216
L208.637 287.216
L208.637 286.265
L208.996 286.265
L208.996 285.315
L209.223 285.315
L209.223 284.364
L209.771 284.364
L209.771 283.414
L210.315 283.414
L210.315 282.463
L211 282.463
L211.045 279.612
L211.241 279.612
L211.298 277.711
L211.733 277.711
L211.843 275.81
L212.08 275.81
L212.08 274.859
L212.312 274.859
L212.404 272.008
L212.521 272.008
L212.593 270.107
L212.643 270.107
L212.74 266.305
L212.978 266.305
L213.08 263.453
L213.096 263.453
L213.11 261.552
L213.511 261.552
L213.575 257.75
L213.804 257.75
L213.804 256.8
L214.007 256.8
L214.113 252.998
L214.169 252.998
L214.194 251.097
L214.485 251.097
L214.485 250.147
L214.633 250.147
L214.683 248.246
L214.752 248.246
L214.775 246.345
L214.908 246.345
L214.966 244.444
L215.063 244.444
L215.11 242.543
L215.217 242.543
L215.229 240.642
L215.411 240.642
L215.52 238.741
L215.682 238.741
L215.732 236.84
L215.868 236.84
L215.959 233.988
L216.115 233.988
L216.173 231.137
L216.263 231.137
L216.263 230.186
L216.533 230.186
L216.612 228.285
L216.761 228.285
L216.761 227.335
L216.966 227.335
L216.975 225.434
L217.093 225.434
L217.093 224.483
L217.575 224.483
L217.575 223.533
L217.94 223.533
L217.94 222.582
L218.115 222.582
L218.115 221.632
L218.511 221.632
L218.511 220.681
L219.011 220.681
L219.103 218.78
L219.28 218.78
L219.385 216.879
L220.046 216.879
L220.052 214.978
L220.257 214.978
L220.257 214.028
L221.774 214.028
L221.774 213.077
L222.201 213.077
L222.201 212.127
L222.429 212.127
L222.429 211.176
L222.732 211.176
L222.831 209.275
L222.85 209.275
L222.949 207.374
L223.089 207.374
L223.16 204.523
L223.31 204.523
L223.31 203.572
L223.883 203.572
L223.883 202.622
L224.338 202.622
L224.338 201.671
L224.608 201.671
L224.618 199.77
L224.889 199.77
L224.889 198.82
L225.147 198.82
L225.23 195.968
L225.548 195.968
L225.583 194.067
L225.94 194.067
L225.966 192.166
L226.074 192.166
L226.142 190.265
L226.34 190.265
L226.358 188.364
L226.56 188.364
L226.602 186.463
L226.774 186.463
L226.774 185.513
L226.916 185.513
L226.916 184.562
L227.032 184.562
L227.032 183.612
L227.163 183.612
L227.227 180.76
L227.575 180.76
L227.677 178.859
L227.915 178.859
L227.915 177.909
L228.256 177.909
L228.259 176.008
L228.529 176.008
L228.529 175.057
L228.812 175.057
L228.812 174.107
L229.419 174.107
L229.419 173.156
L229.573 173.156
L229.573 172.206
L229.737 172.206
L229.819 170.305
L229.943 170.305
L229.943 169.354
L230.623 169.354
L230.623 168.404
L230.971 168.404
L231.003 165.552
L231.15 165.552
L231.15 164.602
L231.309 164.602
L231.383 161.75
L231.473 161.75
L231.543 159.85
L232.158 159.85
L232.158 158.899
L232.375 158.899
L232.421 156.998
L232.745 156.998
L232.845 152.246
L232.894 152.246
L232.894 151.295
L233.235 151.295
L233.235 150.345
L233.59 150.345
L233.59 149.394
L233.92 149.394
L233.92 148.444
L234.075 148.444
L234.175 146.543
L234.6 146.543
L234.666 144.642
L234.84 144.642
L234.951 141.79
L235.312 141.79
L235.312 140.84
L235.516 140.84
L235.516 139.889
L235.759 139.889
L235.759 138.939
L235.885 138.939
L235.885 137.988
L236.137 137.988
L236.137 137.038
L236.526 137.038
L236.526 136.087
L236.77 136.087
L236.773 133.236
L237.241 133.236
L237.241 132.285
L237.359 132.285
L237.359 131.335
L237.498 131.335
L237.574 128.483
L237.707 128.483
L237.707 127.533
L237.864 127.533
L237.937 125.632
L238.421 125.632
L238.421 124.681
L238.688 124.681
L238.762 122.78
L238.83 122.78
L238.83 121.83
L239.024 121.83
L239.024 120.879
L239.17 120.879
L239.17 119.929
L239.434 119.929
L239.501 118.028
L239.841 118.028
L239.86 115.176
L240.062 115.176
L240.062 114.226
L240.256 114.226
L240.256 113.275
L240.378 113.275
L240.378 112.325
L240.542 112.325
L240.542 111.374
L240.684 111.374
L240.684 110.424
L240.862 110.424
L240.862 109.473
L241.036 109.473
L241.081 106.622
L241.249 106.622
L241.31 103.77
L241.568 103.77
L241.632 101.869
L241.686 101.869
L241.782 98.0673
L241.908 98.0673
L241.981 96.1663
L242.025 96.1663
L242.025 95.2158
L242.596 95.2158
L242.681 93.3149
L242.787 93.3149
L242.787 92.3644
L242.954 92.3644
L242.954 91.4139
L243.253 91.4139
L243.253 90.4634
L243.728 90.4634
L243.806 87.6119
L244.047 87.6119
L244.047 86.6614
L244.225 86.6614
L244.225 85.7109
L244.474 85.7109
L244.474 84.7604
L244.591 84.7604
L244.591 83.8099
L244.818 83.8099
L244.886 81.9089
L245.181 81.9089
L245.181 80.9584
L245.416 80.9584
L245.445 79.0574
L245.684 79.0574
L245.684 78.1069
L246.057 78.1069
L246.063 76.2059
L246.318 76.2059
L246.318 75.2554
L247.228 75.2554
L247.327 73.3545
L247.955 73.3545
L248.046 71.4535
L248.569 71.4535
L248.569 70.503
L249.276 70.503
L249.276 69.5525
L249.726 69.5525
L249.726 68.602
L250.045 68.602
L250.045 67.6515
L250.289 67.6515
L250.289 66.701
L250.455 66.701
L250.455 65.7505
L250.867 65.7505
L250.867 64.8
L251.354 64.8
L251.362 62.899
L251.805 62.899
L251.884 60.998
L252.133 60.998
L252.133 60.0475
L252.767 60.0475
L252.835 58.1465
L253.722 58.1465
L253.722 57.196
L254.902 57.196
L254.902 56.2455
L256.095 56.2455
L256.095 55.295
L256.873 55.295
L256.873 54.3446
L260.716 54.3446
L260.716 53.3941
L270.546 53.3941
L270.546 52.4436
L270.866 52.4436
L270.866 51.4931
L271.277 51.4931
L271.277 50.5426
L272.057 50.5426
L272.057 49.5921
L275.187 49.5921
L275.187 48.6416
L277.069 48.6416
L277.069 47.6911
L281.478 47.6911
L281.478 46.7406
L281.644 46.7406
L281.644 45.7901
L283.24 45.7901
L283.24 44.8396
L283.949 44.8396
L283.949 43.8891
L286.038 43.8891
L286.038 42.9386
L287.847 42.9386
L287.847 41.9881
L289.502 41.9881
L289.502 41.0376
L289.825 41.0376
L289.825 40.0871
L290.587 40.0871
L290.587 39.1366
L290.826 39.1366
L290.826 38.1861
L290.972 38.1861
L290.972 37.2356
L291.908 37.2356
L291.908 36.2851
L293.65 36.2851
L293.65 35.3347
L293.888 35.3347
L293.888 34.3842
L295.569 34.3842
L295.569 33.4337
L296.703 33.4337
L296.703 32.4832
L297.796 32.4832
L297.845 30.5822
L302.55 30.5822
L302.55 29.6317
L304.536 29.6317
L304.536 28.6812
L305.132 28.6812
L305.132 27.7307
L306.805 27.7307
L306.805 26.7802
L308.286 26.7802
L308.384 24.8792
L309.975 24.8792
L309.975 23.9287
L321.49 23.9287
L321.49 22.9782
L322.387 22.9782
L322.387 22.0277
L323.417 22.0277
L323.417 21.0772
L324.706 21.0772
L324.706 20.1267
L325.79 20.1267
L325.79 19.1762
L329.831 19.1762
L329.831 18.2257
L331.881 18.2257
L331.881 17.2752
L332.032 17.2752
L332.119 15.3743
L333.423 15.3743
L333.423 14.4238
L336.468 14.4238
L336.468 13.4733
L339.008 13.4733
L339.008 12.5228
L343.015 12.5228
L343.015 11.5723
L343.329 11.5723
L343.329 10.6218
L343.329 10.6218
L453.6 10.6218
L453.6 10.6218" style="fill:none;stroke:#bf00bf;stroke-linecap:square;"/>
   </g>
   <g id="matplotlib.axis_1">
    <g id="xtick_1"/>
    <g id="xtick_2">
     <g id="line2d_7">
      <path clip-path="url(#p5bee155178)" d="
M56.7047 352.8
L56.7047 7.2" style="fill:none;stroke:#000000;stroke-dasharray:1.000000,3.000000;stroke-dashoffset:0.0;stroke-width:0.5;"/>
     </g>
     <g id="line2d_8">
      <defs>
       <path d="
M0 0
L0 -4" id="m93b0483c22" style="stroke:#000000;stroke-width:0.5;"/>
      </defs>
      <g>
       <use style="stroke:#000000;stroke-width:0.5;" x="56.70471484" xlink:href="#m93b0483c22" y="352.8"/>
      </g>
     </g>
     <g id="line2d_9">
      <defs>
       <path d="
M0 0
L0 4" id="m741efc42ff" style="stroke:#000000;stroke-width:0.5;"/>
      </defs>
      <g>
       <use style="stroke:#000000;stroke-width:0.5;" x="56.70471484" xlink:href="#m741efc42ff" y="7.2"/>
      </g>
     </g>
     <g id="text_1">
      <!-- -6 -->
      <defs>
       <path d="
M3.17188 21.4844
L3.17188 30.3281
L30.1719 30.3281
L30.1719 21.4844
z
" id="ArialMT-2d"/>
       <path d="
M49.75 54.0469
L41.0156 53.375
Q39.8438 58.5469 37.7031 60.8906
Q34.125 64.6562 28.9062 64.6562
Q24.7031 64.6562 21.5312 62.3125
Q17.3906 59.2812 14.9844 53.4688
Q12.5938 47.6562 12.5 36.9219
Q15.6719 41.75 20.2656 44.0938
Q24.8594 46.4375 29.8906 46.4375
Q38.6719 46.4375 44.8438 39.9688
Q51.0312 33.5 51.0312 23.25
Q51.0312 16.5 48.125 10.7188
Q45.2188 4.9375 40.1406 1.85938
Q35.0625 -1.21875 28.6094 -1.21875
Q17.625 -1.21875 10.6875 6.85938
Q3.76562 14.9375 3.76562 33.5
Q3.76562 54.25 11.4219 63.6719
Q18.1094 71.875 29.4375 71.875
Q37.8906 71.875 43.2812 67.1406
Q48.6875 62.4062 49.75 54.0469
M13.875 23.1875
Q13.875 18.6562 15.7969 14.5
Q17.7188 10.3594 21.1875 8.17188
Q24.6562 6 28.4688 6
Q34.0312 6 38.0312 10.4844
Q42.0469 14.9844 42.0469 22.7031
Q42.0469 30.125 38.0781 34.3906
Q34.125 38.6719 28.125 38.6719
Q22.1719 38.6719 18.0156 34.3906
Q13.875 30.125 13.875 23.1875" id="ArialMT-36"/>
      </defs>
      <g transform="translate(48.58908984 371.115625)scale(0.2 -0.2)">
       <use xlink:href="#ArialMT-2d"/>
       <use x="33.30078125" xlink:href="#ArialMT-36"/>
      </g>
     </g>
    </g>
    <g id="xtick_3">
     <g id="line2d_10">
      <path clip-path="url(#p5bee155178)" d="
M106.317 352.8
L106.317 7.2" style="fill:none;stroke:#000000;stroke-dasharray:1.000000,3.000000;stroke-dashoffset:0.0;stroke-width:0.5;"/>
     </g>
     <g id="line2d_11">
      <g>
       <use style="stroke:#000000;stroke-width:0.5;" x="106.316625485" xlink:href="#m93b0483c22" y="352.8"/>
      </g>
     </g>
     <g id="line2d_12">
      <g>
       <use style="stroke:#000000;stroke-width:0.5;" x="106.316625485" xlink:href="#m741efc42ff" y="7.2"/>
      </g>
     </g>
     <g id="text_2">
      <!-- -4 -->
      <defs>
       <path d="
M32.3281 0
L32.3281 17.1406
L1.26562 17.1406
L1.26562 25.2031
L33.9375 71.5781
L41.1094 71.5781
L41.1094 25.2031
L50.7812 25.2031
L50.7812 17.1406
L41.1094 17.1406
L41.1094 0
z

M32.3281 25.2031
L32.3281 57.4688
L9.90625 25.2031
z
" id="ArialMT-34"/>
      </defs>
      <g transform="translate(98.226000485 371.115625)scale(0.2 -0.2)">
       <use xlink:href="#ArialMT-2d"/>
       <use x="33.30078125" xlink:href="#ArialMT-34"/>
      </g>
     </g>
    </g>
    <g id="xtick_4">
     <g id="line2d_13">
      <path clip-path="url(#p5bee155178)" d="
M155.929 352.8
L155.929 7.2" style="fill:none;stroke:#000000;stroke-dasharray:1.000000,3.000000;stroke-dashoffset:0.0;stroke-width:0.5;"/>
     </g>
     <g id="line2d_14">
      <g>
       <use style="stroke:#000000;stroke-width:0.5;" x="155.92853613" xlink:href="#m93b0483c22" y="352.8"/>
      </g>
     </g>
     <g id="line2d_15">
      <g>
       <use style="stroke:#000000;stroke-width:0.5;" x="155.92853613" xlink:href="#m741efc42ff" y="7.2"/>
      </g>
     </g>
     <g id="text_3">
      <!-- -2 -->
      <defs>
       <path d="
M50.3438 8.45312
L50.3438 0
L3.03125 0
Q2.9375 3.17188 4.04688 6.10938
Q5.85938 10.9375 9.82812 15.625
Q13.8125 20.3125 21.3438 26.4688
Q33.0156 36.0312 37.1094 41.625
Q41.2188 47.2188 41.2188 52.2031
Q41.2188 57.4219 37.4688 61
Q33.7344 64.5938 27.7344 64.5938
Q21.3906 64.5938 17.5781 60.7812
Q13.7656 56.9844 13.7188 50.25
L4.6875 51.1719
Q5.60938 61.2812 11.6562 66.5781
Q17.7188 71.875 27.9375 71.875
Q38.2344 71.875 44.2344 66.1562
Q50.25 60.4531 50.25 52
Q50.25 47.7031 48.4844 43.5469
Q46.7344 39.4062 42.6562 34.8125
Q38.5781 30.2188 29.1094 22.2188
Q21.1875 15.5781 18.9375 13.2031
Q16.7031 10.8438 15.2344 8.45312
z
" id="ArialMT-32"/>
      </defs>
      <g transform="translate(147.88166113 371.115625)scale(0.2 -0.2)">
       <use xlink:href="#ArialMT-2d"/>
       <use x="33.30078125" xlink:href="#ArialMT-32"/>
      </g>
     </g>
    </g>
    <g id="xtick_5">
     <g id="line2d_16">
      <path clip-path="url(#p5bee155178)" d="
M205.54 352.8
L205.54 7.2" style="fill:none;stroke:#000000;stroke-dasharray:1.000000,3.000000;stroke-dashoffset:0.0;stroke-width:0.5;"/>
     </g>
     <g id="line2d_17">
      <g>
       <use style="stroke:#000000;stroke-width:0.5;" x="205.540446775" xlink:href="#m93b0483c22" y="352.8"/>
      </g>
     </g>
     <g id="line2d_18">
      <g>
       <use style="stroke:#000000;stroke-width:0.5;" x="205.540446775" xlink:href="#m741efc42ff" y="7.2"/>
      </g>
     </g>
     <g id="text_4">
      <!-- 0 -->
      <defs>
       <path d="
M4.15625 35.2969
Q4.15625 48 6.76562 55.7344
Q9.375 63.4844 14.5156 67.6719
Q19.6719 71.875 27.4844 71.875
Q33.25 71.875 37.5938 69.5469
Q41.9375 67.2344 44.7656 62.8594
Q47.6094 58.5 49.2188 52.2188
Q50.8281 45.9531 50.8281 35.2969
Q50.8281 22.7031 48.2344 14.9688
Q45.6562 7.23438 40.5 3
Q35.3594 -1.21875 27.4844 -1.21875
Q17.1406 -1.21875 11.2344 6.20312
Q4.15625 15.1406 4.15625 35.2969
M13.1875 35.2969
Q13.1875 17.6719 17.3125 11.8281
Q21.4375 6 27.4844 6
Q33.5469 6 37.6719 11.8594
Q41.7969 17.7188 41.7969 35.2969
Q41.7969 52.9844 37.6719 58.7812
Q33.5469 64.5938 27.3906 64.5938
Q21.3438 64.5938 17.7188 59.4688
Q13.1875 52.9375 13.1875 35.2969" id="ArialMT-30"/>
      </defs>
      <g transform="translate(200.873259275 371.115625)scale(0.2 -0.2)">
       <use xlink:href="#ArialMT-30"/>
      </g>
     </g>
    </g>
    <g id="xtick_6">
     <g id="line2d_19">
      <path clip-path="url(#p5bee155178)" d="
M255.152 352.8
L255.152 7.2" style="fill:none;stroke:#000000;stroke-dasharray:1.000000,3.000000;stroke-dashoffset:0.0;stroke-width:0.5;"/>
     </g>
     <g id="line2d_20">
      <g>
       <use style="stroke:#000000;stroke-width:0.5;" x="255.15235742" xlink:href="#m93b0483c22" y="352.8"/>
      </g>
     </g>
     <g id="line2d_21">
      <g>
       <use style="stroke:#000000;stroke-width:0.5;" x="255.15235742" xlink:href="#m741efc42ff" y="7.2"/>
      </g>
     </g>
     <g id="text_5">
      <!-- 2 -->
      <g transform="translate(250.41173242 371.115625)scale(0.2 -0.2)">
       <use xlink:href="#ArialMT-32"/>
      </g>
     </g>
    </g>
    <g id="xtick_7">
     <g id="line2d_22">
      <path clip-path="url(#p5bee155178)" d="
M304.764 352.8
L304.764 7.2" style="fill:none;stroke:#000000;stroke-dasharray:1.000000,3.000000;stroke-dashoffset:0.0;stroke-width:0.5;"/>
     </g>
     <g id="line2d_23">
      <g>
       <use style="stroke:#000000;stroke-width:0.5;" x="304.764268065" xlink:href="#m93b0483c22" y="352.8"/>
      </g>
     </g>
     <g id="line2d_24">
      <g>
       <use style="stroke:#000000;stroke-width:0.5;" x="304.764268065" xlink:href="#m741efc42ff" y="7.2"/>
      </g>
     </g>
     <g id="text_6">
      <!-- 4 -->
      <g transform="translate(299.812705565 371.115625)scale(0.2 -0.2)">
       <use xlink:href="#ArialMT-34"/>
      </g>
     </g>
    </g>
    <g id="xtick_8">
     <g id="line2d_25">
      <path clip-path="url(#p5bee155178)" d="
M354.376 352.8
L354.376 7.2" style="fill:none;stroke:#000000;stroke-dasharray:1.000000,3.000000;stroke-dashoffset:0.0;stroke-width:0.5;"/>
     </g>
     <g id="line2d_26">
      <g>
       <use style="stroke:#000000;stroke-width:0.5;" x="354.37617871" xlink:href="#m93b0483c22" y="352.8"/>
      </g>
     </g>
     <g id="line2d_27">
      <g>
       <use style="stroke:#000000;stroke-width:0.5;" x="354.37617871" xlink:href="#m741efc42ff" y="7.2"/>
      </g>
     </g>
     <g id="text_7">
      <!-- 6 -->
      <g transform="translate(349.64961621 371.115625)scale(0.2 -0.2)">
       <use xlink:href="#ArialMT-36"/>
      </g>
     </g>
    </g>
    <g id="xtick_9">
     <g id="line2d_28">
      <path clip-path="url(#p5bee155178)" d="
M403.988 352.8
L403.988 7.2" style="fill:none;stroke:#000000;stroke-dasharray:1.000000,3.000000;stroke-dashoffset:0.0;stroke-width:0.5;"/>
     </g>
     <g id="line2d_29">
      <g>
       <use style="stroke:#000000;stroke-width:0.5;" x="403.988089355" xlink:href="#m93b0483c22" y="352.8"/>
      </g>
     </g>
     <g id="line2d_30">
      <g>
       <use style="stroke:#000000;stroke-width:0.5;" x="403.988089355" xlink:href="#m741efc42ff" y="7.2"/>
      </g>
     </g>
     <g id="text_8">
      <!-- 8 -->
      <defs>
       <path d="
M17.6719 38.8125
Q12.2031 40.8281 9.5625 44.5312
Q6.9375 48.25 6.9375 53.4219
Q6.9375 61.2344 12.5469 66.5469
Q18.1719 71.875 27.4844 71.875
Q36.8594 71.875 42.5781 66.4219
Q48.2969 60.9844 48.2969 53.1719
Q48.2969 48.1875 45.6719 44.5
Q43.0625 40.8281 37.75 38.8125
Q44.3438 36.6719 47.7812 31.875
Q51.2188 27.0938 51.2188 20.4531
Q51.2188 11.2812 44.7188 5.03125
Q38.2344 -1.21875 27.6406 -1.21875
Q17.0469 -1.21875 10.5469 5.04688
Q4.04688 11.3281 4.04688 20.7031
Q4.04688 27.6875 7.59375 32.3906
Q11.1406 37.1094 17.6719 38.8125
M15.9219 53.7188
Q15.9219 48.6406 19.1875 45.4062
Q22.4688 42.1875 27.6875 42.1875
Q32.7656 42.1875 36.0156 45.375
Q39.2656 48.5781 39.2656 53.2188
Q39.2656 58.0625 35.9062 61.3594
Q32.5625 64.6562 27.5938 64.6562
Q22.5625 64.6562 19.2344 61.4219
Q15.9219 58.2031 15.9219 53.7188
M13.0938 20.6562
Q13.0938 16.8906 14.875 13.375
Q16.6562 9.85938 20.1719 7.92188
Q23.6875 6 27.7344 6
Q34.0312 6 38.125 10.0469
Q42.2344 14.1094 42.2344 20.3594
Q42.2344 26.7031 38.0156 30.8594
Q33.7969 35.0156 27.4375 35.0156
Q21.2344 35.0156 17.1562 30.9062
Q13.0938 26.8125 13.0938 20.6562" id="ArialMT-38"/>
      </defs>
      <g transform="translate(399.270901855 371.115625)scale(0.2 -0.2)">
       <use xlink:href="#ArialMT-38"/>
      </g>
     </g>
    </g>
    <g id="xtick_10">
     <g id="line2d_31">
      <path clip-path="url(#p5bee155178)" d="
M453.6 352.8
L453.6 7.2" style="fill:none;stroke:#000000;stroke-dasharray:1.000000,3.000000;stroke-dashoffset:0.0;stroke-width:0.5;"/>
     </g>
     <g id="line2d_32">
      <g>
       <use style="stroke:#000000;stroke-width:0.5;" x="453.6" xlink:href="#m93b0483c22" y="352.8"/>
      </g>
     </g>
     <g id="line2d_33">
      <g>
       <use style="stroke:#000000;stroke-width:0.5;" x="453.6" xlink:href="#m741efc42ff" y="7.2"/>
      </g>
     </g>
    </g>
    <g id="xtick_11"/>
    <g id="xtick_12">
     <g id="line2d_34">
      <defs>
       <path d="
M0 0
L0 -2" id="m177f7580d0" style="stroke:#000000;stroke-width:0.5;"/>
      </defs>
      <g>
       <use style="stroke:#000000;stroke-width:0.5;" x="56.70471484" xlink:href="#m177f7580d0" y="352.8"/>
      </g>
     </g>
     <g id="line2d_35">
      <defs>
       <path d="
M0 0
L0 2" id="m5284c7e2a0" style="stroke:#000000;stroke-width:0.5;"/>
      </defs>
      <g>
       <use style="stroke:#000000;stroke-width:0.5;" x="56.70471484" xlink:href="#m5284c7e2a0" y="7.2"/>
      </g>
     </g>
    </g>
    <g id="xtick_13">
     <g id="line2d_36">
      <g>
       <use style="stroke:#000000;stroke-width:0.5;" x="106.316625485" xlink:href="#m177f7580d0" y="352.8"/>
      </g>
     </g>
     <g id="line2d_37">
      <g>
       <use style="stroke:#000000;stroke-width:0.5;" x="106.316625485" xlink:href="#m5284c7e2a0" y="7.2"/>
      </g>
     </g>
    </g>
    <g id="xtick_14">
     <g id="line2d_38">
      <g>
       <use style="stroke:#000000;stroke-width:0.5;" x="155.92853613" xlink:href="#m177f7580d0" y="352.8"/>
      </g>
     </g>
     <g id="line2d_39">
      <g>
       <use style="stroke:#000000;stroke-width:0.5;" x="155.92853613" xlink:href="#m5284c7e2a0" y="7.2"/>
      </g>
     </g>
    </g>
    <g id="xtick_15">
     <g id="line2d_40">
      <g>
       <use style="stroke:#000000;stroke-width:0.5;" x="205.540446775" xlink:href="#m177f7580d0" y="352.8"/>
      </g>
     </g>
     <g id="line2d_41">
      <g>
       <use style="stroke:#000000;stroke-width:0.5;" x="205.540446775" xlink:href="#m5284c7e2a0" y="7.2"/>
      </g>
     </g>
    </g>
    <g id="xtick_16">
     <g id="line2d_42">
      <g>
       <use style="stroke:#000000;stroke-width:0.5;" x="255.15235742" xlink:href="#m177f7580d0" y="352.8"/>
      </g>
     </g>
     <g id="line2d_43">
      <g>
       <use style="stroke:#000000;stroke-width:0.5;" x="255.15235742" xlink:href="#m5284c7e2a0" y="7.2"/>
      </g>
     </g>
    </g>
    <g id="xtick_17">
     <g id="line2d_44">
      <g>
       <use style="stroke:#000000;stroke-width:0.5;" x="304.764268065" xlink:href="#m177f7580d0" y="352.8"/>
      </g>
     </g>
     <g id="line2d_45">
      <g>
       <use style="stroke:#000000;stroke-width:0.5;" x="304.764268065" xlink:href="#m5284c7e2a0" y="7.2"/>
      </g>
     </g>
    </g>
    <g id="xtick_18">
     <g id="line2d_46">
      <g>
       <use style="stroke:#000000;stroke-width:0.5;" x="354.37617871" xlink:href="#m177f7580d0" y="352.8"/>
      </g>
     </g>
     <g id="line2d_47">
      <g>
       <use style="stroke:#000000;stroke-width:0.5;" x="354.37617871" xlink:href="#m5284c7e2a0" y="7.2"/>
      </g>
     </g>
    </g>
    <g id="xtick_19">
     <g id="line2d_48">
      <g>
       <use style="stroke:#000000;stroke-width:0.5;" x="403.988089355" xlink:href="#m177f7580d0" y="352.8"/>
      </g>
     </g>
     <g id="line2d_49">
      <g>
       <use style="stroke:#000000;stroke-width:0.5;" x="403.988089355" xlink:href="#m5284c7e2a0" y="7.2"/>
      </g>
     </g>
    </g>
    <g id="xtick_20">
     <g id="line2d_50">
      <g>
       <use style="stroke:#000000;stroke-width:0.5;" x="453.6" xlink:href="#m177f7580d0" y="352.8"/>
      </g>
     </g>
     <g id="line2d_51">
      <g>
       <use style="stroke:#000000;stroke-width:0.5;" x="453.6" xlink:href="#m5284c7e2a0" y="7.2"/>
      </g>
     </g>
    </g>
    <g id="text_9">
     <!-- log10 of Df -->
     <defs>
      <path d="
M4.98438 -4.29688
L13.5312 -5.5625
Q14.0625 -9.51562 16.5 -11.3281
Q19.7812 -13.7656 25.4375 -13.7656
Q31.5469 -13.7656 34.8594 -11.3281
Q38.1875 -8.89062 39.3594 -4.5
Q40.0469 -1.8125 39.9844 6.78125
Q34.2344 0 25.6406 0
Q14.9375 0 9.07812 7.71875
Q3.21875 15.4375 3.21875 26.2188
Q3.21875 33.6406 5.90625 39.9062
Q8.59375 46.1875 13.6875 49.6094
Q18.7969 53.0312 25.6875 53.0312
Q34.8594 53.0312 40.8281 45.6094
L40.8281 51.8594
L48.9219 51.8594
L48.9219 7.03125
Q48.9219 -5.07812 46.4531 -10.125
Q44 -15.1875 38.6406 -18.1094
Q33.2969 -21.0469 25.4844 -21.0469
Q16.2188 -21.0469 10.5 -16.875
Q4.78125 -12.7031 4.98438 -4.29688
M12.25 26.8594
Q12.25 16.6562 16.2969 11.9688
Q20.3594 7.28125 26.4688 7.28125
Q32.5156 7.28125 36.6094 11.9375
Q40.7188 16.6094 40.7188 26.5625
Q40.7188 36.0781 36.5 40.9062
Q32.2812 45.75 26.3125 45.75
Q20.4531 45.75 16.3438 40.9844
Q12.25 36.2344 12.25 26.8594" id="ArialMT-67"/>
      <path d="
M8.6875 0
L8.6875 45.0156
L0.921875 45.0156
L0.921875 51.8594
L8.6875 51.8594
L8.6875 57.375
Q8.6875 62.5938 9.625 65.1406
Q10.8906 68.5625 14.0781 70.6719
Q17.2812 72.7969 23.0469 72.7969
Q26.7656 72.7969 31.25 71.9219
L29.9375 64.2656
Q27.2031 64.75 24.75 64.75
Q20.75 64.75 19.0938 63.0312
Q17.4375 61.3281 17.4375 56.6406
L17.4375 51.8594
L27.5469 51.8594
L27.5469 45.0156
L17.4375 45.0156
L17.4375 0
z
" id="ArialMT-66"/>
      <path d="
M7.71875 0
L7.71875 71.5781
L32.375 71.5781
Q40.7188 71.5781 45.125 70.5625
Q51.2656 69.1406 55.6094 65.4375
Q61.2812 60.6406 64.0781 53.1875
Q66.8906 45.75 66.8906 36.1875
Q66.8906 28.0312 64.9844 21.7344
Q63.0938 15.4375 60.1094 11.2969
Q57.125 7.17188 53.5781 4.79688
Q50.0469 2.4375 45.0469 1.21875
Q40.0469 0 33.5469 0
z

M17.1875 8.45312
L32.4688 8.45312
Q39.5469 8.45312 43.5781 9.76562
Q47.6094 11.0781 50 13.4844
Q53.375 16.8438 55.25 22.5312
Q57.125 28.2188 57.125 36.3281
Q57.125 47.5625 53.4375 53.5938
Q49.75 59.625 44.4844 61.6719
Q40.6719 63.1406 32.2344 63.1406
L17.1875 63.1406
z
" id="ArialMT-44"/>
      <path d="
M6.39062 0
L6.39062 71.5781
L15.1875 71.5781
L15.1875 0
z
" id="ArialMT-6c"/>
      <path d="
M3.32812 25.9219
Q3.32812 40.3281 11.3281 47.2656
Q18.0156 53.0312 27.6406 53.0312
Q38.3281 53.0312 45.1094 46.0156
Q51.9062 39.0156 51.9062 26.6562
Q51.9062 16.6562 48.9062 10.9062
Q45.9062 5.17188 40.1562 2
Q34.4219 -1.17188 27.6406 -1.17188
Q16.75 -1.17188 10.0312 5.8125
Q3.32812 12.7969 3.32812 25.9219
M12.3594 25.9219
Q12.3594 15.9688 16.7031 11.0156
Q21.0469 6.0625 27.6406 6.0625
Q34.1875 6.0625 38.5312 11.0312
Q42.875 16.0156 42.875 26.2188
Q42.875 35.8438 38.5 40.7969
Q34.125 45.75 27.6406 45.75
Q21.0469 45.75 16.7031 40.8125
Q12.3594 35.8906 12.3594 25.9219" id="ArialMT-6f"/>
      <path d="
M37.25 0
L28.4688 0
L28.4688 56
Q25.2969 52.9844 20.1406 49.9531
Q14.9844 46.9219 10.8906 45.4062
L10.8906 53.9062
Q18.2656 57.375 23.7812 62.2969
Q29.2969 67.2344 31.5938 71.875
L37.25 71.875
z
" id="ArialMT-31"/>
      <path id="ArialMT-20"/>
     </defs>
     <g transform="translate(181.6921875 394.65)scale(0.2 -0.2)">
      <use xlink:href="#ArialMT-6c"/>
      <use x="22.216796875" xlink:href="#ArialMT-6f"/>
      <use x="77.83203125" xlink:href="#ArialMT-67"/>
      <use x="133.447265625" xlink:href="#ArialMT-31"/>
      <use x="189.0625" xlink:href="#ArialMT-30"/>
      <use x="244.677734375" xlink:href="#ArialMT-20"/>
      <use x="272.4609375" xlink:href="#ArialMT-6f"/>
      <use x="328.076171875" xlink:href="#ArialMT-66"/>
      <use x="355.859375" xlink:href="#ArialMT-20"/>
      <use x="383.642578125" xlink:href="#ArialMT-44"/>
      <use x="455.859375" xlink:href="#ArialMT-66"/>
     </g>
    </g>
   </g>
   <g id="matplotlib.axis_2">
    <g id="ytick_1">
     <g id="line2d_52">
      <path clip-path="url(#p5bee155178)" d="
M7.2 352.8
L453.6 352.8" style="fill:none;stroke:#000000;stroke-dasharray:1.000000,3.000000;stroke-dashoffset:0.0;stroke-width:0.5;"/>
     </g>
     <g id="line2d_53">
      <defs>
       <path d="
M0 0
L4 0" id="m728421d6d4" style="stroke:#000000;stroke-width:0.5;"/>
      </defs>
      <g>
       <use style="stroke:#000000;stroke-width:0.5;" x="7.2" xlink:href="#m728421d6d4" y="352.8"/>
      </g>
     </g>
     <g id="line2d_54">
      <defs>
       <path d="
M0 0
L-4 0" id="mcb0005524f" style="stroke:#000000;stroke-width:0.5;"/>
      </defs>
      <g>
       <use style="stroke:#000000;stroke-width:0.5;" x="453.6" xlink:href="#mcb0005524f" y="352.8"/>
      </g>
     </g>
    </g>
    <g id="ytick_2">
     <g id="line2d_55">
      <path clip-path="url(#p5bee155178)" d="
M7.2 284.364
L453.6 284.364" style="fill:none;stroke:#000000;stroke-dasharray:1.000000,3.000000;stroke-dashoffset:0.0;stroke-width:0.5;"/>
     </g>
     <g id="line2d_56">
      <g>
       <use style="stroke:#000000;stroke-width:0.5;" x="7.2" xlink:href="#m728421d6d4" y="284.364356436"/>
      </g>
     </g>
     <g id="line2d_57">
      <g>
       <use style="stroke:#000000;stroke-width:0.5;" x="453.6" xlink:href="#mcb0005524f" y="284.364356436"/>
      </g>
     </g>
    </g>
    <g id="ytick_3">
     <g id="line2d_58">
      <path clip-path="url(#p5bee155178)" d="
M7.2 215.929
L453.6 215.929" style="fill:none;stroke:#000000;stroke-dasharray:1.000000,3.000000;stroke-dashoffset:0.0;stroke-width:0.5;"/>
     </g>
     <g id="line2d_59">
      <g>
       <use style="stroke:#000000;stroke-width:0.5;" x="7.2" xlink:href="#m728421d6d4" y="215.928712871"/>
      </g>
     </g>
     <g id="line2d_60">
      <g>
       <use style="stroke:#000000;stroke-width:0.5;" x="453.6" xlink:href="#mcb0005524f" y="215.928712871"/>
      </g>
     </g>
    </g>
    <g id="ytick_4">
     <g id="line2d_61">
      <path clip-path="url(#p5bee155178)" d="
M7.2 147.493
L453.6 147.493" style="fill:none;stroke:#000000;stroke-dasharray:1.000000,3.000000;stroke-dashoffset:0.0;stroke-width:0.5;"/>
     </g>
     <g id="line2d_62">
      <g>
       <use style="stroke:#000000;stroke-width:0.5;" x="7.2" xlink:href="#m728421d6d4" y="147.493069307"/>
      </g>
     </g>
     <g id="line2d_63">
      <g>
       <use style="stroke:#000000;stroke-width:0.5;" x="453.6" xlink:href="#mcb0005524f" y="147.493069307"/>
      </g>
     </g>
    </g>
    <g id="ytick_5">
     <g id="line2d_64">
      <path clip-path="url(#p5bee155178)" d="
M7.2 79.0574
L453.6 79.0574" style="fill:none;stroke:#000000;stroke-dasharray:1.000000,3.000000;stroke-dashoffset:0.0;stroke-width:0.5;"/>
     </g>
     <g id="line2d_65">
      <g>
       <use style="stroke:#000000;stroke-width:0.5;" x="7.2" xlink:href="#m728421d6d4" y="79.0574257426"/>
      </g>
     </g>
     <g id="line2d_66">
      <g>
       <use style="stroke:#000000;stroke-width:0.5;" x="453.6" xlink:href="#mcb0005524f" y="79.0574257426"/>
      </g>
     </g>
    </g>
    <g id="ytick_6">
     <g id="line2d_67">
      <path clip-path="url(#p5bee155178)" d="
M7.2 10.6218
L453.6 10.6218" style="fill:none;stroke:#000000;stroke-dasharray:1.000000,3.000000;stroke-dashoffset:0.0;stroke-width:0.5;"/>
     </g>
     <g id="line2d_68">
      <g>
       <use style="stroke:#000000;stroke-width:0.5;" x="7.2" xlink:href="#m728421d6d4" y="10.6217821782"/>
      </g>
     </g>
     <g id="line2d_69">
      <g>
       <use style="stroke:#000000;stroke-width:0.5;" x="453.6" xlink:href="#mcb0005524f" y="10.6217821782"/>
      </g>
     </g>
    </g>
   </g>
   <g id="patch_3">
    <path d="
M7.2 7.2
L453.6 7.2" style="fill:none;stroke:#000000;"/>
   </g>
   <g id="patch_4">
    <path d="
M453.6 352.8
L453.6 7.2" style="fill:none;stroke:#000000;"/>
   </g>
   <g id="patch_5">
    <path d="
M7.2 352.8
L453.6 352.8" style="fill:none;stroke:#000000;"/>
   </g>
   <g id="patch_6">
    <path d="
M7.2 352.8
L7.2 7.2" style="fill:none;stroke:#000000;"/>
   </g>
   <g id="text_10">
    <!-- {f1-f24}, 5-D -->
    <defs>
     <path d="
M30.5625 29.8906
L30.5625 21.9219
Q26.8125 21.8281 24.4375 19.875
Q22.0781 17.9219 21.2969 14.5781
Q20.5156 11.2344 20.4531 3.07812
Q20.4062 -5.07812 20.1719 -7.67188
Q19.7344 -11.8125 18.5312 -14.2812
Q17.3281 -16.75 15.5625 -18.2344
Q13.8125 -19.7344 11.0781 -20.5156
Q9.23438 -21.0469 5.03125 -21.0469
L2.29688 -21.0469
L2.29688 -13.375
L3.8125 -13.375
Q8.89062 -13.375 10.5469 -11.5469
Q12.2031 -9.71875 12.2031 -3.32812
Q12.2031 8.89062 12.6406 12.1562
Q13.4219 17.5781 15.7656 20.8281
Q18.1094 24.0781 22.4062 25.875
Q16.7969 28.5625 14.5 32.9844
Q12.2031 37.4062 12.2031 47.9062
Q12.2031 57.4219 11.9688 59.2812
Q11.625 62.5469 10.0312 63.8438
Q8.45312 65.1406 3.8125 65.1406
L2.29688 65.1406
L2.29688 72.7969
L5.03125 72.7969
Q9.8125 72.7969 11.9688 72.0156
Q15.0938 70.9531 17.1406 68.4062
Q19.1875 65.875 19.7969 62.0156
Q20.4062 58.1562 20.4531 49.3594
Q20.5156 40.5781 21.2969 37.2344
Q22.0781 33.8906 24.4375 31.9375
Q26.8125 29.9844 30.5625 29.8906" id="ArialMT-7d"/>
     <path d="
M8.89062 0
L8.89062 10.0156
L18.8906 10.0156
L18.8906 0
Q18.8906 -5.51562 16.9375 -8.90625
Q14.9844 -12.3125 10.75 -14.1562
L8.29688 -10.4062
Q11.0781 -9.1875 12.3906 -6.8125
Q13.7188 -4.4375 13.875 0
z
" id="ArialMT-2c"/>
     <path d="
M4.15625 18.75
L13.375 19.5312
Q14.4062 12.7969 18.1406 9.39062
Q21.875 6 27.1562 6
Q33.5 6 37.8906 10.7812
Q42.2812 15.5781 42.2812 23.4844
Q42.2812 31 38.0625 35.3438
Q33.8438 39.7031 27 39.7031
Q22.75 39.7031 19.3281 37.7656
Q15.9219 35.8438 13.9688 32.7656
L5.71875 33.8438
L12.6406 70.6094
L48.25 70.6094
L48.25 62.2031
L19.6719 62.2031
L15.8281 42.9688
Q22.2656 47.4688 29.3438 47.4688
Q38.7188 47.4688 45.1562 40.9688
Q51.6094 34.4688 51.6094 24.2656
Q51.6094 14.5469 45.9531 7.46875
Q39.0625 -1.21875 27.1562 -1.21875
Q17.3906 -1.21875 11.2031 4.25
Q5.03125 9.71875 4.15625 18.75" id="ArialMT-35"/>
     <path d="
M2.78125 29.8906
Q6.54688 29.9844 8.90625 31.9062
Q11.2812 33.8438 12.0625 37.2031
Q12.8438 40.5781 12.8906 48.7344
Q12.9375 56.8906 13.1875 59.4688
Q13.625 63.5781 14.8125 66.0625
Q16.0156 68.5625 17.7656 70.0469
Q19.5312 71.5312 22.2656 72.3125
Q24.125 72.7969 28.3281 72.7969
L31.0625 72.7969
L31.0625 65.1406
L29.5469 65.1406
Q24.4688 65.1406 22.7969 63.2969
Q21.1406 61.4688 21.1406 55.125
Q21.1406 42.3281 20.6094 38.9688
Q19.7344 33.7344 17.6094 30.9062
Q15.4844 28.0781 10.9375 25.875
Q16.3125 23.6406 18.7188 19.0156
Q21.1406 14.4062 21.1406 3.90625
Q21.1406 -5.60938 21.3438 -7.42188
Q21.7344 -10.75 23.3125 -12.0625
Q24.9062 -13.375 29.5469 -13.375
L31.0625 -13.375
L31.0625 -21.0469
L28.3281 -21.0469
Q23.5312 -21.0469 21.3906 -20.2656
Q18.2656 -19.1406 16.2031 -16.625
Q14.1562 -14.1094 13.5469 -10.25
Q12.9375 -6.39062 12.8906 2.39062
Q12.8438 11.1875 12.0625 14.5469
Q11.2812 17.9219 8.90625 19.875
Q6.54688 21.8281 2.78125 21.9219
z
" id="ArialMT-7b"/>
    </defs>
    <g transform="translate(337.900125 345.888)scale(0.2 -0.2)">
     <use xlink:href="#ArialMT-7b"/>
     <use x="33.3984375" xlink:href="#ArialMT-66"/>
     <use x="61.181640625" xlink:href="#ArialMT-31"/>
     <use x="116.796875" xlink:href="#ArialMT-2d"/>
     <use x="150.09765625" xlink:href="#ArialMT-66"/>
     <use x="177.880859375" xlink:href="#ArialMT-32"/>
     <use x="233.49609375" xlink:href="#ArialMT-34"/>
     <use x="289.111328125" xlink:href="#ArialMT-7d"/>
     <use x="322.509765625" xlink:href="#ArialMT-2c"/>
     <use x="350.29296875" xlink:href="#ArialMT-20"/>
     <use x="378.076171875" xlink:href="#ArialMT-35"/>
     <use x="433.69140625" xlink:href="#ArialMT-2d"/>
     <use x="466.9921875" xlink:href="#ArialMT-44"/>
    </g>
   </g>
   <g id="text_11">
    <!-- v2.0.1 -->
    <defs>
     <path d="
M21 0
L1.26562 51.8594
L10.5469 51.8594
L21.6875 20.7969
Q23.4844 15.7656 25 10.3594
Q26.1719 14.4531 28.2656 20.2188
L39.7969 51.8594
L48.8281 51.8594
L29.2031 0
z
" id="ArialMT-76"/>
     <path d="
M9.07812 0
L9.07812 10.0156
L19.0938 10.0156
L19.0938 0
z
" id="ArialMT-2e"/>
    </defs>
    <g style="fill:#808080;" transform="translate(217.76171875 347.3565)scale(0.1 -0.1)">
     <use xlink:href="#ArialMT-76"/>
     <use x="50.0" xlink:href="#ArialMT-32"/>
     <use x="105.615234375" xlink:href="#ArialMT-2e"/>
     <use x="133.3984375" xlink:href="#ArialMT-30"/>
     <use x="189.013671875" xlink:href="#ArialMT-2e"/>
     <use x="216.796875" xlink:href="#ArialMT-31"/>
    </g>
   </g>
  </g>
 </g>
 <defs>
  <clipPath id="p5bee155178">
   <rect height="345.6" width="446.4" x="7.2" y="7.2"/>
  </clipPath>
 </defs>
</svg>
