<?xml version="1.0" encoding="utf-8" standalone="no"?>
<!DOCTYPE svg PUBLIC "-//W3C//DTD SVG 1.1//EN"
  "http://www.w3.org/Graphics/SVG/1.1/DTD/svg11.dtd">
<!-- Created with matplotlib (http://matplotlib.org/) -->
<svg height="411pt" version="1.1" viewBox="0 0 514 411" width="514pt" xmlns="http://www.w3.org/2000/svg" xmlns:xlink="http://www.w3.org/1999/xlink">
 <defs>
  <style type="text/css">
*{stroke-linecap:butt;stroke-linejoin:round;}
  </style>
 </defs>
 <g id="figure_1">
  <g id="patch_1">
   <path d="
M0 411.783
L514.425 411.783
L514.425 0
L0 0
z
" style="fill:#ffffff;"/>
  </g>
  <g id="axes_1">
   <g id="patch_2">
    <path d="
M60.825 358.524
L507.225 358.524
L507.225 12.9235
L60.825 12.9235
z
" style="fill:#ffffff;"/>
   </g>
   <g id="line2d_1">
    <path clip-path="url(#p0ab5e1e507)" d="
M217.424 358.524
L217.424 353.961
L218.558 353.961
L218.558 349.399
L220.223 349.399
L220.223 344.836
L222.378 344.836
L222.378 340.274
L224.463 340.274
L224.463 335.712
L231.734 335.712
L231.734 331.149
L231.734 331.149
L231.734 326.587
L232.191 326.587
L232.191 322.025
L235.302 322.025
L235.302 317.462
L235.302 317.462
L235.302 312.9
L239.093 312.9
L239.093 308.337
L243.444 308.337
L243.444 303.775
L244.205 303.775
L244.205 299.213
L245.699 299.213
L245.699 294.65
L271.54 294.65
L271.54 290.088
L388.999 290.088
L388.999 285.526
L391.911 285.526
L391.911 280.963
L392.333 280.963
L392.333 276.401
L392.828 276.401
L392.828 271.838
L393.545 271.838
L393.545 267.276
L395.212 267.276
L395.212 262.714
L395.431 262.714
L395.431 258.151
L395.54 258.151
L395.54 253.589
L395.649 253.589
L395.649 249.027
L396.047 249.027
L396.047 244.464
L396.264 244.464
L396.264 239.902
L396.336 239.902
L396.336 235.339
L397.968 235.339
L397.968 230.777
L398.247 230.777
L398.247 226.215
L398.561 226.215
L398.561 221.652
L515.425 221.652" style="fill:none;stroke:#f5deb3;stroke-linecap:square;"/>
   </g>
   <g id="line2d_2">
    <path clip-path="url(#p0ab5e1e507)" d="
M404.145 358.524
L404.145 353.961
L412.498 353.961
L412.498 349.399
L425.896 349.399
L425.987 335.712
L429.738 335.712
L429.738 331.149
L432.116 331.149
L432.116 326.587
L432.239 326.587
L432.239 322.025
L437.675 322.025
L437.675 317.462
L437.996 317.462
L437.996 312.9
L442.846 312.9
L442.846 308.337
L442.969 308.337
L442.969 303.775
L447.651 303.775
L447.651 299.213
L452.108 299.213
L452.168 290.088
L515.425 290.088
L515.425 290.088" style="fill:none;stroke:#f5deb3;stroke-linecap:square;"/>
   </g>
   <g id="line2d_3">
    <path clip-path="url(#p0ab5e1e507)" d="
M474.299 358.524
L474.299 353.961
L479.991 353.961
L480.089 322.025
L480.109 322.025
L480.187 308.337
L480.706 308.337
L480.706 303.775
L481.654 303.775
L481.654 299.213
L482.322 299.213
L482.379 285.526
L486.016 285.526
L486.079 249.027
L486.141 249.027
L486.141 244.464
L486.418 244.464
L486.418 239.902
L487.55 239.902
L487.55 235.339
L489.492 235.339
L489.603 89.3433
L489.611 89.3433
L489.637 25.4701
L494.499 25.4701
L494.499 20.9077
L501.433 20.9077
L501.433 16.3453
L501.433 16.3453
L507.225 16.3453
L507.225 16.3453" style="fill:none;stroke:#f5deb3;stroke-linecap:square;"/>
   </g>
   <g id="line2d_4">
    <path clip-path="url(#p0ab5e1e507)" d="
M486.534 358.524
L486.534 344.836
L501.595 344.836
L501.595 331.149
L501.595 331.149
L501.595 317.462
L501.602 317.462
L501.602 303.775
L501.602 303.775
L501.602 290.088
L501.602 290.088
L501.602 276.401
L515.425 276.401" style="fill:none;stroke:#f5deb3;stroke-linecap:square;"/>
   </g>
   <g id="line2d_5">
    <path clip-path="url(#p0ab5e1e507)" d="
M253.025 358.524
L253.025 353.961
L264.757 353.961
L264.757 344.836
L268.237 344.836
L268.237 340.274
L279.675 340.274
L279.675 335.712
L280.11 335.712
L280.11 331.149
L282.034 331.149
L282.034 326.587
L283.491 326.587
L283.491 322.025
L287.095 322.025
L287.095 317.462
L289.951 317.462
L289.951 312.9
L290.508 312.9
L290.508 308.337
L291.06 308.337
L291.06 303.775
L293.043 303.775
L293.043 299.213
L299.623 299.213
L299.623 294.65
L299.783 294.65
L299.783 290.088
L371.069 290.088
L371.069 285.526
L378.866 285.526
L378.866 280.963
L379.289 280.963
L379.289 276.401
L381.088 276.401
L381.088 271.838
L384.456 271.838
L384.456 267.276
L388.23 267.276
L388.23 262.714
L395.722 262.714
L395.722 258.151
L398.907 258.151
L398.907 253.589
L400.172 253.589
L400.172 249.027
L401.247 249.027
L401.247 244.464
L401.91 244.464
L401.91 239.902
L403.666 239.902
L403.666 235.339
L410.854 235.339
L410.854 230.777
L411.397 230.777
L411.397 226.215
L411.71 226.215
L411.71 221.652
L412.386 221.652
L412.386 212.527
L412.805 212.527
L412.805 207.965
L413.608 207.965
L413.635 198.84
L413.882 198.84
L413.882 194.278
L414.101 194.278
L414.101 189.716
L415.931 189.716
L415.931 185.153
L417.323 185.153
L417.323 180.591
L417.814 180.591
L417.814 176.028
L418.148 176.028
L418.148 171.466
L418.888 171.466
L418.888 166.904
L419.694 166.904
L419.694 162.341
L459.155 162.341
L459.155 157.779
L460.073 157.779
L460.073 153.217
L461.071 153.217
L461.071 148.654
L462.066 148.654
L462.066 144.092
L463.085 144.092
L463.085 139.529
L463.722 139.529
L463.722 134.967
L464.252 134.967
L464.252 130.405
L465.311 130.405
L465.311 125.842
L465.472 125.842
L465.484 116.718
L466.463 116.718
L466.463 112.155
L467.999 112.155
L467.999 107.593
L468.425 107.593
L468.425 103.03
L468.613 103.03
L468.613 98.4681
L471.328 98.4681
L471.328 93.9057
L493.283 93.9057
L493.283 89.3433
L494.514 89.3433
L494.601 80.2186
L495.187 80.2186
L495.187 75.6562
L495.374 75.6562
L495.374 71.0938
L498.036 71.0938
L498.036 66.5315
L498.74 66.5315
L498.74 61.9691
L498.932 61.9691
L498.932 57.4067
L501.638 57.4067
L501.638 52.8443
L502.178 52.8443
L502.178 48.2819
L502.346 48.2819
L502.346 43.7196
L503.122 43.7196
L503.122 39.1572
L510.551 39.1572
L510.551 34.5948
L514.378 34.5948
L514.378 30.0324
L515.425 30.0324
L515.425 30.0324" style="fill:none;stroke:#f5deb3;stroke-linecap:square;"/>
   </g>
   <g id="line2d_6">
    <path clip-path="url(#p0ab5e1e507)" d="
M240.309 358.524
L240.309 353.961
L242.286 353.961
L242.286 349.399
L243.444 349.399
L243.444 344.836
L244.956 344.836
L244.956 340.274
L245.329 340.274
L245.329 335.712
L245.329 335.712
L245.329 331.149
L245.699 331.149
L245.699 326.587
L246.068 326.587
L246.068 322.025
L246.798 322.025
L246.798 317.462
L246.798 317.462
L246.798 312.9
L246.798 312.9
L246.798 308.337
L246.798 308.337
L246.798 303.775
L247.16 303.775
L247.16 299.213
L247.52 299.213
L247.52 294.65
L247.52 294.65
L247.52 290.088
L338.471 290.088
L338.471 285.526
L339.777 285.526
L339.777 280.963
L341.646 280.963
L341.646 276.401
L342.312 276.401
L342.312 271.838
L342.89 271.838
L342.89 267.276
L345.938 267.276
L345.938 262.714
L346.173 262.714
L346.173 258.151
L346.329 258.151
L346.329 253.589
L346.949 253.589
L346.949 249.027
L347.868 249.027
L347.868 244.464
L348.096 244.464
L348.096 239.902
L348.247 239.902
L348.247 235.339
L349.816 235.339
L349.816 230.777
L350.257 230.777
L350.257 226.215
L350.549 226.215
L350.549 221.652
L361.835 221.652
L361.835 217.09
L365.7 217.09
L365.7 212.527
L366.16 212.527
L366.16 207.965
L368.024 207.965
L368.024 203.403
L368.523 203.403
L368.523 198.84
L369.128 198.84
L369.128 194.278
L370.16 194.278
L370.16 189.716
L371.282 189.716
L371.282 185.153
L371.756 185.153
L371.756 180.591
L374.332 180.591
L374.332 176.028
L382.349 176.028
L382.349 171.466
L385.399 171.466
L385.399 166.904
L389.958 166.904
L389.958 162.341
L515.425 162.341" style="fill:none;stroke:#f5deb3;stroke-linecap:square;"/>
   </g>
   <g id="line2d_7">
    <path clip-path="url(#p0ab5e1e507)" d="
M335.868 358.524
L335.868 353.961
L335.868 353.961
L335.868 349.399
L340.377 349.399
L340.377 344.836
L342.229 344.836
L342.229 340.274
L344.672 340.274
L344.672 335.712
L357.265 335.712
L357.265 331.149
L363.707 331.149
L363.707 326.587
L363.767 326.587
L363.767 322.025
L364.123 322.025
L364.123 317.462
L366.844 317.462
L366.844 312.9
L371.387 312.9
L371.387 308.337
L377.726 308.337
L377.726 303.775
L382.572 303.775
L382.572 299.213
L383.059 299.213
L383.059 294.65
L388.189 294.65
L388.189 290.088
L404.716 290.088
L404.716 285.526
L409.783 285.526
L409.783 280.963
L410.045 280.963
L410.045 276.401
L410.335 276.401
L410.335 271.838
L410.509 271.838
L410.509 267.276
L410.682 267.276
L410.682 262.714
L410.682 262.714
L410.682 258.151
L410.883 258.151
L410.883 253.589
L411.312 253.589
L411.312 249.027
L411.511 249.027
L411.511 244.464
L411.795 244.464
L411.795 239.902
L413.221 239.902
L413.221 235.339
L413.277 235.339
L413.277 230.777
L413.827 230.777
L413.827 226.215
L414.996 226.215
L414.996 221.652
L515.425 221.652" style="fill:none;stroke:#f5deb3;stroke-linecap:square;"/>
   </g>
   <g id="line2d_8">
    <path clip-path="url(#p0ab5e1e507)" d="
M206.884 358.524
L206.884 353.961
L216.849 353.961
L216.849 349.399
L218.558 349.399
L218.558 344.836
L219.672 344.836
L219.672 340.274
L221.309 340.274
L221.309 335.712
L222.905 335.712
L222.905 331.149
L226.979 331.149
L226.979 326.587
L231.274 326.587
L231.274 322.025
L231.734 322.025
L231.734 317.462
L234.428 317.462
L234.428 312.9
L239.906 312.9
L239.906 308.337
L245.699 308.337
L245.699 303.775
L246.068 303.775
L246.068 299.213
L257.177 299.213
L257.177 294.65
L266.654 294.65
L266.654 290.088
L377.63 290.088
L377.63 285.526
L378.536 285.526
L378.536 280.963
L380.033 280.963
L380.033 276.401
L380.171 276.401
L380.171 271.838
L381.812 271.838
L381.812 267.276
L382.17 267.276
L382.17 262.714
L383.499 262.714
L383.499 258.151
L384.109 258.151
L384.109 253.589
L384.24 253.589
L384.24 249.027
L385.527 249.027
L385.527 244.464
L385.992 244.464
L385.992 239.902
L386.329 239.902
L386.329 235.339
L387.245 235.339
L387.245 230.777
L388.352 230.777
L388.352 226.215
L389.481 226.215
L389.481 221.652
L389.481 221.652
L389.481 221.652
L507.225 221.652" style="fill:none;stroke:#f5deb3;stroke-linecap:square;"/>
   </g>
   <g id="line2d_9">
    <path clip-path="url(#p0ab5e1e507)" d="
M521.795 358.524" style="fill:none;stroke:#f5deb3;stroke-linecap:square;"/>
   </g>
   <g id="line2d_10">
    <path clip-path="url(#p0ab5e1e507)" d="
M154.964 358.524
L154.964 353.961
L154.964 353.961
L154.964 349.399
L154.964 349.399
L154.964 344.836
L154.964 344.836
L154.964 340.274
L154.964 340.274
L154.964 335.712
L154.964 335.712
L154.964 331.149
L154.964 331.149
L154.964 326.587
L154.964 326.587
L154.964 322.025
L154.964 322.025
L154.964 317.462
L154.964 317.462
L154.964 312.9
L154.964 312.9
L154.964 308.337
L154.964 308.337
L154.964 303.775
L154.964 303.775
L154.964 299.213
L154.964 299.213
L154.964 294.65
L154.964 294.65
L154.964 290.088
L199.017 290.088
L199.017 285.526
L213.29 285.526
L213.29 280.963
L213.29 280.963
L213.29 276.401
L213.29 276.401
L213.29 271.838
L213.29 271.838
L213.29 267.276
L213.29 267.276
L213.29 262.714
L213.29 262.714
L213.29 258.151
L213.29 258.151
L213.29 253.589
L213.29 253.589
L213.29 249.027
L213.29 249.027
L213.29 244.464
L224.974 244.464
L224.974 239.902
L224.974 239.902
L224.974 235.339
L224.974 235.339
L224.974 230.777
L224.974 230.777
L224.974 226.215
L243.444 226.215
L243.444 221.652
L499.115 221.652
L499.115 217.09
L501.384 217.09
L501.384 212.527
L504.996 212.527
L504.996 207.965
L513.504 207.965
L513.504 203.403
L513.656 203.403
L513.656 198.84
L514.638 198.84
L514.638 194.278
L515.425 194.278" style="fill:none;stroke:#f5deb3;stroke-linecap:square;"/>
   </g>
   <g id="line2d_11">
    <path clip-path="url(#p0ab5e1e507)" d="
M267.976 358.524
L267.976 353.961
L272.767 353.961
L272.767 349.399
L279.237 349.399
L279.237 344.836
L283.078 344.836
L283.078 340.274
L287.676 340.274
L287.676 335.712
L291.969 335.712
L291.969 331.149
L292.149 331.149
L292.149 326.587
L293.043 326.587
L293.043 322.025
L294.622 322.025
L294.622 317.462
L295.14 317.462
L295.14 312.9
L299.783 312.9
L299.783 308.337
L300.103 308.337
L300.103 303.775
L301.208 303.775
L301.208 299.213
L306.754 299.213
L306.754 294.65
L328.3 294.65
L328.3 290.088
L393.357 290.088
L393.357 285.526
L404.905 285.526
L404.905 280.963
L404.905 280.963
L404.905 276.401
L405.935 276.401
L405.935 271.838
L406.919 271.838
L406.919 267.276
L407.918 267.276
L407.918 262.714
L411.823 262.714
L411.823 258.151
L412.161 258.151
L412.161 253.589
L412.526 253.589
L412.526 249.027
L413.47 249.027
L413.47 244.464
L415.559 244.464
L415.559 239.902
L420.589 239.902
L420.589 235.339
L421.057 235.339
L421.057 230.777
L423.98 230.777
L423.98 226.215
L427.89 226.215
L427.89 221.652
L448.602 221.652
L448.602 217.09
L451.468 217.09
L451.468 212.527
L457.516 212.527
L457.516 207.965
L457.989 207.965
L457.989 203.403
L458.485 203.403
L458.485 198.84
L461.57 198.84
L461.57 194.278
L461.988 194.278
L461.988 189.716
L462.829 189.716
L462.829 185.153
L463.034 185.153
L463.034 180.591
L463.162 180.591
L463.162 176.028
L463.404 176.028
L463.404 171.466
L464.139 171.466
L464.139 166.904
L467.248 166.904
L467.248 162.341
L470.773 162.341
L470.773 157.779
L475.271 157.779
L475.271 153.217
L475.271 153.217
L475.271 153.217
L507.225 153.217" style="fill:none;stroke:#f5deb3;stroke-linecap:square;"/>
   </g>
   <g id="line2d_12">
    <path clip-path="url(#p0ab5e1e507)" d="
M256.242 358.524
L256.242 353.961
L258.402 353.961
L258.402 349.399
L262.518 349.399
L262.518 344.836
L263.647 344.836
L263.647 340.274
L263.926 340.274
L263.926 335.712
L264.757 335.712
L264.757 331.149
L266.386 331.149
L266.386 326.587
L266.654 326.587
L266.654 322.025
L268.237 322.025
L268.237 317.462
L273.251 317.462
L273.251 312.9
L274.446 312.9
L274.446 308.337
L279.017 308.337
L279.017 303.775
L280.543 303.775
L280.543 299.213
L283.285 299.213
L283.285 294.65
L285.518 294.65
L285.518 290.088
L387.575 290.088
L387.575 285.526
L393.994 285.526
L393.994 280.963
L395.175 280.963
L395.175 276.401
L397.827 276.401
L397.827 271.838
L400.879 271.838
L400.879 267.276
L401.28 267.276
L401.28 262.714
L404.177 262.714
L404.177 258.151
L406.244 258.151
L406.244 253.589
L407.677 253.589
L407.677 249.027
L408.068 249.027
L408.068 244.464
L415.291 244.464
L415.291 239.902
L415.452 239.902
L415.452 235.339
L416.037 235.339
L416.037 230.777
L417.297 230.777
L417.297 226.215
L420.688 226.215
L420.688 221.652
L421.106 221.652
L421.106 217.09
L421.715 217.09
L421.715 212.527
L421.982 212.527
L421.982 207.965
L423.06 207.965
L423.131 198.84
L423.746 198.84
L423.746 194.278
L424.237 194.278
L424.237 189.716
L424.888 189.716
L424.888 185.153
L425.21 185.153
L425.21 180.591
L425.76 180.591
L425.76 176.028
L426.598 176.028
L426.688 166.904
L430.674 166.904
L430.674 162.341
L506.209 162.341
L506.209 157.779
L506.477 157.779
L506.477 153.217
L506.784 153.217
L506.784 148.654
L507.759 148.654
L507.759 144.092
L509.336 144.092
L509.336 139.529
L511.393 139.529
L511.393 134.967
L511.756 134.967
L511.756 130.405
L512.086 130.405
L512.086 125.842
L512.677 125.842
L512.677 121.28
L513.48 121.28
L513.516 112.155
L515.425 112.155
L515.425 112.155" style="fill:none;stroke:#f5deb3;stroke-linecap:square;"/>
   </g>
   <g id="line2d_13">
    <path clip-path="url(#p0ab5e1e507)" d="
M382.081 358.524
L382.081 353.961
L387.328 353.961
L387.328 349.399
L391.332 349.399
L391.332 344.836
L393.244 344.836
L393.244 340.274
L394.217 340.274
L394.217 335.712
L395.722 335.712
L395.794 326.587
L396.658 326.587
L396.658 322.025
L401.013 322.025
L401.013 317.462
L401.513 317.462
L401.513 312.9
L408.605 312.9
L408.605 308.337
L411.369 308.337
L411.369 303.775
L411.823 303.775
L411.823 299.213
L412.02 299.213
L412.02 294.65
L412.554 294.65
L412.554 290.088
L413.69 290.088
L413.773 280.963
L414.319 280.963
L414.319 276.401
L415.931 276.401
L415.931 271.838
L419.141 271.838
L419.141 267.276
L421.982 267.276
L421.982 262.714
L423.226 262.714
L423.226 258.151
L423.604 258.151
L423.604 253.589
L424.679 253.589
L424.679 249.027
L425.828 249.027
L425.828 244.464
L426.485 244.464
L426.485 239.902
L427.824 239.902
L427.824 235.339
L428.788 235.339
L428.788 226.215
L428.962 226.215
L428.962 221.652
L429.113 221.652
L429.113 217.09
L430.335 217.09
L430.335 212.527
L430.801 212.527
L430.801 207.965
L432.425 207.965
L432.425 203.403
L433.788 203.403
L433.788 198.84
L434.767 198.84
L434.767 194.278
L434.985 194.278
L434.985 189.716
L435.438 189.716
L435.438 185.153
L436.257 185.153
L436.257 180.591
L439.599 180.591
L439.599 176.028
L445.352 176.028
L445.386 166.904
L447.537 166.904
L447.537 162.341
L448.714 162.341
L448.714 157.779
L449.017 157.779
L449.017 153.217
L515.425 153.217
L515.425 153.217" style="fill:none;stroke:#f5deb3;stroke-linecap:square;"/>
   </g>
   <g id="line2d_14">
    <path clip-path="url(#p0ab5e1e507)" d="
M389.64 358.524
L389.64 353.961
L390.668 353.961
L390.668 349.399
L394.328 349.399
L394.328 344.836
L395.212 344.836
L395.212 340.274
L395.358 340.274
L395.358 335.712
L395.685 335.712
L395.722 326.587
L396.694 326.587
L396.694 317.462
L397.933 317.462
L397.933 312.9
L399.183 312.9
L399.183 308.337
L399.833 308.337
L399.833 303.775
L401.313 303.775
L401.313 299.213
L401.612 299.213
L401.612 294.65
L417.763 294.65
L417.763 290.088
L446.388 290.088
L446.388 285.526
L456.006 285.526
L456.006 280.963
L458.334 280.963
L458.334 276.401
L458.568 276.401
L458.568 271.838
L459.073 271.838
L459.073 267.276
L471.989 267.276
L471.989 262.714
L478.968 262.714
L478.968 258.151
L479.476 258.151
L479.476 253.589
L482.871 253.589
L482.899 244.464
L483.181 244.464
L483.181 239.902
L488.377 239.902
L488.377 235.339
L489.739 235.339
L489.739 230.777
L495.892 230.777
L495.892 226.215
L496.666 226.215
L496.666 221.652
L496.84 221.652
L496.84 217.09
L497.068 217.09
L497.068 212.527
L497.513 212.527
L497.513 207.965
L497.999 207.965
L497.999 203.403
L498.222 203.403
L498.274 194.278
L498.578 194.278
L498.578 189.716
L499.02 189.716
L499.02 185.153
L499.539 185.153
L499.539 180.591
L499.96 180.591
L499.96 176.028
L502.998 176.028
L502.998 171.466
L503.827 171.466
L503.902 162.341
L504.39 162.341
L504.39 157.779
L506.241 157.779
L506.294 148.654
L509.953 148.654
L509.953 144.092
L510.434 144.092
L510.434 139.529
L510.668 139.529
L510.668 134.967
L510.986 134.967
L510.986 130.405
L511.393 130.405
L511.393 125.842
L515.425 125.842
L515.425 125.842" style="fill:none;stroke:#f5deb3;stroke-linecap:square;"/>
   </g>
   <g id="line2d_15">
    <path clip-path="url(#p0ab5e1e507)" d="
M398.422 358.524
L398.422 353.961
L398.422 353.961
L398.422 349.399
L399.457 349.399
L399.457 344.836
L399.457 344.836
L399.457 340.274
L401.013 340.274
L401.013 335.712
L401.18 335.712
L401.18 331.149
L401.18 331.149
L401.18 326.587
L401.18 326.587
L401.18 322.025
L402.074 322.025
L402.074 317.462
L404.716 317.462
L404.716 312.9
L404.716 312.9
L404.716 308.337
L404.716 308.337
L404.716 303.775
L404.842 303.775
L404.842 299.213
L404.842 299.213
L404.842 294.65
L404.842 294.65
L404.842 290.088
L404.842 290.088
L404.842 290.088
L507.225 290.088" style="fill:none;stroke:#f5deb3;stroke-linecap:square;"/>
   </g>
   <g id="line2d_16">
    <path clip-path="url(#p0ab5e1e507)" d="
M264.204 358.524
L264.204 353.961
L264.204 353.961
L264.204 349.399
L264.204 349.399
L264.204 344.836
L264.204 344.836
L264.204 340.274
L264.481 340.274
L264.481 335.712
L264.757 335.712
L264.757 331.149
L264.757 331.149
L264.757 326.587
L264.757 326.587
L264.757 322.025
L264.757 322.025
L264.757 317.462
L264.757 317.462
L264.757 312.9
L264.757 312.9
L264.757 308.337
L264.757 308.337
L264.757 303.775
L264.757 303.775
L264.757 299.213
L264.757 299.213
L264.757 294.65
L265.031 294.65
L265.031 290.088
L265.304 290.088
L265.304 285.526
L265.848 285.526
L265.848 280.963
L268.498 280.963
L268.498 276.401
L269.528 276.401
L269.528 271.838
L271.54 271.838
L271.54 267.276
L271.54 267.276
L271.54 262.714
L272.279 262.714
L272.279 258.151
L272.523 258.151
L272.523 253.589
L272.767 253.589
L272.767 249.027
L273.971 249.027
L273.971 244.464
L274.209 244.464
L274.209 239.902
L274.918 239.902
L274.918 235.339
L277 235.339
L277 230.777
L280.543 230.777
L280.543 226.215
L283.285 226.215
L283.285 221.652
L283.285 221.652
L283.285 221.652
L507.225 221.652" style="fill:none;stroke:#f5deb3;stroke-linecap:square;"/>
   </g>
   <g id="line2d_17">
    <path clip-path="url(#p0ab5e1e507)" d="
M503.204 358.524
L503.204 353.961
L511.381 353.961
L511.381 349.399
L515.326 349.399
L515.326 344.836
L515.425 344.836" style="fill:none;stroke:#f5deb3;stroke-linecap:square;"/>
   </g>
   <g id="line2d_18">
    <path clip-path="url(#p0ab5e1e507)" d="
M237.435 358.524
L237.435 353.961
L245.699 353.961
L245.699 349.399
L246.434 349.399
L246.434 344.836
L251.355 344.836
L251.355 340.274
L260.786 340.274
L260.786 335.712
L264.481 335.712
L264.481 331.149
L266.118 331.149
L266.118 326.587
L266.921 326.587
L266.921 322.025
L274.209 322.025
L274.209 317.462
L277.227 317.462
L277.227 312.9
L279.237 312.9
L279.237 308.337
L282.244 308.337
L282.244 303.775
L285.118 303.775
L285.118 299.213
L289.578 299.213
L289.578 294.65
L300.578 294.65
L300.578 290.088
L387.985 290.088
L387.985 285.526
L389.481 285.526
L389.481 280.963
L392.295 280.963
L392.295 276.401
L392.942 276.401
L392.942 271.838
L397.263 271.838
L397.263 267.276
L399.935 267.276
L399.935 262.714
L399.935 262.714
L399.935 258.151
L400.274 258.151
L400.274 253.589
L400.274 253.589
L400.274 249.027
L400.443 249.027
L400.443 244.464
L400.946 244.464
L400.946 239.902
L404.399 239.902
L404.399 235.339
L405.125 235.339
L405.125 230.777
L407.041 230.777
L407.041 226.215
L416.354 226.215
L416.354 221.652
L515.425 221.652" style="fill:none;stroke:#f5deb3;stroke-linecap:square;"/>
   </g>
   <g id="line2d_19">
    <path clip-path="url(#p0ab5e1e507)" d="
M626.962 358.524" style="fill:none;stroke:#f5deb3;stroke-linecap:square;"/>
   </g>
   <g id="line2d_20">
    <path clip-path="url(#p0ab5e1e507)" d="
M333.822 358.524
L333.822 353.961
L344.832 353.961
L344.832 349.399
L347.18 349.399
L347.18 344.836
L348.323 344.836
L348.323 340.274
L350.257 340.274
L350.257 335.712
L353.334 335.712
L353.334 331.149
L355.802 331.149
L355.802 326.587
L370.214 326.587
L370.214 322.025
L482.141 322.025
L482.141 317.462
L485.212 317.462
L485.212 312.9
L485.647 312.9
L485.647 308.337
L488.61 308.337
L488.61 303.775
L494.467 303.775
L494.467 299.213
L495.312 299.213
L495.312 294.65
L495.599 294.65
L495.599 290.088
L500.421 290.088
L500.421 285.526
L512.266 285.526
L512.266 280.963
L512.642 280.963
L512.642 276.401
L515.425 276.401" style="fill:none;stroke:#f5deb3;stroke-linecap:square;"/>
   </g>
   <g id="line2d_21">
    <path clip-path="url(#p0ab5e1e507)" d="
M289.39 358.524
L289.39 353.961
L290.692 353.961
L290.692 349.399
L291.243 349.399
L291.243 344.836
L292.508 344.836
L292.508 335.712
L292.866 335.712
L292.866 331.149
L293.043 331.149
L293.043 326.587
L293.221 326.587
L293.221 322.025
L293.398 322.025
L293.398 317.462
L293.925 317.462
L293.925 312.9
L294.968 312.9
L294.968 308.337
L295.654 308.337
L295.654 299.213
L296.164 299.213
L296.164 294.65
L296.669 294.65
L296.669 285.526
L297.004 285.526
L297.004 280.963
L297.171 280.963
L297.171 276.401
L297.337 276.401
L297.337 271.838
L297.834 271.838
L297.834 267.276
L298.816 267.276
L298.816 262.714
L299.463 262.714
L299.463 258.151
L299.623 258.151
L299.623 253.589
L299.783 253.589
L299.783 249.027
L299.943 249.027
L299.943 244.464
L300.262 244.464
L300.262 239.902
L301.208 239.902
L301.208 235.339
L301.364 235.339
L301.364 230.777
L301.52 230.777
L301.52 226.215
L301.986 226.215
L301.986 221.652
L303.059 221.652
L303.059 212.527
L303.514 212.527
L303.514 207.965
L304.115 207.965
L304.115 203.403
L305.154 203.403
L305.154 198.84
L305.595 198.84
L305.595 194.278
L307.041 194.278
L307.041 189.716
L308.595 189.716
L308.595 185.153
L309.013 185.153
L309.013 180.591
L309.29 180.591
L309.29 176.028
L310.385 176.028
L310.385 171.466
L311.195 171.466
L311.195 166.904
L311.463 166.904
L311.463 162.341
L325.781 162.341
L325.781 157.779
L330.724 157.779
L330.724 89.3433
L384.066 89.3433
L384.066 84.781
L405.842 84.781
L405.842 80.2186
L475.851 80.2186
L475.851 75.6562
L515.425 75.6562
L515.425 75.6562" style="fill:none;stroke:#f5deb3;stroke-linecap:square;"/>
   </g>
   <g id="line2d_22"/>
   <g id="line2d_23">
    <path clip-path="url(#p0ab5e1e507)" d="
M340.972 358.524
L340.972 353.961
L344.911 353.961
L344.911 349.399
L345.702 349.399
L345.702 344.836
L346.949 344.836
L346.949 340.274
L361.589 340.274
L361.589 335.712
L363.229 335.712
L363.229 331.149
L363.588 331.149
L363.588 326.587
L368.191 326.587
L368.191 322.025
L377.003 322.025
L377.003 317.462
L382.971 317.462
L382.971 312.9
L384.326 312.9
L384.326 308.337
L390.59 308.337
L390.59 303.775
L391.603 303.775
L391.603 299.213
L395.685 299.213
L395.685 294.65
L483.583 294.65
L483.583 290.088
L515.425 290.088
L515.425 290.088" style="fill:none;stroke:#f5deb3;stroke-linecap:square;"/>
   </g>
   <g id="line2d_24">
    <path clip-path="url(#p0ab5e1e507)" d="
M443.421 358.524
L443.421 353.961
L450.899 353.961
L450.899 349.399
L450.899 349.399
L450.899 344.836
L451.053 344.836
L451.053 340.274
L454.241 340.274
L454.241 335.712
L469.904 335.712
L469.904 331.149
L477.017 331.149
L477.017 326.587
L481.874 326.587
L481.874 322.025
L483.825 322.025
L483.825 317.462
L484.214 317.462
L484.214 312.9
L492.581 312.9
L492.581 308.337
L495.638 308.337
L495.638 303.775
L499.684 303.775
L499.684 299.213
L512.044 299.213
L512.044 294.65
L515.425 294.65" style="fill:none;stroke:#f5deb3;stroke-linecap:square;"/>
   </g>
   <g id="line2d_25">
    <path clip-path="url(#p0ab5e1e507)" d="
M262.802 358.524
L262.802 353.961
L276.083 353.961
L276.083 349.399
L277.227 349.399
L277.227 344.836
L278.128 344.836
L278.128 340.274
L278.351 340.274
L278.351 335.712
L279.017 335.712
L279.017 331.149
L280.11 331.149
L280.11 322.025
L280.543 322.025
L280.543 317.462
L286.311 317.462
L286.311 312.9
L288.253 312.9
L288.253 308.337
L289.951 308.337
L289.951 303.775
L291.607 303.775
L291.607 299.213
L300.736 299.213
L300.736 290.088
L393.77 290.088
L393.77 285.526
L397.192 285.526
L397.192 280.963
L400.003 280.963
L400.003 276.401
L402.923 276.401
L402.923 271.838
L403.762 271.838
L403.762 267.276
L407.828 267.276
L407.828 262.714
L409.491 262.714
L409.491 258.151
L412.161 258.151
L412.161 249.027
L419.694 249.027
L419.769 239.902
L421.375 239.902
L421.375 235.339
L422.175 235.339
L422.175 230.777
L423.793 230.777
L423.793 226.215
L423.933 226.215
L423.933 221.652
L424.191 221.652
L424.191 217.09
L424.377 217.09
L424.377 212.527
L424.679 212.527
L424.679 207.965
L424.841 207.965
L424.841 203.403
L425.256 203.403
L425.279 194.278
L426.237 194.278
L426.237 189.716
L426.867 189.716
L426.867 180.591
L427.469 180.591
L427.469 176.028
L429.048 176.028
L429.048 171.466
L429.415 171.466
L429.415 166.904
L429.631 166.904
L429.631 162.341
L429.93 162.341
L429.93 157.779
L431.43 157.779
L431.43 153.217
L491.213 153.217
L491.213 148.654
L494.671 148.654
L494.671 144.092
L497.392 144.092
L497.392 139.529
L511.211 139.529
L511.211 134.967
L515.425 134.967
L515.425 134.967" style="fill:none;stroke:#f5deb3;stroke-linecap:square;"/>
   </g>
   <g id="line2d_26">
    <path clip-path="url(#p0ab5e1e507)" d="
M489.083 358.524
L489.083 353.961
L489.28 353.961
L489.28 349.399
L489.866 349.399
L489.866 344.836
L490.438 344.836
L490.438 340.274
L490.488 340.274
L490.488 335.712
L490.947 335.712
L490.947 331.149
L491.436 331.149
L491.436 326.587
L492.993 326.587
L492.993 322.025
L493.866 322.025
L493.866 317.462
L494.671 317.462
L494.671 312.9
L495.289 312.9
L495.289 308.337
L497.887 308.337
L497.887 303.775
L498.718 303.775
L498.718 299.213
L500.277 299.213
L500.277 294.65
L515.425 294.65" style="fill:none;stroke:#f5deb3;stroke-linecap:square;"/>
   </g>
   <g id="line2d_27">
    <path clip-path="url(#p0ab5e1e507)" d="
M297.337 358.524
L297.337 353.961
L297.503 353.961
L297.503 349.399
L297.669 349.399
L297.669 344.836
L297.834 344.836
L297.834 340.274
L304.115 340.274
L304.115 322.025
L304.265 322.025
L304.265 317.462
L310.249 317.462
L310.249 308.337
L310.656 308.337
L310.656 303.775
L316.473 303.775
L316.473 299.213
L321.122 299.213
L321.122 294.65
L330.625 294.65
L330.625 290.088
L469.858 290.088
L469.858 285.526
L470.841 285.526
L470.841 280.963
L470.966 280.963
L470.966 276.401
L472.056 276.401
L472.056 271.838
L472.167 271.838
L472.167 267.276
L472.522 267.276
L472.522 262.714
L473.094 262.714
L473.182 253.589
L474.75 253.589
L474.75 249.027
L477.766 249.027
L477.766 244.464
L481.634 244.464
L481.634 239.902
L481.865 239.902
L481.865 235.339
L482.084 235.339
L482.122 226.215
L482.246 226.215
L482.246 221.652
L482.663 221.652
L482.663 217.09
L483.312 217.09
L483.312 212.527
L484.094 212.527
L484.094 207.965
L484.756 207.965
L484.756 203.403
L485.157 203.403
L485.157 198.84
L486.07 198.84
L486.07 194.278
L487.734 194.278
L487.734 189.716
L488.004 189.716
L488.091 180.591
L488.877 180.591
L488.877 176.028
L495.529 176.028
L495.529 171.466
L499.108 171.466
L499.108 166.904
L506.706 166.904
L506.706 162.341
L515.425 162.341
L515.425 162.341" style="fill:none;stroke:#f5deb3;stroke-linecap:square;"/>
   </g>
   <g id="line2d_28">
    <path clip-path="url(#p0ab5e1e507)" d="
M305.301 358.524
L305.301 353.961
L307.326 353.961
L307.326 349.399
L316.225 349.399
L316.225 340.274
L321.007 340.274
L321.007 335.712
L328.506 335.712
L328.506 331.149
L333.633 331.149
L333.633 326.587
L509.142 326.587
L509.142 322.025
L509.299 322.025
L509.299 317.462
L509.53 317.462
L509.53 312.9
L509.773 312.9
L509.792 303.775
L510.649 303.775
L510.649 299.213
L511.369 299.213
L511.369 294.65
L515.425 294.65
L515.425 294.65" style="fill:none;stroke:#f5deb3;stroke-linecap:square;"/>
   </g>
   <g id="line2d_29">
    <path clip-path="url(#p0ab5e1e507)" d="
M150.289 358.524
L150.289 353.961
L150.289 353.961
L150.289 349.399
L150.289 349.399
L150.289 344.836
L150.289 344.836
L150.289 340.274
L150.289 340.274
L150.289 335.712
L150.289 335.712
L150.289 331.149
L151.885 331.149
L151.885 326.587
L151.885 326.587
L151.885 322.025
L151.885 322.025
L151.885 317.462
L151.885 317.462
L151.885 312.9
L151.885 312.9
L151.885 308.337
L151.885 308.337
L151.885 303.775
L151.885 303.775
L151.885 299.213
L151.885 299.213
L151.885 294.65
L151.885 294.65
L151.885 290.088
L182.662 290.088
L182.662 285.526
L182.662 285.526
L182.662 280.963
L182.662 280.963
L182.662 276.401
L290.692 276.401
L290.692 271.838
L290.692 271.838
L290.692 267.276
L290.692 267.276
L290.692 262.714
L291.607 262.714
L291.607 258.151
L291.607 258.151
L291.607 253.589
L291.607 253.589
L291.607 249.027
L292.329 249.027
L292.329 244.464
L292.329 244.464
L292.329 239.902
L292.329 239.902
L292.329 235.339
L292.687 235.339
L292.687 230.777
L292.687 230.777
L292.687 226.215
L292.687 226.215
L292.687 221.652
L327.783 221.652
L327.783 217.09
L327.783 217.09
L327.783 212.527
L327.783 212.527
L327.783 207.965
L330.127 207.965
L330.127 203.403
L330.127 203.403
L330.127 198.84
L330.127 198.84
L330.127 194.278
L345.702 194.278
L345.702 189.716
L345.702 189.716
L345.702 185.153
L345.702 185.153
L345.702 180.591
L399.901 180.591
L399.901 176.028
L399.901 176.028
L399.901 171.466
L399.901 171.466
L399.901 166.904
L484.38 166.904
L484.38 162.341
L484.38 162.341
L484.38 157.779
L484.38 157.779
L484.38 153.217
L515.425 153.217" style="fill:none;stroke:#f5deb3;stroke-linecap:square;"/>
   </g>
   <g id="line2d_30">
    <path clip-path="url(#p0ab5e1e507)" d="
M1.43787 358.524
L1.43787 353.961
L15.863 353.961
L15.863 349.399
L53.8606 349.399
L53.8606 340.274
L98.6693 340.274
L98.6693 335.712
L124.881 335.712
L124.881 331.149
L139.783 331.149
L139.783 322.025
L143.478 322.025
L143.478 317.462
L162.075 317.462
L162.075 312.9
L168.481 312.9
L168.481 303.775
L169.689 303.775
L169.689 299.213
L173.184 299.213
L173.184 294.65
L174.309 294.65
L174.309 290.088
L176.5 290.088
L176.5 285.526
L179.654 285.526
L179.654 280.963
L185.535 280.963
L185.535 271.838
L187.382 271.838
L187.382 267.276
L194.284 267.276
L194.284 262.714
L195.901 262.714
L195.901 258.151
L200.52 258.151
L200.52 253.589
L202.712 253.589
L202.712 249.027
L203.426 249.027
L203.426 244.464
L206.884 244.464
L206.884 239.902
L207.554 239.902
L207.554 235.339
L208.873 235.339
L208.873 221.652
L212.677 221.652
L212.677 217.09
L213.897 217.09
L213.897 203.403
L214.498 203.403
L214.498 198.84
L215.094 198.84
L215.094 194.278
L219.117 194.278
L219.117 189.716
L220.223 189.716
L220.223 185.153
L221.309 185.153
L221.309 180.591
L221.845 180.591
L221.845 176.028
L223.429 176.028
L223.429 171.466
L224.463 171.466
L224.463 166.904
L225.481 166.904
L225.481 162.341
L226.979 162.341
L226.979 157.779
L227.958 157.779
L227.958 153.217
L229.4 153.217
L229.4 144.092
L232.645 144.092
L232.645 139.529
L236.164 139.529
L236.164 134.967
L240.709 134.967
L240.709 130.405
L241.896 130.405
L241.896 125.842
L242.286 125.842
L242.286 121.28
L246.434 121.28
L246.434 116.718
L249.64 116.718
L249.64 112.155
L261.368 112.155
L261.368 107.593
L264.757 107.593
L264.757 103.03
L265.031 103.03
L265.031 98.4681
L270.542 98.4681
L270.542 93.9057
L272.767 93.9057
L272.767 89.3433
L275.386 89.3433
L275.386 84.781
L282.034 84.781
L282.034 80.2186
L285.518 80.2186
L285.518 75.6562
L286.704 75.6562
L286.704 71.0938
L306.322 71.0938
L306.322 66.5315
L313.306 66.5315
L313.306 61.9691
L317.939 61.9691
L317.939 57.4067
L323.271 57.4067
L323.271 52.8443
L330.027 52.8443
L330.027 48.2819
L330.625 48.2819
L330.625 43.7196
L334.853 43.7196
L334.853 39.1572
L342.972 39.1572
L342.972 34.5948
L347.103 34.5948
L347.103 30.0324
L348.549 30.0324
L348.549 25.4701
L349.297 25.4701
L349.297 20.9077
L353.334 20.9077
L353.334 16.3453
L353.334 16.3453
L507.225 16.3453
L507.225 16.3453" style="fill:none;stroke:#000000;stroke-linecap:square;"/>
   </g>
   <g id="line2d_31"/>
   <g id="line2d_32">
    <path clip-path="url(#p0ab5e1e507)" d="
M15.863 358.524
L15.863 353.961
L53.8606 353.961
L53.8606 349.399
L185.535 349.399
L185.535 344.836
L192.627 344.836
L192.627 340.274
L194.284 340.274
L194.284 335.712
L208.873 335.712
L208.873 331.149
L212.677 331.149
L212.677 326.587
L228.442 326.587
L228.442 322.025
L239.906 322.025
L239.906 317.462
L241.896 317.462
L241.896 312.9
L243.06 312.9
L243.06 308.337
L249.292 308.337
L249.292 303.775
L250.674 303.775
L250.674 299.213
L254.975 299.213
L254.975 294.65
L258.098 294.65
L258.098 290.088
L262.518 290.088
L262.518 285.526
L268.237 285.526
L268.237 280.963
L269.272 280.963
L269.272 276.401
L270.037 276.401
L270.037 271.838
L270.793 271.838
L270.793 267.276
L276.543 267.276
L276.543 262.714
L279.456 262.714
L279.456 253.589
L279.893 253.589
L279.893 249.027
L280.972 249.027
L280.972 244.464
L281.186 244.464
L281.186 239.902
L282.034 239.902
L282.034 235.339
L282.871 235.339
L282.871 230.777
L283.078 230.777
L283.078 226.215
L284.715 226.215
L284.715 221.652
L286.508 221.652
L286.508 217.09
L287.869 217.09
L287.869 212.527
L288.444 212.527
L288.444 207.965
L288.824 207.965
L288.824 203.403
L291.969 203.403
L291.969 198.84
L292.149 198.84
L292.149 194.278
L292.687 194.278
L292.687 189.716
L293.398 189.716
L293.398 185.153
L295.483 185.153
L295.483 180.591
L296.333 180.591
L296.333 176.028
L297.503 176.028
L297.503 166.904
L300.42 166.904
L300.42 162.341
L302.448 162.341
L302.448 157.779
L303.665 157.779
L303.665 153.217
L305.301 153.217
L305.301 148.654
L305.448 148.654
L305.448 144.092
L307.041 144.092
L307.041 139.529
L308.735 139.529
L308.735 134.967
L312.391 134.967
L312.391 130.405
L316.473 130.405
L316.473 125.842
L321.352 125.842
L321.352 121.28
L333.348 121.28
L333.348 116.718
L334.76 116.718
L334.76 112.155
L335.317 112.155
L335.317 107.593
L335.96 107.593
L335.96 103.03
L337.852 103.03
L337.852 98.4681
L340.206 98.4681
L340.206 93.9057
L341.31 93.9057
L341.31 89.3433
L341.478 89.3433
L341.478 84.781
L348.549 84.781
L348.549 80.2186
L350.11 80.2186
L350.11 75.6562
L354.167 75.6562
L354.167 71.0938
L357.134 71.0938
L357.134 66.5315
L358.953 66.5315
L358.953 61.9691
L359.717 61.9691
L359.717 57.4067
L360.096 57.4067
L360.096 52.8443
L365.873 52.8443
L365.931 43.7196
L366.103 43.7196
L366.103 39.1572
L367.296 39.1572
L367.296 34.5948
L374.181 34.5948
L374.181 30.0324
L376.37 30.0324
L376.37 25.4701
L376.955 25.4701
L376.955 20.9077
L385.314 20.9077
L385.314 16.3453
L385.314 16.3453
L507.225 16.3453
L507.225 16.3453" style="fill:none;stroke:#00bfbf;stroke-linecap:square;"/>
   </g>
   <g id="line2d_33"/>
   <g id="line2d_34">
    <path clip-path="url(#p0ab5e1e507)" d="
M376.223 358.524
L376.223 353.961
L377.965 353.961
L377.965 349.399
L380.494 349.399
L380.494 344.836
L384.843 344.836
L384.843 340.274
L386.37 340.274
L386.37 335.712
L386.58 335.712
L386.58 331.149
L386.788 331.149
L386.788 326.587
L387.944 326.587
L387.944 322.025
L390.393 322.025
L390.393 317.462
L391.95 317.462
L391.95 312.9
L392.448 312.9
L392.448 308.337
L395.065 308.337
L395.065 303.775
L395.939 303.775
L395.939 299.213
L397.475 299.213
L397.475 294.65
L397.898 294.65
L397.898 290.088
L400.206 290.088
L400.206 285.526
L400.678 285.526
L400.678 280.963
L401.778 280.963
L401.778 276.401
L401.778 276.401
L401.778 276.401
L507.225 276.401" style="fill:none;stroke:#bf00bf;stroke-linecap:square;"/>
   </g>
   <g id="line2d_35"/>
   <g id="line2d_36">
    <path clip-path="url(#p0ab5e1e507)" d="
M397.475 358.524
L397.475 353.961
L397.475 353.961
L397.475 353.961
L507.225 353.961" style="fill:none;stroke:#ff0000;stroke-linecap:square;stroke-width:3.0;"/>
   </g>
   <g id="line2d_37"/>
   <g id="line2d_38">
    <path clip-path="url(#p0ab5e1e507)" d="
M403.183 358.524
L403.183 12.9235" style="fill:none;stroke:#000000;stroke-linecap:square;"/>
   </g>
   <g id="matplotlib.axis_1">
    <g id="xtick_1">
     <g id="line2d_39">
      <path clip-path="url(#p0ab5e1e507)" d="
M105.48 358.524
L105.48 12.9235" style="fill:none;stroke:#000000;stroke-dasharray:1.000000,3.000000;stroke-dashoffset:0.0;stroke-width:0.5;"/>
     </g>
     <g id="line2d_40">
      <defs>
       <path d="
M0 0
L0 -4" id="m93b0483c22" style="stroke:#000000;stroke-width:0.5;"/>
      </defs>
      <g>
       <use style="stroke:#000000;stroke-width:0.5;" x="105.480331599" xlink:href="#m93b0483c22" y="358.523530322"/>
      </g>
     </g>
     <g id="line2d_41">
      <defs>
       <path d="
M0 0
L0 4" id="m741efc42ff" style="stroke:#000000;stroke-width:0.5;"/>
      </defs>
      <g>
       <use style="stroke:#000000;stroke-width:0.5;" x="105.480331599" xlink:href="#m741efc42ff" y="12.9235303218"/>
      </g>
     </g>
     <g id="text_1">
      <!-- 0 -->
      <defs>
       <path d="
M4.15625 35.2969
Q4.15625 48 6.76562 55.7344
Q9.375 63.4844 14.5156 67.6719
Q19.6719 71.875 27.4844 71.875
Q33.25 71.875 37.5938 69.5469
Q41.9375 67.2344 44.7656 62.8594
Q47.6094 58.5 49.2188 52.2188
Q50.8281 45.9531 50.8281 35.2969
Q50.8281 22.7031 48.2344 14.9688
Q45.6562 7.23438 40.5 3
Q35.3594 -1.21875 27.4844 -1.21875
Q17.1406 -1.21875 11.2344 6.20312
Q4.15625 15.1406 4.15625 35.2969
M13.1875 35.2969
Q13.1875 17.6719 17.3125 11.8281
Q21.4375 6 27.4844 6
Q33.5469 6 37.6719 11.8594
Q41.7969 17.7188 41.7969 35.2969
Q41.7969 52.9844 37.6719 58.7812
Q33.5469 64.5938 27.3906 64.5938
Q21.3438 64.5938 17.7188 59.4688
Q13.1875 52.9375 13.1875 35.2969" id="ArialMT-30"/>
      </defs>
      <g transform="translate(100.813144099 376.839155322)scale(0.2 -0.2)">
       <use xlink:href="#ArialMT-30"/>
      </g>
     </g>
    </g>
    <g id="xtick_2">
     <g id="line2d_42">
      <path clip-path="url(#p0ab5e1e507)" d="
M254.331 358.524
L254.331 12.9235" style="fill:none;stroke:#000000;stroke-dasharray:1.000000,3.000000;stroke-dashoffset:0.0;stroke-width:0.5;"/>
     </g>
     <g id="line2d_43">
      <g>
       <use style="stroke:#000000;stroke-width:0.5;" x="254.33143693" xlink:href="#m93b0483c22" y="358.523530322"/>
      </g>
     </g>
     <g id="line2d_44">
      <g>
       <use style="stroke:#000000;stroke-width:0.5;" x="254.33143693" xlink:href="#m741efc42ff" y="12.9235303218"/>
      </g>
     </g>
     <g id="text_2">
      <!-- 1 -->
      <defs>
       <path d="
M37.25 0
L28.4688 0
L28.4688 56
Q25.2969 52.9844 20.1406 49.9531
Q14.9844 46.9219 10.8906 45.4062
L10.8906 53.9062
Q18.2656 57.375 23.7812 62.2969
Q29.2969 67.2344 31.5938 71.875
L37.25 71.875
z
" id="ArialMT-31"/>
      </defs>
      <g transform="translate(251.69549943 376.839155322)scale(0.2 -0.2)">
       <use xlink:href="#ArialMT-31"/>
      </g>
     </g>
    </g>
    <g id="xtick_3">
     <g id="line2d_45">
      <path clip-path="url(#p0ab5e1e507)" d="
M403.183 358.524
L403.183 12.9235" style="fill:none;stroke:#000000;stroke-dasharray:1.000000,3.000000;stroke-dashoffset:0.0;stroke-width:0.5;"/>
     </g>
     <g id="line2d_46">
      <g>
       <use style="stroke:#000000;stroke-width:0.5;" x="403.182542261" xlink:href="#m93b0483c22" y="358.523530322"/>
      </g>
     </g>
     <g id="line2d_47">
      <g>
       <use style="stroke:#000000;stroke-width:0.5;" x="403.182542261" xlink:href="#m741efc42ff" y="12.9235303218"/>
      </g>
     </g>
     <g id="text_3">
      <!-- 2 -->
      <defs>
       <path d="
M50.3438 8.45312
L50.3438 0
L3.03125 0
Q2.9375 3.17188 4.04688 6.10938
Q5.85938 10.9375 9.82812 15.625
Q13.8125 20.3125 21.3438 26.4688
Q33.0156 36.0312 37.1094 41.625
Q41.2188 47.2188 41.2188 52.2031
Q41.2188 57.4219 37.4688 61
Q33.7344 64.5938 27.7344 64.5938
Q21.3906 64.5938 17.5781 60.7812
Q13.7656 56.9844 13.7188 50.25
L4.6875 51.1719
Q5.60938 61.2812 11.6562 66.5781
Q17.7188 71.875 27.9375 71.875
Q38.2344 71.875 44.2344 66.1562
Q50.25 60.4531 50.25 52
Q50.25 47.7031 48.4844 43.5469
Q46.7344 39.4062 42.6562 34.8125
Q38.5781 30.2188 29.1094 22.2188
Q21.1875 15.5781 18.9375 13.2031
Q16.7031 10.8438 15.2344 8.45312
z
" id="ArialMT-32"/>
      </defs>
      <g transform="translate(398.441917261 376.839155322)scale(0.2 -0.2)">
       <use xlink:href="#ArialMT-32"/>
      </g>
     </g>
    </g>
    <g id="xtick_4"/>
    <g id="xtick_5">
     <g id="line2d_48">
      <defs>
       <path d="
M0 0
L0 -2" id="m177f7580d0" style="stroke:#000000;stroke-width:0.5;"/>
      </defs>
      <g>
       <use style="stroke:#000000;stroke-width:0.5;" x="72.4579000026" xlink:href="#m177f7580d0" y="358.523530322"/>
      </g>
     </g>
     <g id="line2d_49">
      <defs>
       <path d="
M0 0
L0 2" id="m5284c7e2a0" style="stroke:#000000;stroke-width:0.5;"/>
      </defs>
      <g>
       <use style="stroke:#000000;stroke-width:0.5;" x="72.4579000026" xlink:href="#m5284c7e2a0" y="12.9235303218"/>
      </g>
     </g>
    </g>
    <g id="xtick_6">
     <g id="line2d_50">
      <g>
       <use style="stroke:#000000;stroke-width:0.5;" x="82.4230036375" xlink:href="#m177f7580d0" y="358.523530322"/>
      </g>
     </g>
     <g id="line2d_51">
      <g>
       <use style="stroke:#000000;stroke-width:0.5;" x="82.4230036375" xlink:href="#m5284c7e2a0" y="12.9235303218"/>
      </g>
     </g>
    </g>
    <g id="xtick_7">
     <g id="line2d_52">
      <g>
       <use style="stroke:#000000;stroke-width:0.5;" x="91.0551690454" xlink:href="#m177f7580d0" y="358.523530322"/>
      </g>
     </g>
     <g id="line2d_53">
      <g>
       <use style="stroke:#000000;stroke-width:0.5;" x="91.0551690454" xlink:href="#m5284c7e2a0" y="12.9235303218"/>
      </g>
     </g>
    </g>
    <g id="xtick_8">
     <g id="line2d_54">
      <g>
       <use style="stroke:#000000;stroke-width:0.5;" x="98.6692785522" xlink:href="#m177f7580d0" y="358.523530322"/>
      </g>
     </g>
     <g id="line2d_55">
      <g>
       <use style="stroke:#000000;stroke-width:0.5;" x="98.6692785522" xlink:href="#m5284c7e2a0" y="12.9235303218"/>
      </g>
     </g>
    </g>
    <g id="xtick_9">
     <g id="line2d_56">
      <g>
       <use style="stroke:#000000;stroke-width:0.5;" x="150.288979192" xlink:href="#m177f7580d0" y="358.523530322"/>
      </g>
     </g>
     <g id="line2d_57">
      <g>
       <use style="stroke:#000000;stroke-width:0.5;" x="150.288979192" xlink:href="#m5284c7e2a0" y="12.9235303218"/>
      </g>
     </g>
    </g>
    <g id="xtick_10">
     <g id="line2d_58">
      <g>
       <use style="stroke:#000000;stroke-width:0.5;" x="176.500357741" xlink:href="#m177f7580d0" y="358.523530322"/>
      </g>
     </g>
     <g id="line2d_59">
      <g>
       <use style="stroke:#000000;stroke-width:0.5;" x="176.500357741" xlink:href="#m5284c7e2a0" y="12.9235303218"/>
      </g>
     </g>
    </g>
    <g id="xtick_11">
     <g id="line2d_60">
      <g>
       <use style="stroke:#000000;stroke-width:0.5;" x="195.097626784" xlink:href="#m177f7580d0" y="358.523530322"/>
      </g>
     </g>
     <g id="line2d_61">
      <g>
       <use style="stroke:#000000;stroke-width:0.5;" x="195.097626784" xlink:href="#m5284c7e2a0" y="12.9235303218"/>
      </g>
     </g>
    </g>
    <g id="xtick_12">
     <g id="line2d_62">
      <g>
       <use style="stroke:#000000;stroke-width:0.5;" x="209.522789338" xlink:href="#m177f7580d0" y="358.523530322"/>
      </g>
     </g>
     <g id="line2d_63">
      <g>
       <use style="stroke:#000000;stroke-width:0.5;" x="209.522789338" xlink:href="#m5284c7e2a0" y="12.9235303218"/>
      </g>
     </g>
    </g>
    <g id="xtick_13">
     <g id="line2d_64">
      <g>
       <use style="stroke:#000000;stroke-width:0.5;" x="221.309005334" xlink:href="#m177f7580d0" y="358.523530322"/>
      </g>
     </g>
     <g id="line2d_65">
      <g>
       <use style="stroke:#000000;stroke-width:0.5;" x="221.309005334" xlink:href="#m5284c7e2a0" y="12.9235303218"/>
      </g>
     </g>
    </g>
    <g id="xtick_14">
     <g id="line2d_66">
      <g>
       <use style="stroke:#000000;stroke-width:0.5;" x="231.274108969" xlink:href="#m177f7580d0" y="358.523530322"/>
      </g>
     </g>
     <g id="line2d_67">
      <g>
       <use style="stroke:#000000;stroke-width:0.5;" x="231.274108969" xlink:href="#m5284c7e2a0" y="12.9235303218"/>
      </g>
     </g>
    </g>
    <g id="xtick_15">
     <g id="line2d_68">
      <g>
       <use style="stroke:#000000;stroke-width:0.5;" x="239.906274376" xlink:href="#m177f7580d0" y="358.523530322"/>
      </g>
     </g>
     <g id="line2d_69">
      <g>
       <use style="stroke:#000000;stroke-width:0.5;" x="239.906274376" xlink:href="#m5284c7e2a0" y="12.9235303218"/>
      </g>
     </g>
    </g>
    <g id="xtick_16">
     <g id="line2d_70">
      <g>
       <use style="stroke:#000000;stroke-width:0.5;" x="247.520383883" xlink:href="#m177f7580d0" y="358.523530322"/>
      </g>
     </g>
     <g id="line2d_71">
      <g>
       <use style="stroke:#000000;stroke-width:0.5;" x="247.520383883" xlink:href="#m5284c7e2a0" y="12.9235303218"/>
      </g>
     </g>
    </g>
    <g id="xtick_17">
     <g id="line2d_72">
      <g>
       <use style="stroke:#000000;stroke-width:0.5;" x="299.140084523" xlink:href="#m177f7580d0" y="358.523530322"/>
      </g>
     </g>
     <g id="line2d_73">
      <g>
       <use style="stroke:#000000;stroke-width:0.5;" x="299.140084523" xlink:href="#m5284c7e2a0" y="12.9235303218"/>
      </g>
     </g>
    </g>
    <g id="xtick_18">
     <g id="line2d_74">
      <g>
       <use style="stroke:#000000;stroke-width:0.5;" x="325.351463072" xlink:href="#m177f7580d0" y="358.523530322"/>
      </g>
     </g>
     <g id="line2d_75">
      <g>
       <use style="stroke:#000000;stroke-width:0.5;" x="325.351463072" xlink:href="#m5284c7e2a0" y="12.9235303218"/>
      </g>
     </g>
    </g>
    <g id="xtick_19">
     <g id="line2d_76">
      <g>
       <use style="stroke:#000000;stroke-width:0.5;" x="343.948732115" xlink:href="#m177f7580d0" y="358.523530322"/>
      </g>
     </g>
     <g id="line2d_77">
      <g>
       <use style="stroke:#000000;stroke-width:0.5;" x="343.948732115" xlink:href="#m5284c7e2a0" y="12.9235303218"/>
      </g>
     </g>
    </g>
    <g id="xtick_20">
     <g id="line2d_78">
      <g>
       <use style="stroke:#000000;stroke-width:0.5;" x="358.373894669" xlink:href="#m177f7580d0" y="358.523530322"/>
      </g>
     </g>
     <g id="line2d_79">
      <g>
       <use style="stroke:#000000;stroke-width:0.5;" x="358.373894669" xlink:href="#m5284c7e2a0" y="12.9235303218"/>
      </g>
     </g>
    </g>
    <g id="xtick_21">
     <g id="line2d_80">
      <g>
       <use style="stroke:#000000;stroke-width:0.5;" x="370.160110665" xlink:href="#m177f7580d0" y="358.523530322"/>
      </g>
     </g>
     <g id="line2d_81">
      <g>
       <use style="stroke:#000000;stroke-width:0.5;" x="370.160110665" xlink:href="#m5284c7e2a0" y="12.9235303218"/>
      </g>
     </g>
    </g>
    <g id="xtick_22">
     <g id="line2d_82">
      <g>
       <use style="stroke:#000000;stroke-width:0.5;" x="380.1252143" xlink:href="#m177f7580d0" y="358.523530322"/>
      </g>
     </g>
     <g id="line2d_83">
      <g>
       <use style="stroke:#000000;stroke-width:0.5;" x="380.1252143" xlink:href="#m5284c7e2a0" y="12.9235303218"/>
      </g>
     </g>
    </g>
    <g id="xtick_23">
     <g id="line2d_84">
      <g>
       <use style="stroke:#000000;stroke-width:0.5;" x="388.757379707" xlink:href="#m177f7580d0" y="358.523530322"/>
      </g>
     </g>
     <g id="line2d_85">
      <g>
       <use style="stroke:#000000;stroke-width:0.5;" x="388.757379707" xlink:href="#m5284c7e2a0" y="12.9235303218"/>
      </g>
     </g>
    </g>
    <g id="xtick_24">
     <g id="line2d_86">
      <g>
       <use style="stroke:#000000;stroke-width:0.5;" x="396.371489214" xlink:href="#m177f7580d0" y="358.523530322"/>
      </g>
     </g>
     <g id="line2d_87">
      <g>
       <use style="stroke:#000000;stroke-width:0.5;" x="396.371489214" xlink:href="#m5284c7e2a0" y="12.9235303218"/>
      </g>
     </g>
    </g>
    <g id="xtick_25">
     <g id="line2d_88">
      <g>
       <use style="stroke:#000000;stroke-width:0.5;" x="447.991189854" xlink:href="#m177f7580d0" y="358.523530322"/>
      </g>
     </g>
     <g id="line2d_89">
      <g>
       <use style="stroke:#000000;stroke-width:0.5;" x="447.991189854" xlink:href="#m5284c7e2a0" y="12.9235303218"/>
      </g>
     </g>
    </g>
    <g id="xtick_26">
     <g id="line2d_90">
      <g>
       <use style="stroke:#000000;stroke-width:0.5;" x="474.202568403" xlink:href="#m177f7580d0" y="358.523530322"/>
      </g>
     </g>
     <g id="line2d_91">
      <g>
       <use style="stroke:#000000;stroke-width:0.5;" x="474.202568403" xlink:href="#m5284c7e2a0" y="12.9235303218"/>
      </g>
     </g>
    </g>
    <g id="xtick_27">
     <g id="line2d_92">
      <g>
       <use style="stroke:#000000;stroke-width:0.5;" x="492.799837446" xlink:href="#m177f7580d0" y="358.523530322"/>
      </g>
     </g>
     <g id="line2d_93">
      <g>
       <use style="stroke:#000000;stroke-width:0.5;" x="492.799837446" xlink:href="#m5284c7e2a0" y="12.9235303218"/>
      </g>
     </g>
    </g>
    <g id="xtick_28">
     <g id="line2d_94">
      <g>
       <use style="stroke:#000000;stroke-width:0.5;" x="507.225" xlink:href="#m177f7580d0" y="358.523530322"/>
      </g>
     </g>
     <g id="line2d_95">
      <g>
       <use style="stroke:#000000;stroke-width:0.5;" x="507.225" xlink:href="#m5284c7e2a0" y="12.9235303218"/>
      </g>
     </g>
    </g>
    <g id="text_4">
     <!-- log10 of FEvals / DIM -->
     <defs>
      <path d="
M9.32812 0
L9.32812 71.5781
L18.7969 71.5781
L18.7969 0
z
" id="ArialMT-49"/>
      <path d="
M40.4375 6.39062
Q35.5469 2.25 31.0312 0.53125
Q26.5156 -1.17188 21.3438 -1.17188
Q12.7969 -1.17188 8.20312 3
Q3.60938 7.17188 3.60938 13.6719
Q3.60938 17.4844 5.34375 20.625
Q7.07812 23.7812 9.89062 25.6875
Q12.7031 27.5938 16.2188 28.5625
Q18.7969 29.25 24.0312 29.8906
Q34.6719 31.1562 39.7031 32.9062
Q39.75 34.7188 39.75 35.2031
Q39.75 40.5781 37.25 42.7812
Q33.8906 45.75 27.25 45.75
Q21.0469 45.75 18.0938 43.5781
Q15.1406 41.4062 13.7188 35.8906
L5.125 37.0625
Q6.29688 42.5781 8.98438 45.9688
Q11.6719 49.3594 16.75 51.1875
Q21.8281 53.0312 28.5156 53.0312
Q35.1562 53.0312 39.2969 51.4688
Q43.4531 49.9062 45.4062 47.5312
Q47.3594 45.1719 48.1406 41.5469
Q48.5781 39.3125 48.5781 33.4531
L48.5781 21.7344
Q48.5781 9.46875 49.1406 6.21875
Q49.7031 2.98438 51.375 0
L42.1875 0
Q40.8281 2.73438 40.4375 6.39062
M39.7031 26.0312
Q34.9062 24.0781 25.3438 22.7031
Q19.9219 21.9219 17.6719 20.9375
Q15.4375 19.9688 14.2031 18.0938
Q12.9844 16.2188 12.9844 13.9219
Q12.9844 10.4062 15.6406 8.0625
Q18.3125 5.71875 23.4375 5.71875
Q28.5156 5.71875 32.4688 7.9375
Q36.4219 10.1562 38.2812 14.0156
Q39.7031 17 39.7031 22.7969
z
" id="ArialMT-61"/>
      <path d="
M4.98438 -4.29688
L13.5312 -5.5625
Q14.0625 -9.51562 16.5 -11.3281
Q19.7812 -13.7656 25.4375 -13.7656
Q31.5469 -13.7656 34.8594 -11.3281
Q38.1875 -8.89062 39.3594 -4.5
Q40.0469 -1.8125 39.9844 6.78125
Q34.2344 0 25.6406 0
Q14.9375 0 9.07812 7.71875
Q3.21875 15.4375 3.21875 26.2188
Q3.21875 33.6406 5.90625 39.9062
Q8.59375 46.1875 13.6875 49.6094
Q18.7969 53.0312 25.6875 53.0312
Q34.8594 53.0312 40.8281 45.6094
L40.8281 51.8594
L48.9219 51.8594
L48.9219 7.03125
Q48.9219 -5.07812 46.4531 -10.125
Q44 -15.1875 38.6406 -18.1094
Q33.2969 -21.0469 25.4844 -21.0469
Q16.2188 -21.0469 10.5 -16.875
Q4.78125 -12.7031 4.98438 -4.29688
M12.25 26.8594
Q12.25 16.6562 16.2969 11.9688
Q20.3594 7.28125 26.4688 7.28125
Q32.5156 7.28125 36.6094 11.9375
Q40.7188 16.6094 40.7188 26.5625
Q40.7188 36.0781 36.5 40.9062
Q32.2812 45.75 26.3125 45.75
Q20.4531 45.75 16.3438 40.9844
Q12.25 36.2344 12.25 26.8594" id="ArialMT-67"/>
      <path d="
M8.6875 0
L8.6875 45.0156
L0.921875 45.0156
L0.921875 51.8594
L8.6875 51.8594
L8.6875 57.375
Q8.6875 62.5938 9.625 65.1406
Q10.8906 68.5625 14.0781 70.6719
Q17.2812 72.7969 23.0469 72.7969
Q26.7656 72.7969 31.25 71.9219
L29.9375 64.2656
Q27.2031 64.75 24.75 64.75
Q20.75 64.75 19.0938 63.0312
Q17.4375 61.3281 17.4375 56.6406
L17.4375 51.8594
L27.5469 51.8594
L27.5469 45.0156
L17.4375 45.0156
L17.4375 0
z
" id="ArialMT-66"/>
      <path d="
M0 -1.21875
L20.75 72.7969
L27.7812 72.7969
L7.07812 -1.21875
z
" id="ArialMT-2f"/>
      <path d="
M21 0
L1.26562 51.8594
L10.5469 51.8594
L21.6875 20.7969
Q23.4844 15.7656 25 10.3594
Q26.1719 14.4531 28.2656 20.2188
L39.7969 51.8594
L48.8281 51.8594
L29.2031 0
z
" id="ArialMT-76"/>
      <path d="
M7.90625 0
L7.90625 71.5781
L59.6719 71.5781
L59.6719 63.1406
L17.3906 63.1406
L17.3906 41.2188
L56.9844 41.2188
L56.9844 32.8125
L17.3906 32.8125
L17.3906 8.45312
L61.3281 8.45312
L61.3281 0
z
" id="ArialMT-45"/>
      <path d="
M7.71875 0
L7.71875 71.5781
L32.375 71.5781
Q40.7188 71.5781 45.125 70.5625
Q51.2656 69.1406 55.6094 65.4375
Q61.2812 60.6406 64.0781 53.1875
Q66.8906 45.75 66.8906 36.1875
Q66.8906 28.0312 64.9844 21.7344
Q63.0938 15.4375 60.1094 11.2969
Q57.125 7.17188 53.5781 4.79688
Q50.0469 2.4375 45.0469 1.21875
Q40.0469 0 33.5469 0
z

M17.1875 8.45312
L32.4688 8.45312
Q39.5469 8.45312 43.5781 9.76562
Q47.6094 11.0781 50 13.4844
Q53.375 16.8438 55.25 22.5312
Q57.125 28.2188 57.125 36.3281
Q57.125 47.5625 53.4375 53.5938
Q49.75 59.625 44.4844 61.6719
Q40.6719 63.1406 32.2344 63.1406
L17.1875 63.1406
z
" id="ArialMT-44"/>
      <path d="
M8.20312 0
L8.20312 71.5781
L56.5 71.5781
L56.5 63.1406
L17.6719 63.1406
L17.6719 40.9688
L51.2656 40.9688
L51.2656 32.5156
L17.6719 32.5156
L17.6719 0
z
" id="ArialMT-46"/>
      <path d="
M6.39062 0
L6.39062 71.5781
L15.1875 71.5781
L15.1875 0
z
" id="ArialMT-6c"/>
      <path d="
M3.32812 25.9219
Q3.32812 40.3281 11.3281 47.2656
Q18.0156 53.0312 27.6406 53.0312
Q38.3281 53.0312 45.1094 46.0156
Q51.9062 39.0156 51.9062 26.6562
Q51.9062 16.6562 48.9062 10.9062
Q45.9062 5.17188 40.1562 2
Q34.4219 -1.17188 27.6406 -1.17188
Q16.75 -1.17188 10.0312 5.8125
Q3.32812 12.7969 3.32812 25.9219
M12.3594 25.9219
Q12.3594 15.9688 16.7031 11.0156
Q21.0469 6.0625 27.6406 6.0625
Q34.1875 6.0625 38.5312 11.0312
Q42.875 16.0156 42.875 26.2188
Q42.875 35.8438 38.5 40.7969
Q34.125 45.75 27.6406 45.75
Q21.0469 45.75 16.7031 40.8125
Q12.3594 35.8906 12.3594 25.9219" id="ArialMT-6f"/>
      <path d="
M3.07812 15.4844
L11.7656 16.8438
Q12.5 11.625 15.8438 8.84375
Q19.1875 6.0625 25.2031 6.0625
Q31.25 6.0625 34.1719 8.51562
Q37.1094 10.9844 37.1094 14.3125
Q37.1094 17.2812 34.5156 19
Q32.7188 20.1719 25.5312 21.9688
Q15.875 24.4219 12.1406 26.2031
Q8.40625 27.9844 6.46875 31.125
Q4.54688 34.2812 4.54688 38.0938
Q4.54688 41.5469 6.125 44.5
Q7.71875 47.4688 10.4531 49.4219
Q12.5 50.9219 16.0312 51.9688
Q19.5781 53.0312 23.6406 53.0312
Q29.7344 53.0312 34.3438 51.2656
Q38.9688 49.5156 41.1562 46.5
Q43.3594 43.5 44.1875 38.4844
L35.5938 37.3125
Q35.0156 41.3125 32.2031 43.5469
Q29.3906 45.7969 24.2656 45.7969
Q18.2188 45.7969 15.625 43.7969
Q13.0312 41.7969 13.0312 39.1094
Q13.0312 37.4062 14.1094 36.0312
Q15.1875 34.625 17.4844 33.6875
Q18.7969 33.2031 25.25 31.4531
Q34.5781 28.9531 38.25 27.3594
Q41.9375 25.7812 44.0312 22.75
Q46.1406 19.7344 46.1406 15.2344
Q46.1406 10.8438 43.5781 6.95312
Q41.0156 3.07812 36.1719 0.953125
Q31.3438 -1.17188 25.25 -1.17188
Q15.1406 -1.17188 9.84375 3.03125
Q4.54688 7.23438 3.07812 15.4844" id="ArialMT-73"/>
      <path d="
M7.42188 0
L7.42188 71.5781
L21.6875 71.5781
L38.625 20.9062
Q40.9688 13.8125 42.0469 10.2969
Q43.2656 14.2031 45.8438 21.7812
L62.9844 71.5781
L75.7344 71.5781
L75.7344 0
L66.6094 0
L66.6094 59.9062
L45.7969 0
L37.25 0
L16.5469 60.9375
L16.5469 0
z
" id="ArialMT-4d"/>
      <path id="ArialMT-20"/>
     </defs>
     <g transform="translate(189.1953125 400.373530322)scale(0.2 -0.2)">
      <use xlink:href="#ArialMT-6c"/>
      <use x="22.216796875" xlink:href="#ArialMT-6f"/>
      <use x="77.83203125" xlink:href="#ArialMT-67"/>
      <use x="133.447265625" xlink:href="#ArialMT-31"/>
      <use x="189.0625" xlink:href="#ArialMT-30"/>
      <use x="244.677734375" xlink:href="#ArialMT-20"/>
      <use x="272.4609375" xlink:href="#ArialMT-6f"/>
      <use x="328.076171875" xlink:href="#ArialMT-66"/>
      <use x="355.859375" xlink:href="#ArialMT-20"/>
      <use x="383.642578125" xlink:href="#ArialMT-46"/>
      <use x="444.7265625" xlink:href="#ArialMT-45"/>
      <use x="511.42578125" xlink:href="#ArialMT-76"/>
      <use x="561.42578125" xlink:href="#ArialMT-61"/>
      <use x="617.041015625" xlink:href="#ArialMT-6c"/>
      <use x="639.2578125" xlink:href="#ArialMT-73"/>
      <use x="689.2578125" xlink:href="#ArialMT-20"/>
      <use x="717.041015625" xlink:href="#ArialMT-2f"/>
      <use x="744.82421875" xlink:href="#ArialMT-20"/>
      <use x="772.607421875" xlink:href="#ArialMT-44"/>
      <use x="844.82421875" xlink:href="#ArialMT-49"/>
      <use x="872.607421875" xlink:href="#ArialMT-4d"/>
     </g>
    </g>
   </g>
   <g id="matplotlib.axis_2">
    <g id="ytick_1">
     <g id="line2d_96">
      <path clip-path="url(#p0ab5e1e507)" d="
M60.825 358.524
L507.225 358.524" style="fill:none;stroke:#000000;stroke-dasharray:1.000000,3.000000;stroke-dashoffset:0.0;stroke-width:0.5;"/>
     </g>
     <g id="line2d_97">
      <defs>
       <path d="
M0 0
L4 0" id="m728421d6d4" style="stroke:#000000;stroke-width:0.5;"/>
      </defs>
      <g>
       <use style="stroke:#000000;stroke-width:0.5;" x="60.825" xlink:href="#m728421d6d4" y="358.523530322"/>
      </g>
     </g>
     <g id="line2d_98">
      <defs>
       <path d="
M0 0
L-4 0" id="mcb0005524f" style="stroke:#000000;stroke-width:0.5;"/>
      </defs>
      <g>
       <use style="stroke:#000000;stroke-width:0.5;" x="507.225" xlink:href="#mcb0005524f" y="358.523530322"/>
      </g>
     </g>
     <g id="text_5">
      <!-- 0.0 -->
      <defs>
       <path d="
M9.07812 0
L9.07812 10.0156
L19.0938 10.0156
L19.0938 0
z
" id="ArialMT-2e"/>
      </defs>
      <g transform="translate(30.8125 363.693842822)scale(0.2 -0.2)">
       <use xlink:href="#ArialMT-30"/>
       <use x="55.615234375" xlink:href="#ArialMT-2e"/>
       <use x="83.3984375" xlink:href="#ArialMT-30"/>
      </g>
     </g>
    </g>
    <g id="ytick_2">
     <g id="line2d_99">
      <path clip-path="url(#p0ab5e1e507)" d="
M60.825 290.088
L507.225 290.088" style="fill:none;stroke:#000000;stroke-dasharray:1.000000,3.000000;stroke-dashoffset:0.0;stroke-width:0.5;"/>
     </g>
     <g id="line2d_100">
      <g>
       <use style="stroke:#000000;stroke-width:0.5;" x="60.825" xlink:href="#m728421d6d4" y="290.087886757"/>
      </g>
     </g>
     <g id="line2d_101">
      <g>
       <use style="stroke:#000000;stroke-width:0.5;" x="507.225" xlink:href="#mcb0005524f" y="290.087886757"/>
      </g>
     </g>
     <g id="text_6">
      <!-- 0.2 -->
      <g transform="translate(30.909375 295.258199257)scale(0.2 -0.2)">
       <use xlink:href="#ArialMT-30"/>
       <use x="55.615234375" xlink:href="#ArialMT-2e"/>
       <use x="83.3984375" xlink:href="#ArialMT-32"/>
      </g>
     </g>
    </g>
    <g id="ytick_3">
     <g id="line2d_102">
      <path clip-path="url(#p0ab5e1e507)" d="
M60.825 221.652
L507.225 221.652" style="fill:none;stroke:#000000;stroke-dasharray:1.000000,3.000000;stroke-dashoffset:0.0;stroke-width:0.5;"/>
     </g>
     <g id="line2d_103">
      <g>
       <use style="stroke:#000000;stroke-width:0.5;" x="60.825" xlink:href="#m728421d6d4" y="221.652243193"/>
      </g>
     </g>
     <g id="line2d_104">
      <g>
       <use style="stroke:#000000;stroke-width:0.5;" x="507.225" xlink:href="#mcb0005524f" y="221.652243193"/>
      </g>
     </g>
     <g id="text_7">
      <!-- 0.4 -->
      <defs>
       <path d="
M32.3281 0
L32.3281 17.1406
L1.26562 17.1406
L1.26562 25.2031
L33.9375 71.5781
L41.1094 71.5781
L41.1094 25.2031
L50.7812 25.2031
L50.7812 17.1406
L41.1094 17.1406
L41.1094 0
z

M32.3281 25.2031
L32.3281 57.4688
L9.90625 25.2031
z
" id="ArialMT-34"/>
      </defs>
      <g transform="translate(30.821875 226.822555693)scale(0.2 -0.2)">
       <use xlink:href="#ArialMT-30"/>
       <use x="55.615234375" xlink:href="#ArialMT-2e"/>
       <use x="83.3984375" xlink:href="#ArialMT-34"/>
      </g>
     </g>
    </g>
    <g id="ytick_4">
     <g id="line2d_105">
      <path clip-path="url(#p0ab5e1e507)" d="
M60.825 153.217
L507.225 153.217" style="fill:none;stroke:#000000;stroke-dasharray:1.000000,3.000000;stroke-dashoffset:0.0;stroke-width:0.5;"/>
     </g>
     <g id="line2d_106">
      <g>
       <use style="stroke:#000000;stroke-width:0.5;" x="60.825" xlink:href="#m728421d6d4" y="153.216599629"/>
      </g>
     </g>
     <g id="line2d_107">
      <g>
       <use style="stroke:#000000;stroke-width:0.5;" x="507.225" xlink:href="#mcb0005524f" y="153.216599629"/>
      </g>
     </g>
     <g id="text_8">
      <!-- 0.6 -->
      <defs>
       <path d="
M49.75 54.0469
L41.0156 53.375
Q39.8438 58.5469 37.7031 60.8906
Q34.125 64.6562 28.9062 64.6562
Q24.7031 64.6562 21.5312 62.3125
Q17.3906 59.2812 14.9844 53.4688
Q12.5938 47.6562 12.5 36.9219
Q15.6719 41.75 20.2656 44.0938
Q24.8594 46.4375 29.8906 46.4375
Q38.6719 46.4375 44.8438 39.9688
Q51.0312 33.5 51.0312 23.25
Q51.0312 16.5 48.125 10.7188
Q45.2188 4.9375 40.1406 1.85938
Q35.0625 -1.21875 28.6094 -1.21875
Q17.625 -1.21875 10.6875 6.85938
Q3.76562 14.9375 3.76562 33.5
Q3.76562 54.25 11.4219 63.6719
Q18.1094 71.875 29.4375 71.875
Q37.8906 71.875 43.2812 67.1406
Q48.6875 62.4062 49.75 54.0469
M13.875 23.1875
Q13.875 18.6562 15.7969 14.5
Q17.7188 10.3594 21.1875 8.17188
Q24.6562 6 28.4688 6
Q34.0312 6 38.0312 10.4844
Q42.0469 14.9844 42.0469 22.7031
Q42.0469 30.125 38.0781 34.3906
Q34.125 38.6719 28.125 38.6719
Q22.1719 38.6719 18.0156 34.3906
Q13.875 30.125 13.875 23.1875" id="ArialMT-36"/>
      </defs>
      <g transform="translate(30.771875 158.386912129)scale(0.2 -0.2)">
       <use xlink:href="#ArialMT-30"/>
       <use x="55.615234375" xlink:href="#ArialMT-2e"/>
       <use x="83.3984375" xlink:href="#ArialMT-36"/>
      </g>
     </g>
    </g>
    <g id="ytick_5">
     <g id="line2d_108">
      <path clip-path="url(#p0ab5e1e507)" d="
M60.825 84.781
L507.225 84.781" style="fill:none;stroke:#000000;stroke-dasharray:1.000000,3.000000;stroke-dashoffset:0.0;stroke-width:0.5;"/>
     </g>
     <g id="line2d_109">
      <g>
       <use style="stroke:#000000;stroke-width:0.5;" x="60.825" xlink:href="#m728421d6d4" y="84.7809560644"/>
      </g>
     </g>
     <g id="line2d_110">
      <g>
       <use style="stroke:#000000;stroke-width:0.5;" x="507.225" xlink:href="#mcb0005524f" y="84.7809560644"/>
      </g>
     </g>
     <g id="text_9">
      <!-- 0.8 -->
      <defs>
       <path d="
M17.6719 38.8125
Q12.2031 40.8281 9.5625 44.5312
Q6.9375 48.25 6.9375 53.4219
Q6.9375 61.2344 12.5469 66.5469
Q18.1719 71.875 27.4844 71.875
Q36.8594 71.875 42.5781 66.4219
Q48.2969 60.9844 48.2969 53.1719
Q48.2969 48.1875 45.6719 44.5
Q43.0625 40.8281 37.75 38.8125
Q44.3438 36.6719 47.7812 31.875
Q51.2188 27.0938 51.2188 20.4531
Q51.2188 11.2812 44.7188 5.03125
Q38.2344 -1.21875 27.6406 -1.21875
Q17.0469 -1.21875 10.5469 5.04688
Q4.04688 11.3281 4.04688 20.7031
Q4.04688 27.6875 7.59375 32.3906
Q11.1406 37.1094 17.6719 38.8125
M15.9219 53.7188
Q15.9219 48.6406 19.1875 45.4062
Q22.4688 42.1875 27.6875 42.1875
Q32.7656 42.1875 36.0156 45.375
Q39.2656 48.5781 39.2656 53.2188
Q39.2656 58.0625 35.9062 61.3594
Q32.5625 64.6562 27.5938 64.6562
Q22.5625 64.6562 19.2344 61.4219
Q15.9219 58.2031 15.9219 53.7188
M13.0938 20.6562
Q13.0938 16.8906 14.875 13.375
Q16.6562 9.85938 20.1719 7.92188
Q23.6875 6 27.7344 6
Q34.0312 6 38.125 10.0469
Q42.2344 14.1094 42.2344 20.3594
Q42.2344 26.7031 38.0156 30.8594
Q33.7969 35.0156 27.4375 35.0156
Q21.2344 35.0156 17.1562 30.9062
Q13.0938 26.8125 13.0938 20.6562" id="ArialMT-38"/>
      </defs>
      <g transform="translate(30.734375 89.9512685644)scale(0.2 -0.2)">
       <use xlink:href="#ArialMT-30"/>
       <use x="55.615234375" xlink:href="#ArialMT-2e"/>
       <use x="83.3984375" xlink:href="#ArialMT-38"/>
      </g>
     </g>
    </g>
    <g id="ytick_6">
     <g id="line2d_111">
      <path clip-path="url(#p0ab5e1e507)" d="
M60.825 16.3453
L507.225 16.3453" style="fill:none;stroke:#000000;stroke-dasharray:1.000000,3.000000;stroke-dashoffset:0.0;stroke-width:0.5;"/>
     </g>
     <g id="line2d_112">
      <g>
       <use style="stroke:#000000;stroke-width:0.5;" x="60.825" xlink:href="#m728421d6d4" y="16.3453125"/>
      </g>
     </g>
     <g id="line2d_113">
      <g>
       <use style="stroke:#000000;stroke-width:0.5;" x="507.225" xlink:href="#mcb0005524f" y="16.3453125"/>
      </g>
     </g>
     <g id="text_10">
      <!-- 1.0 -->
      <g transform="translate(32.159375 21.515625)scale(0.2 -0.2)">
       <use xlink:href="#ArialMT-31"/>
       <use x="55.615234375" xlink:href="#ArialMT-2e"/>
       <use x="83.3984375" xlink:href="#ArialMT-30"/>
      </g>
     </g>
    </g>
    <g id="text_11">
     <!-- proportion of trials -->
     <defs>
      <path d="
M25.7812 7.85938
L27.0469 0.09375
Q23.3438 -0.6875 20.4062 -0.6875
Q15.625 -0.6875 12.9844 0.828125
Q10.3594 2.34375 9.28125 4.8125
Q8.20312 7.28125 8.20312 15.1875
L8.20312 45.0156
L1.76562 45.0156
L1.76562 51.8594
L8.20312 51.8594
L8.20312 64.7031
L16.9375 69.9688
L16.9375 51.8594
L25.7812 51.8594
L25.7812 45.0156
L16.9375 45.0156
L16.9375 14.7031
Q16.9375 10.9375 17.4062 9.85938
Q17.875 8.79688 18.9219 8.15625
Q19.9688 7.51562 21.9219 7.51562
Q23.3906 7.51562 25.7812 7.85938" id="ArialMT-74"/>
      <path d="
M6.64062 61.4688
L6.64062 71.5781
L15.4375 71.5781
L15.4375 61.4688
z

M6.64062 0
L6.64062 51.8594
L15.4375 51.8594
L15.4375 0
z
" id="ArialMT-69"/>
      <path d="
M6.59375 -19.875
L6.59375 51.8594
L14.5938 51.8594
L14.5938 45.125
Q17.4375 49.0781 21 51.0469
Q24.5625 53.0312 29.6406 53.0312
Q36.2812 53.0312 41.3594 49.6094
Q46.4375 46.1875 49.0156 39.9531
Q51.6094 33.7344 51.6094 26.3125
Q51.6094 18.3594 48.75 11.9844
Q45.9062 5.60938 40.4531 2.21875
Q35.0156 -1.17188 29 -1.17188
Q24.6094 -1.17188 21.1094 0.6875
Q17.625 2.54688 15.375 5.375
L15.375 -19.875
z

M14.5469 25.6406
Q14.5469 15.625 18.5938 10.8438
Q22.6562 6.0625 28.4219 6.0625
Q34.2812 6.0625 38.4531 11.0156
Q42.625 15.9688 42.625 26.375
Q42.625 36.2812 38.5469 41.2031
Q34.4688 46.1406 28.8125 46.1406
Q23.1875 46.1406 18.8594 40.8906
Q14.5469 35.6406 14.5469 25.6406" id="ArialMT-70"/>
      <path d="
M6.59375 0
L6.59375 51.8594
L14.5 51.8594
L14.5 44.4844
Q20.2188 53.0312 31 53.0312
Q35.6875 53.0312 39.625 51.3438
Q43.5625 49.6562 45.5156 46.9219
Q47.4688 44.1875 48.25 40.4375
Q48.7344 37.9844 48.7344 31.8906
L48.7344 0
L39.9375 0
L39.9375 31.5469
Q39.9375 36.9219 38.9062 39.5781
Q37.8906 42.2344 35.2812 43.8125
Q32.6719 45.4062 29.1562 45.4062
Q23.5312 45.4062 19.4531 41.8438
Q15.375 38.2812 15.375 28.3281
L15.375 0
z
" id="ArialMT-6e"/>
      <path d="
M6.5 0
L6.5 51.8594
L14.4062 51.8594
L14.4062 44
Q17.4375 49.5156 20 51.2656
Q22.5625 53.0312 25.6406 53.0312
Q30.0781 53.0312 34.6719 50.2031
L31.6406 42.0469
Q28.4219 43.9531 25.2031 43.9531
Q22.3125 43.9531 20.0156 42.2188
Q17.7188 40.4844 16.75 37.4062
Q15.2812 32.7188 15.2812 27.1562
L15.2812 0
z
" id="ArialMT-72"/>
     </defs>
     <g transform="translate(21.759375 265.370405322)rotate(-90.0)scale(0.2 -0.2)">
      <use xlink:href="#ArialMT-70"/>
      <use x="55.615234375" xlink:href="#ArialMT-72"/>
      <use x="88.916015625" xlink:href="#ArialMT-6f"/>
      <use x="144.53125" xlink:href="#ArialMT-70"/>
      <use x="200.146484375" xlink:href="#ArialMT-6f"/>
      <use x="255.76171875" xlink:href="#ArialMT-72"/>
      <use x="289.0625" xlink:href="#ArialMT-74"/>
      <use x="316.845703125" xlink:href="#ArialMT-69"/>
      <use x="339.0625" xlink:href="#ArialMT-6f"/>
      <use x="394.677734375" xlink:href="#ArialMT-6e"/>
      <use x="450.29296875" xlink:href="#ArialMT-20"/>
      <use x="478.076171875" xlink:href="#ArialMT-6f"/>
      <use x="533.69140625" xlink:href="#ArialMT-66"/>
      <use x="561.474609375" xlink:href="#ArialMT-20"/>
      <use x="589.2578125" xlink:href="#ArialMT-74"/>
      <use x="617.041015625" xlink:href="#ArialMT-72"/>
      <use x="650.341796875" xlink:href="#ArialMT-69"/>
      <use x="672.55859375" xlink:href="#ArialMT-61"/>
      <use x="728.173828125" xlink:href="#ArialMT-6c"/>
      <use x="750.390625" xlink:href="#ArialMT-73"/>
     </g>
    </g>
   </g>
   <g id="patch_3">
    <path d="
M60.825 12.9235
L507.225 12.9235" style="fill:none;stroke:#000000;"/>
   </g>
   <g id="patch_4">
    <path d="
M507.225 358.524
L507.225 12.9235" style="fill:none;stroke:#000000;"/>
   </g>
   <g id="patch_5">
    <path d="
M60.825 358.524
L507.225 358.524" style="fill:none;stroke:#000000;"/>
   </g>
   <g id="patch_6">
    <path d="
M60.825 358.524
L60.825 12.9235" style="fill:none;stroke:#000000;"/>
   </g>
   <g id="text_12">
    <!-- {f1-f5}, 20-D -->
    <defs>
     <path d="
M30.5625 29.8906
L30.5625 21.9219
Q26.8125 21.8281 24.4375 19.875
Q22.0781 17.9219 21.2969 14.5781
Q20.5156 11.2344 20.4531 3.07812
Q20.4062 -5.07812 20.1719 -7.67188
Q19.7344 -11.8125 18.5312 -14.2812
Q17.3281 -16.75 15.5625 -18.2344
Q13.8125 -19.7344 11.0781 -20.5156
Q9.23438 -21.0469 5.03125 -21.0469
L2.29688 -21.0469
L2.29688 -13.375
L3.8125 -13.375
Q8.89062 -13.375 10.5469 -11.5469
Q12.2031 -9.71875 12.2031 -3.32812
Q12.2031 8.89062 12.6406 12.1562
Q13.4219 17.5781 15.7656 20.8281
Q18.1094 24.0781 22.4062 25.875
Q16.7969 28.5625 14.5 32.9844
Q12.2031 37.4062 12.2031 47.9062
Q12.2031 57.4219 11.9688 59.2812
Q11.625 62.5469 10.0312 63.8438
Q8.45312 65.1406 3.8125 65.1406
L2.29688 65.1406
L2.29688 72.7969
L5.03125 72.7969
Q9.8125 72.7969 11.9688 72.0156
Q15.0938 70.9531 17.1406 68.4062
Q19.1875 65.875 19.7969 62.0156
Q20.4062 58.1562 20.4531 49.3594
Q20.5156 40.5781 21.2969 37.2344
Q22.0781 33.8906 24.4375 31.9375
Q26.8125 29.9844 30.5625 29.8906" id="ArialMT-7d"/>
     <path d="
M3.17188 21.4844
L3.17188 30.3281
L30.1719 30.3281
L30.1719 21.4844
z
" id="ArialMT-2d"/>
     <path d="
M8.89062 0
L8.89062 10.0156
L18.8906 10.0156
L18.8906 0
Q18.8906 -5.51562 16.9375 -8.90625
Q14.9844 -12.3125 10.75 -14.1562
L8.29688 -10.4062
Q11.0781 -9.1875 12.3906 -6.8125
Q13.7188 -4.4375 13.875 0
z
" id="ArialMT-2c"/>
     <path d="
M4.15625 18.75
L13.375 19.5312
Q14.4062 12.7969 18.1406 9.39062
Q21.875 6 27.1562 6
Q33.5 6 37.8906 10.7812
Q42.2812 15.5781 42.2812 23.4844
Q42.2812 31 38.0625 35.3438
Q33.8438 39.7031 27 39.7031
Q22.75 39.7031 19.3281 37.7656
Q15.9219 35.8438 13.9688 32.7656
L5.71875 33.8438
L12.6406 70.6094
L48.25 70.6094
L48.25 62.2031
L19.6719 62.2031
L15.8281 42.9688
Q22.2656 47.4688 29.3438 47.4688
Q38.7188 47.4688 45.1562 40.9688
Q51.6094 34.4688 51.6094 24.2656
Q51.6094 14.5469 45.9531 7.46875
Q39.0625 -1.21875 27.1562 -1.21875
Q17.3906 -1.21875 11.2031 4.25
Q5.03125 9.71875 4.15625 18.75" id="ArialMT-35"/>
     <path d="
M2.78125 29.8906
Q6.54688 29.9844 8.90625 31.9062
Q11.2812 33.8438 12.0625 37.2031
Q12.8438 40.5781 12.8906 48.7344
Q12.9375 56.8906 13.1875 59.4688
Q13.625 63.5781 14.8125 66.0625
Q16.0156 68.5625 17.7656 70.0469
Q19.5312 71.5312 22.2656 72.3125
Q24.125 72.7969 28.3281 72.7969
L31.0625 72.7969
L31.0625 65.1406
L29.5469 65.1406
Q24.4688 65.1406 22.7969 63.2969
Q21.1406 61.4688 21.1406 55.125
Q21.1406 42.3281 20.6094 38.9688
Q19.7344 33.7344 17.6094 30.9062
Q15.4844 28.0781 10.9375 25.875
Q16.3125 23.6406 18.7188 19.0156
Q21.1406 14.4062 21.1406 3.90625
Q21.1406 -5.60938 21.3438 -7.42188
Q21.7344 -10.75 23.3125 -12.0625
Q24.9062 -13.375 29.5469 -13.375
L31.0625 -13.375
L31.0625 -21.0469
L28.3281 -21.0469
Q23.5312 -21.0469 21.3906 -20.2656
Q18.2656 -19.1406 16.2031 -16.625
Q14.1562 -14.1094 13.5469 -10.25
Q12.9375 -6.39062 12.8906 2.39062
Q12.8438 11.1875 12.0625 14.5469
Q11.2812 17.9219 8.90625 19.875
Q6.54688 21.8281 2.78125 21.9219
z
" id="ArialMT-7b"/>
    </defs>
    <g transform="translate(230.6390625 34.3949053218)scale(0.2 -0.2)">
     <use xlink:href="#ArialMT-7b"/>
     <use x="33.3984375" xlink:href="#ArialMT-66"/>
     <use x="61.181640625" xlink:href="#ArialMT-31"/>
     <use x="116.796875" xlink:href="#ArialMT-2d"/>
     <use x="150.09765625" xlink:href="#ArialMT-66"/>
     <use x="177.880859375" xlink:href="#ArialMT-35"/>
     <use x="233.49609375" xlink:href="#ArialMT-7d"/>
     <use x="266.89453125" xlink:href="#ArialMT-2c"/>
     <use x="294.677734375" xlink:href="#ArialMT-20"/>
     <use x="322.4609375" xlink:href="#ArialMT-32"/>
     <use x="378.076171875" xlink:href="#ArialMT-30"/>
     <use x="433.69140625" xlink:href="#ArialMT-2d"/>
     <use x="466.9921875" xlink:href="#ArialMT-44"/>
    </g>
   </g>
   <g id="text_13">
    <!-- reference budgets from refalgs/best2009-bbob.tar.gz -->
    <defs>
     <path d="
M40.4375 19
L49.0781 17.875
Q47.6562 8.9375 41.8125 3.875
Q35.9844 -1.17188 27.4844 -1.17188
Q16.8438 -1.17188 10.375 5.78125
Q3.90625 12.75 3.90625 25.7344
Q3.90625 34.125 6.6875 40.4219
Q9.46875 46.7344 15.1562 49.875
Q20.8438 53.0312 27.5469 53.0312
Q35.9844 53.0312 41.3594 48.75
Q46.7344 44.4844 48.25 36.625
L39.7031 35.2969
Q38.4844 40.5312 35.375 43.1562
Q32.2812 45.7969 27.875 45.7969
Q21.2344 45.7969 17.0781 41.0312
Q12.9375 36.2812 12.9375 25.9844
Q12.9375 15.5312 16.9375 10.7969
Q20.9531 6.0625 27.3906 6.0625
Q32.5625 6.0625 36.0312 9.23438
Q39.5 12.4062 40.4375 19" id="ArialMT-63"/>
     <path d="
M14.7031 0
L6.54688 0
L6.54688 71.5781
L15.3281 71.5781
L15.3281 46.0469
Q20.9062 53.0312 29.5469 53.0312
Q34.3281 53.0312 38.5938 51.0938
Q42.875 49.1719 45.625 45.6719
Q48.3906 42.1875 49.9531 37.25
Q51.5156 32.3281 51.5156 26.7031
Q51.5156 13.375 44.9219 6.09375
Q38.3281 -1.17188 29.1094 -1.17188
Q19.9219 -1.17188 14.7031 6.5
z

M14.5938 26.3125
Q14.5938 17 17.1406 12.8438
Q21.2969 6.0625 28.375 6.0625
Q34.125 6.0625 38.3281 11.0625
Q42.5312 16.0625 42.5312 25.9844
Q42.5312 36.1406 38.5 40.9688
Q34.4688 45.7969 28.7656 45.7969
Q23 45.7969 18.7969 40.7969
Q14.5938 35.7969 14.5938 26.3125" id="ArialMT-62"/>
     <path d="
M42.0938 16.7031
L51.1719 15.5781
Q49.0312 7.625 43.2188 3.21875
Q37.4062 -1.17188 28.375 -1.17188
Q17 -1.17188 10.3281 5.82812
Q3.65625 12.8438 3.65625 25.4844
Q3.65625 38.5781 10.3906 45.7969
Q17.1406 53.0312 27.875 53.0312
Q38.2812 53.0312 44.875 45.9531
Q51.4688 38.875 51.4688 26.0312
Q51.4688 25.25 51.4219 23.6875
L12.75 23.6875
Q13.2344 15.1406 17.5781 10.5938
Q21.9219 6.0625 28.4219 6.0625
Q33.25 6.0625 36.6719 8.59375
Q40.0938 11.1406 42.0938 16.7031
M13.2344 30.9062
L42.1875 30.9062
Q41.6094 37.4531 38.875 40.7188
Q34.6719 45.7969 27.9844 45.7969
Q21.9219 45.7969 17.7969 41.75
Q13.6719 37.7031 13.2344 30.9062" id="ArialMT-65"/>
     <path d="
M40.2344 0
L40.2344 6.54688
Q35.2969 -1.17188 25.7344 -1.17188
Q19.5312 -1.17188 14.3281 2.25
Q9.125 5.67188 6.26562 11.7969
Q3.42188 17.9219 3.42188 25.875
Q3.42188 33.6406 6 39.9688
Q8.59375 46.2969 13.7656 49.6562
Q18.9531 53.0312 25.3438 53.0312
Q30.0312 53.0312 33.6875 51.0469
Q37.3594 49.0781 39.6562 45.9062
L39.6562 71.5781
L48.3906 71.5781
L48.3906 0
z

M12.4531 25.875
Q12.4531 15.9219 16.6406 10.9844
Q20.8438 6.0625 26.5625 6.0625
Q32.3281 6.0625 36.3438 10.7656
Q40.375 15.4844 40.375 25.1406
Q40.375 35.7969 36.2656 40.7656
Q32.1719 45.75 26.1719 45.75
Q20.3125 45.75 16.375 40.9688
Q12.4531 36.1875 12.4531 25.875" id="ArialMT-64"/>
     <path d="
M40.5781 0
L40.5781 7.625
Q34.5156 -1.17188 24.125 -1.17188
Q19.5312 -1.17188 15.5469 0.578125
Q11.5781 2.34375 9.64062 5
Q7.71875 7.67188 6.9375 11.5312
Q6.39062 14.1094 6.39062 19.7344
L6.39062 51.8594
L15.1875 51.8594
L15.1875 23.0938
Q15.1875 16.2188 15.7188 13.8125
Q16.5469 10.3594 19.2344 8.375
Q21.9219 6.39062 25.875 6.39062
Q29.8281 6.39062 33.2969 8.42188
Q36.7656 10.4531 38.2031 13.9375
Q39.6562 17.4375 39.6562 24.0781
L39.6562 51.8594
L48.4375 51.8594
L48.4375 0
z
" id="ArialMT-75"/>
     <path d="
M5.46875 16.5469
L13.9219 17.3281
Q14.9844 11.375 18.0156 8.6875
Q21.0469 6 25.7812 6
Q29.8281 6 32.875 7.85938
Q35.9375 9.71875 37.8906 12.8125
Q39.8438 15.9219 41.1562 21.1875
Q42.4844 26.4688 42.4844 31.9375
Q42.4844 32.5156 42.4375 33.6875
Q39.7969 29.5 35.2344 26.875
Q30.6719 24.2656 25.3438 24.2656
Q16.4531 24.2656 10.2969 30.7031
Q4.15625 37.1562 4.15625 47.7031
Q4.15625 58.5938 10.5781 65.2344
Q17 71.875 26.6562 71.875
Q33.6406 71.875 39.4219 68.1094
Q45.2188 64.3594 48.2188 57.3906
Q51.2188 50.4375 51.2188 37.25
Q51.2188 23.5312 48.2344 15.4062
Q45.2656 7.28125 39.375 3.03125
Q33.5 -1.21875 25.5938 -1.21875
Q17.1875 -1.21875 11.8594 3.4375
Q6.54688 8.10938 5.46875 16.5469
M41.4531 48.1406
Q41.4531 55.7188 37.4219 60.1562
Q33.4062 64.5938 27.7344 64.5938
Q21.875 64.5938 17.5312 59.8125
Q13.1875 55.0312 13.1875 47.4062
Q13.1875 40.5781 17.3125 36.2969
Q21.4375 32.0312 27.4844 32.0312
Q33.5938 32.0312 37.5156 36.2969
Q41.4531 40.5781 41.4531 48.1406" id="ArialMT-39"/>
     <path d="
M6.59375 0
L6.59375 51.8594
L14.4531 51.8594
L14.4531 44.5781
Q16.8906 48.3906 20.9375 50.7031
Q25 53.0312 30.1719 53.0312
Q35.9375 53.0312 39.625 50.6406
Q43.3125 48.25 44.8281 43.9531
Q50.9844 53.0312 60.8438 53.0312
Q68.5625 53.0312 72.7031 48.75
Q76.8594 44.4844 76.8594 35.5938
L76.8594 0
L68.1094 0
L68.1094 32.6719
Q68.1094 37.9375 67.25 40.25
Q66.4062 42.5781 64.1562 43.9844
Q61.9219 45.4062 58.8906 45.4062
Q53.4219 45.4062 49.7969 41.7656
Q46.1875 38.1406 46.1875 30.125
L46.1875 0
L37.4062 0
L37.4062 33.6875
Q37.4062 39.5469 35.25 42.4688
Q33.1094 45.4062 28.2188 45.4062
Q24.5156 45.4062 21.3594 43.4531
Q18.2188 41.5 16.7969 37.7344
Q15.375 33.9844 15.375 26.9062
L15.375 0
z
" id="ArialMT-6d"/>
     <path d="
M1.95312 0
L1.95312 7.125
L34.9688 45.0156
Q29.3438 44.7344 25.0469 44.7344
L3.90625 44.7344
L3.90625 51.8594
L46.2969 51.8594
L46.2969 46.0469
L18.2188 13.1406
L12.7969 7.125
Q18.7031 7.5625 23.875 7.5625
L47.8594 7.5625
L47.8594 0
z
" id="ArialMT-7a"/>
    </defs>
    <g transform="translate(60.825 358.523530322)scale(0.14 -0.14)">
     <use xlink:href="#ArialMT-72"/>
     <use x="33.30078125" xlink:href="#ArialMT-65"/>
     <use x="88.916015625" xlink:href="#ArialMT-66"/>
     <use x="116.69921875" xlink:href="#ArialMT-65"/>
     <use x="172.314453125" xlink:href="#ArialMT-72"/>
     <use x="205.615234375" xlink:href="#ArialMT-65"/>
     <use x="261.23046875" xlink:href="#ArialMT-6e"/>
     <use x="316.845703125" xlink:href="#ArialMT-63"/>
     <use x="366.845703125" xlink:href="#ArialMT-65"/>
     <use x="422.4609375" xlink:href="#ArialMT-20"/>
     <use x="450.244140625" xlink:href="#ArialMT-62"/>
     <use x="505.859375" xlink:href="#ArialMT-75"/>
     <use x="561.474609375" xlink:href="#ArialMT-64"/>
     <use x="617.08984375" xlink:href="#ArialMT-67"/>
     <use x="672.705078125" xlink:href="#ArialMT-65"/>
     <use x="728.3203125" xlink:href="#ArialMT-74"/>
     <use x="756.103515625" xlink:href="#ArialMT-73"/>
     <use x="806.103515625" xlink:href="#ArialMT-20"/>
     <use x="833.88671875" xlink:href="#ArialMT-66"/>
     <use x="861.669921875" xlink:href="#ArialMT-72"/>
     <use x="894.970703125" xlink:href="#ArialMT-6f"/>
     <use x="950.5859375" xlink:href="#ArialMT-6d"/>
     <use x="1033.88671875" xlink:href="#ArialMT-20"/>
     <use x="1061.66992188" xlink:href="#ArialMT-72"/>
     <use x="1094.97070312" xlink:href="#ArialMT-65"/>
     <use x="1150.5859375" xlink:href="#ArialMT-66"/>
     <use x="1178.36914062" xlink:href="#ArialMT-61"/>
     <use x="1233.984375" xlink:href="#ArialMT-6c"/>
     <use x="1256.20117188" xlink:href="#ArialMT-67"/>
     <use x="1311.81640625" xlink:href="#ArialMT-73"/>
     <use x="1361.81640625" xlink:href="#ArialMT-2f"/>
     <use x="1389.59960938" xlink:href="#ArialMT-62"/>
     <use x="1445.21484375" xlink:href="#ArialMT-65"/>
     <use x="1500.83007812" xlink:href="#ArialMT-73"/>
     <use x="1550.83007812" xlink:href="#ArialMT-74"/>
     <use x="1578.61328125" xlink:href="#ArialMT-32"/>
     <use x="1634.22851562" xlink:href="#ArialMT-30"/>
     <use x="1689.84375" xlink:href="#ArialMT-30"/>
     <use x="1745.45898438" xlink:href="#ArialMT-39"/>
     <use x="1801.07421875" xlink:href="#ArialMT-2d"/>
     <use x="1834.375" xlink:href="#ArialMT-62"/>
     <use x="1889.99023438" xlink:href="#ArialMT-62"/>
     <use x="1945.60546875" xlink:href="#ArialMT-6f"/>
     <use x="2001.22070312" xlink:href="#ArialMT-62"/>
     <use x="2056.8359375" xlink:href="#ArialMT-2e"/>
     <use x="2084.61914062" xlink:href="#ArialMT-74"/>
     <use x="2112.40234375" xlink:href="#ArialMT-61"/>
     <use x="2168.01757812" xlink:href="#ArialMT-72"/>
     <use x="2195.81835938" xlink:href="#ArialMT-2e"/>
     <use x="2223.6015625" xlink:href="#ArialMT-67"/>
     <use x="2279.21679688" xlink:href="#ArialMT-7a"/>
    </g>
   </g>
   <g id="text_14">
    <!-- v2.0.1 -->
    <g style="fill:#808080;" transform="translate(271.38671875 353.080030322)scale(0.1 -0.1)">
     <use xlink:href="#ArialMT-76"/>
     <use x="50.0" xlink:href="#ArialMT-32"/>
     <use x="105.615234375" xlink:href="#ArialMT-2e"/>
     <use x="133.3984375" xlink:href="#ArialMT-30"/>
     <use x="189.013671875" xlink:href="#ArialMT-2e"/>
     <use x="216.796875" xlink:href="#ArialMT-31"/>
    </g>
   </g>
   <g id="legend_1">
    <g id="patch_7">
     <path d="
M70.825 142.086
L208.738 142.086
L208.738 22.9235
L70.825 22.9235
L70.825 142.086
z
" style="fill:#ffffff;opacity:0.2;stroke:#000000;"/>
    </g>
    <g id="line2d_114">
     <path d="
M84.825 38.2392
L112.825 38.2392" style="fill:none;stroke:#000000;stroke-linecap:square;"/>
    </g>
    <g id="line2d_115"/>
    <g id="text_15">
     <!-- 0.5: 5/5 -->
     <defs>
      <path d="
M9.03125 41.8438
L9.03125 51.8594
L19.0469 51.8594
L19.0469 41.8438
z

M9.03125 0
L9.03125 10.0156
L19.0469 10.0156
L19.0469 0
z
" id="ArialMT-3a"/>
     </defs>
     <g transform="translate(134.825 45.2391553218)scale(0.2 -0.2)">
      <use xlink:href="#ArialMT-30"/>
      <use x="55.615234375" xlink:href="#ArialMT-2e"/>
      <use x="83.3984375" xlink:href="#ArialMT-35"/>
      <use x="139.013671875" xlink:href="#ArialMT-3a"/>
      <use x="166.796875" xlink:href="#ArialMT-20"/>
      <use x="194.580078125" xlink:href="#ArialMT-35"/>
      <use x="250.1953125" xlink:href="#ArialMT-2f"/>
      <use x="277.978515625" xlink:href="#ArialMT-35"/>
     </g>
    </g>
    <g id="line2d_116">
     <path d="
M84.825 66.5298
L112.825 66.5298" style="fill:none;stroke:#00bfbf;stroke-linecap:square;"/>
    </g>
    <g id="line2d_117"/>
    <g id="text_16">
     <!-- 2: 5/5 -->
     <g transform="translate(134.825 73.5297803218)scale(0.2 -0.2)">
      <use xlink:href="#ArialMT-32"/>
      <use x="55.615234375" xlink:href="#ArialMT-3a"/>
      <use x="83.3984375" xlink:href="#ArialMT-20"/>
      <use x="111.181640625" xlink:href="#ArialMT-35"/>
      <use x="166.796875" xlink:href="#ArialMT-2f"/>
      <use x="194.580078125" xlink:href="#ArialMT-35"/>
     </g>
    </g>
    <g id="line2d_118">
     <path d="
M84.825 94.8204
L112.825 94.8204" style="fill:none;stroke:#bf00bf;stroke-linecap:square;"/>
    </g>
    <g id="line2d_119"/>
    <g id="text_17">
     <!-- 10: 3/5 -->
     <defs>
      <path d="
M4.20312 18.8906
L12.9844 20.0625
Q14.5 12.5938 18.1406 9.29688
Q21.7812 6 27 6
Q33.2031 6 37.4688 10.2969
Q41.75 14.5938 41.75 20.9531
Q41.75 27 37.7969 30.9219
Q33.8438 34.8594 27.7344 34.8594
Q25.25 34.8594 21.5312 33.8906
L22.5156 41.6094
Q23.3906 41.5 23.9219 41.5
Q29.5469 41.5 34.0312 44.4219
Q38.5312 47.3594 38.5312 53.4688
Q38.5312 58.2969 35.25 61.4688
Q31.9844 64.6562 26.8125 64.6562
Q21.6875 64.6562 18.2656 61.4219
Q14.8438 58.2031 13.875 51.7656
L5.07812 53.3281
Q6.6875 62.1562 12.3906 67.0156
Q18.1094 71.875 26.6094 71.875
Q32.4688 71.875 37.3906 69.3594
Q42.3281 66.8438 44.9375 62.5
Q47.5625 58.1562 47.5625 53.2656
Q47.5625 48.6406 45.0625 44.8281
Q42.5781 41.0156 37.7031 38.7656
Q44.0469 37.3125 47.5625 32.6875
Q51.0781 28.0781 51.0781 21.1406
Q51.0781 11.7656 44.2344 5.25
Q37.4062 -1.26562 26.9531 -1.26562
Q17.5312 -1.26562 11.2969 4.34375
Q5.07812 9.96875 4.20312 18.8906" id="ArialMT-33"/>
     </defs>
     <g transform="translate(134.825 101.820405322)scale(0.2 -0.2)">
      <use xlink:href="#ArialMT-31"/>
      <use x="55.615234375" xlink:href="#ArialMT-30"/>
      <use x="111.23046875" xlink:href="#ArialMT-3a"/>
      <use x="139.013671875" xlink:href="#ArialMT-20"/>
      <use x="166.796875" xlink:href="#ArialMT-33"/>
      <use x="222.412109375" xlink:href="#ArialMT-2f"/>
      <use x="250.1953125" xlink:href="#ArialMT-35"/>
     </g>
    </g>
    <g id="line2d_120">
     <path d="
M84.825 123.111
L112.825 123.111" style="fill:none;stroke:#ff0000;stroke-linecap:square;stroke-width:3.0;"/>
    </g>
    <g id="line2d_121"/>
    <g id="text_18">
     <!-- 50: 1/5 -->
     <g transform="translate(134.825 130.111030322)scale(0.2 -0.2)">
      <use xlink:href="#ArialMT-35"/>
      <use x="55.615234375" xlink:href="#ArialMT-30"/>
      <use x="111.23046875" xlink:href="#ArialMT-3a"/>
      <use x="139.013671875" xlink:href="#ArialMT-20"/>
      <use x="166.796875" xlink:href="#ArialMT-31"/>
      <use x="222.412109375" xlink:href="#ArialMT-2f"/>
      <use x="250.1953125" xlink:href="#ArialMT-35"/>
     </g>
    </g>
   </g>
  </g>
 </g>
 <defs>
  <clipPath id="p0ab5e1e507">
   <rect height="345.6" width="446.4" x="60.825" y="12.9235303218"/>
  </clipPath>
 </defs>
</svg>
