<?xml version="1.0" encoding="utf-8" standalone="no"?>
<!DOCTYPE svg PUBLIC "-//W3C//DTD SVG 1.1//EN"
  "http://www.w3.org/Graphics/SVG/1.1/DTD/svg11.dtd">
<!-- Created with matplotlib (http://matplotlib.org/) -->
<svg height="411pt" version="1.1" viewBox="0 0 514 411" width="514pt" xmlns="http://www.w3.org/2000/svg" xmlns:xlink="http://www.w3.org/1999/xlink">
 <defs>
  <style type="text/css">
*{stroke-linecap:butt;stroke-linejoin:round;}
  </style>
 </defs>
 <g id="figure_1">
  <g id="patch_1">
   <path d="
M0 411.783
L514.425 411.783
L514.425 0
L0 0
z
" style="fill:#ffffff;"/>
  </g>
  <g id="axes_1">
   <g id="patch_2">
    <path d="
M60.825 358.524
L507.225 358.524
L507.225 12.9235
L60.825 12.9235
z
" style="fill:#ffffff;"/>
   </g>
   <g id="line2d_1">
    <path clip-path="url(#p0ab5e1e507)" d="
M359.145 358.524
L359.145 352.821
L363.707 352.821
L363.707 347.118
L377.774 347.118
L377.774 341.415
L384.714 341.415
L384.714 335.712
L395.867 335.712
L395.867 330.009
L399.389 330.009
L399.389 324.306
L403.666 324.306
L403.666 318.603
L409.461 318.603
L409.461 312.9
L410.997 312.9
L410.997 307.197
L413.882 307.197
L413.882 301.494
L414.156 301.494
L414.156 295.791
L420.044 295.791
L420.044 290.088
L420.267 290.088
L420.267 284.385
L420.712 284.385
L420.712 278.682
L421.982 278.682
L421.982 272.979
L425.805 272.979
L425.805 267.276
L428.896 267.276
L428.896 261.573
L432.61 261.573
L432.61 255.87
L436.469 255.87
L436.469 250.167
L436.893 250.167
L436.893 244.464
L437.996 244.464
L437.996 238.761
L447.894 238.761
L447.894 233.058
L450.106 233.058
L450.106 227.355
L459.182 227.355
L459.182 221.652
L459.264 221.652
L459.264 215.949
L461.662 215.949
L461.662 210.246
L461.754 210.246
L461.754 204.543
L461.806 204.543
L461.806 198.84
L461.949 198.84
L461.949 193.137
L479.397 193.137
L479.397 187.434
L481.721 187.434
L481.721 181.731
L482.36 181.731
L482.36 176.028
L485.674 176.028
L485.674 170.326
L489.806 170.326
L489.806 164.623
L492.541 164.623
L492.541 158.92
L493.467 158.92
L493.467 153.217
L496.414 153.217
L496.414 147.514
L499.83 147.514
L499.83 141.811
L503.643 141.811
L503.643 136.108
L508.758 136.108
L508.758 130.405
L514.059 130.405
L514.059 124.702
L515.425 124.702" style="fill:none;stroke:#f5deb3;stroke-linecap:square;"/>
   </g>
   <g id="line2d_2">
    <path clip-path="url(#p0ab5e1e507)" d="
M433.181 358.524
L433.181 352.821
L436.063 352.821
L436.063 347.118
L437.883 347.118
L437.883 341.415
L438.091 341.415
L438.091 335.712
L440.982 335.712
L440.982 330.009
L442.986 330.009
L442.986 324.306
L448.007 324.306
L448.007 318.603
L452.741 318.603
L452.741 312.9
L460.872 312.9
L460.872 307.197
L464.815 307.197
L464.815 301.494
L467.987 301.494
L467.987 295.791
L474.482 295.791
L474.482 290.088
L484.223 290.088
L484.223 284.385
L487.234 284.385
L487.234 278.682
L493.491 278.682
L493.491 272.979
L515.425 272.979" style="fill:none;stroke:#f5deb3;stroke-linecap:square;"/>
   </g>
   <g id="line2d_3">
    <path clip-path="url(#p0ab5e1e507)" d="
M580.807 358.524" style="fill:none;stroke:#f5deb3;stroke-linecap:square;"/>
   </g>
   <g id="line2d_4"/>
   <g id="line2d_5">
    <path clip-path="url(#p0ab5e1e507)" d="
M357.528 358.524
L357.528 352.821
L362.506 352.821
L362.506 347.118
L365.411 347.118
L365.411 341.415
L368.357 341.415
L368.357 335.712
L378.441 335.712
L378.441 330.009
L379.289 330.009
L379.289 324.306
L383.279 324.306
L383.279 318.603
L388.148 318.603
L388.148 312.9
L389.441 312.9
L389.441 307.197
L390.196 307.197
L390.196 301.494
L394.808 301.494
L394.808 295.791
L400.476 295.791
L400.476 290.088
L401.91 290.088
L401.91 284.385
L402.337 284.385
L402.337 278.682
L404.018 278.682
L404.018 272.979
L404.684 272.979
L404.684 267.276
L406.797 267.276
L406.797 261.573
L408.188 261.573
L408.188 255.87
L412.386 255.87
L412.386 250.167
L413.166 250.167
L413.166 244.464
L414.101 244.464
L414.101 238.761
L415.13 238.761
L415.13 233.058
L422.126 233.058
L422.126 227.355
L422.583 227.355
L422.583 221.652
L427.068 221.652
L427.068 215.949
L431.763 215.949
L431.763 210.246
L432.753 210.246
L432.753 204.543
L434.249 204.543
L434.249 198.84
L434.449 198.84
L434.449 193.137
L434.529 193.137
L434.529 187.434
L437.065 187.434
L437.065 181.731
L438.765 181.731
L438.765 176.028
L438.765 176.028
L438.765 170.326
L442.407 170.326
L442.407 164.623
L442.986 164.623
L442.986 158.92
L443.161 158.92
L443.161 153.217
L446.586 153.217
L446.586 147.514
L446.652 147.514
L446.652 141.811
L447.063 141.811
L447.063 136.108
L447.26 136.108
L447.26 130.405
L451.758 130.405
L451.758 124.702
L452.936 124.702
L452.936 118.999
L454.005 118.999
L454.005 113.296
L460.514 113.296
L460.514 107.593
L462.957 107.593
L462.957 101.89
L507.631 101.89
L507.631 96.1869
L508.922 96.1869
L508.922 90.4839
L511.726 90.4839
L511.726 84.781
L512.182 84.781
L512.182 79.078
L515.051 79.078
L515.051 73.375
L515.425 73.375" style="fill:none;stroke:#f5deb3;stroke-linecap:square;"/>
   </g>
   <g id="line2d_6">
    <path clip-path="url(#p0ab5e1e507)" d="
M289.578 358.524
L289.578 352.821
L297.669 352.821
L297.669 347.118
L298.163 347.118
L298.163 341.415
L303.059 341.415
L303.059 335.712
L311.729 335.712
L311.729 330.009
L313.436 330.009
L313.436 324.306
L332.485 324.306
L332.485 318.603
L344.11 318.603
L344.11 312.9
L381.946 312.9
L381.946 307.197
L391.37 307.197
L391.37 301.494
L412.916 301.494
L412.916 295.791
L429.888 295.791
L429.888 290.088
L436.72 290.088
L436.72 284.385
L449.097 284.385
L449.097 278.682
L474.92 278.682
L474.92 272.979
L480.393 272.979
L480.393 267.276
L515.172 267.276
L515.172 261.573
L515.425 261.573" style="fill:none;stroke:#f5deb3;stroke-linecap:square;"/>
   </g>
   <g id="line2d_7">
    <path clip-path="url(#p0ab5e1e507)" d="
M352.984 358.524
L352.984 352.821
L354.648 352.821
L354.648 347.118
L357.659 347.118
L357.659 341.415
L358.374 341.415
L358.374 335.712
L359.273 335.712
L359.273 330.009
L367.184 330.009
L367.184 324.306
L367.969 324.306
L367.969 318.603
L368.136 318.603
L368.136 312.9
L374.433 312.9
L374.433 307.197
L378.346 307.197
L378.346 301.494
L383.059 301.494
L383.059 295.791
L385.143 295.791
L385.143 290.088
L393.882 290.088
L393.882 284.385
L395.175 284.385
L395.175 278.682
L396.872 278.682
L396.872 272.979
L399.696 272.979
L399.696 267.276
L403.183 267.276
L403.183 261.573
L406.337 261.573
L406.337 255.87
L410.71 255.87
L410.71 250.167
L413.773 250.167
L413.773 244.464
L415.103 244.464
L415.103 238.761
L416.984 238.761
L416.984 233.058
L419.368 233.058
L419.368 227.355
L421.252 227.355
L421.252 221.652
L428 221.652
L428 215.949
L428.613 215.949
L428.613 210.246
L436.004 210.246
L436.004 204.543
L439.377 204.543
L439.377 198.84
L440.367 198.84
L440.367 193.137
L443.491 193.137
L443.491 187.434
L444.76 187.434
L444.76 181.731
L453.31 181.731
L453.31 176.028
L454.621 176.028
L454.621 170.326
L455.043 170.326
L455.043 164.623
L457.068 164.623
L457.068 158.92
L458.016 158.92
L458.016 153.217
L458.595 153.217
L458.595 147.514
L463.595 147.514
L463.595 141.811
L469.174 141.811
L469.174 136.108
L469.743 136.108
L469.743 130.405
L470.088 130.405
L470.088 124.702
L473.335 124.702
L473.335 118.999
L480.403 118.999
L480.403 113.296
L482.805 113.296
L482.805 107.593
L495.366 107.593
L495.366 101.89
L515.425 101.89" style="fill:none;stroke:#f5deb3;stroke-linecap:square;"/>
   </g>
   <g id="line2d_8">
    <path clip-path="url(#p0ab5e1e507)" d="
M334.293 358.524
L334.293 352.821
L367.24 352.821
L367.24 347.118
L370.322 347.118
L370.322 341.415
L372.747 341.415
L372.747 335.712
L377.87 335.712
L377.87 330.009
L383.718 330.009
L383.718 324.306
L385.865 324.306
L385.865 318.603
L389.08 318.603
L389.08 312.9
L391.098 312.9
L391.098 307.197
L409.491 307.197
L409.491 301.494
L409.491 301.494
L409.491 295.791
L420.118 295.791
L420.118 290.088
L426.055 290.088
L426.055 284.385
L427.024 284.385
L427.024 278.682
L437.751 278.682
L437.751 272.979
L437.902 272.979
L437.902 267.276
L444.675 267.276
L444.675 261.573
L460.1 261.573
L460.1 255.87
L462.546 255.87
L462.546 250.167
L462.713 250.167
L462.713 244.464
L479.803 244.464
L479.803 238.761
L479.862 238.761
L479.862 233.058
L481.442 233.058
L481.442 227.355
L487.137 227.355
L487.137 221.652
L489.322 221.652
L489.322 215.949
L490.085 215.949
L490.085 210.246
L494.207 210.246
L494.207 204.543
L514.54 204.543
L514.54 198.84
L515.425 198.84" style="fill:none;stroke:#f5deb3;stroke-linecap:square;"/>
   </g>
   <g id="line2d_9">
    <path clip-path="url(#p0ab5e1e507)" d="
M550.596 358.524" style="fill:none;stroke:#f5deb3;stroke-linecap:square;"/>
   </g>
   <g id="line2d_10">
    <path clip-path="url(#p0ab5e1e507)" d="
M385.143 358.524
L385.143 352.821
L391.137 352.821
L391.137 347.118
L395.867 347.118
L395.867 341.415
L404.399 341.415
L404.399 335.712
L405.062 335.712
L405.062 330.009
L412.526 330.009
L412.526 324.306
L413.111 324.306
L413.111 318.603
L414.265 318.603
L414.265 312.9
L414.834 312.9
L414.834 307.197
L415.398 307.197
L415.398 301.494
L417.062 301.494
L417.062 295.791
L418.685 295.791
L418.685 290.088
L421.812 290.088
L421.812 284.385
L422.822 284.385
L422.822 278.682
L427.18 278.682
L427.18 272.979
L427.647 272.979
L427.647 267.276
L431.263 267.276
L431.263 261.573
L431.701 261.573
L431.701 255.87
L432.568 255.87
L432.568 250.167
L434.269 250.167
L434.269 244.464
L434.688 244.464
L434.688 238.761
L436.334 238.761
L436.334 233.058
L437.542 233.058
L437.542 227.355
L438.335 227.355
L438.335 221.652
L439.892 221.652
L439.892 215.949
L440.657 215.949
L440.657 210.246
L441.413 210.246
L441.413 204.543
L442.16 204.543
L442.16 198.84
L442.16 198.84
L442.16 193.137
L443.265 193.137
L443.265 187.434
L445.065 187.434
L445.065 181.731
L445.772 181.731
L445.772 176.028
L446.817 176.028
L446.817 170.326
L450.184 170.326
L450.184 164.623
L450.837 164.623
L450.837 158.92
L450.837 158.92
L450.837 153.217
L451.483 153.217
L451.483 147.514
L454.314 147.514
L454.314 141.811
L454.314 141.811
L454.314 136.108
L456.135 136.108
L456.135 130.405
L456.135 130.405
L456.135 124.702
L461.031 124.702
L461.031 118.999
L465.324 118.999
L465.324 113.296
L468.118 113.296
L468.118 107.593
L486.588 107.593
L486.588 101.89
L486.588 101.89
L486.588 101.89
L507.225 101.89" style="fill:none;stroke:#f5deb3;stroke-linecap:square;"/>
   </g>
   <g id="line2d_11">
    <path clip-path="url(#p0ab5e1e507)" d="
M368.634 358.524
L368.634 352.821
L374.584 352.821
L374.584 347.118
L390.275 347.118
L390.275 341.415
L393.47 341.415
L393.47 335.712
L395.722 335.712
L395.722 330.009
L410.997 330.009
L410.997 324.306
L413.194 324.306
L413.194 318.603
L418.097 318.603
L418.097 312.9
L419.994 312.9
L419.994 307.197
L420.639 307.197
L420.639 301.494
L428.373 301.494
L428.373 295.791
L428.962 295.791
L428.962 290.088
L431.659 290.088
L431.659 284.385
L433.181 284.385
L433.181 278.682
L436.431 278.682
L436.431 272.979
L436.874 272.979
L436.874 267.276
L437.845 267.276
L437.845 261.573
L443.126 261.573
L443.126 255.87
L443.178 255.87
L443.178 250.167
L443.352 250.167
L443.352 244.464
L444.266 244.464
L444.266 238.761
L446.321 238.761
L446.321 233.058
L448.378 233.058
L448.378 227.355
L452.153 227.355
L452.153 221.652
L452.772 221.652
L452.772 215.949
L453.725 215.949
L453.725 210.246
L457.082 210.246
L457.082 204.543
L458.32 204.543
L458.32 198.84
L463.633 198.84
L463.633 193.137
L464.151 193.137
L464.151 187.434
L464.54 187.434
L464.54 181.731
L471.485 181.731
L471.485 176.028
L472.864 176.028
L472.864 170.326
L475.197 170.326
L475.197 164.623
L475.239 164.623
L475.239 158.92
L476.614 158.92
L476.614 153.217
L478.607 153.217
L478.607 147.514
L480.305 147.514
L480.305 141.811
L480.735 141.811
L480.735 136.108
L481.104 136.108
L481.104 130.405
L486.712 130.405
L486.712 124.702
L496.886 124.702
L496.886 118.999
L499.539 118.999
L499.539 113.296
L499.801 113.296
L499.801 107.593
L510.802 107.593
L510.802 101.89
L515.425 101.89" style="fill:none;stroke:#f5deb3;stroke-linecap:square;"/>
   </g>
   <g id="line2d_12">
    <path clip-path="url(#p0ab5e1e507)" d="
M341.394 358.524
L341.394 352.821
L346.406 352.821
L346.406 347.118
L349.446 347.118
L349.446 341.415
L356.538 341.415
L356.538 335.712
L361.528 335.712
L361.528 330.009
L362.929 330.009
L362.929 324.306
L364.359 324.306
L364.359 318.603
L366.617 318.603
L366.617 312.9
L367.014 312.9
L367.014 307.197
L367.24 307.197
L367.24 301.494
L369.673 301.494
L369.673 295.791
L374.181 295.791
L374.181 290.088
L374.584 290.088
L374.584 284.385
L376.027 284.385
L376.027 278.682
L382.882 278.682
L382.882 272.979
L385.696 272.979
L385.696 267.276
L387.162 267.276
L387.162 261.573
L387.451 261.573
L387.451 255.87
L387.698 255.87
L387.698 250.167
L389.879 250.167
L389.879 244.464
L392.942 244.464
L392.942 238.761
L395.685 238.761
L395.685 233.058
L397.334 233.058
L397.334 227.355
L397.511 227.355
L397.511 221.652
L400.24 221.652
L400.24 215.949
L406.766 215.949
L406.766 210.246
L407.041 210.246
L407.041 204.543
L415.103 204.543
L415.103 198.84
L416.381 198.84
L416.381 193.137
L418.2 193.137
L418.2 187.434
L419.065 187.434
L419.065 181.731
L420.885 181.731
L420.885 176.028
L424.563 176.028
L424.563 170.326
L424.911 170.326
L424.911 164.623
L428.548 164.623
L428.548 158.92
L428.94 158.92
L428.94 153.217
L433.323 153.217
L433.323 147.514
L448.986 147.514
L448.986 141.811
L452.772 141.811
L452.772 136.108
L457.307 136.108
L457.307 130.405
L463.162 130.405
L463.162 124.702
L469.581 124.702
L469.581 118.999
L471.045 118.999
L471.045 113.296
L472.189 113.296
L472.189 107.593
L475.027 107.593
L475.027 101.89
L475.736 101.89
L475.736 96.1869
L477.602 96.1869
L477.602 90.4839
L477.745 90.4839
L477.745 84.781
L480 84.781
L480 79.078
L483.003 79.078
L483.003 73.375
L485.475 73.375
L485.475 67.672
L490.077 67.672
L490.077 61.9691
L490.371 61.9691
L490.371 56.2661
L492.921 56.2661
L492.921 50.5631
L493.858 50.5631
L493.858 44.8602
L495.265 44.8602
L495.265 39.1572
L498.489 39.1572
L498.489 33.4542
L509.586 33.4542
L509.586 27.7513
L515.425 27.7513" style="fill:none;stroke:#f5deb3;stroke-linecap:square;"/>
   </g>
   <g id="line2d_13">
    <path clip-path="url(#p0ab5e1e507)" d="
M434.129 358.524
L434.129 352.821
L438.691 352.821
L438.691 347.118
L445.217 347.118
L445.217 341.415
L452.501 341.415
L452.501 335.712
L452.531 335.712
L452.531 330.009
L457.082 330.009
L457.082 324.306
L457.404 324.306
L457.404 318.603
L461.505 318.603
L461.505 312.9
L461.819 312.9
L461.819 307.197
L464.628 307.197
L464.628 301.494
L473.083 301.494
L473.083 295.791
L474.546 295.791
L474.546 290.088
L475.557 290.088
L475.557 284.385
L478.051 284.385
L478.051 278.682
L492.305 278.682
L492.305 272.979
L515.425 272.979" style="fill:none;stroke:#f5deb3;stroke-linecap:square;"/>
   </g>
   <g id="line2d_14">
    <path clip-path="url(#p0ab5e1e507)" d="
M437.789 358.524
L437.789 352.821
L443.543 352.821
L443.543 347.118
L444.505 347.118
L444.505 341.415
L445.032 341.415
L445.032 335.712
L450.199 335.712
L450.199 330.009
L455.935 330.009
L455.935 324.306
L456.984 324.306
L456.984 318.603
L471.911 318.603
L471.911 312.9
L476.562 312.9
L476.562 307.197
L477.048 307.197
L477.048 301.494
L477.694 301.494
L477.694 295.791
L477.857 295.791
L477.857 290.088
L478.546 290.088
L478.546 284.385
L478.988 284.385
L478.988 278.682
L480.148 278.682
L480.148 272.979
L483.219 272.979
L483.219 267.276
L489.04 267.276
L489.04 261.573
L489.143 261.573
L489.143 255.87
L491.014 255.87
L491.014 250.167
L494.317 250.167
L494.317 244.464
L494.891 244.464
L494.891 238.761
L496.597 238.761
L496.597 233.058
L497.06 233.058
L497.06 227.355
L497.279 227.355
L497.279 221.652
L497.887 221.652
L497.887 215.949
L498.393 215.949
L498.393 210.246
L499.101 210.246
L499.101 204.543
L502.394 204.543
L502.394 198.84
L502.541 198.84
L502.541 193.137
L505.062 193.137
L505.062 187.434
L506.031 187.434
L506.031 181.731
L512.463 181.731
L512.463 176.028
L515.425 176.028" style="fill:none;stroke:#f5deb3;stroke-linecap:square;"/>
   </g>
   <g id="line2d_15">
    <path clip-path="url(#p0ab5e1e507)" d="
M457.767 358.524
L457.767 352.821
L464.553 352.821
L464.553 347.118
L478.152 347.118
L478.152 341.415
L479.655 341.415
L479.655 335.712
L485.674 335.712
L485.674 330.009
L489.611 330.009
L489.611 324.306
L492.215 324.306
L492.215 318.603
L492.5 318.603
L492.5 312.9
L498.118 312.9
L498.118 307.197
L498.711 307.197
L498.711 301.494
L499.851 301.494
L499.851 295.791
L501.036 295.791
L501.036 290.088
L504.147 290.088
L504.147 284.385
L506.732 284.385
L506.732 278.682
L510.108 278.682
L510.108 272.979
L512.008 272.979
L512.008 267.276
L515.425 267.276" style="fill:none;stroke:#f5deb3;stroke-linecap:square;"/>
   </g>
   <g id="line2d_16">
    <path clip-path="url(#p0ab5e1e507)" d="
M293.398 358.524
L293.398 352.821
L301.986 352.821
L301.986 347.118
L315.601 347.118
L315.601 341.415
L336.506 341.415
L336.506 335.712
L352.277 335.712
L352.277 330.009
L365.353 330.009
L365.353 324.306
L368.744 324.306
L368.744 318.603
L373.723 318.603
L373.723 312.9
L374.735 312.9
L374.735 307.197
L375.384 307.197
L375.384 301.494
L375.583 301.494
L375.583 295.791
L378.346 295.791
L378.346 290.088
L381.133 290.088
L381.133 284.385
L381.721 284.385
L381.721 278.682
L387.286 278.682
L387.286 272.979
L390.038 272.979
L390.038 267.276
L390.511 267.276
L390.511 261.573
L391.059 261.573
L391.059 255.87
L391.176 255.87
L391.176 250.167
L392.638 250.167
L392.638 244.464
L394.068 244.464
L394.068 238.761
L395.504 238.761
L395.504 233.058
L395.794 233.058
L395.794 227.355
L396.443 227.355
L396.443 221.652
L399.183 221.652
L399.183 215.949
L400.611 215.949
L400.611 210.246
L402.468 210.246
L402.468 204.543
L404.653 204.543
L404.653 198.84
L406.429 198.84
L406.429 193.137
L415.425 193.137
L415.425 187.434
L415.639 187.434
L415.639 181.731
L418.174 181.731
L418.174 176.028
L419.669 176.028
L419.669 170.326
L419.769 170.326
L419.769 164.623
L421.252 164.623
L421.252 158.92
L422.175 158.92
L422.175 153.217
L424.656 153.217
L424.656 147.514
L425.164 147.514
L425.164 141.811
L425.21 141.811
L425.21 136.108
L426.62 136.108
L426.62 130.405
L429.048 130.405
L429.048 124.702
L429.802 124.702
L429.802 118.999
L430.505 118.999
L430.505 113.296
L434.965 113.296
L434.965 107.593
L436.257 107.593
L436.257 101.89
L438.579 101.89
L438.579 96.1869
L439.118 96.1869
L439.118 90.4839
L439.267 90.4839
L439.267 84.781
L441.09 84.781
L441.09 79.078
L459.562 79.078
L459.562 73.375
L459.872 73.375
L459.872 67.672
L459.885 67.672
L459.885 61.9691
L464.964 61.9691
L464.964 56.2661
L465.138 56.2661
L465.138 50.5631
L466.293 50.5631
L466.293 44.8602
L485.602 44.8602
L485.602 39.1572
L507.747 39.1572
L507.747 33.4542
L508.575 33.4542
L508.575 27.7513
L515.425 27.7513" style="fill:none;stroke:#f5deb3;stroke-linecap:square;"/>
   </g>
   <g id="line2d_17">
    <path clip-path="url(#p0ab5e1e507)" d="
M517.821 358.524" style="fill:none;stroke:#f5deb3;stroke-linecap:square;"/>
   </g>
   <g id="line2d_18">
    <path clip-path="url(#p0ab5e1e507)" d="
M329.624 358.524
L329.624 352.821
L333.252 352.821
L333.252 347.118
L344.672 347.118
L344.672 341.415
L374.835 341.415
L374.835 335.712
L380.079 335.712
L380.079 330.009
L385.569 330.009
L385.569 324.306
L387.121 324.306
L387.121 318.603
L400.645 318.603
L400.645 312.9
L401.38 312.9
L401.38 307.197
L401.48 307.197
L401.48 301.494
L404.81 301.494
L404.81 295.791
L405.375 295.791
L405.375 290.088
L417.917 290.088
L417.917 284.385
L425.691 284.385
L425.691 278.682
L428.94 278.682
L428.94 272.979
L433.727 272.979
L433.727 267.276
L438.84 267.276
L438.84 261.573
L445.972 261.573
L445.972 255.87
L447.765 255.87
L447.765 250.167
L449.255 250.167
L449.255 244.464
L449.271 244.464
L449.271 238.761
L450.215 238.761
L450.215 233.058
L450.293 233.058
L450.293 227.355
L454.49 227.355
L454.49 221.652
L454.636 221.652
L454.636 215.949
L457.544 215.949
L457.544 210.246
L459.06 210.246
L459.06 204.543
L460.806 204.543
L460.806 198.84
L463.912 198.84
L463.912 193.137
L464.302 193.137
L464.302 187.434
L468.26 187.434
L468.26 181.731
L476.478 181.731
L476.478 176.028
L476.966 176.028
L476.966 170.326
L477.551 170.326
L477.551 164.623
L480.764 164.623
L480.764 158.92
L481.759 158.92
L481.759 153.217
L481.826 153.217
L481.826 147.514
L483.574 147.514
L483.574 141.811
L488.369 141.811
L488.369 136.108
L495.265 136.108
L495.265 130.405
L515.425 130.405" style="fill:none;stroke:#f5deb3;stroke-linecap:square;"/>
   </g>
   <g id="line2d_19">
    <path clip-path="url(#p0ab5e1e507)" d="
M643.1 358.524" style="fill:none;stroke:#f5deb3;stroke-linecap:square;"/>
   </g>
   <g id="line2d_20">
    <path clip-path="url(#p0ab5e1e507)" d="
M426.055 358.524
L426.055 352.821
L444.488 352.821
L444.488 347.118
L500.55 347.118
L500.55 341.415
L501 341.415
L501 335.712
L515.425 335.712" style="fill:none;stroke:#f5deb3;stroke-linecap:square;"/>
   </g>
   <g id="line2d_21">
    <path clip-path="url(#p0ab5e1e507)" d="
M384.628 358.524
L384.628 352.821
L384.843 352.821
L384.843 347.118
L388.798 347.118
L388.798 341.415
L389.04 341.415
L389.04 335.712
L396.658 335.712
L396.658 330.009
L397.015 330.009
L397.015 324.306
L397.121 324.306
L397.121 318.603
L398.317 318.603
L398.317 312.9
L398.352 312.9
L398.352 307.197
L405.594 307.197
L405.594 301.494
L407.828 301.494
L407.828 295.791
L413.937 295.791
L413.937 290.088
L466.56 290.088
L466.56 284.385
L515.425 284.385" style="fill:none;stroke:#f5deb3;stroke-linecap:square;"/>
   </g>
   <g id="line2d_22"/>
   <g id="line2d_23">
    <path clip-path="url(#p0ab5e1e507)" d="
M578.09 358.524" style="fill:none;stroke:#f5deb3;stroke-linecap:square;"/>
   </g>
   <g id="line2d_24">
    <path clip-path="url(#p0ab5e1e507)" d="
M575.826 358.524" style="fill:none;stroke:#f5deb3;stroke-linecap:square;"/>
   </g>
   <g id="line2d_25">
    <path clip-path="url(#p0ab5e1e507)" d="
M360.41 358.524
L360.41 352.821
L366.788 352.821
L366.788 347.118
L370.803 347.118
L370.803 341.415
L381.856 341.415
L381.856 335.712
L382.971 335.712
L382.971 330.009
L384.628 330.009
L384.628 324.306
L387.493 324.306
L387.493 318.603
L388.999 318.603
L388.999 312.9
L393.395 312.9
L393.395 307.197
L394.217 307.197
L394.217 301.494
L399.696 301.494
L399.696 295.791
L401.147 295.791
L401.147 290.088
L402.304 290.088
L402.304 284.385
L403.826 284.385
L403.826 278.682
L404.526 278.682
L404.526 272.979
L405.375 272.979
L405.375 267.276
L405.5 267.276
L405.5 261.573
L405.78 261.573
L405.78 255.87
L406.275 255.87
L406.275 250.167
L409.344 250.167
L409.344 244.464
L409.929 244.464
L409.929 238.761
L410.161 238.761
L410.161 233.058
L411.936 233.058
L411.936 227.355
L413.249 227.355
L413.249 221.652
L420.54 221.652
L420.54 215.949
L429.221 215.949
L429.221 210.246
L433.303 210.246
L433.303 204.543
L440.766 204.543
L440.766 198.84
L446.603 198.84
L446.603 193.137
L457.739 193.137
L457.739 187.434
L459.291 187.434
L459.291 181.731
L464.088 181.731
L464.088 176.028
L467.69 176.028
L467.69 170.326
L470.841 170.326
L470.841 164.623
L471.687 164.623
L471.687 158.92
L474.739 158.92
L474.739 153.217
L475.282 153.217
L475.282 147.514
L477.316 147.514
L477.316 141.811
L477.684 141.811
L477.684 136.108
L480.92 136.108
L480.92 130.405
L482.692 130.405
L482.692 124.702
L491.213 124.702
L491.213 118.999
L500.979 118.999
L500.979 113.296
L505.216 113.296
L505.216 107.593
L507.586 107.593
L507.586 101.89
L510.514 101.89
L510.514 96.1869
L511.942 96.1869
L511.942 90.4839
L512.05 90.4839
L512.05 84.781
L515.297 84.781
L515.297 79.078
L515.425 79.078" style="fill:none;stroke:#f5deb3;stroke-linecap:square;"/>
   </g>
   <g id="line2d_26">
    <path clip-path="url(#p0ab5e1e507)" d="
M527.178 358.524" style="fill:none;stroke:#f5deb3;stroke-linecap:square;"/>
   </g>
   <g id="line2d_27">
    <path clip-path="url(#p0ab5e1e507)" d="
M405.562 358.524
L405.562 352.821
L407.041 352.821
L407.041 347.118
L407.466 347.118
L407.466 341.415
L408.307 341.415
L408.307 335.712
L408.456 335.712
L408.456 330.009
L410.997 330.009
L410.997 324.306
L411.198 324.306
L411.198 318.603
L413.745 318.603
L413.745 312.9
L414.183 312.9
L414.183 307.197
L414.942 307.197
L414.942 301.494
L415.479 301.494
L415.479 295.791
L415.772 295.791
L415.772 290.088
L417.608 290.088
L417.608 284.385
L420.54 284.385
L420.54 278.682
L421.521 278.682
L421.521 272.979
L459.494 272.979
L459.494 267.276
L463.722 267.276
L463.722 261.573
L465.533 261.573
L465.533 255.87
L465.743 255.87
L465.743 250.167
L466.11 250.167
L466.11 244.464
L467.188 244.464
L467.188 238.761
L471.642 238.761
L471.642 233.058
L472.145 233.058
L472.145 227.355
L473.105 227.355
L473.105 221.652
L475.799 221.652
L475.799 215.949
L477.959 215.949
L477.959 210.246
L478.757 210.246
L478.757 204.543
L478.958 204.543
L478.958 198.84
L481.932 198.84
L481.932 193.137
L482.065 193.137
L482.065 187.434
L483.723 187.434
L483.723 181.731
L483.751 181.731
L483.751 176.028
L483.927 176.028
L483.927 170.326
L485.475 170.326
L485.475 164.623
L486.721 164.623
L486.721 158.92
L487.532 158.92
L487.532 153.217
L494.852 153.217
L494.852 147.514
L499.452 147.514
L499.452 141.811
L500.385 141.811
L500.385 136.108
L500.443 136.108
L500.443 130.405
L507.734 130.405
L507.734 124.702
L508.2 124.702
L508.2 118.999
L512.475 118.999
L512.475 113.296
L513.656 113.296
L513.656 107.593
L513.662 107.593
L513.662 101.89
L515.425 101.89" style="fill:none;stroke:#f5deb3;stroke-linecap:square;"/>
   </g>
   <g id="line2d_28">
    <path clip-path="url(#p0ab5e1e507)" d="
M563.734 358.524" style="fill:none;stroke:#f5deb3;stroke-linecap:square;"/>
   </g>
   <g id="line2d_29">
    <path clip-path="url(#p0ab5e1e507)" d="
M366.103 358.524
L366.103 352.821
L366.103 352.821
L366.103 347.118
L366.103 347.118
L366.103 341.415
L366.503 341.415
L366.503 335.712
L366.503 335.712
L366.503 330.009
L366.503 330.009
L366.503 324.306
L380.539 324.306
L380.539 318.603
L380.539 318.603
L380.539 312.9
L380.539 312.9
L380.539 307.197
L382.349 307.197
L382.349 301.494
L382.349 301.494
L382.349 295.791
L382.349 295.791
L382.349 290.088
L393.919 290.088
L393.919 284.385
L393.919 284.385
L393.919 278.682
L393.919 278.682
L393.919 272.979
L394.365 272.979
L394.365 267.276
L394.365 267.276
L394.365 261.573
L394.365 261.573
L394.365 255.87
L397.475 255.87
L397.475 250.167
L397.475 250.167
L397.475 244.464
L397.475 244.464
L397.475 238.761
L402.304 238.761
L402.304 233.058
L402.304 233.058
L402.304 227.355
L402.304 227.355
L402.304 221.652
L410.768 221.652
L410.768 215.949
L410.768 215.949
L410.768 210.246
L410.768 210.246
L410.768 204.543
L424.051 204.543
L424.051 198.84
L424.051 198.84
L424.051 193.137
L424.051 193.137
L424.051 187.434
L515.425 187.434" style="fill:none;stroke:#f5deb3;stroke-linecap:square;"/>
   </g>
   <g id="line2d_30">
    <path clip-path="url(#p0ab5e1e507)" d="
M-88.1794 358.524
M-1 341.415
L37.6144 341.415
L37.6144 335.712
L37.6144 335.712
L37.6144 330.009
L77.6323 330.009
L77.6323 324.306
L82.423 324.306
L82.423 318.603
L148.652 318.603
L148.652 312.9
L169.689 312.9
L169.689 307.197
L175.414 307.197
L175.414 301.494
L175.414 301.494
L175.414 295.791
L176.5 295.791
L176.5 290.088
L176.5 290.088
L176.5 284.385
L179.654 284.385
L179.654 278.682
L182.662 278.682
L182.662 272.979
L183.634 272.979
L183.634 267.276
L190.058 267.276
L190.058 261.573
L191.782 261.573
L191.782 255.87
L197.477 255.87
L197.477 250.167
L215.684 250.167
L215.684 244.464
L219.117 244.464
L219.117 238.761
L221.845 238.761
L221.845 233.058
L226.979 233.058
L226.979 227.355
L228.923 227.355
L228.923 221.652
L230.811 221.652
L230.811 215.949
L242.286 215.949
L242.286 210.246
L243.825 210.246
L243.825 204.543
L243.825 204.543
L243.825 198.84
L272.523 198.84
L272.523 193.137
L272.523 193.137
L272.523 187.434
L274.918 187.434
L274.918 181.731
L292.149 181.731
L292.149 176.028
L296.164 176.028
L296.164 170.326
L315.976 170.326
L315.976 164.623
L321.922 164.623
L321.922 158.92
L326.632 158.92
L326.632 153.217
L329.422 153.217
L329.422 147.514
L330.426 147.514
L330.426 141.811
L331.12 141.811
L331.12 136.108
L331.708 136.108
L331.708 130.405
L332.195 130.405
L332.195 124.702
L333.443 124.702
L333.443 118.999
L334.76 118.999
L334.76 113.296
L337.048 113.296
L337.048 107.593
L353.96 107.593
L353.96 101.89
L390.235 101.89
L390.235 96.1869
L396.443 96.1869
L396.443 90.4839
L396.73 90.4839
L396.73 84.781
L397.722 84.781
L397.722 79.078
L398.769 79.078
L398.769 73.375
L402.173 73.375
L402.173 67.672
L402.173 67.672
L402.173 67.672
L507.225 67.672" style="fill:none;stroke:#000000;stroke-linecap:square;"/>
   </g>
   <g id="line2d_31"/>
   <g id="line2d_32">
    <path clip-path="url(#p0ab5e1e507)" d="
M216.849 358.524
L216.849 352.821
L223.429 352.821
L223.429 347.118
L238.683 347.118
L238.683 341.415
L248.589 341.415
L248.589 335.712
L250.331 335.712
L250.331 330.009
L255.928 330.009
L255.928 324.306
L277 324.306
L277 318.603
L282.871 318.603
L282.871 312.9
L284.917 312.9
L284.917 307.197
L287.289 307.197
L287.289 301.494
L301.52 301.494
L301.52 295.791
L306.754 295.791
L306.754 290.088
L309.29 290.088
L309.29 284.385
L310.926 284.385
L310.926 278.682
L321.694 278.682
L321.694 272.979
L322.262 272.979
L322.262 267.276
L323.382 267.276
L323.382 261.573
L324.374 261.573
L324.374 255.87
L324.81 255.87
L324.81 250.167
L326.314 250.167
L326.314 244.464
L327.262 244.464
L327.262 238.761
L328.197 238.761
L328.197 233.058
L328.3 233.058
L328.3 227.355
L328.3 227.355
L328.3 221.652
L329.22 221.652
L329.22 215.949
L332.87 215.949
L332.87 210.246
L334.386 210.246
L334.386 204.543
L337.317 204.543
L337.317 198.84
L338.471 198.84
L338.471 193.137
L338.646 193.137
L338.646 187.434
L341.98 187.434
L341.98 181.731
L343.054 181.731
L343.054 176.028
L346.016 176.028
L346.016 170.326
L349.371 170.326
L349.371 164.623
L350.549 164.623
L350.549 158.92
L350.622 158.92
L350.622 153.217
L351.921 153.217
L351.921 147.514
L352.348 147.514
L352.348 141.811
L352.348 141.811
L352.348 136.108
L353.613 136.108
L353.613 130.405
L353.683 130.405
L353.683 124.702
L353.891 124.702
L353.891 118.999
L357.789 118.999
L357.789 113.296
L360.598 113.296
L360.598 107.593
L364.828 107.593
L364.828 101.89
L390.235 101.89
L390.235 96.1869
L400.544 96.1869
L400.544 90.4839
L400.544 90.4839
L400.544 90.4839
L507.225 90.4839" style="fill:none;stroke:#00bfbf;stroke-linecap:square;"/>
   </g>
   <g id="line2d_33"/>
   <g id="line2d_34">
    <path clip-path="url(#p0ab5e1e507)" d="
M360.473 358.524
L360.473 352.821
L360.909 352.821
L360.909 347.118
L365.873 347.118
L365.873 341.415
L370.16 341.415
L370.16 335.712
L372.488 335.712
L372.488 330.009
L376.858 330.009
L376.858 324.306
L378.251 324.306
L378.251 318.603
L379.148 318.603
L379.148 312.9
L379.382 312.9
L379.382 307.197
L380.448 307.197
L380.448 301.494
L380.494 301.494
L380.494 295.791
L381.315 295.791
L381.315 290.088
L382.394 290.088
L382.394 284.385
L383.979 284.385
L383.979 278.682
L384.283 278.682
L384.283 272.979
L385.865 272.979
L385.865 267.276
L386.329 267.276
L386.329 261.573
L387.162 261.573
L387.162 255.87
L387.451 255.87
L387.451 250.167
L387.903 250.167
L387.903 244.464
L389.76 244.464
L389.76 238.761
L390.707 238.761
L390.707 233.058
L391.02 233.058
L391.02 227.355
L392.866 227.355
L392.866 221.652
L394.402 221.652
L394.402 215.949
L396.264 215.949
L396.264 210.246
L396.515 210.246
L396.515 204.543
L397.192 204.543
L397.192 198.84
L397.546 198.84
L397.546 193.137
L397.581 193.137
L397.581 187.434
L397.827 187.434
L397.827 181.731
L400.003 181.731
L400.003 176.028
L400.846 176.028
L400.846 170.326
L401.347 170.326
L401.347 164.623
L401.612 164.623
L401.612 158.92
L402.794 158.92
L402.794 153.217
L402.794 153.217
L402.794 153.217
L507.225 153.217" style="fill:none;stroke:#bf00bf;stroke-linecap:square;"/>
   </g>
   <g id="line2d_35"/>
   <g id="line2d_36"/>
   <g id="line2d_37">
    <path clip-path="url(#p0ab5e1e507)" d="
M403.183 358.524
L403.183 12.9235" style="fill:none;stroke:#000000;stroke-linecap:square;"/>
   </g>
   <g id="matplotlib.axis_1">
    <g id="xtick_1">
     <g id="line2d_38">
      <path clip-path="url(#p0ab5e1e507)" d="
M105.48 358.524
L105.48 12.9235" style="fill:none;stroke:#000000;stroke-dasharray:1.000000,3.000000;stroke-dashoffset:0.0;stroke-width:0.5;"/>
     </g>
     <g id="line2d_39">
      <defs>
       <path d="
M0 0
L0 -4" id="m93b0483c22" style="stroke:#000000;stroke-width:0.5;"/>
      </defs>
      <g>
       <use style="stroke:#000000;stroke-width:0.5;" x="105.480331599" xlink:href="#m93b0483c22" y="358.523530322"/>
      </g>
     </g>
     <g id="line2d_40">
      <defs>
       <path d="
M0 0
L0 4" id="m741efc42ff" style="stroke:#000000;stroke-width:0.5;"/>
      </defs>
      <g>
       <use style="stroke:#000000;stroke-width:0.5;" x="105.480331599" xlink:href="#m741efc42ff" y="12.9235303218"/>
      </g>
     </g>
     <g id="text_1">
      <!-- 0 -->
      <defs>
       <path d="
M4.15625 35.2969
Q4.15625 48 6.76562 55.7344
Q9.375 63.4844 14.5156 67.6719
Q19.6719 71.875 27.4844 71.875
Q33.25 71.875 37.5938 69.5469
Q41.9375 67.2344 44.7656 62.8594
Q47.6094 58.5 49.2188 52.2188
Q50.8281 45.9531 50.8281 35.2969
Q50.8281 22.7031 48.2344 14.9688
Q45.6562 7.23438 40.5 3
Q35.3594 -1.21875 27.4844 -1.21875
Q17.1406 -1.21875 11.2344 6.20312
Q4.15625 15.1406 4.15625 35.2969
M13.1875 35.2969
Q13.1875 17.6719 17.3125 11.8281
Q21.4375 6 27.4844 6
Q33.5469 6 37.6719 11.8594
Q41.7969 17.7188 41.7969 35.2969
Q41.7969 52.9844 37.6719 58.7812
Q33.5469 64.5938 27.3906 64.5938
Q21.3438 64.5938 17.7188 59.4688
Q13.1875 52.9375 13.1875 35.2969" id="ArialMT-30"/>
      </defs>
      <g transform="translate(100.813144099 376.839155322)scale(0.2 -0.2)">
       <use xlink:href="#ArialMT-30"/>
      </g>
     </g>
    </g>
    <g id="xtick_2">
     <g id="line2d_41">
      <path clip-path="url(#p0ab5e1e507)" d="
M254.331 358.524
L254.331 12.9235" style="fill:none;stroke:#000000;stroke-dasharray:1.000000,3.000000;stroke-dashoffset:0.0;stroke-width:0.5;"/>
     </g>
     <g id="line2d_42">
      <g>
       <use style="stroke:#000000;stroke-width:0.5;" x="254.33143693" xlink:href="#m93b0483c22" y="358.523530322"/>
      </g>
     </g>
     <g id="line2d_43">
      <g>
       <use style="stroke:#000000;stroke-width:0.5;" x="254.33143693" xlink:href="#m741efc42ff" y="12.9235303218"/>
      </g>
     </g>
     <g id="text_2">
      <!-- 1 -->
      <defs>
       <path d="
M37.25 0
L28.4688 0
L28.4688 56
Q25.2969 52.9844 20.1406 49.9531
Q14.9844 46.9219 10.8906 45.4062
L10.8906 53.9062
Q18.2656 57.375 23.7812 62.2969
Q29.2969 67.2344 31.5938 71.875
L37.25 71.875
z
" id="ArialMT-31"/>
      </defs>
      <g transform="translate(251.69549943 376.839155322)scale(0.2 -0.2)">
       <use xlink:href="#ArialMT-31"/>
      </g>
     </g>
    </g>
    <g id="xtick_3">
     <g id="line2d_44">
      <path clip-path="url(#p0ab5e1e507)" d="
M403.183 358.524
L403.183 12.9235" style="fill:none;stroke:#000000;stroke-dasharray:1.000000,3.000000;stroke-dashoffset:0.0;stroke-width:0.5;"/>
     </g>
     <g id="line2d_45">
      <g>
       <use style="stroke:#000000;stroke-width:0.5;" x="403.182542261" xlink:href="#m93b0483c22" y="358.523530322"/>
      </g>
     </g>
     <g id="line2d_46">
      <g>
       <use style="stroke:#000000;stroke-width:0.5;" x="403.182542261" xlink:href="#m741efc42ff" y="12.9235303218"/>
      </g>
     </g>
     <g id="text_3">
      <!-- 2 -->
      <defs>
       <path d="
M50.3438 8.45312
L50.3438 0
L3.03125 0
Q2.9375 3.17188 4.04688 6.10938
Q5.85938 10.9375 9.82812 15.625
Q13.8125 20.3125 21.3438 26.4688
Q33.0156 36.0312 37.1094 41.625
Q41.2188 47.2188 41.2188 52.2031
Q41.2188 57.4219 37.4688 61
Q33.7344 64.5938 27.7344 64.5938
Q21.3906 64.5938 17.5781 60.7812
Q13.7656 56.9844 13.7188 50.25
L4.6875 51.1719
Q5.60938 61.2812 11.6562 66.5781
Q17.7188 71.875 27.9375 71.875
Q38.2344 71.875 44.2344 66.1562
Q50.25 60.4531 50.25 52
Q50.25 47.7031 48.4844 43.5469
Q46.7344 39.4062 42.6562 34.8125
Q38.5781 30.2188 29.1094 22.2188
Q21.1875 15.5781 18.9375 13.2031
Q16.7031 10.8438 15.2344 8.45312
z
" id="ArialMT-32"/>
      </defs>
      <g transform="translate(398.441917261 376.839155322)scale(0.2 -0.2)">
       <use xlink:href="#ArialMT-32"/>
      </g>
     </g>
    </g>
    <g id="xtick_4"/>
    <g id="xtick_5">
     <g id="line2d_47">
      <defs>
       <path d="
M0 0
L0 -2" id="m177f7580d0" style="stroke:#000000;stroke-width:0.5;"/>
      </defs>
      <g>
       <use style="stroke:#000000;stroke-width:0.5;" x="72.4579000026" xlink:href="#m177f7580d0" y="358.523530322"/>
      </g>
     </g>
     <g id="line2d_48">
      <defs>
       <path d="
M0 0
L0 2" id="m5284c7e2a0" style="stroke:#000000;stroke-width:0.5;"/>
      </defs>
      <g>
       <use style="stroke:#000000;stroke-width:0.5;" x="72.4579000026" xlink:href="#m5284c7e2a0" y="12.9235303218"/>
      </g>
     </g>
    </g>
    <g id="xtick_6">
     <g id="line2d_49">
      <g>
       <use style="stroke:#000000;stroke-width:0.5;" x="82.4230036375" xlink:href="#m177f7580d0" y="358.523530322"/>
      </g>
     </g>
     <g id="line2d_50">
      <g>
       <use style="stroke:#000000;stroke-width:0.5;" x="82.4230036375" xlink:href="#m5284c7e2a0" y="12.9235303218"/>
      </g>
     </g>
    </g>
    <g id="xtick_7">
     <g id="line2d_51">
      <g>
       <use style="stroke:#000000;stroke-width:0.5;" x="91.0551690454" xlink:href="#m177f7580d0" y="358.523530322"/>
      </g>
     </g>
     <g id="line2d_52">
      <g>
       <use style="stroke:#000000;stroke-width:0.5;" x="91.0551690454" xlink:href="#m5284c7e2a0" y="12.9235303218"/>
      </g>
     </g>
    </g>
    <g id="xtick_8">
     <g id="line2d_53">
      <g>
       <use style="stroke:#000000;stroke-width:0.5;" x="98.6692785522" xlink:href="#m177f7580d0" y="358.523530322"/>
      </g>
     </g>
     <g id="line2d_54">
      <g>
       <use style="stroke:#000000;stroke-width:0.5;" x="98.6692785522" xlink:href="#m5284c7e2a0" y="12.9235303218"/>
      </g>
     </g>
    </g>
    <g id="xtick_9">
     <g id="line2d_55">
      <g>
       <use style="stroke:#000000;stroke-width:0.5;" x="150.288979192" xlink:href="#m177f7580d0" y="358.523530322"/>
      </g>
     </g>
     <g id="line2d_56">
      <g>
       <use style="stroke:#000000;stroke-width:0.5;" x="150.288979192" xlink:href="#m5284c7e2a0" y="12.9235303218"/>
      </g>
     </g>
    </g>
    <g id="xtick_10">
     <g id="line2d_57">
      <g>
       <use style="stroke:#000000;stroke-width:0.5;" x="176.500357741" xlink:href="#m177f7580d0" y="358.523530322"/>
      </g>
     </g>
     <g id="line2d_58">
      <g>
       <use style="stroke:#000000;stroke-width:0.5;" x="176.500357741" xlink:href="#m5284c7e2a0" y="12.9235303218"/>
      </g>
     </g>
    </g>
    <g id="xtick_11">
     <g id="line2d_59">
      <g>
       <use style="stroke:#000000;stroke-width:0.5;" x="195.097626784" xlink:href="#m177f7580d0" y="358.523530322"/>
      </g>
     </g>
     <g id="line2d_60">
      <g>
       <use style="stroke:#000000;stroke-width:0.5;" x="195.097626784" xlink:href="#m5284c7e2a0" y="12.9235303218"/>
      </g>
     </g>
    </g>
    <g id="xtick_12">
     <g id="line2d_61">
      <g>
       <use style="stroke:#000000;stroke-width:0.5;" x="209.522789338" xlink:href="#m177f7580d0" y="358.523530322"/>
      </g>
     </g>
     <g id="line2d_62">
      <g>
       <use style="stroke:#000000;stroke-width:0.5;" x="209.522789338" xlink:href="#m5284c7e2a0" y="12.9235303218"/>
      </g>
     </g>
    </g>
    <g id="xtick_13">
     <g id="line2d_63">
      <g>
       <use style="stroke:#000000;stroke-width:0.5;" x="221.309005334" xlink:href="#m177f7580d0" y="358.523530322"/>
      </g>
     </g>
     <g id="line2d_64">
      <g>
       <use style="stroke:#000000;stroke-width:0.5;" x="221.309005334" xlink:href="#m5284c7e2a0" y="12.9235303218"/>
      </g>
     </g>
    </g>
    <g id="xtick_14">
     <g id="line2d_65">
      <g>
       <use style="stroke:#000000;stroke-width:0.5;" x="231.274108969" xlink:href="#m177f7580d0" y="358.523530322"/>
      </g>
     </g>
     <g id="line2d_66">
      <g>
       <use style="stroke:#000000;stroke-width:0.5;" x="231.274108969" xlink:href="#m5284c7e2a0" y="12.9235303218"/>
      </g>
     </g>
    </g>
    <g id="xtick_15">
     <g id="line2d_67">
      <g>
       <use style="stroke:#000000;stroke-width:0.5;" x="239.906274376" xlink:href="#m177f7580d0" y="358.523530322"/>
      </g>
     </g>
     <g id="line2d_68">
      <g>
       <use style="stroke:#000000;stroke-width:0.5;" x="239.906274376" xlink:href="#m5284c7e2a0" y="12.9235303218"/>
      </g>
     </g>
    </g>
    <g id="xtick_16">
     <g id="line2d_69">
      <g>
       <use style="stroke:#000000;stroke-width:0.5;" x="247.520383883" xlink:href="#m177f7580d0" y="358.523530322"/>
      </g>
     </g>
     <g id="line2d_70">
      <g>
       <use style="stroke:#000000;stroke-width:0.5;" x="247.520383883" xlink:href="#m5284c7e2a0" y="12.9235303218"/>
      </g>
     </g>
    </g>
    <g id="xtick_17">
     <g id="line2d_71">
      <g>
       <use style="stroke:#000000;stroke-width:0.5;" x="299.140084523" xlink:href="#m177f7580d0" y="358.523530322"/>
      </g>
     </g>
     <g id="line2d_72">
      <g>
       <use style="stroke:#000000;stroke-width:0.5;" x="299.140084523" xlink:href="#m5284c7e2a0" y="12.9235303218"/>
      </g>
     </g>
    </g>
    <g id="xtick_18">
     <g id="line2d_73">
      <g>
       <use style="stroke:#000000;stroke-width:0.5;" x="325.351463072" xlink:href="#m177f7580d0" y="358.523530322"/>
      </g>
     </g>
     <g id="line2d_74">
      <g>
       <use style="stroke:#000000;stroke-width:0.5;" x="325.351463072" xlink:href="#m5284c7e2a0" y="12.9235303218"/>
      </g>
     </g>
    </g>
    <g id="xtick_19">
     <g id="line2d_75">
      <g>
       <use style="stroke:#000000;stroke-width:0.5;" x="343.948732115" xlink:href="#m177f7580d0" y="358.523530322"/>
      </g>
     </g>
     <g id="line2d_76">
      <g>
       <use style="stroke:#000000;stroke-width:0.5;" x="343.948732115" xlink:href="#m5284c7e2a0" y="12.9235303218"/>
      </g>
     </g>
    </g>
    <g id="xtick_20">
     <g id="line2d_77">
      <g>
       <use style="stroke:#000000;stroke-width:0.5;" x="358.373894669" xlink:href="#m177f7580d0" y="358.523530322"/>
      </g>
     </g>
     <g id="line2d_78">
      <g>
       <use style="stroke:#000000;stroke-width:0.5;" x="358.373894669" xlink:href="#m5284c7e2a0" y="12.9235303218"/>
      </g>
     </g>
    </g>
    <g id="xtick_21">
     <g id="line2d_79">
      <g>
       <use style="stroke:#000000;stroke-width:0.5;" x="370.160110665" xlink:href="#m177f7580d0" y="358.523530322"/>
      </g>
     </g>
     <g id="line2d_80">
      <g>
       <use style="stroke:#000000;stroke-width:0.5;" x="370.160110665" xlink:href="#m5284c7e2a0" y="12.9235303218"/>
      </g>
     </g>
    </g>
    <g id="xtick_22">
     <g id="line2d_81">
      <g>
       <use style="stroke:#000000;stroke-width:0.5;" x="380.1252143" xlink:href="#m177f7580d0" y="358.523530322"/>
      </g>
     </g>
     <g id="line2d_82">
      <g>
       <use style="stroke:#000000;stroke-width:0.5;" x="380.1252143" xlink:href="#m5284c7e2a0" y="12.9235303218"/>
      </g>
     </g>
    </g>
    <g id="xtick_23">
     <g id="line2d_83">
      <g>
       <use style="stroke:#000000;stroke-width:0.5;" x="388.757379707" xlink:href="#m177f7580d0" y="358.523530322"/>
      </g>
     </g>
     <g id="line2d_84">
      <g>
       <use style="stroke:#000000;stroke-width:0.5;" x="388.757379707" xlink:href="#m5284c7e2a0" y="12.9235303218"/>
      </g>
     </g>
    </g>
    <g id="xtick_24">
     <g id="line2d_85">
      <g>
       <use style="stroke:#000000;stroke-width:0.5;" x="396.371489214" xlink:href="#m177f7580d0" y="358.523530322"/>
      </g>
     </g>
     <g id="line2d_86">
      <g>
       <use style="stroke:#000000;stroke-width:0.5;" x="396.371489214" xlink:href="#m5284c7e2a0" y="12.9235303218"/>
      </g>
     </g>
    </g>
    <g id="xtick_25">
     <g id="line2d_87">
      <g>
       <use style="stroke:#000000;stroke-width:0.5;" x="447.991189854" xlink:href="#m177f7580d0" y="358.523530322"/>
      </g>
     </g>
     <g id="line2d_88">
      <g>
       <use style="stroke:#000000;stroke-width:0.5;" x="447.991189854" xlink:href="#m5284c7e2a0" y="12.9235303218"/>
      </g>
     </g>
    </g>
    <g id="xtick_26">
     <g id="line2d_89">
      <g>
       <use style="stroke:#000000;stroke-width:0.5;" x="474.202568403" xlink:href="#m177f7580d0" y="358.523530322"/>
      </g>
     </g>
     <g id="line2d_90">
      <g>
       <use style="stroke:#000000;stroke-width:0.5;" x="474.202568403" xlink:href="#m5284c7e2a0" y="12.9235303218"/>
      </g>
     </g>
    </g>
    <g id="xtick_27">
     <g id="line2d_91">
      <g>
       <use style="stroke:#000000;stroke-width:0.5;" x="492.799837446" xlink:href="#m177f7580d0" y="358.523530322"/>
      </g>
     </g>
     <g id="line2d_92">
      <g>
       <use style="stroke:#000000;stroke-width:0.5;" x="492.799837446" xlink:href="#m5284c7e2a0" y="12.9235303218"/>
      </g>
     </g>
    </g>
    <g id="xtick_28">
     <g id="line2d_93">
      <g>
       <use style="stroke:#000000;stroke-width:0.5;" x="507.225" xlink:href="#m177f7580d0" y="358.523530322"/>
      </g>
     </g>
     <g id="line2d_94">
      <g>
       <use style="stroke:#000000;stroke-width:0.5;" x="507.225" xlink:href="#m5284c7e2a0" y="12.9235303218"/>
      </g>
     </g>
    </g>
    <g id="text_4">
     <!-- log10 of FEvals / DIM -->
     <defs>
      <path d="
M9.32812 0
L9.32812 71.5781
L18.7969 71.5781
L18.7969 0
z
" id="ArialMT-49"/>
      <path d="
M40.4375 6.39062
Q35.5469 2.25 31.0312 0.53125
Q26.5156 -1.17188 21.3438 -1.17188
Q12.7969 -1.17188 8.20312 3
Q3.60938 7.17188 3.60938 13.6719
Q3.60938 17.4844 5.34375 20.625
Q7.07812 23.7812 9.89062 25.6875
Q12.7031 27.5938 16.2188 28.5625
Q18.7969 29.25 24.0312 29.8906
Q34.6719 31.1562 39.7031 32.9062
Q39.75 34.7188 39.75 35.2031
Q39.75 40.5781 37.25 42.7812
Q33.8906 45.75 27.25 45.75
Q21.0469 45.75 18.0938 43.5781
Q15.1406 41.4062 13.7188 35.8906
L5.125 37.0625
Q6.29688 42.5781 8.98438 45.9688
Q11.6719 49.3594 16.75 51.1875
Q21.8281 53.0312 28.5156 53.0312
Q35.1562 53.0312 39.2969 51.4688
Q43.4531 49.9062 45.4062 47.5312
Q47.3594 45.1719 48.1406 41.5469
Q48.5781 39.3125 48.5781 33.4531
L48.5781 21.7344
Q48.5781 9.46875 49.1406 6.21875
Q49.7031 2.98438 51.375 0
L42.1875 0
Q40.8281 2.73438 40.4375 6.39062
M39.7031 26.0312
Q34.9062 24.0781 25.3438 22.7031
Q19.9219 21.9219 17.6719 20.9375
Q15.4375 19.9688 14.2031 18.0938
Q12.9844 16.2188 12.9844 13.9219
Q12.9844 10.4062 15.6406 8.0625
Q18.3125 5.71875 23.4375 5.71875
Q28.5156 5.71875 32.4688 7.9375
Q36.4219 10.1562 38.2812 14.0156
Q39.7031 17 39.7031 22.7969
z
" id="ArialMT-61"/>
      <path d="
M4.98438 -4.29688
L13.5312 -5.5625
Q14.0625 -9.51562 16.5 -11.3281
Q19.7812 -13.7656 25.4375 -13.7656
Q31.5469 -13.7656 34.8594 -11.3281
Q38.1875 -8.89062 39.3594 -4.5
Q40.0469 -1.8125 39.9844 6.78125
Q34.2344 0 25.6406 0
Q14.9375 0 9.07812 7.71875
Q3.21875 15.4375 3.21875 26.2188
Q3.21875 33.6406 5.90625 39.9062
Q8.59375 46.1875 13.6875 49.6094
Q18.7969 53.0312 25.6875 53.0312
Q34.8594 53.0312 40.8281 45.6094
L40.8281 51.8594
L48.9219 51.8594
L48.9219 7.03125
Q48.9219 -5.07812 46.4531 -10.125
Q44 -15.1875 38.6406 -18.1094
Q33.2969 -21.0469 25.4844 -21.0469
Q16.2188 -21.0469 10.5 -16.875
Q4.78125 -12.7031 4.98438 -4.29688
M12.25 26.8594
Q12.25 16.6562 16.2969 11.9688
Q20.3594 7.28125 26.4688 7.28125
Q32.5156 7.28125 36.6094 11.9375
Q40.7188 16.6094 40.7188 26.5625
Q40.7188 36.0781 36.5 40.9062
Q32.2812 45.75 26.3125 45.75
Q20.4531 45.75 16.3438 40.9844
Q12.25 36.2344 12.25 26.8594" id="ArialMT-67"/>
      <path d="
M8.6875 0
L8.6875 45.0156
L0.921875 45.0156
L0.921875 51.8594
L8.6875 51.8594
L8.6875 57.375
Q8.6875 62.5938 9.625 65.1406
Q10.8906 68.5625 14.0781 70.6719
Q17.2812 72.7969 23.0469 72.7969
Q26.7656 72.7969 31.25 71.9219
L29.9375 64.2656
Q27.2031 64.75 24.75 64.75
Q20.75 64.75 19.0938 63.0312
Q17.4375 61.3281 17.4375 56.6406
L17.4375 51.8594
L27.5469 51.8594
L27.5469 45.0156
L17.4375 45.0156
L17.4375 0
z
" id="ArialMT-66"/>
      <path d="
M0 -1.21875
L20.75 72.7969
L27.7812 72.7969
L7.07812 -1.21875
z
" id="ArialMT-2f"/>
      <path d="
M21 0
L1.26562 51.8594
L10.5469 51.8594
L21.6875 20.7969
Q23.4844 15.7656 25 10.3594
Q26.1719 14.4531 28.2656 20.2188
L39.7969 51.8594
L48.8281 51.8594
L29.2031 0
z
" id="ArialMT-76"/>
      <path d="
M7.90625 0
L7.90625 71.5781
L59.6719 71.5781
L59.6719 63.1406
L17.3906 63.1406
L17.3906 41.2188
L56.9844 41.2188
L56.9844 32.8125
L17.3906 32.8125
L17.3906 8.45312
L61.3281 8.45312
L61.3281 0
z
" id="ArialMT-45"/>
      <path d="
M7.71875 0
L7.71875 71.5781
L32.375 71.5781
Q40.7188 71.5781 45.125 70.5625
Q51.2656 69.1406 55.6094 65.4375
Q61.2812 60.6406 64.0781 53.1875
Q66.8906 45.75 66.8906 36.1875
Q66.8906 28.0312 64.9844 21.7344
Q63.0938 15.4375 60.1094 11.2969
Q57.125 7.17188 53.5781 4.79688
Q50.0469 2.4375 45.0469 1.21875
Q40.0469 0 33.5469 0
z

M17.1875 8.45312
L32.4688 8.45312
Q39.5469 8.45312 43.5781 9.76562
Q47.6094 11.0781 50 13.4844
Q53.375 16.8438 55.25 22.5312
Q57.125 28.2188 57.125 36.3281
Q57.125 47.5625 53.4375 53.5938
Q49.75 59.625 44.4844 61.6719
Q40.6719 63.1406 32.2344 63.1406
L17.1875 63.1406
z
" id="ArialMT-44"/>
      <path d="
M8.20312 0
L8.20312 71.5781
L56.5 71.5781
L56.5 63.1406
L17.6719 63.1406
L17.6719 40.9688
L51.2656 40.9688
L51.2656 32.5156
L17.6719 32.5156
L17.6719 0
z
" id="ArialMT-46"/>
      <path d="
M6.39062 0
L6.39062 71.5781
L15.1875 71.5781
L15.1875 0
z
" id="ArialMT-6c"/>
      <path d="
M3.32812 25.9219
Q3.32812 40.3281 11.3281 47.2656
Q18.0156 53.0312 27.6406 53.0312
Q38.3281 53.0312 45.1094 46.0156
Q51.9062 39.0156 51.9062 26.6562
Q51.9062 16.6562 48.9062 10.9062
Q45.9062 5.17188 40.1562 2
Q34.4219 -1.17188 27.6406 -1.17188
Q16.75 -1.17188 10.0312 5.8125
Q3.32812 12.7969 3.32812 25.9219
M12.3594 25.9219
Q12.3594 15.9688 16.7031 11.0156
Q21.0469 6.0625 27.6406 6.0625
Q34.1875 6.0625 38.5312 11.0312
Q42.875 16.0156 42.875 26.2188
Q42.875 35.8438 38.5 40.7969
Q34.125 45.75 27.6406 45.75
Q21.0469 45.75 16.7031 40.8125
Q12.3594 35.8906 12.3594 25.9219" id="ArialMT-6f"/>
      <path d="
M3.07812 15.4844
L11.7656 16.8438
Q12.5 11.625 15.8438 8.84375
Q19.1875 6.0625 25.2031 6.0625
Q31.25 6.0625 34.1719 8.51562
Q37.1094 10.9844 37.1094 14.3125
Q37.1094 17.2812 34.5156 19
Q32.7188 20.1719 25.5312 21.9688
Q15.875 24.4219 12.1406 26.2031
Q8.40625 27.9844 6.46875 31.125
Q4.54688 34.2812 4.54688 38.0938
Q4.54688 41.5469 6.125 44.5
Q7.71875 47.4688 10.4531 49.4219
Q12.5 50.9219 16.0312 51.9688
Q19.5781 53.0312 23.6406 53.0312
Q29.7344 53.0312 34.3438 51.2656
Q38.9688 49.5156 41.1562 46.5
Q43.3594 43.5 44.1875 38.4844
L35.5938 37.3125
Q35.0156 41.3125 32.2031 43.5469
Q29.3906 45.7969 24.2656 45.7969
Q18.2188 45.7969 15.625 43.7969
Q13.0312 41.7969 13.0312 39.1094
Q13.0312 37.4062 14.1094 36.0312
Q15.1875 34.625 17.4844 33.6875
Q18.7969 33.2031 25.25 31.4531
Q34.5781 28.9531 38.25 27.3594
Q41.9375 25.7812 44.0312 22.75
Q46.1406 19.7344 46.1406 15.2344
Q46.1406 10.8438 43.5781 6.95312
Q41.0156 3.07812 36.1719 0.953125
Q31.3438 -1.17188 25.25 -1.17188
Q15.1406 -1.17188 9.84375 3.03125
Q4.54688 7.23438 3.07812 15.4844" id="ArialMT-73"/>
      <path d="
M7.42188 0
L7.42188 71.5781
L21.6875 71.5781
L38.625 20.9062
Q40.9688 13.8125 42.0469 10.2969
Q43.2656 14.2031 45.8438 21.7812
L62.9844 71.5781
L75.7344 71.5781
L75.7344 0
L66.6094 0
L66.6094 59.9062
L45.7969 0
L37.25 0
L16.5469 60.9375
L16.5469 0
z
" id="ArialMT-4d"/>
      <path id="ArialMT-20"/>
     </defs>
     <g transform="translate(189.1953125 400.373530322)scale(0.2 -0.2)">
      <use xlink:href="#ArialMT-6c"/>
      <use x="22.216796875" xlink:href="#ArialMT-6f"/>
      <use x="77.83203125" xlink:href="#ArialMT-67"/>
      <use x="133.447265625" xlink:href="#ArialMT-31"/>
      <use x="189.0625" xlink:href="#ArialMT-30"/>
      <use x="244.677734375" xlink:href="#ArialMT-20"/>
      <use x="272.4609375" xlink:href="#ArialMT-6f"/>
      <use x="328.076171875" xlink:href="#ArialMT-66"/>
      <use x="355.859375" xlink:href="#ArialMT-20"/>
      <use x="383.642578125" xlink:href="#ArialMT-46"/>
      <use x="444.7265625" xlink:href="#ArialMT-45"/>
      <use x="511.42578125" xlink:href="#ArialMT-76"/>
      <use x="561.42578125" xlink:href="#ArialMT-61"/>
      <use x="617.041015625" xlink:href="#ArialMT-6c"/>
      <use x="639.2578125" xlink:href="#ArialMT-73"/>
      <use x="689.2578125" xlink:href="#ArialMT-20"/>
      <use x="717.041015625" xlink:href="#ArialMT-2f"/>
      <use x="744.82421875" xlink:href="#ArialMT-20"/>
      <use x="772.607421875" xlink:href="#ArialMT-44"/>
      <use x="844.82421875" xlink:href="#ArialMT-49"/>
      <use x="872.607421875" xlink:href="#ArialMT-4d"/>
     </g>
    </g>
   </g>
   <g id="matplotlib.axis_2">
    <g id="ytick_1">
     <g id="line2d_95">
      <path clip-path="url(#p0ab5e1e507)" d="
M60.825 358.524
L507.225 358.524" style="fill:none;stroke:#000000;stroke-dasharray:1.000000,3.000000;stroke-dashoffset:0.0;stroke-width:0.5;"/>
     </g>
     <g id="line2d_96">
      <defs>
       <path d="
M0 0
L4 0" id="m728421d6d4" style="stroke:#000000;stroke-width:0.5;"/>
      </defs>
      <g>
       <use style="stroke:#000000;stroke-width:0.5;" x="60.825" xlink:href="#m728421d6d4" y="358.523530322"/>
      </g>
     </g>
     <g id="line2d_97">
      <defs>
       <path d="
M0 0
L-4 0" id="mcb0005524f" style="stroke:#000000;stroke-width:0.5;"/>
      </defs>
      <g>
       <use style="stroke:#000000;stroke-width:0.5;" x="507.225" xlink:href="#mcb0005524f" y="358.523530322"/>
      </g>
     </g>
     <g id="text_5">
      <!-- 0.0 -->
      <defs>
       <path d="
M9.07812 0
L9.07812 10.0156
L19.0938 10.0156
L19.0938 0
z
" id="ArialMT-2e"/>
      </defs>
      <g transform="translate(30.8125 363.693842822)scale(0.2 -0.2)">
       <use xlink:href="#ArialMT-30"/>
       <use x="55.615234375" xlink:href="#ArialMT-2e"/>
       <use x="83.3984375" xlink:href="#ArialMT-30"/>
      </g>
     </g>
    </g>
    <g id="ytick_2">
     <g id="line2d_98">
      <path clip-path="url(#p0ab5e1e507)" d="
M60.825 290.088
L507.225 290.088" style="fill:none;stroke:#000000;stroke-dasharray:1.000000,3.000000;stroke-dashoffset:0.0;stroke-width:0.5;"/>
     </g>
     <g id="line2d_99">
      <g>
       <use style="stroke:#000000;stroke-width:0.5;" x="60.825" xlink:href="#m728421d6d4" y="290.087886757"/>
      </g>
     </g>
     <g id="line2d_100">
      <g>
       <use style="stroke:#000000;stroke-width:0.5;" x="507.225" xlink:href="#mcb0005524f" y="290.087886757"/>
      </g>
     </g>
     <g id="text_6">
      <!-- 0.2 -->
      <g transform="translate(30.909375 295.258199257)scale(0.2 -0.2)">
       <use xlink:href="#ArialMT-30"/>
       <use x="55.615234375" xlink:href="#ArialMT-2e"/>
       <use x="83.3984375" xlink:href="#ArialMT-32"/>
      </g>
     </g>
    </g>
    <g id="ytick_3">
     <g id="line2d_101">
      <path clip-path="url(#p0ab5e1e507)" d="
M60.825 221.652
L507.225 221.652" style="fill:none;stroke:#000000;stroke-dasharray:1.000000,3.000000;stroke-dashoffset:0.0;stroke-width:0.5;"/>
     </g>
     <g id="line2d_102">
      <g>
       <use style="stroke:#000000;stroke-width:0.5;" x="60.825" xlink:href="#m728421d6d4" y="221.652243193"/>
      </g>
     </g>
     <g id="line2d_103">
      <g>
       <use style="stroke:#000000;stroke-width:0.5;" x="507.225" xlink:href="#mcb0005524f" y="221.652243193"/>
      </g>
     </g>
     <g id="text_7">
      <!-- 0.4 -->
      <defs>
       <path d="
M32.3281 0
L32.3281 17.1406
L1.26562 17.1406
L1.26562 25.2031
L33.9375 71.5781
L41.1094 71.5781
L41.1094 25.2031
L50.7812 25.2031
L50.7812 17.1406
L41.1094 17.1406
L41.1094 0
z

M32.3281 25.2031
L32.3281 57.4688
L9.90625 25.2031
z
" id="ArialMT-34"/>
      </defs>
      <g transform="translate(30.821875 226.822555693)scale(0.2 -0.2)">
       <use xlink:href="#ArialMT-30"/>
       <use x="55.615234375" xlink:href="#ArialMT-2e"/>
       <use x="83.3984375" xlink:href="#ArialMT-34"/>
      </g>
     </g>
    </g>
    <g id="ytick_4">
     <g id="line2d_104">
      <path clip-path="url(#p0ab5e1e507)" d="
M60.825 153.217
L507.225 153.217" style="fill:none;stroke:#000000;stroke-dasharray:1.000000,3.000000;stroke-dashoffset:0.0;stroke-width:0.5;"/>
     </g>
     <g id="line2d_105">
      <g>
       <use style="stroke:#000000;stroke-width:0.5;" x="60.825" xlink:href="#m728421d6d4" y="153.216599629"/>
      </g>
     </g>
     <g id="line2d_106">
      <g>
       <use style="stroke:#000000;stroke-width:0.5;" x="507.225" xlink:href="#mcb0005524f" y="153.216599629"/>
      </g>
     </g>
     <g id="text_8">
      <!-- 0.6 -->
      <defs>
       <path d="
M49.75 54.0469
L41.0156 53.375
Q39.8438 58.5469 37.7031 60.8906
Q34.125 64.6562 28.9062 64.6562
Q24.7031 64.6562 21.5312 62.3125
Q17.3906 59.2812 14.9844 53.4688
Q12.5938 47.6562 12.5 36.9219
Q15.6719 41.75 20.2656 44.0938
Q24.8594 46.4375 29.8906 46.4375
Q38.6719 46.4375 44.8438 39.9688
Q51.0312 33.5 51.0312 23.25
Q51.0312 16.5 48.125 10.7188
Q45.2188 4.9375 40.1406 1.85938
Q35.0625 -1.21875 28.6094 -1.21875
Q17.625 -1.21875 10.6875 6.85938
Q3.76562 14.9375 3.76562 33.5
Q3.76562 54.25 11.4219 63.6719
Q18.1094 71.875 29.4375 71.875
Q37.8906 71.875 43.2812 67.1406
Q48.6875 62.4062 49.75 54.0469
M13.875 23.1875
Q13.875 18.6562 15.7969 14.5
Q17.7188 10.3594 21.1875 8.17188
Q24.6562 6 28.4688 6
Q34.0312 6 38.0312 10.4844
Q42.0469 14.9844 42.0469 22.7031
Q42.0469 30.125 38.0781 34.3906
Q34.125 38.6719 28.125 38.6719
Q22.1719 38.6719 18.0156 34.3906
Q13.875 30.125 13.875 23.1875" id="ArialMT-36"/>
      </defs>
      <g transform="translate(30.771875 158.386912129)scale(0.2 -0.2)">
       <use xlink:href="#ArialMT-30"/>
       <use x="55.615234375" xlink:href="#ArialMT-2e"/>
       <use x="83.3984375" xlink:href="#ArialMT-36"/>
      </g>
     </g>
    </g>
    <g id="ytick_5">
     <g id="line2d_107">
      <path clip-path="url(#p0ab5e1e507)" d="
M60.825 84.781
L507.225 84.781" style="fill:none;stroke:#000000;stroke-dasharray:1.000000,3.000000;stroke-dashoffset:0.0;stroke-width:0.5;"/>
     </g>
     <g id="line2d_108">
      <g>
       <use style="stroke:#000000;stroke-width:0.5;" x="60.825" xlink:href="#m728421d6d4" y="84.7809560644"/>
      </g>
     </g>
     <g id="line2d_109">
      <g>
       <use style="stroke:#000000;stroke-width:0.5;" x="507.225" xlink:href="#mcb0005524f" y="84.7809560644"/>
      </g>
     </g>
     <g id="text_9">
      <!-- 0.8 -->
      <defs>
       <path d="
M17.6719 38.8125
Q12.2031 40.8281 9.5625 44.5312
Q6.9375 48.25 6.9375 53.4219
Q6.9375 61.2344 12.5469 66.5469
Q18.1719 71.875 27.4844 71.875
Q36.8594 71.875 42.5781 66.4219
Q48.2969 60.9844 48.2969 53.1719
Q48.2969 48.1875 45.6719 44.5
Q43.0625 40.8281 37.75 38.8125
Q44.3438 36.6719 47.7812 31.875
Q51.2188 27.0938 51.2188 20.4531
Q51.2188 11.2812 44.7188 5.03125
Q38.2344 -1.21875 27.6406 -1.21875
Q17.0469 -1.21875 10.5469 5.04688
Q4.04688 11.3281 4.04688 20.7031
Q4.04688 27.6875 7.59375 32.3906
Q11.1406 37.1094 17.6719 38.8125
M15.9219 53.7188
Q15.9219 48.6406 19.1875 45.4062
Q22.4688 42.1875 27.6875 42.1875
Q32.7656 42.1875 36.0156 45.375
Q39.2656 48.5781 39.2656 53.2188
Q39.2656 58.0625 35.9062 61.3594
Q32.5625 64.6562 27.5938 64.6562
Q22.5625 64.6562 19.2344 61.4219
Q15.9219 58.2031 15.9219 53.7188
M13.0938 20.6562
Q13.0938 16.8906 14.875 13.375
Q16.6562 9.85938 20.1719 7.92188
Q23.6875 6 27.7344 6
Q34.0312 6 38.125 10.0469
Q42.2344 14.1094 42.2344 20.3594
Q42.2344 26.7031 38.0156 30.8594
Q33.7969 35.0156 27.4375 35.0156
Q21.2344 35.0156 17.1562 30.9062
Q13.0938 26.8125 13.0938 20.6562" id="ArialMT-38"/>
      </defs>
      <g transform="translate(30.734375 89.9512685644)scale(0.2 -0.2)">
       <use xlink:href="#ArialMT-30"/>
       <use x="55.615234375" xlink:href="#ArialMT-2e"/>
       <use x="83.3984375" xlink:href="#ArialMT-38"/>
      </g>
     </g>
    </g>
    <g id="ytick_6">
     <g id="line2d_110">
      <path clip-path="url(#p0ab5e1e507)" d="
M60.825 16.3453
L507.225 16.3453" style="fill:none;stroke:#000000;stroke-dasharray:1.000000,3.000000;stroke-dashoffset:0.0;stroke-width:0.5;"/>
     </g>
     <g id="line2d_111">
      <g>
       <use style="stroke:#000000;stroke-width:0.5;" x="60.825" xlink:href="#m728421d6d4" y="16.3453125"/>
      </g>
     </g>
     <g id="line2d_112">
      <g>
       <use style="stroke:#000000;stroke-width:0.5;" x="507.225" xlink:href="#mcb0005524f" y="16.3453125"/>
      </g>
     </g>
     <g id="text_10">
      <!-- 1.0 -->
      <g transform="translate(32.159375 21.515625)scale(0.2 -0.2)">
       <use xlink:href="#ArialMT-31"/>
       <use x="55.615234375" xlink:href="#ArialMT-2e"/>
       <use x="83.3984375" xlink:href="#ArialMT-30"/>
      </g>
     </g>
    </g>
    <g id="text_11">
     <!-- proportion of trials -->
     <defs>
      <path d="
M25.7812 7.85938
L27.0469 0.09375
Q23.3438 -0.6875 20.4062 -0.6875
Q15.625 -0.6875 12.9844 0.828125
Q10.3594 2.34375 9.28125 4.8125
Q8.20312 7.28125 8.20312 15.1875
L8.20312 45.0156
L1.76562 45.0156
L1.76562 51.8594
L8.20312 51.8594
L8.20312 64.7031
L16.9375 69.9688
L16.9375 51.8594
L25.7812 51.8594
L25.7812 45.0156
L16.9375 45.0156
L16.9375 14.7031
Q16.9375 10.9375 17.4062 9.85938
Q17.875 8.79688 18.9219 8.15625
Q19.9688 7.51562 21.9219 7.51562
Q23.3906 7.51562 25.7812 7.85938" id="ArialMT-74"/>
      <path d="
M6.64062 61.4688
L6.64062 71.5781
L15.4375 71.5781
L15.4375 61.4688
z

M6.64062 0
L6.64062 51.8594
L15.4375 51.8594
L15.4375 0
z
" id="ArialMT-69"/>
      <path d="
M6.59375 -19.875
L6.59375 51.8594
L14.5938 51.8594
L14.5938 45.125
Q17.4375 49.0781 21 51.0469
Q24.5625 53.0312 29.6406 53.0312
Q36.2812 53.0312 41.3594 49.6094
Q46.4375 46.1875 49.0156 39.9531
Q51.6094 33.7344 51.6094 26.3125
Q51.6094 18.3594 48.75 11.9844
Q45.9062 5.60938 40.4531 2.21875
Q35.0156 -1.17188 29 -1.17188
Q24.6094 -1.17188 21.1094 0.6875
Q17.625 2.54688 15.375 5.375
L15.375 -19.875
z

M14.5469 25.6406
Q14.5469 15.625 18.5938 10.8438
Q22.6562 6.0625 28.4219 6.0625
Q34.2812 6.0625 38.4531 11.0156
Q42.625 15.9688 42.625 26.375
Q42.625 36.2812 38.5469 41.2031
Q34.4688 46.1406 28.8125 46.1406
Q23.1875 46.1406 18.8594 40.8906
Q14.5469 35.6406 14.5469 25.6406" id="ArialMT-70"/>
      <path d="
M6.59375 0
L6.59375 51.8594
L14.5 51.8594
L14.5 44.4844
Q20.2188 53.0312 31 53.0312
Q35.6875 53.0312 39.625 51.3438
Q43.5625 49.6562 45.5156 46.9219
Q47.4688 44.1875 48.25 40.4375
Q48.7344 37.9844 48.7344 31.8906
L48.7344 0
L39.9375 0
L39.9375 31.5469
Q39.9375 36.9219 38.9062 39.5781
Q37.8906 42.2344 35.2812 43.8125
Q32.6719 45.4062 29.1562 45.4062
Q23.5312 45.4062 19.4531 41.8438
Q15.375 38.2812 15.375 28.3281
L15.375 0
z
" id="ArialMT-6e"/>
      <path d="
M6.5 0
L6.5 51.8594
L14.4062 51.8594
L14.4062 44
Q17.4375 49.5156 20 51.2656
Q22.5625 53.0312 25.6406 53.0312
Q30.0781 53.0312 34.6719 50.2031
L31.6406 42.0469
Q28.4219 43.9531 25.2031 43.9531
Q22.3125 43.9531 20.0156 42.2188
Q17.7188 40.4844 16.75 37.4062
Q15.2812 32.7188 15.2812 27.1562
L15.2812 0
z
" id="ArialMT-72"/>
     </defs>
     <g transform="translate(21.759375 265.370405322)rotate(-90.0)scale(0.2 -0.2)">
      <use xlink:href="#ArialMT-70"/>
      <use x="55.615234375" xlink:href="#ArialMT-72"/>
      <use x="88.916015625" xlink:href="#ArialMT-6f"/>
      <use x="144.53125" xlink:href="#ArialMT-70"/>
      <use x="200.146484375" xlink:href="#ArialMT-6f"/>
      <use x="255.76171875" xlink:href="#ArialMT-72"/>
      <use x="289.0625" xlink:href="#ArialMT-74"/>
      <use x="316.845703125" xlink:href="#ArialMT-69"/>
      <use x="339.0625" xlink:href="#ArialMT-6f"/>
      <use x="394.677734375" xlink:href="#ArialMT-6e"/>
      <use x="450.29296875" xlink:href="#ArialMT-20"/>
      <use x="478.076171875" xlink:href="#ArialMT-6f"/>
      <use x="533.69140625" xlink:href="#ArialMT-66"/>
      <use x="561.474609375" xlink:href="#ArialMT-20"/>
      <use x="589.2578125" xlink:href="#ArialMT-74"/>
      <use x="617.041015625" xlink:href="#ArialMT-72"/>
      <use x="650.341796875" xlink:href="#ArialMT-69"/>
      <use x="672.55859375" xlink:href="#ArialMT-61"/>
      <use x="728.173828125" xlink:href="#ArialMT-6c"/>
      <use x="750.390625" xlink:href="#ArialMT-73"/>
     </g>
    </g>
   </g>
   <g id="patch_3">
    <path d="
M60.825 12.9235
L507.225 12.9235" style="fill:none;stroke:#000000;"/>
   </g>
   <g id="patch_4">
    <path d="
M507.225 358.524
L507.225 12.9235" style="fill:none;stroke:#000000;"/>
   </g>
   <g id="patch_5">
    <path d="
M60.825 358.524
L507.225 358.524" style="fill:none;stroke:#000000;"/>
   </g>
   <g id="patch_6">
    <path d="
M60.825 358.524
L60.825 12.9235" style="fill:none;stroke:#000000;"/>
   </g>
   <g id="text_12">
    <!-- {f6-f9}, 20-D -->
    <defs>
     <path d="
M30.5625 29.8906
L30.5625 21.9219
Q26.8125 21.8281 24.4375 19.875
Q22.0781 17.9219 21.2969 14.5781
Q20.5156 11.2344 20.4531 3.07812
Q20.4062 -5.07812 20.1719 -7.67188
Q19.7344 -11.8125 18.5312 -14.2812
Q17.3281 -16.75 15.5625 -18.2344
Q13.8125 -19.7344 11.0781 -20.5156
Q9.23438 -21.0469 5.03125 -21.0469
L2.29688 -21.0469
L2.29688 -13.375
L3.8125 -13.375
Q8.89062 -13.375 10.5469 -11.5469
Q12.2031 -9.71875 12.2031 -3.32812
Q12.2031 8.89062 12.6406 12.1562
Q13.4219 17.5781 15.7656 20.8281
Q18.1094 24.0781 22.4062 25.875
Q16.7969 28.5625 14.5 32.9844
Q12.2031 37.4062 12.2031 47.9062
Q12.2031 57.4219 11.9688 59.2812
Q11.625 62.5469 10.0312 63.8438
Q8.45312 65.1406 3.8125 65.1406
L2.29688 65.1406
L2.29688 72.7969
L5.03125 72.7969
Q9.8125 72.7969 11.9688 72.0156
Q15.0938 70.9531 17.1406 68.4062
Q19.1875 65.875 19.7969 62.0156
Q20.4062 58.1562 20.4531 49.3594
Q20.5156 40.5781 21.2969 37.2344
Q22.0781 33.8906 24.4375 31.9375
Q26.8125 29.9844 30.5625 29.8906" id="ArialMT-7d"/>
     <path d="
M5.46875 16.5469
L13.9219 17.3281
Q14.9844 11.375 18.0156 8.6875
Q21.0469 6 25.7812 6
Q29.8281 6 32.875 7.85938
Q35.9375 9.71875 37.8906 12.8125
Q39.8438 15.9219 41.1562 21.1875
Q42.4844 26.4688 42.4844 31.9375
Q42.4844 32.5156 42.4375 33.6875
Q39.7969 29.5 35.2344 26.875
Q30.6719 24.2656 25.3438 24.2656
Q16.4531 24.2656 10.2969 30.7031
Q4.15625 37.1562 4.15625 47.7031
Q4.15625 58.5938 10.5781 65.2344
Q17 71.875 26.6562 71.875
Q33.6406 71.875 39.4219 68.1094
Q45.2188 64.3594 48.2188 57.3906
Q51.2188 50.4375 51.2188 37.25
Q51.2188 23.5312 48.2344 15.4062
Q45.2656 7.28125 39.375 3.03125
Q33.5 -1.21875 25.5938 -1.21875
Q17.1875 -1.21875 11.8594 3.4375
Q6.54688 8.10938 5.46875 16.5469
M41.4531 48.1406
Q41.4531 55.7188 37.4219 60.1562
Q33.4062 64.5938 27.7344 64.5938
Q21.875 64.5938 17.5312 59.8125
Q13.1875 55.0312 13.1875 47.4062
Q13.1875 40.5781 17.3125 36.2969
Q21.4375 32.0312 27.4844 32.0312
Q33.5938 32.0312 37.5156 36.2969
Q41.4531 40.5781 41.4531 48.1406" id="ArialMT-39"/>
     <path d="
M3.17188 21.4844
L3.17188 30.3281
L30.1719 30.3281
L30.1719 21.4844
z
" id="ArialMT-2d"/>
     <path d="
M8.89062 0
L8.89062 10.0156
L18.8906 10.0156
L18.8906 0
Q18.8906 -5.51562 16.9375 -8.90625
Q14.9844 -12.3125 10.75 -14.1562
L8.29688 -10.4062
Q11.0781 -9.1875 12.3906 -6.8125
Q13.7188 -4.4375 13.875 0
z
" id="ArialMT-2c"/>
     <path d="
M2.78125 29.8906
Q6.54688 29.9844 8.90625 31.9062
Q11.2812 33.8438 12.0625 37.2031
Q12.8438 40.5781 12.8906 48.7344
Q12.9375 56.8906 13.1875 59.4688
Q13.625 63.5781 14.8125 66.0625
Q16.0156 68.5625 17.7656 70.0469
Q19.5312 71.5312 22.2656 72.3125
Q24.125 72.7969 28.3281 72.7969
L31.0625 72.7969
L31.0625 65.1406
L29.5469 65.1406
Q24.4688 65.1406 22.7969 63.2969
Q21.1406 61.4688 21.1406 55.125
Q21.1406 42.3281 20.6094 38.9688
Q19.7344 33.7344 17.6094 30.9062
Q15.4844 28.0781 10.9375 25.875
Q16.3125 23.6406 18.7188 19.0156
Q21.1406 14.4062 21.1406 3.90625
Q21.1406 -5.60938 21.3438 -7.42188
Q21.7344 -10.75 23.3125 -12.0625
Q24.9062 -13.375 29.5469 -13.375
L31.0625 -13.375
L31.0625 -21.0469
L28.3281 -21.0469
Q23.5312 -21.0469 21.3906 -20.2656
Q18.2656 -19.1406 16.2031 -16.625
Q14.1562 -14.1094 13.5469 -10.25
Q12.9375 -6.39062 12.8906 2.39062
Q12.8438 11.1875 12.0625 14.5469
Q11.2812 17.9219 8.90625 19.875
Q6.54688 21.8281 2.78125 21.9219
z
" id="ArialMT-7b"/>
    </defs>
    <g transform="translate(230.6390625 34.3949053218)scale(0.2 -0.2)">
     <use xlink:href="#ArialMT-7b"/>
     <use x="33.3984375" xlink:href="#ArialMT-66"/>
     <use x="61.181640625" xlink:href="#ArialMT-36"/>
     <use x="116.796875" xlink:href="#ArialMT-2d"/>
     <use x="150.09765625" xlink:href="#ArialMT-66"/>
     <use x="177.880859375" xlink:href="#ArialMT-39"/>
     <use x="233.49609375" xlink:href="#ArialMT-7d"/>
     <use x="266.89453125" xlink:href="#ArialMT-2c"/>
     <use x="294.677734375" xlink:href="#ArialMT-20"/>
     <use x="322.4609375" xlink:href="#ArialMT-32"/>
     <use x="378.076171875" xlink:href="#ArialMT-30"/>
     <use x="433.69140625" xlink:href="#ArialMT-2d"/>
     <use x="466.9921875" xlink:href="#ArialMT-44"/>
    </g>
   </g>
   <g id="text_13">
    <!-- reference budgets from refalgs/best2009-bbob.tar.gz -->
    <defs>
     <path d="
M40.4375 19
L49.0781 17.875
Q47.6562 8.9375 41.8125 3.875
Q35.9844 -1.17188 27.4844 -1.17188
Q16.8438 -1.17188 10.375 5.78125
Q3.90625 12.75 3.90625 25.7344
Q3.90625 34.125 6.6875 40.4219
Q9.46875 46.7344 15.1562 49.875
Q20.8438 53.0312 27.5469 53.0312
Q35.9844 53.0312 41.3594 48.75
Q46.7344 44.4844 48.25 36.625
L39.7031 35.2969
Q38.4844 40.5312 35.375 43.1562
Q32.2812 45.7969 27.875 45.7969
Q21.2344 45.7969 17.0781 41.0312
Q12.9375 36.2812 12.9375 25.9844
Q12.9375 15.5312 16.9375 10.7969
Q20.9531 6.0625 27.3906 6.0625
Q32.5625 6.0625 36.0312 9.23438
Q39.5 12.4062 40.4375 19" id="ArialMT-63"/>
     <path d="
M14.7031 0
L6.54688 0
L6.54688 71.5781
L15.3281 71.5781
L15.3281 46.0469
Q20.9062 53.0312 29.5469 53.0312
Q34.3281 53.0312 38.5938 51.0938
Q42.875 49.1719 45.625 45.6719
Q48.3906 42.1875 49.9531 37.25
Q51.5156 32.3281 51.5156 26.7031
Q51.5156 13.375 44.9219 6.09375
Q38.3281 -1.17188 29.1094 -1.17188
Q19.9219 -1.17188 14.7031 6.5
z

M14.5938 26.3125
Q14.5938 17 17.1406 12.8438
Q21.2969 6.0625 28.375 6.0625
Q34.125 6.0625 38.3281 11.0625
Q42.5312 16.0625 42.5312 25.9844
Q42.5312 36.1406 38.5 40.9688
Q34.4688 45.7969 28.7656 45.7969
Q23 45.7969 18.7969 40.7969
Q14.5938 35.7969 14.5938 26.3125" id="ArialMT-62"/>
     <path d="
M42.0938 16.7031
L51.1719 15.5781
Q49.0312 7.625 43.2188 3.21875
Q37.4062 -1.17188 28.375 -1.17188
Q17 -1.17188 10.3281 5.82812
Q3.65625 12.8438 3.65625 25.4844
Q3.65625 38.5781 10.3906 45.7969
Q17.1406 53.0312 27.875 53.0312
Q38.2812 53.0312 44.875 45.9531
Q51.4688 38.875 51.4688 26.0312
Q51.4688 25.25 51.4219 23.6875
L12.75 23.6875
Q13.2344 15.1406 17.5781 10.5938
Q21.9219 6.0625 28.4219 6.0625
Q33.25 6.0625 36.6719 8.59375
Q40.0938 11.1406 42.0938 16.7031
M13.2344 30.9062
L42.1875 30.9062
Q41.6094 37.4531 38.875 40.7188
Q34.6719 45.7969 27.9844 45.7969
Q21.9219 45.7969 17.7969 41.75
Q13.6719 37.7031 13.2344 30.9062" id="ArialMT-65"/>
     <path d="
M40.2344 0
L40.2344 6.54688
Q35.2969 -1.17188 25.7344 -1.17188
Q19.5312 -1.17188 14.3281 2.25
Q9.125 5.67188 6.26562 11.7969
Q3.42188 17.9219 3.42188 25.875
Q3.42188 33.6406 6 39.9688
Q8.59375 46.2969 13.7656 49.6562
Q18.9531 53.0312 25.3438 53.0312
Q30.0312 53.0312 33.6875 51.0469
Q37.3594 49.0781 39.6562 45.9062
L39.6562 71.5781
L48.3906 71.5781
L48.3906 0
z

M12.4531 25.875
Q12.4531 15.9219 16.6406 10.9844
Q20.8438 6.0625 26.5625 6.0625
Q32.3281 6.0625 36.3438 10.7656
Q40.375 15.4844 40.375 25.1406
Q40.375 35.7969 36.2656 40.7656
Q32.1719 45.75 26.1719 45.75
Q20.3125 45.75 16.375 40.9688
Q12.4531 36.1875 12.4531 25.875" id="ArialMT-64"/>
     <path d="
M40.5781 0
L40.5781 7.625
Q34.5156 -1.17188 24.125 -1.17188
Q19.5312 -1.17188 15.5469 0.578125
Q11.5781 2.34375 9.64062 5
Q7.71875 7.67188 6.9375 11.5312
Q6.39062 14.1094 6.39062 19.7344
L6.39062 51.8594
L15.1875 51.8594
L15.1875 23.0938
Q15.1875 16.2188 15.7188 13.8125
Q16.5469 10.3594 19.2344 8.375
Q21.9219 6.39062 25.875 6.39062
Q29.8281 6.39062 33.2969 8.42188
Q36.7656 10.4531 38.2031 13.9375
Q39.6562 17.4375 39.6562 24.0781
L39.6562 51.8594
L48.4375 51.8594
L48.4375 0
z
" id="ArialMT-75"/>
     <path d="
M6.59375 0
L6.59375 51.8594
L14.4531 51.8594
L14.4531 44.5781
Q16.8906 48.3906 20.9375 50.7031
Q25 53.0312 30.1719 53.0312
Q35.9375 53.0312 39.625 50.6406
Q43.3125 48.25 44.8281 43.9531
Q50.9844 53.0312 60.8438 53.0312
Q68.5625 53.0312 72.7031 48.75
Q76.8594 44.4844 76.8594 35.5938
L76.8594 0
L68.1094 0
L68.1094 32.6719
Q68.1094 37.9375 67.25 40.25
Q66.4062 42.5781 64.1562 43.9844
Q61.9219 45.4062 58.8906 45.4062
Q53.4219 45.4062 49.7969 41.7656
Q46.1875 38.1406 46.1875 30.125
L46.1875 0
L37.4062 0
L37.4062 33.6875
Q37.4062 39.5469 35.25 42.4688
Q33.1094 45.4062 28.2188 45.4062
Q24.5156 45.4062 21.3594 43.4531
Q18.2188 41.5 16.7969 37.7344
Q15.375 33.9844 15.375 26.9062
L15.375 0
z
" id="ArialMT-6d"/>
     <path d="
M1.95312 0
L1.95312 7.125
L34.9688 45.0156
Q29.3438 44.7344 25.0469 44.7344
L3.90625 44.7344
L3.90625 51.8594
L46.2969 51.8594
L46.2969 46.0469
L18.2188 13.1406
L12.7969 7.125
Q18.7031 7.5625 23.875 7.5625
L47.8594 7.5625
L47.8594 0
z
" id="ArialMT-7a"/>
    </defs>
    <g transform="translate(60.825 358.523530322)scale(0.14 -0.14)">
     <use xlink:href="#ArialMT-72"/>
     <use x="33.30078125" xlink:href="#ArialMT-65"/>
     <use x="88.916015625" xlink:href="#ArialMT-66"/>
     <use x="116.69921875" xlink:href="#ArialMT-65"/>
     <use x="172.314453125" xlink:href="#ArialMT-72"/>
     <use x="205.615234375" xlink:href="#ArialMT-65"/>
     <use x="261.23046875" xlink:href="#ArialMT-6e"/>
     <use x="316.845703125" xlink:href="#ArialMT-63"/>
     <use x="366.845703125" xlink:href="#ArialMT-65"/>
     <use x="422.4609375" xlink:href="#ArialMT-20"/>
     <use x="450.244140625" xlink:href="#ArialMT-62"/>
     <use x="505.859375" xlink:href="#ArialMT-75"/>
     <use x="561.474609375" xlink:href="#ArialMT-64"/>
     <use x="617.08984375" xlink:href="#ArialMT-67"/>
     <use x="672.705078125" xlink:href="#ArialMT-65"/>
     <use x="728.3203125" xlink:href="#ArialMT-74"/>
     <use x="756.103515625" xlink:href="#ArialMT-73"/>
     <use x="806.103515625" xlink:href="#ArialMT-20"/>
     <use x="833.88671875" xlink:href="#ArialMT-66"/>
     <use x="861.669921875" xlink:href="#ArialMT-72"/>
     <use x="894.970703125" xlink:href="#ArialMT-6f"/>
     <use x="950.5859375" xlink:href="#ArialMT-6d"/>
     <use x="1033.88671875" xlink:href="#ArialMT-20"/>
     <use x="1061.66992188" xlink:href="#ArialMT-72"/>
     <use x="1094.97070312" xlink:href="#ArialMT-65"/>
     <use x="1150.5859375" xlink:href="#ArialMT-66"/>
     <use x="1178.36914062" xlink:href="#ArialMT-61"/>
     <use x="1233.984375" xlink:href="#ArialMT-6c"/>
     <use x="1256.20117188" xlink:href="#ArialMT-67"/>
     <use x="1311.81640625" xlink:href="#ArialMT-73"/>
     <use x="1361.81640625" xlink:href="#ArialMT-2f"/>
     <use x="1389.59960938" xlink:href="#ArialMT-62"/>
     <use x="1445.21484375" xlink:href="#ArialMT-65"/>
     <use x="1500.83007812" xlink:href="#ArialMT-73"/>
     <use x="1550.83007812" xlink:href="#ArialMT-74"/>
     <use x="1578.61328125" xlink:href="#ArialMT-32"/>
     <use x="1634.22851562" xlink:href="#ArialMT-30"/>
     <use x="1689.84375" xlink:href="#ArialMT-30"/>
     <use x="1745.45898438" xlink:href="#ArialMT-39"/>
     <use x="1801.07421875" xlink:href="#ArialMT-2d"/>
     <use x="1834.375" xlink:href="#ArialMT-62"/>
     <use x="1889.99023438" xlink:href="#ArialMT-62"/>
     <use x="1945.60546875" xlink:href="#ArialMT-6f"/>
     <use x="2001.22070312" xlink:href="#ArialMT-62"/>
     <use x="2056.8359375" xlink:href="#ArialMT-2e"/>
     <use x="2084.61914062" xlink:href="#ArialMT-74"/>
     <use x="2112.40234375" xlink:href="#ArialMT-61"/>
     <use x="2168.01757812" xlink:href="#ArialMT-72"/>
     <use x="2195.81835938" xlink:href="#ArialMT-2e"/>
     <use x="2223.6015625" xlink:href="#ArialMT-67"/>
     <use x="2279.21679688" xlink:href="#ArialMT-7a"/>
    </g>
   </g>
   <g id="text_14">
    <!-- v2.0.1 -->
    <g style="fill:#808080;" transform="translate(271.38671875 353.080030322)scale(0.1 -0.1)">
     <use xlink:href="#ArialMT-76"/>
     <use x="50.0" xlink:href="#ArialMT-32"/>
     <use x="105.615234375" xlink:href="#ArialMT-2e"/>
     <use x="133.3984375" xlink:href="#ArialMT-30"/>
     <use x="189.013671875" xlink:href="#ArialMT-2e"/>
     <use x="216.796875" xlink:href="#ArialMT-31"/>
    </g>
   </g>
   <g id="legend_1">
    <g id="patch_7">
     <path d="
M70.825 142.086
L208.572 142.086
L208.572 22.9235
L70.825 22.9235
L70.825 142.086
z
" style="fill:#ffffff;opacity:0.2;stroke:#000000;"/>
    </g>
    <g id="line2d_113">
     <path d="
M84.825 38.2392
L112.825 38.2392" style="fill:none;stroke:#000000;stroke-linecap:square;"/>
    </g>
    <g id="line2d_114"/>
    <g id="text_15">
     <!-- 0.5: 4/4 -->
     <defs>
      <path d="
M9.03125 41.8438
L9.03125 51.8594
L19.0469 51.8594
L19.0469 41.8438
z

M9.03125 0
L9.03125 10.0156
L19.0469 10.0156
L19.0469 0
z
" id="ArialMT-3a"/>
      <path d="
M4.15625 18.75
L13.375 19.5312
Q14.4062 12.7969 18.1406 9.39062
Q21.875 6 27.1562 6
Q33.5 6 37.8906 10.7812
Q42.2812 15.5781 42.2812 23.4844
Q42.2812 31 38.0625 35.3438
Q33.8438 39.7031 27 39.7031
Q22.75 39.7031 19.3281 37.7656
Q15.9219 35.8438 13.9688 32.7656
L5.71875 33.8438
L12.6406 70.6094
L48.25 70.6094
L48.25 62.2031
L19.6719 62.2031
L15.8281 42.9688
Q22.2656 47.4688 29.3438 47.4688
Q38.7188 47.4688 45.1562 40.9688
Q51.6094 34.4688 51.6094 24.2656
Q51.6094 14.5469 45.9531 7.46875
Q39.0625 -1.21875 27.1562 -1.21875
Q17.3906 -1.21875 11.2031 4.25
Q5.03125 9.71875 4.15625 18.75" id="ArialMT-35"/>
     </defs>
     <g transform="translate(134.825 45.2391553218)scale(0.2 -0.2)">
      <use xlink:href="#ArialMT-30"/>
      <use x="55.615234375" xlink:href="#ArialMT-2e"/>
      <use x="83.3984375" xlink:href="#ArialMT-35"/>
      <use x="139.013671875" xlink:href="#ArialMT-3a"/>
      <use x="166.796875" xlink:href="#ArialMT-20"/>
      <use x="194.580078125" xlink:href="#ArialMT-34"/>
      <use x="250.1953125" xlink:href="#ArialMT-2f"/>
      <use x="277.978515625" xlink:href="#ArialMT-34"/>
     </g>
    </g>
    <g id="line2d_115">
     <path d="
M84.825 66.5298
L112.825 66.5298" style="fill:none;stroke:#00bfbf;stroke-linecap:square;"/>
    </g>
    <g id="line2d_116"/>
    <g id="text_16">
     <!-- 2: 4/4 -->
     <g transform="translate(134.825 73.5297803218)scale(0.2 -0.2)">
      <use xlink:href="#ArialMT-32"/>
      <use x="55.615234375" xlink:href="#ArialMT-3a"/>
      <use x="83.3984375" xlink:href="#ArialMT-20"/>
      <use x="111.181640625" xlink:href="#ArialMT-34"/>
      <use x="166.796875" xlink:href="#ArialMT-2f"/>
      <use x="194.580078125" xlink:href="#ArialMT-34"/>
     </g>
    </g>
    <g id="line2d_117">
     <path d="
M84.825 94.8204
L112.825 94.8204" style="fill:none;stroke:#bf00bf;stroke-linecap:square;"/>
    </g>
    <g id="line2d_118"/>
    <g id="text_17">
     <!-- 10: 3/4 -->
     <defs>
      <path d="
M4.20312 18.8906
L12.9844 20.0625
Q14.5 12.5938 18.1406 9.29688
Q21.7812 6 27 6
Q33.2031 6 37.4688 10.2969
Q41.75 14.5938 41.75 20.9531
Q41.75 27 37.7969 30.9219
Q33.8438 34.8594 27.7344 34.8594
Q25.25 34.8594 21.5312 33.8906
L22.5156 41.6094
Q23.3906 41.5 23.9219 41.5
Q29.5469 41.5 34.0312 44.4219
Q38.5312 47.3594 38.5312 53.4688
Q38.5312 58.2969 35.25 61.4688
Q31.9844 64.6562 26.8125 64.6562
Q21.6875 64.6562 18.2656 61.4219
Q14.8438 58.2031 13.875 51.7656
L5.07812 53.3281
Q6.6875 62.1562 12.3906 67.0156
Q18.1094 71.875 26.6094 71.875
Q32.4688 71.875 37.3906 69.3594
Q42.3281 66.8438 44.9375 62.5
Q47.5625 58.1562 47.5625 53.2656
Q47.5625 48.6406 45.0625 44.8281
Q42.5781 41.0156 37.7031 38.7656
Q44.0469 37.3125 47.5625 32.6875
Q51.0781 28.0781 51.0781 21.1406
Q51.0781 11.7656 44.2344 5.25
Q37.4062 -1.26562 26.9531 -1.26562
Q17.5312 -1.26562 11.2969 4.34375
Q5.07812 9.96875 4.20312 18.8906" id="ArialMT-33"/>
     </defs>
     <g transform="translate(134.825 101.820405322)scale(0.2 -0.2)">
      <use xlink:href="#ArialMT-31"/>
      <use x="55.615234375" xlink:href="#ArialMT-30"/>
      <use x="111.23046875" xlink:href="#ArialMT-3a"/>
      <use x="139.013671875" xlink:href="#ArialMT-20"/>
      <use x="166.796875" xlink:href="#ArialMT-33"/>
      <use x="222.412109375" xlink:href="#ArialMT-2f"/>
      <use x="250.1953125" xlink:href="#ArialMT-34"/>
     </g>
    </g>
    <g id="line2d_119">
     <path d="
M84.825 123.111
L112.825 123.111" style="fill:none;stroke:#ff0000;stroke-linecap:square;stroke-width:3.0;"/>
    </g>
    <g id="line2d_120"/>
    <g id="text_18">
     <!-- 50: 0/4 -->
     <g transform="translate(134.825 130.111030322)scale(0.2 -0.2)">
      <use xlink:href="#ArialMT-35"/>
      <use x="55.615234375" xlink:href="#ArialMT-30"/>
      <use x="111.23046875" xlink:href="#ArialMT-3a"/>
      <use x="139.013671875" xlink:href="#ArialMT-20"/>
      <use x="166.796875" xlink:href="#ArialMT-30"/>
      <use x="222.412109375" xlink:href="#ArialMT-2f"/>
      <use x="250.1953125" xlink:href="#ArialMT-34"/>
     </g>
    </g>
   </g>
  </g>
 </g>
 <defs>
  <clipPath id="p0ab5e1e507">
   <rect height="345.6" width="446.4" x="60.825" y="12.9235303218"/>
  </clipPath>
 </defs>
</svg>
