<?xml version="1.0" encoding="utf-8" standalone="no"?>
<!DOCTYPE svg PUBLIC "-//W3C//DTD SVG 1.1//EN"
  "http://www.w3.org/Graphics/SVG/1.1/DTD/svg11.dtd">
<!-- Created with matplotlib (http://matplotlib.org/) -->
<svg height="411pt" version="1.1" viewBox="0 0 514 411" width="514pt" xmlns="http://www.w3.org/2000/svg" xmlns:xlink="http://www.w3.org/1999/xlink">
 <defs>
  <style type="text/css">
*{stroke-linecap:butt;stroke-linejoin:round;}
  </style>
 </defs>
 <g id="figure_1">
  <g id="patch_1">
   <path d="
M0 411.783
L514.425 411.783
L514.425 0
L0 0
z
" style="fill:#ffffff;"/>
  </g>
  <g id="axes_1">
   <g id="patch_2">
    <path d="
M60.825 358.524
L507.225 358.524
L507.225 12.9235
L60.825 12.9235
z
" style="fill:#ffffff;"/>
   </g>
   <g id="line2d_1">
    <path clip-path="url(#p0ab5e1e507)" d="
M374.735 358.524
L374.735 353.961
L374.735 353.961
L374.735 353.961
L374.735 349.399
L375.135 349.399
L375.135 335.712
L375.334 335.712
L375.334 326.587
L375.928 326.587
L375.928 322.025
L376.906 322.025
L376.906 317.462
L377.294 317.462
L377.294 312.9
L377.678 312.9
L377.678 303.775
L378.819 303.775
L378.819 299.213
L379.382 299.213
L379.382 294.65
L380.494 294.65
L380.494 290.088
L380.677 290.088
L380.677 280.963
L381.405 280.963
L381.405 276.401
L383.718 276.401
L383.718 267.276
L385.611 267.276
L385.611 262.714
L394.919 262.714
L394.919 258.151
L400.003 258.151
L400.003 253.589
L401.48 253.589
L401.48 249.027
L401.877 249.027
L401.877 239.902
L402.14 239.902
L402.14 235.339
L402.794 235.339
L402.794 230.777
L402.923 230.777
L402.923 226.215
L403.698 226.215
L403.698 217.09
L404.589 217.09
L404.589 212.527
L404.968 212.527
L404.968 203.403
L405.842 203.403
L405.842 198.84
L419.844 198.84
L419.844 189.716
L421.715 189.716
L421.715 185.153
L422.102 185.153
L422.102 180.591
L426.123 180.591
L426.123 176.028
L427.558 176.028
L427.558 171.466
L428 171.466
L428 166.904
L429.308 166.904
L429.308 162.341
L431.514 162.341
L431.514 157.779
L432.753 157.779
L432.753 153.217
L435.555 153.217
L435.555 148.654
L437.18 148.654
L437.18 144.092
L438.091 144.092
L438.091 139.529
L438.241 139.529
L438.241 134.967
L439.507 134.967
L439.507 130.405
L444.129 130.405
L444.129 125.842
L456.631 125.842
L456.631 121.28
L466.766 121.28
L466.766 116.718
L467.007 116.718
L467.007 112.155
L470.386 112.155
L470.386 107.593
L475.271 107.593
L475.271 103.03
L476.155 103.03
L476.155 98.4681
L480.207 98.4681
L480.207 93.9057
L482.256 93.9057
L482.256 89.3433
L482.711 89.3433
L482.711 84.781
L492.993 84.781
L492.993 80.2186
L507.354 80.2186
L507.354 75.6562
L510.576 75.6562
L510.576 71.0938
L515.425 71.0938
L515.425 71.0938" style="fill:none;stroke:#f5deb3;stroke-linecap:square;"/>
   </g>
   <g id="line2d_2">
    <path clip-path="url(#p0ab5e1e507)" d="
M162.075 358.524
L162.075 353.961
L188.287 353.961
L188.287 349.399
L204.133 349.399
L204.133 344.836
L206.884 344.836
L206.884 340.274
L214.498 340.274
L214.498 335.712
L221.309 335.712
L221.309 331.149
L225.481 331.149
L225.481 326.587
L227.47 326.587
L227.47 312.9
L233.095 312.9
L233.095 308.337
L238.27 308.337
L238.27 303.775
L239.906 303.775
L239.906 299.213
L244.581 299.213
L244.581 294.65
L254.331 294.65
L254.331 290.088
L294.449 290.088
L294.449 285.526
L324.484 285.526
L324.484 280.963
L331.903 280.963
L331.903 276.401
L334.574 276.401
L334.574 271.838
L347.103 271.838
L347.103 267.276
L385.781 267.276
L385.781 262.714
L389.401 262.714
L389.401 258.151
L391.603 258.151
L391.603 253.589
L392.372 253.589
L392.372 249.027
L392.524 249.027
L392.524 244.464
L392.98 244.464
L392.98 239.902
L393.282 239.902
L393.282 235.339
L394.18 235.339
L394.18 230.777
L394.476 230.777
L394.476 226.215
L395.065 226.215
L395.065 221.652
L396.515 221.652
L396.515 217.09
L399.73 217.09
L399.73 212.527
L400.003 212.527
L400.003 207.965
L401.08 207.965
L401.08 203.403
L404.589 203.403
L404.589 198.84
L456.12 198.84
L456.12 194.278
L461.897 194.278
L461.897 189.716
L462.209 189.716
L462.209 185.153
L464.852 185.153
L464.852 180.591
L468.2 180.591
L468.248 166.904
L468.999 166.904
L468.999 162.341
L469.835 162.341
L469.881 153.217
L469.973 153.217
L469.973 148.654
L470.477 148.654
L470.477 144.092
L472.1 144.092
L472.1 139.529
L473.596 139.529
L473.596 134.967
L475.652 134.967
L475.652 130.405
L476.072 130.405
L476.072 125.842
L479.098 125.842
L479.098 121.28
L479.337 121.28
L479.337 116.718
L480.677 116.718
L480.677 112.155
L493.635 112.155
L493.635 107.593
L500.643 107.593
L500.643 103.03
L501.75 103.03
L501.75 98.4681
L515.425 98.4681
L515.425 98.4681" style="fill:none;stroke:#f5deb3;stroke-linecap:square;"/>
   </g>
   <g id="line2d_3">
    <path clip-path="url(#p0ab5e1e507)" d="
M344.911 358.524
L344.911 353.961
L344.911 353.961
L344.911 353.961
L344.911 349.399
L345.229 349.399
L345.229 344.836
L357.593 344.836
L357.593 335.712
L357.855 335.712
L357.855 331.149
L369.292 331.149
L369.292 322.025
L369.51 322.025
L369.51 317.462
L369.728 317.462
L369.728 312.9
L375.928 312.9
L375.928 308.337
L379.195 308.337
L379.195 299.213
L379.382 299.213
L379.382 294.65
L379.569 294.65
L379.569 290.088
L392.372 290.088
L392.372 285.526
L395.358 285.526
L395.358 280.963
L406.09 280.963
L406.09 276.401
L408.038 276.401
L408.038 271.838
L410.161 271.838
L410.161 267.276
L413.773 267.276
L413.773 262.714
L417.401 262.714
L417.401 258.151
L420.342 258.151
L420.342 253.589
L422.391 253.589
L422.391 249.027
L423.155 249.027
L423.155 244.464
L426.755 244.464
L426.755 239.902
L429.566 239.902
L429.566 235.339
L430.165 235.339
L430.165 230.777
L433.404 230.777
L433.404 226.215
L434.449 226.215
L434.449 221.652
L443.854 221.652
L443.854 217.09
L445.15 217.09
L445.15 212.527
L446.487 212.527
L446.487 203.403
L447.732 203.403
L447.732 198.84
L451.514 198.84
L451.514 194.278
L453.265 194.278
L453.265 189.716
L455.433 189.716
L455.433 185.153
L456.006 185.153
L456.006 180.591
L457.864 180.591
L457.864 176.028
L461.531 176.028
L461.531 171.466
L462.313 171.466
L462.313 166.904
L462.88 166.904
L462.88 162.341
L463.798 162.341
L463.798 157.779
L468.719 157.779
L468.812 148.654
L473.422 148.654
L473.422 144.092
L474.116 144.092
L474.116 139.529
L474.76 139.529
L474.76 134.967
L475.059 134.967
L475.059 130.405
L479.218 130.405
L479.218 125.842
L479.813 125.842
L479.813 121.28
L480.56 121.28
L480.56 116.718
L482.103 116.718
L482.103 112.155
L482.711 112.155
L482.711 107.593
L483.723 107.593
L483.723 103.03
L491.56 103.03
L491.56 98.4681
L493.507 98.4681
L493.507 93.9057
L495.273 93.9057
L495.273 89.3433
L495.892 89.3433
L495.892 84.781
L500.643 84.781
L500.643 80.2186
L504.045 80.2186
L504.045 75.6562
L504.316 75.6562
L504.316 71.0938
L507.637 71.0938
L507.637 66.5315
L507.868 66.5315
L507.868 61.9691
L508.429 61.9691
L508.429 57.4067
L510.87 57.4067
L510.87 52.8443
L512.128 52.8443
L512.128 48.2819
L512.558 48.2819
L512.558 43.7196
L513.48 43.7196
L513.48 39.1572
L513.691 39.1572
L513.691 34.5948
L513.971 34.5948
L513.971 30.0324
L515.425 30.0324
L515.425 30.0324" style="fill:none;stroke:#f5deb3;stroke-linecap:square;"/>
   </g>
   <g id="line2d_4">
    <path clip-path="url(#p0ab5e1e507)" d="
M460.153 358.524
L460.153 353.961
L460.153 353.961
L460.153 353.961
L460.153 349.399
L461.216 349.399
L461.216 344.836
L465.2 344.836
L465.299 322.025
L465.348 322.025
L465.447 308.337
L465.496 308.337
L465.595 294.65
L478.415 294.65
L478.496 207.965
L478.536 207.965
L478.617 171.466
L478.657 171.466
L478.697 134.967
L478.818 134.967
L478.898 112.155
L478.938 112.155
L479.018 98.4681
L479.058 98.4681
L479.098 34.5948
L479.576 34.5948
L479.615 20.9077
L479.694 20.9077
L479.694 16.3453
L479.694 16.3453
L507.225 16.3453
L507.225 16.3453" style="fill:none;stroke:#f5deb3;stroke-linecap:square;"/>
   </g>
   <g id="line2d_5">
    <path clip-path="url(#p0ab5e1e507)" d="
M317.088 358.524
L317.088 344.836
L317.088 344.836
L317.088 331.149
L317.576 331.149
L317.576 317.462
L317.576 317.462
L317.576 303.775
L317.576 303.775
L317.576 290.088
L415.719 290.088
L415.719 276.401
L489.382 276.401
L489.382 262.714
L490.564 262.714
L490.564 249.027
L494.554 249.027
L494.554 235.339
L498.608 235.339
L498.608 221.652
L499.079 221.652
L499.079 207.965
L508.935 207.965
L508.935 194.278
L512.63 194.278
L512.63 180.591
L515.425 180.591" style="fill:none;stroke:#f5deb3;stroke-linecap:square;"/>
   </g>
   <g id="line2d_6">
    <path clip-path="url(#p0ab5e1e507)" d="
M244.581 358.524
L244.581 353.961
L254.331 353.961
L254.331 349.399
L256.867 349.399
L256.867 344.836
L258.098 344.836
L258.098 340.274
L263.926 340.274
L263.926 335.712
L265.031 335.712
L265.031 331.149
L271.292 331.149
L271.292 326.587
L277 326.587
L277 322.025
L277.904 322.025
L277.904 317.462
L278.796 317.462
L278.796 312.9
L283.078 312.9
L283.078 303.775
L287.095 303.775
L287.095 299.213
L299.14 299.213
L299.14 294.65
L301.676 294.65
L301.676 290.088
L348.924 290.088
L348.924 285.526
L352.984 285.526
L352.984 280.963
L355.465 280.963
L355.465 276.401
L356.803 276.401
L356.803 271.838
L368.634 271.838
L368.634 267.276
L368.854 267.276
L368.854 258.151
L370.375 258.151
L370.375 253.589
L374.935 253.589
L374.935 249.027
L375.135 249.027
L375.135 244.464
L380.86 244.464
L380.86 239.902
L383.191 239.902
L383.191 235.339
L386.454 235.339
L386.454 230.777
L388.271 230.777
L388.271 226.215
L389.879 226.215
L389.879 221.652
L390.668 221.652
L390.668 217.09
L390.825 217.09
L390.825 212.527
L396.658 212.527
L396.658 207.965
L396.944 207.965
L396.944 203.403
L400.812 203.403
L400.812 198.84
L402.533 198.84
L402.533 194.278
L406.827 194.278
L406.827 189.716
L407.435 189.716
L407.435 185.153
L407.798 185.153
L407.798 180.591
L408.038 180.591
L408.038 176.028
L408.635 176.028
L408.635 166.904
L409.812 166.904
L409.812 162.341
L410.739 162.341
L410.739 157.779
L411.992 157.779
L411.992 153.217
L412.554 153.217
L412.554 148.654
L413.442 148.654
L413.442 144.092
L414.969 144.092
L414.969 139.529
L416.143 139.529
L416.143 134.967
L417.297 134.967
L417.297 125.842
L417.504 125.842
L417.504 121.28
L417.711 121.28
L417.711 116.718
L423.345 116.718
L423.345 112.155
L423.91 112.155
L423.91 107.593
L428 107.593
L428 103.03
L457.418 103.03
L457.418 98.4681
L457.753 98.4681
L457.753 93.9057
L459.182 93.9057
L459.182 89.3433
L460.474 89.3433
L460.527 80.2186
L460.74 80.2186
L460.74 75.6562
L461.268 75.6562
L461.268 71.0938
L465.496 71.0938
L465.496 66.5315
L466.814 66.5315
L466.911 57.4067
L468.011 57.4067
L468.011 52.8443
L470.841 52.8443
L470.841 48.2819
L471.113 48.2819
L471.113 43.7196
L471.698 43.7196
L471.698 39.1572
L476.197 39.1572
L476.197 34.5948
L481.413 34.5948
L481.413 30.0324
L502.199 30.0324
L502.199 25.4701
L502.311 25.4701
L502.311 20.9077
L513.644 20.9077
L513.644 16.3453
L513.644 16.3453" style="fill:none;stroke:#f5deb3;stroke-linecap:square;"/>
   </g>
   <g id="line2d_7">
    <path clip-path="url(#p0ab5e1e507)" d="
M231.274 358.524
L231.274 353.961
L231.274 353.961
L231.274 353.961
L231.274 349.399
L233.095 349.399
L233.095 344.836
L236.59 344.836
L236.59 340.274
L241.503 340.274
L241.503 326.587
L246.068 326.587
L246.068 322.025
L248.941 322.025
L248.941 290.088
L297.171 290.088
L297.171 285.526
L327.887 285.526
L327.887 280.963
L332.292 280.963
L332.292 276.401
L336.051 276.401
L336.051 271.838
L338.206 271.838
L338.206 262.714
L339.604 262.714
L339.604 258.151
L340.292 258.151
L340.292 253.589
L340.972 253.589
L340.972 249.027
L343.625 249.027
L343.625 244.464
L344.911 244.464
L344.911 239.902
L347.716 239.902
L347.716 235.339
L348.624 235.339
L348.624 230.777
L350.695 230.777
L350.695 221.652
L360.909 221.652
L360.909 217.09
L409.696 217.09
L409.696 212.527
L411.426 212.527
L411.426 207.965
L489.484 207.965
L489.484 203.403
L499.837 203.403
L499.837 198.84
L509.686 198.84
L509.686 194.278
L510.894 194.278
L510.894 189.716
L515.425 189.716
L515.425 189.716" style="fill:none;stroke:#f5deb3;stroke-linecap:square;"/>
   </g>
   <g id="line2d_8">
    <path clip-path="url(#p0ab5e1e507)" d="
M324.484 358.524
L324.484 353.961
L324.919 353.961
L324.919 349.399
L332.292 349.399
L332.292 344.836
L338.909 344.836
L338.909 340.274
L339.604 340.274
L339.604 335.712
L340.633 335.712
L340.633 331.149
L341.98 331.149
L341.98 326.587
L349.222 326.587
L349.222 317.462
L350.11 317.462
L350.11 312.9
L353.264 312.9
L353.264 308.337
L354.648 308.337
L354.648 303.775
L363.109 303.775
L363.109 299.213
L365.931 299.213
L365.931 294.65
L369.292 294.65
L369.292 290.088
L374.534 290.088
L374.534 285.526
L377.678 285.526
L377.678 280.963
L379.569 280.963
L379.569 276.401
L380.125 276.401
L380.125 271.838
L390.668 271.838
L390.668 267.276
L407.798 267.276
L407.798 262.714
L411.198 262.714
L411.198 258.151
L412.33 258.151
L412.33 249.027
L413.442 249.027
L413.442 244.464
L414.969 244.464
L414.969 239.902
L416.565 239.902
L416.565 235.339
L417.504 235.339
L417.504 230.777
L417.814 230.777
L417.814 226.215
L418.225 226.215
L418.225 221.652
L419.844 221.652
L419.844 212.527
L421.228 212.527
L421.228 207.965
L422.487 207.965
L422.487 203.403
L423.25 203.403
L423.25 198.84
L429.994 198.84
L429.994 194.278
L506.706 194.278
L506.706 189.716
L515.425 189.716
L515.425 189.716" style="fill:none;stroke:#f5deb3;stroke-linecap:square;"/>
   </g>
   <g id="line2d_9">
    <path clip-path="url(#p0ab5e1e507)" d="
M176.5 358.524
L176.5 353.961
L195.098 353.961
L195.098 349.399
L198.252 349.399
L198.252 344.836
L198.252 344.836
L198.252 340.274
L198.252 340.274
L198.252 335.712
L201.259 335.712
L201.259 331.149
L201.259 331.149
L201.259 326.587
L204.133 326.587
L204.133 322.025
L204.133 322.025
L204.133 317.462
L214.498 317.462
L214.498 312.9
L214.498 312.9
L214.498 308.337
L227.47 308.337
L227.47 303.775
L227.47 303.775
L227.47 299.213
L234.866 299.213
L234.866 294.65
L236.59 294.65
L236.59 290.088
L302.907 290.088
L302.907 285.526
L309.29 285.526
L309.29 280.963
L314.591 280.963
L314.591 276.401
L316.596 276.401
L316.596 271.838
L376.125 271.838
L376.125 267.276
L381.224 267.276
L381.224 262.714
L381.224 262.714
L381.224 258.151
L381.767 258.151
L381.767 253.589
L383.015 253.589
L383.015 249.027
L384.066 249.027
L384.066 244.464
L384.24 244.464
L384.24 239.902
L385.442 239.902
L385.442 235.339
L385.781 235.339
L385.781 230.777
L388.919 230.777
L388.919 226.215
L388.919 226.215
L388.919 221.652
L390.196 221.652
L390.196 217.09
L390.511 217.09
L390.511 212.527
L393.282 212.527
L393.282 207.965
L393.733 207.965
L393.733 203.403
L438.391 203.403
L438.391 198.84
L453.503 198.84
L453.503 194.278
L456.97 194.278
L456.97 189.716
L474.246 189.716
L474.246 185.153
L493.635 185.153
L493.635 180.591
L515.425 180.591" style="fill:none;stroke:#f5deb3;stroke-linecap:square;"/>
   </g>
   <g id="line2d_10">
    <path clip-path="url(#p0ab5e1e507)" d="
M474.974 358.524
L474.974 353.961
L478.898 353.961
L478.898 349.399
L483.499 349.399
L483.499 344.836
L485.121 344.836
L485.121 340.274
L489.314 340.274
L489.314 335.712
L492.541 335.712
L492.541 331.149
L492.897 331.149
L492.929 322.025
L493.058 322.025
L493.058 317.462
L494.459 317.462
L494.459 312.9
L495.273 312.9
L495.335 303.775
L495.459 303.775
L495.459 299.213
L495.831 299.213
L495.923 290.088
L495.985 290.088
L495.985 285.526
L497.204 285.526
L497.204 280.963
L497.415 280.963
L497.415 276.401
L498.43 276.401
L498.43 271.838
L498.637 271.838
L498.637 267.276
L500.443 267.276
L500.443 262.714
L502.617 262.714
L502.673 253.589
L504.451 253.589
L504.451 249.027
L507.714 249.027
L507.714 244.464
L509.835 244.464
L509.835 239.902
L512.272 239.902
L512.272 235.339
L512.582 235.339
L512.582 230.777
L513.574 230.777
L513.574 226.215
L515.286 226.215
L515.286 221.652
L515.425 221.652
L515.425 221.652" style="fill:none;stroke:#f5deb3;stroke-linecap:square;"/>
   </g>
   <g id="line2d_11">
    <path clip-path="url(#p0ab5e1e507)" d="
M167.25 358.524
L167.25 353.961
L167.25 353.961
L167.25 349.399
L167.25 349.399
L167.25 344.836
L167.25 344.836
L167.25 340.274
L167.25 340.274
L167.25 335.712
L167.25 335.712
L167.25 331.149
L167.25 331.149
L167.25 326.587
L167.25 326.587
L167.25 322.025
L167.25 322.025
L167.25 317.462
L167.25 317.462
L167.25 312.9
L167.25 312.9
L167.25 308.337
L167.25 308.337
L167.25 303.775
L167.25 303.775
L167.25 299.213
L167.25 299.213
L167.25 294.65
L167.25 294.65
L167.25 290.088
L191.782 290.088
L191.782 285.526
L191.782 285.526
L191.782 280.963
L209.523 280.963
L209.523 276.401
L223.429 276.401
L223.429 271.838
L223.429 271.838
L223.429 267.276
L223.429 267.276
L223.429 262.714
L223.429 262.714
L223.429 258.151
L223.429 258.151
L223.429 253.589
L223.429 253.589
L223.429 249.027
L223.429 249.027
L223.429 244.464
L223.429 244.464
L223.429 239.902
L234.866 239.902
L234.866 235.339
L234.866 235.339
L234.866 230.777
L234.866 230.777
L234.866 226.215
L244.581 226.215
L244.581 221.652
L375.334 221.652
L375.334 217.09
L404.589 217.09
L404.589 212.527
L406.09 212.527
L406.09 207.965
L407.556 207.965
L407.556 203.403
L408.277 203.403
L408.277 198.84
L411.083 198.84
L411.083 194.278
L419.443 194.278
L419.443 189.716
L420.639 189.716
L420.639 185.153
L424.563 185.153
L424.563 180.591
L425.21 180.591
L425.21 176.028
L425.21 176.028
L425.21 171.466
L432.012 171.466
L432.012 166.904
L433.485 166.904
L433.485 162.341
L433.888 162.341
L433.888 157.779
L443.785 157.779
L443.785 153.217
L444.197 153.217
L444.197 148.654
L504.289 148.654
L504.289 144.092
L515.425 144.092" style="fill:none;stroke:#f5deb3;stroke-linecap:square;"/>
   </g>
   <g id="line2d_12">
    <path clip-path="url(#p0ab5e1e507)" d="
M231.274 358.524
L231.274 353.961
L238.27 353.961
L238.27 349.399
L243.06 349.399
L243.06 344.836
L250.331 344.836
L250.331 340.274
L251.692 340.274
L251.692 335.712
L267.186 335.712
L267.186 331.149
L271.292 331.149
L271.292 326.587
L280.543 326.587
L280.543 317.462
L284.715 317.462
L284.715 308.337
L288.634 308.337
L288.634 303.775
L289.39 303.775
L289.39 299.213
L290.137 299.213
L290.137 294.65
L290.876 294.65
L290.876 290.088
L350.11 290.088
L350.11 285.526
L360.41 285.526
L360.41 280.963
L364.063 280.963
L364.063 276.401
L367.969 276.401
L367.969 271.838
L372.488 271.838
L372.488 267.276
L373.927 267.276
L373.927 262.714
L379.007 262.714
L379.007 258.151
L381.042 258.151
L381.042 253.589
L386.788 253.589
L386.788 249.027
L388.757 249.027
L388.757 244.464
L388.919 244.464
L388.919 239.902
L389.401 239.902
L389.401 235.339
L392.98 235.339
L392.98 226.215
L393.131 226.215
L393.131 221.652
L394.772 221.652
L394.772 217.09
L398.213 217.09
L398.213 212.527
L403.954 212.527
L403.954 207.965
L404.209 207.965
L404.209 203.403
L409.226 203.403
L409.226 198.84
L414.861 198.84
L414.861 194.278
L419.944 194.278
L419.944 189.716
L420.243 189.716
L420.243 185.153
L422.102 185.153
L422.102 180.591
L424.004 180.591
L424.004 176.028
L424.749 176.028
L424.749 171.466
L424.934 171.466
L424.934 166.904
L425.851 166.904
L425.851 162.341
L426.033 162.341
L426.033 157.779
L426.665 157.779
L426.665 153.217
L426.934 153.217
L426.934 148.654
L428.526 148.654
L428.526 144.092
L428.788 144.092
L428.788 139.529
L429.308 139.529
L429.394 130.405
L430.25 130.405
L430.25 125.842
L434.369 125.842
L434.449 116.718
L435.004 116.718
L435.004 112.155
L490.295 112.155
L490.295 107.593
L491.428 107.593
L491.428 103.03
L491.56 103.03
L491.56 98.4681
L491.823 98.4681
L491.823 93.9057
L493.187 93.9057
L493.187 89.3433
L495.18 89.3433
L495.18 84.781
L495.645 84.781
L495.645 80.2186
L497.234 80.2186
L497.234 75.6562
L499.167 75.6562
L499.167 71.0938
L499.371 71.0938
L499.371 66.5315
L499.75 66.5315
L499.75 61.9691
L500.01 61.9691
L500.01 57.4067
L500.958 57.4067
L500.958 52.8443
L501.975 52.8443
L501.975 48.2819
L502.311 48.2819
L502.339 39.1572
L502.506 39.1572
L502.506 34.5948
L503.827 34.5948
L503.827 30.0324
L504.072 30.0324
L504.072 25.4701
L505.336 25.4701
L505.336 20.9077
L515.425 20.9077
L515.425 20.9077" style="fill:none;stroke:#f5deb3;stroke-linecap:square;"/>
   </g>
   <g id="line2d_13">
    <path clip-path="url(#p0ab5e1e507)" d="
M356.271 358.524
L356.271 353.961
L379.569 353.961
L379.569 349.399
L397.792 349.399
L397.792 344.836
L398.63 344.836
L398.63 340.274
L403.954 340.274
L403.954 335.712
L404.842 335.712
L404.842 331.149
L405.344 331.149
L405.344 326.587
L411.879 326.587
L411.879 317.462
L415.184 317.462
L415.184 312.9
L418.328 312.9
L418.43 303.775
L421.812 303.775
L421.812 299.213
L422.006 299.213
L422.006 294.65
L422.391 294.65
L422.391 290.088
L422.583 290.088
L422.583 285.526
L424.191 285.526
L424.284 271.838
L424.377 271.838
L424.47 262.714
L424.934 262.714
L424.934 258.151
L425.486 258.151
L425.486 253.589
L426.934 253.589
L426.934 249.027
L427.113 249.027
L427.113 244.464
L429.738 244.464
L429.738 239.902
L430.42 239.902
L430.42 235.339
L431.68 235.339
L431.68 230.777
L432.753 230.777
L432.753 226.215
L433.079 226.215
L433.079 221.652
L434.529 221.652
L434.529 217.09
L434.925 217.09
L434.925 212.527
L438.015 212.527
L438.015 207.965
L438.541 207.965
L438.541 203.403
L439.137 203.403
L439.137 198.84
L441.324 198.84
L441.324 194.278
L441.538 194.278
L441.538 189.716
L442.811 189.716
L442.811 185.153
L443.439 185.153
L443.439 180.591
L445.621 180.591
L445.621 176.028
L446.089 176.028
L446.089 171.466
L447.472 171.466
L447.472 166.904
L450.215 166.904
L450.215 162.341
L450.464 162.341
L450.464 157.779
L459.453 157.779
L459.453 153.217
L483.909 153.217
L483.909 148.654
L486.275 148.654
L486.275 144.092
L487.48 144.092
L487.48 139.529
L487.76 139.529
L487.76 134.967
L488.282 134.967
L488.282 130.405
L491.03 130.405
L491.03 125.842
L493.699 125.842
L493.699 121.28
L494.08 121.28
L494.08 116.718
L496.046 116.718
L496.046 112.155
L497.113 112.155
L497.113 107.593
L497.775 107.593
L497.775 103.03
L498.578 103.03
L498.578 98.4681
L499.049 98.4681
L499.049 93.9057
L500.5 93.9057
L500.5 89.3433
L500.729 89.3433
L500.729 84.781
L501.835 84.781
L501.835 80.2186
L502.339 80.2186
L502.339 75.6562
L504.962 75.6562
L504.962 71.0938
L506.523 71.0938
L506.523 66.5315
L507.868 66.5315
L507.868 61.9691
L509.186 61.9691
L509.186 57.4067
L512.867 57.4067
L512.962 48.2819
L513.056 48.2819
L513.056 43.7196
L514.064 43.7196
L514.064 39.1572
L514.62 39.1572
L514.69 30.0324
L515.425 30.0324
L515.425 30.0324" style="fill:none;stroke:#f5deb3;stroke-linecap:square;"/>
   </g>
   <g id="line2d_14">
    <path clip-path="url(#p0ab5e1e507)" d="
M374.332 358.524
L374.332 353.961
L403.312 353.961
L403.312 349.399
L403.698 349.399
L403.698 344.836
L405.219 344.836
L405.219 340.274
L405.594 340.274
L405.594 335.712
L405.718 335.712
L405.718 331.149
L406.09 331.149
L406.09 326.587
L407.314 326.587
L407.314 322.025
L407.435 322.025
L407.435 317.462
L407.556 317.462
L407.556 312.9
L409.226 312.9
L409.226 308.337
L409.344 308.337
L409.344 303.775
L409.461 303.775
L409.461 299.213
L410.393 299.213
L410.393 294.65
L412.666 294.65
L412.666 290.088
L413.663 290.088
L413.663 285.526
L414.969 285.526
L414.969 280.963
L416.46 280.963
L416.46 276.401
L417.401 276.401
L417.401 271.838
L417.917 271.838
L417.917 267.276
L418.328 267.276
L418.328 262.714
L418.634 262.714
L418.634 258.151
L421.521 258.151
L421.521 253.589
L423.91 253.589
L423.91 249.027
L424.097 249.027
L424.097 244.464
L424.284 244.464
L424.284 239.902
L424.47 239.902
L424.563 226.215
L427.202 226.215
L427.202 221.652
L427.824 221.652
L427.824 217.09
L430.25 217.09
L430.25 212.527
L430.42 212.527
L430.42 207.965
L430.759 207.965
L430.759 203.403
L432.178 203.403
L432.178 198.84
L432.425 198.84
L432.425 194.278
L432.671 194.278
L432.671 189.716
L434.608 189.716
L434.688 180.591
L467.63 180.591
L467.63 176.028
L469.511 176.028
L469.511 171.466
L470.614 171.466
L470.614 166.904
L472.145 166.904
L472.145 162.341
L475.736 162.341
L475.736 157.779
L481.759 157.779
L481.759 153.217
L482.218 153.217
L482.218 148.654
L482.673 148.654
L482.673 144.092
L483.238 144.092
L483.238 139.529
L485.412 139.529
L485.412 134.967
L486.418 134.967
L486.418 130.405
L488.282 130.405
L488.282 121.28
L488.421 121.28
L488.421 116.718
L488.869 116.718
L488.903 103.03
L489.109 103.03
L489.109 98.4681
L490.094 98.4681
L490.094 93.9057
L490.664 93.9057
L490.664 89.3433
L500.872 89.3433
L500.872 84.781
L510.182 84.781
L510.182 80.2186
L515.425 80.2186
L515.425 80.2186" style="fill:none;stroke:#f5deb3;stroke-linecap:square;"/>
   </g>
   <g id="line2d_15">
    <path clip-path="url(#p0ab5e1e507)" d="
M378.251 358.524
L378.251 353.961
L378.251 353.961
L378.251 353.961
L378.251 349.399
L378.251 349.399
L378.251 349.399
L378.251 344.836
L383.718 344.836
L383.718 331.149
L384.24 331.149
L384.24 317.462
L395.794 317.462
L395.794 303.775
L403.053 303.775
L403.053 290.088
L412.33 290.088
L412.33 280.963
L446.685 280.963
L446.685 276.401
L453.503 276.401
L453.503 267.276
L462.105 267.276
L462.105 262.714
L464.453 262.714
L464.453 253.589
L470.386 253.589
L470.386 244.464
L476.904 244.464
L476.904 239.902
L478.455 239.902
L478.455 230.777
L480.599 230.777
L480.599 226.215
L484.975 226.215
L484.975 217.09
L491.724 217.09
L491.724 212.527
L495.459 212.527
L495.459 207.965
L499.284 207.965
L499.284 203.403
L500.299 203.403
L500.299 194.278
L503.773 194.278
L503.773 189.716
L513.808 189.716
L513.808 185.153
L515.425 185.153
L515.425 185.153" style="fill:none;stroke:#f5deb3;stroke-linecap:square;"/>
   </g>
   <g id="line2d_16">
    <path clip-path="url(#p0ab5e1e507)" d="
M201.259 358.524
L201.259 353.961
L201.259 353.961
L201.259 353.961
L201.259 349.399
L201.259 349.399
L201.259 349.399
L201.259 344.836
L201.259 344.836
L201.259 344.836
L201.259 340.274
L201.259 340.274
L201.259 340.274
L201.259 335.712
L201.259 335.712
L201.259 335.712
L201.259 331.149
L201.259 331.149
L201.259 331.149
L201.259 326.587
L201.259 326.587
L201.259 326.587
L201.259 322.025
L201.259 322.025
L201.259 322.025
L201.259 317.462
L201.259 317.462
L201.259 317.462
L201.259 312.9
L201.259 312.9
L201.259 312.9
L201.259 308.337
L201.259 308.337
L201.259 308.337
L201.259 303.775
L201.259 303.775
L201.259 303.775
L201.259 299.213
L201.259 299.213
L201.259 299.213
L201.259 294.65
L201.259 294.65
L201.259 294.65
L201.259 290.088
L201.259 290.088
L201.259 290.088
L201.259 285.526
L201.259 285.526
L201.259 285.526
L201.259 280.963
L201.259 280.963
L201.259 280.963
L201.259 276.401
L201.259 276.401
L201.259 276.401
L201.259 271.838
L204.133 271.838
L204.133 258.151
L206.884 258.151
L206.884 249.027
L209.523 249.027
L209.523 235.339
L212.058 235.339
L212.058 230.777
L214.498 230.777
L214.498 226.215
L225.481 226.215
L225.481 221.652
L305.301 221.652
L305.301 217.09
L308.735 217.09
L308.735 212.527
L318.06 212.527
L318.06 207.965
L392.219 207.965
L392.219 203.403
L392.372 203.403
L392.372 198.84
L392.98 198.84
L392.98 194.278
L396.228 194.278
L396.228 189.716
L439.137 189.716
L439.137 185.153
L459.993 185.153
L459.993 180.591
L467.2 180.591
L467.2 176.028
L486.81 176.028
L486.81 171.466
L487.725 171.466
L487.725 166.904
L502.7 166.904
L502.7 162.341
L503.991 162.341
L503.991 157.779
L505.602 157.779
L505.602 153.217
L508.859 153.217
L508.859 148.654
L515.425 148.654
L515.425 148.654" style="fill:none;stroke:#f5deb3;stroke-linecap:square;"/>
   </g>
   <g id="line2d_17">
    <path clip-path="url(#p0ab5e1e507)" d="
M427.024 358.524
L427.024 357.003
L427.024 357.003
L427.024 357.003
L427.024 355.482
L427.024 355.482
L427.024 355.482
L427.024 353.961
L438.316 353.961
L438.316 349.399
L450.278 349.399
L450.278 344.836
L469.046 344.836
L469.046 340.274
L470.065 340.274
L470.065 335.712
L471.832 335.712
L471.832 331.149
L473.291 331.149
L473.291 326.587
L477.969 326.587
L477.969 322.025
L480.716 322.025
L480.716 317.462
L482.673 317.462
L482.673 312.9
L486.525 312.9
L486.525 308.337
L489.416 308.337
L489.416 303.775
L492.67 303.775
L492.67 299.213
L494.175 299.213
L494.175 294.65
L502.811 294.65
L502.811 290.088
L507.147 290.088
L507.147 285.526
L514.227 285.526
L514.227 280.963
L515.425 280.963
L515.425 280.963" style="fill:none;stroke:#f5deb3;stroke-linecap:square;"/>
   </g>
   <g id="line2d_18">
    <path clip-path="url(#p0ab5e1e507)" d="
M176.5 358.524
L176.5 353.961
L184.592 353.961
L184.592 349.399
L188.287 349.399
L188.287 340.274
L198.252 340.274
L198.252 335.712
L204.133 335.712
L204.133 331.149
L206.884 331.149
L206.884 326.587
L212.058 326.587
L212.058 322.025
L214.498 322.025
L214.498 312.9
L216.849 312.9
L216.849 308.337
L221.309 308.337
L221.309 303.775
L225.481 303.775
L225.481 299.213
L227.47 299.213
L227.47 294.65
L233.095 294.65
L233.095 290.088
L280.543 290.088
L280.543 285.526
L282.244 285.526
L282.244 280.963
L287.095 280.963
L287.095 276.401
L294.449 276.401
L294.449 271.838
L295.14 271.838
L295.14 267.276
L297.834 267.276
L297.834 262.714
L300.42 262.714
L300.42 258.151
L304.711 258.151
L304.711 253.589
L311.463 253.589
L311.463 249.027
L341.31 249.027
L341.31 244.464
L342.312 244.464
L342.312 239.902
L347.103 239.902
L347.103 235.339
L347.41 235.339
L347.41 230.777
L348.323 230.777
L348.323 221.652
L349.52 221.652
L349.52 217.09
L350.986 217.09
L350.986 212.527
L352.135 212.527
L352.135 207.965
L352.984 207.965
L352.984 203.403
L355.465 203.403
L355.465 198.84
L356.004 198.84
L356.004 194.278
L358.889 194.278
L358.889 189.716
L360.41 189.716
L360.41 185.153
L363.109 185.153
L363.109 180.591
L366.617 180.591
L366.617 176.028
L366.844 176.028
L366.844 171.466
L392.065 171.466
L392.065 166.904
L392.98 166.904
L392.98 162.341
L401.744 162.341
L401.744 157.779
L406.827 157.779
L406.827 153.217
L410.161 153.217
L410.161 148.654
L410.624 148.654
L410.624 144.092
L414.861 144.092
L414.861 139.529
L417.297 139.529
L417.297 134.967
L422.487 134.967
L422.487 130.405
L426.395 130.405
L426.395 125.842
L427.113 125.842
L427.113 116.718
L430.674 116.718
L430.674 112.155
L438.091 112.155
L438.091 107.593
L440.24 107.593
L440.24 103.03
L447.732 103.03
L447.732 98.4681
L448.698 98.4681
L448.698 93.9057
L453.384 93.9057
L453.384 89.3433
L453.74 89.3433
L453.74 84.781
L458.03 84.781
L458.03 80.2186
L463.899 80.2186
L463.899 75.6562
L470.477 75.6562
L470.477 71.0938
L483.462 71.0938
L483.462 66.5315
L491.823 66.5315
L491.823 61.9691
L492.378 61.9691
L492.378 57.4067
L499.284 57.4067
L499.284 52.8443
L505.016 52.8443
L505.016 48.2819
L515.425 48.2819
L515.425 48.2819" style="fill:none;stroke:#f5deb3;stroke-linecap:square;"/>
   </g>
   <g id="line2d_19">
    <path clip-path="url(#p0ab5e1e507)" d="
M579.879 358.524" style="fill:none;stroke:#f5deb3;stroke-linecap:square;"/>
   </g>
   <g id="line2d_20">
    <path clip-path="url(#p0ab5e1e507)" d="
M285.518 358.524
L285.518 353.961
L308.735 353.961
L308.735 349.399
L311.463 349.399
L311.463 344.836
L313.046 344.836
L313.046 340.274
L321.352 340.274
L321.352 331.149
L328.3 331.149
L328.3 326.587
L328.71 326.587
L328.71 322.025
L330.327 322.025
L330.327 317.462
L330.724 317.462
L330.724 312.9
L331.12 312.9
L331.12 308.337
L341.98 308.337
L341.98 303.775
L349.222 303.775
L349.222 299.213
L354.098 299.213
L354.098 294.65
L365.931 294.65
L365.931 290.088
L366.389 290.088
L366.389 285.526
L432.916 285.526
L432.916 280.963
L437.485 280.963
L437.485 276.401
L438.091 276.401
L438.091 271.838
L448.185 271.838
L448.185 267.276
L452.001 267.276
L452.001 262.714
L455.605 262.714
L455.605 258.151
L459.724 258.151
L459.724 253.589
L462.777 253.589
L462.777 249.027
L463.544 249.027
L463.544 244.464
L466.378 244.464
L466.378 239.902
L466.766 239.902
L466.766 235.339
L467.63 235.339
L467.63 230.777
L468.812 230.777
L468.812 226.215
L470.977 226.215
L471.068 212.527
L472.5 212.527
L472.5 207.965
L473.64 207.965
L473.64 203.403
L480.599 203.403
L480.599 198.84
L483.76 198.84
L483.76 194.278
L487.515 194.278
L487.515 185.153
L488.662 185.153
L488.662 180.591
L489.416 180.591
L489.416 176.028
L491.329 176.028
L491.329 171.466
L492.248 171.466
L492.248 166.904
L510.379 166.904
L510.379 162.341
L515.425 162.341
L515.425 162.341" style="fill:none;stroke:#f5deb3;stroke-linecap:square;"/>
   </g>
   <g id="line2d_21">
    <path clip-path="url(#p0ab5e1e507)" d="
M241.503 358.524
L241.503 353.961
L247.52 353.961
L247.52 349.399
L255.612 349.399
L255.612 344.836
L271.292 344.836
L271.292 340.274
L276.083 340.274
L276.083 331.149
L277 331.149
L277 326.587
L277.904 326.587
L277.904 317.462
L279.675 317.462
L279.675 303.775
L280.543 303.775
L280.543 299.213
L282.244 299.213
L282.244 290.088
L284.715 290.088
L284.715 280.963
L285.518 280.963
L285.518 276.401
L287.095 276.401
L287.095 267.276
L287.869 267.276
L287.869 253.589
L290.137 253.589
L290.137 249.027
L290.876 249.027
L290.876 235.339
L291.607 235.339
L291.607 230.777
L292.329 230.777
L292.329 212.527
L293.043 212.527
L293.043 203.403
L293.75 203.403
L293.75 194.278
L294.449 194.278
L294.449 185.153
L295.824 185.153
L295.824 180.591
L296.501 180.591
L296.501 176.028
L297.171 176.028
L297.171 162.341
L299.783 162.341
L299.783 157.779
L300.42 157.779
L300.42 153.217
L301.676 153.217
L301.676 144.092
L302.907 144.092
L302.907 134.967
L304.115 134.967
L304.115 130.405
L304.711 130.405
L304.711 125.842
L310.385 125.842
L310.385 121.28
L321.808 121.28
L321.808 52.8443
L391.448 52.8443
L391.448 48.2819
L391.911 48.2819
L391.911 43.7196
L404.716 43.7196
L404.716 39.1572
L412.777 39.1572
L412.777 34.5948
L515.425 34.5948
L515.425 34.5948" style="fill:none;stroke:#f5deb3;stroke-linecap:square;"/>
   </g>
   <g id="line2d_22">
    <path clip-path="url(#p0ab5e1e507)" d="
M644.682 358.524" style="fill:none;stroke:#f5deb3;stroke-linecap:square;"/>
   </g>
   <g id="line2d_23">
    <path clip-path="url(#p0ab5e1e507)" d="
M301.051 358.524
L301.051 353.961
L311.995 353.961
L311.995 349.399
L314.591 349.399
L314.591 344.836
L320.891 344.836
L320.891 340.274
L322.262 340.274
L322.262 335.712
L330.327 335.712
L330.327 331.149
L330.724 331.149
L330.724 326.587
L331.513 326.587
L331.513 317.462
L332.678 317.462
L332.678 312.9
L335.317 312.9
L335.317 308.337
L336.778 308.337
L336.778 303.775
L351.275 303.775
L351.275 299.213
L352.135 299.213
L352.135 294.65
L353.264 294.65
L353.264 290.088
L515.425 290.088
L515.425 290.088" style="fill:none;stroke:#f5deb3;stroke-linecap:square;"/>
   </g>
   <g id="line2d_24">
    <path clip-path="url(#p0ab5e1e507)" d="
M311.995 358.524
L311.995 353.961
L319.017 353.961
L319.017 349.399
L334.199 349.399
L334.199 344.836
L347.716 344.836
L347.716 340.274
L349.816 340.274
L349.816 335.712
L367.969 335.712
L367.969 331.149
L373.519 331.149
L373.519 326.587
L373.723 326.587
L373.723 322.025
L377.486 322.025
L377.486 317.462
L395.065 317.462
L395.065 312.9
L408.754 312.9
L408.754 308.337
L409.579 308.337
L409.579 303.775
L410.161 303.775
L410.161 299.213
L446.222 299.213
L446.222 294.65
L446.685 294.65
L446.685 290.088
L494.899 290.088
L494.899 285.526
L499.575 285.526
L499.575 280.963
L512.985 280.963
L512.985 276.401
L515.425 276.401
L515.425 276.401" style="fill:none;stroke:#f5deb3;stroke-linecap:square;"/>
   </g>
   <g id="line2d_25">
    <path clip-path="url(#p0ab5e1e507)" d="
M312.523 358.524
L312.523 353.961
L314.591 353.961
L314.591 349.399
L319.491 349.399
L319.491 344.836
L321.808 344.836
L321.808 340.274
L323.16 340.274
L323.16 335.712
L326.208 335.712
L326.208 326.587
L327.053 326.587
L327.053 322.025
L327.471 322.025
L327.471 317.462
L328.3 317.462
L328.3 312.9
L330.724 312.9
L330.724 308.337
L332.292 308.337
L332.292 303.775
L332.678 303.775
L332.678 299.213
L333.822 299.213
L333.822 294.65
L338.206 294.65
L338.206 290.088
L375.334 290.088
L375.334 285.526
L397.369 285.526
L397.369 280.963
L403.569 280.963
L403.569 276.401
L403.826 276.401
L403.826 271.838
L406.705 271.838
L406.705 267.276
L409.344 267.276
L409.344 262.714
L409.696 262.714
L409.696 258.151
L417.608 258.151
L417.711 249.027
L418.328 249.027
L418.328 244.464
L423.534 244.464
L423.534 239.902
L425.668 239.902
L425.668 235.339
L426.755 235.339
L426.755 230.777
L428.439 230.777
L428.439 226.215
L429.909 226.215
L429.994 217.09
L432.012 217.09
L432.012 212.527
L433.485 212.527
L433.485 207.965
L433.888 207.965
L433.888 203.403
L434.688 203.403
L434.688 198.84
L435.083 198.84
L435.083 194.278
L435.477 194.278
L435.477 189.716
L435.634 189.716
L435.634 185.153
L435.868 185.153
L435.868 180.591
L436.489 180.591
L436.489 176.028
L437.104 176.028
L437.104 171.466
L437.713 171.466
L437.713 166.904
L438.241 166.904
L438.241 162.341
L438.466 162.341
L438.466 153.217
L440.53 153.217
L440.53 148.654
L440.748 148.654
L440.748 144.092
L440.892 144.092
L440.892 139.529
L441.538 139.529
L441.538 134.967
L443.922 134.967
L443.922 130.405
L445.487 130.405
L445.487 125.842
L445.822 125.842
L445.822 121.28
L451.022 121.28
L451.022 116.718
L458.8 116.718
L458.8 112.155
L500.929 112.155
L500.929 107.593
L501.863 107.593
L501.863 103.03
L502.506 103.03
L502.506 98.4681
L502.645 98.4681
L502.645 93.9057
L503.308 93.9057
L503.308 89.3433
L504.099 89.3433
L504.099 84.781
L505.069 84.781
L505.069 80.2186
L505.389 80.2186
L505.389 75.6562
L505.734 75.6562
L505.734 71.0938
L506.575 71.0938
L506.575 66.5315
L507.173 66.5315
L507.173 61.9691
L507.483 61.9691
L507.483 57.4067
L509.311 57.4067
L509.311 52.8443
L509.76 52.8443
L509.76 48.2819
L511.089 48.2819
L511.089 43.7196
L512.891 43.7196
L512.891 39.1572
L515.425 39.1572
L515.425 39.1572" style="fill:none;stroke:#f5deb3;stroke-linecap:square;"/>
   </g>
   <g id="line2d_26">
    <path clip-path="url(#p0ab5e1e507)" d="
M393.433 358.524
L393.433 353.961
L408.038 353.961
L408.038 349.399
L410.161 349.399
L410.161 344.836
L413.111 344.836
L413.111 340.274
L414.753 340.274
L414.753 335.712
L423.628 335.712
L423.628 331.149
L432.835 331.149
L432.916 322.025
L434.688 322.025
L434.688 317.462
L435.241 317.462
L435.241 312.9
L438.84 312.9
L438.84 308.337
L450.34 308.337
L450.34 303.775
L450.651 303.775
L450.651 299.213
L470.887 299.213
L470.887 294.65
L471.249 294.65
L471.249 290.088
L472.278 290.088
L472.278 285.526
L474.974 285.526
L474.974 280.963
L478.051 280.963
L478.051 276.401
L479.178 276.401
L479.178 271.838
L480.677 271.838
L480.677 267.276
L482.103 267.276
L482.103 262.714
L483.312 262.714
L483.312 258.151
L488.351 258.151
L488.351 253.589
L491.494 253.589
L491.494 249.027
L492.248 249.027
L492.248 244.464
L494.711 244.464
L494.773 235.339
L495.738 235.339
L495.738 230.777
L497.865 230.777
L497.865 226.215
L498.489 226.215
L498.489 221.652
L499.895 221.652
L499.895 217.09
L502.422 217.09
L502.422 212.527
L504.694 212.527
L504.694 207.965
L506.628 207.965
L506.654 198.84
L510.083 198.84
L510.083 194.278
L513.056 194.278
L513.056 189.716
L515.425 189.716
L515.425 189.716" style="fill:none;stroke:#f5deb3;stroke-linecap:square;"/>
   </g>
   <g id="line2d_27">
    <path clip-path="url(#p0ab5e1e507)" d="
M247.52 358.524
L247.52 353.961
L272.279 353.961
L272.279 349.399
L289.39 349.399
L289.39 340.274
L290.876 340.274
L290.876 335.712
L297.834 335.712
L297.834 331.149
L303.514 331.149
L303.514 322.025
L304.115 322.025
L304.115 317.462
L315.098 317.462
L315.098 312.9
L315.601 312.9
L315.601 303.775
L325.351 303.775
L325.351 299.213
L339.949 299.213
L339.949 294.65
L348.02 294.65
L348.02 290.088
L351.275 290.088
L351.275 285.526
L362.627 285.526
L362.627 280.963
L365.469 280.963
L365.469 276.401
L372.28 276.401
L372.28 271.838
L373.109 271.838
L373.109 267.276
L381.042 267.276
L381.042 262.714
L385.781 262.714
L385.781 258.151
L387.286 258.151
L387.286 253.589
L388.919 253.589
L388.919 249.027
L390.038 249.027
L390.038 244.464
L390.511 244.464
L390.511 239.902
L390.825 239.902
L390.825 235.339
L391.448 235.339
L391.448 230.777
L392.98 230.777
L392.98 226.215
L393.282 226.215
L393.282 221.652
L394.328 221.652
L394.328 217.09
L394.919 217.09
L394.919 212.527
L396.944 212.527
L396.944 207.965
L399.183 207.965
L399.183 203.403
L401.08 203.403
L401.08 198.84
L401.214 198.84
L401.214 194.278
L406.46 194.278
L406.46 189.716
L407.918 189.716
L407.918 185.153
L411.766 185.153
L411.766 180.591
L413.332 180.591
L413.332 176.028
L416.354 176.028
L416.354 171.466
L417.917 171.466
L417.917 166.904
L441.823 166.904
L441.823 162.341
L442.39 162.341
L442.39 157.779
L442.881 157.779
L442.881 153.217
L443.23 153.217
L443.23 148.654
L443.646 148.654
L443.646 144.092
L445.487 144.092
L445.487 139.529
L445.755 139.529
L445.755 134.967
L446.222 134.967
L446.222 130.405
L447.014 130.405
L447.014 125.842
L447.472 125.842
L447.472 121.28
L449.017 121.28
L449.017 116.718
L449.398 116.718
L449.398 112.155
L454.153 112.155
L454.153 107.593
L456.744 107.593
L456.744 103.03
L459.073 103.03
L459.073 98.4681
L465.2 98.4681
L465.2 93.9057
L472.632 93.9057
L472.632 89.3433
L474.546 89.3433
L474.546 84.781
L475.567 84.781
L475.567 80.2186
L478.132 80.2186
L478.132 75.6562
L480.56 75.6562
L480.56 71.0938
L482.141 71.0938
L482.141 66.5315
L482.484 66.5315
L482.484 61.9691
L482.975 61.9691
L483.05 52.8443
L483.574 52.8443
L483.574 48.2819
L485.157 48.2819
L485.157 43.7196
L486.845 43.7196
L486.845 39.1572
L489.314 39.1572
L489.314 34.5948
L496.292 34.5948
L496.292 30.0324
L499.108 30.0324
L499.108 25.4701
L515.425 25.4701
L515.425 25.4701" style="fill:none;stroke:#f5deb3;stroke-linecap:square;"/>
   </g>
   <g id="line2d_28">
    <path clip-path="url(#p0ab5e1e507)" d="
M299.783 358.524
L299.783 353.961
L311.463 353.961
L311.463 349.399
L311.995 349.399
L311.995 335.712
L314.08 335.712
L314.08 331.149
L315.601 331.149
L315.601 326.587
L322.262 326.587
L322.262 322.025
L323.16 322.025
L323.16 317.462
L331.903 317.462
L331.903 312.9
L336.415 312.9
L336.415 308.337
L347.103 308.337
L347.103 303.775
L347.41 303.775
L347.41 299.213
L358.115 299.213
L358.115 294.65
L359.4 294.65
L359.4 290.088
L439.507 290.088
L439.507 285.526
L515.425 285.526
L515.425 285.526" style="fill:none;stroke:#f5deb3;stroke-linecap:square;"/>
   </g>
   <g id="line2d_29">
    <path clip-path="url(#p0ab5e1e507)" d="
M150.289 358.524
L150.289 353.961
L150.289 353.961
L150.289 353.961
L150.289 349.399
L150.289 349.399
L150.289 349.399
L150.289 344.836
L150.289 344.836
L150.289 344.836
L150.289 340.274
L150.289 340.274
L150.289 340.274
L150.289 335.712
L150.289 335.712
L150.289 335.712
L150.289 331.149
L150.289 331.149
L150.289 331.149
L150.289 326.587
L150.289 326.587
L150.289 326.587
L150.289 322.025
L150.289 322.025
L150.289 322.025
L150.289 317.462
L150.289 317.462
L150.289 317.462
L150.289 312.9
L150.289 312.9
L150.289 312.9
L150.289 308.337
L150.289 308.337
L150.289 308.337
L150.289 303.775
L150.289 303.775
L150.289 303.775
L150.289 299.213
L150.289 299.213
L150.289 299.213
L150.289 294.65
L150.289 294.65
L150.289 294.65
L150.289 290.088
L180.672 290.088
L180.672 276.401
L184.592 276.401
L184.592 249.027
L259.307 249.027
L259.307 235.339
L260.493 235.339
L260.493 221.652
L294.449 221.652
L294.449 207.965
L295.14 207.965
L295.14 194.278
L296.501 194.278
L296.501 180.591
L304.711 180.591
L304.711 166.904
L309.29 166.904
L309.29 153.217
L430.42 153.217
L430.42 139.529
L453.146 139.529
L453.146 125.842
L453.265 125.842
L453.265 112.155
L454.211 112.155
L454.211 98.4681
L467.535 98.4681
L467.535 84.781
L484.057 84.781
L484.057 71.0938
L485.048 71.0938
L485.048 57.4067
L515.425 57.4067
L515.425 57.4067" style="fill:none;stroke:#f5deb3;stroke-linecap:square;"/>
   </g>
   <g id="line2d_30">
    <path clip-path="url(#p0ab5e1e507)" d="
M1.43787 358.524
L1.43787 353.961
L1.43787 353.961
L1.43787 353.961
L1.43787 349.399
L1.43787 349.399
L1.43787 349.399
L1.43787 344.836
L1.43787 344.836
L1.43787 344.836
L1.43787 340.274
L1.43787 340.274
L1.43787 340.274
L1.43787 335.712
L1.43787 335.712
L1.43787 335.712
L1.43787 331.149
L1.43787 331.149
L1.43787 331.149
L1.43787 326.587
L1.43787 326.587
L1.43787 326.587
L1.43787 322.025
L1.43787 322.025
L1.43787 322.025
L1.43787 317.462
L1.43787 317.462
L1.43787 317.462
L1.43787 312.9
L1.43787 312.9
L1.43787 312.9
L1.43787 308.337
L1.43787 308.337
L1.43787 308.337
L1.43787 303.775
L1.43787 303.775
L1.43787 303.775
L1.43787 299.213
L1.43787 299.213
L1.43787 299.213
L1.43787 294.65
L1.43787 294.65
L1.43787 294.65
L1.43787 290.088
L46.2465 290.088
L46.2465 276.401
L72.4579 276.401
L72.4579 239.902
L91.0552 239.902
L91.0552 198.84
L105.48 198.84
L105.48 185.153
L117.267 185.153
L117.267 180.591
L127.232 180.591
L127.232 171.466
L143.478 171.466
L143.478 166.904
L150.289 166.904
L150.289 157.779
L156.45 157.779
L156.45 153.217
L162.075 153.217
L162.075 144.092
L167.25 144.092
L167.25 134.967
L172.04 134.967
L172.04 130.405
L188.287 130.405
L188.287 125.842
L191.782 125.842
L191.782 116.718
L195.098 116.718
L195.098 103.03
L198.252 103.03
L198.252 98.4681
L204.133 98.4681
L204.133 93.9057
L209.523 93.9057
L209.523 89.3433
L212.058 89.3433
L212.058 84.781
L229.4 84.781
L229.4 80.2186
L231.274 80.2186
L231.274 75.6562
L233.095 75.6562
L233.095 66.5315
L234.866 66.5315
L234.866 57.4067
L241.503 57.4067
L241.503 52.8443
L243.06 52.8443
L243.06 48.2819
L246.068 48.2819
L246.068 39.1572
L247.52 39.1572
L247.52 34.5948
L253.025 34.5948
L253.025 25.4701
L254.331 25.4701
L254.331 20.9077
L289.39 20.9077
L289.39 16.3453
L289.39 16.3453
L507.225 16.3453
L507.225 16.3453" style="fill:none;stroke:#000000;stroke-linecap:square;"/>
   </g>
   <g id="line2d_31"/>
   <g id="line2d_32">
    <path clip-path="url(#p0ab5e1e507)" d="
M1.43787 358.524
L1.43787 353.961
L1.43787 353.961
L1.43787 353.961
L1.43787 349.399
L1.43787 349.399
L1.43787 349.399
L1.43787 344.836
L46.2465 344.836
L46.2465 340.274
L72.4579 340.274
L72.4579 335.712
L91.0552 335.712
L91.0552 317.462
L105.48 317.462
L105.48 312.9
L135.864 312.9
L135.864 308.337
L162.075 308.337
L162.075 303.775
L167.25 303.775
L167.25 294.65
L172.04 294.65
L172.04 285.526
L176.5 285.526
L176.5 280.963
L188.287 280.963
L188.287 276.401
L191.782 276.401
L191.782 267.276
L204.133 267.276
L204.133 262.714
L209.523 262.714
L209.523 258.151
L212.058 258.151
L212.058 253.589
L229.4 253.589
L229.4 249.027
L234.866 249.027
L234.866 244.464
L236.59 244.464
L236.59 239.902
L243.06 239.902
L243.06 235.339
L244.581 235.339
L244.581 226.215
L246.068 226.215
L246.068 212.527
L247.52 212.527
L247.52 207.965
L248.941 207.965
L248.941 203.403
L250.331 203.403
L250.331 198.84
L256.867 198.84
L256.867 189.716
L258.098 189.716
L258.098 185.153
L259.307 185.153
L259.307 180.591
L260.493 180.591
L260.493 176.028
L261.658 176.028
L261.658 171.466
L265.031 171.466
L265.031 166.904
L266.118 166.904
L266.118 162.341
L267.186 162.341
L267.186 153.217
L271.292 153.217
L271.292 148.654
L281.399 148.654
L281.399 139.529
L283.078 139.529
L283.078 134.967
L286.311 134.967
L286.311 125.842
L291.607 125.842
L291.607 121.28
L299.14 121.28
L299.14 116.718
L305.301 116.718
L305.301 112.155
L305.886 112.155
L305.886 107.593
L307.041 107.593
L307.041 103.03
L312.523 103.03
L312.523 98.4681
L313.565 98.4681
L313.565 93.9057
L314.08 93.9057
L314.08 89.3433
L315.601 89.3433
L315.601 84.781
L321.352 84.781
L321.352 80.2186
L322.262 80.2186
L322.262 75.6562
L325.351 75.6562
L325.351 71.0938
L327.887 71.0938
L327.887 66.5315
L336.415 66.5315
L336.415 61.9691
L337.138 61.9691
L337.138 57.4067
L339.949 57.4067
L339.949 52.8443
L349.222 52.8443
L349.222 48.2819
L357.593 48.2819
L357.593 43.7196
L358.115 43.7196
L358.115 39.1572
L358.889 39.1572
L358.889 34.5948
L370.375 34.5948
L370.375 30.0324
L375.334 30.0324
L375.334 25.4701
L389.72 25.4701
L389.72 20.9077
L398.352 20.9077
L398.352 16.3453
L398.352 16.3453
L507.225 16.3453
L507.225 16.3453" style="fill:none;stroke:#00bfbf;stroke-linecap:square;"/>
   </g>
   <g id="line2d_33"/>
   <g id="line2d_34">
    <path clip-path="url(#p0ab5e1e507)" d="
M286.311 358.524
L286.311 353.961
L286.311 353.961
L286.311 349.399
L299.14 349.399
L299.14 344.836
L312.523 344.836
L312.523 340.274
L312.523 340.274
L312.523 335.712
L313.565 335.712
L313.565 331.149
L315.601 331.149
L315.601 326.587
L321.352 326.587
L321.352 322.025
L336.415 322.025
L336.415 317.462
L337.138 317.462
L337.138 312.9
L343.949 312.9
L343.949 308.337
L357.593 308.337
L357.593 303.775
L358.632 303.775
L358.632 299.213
L358.889 299.213
L358.889 294.65
L361.157 294.65
L361.157 290.088
L367.969 290.088
L367.969 285.526
L368.634 285.526
L368.634 280.963
L369.074 280.963
L369.074 276.401
L370.375 276.401
L370.375 271.838
L372.071 271.838
L372.071 267.276
L373.927 267.276
L373.927 262.714
L375.334 262.714
L375.334 258.151
L375.334 258.151
L375.334 253.589
L375.334 253.589
L375.334 249.027
L379.382 249.027
L379.382 244.464
L380.677 244.464
L380.677 239.902
L386.788 239.902
L386.788 235.339
L387.451 235.339
L387.451 230.777
L388.108 230.777
L388.108 226.215
L389.72 226.215
L389.72 221.652
L392.828 221.652
L392.828 217.09
L394.328 217.09
L394.328 212.527
L394.624 212.527
L394.624 207.965
L397.369 207.965
L397.369 203.403
L397.369 203.403
L397.369 198.84
L398.352 198.84
L398.352 194.278
L400.003 194.278
L400.003 189.716
L400.138 189.716
L400.138 185.153
L401.48 185.153
L401.48 180.591
L402.533 180.591
L402.533 176.028
L402.533 176.028
L402.533 176.028
L507.225 176.028" style="fill:none;stroke:#bf00bf;stroke-linecap:square;"/>
   </g>
   <g id="line2d_35"/>
   <g id="line2d_36">
    <path clip-path="url(#p0ab5e1e507)" d="
M286.311 358.524
L286.311 353.961
L286.311 353.961
L286.311 349.399
L299.14 349.399
L299.14 344.836
L312.523 344.836
L312.523 340.274
L313.565 340.274
L313.565 335.712
L315.601 335.712
L315.601 331.149
L321.352 331.149
L321.352 326.587
L336.415 326.587
L336.415 322.025
L337.138 322.025
L337.138 317.462
L357.593 317.462
L357.593 312.9
L358.889 312.9
L358.889 308.337
L370.375 308.337
L370.375 303.775
L375.334 303.775
L375.334 299.213
L389.72 299.213
L389.72 294.65
L398.352 294.65
L398.352 290.088
L398.352 290.088
L398.352 290.088
L507.225 290.088" style="fill:none;stroke:#ff0000;stroke-linecap:square;stroke-width:3.0;"/>
   </g>
   <g id="line2d_37"/>
   <g id="line2d_38">
    <path clip-path="url(#p0ab5e1e507)" d="
M403.183 358.524
L403.183 12.9235" style="fill:none;stroke:#000000;stroke-linecap:square;"/>
   </g>
   <g id="matplotlib.axis_1">
    <g id="xtick_1">
     <g id="line2d_39">
      <path clip-path="url(#p0ab5e1e507)" d="
M105.48 358.524
L105.48 12.9235" style="fill:none;stroke:#000000;stroke-dasharray:1.000000,3.000000;stroke-dashoffset:0.0;stroke-width:0.5;"/>
     </g>
     <g id="line2d_40">
      <defs>
       <path d="
M0 0
L0 -4" id="m93b0483c22" style="stroke:#000000;stroke-width:0.5;"/>
      </defs>
      <g>
       <use style="stroke:#000000;stroke-width:0.5;" x="105.480331599" xlink:href="#m93b0483c22" y="358.523530322"/>
      </g>
     </g>
     <g id="line2d_41">
      <defs>
       <path d="
M0 0
L0 4" id="m741efc42ff" style="stroke:#000000;stroke-width:0.5;"/>
      </defs>
      <g>
       <use style="stroke:#000000;stroke-width:0.5;" x="105.480331599" xlink:href="#m741efc42ff" y="12.9235303218"/>
      </g>
     </g>
     <g id="text_1">
      <!-- 0 -->
      <defs>
       <path d="
M4.15625 35.2969
Q4.15625 48 6.76562 55.7344
Q9.375 63.4844 14.5156 67.6719
Q19.6719 71.875 27.4844 71.875
Q33.25 71.875 37.5938 69.5469
Q41.9375 67.2344 44.7656 62.8594
Q47.6094 58.5 49.2188 52.2188
Q50.8281 45.9531 50.8281 35.2969
Q50.8281 22.7031 48.2344 14.9688
Q45.6562 7.23438 40.5 3
Q35.3594 -1.21875 27.4844 -1.21875
Q17.1406 -1.21875 11.2344 6.20312
Q4.15625 15.1406 4.15625 35.2969
M13.1875 35.2969
Q13.1875 17.6719 17.3125 11.8281
Q21.4375 6 27.4844 6
Q33.5469 6 37.6719 11.8594
Q41.7969 17.7188 41.7969 35.2969
Q41.7969 52.9844 37.6719 58.7812
Q33.5469 64.5938 27.3906 64.5938
Q21.3438 64.5938 17.7188 59.4688
Q13.1875 52.9375 13.1875 35.2969" id="ArialMT-30"/>
      </defs>
      <g transform="translate(100.813144099 376.839155322)scale(0.2 -0.2)">
       <use xlink:href="#ArialMT-30"/>
      </g>
     </g>
    </g>
    <g id="xtick_2">
     <g id="line2d_42">
      <path clip-path="url(#p0ab5e1e507)" d="
M254.331 358.524
L254.331 12.9235" style="fill:none;stroke:#000000;stroke-dasharray:1.000000,3.000000;stroke-dashoffset:0.0;stroke-width:0.5;"/>
     </g>
     <g id="line2d_43">
      <g>
       <use style="stroke:#000000;stroke-width:0.5;" x="254.33143693" xlink:href="#m93b0483c22" y="358.523530322"/>
      </g>
     </g>
     <g id="line2d_44">
      <g>
       <use style="stroke:#000000;stroke-width:0.5;" x="254.33143693" xlink:href="#m741efc42ff" y="12.9235303218"/>
      </g>
     </g>
     <g id="text_2">
      <!-- 1 -->
      <defs>
       <path d="
M37.25 0
L28.4688 0
L28.4688 56
Q25.2969 52.9844 20.1406 49.9531
Q14.9844 46.9219 10.8906 45.4062
L10.8906 53.9062
Q18.2656 57.375 23.7812 62.2969
Q29.2969 67.2344 31.5938 71.875
L37.25 71.875
z
" id="ArialMT-31"/>
      </defs>
      <g transform="translate(251.69549943 376.839155322)scale(0.2 -0.2)">
       <use xlink:href="#ArialMT-31"/>
      </g>
     </g>
    </g>
    <g id="xtick_3">
     <g id="line2d_45">
      <path clip-path="url(#p0ab5e1e507)" d="
M403.183 358.524
L403.183 12.9235" style="fill:none;stroke:#000000;stroke-dasharray:1.000000,3.000000;stroke-dashoffset:0.0;stroke-width:0.5;"/>
     </g>
     <g id="line2d_46">
      <g>
       <use style="stroke:#000000;stroke-width:0.5;" x="403.182542261" xlink:href="#m93b0483c22" y="358.523530322"/>
      </g>
     </g>
     <g id="line2d_47">
      <g>
       <use style="stroke:#000000;stroke-width:0.5;" x="403.182542261" xlink:href="#m741efc42ff" y="12.9235303218"/>
      </g>
     </g>
     <g id="text_3">
      <!-- 2 -->
      <defs>
       <path d="
M50.3438 8.45312
L50.3438 0
L3.03125 0
Q2.9375 3.17188 4.04688 6.10938
Q5.85938 10.9375 9.82812 15.625
Q13.8125 20.3125 21.3438 26.4688
Q33.0156 36.0312 37.1094 41.625
Q41.2188 47.2188 41.2188 52.2031
Q41.2188 57.4219 37.4688 61
Q33.7344 64.5938 27.7344 64.5938
Q21.3906 64.5938 17.5781 60.7812
Q13.7656 56.9844 13.7188 50.25
L4.6875 51.1719
Q5.60938 61.2812 11.6562 66.5781
Q17.7188 71.875 27.9375 71.875
Q38.2344 71.875 44.2344 66.1562
Q50.25 60.4531 50.25 52
Q50.25 47.7031 48.4844 43.5469
Q46.7344 39.4062 42.6562 34.8125
Q38.5781 30.2188 29.1094 22.2188
Q21.1875 15.5781 18.9375 13.2031
Q16.7031 10.8438 15.2344 8.45312
z
" id="ArialMT-32"/>
      </defs>
      <g transform="translate(398.441917261 376.839155322)scale(0.2 -0.2)">
       <use xlink:href="#ArialMT-32"/>
      </g>
     </g>
    </g>
    <g id="xtick_4"/>
    <g id="xtick_5">
     <g id="line2d_48">
      <defs>
       <path d="
M0 0
L0 -2" id="m177f7580d0" style="stroke:#000000;stroke-width:0.5;"/>
      </defs>
      <g>
       <use style="stroke:#000000;stroke-width:0.5;" x="72.4579000026" xlink:href="#m177f7580d0" y="358.523530322"/>
      </g>
     </g>
     <g id="line2d_49">
      <defs>
       <path d="
M0 0
L0 2" id="m5284c7e2a0" style="stroke:#000000;stroke-width:0.5;"/>
      </defs>
      <g>
       <use style="stroke:#000000;stroke-width:0.5;" x="72.4579000026" xlink:href="#m5284c7e2a0" y="12.9235303218"/>
      </g>
     </g>
    </g>
    <g id="xtick_6">
     <g id="line2d_50">
      <g>
       <use style="stroke:#000000;stroke-width:0.5;" x="82.4230036375" xlink:href="#m177f7580d0" y="358.523530322"/>
      </g>
     </g>
     <g id="line2d_51">
      <g>
       <use style="stroke:#000000;stroke-width:0.5;" x="82.4230036375" xlink:href="#m5284c7e2a0" y="12.9235303218"/>
      </g>
     </g>
    </g>
    <g id="xtick_7">
     <g id="line2d_52">
      <g>
       <use style="stroke:#000000;stroke-width:0.5;" x="91.0551690454" xlink:href="#m177f7580d0" y="358.523530322"/>
      </g>
     </g>
     <g id="line2d_53">
      <g>
       <use style="stroke:#000000;stroke-width:0.5;" x="91.0551690454" xlink:href="#m5284c7e2a0" y="12.9235303218"/>
      </g>
     </g>
    </g>
    <g id="xtick_8">
     <g id="line2d_54">
      <g>
       <use style="stroke:#000000;stroke-width:0.5;" x="98.6692785522" xlink:href="#m177f7580d0" y="358.523530322"/>
      </g>
     </g>
     <g id="line2d_55">
      <g>
       <use style="stroke:#000000;stroke-width:0.5;" x="98.6692785522" xlink:href="#m5284c7e2a0" y="12.9235303218"/>
      </g>
     </g>
    </g>
    <g id="xtick_9">
     <g id="line2d_56">
      <g>
       <use style="stroke:#000000;stroke-width:0.5;" x="150.288979192" xlink:href="#m177f7580d0" y="358.523530322"/>
      </g>
     </g>
     <g id="line2d_57">
      <g>
       <use style="stroke:#000000;stroke-width:0.5;" x="150.288979192" xlink:href="#m5284c7e2a0" y="12.9235303218"/>
      </g>
     </g>
    </g>
    <g id="xtick_10">
     <g id="line2d_58">
      <g>
       <use style="stroke:#000000;stroke-width:0.5;" x="176.500357741" xlink:href="#m177f7580d0" y="358.523530322"/>
      </g>
     </g>
     <g id="line2d_59">
      <g>
       <use style="stroke:#000000;stroke-width:0.5;" x="176.500357741" xlink:href="#m5284c7e2a0" y="12.9235303218"/>
      </g>
     </g>
    </g>
    <g id="xtick_11">
     <g id="line2d_60">
      <g>
       <use style="stroke:#000000;stroke-width:0.5;" x="195.097626784" xlink:href="#m177f7580d0" y="358.523530322"/>
      </g>
     </g>
     <g id="line2d_61">
      <g>
       <use style="stroke:#000000;stroke-width:0.5;" x="195.097626784" xlink:href="#m5284c7e2a0" y="12.9235303218"/>
      </g>
     </g>
    </g>
    <g id="xtick_12">
     <g id="line2d_62">
      <g>
       <use style="stroke:#000000;stroke-width:0.5;" x="209.522789338" xlink:href="#m177f7580d0" y="358.523530322"/>
      </g>
     </g>
     <g id="line2d_63">
      <g>
       <use style="stroke:#000000;stroke-width:0.5;" x="209.522789338" xlink:href="#m5284c7e2a0" y="12.9235303218"/>
      </g>
     </g>
    </g>
    <g id="xtick_13">
     <g id="line2d_64">
      <g>
       <use style="stroke:#000000;stroke-width:0.5;" x="221.309005334" xlink:href="#m177f7580d0" y="358.523530322"/>
      </g>
     </g>
     <g id="line2d_65">
      <g>
       <use style="stroke:#000000;stroke-width:0.5;" x="221.309005334" xlink:href="#m5284c7e2a0" y="12.9235303218"/>
      </g>
     </g>
    </g>
    <g id="xtick_14">
     <g id="line2d_66">
      <g>
       <use style="stroke:#000000;stroke-width:0.5;" x="231.274108969" xlink:href="#m177f7580d0" y="358.523530322"/>
      </g>
     </g>
     <g id="line2d_67">
      <g>
       <use style="stroke:#000000;stroke-width:0.5;" x="231.274108969" xlink:href="#m5284c7e2a0" y="12.9235303218"/>
      </g>
     </g>
    </g>
    <g id="xtick_15">
     <g id="line2d_68">
      <g>
       <use style="stroke:#000000;stroke-width:0.5;" x="239.906274376" xlink:href="#m177f7580d0" y="358.523530322"/>
      </g>
     </g>
     <g id="line2d_69">
      <g>
       <use style="stroke:#000000;stroke-width:0.5;" x="239.906274376" xlink:href="#m5284c7e2a0" y="12.9235303218"/>
      </g>
     </g>
    </g>
    <g id="xtick_16">
     <g id="line2d_70">
      <g>
       <use style="stroke:#000000;stroke-width:0.5;" x="247.520383883" xlink:href="#m177f7580d0" y="358.523530322"/>
      </g>
     </g>
     <g id="line2d_71">
      <g>
       <use style="stroke:#000000;stroke-width:0.5;" x="247.520383883" xlink:href="#m5284c7e2a0" y="12.9235303218"/>
      </g>
     </g>
    </g>
    <g id="xtick_17">
     <g id="line2d_72">
      <g>
       <use style="stroke:#000000;stroke-width:0.5;" x="299.140084523" xlink:href="#m177f7580d0" y="358.523530322"/>
      </g>
     </g>
     <g id="line2d_73">
      <g>
       <use style="stroke:#000000;stroke-width:0.5;" x="299.140084523" xlink:href="#m5284c7e2a0" y="12.9235303218"/>
      </g>
     </g>
    </g>
    <g id="xtick_18">
     <g id="line2d_74">
      <g>
       <use style="stroke:#000000;stroke-width:0.5;" x="325.351463072" xlink:href="#m177f7580d0" y="358.523530322"/>
      </g>
     </g>
     <g id="line2d_75">
      <g>
       <use style="stroke:#000000;stroke-width:0.5;" x="325.351463072" xlink:href="#m5284c7e2a0" y="12.9235303218"/>
      </g>
     </g>
    </g>
    <g id="xtick_19">
     <g id="line2d_76">
      <g>
       <use style="stroke:#000000;stroke-width:0.5;" x="343.948732115" xlink:href="#m177f7580d0" y="358.523530322"/>
      </g>
     </g>
     <g id="line2d_77">
      <g>
       <use style="stroke:#000000;stroke-width:0.5;" x="343.948732115" xlink:href="#m5284c7e2a0" y="12.9235303218"/>
      </g>
     </g>
    </g>
    <g id="xtick_20">
     <g id="line2d_78">
      <g>
       <use style="stroke:#000000;stroke-width:0.5;" x="358.373894669" xlink:href="#m177f7580d0" y="358.523530322"/>
      </g>
     </g>
     <g id="line2d_79">
      <g>
       <use style="stroke:#000000;stroke-width:0.5;" x="358.373894669" xlink:href="#m5284c7e2a0" y="12.9235303218"/>
      </g>
     </g>
    </g>
    <g id="xtick_21">
     <g id="line2d_80">
      <g>
       <use style="stroke:#000000;stroke-width:0.5;" x="370.160110665" xlink:href="#m177f7580d0" y="358.523530322"/>
      </g>
     </g>
     <g id="line2d_81">
      <g>
       <use style="stroke:#000000;stroke-width:0.5;" x="370.160110665" xlink:href="#m5284c7e2a0" y="12.9235303218"/>
      </g>
     </g>
    </g>
    <g id="xtick_22">
     <g id="line2d_82">
      <g>
       <use style="stroke:#000000;stroke-width:0.5;" x="380.1252143" xlink:href="#m177f7580d0" y="358.523530322"/>
      </g>
     </g>
     <g id="line2d_83">
      <g>
       <use style="stroke:#000000;stroke-width:0.5;" x="380.1252143" xlink:href="#m5284c7e2a0" y="12.9235303218"/>
      </g>
     </g>
    </g>
    <g id="xtick_23">
     <g id="line2d_84">
      <g>
       <use style="stroke:#000000;stroke-width:0.5;" x="388.757379707" xlink:href="#m177f7580d0" y="358.523530322"/>
      </g>
     </g>
     <g id="line2d_85">
      <g>
       <use style="stroke:#000000;stroke-width:0.5;" x="388.757379707" xlink:href="#m5284c7e2a0" y="12.9235303218"/>
      </g>
     </g>
    </g>
    <g id="xtick_24">
     <g id="line2d_86">
      <g>
       <use style="stroke:#000000;stroke-width:0.5;" x="396.371489214" xlink:href="#m177f7580d0" y="358.523530322"/>
      </g>
     </g>
     <g id="line2d_87">
      <g>
       <use style="stroke:#000000;stroke-width:0.5;" x="396.371489214" xlink:href="#m5284c7e2a0" y="12.9235303218"/>
      </g>
     </g>
    </g>
    <g id="xtick_25">
     <g id="line2d_88">
      <g>
       <use style="stroke:#000000;stroke-width:0.5;" x="447.991189854" xlink:href="#m177f7580d0" y="358.523530322"/>
      </g>
     </g>
     <g id="line2d_89">
      <g>
       <use style="stroke:#000000;stroke-width:0.5;" x="447.991189854" xlink:href="#m5284c7e2a0" y="12.9235303218"/>
      </g>
     </g>
    </g>
    <g id="xtick_26">
     <g id="line2d_90">
      <g>
       <use style="stroke:#000000;stroke-width:0.5;" x="474.202568403" xlink:href="#m177f7580d0" y="358.523530322"/>
      </g>
     </g>
     <g id="line2d_91">
      <g>
       <use style="stroke:#000000;stroke-width:0.5;" x="474.202568403" xlink:href="#m5284c7e2a0" y="12.9235303218"/>
      </g>
     </g>
    </g>
    <g id="xtick_27">
     <g id="line2d_92">
      <g>
       <use style="stroke:#000000;stroke-width:0.5;" x="492.799837446" xlink:href="#m177f7580d0" y="358.523530322"/>
      </g>
     </g>
     <g id="line2d_93">
      <g>
       <use style="stroke:#000000;stroke-width:0.5;" x="492.799837446" xlink:href="#m5284c7e2a0" y="12.9235303218"/>
      </g>
     </g>
    </g>
    <g id="xtick_28">
     <g id="line2d_94">
      <g>
       <use style="stroke:#000000;stroke-width:0.5;" x="507.225" xlink:href="#m177f7580d0" y="358.523530322"/>
      </g>
     </g>
     <g id="line2d_95">
      <g>
       <use style="stroke:#000000;stroke-width:0.5;" x="507.225" xlink:href="#m5284c7e2a0" y="12.9235303218"/>
      </g>
     </g>
    </g>
    <g id="text_4">
     <!-- log10 of FEvals / DIM -->
     <defs>
      <path d="
M9.32812 0
L9.32812 71.5781
L18.7969 71.5781
L18.7969 0
z
" id="ArialMT-49"/>
      <path d="
M40.4375 6.39062
Q35.5469 2.25 31.0312 0.53125
Q26.5156 -1.17188 21.3438 -1.17188
Q12.7969 -1.17188 8.20312 3
Q3.60938 7.17188 3.60938 13.6719
Q3.60938 17.4844 5.34375 20.625
Q7.07812 23.7812 9.89062 25.6875
Q12.7031 27.5938 16.2188 28.5625
Q18.7969 29.25 24.0312 29.8906
Q34.6719 31.1562 39.7031 32.9062
Q39.75 34.7188 39.75 35.2031
Q39.75 40.5781 37.25 42.7812
Q33.8906 45.75 27.25 45.75
Q21.0469 45.75 18.0938 43.5781
Q15.1406 41.4062 13.7188 35.8906
L5.125 37.0625
Q6.29688 42.5781 8.98438 45.9688
Q11.6719 49.3594 16.75 51.1875
Q21.8281 53.0312 28.5156 53.0312
Q35.1562 53.0312 39.2969 51.4688
Q43.4531 49.9062 45.4062 47.5312
Q47.3594 45.1719 48.1406 41.5469
Q48.5781 39.3125 48.5781 33.4531
L48.5781 21.7344
Q48.5781 9.46875 49.1406 6.21875
Q49.7031 2.98438 51.375 0
L42.1875 0
Q40.8281 2.73438 40.4375 6.39062
M39.7031 26.0312
Q34.9062 24.0781 25.3438 22.7031
Q19.9219 21.9219 17.6719 20.9375
Q15.4375 19.9688 14.2031 18.0938
Q12.9844 16.2188 12.9844 13.9219
Q12.9844 10.4062 15.6406 8.0625
Q18.3125 5.71875 23.4375 5.71875
Q28.5156 5.71875 32.4688 7.9375
Q36.4219 10.1562 38.2812 14.0156
Q39.7031 17 39.7031 22.7969
z
" id="ArialMT-61"/>
      <path d="
M4.98438 -4.29688
L13.5312 -5.5625
Q14.0625 -9.51562 16.5 -11.3281
Q19.7812 -13.7656 25.4375 -13.7656
Q31.5469 -13.7656 34.8594 -11.3281
Q38.1875 -8.89062 39.3594 -4.5
Q40.0469 -1.8125 39.9844 6.78125
Q34.2344 0 25.6406 0
Q14.9375 0 9.07812 7.71875
Q3.21875 15.4375 3.21875 26.2188
Q3.21875 33.6406 5.90625 39.9062
Q8.59375 46.1875 13.6875 49.6094
Q18.7969 53.0312 25.6875 53.0312
Q34.8594 53.0312 40.8281 45.6094
L40.8281 51.8594
L48.9219 51.8594
L48.9219 7.03125
Q48.9219 -5.07812 46.4531 -10.125
Q44 -15.1875 38.6406 -18.1094
Q33.2969 -21.0469 25.4844 -21.0469
Q16.2188 -21.0469 10.5 -16.875
Q4.78125 -12.7031 4.98438 -4.29688
M12.25 26.8594
Q12.25 16.6562 16.2969 11.9688
Q20.3594 7.28125 26.4688 7.28125
Q32.5156 7.28125 36.6094 11.9375
Q40.7188 16.6094 40.7188 26.5625
Q40.7188 36.0781 36.5 40.9062
Q32.2812 45.75 26.3125 45.75
Q20.4531 45.75 16.3438 40.9844
Q12.25 36.2344 12.25 26.8594" id="ArialMT-67"/>
      <path d="
M8.6875 0
L8.6875 45.0156
L0.921875 45.0156
L0.921875 51.8594
L8.6875 51.8594
L8.6875 57.375
Q8.6875 62.5938 9.625 65.1406
Q10.8906 68.5625 14.0781 70.6719
Q17.2812 72.7969 23.0469 72.7969
Q26.7656 72.7969 31.25 71.9219
L29.9375 64.2656
Q27.2031 64.75 24.75 64.75
Q20.75 64.75 19.0938 63.0312
Q17.4375 61.3281 17.4375 56.6406
L17.4375 51.8594
L27.5469 51.8594
L27.5469 45.0156
L17.4375 45.0156
L17.4375 0
z
" id="ArialMT-66"/>
      <path d="
M0 -1.21875
L20.75 72.7969
L27.7812 72.7969
L7.07812 -1.21875
z
" id="ArialMT-2f"/>
      <path d="
M21 0
L1.26562 51.8594
L10.5469 51.8594
L21.6875 20.7969
Q23.4844 15.7656 25 10.3594
Q26.1719 14.4531 28.2656 20.2188
L39.7969 51.8594
L48.8281 51.8594
L29.2031 0
z
" id="ArialMT-76"/>
      <path d="
M7.90625 0
L7.90625 71.5781
L59.6719 71.5781
L59.6719 63.1406
L17.3906 63.1406
L17.3906 41.2188
L56.9844 41.2188
L56.9844 32.8125
L17.3906 32.8125
L17.3906 8.45312
L61.3281 8.45312
L61.3281 0
z
" id="ArialMT-45"/>
      <path d="
M7.71875 0
L7.71875 71.5781
L32.375 71.5781
Q40.7188 71.5781 45.125 70.5625
Q51.2656 69.1406 55.6094 65.4375
Q61.2812 60.6406 64.0781 53.1875
Q66.8906 45.75 66.8906 36.1875
Q66.8906 28.0312 64.9844 21.7344
Q63.0938 15.4375 60.1094 11.2969
Q57.125 7.17188 53.5781 4.79688
Q50.0469 2.4375 45.0469 1.21875
Q40.0469 0 33.5469 0
z

M17.1875 8.45312
L32.4688 8.45312
Q39.5469 8.45312 43.5781 9.76562
Q47.6094 11.0781 50 13.4844
Q53.375 16.8438 55.25 22.5312
Q57.125 28.2188 57.125 36.3281
Q57.125 47.5625 53.4375 53.5938
Q49.75 59.625 44.4844 61.6719
Q40.6719 63.1406 32.2344 63.1406
L17.1875 63.1406
z
" id="ArialMT-44"/>
      <path d="
M8.20312 0
L8.20312 71.5781
L56.5 71.5781
L56.5 63.1406
L17.6719 63.1406
L17.6719 40.9688
L51.2656 40.9688
L51.2656 32.5156
L17.6719 32.5156
L17.6719 0
z
" id="ArialMT-46"/>
      <path d="
M6.39062 0
L6.39062 71.5781
L15.1875 71.5781
L15.1875 0
z
" id="ArialMT-6c"/>
      <path d="
M3.32812 25.9219
Q3.32812 40.3281 11.3281 47.2656
Q18.0156 53.0312 27.6406 53.0312
Q38.3281 53.0312 45.1094 46.0156
Q51.9062 39.0156 51.9062 26.6562
Q51.9062 16.6562 48.9062 10.9062
Q45.9062 5.17188 40.1562 2
Q34.4219 -1.17188 27.6406 -1.17188
Q16.75 -1.17188 10.0312 5.8125
Q3.32812 12.7969 3.32812 25.9219
M12.3594 25.9219
Q12.3594 15.9688 16.7031 11.0156
Q21.0469 6.0625 27.6406 6.0625
Q34.1875 6.0625 38.5312 11.0312
Q42.875 16.0156 42.875 26.2188
Q42.875 35.8438 38.5 40.7969
Q34.125 45.75 27.6406 45.75
Q21.0469 45.75 16.7031 40.8125
Q12.3594 35.8906 12.3594 25.9219" id="ArialMT-6f"/>
      <path d="
M3.07812 15.4844
L11.7656 16.8438
Q12.5 11.625 15.8438 8.84375
Q19.1875 6.0625 25.2031 6.0625
Q31.25 6.0625 34.1719 8.51562
Q37.1094 10.9844 37.1094 14.3125
Q37.1094 17.2812 34.5156 19
Q32.7188 20.1719 25.5312 21.9688
Q15.875 24.4219 12.1406 26.2031
Q8.40625 27.9844 6.46875 31.125
Q4.54688 34.2812 4.54688 38.0938
Q4.54688 41.5469 6.125 44.5
Q7.71875 47.4688 10.4531 49.4219
Q12.5 50.9219 16.0312 51.9688
Q19.5781 53.0312 23.6406 53.0312
Q29.7344 53.0312 34.3438 51.2656
Q38.9688 49.5156 41.1562 46.5
Q43.3594 43.5 44.1875 38.4844
L35.5938 37.3125
Q35.0156 41.3125 32.2031 43.5469
Q29.3906 45.7969 24.2656 45.7969
Q18.2188 45.7969 15.625 43.7969
Q13.0312 41.7969 13.0312 39.1094
Q13.0312 37.4062 14.1094 36.0312
Q15.1875 34.625 17.4844 33.6875
Q18.7969 33.2031 25.25 31.4531
Q34.5781 28.9531 38.25 27.3594
Q41.9375 25.7812 44.0312 22.75
Q46.1406 19.7344 46.1406 15.2344
Q46.1406 10.8438 43.5781 6.95312
Q41.0156 3.07812 36.1719 0.953125
Q31.3438 -1.17188 25.25 -1.17188
Q15.1406 -1.17188 9.84375 3.03125
Q4.54688 7.23438 3.07812 15.4844" id="ArialMT-73"/>
      <path d="
M7.42188 0
L7.42188 71.5781
L21.6875 71.5781
L38.625 20.9062
Q40.9688 13.8125 42.0469 10.2969
Q43.2656 14.2031 45.8438 21.7812
L62.9844 71.5781
L75.7344 71.5781
L75.7344 0
L66.6094 0
L66.6094 59.9062
L45.7969 0
L37.25 0
L16.5469 60.9375
L16.5469 0
z
" id="ArialMT-4d"/>
      <path id="ArialMT-20"/>
     </defs>
     <g transform="translate(189.1953125 400.373530322)scale(0.2 -0.2)">
      <use xlink:href="#ArialMT-6c"/>
      <use x="22.216796875" xlink:href="#ArialMT-6f"/>
      <use x="77.83203125" xlink:href="#ArialMT-67"/>
      <use x="133.447265625" xlink:href="#ArialMT-31"/>
      <use x="189.0625" xlink:href="#ArialMT-30"/>
      <use x="244.677734375" xlink:href="#ArialMT-20"/>
      <use x="272.4609375" xlink:href="#ArialMT-6f"/>
      <use x="328.076171875" xlink:href="#ArialMT-66"/>
      <use x="355.859375" xlink:href="#ArialMT-20"/>
      <use x="383.642578125" xlink:href="#ArialMT-46"/>
      <use x="444.7265625" xlink:href="#ArialMT-45"/>
      <use x="511.42578125" xlink:href="#ArialMT-76"/>
      <use x="561.42578125" xlink:href="#ArialMT-61"/>
      <use x="617.041015625" xlink:href="#ArialMT-6c"/>
      <use x="639.2578125" xlink:href="#ArialMT-73"/>
      <use x="689.2578125" xlink:href="#ArialMT-20"/>
      <use x="717.041015625" xlink:href="#ArialMT-2f"/>
      <use x="744.82421875" xlink:href="#ArialMT-20"/>
      <use x="772.607421875" xlink:href="#ArialMT-44"/>
      <use x="844.82421875" xlink:href="#ArialMT-49"/>
      <use x="872.607421875" xlink:href="#ArialMT-4d"/>
     </g>
    </g>
   </g>
   <g id="matplotlib.axis_2">
    <g id="ytick_1">
     <g id="line2d_96">
      <path clip-path="url(#p0ab5e1e507)" d="
M60.825 358.524
L507.225 358.524" style="fill:none;stroke:#000000;stroke-dasharray:1.000000,3.000000;stroke-dashoffset:0.0;stroke-width:0.5;"/>
     </g>
     <g id="line2d_97">
      <defs>
       <path d="
M0 0
L4 0" id="m728421d6d4" style="stroke:#000000;stroke-width:0.5;"/>
      </defs>
      <g>
       <use style="stroke:#000000;stroke-width:0.5;" x="60.825" xlink:href="#m728421d6d4" y="358.523530322"/>
      </g>
     </g>
     <g id="line2d_98">
      <defs>
       <path d="
M0 0
L-4 0" id="mcb0005524f" style="stroke:#000000;stroke-width:0.5;"/>
      </defs>
      <g>
       <use style="stroke:#000000;stroke-width:0.5;" x="507.225" xlink:href="#mcb0005524f" y="358.523530322"/>
      </g>
     </g>
     <g id="text_5">
      <!-- 0.0 -->
      <defs>
       <path d="
M9.07812 0
L9.07812 10.0156
L19.0938 10.0156
L19.0938 0
z
" id="ArialMT-2e"/>
      </defs>
      <g transform="translate(30.8125 363.693842822)scale(0.2 -0.2)">
       <use xlink:href="#ArialMT-30"/>
       <use x="55.615234375" xlink:href="#ArialMT-2e"/>
       <use x="83.3984375" xlink:href="#ArialMT-30"/>
      </g>
     </g>
    </g>
    <g id="ytick_2">
     <g id="line2d_99">
      <path clip-path="url(#p0ab5e1e507)" d="
M60.825 290.088
L507.225 290.088" style="fill:none;stroke:#000000;stroke-dasharray:1.000000,3.000000;stroke-dashoffset:0.0;stroke-width:0.5;"/>
     </g>
     <g id="line2d_100">
      <g>
       <use style="stroke:#000000;stroke-width:0.5;" x="60.825" xlink:href="#m728421d6d4" y="290.087886757"/>
      </g>
     </g>
     <g id="line2d_101">
      <g>
       <use style="stroke:#000000;stroke-width:0.5;" x="507.225" xlink:href="#mcb0005524f" y="290.087886757"/>
      </g>
     </g>
     <g id="text_6">
      <!-- 0.2 -->
      <g transform="translate(30.909375 295.258199257)scale(0.2 -0.2)">
       <use xlink:href="#ArialMT-30"/>
       <use x="55.615234375" xlink:href="#ArialMT-2e"/>
       <use x="83.3984375" xlink:href="#ArialMT-32"/>
      </g>
     </g>
    </g>
    <g id="ytick_3">
     <g id="line2d_102">
      <path clip-path="url(#p0ab5e1e507)" d="
M60.825 221.652
L507.225 221.652" style="fill:none;stroke:#000000;stroke-dasharray:1.000000,3.000000;stroke-dashoffset:0.0;stroke-width:0.5;"/>
     </g>
     <g id="line2d_103">
      <g>
       <use style="stroke:#000000;stroke-width:0.5;" x="60.825" xlink:href="#m728421d6d4" y="221.652243193"/>
      </g>
     </g>
     <g id="line2d_104">
      <g>
       <use style="stroke:#000000;stroke-width:0.5;" x="507.225" xlink:href="#mcb0005524f" y="221.652243193"/>
      </g>
     </g>
     <g id="text_7">
      <!-- 0.4 -->
      <defs>
       <path d="
M32.3281 0
L32.3281 17.1406
L1.26562 17.1406
L1.26562 25.2031
L33.9375 71.5781
L41.1094 71.5781
L41.1094 25.2031
L50.7812 25.2031
L50.7812 17.1406
L41.1094 17.1406
L41.1094 0
z

M32.3281 25.2031
L32.3281 57.4688
L9.90625 25.2031
z
" id="ArialMT-34"/>
      </defs>
      <g transform="translate(30.821875 226.822555693)scale(0.2 -0.2)">
       <use xlink:href="#ArialMT-30"/>
       <use x="55.615234375" xlink:href="#ArialMT-2e"/>
       <use x="83.3984375" xlink:href="#ArialMT-34"/>
      </g>
     </g>
    </g>
    <g id="ytick_4">
     <g id="line2d_105">
      <path clip-path="url(#p0ab5e1e507)" d="
M60.825 153.217
L507.225 153.217" style="fill:none;stroke:#000000;stroke-dasharray:1.000000,3.000000;stroke-dashoffset:0.0;stroke-width:0.5;"/>
     </g>
     <g id="line2d_106">
      <g>
       <use style="stroke:#000000;stroke-width:0.5;" x="60.825" xlink:href="#m728421d6d4" y="153.216599629"/>
      </g>
     </g>
     <g id="line2d_107">
      <g>
       <use style="stroke:#000000;stroke-width:0.5;" x="507.225" xlink:href="#mcb0005524f" y="153.216599629"/>
      </g>
     </g>
     <g id="text_8">
      <!-- 0.6 -->
      <defs>
       <path d="
M49.75 54.0469
L41.0156 53.375
Q39.8438 58.5469 37.7031 60.8906
Q34.125 64.6562 28.9062 64.6562
Q24.7031 64.6562 21.5312 62.3125
Q17.3906 59.2812 14.9844 53.4688
Q12.5938 47.6562 12.5 36.9219
Q15.6719 41.75 20.2656 44.0938
Q24.8594 46.4375 29.8906 46.4375
Q38.6719 46.4375 44.8438 39.9688
Q51.0312 33.5 51.0312 23.25
Q51.0312 16.5 48.125 10.7188
Q45.2188 4.9375 40.1406 1.85938
Q35.0625 -1.21875 28.6094 -1.21875
Q17.625 -1.21875 10.6875 6.85938
Q3.76562 14.9375 3.76562 33.5
Q3.76562 54.25 11.4219 63.6719
Q18.1094 71.875 29.4375 71.875
Q37.8906 71.875 43.2812 67.1406
Q48.6875 62.4062 49.75 54.0469
M13.875 23.1875
Q13.875 18.6562 15.7969 14.5
Q17.7188 10.3594 21.1875 8.17188
Q24.6562 6 28.4688 6
Q34.0312 6 38.0312 10.4844
Q42.0469 14.9844 42.0469 22.7031
Q42.0469 30.125 38.0781 34.3906
Q34.125 38.6719 28.125 38.6719
Q22.1719 38.6719 18.0156 34.3906
Q13.875 30.125 13.875 23.1875" id="ArialMT-36"/>
      </defs>
      <g transform="translate(30.771875 158.386912129)scale(0.2 -0.2)">
       <use xlink:href="#ArialMT-30"/>
       <use x="55.615234375" xlink:href="#ArialMT-2e"/>
       <use x="83.3984375" xlink:href="#ArialMT-36"/>
      </g>
     </g>
    </g>
    <g id="ytick_5">
     <g id="line2d_108">
      <path clip-path="url(#p0ab5e1e507)" d="
M60.825 84.781
L507.225 84.781" style="fill:none;stroke:#000000;stroke-dasharray:1.000000,3.000000;stroke-dashoffset:0.0;stroke-width:0.5;"/>
     </g>
     <g id="line2d_109">
      <g>
       <use style="stroke:#000000;stroke-width:0.5;" x="60.825" xlink:href="#m728421d6d4" y="84.7809560644"/>
      </g>
     </g>
     <g id="line2d_110">
      <g>
       <use style="stroke:#000000;stroke-width:0.5;" x="507.225" xlink:href="#mcb0005524f" y="84.7809560644"/>
      </g>
     </g>
     <g id="text_9">
      <!-- 0.8 -->
      <defs>
       <path d="
M17.6719 38.8125
Q12.2031 40.8281 9.5625 44.5312
Q6.9375 48.25 6.9375 53.4219
Q6.9375 61.2344 12.5469 66.5469
Q18.1719 71.875 27.4844 71.875
Q36.8594 71.875 42.5781 66.4219
Q48.2969 60.9844 48.2969 53.1719
Q48.2969 48.1875 45.6719 44.5
Q43.0625 40.8281 37.75 38.8125
Q44.3438 36.6719 47.7812 31.875
Q51.2188 27.0938 51.2188 20.4531
Q51.2188 11.2812 44.7188 5.03125
Q38.2344 -1.21875 27.6406 -1.21875
Q17.0469 -1.21875 10.5469 5.04688
Q4.04688 11.3281 4.04688 20.7031
Q4.04688 27.6875 7.59375 32.3906
Q11.1406 37.1094 17.6719 38.8125
M15.9219 53.7188
Q15.9219 48.6406 19.1875 45.4062
Q22.4688 42.1875 27.6875 42.1875
Q32.7656 42.1875 36.0156 45.375
Q39.2656 48.5781 39.2656 53.2188
Q39.2656 58.0625 35.9062 61.3594
Q32.5625 64.6562 27.5938 64.6562
Q22.5625 64.6562 19.2344 61.4219
Q15.9219 58.2031 15.9219 53.7188
M13.0938 20.6562
Q13.0938 16.8906 14.875 13.375
Q16.6562 9.85938 20.1719 7.92188
Q23.6875 6 27.7344 6
Q34.0312 6 38.125 10.0469
Q42.2344 14.1094 42.2344 20.3594
Q42.2344 26.7031 38.0156 30.8594
Q33.7969 35.0156 27.4375 35.0156
Q21.2344 35.0156 17.1562 30.9062
Q13.0938 26.8125 13.0938 20.6562" id="ArialMT-38"/>
      </defs>
      <g transform="translate(30.734375 89.9512685644)scale(0.2 -0.2)">
       <use xlink:href="#ArialMT-30"/>
       <use x="55.615234375" xlink:href="#ArialMT-2e"/>
       <use x="83.3984375" xlink:href="#ArialMT-38"/>
      </g>
     </g>
    </g>
    <g id="ytick_6">
     <g id="line2d_111">
      <path clip-path="url(#p0ab5e1e507)" d="
M60.825 16.3453
L507.225 16.3453" style="fill:none;stroke:#000000;stroke-dasharray:1.000000,3.000000;stroke-dashoffset:0.0;stroke-width:0.5;"/>
     </g>
     <g id="line2d_112">
      <g>
       <use style="stroke:#000000;stroke-width:0.5;" x="60.825" xlink:href="#m728421d6d4" y="16.3453125"/>
      </g>
     </g>
     <g id="line2d_113">
      <g>
       <use style="stroke:#000000;stroke-width:0.5;" x="507.225" xlink:href="#mcb0005524f" y="16.3453125"/>
      </g>
     </g>
     <g id="text_10">
      <!-- 1.0 -->
      <g transform="translate(32.159375 21.515625)scale(0.2 -0.2)">
       <use xlink:href="#ArialMT-31"/>
       <use x="55.615234375" xlink:href="#ArialMT-2e"/>
       <use x="83.3984375" xlink:href="#ArialMT-30"/>
      </g>
     </g>
    </g>
    <g id="text_11">
     <!-- proportion of trials -->
     <defs>
      <path d="
M25.7812 7.85938
L27.0469 0.09375
Q23.3438 -0.6875 20.4062 -0.6875
Q15.625 -0.6875 12.9844 0.828125
Q10.3594 2.34375 9.28125 4.8125
Q8.20312 7.28125 8.20312 15.1875
L8.20312 45.0156
L1.76562 45.0156
L1.76562 51.8594
L8.20312 51.8594
L8.20312 64.7031
L16.9375 69.9688
L16.9375 51.8594
L25.7812 51.8594
L25.7812 45.0156
L16.9375 45.0156
L16.9375 14.7031
Q16.9375 10.9375 17.4062 9.85938
Q17.875 8.79688 18.9219 8.15625
Q19.9688 7.51562 21.9219 7.51562
Q23.3906 7.51562 25.7812 7.85938" id="ArialMT-74"/>
      <path d="
M6.64062 61.4688
L6.64062 71.5781
L15.4375 71.5781
L15.4375 61.4688
z

M6.64062 0
L6.64062 51.8594
L15.4375 51.8594
L15.4375 0
z
" id="ArialMT-69"/>
      <path d="
M6.59375 -19.875
L6.59375 51.8594
L14.5938 51.8594
L14.5938 45.125
Q17.4375 49.0781 21 51.0469
Q24.5625 53.0312 29.6406 53.0312
Q36.2812 53.0312 41.3594 49.6094
Q46.4375 46.1875 49.0156 39.9531
Q51.6094 33.7344 51.6094 26.3125
Q51.6094 18.3594 48.75 11.9844
Q45.9062 5.60938 40.4531 2.21875
Q35.0156 -1.17188 29 -1.17188
Q24.6094 -1.17188 21.1094 0.6875
Q17.625 2.54688 15.375 5.375
L15.375 -19.875
z

M14.5469 25.6406
Q14.5469 15.625 18.5938 10.8438
Q22.6562 6.0625 28.4219 6.0625
Q34.2812 6.0625 38.4531 11.0156
Q42.625 15.9688 42.625 26.375
Q42.625 36.2812 38.5469 41.2031
Q34.4688 46.1406 28.8125 46.1406
Q23.1875 46.1406 18.8594 40.8906
Q14.5469 35.6406 14.5469 25.6406" id="ArialMT-70"/>
      <path d="
M6.59375 0
L6.59375 51.8594
L14.5 51.8594
L14.5 44.4844
Q20.2188 53.0312 31 53.0312
Q35.6875 53.0312 39.625 51.3438
Q43.5625 49.6562 45.5156 46.9219
Q47.4688 44.1875 48.25 40.4375
Q48.7344 37.9844 48.7344 31.8906
L48.7344 0
L39.9375 0
L39.9375 31.5469
Q39.9375 36.9219 38.9062 39.5781
Q37.8906 42.2344 35.2812 43.8125
Q32.6719 45.4062 29.1562 45.4062
Q23.5312 45.4062 19.4531 41.8438
Q15.375 38.2812 15.375 28.3281
L15.375 0
z
" id="ArialMT-6e"/>
      <path d="
M6.5 0
L6.5 51.8594
L14.4062 51.8594
L14.4062 44
Q17.4375 49.5156 20 51.2656
Q22.5625 53.0312 25.6406 53.0312
Q30.0781 53.0312 34.6719 50.2031
L31.6406 42.0469
Q28.4219 43.9531 25.2031 43.9531
Q22.3125 43.9531 20.0156 42.2188
Q17.7188 40.4844 16.75 37.4062
Q15.2812 32.7188 15.2812 27.1562
L15.2812 0
z
" id="ArialMT-72"/>
     </defs>
     <g transform="translate(21.759375 265.370405322)rotate(-90.0)scale(0.2 -0.2)">
      <use xlink:href="#ArialMT-70"/>
      <use x="55.615234375" xlink:href="#ArialMT-72"/>
      <use x="88.916015625" xlink:href="#ArialMT-6f"/>
      <use x="144.53125" xlink:href="#ArialMT-70"/>
      <use x="200.146484375" xlink:href="#ArialMT-6f"/>
      <use x="255.76171875" xlink:href="#ArialMT-72"/>
      <use x="289.0625" xlink:href="#ArialMT-74"/>
      <use x="316.845703125" xlink:href="#ArialMT-69"/>
      <use x="339.0625" xlink:href="#ArialMT-6f"/>
      <use x="394.677734375" xlink:href="#ArialMT-6e"/>
      <use x="450.29296875" xlink:href="#ArialMT-20"/>
      <use x="478.076171875" xlink:href="#ArialMT-6f"/>
      <use x="533.69140625" xlink:href="#ArialMT-66"/>
      <use x="561.474609375" xlink:href="#ArialMT-20"/>
      <use x="589.2578125" xlink:href="#ArialMT-74"/>
      <use x="617.041015625" xlink:href="#ArialMT-72"/>
      <use x="650.341796875" xlink:href="#ArialMT-69"/>
      <use x="672.55859375" xlink:href="#ArialMT-61"/>
      <use x="728.173828125" xlink:href="#ArialMT-6c"/>
      <use x="750.390625" xlink:href="#ArialMT-73"/>
     </g>
    </g>
   </g>
   <g id="patch_3">
    <path d="
M60.825 12.9235
L507.225 12.9235" style="fill:none;stroke:#000000;"/>
   </g>
   <g id="patch_4">
    <path d="
M507.225 358.524
L507.225 12.9235" style="fill:none;stroke:#000000;"/>
   </g>
   <g id="patch_5">
    <path d="
M60.825 358.524
L507.225 358.524" style="fill:none;stroke:#000000;"/>
   </g>
   <g id="patch_6">
    <path d="
M60.825 358.524
L60.825 12.9235" style="fill:none;stroke:#000000;"/>
   </g>
   <g id="text_12">
    <!-- {f1-f5}, 5-D -->
    <defs>
     <path d="
M30.5625 29.8906
L30.5625 21.9219
Q26.8125 21.8281 24.4375 19.875
Q22.0781 17.9219 21.2969 14.5781
Q20.5156 11.2344 20.4531 3.07812
Q20.4062 -5.07812 20.1719 -7.67188
Q19.7344 -11.8125 18.5312 -14.2812
Q17.3281 -16.75 15.5625 -18.2344
Q13.8125 -19.7344 11.0781 -20.5156
Q9.23438 -21.0469 5.03125 -21.0469
L2.29688 -21.0469
L2.29688 -13.375
L3.8125 -13.375
Q8.89062 -13.375 10.5469 -11.5469
Q12.2031 -9.71875 12.2031 -3.32812
Q12.2031 8.89062 12.6406 12.1562
Q13.4219 17.5781 15.7656 20.8281
Q18.1094 24.0781 22.4062 25.875
Q16.7969 28.5625 14.5 32.9844
Q12.2031 37.4062 12.2031 47.9062
Q12.2031 57.4219 11.9688 59.2812
Q11.625 62.5469 10.0312 63.8438
Q8.45312 65.1406 3.8125 65.1406
L2.29688 65.1406
L2.29688 72.7969
L5.03125 72.7969
Q9.8125 72.7969 11.9688 72.0156
Q15.0938 70.9531 17.1406 68.4062
Q19.1875 65.875 19.7969 62.0156
Q20.4062 58.1562 20.4531 49.3594
Q20.5156 40.5781 21.2969 37.2344
Q22.0781 33.8906 24.4375 31.9375
Q26.8125 29.9844 30.5625 29.8906" id="ArialMT-7d"/>
     <path d="
M3.17188 21.4844
L3.17188 30.3281
L30.1719 30.3281
L30.1719 21.4844
z
" id="ArialMT-2d"/>
     <path d="
M8.89062 0
L8.89062 10.0156
L18.8906 10.0156
L18.8906 0
Q18.8906 -5.51562 16.9375 -8.90625
Q14.9844 -12.3125 10.75 -14.1562
L8.29688 -10.4062
Q11.0781 -9.1875 12.3906 -6.8125
Q13.7188 -4.4375 13.875 0
z
" id="ArialMT-2c"/>
     <path d="
M4.15625 18.75
L13.375 19.5312
Q14.4062 12.7969 18.1406 9.39062
Q21.875 6 27.1562 6
Q33.5 6 37.8906 10.7812
Q42.2812 15.5781 42.2812 23.4844
Q42.2812 31 38.0625 35.3438
Q33.8438 39.7031 27 39.7031
Q22.75 39.7031 19.3281 37.7656
Q15.9219 35.8438 13.9688 32.7656
L5.71875 33.8438
L12.6406 70.6094
L48.25 70.6094
L48.25 62.2031
L19.6719 62.2031
L15.8281 42.9688
Q22.2656 47.4688 29.3438 47.4688
Q38.7188 47.4688 45.1562 40.9688
Q51.6094 34.4688 51.6094 24.2656
Q51.6094 14.5469 45.9531 7.46875
Q39.0625 -1.21875 27.1562 -1.21875
Q17.3906 -1.21875 11.2031 4.25
Q5.03125 9.71875 4.15625 18.75" id="ArialMT-35"/>
     <path d="
M2.78125 29.8906
Q6.54688 29.9844 8.90625 31.9062
Q11.2812 33.8438 12.0625 37.2031
Q12.8438 40.5781 12.8906 48.7344
Q12.9375 56.8906 13.1875 59.4688
Q13.625 63.5781 14.8125 66.0625
Q16.0156 68.5625 17.7656 70.0469
Q19.5312 71.5312 22.2656 72.3125
Q24.125 72.7969 28.3281 72.7969
L31.0625 72.7969
L31.0625 65.1406
L29.5469 65.1406
Q24.4688 65.1406 22.7969 63.2969
Q21.1406 61.4688 21.1406 55.125
Q21.1406 42.3281 20.6094 38.9688
Q19.7344 33.7344 17.6094 30.9062
Q15.4844 28.0781 10.9375 25.875
Q16.3125 23.6406 18.7188 19.0156
Q21.1406 14.4062 21.1406 3.90625
Q21.1406 -5.60938 21.3438 -7.42188
Q21.7344 -10.75 23.3125 -12.0625
Q24.9062 -13.375 29.5469 -13.375
L31.0625 -13.375
L31.0625 -21.0469
L28.3281 -21.0469
Q23.5312 -21.0469 21.3906 -20.2656
Q18.2656 -19.1406 16.2031 -16.625
Q14.1562 -14.1094 13.5469 -10.25
Q12.9375 -6.39062 12.8906 2.39062
Q12.8438 11.1875 12.0625 14.5469
Q11.2812 17.9219 8.90625 19.875
Q6.54688 21.8281 2.78125 21.9219
z
" id="ArialMT-7b"/>
    </defs>
    <g transform="translate(236.2 34.3949053218)scale(0.2 -0.2)">
     <use xlink:href="#ArialMT-7b"/>
     <use x="33.3984375" xlink:href="#ArialMT-66"/>
     <use x="61.181640625" xlink:href="#ArialMT-31"/>
     <use x="116.796875" xlink:href="#ArialMT-2d"/>
     <use x="150.09765625" xlink:href="#ArialMT-66"/>
     <use x="177.880859375" xlink:href="#ArialMT-35"/>
     <use x="233.49609375" xlink:href="#ArialMT-7d"/>
     <use x="266.89453125" xlink:href="#ArialMT-2c"/>
     <use x="294.677734375" xlink:href="#ArialMT-20"/>
     <use x="322.4609375" xlink:href="#ArialMT-35"/>
     <use x="378.076171875" xlink:href="#ArialMT-2d"/>
     <use x="411.376953125" xlink:href="#ArialMT-44"/>
    </g>
   </g>
   <g id="text_13">
    <!-- reference budgets from refalgs/best2009-bbob.tar.gz -->
    <defs>
     <path d="
M40.4375 19
L49.0781 17.875
Q47.6562 8.9375 41.8125 3.875
Q35.9844 -1.17188 27.4844 -1.17188
Q16.8438 -1.17188 10.375 5.78125
Q3.90625 12.75 3.90625 25.7344
Q3.90625 34.125 6.6875 40.4219
Q9.46875 46.7344 15.1562 49.875
Q20.8438 53.0312 27.5469 53.0312
Q35.9844 53.0312 41.3594 48.75
Q46.7344 44.4844 48.25 36.625
L39.7031 35.2969
Q38.4844 40.5312 35.375 43.1562
Q32.2812 45.7969 27.875 45.7969
Q21.2344 45.7969 17.0781 41.0312
Q12.9375 36.2812 12.9375 25.9844
Q12.9375 15.5312 16.9375 10.7969
Q20.9531 6.0625 27.3906 6.0625
Q32.5625 6.0625 36.0312 9.23438
Q39.5 12.4062 40.4375 19" id="ArialMT-63"/>
     <path d="
M14.7031 0
L6.54688 0
L6.54688 71.5781
L15.3281 71.5781
L15.3281 46.0469
Q20.9062 53.0312 29.5469 53.0312
Q34.3281 53.0312 38.5938 51.0938
Q42.875 49.1719 45.625 45.6719
Q48.3906 42.1875 49.9531 37.25
Q51.5156 32.3281 51.5156 26.7031
Q51.5156 13.375 44.9219 6.09375
Q38.3281 -1.17188 29.1094 -1.17188
Q19.9219 -1.17188 14.7031 6.5
z

M14.5938 26.3125
Q14.5938 17 17.1406 12.8438
Q21.2969 6.0625 28.375 6.0625
Q34.125 6.0625 38.3281 11.0625
Q42.5312 16.0625 42.5312 25.9844
Q42.5312 36.1406 38.5 40.9688
Q34.4688 45.7969 28.7656 45.7969
Q23 45.7969 18.7969 40.7969
Q14.5938 35.7969 14.5938 26.3125" id="ArialMT-62"/>
     <path d="
M42.0938 16.7031
L51.1719 15.5781
Q49.0312 7.625 43.2188 3.21875
Q37.4062 -1.17188 28.375 -1.17188
Q17 -1.17188 10.3281 5.82812
Q3.65625 12.8438 3.65625 25.4844
Q3.65625 38.5781 10.3906 45.7969
Q17.1406 53.0312 27.875 53.0312
Q38.2812 53.0312 44.875 45.9531
Q51.4688 38.875 51.4688 26.0312
Q51.4688 25.25 51.4219 23.6875
L12.75 23.6875
Q13.2344 15.1406 17.5781 10.5938
Q21.9219 6.0625 28.4219 6.0625
Q33.25 6.0625 36.6719 8.59375
Q40.0938 11.1406 42.0938 16.7031
M13.2344 30.9062
L42.1875 30.9062
Q41.6094 37.4531 38.875 40.7188
Q34.6719 45.7969 27.9844 45.7969
Q21.9219 45.7969 17.7969 41.75
Q13.6719 37.7031 13.2344 30.9062" id="ArialMT-65"/>
     <path d="
M40.2344 0
L40.2344 6.54688
Q35.2969 -1.17188 25.7344 -1.17188
Q19.5312 -1.17188 14.3281 2.25
Q9.125 5.67188 6.26562 11.7969
Q3.42188 17.9219 3.42188 25.875
Q3.42188 33.6406 6 39.9688
Q8.59375 46.2969 13.7656 49.6562
Q18.9531 53.0312 25.3438 53.0312
Q30.0312 53.0312 33.6875 51.0469
Q37.3594 49.0781 39.6562 45.9062
L39.6562 71.5781
L48.3906 71.5781
L48.3906 0
z

M12.4531 25.875
Q12.4531 15.9219 16.6406 10.9844
Q20.8438 6.0625 26.5625 6.0625
Q32.3281 6.0625 36.3438 10.7656
Q40.375 15.4844 40.375 25.1406
Q40.375 35.7969 36.2656 40.7656
Q32.1719 45.75 26.1719 45.75
Q20.3125 45.75 16.375 40.9688
Q12.4531 36.1875 12.4531 25.875" id="ArialMT-64"/>
     <path d="
M40.5781 0
L40.5781 7.625
Q34.5156 -1.17188 24.125 -1.17188
Q19.5312 -1.17188 15.5469 0.578125
Q11.5781 2.34375 9.64062 5
Q7.71875 7.67188 6.9375 11.5312
Q6.39062 14.1094 6.39062 19.7344
L6.39062 51.8594
L15.1875 51.8594
L15.1875 23.0938
Q15.1875 16.2188 15.7188 13.8125
Q16.5469 10.3594 19.2344 8.375
Q21.9219 6.39062 25.875 6.39062
Q29.8281 6.39062 33.2969 8.42188
Q36.7656 10.4531 38.2031 13.9375
Q39.6562 17.4375 39.6562 24.0781
L39.6562 51.8594
L48.4375 51.8594
L48.4375 0
z
" id="ArialMT-75"/>
     <path d="
M5.46875 16.5469
L13.9219 17.3281
Q14.9844 11.375 18.0156 8.6875
Q21.0469 6 25.7812 6
Q29.8281 6 32.875 7.85938
Q35.9375 9.71875 37.8906 12.8125
Q39.8438 15.9219 41.1562 21.1875
Q42.4844 26.4688 42.4844 31.9375
Q42.4844 32.5156 42.4375 33.6875
Q39.7969 29.5 35.2344 26.875
Q30.6719 24.2656 25.3438 24.2656
Q16.4531 24.2656 10.2969 30.7031
Q4.15625 37.1562 4.15625 47.7031
Q4.15625 58.5938 10.5781 65.2344
Q17 71.875 26.6562 71.875
Q33.6406 71.875 39.4219 68.1094
Q45.2188 64.3594 48.2188 57.3906
Q51.2188 50.4375 51.2188 37.25
Q51.2188 23.5312 48.2344 15.4062
Q45.2656 7.28125 39.375 3.03125
Q33.5 -1.21875 25.5938 -1.21875
Q17.1875 -1.21875 11.8594 3.4375
Q6.54688 8.10938 5.46875 16.5469
M41.4531 48.1406
Q41.4531 55.7188 37.4219 60.1562
Q33.4062 64.5938 27.7344 64.5938
Q21.875 64.5938 17.5312 59.8125
Q13.1875 55.0312 13.1875 47.4062
Q13.1875 40.5781 17.3125 36.2969
Q21.4375 32.0312 27.4844 32.0312
Q33.5938 32.0312 37.5156 36.2969
Q41.4531 40.5781 41.4531 48.1406" id="ArialMT-39"/>
     <path d="
M6.59375 0
L6.59375 51.8594
L14.4531 51.8594
L14.4531 44.5781
Q16.8906 48.3906 20.9375 50.7031
Q25 53.0312 30.1719 53.0312
Q35.9375 53.0312 39.625 50.6406
Q43.3125 48.25 44.8281 43.9531
Q50.9844 53.0312 60.8438 53.0312
Q68.5625 53.0312 72.7031 48.75
Q76.8594 44.4844 76.8594 35.5938
L76.8594 0
L68.1094 0
L68.1094 32.6719
Q68.1094 37.9375 67.25 40.25
Q66.4062 42.5781 64.1562 43.9844
Q61.9219 45.4062 58.8906 45.4062
Q53.4219 45.4062 49.7969 41.7656
Q46.1875 38.1406 46.1875 30.125
L46.1875 0
L37.4062 0
L37.4062 33.6875
Q37.4062 39.5469 35.25 42.4688
Q33.1094 45.4062 28.2188 45.4062
Q24.5156 45.4062 21.3594 43.4531
Q18.2188 41.5 16.7969 37.7344
Q15.375 33.9844 15.375 26.9062
L15.375 0
z
" id="ArialMT-6d"/>
     <path d="
M1.95312 0
L1.95312 7.125
L34.9688 45.0156
Q29.3438 44.7344 25.0469 44.7344
L3.90625 44.7344
L3.90625 51.8594
L46.2969 51.8594
L46.2969 46.0469
L18.2188 13.1406
L12.7969 7.125
Q18.7031 7.5625 23.875 7.5625
L47.8594 7.5625
L47.8594 0
z
" id="ArialMT-7a"/>
    </defs>
    <g transform="translate(60.825 358.523530322)scale(0.14 -0.14)">
     <use xlink:href="#ArialMT-72"/>
     <use x="33.30078125" xlink:href="#ArialMT-65"/>
     <use x="88.916015625" xlink:href="#ArialMT-66"/>
     <use x="116.69921875" xlink:href="#ArialMT-65"/>
     <use x="172.314453125" xlink:href="#ArialMT-72"/>
     <use x="205.615234375" xlink:href="#ArialMT-65"/>
     <use x="261.23046875" xlink:href="#ArialMT-6e"/>
     <use x="316.845703125" xlink:href="#ArialMT-63"/>
     <use x="366.845703125" xlink:href="#ArialMT-65"/>
     <use x="422.4609375" xlink:href="#ArialMT-20"/>
     <use x="450.244140625" xlink:href="#ArialMT-62"/>
     <use x="505.859375" xlink:href="#ArialMT-75"/>
     <use x="561.474609375" xlink:href="#ArialMT-64"/>
     <use x="617.08984375" xlink:href="#ArialMT-67"/>
     <use x="672.705078125" xlink:href="#ArialMT-65"/>
     <use x="728.3203125" xlink:href="#ArialMT-74"/>
     <use x="756.103515625" xlink:href="#ArialMT-73"/>
     <use x="806.103515625" xlink:href="#ArialMT-20"/>
     <use x="833.88671875" xlink:href="#ArialMT-66"/>
     <use x="861.669921875" xlink:href="#ArialMT-72"/>
     <use x="894.970703125" xlink:href="#ArialMT-6f"/>
     <use x="950.5859375" xlink:href="#ArialMT-6d"/>
     <use x="1033.88671875" xlink:href="#ArialMT-20"/>
     <use x="1061.66992188" xlink:href="#ArialMT-72"/>
     <use x="1094.97070312" xlink:href="#ArialMT-65"/>
     <use x="1150.5859375" xlink:href="#ArialMT-66"/>
     <use x="1178.36914062" xlink:href="#ArialMT-61"/>
     <use x="1233.984375" xlink:href="#ArialMT-6c"/>
     <use x="1256.20117188" xlink:href="#ArialMT-67"/>
     <use x="1311.81640625" xlink:href="#ArialMT-73"/>
     <use x="1361.81640625" xlink:href="#ArialMT-2f"/>
     <use x="1389.59960938" xlink:href="#ArialMT-62"/>
     <use x="1445.21484375" xlink:href="#ArialMT-65"/>
     <use x="1500.83007812" xlink:href="#ArialMT-73"/>
     <use x="1550.83007812" xlink:href="#ArialMT-74"/>
     <use x="1578.61328125" xlink:href="#ArialMT-32"/>
     <use x="1634.22851562" xlink:href="#ArialMT-30"/>
     <use x="1689.84375" xlink:href="#ArialMT-30"/>
     <use x="1745.45898438" xlink:href="#ArialMT-39"/>
     <use x="1801.07421875" xlink:href="#ArialMT-2d"/>
     <use x="1834.375" xlink:href="#ArialMT-62"/>
     <use x="1889.99023438" xlink:href="#ArialMT-62"/>
     <use x="1945.60546875" xlink:href="#ArialMT-6f"/>
     <use x="2001.22070312" xlink:href="#ArialMT-62"/>
     <use x="2056.8359375" xlink:href="#ArialMT-2e"/>
     <use x="2084.61914062" xlink:href="#ArialMT-74"/>
     <use x="2112.40234375" xlink:href="#ArialMT-61"/>
     <use x="2168.01757812" xlink:href="#ArialMT-72"/>
     <use x="2195.81835938" xlink:href="#ArialMT-2e"/>
     <use x="2223.6015625" xlink:href="#ArialMT-67"/>
     <use x="2279.21679688" xlink:href="#ArialMT-7a"/>
    </g>
   </g>
   <g id="text_14">
    <!-- v2.0.1 -->
    <g style="fill:#808080;" transform="translate(271.38671875 353.080030322)scale(0.1 -0.1)">
     <use xlink:href="#ArialMT-76"/>
     <use x="50.0" xlink:href="#ArialMT-32"/>
     <use x="105.615234375" xlink:href="#ArialMT-2e"/>
     <use x="133.3984375" xlink:href="#ArialMT-30"/>
     <use x="189.013671875" xlink:href="#ArialMT-2e"/>
     <use x="216.796875" xlink:href="#ArialMT-31"/>
    </g>
   </g>
   <g id="legend_1">
    <g id="patch_7">
     <path d="
M70.825 142.086
L208.738 142.086
L208.738 22.9235
L70.825 22.9235
L70.825 142.086
z
" style="fill:#ffffff;opacity:0.2;stroke:#000000;"/>
    </g>
    <g id="line2d_114">
     <path d="
M84.825 38.2392
L112.825 38.2392" style="fill:none;stroke:#000000;stroke-linecap:square;"/>
    </g>
    <g id="line2d_115"/>
    <g id="text_15">
     <!-- 0.5: 5/5 -->
     <defs>
      <path d="
M9.03125 41.8438
L9.03125 51.8594
L19.0469 51.8594
L19.0469 41.8438
z

M9.03125 0
L9.03125 10.0156
L19.0469 10.0156
L19.0469 0
z
" id="ArialMT-3a"/>
     </defs>
     <g transform="translate(134.825 45.2391553218)scale(0.2 -0.2)">
      <use xlink:href="#ArialMT-30"/>
      <use x="55.615234375" xlink:href="#ArialMT-2e"/>
      <use x="83.3984375" xlink:href="#ArialMT-35"/>
      <use x="139.013671875" xlink:href="#ArialMT-3a"/>
      <use x="166.796875" xlink:href="#ArialMT-20"/>
      <use x="194.580078125" xlink:href="#ArialMT-35"/>
      <use x="250.1953125" xlink:href="#ArialMT-2f"/>
      <use x="277.978515625" xlink:href="#ArialMT-35"/>
     </g>
    </g>
    <g id="line2d_116">
     <path d="
M84.825 66.5298
L112.825 66.5298" style="fill:none;stroke:#00bfbf;stroke-linecap:square;"/>
    </g>
    <g id="line2d_117"/>
    <g id="text_16">
     <!-- 2: 5/5 -->
     <g transform="translate(134.825 73.5297803218)scale(0.2 -0.2)">
      <use xlink:href="#ArialMT-32"/>
      <use x="55.615234375" xlink:href="#ArialMT-3a"/>
      <use x="83.3984375" xlink:href="#ArialMT-20"/>
      <use x="111.181640625" xlink:href="#ArialMT-35"/>
      <use x="166.796875" xlink:href="#ArialMT-2f"/>
      <use x="194.580078125" xlink:href="#ArialMT-35"/>
     </g>
    </g>
    <g id="line2d_118">
     <path d="
M84.825 94.8204
L112.825 94.8204" style="fill:none;stroke:#bf00bf;stroke-linecap:square;"/>
    </g>
    <g id="line2d_119"/>
    <g id="text_17">
     <!-- 10: 4/5 -->
     <g transform="translate(134.825 101.820405322)scale(0.2 -0.2)">
      <use xlink:href="#ArialMT-31"/>
      <use x="55.615234375" xlink:href="#ArialMT-30"/>
      <use x="111.23046875" xlink:href="#ArialMT-3a"/>
      <use x="139.013671875" xlink:href="#ArialMT-20"/>
      <use x="166.796875" xlink:href="#ArialMT-34"/>
      <use x="222.412109375" xlink:href="#ArialMT-2f"/>
      <use x="250.1953125" xlink:href="#ArialMT-35"/>
     </g>
    </g>
    <g id="line2d_120">
     <path d="
M84.825 123.111
L112.825 123.111" style="fill:none;stroke:#ff0000;stroke-linecap:square;stroke-width:3.0;"/>
    </g>
    <g id="line2d_121"/>
    <g id="text_18">
     <!-- 50: 1/5 -->
     <g transform="translate(134.825 130.111030322)scale(0.2 -0.2)">
      <use xlink:href="#ArialMT-35"/>
      <use x="55.615234375" xlink:href="#ArialMT-30"/>
      <use x="111.23046875" xlink:href="#ArialMT-3a"/>
      <use x="139.013671875" xlink:href="#ArialMT-20"/>
      <use x="166.796875" xlink:href="#ArialMT-31"/>
      <use x="222.412109375" xlink:href="#ArialMT-2f"/>
      <use x="250.1953125" xlink:href="#ArialMT-35"/>
     </g>
    </g>
   </g>
  </g>
 </g>
 <defs>
  <clipPath id="p0ab5e1e507">
   <rect height="345.6" width="446.4" x="60.825" y="12.9235303218"/>
  </clipPath>
 </defs>
</svg>
