<?xml version="1.0" encoding="utf-8" standalone="no"?>
<!DOCTYPE svg PUBLIC "-//W3C//DTD SVG 1.1//EN"
  "http://www.w3.org/Graphics/SVG/1.1/DTD/svg11.dtd">
<!-- Created with matplotlib (http://matplotlib.org/) -->
<svg height="411pt" version="1.1" viewBox="0 0 514 411" width="514pt" xmlns="http://www.w3.org/2000/svg" xmlns:xlink="http://www.w3.org/1999/xlink">
 <defs>
  <style type="text/css">
*{stroke-linecap:butt;stroke-linejoin:round;}
  </style>
 </defs>
 <g id="figure_1">
  <g id="patch_1">
   <path d="
M0 411.783
L514.425 411.783
L514.425 0
L0 0
z
" style="fill:#ffffff;"/>
  </g>
  <g id="axes_1">
   <g id="patch_2">
    <path d="
M60.825 358.524
L507.225 358.524
L507.225 12.9235
L60.825 12.9235
z
" style="fill:#ffffff;"/>
   </g>
   <g id="line2d_1">
    <path clip-path="url(#p0ab5e1e507)" d="
M327.053 358.524
L327.053 353.961
L372.071 353.961
L372.071 349.399
L372.488 349.399
L372.488 344.836
L374.332 344.836
L374.332 340.274
L374.534 340.274
L374.534 335.712
L375.334 335.712
L375.334 331.149
L375.533 331.149
L375.533 326.587
L376.125 326.587
L376.125 322.025
L376.125 322.025
L376.125 317.462
L376.517 317.462
L376.517 312.9
L378.061 312.9
L378.061 308.337
L378.441 308.337
L378.441 303.775
L379.94 303.775
L379.94 299.213
L379.94 299.213
L379.94 294.65
L380.31 294.65
L380.31 290.088
L380.31 290.088
L380.31 285.526
L380.677 285.526
L380.677 280.963
L381.767 280.963
L381.767 276.401
L381.767 276.401
L381.767 271.838
L382.483 271.838
L382.483 267.276
L384.757 267.276
L384.757 262.714
L385.442 262.714
L385.442 258.151
L390.038 258.151
L390.038 253.589
L399.867 253.589
L399.867 249.027
L400.274 249.027
L400.274 244.464
L404.081 244.464
L404.081 239.902
L404.336 239.902
L404.336 235.339
L417.297 235.339
L417.297 230.777
L418.634 230.777
L418.634 226.215
L418.939 226.215
L418.939 221.652
L422.006 221.652
L422.006 217.09
L422.199 217.09
L422.199 212.527
L424.656 212.527
L424.656 207.965
L427.202 207.965
L427.202 203.403
L441.036 203.403
L441.036 198.84
L444.334 198.84
L444.334 194.278
L455.317 194.278
L455.317 189.716
L456.914 189.716
L456.914 185.153
L464.302 185.153
L464.302 180.591
L468.859 180.591
L468.859 176.028
L472.984 176.028
L472.984 171.466
L474.632 171.466
L474.632 166.904
L484.426 166.904
L484.426 162.341
L487.339 162.341
L487.339 157.779
L495.117 157.779
L495.117 153.217
L515.425 153.217" style="fill:none;stroke:#f5deb3;stroke-linecap:square;"/>
   </g>
   <g id="line2d_2">
    <path clip-path="url(#p0ab5e1e507)" d="
M266.118 358.524
L266.118 353.961
L280.543 353.961
L280.543 349.399
L303.514 349.399
L303.514 344.836
L308.735 344.836
L308.735 340.274
L309.84 340.274
L309.84 335.712
L310.385 335.712
L310.385 331.149
L310.926 331.149
L310.926 326.587
L311.463 326.587
L311.463 322.025
L314.591 322.025
L314.591 317.462
L315.098 317.462
L315.098 312.9
L316.101 312.9
L316.101 308.337
L317.088 308.337
L317.088 303.775
L318.54 303.775
L318.54 299.213
L321.808 299.213
L321.808 294.65
L322.262 294.65
L322.262 290.088
L331.12 290.088
L331.12 285.526
L340.633 285.526
L340.633 280.963
L439.874 280.963
L439.874 276.401
L444.743 276.401
L444.743 271.838
L454.796 271.838
L454.796 267.276
L455.433 267.276
L455.433 262.714
L457.642 262.714
L457.642 258.151
L459.67 258.151
L459.67 253.589
L466.621 253.589
L466.621 249.027
L468.248 249.027
L468.248 244.464
L468.389 244.464
L468.389 239.902
L470.065 239.902
L470.065 235.339
L471.384 235.339
L471.384 230.777
L478.172 230.777
L478.172 226.215
L483.797 226.215
L483.797 221.652
L489.688 221.652
L489.688 217.09
L491.064 217.09
L491.064 212.527
L492.864 212.527
L492.864 207.965
L494.428 207.965
L494.428 203.403
L498.46 203.403
L498.46 198.84
L500.01 198.84
L500.01 194.278
L515.425 194.278" style="fill:none;stroke:#f5deb3;stroke-linecap:square;"/>
   </g>
   <g id="line2d_3">
    <path clip-path="url(#p0ab5e1e507)" d="
M322.713 358.524
L322.713 353.961
L360.41 353.961
L360.41 349.399
L361.157 349.399
L361.157 344.836
L364.3 344.836
L364.3 340.274
L364.535 340.274
L364.535 335.712
L369.51 335.712
L369.51 331.149
L370.375 331.149
L370.375 326.587
L371.651 326.587
L371.651 322.025
L373.314 322.025
L373.314 317.462
L375.533 317.462
L375.533 312.9
L378.441 312.9
L378.441 308.337
L379.195 308.337
L379.195 303.775
L380.125 303.775
L380.125 299.213
L381.405 299.213
L381.405 294.65
L381.767 294.65
L381.767 290.088
L384.24 290.088
L384.24 285.526
L388.108 285.526
L388.108 280.963
L389.401 280.963
L389.401 276.401
L389.56 276.401
L389.56 271.838
L390.981 271.838
L390.981 267.276
L391.448 267.276
L391.448 262.714
L392.524 262.714
L392.524 258.151
L393.882 258.151
L393.882 253.589
L394.18 253.589
L394.18 249.027
L395.504 249.027
L395.504 244.464
L395.649 244.464
L395.649 235.339
L397.369 235.339
L397.369 230.777
L398.073 230.777
L398.073 226.215
L398.491 226.215
L398.491 221.652
L400.409 221.652
L400.409 217.09
L400.544 217.09
L400.544 212.527
L402.14 212.527
L402.14 207.965
L403.183 207.965
L403.183 203.403
L403.441 203.403
L403.441 198.84
L403.698 198.84
L403.698 194.278
L404.209 194.278
L404.209 189.716
L406.213 189.716
L406.213 185.153
L406.827 185.153
L406.827 180.591
L407.435 180.591
L407.435 176.028
L408.635 176.028
L408.635 171.466
L410.045 171.466
L410.045 166.904
L411.426 166.904
L411.426 162.341
L414.536 162.341
L414.536 157.779
L415.184 157.779
L415.184 153.217
L418.736 153.217
L418.736 148.654
L423.06 148.654
L423.06 144.092
L425.394 144.092
L425.394 139.529
L425.577 139.529
L425.577 134.967
L427.113 134.967
L427.113 130.405
L428.788 130.405
L428.788 125.842
L438.989 125.842
L438.989 121.28
L447.211 121.28
L447.211 116.718
L451.575 116.718
L451.575 112.155
L452.123 112.155
L452.123 107.593
L456.006 107.593
L456.006 103.03
L480.949 103.03
L480.949 98.4681
L492.638 98.4681
L492.638 93.9057
L510.305 93.9057
L510.305 89.3433
L515.425 89.3433
L515.425 89.3433" style="fill:none;stroke:#f5deb3;stroke-linecap:square;"/>
   </g>
   <g id="line2d_4">
    <path clip-path="url(#p0ab5e1e507)" d="
M221.309 358.524
L221.309 353.961
L394.772 353.961
L394.772 349.399
L478.536 349.399
L478.536 344.836
L514.828 344.836
L514.828 340.274
L515.425 340.274" style="fill:none;stroke:#f5deb3;stroke-linecap:square;"/>
   </g>
   <g id="line2d_5">
    <path clip-path="url(#p0ab5e1e507)" d="
M350.695 358.524
L350.695 344.836
L352.135 344.836
L352.135 331.149
L355.194 331.149
L355.194 317.462
L361.405 317.462
L361.405 303.775
L370.375 303.775
L370.375 290.088
L373.519 290.088
L373.519 276.401
L375.533 276.401
L375.533 262.714
L383.892 262.714
L383.892 249.027
L385.95 249.027
L385.95 235.339
L393.433 235.339
L393.433 221.652
L394.772 221.652
L394.772 207.965
L398.352 207.965
L398.352 194.278
L400.812 194.278
L400.812 180.591
L413.553 180.591
L413.553 166.904
L418.02 166.904
L418.02 153.217
L435.555 153.217
L435.555 139.529
L437.409 139.529
L437.409 125.842
L440.82 125.842
L440.82 112.155
L453.086 112.155
L453.086 98.4681
L455.835 98.4681
L455.835 84.781
L501.75 84.781
L501.75 71.0938
L501.919 71.0938
L501.919 57.4067
L515.425 57.4067" style="fill:none;stroke:#f5deb3;stroke-linecap:square;"/>
   </g>
   <g id="line2d_6">
    <path clip-path="url(#p0ab5e1e507)" d="
M293.75 358.524
L293.75 353.961
L305.301 353.961
L305.301 349.399
L313.565 349.399
L313.565 344.836
L319.017 344.836
L319.017 340.274
L323.604 340.274
L323.604 335.712
L326.632 335.712
L326.632 331.149
L328.3 331.149
L328.3 326.587
L330.327 326.587
L330.327 322.025
L337.138 322.025
L337.138 317.462
L337.852 317.462
L337.852 312.9
L339.257 312.9
L339.257 308.337
L340.633 308.337
L340.633 303.775
L347.41 303.775
L347.41 299.213
L350.695 299.213
L350.695 294.65
L351.275 294.65
L351.275 290.088
L359.145 290.088
L359.145 285.526
L362.627 285.526
L362.627 280.963
L365.7 280.963
L365.7 276.401
L367.745 276.401
L367.745 271.838
L367.969 271.838
L367.969 262.714
L368.634 262.714
L368.634 258.151
L369.728 258.151
L369.728 253.589
L371.861 253.589
L371.861 249.027
L375.135 249.027
L375.135 244.464
L378.251 244.464
L378.251 239.902
L379.755 239.902
L379.755 235.339
L381.405 235.339
L381.405 230.777
L383.718 230.777
L383.718 226.215
L384.066 226.215
L384.066 221.652
L388.433 221.652
L388.433 217.09
L388.596 217.09
L388.596 207.965
L389.08 207.965
L389.08 203.403
L391.757 203.403
L391.757 198.84
L393.433 198.84
L393.433 194.278
L394.772 194.278
L394.772 189.716
L396.371 189.716
L396.371 185.153
L398.907 185.153
L398.907 180.591
L399.73 180.591
L399.73 176.028
L400.274 176.028
L400.274 171.466
L401.612 171.466
L401.612 166.904
L402.794 166.904
L402.794 162.341
L406.337 162.341
L406.337 157.779
L407.677 157.779
L407.677 153.217
L411.083 153.217
L411.083 148.654
L416.143 148.654
L416.143 144.092
L422.487 144.092
L422.487 139.529
L428.351 139.529
L428.351 134.967
L451.758 134.967
L451.758 130.405
L515.425 130.405
L515.425 130.405" style="fill:none;stroke:#f5deb3;stroke-linecap:square;"/>
   </g>
   <g id="line2d_7">
    <path clip-path="url(#p0ab5e1e507)" d="
M411.198 358.524
L411.198 353.961
L456.744 353.961
L456.744 349.399
L457.975 349.399
L457.975 344.836
L515.425 344.836" style="fill:none;stroke:#f5deb3;stroke-linecap:square;"/>
   </g>
   <g id="line2d_8">
    <path clip-path="url(#p0ab5e1e507)" d="
M315.601 358.524
L315.601 353.961
L315.601 353.961
L315.601 349.399
L322.713 349.399
L322.713 344.836
L332.678 344.836
L332.678 340.274
L334.199 340.274
L334.199 335.712
L336.778 335.712
L336.778 331.149
L338.206 331.149
L338.206 326.587
L344.271 326.587
L344.271 322.025
L346.173 322.025
L346.173 317.462
L348.924 317.462
L348.924 312.9
L349.52 312.9
L349.52 308.337
L349.52 308.337
L349.52 303.775
L352.702 303.775
L352.702 299.213
L357.331 299.213
L357.331 294.65
L358.632 294.65
L358.632 290.088
L360.41 290.088
L360.41 285.526
L361.157 285.526
L361.157 280.963
L365.469 280.963
L365.469 276.401
L367.071 276.401
L367.071 271.838
L387.944 271.838
L387.944 267.276
L415.184 267.276
L415.184 262.714
L515.425 262.714" style="fill:none;stroke:#f5deb3;stroke-linecap:square;"/>
   </g>
   <g id="line2d_9">
    <path clip-path="url(#p0ab5e1e507)" d="
M253.025 358.524
L253.025 353.961
L259.307 353.961
L259.307 349.399
L262.802 349.399
L262.802 344.836
L286.311 344.836
L286.311 340.274
L289.39 340.274
L289.39 335.712
L441.538 335.712
L441.538 331.149
L444.403 331.149
L444.403 326.587
L457.363 326.587
L457.363 322.025
L504.099 322.025
L504.099 317.462
L514.343 317.462
L514.343 312.9
L515.425 312.9" style="fill:none;stroke:#f5deb3;stroke-linecap:square;"/>
   </g>
   <g id="line2d_10">
    <path clip-path="url(#p0ab5e1e507)" d="
M466.134 358.524
L466.134 353.961
L467.392 353.961
L467.392 349.399
L473.247 349.399
L473.247 344.836
L475.016 344.836
L475.016 340.274
L482.065 340.274
L482.065 335.712
L483.2 335.712
L483.2 331.149
L489.891 331.149
L489.891 326.587
L490.631 326.587
L490.631 322.025
L491.13 322.025
L491.13 317.462
L502.255 317.462
L502.255 312.9
L506.34 312.9
L506.34 308.337
L508.884 308.337
L508.884 303.775
L511.96 303.775
L511.96 299.213
L515.425 299.213" style="fill:none;stroke:#f5deb3;stroke-linecap:square;"/>
   </g>
   <g id="line2d_11">
    <path clip-path="url(#p0ab5e1e507)" d="
M443.369 358.524
L443.369 353.961
L474.246 353.961
L474.246 349.399
L485.809 349.399
L485.809 344.836
L515.425 344.836" style="fill:none;stroke:#f5deb3;stroke-linecap:square;"/>
   </g>
   <g id="line2d_12">
    <path clip-path="url(#p0ab5e1e507)" d="
M311.463 358.524
L311.463 353.961
L328.3 353.961
L328.3 349.399
L328.71 349.399
L328.71 340.274
L334.574 340.274
L334.574 335.712
L336.415 335.712
L336.415 331.149
L340.972 331.149
L340.972 326.587
L346.794 326.587
L346.794 322.025
L347.103 322.025
L347.103 317.462
L348.924 317.462
L348.924 312.9
L350.695 312.9
L350.695 308.337
L353.821 308.337
L353.821 303.775
L354.374 303.775
L354.374 299.213
L355.194 299.213
L355.194 294.65
L360.66 294.65
L360.66 290.088
L361.157 290.088
L361.157 280.963
L364.063 280.963
L364.063 276.401
L365.237 276.401
L365.237 271.838
L365.7 271.838
L365.7 267.276
L366.617 267.276
L366.617 262.714
L367.071 262.714
L367.071 258.151
L367.521 258.151
L367.521 249.027
L368.854 249.027
L368.854 244.464
L369.074 244.464
L369.074 239.902
L375.533 239.902
L375.533 235.339
L378.251 235.339
L378.251 226.215
L379.007 226.215
L379.007 221.652
L379.382 221.652
L379.382 217.09
L379.755 217.09
L379.755 212.527
L380.125 212.527
L380.125 207.965
L383.892 207.965
L383.892 203.403
L384.585 203.403
L384.585 194.278
L385.271 194.278
L385.271 189.716
L385.781 189.716
L385.781 185.153
L388.757 185.153
L388.757 180.591
L392.828 180.591
L392.828 176.028
L394.624 176.028
L394.624 171.466
L399.457 171.466
L399.457 166.904
L400.946 166.904
L400.946 162.341
L401.347 162.341
L401.347 157.779
L401.877 157.779
L401.877 153.217
L402.794 153.217
L402.794 148.654
L403.954 148.654
L403.954 144.092
L408.635 144.092
L408.635 139.529
L417.814 139.529
L417.814 134.967
L419.944 134.967
L420.044 125.842
L424.097 125.842
L424.097 121.28
L427.558 121.28
L427.558 116.718
L435.004 116.718
L435.004 112.155
L454.035 112.155
L454.035 107.593
L461.374 107.593
L461.374 103.03
L515.425 103.03
L515.425 103.03" style="fill:none;stroke:#f5deb3;stroke-linecap:square;"/>
   </g>
   <g id="line2d_13">
    <path clip-path="url(#p0ab5e1e507)" d="
M364.063 358.524
L364.063 353.961
L376.906 353.961
L376.906 349.399
L457.808 349.399
L457.808 344.836
L478.091 344.836
L478.091 340.274
L487.269 340.274
L487.269 335.712
L499.049 335.712
L499.049 331.149
L515.425 331.149" style="fill:none;stroke:#f5deb3;stroke-linecap:square;"/>
   </g>
   <g id="line2d_14">
    <path clip-path="url(#p0ab5e1e507)" d="
M236.59 358.524
L236.59 353.961
L377.1 353.961
L377.1 349.399
L388.596 349.399
L388.596 344.836
L395.212 344.836
L395.212 340.274
L400.678 340.274
L400.678 335.712
L403.826 335.712
L403.826 331.149
L404.336 331.149
L404.336 326.587
L404.463 326.587
L404.463 322.025
L404.716 322.025
L404.716 317.462
L404.842 317.462
L404.842 308.337
L404.968 308.337
L404.968 303.775
L405.469 303.775
L405.469 299.213
L405.594 299.213
L405.594 294.65
L407.314 294.65
L407.314 290.088
L409.108 290.088
L409.108 285.526
L409.226 285.526
L409.226 280.963
L411.198 280.963
L411.198 276.401
L412.889 276.401
L412.889 271.838
L415.719 271.838
L415.719 267.276
L415.931 267.276
L415.931 262.714
L416.88 262.714
L416.88 258.151
L417.401 258.151
L417.401 253.589
L422.583 253.589
L422.583 249.027
L424.563 249.027
L424.563 244.464
L429.221 244.464
L429.221 239.902
L437.637 239.902
L437.637 235.339
L438.616 235.339
L438.616 230.777
L452.666 230.777
L452.666 226.215
L460.634 226.215
L460.634 221.652
L461.531 221.652
L461.531 217.09
L461.793 217.09
L461.793 212.527
L464.101 212.527
L464.101 207.965
L465.15 207.965
L465.15 203.403
L465.841 203.403
L465.841 198.84
L466.183 198.84
L466.183 194.278
L467.104 194.278
L467.104 189.716
L467.821 189.716
L467.821 185.153
L468.719 185.153
L468.719 176.028
L470.386 176.028
L470.386 171.466
L472.011 171.466
L472.011 166.904
L472.278 166.904
L472.278 162.341
L473.378 162.341
L473.378 157.779
L473.596 157.779
L473.596 153.217
L474.159 153.217
L474.203 144.092
L475.186 144.092
L475.186 139.529
L475.483 139.529
L475.483 134.967
L476.322 134.967
L476.322 130.405
L477.316 130.405
L477.316 125.842
L479.694 125.842
L479.694 121.28
L481.989 121.28
L481.989 116.718
L494.648 116.718
L494.648 112.155
L497.022 112.155
L497.022 107.593
L498.252 107.593
L498.252 103.03
L505.681 103.03
L505.681 98.4681
L507.096 98.4681
L507.096 93.9057
L515.425 93.9057
L515.425 93.9057" style="fill:none;stroke:#f5deb3;stroke-linecap:square;"/>
   </g>
   <g id="line2d_15">
    <path clip-path="url(#p0ab5e1e507)" d="
M396.658 358.524
L396.658 353.961
L412.105 353.961
L412.105 349.399
L412.33 349.399
L412.33 344.836
L412.33 344.836
L412.33 340.274
L424.191 340.274
L424.191 335.712
L424.191 335.712
L424.191 331.149
L424.749 331.149
L424.749 326.587
L437.257 326.587
L437.257 322.025
L440.021 322.025
L440.021 317.462
L440.021 317.462
L440.021 312.9
L440.53 312.9
L440.53 308.337
L440.53 308.337
L440.53 303.775
L440.675 303.775
L440.675 299.213
L440.675 299.213
L440.675 294.65
L445.621 294.65
L445.621 290.088
L448.12 290.088
L448.12 285.526
L449.208 285.526
L449.208 280.963
L449.208 280.963
L449.208 276.401
L450.775 276.401
L450.775 271.838
L450.775 271.838
L450.775 267.276
L451.452 267.276
L451.452 262.714
L451.452 262.714
L451.452 258.151
L453.265 258.151
L453.265 253.589
L456.405 253.589
L456.405 249.027
L456.405 249.027
L456.405 244.464
L457.697 244.464
L457.697 239.902
L457.697 239.902
L457.697 235.339
L459.831 235.339
L459.831 230.777
L459.831 230.777
L459.831 226.215
L462.053 226.215
L462.053 221.652
L462.157 221.652
L462.157 217.09
L462.157 217.09
L462.157 212.527
L462.468 212.527
L462.468 207.965
L464.703 207.965
L464.703 203.403
L470.248 203.403
L470.248 198.84
L470.248 198.84
L470.248 194.278
L470.614 194.278
L470.614 189.716
L478.978 189.716
L478.978 185.153
L492.117 185.153
L492.117 180.591
L492.832 180.591
L492.832 176.028
L498.044 176.028
L498.044 171.466
L498.044 171.466
L498.044 166.904
L501.835 166.904
L501.835 162.341
L505.123 162.341
L505.123 157.779
L515.425 157.779" style="fill:none;stroke:#f5deb3;stroke-linecap:square;"/>
   </g>
   <g id="line2d_16">
    <path clip-path="url(#p0ab5e1e507)" d="
M259.307 358.524
L259.307 353.961
L281.399 353.961
L281.399 349.399
L288.634 349.399
L288.634 344.836
L291.607 344.836
L291.607 340.274
L304.115 340.274
L304.115 335.712
L316.596 335.712
L316.596 331.149
L387.78 331.149
L387.78 326.587
L390.038 326.587
L390.038 322.025
L395.065 322.025
L395.065 317.462
L397.933 317.462
L397.933 312.9
L408.038 312.9
L408.038 308.337
L412.217 308.337
L412.217 303.775
L413.773 303.775
L413.773 299.213
L431.597 299.213
L431.597 294.65
L438.391 294.65
L438.391 290.088
L443.161 290.088
L443.161 285.526
L449.713 285.526
L449.713 280.963
L451.514 280.963
L451.514 276.401
L453.146 276.401
L453.146 271.838
L453.503 271.838
L453.503 267.276
L454.504 267.276
L454.504 262.714
L454.679 262.714
L454.679 258.151
L455.605 258.151
L455.605 253.589
L493.603 253.589
L493.603 249.027
L493.667 249.027
L493.667 244.464
L495.211 244.464
L495.211 239.902
L498.014 239.902
L498.014 235.339
L499.517 235.339
L499.517 230.777
L501.694 230.777
L501.694 226.215
L501.919 226.215
L501.919 221.652
L505.893 221.652
L505.893 217.09
L509.959 217.09
L509.959 212.527
L513.901 212.527
L513.901 207.965
L514.62 207.965
L514.62 203.403
L514.92 203.403
L514.92 198.84
L515.425 198.84" style="fill:none;stroke:#f5deb3;stroke-linecap:square;"/>
   </g>
   <g id="line2d_17">
    <path clip-path="url(#p0ab5e1e507)" d="
M346.173 358.524
L346.173 357.003
L346.173 357.003
L346.173 357.003
L346.173 355.482
L346.173 355.482
L346.173 355.482
L346.173 353.961
L391.448 353.961
L391.448 349.399
L434.767 349.399
L434.767 344.836
L461.216 344.836
L461.216 340.274
L462.468 340.274
L462.468 335.712
L470.705 335.712
L470.705 331.149
L478.978 331.149
L478.978 326.587
L486.168 326.587
L486.168 322.025
L487.55 322.025
L487.55 317.462
L487.725 317.462
L487.725 312.9
L494.27 312.9
L494.27 308.337
L496.383 308.337
L496.383 303.775
L497.355 303.775
L497.355 299.213
L502.003 299.213
L502.003 294.65
L502.143 294.65
L502.143 290.088
L502.422 290.088
L502.422 285.526
L503.225 285.526
L503.225 280.963
L504.908 280.963
L504.908 276.401
L505.522 276.401
L505.522 271.838
L507.714 271.838
L507.714 267.276
L508.2 267.276
L508.2 262.714
L510.058 262.714
L510.058 258.151
L510.28 258.151
L510.379 249.027
L510.404 249.027
L510.404 244.464
L514.366 244.464
L514.366 239.902
L515.425 239.902
L515.425 239.902" style="fill:none;stroke:#f5deb3;stroke-linecap:square;"/>
   </g>
   <g id="line2d_18">
    <path clip-path="url(#p0ab5e1e507)" d="
M241.503 358.524
L241.503 353.961
L246.068 353.961
L246.068 349.399
L254.331 349.399
L254.331 344.836
L258.098 344.836
L258.098 340.274
L261.658 340.274
L261.658 335.712
L263.926 335.712
L263.926 331.149
L274.209 331.149
L274.209 326.587
L284.715 326.587
L284.715 317.462
L286.311 317.462
L286.311 312.9
L287.095 312.9
L287.095 308.337
L293.043 308.337
L293.043 303.775
L293.75 303.775
L293.75 299.213
L299.783 299.213
L299.783 294.65
L301.676 294.65
L301.676 290.088
L304.115 290.088
L304.115 285.526
L379.007 285.526
L379.007 280.963
L399.457 280.963
L399.457 276.401
L406.46 276.401
L406.46 271.838
L409.929 271.838
L409.929 267.276
L413.221 267.276
L413.221 262.714
L417.401 262.714
L417.401 258.151
L418.532 258.151
L418.532 253.589
L427.202 253.589
L427.202 249.027
L431.011 249.027
L431.011 244.464
L439.063 244.464
L439.063 239.902
L443.23 239.902
L443.23 235.339
L444.197 235.339
L444.197 230.777
L446.222 230.777
L446.222 226.215
L453.026 226.215
L453.026 221.652
L455.835 221.652
L455.835 212.527
L458.636 212.527
L458.691 203.403
L465.939 203.403
L465.939 198.84
L468.906 198.84
L468.906 194.278
L469.835 194.278
L469.835 189.716
L474.546 189.716
L474.546 185.153
L475.44 185.153
L475.44 180.591
L489.552 180.591
L489.552 176.028
L491.724 176.028
L491.724 171.466
L500.385 171.466
L500.385 166.904
L508.327 166.904
L508.327 162.341
L513.222 162.341
L513.222 157.779
L515.425 157.779
L515.425 157.779" style="fill:none;stroke:#f5deb3;stroke-linecap:square;"/>
   </g>
   <g id="line2d_19">
    <path clip-path="url(#p0ab5e1e507)" d="
M341.98 358.524
L341.98 353.961
L357.331 353.961
L357.331 349.399
L448.57 349.399
L448.57 344.836
L451.207 344.836
L451.207 340.274
L465.792 340.274
L465.792 335.712
L498.044 335.712
L498.044 331.149
L504.424 331.149
L504.424 326.587
L515.425 326.587" style="fill:none;stroke:#f5deb3;stroke-linecap:square;"/>
   </g>
   <g id="line2d_20">
    <path clip-path="url(#p0ab5e1e507)" d="
M342.972 358.524
L342.972 353.961
L385.95 353.961
L385.95 349.399
L401.347 349.399
L401.347 344.836
L409.929 344.836
L409.929 340.274
L411.198 340.274
L411.198 335.712
L412.889 335.712
L412.889 331.149
L423.439 331.149
L423.439 326.587
L423.91 326.587
L423.91 322.025
L425.026 322.025
L425.026 317.462
L425.76 317.462
L425.76 312.9
L428 312.9
L428 308.337
L429.135 308.337
L429.135 303.775
L431.763 303.775
L431.763 299.213
L433.969 299.213
L433.969 294.65
L442.741 294.65
L442.741 290.088
L443.161 290.088
L443.161 285.526
L443.369 285.526
L443.369 280.963
L452.847 280.963
L452.847 276.401
L453.265 276.401
L453.265 271.838
L453.681 271.838
L453.681 267.276
L453.976 267.276
L453.976 262.714
L454.035 262.714
L454.035 258.151
L455.144 258.151
L455.144 253.589
L455.26 253.589
L455.26 249.027
L455.949 249.027
L455.949 244.464
L456.177 244.464
L456.177 239.902
L458.691 239.902
L458.691 235.339
L459.236 235.339
L459.236 230.777
L461.949 230.777
L461.949 226.215
L463.493 226.215
L463.493 221.652
L464.252 221.652
L464.252 217.09
L465.841 217.09
L465.841 212.527
L466.718 212.527
L466.718 207.965
L467.248 207.965
L467.248 203.403
L469.789 203.403
L469.789 198.84
L472.322 198.84
L472.322 194.278
L472.984 194.278
L472.984 189.716
L473.378 189.716
L473.378 185.153
L473.987 185.153
L473.987 180.591
L477.357 180.591
L477.357 176.028
L481.027 176.028
L481.027 171.466
L481.49 171.466
L481.49 166.904
L483.425 166.904
L483.425 162.341
L483.871 162.341
L483.871 157.779
L484.719 157.779
L484.719 153.217
L488.351 153.217
L488.351 148.654
L488.49 148.654
L488.49 144.092
L490.631 144.092
L490.631 139.529
L498.252 139.529
L498.252 134.967
L504.801 134.967
L504.801 130.405
L511.888 130.405
L511.888 125.842
L515.425 125.842" style="fill:none;stroke:#f5deb3;stroke-linecap:square;"/>
   </g>
   <g id="line2d_21">
    <path clip-path="url(#p0ab5e1e507)" d="
M340.292 358.524
L340.292 353.961
L345.545 353.961
L345.545 349.399
L364.3 349.399
L364.3 344.836
L416.565 344.836
L416.565 340.274
L431.179 340.274
L431.179 335.712
L438.015 335.712
L438.015 331.149
L438.466 331.149
L438.466 326.587
L443.369 326.587
L443.369 322.025
L450.651 322.025
L450.651 317.462
L454.563 317.462
L454.563 312.9
L459.236 312.9
L459.236 308.337
L469.046 308.337
L469.046 303.775
L477.521 303.775
L477.521 299.213
L484.278 299.213
L484.278 294.65
L490.797 294.65
L490.797 290.088
L498.932 290.088
L498.932 285.526
L508.632 285.526
L508.632 280.963
L509.211 280.963
L509.211 276.401
L511.695 276.401
L511.695 271.838
L515.425 271.838" style="fill:none;stroke:#f5deb3;stroke-linecap:square;"/>
   </g>
   <g id="line2d_22">
    <path clip-path="url(#p0ab5e1e507)" d="
M320.891 358.524
L320.891 353.961
L390.668 353.961
L390.668 349.399
L401.347 349.399
L401.347 344.836
L419.944 344.836
L419.944 340.274
L500.213 340.274
L500.213 335.712
L515.425 335.712" style="fill:none;stroke:#f5deb3;stroke-linecap:square;"/>
   </g>
   <g id="line2d_23">
    <path clip-path="url(#p0ab5e1e507)" d="
M434.449 358.524
L434.449 353.961
L476.572 353.961
L476.572 349.399
L509.336 349.399
L509.336 344.836
L511.187 344.836
L511.187 340.274
L514.805 340.274
L514.805 335.712
L515.425 335.712" style="fill:none;stroke:#f5deb3;stroke-linecap:square;"/>
   </g>
   <g id="line2d_24">
    <path clip-path="url(#p0ab5e1e507)" d="
M366.844 358.524
L366.844 353.961
L448.826 353.961
L448.826 349.399
L470.705 349.399
L470.705 344.836
L473.335 344.836
L473.335 340.274
L479.297 340.274
L479.297 335.712
L485.701 335.712
L485.701 331.149
L493.858 331.149
L493.858 326.587
L496.292 326.587
L496.292 322.025
L501.327 322.025
L501.327 317.462
L506.287 317.462
L506.287 312.9
L507.018 312.9
L507.018 308.337
L507.791 308.337
L507.791 303.775
L508.378 303.775
L508.378 299.213
L508.404 299.213
L508.404 294.65
L513.174 294.65
L513.174 290.088
L514.25 290.088
L514.25 285.526
L515.425 285.526" style="fill:none;stroke:#f5deb3;stroke-linecap:square;"/>
   </g>
   <g id="line2d_25">
    <path clip-path="url(#p0ab5e1e507)" d="
M357.331 358.524
L357.331 353.961
L360.66 353.961
L360.66 349.399
L367.969 349.399
L367.969 340.274
L370.16 340.274
L370.16 331.149
L371.016 331.149
L371.016 326.587
L372.488 326.587
L372.488 322.025
L376.906 322.025
L376.906 317.462
L377.87 317.462
L377.87 312.9
L379.755 312.9
L379.755 308.337
L380.494 308.337
L380.494 303.775
L381.042 303.775
L381.042 299.213
L381.405 299.213
L381.405 294.65
L381.767 294.65
L381.767 290.088
L382.661 290.088
L382.661 285.526
L384.413 285.526
L384.413 280.963
L385.271 280.963
L385.271 276.401
L385.611 276.401
L385.611 271.838
L386.118 271.838
L386.118 267.276
L387.286 267.276
L387.286 262.714
L387.451 262.714
L387.451 258.151
L387.944 258.151
L387.944 253.589
L391.137 253.589
L391.137 249.027
L391.757 249.027
L391.757 244.464
L392.98 244.464
L392.98 239.902
L396.658 239.902
L396.658 230.777
L397.511 230.777
L397.511 221.652
L398.63 221.652
L398.63 217.09
L400.409 217.09
L400.409 212.527
L401.214 212.527
L401.214 207.965
L401.612 207.965
L401.612 203.403
L402.533 203.403
L402.533 198.84
L404.589 198.84
L404.589 194.278
L405.469 194.278
L405.469 189.716
L409.579 189.716
L409.579 185.153
L411.198 185.153
L411.198 180.591
L415.505 180.591
L415.505 176.028
L417.401 176.028
L417.401 171.466
L420.143 171.466
L420.143 166.904
L421.812 166.904
L421.812 162.341
L423.628 162.341
L423.628 157.779
L424.934 157.779
L424.934 153.217
L425.577 153.217
L425.577 148.654
L429.308 148.654
L429.308 144.092
L431.179 144.092
L431.179 139.529
L436.874 139.529
L436.874 134.967
L440.675 134.967
L440.675 130.405
L440.892 130.405
L440.892 125.842
L443.369 125.842
L443.369 121.28
L451.697 121.28
L451.697 116.718
L515.4 116.718
L515.4 112.155
L515.425 112.155" style="fill:none;stroke:#f5deb3;stroke-linecap:square;"/>
   </g>
   <g id="line2d_26">
    <path clip-path="url(#p0ab5e1e507)" d="
M439.654 358.524
L439.654 353.961
L442.319 353.961
L442.319 349.399
L445.889 349.399
L445.889 344.836
L446.685 344.836
L446.685 340.274
L458.141 340.274
L458.141 335.712
L459.885 335.712
L459.885 331.149
L459.993 331.149
L459.993 326.587
L466.572 326.587
L466.572 322.025
L467.964 322.025
L467.964 317.462
L469.186 317.462
L469.186 312.9
L470.248 312.9
L470.248 308.337
L470.568 308.337
L470.568 303.775
L472.278 303.775
L472.278 299.213
L479.178 299.213
L479.178 294.65
L479.337 294.65
L479.337 290.088
L479.536 290.088
L479.536 285.526
L480.089 285.526
L480.089 280.963
L480.325 280.963
L480.325 276.401
L481.606 276.401
L481.606 271.838
L481.682 271.838
L481.682 267.276
L484.499 267.276
L484.499 262.714
L485.593 262.714
L485.593 258.151
L487.374 258.151
L487.374 253.589
L488.49 253.589
L488.49 249.027
L489.074 249.027
L489.074 244.464
L489.891 244.464
L489.891 239.902
L490.026 239.902
L490.026 235.339
L491.097 235.339
L491.097 230.777
L493.219 230.777
L493.219 226.215
L494.899 226.215
L494.899 221.652
L494.93 221.652
L494.93 217.09
L499.837 217.09
L499.837 212.527
L501.185 212.527
L501.185 207.965
L502.283 207.965
L502.283 203.403
L503.17 203.403
L503.17 198.84
L504.208 198.84
L504.208 194.278
L505.123 194.278
L505.123 189.716
L507.121 189.716
L507.121 185.153
L507.121 185.153
L507.121 180.591
L508.175 180.591
L508.175 176.028
L508.708 176.028
L508.708 171.466
L509.035 171.466
L509.035 166.904
L511.671 166.904
L511.671 162.341
L512.63 162.341
L512.63 157.779
L513.971 157.779
L513.971 153.217
L514.018 153.217
L514.018 148.654
L515.425 148.654" style="fill:none;stroke:#f5deb3;stroke-linecap:square;"/>
   </g>
   <g id="line2d_27">
    <path clip-path="url(#p0ab5e1e507)" d="
M277.904 358.524
L277.904 353.961
L318.06 353.961
L318.06 349.399
L337.138 349.399
L337.138 344.836
L337.496 344.836
L337.496 340.274
L344.271 340.274
L344.271 335.712
L350.695 335.712
L350.695 331.149
L350.986 331.149
L350.986 326.587
L352.702 326.587
L352.702 322.025
L355.194 322.025
L355.194 317.462
L355.465 317.462
L355.465 308.337
L355.735 308.337
L355.735 303.775
L357.855 303.775
L357.855 299.213
L359.145 299.213
L359.145 294.65
L359.654 294.65
L359.654 290.088
L360.41 290.088
L360.41 285.526
L362.384 285.526
L362.384 280.963
L363.109 280.963
L363.109 276.401
L363.588 276.401
L363.588 271.838
L364.063 271.838
L364.063 267.276
L364.535 267.276
L364.535 262.714
L365.7 262.714
L365.7 249.027
L366.617 249.027
L366.617 244.464
L369.292 244.464
L369.292 239.902
L371.016 239.902
L371.016 235.339
L371.229 235.339
L371.229 230.777
L371.651 230.777
L371.651 226.215
L372.28 226.215
L372.28 221.652
L373.927 221.652
L373.927 217.09
L375.731 217.09
L375.731 212.527
L377.87 212.527
L377.87 207.965
L379.94 207.965
L379.94 203.403
L381.946 203.403
L381.946 198.84
L382.304 198.84
L382.304 194.278
L383.367 194.278
L383.367 189.716
L385.442 189.716
L385.442 185.153
L385.611 185.153
L385.611 180.591
L385.781 180.591
L385.781 176.028
L386.118 176.028
L386.118 171.466
L388.433 171.466
L388.433 166.904
L388.919 166.904
L388.919 162.341
L390.511 162.341
L390.511 157.779
L390.668 157.779
L390.668 153.217
L398.63 153.217
L398.63 148.654
L399.73 148.654
L399.73 144.092
L401.48 144.092
L401.48 139.529
L402.14 139.529
L402.14 134.967
L402.533 134.967
L402.533 130.405
L415.291 130.405
L415.291 125.842
L415.612 125.842
L415.612 121.28
L417.814 121.28
L417.814 116.718
L418.225 116.718
L418.225 112.155
L420.143 112.155
L420.143 107.593
L427.469 107.593
L427.469 103.03
L436.024 103.03
L436.024 98.4681
L439.433 98.4681
L439.433 93.9057
L451.452 93.9057
L451.452 89.3433
L515.425 89.3433
L515.425 89.3433" style="fill:none;stroke:#f5deb3;stroke-linecap:square;"/>
   </g>
   <g id="line2d_28">
    <path clip-path="url(#p0ab5e1e507)" d="
M255.612 358.524
L255.612 353.961
L315.098 353.961
L315.098 349.399
L349.816 349.399
L349.816 344.836
L376.712 344.836
L376.712 340.274
L432.753 340.274
L432.753 335.712
L434.369 335.712
L434.369 331.149
L448.954 331.149
L448.954 326.587
L462.931 326.587
L462.931 322.025
L464.902 322.025
L464.902 317.462
L473.466 317.462
L473.466 312.9
L475.059 312.9
L475.059 308.337
L475.483 308.337
L475.483 303.775
L479.615 303.775
L479.615 299.213
L486.88 299.213
L486.88 294.65
L488.317 294.65
L488.317 290.088
L488.317 290.088
L488.317 285.526
L491.626 285.526
L491.626 280.963
L492.961 280.963
L492.961 276.401
L493.187 276.401
L493.187 271.838
L495.366 271.838
L495.366 267.276
L495.8 267.276
L495.8 262.714
L497.565 262.714
L497.565 258.151
L500.241 258.151
L500.241 253.589
L504.747 253.589
L504.747 249.027
L507.096 249.027
L507.096 244.464
L510.033 244.464
L510.033 239.902
L515.425 239.902" style="fill:none;stroke:#f5deb3;stroke-linecap:square;"/>
   </g>
   <g id="line2d_29">
    <path clip-path="url(#p0ab5e1e507)" d="
M275.153 358.524
L275.153 353.961
L275.153 353.961
L275.153 353.961
L275.153 349.399
L275.153 349.399
L275.153 349.399
L275.153 344.836
L293.75 344.836
L293.75 331.149
L295.824 331.149
L295.824 317.462
L315.098 317.462
L315.098 303.775
L401.744 303.775
L401.744 290.088
L458.141 290.088
L458.141 276.401
L474.203 276.401
L474.203 262.714
L474.718 262.714
L474.718 249.027
L481.798 249.027
L481.798 235.339
L484.683 235.339
L484.683 221.652
L487.41 221.652
L487.41 207.965
L487.725 207.965
L487.725 194.278
L493.187 194.278
L493.187 180.591
L501.722 180.591
L501.722 166.904
L515.425 166.904
L515.425 166.904" style="fill:none;stroke:#f5deb3;stroke-linecap:square;"/>
   </g>
   <g id="line2d_30">
    <path clip-path="url(#p0ab5e1e507)" d="
M1.43787 358.524
L1.43787 353.961
L1.43787 353.961
L1.43787 349.399
L1.43787 349.399
L1.43787 344.836
L1.43787 344.836
L1.43787 340.274
L1.43787 340.274
L1.43787 335.712
L1.43787 335.712
L1.43787 331.149
L1.43787 331.149
L1.43787 326.587
L1.43787 326.587
L1.43787 322.025
L1.43787 322.025
L1.43787 317.462
L1.43787 317.462
L1.43787 312.9
L46.2465 312.9
L46.2465 308.337
L46.2465 308.337
L46.2465 303.775
L72.4579 303.775
L72.4579 299.213
L72.4579 299.213
L72.4579 294.65
L72.4579 294.65
L72.4579 290.088
L91.0552 290.088
L91.0552 285.526
L91.0552 285.526
L91.0552 280.963
L105.48 280.963
L105.48 276.401
L105.48 276.401
L105.48 271.838
L117.267 271.838
L117.267 267.276
L117.267 267.276
L117.267 262.714
L117.267 262.714
L117.267 258.151
L117.267 258.151
L117.267 253.589
L117.267 253.589
L117.267 249.027
L127.232 249.027
L127.232 244.464
L127.232 244.464
L127.232 239.902
L135.864 239.902
L135.864 235.339
L135.864 235.339
L135.864 230.777
L143.478 230.777
L143.478 226.215
L143.478 226.215
L143.478 221.652
L150.289 221.652
L150.289 217.09
L162.075 217.09
L162.075 212.527
L162.075 212.527
L162.075 207.965
L162.075 207.965
L162.075 203.403
L167.25 203.403
L167.25 198.84
L167.25 198.84
L167.25 194.278
L172.04 194.278
L172.04 189.716
L180.672 189.716
L180.672 185.153
L184.592 185.153
L184.592 180.591
L184.592 180.591
L184.592 176.028
L188.287 176.028
L188.287 171.466
L188.287 171.466
L188.287 166.904
L191.782 166.904
L191.782 162.341
L191.782 162.341
L191.782 157.779
L195.098 157.779
L195.098 153.217
L195.098 153.217
L195.098 148.654
L198.252 148.654
L198.252 144.092
L198.252 144.092
L198.252 139.529
L198.252 139.529
L198.252 134.967
L204.133 134.967
L204.133 130.405
L204.133 130.405
L204.133 125.842
L206.884 125.842
L206.884 121.28
L206.884 121.28
L206.884 116.718
L209.523 116.718
L209.523 112.155
L214.498 112.155
L214.498 107.593
L216.849 107.593
L216.849 103.03
L216.849 103.03
L216.849 98.4681
L223.429 98.4681
L223.429 93.9057
L229.4 93.9057
L229.4 89.3433
L239.906 89.3433
L239.906 84.781
L239.906 84.781
L239.906 84.781
L507.225 84.781" style="fill:none;stroke:#000000;stroke-linecap:square;"/>
   </g>
   <g id="line2d_31"/>
   <g id="line2d_32">
    <path clip-path="url(#p0ab5e1e507)" d="
M1.43787 358.524
L1.43787 353.961
L46.2465 353.961
L46.2465 349.399
L72.4579 349.399
L72.4579 344.836
L91.0552 344.836
L91.0552 340.274
L105.48 340.274
L105.48 335.712
L105.48 335.712
L105.48 331.149
L117.267 331.149
L117.267 326.587
L117.267 326.587
L117.267 322.025
L127.232 322.025
L127.232 317.462
L127.232 317.462
L127.232 312.9
L135.864 312.9
L135.864 308.337
L135.864 308.337
L135.864 303.775
L143.478 303.775
L143.478 299.213
L150.289 299.213
L150.289 294.65
L150.289 294.65
L150.289 290.088
L156.45 290.088
L156.45 285.526
L167.25 285.526
L167.25 280.963
L176.5 280.963
L176.5 276.401
L184.592 276.401
L184.592 271.838
L188.287 271.838
L188.287 267.276
L188.287 267.276
L188.287 262.714
L191.782 262.714
L191.782 258.151
L191.782 258.151
L191.782 253.589
L195.098 253.589
L195.098 249.027
L198.252 249.027
L198.252 244.464
L198.252 244.464
L198.252 239.902
L201.259 239.902
L201.259 235.339
L204.133 235.339
L204.133 230.777
L206.884 230.777
L206.884 226.215
L209.523 226.215
L209.523 221.652
L209.523 221.652
L209.523 217.09
L212.058 217.09
L212.058 212.527
L214.498 212.527
L214.498 207.965
L214.498 207.965
L214.498 203.403
L214.498 203.403
L214.498 198.84
L221.309 198.84
L221.309 194.278
L223.429 194.278
L223.429 189.716
L225.481 189.716
L225.481 185.153
L227.47 185.153
L227.47 180.591
L227.47 180.591
L227.47 176.028
L227.47 176.028
L227.47 171.466
L231.274 171.466
L231.274 166.904
L234.866 166.904
L234.866 162.341
L238.27 162.341
L238.27 157.779
L238.27 157.779
L238.27 153.217
L241.503 153.217
L241.503 148.654
L244.581 148.654
L244.581 144.092
L246.068 144.092
L246.068 139.529
L247.52 139.529
L247.52 134.967
L250.331 134.967
L250.331 130.405
L254.331 130.405
L254.331 125.842
L254.331 125.842
L254.331 121.28
L256.867 121.28
L256.867 116.718
L260.493 116.718
L260.493 112.155
L268.237 112.155
L268.237 107.593
L277.904 107.593
L277.904 103.03
L277.904 103.03
L277.904 98.4681
L298.49 98.4681
L298.49 93.9057
L316.596 93.9057
L316.596 89.3433
L365.004 89.3433
L365.004 84.781
L365.004 84.781
L365.004 84.781
L507.225 84.781" style="fill:none;stroke:#00bfbf;stroke-linecap:square;"/>
   </g>
   <g id="line2d_33"/>
   <g id="line2d_34">
    <path clip-path="url(#p0ab5e1e507)" d="
M127.232 358.524
L127.232 353.961
L150.289 353.961
L150.289 349.399
L150.289 349.399
L150.289 344.836
L156.45 344.836
L156.45 340.274
L167.25 340.274
L167.25 335.712
L209.523 335.712
L209.523 331.149
L216.849 331.149
L216.849 326.587
L227.47 326.587
L227.47 322.025
L231.274 322.025
L231.274 317.462
L233.095 317.462
L233.095 312.9
L234.866 312.9
L234.866 308.337
L238.27 308.337
L238.27 303.775
L238.27 303.775
L238.27 299.213
L239.906 299.213
L239.906 294.65
L243.06 294.65
L243.06 290.088
L244.581 290.088
L244.581 285.526
L244.581 285.526
L244.581 280.963
L244.581 280.963
L244.581 276.401
L246.068 276.401
L246.068 271.838
L247.52 271.838
L247.52 267.276
L247.52 267.276
L247.52 262.714
L248.941 262.714
L248.941 258.151
L251.692 258.151
L251.692 253.589
L254.331 253.589
L254.331 249.027
L259.307 249.027
L259.307 244.464
L260.493 244.464
L260.493 239.902
L263.926 239.902
L263.926 235.339
L266.118 235.339
L266.118 230.777
L270.29 230.777
L270.29 226.215
L271.292 226.215
L271.292 221.652
L272.279 221.652
L272.279 217.09
L277 217.09
L277 212.527
L277.904 212.527
L277.904 207.965
L278.796 207.965
L278.796 203.403
L279.675 203.403
L279.675 198.84
L280.543 198.84
L280.543 194.278
L282.244 194.278
L282.244 189.716
L283.902 189.716
L283.902 185.153
L287.869 185.153
L287.869 180.591
L295.14 180.591
L295.14 176.028
L297.171 176.028
L297.171 171.466
L300.42 171.466
L300.42 166.904
L306.466 166.904
L306.466 162.341
L309.29 162.341
L309.29 157.779
L310.926 157.779
L310.926 153.217
L311.463 153.217
L311.463 148.654
L311.995 148.654
L311.995 144.092
L313.046 144.092
L313.046 139.529
L317.088 139.529
L317.088 134.967
L319.017 134.967
L319.017 130.405
L324.484 130.405
L324.484 125.842
L326.208 125.842
L326.208 121.28
L329.524 121.28
L329.524 116.718
L354.922 116.718
L354.922 112.155
L355.194 112.155
L355.194 107.593
L379.94 107.593
L379.94 103.03
L391.293 103.03
L391.293 98.4681
L391.293 98.4681
L391.293 98.4681
L507.225 98.4681" style="fill:none;stroke:#bf00bf;stroke-linecap:square;"/>
   </g>
   <g id="line2d_35"/>
   <g id="line2d_36">
    <path clip-path="url(#p0ab5e1e507)" d="
M150.289 358.524
L150.289 353.961
L306.466 353.961
L306.466 349.399
L318.54 349.399
L318.54 344.836
L340.633 344.836
L340.633 340.274
L356.004 340.274
L356.004 335.712
L358.374 335.712
L358.374 331.149
L369.944 331.149
L369.944 326.587
L373.314 326.587
L373.314 322.025
L374.332 322.025
L374.332 317.462
L376.906 317.462
L376.906 312.9
L377.678 312.9
L377.678 308.337
L378.819 308.337
L378.819 303.775
L392.219 303.775
L392.219 299.213
L399.045 299.213
L399.045 294.65
L401.08 294.65
L401.08 290.088
L401.08 290.088
L401.08 290.088
L507.225 290.088" style="fill:none;stroke:#ff0000;stroke-linecap:square;stroke-width:3.0;"/>
   </g>
   <g id="line2d_37"/>
   <g id="line2d_38">
    <path clip-path="url(#p0ab5e1e507)" d="
M403.954 358.524
L403.954 12.9235" style="fill:none;stroke:#000000;stroke-linecap:square;"/>
   </g>
   <g id="matplotlib.axis_1">
    <g id="xtick_1">
     <g id="line2d_39">
      <path clip-path="url(#p0ab5e1e507)" d="
M105.48 358.524
L105.48 12.9235" style="fill:none;stroke:#000000;stroke-dasharray:1.000000,3.000000;stroke-dashoffset:0.0;stroke-width:0.5;"/>
     </g>
     <g id="line2d_40">
      <defs>
       <path d="
M0 0
L0 -4" id="m93b0483c22" style="stroke:#000000;stroke-width:0.5;"/>
      </defs>
      <g>
       <use style="stroke:#000000;stroke-width:0.5;" x="105.480331599" xlink:href="#m93b0483c22" y="358.523530322"/>
      </g>
     </g>
     <g id="line2d_41">
      <defs>
       <path d="
M0 0
L0 4" id="m741efc42ff" style="stroke:#000000;stroke-width:0.5;"/>
      </defs>
      <g>
       <use style="stroke:#000000;stroke-width:0.5;" x="105.480331599" xlink:href="#m741efc42ff" y="12.9235303218"/>
      </g>
     </g>
     <g id="text_1">
      <!-- 0 -->
      <defs>
       <path d="
M4.15625 35.2969
Q4.15625 48 6.76562 55.7344
Q9.375 63.4844 14.5156 67.6719
Q19.6719 71.875 27.4844 71.875
Q33.25 71.875 37.5938 69.5469
Q41.9375 67.2344 44.7656 62.8594
Q47.6094 58.5 49.2188 52.2188
Q50.8281 45.9531 50.8281 35.2969
Q50.8281 22.7031 48.2344 14.9688
Q45.6562 7.23438 40.5 3
Q35.3594 -1.21875 27.4844 -1.21875
Q17.1406 -1.21875 11.2344 6.20312
Q4.15625 15.1406 4.15625 35.2969
M13.1875 35.2969
Q13.1875 17.6719 17.3125 11.8281
Q21.4375 6 27.4844 6
Q33.5469 6 37.6719 11.8594
Q41.7969 17.7188 41.7969 35.2969
Q41.7969 52.9844 37.6719 58.7812
Q33.5469 64.5938 27.3906 64.5938
Q21.3438 64.5938 17.7188 59.4688
Q13.1875 52.9375 13.1875 35.2969" id="ArialMT-30"/>
      </defs>
      <g transform="translate(100.813144099 376.839155322)scale(0.2 -0.2)">
       <use xlink:href="#ArialMT-30"/>
      </g>
     </g>
    </g>
    <g id="xtick_2">
     <g id="line2d_42">
      <path clip-path="url(#p0ab5e1e507)" d="
M254.331 358.524
L254.331 12.9235" style="fill:none;stroke:#000000;stroke-dasharray:1.000000,3.000000;stroke-dashoffset:0.0;stroke-width:0.5;"/>
     </g>
     <g id="line2d_43">
      <g>
       <use style="stroke:#000000;stroke-width:0.5;" x="254.33143693" xlink:href="#m93b0483c22" y="358.523530322"/>
      </g>
     </g>
     <g id="line2d_44">
      <g>
       <use style="stroke:#000000;stroke-width:0.5;" x="254.33143693" xlink:href="#m741efc42ff" y="12.9235303218"/>
      </g>
     </g>
     <g id="text_2">
      <!-- 1 -->
      <defs>
       <path d="
M37.25 0
L28.4688 0
L28.4688 56
Q25.2969 52.9844 20.1406 49.9531
Q14.9844 46.9219 10.8906 45.4062
L10.8906 53.9062
Q18.2656 57.375 23.7812 62.2969
Q29.2969 67.2344 31.5938 71.875
L37.25 71.875
z
" id="ArialMT-31"/>
      </defs>
      <g transform="translate(251.69549943 376.839155322)scale(0.2 -0.2)">
       <use xlink:href="#ArialMT-31"/>
      </g>
     </g>
    </g>
    <g id="xtick_3">
     <g id="line2d_45">
      <path clip-path="url(#p0ab5e1e507)" d="
M403.183 358.524
L403.183 12.9235" style="fill:none;stroke:#000000;stroke-dasharray:1.000000,3.000000;stroke-dashoffset:0.0;stroke-width:0.5;"/>
     </g>
     <g id="line2d_46">
      <g>
       <use style="stroke:#000000;stroke-width:0.5;" x="403.182542261" xlink:href="#m93b0483c22" y="358.523530322"/>
      </g>
     </g>
     <g id="line2d_47">
      <g>
       <use style="stroke:#000000;stroke-width:0.5;" x="403.182542261" xlink:href="#m741efc42ff" y="12.9235303218"/>
      </g>
     </g>
     <g id="text_3">
      <!-- 2 -->
      <defs>
       <path d="
M50.3438 8.45312
L50.3438 0
L3.03125 0
Q2.9375 3.17188 4.04688 6.10938
Q5.85938 10.9375 9.82812 15.625
Q13.8125 20.3125 21.3438 26.4688
Q33.0156 36.0312 37.1094 41.625
Q41.2188 47.2188 41.2188 52.2031
Q41.2188 57.4219 37.4688 61
Q33.7344 64.5938 27.7344 64.5938
Q21.3906 64.5938 17.5781 60.7812
Q13.7656 56.9844 13.7188 50.25
L4.6875 51.1719
Q5.60938 61.2812 11.6562 66.5781
Q17.7188 71.875 27.9375 71.875
Q38.2344 71.875 44.2344 66.1562
Q50.25 60.4531 50.25 52
Q50.25 47.7031 48.4844 43.5469
Q46.7344 39.4062 42.6562 34.8125
Q38.5781 30.2188 29.1094 22.2188
Q21.1875 15.5781 18.9375 13.2031
Q16.7031 10.8438 15.2344 8.45312
z
" id="ArialMT-32"/>
      </defs>
      <g transform="translate(398.441917261 376.839155322)scale(0.2 -0.2)">
       <use xlink:href="#ArialMT-32"/>
      </g>
     </g>
    </g>
    <g id="xtick_4"/>
    <g id="xtick_5">
     <g id="line2d_48">
      <defs>
       <path d="
M0 0
L0 -2" id="m177f7580d0" style="stroke:#000000;stroke-width:0.5;"/>
      </defs>
      <g>
       <use style="stroke:#000000;stroke-width:0.5;" x="72.4579000026" xlink:href="#m177f7580d0" y="358.523530322"/>
      </g>
     </g>
     <g id="line2d_49">
      <defs>
       <path d="
M0 0
L0 2" id="m5284c7e2a0" style="stroke:#000000;stroke-width:0.5;"/>
      </defs>
      <g>
       <use style="stroke:#000000;stroke-width:0.5;" x="72.4579000026" xlink:href="#m5284c7e2a0" y="12.9235303218"/>
      </g>
     </g>
    </g>
    <g id="xtick_6">
     <g id="line2d_50">
      <g>
       <use style="stroke:#000000;stroke-width:0.5;" x="82.4230036375" xlink:href="#m177f7580d0" y="358.523530322"/>
      </g>
     </g>
     <g id="line2d_51">
      <g>
       <use style="stroke:#000000;stroke-width:0.5;" x="82.4230036375" xlink:href="#m5284c7e2a0" y="12.9235303218"/>
      </g>
     </g>
    </g>
    <g id="xtick_7">
     <g id="line2d_52">
      <g>
       <use style="stroke:#000000;stroke-width:0.5;" x="91.0551690454" xlink:href="#m177f7580d0" y="358.523530322"/>
      </g>
     </g>
     <g id="line2d_53">
      <g>
       <use style="stroke:#000000;stroke-width:0.5;" x="91.0551690454" xlink:href="#m5284c7e2a0" y="12.9235303218"/>
      </g>
     </g>
    </g>
    <g id="xtick_8">
     <g id="line2d_54">
      <g>
       <use style="stroke:#000000;stroke-width:0.5;" x="98.6692785522" xlink:href="#m177f7580d0" y="358.523530322"/>
      </g>
     </g>
     <g id="line2d_55">
      <g>
       <use style="stroke:#000000;stroke-width:0.5;" x="98.6692785522" xlink:href="#m5284c7e2a0" y="12.9235303218"/>
      </g>
     </g>
    </g>
    <g id="xtick_9">
     <g id="line2d_56">
      <g>
       <use style="stroke:#000000;stroke-width:0.5;" x="150.288979192" xlink:href="#m177f7580d0" y="358.523530322"/>
      </g>
     </g>
     <g id="line2d_57">
      <g>
       <use style="stroke:#000000;stroke-width:0.5;" x="150.288979192" xlink:href="#m5284c7e2a0" y="12.9235303218"/>
      </g>
     </g>
    </g>
    <g id="xtick_10">
     <g id="line2d_58">
      <g>
       <use style="stroke:#000000;stroke-width:0.5;" x="176.500357741" xlink:href="#m177f7580d0" y="358.523530322"/>
      </g>
     </g>
     <g id="line2d_59">
      <g>
       <use style="stroke:#000000;stroke-width:0.5;" x="176.500357741" xlink:href="#m5284c7e2a0" y="12.9235303218"/>
      </g>
     </g>
    </g>
    <g id="xtick_11">
     <g id="line2d_60">
      <g>
       <use style="stroke:#000000;stroke-width:0.5;" x="195.097626784" xlink:href="#m177f7580d0" y="358.523530322"/>
      </g>
     </g>
     <g id="line2d_61">
      <g>
       <use style="stroke:#000000;stroke-width:0.5;" x="195.097626784" xlink:href="#m5284c7e2a0" y="12.9235303218"/>
      </g>
     </g>
    </g>
    <g id="xtick_12">
     <g id="line2d_62">
      <g>
       <use style="stroke:#000000;stroke-width:0.5;" x="209.522789338" xlink:href="#m177f7580d0" y="358.523530322"/>
      </g>
     </g>
     <g id="line2d_63">
      <g>
       <use style="stroke:#000000;stroke-width:0.5;" x="209.522789338" xlink:href="#m5284c7e2a0" y="12.9235303218"/>
      </g>
     </g>
    </g>
    <g id="xtick_13">
     <g id="line2d_64">
      <g>
       <use style="stroke:#000000;stroke-width:0.5;" x="221.309005334" xlink:href="#m177f7580d0" y="358.523530322"/>
      </g>
     </g>
     <g id="line2d_65">
      <g>
       <use style="stroke:#000000;stroke-width:0.5;" x="221.309005334" xlink:href="#m5284c7e2a0" y="12.9235303218"/>
      </g>
     </g>
    </g>
    <g id="xtick_14">
     <g id="line2d_66">
      <g>
       <use style="stroke:#000000;stroke-width:0.5;" x="231.274108969" xlink:href="#m177f7580d0" y="358.523530322"/>
      </g>
     </g>
     <g id="line2d_67">
      <g>
       <use style="stroke:#000000;stroke-width:0.5;" x="231.274108969" xlink:href="#m5284c7e2a0" y="12.9235303218"/>
      </g>
     </g>
    </g>
    <g id="xtick_15">
     <g id="line2d_68">
      <g>
       <use style="stroke:#000000;stroke-width:0.5;" x="239.906274376" xlink:href="#m177f7580d0" y="358.523530322"/>
      </g>
     </g>
     <g id="line2d_69">
      <g>
       <use style="stroke:#000000;stroke-width:0.5;" x="239.906274376" xlink:href="#m5284c7e2a0" y="12.9235303218"/>
      </g>
     </g>
    </g>
    <g id="xtick_16">
     <g id="line2d_70">
      <g>
       <use style="stroke:#000000;stroke-width:0.5;" x="247.520383883" xlink:href="#m177f7580d0" y="358.523530322"/>
      </g>
     </g>
     <g id="line2d_71">
      <g>
       <use style="stroke:#000000;stroke-width:0.5;" x="247.520383883" xlink:href="#m5284c7e2a0" y="12.9235303218"/>
      </g>
     </g>
    </g>
    <g id="xtick_17">
     <g id="line2d_72">
      <g>
       <use style="stroke:#000000;stroke-width:0.5;" x="299.140084523" xlink:href="#m177f7580d0" y="358.523530322"/>
      </g>
     </g>
     <g id="line2d_73">
      <g>
       <use style="stroke:#000000;stroke-width:0.5;" x="299.140084523" xlink:href="#m5284c7e2a0" y="12.9235303218"/>
      </g>
     </g>
    </g>
    <g id="xtick_18">
     <g id="line2d_74">
      <g>
       <use style="stroke:#000000;stroke-width:0.5;" x="325.351463072" xlink:href="#m177f7580d0" y="358.523530322"/>
      </g>
     </g>
     <g id="line2d_75">
      <g>
       <use style="stroke:#000000;stroke-width:0.5;" x="325.351463072" xlink:href="#m5284c7e2a0" y="12.9235303218"/>
      </g>
     </g>
    </g>
    <g id="xtick_19">
     <g id="line2d_76">
      <g>
       <use style="stroke:#000000;stroke-width:0.5;" x="343.948732115" xlink:href="#m177f7580d0" y="358.523530322"/>
      </g>
     </g>
     <g id="line2d_77">
      <g>
       <use style="stroke:#000000;stroke-width:0.5;" x="343.948732115" xlink:href="#m5284c7e2a0" y="12.9235303218"/>
      </g>
     </g>
    </g>
    <g id="xtick_20">
     <g id="line2d_78">
      <g>
       <use style="stroke:#000000;stroke-width:0.5;" x="358.373894669" xlink:href="#m177f7580d0" y="358.523530322"/>
      </g>
     </g>
     <g id="line2d_79">
      <g>
       <use style="stroke:#000000;stroke-width:0.5;" x="358.373894669" xlink:href="#m5284c7e2a0" y="12.9235303218"/>
      </g>
     </g>
    </g>
    <g id="xtick_21">
     <g id="line2d_80">
      <g>
       <use style="stroke:#000000;stroke-width:0.5;" x="370.160110665" xlink:href="#m177f7580d0" y="358.523530322"/>
      </g>
     </g>
     <g id="line2d_81">
      <g>
       <use style="stroke:#000000;stroke-width:0.5;" x="370.160110665" xlink:href="#m5284c7e2a0" y="12.9235303218"/>
      </g>
     </g>
    </g>
    <g id="xtick_22">
     <g id="line2d_82">
      <g>
       <use style="stroke:#000000;stroke-width:0.5;" x="380.1252143" xlink:href="#m177f7580d0" y="358.523530322"/>
      </g>
     </g>
     <g id="line2d_83">
      <g>
       <use style="stroke:#000000;stroke-width:0.5;" x="380.1252143" xlink:href="#m5284c7e2a0" y="12.9235303218"/>
      </g>
     </g>
    </g>
    <g id="xtick_23">
     <g id="line2d_84">
      <g>
       <use style="stroke:#000000;stroke-width:0.5;" x="388.757379707" xlink:href="#m177f7580d0" y="358.523530322"/>
      </g>
     </g>
     <g id="line2d_85">
      <g>
       <use style="stroke:#000000;stroke-width:0.5;" x="388.757379707" xlink:href="#m5284c7e2a0" y="12.9235303218"/>
      </g>
     </g>
    </g>
    <g id="xtick_24">
     <g id="line2d_86">
      <g>
       <use style="stroke:#000000;stroke-width:0.5;" x="396.371489214" xlink:href="#m177f7580d0" y="358.523530322"/>
      </g>
     </g>
     <g id="line2d_87">
      <g>
       <use style="stroke:#000000;stroke-width:0.5;" x="396.371489214" xlink:href="#m5284c7e2a0" y="12.9235303218"/>
      </g>
     </g>
    </g>
    <g id="xtick_25">
     <g id="line2d_88">
      <g>
       <use style="stroke:#000000;stroke-width:0.5;" x="447.991189854" xlink:href="#m177f7580d0" y="358.523530322"/>
      </g>
     </g>
     <g id="line2d_89">
      <g>
       <use style="stroke:#000000;stroke-width:0.5;" x="447.991189854" xlink:href="#m5284c7e2a0" y="12.9235303218"/>
      </g>
     </g>
    </g>
    <g id="xtick_26">
     <g id="line2d_90">
      <g>
       <use style="stroke:#000000;stroke-width:0.5;" x="474.202568403" xlink:href="#m177f7580d0" y="358.523530322"/>
      </g>
     </g>
     <g id="line2d_91">
      <g>
       <use style="stroke:#000000;stroke-width:0.5;" x="474.202568403" xlink:href="#m5284c7e2a0" y="12.9235303218"/>
      </g>
     </g>
    </g>
    <g id="xtick_27">
     <g id="line2d_92">
      <g>
       <use style="stroke:#000000;stroke-width:0.5;" x="492.799837446" xlink:href="#m177f7580d0" y="358.523530322"/>
      </g>
     </g>
     <g id="line2d_93">
      <g>
       <use style="stroke:#000000;stroke-width:0.5;" x="492.799837446" xlink:href="#m5284c7e2a0" y="12.9235303218"/>
      </g>
     </g>
    </g>
    <g id="xtick_28">
     <g id="line2d_94">
      <g>
       <use style="stroke:#000000;stroke-width:0.5;" x="507.225" xlink:href="#m177f7580d0" y="358.523530322"/>
      </g>
     </g>
     <g id="line2d_95">
      <g>
       <use style="stroke:#000000;stroke-width:0.5;" x="507.225" xlink:href="#m5284c7e2a0" y="12.9235303218"/>
      </g>
     </g>
    </g>
    <g id="text_4">
     <!-- log10 of FEvals / DIM -->
     <defs>
      <path d="
M9.32812 0
L9.32812 71.5781
L18.7969 71.5781
L18.7969 0
z
" id="ArialMT-49"/>
      <path d="
M40.4375 6.39062
Q35.5469 2.25 31.0312 0.53125
Q26.5156 -1.17188 21.3438 -1.17188
Q12.7969 -1.17188 8.20312 3
Q3.60938 7.17188 3.60938 13.6719
Q3.60938 17.4844 5.34375 20.625
Q7.07812 23.7812 9.89062 25.6875
Q12.7031 27.5938 16.2188 28.5625
Q18.7969 29.25 24.0312 29.8906
Q34.6719 31.1562 39.7031 32.9062
Q39.75 34.7188 39.75 35.2031
Q39.75 40.5781 37.25 42.7812
Q33.8906 45.75 27.25 45.75
Q21.0469 45.75 18.0938 43.5781
Q15.1406 41.4062 13.7188 35.8906
L5.125 37.0625
Q6.29688 42.5781 8.98438 45.9688
Q11.6719 49.3594 16.75 51.1875
Q21.8281 53.0312 28.5156 53.0312
Q35.1562 53.0312 39.2969 51.4688
Q43.4531 49.9062 45.4062 47.5312
Q47.3594 45.1719 48.1406 41.5469
Q48.5781 39.3125 48.5781 33.4531
L48.5781 21.7344
Q48.5781 9.46875 49.1406 6.21875
Q49.7031 2.98438 51.375 0
L42.1875 0
Q40.8281 2.73438 40.4375 6.39062
M39.7031 26.0312
Q34.9062 24.0781 25.3438 22.7031
Q19.9219 21.9219 17.6719 20.9375
Q15.4375 19.9688 14.2031 18.0938
Q12.9844 16.2188 12.9844 13.9219
Q12.9844 10.4062 15.6406 8.0625
Q18.3125 5.71875 23.4375 5.71875
Q28.5156 5.71875 32.4688 7.9375
Q36.4219 10.1562 38.2812 14.0156
Q39.7031 17 39.7031 22.7969
z
" id="ArialMT-61"/>
      <path d="
M4.98438 -4.29688
L13.5312 -5.5625
Q14.0625 -9.51562 16.5 -11.3281
Q19.7812 -13.7656 25.4375 -13.7656
Q31.5469 -13.7656 34.8594 -11.3281
Q38.1875 -8.89062 39.3594 -4.5
Q40.0469 -1.8125 39.9844 6.78125
Q34.2344 0 25.6406 0
Q14.9375 0 9.07812 7.71875
Q3.21875 15.4375 3.21875 26.2188
Q3.21875 33.6406 5.90625 39.9062
Q8.59375 46.1875 13.6875 49.6094
Q18.7969 53.0312 25.6875 53.0312
Q34.8594 53.0312 40.8281 45.6094
L40.8281 51.8594
L48.9219 51.8594
L48.9219 7.03125
Q48.9219 -5.07812 46.4531 -10.125
Q44 -15.1875 38.6406 -18.1094
Q33.2969 -21.0469 25.4844 -21.0469
Q16.2188 -21.0469 10.5 -16.875
Q4.78125 -12.7031 4.98438 -4.29688
M12.25 26.8594
Q12.25 16.6562 16.2969 11.9688
Q20.3594 7.28125 26.4688 7.28125
Q32.5156 7.28125 36.6094 11.9375
Q40.7188 16.6094 40.7188 26.5625
Q40.7188 36.0781 36.5 40.9062
Q32.2812 45.75 26.3125 45.75
Q20.4531 45.75 16.3438 40.9844
Q12.25 36.2344 12.25 26.8594" id="ArialMT-67"/>
      <path d="
M8.6875 0
L8.6875 45.0156
L0.921875 45.0156
L0.921875 51.8594
L8.6875 51.8594
L8.6875 57.375
Q8.6875 62.5938 9.625 65.1406
Q10.8906 68.5625 14.0781 70.6719
Q17.2812 72.7969 23.0469 72.7969
Q26.7656 72.7969 31.25 71.9219
L29.9375 64.2656
Q27.2031 64.75 24.75 64.75
Q20.75 64.75 19.0938 63.0312
Q17.4375 61.3281 17.4375 56.6406
L17.4375 51.8594
L27.5469 51.8594
L27.5469 45.0156
L17.4375 45.0156
L17.4375 0
z
" id="ArialMT-66"/>
      <path d="
M0 -1.21875
L20.75 72.7969
L27.7812 72.7969
L7.07812 -1.21875
z
" id="ArialMT-2f"/>
      <path d="
M21 0
L1.26562 51.8594
L10.5469 51.8594
L21.6875 20.7969
Q23.4844 15.7656 25 10.3594
Q26.1719 14.4531 28.2656 20.2188
L39.7969 51.8594
L48.8281 51.8594
L29.2031 0
z
" id="ArialMT-76"/>
      <path d="
M7.90625 0
L7.90625 71.5781
L59.6719 71.5781
L59.6719 63.1406
L17.3906 63.1406
L17.3906 41.2188
L56.9844 41.2188
L56.9844 32.8125
L17.3906 32.8125
L17.3906 8.45312
L61.3281 8.45312
L61.3281 0
z
" id="ArialMT-45"/>
      <path d="
M7.71875 0
L7.71875 71.5781
L32.375 71.5781
Q40.7188 71.5781 45.125 70.5625
Q51.2656 69.1406 55.6094 65.4375
Q61.2812 60.6406 64.0781 53.1875
Q66.8906 45.75 66.8906 36.1875
Q66.8906 28.0312 64.9844 21.7344
Q63.0938 15.4375 60.1094 11.2969
Q57.125 7.17188 53.5781 4.79688
Q50.0469 2.4375 45.0469 1.21875
Q40.0469 0 33.5469 0
z

M17.1875 8.45312
L32.4688 8.45312
Q39.5469 8.45312 43.5781 9.76562
Q47.6094 11.0781 50 13.4844
Q53.375 16.8438 55.25 22.5312
Q57.125 28.2188 57.125 36.3281
Q57.125 47.5625 53.4375 53.5938
Q49.75 59.625 44.4844 61.6719
Q40.6719 63.1406 32.2344 63.1406
L17.1875 63.1406
z
" id="ArialMT-44"/>
      <path d="
M8.20312 0
L8.20312 71.5781
L56.5 71.5781
L56.5 63.1406
L17.6719 63.1406
L17.6719 40.9688
L51.2656 40.9688
L51.2656 32.5156
L17.6719 32.5156
L17.6719 0
z
" id="ArialMT-46"/>
      <path d="
M6.39062 0
L6.39062 71.5781
L15.1875 71.5781
L15.1875 0
z
" id="ArialMT-6c"/>
      <path d="
M3.32812 25.9219
Q3.32812 40.3281 11.3281 47.2656
Q18.0156 53.0312 27.6406 53.0312
Q38.3281 53.0312 45.1094 46.0156
Q51.9062 39.0156 51.9062 26.6562
Q51.9062 16.6562 48.9062 10.9062
Q45.9062 5.17188 40.1562 2
Q34.4219 -1.17188 27.6406 -1.17188
Q16.75 -1.17188 10.0312 5.8125
Q3.32812 12.7969 3.32812 25.9219
M12.3594 25.9219
Q12.3594 15.9688 16.7031 11.0156
Q21.0469 6.0625 27.6406 6.0625
Q34.1875 6.0625 38.5312 11.0312
Q42.875 16.0156 42.875 26.2188
Q42.875 35.8438 38.5 40.7969
Q34.125 45.75 27.6406 45.75
Q21.0469 45.75 16.7031 40.8125
Q12.3594 35.8906 12.3594 25.9219" id="ArialMT-6f"/>
      <path d="
M3.07812 15.4844
L11.7656 16.8438
Q12.5 11.625 15.8438 8.84375
Q19.1875 6.0625 25.2031 6.0625
Q31.25 6.0625 34.1719 8.51562
Q37.1094 10.9844 37.1094 14.3125
Q37.1094 17.2812 34.5156 19
Q32.7188 20.1719 25.5312 21.9688
Q15.875 24.4219 12.1406 26.2031
Q8.40625 27.9844 6.46875 31.125
Q4.54688 34.2812 4.54688 38.0938
Q4.54688 41.5469 6.125 44.5
Q7.71875 47.4688 10.4531 49.4219
Q12.5 50.9219 16.0312 51.9688
Q19.5781 53.0312 23.6406 53.0312
Q29.7344 53.0312 34.3438 51.2656
Q38.9688 49.5156 41.1562 46.5
Q43.3594 43.5 44.1875 38.4844
L35.5938 37.3125
Q35.0156 41.3125 32.2031 43.5469
Q29.3906 45.7969 24.2656 45.7969
Q18.2188 45.7969 15.625 43.7969
Q13.0312 41.7969 13.0312 39.1094
Q13.0312 37.4062 14.1094 36.0312
Q15.1875 34.625 17.4844 33.6875
Q18.7969 33.2031 25.25 31.4531
Q34.5781 28.9531 38.25 27.3594
Q41.9375 25.7812 44.0312 22.75
Q46.1406 19.7344 46.1406 15.2344
Q46.1406 10.8438 43.5781 6.95312
Q41.0156 3.07812 36.1719 0.953125
Q31.3438 -1.17188 25.25 -1.17188
Q15.1406 -1.17188 9.84375 3.03125
Q4.54688 7.23438 3.07812 15.4844" id="ArialMT-73"/>
      <path d="
M7.42188 0
L7.42188 71.5781
L21.6875 71.5781
L38.625 20.9062
Q40.9688 13.8125 42.0469 10.2969
Q43.2656 14.2031 45.8438 21.7812
L62.9844 71.5781
L75.7344 71.5781
L75.7344 0
L66.6094 0
L66.6094 59.9062
L45.7969 0
L37.25 0
L16.5469 60.9375
L16.5469 0
z
" id="ArialMT-4d"/>
      <path id="ArialMT-20"/>
     </defs>
     <g transform="translate(189.1953125 400.373530322)scale(0.2 -0.2)">
      <use xlink:href="#ArialMT-6c"/>
      <use x="22.216796875" xlink:href="#ArialMT-6f"/>
      <use x="77.83203125" xlink:href="#ArialMT-67"/>
      <use x="133.447265625" xlink:href="#ArialMT-31"/>
      <use x="189.0625" xlink:href="#ArialMT-30"/>
      <use x="244.677734375" xlink:href="#ArialMT-20"/>
      <use x="272.4609375" xlink:href="#ArialMT-6f"/>
      <use x="328.076171875" xlink:href="#ArialMT-66"/>
      <use x="355.859375" xlink:href="#ArialMT-20"/>
      <use x="383.642578125" xlink:href="#ArialMT-46"/>
      <use x="444.7265625" xlink:href="#ArialMT-45"/>
      <use x="511.42578125" xlink:href="#ArialMT-76"/>
      <use x="561.42578125" xlink:href="#ArialMT-61"/>
      <use x="617.041015625" xlink:href="#ArialMT-6c"/>
      <use x="639.2578125" xlink:href="#ArialMT-73"/>
      <use x="689.2578125" xlink:href="#ArialMT-20"/>
      <use x="717.041015625" xlink:href="#ArialMT-2f"/>
      <use x="744.82421875" xlink:href="#ArialMT-20"/>
      <use x="772.607421875" xlink:href="#ArialMT-44"/>
      <use x="844.82421875" xlink:href="#ArialMT-49"/>
      <use x="872.607421875" xlink:href="#ArialMT-4d"/>
     </g>
    </g>
   </g>
   <g id="matplotlib.axis_2">
    <g id="ytick_1">
     <g id="line2d_96">
      <path clip-path="url(#p0ab5e1e507)" d="
M60.825 358.524
L507.225 358.524" style="fill:none;stroke:#000000;stroke-dasharray:1.000000,3.000000;stroke-dashoffset:0.0;stroke-width:0.5;"/>
     </g>
     <g id="line2d_97">
      <defs>
       <path d="
M0 0
L4 0" id="m728421d6d4" style="stroke:#000000;stroke-width:0.5;"/>
      </defs>
      <g>
       <use style="stroke:#000000;stroke-width:0.5;" x="60.825" xlink:href="#m728421d6d4" y="358.523530322"/>
      </g>
     </g>
     <g id="line2d_98">
      <defs>
       <path d="
M0 0
L-4 0" id="mcb0005524f" style="stroke:#000000;stroke-width:0.5;"/>
      </defs>
      <g>
       <use style="stroke:#000000;stroke-width:0.5;" x="507.225" xlink:href="#mcb0005524f" y="358.523530322"/>
      </g>
     </g>
     <g id="text_5">
      <!-- 0.0 -->
      <defs>
       <path d="
M9.07812 0
L9.07812 10.0156
L19.0938 10.0156
L19.0938 0
z
" id="ArialMT-2e"/>
      </defs>
      <g transform="translate(30.8125 363.693842822)scale(0.2 -0.2)">
       <use xlink:href="#ArialMT-30"/>
       <use x="55.615234375" xlink:href="#ArialMT-2e"/>
       <use x="83.3984375" xlink:href="#ArialMT-30"/>
      </g>
     </g>
    </g>
    <g id="ytick_2">
     <g id="line2d_99">
      <path clip-path="url(#p0ab5e1e507)" d="
M60.825 290.088
L507.225 290.088" style="fill:none;stroke:#000000;stroke-dasharray:1.000000,3.000000;stroke-dashoffset:0.0;stroke-width:0.5;"/>
     </g>
     <g id="line2d_100">
      <g>
       <use style="stroke:#000000;stroke-width:0.5;" x="60.825" xlink:href="#m728421d6d4" y="290.087886757"/>
      </g>
     </g>
     <g id="line2d_101">
      <g>
       <use style="stroke:#000000;stroke-width:0.5;" x="507.225" xlink:href="#mcb0005524f" y="290.087886757"/>
      </g>
     </g>
     <g id="text_6">
      <!-- 0.2 -->
      <g transform="translate(30.909375 295.258199257)scale(0.2 -0.2)">
       <use xlink:href="#ArialMT-30"/>
       <use x="55.615234375" xlink:href="#ArialMT-2e"/>
       <use x="83.3984375" xlink:href="#ArialMT-32"/>
      </g>
     </g>
    </g>
    <g id="ytick_3">
     <g id="line2d_102">
      <path clip-path="url(#p0ab5e1e507)" d="
M60.825 221.652
L507.225 221.652" style="fill:none;stroke:#000000;stroke-dasharray:1.000000,3.000000;stroke-dashoffset:0.0;stroke-width:0.5;"/>
     </g>
     <g id="line2d_103">
      <g>
       <use style="stroke:#000000;stroke-width:0.5;" x="60.825" xlink:href="#m728421d6d4" y="221.652243193"/>
      </g>
     </g>
     <g id="line2d_104">
      <g>
       <use style="stroke:#000000;stroke-width:0.5;" x="507.225" xlink:href="#mcb0005524f" y="221.652243193"/>
      </g>
     </g>
     <g id="text_7">
      <!-- 0.4 -->
      <defs>
       <path d="
M32.3281 0
L32.3281 17.1406
L1.26562 17.1406
L1.26562 25.2031
L33.9375 71.5781
L41.1094 71.5781
L41.1094 25.2031
L50.7812 25.2031
L50.7812 17.1406
L41.1094 17.1406
L41.1094 0
z

M32.3281 25.2031
L32.3281 57.4688
L9.90625 25.2031
z
" id="ArialMT-34"/>
      </defs>
      <g transform="translate(30.821875 226.822555693)scale(0.2 -0.2)">
       <use xlink:href="#ArialMT-30"/>
       <use x="55.615234375" xlink:href="#ArialMT-2e"/>
       <use x="83.3984375" xlink:href="#ArialMT-34"/>
      </g>
     </g>
    </g>
    <g id="ytick_4">
     <g id="line2d_105">
      <path clip-path="url(#p0ab5e1e507)" d="
M60.825 153.217
L507.225 153.217" style="fill:none;stroke:#000000;stroke-dasharray:1.000000,3.000000;stroke-dashoffset:0.0;stroke-width:0.5;"/>
     </g>
     <g id="line2d_106">
      <g>
       <use style="stroke:#000000;stroke-width:0.5;" x="60.825" xlink:href="#m728421d6d4" y="153.216599629"/>
      </g>
     </g>
     <g id="line2d_107">
      <g>
       <use style="stroke:#000000;stroke-width:0.5;" x="507.225" xlink:href="#mcb0005524f" y="153.216599629"/>
      </g>
     </g>
     <g id="text_8">
      <!-- 0.6 -->
      <defs>
       <path d="
M49.75 54.0469
L41.0156 53.375
Q39.8438 58.5469 37.7031 60.8906
Q34.125 64.6562 28.9062 64.6562
Q24.7031 64.6562 21.5312 62.3125
Q17.3906 59.2812 14.9844 53.4688
Q12.5938 47.6562 12.5 36.9219
Q15.6719 41.75 20.2656 44.0938
Q24.8594 46.4375 29.8906 46.4375
Q38.6719 46.4375 44.8438 39.9688
Q51.0312 33.5 51.0312 23.25
Q51.0312 16.5 48.125 10.7188
Q45.2188 4.9375 40.1406 1.85938
Q35.0625 -1.21875 28.6094 -1.21875
Q17.625 -1.21875 10.6875 6.85938
Q3.76562 14.9375 3.76562 33.5
Q3.76562 54.25 11.4219 63.6719
Q18.1094 71.875 29.4375 71.875
Q37.8906 71.875 43.2812 67.1406
Q48.6875 62.4062 49.75 54.0469
M13.875 23.1875
Q13.875 18.6562 15.7969 14.5
Q17.7188 10.3594 21.1875 8.17188
Q24.6562 6 28.4688 6
Q34.0312 6 38.0312 10.4844
Q42.0469 14.9844 42.0469 22.7031
Q42.0469 30.125 38.0781 34.3906
Q34.125 38.6719 28.125 38.6719
Q22.1719 38.6719 18.0156 34.3906
Q13.875 30.125 13.875 23.1875" id="ArialMT-36"/>
      </defs>
      <g transform="translate(30.771875 158.386912129)scale(0.2 -0.2)">
       <use xlink:href="#ArialMT-30"/>
       <use x="55.615234375" xlink:href="#ArialMT-2e"/>
       <use x="83.3984375" xlink:href="#ArialMT-36"/>
      </g>
     </g>
    </g>
    <g id="ytick_5">
     <g id="line2d_108">
      <path clip-path="url(#p0ab5e1e507)" d="
M60.825 84.781
L507.225 84.781" style="fill:none;stroke:#000000;stroke-dasharray:1.000000,3.000000;stroke-dashoffset:0.0;stroke-width:0.5;"/>
     </g>
     <g id="line2d_109">
      <g>
       <use style="stroke:#000000;stroke-width:0.5;" x="60.825" xlink:href="#m728421d6d4" y="84.7809560644"/>
      </g>
     </g>
     <g id="line2d_110">
      <g>
       <use style="stroke:#000000;stroke-width:0.5;" x="507.225" xlink:href="#mcb0005524f" y="84.7809560644"/>
      </g>
     </g>
     <g id="text_9">
      <!-- 0.8 -->
      <defs>
       <path d="
M17.6719 38.8125
Q12.2031 40.8281 9.5625 44.5312
Q6.9375 48.25 6.9375 53.4219
Q6.9375 61.2344 12.5469 66.5469
Q18.1719 71.875 27.4844 71.875
Q36.8594 71.875 42.5781 66.4219
Q48.2969 60.9844 48.2969 53.1719
Q48.2969 48.1875 45.6719 44.5
Q43.0625 40.8281 37.75 38.8125
Q44.3438 36.6719 47.7812 31.875
Q51.2188 27.0938 51.2188 20.4531
Q51.2188 11.2812 44.7188 5.03125
Q38.2344 -1.21875 27.6406 -1.21875
Q17.0469 -1.21875 10.5469 5.04688
Q4.04688 11.3281 4.04688 20.7031
Q4.04688 27.6875 7.59375 32.3906
Q11.1406 37.1094 17.6719 38.8125
M15.9219 53.7188
Q15.9219 48.6406 19.1875 45.4062
Q22.4688 42.1875 27.6875 42.1875
Q32.7656 42.1875 36.0156 45.375
Q39.2656 48.5781 39.2656 53.2188
Q39.2656 58.0625 35.9062 61.3594
Q32.5625 64.6562 27.5938 64.6562
Q22.5625 64.6562 19.2344 61.4219
Q15.9219 58.2031 15.9219 53.7188
M13.0938 20.6562
Q13.0938 16.8906 14.875 13.375
Q16.6562 9.85938 20.1719 7.92188
Q23.6875 6 27.7344 6
Q34.0312 6 38.125 10.0469
Q42.2344 14.1094 42.2344 20.3594
Q42.2344 26.7031 38.0156 30.8594
Q33.7969 35.0156 27.4375 35.0156
Q21.2344 35.0156 17.1562 30.9062
Q13.0938 26.8125 13.0938 20.6562" id="ArialMT-38"/>
      </defs>
      <g transform="translate(30.734375 89.9512685644)scale(0.2 -0.2)">
       <use xlink:href="#ArialMT-30"/>
       <use x="55.615234375" xlink:href="#ArialMT-2e"/>
       <use x="83.3984375" xlink:href="#ArialMT-38"/>
      </g>
     </g>
    </g>
    <g id="ytick_6">
     <g id="line2d_111">
      <path clip-path="url(#p0ab5e1e507)" d="
M60.825 16.3453
L507.225 16.3453" style="fill:none;stroke:#000000;stroke-dasharray:1.000000,3.000000;stroke-dashoffset:0.0;stroke-width:0.5;"/>
     </g>
     <g id="line2d_112">
      <g>
       <use style="stroke:#000000;stroke-width:0.5;" x="60.825" xlink:href="#m728421d6d4" y="16.3453125"/>
      </g>
     </g>
     <g id="line2d_113">
      <g>
       <use style="stroke:#000000;stroke-width:0.5;" x="507.225" xlink:href="#mcb0005524f" y="16.3453125"/>
      </g>
     </g>
     <g id="text_10">
      <!-- 1.0 -->
      <g transform="translate(32.159375 21.515625)scale(0.2 -0.2)">
       <use xlink:href="#ArialMT-31"/>
       <use x="55.615234375" xlink:href="#ArialMT-2e"/>
       <use x="83.3984375" xlink:href="#ArialMT-30"/>
      </g>
     </g>
    </g>
    <g id="text_11">
     <!-- proportion of trials -->
     <defs>
      <path d="
M25.7812 7.85938
L27.0469 0.09375
Q23.3438 -0.6875 20.4062 -0.6875
Q15.625 -0.6875 12.9844 0.828125
Q10.3594 2.34375 9.28125 4.8125
Q8.20312 7.28125 8.20312 15.1875
L8.20312 45.0156
L1.76562 45.0156
L1.76562 51.8594
L8.20312 51.8594
L8.20312 64.7031
L16.9375 69.9688
L16.9375 51.8594
L25.7812 51.8594
L25.7812 45.0156
L16.9375 45.0156
L16.9375 14.7031
Q16.9375 10.9375 17.4062 9.85938
Q17.875 8.79688 18.9219 8.15625
Q19.9688 7.51562 21.9219 7.51562
Q23.3906 7.51562 25.7812 7.85938" id="ArialMT-74"/>
      <path d="
M6.64062 61.4688
L6.64062 71.5781
L15.4375 71.5781
L15.4375 61.4688
z

M6.64062 0
L6.64062 51.8594
L15.4375 51.8594
L15.4375 0
z
" id="ArialMT-69"/>
      <path d="
M6.59375 -19.875
L6.59375 51.8594
L14.5938 51.8594
L14.5938 45.125
Q17.4375 49.0781 21 51.0469
Q24.5625 53.0312 29.6406 53.0312
Q36.2812 53.0312 41.3594 49.6094
Q46.4375 46.1875 49.0156 39.9531
Q51.6094 33.7344 51.6094 26.3125
Q51.6094 18.3594 48.75 11.9844
Q45.9062 5.60938 40.4531 2.21875
Q35.0156 -1.17188 29 -1.17188
Q24.6094 -1.17188 21.1094 0.6875
Q17.625 2.54688 15.375 5.375
L15.375 -19.875
z

M14.5469 25.6406
Q14.5469 15.625 18.5938 10.8438
Q22.6562 6.0625 28.4219 6.0625
Q34.2812 6.0625 38.4531 11.0156
Q42.625 15.9688 42.625 26.375
Q42.625 36.2812 38.5469 41.2031
Q34.4688 46.1406 28.8125 46.1406
Q23.1875 46.1406 18.8594 40.8906
Q14.5469 35.6406 14.5469 25.6406" id="ArialMT-70"/>
      <path d="
M6.59375 0
L6.59375 51.8594
L14.5 51.8594
L14.5 44.4844
Q20.2188 53.0312 31 53.0312
Q35.6875 53.0312 39.625 51.3438
Q43.5625 49.6562 45.5156 46.9219
Q47.4688 44.1875 48.25 40.4375
Q48.7344 37.9844 48.7344 31.8906
L48.7344 0
L39.9375 0
L39.9375 31.5469
Q39.9375 36.9219 38.9062 39.5781
Q37.8906 42.2344 35.2812 43.8125
Q32.6719 45.4062 29.1562 45.4062
Q23.5312 45.4062 19.4531 41.8438
Q15.375 38.2812 15.375 28.3281
L15.375 0
z
" id="ArialMT-6e"/>
      <path d="
M6.5 0
L6.5 51.8594
L14.4062 51.8594
L14.4062 44
Q17.4375 49.5156 20 51.2656
Q22.5625 53.0312 25.6406 53.0312
Q30.0781 53.0312 34.6719 50.2031
L31.6406 42.0469
Q28.4219 43.9531 25.2031 43.9531
Q22.3125 43.9531 20.0156 42.2188
Q17.7188 40.4844 16.75 37.4062
Q15.2812 32.7188 15.2812 27.1562
L15.2812 0
z
" id="ArialMT-72"/>
     </defs>
     <g transform="translate(21.759375 265.370405322)rotate(-90.0)scale(0.2 -0.2)">
      <use xlink:href="#ArialMT-70"/>
      <use x="55.615234375" xlink:href="#ArialMT-72"/>
      <use x="88.916015625" xlink:href="#ArialMT-6f"/>
      <use x="144.53125" xlink:href="#ArialMT-70"/>
      <use x="200.146484375" xlink:href="#ArialMT-6f"/>
      <use x="255.76171875" xlink:href="#ArialMT-72"/>
      <use x="289.0625" xlink:href="#ArialMT-74"/>
      <use x="316.845703125" xlink:href="#ArialMT-69"/>
      <use x="339.0625" xlink:href="#ArialMT-6f"/>
      <use x="394.677734375" xlink:href="#ArialMT-6e"/>
      <use x="450.29296875" xlink:href="#ArialMT-20"/>
      <use x="478.076171875" xlink:href="#ArialMT-6f"/>
      <use x="533.69140625" xlink:href="#ArialMT-66"/>
      <use x="561.474609375" xlink:href="#ArialMT-20"/>
      <use x="589.2578125" xlink:href="#ArialMT-74"/>
      <use x="617.041015625" xlink:href="#ArialMT-72"/>
      <use x="650.341796875" xlink:href="#ArialMT-69"/>
      <use x="672.55859375" xlink:href="#ArialMT-61"/>
      <use x="728.173828125" xlink:href="#ArialMT-6c"/>
      <use x="750.390625" xlink:href="#ArialMT-73"/>
     </g>
    </g>
   </g>
   <g id="patch_3">
    <path d="
M60.825 12.9235
L507.225 12.9235" style="fill:none;stroke:#000000;"/>
   </g>
   <g id="patch_4">
    <path d="
M507.225 358.524
L507.225 12.9235" style="fill:none;stroke:#000000;"/>
   </g>
   <g id="patch_5">
    <path d="
M60.825 358.524
L507.225 358.524" style="fill:none;stroke:#000000;"/>
   </g>
   <g id="patch_6">
    <path d="
M60.825 358.524
L60.825 12.9235" style="fill:none;stroke:#000000;"/>
   </g>
   <g id="text_12">
    <!-- {f15-f19}, 5-D -->
    <defs>
     <path d="
M3.17188 21.4844
L3.17188 30.3281
L30.1719 30.3281
L30.1719 21.4844
z
" id="ArialMT-2d"/>
     <path d="
M8.89062 0
L8.89062 10.0156
L18.8906 10.0156
L18.8906 0
Q18.8906 -5.51562 16.9375 -8.90625
Q14.9844 -12.3125 10.75 -14.1562
L8.29688 -10.4062
Q11.0781 -9.1875 12.3906 -6.8125
Q13.7188 -4.4375 13.875 0
z
" id="ArialMT-2c"/>
     <path d="
M5.46875 16.5469
L13.9219 17.3281
Q14.9844 11.375 18.0156 8.6875
Q21.0469 6 25.7812 6
Q29.8281 6 32.875 7.85938
Q35.9375 9.71875 37.8906 12.8125
Q39.8438 15.9219 41.1562 21.1875
Q42.4844 26.4688 42.4844 31.9375
Q42.4844 32.5156 42.4375 33.6875
Q39.7969 29.5 35.2344 26.875
Q30.6719 24.2656 25.3438 24.2656
Q16.4531 24.2656 10.2969 30.7031
Q4.15625 37.1562 4.15625 47.7031
Q4.15625 58.5938 10.5781 65.2344
Q17 71.875 26.6562 71.875
Q33.6406 71.875 39.4219 68.1094
Q45.2188 64.3594 48.2188 57.3906
Q51.2188 50.4375 51.2188 37.25
Q51.2188 23.5312 48.2344 15.4062
Q45.2656 7.28125 39.375 3.03125
Q33.5 -1.21875 25.5938 -1.21875
Q17.1875 -1.21875 11.8594 3.4375
Q6.54688 8.10938 5.46875 16.5469
M41.4531 48.1406
Q41.4531 55.7188 37.4219 60.1562
Q33.4062 64.5938 27.7344 64.5938
Q21.875 64.5938 17.5312 59.8125
Q13.1875 55.0312 13.1875 47.4062
Q13.1875 40.5781 17.3125 36.2969
Q21.4375 32.0312 27.4844 32.0312
Q33.5938 32.0312 37.5156 36.2969
Q41.4531 40.5781 41.4531 48.1406" id="ArialMT-39"/>
     <path d="
M30.5625 29.8906
L30.5625 21.9219
Q26.8125 21.8281 24.4375 19.875
Q22.0781 17.9219 21.2969 14.5781
Q20.5156 11.2344 20.4531 3.07812
Q20.4062 -5.07812 20.1719 -7.67188
Q19.7344 -11.8125 18.5312 -14.2812
Q17.3281 -16.75 15.5625 -18.2344
Q13.8125 -19.7344 11.0781 -20.5156
Q9.23438 -21.0469 5.03125 -21.0469
L2.29688 -21.0469
L2.29688 -13.375
L3.8125 -13.375
Q8.89062 -13.375 10.5469 -11.5469
Q12.2031 -9.71875 12.2031 -3.32812
Q12.2031 8.89062 12.6406 12.1562
Q13.4219 17.5781 15.7656 20.8281
Q18.1094 24.0781 22.4062 25.875
Q16.7969 28.5625 14.5 32.9844
Q12.2031 37.4062 12.2031 47.9062
Q12.2031 57.4219 11.9688 59.2812
Q11.625 62.5469 10.0312 63.8438
Q8.45312 65.1406 3.8125 65.1406
L2.29688 65.1406
L2.29688 72.7969
L5.03125 72.7969
Q9.8125 72.7969 11.9688 72.0156
Q15.0938 70.9531 17.1406 68.4062
Q19.1875 65.875 19.7969 62.0156
Q20.4062 58.1562 20.4531 49.3594
Q20.5156 40.5781 21.2969 37.2344
Q22.0781 33.8906 24.4375 31.9375
Q26.8125 29.9844 30.5625 29.8906" id="ArialMT-7d"/>
     <path d="
M4.15625 18.75
L13.375 19.5312
Q14.4062 12.7969 18.1406 9.39062
Q21.875 6 27.1562 6
Q33.5 6 37.8906 10.7812
Q42.2812 15.5781 42.2812 23.4844
Q42.2812 31 38.0625 35.3438
Q33.8438 39.7031 27 39.7031
Q22.75 39.7031 19.3281 37.7656
Q15.9219 35.8438 13.9688 32.7656
L5.71875 33.8438
L12.6406 70.6094
L48.25 70.6094
L48.25 62.2031
L19.6719 62.2031
L15.8281 42.9688
Q22.2656 47.4688 29.3438 47.4688
Q38.7188 47.4688 45.1562 40.9688
Q51.6094 34.4688 51.6094 24.2656
Q51.6094 14.5469 45.9531 7.46875
Q39.0625 -1.21875 27.1562 -1.21875
Q17.3906 -1.21875 11.2031 4.25
Q5.03125 9.71875 4.15625 18.75" id="ArialMT-35"/>
     <path d="
M2.78125 29.8906
Q6.54688 29.9844 8.90625 31.9062
Q11.2812 33.8438 12.0625 37.2031
Q12.8438 40.5781 12.8906 48.7344
Q12.9375 56.8906 13.1875 59.4688
Q13.625 63.5781 14.8125 66.0625
Q16.0156 68.5625 17.7656 70.0469
Q19.5312 71.5312 22.2656 72.3125
Q24.125 72.7969 28.3281 72.7969
L31.0625 72.7969
L31.0625 65.1406
L29.5469 65.1406
Q24.4688 65.1406 22.7969 63.2969
Q21.1406 61.4688 21.1406 55.125
Q21.1406 42.3281 20.6094 38.9688
Q19.7344 33.7344 17.6094 30.9062
Q15.4844 28.0781 10.9375 25.875
Q16.3125 23.6406 18.7188 19.0156
Q21.1406 14.4062 21.1406 3.90625
Q21.1406 -5.60938 21.3438 -7.42188
Q21.7344 -10.75 23.3125 -12.0625
Q24.9062 -13.375 29.5469 -13.375
L31.0625 -13.375
L31.0625 -21.0469
L28.3281 -21.0469
Q23.5312 -21.0469 21.3906 -20.2656
Q18.2656 -19.1406 16.2031 -16.625
Q14.1562 -14.1094 13.5469 -10.25
Q12.9375 -6.39062 12.8906 2.39062
Q12.8438 11.1875 12.0625 14.5469
Q11.2812 17.9219 8.90625 19.875
Q6.54688 21.8281 2.78125 21.9219
z
" id="ArialMT-7b"/>
    </defs>
    <g transform="translate(225.078125 34.3949053218)scale(0.2 -0.2)">
     <use xlink:href="#ArialMT-7b"/>
     <use x="33.3984375" xlink:href="#ArialMT-66"/>
     <use x="61.181640625" xlink:href="#ArialMT-31"/>
     <use x="116.796875" xlink:href="#ArialMT-35"/>
     <use x="172.412109375" xlink:href="#ArialMT-2d"/>
     <use x="205.712890625" xlink:href="#ArialMT-66"/>
     <use x="233.49609375" xlink:href="#ArialMT-31"/>
     <use x="289.111328125" xlink:href="#ArialMT-39"/>
     <use x="344.7265625" xlink:href="#ArialMT-7d"/>
     <use x="378.125" xlink:href="#ArialMT-2c"/>
     <use x="405.908203125" xlink:href="#ArialMT-20"/>
     <use x="433.69140625" xlink:href="#ArialMT-35"/>
     <use x="489.306640625" xlink:href="#ArialMT-2d"/>
     <use x="522.607421875" xlink:href="#ArialMT-44"/>
    </g>
   </g>
   <g id="text_13">
    <!-- reference budgets from refalgs/best2009-bbob.tar.gz -->
    <defs>
     <path d="
M40.4375 19
L49.0781 17.875
Q47.6562 8.9375 41.8125 3.875
Q35.9844 -1.17188 27.4844 -1.17188
Q16.8438 -1.17188 10.375 5.78125
Q3.90625 12.75 3.90625 25.7344
Q3.90625 34.125 6.6875 40.4219
Q9.46875 46.7344 15.1562 49.875
Q20.8438 53.0312 27.5469 53.0312
Q35.9844 53.0312 41.3594 48.75
Q46.7344 44.4844 48.25 36.625
L39.7031 35.2969
Q38.4844 40.5312 35.375 43.1562
Q32.2812 45.7969 27.875 45.7969
Q21.2344 45.7969 17.0781 41.0312
Q12.9375 36.2812 12.9375 25.9844
Q12.9375 15.5312 16.9375 10.7969
Q20.9531 6.0625 27.3906 6.0625
Q32.5625 6.0625 36.0312 9.23438
Q39.5 12.4062 40.4375 19" id="ArialMT-63"/>
     <path d="
M14.7031 0
L6.54688 0
L6.54688 71.5781
L15.3281 71.5781
L15.3281 46.0469
Q20.9062 53.0312 29.5469 53.0312
Q34.3281 53.0312 38.5938 51.0938
Q42.875 49.1719 45.625 45.6719
Q48.3906 42.1875 49.9531 37.25
Q51.5156 32.3281 51.5156 26.7031
Q51.5156 13.375 44.9219 6.09375
Q38.3281 -1.17188 29.1094 -1.17188
Q19.9219 -1.17188 14.7031 6.5
z

M14.5938 26.3125
Q14.5938 17 17.1406 12.8438
Q21.2969 6.0625 28.375 6.0625
Q34.125 6.0625 38.3281 11.0625
Q42.5312 16.0625 42.5312 25.9844
Q42.5312 36.1406 38.5 40.9688
Q34.4688 45.7969 28.7656 45.7969
Q23 45.7969 18.7969 40.7969
Q14.5938 35.7969 14.5938 26.3125" id="ArialMT-62"/>
     <path d="
M42.0938 16.7031
L51.1719 15.5781
Q49.0312 7.625 43.2188 3.21875
Q37.4062 -1.17188 28.375 -1.17188
Q17 -1.17188 10.3281 5.82812
Q3.65625 12.8438 3.65625 25.4844
Q3.65625 38.5781 10.3906 45.7969
Q17.1406 53.0312 27.875 53.0312
Q38.2812 53.0312 44.875 45.9531
Q51.4688 38.875 51.4688 26.0312
Q51.4688 25.25 51.4219 23.6875
L12.75 23.6875
Q13.2344 15.1406 17.5781 10.5938
Q21.9219 6.0625 28.4219 6.0625
Q33.25 6.0625 36.6719 8.59375
Q40.0938 11.1406 42.0938 16.7031
M13.2344 30.9062
L42.1875 30.9062
Q41.6094 37.4531 38.875 40.7188
Q34.6719 45.7969 27.9844 45.7969
Q21.9219 45.7969 17.7969 41.75
Q13.6719 37.7031 13.2344 30.9062" id="ArialMT-65"/>
     <path d="
M40.2344 0
L40.2344 6.54688
Q35.2969 -1.17188 25.7344 -1.17188
Q19.5312 -1.17188 14.3281 2.25
Q9.125 5.67188 6.26562 11.7969
Q3.42188 17.9219 3.42188 25.875
Q3.42188 33.6406 6 39.9688
Q8.59375 46.2969 13.7656 49.6562
Q18.9531 53.0312 25.3438 53.0312
Q30.0312 53.0312 33.6875 51.0469
Q37.3594 49.0781 39.6562 45.9062
L39.6562 71.5781
L48.3906 71.5781
L48.3906 0
z

M12.4531 25.875
Q12.4531 15.9219 16.6406 10.9844
Q20.8438 6.0625 26.5625 6.0625
Q32.3281 6.0625 36.3438 10.7656
Q40.375 15.4844 40.375 25.1406
Q40.375 35.7969 36.2656 40.7656
Q32.1719 45.75 26.1719 45.75
Q20.3125 45.75 16.375 40.9688
Q12.4531 36.1875 12.4531 25.875" id="ArialMT-64"/>
     <path d="
M40.5781 0
L40.5781 7.625
Q34.5156 -1.17188 24.125 -1.17188
Q19.5312 -1.17188 15.5469 0.578125
Q11.5781 2.34375 9.64062 5
Q7.71875 7.67188 6.9375 11.5312
Q6.39062 14.1094 6.39062 19.7344
L6.39062 51.8594
L15.1875 51.8594
L15.1875 23.0938
Q15.1875 16.2188 15.7188 13.8125
Q16.5469 10.3594 19.2344 8.375
Q21.9219 6.39062 25.875 6.39062
Q29.8281 6.39062 33.2969 8.42188
Q36.7656 10.4531 38.2031 13.9375
Q39.6562 17.4375 39.6562 24.0781
L39.6562 51.8594
L48.4375 51.8594
L48.4375 0
z
" id="ArialMT-75"/>
     <path d="
M6.59375 0
L6.59375 51.8594
L14.4531 51.8594
L14.4531 44.5781
Q16.8906 48.3906 20.9375 50.7031
Q25 53.0312 30.1719 53.0312
Q35.9375 53.0312 39.625 50.6406
Q43.3125 48.25 44.8281 43.9531
Q50.9844 53.0312 60.8438 53.0312
Q68.5625 53.0312 72.7031 48.75
Q76.8594 44.4844 76.8594 35.5938
L76.8594 0
L68.1094 0
L68.1094 32.6719
Q68.1094 37.9375 67.25 40.25
Q66.4062 42.5781 64.1562 43.9844
Q61.9219 45.4062 58.8906 45.4062
Q53.4219 45.4062 49.7969 41.7656
Q46.1875 38.1406 46.1875 30.125
L46.1875 0
L37.4062 0
L37.4062 33.6875
Q37.4062 39.5469 35.25 42.4688
Q33.1094 45.4062 28.2188 45.4062
Q24.5156 45.4062 21.3594 43.4531
Q18.2188 41.5 16.7969 37.7344
Q15.375 33.9844 15.375 26.9062
L15.375 0
z
" id="ArialMT-6d"/>
     <path d="
M1.95312 0
L1.95312 7.125
L34.9688 45.0156
Q29.3438 44.7344 25.0469 44.7344
L3.90625 44.7344
L3.90625 51.8594
L46.2969 51.8594
L46.2969 46.0469
L18.2188 13.1406
L12.7969 7.125
Q18.7031 7.5625 23.875 7.5625
L47.8594 7.5625
L47.8594 0
z
" id="ArialMT-7a"/>
    </defs>
    <g transform="translate(60.825 358.523530322)scale(0.14 -0.14)">
     <use xlink:href="#ArialMT-72"/>
     <use x="33.30078125" xlink:href="#ArialMT-65"/>
     <use x="88.916015625" xlink:href="#ArialMT-66"/>
     <use x="116.69921875" xlink:href="#ArialMT-65"/>
     <use x="172.314453125" xlink:href="#ArialMT-72"/>
     <use x="205.615234375" xlink:href="#ArialMT-65"/>
     <use x="261.23046875" xlink:href="#ArialMT-6e"/>
     <use x="316.845703125" xlink:href="#ArialMT-63"/>
     <use x="366.845703125" xlink:href="#ArialMT-65"/>
     <use x="422.4609375" xlink:href="#ArialMT-20"/>
     <use x="450.244140625" xlink:href="#ArialMT-62"/>
     <use x="505.859375" xlink:href="#ArialMT-75"/>
     <use x="561.474609375" xlink:href="#ArialMT-64"/>
     <use x="617.08984375" xlink:href="#ArialMT-67"/>
     <use x="672.705078125" xlink:href="#ArialMT-65"/>
     <use x="728.3203125" xlink:href="#ArialMT-74"/>
     <use x="756.103515625" xlink:href="#ArialMT-73"/>
     <use x="806.103515625" xlink:href="#ArialMT-20"/>
     <use x="833.88671875" xlink:href="#ArialMT-66"/>
     <use x="861.669921875" xlink:href="#ArialMT-72"/>
     <use x="894.970703125" xlink:href="#ArialMT-6f"/>
     <use x="950.5859375" xlink:href="#ArialMT-6d"/>
     <use x="1033.88671875" xlink:href="#ArialMT-20"/>
     <use x="1061.66992188" xlink:href="#ArialMT-72"/>
     <use x="1094.97070312" xlink:href="#ArialMT-65"/>
     <use x="1150.5859375" xlink:href="#ArialMT-66"/>
     <use x="1178.36914062" xlink:href="#ArialMT-61"/>
     <use x="1233.984375" xlink:href="#ArialMT-6c"/>
     <use x="1256.20117188" xlink:href="#ArialMT-67"/>
     <use x="1311.81640625" xlink:href="#ArialMT-73"/>
     <use x="1361.81640625" xlink:href="#ArialMT-2f"/>
     <use x="1389.59960938" xlink:href="#ArialMT-62"/>
     <use x="1445.21484375" xlink:href="#ArialMT-65"/>
     <use x="1500.83007812" xlink:href="#ArialMT-73"/>
     <use x="1550.83007812" xlink:href="#ArialMT-74"/>
     <use x="1578.61328125" xlink:href="#ArialMT-32"/>
     <use x="1634.22851562" xlink:href="#ArialMT-30"/>
     <use x="1689.84375" xlink:href="#ArialMT-30"/>
     <use x="1745.45898438" xlink:href="#ArialMT-39"/>
     <use x="1801.07421875" xlink:href="#ArialMT-2d"/>
     <use x="1834.375" xlink:href="#ArialMT-62"/>
     <use x="1889.99023438" xlink:href="#ArialMT-62"/>
     <use x="1945.60546875" xlink:href="#ArialMT-6f"/>
     <use x="2001.22070312" xlink:href="#ArialMT-62"/>
     <use x="2056.8359375" xlink:href="#ArialMT-2e"/>
     <use x="2084.61914062" xlink:href="#ArialMT-74"/>
     <use x="2112.40234375" xlink:href="#ArialMT-61"/>
     <use x="2168.01757812" xlink:href="#ArialMT-72"/>
     <use x="2195.81835938" xlink:href="#ArialMT-2e"/>
     <use x="2223.6015625" xlink:href="#ArialMT-67"/>
     <use x="2279.21679688" xlink:href="#ArialMT-7a"/>
    </g>
   </g>
   <g id="text_14">
    <!-- v2.0.1 -->
    <g style="fill:#808080;" transform="translate(271.38671875 353.080030322)scale(0.1 -0.1)">
     <use xlink:href="#ArialMT-76"/>
     <use x="50.0" xlink:href="#ArialMT-32"/>
     <use x="105.615234375" xlink:href="#ArialMT-2e"/>
     <use x="133.3984375" xlink:href="#ArialMT-30"/>
     <use x="189.013671875" xlink:href="#ArialMT-2e"/>
     <use x="216.796875" xlink:href="#ArialMT-31"/>
    </g>
   </g>
   <g id="legend_1">
    <g id="patch_7">
     <path d="
M70.825 142.086
L208.738 142.086
L208.738 22.9235
L70.825 22.9235
L70.825 142.086
z
" style="fill:#ffffff;opacity:0.2;stroke:#000000;"/>
    </g>
    <g id="line2d_114">
     <path d="
M84.825 38.2392
L112.825 38.2392" style="fill:none;stroke:#000000;stroke-linecap:square;"/>
    </g>
    <g id="line2d_115"/>
    <g id="text_15">
     <!-- 0.5: 4/5 -->
     <defs>
      <path d="
M9.03125 41.8438
L9.03125 51.8594
L19.0469 51.8594
L19.0469 41.8438
z

M9.03125 0
L9.03125 10.0156
L19.0469 10.0156
L19.0469 0
z
" id="ArialMT-3a"/>
     </defs>
     <g transform="translate(134.825 45.2391553218)scale(0.2 -0.2)">
      <use xlink:href="#ArialMT-30"/>
      <use x="55.615234375" xlink:href="#ArialMT-2e"/>
      <use x="83.3984375" xlink:href="#ArialMT-35"/>
      <use x="139.013671875" xlink:href="#ArialMT-3a"/>
      <use x="166.796875" xlink:href="#ArialMT-20"/>
      <use x="194.580078125" xlink:href="#ArialMT-34"/>
      <use x="250.1953125" xlink:href="#ArialMT-2f"/>
      <use x="277.978515625" xlink:href="#ArialMT-35"/>
     </g>
    </g>
    <g id="line2d_116">
     <path d="
M84.825 66.5298
L112.825 66.5298" style="fill:none;stroke:#00bfbf;stroke-linecap:square;"/>
    </g>
    <g id="line2d_117"/>
    <g id="text_16">
     <!-- 2: 4/5 -->
     <g transform="translate(134.825 73.5297803218)scale(0.2 -0.2)">
      <use xlink:href="#ArialMT-32"/>
      <use x="55.615234375" xlink:href="#ArialMT-3a"/>
      <use x="83.3984375" xlink:href="#ArialMT-20"/>
      <use x="111.181640625" xlink:href="#ArialMT-34"/>
      <use x="166.796875" xlink:href="#ArialMT-2f"/>
      <use x="194.580078125" xlink:href="#ArialMT-35"/>
     </g>
    </g>
    <g id="line2d_118">
     <path d="
M84.825 94.8204
L112.825 94.8204" style="fill:none;stroke:#bf00bf;stroke-linecap:square;"/>
    </g>
    <g id="line2d_119"/>
    <g id="text_17">
     <!-- 10: 4/5 -->
     <g transform="translate(134.825 101.820405322)scale(0.2 -0.2)">
      <use xlink:href="#ArialMT-31"/>
      <use x="55.615234375" xlink:href="#ArialMT-30"/>
      <use x="111.23046875" xlink:href="#ArialMT-3a"/>
      <use x="139.013671875" xlink:href="#ArialMT-20"/>
      <use x="166.796875" xlink:href="#ArialMT-34"/>
      <use x="222.412109375" xlink:href="#ArialMT-2f"/>
      <use x="250.1953125" xlink:href="#ArialMT-35"/>
     </g>
    </g>
    <g id="line2d_120">
     <path d="
M84.825 123.111
L112.825 123.111" style="fill:none;stroke:#ff0000;stroke-linecap:square;stroke-width:3.0;"/>
    </g>
    <g id="line2d_121"/>
    <g id="text_18">
     <!-- 50: 4/5 -->
     <g transform="translate(134.825 130.111030322)scale(0.2 -0.2)">
      <use xlink:href="#ArialMT-35"/>
      <use x="55.615234375" xlink:href="#ArialMT-30"/>
      <use x="111.23046875" xlink:href="#ArialMT-3a"/>
      <use x="139.013671875" xlink:href="#ArialMT-20"/>
      <use x="166.796875" xlink:href="#ArialMT-34"/>
      <use x="222.412109375" xlink:href="#ArialMT-2f"/>
      <use x="250.1953125" xlink:href="#ArialMT-35"/>
     </g>
    </g>
   </g>
  </g>
 </g>
 <defs>
  <clipPath id="p0ab5e1e507">
   <rect height="345.6" width="446.4" x="60.825" y="12.9235303218"/>
  </clipPath>
 </defs>
</svg>
