<?xml version="1.0" encoding="utf-8" standalone="no"?>
<!DOCTYPE svg PUBLIC "-//W3C//DTD SVG 1.1//EN"
  "http://www.w3.org/Graphics/SVG/1.1/DTD/svg11.dtd">
<!-- Created with matplotlib (http://matplotlib.org/) -->
<svg height="411pt" version="1.1" viewBox="0 0 514 411" width="514pt" xmlns="http://www.w3.org/2000/svg" xmlns:xlink="http://www.w3.org/1999/xlink">
 <defs>
  <style type="text/css">
*{stroke-linecap:butt;stroke-linejoin:round;}
  </style>
 </defs>
 <g id="figure_1">
  <g id="patch_1">
   <path d="
M0 411.783
L514.425 411.783
L514.425 0
L0 0
z
" style="fill:#ffffff;"/>
  </g>
  <g id="axes_1">
   <g id="patch_2">
    <path d="
M60.825 358.524
L507.225 358.524
L507.225 12.9235
L60.825 12.9235
z
" style="fill:#ffffff;"/>
   </g>
   <g id="line2d_1">
    <path clip-path="url(#p0ab5e1e507)" d="
M376.712 358.524
L376.712 352.821
L379.94 352.821
L379.94 347.118
L383.015 347.118
L383.015 341.415
L383.191 341.415
L383.191 335.712
L385.1 335.712
L385.1 330.009
L385.611 330.009
L385.611 324.306
L386.788 324.306
L386.788 318.603
L386.788 318.603
L386.788 312.9
L386.955 312.9
L386.955 307.197
L389.24 307.197
L389.24 301.494
L390.981 301.494
L390.981 295.791
L392.219 295.791
L392.219 290.088
L392.372 290.088
L392.372 284.385
L392.98 284.385
L392.98 278.682
L394.031 278.682
L394.031 272.979
L394.18 272.979
L394.18 267.276
L396.801 267.276
L396.801 261.573
L400.678 261.573
L400.678 255.87
L401.612 255.87
L401.612 250.167
L402.008 250.167
L402.008 244.464
L403.698 244.464
L403.698 238.761
L403.954 238.761
L403.954 233.058
L405.718 233.058
L405.718 227.355
L407.677 227.355
L407.677 221.652
L408.635 221.652
L408.635 215.949
L412.442 215.949
L412.442 210.246
L413.332 210.246
L413.332 204.543
L415.825 204.543
L415.825 198.84
L418.43 198.84
L418.43 193.137
L419.343 193.137
L419.343 187.434
L419.844 187.434
L419.844 181.731
L420.243 181.731
L420.243 176.028
L422.199 176.028
L422.199 170.326
L423.628 170.326
L423.628 164.623
L424.004 164.623
L424.004 158.92
L424.841 158.92
L424.841 153.217
L426.845 153.217
L426.845 147.514
L427.024 147.514
L427.024 141.811
L427.912 141.811
L427.912 136.108
L428.351 136.108
L428.351 130.405
L430.42 130.405
L430.42 124.702
L431.929 124.702
L431.929 118.999
L432.425 118.999
L432.425 113.296
L440.021 113.296
L440.021 107.593
L442.036 107.593
L442.036 101.89
L449.335 101.89
L449.335 96.1869
L451.33 96.1869
L451.33 90.4839
L452.787 90.4839
L452.787 84.781
L453.146 84.781
L453.146 79.078
L454.446 79.078
L454.446 73.375
L455.49 73.375
L455.49 67.672
L458.636 67.672
L458.636 61.9691
L464.302 61.9691
L464.302 56.2661
L473.683 56.2661
L473.683 50.5631
L473.683 50.5631
L473.683 50.5631
L507.225 50.5631" style="fill:none;stroke:#f5deb3;stroke-linecap:square;"/>
   </g>
   <g id="line2d_2">
    <path clip-path="url(#p0ab5e1e507)" d="
M279.675 358.524
L279.675 352.821
L282.244 352.821
L282.244 347.118
L315.601 347.118
L315.601 341.415
L332.678 341.415
L332.678 335.712
L336.051 335.712
L336.051 330.009
L339.257 330.009
L339.257 324.306
L348.323 324.306
L348.323 318.603
L354.648 318.603
L354.648 312.9
L355.465 312.9
L355.465 307.197
L360.159 307.197
L360.159 301.494
L362.627 301.494
L362.627 295.791
L365.237 295.791
L365.237 290.088
L366.16 290.088
L366.16 284.385
L370.59 284.385
L370.59 278.682
L370.803 278.682
L370.803 272.979
L377.87 272.979
L377.87 267.276
L382.661 267.276
L382.661 261.573
L385.442 261.573
L385.442 255.87
L385.442 255.87
L385.442 250.167
L387.616 250.167
L387.616 244.464
L390.196 244.464
L390.196 238.761
L391.911 238.761
L391.911 233.058
L394.476 233.058
L394.476 227.355
L405.093 227.355
L405.093 221.652
L412.217 221.652
L412.217 215.949
L414.753 215.949
L414.753 210.246
L414.969 210.246
L414.969 204.543
L421.228 204.543
L421.228 198.84
L426.755 198.84
L426.755 193.137
L427.912 193.137
L427.912 187.434
L432.178 187.434
L432.178 181.731
L432.835 181.731
L432.835 176.028
L434.529 176.028
L434.529 170.326
L435.555 170.326
L435.555 164.623
L438.166 164.623
L438.166 158.92
L438.765 158.92
L438.765 153.217
L439.137 153.217
L439.137 147.514
L441.18 147.514
L441.18 141.811
L443.854 141.811
L443.854 136.108
L448.698 136.108
L448.698 130.405
L449.081 130.405
L449.081 124.702
L449.902 124.702
L449.902 118.999
L450.651 118.999
L450.651 113.296
L451.268 113.296
L451.268 107.593
L456.575 107.593
L456.575 101.89
L456.857 101.89
L456.857 96.1869
L456.857 96.1869
L456.857 90.4839
L457.53 90.4839
L457.53 84.781
L470.294 84.781
L470.294 79.078
L471.068 79.078
L471.068 73.375
L474.289 73.375
L474.289 67.672
L474.675 67.672
L474.675 61.9691
L476.862 61.9691
L476.862 56.2661
L487.795 56.2661
L487.795 50.5631
L511.235 50.5631
L511.235 44.8602
L515.425 44.8602" style="fill:none;stroke:#f5deb3;stroke-linecap:square;"/>
   </g>
   <g id="line2d_3">
    <path clip-path="url(#p0ab5e1e507)" d="
M337.852 358.524
L337.852 352.821
L348.02 352.821
L348.02 347.118
L351.275 347.118
L351.275 341.415
L351.85 341.415
L351.85 335.712
L357.593 335.712
L357.593 330.009
L357.855 330.009
L357.855 324.306
L360.41 324.306
L360.41 318.603
L360.909 318.603
L360.909 312.9
L366.617 312.9
L366.617 307.197
L367.745 307.197
L367.745 301.494
L374.534 301.494
L374.534 295.791
L383.191 295.791
L383.191 290.088
L395.358 290.088
L395.358 284.385
L398.213 284.385
L398.213 278.682
L408.516 278.682
L408.516 272.979
L427.113 272.979
L427.113 267.276
L429.221 267.276
L429.221 261.573
L432.425 261.573
L432.425 255.87
L436.024 255.87
L436.024 250.167
L440.094 250.167
L440.094 244.464
L443.508 244.464
L443.508 238.761
L453.026 238.761
L453.026 233.058
L455.835 233.058
L455.835 227.355
L457.474 227.355
L457.474 221.652
L458.91 221.652
L458.91 215.949
L458.964 215.949
L458.964 210.246
L461.216 210.246
L461.216 204.543
L462.777 204.543
L462.777 198.84
L463.085 198.84
L463.085 193.137
L464.05 193.137
L464.05 187.434
L465.249 187.434
L465.249 181.731
L466.183 181.731
L466.183 176.028
L466.329 176.028
L466.329 170.326
L466.378 170.326
L466.378 164.623
L470.796 164.623
L470.796 158.92
L473.204 158.92
L473.204 153.217
L474.974 153.217
L474.974 147.514
L480.52 147.514
L480.52 141.811
L483.238 141.811
L483.238 136.108
L486.525 136.108
L486.525 130.405
L488.524 130.405
L488.524 124.702
L494.742 124.702
L494.742 118.999
L497.835 118.999
L497.835 113.296
L498.4 113.296
L498.4 107.593
L498.961 107.593
L498.961 101.89
L501.666 101.89
L501.666 96.1869
L502.059 96.1869
L502.059 90.4839
L504.289 90.4839
L504.289 84.781
L504.667 84.781
L504.667 79.078
L515.425 79.078" style="fill:none;stroke:#f5deb3;stroke-linecap:square;"/>
   </g>
   <g id="line2d_4">
    <path clip-path="url(#p0ab5e1e507)" d="
M523.345 358.524" style="fill:none;stroke:#f5deb3;stroke-linecap:square;"/>
   </g>
   <g id="line2d_5">
    <path clip-path="url(#p0ab5e1e507)" d="
M364.535 358.524
L364.535 341.415
L368.413 341.415
L368.413 324.306
L377.486 324.306
L377.486 307.197
L379.569 307.197
L379.569 290.088
L405.718 290.088
L405.718 272.979
L408.038 272.979
L408.038 255.87
L440.964 255.87
L440.964 238.761
L448.506 238.761
L448.506 221.652
L486.703 221.652
L486.703 204.543
L508.884 204.543
L508.884 187.434
L515.425 187.434" style="fill:none;stroke:#f5deb3;stroke-linecap:square;"/>
   </g>
   <g id="line2d_6">
    <path clip-path="url(#p0ab5e1e507)" d="
M344.592 358.524
L344.592 352.821
L360.66 352.821
L360.66 347.118
L364.77 347.118
L364.77 341.415
L374.13 341.415
L374.13 335.712
L379.195 335.712
L379.195 330.009
L381.042 330.009
L381.042 324.306
L381.224 324.306
L381.224 318.603
L384.585 318.603
L384.585 312.9
L392.98 312.9
L392.98 307.197
L393.131 307.197
L393.131 301.494
L396.658 301.494
L396.658 295.791
L403.954 295.791
L403.954 290.088
L409.579 290.088
L409.579 284.385
L411.198 284.385
L411.198 278.682
L411.992 278.682
L411.992 272.979
L413.221 272.979
L413.221 267.276
L414.645 267.276
L414.645 261.573
L417.917 261.573
L417.917 255.87
L419.04 255.87
L419.04 250.167
L422.679 250.167
L422.679 244.464
L423.06 244.464
L423.06 238.761
L423.06 238.761
L423.06 233.058
L423.534 233.058
L423.534 227.355
L425.577 227.355
L425.577 221.652
L425.851 221.652
L425.851 215.949
L427.912 215.949
L427.912 210.246
L429.994 210.246
L429.994 204.543
L432.095 204.543
L432.095 198.84
L432.835 198.84
L432.835 193.137
L433.808 193.137
L433.808 187.434
L434.767 187.434
L434.767 181.731
L438.84 181.731
L438.84 176.028
L438.989 176.028
L438.989 170.326
L443.3 170.326
L443.3 164.623
L447.145 164.623
L447.145 158.92
L450.027 158.92
L450.027 153.217
L451.145 153.217
L451.145 147.514
L455.086 147.514
L455.086 141.811
L468.765 141.811
L468.765 136.108
L470.75 136.108
L470.75 130.405
L472.056 130.405
L472.056 124.702
L473.16 124.702
L473.16 118.999
L478.617 118.999
L478.617 113.296
L480.91 113.296
L480.91 107.593
L492.411 107.593
L492.411 101.89
L494.017 101.89
L494.017 96.1869
L494.301 96.1869
L494.301 90.4839
L494.428 90.4839
L494.428 84.781
L495.892 84.781
L495.892 79.078
L496.628 79.078
L496.628 73.375
L498.103 73.375
L498.103 67.672
L498.133 67.672
L498.133 61.9691
L498.193 61.9691
L498.193 56.2661
L498.4 56.2661
L498.4 50.5631
L499.779 50.5631
L499.779 44.8602
L500.27 44.8602
L500.27 39.1572
L503.718 39.1572
L503.718 33.4542
L503.909 33.4542
L503.909 27.7513
L515.425 27.7513" style="fill:none;stroke:#f5deb3;stroke-linecap:square;"/>
   </g>
   <g id="line2d_7">
    <path clip-path="url(#p0ab5e1e507)" d="
M278.796 358.524
L278.796 352.821
L289.39 352.821
L289.39 347.118
L293.75 347.118
L293.75 341.415
L298.49 341.415
L298.49 335.712
L315.098 335.712
L315.098 330.009
L333.061 330.009
L333.061 324.306
L341.646 324.306
L341.646 318.603
L343.625 318.603
L343.625 312.9
L349.222 312.9
L349.222 307.197
L350.695 307.197
L350.695 301.494
L369.51 301.494
L369.51 295.791
L370.803 295.791
L370.803 290.088
L372.696 290.088
L372.696 284.385
L389.24 284.385
L389.24 278.682
L397.652 278.682
L397.652 272.979
L400.138 272.979
L400.138 267.276
L407.314 267.276
L407.314 261.573
L414.645 261.573
L414.645 255.87
L419.343 255.87
L419.343 250.167
L436.951 250.167
L436.951 244.464
L444.811 244.464
L444.811 238.761
L444.811 238.761
L444.811 233.058
L448.762 233.058
L448.762 227.355
L451.145 227.355
L451.145 221.652
L454.211 221.652
L454.211 215.949
L455.892 215.949
L455.892 210.246
L462.571 210.246
L462.571 204.543
L467.726 204.543
L467.726 198.84
L490.897 198.84
L490.897 193.137
L492.573 193.137
L492.573 187.434
L492.897 187.434
L492.897 181.731
L502.756 181.731
L502.756 176.028
L508.327 176.028
L508.327 170.326
L513.433 170.326
L513.433 164.623
L515.425 164.623" style="fill:none;stroke:#f5deb3;stroke-linecap:square;"/>
   </g>
   <g id="line2d_8">
    <path clip-path="url(#p0ab5e1e507)" d="
M318.06 358.524
L318.06 352.821
L342.643 352.821
L342.643 347.118
L350.403 347.118
L350.403 341.415
L358.889 341.415
L358.889 335.712
L359.4 335.712
L359.4 330.009
L371.44 330.009
L371.44 324.306
L381.224 324.306
L381.224 318.603
L384.066 318.603
L384.066 312.9
L398.907 312.9
L398.907 307.197
L407.071 307.197
L407.071 301.494
L413.221 301.494
L413.221 295.791
L415.931 295.791
L415.931 290.088
L428.176 290.088
L428.176 284.385
L430.335 284.385
L430.335 278.682
L441.108 278.682
L441.108 272.979
L449.271 272.979
L449.271 267.276
L451.145 267.276
L451.145 261.573
L455.663 261.573
L455.663 255.87
L456.914 255.87
L456.914 250.167
L468.248 250.167
L468.248 244.464
L478.576 244.464
L478.576 238.761
L480.832 238.761
L480.832 233.058
L487.795 233.058
L487.795 227.355
L488.49 227.355
L488.49 221.652
L488.628 221.652
L488.628 215.949
L488.869 215.949
L488.869 210.246
L489.109 210.246
L489.109 204.543
L489.823 204.543
L489.823 198.84
L492.67 198.84
L492.67 193.137
L494.396 193.137
L494.396 187.434
L496.261 187.434
L496.261 181.731
L499.546 181.731
L499.546 176.028
L503.335 176.028
L503.335 170.326
L506.051 170.326
L506.051 164.623
L506.549 164.623
L506.549 158.92
L511.864 158.92
L511.864 153.217
L513.245 153.217
L513.245 147.514
L515.425 147.514" style="fill:none;stroke:#f5deb3;stroke-linecap:square;"/>
   </g>
   <g id="line2d_9">
    <path clip-path="url(#p0ab5e1e507)" d="
M261.658 358.524
L261.658 352.821
L308.735 352.821
L308.735 347.118
L311.463 347.118
L311.463 341.415
L320.891 341.415
L320.891 335.712
L330.724 335.712
L330.724 330.009
L333.061 330.009
L333.061 324.306
L336.051 324.306
L336.051 318.603
L337.496 318.603
L337.496 312.9
L350.695 312.9
L350.695 307.197
L357.068 307.197
L357.068 301.494
L357.593 301.494
L357.593 295.791
L358.632 295.791
L358.632 290.088
L366.389 290.088
L366.389 284.385
L367.071 284.385
L367.071 278.682
L371.016 278.682
L371.016 272.979
L372.488 272.979
L372.488 267.276
L380.31 267.276
L380.31 261.573
L383.718 261.573
L383.718 255.87
L392.828 255.87
L392.828 250.167
L394.919 250.167
L394.919 244.464
L411.312 244.464
L411.312 238.761
L413.992 238.761
L413.992 233.058
L417.814 233.058
L417.814 227.355
L428.962 227.355
L428.962 221.652
L429.738 221.652
L429.738 215.949
L430.335 215.949
L430.335 210.246
L442.46 210.246
L442.46 204.543
L443.577 204.543
L443.577 198.84
L448.89 198.84
L448.89 193.137
L449.017 193.137
L449.017 187.434
L458.636 187.434
L458.636 181.731
L458.964 181.731
L458.964 176.028
L463.747 176.028
L463.747 170.326
L464 170.326
L464 164.623
L474.375 164.623
L474.375 158.92
L497.143 158.92
L497.143 153.217
L515.425 153.217" style="fill:none;stroke:#f5deb3;stroke-linecap:square;"/>
   </g>
   <g id="line2d_10">
    <path clip-path="url(#p0ab5e1e507)" d="
M514.988 358.524
L514.988 352.821
L515.425 352.821" style="fill:none;stroke:#f5deb3;stroke-linecap:square;"/>
   </g>
   <g id="line2d_11">
    <path clip-path="url(#p0ab5e1e507)" d="
M328.3 358.524
L328.3 352.821
L337.496 352.821
L337.496 347.118
L349.222 347.118
L349.222 341.415
L350.986 341.415
L350.986 335.712
L352.702 335.712
L352.702 330.009
L352.702 330.009
L352.702 324.306
L365.004 324.306
L365.004 318.603
L367.745 318.603
L367.745 312.9
L369.074 312.9
L369.074 307.197
L369.074 307.197
L369.074 301.494
L376.517 301.494
L376.517 295.791
L377.678 295.791
L377.678 290.088
L379.94 290.088
L379.94 284.385
L381.042 284.385
L381.042 278.682
L381.042 278.682
L381.042 272.979
L383.191 272.979
L383.191 267.276
L384.24 267.276
L384.24 261.573
L388.271 261.573
L388.271 255.87
L394.772 255.87
L394.772 250.167
L397.369 250.167
L397.369 244.464
L398.213 244.464
L398.213 238.761
L399.867 238.761
L399.867 233.058
L403.053 233.058
L403.053 227.355
L404.589 227.355
L404.589 221.652
L406.09 221.652
L406.09 215.949
L409.696 215.949
L409.696 210.246
L420.044 210.246
L420.044 204.543
L420.639 204.543
L420.639 198.84
L423.534 198.84
L423.534 193.137
L423.534 193.137
L423.534 187.434
L424.097 187.434
L424.097 181.731
L424.097 181.731
L424.097 176.028
L425.21 176.028
L425.21 170.326
L426.845 170.326
L426.845 164.623
L427.38 164.623
L427.38 158.92
L432.998 158.92
L432.998 153.217
L433.485 153.217
L433.485 147.514
L440.385 147.514
L440.385 141.811
L442.531 141.811
L442.531 136.108
L449.335 136.108
L449.335 130.405
L450.837 130.405
L450.837 124.702
L456.518 124.702
L456.518 118.999
L457.864 118.999
L457.864 113.296
L463.595 113.296
L463.595 107.593
L486.668 107.593
L486.668 101.89
L486.668 101.89
L486.668 101.89
L507.225 101.89" style="fill:none;stroke:#f5deb3;stroke-linecap:square;"/>
   </g>
   <g id="line2d_12">
    <path clip-path="url(#p0ab5e1e507)" d="
M317.576 358.524
L317.576 352.821
L321.808 352.821
L321.808 347.118
L330.724 347.118
L330.724 341.415
L331.513 341.415
L331.513 335.712
L332.292 335.712
L332.292 330.009
L348.924 330.009
L348.924 324.306
L351.85 324.306
L351.85 318.603
L353.543 318.603
L353.543 312.9
L376.712 312.9
L376.712 307.197
L381.946 307.197
L381.946 301.494
L389.72 301.494
L389.72 295.791
L390.511 295.791
L390.511 290.088
L392.524 290.088
L392.524 284.385
L395.794 284.385
L395.794 278.682
L402.794 278.682
L402.794 272.979
L403.053 272.979
L403.053 267.276
L405.219 267.276
L405.219 261.573
L405.594 261.573
L405.594 255.87
L406.582 255.87
L406.582 250.167
L407.314 250.167
L407.314 244.464
L408.754 244.464
L408.754 238.761
L408.99 238.761
L408.99 233.058
L410.969 233.058
L410.969 227.355
L412.442 227.355
L412.442 221.652
L414.969 221.652
L414.969 215.949
L415.398 215.949
L415.398 210.246
L415.931 210.246
L415.931 204.543
L416.037 204.543
L416.037 198.84
L416.565 198.84
L416.565 193.137
L417.814 193.137
L417.814 187.434
L418.532 187.434
L418.532 181.731
L419.443 181.731
L419.443 176.028
L419.544 176.028
L419.544 170.326
L421.228 170.326
L421.228 164.623
L423.06 164.623
L423.06 158.92
L423.155 158.92
L423.155 153.217
L424.47 153.217
L424.47 147.514
L425.486 147.514
L425.486 141.811
L427.202 141.811
L427.202 136.108
L429.909 136.108
L429.909 130.405
L433.566 130.405
L433.566 124.702
L437.409 124.702
L437.409 118.999
L450.899 118.999
L450.899 113.296
L459.291 113.296
L459.291 107.593
L459.885 107.593
L459.885 101.89
L460.1 101.89
L460.1 96.1869
L461.11 96.1869
L461.11 90.4839
L467.726 90.4839
L467.726 84.781
L472.278 84.781
L472.278 79.078
L473.857 79.078
L473.857 73.375
L474.073 73.375
L474.073 67.672
L476.655 67.672
L476.655 61.9691
L484.205 61.9691
L484.205 56.2661
L488.247 56.2661
L488.247 50.5631
L491.626 50.5631
L491.626 44.8602
L493.411 44.8602
L493.411 39.1572
L495.831 39.1572
L495.831 33.4542
L496.414 33.4542
L496.414 27.7513
L515.425 27.7513" style="fill:none;stroke:#f5deb3;stroke-linecap:square;"/>
   </g>
   <g id="line2d_13">
    <path clip-path="url(#p0ab5e1e507)" d="
M369.074 358.524
L369.074 352.821
L424.841 352.821
L424.841 347.118
L443.091 347.118
L443.091 341.415
L444.266 341.415
L444.266 335.712
L456.575 335.712
L456.575 330.009
L477.274 330.009
L477.274 324.306
L486.168 324.306
L486.168 318.603
L488.351 318.603
L488.351 312.9
L491.823 312.9
L491.823 307.197
L493.219 307.197
L493.219 301.494
L499.837 301.494
L499.837 295.791
L506.654 295.791
L506.654 290.088
L507.303 290.088
L507.303 284.385
L507.868 284.385
L507.868 278.682
L513.995 278.682
L513.995 272.979
L514.482 272.979
L514.482 267.276
L515.425 267.276" style="fill:none;stroke:#f5deb3;stroke-linecap:square;"/>
   </g>
   <g id="line2d_14">
    <path clip-path="url(#p0ab5e1e507)" d="
M387.616 358.524
L387.616 352.821
L408.872 352.821
L408.872 347.118
L414.645 347.118
L414.645 341.415
L415.825 341.415
L415.825 335.712
L420.441 335.712
L420.441 330.009
L421.032 330.009
L421.032 324.306
L429.308 324.306
L429.308 318.603
L430.335 318.603
L430.335 312.9
L433.808 312.9
L433.808 307.197
L436.566 307.197
L436.566 301.494
L437.027 301.494
L437.027 295.791
L437.864 295.791
L437.864 290.088
L452.183 290.088
L452.183 284.385
L458.471 284.385
L458.471 278.682
L465.398 278.682
L465.398 272.979
L465.988 272.979
L465.988 267.276
L466.621 267.276
L466.621 261.573
L467.63 261.573
L467.63 255.87
L467.869 255.87
L467.869 250.167
L473.204 250.167
L473.204 244.464
L473.247 244.464
L473.247 238.761
L476.322 238.761
L476.322 233.058
L478.697 233.058
L478.697 227.355
L480.128 227.355
L480.128 221.652
L480.481 221.652
L480.481 215.949
L480.91 215.949
L480.91 210.246
L484.057 210.246
L484.057 204.543
L484.975 204.543
L484.975 198.84
L485.048 198.84
L485.048 193.137
L485.303 193.137
L485.303 187.434
L486.24 187.434
L486.24 181.731
L486.311 181.731
L486.311 176.028
L488.108 176.028
L488.108 170.326
L488.49 170.326
L488.49 164.623
L488.731 164.623
L488.731 158.92
L489.245 158.92
L489.245 153.217
L491.097 153.217
L491.097 147.514
L507.406 147.514
L507.406 141.811
L508.733 141.811
L508.733 136.108
L508.834 136.108
L508.834 130.405
L509.411 130.405
L509.411 124.702
L509.611 124.702
L509.611 118.999
L510.033 118.999
L510.033 113.296
L513.08 113.296
L513.08 107.593
L515.194 107.593
L515.194 101.89
L515.4 101.89
L515.4 96.1869
L515.425 96.1869" style="fill:none;stroke:#f5deb3;stroke-linecap:square;"/>
   </g>
   <g id="line2d_15">
    <path clip-path="url(#p0ab5e1e507)" d="
M411.879 358.524
L411.879 352.821
L423.534 352.821
L423.534 347.118
L423.534 347.118
L423.534 341.415
L424.284 341.415
L424.284 335.712
L424.284 335.712
L424.284 330.009
L424.749 330.009
L424.749 324.306
L448.378 324.306
L448.378 318.603
L448.378 318.603
L448.378 312.9
L448.762 312.9
L448.762 307.197
L453.146 307.197
L453.146 301.494
L453.681 301.494
L453.681 295.791
L453.681 295.791
L453.681 290.088
L460.687 290.088
L460.687 284.385
L460.687 284.385
L460.687 278.682
L464.653 278.682
L464.653 272.979
L466.281 272.979
L466.281 267.276
L466.281 267.276
L466.281 261.573
L479.138 261.573
L479.138 255.87
L479.138 255.87
L479.138 250.167
L482.027 250.167
L482.027 244.464
L482.103 244.464
L482.103 238.761
L484.683 238.761
L484.683 233.058
L484.719 233.058
L484.719 227.355
L484.719 227.355
L484.719 221.652
L484.829 221.652
L484.829 215.949
L484.829 215.949
L484.829 210.246
L487.62 210.246
L487.62 204.543
L488.903 204.543
L488.903 198.84
L488.903 198.84
L488.903 193.137
L497.174 193.137
L497.174 187.434
L497.174 187.434
L497.174 181.731
L499.517 181.731
L499.517 176.028
L500.356 176.028
L500.356 170.326
L501.384 170.326
L501.384 164.623
L501.384 164.623
L501.384 158.92
L515.425 158.92" style="fill:none;stroke:#f5deb3;stroke-linecap:square;"/>
   </g>
   <g id="line2d_16">
    <path clip-path="url(#p0ab5e1e507)" d="
M204.133 358.524
L204.133 352.821
L216.849 352.821
L216.849 347.118
L229.4 347.118
L229.4 341.415
L231.274 341.415
L231.274 335.712
L250.331 335.712
L250.331 330.009
L263.926 330.009
L263.926 324.306
L263.926 324.306
L263.926 318.603
L283.078 318.603
L283.078 312.9
L298.49 312.9
L298.49 307.197
L304.711 307.197
L304.711 301.494
L305.886 301.494
L305.886 295.791
L319.491 295.791
L319.491 290.088
L320.428 290.088
L320.428 284.385
L321.808 284.385
L321.808 278.682
L324.919 278.682
L324.919 272.979
L329.524 272.979
L329.524 267.276
L330.724 267.276
L330.724 261.573
L331.903 261.573
L331.903 255.87
L331.903 255.87
L331.903 250.167
L333.061 250.167
L333.061 244.464
L336.778 244.464
L336.778 238.761
L337.496 238.761
L337.496 233.058
L337.852 233.058
L337.852 227.355
L339.257 227.355
L339.257 221.652
L343.949 221.652
L343.949 215.949
L350.986 215.949
L350.986 210.246
L352.702 210.246
L352.702 204.543
L353.821 204.543
L353.821 198.84
L355.465 198.84
L355.465 193.137
L358.632 193.137
L358.632 187.434
L360.41 187.434
L360.41 181.731
L360.909 181.731
L360.909 176.028
L361.651 176.028
L361.651 170.326
L364.063 170.326
L364.063 164.623
L365.7 164.623
L365.7 158.92
L366.389 158.92
L366.389 153.217
L367.071 153.217
L367.071 147.514
L368.634 147.514
L368.634 141.811
L370.375 141.811
L370.375 136.108
L371.229 136.108
L371.229 130.405
L372.28 130.405
L372.28 124.702
L374.332 124.702
L374.332 118.999
L375.731 118.999
L375.731 113.296
L381.224 113.296
L381.224 107.593
L387.944 107.593
L387.944 101.89
L391.603 101.89
L391.603 96.1869
L392.524 96.1869
L392.524 90.4839
L393.583 90.4839
L393.583 84.781
L394.031 84.781
L394.031 79.078
L394.476 79.078
L394.476 73.375
L407.314 73.375
L407.314 67.672
L412.442 67.672
L412.442 61.9691
L417.504 61.9691
L417.504 56.2661
L428.962 56.2661
L428.962 50.5631
L433.161 50.5631
L433.161 44.8602
L435.477 44.8602
L435.477 39.1572
L436.334 39.1572
L436.334 33.4542
L460.527 33.4542
L460.527 27.7513
L465.447 27.7513
L465.447 22.0483
L476.447 22.0483
L476.447 16.3453
L476.447 16.3453
L476.447 16.3453
L507.225 16.3453" style="fill:none;stroke:#f5deb3;stroke-linecap:square;"/>
   </g>
   <g id="line2d_17">
    <path clip-path="url(#p0ab5e1e507)" d="
M493.026 358.524
L493.026 356.623
L493.026 356.623
L493.026 356.623
L493.026 354.722
L493.026 354.722
L493.026 354.722
L493.026 352.821
L495.459 352.821
L495.459 347.118
L502.227 347.118
L502.227 341.415
L502.534 341.415
L502.534 335.712
L502.756 335.712
L502.756 330.009
L515.425 330.009
L515.425 330.009" style="fill:none;stroke:#f5deb3;stroke-linecap:square;"/>
   </g>
   <g id="line2d_18">
    <path clip-path="url(#p0ab5e1e507)" d="
M251.692 358.524
L251.692 352.821
L259.307 352.821
L259.307 347.118
L261.658 347.118
L261.658 341.415
L288.634 341.415
L288.634 335.712
L300.42 335.712
L300.42 330.009
L318.54 330.009
L318.54 324.306
L323.16 324.306
L323.16 318.603
L327.053 318.603
L327.053 312.9
L345.545 312.9
L345.545 307.197
L347.41 307.197
L347.41 301.494
L351.563 301.494
L351.563 295.791
L361.157 295.791
L361.157 290.088
L366.16 290.088
L366.16 284.385
L370.59 284.385
L370.59 278.682
L374.13 278.682
L374.13 272.979
L374.735 272.979
L374.735 267.276
L381.042 267.276
L381.042 261.573
L388.108 261.573
L388.108 255.87
L388.919 255.87
L388.919 250.167
L390.511 250.167
L390.511 244.464
L391.137 244.464
L391.137 238.761
L397.792 238.761
L397.792 233.058
L397.792 233.058
L397.792 227.355
L402.271 227.355
L402.271 221.652
L404.081 221.652
L404.081 215.949
L407.556 215.949
L407.556 210.246
L411.083 210.246
L411.083 204.543
L413.221 204.543
L413.221 198.84
L413.882 198.84
L413.882 193.137
L416.143 193.137
L416.143 187.434
L426.934 187.434
L426.934 181.731
L428.701 181.731
L428.701 176.028
L429.48 176.028
L429.48 170.326
L433.242 170.326
L433.242 164.623
L435.004 164.623
L435.004 158.92
L437.789 158.92
L437.789 153.217
L438.541 153.217
L438.541 147.514
L439.58 147.514
L439.58 141.811
L443.508 141.811
L443.508 136.108
L445.688 136.108
L445.688 130.405
L449.208 130.405
L449.208 124.702
L451.819 124.702
L451.819 118.999
L453.858 118.999
L453.858 113.296
L455.144 113.296
L455.144 107.593
L459.831 107.593
L459.831 101.89
L460.846 101.89
L460.846 96.1869
L477.233 96.1869
L477.233 90.4839
L477.725 90.4839
L477.725 84.781
L482.141 84.781
L482.141 79.078
L487.093 79.078
L487.093 73.375
L493.026 73.375
L493.026 67.672
L495.366 67.672
L495.366 61.9691
L496.2 61.9691
L496.2 56.2661
L508.505 56.2661
L508.505 50.5631
L511.96 50.5631
L511.96 44.8602
L515.425 44.8602" style="fill:none;stroke:#f5deb3;stroke-linecap:square;"/>
   </g>
   <g id="line2d_19">
    <path clip-path="url(#p0ab5e1e507)" d="
M497.924 358.524
L497.924 352.821
L515.425 352.821" style="fill:none;stroke:#f5deb3;stroke-linecap:square;"/>
   </g>
   <g id="line2d_20">
    <path clip-path="url(#p0ab5e1e507)" d="
M360.909 358.524
L360.909 352.821
L386.118 352.821
L386.118 347.118
L416.037 347.118
L416.037 341.415
L418.939 341.415
L418.939 335.712
L429.048 335.712
L429.048 330.009
L437.789 330.009
L437.789 324.306
L441.681 324.306
L441.681 318.603
L468.859 318.603
L468.859 312.9
L476.322 312.9
L476.322 307.197
L479.337 307.197
L479.337 301.494
L481.529 301.494
L481.529 295.791
L481.759 295.791
L481.759 290.088
L485.953 290.088
L485.953 284.385
L490.664 284.385
L490.664 278.682
L491.823 278.682
L491.823 272.979
L494.491 272.979
L494.491 267.276
L497.204 267.276
L497.204 261.573
L498.961 261.573
L498.961 255.87
L508.047 255.87
L508.047 250.167
L509.186 250.167
L509.186 244.464
L509.611 244.464
L509.611 238.761
L510.453 238.761
L510.453 233.058
L512.176 233.058
L512.176 227.355
L513.855 227.355
L513.855 221.652
L514.805 221.652
L514.805 215.949
L515.172 215.949
L515.172 210.246
L515.425 210.246" style="fill:none;stroke:#f5deb3;stroke-linecap:square;"/>
   </g>
   <g id="line2d_21">
    <path clip-path="url(#p0ab5e1e507)" d="
M350.403 358.524
L350.403 352.821
L355.465 352.821
L355.465 347.118
L369.51 347.118
L369.51 341.415
L380.31 341.415
L380.31 335.712
L385.271 335.712
L385.271 330.009
L398.352 330.009
L398.352 324.306
L413.663 324.306
L413.663 318.603
L429.308 318.603
L429.308 312.9
L463.696 312.9
L463.696 307.197
L470.523 307.197
L470.523 301.494
L485.23 301.494
L485.23 295.791
L501.553 295.791
L501.553 290.088
L504.586 290.088
L504.586 284.385
L507.535 284.385
L507.535 278.682
L507.766 278.682
L507.766 272.979
L511.114 272.979
L511.114 267.276
L515.425 267.276" style="fill:none;stroke:#f5deb3;stroke-linecap:square;"/>
   </g>
   <g id="line2d_22">
    <path clip-path="url(#p0ab5e1e507)" d="
M618.45 358.524" style="fill:none;stroke:#f5deb3;stroke-linecap:square;"/>
   </g>
   <g id="line2d_23">
    <path clip-path="url(#p0ab5e1e507)" d="
M540.655 358.524" style="fill:none;stroke:#f5deb3;stroke-linecap:square;"/>
   </g>
   <g id="line2d_24">
    <path clip-path="url(#p0ab5e1e507)" d="
M442.811 358.524
L442.811 352.821
L457.919 352.821
L457.919 347.118
L458.306 347.118
L458.306 341.415
L463.136 341.415
L463.136 335.712
L468.578 335.712
L468.578 330.009
L469.186 330.009
L469.186 324.306
L471.068 324.306
L471.068 318.603
L473.247 318.603
L473.247 312.9
L479.734 312.9
L479.734 307.197
L481.644 307.197
L481.644 301.494
L486.668 301.494
L486.668 295.791
L490.564 295.791
L490.564 290.088
L491.921 290.088
L491.921 284.385
L499.313 284.385
L499.313 278.682
L503.773 278.682
L503.773 272.979
L515.425 272.979" style="fill:none;stroke:#f5deb3;stroke-linecap:square;"/>
   </g>
   <g id="line2d_25">
    <path clip-path="url(#p0ab5e1e507)" d="
M370.375 358.524
L370.375 352.821
L373.314 352.821
L373.314 347.118
L373.723 347.118
L373.723 341.415
L380.125 341.415
L380.125 335.712
L382.661 335.712
L382.661 330.009
L383.367 330.009
L383.367 324.306
L386.788 324.306
L386.788 318.603
L387.451 318.603
L387.451 312.9
L392.065 312.9
L392.065 307.197
L394.919 307.197
L394.919 301.494
L396.658 301.494
L396.658 295.791
L406.582 295.791
L406.582 290.088
L406.582 290.088
L406.582 284.385
L411.426 284.385
L411.426 278.682
L414.753 278.682
L414.753 272.979
L416.984 272.979
L416.984 267.276
L417.193 267.276
L417.193 261.573
L417.504 261.573
L417.504 255.87
L420.441 255.87
L420.441 250.167
L423.816 250.167
L423.816 244.464
L423.816 244.464
L423.816 238.761
L424.097 238.761
L424.097 233.058
L426.845 233.058
L426.845 227.355
L428 227.355
L428 221.652
L428 221.652
L428 215.949
L428.526 215.949
L428.526 210.246
L429.48 210.246
L429.48 204.543
L431.095 204.543
L431.095 198.84
L431.846 198.84
L431.846 193.137
L432.012 193.137
L432.012 187.434
L432.835 187.434
L432.835 181.731
L433.161 181.731
L433.161 176.028
L433.404 176.028
L433.404 170.326
L433.727 170.326
L433.727 164.623
L438.015 164.623
L438.015 158.92
L443.091 158.92
L443.091 153.217
L443.785 153.217
L443.785 147.514
L447.602 147.514
L447.602 141.811
L451.941 141.811
L451.941 136.108
L454.446 136.108
L454.446 130.405
L458.251 130.405
L458.251 124.702
L459.831 124.702
L459.831 118.999
L465.2 118.999
L465.2 113.296
L469.233 113.296
L469.233 107.593
L471.113 107.593
L471.113 101.89
L472.941 101.89
L472.941 96.1869
L474.632 96.1869
L474.632 90.4839
L475.609 90.4839
L475.609 84.781
L477.807 84.781
L477.807 79.078
L484.242 79.078
L484.242 73.375
L495.149 73.375
L495.149 67.672
L495.304 67.672
L495.304 61.9691
L497.655 61.9691
L497.655 56.2661
L500.958 56.2661
L500.958 50.5631
L505.708 50.5631
L505.708 44.8602
L515.425 44.8602" style="fill:none;stroke:#f5deb3;stroke-linecap:square;"/>
   </g>
   <g id="line2d_26">
    <path clip-path="url(#p0ab5e1e507)" d="
M440.892 358.524
L440.892 352.821
L456.631 352.821
L456.631 347.118
L458.964 347.118
L458.964 341.415
L459.724 341.415
L459.724 335.712
L472.764 335.712
L472.764 330.009
L474.846 330.009
L474.846 324.306
L488.628 324.306
L488.628 318.603
L492.052 318.603
L492.052 312.9
L492.052 312.9
L492.052 312.9
L507.225 312.9" style="fill:none;stroke:#f5deb3;stroke-linecap:square;"/>
   </g>
   <g id="line2d_27">
    <path clip-path="url(#p0ab5e1e507)" d="
M336.415 358.524
L336.415 352.821
L342.643 352.821
L342.643 347.118
L348.323 347.118
L348.323 341.415
L357.855 341.415
L357.855 335.712
L358.115 335.712
L358.115 330.009
L358.632 330.009
L358.632 324.306
L359.907 324.306
L359.907 318.603
L361.896 318.603
L361.896 312.9
L362.627 312.9
L362.627 307.197
L364.535 307.197
L364.535 301.494
L368.634 301.494
L368.634 295.791
L369.728 295.791
L369.728 290.088
L372.071 290.088
L372.071 284.385
L377.87 284.385
L377.87 278.682
L378.061 278.682
L378.061 272.979
L389.401 272.979
L389.401 267.276
L391.137 267.276
L391.137 261.573
L394.328 261.573
L394.328 255.87
L401.214 255.87
L401.214 250.167
L401.347 250.167
L401.347 244.464
L409.579 244.464
L409.579 238.761
L410.045 238.761
L410.045 233.058
L413.553 233.058
L413.553 227.355
L420.54 227.355
L420.54 221.652
L426.485 221.652
L426.485 215.949
L431.011 215.949
L431.011 210.246
L433.566 210.246
L433.566 204.543
L433.647 204.543
L433.647 198.84
L433.647 198.84
L433.647 193.137
L433.727 193.137
L433.727 187.434
L435.32 187.434
L435.32 181.731
L436.179 181.731
L436.179 176.028
L436.797 176.028
L436.797 170.326
L437.409 170.326
L437.409 164.623
L438.015 164.623
L438.015 158.92
L439.063 158.92
L439.063 153.217
L440.458 153.217
L440.458 147.514
L441.894 147.514
L441.894 141.811
L451.084 141.811
L451.084 136.108
L451.33 136.108
L451.33 130.405
L452.244 130.405
L452.244 124.702
L462.209 124.702
L462.209 118.999
L464.352 118.999
L464.352 113.296
L468.719 113.296
L468.719 107.593
L469.186 107.593
L469.186 101.89
L472.72 101.89
L472.72 96.1869
L484.573 96.1869
L484.573 90.4839
L488.524 90.4839
L488.524 84.781
L488.731 84.781
L488.731 79.078
L490.094 79.078
L490.094 73.375
L494.93 73.375
L494.93 67.672
L498.637 67.672
L498.637 61.9691
L501.694 61.9691
L501.694 56.2661
L503.718 56.2661
L503.718 50.5631
L515.425 50.5631" style="fill:none;stroke:#f5deb3;stroke-linecap:square;"/>
   </g>
   <g id="line2d_28">
    <path clip-path="url(#p0ab5e1e507)" d="
M357.068 358.524
L357.068 352.821
L469.743 352.821
L469.743 347.118
L483.462 347.118
L483.462 341.415
L503.991 341.415
L503.991 335.712
L515.425 335.712" style="fill:none;stroke:#f5deb3;stroke-linecap:square;"/>
   </g>
   <g id="line2d_29">
    <path clip-path="url(#p0ab5e1e507)" d="
M294.449 358.524
L294.449 352.821
L294.449 352.821
L294.449 347.118
L294.449 347.118
L294.449 341.415
L295.824 341.415
L295.824 335.712
L295.824 335.712
L295.824 330.009
L295.824 330.009
L295.824 324.306
L299.14 324.306
L299.14 318.603
L299.14 318.603
L299.14 312.9
L299.14 312.9
L299.14 307.197
L327.053 307.197
L327.053 301.494
L327.053 301.494
L327.053 295.791
L327.053 295.791
L327.053 290.088
L348.624 290.088
L348.624 284.385
L348.624 284.385
L348.624 278.682
L348.624 278.682
L348.624 272.979
L353.543 272.979
L353.543 267.276
L353.543 267.276
L353.543 261.573
L353.543 261.573
L353.543 255.87
L359.654 255.87
L359.654 250.167
L359.654 250.167
L359.654 244.464
L359.654 244.464
L359.654 238.761
L363.109 238.761
L363.109 233.058
L363.109 233.058
L363.109 227.355
L363.109 227.355
L363.109 221.652
L372.28 221.652
L372.28 215.949
L372.28 215.949
L372.28 210.246
L372.28 210.246
L372.28 204.543
L374.332 204.543
L374.332 198.84
L374.332 198.84
L374.332 193.137
L374.332 193.137
L374.332 187.434
L426.033 187.434
L426.033 181.731
L426.033 181.731
L426.033 176.028
L426.033 176.028
L426.033 170.326
L434.846 170.326
L434.846 164.623
L434.846 164.623
L434.846 158.92
L434.846 158.92
L434.846 153.217
L448.378 153.217
L448.378 147.514
L448.378 147.514
L448.378 141.811
L448.378 141.811
L448.378 136.108
L492.768 136.108
L492.768 130.405
L492.768 130.405
L492.768 124.702
L492.768 124.702
L492.768 118.999
L497.685 118.999
L497.685 113.296
L497.685 113.296
L497.685 107.593
L497.685 107.593
L497.685 101.89
L499.342 101.89
L499.342 96.1869
L499.342 96.1869
L499.342 90.4839
L499.342 90.4839
L499.342 84.781
L515.425 84.781" style="fill:none;stroke:#f5deb3;stroke-linecap:square;"/>
   </g>
   <g id="line2d_30">
    <path clip-path="url(#p0ab5e1e507)" d="
M1.43787 358.524
L1.43787 352.821
L1.43787 352.821
L1.43787 347.118
L1.43787 347.118
L1.43787 341.415
L1.43787 341.415
L1.43787 335.712
L1.43787 335.712
L1.43787 330.009
L1.43787 330.009
L1.43787 324.306
L1.43787 324.306
L1.43787 318.603
L1.43787 318.603
L1.43787 312.9
L1.43787 312.9
L1.43787 307.197
L1.43787 307.197
L1.43787 301.494
L1.43787 301.494
L1.43787 295.791
L1.43787 295.791
L1.43787 290.088
L46.2465 290.088
L46.2465 284.385
L46.2465 284.385
L46.2465 278.682
L105.48 278.682
L105.48 272.979
L105.48 272.979
L105.48 267.276
L105.48 267.276
L105.48 261.573
L117.267 261.573
L117.267 255.87
L127.232 255.87
L127.232 250.167
L143.478 250.167
L143.478 244.464
L143.478 244.464
L143.478 238.761
L150.289 238.761
L150.289 233.058
L150.289 233.058
L150.289 227.355
L184.592 227.355
L184.592 221.652
L184.592 221.652
L184.592 215.949
L191.782 215.949
L191.782 210.246
L195.098 210.246
L195.098 204.543
L195.098 204.543
L195.098 198.84
L198.252 198.84
L198.252 193.137
L198.252 193.137
L198.252 187.434
L201.259 187.434
L201.259 181.731
L201.259 181.731
L201.259 176.028
L201.259 176.028
L201.259 170.326
L204.133 170.326
L204.133 164.623
L204.133 164.623
L204.133 158.92
L204.133 158.92
L204.133 153.217
L204.133 153.217
L204.133 147.514
L209.523 147.514
L209.523 141.811
L209.523 141.811
L209.523 136.108
L214.498 136.108
L214.498 130.405
L216.849 130.405
L216.849 124.702
L219.117 124.702
L219.117 118.999
L227.47 118.999
L227.47 113.296
L233.095 113.296
L233.095 107.593
L233.095 107.593
L233.095 101.89
L276.083 101.89
L276.083 96.1869
L297.171 96.1869
L297.171 90.4839
L302.294 90.4839
L302.294 84.781
L305.886 84.781
L305.886 79.078
L309.29 79.078
L309.29 73.375
L334.946 73.375
L334.946 67.672
L338.559 67.672
L338.559 61.9691
L343.625 61.9691
L343.625 56.2661
L349.222 56.2661
L349.222 50.5631
L350.986 50.5631
L350.986 44.8602
L351.85 44.8602
L351.85 39.1572
L371.861 39.1572
L371.861 33.4542
L398.907 33.4542
L398.907 27.7513
L398.907 27.7513
L398.907 27.7513
L507.225 27.7513" style="fill:none;stroke:#000000;stroke-linecap:square;"/>
   </g>
   <g id="line2d_31"/>
   <g id="line2d_32">
    <path clip-path="url(#p0ab5e1e507)" d="
M1.43787 358.524
L1.43787 352.821
L1.43787 352.821
L1.43787 347.118
L1.43787 347.118
L1.43787 341.415
L1.43787 341.415
L1.43787 335.712
L1.43787 335.712
L1.43787 330.009
L105.48 330.009
L105.48 324.306
L105.48 324.306
L105.48 318.603
L117.267 318.603
L117.267 312.9
L117.267 312.9
L117.267 307.197
L135.864 307.197
L135.864 301.494
L184.592 301.494
L184.592 295.791
L191.782 295.791
L191.782 290.088
L191.782 290.088
L191.782 284.385
L195.098 284.385
L195.098 278.682
L195.098 278.682
L195.098 272.979
L201.259 272.979
L201.259 267.276
L201.259 267.276
L201.259 261.573
L204.133 261.573
L204.133 255.87
L204.133 255.87
L204.133 250.167
L204.133 250.167
L204.133 244.464
L204.133 244.464
L204.133 238.761
L206.884 238.761
L206.884 233.058
L206.884 233.058
L206.884 227.355
L209.523 227.355
L209.523 221.652
L212.058 221.652
L212.058 215.949
L212.058 215.949
L212.058 210.246
L212.058 210.246
L212.058 204.543
L214.498 204.543
L214.498 198.84
L214.498 198.84
L214.498 193.137
L219.117 193.137
L219.117 187.434
L223.429 187.434
L223.429 181.731
L223.429 181.731
L223.429 176.028
L223.429 176.028
L223.429 170.326
L233.095 170.326
L233.095 164.623
L234.866 164.623
L234.866 158.92
L236.59 158.92
L236.59 153.217
L239.906 153.217
L239.906 147.514
L243.06 147.514
L243.06 141.811
L247.52 141.811
L247.52 136.108
L248.941 136.108
L248.941 130.405
L263.926 130.405
L263.926 124.702
L263.926 124.702
L263.926 118.999
L266.118 118.999
L266.118 113.296
L269.272 113.296
L269.272 107.593
L276.083 107.593
L276.083 101.89
L307.61 101.89
L307.61 96.1869
L309.29 96.1869
L309.29 90.4839
L325.351 90.4839
L325.351 84.781
L327.471 84.781
L327.471 79.078
L350.986 79.078
L350.986 73.375
L351.85 73.375
L351.85 67.672
L357.068 67.672
L357.068 61.9691
L357.331 61.9691
L357.331 56.2661
L364.77 56.2661
L364.77 50.5631
L367.521 50.5631
L367.521 44.8602
L382.838 44.8602
L382.838 39.1572
L400.138 39.1572
L400.138 33.4542
L400.138 33.4542
L400.138 33.4542
L507.225 33.4542" style="fill:none;stroke:#00bfbf;stroke-linecap:square;"/>
   </g>
   <g id="line2d_33"/>
   <g id="line2d_34">
    <path clip-path="url(#p0ab5e1e507)" d="
M231.274 358.524
L231.274 352.821
L244.581 352.821
L244.581 347.118
L244.581 347.118
L244.581 341.415
L248.941 341.415
L248.941 335.712
L260.493 335.712
L260.493 330.009
L261.658 330.009
L261.658 324.306
L263.926 324.306
L263.926 318.603
L266.118 318.603
L266.118 312.9
L269.272 312.9
L269.272 307.197
L270.29 307.197
L270.29 301.494
L271.292 301.494
L271.292 295.791
L275.153 295.791
L275.153 290.088
L277 290.088
L277 284.385
L277 284.385
L277 278.682
L278.796 278.682
L278.796 272.979
L279.675 272.979
L279.675 267.276
L279.675 267.276
L279.675 261.573
L279.675 261.573
L279.675 255.87
L281.399 255.87
L281.399 250.167
L283.078 250.167
L283.078 244.464
L284.715 244.464
L284.715 238.761
L291.607 238.761
L291.607 233.058
L295.14 233.058
L295.14 227.355
L297.834 227.355
L297.834 221.652
L303.514 221.652
L303.514 215.949
L303.514 215.949
L303.514 210.246
L305.886 210.246
L305.886 204.543
L308.175 204.543
L308.175 198.84
L313.046 198.84
L313.046 193.137
L314.08 193.137
L314.08 187.434
L315.098 187.434
L315.098 181.731
L319.017 181.731
L319.017 176.028
L320.891 176.028
L320.891 170.326
L327.471 170.326
L327.471 164.623
L327.471 164.623
L327.471 158.92
L328.3 158.92
L328.3 153.217
L328.3 153.217
L328.3 147.514
L328.3 147.514
L328.3 141.811
L333.443 141.811
L333.443 136.108
L337.496 136.108
L337.496 130.405
L340.292 130.405
L340.292 124.702
L342.643 124.702
L342.643 118.999
L349.816 118.999
L349.816 113.296
L362.627 113.296
L362.627 107.593
L394.031 107.593
L394.031 101.89
L394.031 101.89
L394.031 101.89
L507.225 101.89" style="fill:none;stroke:#bf00bf;stroke-linecap:square;"/>
   </g>
   <g id="line2d_35"/>
   <g id="line2d_36">
    <path clip-path="url(#p0ab5e1e507)" d="
M281.399 358.524
L281.399 352.821
L292.329 352.821
L292.329 347.118
L328.3 347.118
L328.3 341.415
L338.909 341.415
L338.909 335.712
L340.292 335.712
L340.292 330.009
L340.633 330.009
L340.633 324.306
L351.85 324.306
L351.85 318.603
L357.593 318.603
L357.593 312.9
L365.237 312.9
L365.237 307.197
L395.358 307.197
L395.358 301.494
L395.358 301.494
L395.358 301.494
L507.225 301.494" style="fill:none;stroke:#ff0000;stroke-linecap:square;stroke-width:3.0;"/>
   </g>
   <g id="line2d_37"/>
   <g id="line2d_38">
    <path clip-path="url(#p0ab5e1e507)" d="
M403.698 358.524
L403.698 12.9235" style="fill:none;stroke:#000000;stroke-linecap:square;"/>
   </g>
   <g id="matplotlib.axis_1">
    <g id="xtick_1">
     <g id="line2d_39">
      <path clip-path="url(#p0ab5e1e507)" d="
M105.48 358.524
L105.48 12.9235" style="fill:none;stroke:#000000;stroke-dasharray:1.000000,3.000000;stroke-dashoffset:0.0;stroke-width:0.5;"/>
     </g>
     <g id="line2d_40">
      <defs>
       <path d="
M0 0
L0 -4" id="m93b0483c22" style="stroke:#000000;stroke-width:0.5;"/>
      </defs>
      <g>
       <use style="stroke:#000000;stroke-width:0.5;" x="105.480331599" xlink:href="#m93b0483c22" y="358.523530322"/>
      </g>
     </g>
     <g id="line2d_41">
      <defs>
       <path d="
M0 0
L0 4" id="m741efc42ff" style="stroke:#000000;stroke-width:0.5;"/>
      </defs>
      <g>
       <use style="stroke:#000000;stroke-width:0.5;" x="105.480331599" xlink:href="#m741efc42ff" y="12.9235303218"/>
      </g>
     </g>
     <g id="text_1">
      <!-- 0 -->
      <defs>
       <path d="
M4.15625 35.2969
Q4.15625 48 6.76562 55.7344
Q9.375 63.4844 14.5156 67.6719
Q19.6719 71.875 27.4844 71.875
Q33.25 71.875 37.5938 69.5469
Q41.9375 67.2344 44.7656 62.8594
Q47.6094 58.5 49.2188 52.2188
Q50.8281 45.9531 50.8281 35.2969
Q50.8281 22.7031 48.2344 14.9688
Q45.6562 7.23438 40.5 3
Q35.3594 -1.21875 27.4844 -1.21875
Q17.1406 -1.21875 11.2344 6.20312
Q4.15625 15.1406 4.15625 35.2969
M13.1875 35.2969
Q13.1875 17.6719 17.3125 11.8281
Q21.4375 6 27.4844 6
Q33.5469 6 37.6719 11.8594
Q41.7969 17.7188 41.7969 35.2969
Q41.7969 52.9844 37.6719 58.7812
Q33.5469 64.5938 27.3906 64.5938
Q21.3438 64.5938 17.7188 59.4688
Q13.1875 52.9375 13.1875 35.2969" id="ArialMT-30"/>
      </defs>
      <g transform="translate(100.813144099 376.839155322)scale(0.2 -0.2)">
       <use xlink:href="#ArialMT-30"/>
      </g>
     </g>
    </g>
    <g id="xtick_2">
     <g id="line2d_42">
      <path clip-path="url(#p0ab5e1e507)" d="
M254.331 358.524
L254.331 12.9235" style="fill:none;stroke:#000000;stroke-dasharray:1.000000,3.000000;stroke-dashoffset:0.0;stroke-width:0.5;"/>
     </g>
     <g id="line2d_43">
      <g>
       <use style="stroke:#000000;stroke-width:0.5;" x="254.33143693" xlink:href="#m93b0483c22" y="358.523530322"/>
      </g>
     </g>
     <g id="line2d_44">
      <g>
       <use style="stroke:#000000;stroke-width:0.5;" x="254.33143693" xlink:href="#m741efc42ff" y="12.9235303218"/>
      </g>
     </g>
     <g id="text_2">
      <!-- 1 -->
      <defs>
       <path d="
M37.25 0
L28.4688 0
L28.4688 56
Q25.2969 52.9844 20.1406 49.9531
Q14.9844 46.9219 10.8906 45.4062
L10.8906 53.9062
Q18.2656 57.375 23.7812 62.2969
Q29.2969 67.2344 31.5938 71.875
L37.25 71.875
z
" id="ArialMT-31"/>
      </defs>
      <g transform="translate(251.69549943 376.839155322)scale(0.2 -0.2)">
       <use xlink:href="#ArialMT-31"/>
      </g>
     </g>
    </g>
    <g id="xtick_3">
     <g id="line2d_45">
      <path clip-path="url(#p0ab5e1e507)" d="
M403.183 358.524
L403.183 12.9235" style="fill:none;stroke:#000000;stroke-dasharray:1.000000,3.000000;stroke-dashoffset:0.0;stroke-width:0.5;"/>
     </g>
     <g id="line2d_46">
      <g>
       <use style="stroke:#000000;stroke-width:0.5;" x="403.182542261" xlink:href="#m93b0483c22" y="358.523530322"/>
      </g>
     </g>
     <g id="line2d_47">
      <g>
       <use style="stroke:#000000;stroke-width:0.5;" x="403.182542261" xlink:href="#m741efc42ff" y="12.9235303218"/>
      </g>
     </g>
     <g id="text_3">
      <!-- 2 -->
      <defs>
       <path d="
M50.3438 8.45312
L50.3438 0
L3.03125 0
Q2.9375 3.17188 4.04688 6.10938
Q5.85938 10.9375 9.82812 15.625
Q13.8125 20.3125 21.3438 26.4688
Q33.0156 36.0312 37.1094 41.625
Q41.2188 47.2188 41.2188 52.2031
Q41.2188 57.4219 37.4688 61
Q33.7344 64.5938 27.7344 64.5938
Q21.3906 64.5938 17.5781 60.7812
Q13.7656 56.9844 13.7188 50.25
L4.6875 51.1719
Q5.60938 61.2812 11.6562 66.5781
Q17.7188 71.875 27.9375 71.875
Q38.2344 71.875 44.2344 66.1562
Q50.25 60.4531 50.25 52
Q50.25 47.7031 48.4844 43.5469
Q46.7344 39.4062 42.6562 34.8125
Q38.5781 30.2188 29.1094 22.2188
Q21.1875 15.5781 18.9375 13.2031
Q16.7031 10.8438 15.2344 8.45312
z
" id="ArialMT-32"/>
      </defs>
      <g transform="translate(398.441917261 376.839155322)scale(0.2 -0.2)">
       <use xlink:href="#ArialMT-32"/>
      </g>
     </g>
    </g>
    <g id="xtick_4"/>
    <g id="xtick_5">
     <g id="line2d_48">
      <defs>
       <path d="
M0 0
L0 -2" id="m177f7580d0" style="stroke:#000000;stroke-width:0.5;"/>
      </defs>
      <g>
       <use style="stroke:#000000;stroke-width:0.5;" x="72.4579000026" xlink:href="#m177f7580d0" y="358.523530322"/>
      </g>
     </g>
     <g id="line2d_49">
      <defs>
       <path d="
M0 0
L0 2" id="m5284c7e2a0" style="stroke:#000000;stroke-width:0.5;"/>
      </defs>
      <g>
       <use style="stroke:#000000;stroke-width:0.5;" x="72.4579000026" xlink:href="#m5284c7e2a0" y="12.9235303218"/>
      </g>
     </g>
    </g>
    <g id="xtick_6">
     <g id="line2d_50">
      <g>
       <use style="stroke:#000000;stroke-width:0.5;" x="82.4230036375" xlink:href="#m177f7580d0" y="358.523530322"/>
      </g>
     </g>
     <g id="line2d_51">
      <g>
       <use style="stroke:#000000;stroke-width:0.5;" x="82.4230036375" xlink:href="#m5284c7e2a0" y="12.9235303218"/>
      </g>
     </g>
    </g>
    <g id="xtick_7">
     <g id="line2d_52">
      <g>
       <use style="stroke:#000000;stroke-width:0.5;" x="91.0551690454" xlink:href="#m177f7580d0" y="358.523530322"/>
      </g>
     </g>
     <g id="line2d_53">
      <g>
       <use style="stroke:#000000;stroke-width:0.5;" x="91.0551690454" xlink:href="#m5284c7e2a0" y="12.9235303218"/>
      </g>
     </g>
    </g>
    <g id="xtick_8">
     <g id="line2d_54">
      <g>
       <use style="stroke:#000000;stroke-width:0.5;" x="98.6692785522" xlink:href="#m177f7580d0" y="358.523530322"/>
      </g>
     </g>
     <g id="line2d_55">
      <g>
       <use style="stroke:#000000;stroke-width:0.5;" x="98.6692785522" xlink:href="#m5284c7e2a0" y="12.9235303218"/>
      </g>
     </g>
    </g>
    <g id="xtick_9">
     <g id="line2d_56">
      <g>
       <use style="stroke:#000000;stroke-width:0.5;" x="150.288979192" xlink:href="#m177f7580d0" y="358.523530322"/>
      </g>
     </g>
     <g id="line2d_57">
      <g>
       <use style="stroke:#000000;stroke-width:0.5;" x="150.288979192" xlink:href="#m5284c7e2a0" y="12.9235303218"/>
      </g>
     </g>
    </g>
    <g id="xtick_10">
     <g id="line2d_58">
      <g>
       <use style="stroke:#000000;stroke-width:0.5;" x="176.500357741" xlink:href="#m177f7580d0" y="358.523530322"/>
      </g>
     </g>
     <g id="line2d_59">
      <g>
       <use style="stroke:#000000;stroke-width:0.5;" x="176.500357741" xlink:href="#m5284c7e2a0" y="12.9235303218"/>
      </g>
     </g>
    </g>
    <g id="xtick_11">
     <g id="line2d_60">
      <g>
       <use style="stroke:#000000;stroke-width:0.5;" x="195.097626784" xlink:href="#m177f7580d0" y="358.523530322"/>
      </g>
     </g>
     <g id="line2d_61">
      <g>
       <use style="stroke:#000000;stroke-width:0.5;" x="195.097626784" xlink:href="#m5284c7e2a0" y="12.9235303218"/>
      </g>
     </g>
    </g>
    <g id="xtick_12">
     <g id="line2d_62">
      <g>
       <use style="stroke:#000000;stroke-width:0.5;" x="209.522789338" xlink:href="#m177f7580d0" y="358.523530322"/>
      </g>
     </g>
     <g id="line2d_63">
      <g>
       <use style="stroke:#000000;stroke-width:0.5;" x="209.522789338" xlink:href="#m5284c7e2a0" y="12.9235303218"/>
      </g>
     </g>
    </g>
    <g id="xtick_13">
     <g id="line2d_64">
      <g>
       <use style="stroke:#000000;stroke-width:0.5;" x="221.309005334" xlink:href="#m177f7580d0" y="358.523530322"/>
      </g>
     </g>
     <g id="line2d_65">
      <g>
       <use style="stroke:#000000;stroke-width:0.5;" x="221.309005334" xlink:href="#m5284c7e2a0" y="12.9235303218"/>
      </g>
     </g>
    </g>
    <g id="xtick_14">
     <g id="line2d_66">
      <g>
       <use style="stroke:#000000;stroke-width:0.5;" x="231.274108969" xlink:href="#m177f7580d0" y="358.523530322"/>
      </g>
     </g>
     <g id="line2d_67">
      <g>
       <use style="stroke:#000000;stroke-width:0.5;" x="231.274108969" xlink:href="#m5284c7e2a0" y="12.9235303218"/>
      </g>
     </g>
    </g>
    <g id="xtick_15">
     <g id="line2d_68">
      <g>
       <use style="stroke:#000000;stroke-width:0.5;" x="239.906274376" xlink:href="#m177f7580d0" y="358.523530322"/>
      </g>
     </g>
     <g id="line2d_69">
      <g>
       <use style="stroke:#000000;stroke-width:0.5;" x="239.906274376" xlink:href="#m5284c7e2a0" y="12.9235303218"/>
      </g>
     </g>
    </g>
    <g id="xtick_16">
     <g id="line2d_70">
      <g>
       <use style="stroke:#000000;stroke-width:0.5;" x="247.520383883" xlink:href="#m177f7580d0" y="358.523530322"/>
      </g>
     </g>
     <g id="line2d_71">
      <g>
       <use style="stroke:#000000;stroke-width:0.5;" x="247.520383883" xlink:href="#m5284c7e2a0" y="12.9235303218"/>
      </g>
     </g>
    </g>
    <g id="xtick_17">
     <g id="line2d_72">
      <g>
       <use style="stroke:#000000;stroke-width:0.5;" x="299.140084523" xlink:href="#m177f7580d0" y="358.523530322"/>
      </g>
     </g>
     <g id="line2d_73">
      <g>
       <use style="stroke:#000000;stroke-width:0.5;" x="299.140084523" xlink:href="#m5284c7e2a0" y="12.9235303218"/>
      </g>
     </g>
    </g>
    <g id="xtick_18">
     <g id="line2d_74">
      <g>
       <use style="stroke:#000000;stroke-width:0.5;" x="325.351463072" xlink:href="#m177f7580d0" y="358.523530322"/>
      </g>
     </g>
     <g id="line2d_75">
      <g>
       <use style="stroke:#000000;stroke-width:0.5;" x="325.351463072" xlink:href="#m5284c7e2a0" y="12.9235303218"/>
      </g>
     </g>
    </g>
    <g id="xtick_19">
     <g id="line2d_76">
      <g>
       <use style="stroke:#000000;stroke-width:0.5;" x="343.948732115" xlink:href="#m177f7580d0" y="358.523530322"/>
      </g>
     </g>
     <g id="line2d_77">
      <g>
       <use style="stroke:#000000;stroke-width:0.5;" x="343.948732115" xlink:href="#m5284c7e2a0" y="12.9235303218"/>
      </g>
     </g>
    </g>
    <g id="xtick_20">
     <g id="line2d_78">
      <g>
       <use style="stroke:#000000;stroke-width:0.5;" x="358.373894669" xlink:href="#m177f7580d0" y="358.523530322"/>
      </g>
     </g>
     <g id="line2d_79">
      <g>
       <use style="stroke:#000000;stroke-width:0.5;" x="358.373894669" xlink:href="#m5284c7e2a0" y="12.9235303218"/>
      </g>
     </g>
    </g>
    <g id="xtick_21">
     <g id="line2d_80">
      <g>
       <use style="stroke:#000000;stroke-width:0.5;" x="370.160110665" xlink:href="#m177f7580d0" y="358.523530322"/>
      </g>
     </g>
     <g id="line2d_81">
      <g>
       <use style="stroke:#000000;stroke-width:0.5;" x="370.160110665" xlink:href="#m5284c7e2a0" y="12.9235303218"/>
      </g>
     </g>
    </g>
    <g id="xtick_22">
     <g id="line2d_82">
      <g>
       <use style="stroke:#000000;stroke-width:0.5;" x="380.1252143" xlink:href="#m177f7580d0" y="358.523530322"/>
      </g>
     </g>
     <g id="line2d_83">
      <g>
       <use style="stroke:#000000;stroke-width:0.5;" x="380.1252143" xlink:href="#m5284c7e2a0" y="12.9235303218"/>
      </g>
     </g>
    </g>
    <g id="xtick_23">
     <g id="line2d_84">
      <g>
       <use style="stroke:#000000;stroke-width:0.5;" x="388.757379707" xlink:href="#m177f7580d0" y="358.523530322"/>
      </g>
     </g>
     <g id="line2d_85">
      <g>
       <use style="stroke:#000000;stroke-width:0.5;" x="388.757379707" xlink:href="#m5284c7e2a0" y="12.9235303218"/>
      </g>
     </g>
    </g>
    <g id="xtick_24">
     <g id="line2d_86">
      <g>
       <use style="stroke:#000000;stroke-width:0.5;" x="396.371489214" xlink:href="#m177f7580d0" y="358.523530322"/>
      </g>
     </g>
     <g id="line2d_87">
      <g>
       <use style="stroke:#000000;stroke-width:0.5;" x="396.371489214" xlink:href="#m5284c7e2a0" y="12.9235303218"/>
      </g>
     </g>
    </g>
    <g id="xtick_25">
     <g id="line2d_88">
      <g>
       <use style="stroke:#000000;stroke-width:0.5;" x="447.991189854" xlink:href="#m177f7580d0" y="358.523530322"/>
      </g>
     </g>
     <g id="line2d_89">
      <g>
       <use style="stroke:#000000;stroke-width:0.5;" x="447.991189854" xlink:href="#m5284c7e2a0" y="12.9235303218"/>
      </g>
     </g>
    </g>
    <g id="xtick_26">
     <g id="line2d_90">
      <g>
       <use style="stroke:#000000;stroke-width:0.5;" x="474.202568403" xlink:href="#m177f7580d0" y="358.523530322"/>
      </g>
     </g>
     <g id="line2d_91">
      <g>
       <use style="stroke:#000000;stroke-width:0.5;" x="474.202568403" xlink:href="#m5284c7e2a0" y="12.9235303218"/>
      </g>
     </g>
    </g>
    <g id="xtick_27">
     <g id="line2d_92">
      <g>
       <use style="stroke:#000000;stroke-width:0.5;" x="492.799837446" xlink:href="#m177f7580d0" y="358.523530322"/>
      </g>
     </g>
     <g id="line2d_93">
      <g>
       <use style="stroke:#000000;stroke-width:0.5;" x="492.799837446" xlink:href="#m5284c7e2a0" y="12.9235303218"/>
      </g>
     </g>
    </g>
    <g id="xtick_28">
     <g id="line2d_94">
      <g>
       <use style="stroke:#000000;stroke-width:0.5;" x="507.225" xlink:href="#m177f7580d0" y="358.523530322"/>
      </g>
     </g>
     <g id="line2d_95">
      <g>
       <use style="stroke:#000000;stroke-width:0.5;" x="507.225" xlink:href="#m5284c7e2a0" y="12.9235303218"/>
      </g>
     </g>
    </g>
    <g id="text_4">
     <!-- log10 of FEvals / DIM -->
     <defs>
      <path d="
M9.32812 0
L9.32812 71.5781
L18.7969 71.5781
L18.7969 0
z
" id="ArialMT-49"/>
      <path d="
M40.4375 6.39062
Q35.5469 2.25 31.0312 0.53125
Q26.5156 -1.17188 21.3438 -1.17188
Q12.7969 -1.17188 8.20312 3
Q3.60938 7.17188 3.60938 13.6719
Q3.60938 17.4844 5.34375 20.625
Q7.07812 23.7812 9.89062 25.6875
Q12.7031 27.5938 16.2188 28.5625
Q18.7969 29.25 24.0312 29.8906
Q34.6719 31.1562 39.7031 32.9062
Q39.75 34.7188 39.75 35.2031
Q39.75 40.5781 37.25 42.7812
Q33.8906 45.75 27.25 45.75
Q21.0469 45.75 18.0938 43.5781
Q15.1406 41.4062 13.7188 35.8906
L5.125 37.0625
Q6.29688 42.5781 8.98438 45.9688
Q11.6719 49.3594 16.75 51.1875
Q21.8281 53.0312 28.5156 53.0312
Q35.1562 53.0312 39.2969 51.4688
Q43.4531 49.9062 45.4062 47.5312
Q47.3594 45.1719 48.1406 41.5469
Q48.5781 39.3125 48.5781 33.4531
L48.5781 21.7344
Q48.5781 9.46875 49.1406 6.21875
Q49.7031 2.98438 51.375 0
L42.1875 0
Q40.8281 2.73438 40.4375 6.39062
M39.7031 26.0312
Q34.9062 24.0781 25.3438 22.7031
Q19.9219 21.9219 17.6719 20.9375
Q15.4375 19.9688 14.2031 18.0938
Q12.9844 16.2188 12.9844 13.9219
Q12.9844 10.4062 15.6406 8.0625
Q18.3125 5.71875 23.4375 5.71875
Q28.5156 5.71875 32.4688 7.9375
Q36.4219 10.1562 38.2812 14.0156
Q39.7031 17 39.7031 22.7969
z
" id="ArialMT-61"/>
      <path d="
M4.98438 -4.29688
L13.5312 -5.5625
Q14.0625 -9.51562 16.5 -11.3281
Q19.7812 -13.7656 25.4375 -13.7656
Q31.5469 -13.7656 34.8594 -11.3281
Q38.1875 -8.89062 39.3594 -4.5
Q40.0469 -1.8125 39.9844 6.78125
Q34.2344 0 25.6406 0
Q14.9375 0 9.07812 7.71875
Q3.21875 15.4375 3.21875 26.2188
Q3.21875 33.6406 5.90625 39.9062
Q8.59375 46.1875 13.6875 49.6094
Q18.7969 53.0312 25.6875 53.0312
Q34.8594 53.0312 40.8281 45.6094
L40.8281 51.8594
L48.9219 51.8594
L48.9219 7.03125
Q48.9219 -5.07812 46.4531 -10.125
Q44 -15.1875 38.6406 -18.1094
Q33.2969 -21.0469 25.4844 -21.0469
Q16.2188 -21.0469 10.5 -16.875
Q4.78125 -12.7031 4.98438 -4.29688
M12.25 26.8594
Q12.25 16.6562 16.2969 11.9688
Q20.3594 7.28125 26.4688 7.28125
Q32.5156 7.28125 36.6094 11.9375
Q40.7188 16.6094 40.7188 26.5625
Q40.7188 36.0781 36.5 40.9062
Q32.2812 45.75 26.3125 45.75
Q20.4531 45.75 16.3438 40.9844
Q12.25 36.2344 12.25 26.8594" id="ArialMT-67"/>
      <path d="
M8.6875 0
L8.6875 45.0156
L0.921875 45.0156
L0.921875 51.8594
L8.6875 51.8594
L8.6875 57.375
Q8.6875 62.5938 9.625 65.1406
Q10.8906 68.5625 14.0781 70.6719
Q17.2812 72.7969 23.0469 72.7969
Q26.7656 72.7969 31.25 71.9219
L29.9375 64.2656
Q27.2031 64.75 24.75 64.75
Q20.75 64.75 19.0938 63.0312
Q17.4375 61.3281 17.4375 56.6406
L17.4375 51.8594
L27.5469 51.8594
L27.5469 45.0156
L17.4375 45.0156
L17.4375 0
z
" id="ArialMT-66"/>
      <path d="
M0 -1.21875
L20.75 72.7969
L27.7812 72.7969
L7.07812 -1.21875
z
" id="ArialMT-2f"/>
      <path d="
M21 0
L1.26562 51.8594
L10.5469 51.8594
L21.6875 20.7969
Q23.4844 15.7656 25 10.3594
Q26.1719 14.4531 28.2656 20.2188
L39.7969 51.8594
L48.8281 51.8594
L29.2031 0
z
" id="ArialMT-76"/>
      <path d="
M7.90625 0
L7.90625 71.5781
L59.6719 71.5781
L59.6719 63.1406
L17.3906 63.1406
L17.3906 41.2188
L56.9844 41.2188
L56.9844 32.8125
L17.3906 32.8125
L17.3906 8.45312
L61.3281 8.45312
L61.3281 0
z
" id="ArialMT-45"/>
      <path d="
M7.71875 0
L7.71875 71.5781
L32.375 71.5781
Q40.7188 71.5781 45.125 70.5625
Q51.2656 69.1406 55.6094 65.4375
Q61.2812 60.6406 64.0781 53.1875
Q66.8906 45.75 66.8906 36.1875
Q66.8906 28.0312 64.9844 21.7344
Q63.0938 15.4375 60.1094 11.2969
Q57.125 7.17188 53.5781 4.79688
Q50.0469 2.4375 45.0469 1.21875
Q40.0469 0 33.5469 0
z

M17.1875 8.45312
L32.4688 8.45312
Q39.5469 8.45312 43.5781 9.76562
Q47.6094 11.0781 50 13.4844
Q53.375 16.8438 55.25 22.5312
Q57.125 28.2188 57.125 36.3281
Q57.125 47.5625 53.4375 53.5938
Q49.75 59.625 44.4844 61.6719
Q40.6719 63.1406 32.2344 63.1406
L17.1875 63.1406
z
" id="ArialMT-44"/>
      <path d="
M8.20312 0
L8.20312 71.5781
L56.5 71.5781
L56.5 63.1406
L17.6719 63.1406
L17.6719 40.9688
L51.2656 40.9688
L51.2656 32.5156
L17.6719 32.5156
L17.6719 0
z
" id="ArialMT-46"/>
      <path d="
M6.39062 0
L6.39062 71.5781
L15.1875 71.5781
L15.1875 0
z
" id="ArialMT-6c"/>
      <path d="
M3.32812 25.9219
Q3.32812 40.3281 11.3281 47.2656
Q18.0156 53.0312 27.6406 53.0312
Q38.3281 53.0312 45.1094 46.0156
Q51.9062 39.0156 51.9062 26.6562
Q51.9062 16.6562 48.9062 10.9062
Q45.9062 5.17188 40.1562 2
Q34.4219 -1.17188 27.6406 -1.17188
Q16.75 -1.17188 10.0312 5.8125
Q3.32812 12.7969 3.32812 25.9219
M12.3594 25.9219
Q12.3594 15.9688 16.7031 11.0156
Q21.0469 6.0625 27.6406 6.0625
Q34.1875 6.0625 38.5312 11.0312
Q42.875 16.0156 42.875 26.2188
Q42.875 35.8438 38.5 40.7969
Q34.125 45.75 27.6406 45.75
Q21.0469 45.75 16.7031 40.8125
Q12.3594 35.8906 12.3594 25.9219" id="ArialMT-6f"/>
      <path d="
M3.07812 15.4844
L11.7656 16.8438
Q12.5 11.625 15.8438 8.84375
Q19.1875 6.0625 25.2031 6.0625
Q31.25 6.0625 34.1719 8.51562
Q37.1094 10.9844 37.1094 14.3125
Q37.1094 17.2812 34.5156 19
Q32.7188 20.1719 25.5312 21.9688
Q15.875 24.4219 12.1406 26.2031
Q8.40625 27.9844 6.46875 31.125
Q4.54688 34.2812 4.54688 38.0938
Q4.54688 41.5469 6.125 44.5
Q7.71875 47.4688 10.4531 49.4219
Q12.5 50.9219 16.0312 51.9688
Q19.5781 53.0312 23.6406 53.0312
Q29.7344 53.0312 34.3438 51.2656
Q38.9688 49.5156 41.1562 46.5
Q43.3594 43.5 44.1875 38.4844
L35.5938 37.3125
Q35.0156 41.3125 32.2031 43.5469
Q29.3906 45.7969 24.2656 45.7969
Q18.2188 45.7969 15.625 43.7969
Q13.0312 41.7969 13.0312 39.1094
Q13.0312 37.4062 14.1094 36.0312
Q15.1875 34.625 17.4844 33.6875
Q18.7969 33.2031 25.25 31.4531
Q34.5781 28.9531 38.25 27.3594
Q41.9375 25.7812 44.0312 22.75
Q46.1406 19.7344 46.1406 15.2344
Q46.1406 10.8438 43.5781 6.95312
Q41.0156 3.07812 36.1719 0.953125
Q31.3438 -1.17188 25.25 -1.17188
Q15.1406 -1.17188 9.84375 3.03125
Q4.54688 7.23438 3.07812 15.4844" id="ArialMT-73"/>
      <path d="
M7.42188 0
L7.42188 71.5781
L21.6875 71.5781
L38.625 20.9062
Q40.9688 13.8125 42.0469 10.2969
Q43.2656 14.2031 45.8438 21.7812
L62.9844 71.5781
L75.7344 71.5781
L75.7344 0
L66.6094 0
L66.6094 59.9062
L45.7969 0
L37.25 0
L16.5469 60.9375
L16.5469 0
z
" id="ArialMT-4d"/>
      <path id="ArialMT-20"/>
     </defs>
     <g transform="translate(189.1953125 400.373530322)scale(0.2 -0.2)">
      <use xlink:href="#ArialMT-6c"/>
      <use x="22.216796875" xlink:href="#ArialMT-6f"/>
      <use x="77.83203125" xlink:href="#ArialMT-67"/>
      <use x="133.447265625" xlink:href="#ArialMT-31"/>
      <use x="189.0625" xlink:href="#ArialMT-30"/>
      <use x="244.677734375" xlink:href="#ArialMT-20"/>
      <use x="272.4609375" xlink:href="#ArialMT-6f"/>
      <use x="328.076171875" xlink:href="#ArialMT-66"/>
      <use x="355.859375" xlink:href="#ArialMT-20"/>
      <use x="383.642578125" xlink:href="#ArialMT-46"/>
      <use x="444.7265625" xlink:href="#ArialMT-45"/>
      <use x="511.42578125" xlink:href="#ArialMT-76"/>
      <use x="561.42578125" xlink:href="#ArialMT-61"/>
      <use x="617.041015625" xlink:href="#ArialMT-6c"/>
      <use x="639.2578125" xlink:href="#ArialMT-73"/>
      <use x="689.2578125" xlink:href="#ArialMT-20"/>
      <use x="717.041015625" xlink:href="#ArialMT-2f"/>
      <use x="744.82421875" xlink:href="#ArialMT-20"/>
      <use x="772.607421875" xlink:href="#ArialMT-44"/>
      <use x="844.82421875" xlink:href="#ArialMT-49"/>
      <use x="872.607421875" xlink:href="#ArialMT-4d"/>
     </g>
    </g>
   </g>
   <g id="matplotlib.axis_2">
    <g id="ytick_1">
     <g id="line2d_96">
      <path clip-path="url(#p0ab5e1e507)" d="
M60.825 358.524
L507.225 358.524" style="fill:none;stroke:#000000;stroke-dasharray:1.000000,3.000000;stroke-dashoffset:0.0;stroke-width:0.5;"/>
     </g>
     <g id="line2d_97">
      <defs>
       <path d="
M0 0
L4 0" id="m728421d6d4" style="stroke:#000000;stroke-width:0.5;"/>
      </defs>
      <g>
       <use style="stroke:#000000;stroke-width:0.5;" x="60.825" xlink:href="#m728421d6d4" y="358.523530322"/>
      </g>
     </g>
     <g id="line2d_98">
      <defs>
       <path d="
M0 0
L-4 0" id="mcb0005524f" style="stroke:#000000;stroke-width:0.5;"/>
      </defs>
      <g>
       <use style="stroke:#000000;stroke-width:0.5;" x="507.225" xlink:href="#mcb0005524f" y="358.523530322"/>
      </g>
     </g>
     <g id="text_5">
      <!-- 0.0 -->
      <defs>
       <path d="
M9.07812 0
L9.07812 10.0156
L19.0938 10.0156
L19.0938 0
z
" id="ArialMT-2e"/>
      </defs>
      <g transform="translate(30.8125 363.693842822)scale(0.2 -0.2)">
       <use xlink:href="#ArialMT-30"/>
       <use x="55.615234375" xlink:href="#ArialMT-2e"/>
       <use x="83.3984375" xlink:href="#ArialMT-30"/>
      </g>
     </g>
    </g>
    <g id="ytick_2">
     <g id="line2d_99">
      <path clip-path="url(#p0ab5e1e507)" d="
M60.825 290.088
L507.225 290.088" style="fill:none;stroke:#000000;stroke-dasharray:1.000000,3.000000;stroke-dashoffset:0.0;stroke-width:0.5;"/>
     </g>
     <g id="line2d_100">
      <g>
       <use style="stroke:#000000;stroke-width:0.5;" x="60.825" xlink:href="#m728421d6d4" y="290.087886757"/>
      </g>
     </g>
     <g id="line2d_101">
      <g>
       <use style="stroke:#000000;stroke-width:0.5;" x="507.225" xlink:href="#mcb0005524f" y="290.087886757"/>
      </g>
     </g>
     <g id="text_6">
      <!-- 0.2 -->
      <g transform="translate(30.909375 295.258199257)scale(0.2 -0.2)">
       <use xlink:href="#ArialMT-30"/>
       <use x="55.615234375" xlink:href="#ArialMT-2e"/>
       <use x="83.3984375" xlink:href="#ArialMT-32"/>
      </g>
     </g>
    </g>
    <g id="ytick_3">
     <g id="line2d_102">
      <path clip-path="url(#p0ab5e1e507)" d="
M60.825 221.652
L507.225 221.652" style="fill:none;stroke:#000000;stroke-dasharray:1.000000,3.000000;stroke-dashoffset:0.0;stroke-width:0.5;"/>
     </g>
     <g id="line2d_103">
      <g>
       <use style="stroke:#000000;stroke-width:0.5;" x="60.825" xlink:href="#m728421d6d4" y="221.652243193"/>
      </g>
     </g>
     <g id="line2d_104">
      <g>
       <use style="stroke:#000000;stroke-width:0.5;" x="507.225" xlink:href="#mcb0005524f" y="221.652243193"/>
      </g>
     </g>
     <g id="text_7">
      <!-- 0.4 -->
      <defs>
       <path d="
M32.3281 0
L32.3281 17.1406
L1.26562 17.1406
L1.26562 25.2031
L33.9375 71.5781
L41.1094 71.5781
L41.1094 25.2031
L50.7812 25.2031
L50.7812 17.1406
L41.1094 17.1406
L41.1094 0
z

M32.3281 25.2031
L32.3281 57.4688
L9.90625 25.2031
z
" id="ArialMT-34"/>
      </defs>
      <g transform="translate(30.821875 226.822555693)scale(0.2 -0.2)">
       <use xlink:href="#ArialMT-30"/>
       <use x="55.615234375" xlink:href="#ArialMT-2e"/>
       <use x="83.3984375" xlink:href="#ArialMT-34"/>
      </g>
     </g>
    </g>
    <g id="ytick_4">
     <g id="line2d_105">
      <path clip-path="url(#p0ab5e1e507)" d="
M60.825 153.217
L507.225 153.217" style="fill:none;stroke:#000000;stroke-dasharray:1.000000,3.000000;stroke-dashoffset:0.0;stroke-width:0.5;"/>
     </g>
     <g id="line2d_106">
      <g>
       <use style="stroke:#000000;stroke-width:0.5;" x="60.825" xlink:href="#m728421d6d4" y="153.216599629"/>
      </g>
     </g>
     <g id="line2d_107">
      <g>
       <use style="stroke:#000000;stroke-width:0.5;" x="507.225" xlink:href="#mcb0005524f" y="153.216599629"/>
      </g>
     </g>
     <g id="text_8">
      <!-- 0.6 -->
      <defs>
       <path d="
M49.75 54.0469
L41.0156 53.375
Q39.8438 58.5469 37.7031 60.8906
Q34.125 64.6562 28.9062 64.6562
Q24.7031 64.6562 21.5312 62.3125
Q17.3906 59.2812 14.9844 53.4688
Q12.5938 47.6562 12.5 36.9219
Q15.6719 41.75 20.2656 44.0938
Q24.8594 46.4375 29.8906 46.4375
Q38.6719 46.4375 44.8438 39.9688
Q51.0312 33.5 51.0312 23.25
Q51.0312 16.5 48.125 10.7188
Q45.2188 4.9375 40.1406 1.85938
Q35.0625 -1.21875 28.6094 -1.21875
Q17.625 -1.21875 10.6875 6.85938
Q3.76562 14.9375 3.76562 33.5
Q3.76562 54.25 11.4219 63.6719
Q18.1094 71.875 29.4375 71.875
Q37.8906 71.875 43.2812 67.1406
Q48.6875 62.4062 49.75 54.0469
M13.875 23.1875
Q13.875 18.6562 15.7969 14.5
Q17.7188 10.3594 21.1875 8.17188
Q24.6562 6 28.4688 6
Q34.0312 6 38.0312 10.4844
Q42.0469 14.9844 42.0469 22.7031
Q42.0469 30.125 38.0781 34.3906
Q34.125 38.6719 28.125 38.6719
Q22.1719 38.6719 18.0156 34.3906
Q13.875 30.125 13.875 23.1875" id="ArialMT-36"/>
      </defs>
      <g transform="translate(30.771875 158.386912129)scale(0.2 -0.2)">
       <use xlink:href="#ArialMT-30"/>
       <use x="55.615234375" xlink:href="#ArialMT-2e"/>
       <use x="83.3984375" xlink:href="#ArialMT-36"/>
      </g>
     </g>
    </g>
    <g id="ytick_5">
     <g id="line2d_108">
      <path clip-path="url(#p0ab5e1e507)" d="
M60.825 84.781
L507.225 84.781" style="fill:none;stroke:#000000;stroke-dasharray:1.000000,3.000000;stroke-dashoffset:0.0;stroke-width:0.5;"/>
     </g>
     <g id="line2d_109">
      <g>
       <use style="stroke:#000000;stroke-width:0.5;" x="60.825" xlink:href="#m728421d6d4" y="84.7809560644"/>
      </g>
     </g>
     <g id="line2d_110">
      <g>
       <use style="stroke:#000000;stroke-width:0.5;" x="507.225" xlink:href="#mcb0005524f" y="84.7809560644"/>
      </g>
     </g>
     <g id="text_9">
      <!-- 0.8 -->
      <defs>
       <path d="
M17.6719 38.8125
Q12.2031 40.8281 9.5625 44.5312
Q6.9375 48.25 6.9375 53.4219
Q6.9375 61.2344 12.5469 66.5469
Q18.1719 71.875 27.4844 71.875
Q36.8594 71.875 42.5781 66.4219
Q48.2969 60.9844 48.2969 53.1719
Q48.2969 48.1875 45.6719 44.5
Q43.0625 40.8281 37.75 38.8125
Q44.3438 36.6719 47.7812 31.875
Q51.2188 27.0938 51.2188 20.4531
Q51.2188 11.2812 44.7188 5.03125
Q38.2344 -1.21875 27.6406 -1.21875
Q17.0469 -1.21875 10.5469 5.04688
Q4.04688 11.3281 4.04688 20.7031
Q4.04688 27.6875 7.59375 32.3906
Q11.1406 37.1094 17.6719 38.8125
M15.9219 53.7188
Q15.9219 48.6406 19.1875 45.4062
Q22.4688 42.1875 27.6875 42.1875
Q32.7656 42.1875 36.0156 45.375
Q39.2656 48.5781 39.2656 53.2188
Q39.2656 58.0625 35.9062 61.3594
Q32.5625 64.6562 27.5938 64.6562
Q22.5625 64.6562 19.2344 61.4219
Q15.9219 58.2031 15.9219 53.7188
M13.0938 20.6562
Q13.0938 16.8906 14.875 13.375
Q16.6562 9.85938 20.1719 7.92188
Q23.6875 6 27.7344 6
Q34.0312 6 38.125 10.0469
Q42.2344 14.1094 42.2344 20.3594
Q42.2344 26.7031 38.0156 30.8594
Q33.7969 35.0156 27.4375 35.0156
Q21.2344 35.0156 17.1562 30.9062
Q13.0938 26.8125 13.0938 20.6562" id="ArialMT-38"/>
      </defs>
      <g transform="translate(30.734375 89.9512685644)scale(0.2 -0.2)">
       <use xlink:href="#ArialMT-30"/>
       <use x="55.615234375" xlink:href="#ArialMT-2e"/>
       <use x="83.3984375" xlink:href="#ArialMT-38"/>
      </g>
     </g>
    </g>
    <g id="ytick_6">
     <g id="line2d_111">
      <path clip-path="url(#p0ab5e1e507)" d="
M60.825 16.3453
L507.225 16.3453" style="fill:none;stroke:#000000;stroke-dasharray:1.000000,3.000000;stroke-dashoffset:0.0;stroke-width:0.5;"/>
     </g>
     <g id="line2d_112">
      <g>
       <use style="stroke:#000000;stroke-width:0.5;" x="60.825" xlink:href="#m728421d6d4" y="16.3453125"/>
      </g>
     </g>
     <g id="line2d_113">
      <g>
       <use style="stroke:#000000;stroke-width:0.5;" x="507.225" xlink:href="#mcb0005524f" y="16.3453125"/>
      </g>
     </g>
     <g id="text_10">
      <!-- 1.0 -->
      <g transform="translate(32.159375 21.515625)scale(0.2 -0.2)">
       <use xlink:href="#ArialMT-31"/>
       <use x="55.615234375" xlink:href="#ArialMT-2e"/>
       <use x="83.3984375" xlink:href="#ArialMT-30"/>
      </g>
     </g>
    </g>
    <g id="text_11">
     <!-- proportion of trials -->
     <defs>
      <path d="
M25.7812 7.85938
L27.0469 0.09375
Q23.3438 -0.6875 20.4062 -0.6875
Q15.625 -0.6875 12.9844 0.828125
Q10.3594 2.34375 9.28125 4.8125
Q8.20312 7.28125 8.20312 15.1875
L8.20312 45.0156
L1.76562 45.0156
L1.76562 51.8594
L8.20312 51.8594
L8.20312 64.7031
L16.9375 69.9688
L16.9375 51.8594
L25.7812 51.8594
L25.7812 45.0156
L16.9375 45.0156
L16.9375 14.7031
Q16.9375 10.9375 17.4062 9.85938
Q17.875 8.79688 18.9219 8.15625
Q19.9688 7.51562 21.9219 7.51562
Q23.3906 7.51562 25.7812 7.85938" id="ArialMT-74"/>
      <path d="
M6.64062 61.4688
L6.64062 71.5781
L15.4375 71.5781
L15.4375 61.4688
z

M6.64062 0
L6.64062 51.8594
L15.4375 51.8594
L15.4375 0
z
" id="ArialMT-69"/>
      <path d="
M6.59375 -19.875
L6.59375 51.8594
L14.5938 51.8594
L14.5938 45.125
Q17.4375 49.0781 21 51.0469
Q24.5625 53.0312 29.6406 53.0312
Q36.2812 53.0312 41.3594 49.6094
Q46.4375 46.1875 49.0156 39.9531
Q51.6094 33.7344 51.6094 26.3125
Q51.6094 18.3594 48.75 11.9844
Q45.9062 5.60938 40.4531 2.21875
Q35.0156 -1.17188 29 -1.17188
Q24.6094 -1.17188 21.1094 0.6875
Q17.625 2.54688 15.375 5.375
L15.375 -19.875
z

M14.5469 25.6406
Q14.5469 15.625 18.5938 10.8438
Q22.6562 6.0625 28.4219 6.0625
Q34.2812 6.0625 38.4531 11.0156
Q42.625 15.9688 42.625 26.375
Q42.625 36.2812 38.5469 41.2031
Q34.4688 46.1406 28.8125 46.1406
Q23.1875 46.1406 18.8594 40.8906
Q14.5469 35.6406 14.5469 25.6406" id="ArialMT-70"/>
      <path d="
M6.59375 0
L6.59375 51.8594
L14.5 51.8594
L14.5 44.4844
Q20.2188 53.0312 31 53.0312
Q35.6875 53.0312 39.625 51.3438
Q43.5625 49.6562 45.5156 46.9219
Q47.4688 44.1875 48.25 40.4375
Q48.7344 37.9844 48.7344 31.8906
L48.7344 0
L39.9375 0
L39.9375 31.5469
Q39.9375 36.9219 38.9062 39.5781
Q37.8906 42.2344 35.2812 43.8125
Q32.6719 45.4062 29.1562 45.4062
Q23.5312 45.4062 19.4531 41.8438
Q15.375 38.2812 15.375 28.3281
L15.375 0
z
" id="ArialMT-6e"/>
      <path d="
M6.5 0
L6.5 51.8594
L14.4062 51.8594
L14.4062 44
Q17.4375 49.5156 20 51.2656
Q22.5625 53.0312 25.6406 53.0312
Q30.0781 53.0312 34.6719 50.2031
L31.6406 42.0469
Q28.4219 43.9531 25.2031 43.9531
Q22.3125 43.9531 20.0156 42.2188
Q17.7188 40.4844 16.75 37.4062
Q15.2812 32.7188 15.2812 27.1562
L15.2812 0
z
" id="ArialMT-72"/>
     </defs>
     <g transform="translate(21.759375 265.370405322)rotate(-90.0)scale(0.2 -0.2)">
      <use xlink:href="#ArialMT-70"/>
      <use x="55.615234375" xlink:href="#ArialMT-72"/>
      <use x="88.916015625" xlink:href="#ArialMT-6f"/>
      <use x="144.53125" xlink:href="#ArialMT-70"/>
      <use x="200.146484375" xlink:href="#ArialMT-6f"/>
      <use x="255.76171875" xlink:href="#ArialMT-72"/>
      <use x="289.0625" xlink:href="#ArialMT-74"/>
      <use x="316.845703125" xlink:href="#ArialMT-69"/>
      <use x="339.0625" xlink:href="#ArialMT-6f"/>
      <use x="394.677734375" xlink:href="#ArialMT-6e"/>
      <use x="450.29296875" xlink:href="#ArialMT-20"/>
      <use x="478.076171875" xlink:href="#ArialMT-6f"/>
      <use x="533.69140625" xlink:href="#ArialMT-66"/>
      <use x="561.474609375" xlink:href="#ArialMT-20"/>
      <use x="589.2578125" xlink:href="#ArialMT-74"/>
      <use x="617.041015625" xlink:href="#ArialMT-72"/>
      <use x="650.341796875" xlink:href="#ArialMT-69"/>
      <use x="672.55859375" xlink:href="#ArialMT-61"/>
      <use x="728.173828125" xlink:href="#ArialMT-6c"/>
      <use x="750.390625" xlink:href="#ArialMT-73"/>
     </g>
    </g>
   </g>
   <g id="patch_3">
    <path d="
M60.825 12.9235
L507.225 12.9235" style="fill:none;stroke:#000000;"/>
   </g>
   <g id="patch_4">
    <path d="
M507.225 358.524
L507.225 12.9235" style="fill:none;stroke:#000000;"/>
   </g>
   <g id="patch_5">
    <path d="
M60.825 358.524
L507.225 358.524" style="fill:none;stroke:#000000;"/>
   </g>
   <g id="patch_6">
    <path d="
M60.825 358.524
L60.825 12.9235" style="fill:none;stroke:#000000;"/>
   </g>
   <g id="text_12">
    <!-- {f6-f9}, 5-D -->
    <defs>
     <path d="
M3.17188 21.4844
L3.17188 30.3281
L30.1719 30.3281
L30.1719 21.4844
z
" id="ArialMT-2d"/>
     <path d="
M8.89062 0
L8.89062 10.0156
L18.8906 10.0156
L18.8906 0
Q18.8906 -5.51562 16.9375 -8.90625
Q14.9844 -12.3125 10.75 -14.1562
L8.29688 -10.4062
Q11.0781 -9.1875 12.3906 -6.8125
Q13.7188 -4.4375 13.875 0
z
" id="ArialMT-2c"/>
     <path d="
M5.46875 16.5469
L13.9219 17.3281
Q14.9844 11.375 18.0156 8.6875
Q21.0469 6 25.7812 6
Q29.8281 6 32.875 7.85938
Q35.9375 9.71875 37.8906 12.8125
Q39.8438 15.9219 41.1562 21.1875
Q42.4844 26.4688 42.4844 31.9375
Q42.4844 32.5156 42.4375 33.6875
Q39.7969 29.5 35.2344 26.875
Q30.6719 24.2656 25.3438 24.2656
Q16.4531 24.2656 10.2969 30.7031
Q4.15625 37.1562 4.15625 47.7031
Q4.15625 58.5938 10.5781 65.2344
Q17 71.875 26.6562 71.875
Q33.6406 71.875 39.4219 68.1094
Q45.2188 64.3594 48.2188 57.3906
Q51.2188 50.4375 51.2188 37.25
Q51.2188 23.5312 48.2344 15.4062
Q45.2656 7.28125 39.375 3.03125
Q33.5 -1.21875 25.5938 -1.21875
Q17.1875 -1.21875 11.8594 3.4375
Q6.54688 8.10938 5.46875 16.5469
M41.4531 48.1406
Q41.4531 55.7188 37.4219 60.1562
Q33.4062 64.5938 27.7344 64.5938
Q21.875 64.5938 17.5312 59.8125
Q13.1875 55.0312 13.1875 47.4062
Q13.1875 40.5781 17.3125 36.2969
Q21.4375 32.0312 27.4844 32.0312
Q33.5938 32.0312 37.5156 36.2969
Q41.4531 40.5781 41.4531 48.1406" id="ArialMT-39"/>
     <path d="
M30.5625 29.8906
L30.5625 21.9219
Q26.8125 21.8281 24.4375 19.875
Q22.0781 17.9219 21.2969 14.5781
Q20.5156 11.2344 20.4531 3.07812
Q20.4062 -5.07812 20.1719 -7.67188
Q19.7344 -11.8125 18.5312 -14.2812
Q17.3281 -16.75 15.5625 -18.2344
Q13.8125 -19.7344 11.0781 -20.5156
Q9.23438 -21.0469 5.03125 -21.0469
L2.29688 -21.0469
L2.29688 -13.375
L3.8125 -13.375
Q8.89062 -13.375 10.5469 -11.5469
Q12.2031 -9.71875 12.2031 -3.32812
Q12.2031 8.89062 12.6406 12.1562
Q13.4219 17.5781 15.7656 20.8281
Q18.1094 24.0781 22.4062 25.875
Q16.7969 28.5625 14.5 32.9844
Q12.2031 37.4062 12.2031 47.9062
Q12.2031 57.4219 11.9688 59.2812
Q11.625 62.5469 10.0312 63.8438
Q8.45312 65.1406 3.8125 65.1406
L2.29688 65.1406
L2.29688 72.7969
L5.03125 72.7969
Q9.8125 72.7969 11.9688 72.0156
Q15.0938 70.9531 17.1406 68.4062
Q19.1875 65.875 19.7969 62.0156
Q20.4062 58.1562 20.4531 49.3594
Q20.5156 40.5781 21.2969 37.2344
Q22.0781 33.8906 24.4375 31.9375
Q26.8125 29.9844 30.5625 29.8906" id="ArialMT-7d"/>
     <path d="
M4.15625 18.75
L13.375 19.5312
Q14.4062 12.7969 18.1406 9.39062
Q21.875 6 27.1562 6
Q33.5 6 37.8906 10.7812
Q42.2812 15.5781 42.2812 23.4844
Q42.2812 31 38.0625 35.3438
Q33.8438 39.7031 27 39.7031
Q22.75 39.7031 19.3281 37.7656
Q15.9219 35.8438 13.9688 32.7656
L5.71875 33.8438
L12.6406 70.6094
L48.25 70.6094
L48.25 62.2031
L19.6719 62.2031
L15.8281 42.9688
Q22.2656 47.4688 29.3438 47.4688
Q38.7188 47.4688 45.1562 40.9688
Q51.6094 34.4688 51.6094 24.2656
Q51.6094 14.5469 45.9531 7.46875
Q39.0625 -1.21875 27.1562 -1.21875
Q17.3906 -1.21875 11.2031 4.25
Q5.03125 9.71875 4.15625 18.75" id="ArialMT-35"/>
     <path d="
M2.78125 29.8906
Q6.54688 29.9844 8.90625 31.9062
Q11.2812 33.8438 12.0625 37.2031
Q12.8438 40.5781 12.8906 48.7344
Q12.9375 56.8906 13.1875 59.4688
Q13.625 63.5781 14.8125 66.0625
Q16.0156 68.5625 17.7656 70.0469
Q19.5312 71.5312 22.2656 72.3125
Q24.125 72.7969 28.3281 72.7969
L31.0625 72.7969
L31.0625 65.1406
L29.5469 65.1406
Q24.4688 65.1406 22.7969 63.2969
Q21.1406 61.4688 21.1406 55.125
Q21.1406 42.3281 20.6094 38.9688
Q19.7344 33.7344 17.6094 30.9062
Q15.4844 28.0781 10.9375 25.875
Q16.3125 23.6406 18.7188 19.0156
Q21.1406 14.4062 21.1406 3.90625
Q21.1406 -5.60938 21.3438 -7.42188
Q21.7344 -10.75 23.3125 -12.0625
Q24.9062 -13.375 29.5469 -13.375
L31.0625 -13.375
L31.0625 -21.0469
L28.3281 -21.0469
Q23.5312 -21.0469 21.3906 -20.2656
Q18.2656 -19.1406 16.2031 -16.625
Q14.1562 -14.1094 13.5469 -10.25
Q12.9375 -6.39062 12.8906 2.39062
Q12.8438 11.1875 12.0625 14.5469
Q11.2812 17.9219 8.90625 19.875
Q6.54688 21.8281 2.78125 21.9219
z
" id="ArialMT-7b"/>
    </defs>
    <g transform="translate(236.2 34.3949053218)scale(0.2 -0.2)">
     <use xlink:href="#ArialMT-7b"/>
     <use x="33.3984375" xlink:href="#ArialMT-66"/>
     <use x="61.181640625" xlink:href="#ArialMT-36"/>
     <use x="116.796875" xlink:href="#ArialMT-2d"/>
     <use x="150.09765625" xlink:href="#ArialMT-66"/>
     <use x="177.880859375" xlink:href="#ArialMT-39"/>
     <use x="233.49609375" xlink:href="#ArialMT-7d"/>
     <use x="266.89453125" xlink:href="#ArialMT-2c"/>
     <use x="294.677734375" xlink:href="#ArialMT-20"/>
     <use x="322.4609375" xlink:href="#ArialMT-35"/>
     <use x="378.076171875" xlink:href="#ArialMT-2d"/>
     <use x="411.376953125" xlink:href="#ArialMT-44"/>
    </g>
   </g>
   <g id="text_13">
    <!-- reference budgets from refalgs/best2009-bbob.tar.gz -->
    <defs>
     <path d="
M40.4375 19
L49.0781 17.875
Q47.6562 8.9375 41.8125 3.875
Q35.9844 -1.17188 27.4844 -1.17188
Q16.8438 -1.17188 10.375 5.78125
Q3.90625 12.75 3.90625 25.7344
Q3.90625 34.125 6.6875 40.4219
Q9.46875 46.7344 15.1562 49.875
Q20.8438 53.0312 27.5469 53.0312
Q35.9844 53.0312 41.3594 48.75
Q46.7344 44.4844 48.25 36.625
L39.7031 35.2969
Q38.4844 40.5312 35.375 43.1562
Q32.2812 45.7969 27.875 45.7969
Q21.2344 45.7969 17.0781 41.0312
Q12.9375 36.2812 12.9375 25.9844
Q12.9375 15.5312 16.9375 10.7969
Q20.9531 6.0625 27.3906 6.0625
Q32.5625 6.0625 36.0312 9.23438
Q39.5 12.4062 40.4375 19" id="ArialMT-63"/>
     <path d="
M14.7031 0
L6.54688 0
L6.54688 71.5781
L15.3281 71.5781
L15.3281 46.0469
Q20.9062 53.0312 29.5469 53.0312
Q34.3281 53.0312 38.5938 51.0938
Q42.875 49.1719 45.625 45.6719
Q48.3906 42.1875 49.9531 37.25
Q51.5156 32.3281 51.5156 26.7031
Q51.5156 13.375 44.9219 6.09375
Q38.3281 -1.17188 29.1094 -1.17188
Q19.9219 -1.17188 14.7031 6.5
z

M14.5938 26.3125
Q14.5938 17 17.1406 12.8438
Q21.2969 6.0625 28.375 6.0625
Q34.125 6.0625 38.3281 11.0625
Q42.5312 16.0625 42.5312 25.9844
Q42.5312 36.1406 38.5 40.9688
Q34.4688 45.7969 28.7656 45.7969
Q23 45.7969 18.7969 40.7969
Q14.5938 35.7969 14.5938 26.3125" id="ArialMT-62"/>
     <path d="
M42.0938 16.7031
L51.1719 15.5781
Q49.0312 7.625 43.2188 3.21875
Q37.4062 -1.17188 28.375 -1.17188
Q17 -1.17188 10.3281 5.82812
Q3.65625 12.8438 3.65625 25.4844
Q3.65625 38.5781 10.3906 45.7969
Q17.1406 53.0312 27.875 53.0312
Q38.2812 53.0312 44.875 45.9531
Q51.4688 38.875 51.4688 26.0312
Q51.4688 25.25 51.4219 23.6875
L12.75 23.6875
Q13.2344 15.1406 17.5781 10.5938
Q21.9219 6.0625 28.4219 6.0625
Q33.25 6.0625 36.6719 8.59375
Q40.0938 11.1406 42.0938 16.7031
M13.2344 30.9062
L42.1875 30.9062
Q41.6094 37.4531 38.875 40.7188
Q34.6719 45.7969 27.9844 45.7969
Q21.9219 45.7969 17.7969 41.75
Q13.6719 37.7031 13.2344 30.9062" id="ArialMT-65"/>
     <path d="
M40.2344 0
L40.2344 6.54688
Q35.2969 -1.17188 25.7344 -1.17188
Q19.5312 -1.17188 14.3281 2.25
Q9.125 5.67188 6.26562 11.7969
Q3.42188 17.9219 3.42188 25.875
Q3.42188 33.6406 6 39.9688
Q8.59375 46.2969 13.7656 49.6562
Q18.9531 53.0312 25.3438 53.0312
Q30.0312 53.0312 33.6875 51.0469
Q37.3594 49.0781 39.6562 45.9062
L39.6562 71.5781
L48.3906 71.5781
L48.3906 0
z

M12.4531 25.875
Q12.4531 15.9219 16.6406 10.9844
Q20.8438 6.0625 26.5625 6.0625
Q32.3281 6.0625 36.3438 10.7656
Q40.375 15.4844 40.375 25.1406
Q40.375 35.7969 36.2656 40.7656
Q32.1719 45.75 26.1719 45.75
Q20.3125 45.75 16.375 40.9688
Q12.4531 36.1875 12.4531 25.875" id="ArialMT-64"/>
     <path d="
M40.5781 0
L40.5781 7.625
Q34.5156 -1.17188 24.125 -1.17188
Q19.5312 -1.17188 15.5469 0.578125
Q11.5781 2.34375 9.64062 5
Q7.71875 7.67188 6.9375 11.5312
Q6.39062 14.1094 6.39062 19.7344
L6.39062 51.8594
L15.1875 51.8594
L15.1875 23.0938
Q15.1875 16.2188 15.7188 13.8125
Q16.5469 10.3594 19.2344 8.375
Q21.9219 6.39062 25.875 6.39062
Q29.8281 6.39062 33.2969 8.42188
Q36.7656 10.4531 38.2031 13.9375
Q39.6562 17.4375 39.6562 24.0781
L39.6562 51.8594
L48.4375 51.8594
L48.4375 0
z
" id="ArialMT-75"/>
     <path d="
M6.59375 0
L6.59375 51.8594
L14.4531 51.8594
L14.4531 44.5781
Q16.8906 48.3906 20.9375 50.7031
Q25 53.0312 30.1719 53.0312
Q35.9375 53.0312 39.625 50.6406
Q43.3125 48.25 44.8281 43.9531
Q50.9844 53.0312 60.8438 53.0312
Q68.5625 53.0312 72.7031 48.75
Q76.8594 44.4844 76.8594 35.5938
L76.8594 0
L68.1094 0
L68.1094 32.6719
Q68.1094 37.9375 67.25 40.25
Q66.4062 42.5781 64.1562 43.9844
Q61.9219 45.4062 58.8906 45.4062
Q53.4219 45.4062 49.7969 41.7656
Q46.1875 38.1406 46.1875 30.125
L46.1875 0
L37.4062 0
L37.4062 33.6875
Q37.4062 39.5469 35.25 42.4688
Q33.1094 45.4062 28.2188 45.4062
Q24.5156 45.4062 21.3594 43.4531
Q18.2188 41.5 16.7969 37.7344
Q15.375 33.9844 15.375 26.9062
L15.375 0
z
" id="ArialMT-6d"/>
     <path d="
M1.95312 0
L1.95312 7.125
L34.9688 45.0156
Q29.3438 44.7344 25.0469 44.7344
L3.90625 44.7344
L3.90625 51.8594
L46.2969 51.8594
L46.2969 46.0469
L18.2188 13.1406
L12.7969 7.125
Q18.7031 7.5625 23.875 7.5625
L47.8594 7.5625
L47.8594 0
z
" id="ArialMT-7a"/>
    </defs>
    <g transform="translate(60.825 358.523530322)scale(0.14 -0.14)">
     <use xlink:href="#ArialMT-72"/>
     <use x="33.30078125" xlink:href="#ArialMT-65"/>
     <use x="88.916015625" xlink:href="#ArialMT-66"/>
     <use x="116.69921875" xlink:href="#ArialMT-65"/>
     <use x="172.314453125" xlink:href="#ArialMT-72"/>
     <use x="205.615234375" xlink:href="#ArialMT-65"/>
     <use x="261.23046875" xlink:href="#ArialMT-6e"/>
     <use x="316.845703125" xlink:href="#ArialMT-63"/>
     <use x="366.845703125" xlink:href="#ArialMT-65"/>
     <use x="422.4609375" xlink:href="#ArialMT-20"/>
     <use x="450.244140625" xlink:href="#ArialMT-62"/>
     <use x="505.859375" xlink:href="#ArialMT-75"/>
     <use x="561.474609375" xlink:href="#ArialMT-64"/>
     <use x="617.08984375" xlink:href="#ArialMT-67"/>
     <use x="672.705078125" xlink:href="#ArialMT-65"/>
     <use x="728.3203125" xlink:href="#ArialMT-74"/>
     <use x="756.103515625" xlink:href="#ArialMT-73"/>
     <use x="806.103515625" xlink:href="#ArialMT-20"/>
     <use x="833.88671875" xlink:href="#ArialMT-66"/>
     <use x="861.669921875" xlink:href="#ArialMT-72"/>
     <use x="894.970703125" xlink:href="#ArialMT-6f"/>
     <use x="950.5859375" xlink:href="#ArialMT-6d"/>
     <use x="1033.88671875" xlink:href="#ArialMT-20"/>
     <use x="1061.66992188" xlink:href="#ArialMT-72"/>
     <use x="1094.97070312" xlink:href="#ArialMT-65"/>
     <use x="1150.5859375" xlink:href="#ArialMT-66"/>
     <use x="1178.36914062" xlink:href="#ArialMT-61"/>
     <use x="1233.984375" xlink:href="#ArialMT-6c"/>
     <use x="1256.20117188" xlink:href="#ArialMT-67"/>
     <use x="1311.81640625" xlink:href="#ArialMT-73"/>
     <use x="1361.81640625" xlink:href="#ArialMT-2f"/>
     <use x="1389.59960938" xlink:href="#ArialMT-62"/>
     <use x="1445.21484375" xlink:href="#ArialMT-65"/>
     <use x="1500.83007812" xlink:href="#ArialMT-73"/>
     <use x="1550.83007812" xlink:href="#ArialMT-74"/>
     <use x="1578.61328125" xlink:href="#ArialMT-32"/>
     <use x="1634.22851562" xlink:href="#ArialMT-30"/>
     <use x="1689.84375" xlink:href="#ArialMT-30"/>
     <use x="1745.45898438" xlink:href="#ArialMT-39"/>
     <use x="1801.07421875" xlink:href="#ArialMT-2d"/>
     <use x="1834.375" xlink:href="#ArialMT-62"/>
     <use x="1889.99023438" xlink:href="#ArialMT-62"/>
     <use x="1945.60546875" xlink:href="#ArialMT-6f"/>
     <use x="2001.22070312" xlink:href="#ArialMT-62"/>
     <use x="2056.8359375" xlink:href="#ArialMT-2e"/>
     <use x="2084.61914062" xlink:href="#ArialMT-74"/>
     <use x="2112.40234375" xlink:href="#ArialMT-61"/>
     <use x="2168.01757812" xlink:href="#ArialMT-72"/>
     <use x="2195.81835938" xlink:href="#ArialMT-2e"/>
     <use x="2223.6015625" xlink:href="#ArialMT-67"/>
     <use x="2279.21679688" xlink:href="#ArialMT-7a"/>
    </g>
   </g>
   <g id="text_14">
    <!-- v2.0.1 -->
    <g style="fill:#808080;" transform="translate(271.38671875 353.080030322)scale(0.1 -0.1)">
     <use xlink:href="#ArialMT-76"/>
     <use x="50.0" xlink:href="#ArialMT-32"/>
     <use x="105.615234375" xlink:href="#ArialMT-2e"/>
     <use x="133.3984375" xlink:href="#ArialMT-30"/>
     <use x="189.013671875" xlink:href="#ArialMT-2e"/>
     <use x="216.796875" xlink:href="#ArialMT-31"/>
    </g>
   </g>
   <g id="legend_1">
    <g id="patch_7">
     <path d="
M70.825 142.086
L208.572 142.086
L208.572 22.9235
L70.825 22.9235
L70.825 142.086
z
" style="fill:#ffffff;opacity:0.2;stroke:#000000;"/>
    </g>
    <g id="line2d_114">
     <path d="
M84.825 38.2392
L112.825 38.2392" style="fill:none;stroke:#000000;stroke-linecap:square;"/>
    </g>
    <g id="line2d_115"/>
    <g id="text_15">
     <!-- 0.5: 4/4 -->
     <defs>
      <path d="
M9.03125 41.8438
L9.03125 51.8594
L19.0469 51.8594
L19.0469 41.8438
z

M9.03125 0
L9.03125 10.0156
L19.0469 10.0156
L19.0469 0
z
" id="ArialMT-3a"/>
     </defs>
     <g transform="translate(134.825 45.2391553218)scale(0.2 -0.2)">
      <use xlink:href="#ArialMT-30"/>
      <use x="55.615234375" xlink:href="#ArialMT-2e"/>
      <use x="83.3984375" xlink:href="#ArialMT-35"/>
      <use x="139.013671875" xlink:href="#ArialMT-3a"/>
      <use x="166.796875" xlink:href="#ArialMT-20"/>
      <use x="194.580078125" xlink:href="#ArialMT-34"/>
      <use x="250.1953125" xlink:href="#ArialMT-2f"/>
      <use x="277.978515625" xlink:href="#ArialMT-34"/>
     </g>
    </g>
    <g id="line2d_116">
     <path d="
M84.825 66.5298
L112.825 66.5298" style="fill:none;stroke:#00bfbf;stroke-linecap:square;"/>
    </g>
    <g id="line2d_117"/>
    <g id="text_16">
     <!-- 2: 4/4 -->
     <g transform="translate(134.825 73.5297803218)scale(0.2 -0.2)">
      <use xlink:href="#ArialMT-32"/>
      <use x="55.615234375" xlink:href="#ArialMT-3a"/>
      <use x="83.3984375" xlink:href="#ArialMT-20"/>
      <use x="111.181640625" xlink:href="#ArialMT-34"/>
      <use x="166.796875" xlink:href="#ArialMT-2f"/>
      <use x="194.580078125" xlink:href="#ArialMT-34"/>
     </g>
    </g>
    <g id="line2d_118">
     <path d="
M84.825 94.8204
L112.825 94.8204" style="fill:none;stroke:#bf00bf;stroke-linecap:square;"/>
    </g>
    <g id="line2d_119"/>
    <g id="text_17">
     <!-- 10: 4/4 -->
     <g transform="translate(134.825 101.820405322)scale(0.2 -0.2)">
      <use xlink:href="#ArialMT-31"/>
      <use x="55.615234375" xlink:href="#ArialMT-30"/>
      <use x="111.23046875" xlink:href="#ArialMT-3a"/>
      <use x="139.013671875" xlink:href="#ArialMT-20"/>
      <use x="166.796875" xlink:href="#ArialMT-34"/>
      <use x="222.412109375" xlink:href="#ArialMT-2f"/>
      <use x="250.1953125" xlink:href="#ArialMT-34"/>
     </g>
    </g>
    <g id="line2d_120">
     <path d="
M84.825 123.111
L112.825 123.111" style="fill:none;stroke:#ff0000;stroke-linecap:square;stroke-width:3.0;"/>
    </g>
    <g id="line2d_121"/>
    <g id="text_18">
     <!-- 50: 1/4 -->
     <g transform="translate(134.825 130.111030322)scale(0.2 -0.2)">
      <use xlink:href="#ArialMT-35"/>
      <use x="55.615234375" xlink:href="#ArialMT-30"/>
      <use x="111.23046875" xlink:href="#ArialMT-3a"/>
      <use x="139.013671875" xlink:href="#ArialMT-20"/>
      <use x="166.796875" xlink:href="#ArialMT-31"/>
      <use x="222.412109375" xlink:href="#ArialMT-2f"/>
      <use x="250.1953125" xlink:href="#ArialMT-34"/>
     </g>
    </g>
   </g>
  </g>
 </g>
 <defs>
  <clipPath id="p0ab5e1e507">
   <rect height="345.6" width="446.4" x="60.825" y="12.9235303218"/>
  </clipPath>
 </defs>
</svg>
